<?xml version="1.0" encoding="utf-8" standalone="no"?>
<!DOCTYPE svg PUBLIC "-//W3C//DTD SVG 1.1//EN"
  "http://www.w3.org/Graphics/SVG/1.1/DTD/svg11.dtd">
<svg xmlns:xlink="http://www.w3.org/1999/xlink" width="507.159131pt" height="237.886033pt" viewBox="0 0 507.159131 237.886033" xmlns="http://www.w3.org/2000/svg" version="1.1">
 <metadata>
  <rdf:RDF xmlns:dc="http://purl.org/dc/elements/1.1/" xmlns:cc="http://creativecommons.org/ns#" xmlns:rdf="http://www.w3.org/1999/02/22-rdf-syntax-ns#">
   <cc:Work>
    <dc:type rdf:resource="http://purl.org/dc/dcmitype/StillImage"/>
    <dc:date>2022-02-01T19:22:45.488669</dc:date>
    <dc:format>image/svg+xml</dc:format>
    <dc:creator>
     <cc:Agent>
      <dc:title>Matplotlib v3.5.1, https://matplotlib.org/</dc:title>
     </cc:Agent>
    </dc:creator>
   </cc:Work>
  </rdf:RDF>
 </metadata>
 <defs>
  <style type="text/css">*{stroke-linejoin: round; stroke-linecap: butt}</style>
 </defs>
 <g id="figure_1">
  <g id="patch_1">
   <path d="M 0 237.886033 
L 507.159131 237.886033 
L 507.159131 0 
L 0 0 
z
" style="fill: #ffffff"/>
  </g>
  <g id="axes_1">
   <g id="patch_2">
    <path d="M 53.559131 182.359219 
L 499.959131 182.359219 
L 499.959131 10.999219 
L 53.559131 10.999219 
z
" style="fill: #ffffff"/>
   </g>
   <g id="matplotlib.axis_1">
    <g id="xtick_1">
     <g id="line2d_1">
      <defs>
       <path id="m5ea9ddeb30" d="M 0 0 
L 0 3.5 
" style="stroke: #000000; stroke-width: 0.8"/>
      </defs>
      <g>
       <use xlink:href="#m5ea9ddeb30" x="68.024899" y="182.359219" style="stroke: #000000; stroke-width: 0.8"/>
      </g>
     </g>
     <g id="text_1">
      <!-- 2020-Nov-01 -->
      <g transform="translate(10.999219 228.263096)rotate(-30)scale(0.1 -0.1)">
       <defs>
        <path id="DejaVuSans-32" d="M 1228 531 
L 3431 531 
L 3431 0 
L 469 0 
L 469 531 
Q 828 903 1448 1529 
Q 2069 2156 2228 2338 
Q 2531 2678 2651 2914 
Q 2772 3150 2772 3378 
Q 2772 3750 2511 3984 
Q 2250 4219 1831 4219 
Q 1534 4219 1204 4116 
Q 875 4013 500 3803 
L 500 4441 
Q 881 4594 1212 4672 
Q 1544 4750 1819 4750 
Q 2544 4750 2975 4387 
Q 3406 4025 3406 3419 
Q 3406 3131 3298 2873 
Q 3191 2616 2906 2266 
Q 2828 2175 2409 1742 
Q 1991 1309 1228 531 
z
" transform="scale(0.015625)"/>
        <path id="DejaVuSans-30" d="M 2034 4250 
Q 1547 4250 1301 3770 
Q 1056 3291 1056 2328 
Q 1056 1369 1301 889 
Q 1547 409 2034 409 
Q 2525 409 2770 889 
Q 3016 1369 3016 2328 
Q 3016 3291 2770 3770 
Q 2525 4250 2034 4250 
z
M 2034 4750 
Q 2819 4750 3233 4129 
Q 3647 3509 3647 2328 
Q 3647 1150 3233 529 
Q 2819 -91 2034 -91 
Q 1250 -91 836 529 
Q 422 1150 422 2328 
Q 422 3509 836 4129 
Q 1250 4750 2034 4750 
z
" transform="scale(0.015625)"/>
        <path id="DejaVuSans-2d" d="M 313 2009 
L 1997 2009 
L 1997 1497 
L 313 1497 
L 313 2009 
z
" transform="scale(0.015625)"/>
        <path id="DejaVuSans-4e" d="M 628 4666 
L 1478 4666 
L 3547 763 
L 3547 4666 
L 4159 4666 
L 4159 0 
L 3309 0 
L 1241 3903 
L 1241 0 
L 628 0 
L 628 4666 
z
" transform="scale(0.015625)"/>
        <path id="DejaVuSans-6f" d="M 1959 3097 
Q 1497 3097 1228 2736 
Q 959 2375 959 1747 
Q 959 1119 1226 758 
Q 1494 397 1959 397 
Q 2419 397 2687 759 
Q 2956 1122 2956 1747 
Q 2956 2369 2687 2733 
Q 2419 3097 1959 3097 
z
M 1959 3584 
Q 2709 3584 3137 3096 
Q 3566 2609 3566 1747 
Q 3566 888 3137 398 
Q 2709 -91 1959 -91 
Q 1206 -91 779 398 
Q 353 888 353 1747 
Q 353 2609 779 3096 
Q 1206 3584 1959 3584 
z
" transform="scale(0.015625)"/>
        <path id="DejaVuSans-76" d="M 191 3500 
L 800 3500 
L 1894 563 
L 2988 3500 
L 3597 3500 
L 2284 0 
L 1503 0 
L 191 3500 
z
" transform="scale(0.015625)"/>
        <path id="DejaVuSans-31" d="M 794 531 
L 1825 531 
L 1825 4091 
L 703 3866 
L 703 4441 
L 1819 4666 
L 2450 4666 
L 2450 531 
L 3481 531 
L 3481 0 
L 794 0 
L 794 531 
z
" transform="scale(0.015625)"/>
       </defs>
       <use xlink:href="#DejaVuSans-32"/>
       <use xlink:href="#DejaVuSans-30" x="63.623047"/>
       <use xlink:href="#DejaVuSans-32" x="127.246094"/>
       <use xlink:href="#DejaVuSans-30" x="190.869141"/>
       <use xlink:href="#DejaVuSans-2d" x="254.492188"/>
       <use xlink:href="#DejaVuSans-4e" x="290.576172"/>
       <use xlink:href="#DejaVuSans-6f" x="365.380859"/>
       <use xlink:href="#DejaVuSans-76" x="426.5625"/>
       <use xlink:href="#DejaVuSans-2d" x="483.117188"/>
       <use xlink:href="#DejaVuSans-30" x="519.201172"/>
       <use xlink:href="#DejaVuSans-31" x="582.824219"/>
      </g>
     </g>
    </g>
    <g id="xtick_2">
     <g id="line2d_2">
      <g>
       <use xlink:href="#m5ea9ddeb30" x="97.150605" y="182.359219" style="stroke: #000000; stroke-width: 0.8"/>
      </g>
     </g>
     <g id="text_2">
      <!-- 2020-Dec-01 -->
      <g transform="translate(40.042383 228.310752)rotate(-30)scale(0.1 -0.1)">
       <defs>
        <path id="DejaVuSans-44" d="M 1259 4147 
L 1259 519 
L 2022 519 
Q 2988 519 3436 956 
Q 3884 1394 3884 2338 
Q 3884 3275 3436 3711 
Q 2988 4147 2022 4147 
L 1259 4147 
z
M 628 4666 
L 1925 4666 
Q 3281 4666 3915 4102 
Q 4550 3538 4550 2338 
Q 4550 1131 3912 565 
Q 3275 0 1925 0 
L 628 0 
L 628 4666 
z
" transform="scale(0.015625)"/>
        <path id="DejaVuSans-65" d="M 3597 1894 
L 3597 1613 
L 953 1613 
Q 991 1019 1311 708 
Q 1631 397 2203 397 
Q 2534 397 2845 478 
Q 3156 559 3463 722 
L 3463 178 
Q 3153 47 2828 -22 
Q 2503 -91 2169 -91 
Q 1331 -91 842 396 
Q 353 884 353 1716 
Q 353 2575 817 3079 
Q 1281 3584 2069 3584 
Q 2775 3584 3186 3129 
Q 3597 2675 3597 1894 
z
M 3022 2063 
Q 3016 2534 2758 2815 
Q 2500 3097 2075 3097 
Q 1594 3097 1305 2825 
Q 1016 2553 972 2059 
L 3022 2063 
z
" transform="scale(0.015625)"/>
        <path id="DejaVuSans-63" d="M 3122 3366 
L 3122 2828 
Q 2878 2963 2633 3030 
Q 2388 3097 2138 3097 
Q 1578 3097 1268 2742 
Q 959 2388 959 1747 
Q 959 1106 1268 751 
Q 1578 397 2138 397 
Q 2388 397 2633 464 
Q 2878 531 3122 666 
L 3122 134 
Q 2881 22 2623 -34 
Q 2366 -91 2075 -91 
Q 1284 -91 818 406 
Q 353 903 353 1747 
Q 353 2603 823 3093 
Q 1294 3584 2113 3584 
Q 2378 3584 2631 3529 
Q 2884 3475 3122 3366 
z
" transform="scale(0.015625)"/>
       </defs>
       <use xlink:href="#DejaVuSans-32"/>
       <use xlink:href="#DejaVuSans-30" x="63.623047"/>
       <use xlink:href="#DejaVuSans-32" x="127.246094"/>
       <use xlink:href="#DejaVuSans-30" x="190.869141"/>
       <use xlink:href="#DejaVuSans-2d" x="254.492188"/>
       <use xlink:href="#DejaVuSans-44" x="290.576172"/>
       <use xlink:href="#DejaVuSans-65" x="367.578125"/>
       <use xlink:href="#DejaVuSans-63" x="429.101562"/>
       <use xlink:href="#DejaVuSans-2d" x="484.082031"/>
       <use xlink:href="#DejaVuSans-30" x="520.166016"/>
       <use xlink:href="#DejaVuSans-31" x="583.789062"/>
      </g>
     </g>
    </g>
    <g id="xtick_3">
     <g id="line2d_3">
      <g>
       <use xlink:href="#m5ea9ddeb30" x="127.247169" y="182.359219" style="stroke: #000000; stroke-width: 0.8"/>
      </g>
     </g>
     <g id="text_3">
      <!-- 2021-Jan-01 -->
      <g transform="translate(73.060429 226.624034)rotate(-30)scale(0.1 -0.1)">
       <defs>
        <path id="DejaVuSans-4a" d="M 628 4666 
L 1259 4666 
L 1259 325 
Q 1259 -519 939 -900 
Q 619 -1281 -91 -1281 
L -331 -1281 
L -331 -750 
L -134 -750 
Q 284 -750 456 -515 
Q 628 -281 628 325 
L 628 4666 
z
" transform="scale(0.015625)"/>
        <path id="DejaVuSans-61" d="M 2194 1759 
Q 1497 1759 1228 1600 
Q 959 1441 959 1056 
Q 959 750 1161 570 
Q 1363 391 1709 391 
Q 2188 391 2477 730 
Q 2766 1069 2766 1631 
L 2766 1759 
L 2194 1759 
z
M 3341 1997 
L 3341 0 
L 2766 0 
L 2766 531 
Q 2569 213 2275 61 
Q 1981 -91 1556 -91 
Q 1019 -91 701 211 
Q 384 513 384 1019 
Q 384 1609 779 1909 
Q 1175 2209 1959 2209 
L 2766 2209 
L 2766 2266 
Q 2766 2663 2505 2880 
Q 2244 3097 1772 3097 
Q 1472 3097 1187 3025 
Q 903 2953 641 2809 
L 641 3341 
Q 956 3463 1253 3523 
Q 1550 3584 1831 3584 
Q 2591 3584 2966 3190 
Q 3341 2797 3341 1997 
z
" transform="scale(0.015625)"/>
        <path id="DejaVuSans-6e" d="M 3513 2113 
L 3513 0 
L 2938 0 
L 2938 2094 
Q 2938 2591 2744 2837 
Q 2550 3084 2163 3084 
Q 1697 3084 1428 2787 
Q 1159 2491 1159 1978 
L 1159 0 
L 581 0 
L 581 3500 
L 1159 3500 
L 1159 2956 
Q 1366 3272 1645 3428 
Q 1925 3584 2291 3584 
Q 2894 3584 3203 3211 
Q 3513 2838 3513 2113 
z
" transform="scale(0.015625)"/>
       </defs>
       <use xlink:href="#DejaVuSans-32"/>
       <use xlink:href="#DejaVuSans-30" x="63.623047"/>
       <use xlink:href="#DejaVuSans-32" x="127.246094"/>
       <use xlink:href="#DejaVuSans-31" x="190.869141"/>
       <use xlink:href="#DejaVuSans-2d" x="254.492188"/>
       <use xlink:href="#DejaVuSans-4a" x="296.201172"/>
       <use xlink:href="#DejaVuSans-61" x="325.693359"/>
       <use xlink:href="#DejaVuSans-6e" x="386.972656"/>
       <use xlink:href="#DejaVuSans-2d" x="450.351562"/>
       <use xlink:href="#DejaVuSans-30" x="486.435547"/>
       <use xlink:href="#DejaVuSans-31" x="550.058594"/>
      </g>
     </g>
    </g>
    <g id="xtick_4">
     <g id="line2d_4">
      <g>
       <use xlink:href="#m5ea9ddeb30" x="157.343733" y="182.359219" style="stroke: #000000; stroke-width: 0.8"/>
      </g>
     </g>
     <g id="text_4">
      <!-- 2021-Feb-01 -->
      <g transform="translate(101.663099 227.486534)rotate(-30)scale(0.1 -0.1)">
       <defs>
        <path id="DejaVuSans-46" d="M 628 4666 
L 3309 4666 
L 3309 4134 
L 1259 4134 
L 1259 2759 
L 3109 2759 
L 3109 2228 
L 1259 2228 
L 1259 0 
L 628 0 
L 628 4666 
z
" transform="scale(0.015625)"/>
        <path id="DejaVuSans-62" d="M 3116 1747 
Q 3116 2381 2855 2742 
Q 2594 3103 2138 3103 
Q 1681 3103 1420 2742 
Q 1159 2381 1159 1747 
Q 1159 1113 1420 752 
Q 1681 391 2138 391 
Q 2594 391 2855 752 
Q 3116 1113 3116 1747 
z
M 1159 2969 
Q 1341 3281 1617 3432 
Q 1894 3584 2278 3584 
Q 2916 3584 3314 3078 
Q 3713 2572 3713 1747 
Q 3713 922 3314 415 
Q 2916 -91 2278 -91 
Q 1894 -91 1617 61 
Q 1341 213 1159 525 
L 1159 0 
L 581 0 
L 581 4863 
L 1159 4863 
L 1159 2969 
z
" transform="scale(0.015625)"/>
       </defs>
       <use xlink:href="#DejaVuSans-32"/>
       <use xlink:href="#DejaVuSans-30" x="63.623047"/>
       <use xlink:href="#DejaVuSans-32" x="127.246094"/>
       <use xlink:href="#DejaVuSans-31" x="190.869141"/>
       <use xlink:href="#DejaVuSans-2d" x="254.492188"/>
       <use xlink:href="#DejaVuSans-46" x="290.576172"/>
       <use xlink:href="#DejaVuSans-65" x="342.595703"/>
       <use xlink:href="#DejaVuSans-62" x="404.119141"/>
       <use xlink:href="#DejaVuSans-2d" x="467.595703"/>
       <use xlink:href="#DejaVuSans-30" x="503.679688"/>
       <use xlink:href="#DejaVuSans-31" x="567.302734"/>
      </g>
     </g>
    </g>
    <g id="xtick_5">
     <g id="line2d_5">
      <g>
       <use xlink:href="#m5ea9ddeb30" x="184.527726" y="182.359219" style="stroke: #000000; stroke-width: 0.8"/>
      </g>
     </g>
     <g id="text_5">
      <!-- 2021-Mar-01 -->
      <g transform="translate(128.391075 227.749815)rotate(-30)scale(0.1 -0.1)">
       <defs>
        <path id="DejaVuSans-4d" d="M 628 4666 
L 1569 4666 
L 2759 1491 
L 3956 4666 
L 4897 4666 
L 4897 0 
L 4281 0 
L 4281 4097 
L 3078 897 
L 2444 897 
L 1241 4097 
L 1241 0 
L 628 0 
L 628 4666 
z
" transform="scale(0.015625)"/>
        <path id="DejaVuSans-72" d="M 2631 2963 
Q 2534 3019 2420 3045 
Q 2306 3072 2169 3072 
Q 1681 3072 1420 2755 
Q 1159 2438 1159 1844 
L 1159 0 
L 581 0 
L 581 3500 
L 1159 3500 
L 1159 2956 
Q 1341 3275 1631 3429 
Q 1922 3584 2338 3584 
Q 2397 3584 2469 3576 
Q 2541 3569 2628 3553 
L 2631 2963 
z
" transform="scale(0.015625)"/>
       </defs>
       <use xlink:href="#DejaVuSans-32"/>
       <use xlink:href="#DejaVuSans-30" x="63.623047"/>
       <use xlink:href="#DejaVuSans-32" x="127.246094"/>
       <use xlink:href="#DejaVuSans-31" x="190.869141"/>
       <use xlink:href="#DejaVuSans-2d" x="254.492188"/>
       <use xlink:href="#DejaVuSans-4d" x="290.576172"/>
       <use xlink:href="#DejaVuSans-61" x="376.855469"/>
       <use xlink:href="#DejaVuSans-72" x="438.134766"/>
       <use xlink:href="#DejaVuSans-2d" x="472.873047"/>
       <use xlink:href="#DejaVuSans-30" x="508.957031"/>
       <use xlink:href="#DejaVuSans-31" x="572.580078"/>
      </g>
     </g>
    </g>
    <g id="xtick_6">
     <g id="line2d_6">
      <g>
       <use xlink:href="#m5ea9ddeb30" x="214.62429" y="182.359219" style="stroke: #000000; stroke-width: 0.8"/>
      </g>
     </g>
     <g id="text_6">
      <!-- 2021-Apr-01 -->
      <g transform="translate(160.039719 226.853721)rotate(-30)scale(0.1 -0.1)">
       <defs>
        <path id="DejaVuSans-41" d="M 2188 4044 
L 1331 1722 
L 3047 1722 
L 2188 4044 
z
M 1831 4666 
L 2547 4666 
L 4325 0 
L 3669 0 
L 3244 1197 
L 1141 1197 
L 716 0 
L 50 0 
L 1831 4666 
z
" transform="scale(0.015625)"/>
        <path id="DejaVuSans-70" d="M 1159 525 
L 1159 -1331 
L 581 -1331 
L 581 3500 
L 1159 3500 
L 1159 2969 
Q 1341 3281 1617 3432 
Q 1894 3584 2278 3584 
Q 2916 3584 3314 3078 
Q 3713 2572 3713 1747 
Q 3713 922 3314 415 
Q 2916 -91 2278 -91 
Q 1894 -91 1617 61 
Q 1341 213 1159 525 
z
M 3116 1747 
Q 3116 2381 2855 2742 
Q 2594 3103 2138 3103 
Q 1681 3103 1420 2742 
Q 1159 2381 1159 1747 
Q 1159 1113 1420 752 
Q 1681 391 2138 391 
Q 2594 391 2855 752 
Q 3116 1113 3116 1747 
z
" transform="scale(0.015625)"/>
       </defs>
       <use xlink:href="#DejaVuSans-32"/>
       <use xlink:href="#DejaVuSans-30" x="63.623047"/>
       <use xlink:href="#DejaVuSans-32" x="127.246094"/>
       <use xlink:href="#DejaVuSans-31" x="190.869141"/>
       <use xlink:href="#DejaVuSans-2d" x="254.492188"/>
       <use xlink:href="#DejaVuSans-41" x="288.326172"/>
       <use xlink:href="#DejaVuSans-70" x="356.734375"/>
       <use xlink:href="#DejaVuSans-72" x="420.210938"/>
       <use xlink:href="#DejaVuSans-2d" x="454.949219"/>
       <use xlink:href="#DejaVuSans-30" x="491.033203"/>
       <use xlink:href="#DejaVuSans-31" x="554.65625"/>
      </g>
     </g>
    </g>
    <g id="xtick_7">
     <g id="line2d_7">
      <g>
       <use xlink:href="#m5ea9ddeb30" x="243.749996" y="182.359219" style="stroke: #000000; stroke-width: 0.8"/>
      </g>
     </g>
     <g id="text_7">
      <!-- 2021-May-01 -->
      <g transform="translate(185.647198 228.884971)rotate(-30)scale(0.1 -0.1)">
       <defs>
        <path id="DejaVuSans-79" d="M 2059 -325 
Q 1816 -950 1584 -1140 
Q 1353 -1331 966 -1331 
L 506 -1331 
L 506 -850 
L 844 -850 
Q 1081 -850 1212 -737 
Q 1344 -625 1503 -206 
L 1606 56 
L 191 3500 
L 800 3500 
L 1894 763 
L 2988 3500 
L 3597 3500 
L 2059 -325 
z
" transform="scale(0.015625)"/>
       </defs>
       <use xlink:href="#DejaVuSans-32"/>
       <use xlink:href="#DejaVuSans-30" x="63.623047"/>
       <use xlink:href="#DejaVuSans-32" x="127.246094"/>
       <use xlink:href="#DejaVuSans-31" x="190.869141"/>
       <use xlink:href="#DejaVuSans-2d" x="254.492188"/>
       <use xlink:href="#DejaVuSans-4d" x="290.576172"/>
       <use xlink:href="#DejaVuSans-61" x="376.855469"/>
       <use xlink:href="#DejaVuSans-79" x="438.134766"/>
       <use xlink:href="#DejaVuSans-2d" x="495.564453"/>
       <use xlink:href="#DejaVuSans-30" x="531.648438"/>
       <use xlink:href="#DejaVuSans-31" x="595.271484"/>
      </g>
     </g>
    </g>
    <g id="xtick_8">
     <g id="line2d_8">
      <g>
       <use xlink:href="#m5ea9ddeb30" x="273.84656" y="182.359219" style="stroke: #000000; stroke-width: 0.8"/>
      </g>
     </g>
     <g id="text_8">
      <!-- 2021-Jun-01 -->
      <g transform="translate(219.478496 226.728721)rotate(-30)scale(0.1 -0.1)">
       <defs>
        <path id="DejaVuSans-75" d="M 544 1381 
L 544 3500 
L 1119 3500 
L 1119 1403 
Q 1119 906 1312 657 
Q 1506 409 1894 409 
Q 2359 409 2629 706 
Q 2900 1003 2900 1516 
L 2900 3500 
L 3475 3500 
L 3475 0 
L 2900 0 
L 2900 538 
Q 2691 219 2414 64 
Q 2138 -91 1772 -91 
Q 1169 -91 856 284 
Q 544 659 544 1381 
z
M 1991 3584 
L 1991 3584 
z
" transform="scale(0.015625)"/>
       </defs>
       <use xlink:href="#DejaVuSans-32"/>
       <use xlink:href="#DejaVuSans-30" x="63.623047"/>
       <use xlink:href="#DejaVuSans-32" x="127.246094"/>
       <use xlink:href="#DejaVuSans-31" x="190.869141"/>
       <use xlink:href="#DejaVuSans-2d" x="254.492188"/>
       <use xlink:href="#DejaVuSans-4a" x="296.201172"/>
       <use xlink:href="#DejaVuSans-75" x="325.693359"/>
       <use xlink:href="#DejaVuSans-6e" x="389.072266"/>
       <use xlink:href="#DejaVuSans-2d" x="452.451172"/>
       <use xlink:href="#DejaVuSans-30" x="488.535156"/>
       <use xlink:href="#DejaVuSans-31" x="552.158203"/>
      </g>
     </g>
    </g>
    <g id="xtick_9">
     <g id="line2d_9">
      <g>
       <use xlink:href="#m5ea9ddeb30" x="302.972267" y="182.359219" style="stroke: #000000; stroke-width: 0.8"/>
      </g>
     </g>
     <g id="text_9">
      <!-- 2021-Jul-01 -->
      <g transform="translate(251.686712 224.949034)rotate(-30)scale(0.1 -0.1)">
       <defs>
        <path id="DejaVuSans-6c" d="M 603 4863 
L 1178 4863 
L 1178 0 
L 603 0 
L 603 4863 
z
" transform="scale(0.015625)"/>
       </defs>
       <use xlink:href="#DejaVuSans-32"/>
       <use xlink:href="#DejaVuSans-30" x="63.623047"/>
       <use xlink:href="#DejaVuSans-32" x="127.246094"/>
       <use xlink:href="#DejaVuSans-31" x="190.869141"/>
       <use xlink:href="#DejaVuSans-2d" x="254.492188"/>
       <use xlink:href="#DejaVuSans-4a" x="296.201172"/>
       <use xlink:href="#DejaVuSans-75" x="325.693359"/>
       <use xlink:href="#DejaVuSans-6c" x="389.072266"/>
       <use xlink:href="#DejaVuSans-2d" x="416.855469"/>
       <use xlink:href="#DejaVuSans-30" x="452.939453"/>
       <use xlink:href="#DejaVuSans-31" x="516.5625"/>
      </g>
     </g>
    </g>
    <g id="xtick_10">
     <g id="line2d_10">
      <g>
       <use xlink:href="#m5ea9ddeb30" x="333.068831" y="182.359219" style="stroke: #000000; stroke-width: 0.8"/>
      </g>
     </g>
     <g id="text_10">
      <!-- 2021-Aug-01 -->
      <g transform="translate(276.003909 228.285752)rotate(-30)scale(0.1 -0.1)">
       <defs>
        <path id="DejaVuSans-67" d="M 2906 1791 
Q 2906 2416 2648 2759 
Q 2391 3103 1925 3103 
Q 1463 3103 1205 2759 
Q 947 2416 947 1791 
Q 947 1169 1205 825 
Q 1463 481 1925 481 
Q 2391 481 2648 825 
Q 2906 1169 2906 1791 
z
M 3481 434 
Q 3481 -459 3084 -895 
Q 2688 -1331 1869 -1331 
Q 1566 -1331 1297 -1286 
Q 1028 -1241 775 -1147 
L 775 -588 
Q 1028 -725 1275 -790 
Q 1522 -856 1778 -856 
Q 2344 -856 2625 -561 
Q 2906 -266 2906 331 
L 2906 616 
Q 2728 306 2450 153 
Q 2172 0 1784 0 
Q 1141 0 747 490 
Q 353 981 353 1791 
Q 353 2603 747 3093 
Q 1141 3584 1784 3584 
Q 2172 3584 2450 3431 
Q 2728 3278 2906 2969 
L 2906 3500 
L 3481 3500 
L 3481 434 
z
" transform="scale(0.015625)"/>
       </defs>
       <use xlink:href="#DejaVuSans-32"/>
       <use xlink:href="#DejaVuSans-30" x="63.623047"/>
       <use xlink:href="#DejaVuSans-32" x="127.246094"/>
       <use xlink:href="#DejaVuSans-31" x="190.869141"/>
       <use xlink:href="#DejaVuSans-2d" x="254.492188"/>
       <use xlink:href="#DejaVuSans-41" x="288.326172"/>
       <use xlink:href="#DejaVuSans-75" x="356.734375"/>
       <use xlink:href="#DejaVuSans-67" x="420.113281"/>
       <use xlink:href="#DejaVuSans-2d" x="483.589844"/>
       <use xlink:href="#DejaVuSans-30" x="519.673828"/>
       <use xlink:href="#DejaVuSans-31" x="583.296875"/>
      </g>
     </g>
    </g>
    <g id="xtick_11">
     <g id="line2d_11">
      <g>
       <use xlink:href="#m5ea9ddeb30" x="363.165394" y="182.359219" style="stroke: #000000; stroke-width: 0.8"/>
      </g>
     </g>
     <g id="text_11">
      <!-- 2021-Sep-01 -->
      <g transform="translate(306.491537 228.059971)rotate(-30)scale(0.1 -0.1)">
       <defs>
        <path id="DejaVuSans-53" d="M 3425 4513 
L 3425 3897 
Q 3066 4069 2747 4153 
Q 2428 4238 2131 4238 
Q 1616 4238 1336 4038 
Q 1056 3838 1056 3469 
Q 1056 3159 1242 3001 
Q 1428 2844 1947 2747 
L 2328 2669 
Q 3034 2534 3370 2195 
Q 3706 1856 3706 1288 
Q 3706 609 3251 259 
Q 2797 -91 1919 -91 
Q 1588 -91 1214 -16 
Q 841 59 441 206 
L 441 856 
Q 825 641 1194 531 
Q 1563 422 1919 422 
Q 2459 422 2753 634 
Q 3047 847 3047 1241 
Q 3047 1584 2836 1778 
Q 2625 1972 2144 2069 
L 1759 2144 
Q 1053 2284 737 2584 
Q 422 2884 422 3419 
Q 422 4038 858 4394 
Q 1294 4750 2059 4750 
Q 2388 4750 2728 4690 
Q 3069 4631 3425 4513 
z
" transform="scale(0.015625)"/>
       </defs>
       <use xlink:href="#DejaVuSans-32"/>
       <use xlink:href="#DejaVuSans-30" x="63.623047"/>
       <use xlink:href="#DejaVuSans-32" x="127.246094"/>
       <use xlink:href="#DejaVuSans-31" x="190.869141"/>
       <use xlink:href="#DejaVuSans-2d" x="254.492188"/>
       <use xlink:href="#DejaVuSans-53" x="290.576172"/>
       <use xlink:href="#DejaVuSans-65" x="354.052734"/>
       <use xlink:href="#DejaVuSans-70" x="415.576172"/>
       <use xlink:href="#DejaVuSans-2d" x="479.052734"/>
       <use xlink:href="#DejaVuSans-30" x="515.136719"/>
       <use xlink:href="#DejaVuSans-31" x="578.759766"/>
      </g>
     </g>
    </g>
    <g id="xtick_12">
     <g id="line2d_12">
      <g>
       <use xlink:href="#m5ea9ddeb30" x="392.291101" y="182.359219" style="stroke: #000000; stroke-width: 0.8"/>
      </g>
     </g>
     <g id="text_12">
      <!-- 2021-Oct-01 -->
      <g transform="translate(336.729546 227.417784)rotate(-30)scale(0.1 -0.1)">
       <defs>
        <path id="DejaVuSans-4f" d="M 2522 4238 
Q 1834 4238 1429 3725 
Q 1025 3213 1025 2328 
Q 1025 1447 1429 934 
Q 1834 422 2522 422 
Q 3209 422 3611 934 
Q 4013 1447 4013 2328 
Q 4013 3213 3611 3725 
Q 3209 4238 2522 4238 
z
M 2522 4750 
Q 3503 4750 4090 4092 
Q 4678 3434 4678 2328 
Q 4678 1225 4090 567 
Q 3503 -91 2522 -91 
Q 1538 -91 948 565 
Q 359 1222 359 2328 
Q 359 3434 948 4092 
Q 1538 4750 2522 4750 
z
" transform="scale(0.015625)"/>
        <path id="DejaVuSans-74" d="M 1172 4494 
L 1172 3500 
L 2356 3500 
L 2356 3053 
L 1172 3053 
L 1172 1153 
Q 1172 725 1289 603 
Q 1406 481 1766 481 
L 2356 481 
L 2356 0 
L 1766 0 
Q 1100 0 847 248 
Q 594 497 594 1153 
L 594 3053 
L 172 3053 
L 172 3500 
L 594 3500 
L 594 4494 
L 1172 4494 
z
" transform="scale(0.015625)"/>
       </defs>
       <use xlink:href="#DejaVuSans-32"/>
       <use xlink:href="#DejaVuSans-30" x="63.623047"/>
       <use xlink:href="#DejaVuSans-32" x="127.246094"/>
       <use xlink:href="#DejaVuSans-31" x="190.869141"/>
       <use xlink:href="#DejaVuSans-2d" x="254.492188"/>
       <use xlink:href="#DejaVuSans-4f" x="293.326172"/>
       <use xlink:href="#DejaVuSans-63" x="372.037109"/>
       <use xlink:href="#DejaVuSans-74" x="427.017578"/>
       <use xlink:href="#DejaVuSans-2d" x="466.226562"/>
       <use xlink:href="#DejaVuSans-30" x="502.310547"/>
       <use xlink:href="#DejaVuSans-31" x="565.933594"/>
      </g>
     </g>
    </g>
    <g id="xtick_13">
     <g id="line2d_13">
      <g>
       <use xlink:href="#m5ea9ddeb30" x="422.387665" y="182.359219" style="stroke: #000000; stroke-width: 0.8"/>
      </g>
     </g>
     <g id="text_13">
      <!-- 2021-Nov-01 -->
      <g transform="translate(365.361985 228.263096)rotate(-30)scale(0.1 -0.1)">
       <use xlink:href="#DejaVuSans-32"/>
       <use xlink:href="#DejaVuSans-30" x="63.623047"/>
       <use xlink:href="#DejaVuSans-32" x="127.246094"/>
       <use xlink:href="#DejaVuSans-31" x="190.869141"/>
       <use xlink:href="#DejaVuSans-2d" x="254.492188"/>
       <use xlink:href="#DejaVuSans-4e" x="290.576172"/>
       <use xlink:href="#DejaVuSans-6f" x="365.380859"/>
       <use xlink:href="#DejaVuSans-76" x="426.5625"/>
       <use xlink:href="#DejaVuSans-2d" x="483.117188"/>
       <use xlink:href="#DejaVuSans-30" x="519.201172"/>
       <use xlink:href="#DejaVuSans-31" x="582.824219"/>
      </g>
     </g>
    </g>
    <g id="xtick_14">
     <g id="line2d_14">
      <g>
       <use xlink:href="#m5ea9ddeb30" x="451.513372" y="182.359219" style="stroke: #000000; stroke-width: 0.8"/>
      </g>
     </g>
     <g id="text_14">
      <!-- 2021-Dec-01 -->
      <g transform="translate(394.405149 228.310752)rotate(-30)scale(0.1 -0.1)">
       <use xlink:href="#DejaVuSans-32"/>
       <use xlink:href="#DejaVuSans-30" x="63.623047"/>
       <use xlink:href="#DejaVuSans-32" x="127.246094"/>
       <use xlink:href="#DejaVuSans-31" x="190.869141"/>
       <use xlink:href="#DejaVuSans-2d" x="254.492188"/>
       <use xlink:href="#DejaVuSans-44" x="290.576172"/>
       <use xlink:href="#DejaVuSans-65" x="367.578125"/>
       <use xlink:href="#DejaVuSans-63" x="429.101562"/>
       <use xlink:href="#DejaVuSans-2d" x="484.082031"/>
       <use xlink:href="#DejaVuSans-30" x="520.166016"/>
       <use xlink:href="#DejaVuSans-31" x="583.789062"/>
      </g>
     </g>
    </g>
    <g id="xtick_15">
     <g id="line2d_15">
      <g>
       <use xlink:href="#m5ea9ddeb30" x="481.609935" y="182.359219" style="stroke: #000000; stroke-width: 0.8"/>
      </g>
     </g>
     <g id="text_15">
      <!-- 2022-Jan-01 -->
      <g transform="translate(427.423195 226.624034)rotate(-30)scale(0.1 -0.1)">
       <use xlink:href="#DejaVuSans-32"/>
       <use xlink:href="#DejaVuSans-30" x="63.623047"/>
       <use xlink:href="#DejaVuSans-32" x="127.246094"/>
       <use xlink:href="#DejaVuSans-32" x="190.869141"/>
       <use xlink:href="#DejaVuSans-2d" x="254.492188"/>
       <use xlink:href="#DejaVuSans-4a" x="296.201172"/>
       <use xlink:href="#DejaVuSans-61" x="325.693359"/>
       <use xlink:href="#DejaVuSans-6e" x="386.972656"/>
       <use xlink:href="#DejaVuSans-2d" x="450.351562"/>
       <use xlink:href="#DejaVuSans-30" x="486.435547"/>
       <use xlink:href="#DejaVuSans-31" x="550.058594"/>
      </g>
     </g>
    </g>
   </g>
   <g id="matplotlib.axis_2">
    <g id="ytick_1">
     <g id="line2d_16">
      <path d="M 53.559131 182.359219 
L 499.959131 182.359219 
" clip-path="url(#p7b4820eed6)" style="fill: none; stroke: #b0b0b0; stroke-width: 0.8; stroke-linecap: square"/>
     </g>
     <g id="line2d_17">
      <defs>
       <path id="m00090727ec" d="M 0 0 
L -3.5 0 
" style="stroke: #000000; stroke-width: 0.8"/>
      </defs>
      <g>
       <use xlink:href="#m00090727ec" x="53.559131" y="182.359219" style="stroke: #000000; stroke-width: 0.8"/>
      </g>
     </g>
     <g id="text_16">
      <!-- 0 -->
      <g transform="translate(40.196631 186.158437)scale(0.1 -0.1)">
       <use xlink:href="#DejaVuSans-30"/>
      </g>
     </g>
    </g>
    <g id="ytick_2">
     <g id="line2d_18">
      <path d="M 53.559131 157.879219 
L 499.959131 157.879219 
" clip-path="url(#p7b4820eed6)" style="fill: none; stroke: #b0b0b0; stroke-width: 0.8; stroke-linecap: square"/>
     </g>
     <g id="line2d_19">
      <g>
       <use xlink:href="#m00090727ec" x="53.559131" y="157.879219" style="stroke: #000000; stroke-width: 0.8"/>
      </g>
     </g>
     <g id="text_17">
      <!-- 10 -->
      <g transform="translate(33.834131 161.678437)scale(0.1 -0.1)">
       <use xlink:href="#DejaVuSans-31"/>
       <use xlink:href="#DejaVuSans-30" x="63.623047"/>
      </g>
     </g>
    </g>
    <g id="ytick_3">
     <g id="line2d_20">
      <path d="M 53.559131 133.399219 
L 499.959131 133.399219 
" clip-path="url(#p7b4820eed6)" style="fill: none; stroke: #b0b0b0; stroke-width: 0.8; stroke-linecap: square"/>
     </g>
     <g id="line2d_21">
      <g>
       <use xlink:href="#m00090727ec" x="53.559131" y="133.399219" style="stroke: #000000; stroke-width: 0.8"/>
      </g>
     </g>
     <g id="text_18">
      <!-- 20 -->
      <g transform="translate(33.834131 137.198437)scale(0.1 -0.1)">
       <use xlink:href="#DejaVuSans-32"/>
       <use xlink:href="#DejaVuSans-30" x="63.623047"/>
      </g>
     </g>
    </g>
    <g id="ytick_4">
     <g id="line2d_22">
      <path d="M 53.559131 108.919219 
L 499.959131 108.919219 
" clip-path="url(#p7b4820eed6)" style="fill: none; stroke: #b0b0b0; stroke-width: 0.8; stroke-linecap: square"/>
     </g>
     <g id="line2d_23">
      <g>
       <use xlink:href="#m00090727ec" x="53.559131" y="108.919219" style="stroke: #000000; stroke-width: 0.8"/>
      </g>
     </g>
     <g id="text_19">
      <!-- 30 -->
      <g transform="translate(33.834131 112.718437)scale(0.1 -0.1)">
       <defs>
        <path id="DejaVuSans-33" d="M 2597 2516 
Q 3050 2419 3304 2112 
Q 3559 1806 3559 1356 
Q 3559 666 3084 287 
Q 2609 -91 1734 -91 
Q 1441 -91 1130 -33 
Q 819 25 488 141 
L 488 750 
Q 750 597 1062 519 
Q 1375 441 1716 441 
Q 2309 441 2620 675 
Q 2931 909 2931 1356 
Q 2931 1769 2642 2001 
Q 2353 2234 1838 2234 
L 1294 2234 
L 1294 2753 
L 1863 2753 
Q 2328 2753 2575 2939 
Q 2822 3125 2822 3475 
Q 2822 3834 2567 4026 
Q 2313 4219 1838 4219 
Q 1578 4219 1281 4162 
Q 984 4106 628 3988 
L 628 4550 
Q 988 4650 1302 4700 
Q 1616 4750 1894 4750 
Q 2613 4750 3031 4423 
Q 3450 4097 3450 3541 
Q 3450 3153 3228 2886 
Q 3006 2619 2597 2516 
z
" transform="scale(0.015625)"/>
       </defs>
       <use xlink:href="#DejaVuSans-33"/>
       <use xlink:href="#DejaVuSans-30" x="63.623047"/>
      </g>
     </g>
    </g>
    <g id="ytick_5">
     <g id="line2d_24">
      <path d="M 53.559131 84.439219 
L 499.959131 84.439219 
" clip-path="url(#p7b4820eed6)" style="fill: none; stroke: #b0b0b0; stroke-width: 0.8; stroke-linecap: square"/>
     </g>
     <g id="line2d_25">
      <g>
       <use xlink:href="#m00090727ec" x="53.559131" y="84.439219" style="stroke: #000000; stroke-width: 0.8"/>
      </g>
     </g>
     <g id="text_20">
      <!-- 40 -->
      <g transform="translate(33.834131 88.238437)scale(0.1 -0.1)">
       <defs>
        <path id="DejaVuSans-34" d="M 2419 4116 
L 825 1625 
L 2419 1625 
L 2419 4116 
z
M 2253 4666 
L 3047 4666 
L 3047 1625 
L 3713 1625 
L 3713 1100 
L 3047 1100 
L 3047 0 
L 2419 0 
L 2419 1100 
L 313 1100 
L 313 1709 
L 2253 4666 
z
" transform="scale(0.015625)"/>
       </defs>
       <use xlink:href="#DejaVuSans-34"/>
       <use xlink:href="#DejaVuSans-30" x="63.623047"/>
      </g>
     </g>
    </g>
    <g id="ytick_6">
     <g id="line2d_26">
      <path d="M 53.559131 59.959219 
L 499.959131 59.959219 
" clip-path="url(#p7b4820eed6)" style="fill: none; stroke: #b0b0b0; stroke-width: 0.8; stroke-linecap: square"/>
     </g>
     <g id="line2d_27">
      <g>
       <use xlink:href="#m00090727ec" x="53.559131" y="59.959219" style="stroke: #000000; stroke-width: 0.8"/>
      </g>
     </g>
     <g id="text_21">
      <!-- 50 -->
      <g transform="translate(33.834131 63.758437)scale(0.1 -0.1)">
       <defs>
        <path id="DejaVuSans-35" d="M 691 4666 
L 3169 4666 
L 3169 4134 
L 1269 4134 
L 1269 2991 
Q 1406 3038 1543 3061 
Q 1681 3084 1819 3084 
Q 2600 3084 3056 2656 
Q 3513 2228 3513 1497 
Q 3513 744 3044 326 
Q 2575 -91 1722 -91 
Q 1428 -91 1123 -41 
Q 819 9 494 109 
L 494 744 
Q 775 591 1075 516 
Q 1375 441 1709 441 
Q 2250 441 2565 725 
Q 2881 1009 2881 1497 
Q 2881 1984 2565 2268 
Q 2250 2553 1709 2553 
Q 1456 2553 1204 2497 
Q 953 2441 691 2322 
L 691 4666 
z
" transform="scale(0.015625)"/>
       </defs>
       <use xlink:href="#DejaVuSans-35"/>
       <use xlink:href="#DejaVuSans-30" x="63.623047"/>
      </g>
     </g>
    </g>
    <g id="ytick_7">
     <g id="line2d_28">
      <path d="M 53.559131 35.479219 
L 499.959131 35.479219 
" clip-path="url(#p7b4820eed6)" style="fill: none; stroke: #b0b0b0; stroke-width: 0.8; stroke-linecap: square"/>
     </g>
     <g id="line2d_29">
      <g>
       <use xlink:href="#m00090727ec" x="53.559131" y="35.479219" style="stroke: #000000; stroke-width: 0.8"/>
      </g>
     </g>
     <g id="text_22">
      <!-- 60 -->
      <g transform="translate(33.834131 39.278437)scale(0.1 -0.1)">
       <defs>
        <path id="DejaVuSans-36" d="M 2113 2584 
Q 1688 2584 1439 2293 
Q 1191 2003 1191 1497 
Q 1191 994 1439 701 
Q 1688 409 2113 409 
Q 2538 409 2786 701 
Q 3034 994 3034 1497 
Q 3034 2003 2786 2293 
Q 2538 2584 2113 2584 
z
M 3366 4563 
L 3366 3988 
Q 3128 4100 2886 4159 
Q 2644 4219 2406 4219 
Q 1781 4219 1451 3797 
Q 1122 3375 1075 2522 
Q 1259 2794 1537 2939 
Q 1816 3084 2150 3084 
Q 2853 3084 3261 2657 
Q 3669 2231 3669 1497 
Q 3669 778 3244 343 
Q 2819 -91 2113 -91 
Q 1303 -91 875 529 
Q 447 1150 447 2328 
Q 447 3434 972 4092 
Q 1497 4750 2381 4750 
Q 2619 4750 2861 4703 
Q 3103 4656 3366 4563 
z
" transform="scale(0.015625)"/>
       </defs>
       <use xlink:href="#DejaVuSans-36"/>
       <use xlink:href="#DejaVuSans-30" x="63.623047"/>
      </g>
     </g>
    </g>
    <g id="ytick_8">
     <g id="line2d_30">
      <path d="M 53.559131 10.999219 
L 499.959131 10.999219 
" clip-path="url(#p7b4820eed6)" style="fill: none; stroke: #b0b0b0; stroke-width: 0.8; stroke-linecap: square"/>
     </g>
     <g id="line2d_31">
      <g>
       <use xlink:href="#m00090727ec" x="53.559131" y="10.999219" style="stroke: #000000; stroke-width: 0.8"/>
      </g>
     </g>
     <g id="text_23">
      <!-- 70 -->
      <g transform="translate(33.834131 14.798438)scale(0.1 -0.1)">
       <defs>
        <path id="DejaVuSans-37" d="M 525 4666 
L 3525 4666 
L 3525 4397 
L 1831 0 
L 1172 0 
L 2766 4134 
L 525 4134 
L 525 4666 
z
" transform="scale(0.015625)"/>
       </defs>
       <use xlink:href="#DejaVuSans-37"/>
       <use xlink:href="#DejaVuSans-30" x="63.623047"/>
      </g>
     </g>
    </g>
    <g id="text_24">
     <!-- Percentage Of Unique CSPs -->
     <g transform="translate(27.754443 165.099531)rotate(-90)scale(0.1 -0.1)">
      <defs>
       <path id="DejaVuSans-50" d="M 1259 4147 
L 1259 2394 
L 2053 2394 
Q 2494 2394 2734 2622 
Q 2975 2850 2975 3272 
Q 2975 3691 2734 3919 
Q 2494 4147 2053 4147 
L 1259 4147 
z
M 628 4666 
L 2053 4666 
Q 2838 4666 3239 4311 
Q 3641 3956 3641 3272 
Q 3641 2581 3239 2228 
Q 2838 1875 2053 1875 
L 1259 1875 
L 1259 0 
L 628 0 
L 628 4666 
z
" transform="scale(0.015625)"/>
       <path id="DejaVuSans-20" transform="scale(0.015625)"/>
       <path id="DejaVuSans-66" d="M 2375 4863 
L 2375 4384 
L 1825 4384 
Q 1516 4384 1395 4259 
Q 1275 4134 1275 3809 
L 1275 3500 
L 2222 3500 
L 2222 3053 
L 1275 3053 
L 1275 0 
L 697 0 
L 697 3053 
L 147 3053 
L 147 3500 
L 697 3500 
L 697 3744 
Q 697 4328 969 4595 
Q 1241 4863 1831 4863 
L 2375 4863 
z
" transform="scale(0.015625)"/>
       <path id="DejaVuSans-55" d="M 556 4666 
L 1191 4666 
L 1191 1831 
Q 1191 1081 1462 751 
Q 1734 422 2344 422 
Q 2950 422 3222 751 
Q 3494 1081 3494 1831 
L 3494 4666 
L 4128 4666 
L 4128 1753 
Q 4128 841 3676 375 
Q 3225 -91 2344 -91 
Q 1459 -91 1007 375 
Q 556 841 556 1753 
L 556 4666 
z
" transform="scale(0.015625)"/>
       <path id="DejaVuSans-69" d="M 603 3500 
L 1178 3500 
L 1178 0 
L 603 0 
L 603 3500 
z
M 603 4863 
L 1178 4863 
L 1178 4134 
L 603 4134 
L 603 4863 
z
" transform="scale(0.015625)"/>
       <path id="DejaVuSans-71" d="M 947 1747 
Q 947 1113 1208 752 
Q 1469 391 1925 391 
Q 2381 391 2643 752 
Q 2906 1113 2906 1747 
Q 2906 2381 2643 2742 
Q 2381 3103 1925 3103 
Q 1469 3103 1208 2742 
Q 947 2381 947 1747 
z
M 2906 525 
Q 2725 213 2448 61 
Q 2172 -91 1784 -91 
Q 1150 -91 751 415 
Q 353 922 353 1747 
Q 353 2572 751 3078 
Q 1150 3584 1784 3584 
Q 2172 3584 2448 3432 
Q 2725 3281 2906 2969 
L 2906 3500 
L 3481 3500 
L 3481 -1331 
L 2906 -1331 
L 2906 525 
z
" transform="scale(0.015625)"/>
       <path id="DejaVuSans-43" d="M 4122 4306 
L 4122 3641 
Q 3803 3938 3442 4084 
Q 3081 4231 2675 4231 
Q 1875 4231 1450 3742 
Q 1025 3253 1025 2328 
Q 1025 1406 1450 917 
Q 1875 428 2675 428 
Q 3081 428 3442 575 
Q 3803 722 4122 1019 
L 4122 359 
Q 3791 134 3420 21 
Q 3050 -91 2638 -91 
Q 1578 -91 968 557 
Q 359 1206 359 2328 
Q 359 3453 968 4101 
Q 1578 4750 2638 4750 
Q 3056 4750 3426 4639 
Q 3797 4528 4122 4306 
z
" transform="scale(0.015625)"/>
       <path id="DejaVuSans-73" d="M 2834 3397 
L 2834 2853 
Q 2591 2978 2328 3040 
Q 2066 3103 1784 3103 
Q 1356 3103 1142 2972 
Q 928 2841 928 2578 
Q 928 2378 1081 2264 
Q 1234 2150 1697 2047 
L 1894 2003 
Q 2506 1872 2764 1633 
Q 3022 1394 3022 966 
Q 3022 478 2636 193 
Q 2250 -91 1575 -91 
Q 1294 -91 989 -36 
Q 684 19 347 128 
L 347 722 
Q 666 556 975 473 
Q 1284 391 1588 391 
Q 1994 391 2212 530 
Q 2431 669 2431 922 
Q 2431 1156 2273 1281 
Q 2116 1406 1581 1522 
L 1381 1569 
Q 847 1681 609 1914 
Q 372 2147 372 2553 
Q 372 3047 722 3315 
Q 1072 3584 1716 3584 
Q 2034 3584 2315 3537 
Q 2597 3491 2834 3397 
z
" transform="scale(0.015625)"/>
      </defs>
      <use xlink:href="#DejaVuSans-50"/>
      <use xlink:href="#DejaVuSans-65" x="56.677734"/>
      <use xlink:href="#DejaVuSans-72" x="118.201172"/>
      <use xlink:href="#DejaVuSans-63" x="157.064453"/>
      <use xlink:href="#DejaVuSans-65" x="212.044922"/>
      <use xlink:href="#DejaVuSans-6e" x="273.568359"/>
      <use xlink:href="#DejaVuSans-74" x="336.947266"/>
      <use xlink:href="#DejaVuSans-61" x="376.15625"/>
      <use xlink:href="#DejaVuSans-67" x="437.435547"/>
      <use xlink:href="#DejaVuSans-65" x="500.912109"/>
      <use xlink:href="#DejaVuSans-20" x="562.435547"/>
      <use xlink:href="#DejaVuSans-4f" x="594.222656"/>
      <use xlink:href="#DejaVuSans-66" x="672.933594"/>
      <use xlink:href="#DejaVuSans-20" x="708.138672"/>
      <use xlink:href="#DejaVuSans-55" x="739.925781"/>
      <use xlink:href="#DejaVuSans-6e" x="813.119141"/>
      <use xlink:href="#DejaVuSans-69" x="876.498047"/>
      <use xlink:href="#DejaVuSans-71" x="904.28125"/>
      <use xlink:href="#DejaVuSans-75" x="967.757812"/>
      <use xlink:href="#DejaVuSans-65" x="1031.136719"/>
      <use xlink:href="#DejaVuSans-20" x="1092.660156"/>
      <use xlink:href="#DejaVuSans-43" x="1124.447266"/>
      <use xlink:href="#DejaVuSans-53" x="1194.271484"/>
      <use xlink:href="#DejaVuSans-50" x="1257.748047"/>
      <use xlink:href="#DejaVuSans-73" x="1316.300781"/>
     </g>
    </g>
   </g>
   <g id="line2d_32">
    <path d="M 73.85004 131.391074 
L 75.791754 130.725959 
L 77.733467 131.037543 
L 78.704324 130.887506 
L 79.675181 130.958388 
L 80.646038 130.796981 
L 81.616895 131.319001 
L 82.587752 131.001641 
L 83.558609 131.216459 
L 84.529466 130.769959 
L 85.500323 130.899063 
L 86.47118 130.806693 
L 87.442036 130.850217 
L 88.412893 131.100503 
L 97.150605 131.109 
L 98.121462 130.811112 
L 99.092319 131.105243 
L 101.034033 130.973582 
L 102.00489 130.71523 
L 103.946604 130.879147 
L 106.859174 130.343282 
L 107.830031 130.429482 
L 109.771745 130.396955 
L 110.742602 130.473322 
L 111.713459 130.221091 
L 112.684316 130.40747 
L 113.655173 130.202462 
L 119.480314 130.267292 
L 120.451171 130.390235 
L 121.422028 130.210204 
L 122.392885 130.297317 
L 123.363742 130.091154 
L 124.334598 130.079788 
L 125.305455 129.874586 
L 127.247169 129.835937 
L 129.188883 130.195568 
L 130.15974 129.671169 
L 131.130597 130.21352 
L 132.101454 130.03372 
L 134.043167 130.14307 
L 135.014024 129.664415 
L 135.984881 129.919148 
L 143.751736 130.12893 
L 144.722593 129.976235 
L 145.69345 130.332967 
L 146.664307 129.907658 
L 148.606021 130.302614 
L 157.343733 129.628775 
L 158.31459 129.935331 
L 162.198017 129.837318 
L 165.110588 130.010506 
L 167.052302 129.600598 
L 170.935729 129.626255 
L 171.906586 129.707814 
L 172.877443 129.391687 
L 173.8483 129.499508 
L 174.819157 129.284653 
L 175.790014 129.346459 
L 176.760871 129.277509 
L 177.731728 129.561298 
L 179.673441 129.44261 
L 180.644298 129.297637 
L 182.586012 129.451749 
L 183.556869 129.294464 
L 184.527726 129.315969 
L 185.498583 129.449721 
L 186.46944 129.400903 
L 187.440297 129.581101 
L 192.294581 129.346707 
L 195.207152 128.957638 
L 196.178009 129.090926 
L 197.148865 129.072005 
L 198.119722 129.215604 
L 212.682576 129.222563 
L 213.653433 129.137484 
L 215.595146 129.282924 
L 217.53686 129.333641 
L 218.507717 129.177058 
L 219.478574 129.165931 
L 220.449431 129.316149 
L 221.420288 129.063851 
L 222.391145 128.963435 
L 223.362002 129.166926 
L 227.245429 128.627789 
L 228.216286 128.832957 
L 230.158 128.793402 
L 231.128857 129.065405 
L 232.099714 128.912508 
L 233.070571 128.896504 
L 234.041427 128.556558 
L 237.924855 128.772266 
L 238.895712 128.673296 
L 240.837426 128.696062 
L 241.808283 128.607094 
L 245.69171 128.835501 
L 246.662567 128.527918 
L 247.633424 128.675008 
L 248.604281 128.496948 
L 249.575138 128.580396 
L 250.545995 128.382424 
L 253.458565 128.513579 
L 255.400279 128.048251 
L 256.371136 128.345056 
L 257.341993 127.903432 
L 258.31285 127.868853 
L 259.283707 127.654023 
L 260.254564 127.792513 
L 261.22542 127.561484 
L 262.196277 127.58453 
L 263.167134 127.475902 
L 264.137991 127.77879 
L 266.079705 127.652463 
L 267.050562 127.661447 
L 268.021419 127.546265 
L 268.992276 127.850011 
L 269.963133 127.816224 
L 270.933989 127.637814 
L 271.904846 127.863387 
L 272.875703 127.928264 
L 273.84656 127.786815 
L 274.817417 127.789854 
L 275.788274 127.500487 
L 277.729988 127.744735 
L 280.642558 127.017815 
L 282.584272 126.974309 
L 283.555129 127.228075 
L 286.4677 127.184795 
L 287.438557 127.534625 
L 289.38027 126.915543 
L 291.321984 126.973846 
L 292.292841 126.998361 
L 293.263698 127.293335 
L 294.234555 127.049939 
L 296.176269 127.032705 
L 301.030553 126.515844 
L 335.010544 126.278622 
L 335.981401 126.496986 
L 337.923115 125.795862 
L 338.893972 125.933293 
L 339.864829 125.819399 
L 340.835686 125.886877 
L 342.7774 125.666876 
L 343.748257 125.795862 
L 344.719113 125.495693 
L 346.660827 125.36112 
L 347.631684 125.617008 
L 348.602541 125.591505 
L 349.573398 125.361926 
L 350.544255 125.477348 
L 368.990536 125.510443 
L 373.84482 125.119271 
L 374.815677 125.262346 
L 376.757391 125.244406 
L 377.728248 125.113386 
L 378.699105 125.271001 
L 381.611675 125.180873 
L 382.582532 124.469572 
L 383.553389 124.676324 
L 384.524246 124.507709 
L 385.495103 124.6455 
L 391.320244 124.550913 
L 392.291101 124.379039 
L 393.261958 124.490606 
L 394.232815 124.433558 
L 395.203672 124.524358 
L 396.174529 124.35046 
L 399.087099 124.54873 
L 400.057956 124.292325 
L 401.028813 124.467013 
L 406.853955 124.247623 
L 407.824812 124.04166 
L 409.766525 124.323842 
L 410.737382 124.228568 
L 411.708239 124.016784 
L 412.679096 124.112278 
L 413.649953 124.052247 
L 415.591667 124.199714 
L 419.475094 123.801539 
L 421.416808 123.758096 
L 422.387665 123.928514 
L 430.15452 124.02462 
L 431.125377 124.235715 
L 435.008805 124.130802 
L 436.950518 124.316862 
L 438.892232 124.549924 
L 441.804803 124.214471 
L 442.77566 124.308562 
L 445.68823 123.938006 
L 446.659087 124.28578 
L 447.629944 124.088326 
L 449.571658 124.106906 
L 451.513372 124.345734 
L 453.455086 124.244817 
L 454.425942 124.388135 
L 456.367656 124.251919 
L 459.280227 124.460053 
L 462.192798 124.486438 
L 463.163655 124.737893 
L 465.105368 124.942133 
L 466.076225 124.750845 
L 467.047082 124.703367 
L 473.84308 124.899279 
L 474.813937 125.093835 
L 475.784794 124.955961 
L 478.697365 124.989675 
L 479.668222 124.980125 
L 479.668222 124.980125 
" clip-path="url(#p7b4820eed6)" style="fill: none; stroke: #1f77b4; stroke-width: 1.5; stroke-linecap: square"/>
   </g>
   <g id="line2d_33">
    <path d="M 73.85004 57.606189 
L 75.791754 57.533609 
L 76.762611 57.229453 
L 78.704324 57.275265 
L 80.646038 57.871106 
L 83.558609 57.661137 
L 84.529466 57.867762 
L 85.500323 57.732259 
L 86.47118 58.047107 
L 88.412893 57.994081 
L 91.325464 57.955623 
L 92.296321 57.634028 
L 94.238035 57.916222 
L 95.208892 57.832308 
L 96.179748 57.5357 
L 97.150605 57.713423 
L 100.063176 57.133538 
L 101.034033 57.274042 
L 102.00489 57.296402 
L 104.917461 57.642397 
L 106.859174 57.585992 
L 109.771745 57.308249 
L 110.742602 57.602247 
L 111.713459 57.402476 
L 115.596886 57.275397 
L 116.567743 57.336821 
L 117.5386 57.741389 
L 118.509457 57.587188 
L 119.480314 57.627103 
L 120.451171 57.486411 
L 121.422028 57.594619 
L 122.392885 57.513304 
L 123.363742 57.560792 
L 124.334598 57.094043 
L 125.305455 57.521802 
L 127.247169 57.404895 
L 129.188883 57.567716 
L 130.15974 57.812132 
L 131.130597 57.795196 
L 133.07231 57.269723 
L 134.043167 57.444695 
L 137.926595 57.402271 
L 140.839166 57.789229 
L 143.751736 57.789508 
L 144.722593 57.961429 
L 145.69345 57.865041 
L 148.606021 58.245806 
L 160.256303 57.529976 
L 161.22716 57.212967 
L 162.198017 57.247073 
L 163.168874 56.921084 
L 164.139731 57.238538 
L 165.110588 57.237515 
L 166.081445 56.733125 
L 167.052302 57.038379 
L 168.023159 57.223255 
L 169.964872 56.977944 
L 170.935729 57.112707 
L 172.877443 57.025024 
L 173.8483 57.247299 
L 174.819157 57.226772 
L 177.731728 56.771048 
L 178.702584 57.017384 
L 179.673441 57.07672 
L 180.644298 56.977893 
L 181.615155 56.658814 
L 182.586012 56.717083 
L 183.556869 56.651111 
L 185.498583 56.957421 
L 186.46944 56.45101 
L 187.440297 56.462501 
L 188.411153 56.228143 
L 190.352867 56.836657 
L 191.323724 56.597311 
L 195.207152 56.587722 
L 196.178009 56.154341 
L 197.148865 56.353207 
L 198.119722 56.309526 
L 210.740862 56.14963 
L 211.711719 56.003014 
L 212.682576 56.259651 
L 214.62429 55.960709 
L 215.595146 55.724787 
L 218.507717 56.092459 
L 219.478574 56.128222 
L 220.449431 56.353593 
L 222.391145 55.79979 
L 223.362002 55.897287 
L 230.158 55.853912 
L 231.128857 56.000852 
L 232.099714 55.943683 
L 233.070571 56.485335 
L 234.041427 56.04298 
L 236.953998 56.156163 
L 237.924855 56.349194 
L 238.895712 56.01398 
L 240.837426 56.359015 
L 241.808283 56.365125 
L 246.662567 56.268008 
L 248.604281 56.32614 
L 249.575138 56.284423 
L 251.516852 55.937836 
L 252.487708 56.203447 
L 254.429422 56.246006 
L 255.400279 55.67437 
L 256.371136 55.435431 
L 257.341993 55.426891 
L 258.31285 55.716561 
L 259.283707 55.507572 
L 260.254564 55.464934 
L 261.22542 55.807671 
L 263.167134 55.730196 
L 264.137991 55.912993 
L 266.079705 55.563379 
L 268.021419 55.701188 
L 268.992276 55.981269 
L 269.963133 55.945778 
L 270.933989 55.587079 
L 272.875703 55.773753 
L 273.84656 55.708804 
L 275.788274 55.837229 
L 276.759131 55.600488 
L 277.729988 55.678305 
L 278.700845 55.57582 
L 279.671701 55.355345 
L 280.642558 55.532432 
L 281.613415 54.935338 
L 282.584272 55.006467 
L 283.555129 54.831801 
L 284.525986 55.141139 
L 285.496843 55.298776 
L 286.4677 55.150439 
L 288.409414 55.294269 
L 289.38027 55.172483 
L 290.351127 55.276548 
L 291.321984 55.164645 
L 292.292841 55.178522 
L 294.234555 55.642991 
L 299.088839 55.251526 
L 301.030553 55.449378 
L 305.884838 55.346058 
L 334.039688 54.758933 
L 335.010544 54.526256 
L 335.981401 54.438672 
L 336.952258 54.711478 
L 337.923115 54.281947 
L 341.806543 54.466122 
L 343.748257 54.035645 
L 344.719113 54.203926 
L 345.68997 54.548187 
L 346.660827 54.325901 
L 347.631684 54.587721 
L 349.573398 54.057023 
L 350.544255 54.038611 
L 368.019679 53.953738 
L 368.990536 53.700196 
L 370.93225 53.667238 
L 371.903106 53.506402 
L 372.873963 53.920691 
L 373.84482 53.605202 
L 374.815677 53.690884 
L 378.699105 53.511468 
L 379.669962 53.675582 
L 380.640818 53.544724 
L 381.611675 53.547195 
L 382.582532 52.946966 
L 383.553389 53.173692 
L 384.524246 52.860657 
L 388.407674 52.990201 
L 389.378531 53.295068 
L 390.349387 53.026257 
L 391.320244 53.363443 
L 392.291101 53.074658 
L 394.232815 53.258382 
L 395.203672 53.030476 
L 396.174529 52.969438 
L 397.145386 53.147241 
L 400.057956 52.950345 
L 401.028813 53.018654 
L 403.941384 52.97801 
L 404.912241 53.119066 
L 405.883098 52.715796 
L 406.853955 52.917311 
L 407.824812 52.637817 
L 410.737382 52.75042 
L 411.708239 53.030052 
L 413.649953 53.154449 
L 415.591667 53.212762 
L 416.562524 52.974265 
L 418.504237 52.917652 
L 420.445951 53.142781 
L 421.416808 53.193618 
L 425.300236 52.771204 
L 426.271093 52.894961 
L 427.241949 52.719324 
L 430.15452 52.694186 
L 431.125377 52.915142 
L 434.037948 52.649748 
L 435.979661 52.709045 
L 437.921375 52.537812 
L 438.892232 52.318978 
L 439.863089 52.467615 
L 440.833946 52.311659 
L 441.804803 52.60874 
L 442.77566 52.454401 
L 443.746517 52.525478 
L 444.717374 52.265313 
L 446.659087 52.372097 
L 451.513372 52.318256 
L 452.484229 52.126903 
L 455.396799 52.051011 
L 456.367656 51.889376 
L 459.280227 52.08335 
L 460.251084 51.568896 
L 461.221941 51.93686 
L 463.163655 51.901022 
L 464.134511 52.162341 
L 466.076225 52.250362 
L 476.755651 52.799026 
L 477.726508 52.740547 
L 478.697365 52.887607 
L 479.668222 52.623079 
L 479.668222 52.623079 
" clip-path="url(#p7b4820eed6)" style="fill: none; stroke: #ff7f0e; stroke-width: 1.5; stroke-linecap: square"/>
   </g>
   <g id="line2d_34">
    <path d="M 73.85004 64.249038 
L 75.791754 64.301569 
L 79.675181 63.952245 
L 80.646038 64.459892 
L 83.558609 64.396605 
L 84.529466 64.590301 
L 86.47118 64.371148 
L 91.325464 64.344138 
L 92.296321 64.183861 
L 94.238035 64.633595 
L 95.208892 64.352644 
L 96.179748 63.943647 
L 97.150605 64.146436 
L 98.121462 64.050469 
L 99.092319 64.088375 
L 100.063176 63.941229 
L 101.034033 64.260399 
L 104.917461 64.054447 
L 105.888317 64.341391 
L 106.859174 64.299298 
L 107.830031 64.057651 
L 109.771745 63.960069 
L 111.713459 64.069425 
L 112.684316 63.884677 
L 113.655173 63.963221 
L 116.567743 63.852594 
L 117.5386 64.193257 
L 118.509457 63.917946 
L 120.451171 64.03255 
L 122.392885 64.121284 
L 124.334598 63.867736 
L 125.305455 64.144519 
L 127.247169 63.918421 
L 129.188883 64.164412 
L 130.15974 64.052353 
L 131.130597 64.118325 
L 132.101454 63.973778 
L 135.014024 64.154107 
L 135.984881 64.094192 
L 136.955738 63.863994 
L 137.926595 64.088452 
L 140.839166 64.157677 
L 143.751736 63.732629 
L 145.69345 63.819382 
L 146.664307 64.233802 
L 148.606021 64.258328 
L 158.31459 63.66831 
L 160.256303 64.095081 
L 161.22716 63.902162 
L 162.198017 63.931399 
L 163.168874 63.58043 
L 164.139731 63.860139 
L 165.110588 63.876939 
L 166.081445 63.323246 
L 167.052302 63.73643 
L 168.994016 63.897266 
L 169.964872 63.840213 
L 170.935729 63.919915 
L 171.906586 64.145662 
L 172.877443 63.957629 
L 174.819157 64.341731 
L 175.790014 64.242008 
L 176.760871 64.285958 
L 177.731728 63.874383 
L 178.702584 64.262314 
L 179.673441 64.449848 
L 181.615155 64.234743 
L 182.586012 64.369422 
L 183.556869 64.017465 
L 185.498583 64.473145 
L 186.46944 64.033508 
L 187.440297 64.333836 
L 188.411153 63.941994 
L 190.352867 64.277656 
L 192.294581 63.979334 
L 195.207152 63.917063 
L 196.178009 63.603121 
L 198.119722 63.901472 
L 210.740862 63.225601 
L 211.711719 62.988745 
L 212.682576 63.401674 
L 213.653433 63.170506 
L 214.62429 63.102432 
L 215.595146 62.898413 
L 217.53686 63.087132 
L 219.478574 62.738291 
L 220.449431 63.054815 
L 221.420288 63.002449 
L 222.391145 62.638173 
L 227.245429 62.453439 
L 229.187143 62.385064 
L 230.158 62.672658 
L 232.099714 62.737041 
L 233.070571 63.194492 
L 234.041427 62.612155 
L 236.953998 63.164354 
L 237.924855 62.957139 
L 239.866569 62.921465 
L 240.837426 63.268077 
L 241.808283 62.957759 
L 250.545995 63.074311 
L 251.516852 62.862794 
L 253.458565 62.944585 
L 254.429422 62.910747 
L 255.400279 62.505682 
L 256.371136 62.611094 
L 257.341993 62.578199 
L 258.31285 62.751511 
L 260.254564 62.601723 
L 261.22542 62.818875 
L 262.196277 62.626076 
L 263.167134 62.577185 
L 264.137991 62.851297 
L 265.108848 62.459367 
L 267.050562 62.270675 
L 268.021419 62.372326 
L 268.992276 62.117539 
L 271.904846 61.956205 
L 272.875703 62.035369 
L 273.84656 61.9286 
L 275.788274 62.063082 
L 276.759131 61.894969 
L 278.700845 62.095058 
L 279.671701 61.528871 
L 280.642558 61.706289 
L 281.613415 61.094485 
L 283.555129 60.995127 
L 284.525986 61.335813 
L 285.496843 61.447701 
L 286.4677 61.107875 
L 292.292841 61.21391 
L 293.263698 61.114178 
L 294.234555 61.235488 
L 296.176269 60.9376 
L 299.088839 60.762971 
L 301.030553 60.77746 
L 304.913981 60.544744 
L 305.884838 60.70287 
L 334.039688 60.034043 
L 335.010544 59.7419 
L 336.952258 60.113383 
L 337.923115 59.762177 
L 338.893972 59.755804 
L 340.835686 59.971579 
L 341.806543 60.020801 
L 342.7774 59.842137 
L 343.748257 59.811437 
L 345.68997 60.131388 
L 346.660827 60.113135 
L 347.631684 60.248406 
L 348.602541 60.149921 
L 349.573398 59.848783 
L 372.873963 59.947238 
L 373.84482 59.666324 
L 374.815677 59.767819 
L 375.786534 59.575933 
L 376.757391 59.558182 
L 377.728248 59.349966 
L 378.699105 59.327554 
L 379.669962 59.625996 
L 380.640818 59.231925 
L 381.611675 59.512699 
L 382.582532 59.010014 
L 383.553389 59.213166 
L 384.524246 59.073375 
L 385.495103 59.187109 
L 388.407674 58.956907 
L 389.378531 59.187332 
L 390.349387 58.941914 
L 391.320244 59.249806 
L 392.291101 58.893751 
L 393.261958 59.100825 
L 394.232815 59.145755 
L 396.174529 58.937321 
L 397.145386 59.044351 
L 398.116243 58.983457 
L 399.087099 58.780006 
L 401.028813 59.030715 
L 401.99967 58.85505 
L 403.941384 58.968524 
L 404.912241 59.213336 
L 405.883098 58.944217 
L 406.853955 58.996075 
L 408.795668 58.603386 
L 409.766525 58.564248 
L 412.679096 59.282595 
L 413.649953 59.1866 
L 414.62081 59.24363 
L 418.504237 58.954911 
L 419.475094 59.202645 
L 420.445951 59.094362 
L 423.358522 59.083552 
L 424.329379 59.244226 
L 425.300236 59.019683 
L 426.271093 59.229604 
L 427.241949 59.071894 
L 428.212806 58.75933 
L 430.15452 58.774703 
L 434.037948 58.490598 
L 435.008805 58.761589 
L 436.950518 58.597538 
L 437.921375 58.250895 
L 438.892232 58.364249 
L 440.833946 58.347151 
L 443.746517 58.563997 
L 444.717374 58.297781 
L 445.68823 58.458674 
L 449.571658 58.216771 
L 450.542515 58.366281 
L 452.484229 58.060643 
L 453.455086 58.260064 
L 456.367656 57.830909 
L 457.338513 57.807959 
L 458.30937 58.158406 
L 460.251084 57.688896 
L 461.221941 57.911074 
L 463.163655 57.624704 
L 464.134511 57.949601 
L 466.076225 58.196256 
L 467.047082 58.240348 
L 470.93051 58.556338 
L 471.901367 58.289086 
L 472.872223 58.338531 
L 474.813937 58.789983 
L 475.784794 58.597403 
L 479.668222 58.616443 
L 479.668222 58.616443 
" clip-path="url(#p7b4820eed6)" style="fill: none; stroke: #2ca02c; stroke-width: 1.5; stroke-linecap: square"/>
   </g>
   <g id="line2d_35">
    <path d="M 73.85004 171.486015 
L 74.820897 171.292894 
L 75.791754 171.384607 
L 77.733467 171.125211 
L 78.704324 170.854171 
L 80.646038 170.828844 
L 82.587752 171.072573 
L 87.442036 170.837468 
L 88.412893 170.898668 
L 97.150605 170.595525 
L 98.121462 170.324193 
L 101.034033 170.11677 
L 102.00489 169.883881 
L 103.946604 170.183773 
L 106.859174 169.875394 
L 107.830031 169.885023 
L 108.800888 170.016772 
L 109.771745 169.933813 
L 110.742602 170.070454 
L 116.567743 169.729881 
L 117.5386 169.874854 
L 119.480314 169.616732 
L 120.451171 169.795113 
L 124.334598 169.662556 
L 127.247169 169.555671 
L 129.188883 169.807842 
L 130.15974 169.750113 
L 131.130597 169.922124 
L 132.101454 169.778662 
L 135.984881 169.83479 
L 136.955738 169.650805 
L 137.926595 169.765058 
L 144.722593 169.743257 
L 145.69345 169.966062 
L 146.664307 169.621429 
L 148.606021 169.960339 
L 157.343733 169.347006 
L 158.31459 169.431718 
L 163.168874 169.240001 
L 164.139731 169.422571 
L 167.052302 169.161917 
L 168.023159 169.214364 
L 168.994016 169.430824 
L 169.964872 169.168413 
L 171.906586 169.15817 
L 173.8483 168.996575 
L 174.819157 168.749968 
L 177.731728 168.576629 
L 178.702584 168.731489 
L 181.615155 168.437513 
L 182.586012 168.46221 
L 183.556869 168.631695 
L 184.527726 168.468368 
L 185.498583 168.585382 
L 186.46944 168.475351 
L 187.440297 168.625302 
L 188.411153 168.500939 
L 190.352867 168.614041 
L 192.294581 168.605417 
L 195.207152 168.21359 
L 198.119722 168.155406 
L 213.653433 168.115375 
L 214.62429 168.275343 
L 218.507717 168.171623 
L 219.478574 168.300384 
L 220.449431 168.305072 
L 221.420288 168.152769 
L 226.274572 167.935237 
L 227.245429 167.68982 
L 228.216286 167.86985 
L 230.158 167.821934 
L 231.128857 167.960046 
L 232.099714 167.844217 
L 233.070571 167.888214 
L 234.041427 167.662797 
L 236.953998 167.550244 
L 237.924855 167.682626 
L 238.895712 167.540175 
L 239.866569 167.722239 
L 240.837426 167.542194 
L 249.575138 167.346419 
L 250.545995 167.164642 
L 253.458565 167.432389 
L 254.429422 167.24794 
L 256.371136 167.112629 
L 257.341993 166.930305 
L 258.31285 166.947392 
L 259.283707 166.825812 
L 260.254564 166.896174 
L 263.167134 166.7991 
L 264.137991 166.872173 
L 266.079705 166.786154 
L 268.021419 166.797687 
L 269.963133 166.597341 
L 270.933989 166.608902 
L 271.904846 166.794668 
L 272.875703 166.811308 
L 277.729988 166.272962 
L 278.700845 166.29771 
L 279.671701 165.979673 
L 280.642558 165.939386 
L 281.613415 165.773888 
L 282.584272 165.737238 
L 285.496843 165.888421 
L 288.409414 165.831601 
L 289.38027 165.608863 
L 292.292841 165.668602 
L 296.176269 165.70755 
L 299.088839 165.378356 
L 305.884838 165.557736 
L 333.068831 164.991862 
L 334.039688 165.087288 
L 335.010544 164.88681 
L 336.952258 165.031192 
L 337.923115 164.736279 
L 338.893972 164.840923 
L 339.864829 164.79321 
L 340.835686 164.857613 
L 346.660827 164.628119 
L 347.631684 164.737261 
L 350.544255 164.560698 
L 368.019679 164.553178 
L 370.93225 164.214345 
L 371.903106 164.317669 
L 373.84482 164.187807 
L 375.786534 164.36873 
L 378.699105 164.279297 
L 381.611675 164.426985 
L 382.582532 164.454837 
L 383.553389 164.607903 
L 384.524246 164.44155 
L 389.378531 164.517443 
L 390.349387 164.318229 
L 391.320244 164.430436 
L 392.291101 164.316517 
L 394.232815 164.427897 
L 395.203672 164.474074 
L 397.145386 164.155096 
L 398.116243 164.261164 
L 401.99967 164.215984 
L 404.912241 164.203614 
L 408.795668 164.069895 
L 409.766525 164.08626 
L 410.737382 163.937372 
L 412.679096 163.895432 
L 413.649953 163.988059 
L 414.62081 163.925656 
L 415.591667 164.035934 
L 419.475094 163.609839 
L 421.416808 163.658666 
L 422.387665 163.533693 
L 425.300236 163.579824 
L 429.183663 163.583263 
L 430.15452 163.767956 
L 434.037948 163.569843 
L 436.950518 163.777595 
L 437.921375 163.651673 
L 438.892232 163.688032 
L 440.833946 163.572216 
L 443.746517 163.652088 
L 445.68823 163.452354 
L 446.659087 163.594294 
L 447.629944 163.506217 
L 450.542515 163.778658 
L 451.513372 163.685016 
L 452.484229 163.716647 
L 453.455086 163.552291 
L 455.396799 163.629837 
L 456.367656 163.503722 
L 457.338513 163.674312 
L 461.221941 163.689801 
L 467.047082 163.468006 
L 472.872223 163.802887 
L 473.84308 163.72415 
L 479.668222 163.844199 
L 479.668222 163.844199 
" clip-path="url(#p7b4820eed6)" style="fill: none; stroke: #d62728; stroke-width: 1.5; stroke-linecap: square"/>
   </g>
   <g id="line2d_36">
    <path d="M 73.85004 165.981455 
L 74.820897 165.844596 
L 76.762611 165.913013 
L 79.675181 165.436791 
L 80.646038 165.404743 
L 81.616895 165.551061 
L 83.558609 165.478765 
L 85.500323 165.305177 
L 87.442036 165.200572 
L 88.412893 165.300503 
L 91.325464 165.279385 
L 92.296321 165.116784 
L 94.238035 165.165361 
L 97.150605 164.952242 
L 98.121462 164.693579 
L 100.063176 164.672252 
L 102.975747 164.578716 
L 103.946604 164.77428 
L 104.917461 164.640424 
L 105.888317 164.3915 
L 107.830031 164.43671 
L 110.742602 164.511251 
L 113.655173 164.264675 
L 118.509457 164.328578 
L 119.480314 164.183143 
L 120.451171 164.321324 
L 121.422028 164.305179 
L 122.392885 164.411817 
L 127.247169 164.127733 
L 129.188883 164.350722 
L 130.15974 164.34621 
L 131.130597 164.51609 
L 133.07231 164.258991 
L 143.751736 164.435519 
L 144.722593 164.316191 
L 145.69345 164.511823 
L 146.664307 164.119954 
L 147.635164 164.459193 
L 148.606021 164.570876 
L 158.31459 164.015514 
L 160.256303 164.10915 
L 161.22716 163.933247 
L 167.052302 163.717839 
L 168.994016 163.951138 
L 169.964872 163.800594 
L 171.906586 163.779965 
L 172.877443 163.644227 
L 173.8483 163.709089 
L 174.819157 163.360765 
L 177.731728 163.290778 
L 178.702584 163.422574 
L 180.644298 163.146228 
L 182.586012 163.116055 
L 183.556869 163.245705 
L 185.498583 163.180649 
L 186.46944 163.142277 
L 187.440297 163.313267 
L 188.411153 163.230055 
L 192.294581 163.333617 
L 194.236295 162.995013 
L 195.207152 163.09771 
L 198.119722 163.006342 
L 217.53686 162.896647 
L 218.507717 162.769532 
L 219.478574 162.884392 
L 223.362002 162.64794 
L 228.216286 162.383584 
L 230.158 162.352878 
L 231.128857 162.490048 
L 236.953998 162.099429 
L 237.924855 162.243244 
L 238.895712 162.061451 
L 239.866569 162.271707 
L 240.837426 162.048241 
L 249.575138 161.973991 
L 250.545995 161.750639 
L 253.458565 162.088721 
L 254.429422 161.834538 
L 258.31285 161.539019 
L 263.167134 161.34836 
L 264.137991 161.490626 
L 266.079705 161.371767 
L 267.050562 161.321614 
L 268.021419 161.129226 
L 268.992276 160.736171 
L 271.904846 160.677653 
L 272.875703 160.854813 
L 273.84656 160.861803 
L 276.759131 160.381209 
L 278.700845 160.356792 
L 279.671701 160.04258 
L 281.613415 159.797428 
L 286.4677 159.658662 
L 287.438557 159.79509 
L 288.409414 159.796888 
L 289.38027 159.59162 
L 291.321984 159.615562 
L 293.263698 159.593691 
L 294.234555 159.540293 
L 296.176269 159.709368 
L 299.088839 159.254528 
L 301.030553 159.283549 
L 334.039688 158.639932 
L 335.981401 158.517396 
L 336.952258 158.741303 
L 337.923115 158.332415 
L 339.864829 158.468458 
L 342.7774 158.363569 
L 344.719113 158.180833 
L 346.660827 158.175968 
L 347.631684 158.498202 
L 349.573398 158.198256 
L 368.990536 157.924958 
L 370.93225 157.778547 
L 372.873963 157.881615 
L 373.84482 157.756084 
L 374.815677 157.884004 
L 378.699105 157.867301 
L 379.669962 157.962525 
L 381.611675 157.985193 
L 383.553389 158.165798 
L 384.524246 158.039852 
L 385.495103 158.123229 
L 389.378531 158.10666 
L 390.349387 157.920381 
L 391.320244 158.086766 
L 392.291101 157.947128 
L 395.203672 158.134888 
L 397.145386 157.920009 
L 399.087099 158.054648 
L 400.057956 157.886181 
L 401.028813 157.904753 
L 401.99967 158.067509 
L 402.970527 157.836298 
L 403.941384 157.88733 
L 407.824812 157.708578 
L 413.649953 157.49806 
L 415.591667 157.691052 
L 420.445951 157.346649 
L 424.329379 157.402557 
L 426.271093 157.292133 
L 427.241949 157.434991 
L 428.212806 157.218148 
L 430.15452 157.495661 
L 435.979661 157.511098 
L 436.950518 157.636021 
L 437.921375 157.456899 
L 439.863089 157.528311 
L 440.833946 157.469787 
L 442.77566 157.600022 
L 443.746517 157.602407 
L 445.68823 157.427944 
L 446.659087 157.557947 
L 447.629944 157.436796 
L 449.571658 157.441658 
L 450.542515 157.640835 
L 451.513372 157.667897 
L 453.455086 157.486255 
L 456.367656 157.45134 
L 457.338513 157.675182 
L 466.076225 157.546336 
L 467.047082 157.389204 
L 476.755651 157.800631 
L 479.668222 157.829001 
L 479.668222 157.829001 
" clip-path="url(#p7b4820eed6)" style="fill: none; stroke: #9467bd; stroke-width: 1.5; stroke-linecap: square"/>
   </g>
   <g id="line2d_37">
    <path d="M 73.85004 175.597445 
L 74.820897 175.468225 
L 76.762611 175.513676 
L 79.675181 175.10675 
L 82.587752 175.213236 
L 87.442036 174.95356 
L 88.412893 174.994081 
L 97.150605 174.971948 
L 99.092319 174.625243 
L 100.063176 174.655779 
L 102.00489 174.460343 
L 103.946604 174.710751 
L 105.888317 174.424154 
L 106.859174 174.296749 
L 108.800888 174.407365 
L 109.771745 174.341254 
L 111.713459 174.381535 
L 115.596886 174.154623 
L 117.5386 174.245995 
L 119.480314 174.02451 
L 121.422028 174.13105 
L 122.392885 174.195476 
L 125.305455 174.020689 
L 133.07231 173.995445 
L 144.722593 173.959065 
L 145.69345 174.123162 
L 146.664307 173.919456 
L 147.635164 174.079677 
L 148.606021 174.119259 
L 158.31459 173.683981 
L 160.256303 173.841495 
L 161.22716 173.721565 
L 162.198017 173.800208 
L 163.168874 173.705138 
L 164.139731 173.775661 
L 167.052302 173.550823 
L 168.994016 173.674146 
L 169.964872 173.575515 
L 171.906586 173.55852 
L 177.731728 173.180923 
L 178.702584 173.253899 
L 181.615155 173.013073 
L 188.411153 172.972307 
L 189.38201 173.086267 
L 192.294581 173.008401 
L 194.236295 172.7065 
L 213.653433 172.668267 
L 214.62429 172.708628 
L 216.566003 172.640077 
L 218.507717 172.592808 
L 219.478574 172.664451 
L 220.449431 172.611988 
L 221.420288 172.403407 
L 222.391145 172.461189 
L 223.362002 172.334626 
L 226.274572 172.29336 
L 227.245429 172.030045 
L 228.216286 172.202593 
L 230.158 172.13813 
L 231.128857 172.291047 
L 232.099714 172.204344 
L 233.070571 172.323556 
L 234.041427 172.11243 
L 236.953998 172.013794 
L 237.924855 172.106471 
L 238.895712 171.94546 
L 239.866569 172.141213 
L 240.837426 171.967878 
L 241.808283 171.916265 
L 245.69171 171.935744 
L 246.662567 171.793299 
L 247.633424 171.854894 
L 248.604281 171.766714 
L 249.575138 171.832532 
L 250.545995 171.585625 
L 253.458565 171.821832 
L 254.429422 171.614025 
L 255.400279 171.711607 
L 257.341993 171.394784 
L 260.254564 171.437768 
L 261.22542 171.324311 
L 264.137991 171.39482 
L 266.079705 171.302611 
L 267.050562 171.425024 
L 269.963133 171.174654 
L 270.933989 171.107097 
L 272.875703 171.348326 
L 274.817417 171.212064 
L 275.788274 170.909981 
L 277.729988 170.895299 
L 280.642558 170.825928 
L 281.613415 170.562886 
L 282.584272 170.501251 
L 283.555129 170.658021 
L 288.409414 170.716229 
L 289.38027 170.466466 
L 292.292841 170.635894 
L 294.234555 170.622672 
L 296.176269 170.759323 
L 299.088839 170.481545 
L 305.884838 170.44819 
L 336.952258 170.087769 
L 338.893972 169.969432 
L 342.7774 169.936201 
L 346.660827 169.79969 
L 347.631684 169.954936 
L 348.602541 169.95743 
L 349.573398 169.806316 
L 375.786534 169.567047 
L 376.757391 169.645756 
L 377.728248 169.445457 
L 380.640818 169.601767 
L 381.611675 169.570892 
L 383.553389 169.794745 
L 384.524246 169.650312 
L 385.495103 169.698979 
L 391.320244 169.730508 
L 392.291101 169.597022 
L 393.261958 169.676007 
L 399.087099 169.544715 
L 402.970527 169.529346 
L 403.941384 169.590269 
L 405.883098 169.464081 
L 406.853955 169.532682 
L 408.795668 169.47015 
L 409.766525 169.516269 
L 411.708239 169.302608 
L 415.591667 169.451457 
L 417.53338 169.280221 
L 418.504237 169.246156 
L 419.475094 169.070824 
L 426.271093 169.033846 
L 427.241949 169.077601 
L 428.212806 168.968004 
L 429.183663 169.001145 
L 430.15452 169.21673 
L 434.037948 169.018314 
L 436.950518 169.22432 
L 440.833946 169.049899 
L 442.77566 169.136445 
L 449.571658 169.0654 
L 450.542515 169.326092 
L 452.484229 169.1965 
L 454.425942 169.133666 
L 459.280227 169.210803 
L 463.163655 169.154103 
L 465.105368 169.264094 
L 466.076225 169.043921 
L 467.047082 168.979307 
L 472.872223 169.252314 
L 479.668222 169.46639 
L 479.668222 169.46639 
" clip-path="url(#p7b4820eed6)" style="fill: none; stroke: #8c564b; stroke-width: 1.5; stroke-linecap: square"/>
   </g>
   <g id="line2d_38">
    <path d="M 73.85004 172.879144 
L 74.820897 172.769536 
L 76.762611 172.758556 
L 77.733467 172.662497 
L 78.704324 172.392636 
L 79.675181 172.305796 
L 82.587752 172.508448 
L 85.500323 172.176466 
L 88.412893 172.203255 
L 94.238035 172.258645 
L 97.150605 172.142081 
L 100.063176 171.838242 
L 102.00489 171.62652 
L 103.946604 171.86709 
L 107.830031 171.576439 
L 108.800888 171.642917 
L 109.771745 171.543912 
L 110.742602 171.663442 
L 116.567743 171.338714 
L 117.5386 171.471692 
L 118.509457 171.284399 
L 119.480314 171.219561 
L 120.451171 171.34762 
L 122.392885 171.356611 
L 124.334598 171.107183 
L 127.247169 171.152123 
L 129.188883 171.332626 
L 130.15974 171.197587 
L 131.130597 171.354079 
L 133.07231 171.122393 
L 135.014024 171.294902 
L 136.955738 171.273155 
L 140.839166 171.273402 
L 145.69345 171.388228 
L 146.664307 171.184348 
L 148.606021 171.393375 
L 157.343733 170.834116 
L 160.256303 170.935629 
L 161.22716 170.775865 
L 162.198017 170.926716 
L 163.168874 170.835789 
L 164.139731 170.924694 
L 167.052302 170.691153 
L 168.994016 170.728242 
L 173.8483 170.693419 
L 174.819157 170.430309 
L 182.586012 170.169386 
L 183.556869 170.206985 
L 184.527726 170.043464 
L 192.294581 170.107438 
L 194.236295 169.635848 
L 195.207152 169.723434 
L 197.148865 169.52649 
L 198.119722 169.632837 
L 218.507717 169.564794 
L 219.478574 169.707689 
L 227.245429 169.070801 
L 228.216286 169.220315 
L 230.158 169.087268 
L 231.128857 169.380277 
L 232.099714 169.180385 
L 233.070571 169.291803 
L 234.041427 169.150687 
L 236.953998 169.010284 
L 237.924855 169.14333 
L 238.895712 168.962134 
L 239.866569 169.171997 
L 240.837426 168.874061 
L 245.69171 168.971396 
L 246.662567 168.760743 
L 247.633424 168.80481 
L 248.604281 168.699387 
L 249.575138 168.750886 
L 250.545995 168.552151 
L 252.487708 168.617592 
L 253.458565 168.741043 
L 254.429422 168.526482 
L 255.400279 168.533621 
L 258.31285 168.316428 
L 261.22542 168.215697 
L 264.137991 168.321567 
L 266.079705 168.220163 
L 267.050562 168.302883 
L 268.992276 168.027972 
L 269.963133 168.070042 
L 270.933989 167.97561 
L 272.875703 168.270583 
L 274.817417 168.083968 
L 275.788274 167.783864 
L 277.729988 167.809364 
L 278.700845 167.756652 
L 279.671701 167.463946 
L 280.642558 167.423739 
L 281.613415 167.144038 
L 282.584272 167.038881 
L 285.496843 167.201405 
L 288.409414 167.227209 
L 289.38027 167.000431 
L 291.321984 167.106682 
L 292.292841 167.199969 
L 304.913981 166.921494 
L 305.884838 167.032435 
L 334.039688 166.745892 
L 335.010544 166.61294 
L 336.952258 166.64683 
L 337.923115 166.485026 
L 340.835686 166.550918 
L 341.806543 166.58196 
L 342.7774 166.460714 
L 343.748257 166.460396 
L 344.719113 166.342885 
L 348.602541 166.500185 
L 349.573398 166.358256 
L 350.544255 166.346666 
L 368.019679 166.284488 
L 370.93225 165.892206 
L 371.903106 166.017669 
L 373.84482 165.945174 
L 376.757391 166.03044 
L 377.728248 165.897458 
L 379.669962 166.043186 
L 382.582532 166.163406 
L 383.553389 166.289482 
L 385.495103 166.268691 
L 394.232815 166.218688 
L 395.203672 166.283602 
L 397.145386 165.961523 
L 398.116243 166.050061 
L 401.028813 165.93631 
L 403.941384 165.951929 
L 405.883098 165.888506 
L 407.824812 165.917772 
L 410.737382 165.801419 
L 411.708239 165.72922 
L 415.591667 165.917599 
L 416.562524 165.742019 
L 418.504237 165.616953 
L 420.445951 165.437612 
L 427.241949 165.460479 
L 428.212806 165.323059 
L 429.183663 165.370372 
L 430.15452 165.572933 
L 431.125377 165.451178 
L 434.037948 165.318735 
L 436.950518 165.492305 
L 440.833946 165.346048 
L 442.77566 165.462211 
L 445.68823 165.297468 
L 446.659087 165.461893 
L 447.629944 165.351499 
L 449.571658 165.368961 
L 451.513372 165.531304 
L 460.251084 165.435993 
L 462.192798 165.454534 
L 464.134511 165.425718 
L 465.105368 165.464756 
L 467.047082 165.18142 
L 471.901367 165.581479 
L 474.813937 165.533094 
L 479.668222 165.6564 
L 479.668222 165.6564 
" clip-path="url(#p7b4820eed6)" style="fill: none; stroke: #e377c2; stroke-width: 1.5; stroke-linecap: square"/>
   </g>
   <g id="patch_3">
    <path d="M 53.559131 182.359219 
L 53.559131 10.999219 
" style="fill: none; stroke: #000000; stroke-width: 0.8; stroke-linejoin: miter; stroke-linecap: square"/>
   </g>
   <g id="patch_4">
    <path d="M 499.959131 182.359219 
L 499.959131 10.999219 
" style="fill: none; stroke: #000000; stroke-width: 0.8; stroke-linejoin: miter; stroke-linecap: square"/>
   </g>
   <g id="patch_5">
    <path d="M 53.559131 182.359219 
L 499.959131 182.359219 
" style="fill: none; stroke: #000000; stroke-width: 0.8; stroke-linejoin: miter; stroke-linecap: square"/>
   </g>
   <g id="patch_6">
    <path d="M 53.559131 10.999219 
L 499.959131 10.999219 
" style="fill: none; stroke: #000000; stroke-width: 0.8; stroke-linejoin: miter; stroke-linecap: square"/>
   </g>
   <g id="legend_1">
    <g id="patch_7">
     <path d="M 205.651318 120.196406 
L 492.959131 120.196406 
Q 494.959131 120.196406 494.959131 118.196406 
L 494.959131 75.162031 
Q 494.959131 73.162031 492.959131 73.162031 
L 205.651318 73.162031 
Q 203.651318 73.162031 203.651318 75.162031 
L 203.651318 118.196406 
Q 203.651318 120.196406 205.651318 120.196406 
z
" style="fill: #ffffff; opacity: 0.8; stroke: #cccccc; stroke-linejoin: miter"/>
    </g>
    <g id="line2d_39">
     <path d="M 207.651318 81.260469 
L 217.651318 81.260469 
L 227.651318 81.260469 
" style="fill: none; stroke: #1f77b4; stroke-width: 1.5; stroke-linecap: square"/>
    </g>
    <g id="text_25">
     <!-- default-src -->
     <g transform="translate(235.651318 84.760469)scale(0.1 -0.1)">
      <defs>
       <path id="DejaVuSans-64" d="M 2906 2969 
L 2906 4863 
L 3481 4863 
L 3481 0 
L 2906 0 
L 2906 525 
Q 2725 213 2448 61 
Q 2172 -91 1784 -91 
Q 1150 -91 751 415 
Q 353 922 353 1747 
Q 353 2572 751 3078 
Q 1150 3584 1784 3584 
Q 2172 3584 2448 3432 
Q 2725 3281 2906 2969 
z
M 947 1747 
Q 947 1113 1208 752 
Q 1469 391 1925 391 
Q 2381 391 2643 752 
Q 2906 1113 2906 1747 
Q 2906 2381 2643 2742 
Q 2381 3103 1925 3103 
Q 1469 3103 1208 2742 
Q 947 2381 947 1747 
z
" transform="scale(0.015625)"/>
      </defs>
      <use xlink:href="#DejaVuSans-64"/>
      <use xlink:href="#DejaVuSans-65" x="63.476562"/>
      <use xlink:href="#DejaVuSans-66" x="125"/>
      <use xlink:href="#DejaVuSans-61" x="160.205078"/>
      <use xlink:href="#DejaVuSans-75" x="221.484375"/>
      <use xlink:href="#DejaVuSans-6c" x="284.863281"/>
      <use xlink:href="#DejaVuSans-74" x="312.646484"/>
      <use xlink:href="#DejaVuSans-2d" x="351.855469"/>
      <use xlink:href="#DejaVuSans-73" x="387.939453"/>
      <use xlink:href="#DejaVuSans-72" x="440.039062"/>
      <use xlink:href="#DejaVuSans-63" x="478.902344"/>
     </g>
    </g>
    <g id="line2d_40">
     <path d="M 207.651318 95.938594 
L 217.651318 95.938594 
L 227.651318 95.938594 
" style="fill: none; stroke: #ff7f0e; stroke-width: 1.5; stroke-linecap: square"/>
    </g>
    <g id="text_26">
     <!-- script-src -->
     <g transform="translate(235.651318 99.438594)scale(0.1 -0.1)">
      <use xlink:href="#DejaVuSans-73"/>
      <use xlink:href="#DejaVuSans-63" x="52.099609"/>
      <use xlink:href="#DejaVuSans-72" x="107.080078"/>
      <use xlink:href="#DejaVuSans-69" x="148.193359"/>
      <use xlink:href="#DejaVuSans-70" x="175.976562"/>
      <use xlink:href="#DejaVuSans-74" x="239.453125"/>
      <use xlink:href="#DejaVuSans-2d" x="278.662109"/>
      <use xlink:href="#DejaVuSans-73" x="314.746094"/>
      <use xlink:href="#DejaVuSans-72" x="366.845703"/>
      <use xlink:href="#DejaVuSans-63" x="405.708984"/>
     </g>
    </g>
    <g id="line2d_41">
     <path d="M 207.651318 110.616719 
L 217.651318 110.616719 
L 227.651318 110.616719 
" style="fill: none; stroke: #2ca02c; stroke-width: 1.5; stroke-linecap: square"/>
    </g>
    <g id="text_27">
     <!-- style-src -->
     <g transform="translate(235.651318 114.116719)scale(0.1 -0.1)">
      <use xlink:href="#DejaVuSans-73"/>
      <use xlink:href="#DejaVuSans-74" x="52.099609"/>
      <use xlink:href="#DejaVuSans-79" x="91.308594"/>
      <use xlink:href="#DejaVuSans-6c" x="150.488281"/>
      <use xlink:href="#DejaVuSans-65" x="178.271484"/>
      <use xlink:href="#DejaVuSans-2d" x="239.794922"/>
      <use xlink:href="#DejaVuSans-73" x="275.878906"/>
      <use xlink:href="#DejaVuSans-72" x="327.978516"/>
      <use xlink:href="#DejaVuSans-63" x="366.841797"/>
     </g>
    </g>
    <g id="line2d_42">
     <path d="M 309.038818 81.260469 
L 319.038818 81.260469 
L 329.038818 81.260469 
" style="fill: none; stroke: #d62728; stroke-width: 1.5; stroke-linecap: square"/>
    </g>
    <g id="text_28">
     <!-- connect-src -->
     <g transform="translate(337.038818 84.760469)scale(0.1 -0.1)">
      <use xlink:href="#DejaVuSans-63"/>
      <use xlink:href="#DejaVuSans-6f" x="54.980469"/>
      <use xlink:href="#DejaVuSans-6e" x="116.162109"/>
      <use xlink:href="#DejaVuSans-6e" x="179.541016"/>
      <use xlink:href="#DejaVuSans-65" x="242.919922"/>
      <use xlink:href="#DejaVuSans-63" x="304.443359"/>
      <use xlink:href="#DejaVuSans-74" x="359.423828"/>
      <use xlink:href="#DejaVuSans-2d" x="398.632812"/>
      <use xlink:href="#DejaVuSans-73" x="434.716797"/>
      <use xlink:href="#DejaVuSans-72" x="486.816406"/>
      <use xlink:href="#DejaVuSans-63" x="525.679688"/>
     </g>
    </g>
    <g id="line2d_43">
     <path d="M 309.038818 95.938594 
L 319.038818 95.938594 
L 329.038818 95.938594 
" style="fill: none; stroke: #9467bd; stroke-width: 1.5; stroke-linecap: square"/>
    </g>
    <g id="text_29">
     <!-- img-src -->
     <g transform="translate(337.038818 99.438594)scale(0.1 -0.1)">
      <defs>
       <path id="DejaVuSans-6d" d="M 3328 2828 
Q 3544 3216 3844 3400 
Q 4144 3584 4550 3584 
Q 5097 3584 5394 3201 
Q 5691 2819 5691 2113 
L 5691 0 
L 5113 0 
L 5113 2094 
Q 5113 2597 4934 2840 
Q 4756 3084 4391 3084 
Q 3944 3084 3684 2787 
Q 3425 2491 3425 1978 
L 3425 0 
L 2847 0 
L 2847 2094 
Q 2847 2600 2669 2842 
Q 2491 3084 2119 3084 
Q 1678 3084 1418 2786 
Q 1159 2488 1159 1978 
L 1159 0 
L 581 0 
L 581 3500 
L 1159 3500 
L 1159 2956 
Q 1356 3278 1631 3431 
Q 1906 3584 2284 3584 
Q 2666 3584 2933 3390 
Q 3200 3197 3328 2828 
z
" transform="scale(0.015625)"/>
      </defs>
      <use xlink:href="#DejaVuSans-69"/>
      <use xlink:href="#DejaVuSans-6d" x="27.783203"/>
      <use xlink:href="#DejaVuSans-67" x="125.195312"/>
      <use xlink:href="#DejaVuSans-2d" x="188.671875"/>
      <use xlink:href="#DejaVuSans-73" x="224.755859"/>
      <use xlink:href="#DejaVuSans-72" x="276.855469"/>
      <use xlink:href="#DejaVuSans-63" x="315.71875"/>
     </g>
    </g>
    <g id="line2d_44">
     <path d="M 415.104443 81.260469 
L 425.104443 81.260469 
L 435.104443 81.260469 
" style="fill: none; stroke: #8c564b; stroke-width: 1.5; stroke-linecap: square"/>
    </g>
    <g id="text_30">
     <!-- child-src -->
     <g transform="translate(443.104443 84.760469)scale(0.1 -0.1)">
      <defs>
       <path id="DejaVuSans-68" d="M 3513 2113 
L 3513 0 
L 2938 0 
L 2938 2094 
Q 2938 2591 2744 2837 
Q 2550 3084 2163 3084 
Q 1697 3084 1428 2787 
Q 1159 2491 1159 1978 
L 1159 0 
L 581 0 
L 581 4863 
L 1159 4863 
L 1159 2956 
Q 1366 3272 1645 3428 
Q 1925 3584 2291 3584 
Q 2894 3584 3203 3211 
Q 3513 2838 3513 2113 
z
" transform="scale(0.015625)"/>
      </defs>
      <use xlink:href="#DejaVuSans-63"/>
      <use xlink:href="#DejaVuSans-68" x="54.980469"/>
      <use xlink:href="#DejaVuSans-69" x="118.359375"/>
      <use xlink:href="#DejaVuSans-6c" x="146.142578"/>
      <use xlink:href="#DejaVuSans-64" x="173.925781"/>
      <use xlink:href="#DejaVuSans-2d" x="237.402344"/>
      <use xlink:href="#DejaVuSans-73" x="273.486328"/>
      <use xlink:href="#DejaVuSans-72" x="325.585938"/>
      <use xlink:href="#DejaVuSans-63" x="364.449219"/>
     </g>
    </g>
    <g id="line2d_45">
     <path d="M 415.104443 95.938594 
L 425.104443 95.938594 
L 435.104443 95.938594 
" style="fill: none; stroke: #e377c2; stroke-width: 1.5; stroke-linecap: square"/>
    </g>
    <g id="text_31">
     <!-- frame-src -->
     <g transform="translate(443.104443 99.438594)scale(0.1 -0.1)">
      <use xlink:href="#DejaVuSans-66"/>
      <use xlink:href="#DejaVuSans-72" x="35.205078"/>
      <use xlink:href="#DejaVuSans-61" x="76.318359"/>
      <use xlink:href="#DejaVuSans-6d" x="137.597656"/>
      <use xlink:href="#DejaVuSans-65" x="235.009766"/>
      <use xlink:href="#DejaVuSans-2d" x="296.533203"/>
      <use xlink:href="#DejaVuSans-73" x="332.617188"/>
      <use xlink:href="#DejaVuSans-72" x="384.716797"/>
      <use xlink:href="#DejaVuSans-63" x="423.580078"/>
     </g>
    </g>
   </g>
  </g>
 </g>
 <defs>
  <clipPath id="p7b4820eed6">
   <rect x="53.559131" y="10.999219" width="446.4" height="171.36"/>
  </clipPath>
 </defs>
</svg>
