<?xml version="1.0" encoding="utf-8" standalone="no"?>
<!DOCTYPE svg PUBLIC "-//W3C//DTD SVG 1.1//EN"
  "http://www.w3.org/Graphics/SVG/1.1/DTD/svg11.dtd">
<svg xmlns:xlink="http://www.w3.org/1999/xlink" width="506.732901pt" height="250.252127pt" viewBox="0 0 506.732901 250.252127" xmlns="http://www.w3.org/2000/svg" version="1.1">
 <metadata>
  <rdf:RDF xmlns:dc="http://purl.org/dc/elements/1.1/" xmlns:cc="http://creativecommons.org/ns#" xmlns:rdf="http://www.w3.org/1999/02/22-rdf-syntax-ns#">
   <cc:Work>
    <dc:type rdf:resource="http://purl.org/dc/dcmitype/StillImage"/>
    <dc:date>2022-02-14T19:24:37.337250</dc:date>
    <dc:format>image/svg+xml</dc:format>
    <dc:creator>
     <cc:Agent>
      <dc:title>Matplotlib v3.5.1, https://matplotlib.org/</dc:title>
     </cc:Agent>
    </dc:creator>
   </cc:Work>
  </rdf:RDF>
 </metadata>
 <defs>
  <style type="text/css">*{stroke-linejoin: round; stroke-linecap: butt}</style>
 </defs>
 <g id="figure_1">
  <g id="patch_1">
   <path d="M 0 250.252127 
L 506.732901 250.252127 
L 506.732901 0 
L 0 0 
z
" style="fill: #ffffff"/>
  </g>
  <g id="axes_1">
   <g id="patch_2">
    <path d="M 53.132901 194.725312 
L 499.532901 194.725312 
L 499.532901 23.365313 
L 53.132901 23.365313 
z
" style="fill: #ffffff"/>
   </g>
   <g id="matplotlib.axis_1">
    <g id="xtick_1">
     <g id="line2d_1">
      <defs>
       <path id="me945a4cad7" d="M 0 0 
L 0 3.5 
" style="stroke: #000000; stroke-width: 0.8"/>
      </defs>
      <g>
       <use xlink:href="#me945a4cad7" x="68.024899" y="194.725312" style="stroke: #000000; stroke-width: 0.8"/>
      </g>
     </g>
     <g id="text_1">
      <!-- 2020-Nov-01 -->
      <g transform="translate(10.999219 240.62919)rotate(-30)scale(0.1 -0.1)">
       <defs>
        <path id="DejaVuSans-32" d="M 1228 531 
L 3431 531 
L 3431 0 
L 469 0 
L 469 531 
Q 828 903 1448 1529 
Q 2069 2156 2228 2338 
Q 2531 2678 2651 2914 
Q 2772 3150 2772 3378 
Q 2772 3750 2511 3984 
Q 2250 4219 1831 4219 
Q 1534 4219 1204 4116 
Q 875 4013 500 3803 
L 500 4441 
Q 881 4594 1212 4672 
Q 1544 4750 1819 4750 
Q 2544 4750 2975 4387 
Q 3406 4025 3406 3419 
Q 3406 3131 3298 2873 
Q 3191 2616 2906 2266 
Q 2828 2175 2409 1742 
Q 1991 1309 1228 531 
z
" transform="scale(0.015625)"/>
        <path id="DejaVuSans-30" d="M 2034 4250 
Q 1547 4250 1301 3770 
Q 1056 3291 1056 2328 
Q 1056 1369 1301 889 
Q 1547 409 2034 409 
Q 2525 409 2770 889 
Q 3016 1369 3016 2328 
Q 3016 3291 2770 3770 
Q 2525 4250 2034 4250 
z
M 2034 4750 
Q 2819 4750 3233 4129 
Q 3647 3509 3647 2328 
Q 3647 1150 3233 529 
Q 2819 -91 2034 -91 
Q 1250 -91 836 529 
Q 422 1150 422 2328 
Q 422 3509 836 4129 
Q 1250 4750 2034 4750 
z
" transform="scale(0.015625)"/>
        <path id="DejaVuSans-2d" d="M 313 2009 
L 1997 2009 
L 1997 1497 
L 313 1497 
L 313 2009 
z
" transform="scale(0.015625)"/>
        <path id="DejaVuSans-4e" d="M 628 4666 
L 1478 4666 
L 3547 763 
L 3547 4666 
L 4159 4666 
L 4159 0 
L 3309 0 
L 1241 3903 
L 1241 0 
L 628 0 
L 628 4666 
z
" transform="scale(0.015625)"/>
        <path id="DejaVuSans-6f" d="M 1959 3097 
Q 1497 3097 1228 2736 
Q 959 2375 959 1747 
Q 959 1119 1226 758 
Q 1494 397 1959 397 
Q 2419 397 2687 759 
Q 2956 1122 2956 1747 
Q 2956 2369 2687 2733 
Q 2419 3097 1959 3097 
z
M 1959 3584 
Q 2709 3584 3137 3096 
Q 3566 2609 3566 1747 
Q 3566 888 3137 398 
Q 2709 -91 1959 -91 
Q 1206 -91 779 398 
Q 353 888 353 1747 
Q 353 2609 779 3096 
Q 1206 3584 1959 3584 
z
" transform="scale(0.015625)"/>
        <path id="DejaVuSans-76" d="M 191 3500 
L 800 3500 
L 1894 563 
L 2988 3500 
L 3597 3500 
L 2284 0 
L 1503 0 
L 191 3500 
z
" transform="scale(0.015625)"/>
        <path id="DejaVuSans-31" d="M 794 531 
L 1825 531 
L 1825 4091 
L 703 3866 
L 703 4441 
L 1819 4666 
L 2450 4666 
L 2450 531 
L 3481 531 
L 3481 0 
L 794 0 
L 794 531 
z
" transform="scale(0.015625)"/>
       </defs>
       <use xlink:href="#DejaVuSans-32"/>
       <use xlink:href="#DejaVuSans-30" x="63.623047"/>
       <use xlink:href="#DejaVuSans-32" x="127.246094"/>
       <use xlink:href="#DejaVuSans-30" x="190.869141"/>
       <use xlink:href="#DejaVuSans-2d" x="254.492188"/>
       <use xlink:href="#DejaVuSans-4e" x="290.576172"/>
       <use xlink:href="#DejaVuSans-6f" x="365.380859"/>
       <use xlink:href="#DejaVuSans-76" x="426.5625"/>
       <use xlink:href="#DejaVuSans-2d" x="483.117188"/>
       <use xlink:href="#DejaVuSans-30" x="519.201172"/>
       <use xlink:href="#DejaVuSans-31" x="582.824219"/>
      </g>
     </g>
    </g>
    <g id="xtick_2">
     <g id="line2d_2">
      <g>
       <use xlink:href="#me945a4cad7" x="95.019456" y="194.725312" style="stroke: #000000; stroke-width: 0.8"/>
      </g>
     </g>
     <g id="text_2">
      <!-- 2020-Dec-01 -->
      <g transform="translate(37.911233 240.676846)rotate(-30)scale(0.1 -0.1)">
       <defs>
        <path id="DejaVuSans-44" d="M 1259 4147 
L 1259 519 
L 2022 519 
Q 2988 519 3436 956 
Q 3884 1394 3884 2338 
Q 3884 3275 3436 3711 
Q 2988 4147 2022 4147 
L 1259 4147 
z
M 628 4666 
L 1925 4666 
Q 3281 4666 3915 4102 
Q 4550 3538 4550 2338 
Q 4550 1131 3912 565 
Q 3275 0 1925 0 
L 628 0 
L 628 4666 
z
" transform="scale(0.015625)"/>
        <path id="DejaVuSans-65" d="M 3597 1894 
L 3597 1613 
L 953 1613 
Q 991 1019 1311 708 
Q 1631 397 2203 397 
Q 2534 397 2845 478 
Q 3156 559 3463 722 
L 3463 178 
Q 3153 47 2828 -22 
Q 2503 -91 2169 -91 
Q 1331 -91 842 396 
Q 353 884 353 1716 
Q 353 2575 817 3079 
Q 1281 3584 2069 3584 
Q 2775 3584 3186 3129 
Q 3597 2675 3597 1894 
z
M 3022 2063 
Q 3016 2534 2758 2815 
Q 2500 3097 2075 3097 
Q 1594 3097 1305 2825 
Q 1016 2553 972 2059 
L 3022 2063 
z
" transform="scale(0.015625)"/>
        <path id="DejaVuSans-63" d="M 3122 3366 
L 3122 2828 
Q 2878 2963 2633 3030 
Q 2388 3097 2138 3097 
Q 1578 3097 1268 2742 
Q 959 2388 959 1747 
Q 959 1106 1268 751 
Q 1578 397 2138 397 
Q 2388 397 2633 464 
Q 2878 531 3122 666 
L 3122 134 
Q 2881 22 2623 -34 
Q 2366 -91 2075 -91 
Q 1284 -91 818 406 
Q 353 903 353 1747 
Q 353 2603 823 3093 
Q 1294 3584 2113 3584 
Q 2378 3584 2631 3529 
Q 2884 3475 3122 3366 
z
" transform="scale(0.015625)"/>
       </defs>
       <use xlink:href="#DejaVuSans-32"/>
       <use xlink:href="#DejaVuSans-30" x="63.623047"/>
       <use xlink:href="#DejaVuSans-32" x="127.246094"/>
       <use xlink:href="#DejaVuSans-30" x="190.869141"/>
       <use xlink:href="#DejaVuSans-2d" x="254.492188"/>
       <use xlink:href="#DejaVuSans-44" x="290.576172"/>
       <use xlink:href="#DejaVuSans-65" x="367.578125"/>
       <use xlink:href="#DejaVuSans-63" x="429.101562"/>
       <use xlink:href="#DejaVuSans-2d" x="484.082031"/>
       <use xlink:href="#DejaVuSans-30" x="520.166016"/>
       <use xlink:href="#DejaVuSans-31" x="583.789062"/>
      </g>
     </g>
    </g>
    <g id="xtick_3">
     <g id="line2d_3">
      <g>
       <use xlink:href="#me945a4cad7" x="122.913832" y="194.725312" style="stroke: #000000; stroke-width: 0.8"/>
      </g>
     </g>
     <g id="text_3">
      <!-- 2021-Jan-01 -->
      <g transform="translate(68.727092 238.990127)rotate(-30)scale(0.1 -0.1)">
       <defs>
        <path id="DejaVuSans-4a" d="M 628 4666 
L 1259 4666 
L 1259 325 
Q 1259 -519 939 -900 
Q 619 -1281 -91 -1281 
L -331 -1281 
L -331 -750 
L -134 -750 
Q 284 -750 456 -515 
Q 628 -281 628 325 
L 628 4666 
z
" transform="scale(0.015625)"/>
        <path id="DejaVuSans-61" d="M 2194 1759 
Q 1497 1759 1228 1600 
Q 959 1441 959 1056 
Q 959 750 1161 570 
Q 1363 391 1709 391 
Q 2188 391 2477 730 
Q 2766 1069 2766 1631 
L 2766 1759 
L 2194 1759 
z
M 3341 1997 
L 3341 0 
L 2766 0 
L 2766 531 
Q 2569 213 2275 61 
Q 1981 -91 1556 -91 
Q 1019 -91 701 211 
Q 384 513 384 1019 
Q 384 1609 779 1909 
Q 1175 2209 1959 2209 
L 2766 2209 
L 2766 2266 
Q 2766 2663 2505 2880 
Q 2244 3097 1772 3097 
Q 1472 3097 1187 3025 
Q 903 2953 641 2809 
L 641 3341 
Q 956 3463 1253 3523 
Q 1550 3584 1831 3584 
Q 2591 3584 2966 3190 
Q 3341 2797 3341 1997 
z
" transform="scale(0.015625)"/>
        <path id="DejaVuSans-6e" d="M 3513 2113 
L 3513 0 
L 2938 0 
L 2938 2094 
Q 2938 2591 2744 2837 
Q 2550 3084 2163 3084 
Q 1697 3084 1428 2787 
Q 1159 2491 1159 1978 
L 1159 0 
L 581 0 
L 581 3500 
L 1159 3500 
L 1159 2956 
Q 1366 3272 1645 3428 
Q 1925 3584 2291 3584 
Q 2894 3584 3203 3211 
Q 3513 2838 3513 2113 
z
" transform="scale(0.015625)"/>
       </defs>
       <use xlink:href="#DejaVuSans-32"/>
       <use xlink:href="#DejaVuSans-30" x="63.623047"/>
       <use xlink:href="#DejaVuSans-32" x="127.246094"/>
       <use xlink:href="#DejaVuSans-31" x="190.869141"/>
       <use xlink:href="#DejaVuSans-2d" x="254.492188"/>
       <use xlink:href="#DejaVuSans-4a" x="296.201172"/>
       <use xlink:href="#DejaVuSans-61" x="325.693359"/>
       <use xlink:href="#DejaVuSans-6e" x="386.972656"/>
       <use xlink:href="#DejaVuSans-2d" x="450.351562"/>
       <use xlink:href="#DejaVuSans-30" x="486.435547"/>
       <use xlink:href="#DejaVuSans-31" x="550.058594"/>
      </g>
     </g>
    </g>
    <g id="xtick_4">
     <g id="line2d_4">
      <g>
       <use xlink:href="#me945a4cad7" x="150.808208" y="194.725312" style="stroke: #000000; stroke-width: 0.8"/>
      </g>
     </g>
     <g id="text_4">
      <!-- 2021-Feb-01 -->
      <g transform="translate(95.127574 239.852627)rotate(-30)scale(0.1 -0.1)">
       <defs>
        <path id="DejaVuSans-46" d="M 628 4666 
L 3309 4666 
L 3309 4134 
L 1259 4134 
L 1259 2759 
L 3109 2759 
L 3109 2228 
L 1259 2228 
L 1259 0 
L 628 0 
L 628 4666 
z
" transform="scale(0.015625)"/>
        <path id="DejaVuSans-62" d="M 3116 1747 
Q 3116 2381 2855 2742 
Q 2594 3103 2138 3103 
Q 1681 3103 1420 2742 
Q 1159 2381 1159 1747 
Q 1159 1113 1420 752 
Q 1681 391 2138 391 
Q 2594 391 2855 752 
Q 3116 1113 3116 1747 
z
M 1159 2969 
Q 1341 3281 1617 3432 
Q 1894 3584 2278 3584 
Q 2916 3584 3314 3078 
Q 3713 2572 3713 1747 
Q 3713 922 3314 415 
Q 2916 -91 2278 -91 
Q 1894 -91 1617 61 
Q 1341 213 1159 525 
L 1159 0 
L 581 0 
L 581 4863 
L 1159 4863 
L 1159 2969 
z
" transform="scale(0.015625)"/>
       </defs>
       <use xlink:href="#DejaVuSans-32"/>
       <use xlink:href="#DejaVuSans-30" x="63.623047"/>
       <use xlink:href="#DejaVuSans-32" x="127.246094"/>
       <use xlink:href="#DejaVuSans-31" x="190.869141"/>
       <use xlink:href="#DejaVuSans-2d" x="254.492188"/>
       <use xlink:href="#DejaVuSans-46" x="290.576172"/>
       <use xlink:href="#DejaVuSans-65" x="342.595703"/>
       <use xlink:href="#DejaVuSans-62" x="404.119141"/>
       <use xlink:href="#DejaVuSans-2d" x="467.595703"/>
       <use xlink:href="#DejaVuSans-30" x="503.679688"/>
       <use xlink:href="#DejaVuSans-31" x="567.302734"/>
      </g>
     </g>
    </g>
    <g id="xtick_5">
     <g id="line2d_5">
      <g>
       <use xlink:href="#me945a4cad7" x="176.003129" y="194.725312" style="stroke: #000000; stroke-width: 0.8"/>
      </g>
     </g>
     <g id="text_5">
      <!-- 2021-Mar-01 -->
      <g transform="translate(119.866478 240.115909)rotate(-30)scale(0.1 -0.1)">
       <defs>
        <path id="DejaVuSans-4d" d="M 628 4666 
L 1569 4666 
L 2759 1491 
L 3956 4666 
L 4897 4666 
L 4897 0 
L 4281 0 
L 4281 4097 
L 3078 897 
L 2444 897 
L 1241 4097 
L 1241 0 
L 628 0 
L 628 4666 
z
" transform="scale(0.015625)"/>
        <path id="DejaVuSans-72" d="M 2631 2963 
Q 2534 3019 2420 3045 
Q 2306 3072 2169 3072 
Q 1681 3072 1420 2755 
Q 1159 2438 1159 1844 
L 1159 0 
L 581 0 
L 581 3500 
L 1159 3500 
L 1159 2956 
Q 1341 3275 1631 3429 
Q 1922 3584 2338 3584 
Q 2397 3584 2469 3576 
Q 2541 3569 2628 3553 
L 2631 2963 
z
" transform="scale(0.015625)"/>
       </defs>
       <use xlink:href="#DejaVuSans-32"/>
       <use xlink:href="#DejaVuSans-30" x="63.623047"/>
       <use xlink:href="#DejaVuSans-32" x="127.246094"/>
       <use xlink:href="#DejaVuSans-31" x="190.869141"/>
       <use xlink:href="#DejaVuSans-2d" x="254.492188"/>
       <use xlink:href="#DejaVuSans-4d" x="290.576172"/>
       <use xlink:href="#DejaVuSans-61" x="376.855469"/>
       <use xlink:href="#DejaVuSans-72" x="438.134766"/>
       <use xlink:href="#DejaVuSans-2d" x="472.873047"/>
       <use xlink:href="#DejaVuSans-30" x="508.957031"/>
       <use xlink:href="#DejaVuSans-31" x="572.580078"/>
      </g>
     </g>
    </g>
    <g id="xtick_6">
     <g id="line2d_6">
      <g>
       <use xlink:href="#me945a4cad7" x="203.897505" y="194.725312" style="stroke: #000000; stroke-width: 0.8"/>
      </g>
     </g>
     <g id="text_6">
      <!-- 2021-Apr-01 -->
      <g transform="translate(149.312934 239.219815)rotate(-30)scale(0.1 -0.1)">
       <defs>
        <path id="DejaVuSans-41" d="M 2188 4044 
L 1331 1722 
L 3047 1722 
L 2188 4044 
z
M 1831 4666 
L 2547 4666 
L 4325 0 
L 3669 0 
L 3244 1197 
L 1141 1197 
L 716 0 
L 50 0 
L 1831 4666 
z
" transform="scale(0.015625)"/>
        <path id="DejaVuSans-70" d="M 1159 525 
L 1159 -1331 
L 581 -1331 
L 581 3500 
L 1159 3500 
L 1159 2969 
Q 1341 3281 1617 3432 
Q 1894 3584 2278 3584 
Q 2916 3584 3314 3078 
Q 3713 2572 3713 1747 
Q 3713 922 3314 415 
Q 2916 -91 2278 -91 
Q 1894 -91 1617 61 
Q 1341 213 1159 525 
z
M 3116 1747 
Q 3116 2381 2855 2742 
Q 2594 3103 2138 3103 
Q 1681 3103 1420 2742 
Q 1159 2381 1159 1747 
Q 1159 1113 1420 752 
Q 1681 391 2138 391 
Q 2594 391 2855 752 
Q 3116 1113 3116 1747 
z
" transform="scale(0.015625)"/>
       </defs>
       <use xlink:href="#DejaVuSans-32"/>
       <use xlink:href="#DejaVuSans-30" x="63.623047"/>
       <use xlink:href="#DejaVuSans-32" x="127.246094"/>
       <use xlink:href="#DejaVuSans-31" x="190.869141"/>
       <use xlink:href="#DejaVuSans-2d" x="254.492188"/>
       <use xlink:href="#DejaVuSans-41" x="288.326172"/>
       <use xlink:href="#DejaVuSans-70" x="356.734375"/>
       <use xlink:href="#DejaVuSans-72" x="420.210938"/>
       <use xlink:href="#DejaVuSans-2d" x="454.949219"/>
       <use xlink:href="#DejaVuSans-30" x="491.033203"/>
       <use xlink:href="#DejaVuSans-31" x="554.65625"/>
      </g>
     </g>
    </g>
    <g id="xtick_7">
     <g id="line2d_7">
      <g>
       <use xlink:href="#me945a4cad7" x="230.892062" y="194.725312" style="stroke: #000000; stroke-width: 0.8"/>
      </g>
     </g>
     <g id="text_7">
      <!-- 2021-May-01 -->
      <g transform="translate(172.789264 241.251065)rotate(-30)scale(0.1 -0.1)">
       <defs>
        <path id="DejaVuSans-79" d="M 2059 -325 
Q 1816 -950 1584 -1140 
Q 1353 -1331 966 -1331 
L 506 -1331 
L 506 -850 
L 844 -850 
Q 1081 -850 1212 -737 
Q 1344 -625 1503 -206 
L 1606 56 
L 191 3500 
L 800 3500 
L 1894 763 
L 2988 3500 
L 3597 3500 
L 2059 -325 
z
" transform="scale(0.015625)"/>
       </defs>
       <use xlink:href="#DejaVuSans-32"/>
       <use xlink:href="#DejaVuSans-30" x="63.623047"/>
       <use xlink:href="#DejaVuSans-32" x="127.246094"/>
       <use xlink:href="#DejaVuSans-31" x="190.869141"/>
       <use xlink:href="#DejaVuSans-2d" x="254.492188"/>
       <use xlink:href="#DejaVuSans-4d" x="290.576172"/>
       <use xlink:href="#DejaVuSans-61" x="376.855469"/>
       <use xlink:href="#DejaVuSans-79" x="438.134766"/>
       <use xlink:href="#DejaVuSans-2d" x="495.564453"/>
       <use xlink:href="#DejaVuSans-30" x="531.648438"/>
       <use xlink:href="#DejaVuSans-31" x="595.271484"/>
      </g>
     </g>
    </g>
    <g id="xtick_8">
     <g id="line2d_8">
      <g>
       <use xlink:href="#me945a4cad7" x="258.786439" y="194.725312" style="stroke: #000000; stroke-width: 0.8"/>
      </g>
     </g>
     <g id="text_8">
      <!-- 2021-Jun-01 -->
      <g transform="translate(204.418374 239.094815)rotate(-30)scale(0.1 -0.1)">
       <defs>
        <path id="DejaVuSans-75" d="M 544 1381 
L 544 3500 
L 1119 3500 
L 1119 1403 
Q 1119 906 1312 657 
Q 1506 409 1894 409 
Q 2359 409 2629 706 
Q 2900 1003 2900 1516 
L 2900 3500 
L 3475 3500 
L 3475 0 
L 2900 0 
L 2900 538 
Q 2691 219 2414 64 
Q 2138 -91 1772 -91 
Q 1169 -91 856 284 
Q 544 659 544 1381 
z
M 1991 3584 
L 1991 3584 
z
" transform="scale(0.015625)"/>
       </defs>
       <use xlink:href="#DejaVuSans-32"/>
       <use xlink:href="#DejaVuSans-30" x="63.623047"/>
       <use xlink:href="#DejaVuSans-32" x="127.246094"/>
       <use xlink:href="#DejaVuSans-31" x="190.869141"/>
       <use xlink:href="#DejaVuSans-2d" x="254.492188"/>
       <use xlink:href="#DejaVuSans-4a" x="296.201172"/>
       <use xlink:href="#DejaVuSans-75" x="325.693359"/>
       <use xlink:href="#DejaVuSans-6e" x="389.072266"/>
       <use xlink:href="#DejaVuSans-2d" x="452.451172"/>
       <use xlink:href="#DejaVuSans-30" x="488.535156"/>
       <use xlink:href="#DejaVuSans-31" x="552.158203"/>
      </g>
     </g>
    </g>
    <g id="xtick_9">
     <g id="line2d_9">
      <g>
       <use xlink:href="#me945a4cad7" x="285.780996" y="194.725312" style="stroke: #000000; stroke-width: 0.8"/>
      </g>
     </g>
     <g id="text_9">
      <!-- 2021-Jul-01 -->
      <g transform="translate(234.495441 237.315127)rotate(-30)scale(0.1 -0.1)">
       <defs>
        <path id="DejaVuSans-6c" d="M 603 4863 
L 1178 4863 
L 1178 0 
L 603 0 
L 603 4863 
z
" transform="scale(0.015625)"/>
       </defs>
       <use xlink:href="#DejaVuSans-32"/>
       <use xlink:href="#DejaVuSans-30" x="63.623047"/>
       <use xlink:href="#DejaVuSans-32" x="127.246094"/>
       <use xlink:href="#DejaVuSans-31" x="190.869141"/>
       <use xlink:href="#DejaVuSans-2d" x="254.492188"/>
       <use xlink:href="#DejaVuSans-4a" x="296.201172"/>
       <use xlink:href="#DejaVuSans-75" x="325.693359"/>
       <use xlink:href="#DejaVuSans-6c" x="389.072266"/>
       <use xlink:href="#DejaVuSans-2d" x="416.855469"/>
       <use xlink:href="#DejaVuSans-30" x="452.939453"/>
       <use xlink:href="#DejaVuSans-31" x="516.5625"/>
      </g>
     </g>
    </g>
    <g id="xtick_10">
     <g id="line2d_10">
      <g>
       <use xlink:href="#me945a4cad7" x="313.675372" y="194.725312" style="stroke: #000000; stroke-width: 0.8"/>
      </g>
     </g>
     <g id="text_10">
      <!-- 2021-Aug-01 -->
      <g transform="translate(256.610451 240.651846)rotate(-30)scale(0.1 -0.1)">
       <defs>
        <path id="DejaVuSans-67" d="M 2906 1791 
Q 2906 2416 2648 2759 
Q 2391 3103 1925 3103 
Q 1463 3103 1205 2759 
Q 947 2416 947 1791 
Q 947 1169 1205 825 
Q 1463 481 1925 481 
Q 2391 481 2648 825 
Q 2906 1169 2906 1791 
z
M 3481 434 
Q 3481 -459 3084 -895 
Q 2688 -1331 1869 -1331 
Q 1566 -1331 1297 -1286 
Q 1028 -1241 775 -1147 
L 775 -588 
Q 1028 -725 1275 -790 
Q 1522 -856 1778 -856 
Q 2344 -856 2625 -561 
Q 2906 -266 2906 331 
L 2906 616 
Q 2728 306 2450 153 
Q 2172 0 1784 0 
Q 1141 0 747 490 
Q 353 981 353 1791 
Q 353 2603 747 3093 
Q 1141 3584 1784 3584 
Q 2172 3584 2450 3431 
Q 2728 3278 2906 2969 
L 2906 3500 
L 3481 3500 
L 3481 434 
z
" transform="scale(0.015625)"/>
       </defs>
       <use xlink:href="#DejaVuSans-32"/>
       <use xlink:href="#DejaVuSans-30" x="63.623047"/>
       <use xlink:href="#DejaVuSans-32" x="127.246094"/>
       <use xlink:href="#DejaVuSans-31" x="190.869141"/>
       <use xlink:href="#DejaVuSans-2d" x="254.492188"/>
       <use xlink:href="#DejaVuSans-41" x="288.326172"/>
       <use xlink:href="#DejaVuSans-75" x="356.734375"/>
       <use xlink:href="#DejaVuSans-67" x="420.113281"/>
       <use xlink:href="#DejaVuSans-2d" x="483.589844"/>
       <use xlink:href="#DejaVuSans-30" x="519.673828"/>
       <use xlink:href="#DejaVuSans-31" x="583.296875"/>
      </g>
     </g>
    </g>
    <g id="xtick_11">
     <g id="line2d_11">
      <g>
       <use xlink:href="#me945a4cad7" x="341.569748" y="194.725312" style="stroke: #000000; stroke-width: 0.8"/>
      </g>
     </g>
     <g id="text_11">
      <!-- 2021-Sep-01 -->
      <g transform="translate(284.895891 240.426065)rotate(-30)scale(0.1 -0.1)">
       <defs>
        <path id="DejaVuSans-53" d="M 3425 4513 
L 3425 3897 
Q 3066 4069 2747 4153 
Q 2428 4238 2131 4238 
Q 1616 4238 1336 4038 
Q 1056 3838 1056 3469 
Q 1056 3159 1242 3001 
Q 1428 2844 1947 2747 
L 2328 2669 
Q 3034 2534 3370 2195 
Q 3706 1856 3706 1288 
Q 3706 609 3251 259 
Q 2797 -91 1919 -91 
Q 1588 -91 1214 -16 
Q 841 59 441 206 
L 441 856 
Q 825 641 1194 531 
Q 1563 422 1919 422 
Q 2459 422 2753 634 
Q 3047 847 3047 1241 
Q 3047 1584 2836 1778 
Q 2625 1972 2144 2069 
L 1759 2144 
Q 1053 2284 737 2584 
Q 422 2884 422 3419 
Q 422 4038 858 4394 
Q 1294 4750 2059 4750 
Q 2388 4750 2728 4690 
Q 3069 4631 3425 4513 
z
" transform="scale(0.015625)"/>
       </defs>
       <use xlink:href="#DejaVuSans-32"/>
       <use xlink:href="#DejaVuSans-30" x="63.623047"/>
       <use xlink:href="#DejaVuSans-32" x="127.246094"/>
       <use xlink:href="#DejaVuSans-31" x="190.869141"/>
       <use xlink:href="#DejaVuSans-2d" x="254.492188"/>
       <use xlink:href="#DejaVuSans-53" x="290.576172"/>
       <use xlink:href="#DejaVuSans-65" x="354.052734"/>
       <use xlink:href="#DejaVuSans-70" x="415.576172"/>
       <use xlink:href="#DejaVuSans-2d" x="479.052734"/>
       <use xlink:href="#DejaVuSans-30" x="515.136719"/>
       <use xlink:href="#DejaVuSans-31" x="578.759766"/>
      </g>
     </g>
    </g>
    <g id="xtick_12">
     <g id="line2d_12">
      <g>
       <use xlink:href="#me945a4cad7" x="368.564306" y="194.725312" style="stroke: #000000; stroke-width: 0.8"/>
      </g>
     </g>
     <g id="text_12">
      <!-- 2021-Oct-01 -->
      <g transform="translate(313.00275 239.783877)rotate(-30)scale(0.1 -0.1)">
       <defs>
        <path id="DejaVuSans-4f" d="M 2522 4238 
Q 1834 4238 1429 3725 
Q 1025 3213 1025 2328 
Q 1025 1447 1429 934 
Q 1834 422 2522 422 
Q 3209 422 3611 934 
Q 4013 1447 4013 2328 
Q 4013 3213 3611 3725 
Q 3209 4238 2522 4238 
z
M 2522 4750 
Q 3503 4750 4090 4092 
Q 4678 3434 4678 2328 
Q 4678 1225 4090 567 
Q 3503 -91 2522 -91 
Q 1538 -91 948 565 
Q 359 1222 359 2328 
Q 359 3434 948 4092 
Q 1538 4750 2522 4750 
z
" transform="scale(0.015625)"/>
        <path id="DejaVuSans-74" d="M 1172 4494 
L 1172 3500 
L 2356 3500 
L 2356 3053 
L 1172 3053 
L 1172 1153 
Q 1172 725 1289 603 
Q 1406 481 1766 481 
L 2356 481 
L 2356 0 
L 1766 0 
Q 1100 0 847 248 
Q 594 497 594 1153 
L 594 3053 
L 172 3053 
L 172 3500 
L 594 3500 
L 594 4494 
L 1172 4494 
z
" transform="scale(0.015625)"/>
       </defs>
       <use xlink:href="#DejaVuSans-32"/>
       <use xlink:href="#DejaVuSans-30" x="63.623047"/>
       <use xlink:href="#DejaVuSans-32" x="127.246094"/>
       <use xlink:href="#DejaVuSans-31" x="190.869141"/>
       <use xlink:href="#DejaVuSans-2d" x="254.492188"/>
       <use xlink:href="#DejaVuSans-4f" x="293.326172"/>
       <use xlink:href="#DejaVuSans-63" x="372.037109"/>
       <use xlink:href="#DejaVuSans-74" x="427.017578"/>
       <use xlink:href="#DejaVuSans-2d" x="466.226562"/>
       <use xlink:href="#DejaVuSans-30" x="502.310547"/>
       <use xlink:href="#DejaVuSans-31" x="565.933594"/>
      </g>
     </g>
    </g>
    <g id="xtick_13">
     <g id="line2d_13">
      <g>
       <use xlink:href="#me945a4cad7" x="396.458682" y="194.725312" style="stroke: #000000; stroke-width: 0.8"/>
      </g>
     </g>
     <g id="text_13">
      <!-- 2021-Nov-01 -->
      <g transform="translate(339.433002 240.62919)rotate(-30)scale(0.1 -0.1)">
       <use xlink:href="#DejaVuSans-32"/>
       <use xlink:href="#DejaVuSans-30" x="63.623047"/>
       <use xlink:href="#DejaVuSans-32" x="127.246094"/>
       <use xlink:href="#DejaVuSans-31" x="190.869141"/>
       <use xlink:href="#DejaVuSans-2d" x="254.492188"/>
       <use xlink:href="#DejaVuSans-4e" x="290.576172"/>
       <use xlink:href="#DejaVuSans-6f" x="365.380859"/>
       <use xlink:href="#DejaVuSans-76" x="426.5625"/>
       <use xlink:href="#DejaVuSans-2d" x="483.117188"/>
       <use xlink:href="#DejaVuSans-30" x="519.201172"/>
       <use xlink:href="#DejaVuSans-31" x="582.824219"/>
      </g>
     </g>
    </g>
    <g id="xtick_14">
     <g id="line2d_14">
      <g>
       <use xlink:href="#me945a4cad7" x="423.45324" y="194.725312" style="stroke: #000000; stroke-width: 0.8"/>
      </g>
     </g>
     <g id="text_14">
      <!-- 2021-Dec-01 -->
      <g transform="translate(366.345017 240.676846)rotate(-30)scale(0.1 -0.1)">
       <use xlink:href="#DejaVuSans-32"/>
       <use xlink:href="#DejaVuSans-30" x="63.623047"/>
       <use xlink:href="#DejaVuSans-32" x="127.246094"/>
       <use xlink:href="#DejaVuSans-31" x="190.869141"/>
       <use xlink:href="#DejaVuSans-2d" x="254.492188"/>
       <use xlink:href="#DejaVuSans-44" x="290.576172"/>
       <use xlink:href="#DejaVuSans-65" x="367.578125"/>
       <use xlink:href="#DejaVuSans-63" x="429.101562"/>
       <use xlink:href="#DejaVuSans-2d" x="484.082031"/>
       <use xlink:href="#DejaVuSans-30" x="520.166016"/>
       <use xlink:href="#DejaVuSans-31" x="583.789062"/>
      </g>
     </g>
    </g>
    <g id="xtick_15">
     <g id="line2d_15">
      <g>
       <use xlink:href="#me945a4cad7" x="451.347616" y="194.725312" style="stroke: #000000; stroke-width: 0.8"/>
      </g>
     </g>
     <g id="text_15">
      <!-- 2022-Jan-01 -->
      <g transform="translate(397.160875 238.990127)rotate(-30)scale(0.1 -0.1)">
       <use xlink:href="#DejaVuSans-32"/>
       <use xlink:href="#DejaVuSans-30" x="63.623047"/>
       <use xlink:href="#DejaVuSans-32" x="127.246094"/>
       <use xlink:href="#DejaVuSans-32" x="190.869141"/>
       <use xlink:href="#DejaVuSans-2d" x="254.492188"/>
       <use xlink:href="#DejaVuSans-4a" x="296.201172"/>
       <use xlink:href="#DejaVuSans-61" x="325.693359"/>
       <use xlink:href="#DejaVuSans-6e" x="386.972656"/>
       <use xlink:href="#DejaVuSans-2d" x="450.351562"/>
       <use xlink:href="#DejaVuSans-30" x="486.435547"/>
       <use xlink:href="#DejaVuSans-31" x="550.058594"/>
      </g>
     </g>
    </g>
    <g id="xtick_16">
     <g id="line2d_16">
      <g>
       <use xlink:href="#me945a4cad7" x="479.241992" y="194.725312" style="stroke: #000000; stroke-width: 0.8"/>
      </g>
     </g>
     <g id="text_16">
      <!-- 2022-Feb-01 -->
      <g transform="translate(423.561358 239.852627)rotate(-30)scale(0.1 -0.1)">
       <use xlink:href="#DejaVuSans-32"/>
       <use xlink:href="#DejaVuSans-30" x="63.623047"/>
       <use xlink:href="#DejaVuSans-32" x="127.246094"/>
       <use xlink:href="#DejaVuSans-32" x="190.869141"/>
       <use xlink:href="#DejaVuSans-2d" x="254.492188"/>
       <use xlink:href="#DejaVuSans-46" x="290.576172"/>
       <use xlink:href="#DejaVuSans-65" x="342.595703"/>
       <use xlink:href="#DejaVuSans-62" x="404.119141"/>
       <use xlink:href="#DejaVuSans-2d" x="467.595703"/>
       <use xlink:href="#DejaVuSans-30" x="503.679688"/>
       <use xlink:href="#DejaVuSans-31" x="567.302734"/>
      </g>
     </g>
    </g>
   </g>
   <g id="matplotlib.axis_2">
    <g id="ytick_1">
     <g id="line2d_17">
      <path d="M 53.132901 187.041361 
L 499.532901 187.041361 
" clip-path="url(#p32dfcfb603)" style="fill: none; stroke: #b0b0b0; stroke-width: 0.8; stroke-linecap: square"/>
     </g>
     <g id="line2d_18">
      <defs>
       <path id="m6a75f8f772" d="M 0 0 
L -3.5 0 
" style="stroke: #000000; stroke-width: 0.8"/>
      </defs>
      <g>
       <use xlink:href="#m6a75f8f772" x="53.132901" y="187.041361" style="stroke: #000000; stroke-width: 0.8"/>
      </g>
     </g>
     <g id="text_17">
      <!-- 0 -->
      <g transform="translate(39.770401 190.84058)scale(0.1 -0.1)">
       <use xlink:href="#DejaVuSans-30"/>
      </g>
     </g>
    </g>
    <g id="ytick_2">
     <g id="line2d_19">
      <path d="M 53.132901 151.233768 
L 499.532901 151.233768 
" clip-path="url(#p32dfcfb603)" style="fill: none; stroke: #b0b0b0; stroke-width: 0.8; stroke-linecap: square"/>
     </g>
     <g id="line2d_20">
      <g>
       <use xlink:href="#m6a75f8f772" x="53.132901" y="151.233768" style="stroke: #000000; stroke-width: 0.8"/>
      </g>
     </g>
     <g id="text_18">
      <!-- 20 -->
      <g transform="translate(33.407901 155.032986)scale(0.1 -0.1)">
       <use xlink:href="#DejaVuSans-32"/>
       <use xlink:href="#DejaVuSans-30" x="63.623047"/>
      </g>
     </g>
    </g>
    <g id="ytick_3">
     <g id="line2d_21">
      <path d="M 53.132901 115.426174 
L 499.532901 115.426174 
" clip-path="url(#p32dfcfb603)" style="fill: none; stroke: #b0b0b0; stroke-width: 0.8; stroke-linecap: square"/>
     </g>
     <g id="line2d_22">
      <g>
       <use xlink:href="#m6a75f8f772" x="53.132901" y="115.426174" style="stroke: #000000; stroke-width: 0.8"/>
      </g>
     </g>
     <g id="text_19">
      <!-- 40 -->
      <g transform="translate(33.407901 119.225393)scale(0.1 -0.1)">
       <defs>
        <path id="DejaVuSans-34" d="M 2419 4116 
L 825 1625 
L 2419 1625 
L 2419 4116 
z
M 2253 4666 
L 3047 4666 
L 3047 1625 
L 3713 1625 
L 3713 1100 
L 3047 1100 
L 3047 0 
L 2419 0 
L 2419 1100 
L 313 1100 
L 313 1709 
L 2253 4666 
z
" transform="scale(0.015625)"/>
       </defs>
       <use xlink:href="#DejaVuSans-34"/>
       <use xlink:href="#DejaVuSans-30" x="63.623047"/>
      </g>
     </g>
    </g>
    <g id="ytick_4">
     <g id="line2d_23">
      <path d="M 53.132901 79.61858 
L 499.532901 79.61858 
" clip-path="url(#p32dfcfb603)" style="fill: none; stroke: #b0b0b0; stroke-width: 0.8; stroke-linecap: square"/>
     </g>
     <g id="line2d_24">
      <g>
       <use xlink:href="#m6a75f8f772" x="53.132901" y="79.61858" style="stroke: #000000; stroke-width: 0.8"/>
      </g>
     </g>
     <g id="text_20">
      <!-- 60 -->
      <g transform="translate(33.407901 83.417799)scale(0.1 -0.1)">
       <defs>
        <path id="DejaVuSans-36" d="M 2113 2584 
Q 1688 2584 1439 2293 
Q 1191 2003 1191 1497 
Q 1191 994 1439 701 
Q 1688 409 2113 409 
Q 2538 409 2786 701 
Q 3034 994 3034 1497 
Q 3034 2003 2786 2293 
Q 2538 2584 2113 2584 
z
M 3366 4563 
L 3366 3988 
Q 3128 4100 2886 4159 
Q 2644 4219 2406 4219 
Q 1781 4219 1451 3797 
Q 1122 3375 1075 2522 
Q 1259 2794 1537 2939 
Q 1816 3084 2150 3084 
Q 2853 3084 3261 2657 
Q 3669 2231 3669 1497 
Q 3669 778 3244 343 
Q 2819 -91 2113 -91 
Q 1303 -91 875 529 
Q 447 1150 447 2328 
Q 447 3434 972 4092 
Q 1497 4750 2381 4750 
Q 2619 4750 2861 4703 
Q 3103 4656 3366 4563 
z
" transform="scale(0.015625)"/>
       </defs>
       <use xlink:href="#DejaVuSans-36"/>
       <use xlink:href="#DejaVuSans-30" x="63.623047"/>
      </g>
     </g>
    </g>
    <g id="ytick_5">
     <g id="line2d_25">
      <path d="M 53.132901 43.810986 
L 499.532901 43.810986 
" clip-path="url(#p32dfcfb603)" style="fill: none; stroke: #b0b0b0; stroke-width: 0.8; stroke-linecap: square"/>
     </g>
     <g id="line2d_26">
      <g>
       <use xlink:href="#m6a75f8f772" x="53.132901" y="43.810986" style="stroke: #000000; stroke-width: 0.8"/>
      </g>
     </g>
     <g id="text_21">
      <!-- 80 -->
      <g transform="translate(33.407901 47.610205)scale(0.1 -0.1)">
       <defs>
        <path id="DejaVuSans-38" d="M 2034 2216 
Q 1584 2216 1326 1975 
Q 1069 1734 1069 1313 
Q 1069 891 1326 650 
Q 1584 409 2034 409 
Q 2484 409 2743 651 
Q 3003 894 3003 1313 
Q 3003 1734 2745 1975 
Q 2488 2216 2034 2216 
z
M 1403 2484 
Q 997 2584 770 2862 
Q 544 3141 544 3541 
Q 544 4100 942 4425 
Q 1341 4750 2034 4750 
Q 2731 4750 3128 4425 
Q 3525 4100 3525 3541 
Q 3525 3141 3298 2862 
Q 3072 2584 2669 2484 
Q 3125 2378 3379 2068 
Q 3634 1759 3634 1313 
Q 3634 634 3220 271 
Q 2806 -91 2034 -91 
Q 1263 -91 848 271 
Q 434 634 434 1313 
Q 434 1759 690 2068 
Q 947 2378 1403 2484 
z
M 1172 3481 
Q 1172 3119 1398 2916 
Q 1625 2713 2034 2713 
Q 2441 2713 2670 2916 
Q 2900 3119 2900 3481 
Q 2900 3844 2670 4047 
Q 2441 4250 2034 4250 
Q 1625 4250 1398 4047 
Q 1172 3844 1172 3481 
z
" transform="scale(0.015625)"/>
       </defs>
       <use xlink:href="#DejaVuSans-38"/>
       <use xlink:href="#DejaVuSans-30" x="63.623047"/>
      </g>
     </g>
    </g>
    <g id="text_22">
     <!-- Percentage Of directives present in CSPs -->
     <g transform="translate(27.328213 210.890625)rotate(-90)scale(0.1 -0.1)">
      <defs>
       <path id="DejaVuSans-50" d="M 1259 4147 
L 1259 2394 
L 2053 2394 
Q 2494 2394 2734 2622 
Q 2975 2850 2975 3272 
Q 2975 3691 2734 3919 
Q 2494 4147 2053 4147 
L 1259 4147 
z
M 628 4666 
L 2053 4666 
Q 2838 4666 3239 4311 
Q 3641 3956 3641 3272 
Q 3641 2581 3239 2228 
Q 2838 1875 2053 1875 
L 1259 1875 
L 1259 0 
L 628 0 
L 628 4666 
z
" transform="scale(0.015625)"/>
       <path id="DejaVuSans-20" transform="scale(0.015625)"/>
       <path id="DejaVuSans-66" d="M 2375 4863 
L 2375 4384 
L 1825 4384 
Q 1516 4384 1395 4259 
Q 1275 4134 1275 3809 
L 1275 3500 
L 2222 3500 
L 2222 3053 
L 1275 3053 
L 1275 0 
L 697 0 
L 697 3053 
L 147 3053 
L 147 3500 
L 697 3500 
L 697 3744 
Q 697 4328 969 4595 
Q 1241 4863 1831 4863 
L 2375 4863 
z
" transform="scale(0.015625)"/>
       <path id="DejaVuSans-64" d="M 2906 2969 
L 2906 4863 
L 3481 4863 
L 3481 0 
L 2906 0 
L 2906 525 
Q 2725 213 2448 61 
Q 2172 -91 1784 -91 
Q 1150 -91 751 415 
Q 353 922 353 1747 
Q 353 2572 751 3078 
Q 1150 3584 1784 3584 
Q 2172 3584 2448 3432 
Q 2725 3281 2906 2969 
z
M 947 1747 
Q 947 1113 1208 752 
Q 1469 391 1925 391 
Q 2381 391 2643 752 
Q 2906 1113 2906 1747 
Q 2906 2381 2643 2742 
Q 2381 3103 1925 3103 
Q 1469 3103 1208 2742 
Q 947 2381 947 1747 
z
" transform="scale(0.015625)"/>
       <path id="DejaVuSans-69" d="M 603 3500 
L 1178 3500 
L 1178 0 
L 603 0 
L 603 3500 
z
M 603 4863 
L 1178 4863 
L 1178 4134 
L 603 4134 
L 603 4863 
z
" transform="scale(0.015625)"/>
       <path id="DejaVuSans-73" d="M 2834 3397 
L 2834 2853 
Q 2591 2978 2328 3040 
Q 2066 3103 1784 3103 
Q 1356 3103 1142 2972 
Q 928 2841 928 2578 
Q 928 2378 1081 2264 
Q 1234 2150 1697 2047 
L 1894 2003 
Q 2506 1872 2764 1633 
Q 3022 1394 3022 966 
Q 3022 478 2636 193 
Q 2250 -91 1575 -91 
Q 1294 -91 989 -36 
Q 684 19 347 128 
L 347 722 
Q 666 556 975 473 
Q 1284 391 1588 391 
Q 1994 391 2212 530 
Q 2431 669 2431 922 
Q 2431 1156 2273 1281 
Q 2116 1406 1581 1522 
L 1381 1569 
Q 847 1681 609 1914 
Q 372 2147 372 2553 
Q 372 3047 722 3315 
Q 1072 3584 1716 3584 
Q 2034 3584 2315 3537 
Q 2597 3491 2834 3397 
z
" transform="scale(0.015625)"/>
       <path id="DejaVuSans-43" d="M 4122 4306 
L 4122 3641 
Q 3803 3938 3442 4084 
Q 3081 4231 2675 4231 
Q 1875 4231 1450 3742 
Q 1025 3253 1025 2328 
Q 1025 1406 1450 917 
Q 1875 428 2675 428 
Q 3081 428 3442 575 
Q 3803 722 4122 1019 
L 4122 359 
Q 3791 134 3420 21 
Q 3050 -91 2638 -91 
Q 1578 -91 968 557 
Q 359 1206 359 2328 
Q 359 3453 968 4101 
Q 1578 4750 2638 4750 
Q 3056 4750 3426 4639 
Q 3797 4528 4122 4306 
z
" transform="scale(0.015625)"/>
      </defs>
      <use xlink:href="#DejaVuSans-50"/>
      <use xlink:href="#DejaVuSans-65" x="56.677734"/>
      <use xlink:href="#DejaVuSans-72" x="118.201172"/>
      <use xlink:href="#DejaVuSans-63" x="157.064453"/>
      <use xlink:href="#DejaVuSans-65" x="212.044922"/>
      <use xlink:href="#DejaVuSans-6e" x="273.568359"/>
      <use xlink:href="#DejaVuSans-74" x="336.947266"/>
      <use xlink:href="#DejaVuSans-61" x="376.15625"/>
      <use xlink:href="#DejaVuSans-67" x="437.435547"/>
      <use xlink:href="#DejaVuSans-65" x="500.912109"/>
      <use xlink:href="#DejaVuSans-20" x="562.435547"/>
      <use xlink:href="#DejaVuSans-4f" x="594.222656"/>
      <use xlink:href="#DejaVuSans-66" x="672.933594"/>
      <use xlink:href="#DejaVuSans-20" x="708.138672"/>
      <use xlink:href="#DejaVuSans-64" x="739.925781"/>
      <use xlink:href="#DejaVuSans-69" x="803.402344"/>
      <use xlink:href="#DejaVuSans-72" x="831.185547"/>
      <use xlink:href="#DejaVuSans-65" x="870.048828"/>
      <use xlink:href="#DejaVuSans-63" x="931.572266"/>
      <use xlink:href="#DejaVuSans-74" x="986.552734"/>
      <use xlink:href="#DejaVuSans-69" x="1025.761719"/>
      <use xlink:href="#DejaVuSans-76" x="1053.544922"/>
      <use xlink:href="#DejaVuSans-65" x="1112.724609"/>
      <use xlink:href="#DejaVuSans-73" x="1174.248047"/>
      <use xlink:href="#DejaVuSans-20" x="1226.347656"/>
      <use xlink:href="#DejaVuSans-70" x="1258.134766"/>
      <use xlink:href="#DejaVuSans-72" x="1321.611328"/>
      <use xlink:href="#DejaVuSans-65" x="1360.474609"/>
      <use xlink:href="#DejaVuSans-73" x="1421.998047"/>
      <use xlink:href="#DejaVuSans-65" x="1474.097656"/>
      <use xlink:href="#DejaVuSans-6e" x="1535.621094"/>
      <use xlink:href="#DejaVuSans-74" x="1599"/>
      <use xlink:href="#DejaVuSans-20" x="1638.208984"/>
      <use xlink:href="#DejaVuSans-69" x="1669.996094"/>
      <use xlink:href="#DejaVuSans-6e" x="1697.779297"/>
      <use xlink:href="#DejaVuSans-20" x="1761.158203"/>
      <use xlink:href="#DejaVuSans-43" x="1792.945312"/>
      <use xlink:href="#DejaVuSans-53" x="1862.769531"/>
      <use xlink:href="#DejaVuSans-50" x="1926.246094"/>
      <use xlink:href="#DejaVuSans-73" x="1984.798828"/>
     </g>
    </g>
   </g>
   <g id="line2d_27">
    <path d="M 73.42381 38.469453 
L 74.323629 38.51408 
L 76.123266 38.34634 
L 77.023084 38.061774 
L 78.822722 38.021365 
L 79.72254 38.13136 
L 81.522177 38.015061 
L 82.421996 38.228437 
L 83.321814 38.103483 
L 86.921089 38.282624 
L 89.620545 38.161868 
L 90.520363 38.359101 
L 92.32 38.052574 
L 95.019456 38.290547 
L 96.819093 37.977892 
L 97.718912 38.100899 
L 100.418368 38.00435 
L 102.218005 38.347102 
L 104.017642 38.141082 
L 105.817279 38.358339 
L 106.717098 38.11405 
L 107.616916 38.301817 
L 108.516735 38.276286 
L 109.416553 38.0923 
L 110.316372 38.045188 
L 113.015828 38.11748 
L 114.815465 37.836455 
L 115.715284 38.00146 
L 116.615102 37.612454 
L 117.514921 37.922047 
L 118.414739 37.919049 
L 119.314558 37.734114 
L 120.214376 37.95185 
L 121.114195 37.727461 
L 122.913832 37.997528 
L 126.513107 37.959007 
L 128.312744 38.085546 
L 129.212562 38.039497 
L 130.112381 37.833229 
L 131.012199 37.947985 
L 131.912018 37.924753 
L 132.811837 38.127055 
L 135.511292 37.80094 
L 139.110567 37.693888 
L 140.010385 37.797999 
L 140.910204 37.67221 
L 153.507664 37.732314 
L 154.407483 37.928121 
L 156.20712 37.468208 
L 157.106938 37.537184 
L 158.006757 37.761129 
L 166.105124 38.036534 
L 167.004943 37.655854 
L 167.904761 37.992626 
L 168.80458 37.780901 
L 169.704399 37.780784 
L 171.504036 37.918028 
L 173.303673 37.815262 
L 174.203492 37.491999 
L 175.10331 37.790666 
L 176.003129 37.756652 
L 176.902947 37.932515 
L 177.802766 37.806306 
L 178.702584 37.968444 
L 181.40204 37.767111 
L 182.301859 37.454738 
L 183.201677 37.718937 
L 186.800952 37.269734 
L 187.70077 37.444152 
L 188.600589 37.494544 
L 201.198049 37.597316 
L 202.997686 37.406605 
L 203.897505 37.711447 
L 204.797323 37.580689 
L 205.697142 37.735203 
L 208.396598 37.414399 
L 209.296416 37.4994 
L 210.196235 37.318229 
L 214.695328 37.341983 
L 215.595146 37.112864 
L 216.494965 37.315913 
L 218.294602 37.137046 
L 219.194421 37.292337 
L 221.893877 36.993619 
L 224.593332 37.099636 
L 225.493151 37.019418 
L 227.292788 37.072351 
L 228.192607 36.927412 
L 229.092425 37.063341 
L 233.591518 37.170318 
L 235.391155 36.983936 
L 236.290974 37.000252 
L 237.190792 36.816217 
L 240.790067 37.142094 
L 241.689885 36.987476 
L 244.389341 37.004144 
L 245.28916 37.176138 
L 246.188978 36.975172 
L 247.088797 36.929623 
L 247.988616 36.763185 
L 249.788253 36.753172 
L 251.58789 36.617893 
L 252.487708 36.91605 
L 254.287346 36.616841 
L 255.187164 36.893092 
L 256.086983 36.71381 
L 259.686257 36.907184 
L 260.586076 36.701912 
L 261.485894 36.78369 
L 262.385713 36.703522 
L 263.285531 36.761538 
L 264.18535 36.513339 
L 265.085169 36.737485 
L 265.984987 36.374661 
L 267.784624 36.573956 
L 268.684443 36.689996 
L 269.584262 36.551661 
L 270.48408 36.695679 
L 272.283717 36.303248 
L 273.183536 36.502417 
L 274.983173 36.484922 
L 275.882992 36.531334 
L 276.78281 36.393766 
L 277.682629 36.646332 
L 279.482266 36.446636 
L 283.981359 36.481078 
L 288.480452 36.13025 
L 313.675372 36.016752 
L 314.575191 36.186694 
L 315.475009 35.940525 
L 316.374828 36.076906 
L 318.174465 36.006003 
L 319.074284 35.908703 
L 321.773739 36.062918 
L 322.673558 35.794139 
L 323.573377 36.13878 
L 325.373014 35.808024 
L 326.272832 35.896126 
L 327.172651 35.708451 
L 329.872107 36.08749 
L 346.068841 36.032166 
L 346.96866 35.901632 
L 348.768297 36.003425 
L 349.668116 36.236025 
L 351.467753 36.05975 
L 352.367571 35.874624 
L 353.26739 35.884932 
L 354.167209 36.132562 
L 355.966846 35.915675 
L 357.766483 36.013105 
L 358.666301 36.010857 
L 359.56612 37.119899 
L 360.465939 37.434096 
L 361.365757 37.27468 
L 368.564306 37.14321 
L 370.363943 37.049521 
L 373.963217 37.417471 
L 378.46231 37.158818 
L 380.261948 37.370732 
L 381.161766 37.211795 
L 384.76104 37.396449 
L 385.660859 37.332385 
L 386.560678 37.061119 
L 387.460496 37.17219 
L 388.360315 37.113579 
L 389.260133 37.435045 
L 390.159952 37.257152 
L 391.059771 37.469514 
L 391.959589 37.256172 
L 392.859408 37.345574 
L 394.659045 37.158658 
L 395.558863 37.08494 
L 396.458682 37.126902 
L 397.358501 37.050972 
L 399.158138 37.485449 
L 400.057956 37.200563 
L 403.657231 37.127118 
L 404.557049 37.024881 
L 409.056142 37.076555 
L 409.955961 36.934618 
L 410.855779 36.954384 
L 411.755598 36.749244 
L 413.555235 36.782829 
L 415.354872 36.722703 
L 417.154509 36.963064 
L 418.054328 36.852167 
L 419.853965 36.889923 
L 422.553421 36.619079 
L 423.45324 36.774978 
L 424.353058 36.739839 
L 426.152695 36.418758 
L 427.052514 36.699189 
L 427.952333 36.535709 
L 428.852151 36.725778 
L 429.75197 36.759215 
L 430.651788 37.218025 
L 431.551607 37.389882 
L 432.451425 37.674937 
L 434.251063 37.49631 
L 435.150881 37.973758 
L 436.0507 38.284077 
L 437.850337 38.35123 
L 440.549793 38.279097 
L 441.449611 38.449463 
L 442.34943 38.178916 
L 443.249248 38.298341 
L 444.149067 38.214592 
L 445.048886 38.349031 
L 445.948704 38.055267 
L 446.848523 38.295728 
L 447.748341 38.178038 
L 452.247434 38.486544 
L 454.047071 38.129406 
L 454.94689 38.292066 
L 455.846709 38.592532 
L 456.746527 38.559102 
L 457.646346 38.763736 
L 458.546164 38.375556 
L 460.345802 38.767553 
L 461.24562 38.595351 
L 462.145439 38.684435 
L 463.045257 38.973246 
L 463.945076 39.031263 
L 464.844894 38.757023 
L 465.744713 38.856739 
L 467.54435 38.759734 
L 468.444169 38.833098 
L 469.343987 39.119617 
L 471.143625 38.704499 
L 472.043443 38.996215 
L 472.943262 38.738525 
L 473.84308 38.84932 
L 474.742899 38.751441 
L 475.642718 38.911727 
L 476.542536 38.642274 
L 477.442355 38.632689 
L 478.342173 38.893118 
L 479.241992 38.78173 
L 479.241992 38.78173 
" clip-path="url(#p32dfcfb603)" style="fill: none; stroke: #1f77b4; stroke-width: 1.5; stroke-linecap: square"/>
   </g>
   <g id="line2d_28">
    <path d="M 73.42381 32.863362 
L 74.323629 32.894242 
L 75.223447 32.762625 
L 76.123266 32.869199 
L 77.023084 32.729172 
L 77.922903 32.772958 
L 78.822722 33.062948 
L 79.72254 32.962447 
L 80.622359 33.006971 
L 81.522177 32.916792 
L 82.421996 33.00512 
L 84.221633 32.727976 
L 86.921089 33.069117 
L 92.32 32.659131 
L 93.219819 32.818926 
L 94.119637 32.811693 
L 95.019456 32.940969 
L 95.919275 32.731269 
L 97.718912 32.555564 
L 100.418368 32.641275 
L 101.318186 32.843951 
L 102.218005 32.923542 
L 103.117823 32.746842 
L 104.917461 32.791102 
L 106.717098 32.694132 
L 107.616916 32.836849 
L 108.516735 32.63761 
L 110.316372 32.776442 
L 112.116009 32.75656 
L 113.915646 32.953432 
L 118.414739 32.724946 
L 119.314558 32.960561 
L 120.214376 32.670319 
L 121.114195 32.773449 
L 122.913832 32.692845 
L 124.713469 32.852149 
L 125.613288 33.262521 
L 129.212562 32.853407 
L 131.912018 32.90518 
L 135.511292 33.058212 
L 138.210748 32.971868 
L 139.110567 33.179999 
L 140.010385 33.22164 
L 140.910204 33.107777 
L 142.709841 33.431527 
L 155.307301 32.768196 
L 156.20712 32.535355 
L 158.006757 32.769997 
L 158.906576 32.462235 
L 159.806394 32.337001 
L 160.706213 32.683332 
L 161.606031 32.327666 
L 162.50585 32.284194 
L 163.405669 32.569111 
L 164.305487 32.321616 
L 166.105124 32.419363 
L 168.80458 32.019317 
L 170.604217 32.200238 
L 171.504036 32.257489 
L 173.303673 31.793598 
L 174.203492 32.022934 
L 175.10331 32.114258 
L 176.902947 32.009621 
L 177.802766 31.742828 
L 180.502222 31.960335 
L 181.40204 32.080473 
L 182.301859 31.793818 
L 183.201677 31.924769 
L 185.001315 31.790513 
L 185.901133 31.843769 
L 186.800952 31.722637 
L 200.298231 31.611054 
L 201.198049 31.471409 
L 202.097868 31.67449 
L 204.797323 31.423854 
L 206.596961 31.664414 
L 209.296416 31.628157 
L 210.196235 31.437864 
L 217.394784 31.55104 
L 218.294602 31.465925 
L 219.194421 31.583328 
L 220.094239 31.518672 
L 220.994058 31.774704 
L 221.893877 31.568749 
L 224.593332 31.335286 
L 225.493151 31.614304 
L 226.392969 31.319566 
L 229.092425 31.719179 
L 232.6917 31.712082 
L 233.591518 31.850352 
L 238.99043 31.705025 
L 239.890248 31.854994 
L 242.589704 31.420528 
L 244.389341 31.320663 
L 246.188978 31.353287 
L 248.888434 31.359042 
L 249.788253 31.45238 
L 250.688071 31.355455 
L 251.58789 31.454127 
L 252.487708 31.370481 
L 253.387527 31.454706 
L 254.287346 31.820744 
L 255.187164 31.877293 
L 256.986801 31.842599 
L 257.88662 32.001857 
L 259.686257 32.054722 
L 260.586076 31.781241 
L 261.485894 31.750364 
L 262.385713 31.845092 
L 263.285531 31.721616 
L 265.085169 31.967208 
L 265.984987 31.746836 
L 266.884806 31.693057 
L 269.584262 31.851834 
L 272.283717 32.014913 
L 275.882992 31.78715 
L 277.682629 32.162544 
L 279.482266 32.296388 
L 282.181722 32.174607 
L 288.480452 32.243797 
L 317.274647 32.414945 
L 318.174465 32.133302 
L 319.074284 32.318111 
L 320.873921 32.170228 
L 325.373014 32.09577 
L 327.172651 32.051264 
L 328.972288 32.021404 
L 329.872107 32.069145 
L 346.068841 31.697669 
L 346.96866 31.402386 
L 349.668116 31.451078 
L 350.567934 31.70897 
L 351.467753 31.525681 
L 353.26739 31.529798 
L 354.167209 31.478095 
L 357.766483 31.773565 
L 359.56612 31.367962 
L 360.465939 31.413855 
L 362.265576 31.198882 
L 364.965032 31.34815 
L 365.86485 31.617786 
L 366.764669 31.423234 
L 368.564306 31.450518 
L 369.464124 31.653098 
L 372.16358 31.735876 
L 373.063399 31.866724 
L 373.963217 31.738377 
L 374.863036 31.778498 
L 377.562492 31.528669 
L 378.46231 31.786983 
L 379.362129 31.514836 
L 380.261948 31.786214 
L 381.161766 31.668696 
L 382.061585 31.677606 
L 382.961403 31.540652 
L 383.861222 31.818026 
L 385.660859 31.577001 
L 387.460496 31.727164 
L 388.360315 31.676925 
L 389.260133 31.892542 
L 393.759226 31.705625 
L 394.659045 31.615051 
L 396.458682 31.84784 
L 397.358501 31.670273 
L 398.258319 31.681553 
L 399.158138 31.578174 
L 400.057956 31.689614 
L 400.957775 31.517127 
L 401.857594 31.714156 
L 403.657231 31.777863 
L 404.557049 31.84537 
L 407.256505 31.793719 
L 408.156324 32.057082 
L 409.056142 31.697617 
L 409.955961 31.658529 
L 410.855779 31.783129 
L 411.755598 31.520301 
L 412.655417 31.784578 
L 413.555235 31.581726 
L 416.254691 31.660503 
L 417.154509 31.483126 
L 418.954147 31.530221 
L 420.753784 31.480724 
L 421.653602 31.643642 
L 422.553421 31.554356 
L 424.353058 31.613521 
L 426.152695 31.338916 
L 427.052514 31.462537 
L 428.852151 31.240968 
L 430.651788 31.527204 
L 431.551607 31.154403 
L 432.451425 31.465528 
L 433.351244 31.620834 
L 434.251063 31.660533 
L 435.150881 32.07902 
L 436.0507 32.144515 
L 436.950518 32.416478 
L 437.850337 32.421789 
L 440.549793 32.317673 
L 441.449611 32.497991 
L 443.249248 32.511229 
L 445.948704 32.533413 
L 446.848523 32.785668 
L 447.748341 32.487664 
L 452.247434 32.551656 
L 453.147253 32.354548 
L 454.047071 32.345527 
L 454.94689 32.511585 
L 455.846709 32.8538 
L 456.746527 32.661472 
L 458.546164 32.872313 
L 459.445983 32.872313 
L 460.345802 33.050087 
L 461.24562 32.855282 
L 463.945076 33.098891 
L 464.844894 32.817313 
L 466.644532 32.995111 
L 467.54435 32.81861 
L 468.444169 32.983625 
L 469.343987 33.323331 
L 470.243806 32.846786 
L 472.043443 32.802833 
L 472.943262 32.575962 
L 474.742899 32.555555 
L 475.642718 33.050023 
L 476.542536 32.580993 
L 477.442355 32.511952 
L 478.342173 32.694767 
L 479.241992 32.587749 
L 479.241992 32.587749 
" clip-path="url(#p32dfcfb603)" style="fill: none; stroke: #ff7f0e; stroke-width: 1.5; stroke-linecap: square"/>
   </g>
   <g id="line2d_29">
    <path d="M 73.42381 46.763108 
L 75.223447 46.850858 
L 76.123266 46.843199 
L 77.023084 46.414796 
L 78.822722 46.580294 
L 79.72254 46.471638 
L 80.622359 46.568583 
L 81.522177 46.39521 
L 83.321814 46.265871 
L 84.221633 46.033329 
L 86.02127 46.207719 
L 86.921089 46.399339 
L 91.420182 45.999497 
L 92.32 46.102186 
L 94.119637 46.068501 
L 95.019456 46.223382 
L 95.919275 46.143344 
L 96.819093 45.845693 
L 97.718912 45.816147 
L 99.518549 45.995161 
L 100.418368 46.210257 
L 104.917461 46.450456 
L 106.717098 46.163632 
L 107.616916 46.539452 
L 108.516735 46.374385 
L 109.416553 46.506825 
L 110.316372 46.395655 
L 113.915646 46.674956 
L 114.815465 46.48745 
L 115.715284 46.634567 
L 118.414739 46.562672 
L 119.314558 46.726617 
L 120.214376 46.517029 
L 121.114195 46.505969 
L 122.913832 46.634892 
L 124.713469 46.496159 
L 125.613288 46.904832 
L 126.513107 46.645539 
L 128.312744 46.736623 
L 129.212562 46.427605 
L 131.012199 46.545742 
L 131.912018 46.140382 
L 132.811837 46.568731 
L 135.511292 46.450587 
L 138.210748 46.70064 
L 139.110567 46.42982 
L 140.010385 46.410049 
L 140.910204 46.278875 
L 142.709841 46.714305 
L 151.708027 46.420679 
L 153.507664 47.167355 
L 154.407483 46.7562 
L 155.307301 46.808532 
L 156.20712 46.57792 
L 157.106938 46.713282 
L 158.006757 46.665763 
L 158.906576 47.077194 
L 159.806394 47.06176 
L 160.706213 46.880424 
L 167.004943 46.753769 
L 168.80458 46.376663 
L 170.604217 46.680975 
L 172.403854 46.62125 
L 173.303673 46.375289 
L 175.10331 46.647341 
L 177.802766 46.40542 
L 179.602403 46.720217 
L 180.502222 46.623006 
L 182.301859 46.737919 
L 183.201677 46.637233 
L 185.001315 46.748116 
L 185.901133 46.513378 
L 186.800952 46.652973 
L 187.70077 46.585904 
L 188.600589 46.687996 
L 201.198049 46.443898 
L 202.097868 46.59872 
L 202.997686 46.475378 
L 203.897505 46.537881 
L 204.797323 46.43114 
L 206.596961 46.629355 
L 207.496779 46.407413 
L 208.396598 46.599871 
L 209.296416 46.323739 
L 210.196235 46.347546 
L 211.096054 45.96381 
L 211.995872 46.214088 
L 214.695328 45.963865 
L 215.595146 45.68466 
L 216.494965 45.957575 
L 217.394784 45.841669 
L 218.294602 45.851207 
L 219.194421 45.734749 
L 220.994058 45.937073 
L 221.893877 45.873819 
L 224.593332 45.557447 
L 225.493151 45.701918 
L 226.392969 45.529201 
L 227.292788 45.598788 
L 228.192607 45.89557 
L 233.591518 45.800485 
L 235.391155 45.950107 
L 236.290974 45.837071 
L 238.090611 45.945103 
L 238.99043 46.308722 
L 239.890248 46.26324 
L 240.790067 45.85522 
L 241.689885 45.75437 
L 243.489523 45.831363 
L 246.188978 45.615296 
L 247.088797 45.771413 
L 247.988616 45.622523 
L 248.888434 45.834593 
L 249.788253 45.835526 
L 250.688071 45.709474 
L 251.58789 45.975164 
L 252.487708 45.752759 
L 255.187164 46.110437 
L 256.986801 46.038798 
L 257.88662 46.235205 
L 259.686257 46.190153 
L 260.586076 46.284271 
L 261.485894 46.221175 
L 262.385713 45.986019 
L 264.18535 45.840073 
L 265.085169 46.053177 
L 265.984987 45.852954 
L 266.884806 45.871924 
L 267.784624 46.060462 
L 269.584262 46.221235 
L 270.48408 46.381106 
L 271.383899 45.948469 
L 272.283717 46.093894 
L 273.183536 46.038749 
L 274.083354 46.332737 
L 274.983173 46.109606 
L 275.882992 46.255341 
L 276.78281 46.20192 
L 277.682629 46.366432 
L 279.482266 46.354184 
L 282.181722 46.459716 
L 283.981359 46.185159 
L 287.580633 46.023453 
L 288.480452 46.130569 
L 314.575191 46.019131 
L 315.475009 45.943821 
L 317.274647 46.219274 
L 318.174465 45.896287 
L 319.074284 45.980241 
L 322.673558 45.882254 
L 329.872107 45.956074 
L 346.96866 45.424308 
L 348.768297 45.245028 
L 353.26739 45.405457 
L 354.167209 45.239127 
L 355.067027 45.439259 
L 355.966846 45.353848 
L 356.866664 45.394579 
L 357.766483 45.555665 
L 359.56612 45.269666 
L 360.465939 45.465839 
L 361.365757 45.146667 
L 362.265576 45.300605 
L 366.764669 45.248724 
L 367.664487 45.064266 
L 371.263762 45.092634 
L 372.16358 45.27727 
L 373.063399 45.330962 
L 373.963217 45.245411 
L 374.863036 45.366263 
L 375.762855 45.184558 
L 376.662673 45.163532 
L 377.562492 45.023572 
L 380.261948 45.052916 
L 381.161766 44.842196 
L 382.061585 45.05146 
L 383.861222 45.065261 
L 384.76104 45.090026 
L 385.660859 44.895814 
L 386.560678 45.068504 
L 387.460496 44.905506 
L 388.360315 44.945114 
L 389.260133 45.28807 
L 392.859408 45.218535 
L 393.759226 45.115019 
L 395.558863 45.212474 
L 396.458682 45.338777 
L 397.358501 45.326869 
L 398.258319 45.176877 
L 400.057956 45.249806 
L 400.957775 45.375857 
L 402.757412 45.412492 
L 403.657231 46.339726 
L 404.557049 46.220879 
L 407.256505 46.352378 
L 408.156324 46.618371 
L 409.955961 46.224831 
L 411.755598 46.166679 
L 412.655417 46.231714 
L 413.555235 46.104806 
L 417.154509 46.189626 
L 418.054328 46.109312 
L 418.954147 46.239476 
L 419.853965 46.066583 
L 424.353058 46.358291 
L 426.152695 45.943462 
L 427.052514 46.127808 
L 427.952333 45.940659 
L 428.852151 45.933369 
L 429.75197 46.190597 
L 434.251063 46.106043 
L 435.150881 46.613274 
L 436.0507 46.730863 
L 436.950518 47.017481 
L 437.850337 47.161056 
L 440.549793 46.986942 
L 442.34943 47.110662 
L 443.249248 46.92075 
L 445.048886 46.989559 
L 445.948704 46.877239 
L 446.848523 47.262571 
L 447.748341 47.052934 
L 449.547979 47.052505 
L 453.147253 47.182685 
L 454.047071 47.113438 
L 455.846709 47.573189 
L 457.646346 47.531933 
L 459.445983 47.921466 
L 460.345802 48.196125 
L 461.24562 47.922963 
L 462.145439 47.789608 
L 463.045257 47.858892 
L 463.945076 48.059918 
L 464.844894 47.653562 
L 466.644532 47.8055 
L 467.54435 47.658448 
L 469.343987 48.033995 
L 470.243806 47.615737 
L 471.143625 47.875968 
L 472.043443 47.625488 
L 473.84308 47.454186 
L 474.742899 47.415398 
L 475.642718 47.985851 
L 476.542536 47.631895 
L 477.442355 47.570502 
L 478.342173 47.871799 
L 479.241992 47.619327 
L 479.241992 47.619327 
" clip-path="url(#p32dfcfb603)" style="fill: none; stroke: #2ca02c; stroke-width: 1.5; stroke-linecap: square"/>
   </g>
   <g id="line2d_30">
    <path d="M 73.42381 186.390467 
L 74.323629 186.307427 
L 77.023084 186.353956 
L 78.822722 186.28011 
L 81.522177 186.257012 
L 82.421996 186.318768 
L 83.321814 186.218954 
L 89.620545 186.268067 
L 90.520363 186.211639 
L 92.32 186.27087 
L 99.518549 186.317326 
L 112.116009 186.206315 
L 113.015828 186.128813 
L 114.815465 186.170323 
L 116.615102 186.230966 
L 118.414739 186.188894 
L 119.314558 186.110419 
L 121.114195 186.209087 
L 129.212562 186.294879 
L 131.012199 186.352754 
L 135.511292 186.322177 
L 142.709841 186.366619 
L 209.296416 186.185138 
L 211.995872 186.244944 
L 215.595146 186.175523 
L 219.194421 186.24556 
L 220.994058 186.175691 
L 232.6917 186.05633 
L 235.391155 186.084298 
L 238.99043 185.967066 
L 240.790067 185.952221 
L 242.589704 185.927052 
L 247.088797 185.865768 
L 250.688071 185.953686 
L 254.287346 185.866807 
L 255.187164 185.917692 
L 256.986801 185.886802 
L 263.285531 185.769305 
L 264.18535 185.163172 
L 266.884806 185.136026 
L 269.584262 185.136026 
L 275.882992 185.171964 
L 277.682629 185.160052 
L 282.181722 185.051705 
L 288.480452 184.906117 
L 317.274647 184.875098 
L 318.174465 184.762425 
L 319.974102 184.816081 
L 324.473195 184.733212 
L 327.172651 184.652994 
L 329.872107 184.662855 
L 350.567934 184.563578 
L 353.26739 184.59612 
L 355.966846 184.671044 
L 358.666301 184.670283 
L 360.465939 184.716008 
L 362.265576 184.714719 
L 365.86485 184.713981 
L 372.16358 184.644282 
L 376.662673 184.643033 
L 383.861222 184.568728 
L 385.660859 184.653636 
L 391.059771 184.525122 
L 392.859408 184.508322 
L 395.558863 184.527973 
L 397.358501 184.501235 
L 399.158138 184.515492 
L 404.557049 184.539509 
L 436.950518 184.347593 
L 437.850337 184.420471 
L 442.34943 184.337135 
L 445.048886 184.368766 
L 449.547979 184.283729 
L 454.94689 184.373447 
L 457.646346 184.3184 
L 462.145439 184.367206 
L 464.844894 184.345046 
L 466.644532 184.323739 
L 468.444169 184.35657 
L 471.143625 184.282148 
L 479.241992 184.244492 
L 479.241992 184.244492 
" clip-path="url(#p32dfcfb603)" style="fill: none; stroke: #d62728; stroke-width: 1.5; stroke-linecap: square"/>
   </g>
   <g id="line2d_31">
    <path d="M 73.42381 186.831395 
L 364.965032 186.842683 
L 365.86485 186.785917 
L 366.764669 186.87155 
L 368.564306 186.872271 
L 388.360315 186.862433 
L 389.260133 186.697534 
L 390.159952 186.820786 
L 391.959589 186.781032 
L 397.358501 186.836512 
L 400.057956 186.837755 
L 401.857594 186.783636 
L 407.256505 186.853508 
L 409.056142 186.758967 
L 409.955961 186.826559 
L 412.655417 186.748424 
L 415.354872 186.800809 
L 416.254691 186.720768 
L 418.054328 186.815253 
L 421.653602 186.801899 
L 428.852151 186.842636 
L 430.651788 186.621762 
L 431.551607 186.714554 
L 432.451425 186.42566 
L 434.251063 186.504889 
L 435.150881 185.969591 
L 436.950518 185.41469 
L 440.549793 185.635611 
L 441.449611 185.456035 
L 442.34943 185.624243 
L 443.249248 185.397148 
L 444.149067 185.55089 
L 445.048886 185.432614 
L 445.948704 185.612176 
L 446.848523 185.299974 
L 447.748341 185.54046 
L 449.547979 185.558484 
L 452.247434 185.38481 
L 454.047071 185.585555 
L 455.846709 185.211242 
L 456.746527 185.244733 
L 457.646346 184.969826 
L 458.546164 185.150437 
L 460.345802 185.113684 
L 461.24562 185.188885 
L 462.145439 185.149886 
L 463.045257 184.910885 
L 463.945076 184.946817 
L 464.844894 185.113561 
L 465.744713 185.113841 
L 466.644532 184.973888 
L 468.444169 184.96616 
L 469.343987 184.583115 
L 470.243806 185.062684 
L 471.143625 184.852126 
L 472.043443 184.825737 
L 472.943262 185.112324 
L 473.84308 184.899821 
L 474.742899 184.958927 
L 475.642718 184.584053 
L 476.542536 184.880272 
L 477.442355 185.018189 
L 478.342173 184.669153 
L 479.241992 184.946902 
L 479.241992 184.946902 
" clip-path="url(#p32dfcfb603)" style="fill: none; stroke: #9467bd; stroke-width: 1.5; stroke-linecap: square"/>
   </g>
   <g id="line2d_32">
    <path d="M 73.42381 175.010312 
L 75.223447 174.923803 
L 76.123266 175.149925 
L 77.023084 175.105497 
L 77.922903 175.244366 
L 78.822722 175.25226 
L 79.72254 175.03548 
L 80.622359 175.228971 
L 85.121452 174.989149 
L 86.02127 175.098668 
L 86.921089 175.080963 
L 91.420182 174.786507 
L 93.219819 174.857341 
L 94.119637 174.941732 
L 95.919275 174.830064 
L 96.819093 175.007065 
L 97.718912 174.805459 
L 103.117823 174.971386 
L 104.017642 174.785368 
L 104.917461 174.868467 
L 105.817279 174.674531 
L 106.717098 174.816434 
L 108.516735 174.664267 
L 109.416553 174.878185 
L 110.316372 174.754247 
L 112.116009 174.873539 
L 113.915646 174.875475 
L 114.815465 175.005195 
L 115.715284 174.883729 
L 116.615102 174.905204 
L 117.514921 174.757927 
L 118.414739 174.868921 
L 122.913832 174.696635 
L 125.613288 174.908243 
L 126.513107 174.915997 
L 127.412925 174.73139 
L 129.212562 174.881552 
L 131.012199 174.784147 
L 131.912018 174.943406 
L 132.811837 174.878296 
L 140.910204 174.837304 
L 141.810022 175.12995 
L 142.709841 175.069511 
L 150.808208 175.016137 
L 151.708027 175.12338 
L 154.407483 175.037443 
L 155.307301 175.236868 
L 158.906576 175.047666 
L 160.706213 175.012483 
L 161.606031 175.105497 
L 162.50585 174.900961 
L 164.305487 175.099208 
L 165.205306 174.921637 
L 166.105124 174.964443 
L 168.80458 174.84694 
L 171.504036 174.970544 
L 172.403854 174.813924 
L 173.303673 174.998033 
L 174.203492 175.050067 
L 175.10331 174.985929 
L 176.003129 175.228929 
L 177.802766 175.061399 
L 178.702584 175.150759 
L 185.001315 175.020888 
L 188.600589 175.089874 
L 204.797323 174.815146 
L 205.697142 174.658937 
L 207.496779 174.846554 
L 208.396598 174.794066 
L 209.296416 174.8795 
L 210.196235 174.706513 
L 211.995872 174.973915 
L 216.494965 174.9776 
L 217.394784 174.888293 
L 218.294602 175.07668 
L 219.194421 174.896743 
L 221.893877 174.895873 
L 224.593332 174.809273 
L 225.493151 174.892724 
L 226.392969 174.790491 
L 229.092425 174.935895 
L 249.788253 174.821467 
L 250.688071 174.730853 
L 251.58789 174.904866 
L 252.487708 174.732501 
L 257.88662 174.985261 
L 263.285531 174.932669 
L 264.18535 175.017741 
L 265.085169 174.9149 
L 265.984987 175.193494 
L 267.784624 175.048387 
L 268.684443 175.136104 
L 270.48408 175.061184 
L 271.383899 175.148838 
L 272.283717 175.090782 
L 273.183536 175.17986 
L 275.882992 175.0081 
L 276.78281 175.133699 
L 277.682629 175.079367 
L 279.482266 175.183509 
L 282.181722 174.963527 
L 283.981359 175.062161 
L 315.475009 174.664911 
L 316.374828 174.795734 
L 325.373014 174.637365 
L 329.872107 174.690859 
L 346.068841 174.779682 
L 346.96866 174.897765 
L 351.467753 174.810927 
L 353.26739 174.901968 
L 355.067027 174.908567 
L 357.766483 174.88322 
L 362.265576 174.755555 
L 373.963217 174.832007 
L 382.061585 174.650472 
L 382.961403 174.560947 
L 384.76104 174.527212 
L 386.560678 174.562499 
L 388.360315 174.516411 
L 389.260133 174.443514 
L 392.859408 174.526777 
L 393.759226 174.493121 
L 394.659045 174.571668 
L 395.558863 174.474418 
L 396.458682 174.614421 
L 399.158138 174.534234 
L 409.056142 174.723592 
L 410.855779 174.608913 
L 411.755598 174.78269 
L 412.655417 174.711363 
L 413.555235 174.878782 
L 416.254691 174.91225 
L 421.653602 174.828785 
L 422.553421 174.912682 
L 423.45324 174.796153 
L 431.551607 174.949501 
L 432.451425 174.858343 
L 434.251063 175.003436 
L 436.0507 175.009906 
L 436.950518 175.18618 
L 441.449611 174.943499 
L 442.34943 174.937349 
L 443.249248 175.078741 
L 444.149067 174.949105 
L 446.848523 175.05958 
L 449.547979 174.879163 
L 453.147253 174.846135 
L 455.846709 174.962573 
L 462.145439 174.857648 
L 464.844894 174.836299 
L 466.644532 174.779556 
L 468.444169 174.797675 
L 470.243806 174.703726 
L 471.143625 174.825689 
L 474.742899 174.790989 
L 475.642718 174.870005 
L 476.542536 174.765349 
L 479.241992 174.857738 
L 479.241992 174.857738 
" clip-path="url(#p32dfcfb603)" style="fill: none; stroke: #8c564b; stroke-width: 1.5; stroke-linecap: square"/>
   </g>
   <g id="patch_3">
    <path d="M 53.132901 194.725312 
L 53.132901 23.365312 
" style="fill: none; stroke: #000000; stroke-width: 0.8; stroke-linejoin: miter; stroke-linecap: square"/>
   </g>
   <g id="patch_4">
    <path d="M 499.532901 194.725312 
L 499.532901 23.365312 
" style="fill: none; stroke: #000000; stroke-width: 0.8; stroke-linejoin: miter; stroke-linecap: square"/>
   </g>
   <g id="patch_5">
    <path d="M 53.132901 194.725312 
L 499.532901 194.725312 
" style="fill: none; stroke: #000000; stroke-width: 0.8; stroke-linejoin: miter; stroke-linecap: square"/>
   </g>
   <g id="patch_6">
    <path d="M 53.132901 23.365313 
L 499.532901 23.365313 
" style="fill: none; stroke: #000000; stroke-width: 0.8; stroke-linejoin: miter; stroke-linecap: square"/>
   </g>
   <g id="legend_1">
    <g id="patch_7">
     <path d="M 160.304151 156.259812 
L 392.361651 156.259812 
Q 393.961651 156.259812 393.961651 154.659812 
L 393.961651 131.974812 
Q 393.961651 130.374812 392.361651 130.374812 
L 160.304151 130.374812 
Q 158.704151 130.374812 158.704151 131.974812 
L 158.704151 154.659812 
Q 158.704151 156.259812 160.304151 156.259812 
z
" style="fill: #ffffff; opacity: 0.8; stroke: #cccccc; stroke-linejoin: miter"/>
    </g>
    <g id="line2d_33">
     <path d="M 161.904151 136.853562 
L 169.904151 136.853562 
L 177.904151 136.853562 
" style="fill: none; stroke: #1f77b4; stroke-width: 1.5; stroke-linecap: square"/>
    </g>
    <g id="text_23">
     <!-- self -->
     <g transform="translate(184.304151 139.653562)scale(0.08 -0.08)">
      <use xlink:href="#DejaVuSans-73"/>
      <use xlink:href="#DejaVuSans-65" x="52.099609"/>
      <use xlink:href="#DejaVuSans-6c" x="113.623047"/>
      <use xlink:href="#DejaVuSans-66" x="141.40625"/>
     </g>
    </g>
    <g id="line2d_34">
     <path d="M 161.904151 148.596062 
L 169.904151 148.596062 
L 177.904151 148.596062 
" style="fill: none; stroke: #ff7f0e; stroke-width: 1.5; stroke-linecap: square"/>
    </g>
    <g id="text_24">
     <!-- unsafe-inline -->
     <g transform="translate(184.304151 151.396062)scale(0.08 -0.08)">
      <use xlink:href="#DejaVuSans-75"/>
      <use xlink:href="#DejaVuSans-6e" x="63.378906"/>
      <use xlink:href="#DejaVuSans-73" x="126.757812"/>
      <use xlink:href="#DejaVuSans-61" x="178.857422"/>
      <use xlink:href="#DejaVuSans-66" x="240.136719"/>
      <use xlink:href="#DejaVuSans-65" x="275.341797"/>
      <use xlink:href="#DejaVuSans-2d" x="336.865234"/>
      <use xlink:href="#DejaVuSans-69" x="372.949219"/>
      <use xlink:href="#DejaVuSans-6e" x="400.732422"/>
      <use xlink:href="#DejaVuSans-6c" x="464.111328"/>
      <use xlink:href="#DejaVuSans-69" x="491.894531"/>
      <use xlink:href="#DejaVuSans-6e" x="519.677734"/>
      <use xlink:href="#DejaVuSans-65" x="583.056641"/>
     </g>
    </g>
    <g id="line2d_35">
     <path d="M 251.869151 136.853562 
L 259.869151 136.853562 
L 267.869151 136.853562 
" style="fill: none; stroke: #2ca02c; stroke-width: 1.5; stroke-linecap: square"/>
    </g>
    <g id="text_25">
     <!-- unsafe-eval -->
     <g transform="translate(274.269151 139.653562)scale(0.08 -0.08)">
      <use xlink:href="#DejaVuSans-75"/>
      <use xlink:href="#DejaVuSans-6e" x="63.378906"/>
      <use xlink:href="#DejaVuSans-73" x="126.757812"/>
      <use xlink:href="#DejaVuSans-61" x="178.857422"/>
      <use xlink:href="#DejaVuSans-66" x="240.136719"/>
      <use xlink:href="#DejaVuSans-65" x="275.341797"/>
      <use xlink:href="#DejaVuSans-2d" x="336.865234"/>
      <use xlink:href="#DejaVuSans-65" x="372.949219"/>
      <use xlink:href="#DejaVuSans-76" x="434.472656"/>
      <use xlink:href="#DejaVuSans-61" x="493.652344"/>
      <use xlink:href="#DejaVuSans-6c" x="554.931641"/>
     </g>
    </g>
    <g id="line2d_36">
     <path d="M 251.869151 148.596062 
L 259.869151 148.596062 
L 267.869151 148.596062 
" style="fill: none; stroke: #d62728; stroke-width: 1.5; stroke-linecap: square"/>
    </g>
    <g id="text_26">
     <!-- unsafe-hashes -->
     <g transform="translate(274.269151 151.396062)scale(0.08 -0.08)">
      <defs>
       <path id="DejaVuSans-68" d="M 3513 2113 
L 3513 0 
L 2938 0 
L 2938 2094 
Q 2938 2591 2744 2837 
Q 2550 3084 2163 3084 
Q 1697 3084 1428 2787 
Q 1159 2491 1159 1978 
L 1159 0 
L 581 0 
L 581 4863 
L 1159 4863 
L 1159 2956 
Q 1366 3272 1645 3428 
Q 1925 3584 2291 3584 
Q 2894 3584 3203 3211 
Q 3513 2838 3513 2113 
z
" transform="scale(0.015625)"/>
      </defs>
      <use xlink:href="#DejaVuSans-75"/>
      <use xlink:href="#DejaVuSans-6e" x="63.378906"/>
      <use xlink:href="#DejaVuSans-73" x="126.757812"/>
      <use xlink:href="#DejaVuSans-61" x="178.857422"/>
      <use xlink:href="#DejaVuSans-66" x="240.136719"/>
      <use xlink:href="#DejaVuSans-65" x="275.341797"/>
      <use xlink:href="#DejaVuSans-2d" x="336.865234"/>
      <use xlink:href="#DejaVuSans-68" x="372.949219"/>
      <use xlink:href="#DejaVuSans-61" x="436.328125"/>
      <use xlink:href="#DejaVuSans-73" x="497.607422"/>
      <use xlink:href="#DejaVuSans-68" x="549.707031"/>
      <use xlink:href="#DejaVuSans-65" x="613.085938"/>
      <use xlink:href="#DejaVuSans-73" x="674.609375"/>
     </g>
    </g>
    <g id="line2d_37">
     <path d="M 348.404151 136.853562 
L 356.404151 136.853562 
L 364.404151 136.853562 
" style="fill: none; stroke: #9467bd; stroke-width: 1.5; stroke-linecap: square"/>
    </g>
    <g id="text_27">
     <!-- none -->
     <g transform="translate(370.804151 139.653562)scale(0.08 -0.08)">
      <use xlink:href="#DejaVuSans-6e"/>
      <use xlink:href="#DejaVuSans-6f" x="63.378906"/>
      <use xlink:href="#DejaVuSans-6e" x="124.560547"/>
      <use xlink:href="#DejaVuSans-65" x="187.939453"/>
     </g>
    </g>
    <g id="line2d_38">
     <path d="M 348.404151 148.596062 
L 356.404151 148.596062 
L 364.404151 148.596062 
" style="fill: none; stroke: #8c564b; stroke-width: 1.5; stroke-linecap: square"/>
    </g>
    <g id="text_28">
     <!-- * -->
     <g transform="translate(370.804151 151.396062)scale(0.08 -0.08)">
      <defs>
       <path id="DejaVuSans-2a" d="M 3009 3897 
L 1888 3291 
L 3009 2681 
L 2828 2375 
L 1778 3009 
L 1778 1831 
L 1422 1831 
L 1422 3009 
L 372 2375 
L 191 2681 
L 1313 3291 
L 191 3897 
L 372 4206 
L 1422 3572 
L 1422 4750 
L 1778 4750 
L 1778 3572 
L 2828 4206 
L 3009 3897 
z
" transform="scale(0.015625)"/>
      </defs>
      <use xlink:href="#DejaVuSans-2a"/>
     </g>
    </g>
   </g>
  </g>
 </g>
 <defs>
  <clipPath id="p32dfcfb603">
   <rect x="53.132901" y="23.365313" width="446.4" height="171.36"/>
  </clipPath>
 </defs>
</svg>
