<?xml version="1.0" encoding="utf-8" standalone="no"?>
<!DOCTYPE svg PUBLIC "-//W3C//DTD SVG 1.1//EN"
  "http://www.w3.org/Graphics/SVG/1.1/DTD/svg11.dtd">
<svg xmlns:xlink="http://www.w3.org/1999/xlink" width="507.159131pt" height="234.264627pt" viewBox="0 0 507.159131 234.264627" xmlns="http://www.w3.org/2000/svg" version="1.1">
 <metadata>
  <rdf:RDF xmlns:dc="http://purl.org/dc/elements/1.1/" xmlns:cc="http://creativecommons.org/ns#" xmlns:rdf="http://www.w3.org/1999/02/22-rdf-syntax-ns#">
   <cc:Work>
    <dc:type rdf:resource="http://purl.org/dc/dcmitype/StillImage"/>
    <dc:date>2022-02-01T19:20:46.164909</dc:date>
    <dc:format>image/svg+xml</dc:format>
    <dc:creator>
     <cc:Agent>
      <dc:title>Matplotlib v3.5.1, https://matplotlib.org/</dc:title>
     </cc:Agent>
    </dc:creator>
   </cc:Work>
  </rdf:RDF>
 </metadata>
 <defs>
  <style type="text/css">*{stroke-linejoin: round; stroke-linecap: butt}</style>
 </defs>
 <g id="figure_1">
  <g id="patch_1">
   <path d="M 0 234.264627 
L 507.159131 234.264627 
L 507.159131 0 
L 0 0 
z
" style="fill: #ffffff"/>
  </g>
  <g id="axes_1">
   <g id="patch_2">
    <path d="M 53.559131 178.737812 
L 499.959131 178.737812 
L 499.959131 7.377813 
L 53.559131 7.377813 
z
" style="fill: #ffffff"/>
   </g>
   <g id="matplotlib.axis_1">
    <g id="xtick_1">
     <g id="line2d_1">
      <defs>
       <path id="m7f53c9301e" d="M 0 0 
L 0 3.5 
" style="stroke: #000000; stroke-width: 0.8"/>
      </defs>
      <g>
       <use xlink:href="#m7f53c9301e" x="68.024899" y="178.737812" style="stroke: #000000; stroke-width: 0.8"/>
      </g>
     </g>
     <g id="text_1">
      <!-- 2020-Nov-01 -->
      <g transform="translate(10.999219 224.64169)rotate(-30)scale(0.1 -0.1)">
       <defs>
        <path id="DejaVuSans-32" d="M 1228 531 
L 3431 531 
L 3431 0 
L 469 0 
L 469 531 
Q 828 903 1448 1529 
Q 2069 2156 2228 2338 
Q 2531 2678 2651 2914 
Q 2772 3150 2772 3378 
Q 2772 3750 2511 3984 
Q 2250 4219 1831 4219 
Q 1534 4219 1204 4116 
Q 875 4013 500 3803 
L 500 4441 
Q 881 4594 1212 4672 
Q 1544 4750 1819 4750 
Q 2544 4750 2975 4387 
Q 3406 4025 3406 3419 
Q 3406 3131 3298 2873 
Q 3191 2616 2906 2266 
Q 2828 2175 2409 1742 
Q 1991 1309 1228 531 
z
" transform="scale(0.015625)"/>
        <path id="DejaVuSans-30" d="M 2034 4250 
Q 1547 4250 1301 3770 
Q 1056 3291 1056 2328 
Q 1056 1369 1301 889 
Q 1547 409 2034 409 
Q 2525 409 2770 889 
Q 3016 1369 3016 2328 
Q 3016 3291 2770 3770 
Q 2525 4250 2034 4250 
z
M 2034 4750 
Q 2819 4750 3233 4129 
Q 3647 3509 3647 2328 
Q 3647 1150 3233 529 
Q 2819 -91 2034 -91 
Q 1250 -91 836 529 
Q 422 1150 422 2328 
Q 422 3509 836 4129 
Q 1250 4750 2034 4750 
z
" transform="scale(0.015625)"/>
        <path id="DejaVuSans-2d" d="M 313 2009 
L 1997 2009 
L 1997 1497 
L 313 1497 
L 313 2009 
z
" transform="scale(0.015625)"/>
        <path id="DejaVuSans-4e" d="M 628 4666 
L 1478 4666 
L 3547 763 
L 3547 4666 
L 4159 4666 
L 4159 0 
L 3309 0 
L 1241 3903 
L 1241 0 
L 628 0 
L 628 4666 
z
" transform="scale(0.015625)"/>
        <path id="DejaVuSans-6f" d="M 1959 3097 
Q 1497 3097 1228 2736 
Q 959 2375 959 1747 
Q 959 1119 1226 758 
Q 1494 397 1959 397 
Q 2419 397 2687 759 
Q 2956 1122 2956 1747 
Q 2956 2369 2687 2733 
Q 2419 3097 1959 3097 
z
M 1959 3584 
Q 2709 3584 3137 3096 
Q 3566 2609 3566 1747 
Q 3566 888 3137 398 
Q 2709 -91 1959 -91 
Q 1206 -91 779 398 
Q 353 888 353 1747 
Q 353 2609 779 3096 
Q 1206 3584 1959 3584 
z
" transform="scale(0.015625)"/>
        <path id="DejaVuSans-76" d="M 191 3500 
L 800 3500 
L 1894 563 
L 2988 3500 
L 3597 3500 
L 2284 0 
L 1503 0 
L 191 3500 
z
" transform="scale(0.015625)"/>
        <path id="DejaVuSans-31" d="M 794 531 
L 1825 531 
L 1825 4091 
L 703 3866 
L 703 4441 
L 1819 4666 
L 2450 4666 
L 2450 531 
L 3481 531 
L 3481 0 
L 794 0 
L 794 531 
z
" transform="scale(0.015625)"/>
       </defs>
       <use xlink:href="#DejaVuSans-32"/>
       <use xlink:href="#DejaVuSans-30" x="63.623047"/>
       <use xlink:href="#DejaVuSans-32" x="127.246094"/>
       <use xlink:href="#DejaVuSans-30" x="190.869141"/>
       <use xlink:href="#DejaVuSans-2d" x="254.492188"/>
       <use xlink:href="#DejaVuSans-4e" x="290.576172"/>
       <use xlink:href="#DejaVuSans-6f" x="365.380859"/>
       <use xlink:href="#DejaVuSans-76" x="426.5625"/>
       <use xlink:href="#DejaVuSans-2d" x="483.117188"/>
       <use xlink:href="#DejaVuSans-30" x="519.201172"/>
       <use xlink:href="#DejaVuSans-31" x="582.824219"/>
      </g>
     </g>
    </g>
    <g id="xtick_2">
     <g id="line2d_2">
      <g>
       <use xlink:href="#m7f53c9301e" x="97.150605" y="178.737812" style="stroke: #000000; stroke-width: 0.8"/>
      </g>
     </g>
     <g id="text_2">
      <!-- 2020-Dec-01 -->
      <g transform="translate(40.042383 224.689346)rotate(-30)scale(0.1 -0.1)">
       <defs>
        <path id="DejaVuSans-44" d="M 1259 4147 
L 1259 519 
L 2022 519 
Q 2988 519 3436 956 
Q 3884 1394 3884 2338 
Q 3884 3275 3436 3711 
Q 2988 4147 2022 4147 
L 1259 4147 
z
M 628 4666 
L 1925 4666 
Q 3281 4666 3915 4102 
Q 4550 3538 4550 2338 
Q 4550 1131 3912 565 
Q 3275 0 1925 0 
L 628 0 
L 628 4666 
z
" transform="scale(0.015625)"/>
        <path id="DejaVuSans-65" d="M 3597 1894 
L 3597 1613 
L 953 1613 
Q 991 1019 1311 708 
Q 1631 397 2203 397 
Q 2534 397 2845 478 
Q 3156 559 3463 722 
L 3463 178 
Q 3153 47 2828 -22 
Q 2503 -91 2169 -91 
Q 1331 -91 842 396 
Q 353 884 353 1716 
Q 353 2575 817 3079 
Q 1281 3584 2069 3584 
Q 2775 3584 3186 3129 
Q 3597 2675 3597 1894 
z
M 3022 2063 
Q 3016 2534 2758 2815 
Q 2500 3097 2075 3097 
Q 1594 3097 1305 2825 
Q 1016 2553 972 2059 
L 3022 2063 
z
" transform="scale(0.015625)"/>
        <path id="DejaVuSans-63" d="M 3122 3366 
L 3122 2828 
Q 2878 2963 2633 3030 
Q 2388 3097 2138 3097 
Q 1578 3097 1268 2742 
Q 959 2388 959 1747 
Q 959 1106 1268 751 
Q 1578 397 2138 397 
Q 2388 397 2633 464 
Q 2878 531 3122 666 
L 3122 134 
Q 2881 22 2623 -34 
Q 2366 -91 2075 -91 
Q 1284 -91 818 406 
Q 353 903 353 1747 
Q 353 2603 823 3093 
Q 1294 3584 2113 3584 
Q 2378 3584 2631 3529 
Q 2884 3475 3122 3366 
z
" transform="scale(0.015625)"/>
       </defs>
       <use xlink:href="#DejaVuSans-32"/>
       <use xlink:href="#DejaVuSans-30" x="63.623047"/>
       <use xlink:href="#DejaVuSans-32" x="127.246094"/>
       <use xlink:href="#DejaVuSans-30" x="190.869141"/>
       <use xlink:href="#DejaVuSans-2d" x="254.492188"/>
       <use xlink:href="#DejaVuSans-44" x="290.576172"/>
       <use xlink:href="#DejaVuSans-65" x="367.578125"/>
       <use xlink:href="#DejaVuSans-63" x="429.101562"/>
       <use xlink:href="#DejaVuSans-2d" x="484.082031"/>
       <use xlink:href="#DejaVuSans-30" x="520.166016"/>
       <use xlink:href="#DejaVuSans-31" x="583.789062"/>
      </g>
     </g>
    </g>
    <g id="xtick_3">
     <g id="line2d_3">
      <g>
       <use xlink:href="#m7f53c9301e" x="127.247169" y="178.737812" style="stroke: #000000; stroke-width: 0.8"/>
      </g>
     </g>
     <g id="text_3">
      <!-- 2021-Jan-01 -->
      <g transform="translate(73.060429 223.002627)rotate(-30)scale(0.1 -0.1)">
       <defs>
        <path id="DejaVuSans-4a" d="M 628 4666 
L 1259 4666 
L 1259 325 
Q 1259 -519 939 -900 
Q 619 -1281 -91 -1281 
L -331 -1281 
L -331 -750 
L -134 -750 
Q 284 -750 456 -515 
Q 628 -281 628 325 
L 628 4666 
z
" transform="scale(0.015625)"/>
        <path id="DejaVuSans-61" d="M 2194 1759 
Q 1497 1759 1228 1600 
Q 959 1441 959 1056 
Q 959 750 1161 570 
Q 1363 391 1709 391 
Q 2188 391 2477 730 
Q 2766 1069 2766 1631 
L 2766 1759 
L 2194 1759 
z
M 3341 1997 
L 3341 0 
L 2766 0 
L 2766 531 
Q 2569 213 2275 61 
Q 1981 -91 1556 -91 
Q 1019 -91 701 211 
Q 384 513 384 1019 
Q 384 1609 779 1909 
Q 1175 2209 1959 2209 
L 2766 2209 
L 2766 2266 
Q 2766 2663 2505 2880 
Q 2244 3097 1772 3097 
Q 1472 3097 1187 3025 
Q 903 2953 641 2809 
L 641 3341 
Q 956 3463 1253 3523 
Q 1550 3584 1831 3584 
Q 2591 3584 2966 3190 
Q 3341 2797 3341 1997 
z
" transform="scale(0.015625)"/>
        <path id="DejaVuSans-6e" d="M 3513 2113 
L 3513 0 
L 2938 0 
L 2938 2094 
Q 2938 2591 2744 2837 
Q 2550 3084 2163 3084 
Q 1697 3084 1428 2787 
Q 1159 2491 1159 1978 
L 1159 0 
L 581 0 
L 581 3500 
L 1159 3500 
L 1159 2956 
Q 1366 3272 1645 3428 
Q 1925 3584 2291 3584 
Q 2894 3584 3203 3211 
Q 3513 2838 3513 2113 
z
" transform="scale(0.015625)"/>
       </defs>
       <use xlink:href="#DejaVuSans-32"/>
       <use xlink:href="#DejaVuSans-30" x="63.623047"/>
       <use xlink:href="#DejaVuSans-32" x="127.246094"/>
       <use xlink:href="#DejaVuSans-31" x="190.869141"/>
       <use xlink:href="#DejaVuSans-2d" x="254.492188"/>
       <use xlink:href="#DejaVuSans-4a" x="296.201172"/>
       <use xlink:href="#DejaVuSans-61" x="325.693359"/>
       <use xlink:href="#DejaVuSans-6e" x="386.972656"/>
       <use xlink:href="#DejaVuSans-2d" x="450.351562"/>
       <use xlink:href="#DejaVuSans-30" x="486.435547"/>
       <use xlink:href="#DejaVuSans-31" x="550.058594"/>
      </g>
     </g>
    </g>
    <g id="xtick_4">
     <g id="line2d_4">
      <g>
       <use xlink:href="#m7f53c9301e" x="157.343733" y="178.737812" style="stroke: #000000; stroke-width: 0.8"/>
      </g>
     </g>
     <g id="text_4">
      <!-- 2021-Feb-01 -->
      <g transform="translate(101.663099 223.865127)rotate(-30)scale(0.1 -0.1)">
       <defs>
        <path id="DejaVuSans-46" d="M 628 4666 
L 3309 4666 
L 3309 4134 
L 1259 4134 
L 1259 2759 
L 3109 2759 
L 3109 2228 
L 1259 2228 
L 1259 0 
L 628 0 
L 628 4666 
z
" transform="scale(0.015625)"/>
        <path id="DejaVuSans-62" d="M 3116 1747 
Q 3116 2381 2855 2742 
Q 2594 3103 2138 3103 
Q 1681 3103 1420 2742 
Q 1159 2381 1159 1747 
Q 1159 1113 1420 752 
Q 1681 391 2138 391 
Q 2594 391 2855 752 
Q 3116 1113 3116 1747 
z
M 1159 2969 
Q 1341 3281 1617 3432 
Q 1894 3584 2278 3584 
Q 2916 3584 3314 3078 
Q 3713 2572 3713 1747 
Q 3713 922 3314 415 
Q 2916 -91 2278 -91 
Q 1894 -91 1617 61 
Q 1341 213 1159 525 
L 1159 0 
L 581 0 
L 581 4863 
L 1159 4863 
L 1159 2969 
z
" transform="scale(0.015625)"/>
       </defs>
       <use xlink:href="#DejaVuSans-32"/>
       <use xlink:href="#DejaVuSans-30" x="63.623047"/>
       <use xlink:href="#DejaVuSans-32" x="127.246094"/>
       <use xlink:href="#DejaVuSans-31" x="190.869141"/>
       <use xlink:href="#DejaVuSans-2d" x="254.492188"/>
       <use xlink:href="#DejaVuSans-46" x="290.576172"/>
       <use xlink:href="#DejaVuSans-65" x="342.595703"/>
       <use xlink:href="#DejaVuSans-62" x="404.119141"/>
       <use xlink:href="#DejaVuSans-2d" x="467.595703"/>
       <use xlink:href="#DejaVuSans-30" x="503.679688"/>
       <use xlink:href="#DejaVuSans-31" x="567.302734"/>
      </g>
     </g>
    </g>
    <g id="xtick_5">
     <g id="line2d_5">
      <g>
       <use xlink:href="#m7f53c9301e" x="184.527726" y="178.737812" style="stroke: #000000; stroke-width: 0.8"/>
      </g>
     </g>
     <g id="text_5">
      <!-- 2021-Mar-01 -->
      <g transform="translate(128.391075 224.128409)rotate(-30)scale(0.1 -0.1)">
       <defs>
        <path id="DejaVuSans-4d" d="M 628 4666 
L 1569 4666 
L 2759 1491 
L 3956 4666 
L 4897 4666 
L 4897 0 
L 4281 0 
L 4281 4097 
L 3078 897 
L 2444 897 
L 1241 4097 
L 1241 0 
L 628 0 
L 628 4666 
z
" transform="scale(0.015625)"/>
        <path id="DejaVuSans-72" d="M 2631 2963 
Q 2534 3019 2420 3045 
Q 2306 3072 2169 3072 
Q 1681 3072 1420 2755 
Q 1159 2438 1159 1844 
L 1159 0 
L 581 0 
L 581 3500 
L 1159 3500 
L 1159 2956 
Q 1341 3275 1631 3429 
Q 1922 3584 2338 3584 
Q 2397 3584 2469 3576 
Q 2541 3569 2628 3553 
L 2631 2963 
z
" transform="scale(0.015625)"/>
       </defs>
       <use xlink:href="#DejaVuSans-32"/>
       <use xlink:href="#DejaVuSans-30" x="63.623047"/>
       <use xlink:href="#DejaVuSans-32" x="127.246094"/>
       <use xlink:href="#DejaVuSans-31" x="190.869141"/>
       <use xlink:href="#DejaVuSans-2d" x="254.492188"/>
       <use xlink:href="#DejaVuSans-4d" x="290.576172"/>
       <use xlink:href="#DejaVuSans-61" x="376.855469"/>
       <use xlink:href="#DejaVuSans-72" x="438.134766"/>
       <use xlink:href="#DejaVuSans-2d" x="472.873047"/>
       <use xlink:href="#DejaVuSans-30" x="508.957031"/>
       <use xlink:href="#DejaVuSans-31" x="572.580078"/>
      </g>
     </g>
    </g>
    <g id="xtick_6">
     <g id="line2d_6">
      <g>
       <use xlink:href="#m7f53c9301e" x="214.62429" y="178.737812" style="stroke: #000000; stroke-width: 0.8"/>
      </g>
     </g>
     <g id="text_6">
      <!-- 2021-Apr-01 -->
      <g transform="translate(160.039719 223.232315)rotate(-30)scale(0.1 -0.1)">
       <defs>
        <path id="DejaVuSans-41" d="M 2188 4044 
L 1331 1722 
L 3047 1722 
L 2188 4044 
z
M 1831 4666 
L 2547 4666 
L 4325 0 
L 3669 0 
L 3244 1197 
L 1141 1197 
L 716 0 
L 50 0 
L 1831 4666 
z
" transform="scale(0.015625)"/>
        <path id="DejaVuSans-70" d="M 1159 525 
L 1159 -1331 
L 581 -1331 
L 581 3500 
L 1159 3500 
L 1159 2969 
Q 1341 3281 1617 3432 
Q 1894 3584 2278 3584 
Q 2916 3584 3314 3078 
Q 3713 2572 3713 1747 
Q 3713 922 3314 415 
Q 2916 -91 2278 -91 
Q 1894 -91 1617 61 
Q 1341 213 1159 525 
z
M 3116 1747 
Q 3116 2381 2855 2742 
Q 2594 3103 2138 3103 
Q 1681 3103 1420 2742 
Q 1159 2381 1159 1747 
Q 1159 1113 1420 752 
Q 1681 391 2138 391 
Q 2594 391 2855 752 
Q 3116 1113 3116 1747 
z
" transform="scale(0.015625)"/>
       </defs>
       <use xlink:href="#DejaVuSans-32"/>
       <use xlink:href="#DejaVuSans-30" x="63.623047"/>
       <use xlink:href="#DejaVuSans-32" x="127.246094"/>
       <use xlink:href="#DejaVuSans-31" x="190.869141"/>
       <use xlink:href="#DejaVuSans-2d" x="254.492188"/>
       <use xlink:href="#DejaVuSans-41" x="288.326172"/>
       <use xlink:href="#DejaVuSans-70" x="356.734375"/>
       <use xlink:href="#DejaVuSans-72" x="420.210938"/>
       <use xlink:href="#DejaVuSans-2d" x="454.949219"/>
       <use xlink:href="#DejaVuSans-30" x="491.033203"/>
       <use xlink:href="#DejaVuSans-31" x="554.65625"/>
      </g>
     </g>
    </g>
    <g id="xtick_7">
     <g id="line2d_7">
      <g>
       <use xlink:href="#m7f53c9301e" x="243.749996" y="178.737812" style="stroke: #000000; stroke-width: 0.8"/>
      </g>
     </g>
     <g id="text_7">
      <!-- 2021-May-01 -->
      <g transform="translate(185.647198 225.263565)rotate(-30)scale(0.1 -0.1)">
       <defs>
        <path id="DejaVuSans-79" d="M 2059 -325 
Q 1816 -950 1584 -1140 
Q 1353 -1331 966 -1331 
L 506 -1331 
L 506 -850 
L 844 -850 
Q 1081 -850 1212 -737 
Q 1344 -625 1503 -206 
L 1606 56 
L 191 3500 
L 800 3500 
L 1894 763 
L 2988 3500 
L 3597 3500 
L 2059 -325 
z
" transform="scale(0.015625)"/>
       </defs>
       <use xlink:href="#DejaVuSans-32"/>
       <use xlink:href="#DejaVuSans-30" x="63.623047"/>
       <use xlink:href="#DejaVuSans-32" x="127.246094"/>
       <use xlink:href="#DejaVuSans-31" x="190.869141"/>
       <use xlink:href="#DejaVuSans-2d" x="254.492188"/>
       <use xlink:href="#DejaVuSans-4d" x="290.576172"/>
       <use xlink:href="#DejaVuSans-61" x="376.855469"/>
       <use xlink:href="#DejaVuSans-79" x="438.134766"/>
       <use xlink:href="#DejaVuSans-2d" x="495.564453"/>
       <use xlink:href="#DejaVuSans-30" x="531.648438"/>
       <use xlink:href="#DejaVuSans-31" x="595.271484"/>
      </g>
     </g>
    </g>
    <g id="xtick_8">
     <g id="line2d_8">
      <g>
       <use xlink:href="#m7f53c9301e" x="273.84656" y="178.737812" style="stroke: #000000; stroke-width: 0.8"/>
      </g>
     </g>
     <g id="text_8">
      <!-- 2021-Jun-01 -->
      <g transform="translate(219.478496 223.107315)rotate(-30)scale(0.1 -0.1)">
       <defs>
        <path id="DejaVuSans-75" d="M 544 1381 
L 544 3500 
L 1119 3500 
L 1119 1403 
Q 1119 906 1312 657 
Q 1506 409 1894 409 
Q 2359 409 2629 706 
Q 2900 1003 2900 1516 
L 2900 3500 
L 3475 3500 
L 3475 0 
L 2900 0 
L 2900 538 
Q 2691 219 2414 64 
Q 2138 -91 1772 -91 
Q 1169 -91 856 284 
Q 544 659 544 1381 
z
M 1991 3584 
L 1991 3584 
z
" transform="scale(0.015625)"/>
       </defs>
       <use xlink:href="#DejaVuSans-32"/>
       <use xlink:href="#DejaVuSans-30" x="63.623047"/>
       <use xlink:href="#DejaVuSans-32" x="127.246094"/>
       <use xlink:href="#DejaVuSans-31" x="190.869141"/>
       <use xlink:href="#DejaVuSans-2d" x="254.492188"/>
       <use xlink:href="#DejaVuSans-4a" x="296.201172"/>
       <use xlink:href="#DejaVuSans-75" x="325.693359"/>
       <use xlink:href="#DejaVuSans-6e" x="389.072266"/>
       <use xlink:href="#DejaVuSans-2d" x="452.451172"/>
       <use xlink:href="#DejaVuSans-30" x="488.535156"/>
       <use xlink:href="#DejaVuSans-31" x="552.158203"/>
      </g>
     </g>
    </g>
    <g id="xtick_9">
     <g id="line2d_9">
      <g>
       <use xlink:href="#m7f53c9301e" x="302.972267" y="178.737812" style="stroke: #000000; stroke-width: 0.8"/>
      </g>
     </g>
     <g id="text_9">
      <!-- 2021-Jul-01 -->
      <g transform="translate(251.686712 221.327627)rotate(-30)scale(0.1 -0.1)">
       <defs>
        <path id="DejaVuSans-6c" d="M 603 4863 
L 1178 4863 
L 1178 0 
L 603 0 
L 603 4863 
z
" transform="scale(0.015625)"/>
       </defs>
       <use xlink:href="#DejaVuSans-32"/>
       <use xlink:href="#DejaVuSans-30" x="63.623047"/>
       <use xlink:href="#DejaVuSans-32" x="127.246094"/>
       <use xlink:href="#DejaVuSans-31" x="190.869141"/>
       <use xlink:href="#DejaVuSans-2d" x="254.492188"/>
       <use xlink:href="#DejaVuSans-4a" x="296.201172"/>
       <use xlink:href="#DejaVuSans-75" x="325.693359"/>
       <use xlink:href="#DejaVuSans-6c" x="389.072266"/>
       <use xlink:href="#DejaVuSans-2d" x="416.855469"/>
       <use xlink:href="#DejaVuSans-30" x="452.939453"/>
       <use xlink:href="#DejaVuSans-31" x="516.5625"/>
      </g>
     </g>
    </g>
    <g id="xtick_10">
     <g id="line2d_10">
      <g>
       <use xlink:href="#m7f53c9301e" x="333.068831" y="178.737812" style="stroke: #000000; stroke-width: 0.8"/>
      </g>
     </g>
     <g id="text_10">
      <!-- 2021-Aug-01 -->
      <g transform="translate(276.003909 224.664346)rotate(-30)scale(0.1 -0.1)">
       <defs>
        <path id="DejaVuSans-67" d="M 2906 1791 
Q 2906 2416 2648 2759 
Q 2391 3103 1925 3103 
Q 1463 3103 1205 2759 
Q 947 2416 947 1791 
Q 947 1169 1205 825 
Q 1463 481 1925 481 
Q 2391 481 2648 825 
Q 2906 1169 2906 1791 
z
M 3481 434 
Q 3481 -459 3084 -895 
Q 2688 -1331 1869 -1331 
Q 1566 -1331 1297 -1286 
Q 1028 -1241 775 -1147 
L 775 -588 
Q 1028 -725 1275 -790 
Q 1522 -856 1778 -856 
Q 2344 -856 2625 -561 
Q 2906 -266 2906 331 
L 2906 616 
Q 2728 306 2450 153 
Q 2172 0 1784 0 
Q 1141 0 747 490 
Q 353 981 353 1791 
Q 353 2603 747 3093 
Q 1141 3584 1784 3584 
Q 2172 3584 2450 3431 
Q 2728 3278 2906 2969 
L 2906 3500 
L 3481 3500 
L 3481 434 
z
" transform="scale(0.015625)"/>
       </defs>
       <use xlink:href="#DejaVuSans-32"/>
       <use xlink:href="#DejaVuSans-30" x="63.623047"/>
       <use xlink:href="#DejaVuSans-32" x="127.246094"/>
       <use xlink:href="#DejaVuSans-31" x="190.869141"/>
       <use xlink:href="#DejaVuSans-2d" x="254.492188"/>
       <use xlink:href="#DejaVuSans-41" x="288.326172"/>
       <use xlink:href="#DejaVuSans-75" x="356.734375"/>
       <use xlink:href="#DejaVuSans-67" x="420.113281"/>
       <use xlink:href="#DejaVuSans-2d" x="483.589844"/>
       <use xlink:href="#DejaVuSans-30" x="519.673828"/>
       <use xlink:href="#DejaVuSans-31" x="583.296875"/>
      </g>
     </g>
    </g>
    <g id="xtick_11">
     <g id="line2d_11">
      <g>
       <use xlink:href="#m7f53c9301e" x="363.165394" y="178.737812" style="stroke: #000000; stroke-width: 0.8"/>
      </g>
     </g>
     <g id="text_11">
      <!-- 2021-Sep-01 -->
      <g transform="translate(306.491537 224.438565)rotate(-30)scale(0.1 -0.1)">
       <defs>
        <path id="DejaVuSans-53" d="M 3425 4513 
L 3425 3897 
Q 3066 4069 2747 4153 
Q 2428 4238 2131 4238 
Q 1616 4238 1336 4038 
Q 1056 3838 1056 3469 
Q 1056 3159 1242 3001 
Q 1428 2844 1947 2747 
L 2328 2669 
Q 3034 2534 3370 2195 
Q 3706 1856 3706 1288 
Q 3706 609 3251 259 
Q 2797 -91 1919 -91 
Q 1588 -91 1214 -16 
Q 841 59 441 206 
L 441 856 
Q 825 641 1194 531 
Q 1563 422 1919 422 
Q 2459 422 2753 634 
Q 3047 847 3047 1241 
Q 3047 1584 2836 1778 
Q 2625 1972 2144 2069 
L 1759 2144 
Q 1053 2284 737 2584 
Q 422 2884 422 3419 
Q 422 4038 858 4394 
Q 1294 4750 2059 4750 
Q 2388 4750 2728 4690 
Q 3069 4631 3425 4513 
z
" transform="scale(0.015625)"/>
       </defs>
       <use xlink:href="#DejaVuSans-32"/>
       <use xlink:href="#DejaVuSans-30" x="63.623047"/>
       <use xlink:href="#DejaVuSans-32" x="127.246094"/>
       <use xlink:href="#DejaVuSans-31" x="190.869141"/>
       <use xlink:href="#DejaVuSans-2d" x="254.492188"/>
       <use xlink:href="#DejaVuSans-53" x="290.576172"/>
       <use xlink:href="#DejaVuSans-65" x="354.052734"/>
       <use xlink:href="#DejaVuSans-70" x="415.576172"/>
       <use xlink:href="#DejaVuSans-2d" x="479.052734"/>
       <use xlink:href="#DejaVuSans-30" x="515.136719"/>
       <use xlink:href="#DejaVuSans-31" x="578.759766"/>
      </g>
     </g>
    </g>
    <g id="xtick_12">
     <g id="line2d_12">
      <g>
       <use xlink:href="#m7f53c9301e" x="392.291101" y="178.737812" style="stroke: #000000; stroke-width: 0.8"/>
      </g>
     </g>
     <g id="text_12">
      <!-- 2021-Oct-01 -->
      <g transform="translate(336.729546 223.796377)rotate(-30)scale(0.1 -0.1)">
       <defs>
        <path id="DejaVuSans-4f" d="M 2522 4238 
Q 1834 4238 1429 3725 
Q 1025 3213 1025 2328 
Q 1025 1447 1429 934 
Q 1834 422 2522 422 
Q 3209 422 3611 934 
Q 4013 1447 4013 2328 
Q 4013 3213 3611 3725 
Q 3209 4238 2522 4238 
z
M 2522 4750 
Q 3503 4750 4090 4092 
Q 4678 3434 4678 2328 
Q 4678 1225 4090 567 
Q 3503 -91 2522 -91 
Q 1538 -91 948 565 
Q 359 1222 359 2328 
Q 359 3434 948 4092 
Q 1538 4750 2522 4750 
z
" transform="scale(0.015625)"/>
        <path id="DejaVuSans-74" d="M 1172 4494 
L 1172 3500 
L 2356 3500 
L 2356 3053 
L 1172 3053 
L 1172 1153 
Q 1172 725 1289 603 
Q 1406 481 1766 481 
L 2356 481 
L 2356 0 
L 1766 0 
Q 1100 0 847 248 
Q 594 497 594 1153 
L 594 3053 
L 172 3053 
L 172 3500 
L 594 3500 
L 594 4494 
L 1172 4494 
z
" transform="scale(0.015625)"/>
       </defs>
       <use xlink:href="#DejaVuSans-32"/>
       <use xlink:href="#DejaVuSans-30" x="63.623047"/>
       <use xlink:href="#DejaVuSans-32" x="127.246094"/>
       <use xlink:href="#DejaVuSans-31" x="190.869141"/>
       <use xlink:href="#DejaVuSans-2d" x="254.492188"/>
       <use xlink:href="#DejaVuSans-4f" x="293.326172"/>
       <use xlink:href="#DejaVuSans-63" x="372.037109"/>
       <use xlink:href="#DejaVuSans-74" x="427.017578"/>
       <use xlink:href="#DejaVuSans-2d" x="466.226562"/>
       <use xlink:href="#DejaVuSans-30" x="502.310547"/>
       <use xlink:href="#DejaVuSans-31" x="565.933594"/>
      </g>
     </g>
    </g>
    <g id="xtick_13">
     <g id="line2d_13">
      <g>
       <use xlink:href="#m7f53c9301e" x="422.387665" y="178.737812" style="stroke: #000000; stroke-width: 0.8"/>
      </g>
     </g>
     <g id="text_13">
      <!-- 2021-Nov-01 -->
      <g transform="translate(365.361985 224.64169)rotate(-30)scale(0.1 -0.1)">
       <use xlink:href="#DejaVuSans-32"/>
       <use xlink:href="#DejaVuSans-30" x="63.623047"/>
       <use xlink:href="#DejaVuSans-32" x="127.246094"/>
       <use xlink:href="#DejaVuSans-31" x="190.869141"/>
       <use xlink:href="#DejaVuSans-2d" x="254.492188"/>
       <use xlink:href="#DejaVuSans-4e" x="290.576172"/>
       <use xlink:href="#DejaVuSans-6f" x="365.380859"/>
       <use xlink:href="#DejaVuSans-76" x="426.5625"/>
       <use xlink:href="#DejaVuSans-2d" x="483.117188"/>
       <use xlink:href="#DejaVuSans-30" x="519.201172"/>
       <use xlink:href="#DejaVuSans-31" x="582.824219"/>
      </g>
     </g>
    </g>
    <g id="xtick_14">
     <g id="line2d_14">
      <g>
       <use xlink:href="#m7f53c9301e" x="451.513372" y="178.737812" style="stroke: #000000; stroke-width: 0.8"/>
      </g>
     </g>
     <g id="text_14">
      <!-- 2021-Dec-01 -->
      <g transform="translate(394.405149 224.689346)rotate(-30)scale(0.1 -0.1)">
       <use xlink:href="#DejaVuSans-32"/>
       <use xlink:href="#DejaVuSans-30" x="63.623047"/>
       <use xlink:href="#DejaVuSans-32" x="127.246094"/>
       <use xlink:href="#DejaVuSans-31" x="190.869141"/>
       <use xlink:href="#DejaVuSans-2d" x="254.492188"/>
       <use xlink:href="#DejaVuSans-44" x="290.576172"/>
       <use xlink:href="#DejaVuSans-65" x="367.578125"/>
       <use xlink:href="#DejaVuSans-63" x="429.101562"/>
       <use xlink:href="#DejaVuSans-2d" x="484.082031"/>
       <use xlink:href="#DejaVuSans-30" x="520.166016"/>
       <use xlink:href="#DejaVuSans-31" x="583.789062"/>
      </g>
     </g>
    </g>
    <g id="xtick_15">
     <g id="line2d_15">
      <g>
       <use xlink:href="#m7f53c9301e" x="481.609935" y="178.737812" style="stroke: #000000; stroke-width: 0.8"/>
      </g>
     </g>
     <g id="text_15">
      <!-- 2022-Jan-01 -->
      <g transform="translate(427.423195 223.002627)rotate(-30)scale(0.1 -0.1)">
       <use xlink:href="#DejaVuSans-32"/>
       <use xlink:href="#DejaVuSans-30" x="63.623047"/>
       <use xlink:href="#DejaVuSans-32" x="127.246094"/>
       <use xlink:href="#DejaVuSans-32" x="190.869141"/>
       <use xlink:href="#DejaVuSans-2d" x="254.492188"/>
       <use xlink:href="#DejaVuSans-4a" x="296.201172"/>
       <use xlink:href="#DejaVuSans-61" x="325.693359"/>
       <use xlink:href="#DejaVuSans-6e" x="386.972656"/>
       <use xlink:href="#DejaVuSans-2d" x="450.351562"/>
       <use xlink:href="#DejaVuSans-30" x="486.435547"/>
       <use xlink:href="#DejaVuSans-31" x="550.058594"/>
      </g>
     </g>
    </g>
   </g>
   <g id="matplotlib.axis_2">
    <g id="ytick_1">
     <g id="line2d_16">
      <path d="M 53.559131 156.847947 
L 499.959131 156.847947 
" clip-path="url(#p576783f1af)" style="fill: none; stroke: #b0b0b0; stroke-width: 0.8; stroke-linecap: square"/>
     </g>
     <g id="line2d_17">
      <defs>
       <path id="mbe2f5d193b" d="M 0 0 
L -3.5 0 
" style="stroke: #000000; stroke-width: 0.8"/>
      </defs>
      <g>
       <use xlink:href="#mbe2f5d193b" x="53.559131" y="156.847947" style="stroke: #000000; stroke-width: 0.8"/>
      </g>
     </g>
     <g id="text_16">
      <!-- 20 -->
      <g transform="translate(33.834131 160.647166)scale(0.1 -0.1)">
       <use xlink:href="#DejaVuSans-32"/>
       <use xlink:href="#DejaVuSans-30" x="63.623047"/>
      </g>
     </g>
    </g>
    <g id="ytick_2">
     <g id="line2d_18">
      <path d="M 53.559131 124.276921 
L 499.959131 124.276921 
" clip-path="url(#p576783f1af)" style="fill: none; stroke: #b0b0b0; stroke-width: 0.8; stroke-linecap: square"/>
     </g>
     <g id="line2d_19">
      <g>
       <use xlink:href="#mbe2f5d193b" x="53.559131" y="124.276921" style="stroke: #000000; stroke-width: 0.8"/>
      </g>
     </g>
     <g id="text_17">
      <!-- 30 -->
      <g transform="translate(33.834131 128.07614)scale(0.1 -0.1)">
       <defs>
        <path id="DejaVuSans-33" d="M 2597 2516 
Q 3050 2419 3304 2112 
Q 3559 1806 3559 1356 
Q 3559 666 3084 287 
Q 2609 -91 1734 -91 
Q 1441 -91 1130 -33 
Q 819 25 488 141 
L 488 750 
Q 750 597 1062 519 
Q 1375 441 1716 441 
Q 2309 441 2620 675 
Q 2931 909 2931 1356 
Q 2931 1769 2642 2001 
Q 2353 2234 1838 2234 
L 1294 2234 
L 1294 2753 
L 1863 2753 
Q 2328 2753 2575 2939 
Q 2822 3125 2822 3475 
Q 2822 3834 2567 4026 
Q 2313 4219 1838 4219 
Q 1578 4219 1281 4162 
Q 984 4106 628 3988 
L 628 4550 
Q 988 4650 1302 4700 
Q 1616 4750 1894 4750 
Q 2613 4750 3031 4423 
Q 3450 4097 3450 3541 
Q 3450 3153 3228 2886 
Q 3006 2619 2597 2516 
z
" transform="scale(0.015625)"/>
       </defs>
       <use xlink:href="#DejaVuSans-33"/>
       <use xlink:href="#DejaVuSans-30" x="63.623047"/>
      </g>
     </g>
    </g>
    <g id="ytick_3">
     <g id="line2d_20">
      <path d="M 53.559131 91.705896 
L 499.959131 91.705896 
" clip-path="url(#p576783f1af)" style="fill: none; stroke: #b0b0b0; stroke-width: 0.8; stroke-linecap: square"/>
     </g>
     <g id="line2d_21">
      <g>
       <use xlink:href="#mbe2f5d193b" x="53.559131" y="91.705896" style="stroke: #000000; stroke-width: 0.8"/>
      </g>
     </g>
     <g id="text_18">
      <!-- 40 -->
      <g transform="translate(33.834131 95.505114)scale(0.1 -0.1)">
       <defs>
        <path id="DejaVuSans-34" d="M 2419 4116 
L 825 1625 
L 2419 1625 
L 2419 4116 
z
M 2253 4666 
L 3047 4666 
L 3047 1625 
L 3713 1625 
L 3713 1100 
L 3047 1100 
L 3047 0 
L 2419 0 
L 2419 1100 
L 313 1100 
L 313 1709 
L 2253 4666 
z
" transform="scale(0.015625)"/>
       </defs>
       <use xlink:href="#DejaVuSans-34"/>
       <use xlink:href="#DejaVuSans-30" x="63.623047"/>
      </g>
     </g>
    </g>
    <g id="ytick_4">
     <g id="line2d_22">
      <path d="M 53.559131 59.13487 
L 499.959131 59.13487 
" clip-path="url(#p576783f1af)" style="fill: none; stroke: #b0b0b0; stroke-width: 0.8; stroke-linecap: square"/>
     </g>
     <g id="line2d_23">
      <g>
       <use xlink:href="#mbe2f5d193b" x="53.559131" y="59.13487" style="stroke: #000000; stroke-width: 0.8"/>
      </g>
     </g>
     <g id="text_19">
      <!-- 50 -->
      <g transform="translate(33.834131 62.934088)scale(0.1 -0.1)">
       <defs>
        <path id="DejaVuSans-35" d="M 691 4666 
L 3169 4666 
L 3169 4134 
L 1269 4134 
L 1269 2991 
Q 1406 3038 1543 3061 
Q 1681 3084 1819 3084 
Q 2600 3084 3056 2656 
Q 3513 2228 3513 1497 
Q 3513 744 3044 326 
Q 2575 -91 1722 -91 
Q 1428 -91 1123 -41 
Q 819 9 494 109 
L 494 744 
Q 775 591 1075 516 
Q 1375 441 1709 441 
Q 2250 441 2565 725 
Q 2881 1009 2881 1497 
Q 2881 1984 2565 2268 
Q 2250 2553 1709 2553 
Q 1456 2553 1204 2497 
Q 953 2441 691 2322 
L 691 4666 
z
" transform="scale(0.015625)"/>
       </defs>
       <use xlink:href="#DejaVuSans-35"/>
       <use xlink:href="#DejaVuSans-30" x="63.623047"/>
      </g>
     </g>
    </g>
    <g id="ytick_5">
     <g id="line2d_24">
      <path d="M 53.559131 26.563844 
L 499.959131 26.563844 
" clip-path="url(#p576783f1af)" style="fill: none; stroke: #b0b0b0; stroke-width: 0.8; stroke-linecap: square"/>
     </g>
     <g id="line2d_25">
      <g>
       <use xlink:href="#mbe2f5d193b" x="53.559131" y="26.563844" style="stroke: #000000; stroke-width: 0.8"/>
      </g>
     </g>
     <g id="text_20">
      <!-- 60 -->
      <g transform="translate(33.834131 30.363063)scale(0.1 -0.1)">
       <defs>
        <path id="DejaVuSans-36" d="M 2113 2584 
Q 1688 2584 1439 2293 
Q 1191 2003 1191 1497 
Q 1191 994 1439 701 
Q 1688 409 2113 409 
Q 2538 409 2786 701 
Q 3034 994 3034 1497 
Q 3034 2003 2786 2293 
Q 2538 2584 2113 2584 
z
M 3366 4563 
L 3366 3988 
Q 3128 4100 2886 4159 
Q 2644 4219 2406 4219 
Q 1781 4219 1451 3797 
Q 1122 3375 1075 2522 
Q 1259 2794 1537 2939 
Q 1816 3084 2150 3084 
Q 2853 3084 3261 2657 
Q 3669 2231 3669 1497 
Q 3669 778 3244 343 
Q 2819 -91 2113 -91 
Q 1303 -91 875 529 
Q 447 1150 447 2328 
Q 447 3434 972 4092 
Q 1497 4750 2381 4750 
Q 2619 4750 2861 4703 
Q 3103 4656 3366 4563 
z
" transform="scale(0.015625)"/>
       </defs>
       <use xlink:href="#DejaVuSans-36"/>
       <use xlink:href="#DejaVuSans-30" x="63.623047"/>
      </g>
     </g>
    </g>
    <g id="text_21">
     <!-- Percentage Of Domains Using CSP -->
     <g transform="translate(27.754443 178.915625)rotate(-90)scale(0.1 -0.1)">
      <defs>
       <path id="DejaVuSans-50" d="M 1259 4147 
L 1259 2394 
L 2053 2394 
Q 2494 2394 2734 2622 
Q 2975 2850 2975 3272 
Q 2975 3691 2734 3919 
Q 2494 4147 2053 4147 
L 1259 4147 
z
M 628 4666 
L 2053 4666 
Q 2838 4666 3239 4311 
Q 3641 3956 3641 3272 
Q 3641 2581 3239 2228 
Q 2838 1875 2053 1875 
L 1259 1875 
L 1259 0 
L 628 0 
L 628 4666 
z
" transform="scale(0.015625)"/>
       <path id="DejaVuSans-20" transform="scale(0.015625)"/>
       <path id="DejaVuSans-66" d="M 2375 4863 
L 2375 4384 
L 1825 4384 
Q 1516 4384 1395 4259 
Q 1275 4134 1275 3809 
L 1275 3500 
L 2222 3500 
L 2222 3053 
L 1275 3053 
L 1275 0 
L 697 0 
L 697 3053 
L 147 3053 
L 147 3500 
L 697 3500 
L 697 3744 
Q 697 4328 969 4595 
Q 1241 4863 1831 4863 
L 2375 4863 
z
" transform="scale(0.015625)"/>
       <path id="DejaVuSans-6d" d="M 3328 2828 
Q 3544 3216 3844 3400 
Q 4144 3584 4550 3584 
Q 5097 3584 5394 3201 
Q 5691 2819 5691 2113 
L 5691 0 
L 5113 0 
L 5113 2094 
Q 5113 2597 4934 2840 
Q 4756 3084 4391 3084 
Q 3944 3084 3684 2787 
Q 3425 2491 3425 1978 
L 3425 0 
L 2847 0 
L 2847 2094 
Q 2847 2600 2669 2842 
Q 2491 3084 2119 3084 
Q 1678 3084 1418 2786 
Q 1159 2488 1159 1978 
L 1159 0 
L 581 0 
L 581 3500 
L 1159 3500 
L 1159 2956 
Q 1356 3278 1631 3431 
Q 1906 3584 2284 3584 
Q 2666 3584 2933 3390 
Q 3200 3197 3328 2828 
z
" transform="scale(0.015625)"/>
       <path id="DejaVuSans-69" d="M 603 3500 
L 1178 3500 
L 1178 0 
L 603 0 
L 603 3500 
z
M 603 4863 
L 1178 4863 
L 1178 4134 
L 603 4134 
L 603 4863 
z
" transform="scale(0.015625)"/>
       <path id="DejaVuSans-73" d="M 2834 3397 
L 2834 2853 
Q 2591 2978 2328 3040 
Q 2066 3103 1784 3103 
Q 1356 3103 1142 2972 
Q 928 2841 928 2578 
Q 928 2378 1081 2264 
Q 1234 2150 1697 2047 
L 1894 2003 
Q 2506 1872 2764 1633 
Q 3022 1394 3022 966 
Q 3022 478 2636 193 
Q 2250 -91 1575 -91 
Q 1294 -91 989 -36 
Q 684 19 347 128 
L 347 722 
Q 666 556 975 473 
Q 1284 391 1588 391 
Q 1994 391 2212 530 
Q 2431 669 2431 922 
Q 2431 1156 2273 1281 
Q 2116 1406 1581 1522 
L 1381 1569 
Q 847 1681 609 1914 
Q 372 2147 372 2553 
Q 372 3047 722 3315 
Q 1072 3584 1716 3584 
Q 2034 3584 2315 3537 
Q 2597 3491 2834 3397 
z
" transform="scale(0.015625)"/>
       <path id="DejaVuSans-55" d="M 556 4666 
L 1191 4666 
L 1191 1831 
Q 1191 1081 1462 751 
Q 1734 422 2344 422 
Q 2950 422 3222 751 
Q 3494 1081 3494 1831 
L 3494 4666 
L 4128 4666 
L 4128 1753 
Q 4128 841 3676 375 
Q 3225 -91 2344 -91 
Q 1459 -91 1007 375 
Q 556 841 556 1753 
L 556 4666 
z
" transform="scale(0.015625)"/>
       <path id="DejaVuSans-43" d="M 4122 4306 
L 4122 3641 
Q 3803 3938 3442 4084 
Q 3081 4231 2675 4231 
Q 1875 4231 1450 3742 
Q 1025 3253 1025 2328 
Q 1025 1406 1450 917 
Q 1875 428 2675 428 
Q 3081 428 3442 575 
Q 3803 722 4122 1019 
L 4122 359 
Q 3791 134 3420 21 
Q 3050 -91 2638 -91 
Q 1578 -91 968 557 
Q 359 1206 359 2328 
Q 359 3453 968 4101 
Q 1578 4750 2638 4750 
Q 3056 4750 3426 4639 
Q 3797 4528 4122 4306 
z
" transform="scale(0.015625)"/>
      </defs>
      <use xlink:href="#DejaVuSans-50"/>
      <use xlink:href="#DejaVuSans-65" x="56.677734"/>
      <use xlink:href="#DejaVuSans-72" x="118.201172"/>
      <use xlink:href="#DejaVuSans-63" x="157.064453"/>
      <use xlink:href="#DejaVuSans-65" x="212.044922"/>
      <use xlink:href="#DejaVuSans-6e" x="273.568359"/>
      <use xlink:href="#DejaVuSans-74" x="336.947266"/>
      <use xlink:href="#DejaVuSans-61" x="376.15625"/>
      <use xlink:href="#DejaVuSans-67" x="437.435547"/>
      <use xlink:href="#DejaVuSans-65" x="500.912109"/>
      <use xlink:href="#DejaVuSans-20" x="562.435547"/>
      <use xlink:href="#DejaVuSans-4f" x="594.222656"/>
      <use xlink:href="#DejaVuSans-66" x="672.933594"/>
      <use xlink:href="#DejaVuSans-20" x="708.138672"/>
      <use xlink:href="#DejaVuSans-44" x="739.925781"/>
      <use xlink:href="#DejaVuSans-6f" x="816.927734"/>
      <use xlink:href="#DejaVuSans-6d" x="878.109375"/>
      <use xlink:href="#DejaVuSans-61" x="975.521484"/>
      <use xlink:href="#DejaVuSans-69" x="1036.800781"/>
      <use xlink:href="#DejaVuSans-6e" x="1064.583984"/>
      <use xlink:href="#DejaVuSans-73" x="1127.962891"/>
      <use xlink:href="#DejaVuSans-20" x="1180.0625"/>
      <use xlink:href="#DejaVuSans-55" x="1211.849609"/>
      <use xlink:href="#DejaVuSans-73" x="1285.042969"/>
      <use xlink:href="#DejaVuSans-69" x="1337.142578"/>
      <use xlink:href="#DejaVuSans-6e" x="1364.925781"/>
      <use xlink:href="#DejaVuSans-67" x="1428.304688"/>
      <use xlink:href="#DejaVuSans-20" x="1491.78125"/>
      <use xlink:href="#DejaVuSans-43" x="1523.568359"/>
      <use xlink:href="#DejaVuSans-53" x="1593.392578"/>
      <use xlink:href="#DejaVuSans-50" x="1656.869141"/>
     </g>
    </g>
   </g>
   <g id="line2d_26">
    <path d="M 73.85004 29.240233 
L 74.820897 29.17892 
L 75.791754 29.254023 
L 76.762611 28.650836 
L 78.704324 28.842191 
L 79.675181 28.955151 
L 80.646038 29.525852 
L 81.616895 29.353748 
L 83.558609 29.147822 
L 84.529466 29.673418 
L 85.500323 29.603953 
L 86.47118 29.916323 
L 88.412893 29.582772 
L 91.325464 29.745342 
L 92.296321 29.243601 
L 94.238035 29.973603 
L 95.208892 29.645035 
L 96.179748 29.195934 
L 97.150605 29.308925 
L 98.121462 29.288866 
L 99.092319 29.005581 
L 100.063176 28.895453 
L 101.034033 29.087517 
L 102.00489 29.090477 
L 103.946604 29.377577 
L 104.917461 29.220931 
L 105.888317 29.441258 
L 107.830031 29.121574 
L 109.771745 28.99174 
L 110.742602 29.267282 
L 111.713459 29.207764 
L 112.684316 29.00119 
L 116.567743 28.802888 
L 117.5386 29.336577 
L 118.509457 29.131312 
L 122.392885 29.269738 
L 123.363742 29.048455 
L 124.334598 28.690966 
L 125.305455 29.222268 
L 127.247169 29.142507 
L 129.188883 29.194811 
L 130.15974 29.058937 
L 131.130597 29.17552 
L 132.101454 28.781446 
L 133.07231 28.606833 
L 134.043167 29.003177 
L 135.984881 29.061316 
L 136.955738 28.756267 
L 137.926595 28.833293 
L 140.839166 29.279491 
L 144.722593 29.393559 
L 145.69345 29.192149 
L 146.664307 29.491763 
L 147.635164 29.592742 
L 148.606021 29.519194 
L 157.343733 29.280329 
L 158.31459 29.04993 
L 160.256303 29.063643 
L 161.22716 28.65822 
L 162.198017 28.804623 
L 163.168874 28.593153 
L 164.139731 29.002949 
L 165.110588 28.78761 
L 166.081445 28.394983 
L 167.052302 29.021727 
L 168.023159 28.874076 
L 168.994016 29.15929 
L 170.935729 28.846395 
L 171.906586 29.068369 
L 172.877443 28.954786 
L 173.8483 29.240804 
L 174.819157 29.355473 
L 175.790014 29.173392 
L 176.760871 29.388084 
L 177.731728 28.857096 
L 178.702584 29.159866 
L 181.615155 29.114755 
L 183.556869 28.703707 
L 185.498583 29.304822 
L 186.46944 28.859058 
L 187.440297 28.824731 
L 188.411153 28.502267 
L 190.352867 29.031078 
L 191.323724 29.02011 
L 192.294581 28.864035 
L 195.207152 28.943284 
L 196.178009 28.429162 
L 197.148865 28.735505 
L 198.119722 28.685291 
L 214.62429 28.475659 
L 215.595146 28.143252 
L 216.566003 28.169391 
L 217.53686 28.473902 
L 219.478574 28.447634 
L 220.449431 28.852242 
L 221.420288 28.630653 
L 222.391145 28.218472 
L 223.362002 28.272291 
L 228.216286 28.102367 
L 231.128857 28.367421 
L 232.099714 28.36035 
L 233.070571 28.872071 
L 234.041427 28.450125 
L 236.953998 28.913472 
L 239.866569 28.819203 
L 240.837426 28.889686 
L 241.808283 28.756745 
L 245.69171 28.600106 
L 246.662567 28.444346 
L 247.633424 28.598396 
L 250.545995 28.438904 
L 251.516852 28.138165 
L 252.487708 28.526413 
L 253.458565 28.392087 
L 254.429422 28.623285 
L 255.400279 27.882948 
L 256.371136 27.70447 
L 257.341993 27.755467 
L 258.31285 28.259124 
L 259.283707 27.86366 
L 260.254564 27.833522 
L 261.22542 28.382994 
L 265.108848 28.215493 
L 266.079705 27.858411 
L 268.021419 28.068682 
L 269.963133 27.916042 
L 270.933989 27.453637 
L 271.904846 27.612529 
L 273.84656 27.40022 
L 274.817417 27.435038 
L 275.788274 27.869563 
L 276.759131 27.545004 
L 278.700845 27.543161 
L 279.671701 27.074159 
L 280.642558 27.168565 
L 281.613415 26.52912 
L 282.584272 26.705856 
L 283.555129 26.324593 
L 284.525986 26.581123 
L 285.496843 26.954745 
L 286.4677 26.626012 
L 288.409414 26.742654 
L 289.38027 26.622132 
L 290.351127 26.800375 
L 291.321984 26.707698 
L 292.292841 26.851492 
L 293.263698 26.881427 
L 294.234555 27.092899 
L 296.176269 26.727201 
L 299.088839 26.475576 
L 301.030553 26.736008 
L 305.884838 26.533658 
L 334.039688 25.302816 
L 335.010544 25.040459 
L 335.981401 25.046995 
L 336.952258 25.339702 
L 337.923115 25.036719 
L 338.893972 24.877637 
L 340.835686 25.110103 
L 341.806543 25.311868 
L 343.748257 24.610697 
L 345.68997 25.493742 
L 346.660827 25.13197 
L 347.631684 25.610929 
L 348.602541 25.306642 
L 349.573398 24.833253 
L 350.544255 24.744215 
L 368.990536 25.071259 
L 371.903106 24.712928 
L 372.873963 25.020737 
L 373.84482 24.76963 
L 374.815677 24.867171 
L 376.757391 24.706647 
L 378.699105 24.35967 
L 379.669962 24.711238 
L 380.640818 24.361984 
L 381.611675 24.605685 
L 382.582532 23.962203 
L 383.553389 24.250847 
L 384.524246 23.980289 
L 385.495103 24.057536 
L 388.407674 24.053553 
L 389.378531 24.177424 
L 390.349387 24.013242 
L 391.320244 24.523182 
L 392.291101 24.052628 
L 394.232815 24.056583 
L 395.203672 23.665397 
L 396.174529 23.527549 
L 398.116243 23.679838 
L 399.087099 23.40428 
L 401.99967 23.798817 
L 402.970527 23.427592 
L 403.941384 23.822741 
L 404.912241 23.692781 
L 405.883098 23.224485 
L 406.853955 23.52206 
L 408.795668 23.001988 
L 410.737382 23.394771 
L 411.708239 23.68984 
L 413.649953 23.886523 
L 414.62081 23.678594 
L 415.591667 23.733572 
L 416.562524 23.447174 
L 418.504237 23.435811 
L 420.445951 23.947503 
L 421.416808 23.861055 
L 422.387665 23.588962 
L 424.329379 23.664615 
L 425.300236 23.425121 
L 427.241949 23.423598 
L 428.212806 23.199205 
L 430.15452 23.051577 
L 431.125377 23.30419 
L 435.008805 22.75449 
L 435.979661 23.177126 
L 436.950518 23.131234 
L 437.921375 22.804903 
L 438.892232 22.806334 
L 439.863089 22.69534 
L 440.833946 22.716417 
L 441.804803 23.151273 
L 442.77566 22.923378 
L 443.746517 22.943191 
L 444.717374 22.771754 
L 445.68823 22.916906 
L 448.600801 22.774343 
L 449.571658 22.626345 
L 450.542515 22.897084 
L 451.513372 22.71629 
L 452.484229 22.39249 
L 453.455086 22.764014 
L 454.425942 22.696964 
L 455.396799 22.469992 
L 456.367656 22.366364 
L 457.338513 22.603859 
L 460.251084 22.127647 
L 461.221941 22.291372 
L 462.192798 22.071289 
L 465.105368 21.899186 
L 466.076225 21.546193 
L 467.047082 21.621052 
L 469.959653 22.099551 
L 470.93051 21.854605 
L 471.901367 21.983044 
L 472.872223 21.854606 
L 473.84308 22.160477 
L 474.813937 22.283171 
L 475.784794 22.244233 
L 476.755651 21.913745 
L 478.697365 22.414058 
L 479.668222 22.066881 
L 479.668222 22.066881 
" clip-path="url(#p576783f1af)" style="fill: none; stroke: #1f77b4; stroke-width: 1.5; stroke-linecap: square"/>
   </g>
   <g id="line2d_27">
    <path d="M 73.85004 94.205969 
L 74.820897 93.968682 
L 75.791754 94.093655 
L 76.762611 93.532014 
L 77.733467 93.445594 
L 78.704324 93.120963 
L 79.675181 92.996935 
L 80.646038 93.547742 
L 82.587752 93.367547 
L 83.558609 93.547147 
L 84.529466 93.543371 
L 86.47118 93.331473 
L 87.442036 93.038736 
L 88.412893 93.103303 
L 92.296321 92.773441 
L 93.267178 93.2289 
L 94.238035 93.297696 
L 95.208892 92.973336 
L 98.121462 93.099074 
L 99.092319 92.839559 
L 100.063176 92.711348 
L 101.034033 92.874343 
L 102.975747 92.786749 
L 103.946604 92.980121 
L 104.917461 92.739207 
L 105.888317 92.917438 
L 107.830031 92.52385 
L 108.800888 92.605958 
L 109.771745 92.502211 
L 112.684316 92.879433 
L 113.655173 92.717778 
L 116.567743 92.806152 
L 117.5386 92.946329 
L 118.509457 92.720941 
L 120.451171 92.813247 
L 122.392885 93.075914 
L 123.363742 92.785975 
L 124.334598 92.632774 
L 125.305455 92.759877 
L 127.247169 92.780693 
L 129.188883 93.111071 
L 130.15974 92.891386 
L 133.07231 93.12452 
L 134.043167 93.353292 
L 135.014024 93.014922 
L 135.984881 93.194202 
L 136.955738 92.814804 
L 137.926595 93.366777 
L 140.839166 93.153683 
L 143.751736 93.128394 
L 144.722593 92.97843 
L 147.635164 93.490041 
L 148.606021 93.309992 
L 161.22716 92.244799 
L 162.198017 92.634101 
L 163.168874 91.942716 
L 164.139731 92.570595 
L 165.110588 92.073123 
L 166.081445 91.709974 
L 167.052302 91.913432 
L 168.023159 91.937732 
L 168.994016 92.095822 
L 169.964872 91.973719 
L 170.935729 92.063306 
L 171.906586 92.27104 
L 172.877443 91.722078 
L 173.8483 91.931663 
L 176.760871 92.050902 
L 177.731728 91.50841 
L 178.702584 92.269373 
L 179.673441 92.117676 
L 180.644298 91.74997 
L 181.615155 91.829649 
L 183.556869 91.622058 
L 184.527726 91.697912 
L 185.498583 92.032582 
L 186.46944 91.690039 
L 187.440297 91.840519 
L 188.411153 91.520721 
L 189.38201 91.418145 
L 190.352867 91.674466 
L 191.323724 91.525403 
L 192.294581 91.737244 
L 194.236295 91.311024 
L 195.207152 91.374334 
L 196.178009 91.203545 
L 197.148865 91.185319 
L 198.119722 91.39449 
L 211.711719 90.461554 
L 212.682576 90.474362 
L 213.653433 90.372823 
L 214.62429 90.495838 
L 215.595146 90.050737 
L 216.566003 90.479015 
L 217.53686 90.588549 
L 218.507717 90.230553 
L 220.449431 90.661602 
L 221.420288 90.46581 
L 222.391145 89.751109 
L 223.362002 90.25971 
L 227.245429 89.602241 
L 230.158 89.962489 
L 231.128857 90.276505 
L 232.099714 90.115239 
L 233.070571 90.368767 
L 234.041427 89.707558 
L 236.953998 89.929799 
L 237.924855 89.518082 
L 240.837426 89.896907 
L 241.808283 89.807839 
L 245.69171 90.219974 
L 247.633424 90.180892 
L 248.604281 89.942848 
L 249.575138 90.022282 
L 250.545995 89.758439 
L 252.487708 89.616358 
L 253.458565 90.004614 
L 254.429422 89.936006 
L 255.400279 89.266457 
L 258.31285 89.271184 
L 260.254564 89.105393 
L 261.22542 89.349595 
L 262.196277 88.995963 
L 263.167134 88.804977 
L 264.137991 89.141782 
L 265.108848 88.823535 
L 267.050562 88.685735 
L 268.021419 88.795831 
L 271.904846 88.626928 
L 272.875703 88.355773 
L 273.84656 88.663886 
L 276.759131 88.306875 
L 277.729988 88.260446 
L 278.700845 88.628043 
L 279.671701 87.595414 
L 280.642558 87.693067 
L 281.613415 87.174426 
L 282.584272 86.991782 
L 283.555129 86.95209 
L 285.496843 87.665435 
L 286.4677 87.326482 
L 287.438557 87.202606 
L 288.409414 87.314722 
L 289.38027 86.967419 
L 290.351127 86.96156 
L 291.321984 87.195034 
L 292.292841 87.274743 
L 293.263698 87.153874 
L 294.234555 87.285725 
L 296.176269 87.237398 
L 299.088839 86.565961 
L 304.913981 86.753478 
L 305.884838 86.63795 
L 333.068831 85.184728 
L 334.039688 85.317793 
L 335.010544 84.75318 
L 336.952258 84.807382 
L 337.923115 84.401256 
L 338.893972 84.206539 
L 339.864829 84.635171 
L 341.806543 84.665992 
L 342.7774 84.346546 
L 343.748257 84.253786 
L 344.719113 84.941081 
L 345.68997 84.856588 
L 346.660827 84.60223 
L 347.631684 84.979822 
L 348.602541 84.876408 
L 349.573398 84.244763 
L 350.544255 84.362278 
L 368.019679 84.689712 
L 368.990536 84.374292 
L 370.93225 84.313392 
L 371.903106 84.158873 
L 372.873963 84.401645 
L 373.84482 84.035949 
L 374.815677 83.996061 
L 375.786534 84.123307 
L 376.757391 83.639991 
L 378.699105 83.650355 
L 379.669962 83.962954 
L 380.640818 83.913723 
L 381.611675 84.079215 
L 382.582532 82.925358 
L 383.553389 83.478056 
L 388.407674 83.155217 
L 389.378531 82.97555 
L 390.349387 83.068275 
L 391.320244 83.356031 
L 392.291101 83.094233 
L 393.261958 83.103577 
L 394.232815 82.98499 
L 395.203672 82.985702 
L 397.145386 82.727736 
L 398.116243 82.874594 
L 399.087099 82.282851 
L 401.028813 82.715353 
L 401.99967 82.702548 
L 402.970527 82.432962 
L 403.941384 83.00775 
L 405.883098 82.384542 
L 406.853955 82.700252 
L 408.795668 82.048966 
L 410.737382 82.168058 
L 412.679096 82.70942 
L 414.62081 82.724147 
L 415.591667 82.445685 
L 420.445951 82.542645 
L 421.416808 82.39125 
L 422.387665 82.481948 
L 423.358522 82.436635 
L 424.329379 82.600504 
L 425.300236 82.599985 
L 426.271093 82.335386 
L 427.241949 82.318245 
L 429.183663 82.032257 
L 430.15452 81.559346 
L 431.125377 81.578757 
L 435.008805 81.016961 
L 435.979661 81.369538 
L 436.950518 81.449817 
L 437.921375 80.977563 
L 438.892232 80.920119 
L 439.863089 80.648792 
L 441.804803 80.864741 
L 444.717374 80.454248 
L 445.68823 80.504799 
L 446.659087 80.42636 
L 448.600801 80.684319 
L 449.571658 80.622236 
L 450.542515 80.86272 
L 452.484229 80.337778 
L 453.455086 80.645149 
L 454.425942 80.243675 
L 455.396799 80.370436 
L 456.367656 80.09277 
L 457.338513 80.070857 
L 460.251084 79.477168 
L 461.221941 79.876232 
L 462.192798 79.701438 
L 463.163655 79.328233 
L 465.105368 80.098152 
L 466.076225 79.939765 
L 469.959653 80.54807 
L 471.901367 80.325063 
L 472.872223 80.712849 
L 473.84308 80.746662 
L 474.813937 80.907255 
L 475.784794 80.602466 
L 479.668222 80.631979 
L 479.668222 80.631979 
" clip-path="url(#p576783f1af)" style="fill: none; stroke: #ff7f0e; stroke-width: 1.5; stroke-linecap: square"/>
   </g>
   <g id="line2d_28">
    <path d="M 73.85004 56.682266 
L 74.820897 56.594316 
L 75.791754 56.674891 
L 76.762611 56.469906 
L 77.733467 56.403947 
L 78.704324 56.008817 
L 79.675181 56.129098 
L 80.646038 56.821492 
L 81.616895 56.809949 
L 82.587752 56.669051 
L 83.558609 56.677644 
L 84.529466 56.970535 
L 85.500323 56.744639 
L 87.442036 56.660536 
L 88.412893 56.454308 
L 91.325464 56.534607 
L 92.296321 56.28082 
L 94.238035 56.960279 
L 95.208892 56.654621 
L 96.179748 56.041508 
L 97.150605 56.256256 
L 98.121462 56.100982 
L 100.063176 56.003665 
L 101.034033 56.300624 
L 102.00489 56.242027 
L 103.946604 56.384196 
L 104.917461 56.095718 
L 105.888317 56.52789 
L 106.859174 56.453059 
L 107.830031 56.040492 
L 110.742602 55.933999 
L 111.713459 56.056038 
L 112.684316 55.86788 
L 113.655173 55.865547 
L 116.567743 55.667134 
L 117.5386 56.205473 
L 118.509457 55.744276 
L 120.451171 55.908645 
L 122.392885 56.00858 
L 123.363742 55.708925 
L 124.334598 55.643058 
L 125.305455 55.93452 
L 127.247169 55.842507 
L 129.188883 55.974293 
L 130.15974 55.657574 
L 131.130597 55.806053 
L 132.101454 55.541928 
L 133.07231 55.726348 
L 134.043167 56.085703 
L 135.984881 56.050131 
L 136.955738 55.67482 
L 137.926595 55.838464 
L 140.839166 55.954759 
L 143.751736 55.411271 
L 145.69345 55.350443 
L 146.664307 55.838881 
L 147.635164 55.898513 
L 158.31459 55.356185 
L 160.256303 55.759528 
L 161.22716 55.419699 
L 162.198017 55.608097 
L 163.168874 55.235493 
L 164.139731 55.637324 
L 165.110588 55.534002 
L 166.081445 54.964849 
L 167.052302 55.452114 
L 168.023159 55.636982 
L 168.994016 55.702706 
L 169.964872 55.574031 
L 170.935729 55.652152 
L 171.906586 56.044871 
L 172.877443 55.817488 
L 174.819157 56.365396 
L 175.790014 56.174966 
L 176.760871 56.346735 
L 177.731728 55.819932 
L 178.702584 56.327543 
L 179.673441 56.450223 
L 180.644298 56.330131 
L 182.586012 56.375289 
L 183.556869 55.891141 
L 185.498583 56.495483 
L 186.46944 56.052782 
L 187.440297 56.343407 
L 188.411153 55.845066 
L 189.38201 55.9026 
L 190.352867 56.139223 
L 195.207152 55.819256 
L 196.178009 55.415916 
L 198.119722 55.796996 
L 210.740862 54.903014 
L 211.711719 54.686727 
L 212.682576 55.086773 
L 213.653433 54.767253 
L 214.62429 54.801044 
L 215.595146 54.561405 
L 216.566003 54.543535 
L 217.53686 54.69002 
L 219.478574 54.245717 
L 220.449431 54.77108 
L 221.420288 54.616074 
L 222.391145 54.088443 
L 228.216286 53.856724 
L 229.187143 53.817684 
L 230.158 54.196465 
L 232.099714 54.222549 
L 233.070571 54.848963 
L 234.041427 54.129689 
L 236.953998 55.1109 
L 237.924855 54.738883 
L 239.866569 54.748418 
L 240.837426 55.101563 
L 241.808283 54.684571 
L 250.545995 54.646309 
L 251.516852 54.401025 
L 252.487708 54.536799 
L 253.458565 54.401025 
L 254.429422 54.429643 
L 255.400279 53.849419 
L 256.371136 54.018293 
L 257.341993 54.025335 
L 258.31285 54.301517 
L 260.254564 54.072342 
L 261.22542 54.363181 
L 263.167134 54.079698 
L 264.137991 54.358405 
L 265.108848 53.882054 
L 266.079705 53.607103 
L 268.021419 53.700733 
L 270.933989 53.035195 
L 272.875703 53.283629 
L 273.84656 53.197305 
L 275.788274 53.492548 
L 276.759131 53.300469 
L 278.700845 53.477567 
L 279.671701 52.747195 
L 280.642558 52.842978 
L 281.613415 52.172726 
L 282.584272 52.216103 
L 283.555129 52.01803 
L 284.525986 52.465153 
L 285.496843 52.657333 
L 286.4677 52.218643 
L 288.409414 52.016835 
L 289.38027 52.0803 
L 290.351127 51.978945 
L 292.292841 52.260419 
L 293.263698 52.06609 
L 294.234555 52.214487 
L 296.176269 51.775291 
L 299.088839 51.496261 
L 301.030553 51.564727 
L 304.913981 51.369492 
L 305.884838 51.605063 
L 334.039688 50.473598 
L 335.010544 50.088739 
L 335.981401 50.536646 
L 336.952258 50.610184 
L 337.923115 50.221177 
L 338.893972 50.219952 
L 339.864829 50.464932 
L 340.835686 50.567009 
L 341.806543 50.515248 
L 343.748257 49.975395 
L 344.719113 50.396302 
L 345.68997 50.528239 
L 346.660827 50.443693 
L 347.631684 50.710905 
L 348.602541 50.56527 
L 349.573398 50.204368 
L 350.544255 50.248312 
L 368.019679 50.536605 
L 368.990536 50.37474 
L 370.93225 50.540048 
L 372.873963 50.558513 
L 373.84482 50.251284 
L 374.815677 50.380929 
L 376.757391 50.111697 
L 378.699105 49.763168 
L 379.669962 50.236028 
L 380.640818 49.696062 
L 381.611675 50.12829 
L 382.582532 49.268211 
L 383.553389 49.570912 
L 384.524246 49.485825 
L 385.495103 49.591137 
L 388.407674 49.297667 
L 389.378531 49.421419 
L 390.349387 49.206301 
L 391.320244 49.672626 
L 392.291101 49.164783 
L 394.232815 49.471795 
L 396.174529 49.213301 
L 397.145386 49.342628 
L 399.087099 48.986857 
L 401.028813 49.437068 
L 401.99967 49.191289 
L 402.970527 49.125719 
L 403.941384 49.522509 
L 404.912241 49.680056 
L 405.883098 49.343919 
L 406.853955 49.412519 
L 408.795668 48.764034 
L 409.766525 48.750305 
L 410.737382 49.160711 
L 412.679096 49.644015 
L 414.62081 49.575766 
L 416.562524 49.32285 
L 418.504237 49.204123 
L 419.475094 49.484812 
L 421.416808 49.362201 
L 423.358522 49.329971 
L 424.329379 49.576474 
L 425.300236 49.330126 
L 426.271093 49.464853 
L 427.241949 49.321602 
L 428.212806 48.9536 
L 429.183663 48.833679 
L 430.15452 48.9583 
L 434.037948 48.574196 
L 435.008805 48.623985 
L 435.979661 48.846296 
L 436.950518 48.853442 
L 437.921375 48.366295 
L 443.746517 48.709528 
L 444.717374 48.349074 
L 445.68823 48.590399 
L 449.571658 48.328228 
L 450.542515 48.493262 
L 452.484229 48.02157 
L 453.455086 48.390776 
L 456.367656 47.793121 
L 457.338513 47.907043 
L 458.30937 48.154386 
L 459.280227 47.793617 
L 460.251084 47.562816 
L 461.221941 47.949584 
L 463.163655 47.419357 
L 465.105368 48.17977 
L 466.076225 48.207929 
L 467.047082 48.382409 
L 470.93051 48.669087 
L 471.901367 48.48894 
L 472.872223 48.671504 
L 473.84308 48.734014 
L 474.813937 49.069935 
L 475.784794 48.756207 
L 478.697365 48.738626 
L 479.668222 48.807542 
L 479.668222 48.807542 
" clip-path="url(#p576783f1af)" style="fill: none; stroke: #2ca02c; stroke-width: 1.5; stroke-linecap: square"/>
   </g>
   <g id="line2d_29">
    <path d="M 73.85004 51.347571 
L 74.820897 51.129303 
L 75.791754 51.348697 
L 76.762611 50.825131 
L 77.733467 51.054486 
L 79.675181 50.805223 
L 80.646038 51.508472 
L 82.587752 51.270906 
L 84.529466 51.360934 
L 85.500323 51.038927 
L 86.47118 51.238263 
L 88.412893 50.961353 
L 91.325464 51.115571 
L 92.296321 50.790587 
L 93.267178 51.140183 
L 94.238035 51.371579 
L 95.208892 50.798173 
L 96.179748 50.794816 
L 97.150605 51.046292 
L 98.121462 50.668462 
L 101.034033 51.109935 
L 102.00489 50.976403 
L 102.975747 51.136987 
L 103.946604 50.948081 
L 104.917461 50.885743 
L 105.888317 51.227391 
L 106.859174 51.175947 
L 108.800888 50.588599 
L 109.771745 50.89041 
L 110.742602 50.959672 
L 111.713459 50.587344 
L 112.684316 50.838436 
L 115.596886 50.566933 
L 116.567743 50.786618 
L 117.5386 51.140729 
L 118.509457 50.690372 
L 121.422028 51.099465 
L 122.392885 51.036393 
L 124.334598 50.688315 
L 125.305455 50.899303 
L 127.247169 50.829619 
L 129.188883 50.955809 
L 130.15974 50.564673 
L 131.130597 50.711144 
L 132.101454 50.65894 
L 133.07231 50.756915 
L 134.043167 50.982585 
L 135.014024 50.884616 
L 135.984881 51.089108 
L 136.955738 50.807471 
L 137.926595 51.02064 
L 140.839166 51.268281 
L 143.751736 50.725395 
L 144.722593 50.742002 
L 145.69345 50.879828 
L 146.664307 51.160032 
L 148.606021 51.176564 
L 158.31459 50.586369 
L 160.256303 51.054506 
L 161.22716 50.663464 
L 162.198017 50.721727 
L 163.168874 50.417415 
L 164.139731 50.824374 
L 165.110588 50.698841 
L 166.081445 50.070936 
L 167.052302 50.548555 
L 168.023159 50.57318 
L 169.964872 50.461031 
L 170.935729 50.473767 
L 171.906586 50.962636 
L 172.877443 50.760503 
L 174.819157 51.007723 
L 175.790014 50.818949 
L 176.760871 51.191696 
L 177.731728 50.580517 
L 178.702584 51.135498 
L 179.673441 50.899261 
L 180.644298 51.001128 
L 182.586012 50.57718 
L 183.556869 50.242063 
L 184.527726 50.522579 
L 185.498583 50.977671 
L 186.46944 50.344478 
L 187.440297 50.681291 
L 188.411153 50.309528 
L 192.294581 50.396493 
L 194.236295 50.260037 
L 195.207152 49.94867 
L 197.148865 49.985923 
L 198.119722 50.211168 
L 211.711719 49.109951 
L 212.682576 49.442243 
L 213.653433 49.203289 
L 214.62429 49.092153 
L 217.53686 49.178785 
L 218.507717 48.864215 
L 219.478574 48.704046 
L 220.449431 49.361111 
L 221.420288 48.960534 
L 222.391145 48.310378 
L 223.362002 48.428974 
L 226.274572 48.070859 
L 228.216286 48.222958 
L 229.187143 47.996765 
L 230.158 48.416286 
L 232.099714 48.552327 
L 233.070571 49.09707 
L 234.041427 48.26541 
L 236.953998 48.950064 
L 237.924855 48.667793 
L 240.837426 48.733185 
L 241.808283 48.345429 
L 246.662567 48.600407 
L 249.575138 48.585072 
L 251.516852 48.143645 
L 252.487708 48.224655 
L 253.458565 48.524529 
L 254.429422 48.566207 
L 255.400279 47.832136 
L 256.371136 47.936154 
L 260.254564 47.777903 
L 261.22542 48.060613 
L 262.196277 47.86434 
L 263.167134 47.470463 
L 264.137991 48.090969 
L 265.108848 47.674991 
L 266.079705 47.651381 
L 267.050562 47.448238 
L 269.963133 47.492904 
L 270.933989 47.014967 
L 271.904846 47.050276 
L 273.84656 47.586175 
L 275.788274 47.823901 
L 276.759131 47.658796 
L 278.700845 47.706593 
L 279.671701 46.927507 
L 280.642558 46.918113 
L 281.613415 46.616901 
L 283.555129 46.487527 
L 284.525986 46.728505 
L 285.496843 47.174345 
L 286.4677 46.83072 
L 287.438557 46.73526 
L 288.409414 46.927612 
L 290.351127 46.528445 
L 291.321984 46.88156 
L 294.234555 46.9922 
L 296.176269 46.568284 
L 299.088839 46.081337 
L 304.913981 46.075297 
L 305.884838 46.171528 
L 333.068831 44.738241 
L 334.039688 44.798972 
L 335.010544 44.388438 
L 335.981401 44.370327 
L 336.952258 44.522296 
L 337.923115 44.14217 
L 339.864829 44.531571 
L 342.7774 44.18824 
L 343.748257 43.912773 
L 344.719113 44.122878 
L 346.660827 43.85773 
L 347.631684 44.390885 
L 348.602541 44.29563 
L 349.573398 43.722815 
L 350.544255 43.78684 
L 368.019679 43.865952 
L 368.990536 43.632484 
L 372.873963 43.942922 
L 373.84482 43.69795 
L 375.786534 43.660525 
L 376.757391 43.485678 
L 377.728248 43.510568 
L 378.699105 43.293363 
L 379.669962 43.55398 
L 380.640818 43.318918 
L 381.611675 43.632779 
L 382.582532 42.795682 
L 383.553389 43.158177 
L 388.407674 42.927803 
L 389.378531 43.180978 
L 390.349387 42.884564 
L 391.320244 43.198048 
L 392.291101 42.886745 
L 394.232815 42.962261 
L 395.203672 42.724317 
L 398.116243 42.70562 
L 399.087099 42.386397 
L 400.057956 42.707314 
L 401.028813 42.858622 
L 402.970527 42.689612 
L 404.912241 43.110153 
L 405.883098 42.468768 
L 406.853955 42.782597 
L 407.824812 42.413686 
L 409.766525 42.200513 
L 410.737382 42.562303 
L 411.708239 42.585729 
L 412.679096 42.89971 
L 415.591667 42.876835 
L 417.53338 42.561353 
L 418.504237 42.705103 
L 419.475094 43.006028 
L 421.416808 42.937787 
L 423.358522 42.959813 
L 424.329379 43.17401 
L 425.300236 42.883997 
L 426.271093 42.887736 
L 427.241949 43.035095 
L 428.212806 42.507471 
L 429.183663 42.6334 
L 430.15452 42.414076 
L 431.125377 42.633998 
L 435.008805 41.995768 
L 435.979661 42.320742 
L 436.950518 42.486264 
L 437.921375 42.031839 
L 438.892232 42.157809 
L 440.833946 42.265266 
L 441.804803 42.309826 
L 442.77566 42.121264 
L 443.746517 42.308784 
L 444.717374 41.8954 
L 450.542515 41.957122 
L 452.484229 41.349172 
L 453.455086 41.866261 
L 454.425942 41.633778 
L 455.396799 41.554002 
L 456.367656 41.244698 
L 457.338513 41.430018 
L 458.30937 41.377943 
L 459.280227 41.012249 
L 460.251084 41.025263 
L 461.221941 41.520419 
L 463.163655 40.81248 
L 464.134511 41.499293 
L 466.076225 41.986857 
L 470.93051 42.626387 
L 471.901367 42.505143 
L 472.872223 42.520839 
L 474.813937 43.151088 
L 475.784794 42.566698 
L 477.726508 42.656392 
L 479.668222 42.794162 
L 479.668222 42.794162 
" clip-path="url(#p576783f1af)" style="fill: none; stroke: #d62728; stroke-width: 1.5; stroke-linecap: square"/>
   </g>
   <g id="line2d_30">
    <path d="M 73.85004 170.948722 
L 74.820897 170.591777 
L 75.791754 170.78181 
L 76.762611 170.377416 
L 77.733467 170.248572 
L 78.704324 170.437935 
L 79.675181 169.926934 
L 80.646038 170.365155 
L 83.558609 170.021345 
L 85.500323 169.977694 
L 86.47118 169.808515 
L 87.442036 169.930023 
L 88.412893 169.828898 
L 91.325464 169.941036 
L 92.296321 169.723851 
L 93.267178 170.11674 
L 94.238035 170.126001 
L 95.208892 169.981249 
L 96.179748 169.544941 
L 97.150605 169.649571 
L 100.063176 169.485444 
L 102.00489 169.138737 
L 102.975747 169.075918 
L 103.946604 169.43364 
L 104.917461 169.41267 
L 105.888317 169.244625 
L 106.859174 169.608176 
L 107.830031 169.190834 
L 109.771745 169.061 
L 111.713459 169.219253 
L 112.684316 169.352779 
L 113.655173 168.99482 
L 115.596886 169.124009 
L 117.5386 168.960411 
L 118.509457 168.977317 
L 119.480314 168.632632 
L 120.451171 168.922332 
L 121.422028 168.760754 
L 122.392885 169.02447 
L 123.363742 168.75444 
L 124.334598 168.854655 
L 125.305455 168.544159 
L 127.247169 168.781169 
L 130.15974 168.749928 
L 134.043167 168.015519 
L 135.984881 167.885164 
L 137.926595 168.043049 
L 140.839166 167.886278 
L 143.751736 168.039661 
L 144.722593 167.886348 
L 145.69345 168.072309 
L 146.664307 167.840122 
L 147.635164 168.341163 
L 148.606021 167.898387 
L 157.343733 167.186254 
L 158.31459 166.755122 
L 160.256303 167.411744 
L 161.22716 167.03813 
L 162.198017 167.054121 
L 164.139731 166.804227 
L 165.110588 166.82429 
L 166.081445 166.668398 
L 168.023159 166.837263 
L 168.994016 166.73014 
L 170.935729 166.794508 
L 171.906586 166.939232 
L 172.877443 166.707044 
L 175.790014 166.718321 
L 176.760871 166.347663 
L 178.702584 166.52769 
L 180.644298 166.255841 
L 181.615155 166.34101 
L 182.586012 165.84199 
L 185.498583 166.373643 
L 186.46944 166.353858 
L 187.440297 166.497302 
L 188.411153 166.378528 
L 189.38201 166.647242 
L 194.236295 166.297493 
L 196.178009 166.088866 
L 197.148865 166.474736 
L 198.119722 166.306877 
L 212.682576 166.30491 
L 214.62429 166.4753 
L 215.595146 166.199405 
L 216.566003 166.382777 
L 217.53686 166.27367 
L 218.507717 165.889149 
L 219.478574 166.157197 
L 220.449431 166.57081 
L 221.420288 166.392845 
L 222.391145 165.878987 
L 223.362002 165.940934 
L 226.274572 166.005918 
L 227.245429 165.817541 
L 228.216286 165.933096 
L 229.187143 165.795744 
L 230.158 166.171057 
L 231.128857 166.198857 
L 232.099714 165.942758 
L 233.070571 166.282545 
L 234.041427 166.09259 
L 236.953998 166.135454 
L 239.866569 165.921318 
L 240.837426 166.022104 
L 241.808283 165.951249 
L 245.69171 165.983611 
L 246.662567 165.647966 
L 247.633424 165.866944 
L 248.604281 165.670438 
L 249.575138 165.712317 
L 250.545995 165.43051 
L 252.487708 165.815545 
L 253.458565 165.546613 
L 254.429422 165.491086 
L 256.371136 165.62644 
L 257.341993 165.387911 
L 258.31285 165.594873 
L 260.254564 165.411981 
L 261.22542 165.445939 
L 262.196277 165.699916 
L 263.167134 165.418518 
L 265.108848 165.502162 
L 266.079705 165.160994 
L 267.050562 165.437755 
L 268.021419 165.549682 
L 268.992276 165.369323 
L 269.963133 165.589572 
L 270.933989 165.265674 
L 273.84656 165.543435 
L 276.759131 165.187812 
L 277.729988 165.223953 
L 279.671701 164.806763 
L 280.642558 164.978469 
L 281.613415 164.591379 
L 283.555129 164.275119 
L 285.496843 164.911572 
L 287.438557 164.574789 
L 288.409414 164.701856 
L 289.38027 164.559115 
L 290.351127 164.828303 
L 292.292841 164.751425 
L 294.234555 164.85204 
L 296.176269 164.917108 
L 299.088839 164.360943 
L 301.030553 164.230735 
L 304.913981 164.541283 
L 305.884838 164.485083 
L 333.068831 163.989073 
L 334.039688 163.816786 
L 335.010544 163.450383 
L 335.981401 163.838641 
L 337.923115 163.444735 
L 338.893972 163.497639 
L 339.864829 163.7576 
L 341.806543 163.766586 
L 343.748257 163.395579 
L 344.719113 163.842077 
L 346.660827 163.715697 
L 347.631684 163.980073 
L 348.602541 163.877147 
L 349.573398 163.656026 
L 350.544255 163.836753 
L 368.019679 163.809742 
L 370.93225 163.5484 
L 371.903106 163.674992 
L 372.873963 163.438032 
L 373.84482 163.518987 
L 374.815677 163.45001 
L 375.786534 163.662396 
L 376.757391 163.454853 
L 377.728248 163.418737 
L 378.699105 163.539755 
L 379.669962 163.830846 
L 380.640818 163.628025 
L 381.611675 163.641301 
L 382.582532 162.332231 
L 383.553389 162.668253 
L 384.524246 162.618516 
L 385.495103 162.704364 
L 389.378531 162.251103 
L 390.349387 162.215164 
L 392.291101 162.371998 
L 393.261958 162.305198 
L 394.232815 162.454244 
L 395.203672 162.452233 
L 396.174529 162.196426 
L 398.116243 162.238843 
L 399.087099 162.044843 
L 401.028813 162.135411 
L 401.99967 162.003763 
L 402.970527 162.012267 
L 403.941384 162.450404 
L 405.883098 161.955202 
L 406.853955 162.336049 
L 408.795668 161.945086 
L 409.766525 162.167544 
L 411.708239 162.178416 
L 412.679096 162.588236 
L 413.649953 162.50413 
L 414.62081 162.746409 
L 415.591667 162.636723 
L 416.562524 162.40123 
L 417.53338 162.413488 
L 418.504237 162.253675 
L 422.387665 162.310967 
L 423.358522 162.025781 
L 424.329379 162.0877 
L 425.300236 161.866289 
L 426.271093 161.802608 
L 427.241949 161.997469 
L 428.212806 162.077144 
L 429.183663 162.00381 
L 430.15452 162.611668 
L 431.125377 162.334731 
L 435.008805 162.231316 
L 435.979661 162.453652 
L 436.950518 162.553058 
L 437.921375 162.46102 
L 439.863089 162.495074 
L 440.833946 162.393467 
L 441.804803 162.522684 
L 444.717374 162.067263 
L 445.68823 162.183774 
L 447.629944 162.089602 
L 448.600801 162.286088 
L 449.571658 162.068318 
L 450.542515 162.394033 
L 452.484229 162.203541 
L 455.396799 162.188523 
L 456.367656 161.933298 
L 458.30937 162.016271 
L 459.280227 161.54229 
L 460.251084 161.488443 
L 462.192798 161.690572 
L 463.163655 161.44645 
L 465.105368 161.824359 
L 466.076225 161.5713 
L 469.959653 161.82668 
L 470.93051 162.071397 
L 477.726508 162.294656 
L 479.668222 162.480771 
L 479.668222 162.480771 
" clip-path="url(#p576783f1af)" style="fill: none; stroke: #9467bd; stroke-width: 1.5; stroke-linecap: square"/>
   </g>
   <g id="line2d_31">
    <path d="M 73.85004 102.208011 
L 75.791754 102.421474 
L 76.762611 101.740551 
L 77.733467 101.85189 
L 79.675181 101.382039 
L 80.646038 101.937886 
L 81.616895 101.536987 
L 82.587752 102.097879 
L 83.558609 102.264183 
L 84.529466 101.847349 
L 86.47118 101.988005 
L 87.442036 101.594432 
L 88.412893 101.606398 
L 92.296321 101.313803 
L 93.267178 101.538167 
L 94.238035 101.887331 
L 95.208892 101.364663 
L 96.179748 101.403531 
L 97.150605 101.635472 
L 98.121462 101.379286 
L 99.092319 100.88421 
L 100.063176 101.010665 
L 101.034033 100.975292 
L 102.00489 100.707295 
L 103.946604 101.112549 
L 104.917461 100.879793 
L 105.888317 101.203524 
L 106.859174 100.724566 
L 107.830031 100.854866 
L 108.800888 100.459873 
L 110.742602 100.529918 
L 111.713459 100.128546 
L 112.684316 100.208666 
L 113.655173 100.135388 
L 116.567743 100.683477 
L 117.5386 100.672209 
L 118.509457 100.099215 
L 119.480314 100.304493 
L 120.451171 100.394342 
L 121.422028 100.353522 
L 122.392885 100.630224 
L 124.334598 99.872678 
L 125.305455 100.184689 
L 127.247169 99.875203 
L 131.130597 99.819217 
L 132.101454 99.510148 
L 133.07231 99.559299 
L 135.014024 100.216683 
L 135.984881 100.338924 
L 136.955738 100.158152 
L 137.926595 100.234289 
L 146.664307 99.965623 
L 147.635164 100.33618 
L 148.606021 100.128436 
L 157.343733 99.810007 
L 158.31459 99.606031 
L 160.256303 99.843538 
L 161.22716 99.430185 
L 162.198017 99.748982 
L 163.168874 99.598561 
L 165.110588 99.642087 
L 166.081445 98.969277 
L 167.052302 99.095823 
L 168.023159 99.441921 
L 168.994016 99.427247 
L 169.964872 99.257715 
L 170.935729 99.434889 
L 171.906586 99.447155 
L 172.877443 99.226643 
L 173.8483 99.470693 
L 177.731728 99.145865 
L 178.702584 99.554335 
L 179.673441 99.444946 
L 180.644298 99.20256 
L 181.615155 99.214916 
L 182.586012 98.994377 
L 184.527726 99.102686 
L 185.498583 99.183825 
L 186.46944 99.063265 
L 187.440297 99.581384 
L 188.411153 99.026201 
L 189.38201 99.025803 
L 190.352867 99.237245 
L 191.323724 99.098235 
L 192.294581 99.182498 
L 194.236295 98.622009 
L 195.207152 98.766202 
L 197.148865 98.158719 
L 198.119722 98.595733 
L 210.740862 97.659023 
L 211.711719 97.366133 
L 213.653433 97.778782 
L 215.595146 97.569021 
L 217.53686 97.96832 
L 218.507717 97.720754 
L 220.449431 98.239328 
L 222.391145 97.442688 
L 223.362002 97.303309 
L 227.245429 96.389434 
L 228.216286 96.624678 
L 229.187143 96.1686 
L 230.158 96.322556 
L 231.128857 96.749924 
L 232.099714 96.365583 
L 233.070571 96.531509 
L 234.041427 96.244175 
L 240.837426 96.228367 
L 241.808283 96.570818 
L 245.69171 96.40214 
L 248.604281 95.946641 
L 249.575138 95.954842 
L 250.545995 95.803517 
L 252.487708 95.747119 
L 253.458565 96.189445 
L 254.429422 96.016607 
L 255.400279 95.645137 
L 256.371136 95.492343 
L 257.341993 95.497423 
L 258.31285 95.385015 
L 259.283707 95.464922 
L 260.254564 95.076118 
L 261.22542 95.562637 
L 263.167134 95.360624 
L 264.137991 95.516354 
L 265.108848 95.298144 
L 267.050562 95.246651 
L 268.021419 95.395061 
L 269.963133 95.43768 
L 270.933989 95.19445 
L 272.875703 95.416094 
L 274.817417 95.314121 
L 275.788274 95.033374 
L 277.729988 94.952166 
L 278.700845 95.150992 
L 279.671701 94.341358 
L 280.642558 94.561715 
L 281.613415 93.841416 
L 283.555129 93.782868 
L 285.496843 94.359178 
L 287.438557 93.826108 
L 288.409414 94.19205 
L 289.38027 94.013417 
L 290.351127 93.714696 
L 294.234555 93.907448 
L 296.176269 93.482404 
L 301.030553 93.137218 
L 305.884838 92.876453 
L 334.039688 91.058789 
L 335.010544 90.453481 
L 336.952258 90.534264 
L 337.923115 90.119783 
L 338.893972 90.02953 
L 340.835686 90.084416 
L 341.806543 90.368707 
L 343.748257 89.972313 
L 344.719113 90.149824 
L 345.68997 90.468897 
L 346.660827 90.287128 
L 347.631684 90.579426 
L 348.602541 90.442146 
L 349.573398 90.04061 
L 350.544255 90.05879 
L 368.019679 89.984643 
L 368.990536 89.547092 
L 370.93225 89.671203 
L 371.903106 89.447204 
L 372.873963 89.486883 
L 374.815677 89.248426 
L 375.786534 89.302671 
L 376.757391 88.975848 
L 377.728248 88.825811 
L 378.699105 88.455136 
L 379.669962 88.744893 
L 381.611675 88.974612 
L 383.553389 89.906548 
L 385.495103 89.804991 
L 389.378531 89.87453 
L 390.349387 89.593434 
L 391.320244 90.064629 
L 392.291101 89.74615 
L 394.232815 89.665826 
L 396.174529 89.272508 
L 397.145386 89.255897 
L 398.116243 89.412292 
L 399.087099 88.867853 
L 401.028813 89.340126 
L 401.99967 89.336756 
L 403.941384 89.683214 
L 404.912241 89.176406 
L 405.883098 88.906727 
L 406.853955 89.146009 
L 407.824812 88.880169 
L 409.766525 88.647281 
L 414.62081 89.167973 
L 415.591667 88.811507 
L 416.562524 89.074109 
L 417.53338 88.778743 
L 419.475094 88.766223 
L 421.416808 88.543572 
L 422.387665 88.694735 
L 423.358522 88.61009 
L 424.329379 88.957668 
L 425.300236 88.594283 
L 426.271093 88.491085 
L 427.241949 88.514516 
L 428.212806 88.082207 
L 430.15452 88.989142 
L 431.125377 88.662351 
L 434.037948 88.489962 
L 435.979661 88.716385 
L 436.950518 88.637124 
L 438.892232 88.102722 
L 439.863089 87.926323 
L 442.77566 87.991134 
L 443.746517 87.915942 
L 444.717374 87.723904 
L 447.629944 87.798319 
L 448.600801 87.66732 
L 451.513372 87.843543 
L 453.455086 87.478953 
L 454.425942 87.518003 
L 455.396799 87.694569 
L 456.367656 87.363879 
L 457.338513 87.536403 
L 458.30937 87.504795 
L 460.251084 86.992436 
L 461.221941 87.386666 
L 462.192798 87.154995 
L 463.163655 86.70981 
L 465.105368 87.658919 
L 466.076225 87.355516 
L 467.047082 87.31198 
L 469.959653 87.814172 
L 470.93051 87.844959 
L 471.901367 87.674095 
L 472.872223 87.731843 
L 473.84308 87.907196 
L 474.813937 87.824637 
L 475.784794 87.458761 
L 476.755651 87.569892 
L 477.726508 87.453385 
L 478.697365 87.666461 
L 479.668222 87.444239 
L 479.668222 87.444239 
" clip-path="url(#p576783f1af)" style="fill: none; stroke: #8c564b; stroke-width: 1.5; stroke-linecap: square"/>
   </g>
   <g id="line2d_32">
    <path d="M 73.85004 21.758097 
L 74.820897 21.568551 
L 75.791754 21.242164 
L 76.762611 21.274397 
L 77.733467 21.587496 
L 78.704324 21.52211 
L 81.616895 22.644693 
L 82.587752 22.147584 
L 83.558609 22.454384 
L 84.529466 22.031992 
L 85.500323 22.334127 
L 87.442036 22.063856 
L 88.412893 22.002494 
L 93.267178 22.133681 
L 94.238035 22.514755 
L 96.179748 21.828704 
L 97.150605 22.457167 
L 98.121462 22.169636 
L 100.063176 22.308006 
L 101.034033 22.919503 
L 102.00489 22.676383 
L 102.975747 22.835116 
L 103.946604 22.832495 
L 104.917461 22.534797 
L 105.888317 22.821043 
L 106.859174 22.368107 
L 107.830031 22.04562 
L 110.742602 22.043695 
L 111.713459 21.758283 
L 112.684316 22.166304 
L 115.596886 21.806977 
L 116.567743 22.060069 
L 117.5386 22.147215 
L 118.509457 21.753039 
L 119.480314 22.102469 
L 121.422028 22.189012 
L 124.334598 21.493775 
L 125.305455 21.605435 
L 127.247169 21.389524 
L 129.188883 21.86996 
L 130.15974 21.1842 
L 131.130597 21.640192 
L 132.101454 21.424978 
L 134.043167 21.803756 
L 135.014024 21.251486 
L 135.984881 21.683384 
L 136.955738 21.370595 
L 137.926595 21.648818 
L 143.751736 21.250395 
L 144.722593 21.440218 
L 145.69345 21.415359 
L 147.635164 21.999751 
L 148.606021 22.22408 
L 157.343733 21.551331 
L 160.256303 21.903827 
L 161.22716 21.717791 
L 162.198017 21.832857 
L 163.168874 21.611023 
L 165.110588 21.891896 
L 166.081445 21.319201 
L 167.052302 21.574829 
L 168.994016 21.381074 
L 169.964872 21.629393 
L 170.935729 21.657578 
L 171.906586 22.237846 
L 172.877443 21.834552 
L 173.8483 22.084774 
L 174.819157 22.205196 
L 175.790014 22.206543 
L 176.760871 22.367601 
L 177.731728 21.96525 
L 178.702584 22.518879 
L 179.673441 22.518707 
L 180.644298 22.372763 
L 181.615155 22.567815 
L 182.586012 22.323852 
L 183.556869 21.876906 
L 184.527726 22.101021 
L 185.498583 22.591816 
L 186.46944 22.239011 
L 187.440297 22.687472 
L 188.411153 22.099955 
L 190.352867 22.234398 
L 192.294581 22.124122 
L 194.236295 22.110789 
L 195.207152 21.843971 
L 196.178009 21.750622 
L 197.148865 21.820377 
L 198.119722 22.106859 
L 210.740862 21.371499 
L 211.711719 20.960512 
L 212.682576 21.314622 
L 214.62429 20.908059 
L 216.566003 20.974722 
L 217.53686 21.150753 
L 219.478574 20.730905 
L 220.449431 21.086015 
L 221.420288 20.889515 
L 222.391145 20.264253 
L 223.362002 20.591771 
L 226.274572 20.312631 
L 227.245429 20.492869 
L 228.216286 20.559485 
L 229.187143 20.347401 
L 230.158 20.787407 
L 231.128857 20.902409 
L 232.099714 20.818768 
L 233.070571 21.177981 
L 234.041427 20.326044 
L 236.953998 21.402062 
L 237.924855 20.99621 
L 239.866569 20.973668 
L 240.837426 21.266091 
L 241.808283 21.035523 
L 246.662567 21.031882 
L 247.633424 20.882385 
L 248.604281 21.089691 
L 249.575138 20.97236 
L 250.545995 21.18119 
L 251.516852 20.792544 
L 252.487708 20.690648 
L 253.458565 20.846956 
L 254.429422 20.751079 
L 255.400279 19.950254 
L 256.371136 20.61165 
L 257.341993 20.280741 
L 259.283707 20.050359 
L 261.22542 20.236209 
L 262.196277 19.763988 
L 263.167134 19.693812 
L 264.137991 20.253554 
L 265.108848 19.761046 
L 266.079705 19.745077 
L 268.021419 19.441656 
L 268.992276 19.594058 
L 269.963133 19.460391 
L 270.933989 19.067688 
L 271.904846 19.261889 
L 273.84656 19.371715 
L 275.788274 19.533318 
L 276.759131 19.467951 
L 277.729988 19.683429 
L 278.700845 19.568724 
L 279.671701 18.947568 
L 280.642558 18.761898 
L 281.613415 18.316916 
L 282.584272 18.462219 
L 283.555129 18.332235 
L 285.496843 19.050247 
L 286.4677 18.734088 
L 287.438557 18.823167 
L 288.409414 18.696181 
L 289.38027 18.701813 
L 290.351127 18.316105 
L 292.292841 18.632971 
L 293.263698 18.924781 
L 294.234555 18.832812 
L 296.176269 18.440231 
L 299.088839 17.971258 
L 301.030553 17.874636 
L 304.913981 17.560362 
L 305.884838 17.645467 
L 334.039688 17.703463 
L 335.010544 17.407012 
L 335.981401 17.792502 
L 336.952258 17.69292 
L 337.923115 17.204467 
L 338.893972 17.250338 
L 339.864829 17.412334 
L 340.835686 17.150709 
L 343.748257 16.97507 
L 346.660827 16.514517 
L 347.631684 16.933181 
L 348.602541 16.859816 
L 349.573398 16.588457 
L 350.544255 16.703996 
L 370.93225 16.974 
L 372.873963 16.747263 
L 373.84482 16.609774 
L 374.815677 16.686216 
L 376.757391 16.2967 
L 378.699105 16.018697 
L 379.669962 16.319092 
L 380.640818 16.176396 
L 381.611675 16.27242 
L 382.582532 15.689996 
L 383.553389 16.18372 
L 384.524246 16.012755 
L 385.495103 16.278257 
L 388.407674 16.177515 
L 389.378531 16.274956 
L 390.349387 16.158015 
L 391.320244 16.457262 
L 392.291101 16.092138 
L 394.232815 16.363499 
L 395.203672 16.054255 
L 396.174529 16.115508 
L 397.145386 16.469229 
L 398.116243 16.168441 
L 399.087099 16.046391 
L 400.057956 16.197809 
L 401.028813 16.575725 
L 401.99967 16.28314 
L 402.970527 16.250638 
L 403.941384 16.592272 
L 404.912241 16.738223 
L 405.883098 16.134486 
L 406.853955 16.385686 
L 407.824812 15.889899 
L 408.795668 15.832217 
L 409.766525 15.893972 
L 410.737382 16.122744 
L 411.708239 16.024814 
L 413.649953 16.469826 
L 414.62081 16.381685 
L 415.591667 16.024363 
L 417.53338 15.797517 
L 419.475094 16.243202 
L 420.445951 16.301367 
L 421.416808 16.045944 
L 422.387665 16.438967 
L 423.358522 16.389748 
L 424.329379 16.507143 
L 427.241949 16.370077 
L 428.212806 16.120512 
L 429.183663 16.146774 
L 430.15452 15.786887 
L 431.125377 16.13055 
L 435.008805 15.827031 
L 435.979661 16.0692 
L 436.950518 16.093041 
L 437.921375 15.918977 
L 438.892232 15.965053 
L 439.863089 15.817999 
L 442.77566 15.89505 
L 443.746517 15.636541 
L 445.68823 15.448523 
L 446.659087 15.775366 
L 448.600801 15.717213 
L 449.571658 15.649062 
L 450.542515 15.797739 
L 451.513372 15.805491 
L 452.484229 15.351858 
L 453.455086 15.768202 
L 454.425942 15.864397 
L 456.367656 15.478722 
L 457.338513 15.56618 
L 458.30937 15.536322 
L 460.251084 15.166903 
L 461.221941 15.716089 
L 462.192798 15.405387 
L 463.163655 15.481246 
L 464.134511 15.900676 
L 465.105368 16.159413 
L 467.047082 16.277493 
L 469.959653 16.649975 
L 470.93051 16.654397 
L 471.901367 16.449484 
L 472.872223 16.586742 
L 473.84308 16.605639 
L 474.813937 17.0879 
L 475.784794 16.591051 
L 476.755651 16.758263 
L 477.726508 16.58792 
L 479.668222 16.590928 
L 479.668222 16.590928 
" clip-path="url(#p576783f1af)" style="fill: none; stroke: #e377c2; stroke-width: 1.5; stroke-linecap: square"/>
   </g>
   <g id="patch_3">
    <path d="M 53.559131 178.737812 
L 53.559131 7.377813 
" style="fill: none; stroke: #000000; stroke-width: 0.8; stroke-linejoin: miter; stroke-linecap: square"/>
   </g>
   <g id="patch_4">
    <path d="M 499.959131 178.737812 
L 499.959131 7.377813 
" style="fill: none; stroke: #000000; stroke-width: 0.8; stroke-linejoin: miter; stroke-linecap: square"/>
   </g>
   <g id="patch_5">
    <path d="M 53.559131 178.737812 
L 499.959131 178.737812 
" style="fill: none; stroke: #000000; stroke-width: 0.8; stroke-linejoin: miter; stroke-linecap: square"/>
   </g>
   <g id="patch_6">
    <path d="M 53.559131 7.377813 
L 499.959131 7.377813 
" style="fill: none; stroke: #000000; stroke-width: 0.8; stroke-linejoin: miter; stroke-linecap: square"/>
   </g>
   <g id="legend_1">
    <g id="patch_7">
     <path d="M 164.201006 129.007562 
L 389.317256 129.007562 
Q 390.917256 129.007562 390.917256 127.407562 
L 390.917256 92.980062 
Q 390.917256 91.380062 389.317256 91.380062 
L 164.201006 91.380062 
Q 162.601006 91.380062 162.601006 92.980062 
L 162.601006 127.407562 
Q 162.601006 129.007562 164.201006 129.007562 
z
" style="fill: #ffffff; opacity: 0.8; stroke: #cccccc; stroke-linejoin: miter"/>
    </g>
    <g id="line2d_33">
     <path d="M 165.801006 97.858812 
L 173.801006 97.858812 
L 181.801006 97.858812 
" style="fill: none; stroke: #1f77b4; stroke-width: 1.5; stroke-linecap: square"/>
    </g>
    <g id="text_22">
     <!-- script-src -->
     <g transform="translate(188.201006 100.658812)scale(0.08 -0.08)">
      <use xlink:href="#DejaVuSans-73"/>
      <use xlink:href="#DejaVuSans-63" x="52.099609"/>
      <use xlink:href="#DejaVuSans-72" x="107.080078"/>
      <use xlink:href="#DejaVuSans-69" x="148.193359"/>
      <use xlink:href="#DejaVuSans-70" x="175.976562"/>
      <use xlink:href="#DejaVuSans-74" x="239.453125"/>
      <use xlink:href="#DejaVuSans-2d" x="278.662109"/>
      <use xlink:href="#DejaVuSans-73" x="314.746094"/>
      <use xlink:href="#DejaVuSans-72" x="366.845703"/>
      <use xlink:href="#DejaVuSans-63" x="405.708984"/>
     </g>
    </g>
    <g id="line2d_34">
     <path d="M 165.801006 109.601312 
L 173.801006 109.601312 
L 181.801006 109.601312 
" style="fill: none; stroke: #ff7f0e; stroke-width: 1.5; stroke-linecap: square"/>
    </g>
    <g id="text_23">
     <!-- connect-src -->
     <g transform="translate(188.201006 112.401312)scale(0.08 -0.08)">
      <use xlink:href="#DejaVuSans-63"/>
      <use xlink:href="#DejaVuSans-6f" x="54.980469"/>
      <use xlink:href="#DejaVuSans-6e" x="116.162109"/>
      <use xlink:href="#DejaVuSans-6e" x="179.541016"/>
      <use xlink:href="#DejaVuSans-65" x="242.919922"/>
      <use xlink:href="#DejaVuSans-63" x="304.443359"/>
      <use xlink:href="#DejaVuSans-74" x="359.423828"/>
      <use xlink:href="#DejaVuSans-2d" x="398.632812"/>
      <use xlink:href="#DejaVuSans-73" x="434.716797"/>
      <use xlink:href="#DejaVuSans-72" x="486.816406"/>
      <use xlink:href="#DejaVuSans-63" x="525.679688"/>
     </g>
    </g>
    <g id="line2d_35">
     <path d="M 165.801006 121.343812 
L 173.801006 121.343812 
L 181.801006 121.343812 
" style="fill: none; stroke: #2ca02c; stroke-width: 1.5; stroke-linecap: square"/>
    </g>
    <g id="text_24">
     <!-- style-src -->
     <g transform="translate(188.201006 124.143812)scale(0.08 -0.08)">
      <use xlink:href="#DejaVuSans-73"/>
      <use xlink:href="#DejaVuSans-74" x="52.099609"/>
      <use xlink:href="#DejaVuSans-79" x="91.308594"/>
      <use xlink:href="#DejaVuSans-6c" x="150.488281"/>
      <use xlink:href="#DejaVuSans-65" x="178.271484"/>
      <use xlink:href="#DejaVuSans-2d" x="239.794922"/>
      <use xlink:href="#DejaVuSans-73" x="275.878906"/>
      <use xlink:href="#DejaVuSans-72" x="327.978516"/>
      <use xlink:href="#DejaVuSans-63" x="366.841797"/>
     </g>
    </g>
    <g id="line2d_36">
     <path d="M 250.653506 97.858812 
L 258.653506 97.858812 
L 266.653506 97.858812 
" style="fill: none; stroke: #d62728; stroke-width: 1.5; stroke-linecap: square"/>
    </g>
    <g id="text_25">
     <!-- img-src -->
     <g transform="translate(273.053506 100.658812)scale(0.08 -0.08)">
      <use xlink:href="#DejaVuSans-69"/>
      <use xlink:href="#DejaVuSans-6d" x="27.783203"/>
      <use xlink:href="#DejaVuSans-67" x="125.195312"/>
      <use xlink:href="#DejaVuSans-2d" x="188.671875"/>
      <use xlink:href="#DejaVuSans-73" x="224.755859"/>
      <use xlink:href="#DejaVuSans-72" x="276.855469"/>
      <use xlink:href="#DejaVuSans-63" x="315.71875"/>
     </g>
    </g>
    <g id="line2d_37">
     <path d="M 250.653506 109.601312 
L 258.653506 109.601312 
L 266.653506 109.601312 
" style="fill: none; stroke: #9467bd; stroke-width: 1.5; stroke-linecap: square"/>
    </g>
    <g id="text_26">
     <!-- child-src -->
     <g transform="translate(273.053506 112.401312)scale(0.08 -0.08)">
      <defs>
       <path id="DejaVuSans-68" d="M 3513 2113 
L 3513 0 
L 2938 0 
L 2938 2094 
Q 2938 2591 2744 2837 
Q 2550 3084 2163 3084 
Q 1697 3084 1428 2787 
Q 1159 2491 1159 1978 
L 1159 0 
L 581 0 
L 581 4863 
L 1159 4863 
L 1159 2956 
Q 1366 3272 1645 3428 
Q 1925 3584 2291 3584 
Q 2894 3584 3203 3211 
Q 3513 2838 3513 2113 
z
" transform="scale(0.015625)"/>
       <path id="DejaVuSans-64" d="M 2906 2969 
L 2906 4863 
L 3481 4863 
L 3481 0 
L 2906 0 
L 2906 525 
Q 2725 213 2448 61 
Q 2172 -91 1784 -91 
Q 1150 -91 751 415 
Q 353 922 353 1747 
Q 353 2572 751 3078 
Q 1150 3584 1784 3584 
Q 2172 3584 2448 3432 
Q 2725 3281 2906 2969 
z
M 947 1747 
Q 947 1113 1208 752 
Q 1469 391 1925 391 
Q 2381 391 2643 752 
Q 2906 1113 2906 1747 
Q 2906 2381 2643 2742 
Q 2381 3103 1925 3103 
Q 1469 3103 1208 2742 
Q 947 2381 947 1747 
z
" transform="scale(0.015625)"/>
      </defs>
      <use xlink:href="#DejaVuSans-63"/>
      <use xlink:href="#DejaVuSans-68" x="54.980469"/>
      <use xlink:href="#DejaVuSans-69" x="118.359375"/>
      <use xlink:href="#DejaVuSans-6c" x="146.142578"/>
      <use xlink:href="#DejaVuSans-64" x="173.925781"/>
      <use xlink:href="#DejaVuSans-2d" x="237.402344"/>
      <use xlink:href="#DejaVuSans-73" x="273.486328"/>
      <use xlink:href="#DejaVuSans-72" x="325.585938"/>
      <use xlink:href="#DejaVuSans-63" x="364.449219"/>
     </g>
    </g>
    <g id="line2d_38">
     <path d="M 322.607256 97.858812 
L 330.607256 97.858812 
L 338.607256 97.858812 
" style="fill: none; stroke: #8c564b; stroke-width: 1.5; stroke-linecap: square"/>
    </g>
    <g id="text_27">
     <!-- frame-src -->
     <g transform="translate(345.007256 100.658812)scale(0.08 -0.08)">
      <use xlink:href="#DejaVuSans-66"/>
      <use xlink:href="#DejaVuSans-72" x="35.205078"/>
      <use xlink:href="#DejaVuSans-61" x="76.318359"/>
      <use xlink:href="#DejaVuSans-6d" x="137.597656"/>
      <use xlink:href="#DejaVuSans-65" x="235.009766"/>
      <use xlink:href="#DejaVuSans-2d" x="296.533203"/>
      <use xlink:href="#DejaVuSans-73" x="332.617188"/>
      <use xlink:href="#DejaVuSans-72" x="384.716797"/>
      <use xlink:href="#DejaVuSans-63" x="423.580078"/>
     </g>
    </g>
    <g id="line2d_39">
     <path d="M 322.607256 109.601312 
L 330.607256 109.601312 
L 338.607256 109.601312 
" style="fill: none; stroke: #e377c2; stroke-width: 1.5; stroke-linecap: square"/>
    </g>
    <g id="text_28">
     <!-- default-src -->
     <g transform="translate(345.007256 112.401312)scale(0.08 -0.08)">
      <use xlink:href="#DejaVuSans-64"/>
      <use xlink:href="#DejaVuSans-65" x="63.476562"/>
      <use xlink:href="#DejaVuSans-66" x="125"/>
      <use xlink:href="#DejaVuSans-61" x="160.205078"/>
      <use xlink:href="#DejaVuSans-75" x="221.484375"/>
      <use xlink:href="#DejaVuSans-6c" x="284.863281"/>
      <use xlink:href="#DejaVuSans-74" x="312.646484"/>
      <use xlink:href="#DejaVuSans-2d" x="351.855469"/>
      <use xlink:href="#DejaVuSans-73" x="387.939453"/>
      <use xlink:href="#DejaVuSans-72" x="440.039062"/>
      <use xlink:href="#DejaVuSans-63" x="478.902344"/>
     </g>
    </g>
   </g>
  </g>
 </g>
 <defs>
  <clipPath id="p576783f1af">
   <rect x="53.559131" y="7.377813" width="446.4" height="171.36"/>
  </clipPath>
 </defs>
</svg>
