<?xml version="1.0" encoding="utf-8" standalone="no"?>
<!DOCTYPE svg PUBLIC "-//W3C//DTD SVG 1.1//EN"
  "http://www.w3.org/Graphics/SVG/1.1/DTD/svg11.dtd">
<svg xmlns:xlink="http://www.w3.org/1999/xlink" width="507.159131pt" height="250.252127pt" viewBox="0 0 507.159131 250.252127" xmlns="http://www.w3.org/2000/svg" version="1.1">
 <metadata>
  <rdf:RDF xmlns:dc="http://purl.org/dc/elements/1.1/" xmlns:cc="http://creativecommons.org/ns#" xmlns:rdf="http://www.w3.org/1999/02/22-rdf-syntax-ns#">
   <cc:Work>
    <dc:type rdf:resource="http://purl.org/dc/dcmitype/StillImage"/>
    <dc:date>2022-02-02T19:49:14.030942</dc:date>
    <dc:format>image/svg+xml</dc:format>
    <dc:creator>
     <cc:Agent>
      <dc:title>Matplotlib v3.5.1, https://matplotlib.org/</dc:title>
     </cc:Agent>
    </dc:creator>
   </cc:Work>
  </rdf:RDF>
 </metadata>
 <defs>
  <style type="text/css">*{stroke-linejoin: round; stroke-linecap: butt}</style>
 </defs>
 <g id="figure_1">
  <g id="patch_1">
   <path d="M 0 250.252127 
L 507.159131 250.252127 
L 507.159131 0 
L 0 0 
z
" style="fill: #ffffff"/>
  </g>
  <g id="axes_1">
   <g id="patch_2">
    <path d="M 53.559131 194.725312 
L 499.959131 194.725312 
L 499.959131 23.365313 
L 53.559131 23.365313 
z
" style="fill: #ffffff"/>
   </g>
   <g id="matplotlib.axis_1">
    <g id="xtick_1">
     <g id="line2d_1">
      <defs>
       <path id="m424570d7eb" d="M 0 0 
L 0 3.5 
" style="stroke: #000000; stroke-width: 0.8"/>
      </defs>
      <g>
       <use xlink:href="#m424570d7eb" x="68.024899" y="194.725312" style="stroke: #000000; stroke-width: 0.8"/>
      </g>
     </g>
     <g id="text_1">
      <!-- 2020-Nov-01 -->
      <g transform="translate(10.999219 240.62919)rotate(-30)scale(0.1 -0.1)">
       <defs>
        <path id="DejaVuSans-32" d="M 1228 531 
L 3431 531 
L 3431 0 
L 469 0 
L 469 531 
Q 828 903 1448 1529 
Q 2069 2156 2228 2338 
Q 2531 2678 2651 2914 
Q 2772 3150 2772 3378 
Q 2772 3750 2511 3984 
Q 2250 4219 1831 4219 
Q 1534 4219 1204 4116 
Q 875 4013 500 3803 
L 500 4441 
Q 881 4594 1212 4672 
Q 1544 4750 1819 4750 
Q 2544 4750 2975 4387 
Q 3406 4025 3406 3419 
Q 3406 3131 3298 2873 
Q 3191 2616 2906 2266 
Q 2828 2175 2409 1742 
Q 1991 1309 1228 531 
z
" transform="scale(0.015625)"/>
        <path id="DejaVuSans-30" d="M 2034 4250 
Q 1547 4250 1301 3770 
Q 1056 3291 1056 2328 
Q 1056 1369 1301 889 
Q 1547 409 2034 409 
Q 2525 409 2770 889 
Q 3016 1369 3016 2328 
Q 3016 3291 2770 3770 
Q 2525 4250 2034 4250 
z
M 2034 4750 
Q 2819 4750 3233 4129 
Q 3647 3509 3647 2328 
Q 3647 1150 3233 529 
Q 2819 -91 2034 -91 
Q 1250 -91 836 529 
Q 422 1150 422 2328 
Q 422 3509 836 4129 
Q 1250 4750 2034 4750 
z
" transform="scale(0.015625)"/>
        <path id="DejaVuSans-2d" d="M 313 2009 
L 1997 2009 
L 1997 1497 
L 313 1497 
L 313 2009 
z
" transform="scale(0.015625)"/>
        <path id="DejaVuSans-4e" d="M 628 4666 
L 1478 4666 
L 3547 763 
L 3547 4666 
L 4159 4666 
L 4159 0 
L 3309 0 
L 1241 3903 
L 1241 0 
L 628 0 
L 628 4666 
z
" transform="scale(0.015625)"/>
        <path id="DejaVuSans-6f" d="M 1959 3097 
Q 1497 3097 1228 2736 
Q 959 2375 959 1747 
Q 959 1119 1226 758 
Q 1494 397 1959 397 
Q 2419 397 2687 759 
Q 2956 1122 2956 1747 
Q 2956 2369 2687 2733 
Q 2419 3097 1959 3097 
z
M 1959 3584 
Q 2709 3584 3137 3096 
Q 3566 2609 3566 1747 
Q 3566 888 3137 398 
Q 2709 -91 1959 -91 
Q 1206 -91 779 398 
Q 353 888 353 1747 
Q 353 2609 779 3096 
Q 1206 3584 1959 3584 
z
" transform="scale(0.015625)"/>
        <path id="DejaVuSans-76" d="M 191 3500 
L 800 3500 
L 1894 563 
L 2988 3500 
L 3597 3500 
L 2284 0 
L 1503 0 
L 191 3500 
z
" transform="scale(0.015625)"/>
        <path id="DejaVuSans-31" d="M 794 531 
L 1825 531 
L 1825 4091 
L 703 3866 
L 703 4441 
L 1819 4666 
L 2450 4666 
L 2450 531 
L 3481 531 
L 3481 0 
L 794 0 
L 794 531 
z
" transform="scale(0.015625)"/>
       </defs>
       <use xlink:href="#DejaVuSans-32"/>
       <use xlink:href="#DejaVuSans-30" x="63.623047"/>
       <use xlink:href="#DejaVuSans-32" x="127.246094"/>
       <use xlink:href="#DejaVuSans-30" x="190.869141"/>
       <use xlink:href="#DejaVuSans-2d" x="254.492188"/>
       <use xlink:href="#DejaVuSans-4e" x="290.576172"/>
       <use xlink:href="#DejaVuSans-6f" x="365.380859"/>
       <use xlink:href="#DejaVuSans-76" x="426.5625"/>
       <use xlink:href="#DejaVuSans-2d" x="483.117188"/>
       <use xlink:href="#DejaVuSans-30" x="519.201172"/>
       <use xlink:href="#DejaVuSans-31" x="582.824219"/>
      </g>
     </g>
    </g>
    <g id="xtick_2">
     <g id="line2d_2">
      <g>
       <use xlink:href="#m424570d7eb" x="97.150605" y="194.725312" style="stroke: #000000; stroke-width: 0.8"/>
      </g>
     </g>
     <g id="text_2">
      <!-- 2020-Dec-01 -->
      <g transform="translate(40.042383 240.676846)rotate(-30)scale(0.1 -0.1)">
       <defs>
        <path id="DejaVuSans-44" d="M 1259 4147 
L 1259 519 
L 2022 519 
Q 2988 519 3436 956 
Q 3884 1394 3884 2338 
Q 3884 3275 3436 3711 
Q 2988 4147 2022 4147 
L 1259 4147 
z
M 628 4666 
L 1925 4666 
Q 3281 4666 3915 4102 
Q 4550 3538 4550 2338 
Q 4550 1131 3912 565 
Q 3275 0 1925 0 
L 628 0 
L 628 4666 
z
" transform="scale(0.015625)"/>
        <path id="DejaVuSans-65" d="M 3597 1894 
L 3597 1613 
L 953 1613 
Q 991 1019 1311 708 
Q 1631 397 2203 397 
Q 2534 397 2845 478 
Q 3156 559 3463 722 
L 3463 178 
Q 3153 47 2828 -22 
Q 2503 -91 2169 -91 
Q 1331 -91 842 396 
Q 353 884 353 1716 
Q 353 2575 817 3079 
Q 1281 3584 2069 3584 
Q 2775 3584 3186 3129 
Q 3597 2675 3597 1894 
z
M 3022 2063 
Q 3016 2534 2758 2815 
Q 2500 3097 2075 3097 
Q 1594 3097 1305 2825 
Q 1016 2553 972 2059 
L 3022 2063 
z
" transform="scale(0.015625)"/>
        <path id="DejaVuSans-63" d="M 3122 3366 
L 3122 2828 
Q 2878 2963 2633 3030 
Q 2388 3097 2138 3097 
Q 1578 3097 1268 2742 
Q 959 2388 959 1747 
Q 959 1106 1268 751 
Q 1578 397 2138 397 
Q 2388 397 2633 464 
Q 2878 531 3122 666 
L 3122 134 
Q 2881 22 2623 -34 
Q 2366 -91 2075 -91 
Q 1284 -91 818 406 
Q 353 903 353 1747 
Q 353 2603 823 3093 
Q 1294 3584 2113 3584 
Q 2378 3584 2631 3529 
Q 2884 3475 3122 3366 
z
" transform="scale(0.015625)"/>
       </defs>
       <use xlink:href="#DejaVuSans-32"/>
       <use xlink:href="#DejaVuSans-30" x="63.623047"/>
       <use xlink:href="#DejaVuSans-32" x="127.246094"/>
       <use xlink:href="#DejaVuSans-30" x="190.869141"/>
       <use xlink:href="#DejaVuSans-2d" x="254.492188"/>
       <use xlink:href="#DejaVuSans-44" x="290.576172"/>
       <use xlink:href="#DejaVuSans-65" x="367.578125"/>
       <use xlink:href="#DejaVuSans-63" x="429.101562"/>
       <use xlink:href="#DejaVuSans-2d" x="484.082031"/>
       <use xlink:href="#DejaVuSans-30" x="520.166016"/>
       <use xlink:href="#DejaVuSans-31" x="583.789062"/>
      </g>
     </g>
    </g>
    <g id="xtick_3">
     <g id="line2d_3">
      <g>
       <use xlink:href="#m424570d7eb" x="127.247169" y="194.725312" style="stroke: #000000; stroke-width: 0.8"/>
      </g>
     </g>
     <g id="text_3">
      <!-- 2021-Jan-01 -->
      <g transform="translate(73.060429 238.990127)rotate(-30)scale(0.1 -0.1)">
       <defs>
        <path id="DejaVuSans-4a" d="M 628 4666 
L 1259 4666 
L 1259 325 
Q 1259 -519 939 -900 
Q 619 -1281 -91 -1281 
L -331 -1281 
L -331 -750 
L -134 -750 
Q 284 -750 456 -515 
Q 628 -281 628 325 
L 628 4666 
z
" transform="scale(0.015625)"/>
        <path id="DejaVuSans-61" d="M 2194 1759 
Q 1497 1759 1228 1600 
Q 959 1441 959 1056 
Q 959 750 1161 570 
Q 1363 391 1709 391 
Q 2188 391 2477 730 
Q 2766 1069 2766 1631 
L 2766 1759 
L 2194 1759 
z
M 3341 1997 
L 3341 0 
L 2766 0 
L 2766 531 
Q 2569 213 2275 61 
Q 1981 -91 1556 -91 
Q 1019 -91 701 211 
Q 384 513 384 1019 
Q 384 1609 779 1909 
Q 1175 2209 1959 2209 
L 2766 2209 
L 2766 2266 
Q 2766 2663 2505 2880 
Q 2244 3097 1772 3097 
Q 1472 3097 1187 3025 
Q 903 2953 641 2809 
L 641 3341 
Q 956 3463 1253 3523 
Q 1550 3584 1831 3584 
Q 2591 3584 2966 3190 
Q 3341 2797 3341 1997 
z
" transform="scale(0.015625)"/>
        <path id="DejaVuSans-6e" d="M 3513 2113 
L 3513 0 
L 2938 0 
L 2938 2094 
Q 2938 2591 2744 2837 
Q 2550 3084 2163 3084 
Q 1697 3084 1428 2787 
Q 1159 2491 1159 1978 
L 1159 0 
L 581 0 
L 581 3500 
L 1159 3500 
L 1159 2956 
Q 1366 3272 1645 3428 
Q 1925 3584 2291 3584 
Q 2894 3584 3203 3211 
Q 3513 2838 3513 2113 
z
" transform="scale(0.015625)"/>
       </defs>
       <use xlink:href="#DejaVuSans-32"/>
       <use xlink:href="#DejaVuSans-30" x="63.623047"/>
       <use xlink:href="#DejaVuSans-32" x="127.246094"/>
       <use xlink:href="#DejaVuSans-31" x="190.869141"/>
       <use xlink:href="#DejaVuSans-2d" x="254.492188"/>
       <use xlink:href="#DejaVuSans-4a" x="296.201172"/>
       <use xlink:href="#DejaVuSans-61" x="325.693359"/>
       <use xlink:href="#DejaVuSans-6e" x="386.972656"/>
       <use xlink:href="#DejaVuSans-2d" x="450.351562"/>
       <use xlink:href="#DejaVuSans-30" x="486.435547"/>
       <use xlink:href="#DejaVuSans-31" x="550.058594"/>
      </g>
     </g>
    </g>
    <g id="xtick_4">
     <g id="line2d_4">
      <g>
       <use xlink:href="#m424570d7eb" x="157.343733" y="194.725312" style="stroke: #000000; stroke-width: 0.8"/>
      </g>
     </g>
     <g id="text_4">
      <!-- 2021-Feb-01 -->
      <g transform="translate(101.663099 239.852627)rotate(-30)scale(0.1 -0.1)">
       <defs>
        <path id="DejaVuSans-46" d="M 628 4666 
L 3309 4666 
L 3309 4134 
L 1259 4134 
L 1259 2759 
L 3109 2759 
L 3109 2228 
L 1259 2228 
L 1259 0 
L 628 0 
L 628 4666 
z
" transform="scale(0.015625)"/>
        <path id="DejaVuSans-62" d="M 3116 1747 
Q 3116 2381 2855 2742 
Q 2594 3103 2138 3103 
Q 1681 3103 1420 2742 
Q 1159 2381 1159 1747 
Q 1159 1113 1420 752 
Q 1681 391 2138 391 
Q 2594 391 2855 752 
Q 3116 1113 3116 1747 
z
M 1159 2969 
Q 1341 3281 1617 3432 
Q 1894 3584 2278 3584 
Q 2916 3584 3314 3078 
Q 3713 2572 3713 1747 
Q 3713 922 3314 415 
Q 2916 -91 2278 -91 
Q 1894 -91 1617 61 
Q 1341 213 1159 525 
L 1159 0 
L 581 0 
L 581 4863 
L 1159 4863 
L 1159 2969 
z
" transform="scale(0.015625)"/>
       </defs>
       <use xlink:href="#DejaVuSans-32"/>
       <use xlink:href="#DejaVuSans-30" x="63.623047"/>
       <use xlink:href="#DejaVuSans-32" x="127.246094"/>
       <use xlink:href="#DejaVuSans-31" x="190.869141"/>
       <use xlink:href="#DejaVuSans-2d" x="254.492188"/>
       <use xlink:href="#DejaVuSans-46" x="290.576172"/>
       <use xlink:href="#DejaVuSans-65" x="342.595703"/>
       <use xlink:href="#DejaVuSans-62" x="404.119141"/>
       <use xlink:href="#DejaVuSans-2d" x="467.595703"/>
       <use xlink:href="#DejaVuSans-30" x="503.679688"/>
       <use xlink:href="#DejaVuSans-31" x="567.302734"/>
      </g>
     </g>
    </g>
    <g id="xtick_5">
     <g id="line2d_5">
      <g>
       <use xlink:href="#m424570d7eb" x="184.527726" y="194.725312" style="stroke: #000000; stroke-width: 0.8"/>
      </g>
     </g>
     <g id="text_5">
      <!-- 2021-Mar-01 -->
      <g transform="translate(128.391075 240.115909)rotate(-30)scale(0.1 -0.1)">
       <defs>
        <path id="DejaVuSans-4d" d="M 628 4666 
L 1569 4666 
L 2759 1491 
L 3956 4666 
L 4897 4666 
L 4897 0 
L 4281 0 
L 4281 4097 
L 3078 897 
L 2444 897 
L 1241 4097 
L 1241 0 
L 628 0 
L 628 4666 
z
" transform="scale(0.015625)"/>
        <path id="DejaVuSans-72" d="M 2631 2963 
Q 2534 3019 2420 3045 
Q 2306 3072 2169 3072 
Q 1681 3072 1420 2755 
Q 1159 2438 1159 1844 
L 1159 0 
L 581 0 
L 581 3500 
L 1159 3500 
L 1159 2956 
Q 1341 3275 1631 3429 
Q 1922 3584 2338 3584 
Q 2397 3584 2469 3576 
Q 2541 3569 2628 3553 
L 2631 2963 
z
" transform="scale(0.015625)"/>
       </defs>
       <use xlink:href="#DejaVuSans-32"/>
       <use xlink:href="#DejaVuSans-30" x="63.623047"/>
       <use xlink:href="#DejaVuSans-32" x="127.246094"/>
       <use xlink:href="#DejaVuSans-31" x="190.869141"/>
       <use xlink:href="#DejaVuSans-2d" x="254.492188"/>
       <use xlink:href="#DejaVuSans-4d" x="290.576172"/>
       <use xlink:href="#DejaVuSans-61" x="376.855469"/>
       <use xlink:href="#DejaVuSans-72" x="438.134766"/>
       <use xlink:href="#DejaVuSans-2d" x="472.873047"/>
       <use xlink:href="#DejaVuSans-30" x="508.957031"/>
       <use xlink:href="#DejaVuSans-31" x="572.580078"/>
      </g>
     </g>
    </g>
    <g id="xtick_6">
     <g id="line2d_6">
      <g>
       <use xlink:href="#m424570d7eb" x="214.62429" y="194.725312" style="stroke: #000000; stroke-width: 0.8"/>
      </g>
     </g>
     <g id="text_6">
      <!-- 2021-Apr-01 -->
      <g transform="translate(160.039719 239.219815)rotate(-30)scale(0.1 -0.1)">
       <defs>
        <path id="DejaVuSans-41" d="M 2188 4044 
L 1331 1722 
L 3047 1722 
L 2188 4044 
z
M 1831 4666 
L 2547 4666 
L 4325 0 
L 3669 0 
L 3244 1197 
L 1141 1197 
L 716 0 
L 50 0 
L 1831 4666 
z
" transform="scale(0.015625)"/>
        <path id="DejaVuSans-70" d="M 1159 525 
L 1159 -1331 
L 581 -1331 
L 581 3500 
L 1159 3500 
L 1159 2969 
Q 1341 3281 1617 3432 
Q 1894 3584 2278 3584 
Q 2916 3584 3314 3078 
Q 3713 2572 3713 1747 
Q 3713 922 3314 415 
Q 2916 -91 2278 -91 
Q 1894 -91 1617 61 
Q 1341 213 1159 525 
z
M 3116 1747 
Q 3116 2381 2855 2742 
Q 2594 3103 2138 3103 
Q 1681 3103 1420 2742 
Q 1159 2381 1159 1747 
Q 1159 1113 1420 752 
Q 1681 391 2138 391 
Q 2594 391 2855 752 
Q 3116 1113 3116 1747 
z
" transform="scale(0.015625)"/>
       </defs>
       <use xlink:href="#DejaVuSans-32"/>
       <use xlink:href="#DejaVuSans-30" x="63.623047"/>
       <use xlink:href="#DejaVuSans-32" x="127.246094"/>
       <use xlink:href="#DejaVuSans-31" x="190.869141"/>
       <use xlink:href="#DejaVuSans-2d" x="254.492188"/>
       <use xlink:href="#DejaVuSans-41" x="288.326172"/>
       <use xlink:href="#DejaVuSans-70" x="356.734375"/>
       <use xlink:href="#DejaVuSans-72" x="420.210938"/>
       <use xlink:href="#DejaVuSans-2d" x="454.949219"/>
       <use xlink:href="#DejaVuSans-30" x="491.033203"/>
       <use xlink:href="#DejaVuSans-31" x="554.65625"/>
      </g>
     </g>
    </g>
    <g id="xtick_7">
     <g id="line2d_7">
      <g>
       <use xlink:href="#m424570d7eb" x="243.749996" y="194.725312" style="stroke: #000000; stroke-width: 0.8"/>
      </g>
     </g>
     <g id="text_7">
      <!-- 2021-May-01 -->
      <g transform="translate(185.647198 241.251065)rotate(-30)scale(0.1 -0.1)">
       <defs>
        <path id="DejaVuSans-79" d="M 2059 -325 
Q 1816 -950 1584 -1140 
Q 1353 -1331 966 -1331 
L 506 -1331 
L 506 -850 
L 844 -850 
Q 1081 -850 1212 -737 
Q 1344 -625 1503 -206 
L 1606 56 
L 191 3500 
L 800 3500 
L 1894 763 
L 2988 3500 
L 3597 3500 
L 2059 -325 
z
" transform="scale(0.015625)"/>
       </defs>
       <use xlink:href="#DejaVuSans-32"/>
       <use xlink:href="#DejaVuSans-30" x="63.623047"/>
       <use xlink:href="#DejaVuSans-32" x="127.246094"/>
       <use xlink:href="#DejaVuSans-31" x="190.869141"/>
       <use xlink:href="#DejaVuSans-2d" x="254.492188"/>
       <use xlink:href="#DejaVuSans-4d" x="290.576172"/>
       <use xlink:href="#DejaVuSans-61" x="376.855469"/>
       <use xlink:href="#DejaVuSans-79" x="438.134766"/>
       <use xlink:href="#DejaVuSans-2d" x="495.564453"/>
       <use xlink:href="#DejaVuSans-30" x="531.648438"/>
       <use xlink:href="#DejaVuSans-31" x="595.271484"/>
      </g>
     </g>
    </g>
    <g id="xtick_8">
     <g id="line2d_8">
      <g>
       <use xlink:href="#m424570d7eb" x="273.84656" y="194.725312" style="stroke: #000000; stroke-width: 0.8"/>
      </g>
     </g>
     <g id="text_8">
      <!-- 2021-Jun-01 -->
      <g transform="translate(219.478496 239.094815)rotate(-30)scale(0.1 -0.1)">
       <defs>
        <path id="DejaVuSans-75" d="M 544 1381 
L 544 3500 
L 1119 3500 
L 1119 1403 
Q 1119 906 1312 657 
Q 1506 409 1894 409 
Q 2359 409 2629 706 
Q 2900 1003 2900 1516 
L 2900 3500 
L 3475 3500 
L 3475 0 
L 2900 0 
L 2900 538 
Q 2691 219 2414 64 
Q 2138 -91 1772 -91 
Q 1169 -91 856 284 
Q 544 659 544 1381 
z
M 1991 3584 
L 1991 3584 
z
" transform="scale(0.015625)"/>
       </defs>
       <use xlink:href="#DejaVuSans-32"/>
       <use xlink:href="#DejaVuSans-30" x="63.623047"/>
       <use xlink:href="#DejaVuSans-32" x="127.246094"/>
       <use xlink:href="#DejaVuSans-31" x="190.869141"/>
       <use xlink:href="#DejaVuSans-2d" x="254.492188"/>
       <use xlink:href="#DejaVuSans-4a" x="296.201172"/>
       <use xlink:href="#DejaVuSans-75" x="325.693359"/>
       <use xlink:href="#DejaVuSans-6e" x="389.072266"/>
       <use xlink:href="#DejaVuSans-2d" x="452.451172"/>
       <use xlink:href="#DejaVuSans-30" x="488.535156"/>
       <use xlink:href="#DejaVuSans-31" x="552.158203"/>
      </g>
     </g>
    </g>
    <g id="xtick_9">
     <g id="line2d_9">
      <g>
       <use xlink:href="#m424570d7eb" x="302.972267" y="194.725312" style="stroke: #000000; stroke-width: 0.8"/>
      </g>
     </g>
     <g id="text_9">
      <!-- 2021-Jul-01 -->
      <g transform="translate(251.686712 237.315127)rotate(-30)scale(0.1 -0.1)">
       <defs>
        <path id="DejaVuSans-6c" d="M 603 4863 
L 1178 4863 
L 1178 0 
L 603 0 
L 603 4863 
z
" transform="scale(0.015625)"/>
       </defs>
       <use xlink:href="#DejaVuSans-32"/>
       <use xlink:href="#DejaVuSans-30" x="63.623047"/>
       <use xlink:href="#DejaVuSans-32" x="127.246094"/>
       <use xlink:href="#DejaVuSans-31" x="190.869141"/>
       <use xlink:href="#DejaVuSans-2d" x="254.492188"/>
       <use xlink:href="#DejaVuSans-4a" x="296.201172"/>
       <use xlink:href="#DejaVuSans-75" x="325.693359"/>
       <use xlink:href="#DejaVuSans-6c" x="389.072266"/>
       <use xlink:href="#DejaVuSans-2d" x="416.855469"/>
       <use xlink:href="#DejaVuSans-30" x="452.939453"/>
       <use xlink:href="#DejaVuSans-31" x="516.5625"/>
      </g>
     </g>
    </g>
    <g id="xtick_10">
     <g id="line2d_10">
      <g>
       <use xlink:href="#m424570d7eb" x="333.068831" y="194.725312" style="stroke: #000000; stroke-width: 0.8"/>
      </g>
     </g>
     <g id="text_10">
      <!-- 2021-Aug-01 -->
      <g transform="translate(276.003909 240.651846)rotate(-30)scale(0.1 -0.1)">
       <defs>
        <path id="DejaVuSans-67" d="M 2906 1791 
Q 2906 2416 2648 2759 
Q 2391 3103 1925 3103 
Q 1463 3103 1205 2759 
Q 947 2416 947 1791 
Q 947 1169 1205 825 
Q 1463 481 1925 481 
Q 2391 481 2648 825 
Q 2906 1169 2906 1791 
z
M 3481 434 
Q 3481 -459 3084 -895 
Q 2688 -1331 1869 -1331 
Q 1566 -1331 1297 -1286 
Q 1028 -1241 775 -1147 
L 775 -588 
Q 1028 -725 1275 -790 
Q 1522 -856 1778 -856 
Q 2344 -856 2625 -561 
Q 2906 -266 2906 331 
L 2906 616 
Q 2728 306 2450 153 
Q 2172 0 1784 0 
Q 1141 0 747 490 
Q 353 981 353 1791 
Q 353 2603 747 3093 
Q 1141 3584 1784 3584 
Q 2172 3584 2450 3431 
Q 2728 3278 2906 2969 
L 2906 3500 
L 3481 3500 
L 3481 434 
z
" transform="scale(0.015625)"/>
       </defs>
       <use xlink:href="#DejaVuSans-32"/>
       <use xlink:href="#DejaVuSans-30" x="63.623047"/>
       <use xlink:href="#DejaVuSans-32" x="127.246094"/>
       <use xlink:href="#DejaVuSans-31" x="190.869141"/>
       <use xlink:href="#DejaVuSans-2d" x="254.492188"/>
       <use xlink:href="#DejaVuSans-41" x="288.326172"/>
       <use xlink:href="#DejaVuSans-75" x="356.734375"/>
       <use xlink:href="#DejaVuSans-67" x="420.113281"/>
       <use xlink:href="#DejaVuSans-2d" x="483.589844"/>
       <use xlink:href="#DejaVuSans-30" x="519.673828"/>
       <use xlink:href="#DejaVuSans-31" x="583.296875"/>
      </g>
     </g>
    </g>
    <g id="xtick_11">
     <g id="line2d_11">
      <g>
       <use xlink:href="#m424570d7eb" x="363.165394" y="194.725312" style="stroke: #000000; stroke-width: 0.8"/>
      </g>
     </g>
     <g id="text_11">
      <!-- 2021-Sep-01 -->
      <g transform="translate(306.491537 240.426065)rotate(-30)scale(0.1 -0.1)">
       <defs>
        <path id="DejaVuSans-53" d="M 3425 4513 
L 3425 3897 
Q 3066 4069 2747 4153 
Q 2428 4238 2131 4238 
Q 1616 4238 1336 4038 
Q 1056 3838 1056 3469 
Q 1056 3159 1242 3001 
Q 1428 2844 1947 2747 
L 2328 2669 
Q 3034 2534 3370 2195 
Q 3706 1856 3706 1288 
Q 3706 609 3251 259 
Q 2797 -91 1919 -91 
Q 1588 -91 1214 -16 
Q 841 59 441 206 
L 441 856 
Q 825 641 1194 531 
Q 1563 422 1919 422 
Q 2459 422 2753 634 
Q 3047 847 3047 1241 
Q 3047 1584 2836 1778 
Q 2625 1972 2144 2069 
L 1759 2144 
Q 1053 2284 737 2584 
Q 422 2884 422 3419 
Q 422 4038 858 4394 
Q 1294 4750 2059 4750 
Q 2388 4750 2728 4690 
Q 3069 4631 3425 4513 
z
" transform="scale(0.015625)"/>
       </defs>
       <use xlink:href="#DejaVuSans-32"/>
       <use xlink:href="#DejaVuSans-30" x="63.623047"/>
       <use xlink:href="#DejaVuSans-32" x="127.246094"/>
       <use xlink:href="#DejaVuSans-31" x="190.869141"/>
       <use xlink:href="#DejaVuSans-2d" x="254.492188"/>
       <use xlink:href="#DejaVuSans-53" x="290.576172"/>
       <use xlink:href="#DejaVuSans-65" x="354.052734"/>
       <use xlink:href="#DejaVuSans-70" x="415.576172"/>
       <use xlink:href="#DejaVuSans-2d" x="479.052734"/>
       <use xlink:href="#DejaVuSans-30" x="515.136719"/>
       <use xlink:href="#DejaVuSans-31" x="578.759766"/>
      </g>
     </g>
    </g>
    <g id="xtick_12">
     <g id="line2d_12">
      <g>
       <use xlink:href="#m424570d7eb" x="392.291101" y="194.725312" style="stroke: #000000; stroke-width: 0.8"/>
      </g>
     </g>
     <g id="text_12">
      <!-- 2021-Oct-01 -->
      <g transform="translate(336.729546 239.783877)rotate(-30)scale(0.1 -0.1)">
       <defs>
        <path id="DejaVuSans-4f" d="M 2522 4238 
Q 1834 4238 1429 3725 
Q 1025 3213 1025 2328 
Q 1025 1447 1429 934 
Q 1834 422 2522 422 
Q 3209 422 3611 934 
Q 4013 1447 4013 2328 
Q 4013 3213 3611 3725 
Q 3209 4238 2522 4238 
z
M 2522 4750 
Q 3503 4750 4090 4092 
Q 4678 3434 4678 2328 
Q 4678 1225 4090 567 
Q 3503 -91 2522 -91 
Q 1538 -91 948 565 
Q 359 1222 359 2328 
Q 359 3434 948 4092 
Q 1538 4750 2522 4750 
z
" transform="scale(0.015625)"/>
        <path id="DejaVuSans-74" d="M 1172 4494 
L 1172 3500 
L 2356 3500 
L 2356 3053 
L 1172 3053 
L 1172 1153 
Q 1172 725 1289 603 
Q 1406 481 1766 481 
L 2356 481 
L 2356 0 
L 1766 0 
Q 1100 0 847 248 
Q 594 497 594 1153 
L 594 3053 
L 172 3053 
L 172 3500 
L 594 3500 
L 594 4494 
L 1172 4494 
z
" transform="scale(0.015625)"/>
       </defs>
       <use xlink:href="#DejaVuSans-32"/>
       <use xlink:href="#DejaVuSans-30" x="63.623047"/>
       <use xlink:href="#DejaVuSans-32" x="127.246094"/>
       <use xlink:href="#DejaVuSans-31" x="190.869141"/>
       <use xlink:href="#DejaVuSans-2d" x="254.492188"/>
       <use xlink:href="#DejaVuSans-4f" x="293.326172"/>
       <use xlink:href="#DejaVuSans-63" x="372.037109"/>
       <use xlink:href="#DejaVuSans-74" x="427.017578"/>
       <use xlink:href="#DejaVuSans-2d" x="466.226562"/>
       <use xlink:href="#DejaVuSans-30" x="502.310547"/>
       <use xlink:href="#DejaVuSans-31" x="565.933594"/>
      </g>
     </g>
    </g>
    <g id="xtick_13">
     <g id="line2d_13">
      <g>
       <use xlink:href="#m424570d7eb" x="422.387665" y="194.725312" style="stroke: #000000; stroke-width: 0.8"/>
      </g>
     </g>
     <g id="text_13">
      <!-- 2021-Nov-01 -->
      <g transform="translate(365.361985 240.62919)rotate(-30)scale(0.1 -0.1)">
       <use xlink:href="#DejaVuSans-32"/>
       <use xlink:href="#DejaVuSans-30" x="63.623047"/>
       <use xlink:href="#DejaVuSans-32" x="127.246094"/>
       <use xlink:href="#DejaVuSans-31" x="190.869141"/>
       <use xlink:href="#DejaVuSans-2d" x="254.492188"/>
       <use xlink:href="#DejaVuSans-4e" x="290.576172"/>
       <use xlink:href="#DejaVuSans-6f" x="365.380859"/>
       <use xlink:href="#DejaVuSans-76" x="426.5625"/>
       <use xlink:href="#DejaVuSans-2d" x="483.117188"/>
       <use xlink:href="#DejaVuSans-30" x="519.201172"/>
       <use xlink:href="#DejaVuSans-31" x="582.824219"/>
      </g>
     </g>
    </g>
    <g id="xtick_14">
     <g id="line2d_14">
      <g>
       <use xlink:href="#m424570d7eb" x="451.513372" y="194.725312" style="stroke: #000000; stroke-width: 0.8"/>
      </g>
     </g>
     <g id="text_14">
      <!-- 2021-Dec-01 -->
      <g transform="translate(394.405149 240.676846)rotate(-30)scale(0.1 -0.1)">
       <use xlink:href="#DejaVuSans-32"/>
       <use xlink:href="#DejaVuSans-30" x="63.623047"/>
       <use xlink:href="#DejaVuSans-32" x="127.246094"/>
       <use xlink:href="#DejaVuSans-31" x="190.869141"/>
       <use xlink:href="#DejaVuSans-2d" x="254.492188"/>
       <use xlink:href="#DejaVuSans-44" x="290.576172"/>
       <use xlink:href="#DejaVuSans-65" x="367.578125"/>
       <use xlink:href="#DejaVuSans-63" x="429.101562"/>
       <use xlink:href="#DejaVuSans-2d" x="484.082031"/>
       <use xlink:href="#DejaVuSans-30" x="520.166016"/>
       <use xlink:href="#DejaVuSans-31" x="583.789062"/>
      </g>
     </g>
    </g>
    <g id="xtick_15">
     <g id="line2d_15">
      <g>
       <use xlink:href="#m424570d7eb" x="481.609935" y="194.725312" style="stroke: #000000; stroke-width: 0.8"/>
      </g>
     </g>
     <g id="text_15">
      <!-- 2022-Jan-01 -->
      <g transform="translate(427.423195 238.990127)rotate(-30)scale(0.1 -0.1)">
       <use xlink:href="#DejaVuSans-32"/>
       <use xlink:href="#DejaVuSans-30" x="63.623047"/>
       <use xlink:href="#DejaVuSans-32" x="127.246094"/>
       <use xlink:href="#DejaVuSans-32" x="190.869141"/>
       <use xlink:href="#DejaVuSans-2d" x="254.492188"/>
       <use xlink:href="#DejaVuSans-4a" x="296.201172"/>
       <use xlink:href="#DejaVuSans-61" x="325.693359"/>
       <use xlink:href="#DejaVuSans-6e" x="386.972656"/>
       <use xlink:href="#DejaVuSans-2d" x="450.351562"/>
       <use xlink:href="#DejaVuSans-30" x="486.435547"/>
       <use xlink:href="#DejaVuSans-31" x="550.058594"/>
      </g>
     </g>
    </g>
   </g>
   <g id="matplotlib.axis_2">
    <g id="ytick_1">
     <g id="line2d_16">
      <path d="M 53.559131 169.018824 
L 499.959131 169.018824 
" clip-path="url(#p6df4165a4f)" style="fill: none; stroke: #b0b0b0; stroke-width: 0.8; stroke-linecap: square"/>
     </g>
     <g id="line2d_17">
      <defs>
       <path id="m25f7e88c46" d="M 0 0 
L -3.5 0 
" style="stroke: #000000; stroke-width: 0.8"/>
      </defs>
      <g>
       <use xlink:href="#m25f7e88c46" x="53.559131" y="169.018824" style="stroke: #000000; stroke-width: 0.8"/>
      </g>
     </g>
     <g id="text_16">
      <!-- 20 -->
      <g transform="translate(33.834131 172.818043)scale(0.1 -0.1)">
       <use xlink:href="#DejaVuSans-32"/>
       <use xlink:href="#DejaVuSans-30" x="63.623047"/>
      </g>
     </g>
    </g>
    <g id="ytick_2">
     <g id="line2d_18">
      <path d="M 53.559131 130.197796 
L 499.959131 130.197796 
" clip-path="url(#p6df4165a4f)" style="fill: none; stroke: #b0b0b0; stroke-width: 0.8; stroke-linecap: square"/>
     </g>
     <g id="line2d_19">
      <g>
       <use xlink:href="#m25f7e88c46" x="53.559131" y="130.197796" style="stroke: #000000; stroke-width: 0.8"/>
      </g>
     </g>
     <g id="text_17">
      <!-- 40 -->
      <g transform="translate(33.834131 133.997015)scale(0.1 -0.1)">
       <defs>
        <path id="DejaVuSans-34" d="M 2419 4116 
L 825 1625 
L 2419 1625 
L 2419 4116 
z
M 2253 4666 
L 3047 4666 
L 3047 1625 
L 3713 1625 
L 3713 1100 
L 3047 1100 
L 3047 0 
L 2419 0 
L 2419 1100 
L 313 1100 
L 313 1709 
L 2253 4666 
z
" transform="scale(0.015625)"/>
       </defs>
       <use xlink:href="#DejaVuSans-34"/>
       <use xlink:href="#DejaVuSans-30" x="63.623047"/>
      </g>
     </g>
    </g>
    <g id="ytick_3">
     <g id="line2d_20">
      <path d="M 53.559131 91.376768 
L 499.959131 91.376768 
" clip-path="url(#p6df4165a4f)" style="fill: none; stroke: #b0b0b0; stroke-width: 0.8; stroke-linecap: square"/>
     </g>
     <g id="line2d_21">
      <g>
       <use xlink:href="#m25f7e88c46" x="53.559131" y="91.376768" style="stroke: #000000; stroke-width: 0.8"/>
      </g>
     </g>
     <g id="text_18">
      <!-- 60 -->
      <g transform="translate(33.834131 95.175986)scale(0.1 -0.1)">
       <defs>
        <path id="DejaVuSans-36" d="M 2113 2584 
Q 1688 2584 1439 2293 
Q 1191 2003 1191 1497 
Q 1191 994 1439 701 
Q 1688 409 2113 409 
Q 2538 409 2786 701 
Q 3034 994 3034 1497 
Q 3034 2003 2786 2293 
Q 2538 2584 2113 2584 
z
M 3366 4563 
L 3366 3988 
Q 3128 4100 2886 4159 
Q 2644 4219 2406 4219 
Q 1781 4219 1451 3797 
Q 1122 3375 1075 2522 
Q 1259 2794 1537 2939 
Q 1816 3084 2150 3084 
Q 2853 3084 3261 2657 
Q 3669 2231 3669 1497 
Q 3669 778 3244 343 
Q 2819 -91 2113 -91 
Q 1303 -91 875 529 
Q 447 1150 447 2328 
Q 447 3434 972 4092 
Q 1497 4750 2381 4750 
Q 2619 4750 2861 4703 
Q 3103 4656 3366 4563 
z
" transform="scale(0.015625)"/>
       </defs>
       <use xlink:href="#DejaVuSans-36"/>
       <use xlink:href="#DejaVuSans-30" x="63.623047"/>
      </g>
     </g>
    </g>
    <g id="ytick_4">
     <g id="line2d_22">
      <path d="M 53.559131 52.555739 
L 499.959131 52.555739 
" clip-path="url(#p6df4165a4f)" style="fill: none; stroke: #b0b0b0; stroke-width: 0.8; stroke-linecap: square"/>
     </g>
     <g id="line2d_23">
      <g>
       <use xlink:href="#m25f7e88c46" x="53.559131" y="52.555739" style="stroke: #000000; stroke-width: 0.8"/>
      </g>
     </g>
     <g id="text_19">
      <!-- 80 -->
      <g transform="translate(33.834131 56.354958)scale(0.1 -0.1)">
       <defs>
        <path id="DejaVuSans-38" d="M 2034 2216 
Q 1584 2216 1326 1975 
Q 1069 1734 1069 1313 
Q 1069 891 1326 650 
Q 1584 409 2034 409 
Q 2484 409 2743 651 
Q 3003 894 3003 1313 
Q 3003 1734 2745 1975 
Q 2488 2216 2034 2216 
z
M 1403 2484 
Q 997 2584 770 2862 
Q 544 3141 544 3541 
Q 544 4100 942 4425 
Q 1341 4750 2034 4750 
Q 2731 4750 3128 4425 
Q 3525 4100 3525 3541 
Q 3525 3141 3298 2862 
Q 3072 2584 2669 2484 
Q 3125 2378 3379 2068 
Q 3634 1759 3634 1313 
Q 3634 634 3220 271 
Q 2806 -91 2034 -91 
Q 1263 -91 848 271 
Q 434 634 434 1313 
Q 434 1759 690 2068 
Q 947 2378 1403 2484 
z
M 1172 3481 
Q 1172 3119 1398 2916 
Q 1625 2713 2034 2713 
Q 2441 2713 2670 2916 
Q 2900 3119 2900 3481 
Q 2900 3844 2670 4047 
Q 2441 4250 2034 4250 
Q 1625 4250 1398 4047 
Q 1172 3844 1172 3481 
z
" transform="scale(0.015625)"/>
       </defs>
       <use xlink:href="#DejaVuSans-38"/>
       <use xlink:href="#DejaVuSans-30" x="63.623047"/>
      </g>
     </g>
    </g>
    <g id="text_20">
     <!-- Percentage Of directives present in CSPs -->
     <g transform="translate(27.754443 210.890625)rotate(-90)scale(0.1 -0.1)">
      <defs>
       <path id="DejaVuSans-50" d="M 1259 4147 
L 1259 2394 
L 2053 2394 
Q 2494 2394 2734 2622 
Q 2975 2850 2975 3272 
Q 2975 3691 2734 3919 
Q 2494 4147 2053 4147 
L 1259 4147 
z
M 628 4666 
L 2053 4666 
Q 2838 4666 3239 4311 
Q 3641 3956 3641 3272 
Q 3641 2581 3239 2228 
Q 2838 1875 2053 1875 
L 1259 1875 
L 1259 0 
L 628 0 
L 628 4666 
z
" transform="scale(0.015625)"/>
       <path id="DejaVuSans-20" transform="scale(0.015625)"/>
       <path id="DejaVuSans-66" d="M 2375 4863 
L 2375 4384 
L 1825 4384 
Q 1516 4384 1395 4259 
Q 1275 4134 1275 3809 
L 1275 3500 
L 2222 3500 
L 2222 3053 
L 1275 3053 
L 1275 0 
L 697 0 
L 697 3053 
L 147 3053 
L 147 3500 
L 697 3500 
L 697 3744 
Q 697 4328 969 4595 
Q 1241 4863 1831 4863 
L 2375 4863 
z
" transform="scale(0.015625)"/>
       <path id="DejaVuSans-64" d="M 2906 2969 
L 2906 4863 
L 3481 4863 
L 3481 0 
L 2906 0 
L 2906 525 
Q 2725 213 2448 61 
Q 2172 -91 1784 -91 
Q 1150 -91 751 415 
Q 353 922 353 1747 
Q 353 2572 751 3078 
Q 1150 3584 1784 3584 
Q 2172 3584 2448 3432 
Q 2725 3281 2906 2969 
z
M 947 1747 
Q 947 1113 1208 752 
Q 1469 391 1925 391 
Q 2381 391 2643 752 
Q 2906 1113 2906 1747 
Q 2906 2381 2643 2742 
Q 2381 3103 1925 3103 
Q 1469 3103 1208 2742 
Q 947 2381 947 1747 
z
" transform="scale(0.015625)"/>
       <path id="DejaVuSans-69" d="M 603 3500 
L 1178 3500 
L 1178 0 
L 603 0 
L 603 3500 
z
M 603 4863 
L 1178 4863 
L 1178 4134 
L 603 4134 
L 603 4863 
z
" transform="scale(0.015625)"/>
       <path id="DejaVuSans-73" d="M 2834 3397 
L 2834 2853 
Q 2591 2978 2328 3040 
Q 2066 3103 1784 3103 
Q 1356 3103 1142 2972 
Q 928 2841 928 2578 
Q 928 2378 1081 2264 
Q 1234 2150 1697 2047 
L 1894 2003 
Q 2506 1872 2764 1633 
Q 3022 1394 3022 966 
Q 3022 478 2636 193 
Q 2250 -91 1575 -91 
Q 1294 -91 989 -36 
Q 684 19 347 128 
L 347 722 
Q 666 556 975 473 
Q 1284 391 1588 391 
Q 1994 391 2212 530 
Q 2431 669 2431 922 
Q 2431 1156 2273 1281 
Q 2116 1406 1581 1522 
L 1381 1569 
Q 847 1681 609 1914 
Q 372 2147 372 2553 
Q 372 3047 722 3315 
Q 1072 3584 1716 3584 
Q 2034 3584 2315 3537 
Q 2597 3491 2834 3397 
z
" transform="scale(0.015625)"/>
       <path id="DejaVuSans-43" d="M 4122 4306 
L 4122 3641 
Q 3803 3938 3442 4084 
Q 3081 4231 2675 4231 
Q 1875 4231 1450 3742 
Q 1025 3253 1025 2328 
Q 1025 1406 1450 917 
Q 1875 428 2675 428 
Q 3081 428 3442 575 
Q 3803 722 4122 1019 
L 4122 359 
Q 3791 134 3420 21 
Q 3050 -91 2638 -91 
Q 1578 -91 968 557 
Q 359 1206 359 2328 
Q 359 3453 968 4101 
Q 1578 4750 2638 4750 
Q 3056 4750 3426 4639 
Q 3797 4528 4122 4306 
z
" transform="scale(0.015625)"/>
      </defs>
      <use xlink:href="#DejaVuSans-50"/>
      <use xlink:href="#DejaVuSans-65" x="56.677734"/>
      <use xlink:href="#DejaVuSans-72" x="118.201172"/>
      <use xlink:href="#DejaVuSans-63" x="157.064453"/>
      <use xlink:href="#DejaVuSans-65" x="212.044922"/>
      <use xlink:href="#DejaVuSans-6e" x="273.568359"/>
      <use xlink:href="#DejaVuSans-74" x="336.947266"/>
      <use xlink:href="#DejaVuSans-61" x="376.15625"/>
      <use xlink:href="#DejaVuSans-67" x="437.435547"/>
      <use xlink:href="#DejaVuSans-65" x="500.912109"/>
      <use xlink:href="#DejaVuSans-20" x="562.435547"/>
      <use xlink:href="#DejaVuSans-4f" x="594.222656"/>
      <use xlink:href="#DejaVuSans-66" x="672.933594"/>
      <use xlink:href="#DejaVuSans-20" x="708.138672"/>
      <use xlink:href="#DejaVuSans-64" x="739.925781"/>
      <use xlink:href="#DejaVuSans-69" x="803.402344"/>
      <use xlink:href="#DejaVuSans-72" x="831.185547"/>
      <use xlink:href="#DejaVuSans-65" x="870.048828"/>
      <use xlink:href="#DejaVuSans-63" x="931.572266"/>
      <use xlink:href="#DejaVuSans-74" x="986.552734"/>
      <use xlink:href="#DejaVuSans-69" x="1025.761719"/>
      <use xlink:href="#DejaVuSans-76" x="1053.544922"/>
      <use xlink:href="#DejaVuSans-65" x="1112.724609"/>
      <use xlink:href="#DejaVuSans-73" x="1174.248047"/>
      <use xlink:href="#DejaVuSans-20" x="1226.347656"/>
      <use xlink:href="#DejaVuSans-70" x="1258.134766"/>
      <use xlink:href="#DejaVuSans-72" x="1321.611328"/>
      <use xlink:href="#DejaVuSans-65" x="1360.474609"/>
      <use xlink:href="#DejaVuSans-73" x="1421.998047"/>
      <use xlink:href="#DejaVuSans-65" x="1474.097656"/>
      <use xlink:href="#DejaVuSans-6e" x="1535.621094"/>
      <use xlink:href="#DejaVuSans-74" x="1599"/>
      <use xlink:href="#DejaVuSans-20" x="1638.208984"/>
      <use xlink:href="#DejaVuSans-69" x="1669.996094"/>
      <use xlink:href="#DejaVuSans-6e" x="1697.779297"/>
      <use xlink:href="#DejaVuSans-20" x="1761.158203"/>
      <use xlink:href="#DejaVuSans-43" x="1792.945312"/>
      <use xlink:href="#DejaVuSans-53" x="1862.769531"/>
      <use xlink:href="#DejaVuSans-50" x="1926.246094"/>
      <use xlink:href="#DejaVuSans-73" x="1984.798828"/>
     </g>
    </g>
   </g>
   <g id="line2d_24">
    <path d="M 73.85004 76.243146 
L 74.820897 77.375741 
L 75.791754 75.201339 
L 76.762611 76.243146 
L 77.733467 74.19369 
L 78.704324 76.349273 
L 79.675181 75.355391 
L 80.646038 79.480001 
L 81.616895 75.355391 
L 82.587752 79.431836 
L 83.558609 76.349273 
L 84.529466 75.355391 
L 85.500323 76.445603 
L 86.47118 78.436425 
L 88.412893 74.392568 
L 91.325464 72.274357 
L 92.296321 75.355391 
L 93.267178 74.392568 
L 94.238035 72.274357 
L 95.208892 74.392568 
L 96.179748 73.218545 
L 97.150605 74.392568 
L 98.121462 75.201339 
L 99.092319 73.218545 
L 100.063176 74.19369 
L 102.00489 74.19369 
L 102.975747 76.243146 
L 103.946604 73.218545 
L 104.917461 75.201339 
L 105.888317 75.201339 
L 106.859174 78.436425 
L 107.830031 73.974238 
L 108.800888 76.243146 
L 109.771745 76.125649 
L 110.742602 80.667518 
L 111.713459 77.375741 
L 113.655173 75.201339 
L 115.596886 76.243146 
L 117.5386 71.966254 
L 118.509457 69.663311 
L 119.480314 76.243146 
L 120.451171 74.19369 
L 121.422028 73.218545 
L 122.392885 69.663311 
L 123.363742 74.19369 
L 127.247169 74.19369 
L 129.188883 71.966254 
L 130.15974 73.218545 
L 134.043167 73.218545 
L 135.984881 75.201339 
L 136.955738 73.218545 
L 137.926595 74.19369 
L 140.839166 73.218545 
L 143.751736 71.359675 
L 144.722593 69.193323 
L 145.69345 68.326782 
L 146.664307 70.087817 
L 147.635164 71.011638 
L 148.606021 71.359675 
L 157.343733 77.375741 
L 158.31459 75.201339 
L 160.256303 82.610729 
L 161.22716 77.425461 
L 162.198017 78.436425 
L 163.168874 77.375741 
L 164.139731 77.375741 
L 165.110588 78.436425 
L 166.081445 73.218545 
L 167.052302 80.458353 
L 168.023159 79.480001 
L 168.994016 79.431836 
L 169.964872 78.436425 
L 170.935729 78.436425 
L 171.906586 79.480001 
L 173.8483 79.480001 
L 174.819157 77.375741 
L 176.760871 79.480001 
L 177.731728 73.218545 
L 179.673441 77.375741 
L 180.644298 75.201339 
L 181.615155 75.201339 
L 182.586012 72.274357 
L 183.556869 76.349273 
L 184.527726 75.355391 
L 185.498583 76.349273 
L 186.46944 75.355391 
L 187.440297 78.436425 
L 188.411153 72.274357 
L 189.38201 68.731168 
L 190.352867 69.193323 
L 191.323724 70.473137 
L 192.294581 72.274357 
L 194.236295 73.45937 
L 195.207152 67.486904 
L 196.178009 68.326782 
L 198.119722 68.326782 
L 210.740862 71.359675 
L 211.711719 72.274357 
L 212.682576 72.274357 
L 213.653433 74.392568 
L 214.62429 74.392568 
L 215.595146 73.45937 
L 216.566003 73.45937 
L 217.53686 71.676544 
L 218.507717 73.45937 
L 219.478574 72.554451 
L 220.449431 72.554451 
L 222.391145 76.349273 
L 223.362002 75.355391 
L 226.274572 72.554451 
L 227.245429 74.392568 
L 228.216286 73.45937 
L 229.187143 71.676544 
L 230.158 71.676544 
L 231.128857 69.997071 
L 232.099714 69.997071 
L 233.070571 71.676544 
L 234.041427 69.997071 
L 236.953998 70.824459 
L 237.924855 68.779453 
L 238.895712 67.183953 
L 239.866569 67.969971 
L 240.837426 67.183953 
L 241.808283 69.613464 
L 245.69171 68.779453 
L 246.662567 69.613464 
L 247.633424 67.969971 
L 248.604281 69.193323 
L 249.575138 67.183953 
L 250.545995 67.183953 
L 251.516852 68.779453 
L 252.487708 67.183953 
L 253.458565 66.420392 
L 254.429422 67.969971 
L 255.400279 66.672477 
L 256.371136 67.969971 
L 257.341993 67.183953 
L 259.283707 70.473137 
L 260.254564 68.779453 
L 261.22542 67.969971 
L 262.196277 67.969971 
L 263.167134 70.824459 
L 265.108848 67.652806 
L 266.079705 69.193323 
L 267.050562 69.193323 
L 268.021419 69.997071 
L 268.992276 69.193323 
L 271.904846 69.193323 
L 272.875703 69.997071 
L 273.84656 68.779453 
L 274.817417 67.183953 
L 275.788274 67.183953 
L 276.759131 67.969971 
L 277.729988 67.183953 
L 278.700845 68.412216 
L 279.671701 68.412216 
L 280.642558 69.997071 
L 281.613415 69.193323 
L 282.584272 70.824459 
L 283.555129 69.997071 
L 284.525986 68.412216 
L 285.496843 69.997071 
L 286.4677 69.193323 
L 287.438557 71.966254 
L 288.409414 69.193323 
L 289.38027 67.652806 
L 290.351127 68.412216 
L 291.321984 69.997071 
L 292.292841 67.652806 
L 293.263698 68.412216 
L 294.234555 66.420392 
L 296.176269 65.678341 
L 299.088839 65.678341 
L 301.030553 64.956901 
L 304.913981 64.255227 
L 305.884838 62.908014 
L 334.039688 57.191086 
L 335.010544 58.744599 
L 335.981401 56.552022 
L 336.952258 56.869187 
L 337.923115 56.869187 
L 338.893972 56.278304 
L 339.864829 54.74284 
L 340.835686 54.173282 
L 341.806543 58.937278 
L 342.7774 58.326433 
L 343.748257 58.937278 
L 344.719113 61.596253 
L 345.68997 58.744599 
L 346.660827 62.944465 
L 347.631684 62.260996 
L 348.602541 63.647462 
L 349.573398 62.260996 
L 350.544255 65.678341 
L 368.019679 60.21059 
L 368.990536 60.949475 
L 370.93225 62.260996 
L 371.903106 60.874531 
L 372.873963 63.647462 
L 373.84482 61.596253 
L 374.815677 62.944465 
L 375.786534 61.596253 
L 376.757391 60.949475 
L 377.728248 61.596253 
L 378.699105 60.949475 
L 380.640818 58.326433 
L 381.611675 60.949475 
L 382.582532 57.152966 
L 383.553389 59.109939 
L 384.524246 58.528205 
L 385.495103 55.829802 
L 388.407674 56.869187 
L 389.378531 56.589093 
L 390.349387 57.408368 
L 391.320244 57.961199 
L 392.291101 61.016733 
L 393.261958 59.265547 
L 394.232815 58.528205 
L 395.203672 60.418226 
L 396.174529 59.834682 
L 397.145386 59.109939 
L 398.116243 59.834682 
L 399.087099 59.109939 
L 400.057956 57.731877 
L 401.028813 58.528205 
L 401.99967 57.408368 
L 402.970527 59.109939 
L 403.941384 58.528205 
L 404.912241 58.326433 
L 405.883098 59.109939 
L 406.853955 57.152966 
L 407.824812 57.731877 
L 408.795668 60.949475 
L 411.708239 59.109939 
L 412.679096 61.016733 
L 413.649953 59.109939 
L 414.62081 57.961199 
L 415.591667 57.961199 
L 416.562524 59.834682 
L 417.53338 57.408368 
L 418.504237 57.961199 
L 419.475094 59.834682 
L 420.445951 59.265547 
L 421.416808 57.408368 
L 422.387665 59.834682 
L 423.358522 60.418226 
L 424.329379 59.265547 
L 425.300236 59.834682 
L 426.271093 61.016733 
L 427.241949 58.528205 
L 428.212806 57.961199 
L 429.183663 59.834682 
L 430.15452 59.706981 
L 431.125377 61.630785 
L 434.037948 61.077429 
L 435.008805 63.50526 
L 435.979661 63.50526 
L 436.950518 62.875253 
L 437.921375 62.875253 
L 438.892232 62.260996 
L 439.863089 64.151631 
L 440.833946 63.50526 
L 441.804803 61.016733 
L 442.77566 61.630785 
L 443.746517 61.016733 
L 444.717374 61.630785 
L 445.68823 63.50526 
L 446.659087 61.630785 
L 447.629944 61.016733 
L 448.600801 65.496082 
L 450.542515 62.875253 
L 451.513372 62.875253 
L 452.484229 64.151631 
L 453.455086 63.50526 
L 454.425942 64.815012 
L 455.396799 64.151631 
L 456.367656 64.151631 
L 457.338513 62.875253 
L 458.30937 63.50526 
L 459.280227 61.016733 
L 460.251084 60.418226 
L 462.192798 60.418226 
L 463.163655 62.260996 
L 464.134511 58.528205 
L 465.105368 63.50526 
L 466.076225 64.151631 
L 467.047082 62.875253 
L 470.93051 56.039678 
L 471.901367 58.528205 
L 472.872223 56.039678 
L 473.84308 58.528205 
L 474.813937 59.109939 
L 475.784794 57.152966 
L 476.755651 59.109939 
L 477.726508 59.706981 
L 478.697365 59.109939 
L 479.668222 57.408368 
L 479.668222 57.408368 
" clip-path="url(#p6df4165a4f)" style="fill: none; stroke: #1f77b4; stroke-width: 1.5; stroke-linecap: square"/>
   </g>
   <g id="line2d_25">
    <path d="M 73.85004 155.20117 
L 74.820897 150.562925 
L 76.762611 148.621335 
L 77.733467 147.380874 
L 78.704324 148.356019 
L 79.675181 146.219173 
L 80.646038 151.486747 
L 81.616895 146.219173 
L 82.587752 151.101426 
L 83.558609 151.486747 
L 84.529466 149.300206 
L 85.500323 148.115193 
L 86.47118 152.38124 
L 87.442036 151.486747 
L 88.412893 147.181996 
L 91.325464 149.300206 
L 92.296321 149.300206 
L 93.267178 147.181996 
L 94.238035 149.300206 
L 96.179748 145.225291 
L 97.150605 147.181996 
L 98.121462 149.60831 
L 99.092319 148.356019 
L 100.063176 147.380874 
L 102.00489 147.380874 
L 102.975747 151.911252 
L 103.946604 148.356019 
L 104.917461 149.60831 
L 105.888317 149.60831 
L 106.859174 156.759552 
L 107.830031 154.293606 
L 108.800888 155.20117 
L 109.771745 152.38124 
L 110.742602 154.293606 
L 111.713459 150.562925 
L 112.684316 151.911252 
L 113.655173 152.843396 
L 115.596886 151.911252 
L 116.567743 150.562925 
L 117.5386 149.60831 
L 118.509457 151.911252 
L 119.480314 151.911252 
L 120.451171 147.380874 
L 121.422028 148.356019 
L 122.392885 151.911252 
L 123.363742 153.744977 
L 124.334598 156.927028 
L 127.247169 156.927028 
L 129.188883 152.843396 
L 130.15974 154.617475 
L 131.130597 151.486747 
L 132.101454 151.486747 
L 133.07231 154.617475 
L 134.043167 154.617475 
L 135.014024 153.744977 
L 135.984881 156.078481 
L 136.955738 154.617475 
L 137.926595 156.927028 
L 140.839166 154.617475 
L 143.751736 150.214888 
L 144.722593 152.38124 
L 145.69345 153.247781 
L 146.664307 157.748203 
L 147.635164 156.927028 
L 148.606021 156.280674 
L 157.343733 153.744977 
L 158.31459 156.078481 
L 160.256303 157.748203 
L 161.22716 153.247781 
L 162.198017 159.313567 
L 163.168874 156.927028 
L 164.139731 156.927028 
L 165.110588 156.078481 
L 166.081445 148.356019 
L 167.052302 156.280674 
L 168.023159 154.617475 
L 168.994016 157.073892 
L 169.964872 156.078481 
L 170.935729 155.462274 
L 171.906586 154.617475 
L 172.877443 151.101426 
L 173.8483 154.617475 
L 174.819157 153.744977 
L 175.790014 155.462274 
L 176.760871 157.748203 
L 177.731728 154.617475 
L 178.702584 152.843396 
L 179.673441 153.744977 
L 180.644298 152.843396 
L 181.615155 152.843396 
L 182.586012 155.462274 
L 183.556869 157.748203 
L 184.527726 158.543308 
L 185.498583 154.617475 
L 186.46944 155.462274 
L 187.440297 159.313567 
L 188.411153 155.462274 
L 189.38201 156.078481 
L 190.352867 152.38124 
L 191.323724 151.101426 
L 192.294581 152.38124 
L 194.236295 154.087659 
L 195.207152 151.101426 
L 196.178009 153.247781 
L 197.148865 150.214888 
L 210.740862 150.214888 
L 211.711719 152.38124 
L 212.682576 152.38124 
L 213.653433 153.247781 
L 214.62429 153.247781 
L 215.595146 154.087659 
L 216.566003 157.073892 
L 217.53686 152.795111 
L 218.507717 154.087659 
L 219.478574 151.961099 
L 220.449431 151.961099 
L 221.420288 156.280674 
L 222.391145 157.748203 
L 223.362002 155.462274 
L 226.274572 154.902086 
L 227.245429 159.313567 
L 228.216286 154.087659 
L 229.187143 152.795111 
L 230.158 152.795111 
L 231.128857 148.764374 
L 232.099714 148.764374 
L 233.070571 149.898019 
L 234.041427 148.764374 
L 236.953998 153.604592 
L 237.924855 149.898019 
L 238.895712 148.764374 
L 239.866569 153.604592 
L 240.837426 151.577492 
L 241.808283 154.902086 
L 245.69171 152.795111 
L 246.662567 157.843073 
L 248.604281 155.154171 
L 249.575138 154.39061 
L 250.545995 151.577492 
L 251.516852 155.692202 
L 252.487708 151.577492 
L 253.458565 152.38124 
L 255.400279 154.902086 
L 256.371136 156.45908 
L 257.341993 154.39061 
L 258.31285 158.589294 
L 259.283707 160.060125 
L 260.254564 155.692202 
L 261.22542 156.45908 
L 262.196277 153.604592 
L 263.167134 159.313567 
L 264.137991 152.38124 
L 265.108848 151.225853 
L 266.079705 152.38124 
L 267.050562 155.154171 
L 268.021419 157.203728 
L 268.992276 157.927102 
L 269.963133 157.927102 
L 271.904846 152.38124 
L 272.875703 154.39061 
L 273.84656 155.692202 
L 274.817417 154.39061 
L 275.788274 151.577492 
L 276.759131 153.604592 
L 277.729988 154.39061 
L 278.700845 153.162348 
L 279.671701 153.162348 
L 280.642558 154.39061 
L 281.613415 155.154171 
L 282.584272 156.45908 
L 283.555129 154.39061 
L 284.525986 155.896223 
L 285.496843 160.016846 
L 286.4677 155.154171 
L 288.409414 160.700032 
L 289.38027 156.617662 
L 290.351127 155.896223 
L 291.321984 160.016846 
L 292.292841 156.617662 
L 294.234555 155.154171 
L 296.176269 153.162348 
L 299.088839 153.162348 
L 301.030553 153.921757 
L 304.913981 146.683438 
L 305.884838 145.726207 
L 333.068831 144.960722 
L 334.039688 144.103836 
L 335.010544 145.951257 
L 335.981401 142.186643 
L 336.952258 140.442234 
L 337.923115 143.138139 
L 339.864829 139.492972 
L 341.806543 141.365489 
L 342.7774 139.640749 
L 343.748257 141.365489 
L 344.719113 144.024463 
L 345.68997 140.325021 
L 346.660827 139.492972 
L 347.631684 140.442234 
L 348.602541 138.516588 
L 349.573398 140.442234 
L 350.544255 144.960722 
L 368.019679 139.492972 
L 368.990536 139.640749 
L 370.93225 140.442234 
L 371.903106 138.516588 
L 372.873963 144.062449 
L 373.84482 138.706514 
L 374.815677 142.226847 
L 375.786534 144.024463 
L 376.757391 139.640749 
L 377.728248 136.04754 
L 378.699105 139.640749 
L 379.669962 138.881447 
L 380.640818 139.640749 
L 381.611675 139.640749 
L 382.582532 136.327432 
L 384.524246 138.161084 
L 385.495103 137.681367 
L 388.407674 138.345419 
L 389.378531 139.777011 
L 390.349387 137.476739 
L 391.320244 136.586066 
L 392.291101 140.649611 
L 393.261958 138.345419 
L 394.232815 143.138139 
L 395.203672 141.50012 
L 396.174529 142.329367 
L 398.116243 142.329367 
L 399.087099 139.777011 
L 400.057956 137.962001 
L 401.028813 140.649611 
L 401.99967 137.476739 
L 402.970527 142.297857 
L 403.941384 140.649611 
L 404.912241 137.017706 
L 405.883098 137.256165 
L 406.853955 136.327432 
L 408.795668 139.640749 
L 409.766525 140.55007 
L 410.737382 138.881447 
L 411.708239 134.735319 
L 412.679096 135.672556 
L 413.649953 134.735319 
L 414.62081 134.129039 
L 415.591667 131.672012 
L 416.562524 132.62411 
L 417.53338 132.62411 
L 418.504237 129.214985 
L 419.475094 135.050424 
L 420.445951 133.552699 
L 421.416808 130.197796 
L 422.387665 135.050424 
L 423.358522 134.129039 
L 424.329379 135.949059 
L 425.300236 137.476739 
L 426.271093 133.184029 
L 427.241949 135.672556 
L 428.212806 134.129039 
L 429.183663 137.476739 
L 430.15452 133.773417 
L 431.125377 134.735319 
L 434.037948 136.825776 
L 435.008805 135.672556 
L 435.979661 135.672556 
L 436.950518 136.586066 
L 437.921375 136.586066 
L 438.892232 137.476739 
L 439.863089 142.297857 
L 440.833946 140.649611 
L 441.804803 138.161084 
L 442.77566 137.256165 
L 443.746517 135.672556 
L 444.717374 139.777011 
L 445.68823 138.161084 
L 446.659087 137.256165 
L 447.629944 135.672556 
L 448.600801 140.55007 
L 449.571658 142.297857 
L 450.542515 139.043093 
L 451.513372 136.586066 
L 452.484229 134.735319 
L 453.455086 135.672556 
L 454.425942 133.773417 
L 455.396799 137.256165 
L 456.367656 134.735319 
L 457.338513 134.129039 
L 458.30937 133.184029 
L 459.280227 133.184029 
L 460.251084 131.672012 
L 462.192798 131.672012 
L 463.163655 132.62411 
L 464.134511 133.184029 
L 465.105368 133.184029 
L 466.076225 134.735319 
L 467.047082 134.129039 
L 469.959653 130.197796 
L 470.93051 128.206974 
L 472.872223 128.206974 
L 473.84308 130.695501 
L 474.813937 127.172781 
L 475.784794 128.665387 
L 476.755651 129.693627 
L 477.726508 131.219402 
L 478.697365 132.214473 
L 479.668222 130.197796 
L 479.668222 130.197796 
" clip-path="url(#p6df4165a4f)" style="fill: none; stroke: #ff7f0e; stroke-width: 1.5; stroke-linecap: square"/>
   </g>
   <g id="line2d_26">
    <path d="M 73.85004 72.953229 
L 74.820897 74.19369 
L 75.791754 71.966254 
L 76.762611 72.953229 
L 77.733467 71.011638 
L 78.704324 73.218545 
L 79.675181 72.274357 
L 80.646038 76.349273 
L 81.616895 72.274357 
L 82.587752 76.445603 
L 83.558609 73.218545 
L 84.529466 72.274357 
L 85.500323 73.45937 
L 86.47118 75.355391 
L 87.442036 73.218545 
L 88.412893 71.359675 
L 91.325464 69.193323 
L 92.296321 72.274357 
L 93.267178 71.359675 
L 94.238035 69.193323 
L 95.208892 71.359675 
L 96.179748 70.087817 
L 97.150605 71.359675 
L 98.121462 71.966254 
L 99.092319 73.218545 
L 100.063176 74.19369 
L 102.00489 74.19369 
L 102.975747 76.243146 
L 103.946604 73.218545 
L 104.917461 75.201339 
L 105.888317 75.201339 
L 106.859174 78.436425 
L 107.830031 73.974238 
L 108.800888 76.243146 
L 109.771745 76.125649 
L 110.742602 84.014159 
L 111.713459 80.557793 
L 113.655173 78.436425 
L 115.596886 79.533064 
L 118.509457 72.953229 
L 119.480314 79.533064 
L 120.451171 77.375741 
L 121.422028 76.349273 
L 122.392885 69.663311 
L 123.363742 74.19369 
L 127.247169 74.19369 
L 129.188883 71.966254 
L 130.15974 73.218545 
L 134.043167 73.218545 
L 135.984881 75.201339 
L 136.955738 73.218545 
L 137.926595 74.19369 
L 140.839166 73.218545 
L 143.751736 71.359675 
L 144.722593 72.274357 
L 145.69345 68.326782 
L 146.664307 70.087817 
L 147.635164 71.011638 
L 148.606021 71.359675 
L 157.343733 77.375741 
L 158.31459 75.201339 
L 160.256303 82.610729 
L 161.22716 77.425461 
L 162.198017 78.436425 
L 163.168874 77.375741 
L 164.139731 77.375741 
L 165.110588 78.436425 
L 166.081445 73.218545 
L 167.052302 77.425461 
L 168.023159 79.480001 
L 168.994016 76.445603 
L 169.964872 75.201339 
L 170.935729 75.355391 
L 171.906586 79.480001 
L 172.877443 79.431836 
L 173.8483 76.349273 
L 174.819157 74.19369 
L 176.760871 76.349273 
L 177.731728 70.087817 
L 178.702584 68.731168 
L 179.673441 71.011638 
L 180.644298 68.731168 
L 181.615155 71.966254 
L 182.586012 69.193323 
L 183.556869 73.218545 
L 184.527726 72.274357 
L 185.498583 73.218545 
L 186.46944 72.274357 
L 187.440297 75.201339 
L 188.411153 69.193323 
L 189.38201 68.731168 
L 190.352867 66.112289 
L 191.323724 67.486904 
L 192.294581 69.193323 
L 194.236295 70.473137 
L 195.207152 64.500671 
L 196.178009 65.293889 
L 210.740862 65.293889 
L 211.711719 66.112289 
L 212.682576 66.112289 
L 213.653433 68.326782 
L 214.62429 68.326782 
L 215.595146 67.486904 
L 216.566003 67.486904 
L 217.53686 65.882361 
L 218.507717 67.486904 
L 219.478574 66.672477 
L 220.449431 66.672477 
L 222.391145 70.087817 
L 223.362002 69.193323 
L 226.274572 66.672477 
L 227.245429 68.326782 
L 228.216286 67.486904 
L 229.187143 68.779453 
L 230.158 68.779453 
L 231.128857 67.183953 
L 232.099714 67.183953 
L 233.070571 68.779453 
L 234.041427 67.183953 
L 236.953998 67.969971 
L 237.924855 65.882361 
L 238.895712 64.370835 
L 239.866569 65.115484 
L 240.837426 64.370835 
L 241.808283 66.672477 
L 245.69171 65.882361 
L 246.662567 66.672477 
L 247.633424 65.115484 
L 248.604281 66.420392 
L 249.575138 64.370835 
L 250.545995 64.370835 
L 251.516852 65.882361 
L 252.487708 64.370835 
L 253.458565 63.647462 
L 255.400279 66.672477 
L 256.371136 65.115484 
L 257.341993 64.370835 
L 259.283707 67.486904 
L 260.254564 65.882361 
L 261.22542 65.115484 
L 262.196277 65.115484 
L 263.167134 67.969971 
L 265.108848 64.956901 
L 266.079705 66.420392 
L 267.050562 66.420392 
L 268.021419 67.183953 
L 268.992276 66.420392 
L 271.904846 66.420392 
L 272.875703 67.183953 
L 273.84656 65.882361 
L 274.817417 64.370835 
L 275.788274 64.370835 
L 276.759131 65.115484 
L 277.729988 64.370835 
L 278.700845 65.678341 
L 279.671701 65.678341 
L 280.642558 67.183953 
L 281.613415 66.420392 
L 282.584272 67.969971 
L 283.555129 69.997071 
L 284.525986 68.412216 
L 285.496843 69.997071 
L 286.4677 69.193323 
L 287.438557 71.966254 
L 288.409414 69.193323 
L 289.38027 67.652806 
L 290.351127 68.412216 
L 291.321984 69.997071 
L 292.292841 67.652806 
L 293.263698 68.412216 
L 294.234555 66.420392 
L 296.176269 65.678341 
L 299.088839 65.678341 
L 301.030553 64.956901 
L 304.913981 64.255227 
L 305.884838 62.908014 
L 334.039688 57.191086 
L 335.010544 58.744599 
L 335.981401 56.552022 
L 336.952258 56.869187 
L 337.923115 56.869187 
L 338.893972 56.278304 
L 339.864829 54.74284 
L 340.835686 54.173282 
L 341.806543 58.937278 
L 342.7774 58.326433 
L 343.748257 58.937278 
L 344.719113 61.596253 
L 345.68997 58.744599 
L 346.660827 60.21059 
L 347.631684 59.565092 
L 348.602541 60.874531 
L 349.573398 59.565092 
L 350.544255 62.944465 
L 368.019679 60.21059 
L 368.990536 58.326433 
L 370.93225 62.260996 
L 371.903106 60.874531 
L 372.873963 60.874531 
L 373.84482 58.937278 
L 374.815677 60.21059 
L 375.786534 58.937278 
L 376.757391 58.326433 
L 377.728248 58.937278 
L 378.699105 58.326433 
L 379.669962 59.706981 
L 380.640818 58.326433 
L 381.611675 60.949475 
L 382.582532 57.152966 
L 383.553389 59.109939 
L 384.524246 58.528205 
L 385.495103 58.168418 
L 388.407674 59.265547 
L 389.378531 59.109939 
L 390.349387 59.834682 
L 391.320244 60.418226 
L 392.291101 63.50526 
L 393.261958 61.661907 
L 394.232815 61.016733 
L 395.203672 62.875253 
L 397.145386 61.630785 
L 398.116243 62.260996 
L 399.087099 61.630785 
L 400.057956 57.731877 
L 401.028813 58.528205 
L 401.99967 57.408368 
L 402.970527 56.589093 
L 403.941384 58.528205 
L 404.912241 58.326433 
L 405.883098 59.109939 
L 406.853955 57.152966 
L 408.795668 58.326433 
L 411.708239 56.589093 
L 412.679096 58.528205 
L 413.649953 59.109939 
L 414.62081 57.961199 
L 415.591667 57.961199 
L 416.562524 59.834682 
L 417.53338 57.408368 
L 418.504237 57.961199 
L 419.475094 59.834682 
L 420.445951 59.265547 
L 421.416808 57.408368 
L 422.387665 59.834682 
L 423.358522 60.418226 
L 424.329379 59.265547 
L 425.300236 59.834682 
L 426.271093 61.016733 
L 427.241949 58.528205 
L 428.212806 57.961199 
L 429.183663 59.834682 
L 430.15452 59.706981 
L 431.125377 61.630785 
L 434.037948 61.077429 
L 435.008805 63.50526 
L 435.979661 63.50526 
L 436.950518 62.875253 
L 437.921375 62.875253 
L 438.892232 62.260996 
L 439.863089 64.151631 
L 440.833946 63.50526 
L 441.804803 61.016733 
L 442.77566 61.630785 
L 443.746517 61.016733 
L 444.717374 61.630785 
L 445.68823 63.50526 
L 446.659087 61.630785 
L 447.629944 61.016733 
L 448.600801 65.496082 
L 450.542515 62.875253 
L 451.513372 62.875253 
L 452.484229 64.151631 
L 453.455086 61.016733 
L 454.425942 62.260996 
L 455.396799 61.630785 
L 456.367656 61.630785 
L 457.338513 60.418226 
L 458.30937 61.016733 
L 459.280227 58.528205 
L 460.251084 57.961199 
L 462.192798 57.961199 
L 463.163655 59.834682 
L 464.134511 56.039678 
L 465.105368 61.016733 
L 466.076225 61.630785 
L 467.047082 60.418226 
L 469.959653 57.731877 
L 470.93051 56.039678 
L 471.901367 58.528205 
L 472.872223 56.039678 
L 473.84308 56.039678 
L 474.813937 54.068247 
L 475.784794 57.152966 
L 476.755651 56.589093 
L 477.726508 57.152966 
L 478.697365 56.589093 
L 479.668222 54.982054 
L 479.668222 54.982054 
" clip-path="url(#p6df4165a4f)" style="fill: none; stroke: #2ca02c; stroke-width: 1.5; stroke-linecap: square"/>
   </g>
   <g id="line2d_27">
    <path d="M 73.85004 72.953229 
L 74.820897 74.19369 
L 76.762611 69.663311 
L 77.733467 67.829587 
L 78.704324 70.087817 
L 79.675181 69.193323 
L 80.646038 73.218545 
L 81.616895 69.193323 
L 82.587752 76.445603 
L 83.558609 73.218545 
L 84.529466 72.274357 
L 85.500323 73.45937 
L 86.47118 75.355391 
L 87.442036 73.218545 
L 88.412893 71.359675 
L 91.325464 69.193323 
L 92.296321 72.274357 
L 93.267178 71.359675 
L 94.238035 69.193323 
L 95.208892 71.359675 
L 96.179748 66.957089 
L 97.150605 68.326782 
L 98.121462 68.731168 
L 99.092319 66.957089 
L 100.063176 67.829587 
L 102.00489 67.829587 
L 102.975747 69.663311 
L 103.946604 66.957089 
L 104.917461 68.731168 
L 105.888317 68.731168 
L 106.859174 71.625718 
L 107.830031 67.280957 
L 108.800888 69.663311 
L 109.771745 69.193323 
L 110.742602 77.320878 
L 111.713459 71.011638 
L 112.684316 69.663311 
L 113.655173 68.731168 
L 115.596886 69.663311 
L 116.567743 67.829587 
L 118.509457 63.083476 
L 119.480314 69.663311 
L 120.451171 67.829587 
L 121.422028 66.957089 
L 122.392885 63.083476 
L 123.363742 61.465484 
L 124.334598 67.829587 
L 125.305455 71.011638 
L 127.247169 71.011638 
L 129.188883 68.731168 
L 130.15974 70.087817 
L 133.07231 70.087817 
L 134.043167 66.957089 
L 135.014024 71.011638 
L 135.984881 71.966254 
L 136.955738 70.087817 
L 137.926595 71.011638 
L 140.839166 70.087817 
L 143.751736 71.359675 
L 144.722593 72.274357 
L 145.69345 71.359675 
L 146.664307 70.087817 
L 147.635164 71.011638 
L 148.606021 71.359675 
L 157.343733 71.011638 
L 158.31459 71.966254 
L 160.256303 76.349273 
L 161.22716 71.359675 
L 162.198017 75.201339 
L 163.168874 74.19369 
L 164.139731 71.011638 
L 165.110588 75.201339 
L 166.081445 70.087817 
L 167.052302 74.392568 
L 168.023159 70.087817 
L 168.994016 70.473137 
L 169.964872 71.966254 
L 170.935729 72.274357 
L 171.906586 76.349273 
L 172.877443 73.45937 
L 173.8483 73.218545 
L 174.819157 74.19369 
L 175.790014 72.274357 
L 176.760871 73.218545 
L 177.731728 73.218545 
L 178.702584 68.731168 
L 179.673441 71.011638 
L 180.644298 68.731168 
L 181.615155 71.966254 
L 182.586012 69.193323 
L 183.556869 73.218545 
L 184.527726 72.274357 
L 185.498583 73.218545 
L 186.46944 72.274357 
L 187.440297 75.201339 
L 188.411153 69.193323 
L 189.38201 65.496082 
L 190.352867 66.112289 
L 191.323724 67.486904 
L 192.294581 69.193323 
L 194.236295 70.473137 
L 195.207152 64.500671 
L 196.178009 65.293889 
L 197.148865 62.260996 
L 198.119722 65.293889 
L 210.740862 65.293889 
L 211.711719 66.112289 
L 212.682576 66.112289 
L 213.653433 68.326782 
L 214.62429 68.326782 
L 215.595146 67.486904 
L 216.566003 67.486904 
L 217.53686 65.882361 
L 218.507717 67.486904 
L 219.478574 66.672477 
L 220.449431 66.672477 
L 222.391145 70.087817 
L 223.362002 69.193323 
L 226.274572 66.672477 
L 227.245429 68.326782 
L 228.216286 67.486904 
L 229.187143 68.779453 
L 230.158 68.779453 
L 231.128857 67.183953 
L 232.099714 67.183953 
L 233.070571 68.779453 
L 234.041427 67.183953 
L 236.953998 67.969971 
L 237.924855 65.882361 
L 238.895712 64.370835 
L 239.866569 65.115484 
L 240.837426 64.370835 
L 241.808283 66.672477 
L 245.69171 62.985269 
L 246.662567 63.73149 
L 247.633424 62.260996 
L 248.604281 63.647462 
L 249.575138 61.557717 
L 250.545995 61.557717 
L 251.516852 62.985269 
L 252.487708 61.557717 
L 253.458565 60.874531 
L 254.429422 62.260996 
L 255.400279 60.790503 
L 256.371136 62.260996 
L 257.341993 61.557717 
L 259.283707 64.500671 
L 260.254564 62.985269 
L 261.22542 62.260996 
L 263.167134 62.260996 
L 265.108848 59.565092 
L 266.079705 60.874531 
L 267.050562 60.874531 
L 268.021419 61.557717 
L 268.992276 60.874531 
L 271.904846 60.874531 
L 272.875703 61.557717 
L 273.84656 62.985269 
L 274.817417 61.557717 
L 275.788274 61.557717 
L 276.759131 62.260996 
L 277.729988 61.557717 
L 278.700845 60.21059 
L 279.671701 60.21059 
L 280.642558 61.557717 
L 281.613415 60.874531 
L 282.584272 62.260996 
L 283.555129 61.557717 
L 285.496843 64.370835 
L 286.4677 63.647462 
L 287.438557 66.420392 
L 288.409414 63.647462 
L 289.38027 62.260996 
L 290.351127 62.944465 
L 291.321984 67.183953 
L 292.292841 64.956901 
L 293.263698 65.678341 
L 294.234555 63.647462 
L 296.176269 60.21059 
L 299.088839 60.21059 
L 301.030553 59.565092 
L 304.913981 58.937278 
L 305.884838 57.731877 
L 333.068831 54.74284 
L 334.039688 54.293994 
L 335.010544 55.931481 
L 335.981401 53.697534 
L 336.952258 54.173282 
L 337.923115 54.173282 
L 338.893972 53.619329 
L 339.864829 54.74284 
L 340.835686 51.477378 
L 341.806543 56.278304 
L 342.7774 55.70339 
L 343.748257 56.278304 
L 344.719113 56.278304 
L 345.68997 53.118363 
L 346.660827 57.476715 
L 347.631684 56.869187 
L 348.602541 58.101601 
L 349.573398 56.869187 
L 350.544255 60.21059 
L 368.019679 54.74284 
L 368.990536 55.70339 
L 370.93225 59.565092 
L 371.903106 60.874531 
L 372.873963 58.101601 
L 373.84482 56.278304 
L 374.815677 57.476715 
L 375.786534 56.278304 
L 376.757391 55.70339 
L 377.728248 56.278304 
L 378.699105 55.70339 
L 379.669962 57.152966 
L 380.640818 55.70339 
L 381.611675 58.326433 
L 382.582532 54.598951 
L 383.553389 56.589093 
L 384.524246 56.039678 
L 385.495103 55.829802 
L 388.407674 56.869187 
L 389.378531 56.589093 
L 390.349387 57.408368 
L 391.320244 57.961199 
L 392.291101 61.016733 
L 393.261958 59.265547 
L 394.232815 58.528205 
L 395.203672 60.418226 
L 396.174529 59.834682 
L 397.145386 59.109939 
L 398.116243 59.834682 
L 399.087099 61.630785 
L 400.057956 57.731877 
L 401.028813 58.528205 
L 401.99967 57.408368 
L 402.970527 56.589093 
L 403.941384 58.528205 
L 404.912241 58.326433 
L 405.883098 59.109939 
L 406.853955 57.152966 
L 408.795668 58.326433 
L 411.708239 56.589093 
L 412.679096 58.528205 
L 413.649953 59.109939 
L 414.62081 57.961199 
L 415.591667 57.961199 
L 416.562524 59.834682 
L 417.53338 57.408368 
L 418.504237 60.418226 
L 420.445951 59.265547 
L 421.416808 57.408368 
L 422.387665 59.834682 
L 423.358522 60.418226 
L 424.329379 59.265547 
L 425.300236 59.834682 
L 426.271093 61.016733 
L 427.241949 58.528205 
L 428.212806 57.961199 
L 429.183663 59.834682 
L 430.15452 59.706981 
L 431.125377 61.630785 
L 434.037948 61.077429 
L 435.008805 63.50526 
L 435.979661 63.50526 
L 436.950518 62.875253 
L 437.921375 62.875253 
L 438.892232 62.260996 
L 439.863089 64.151631 
L 440.833946 63.50526 
L 441.804803 61.016733 
L 442.77566 61.630785 
L 443.746517 61.016733 
L 444.717374 61.630785 
L 445.68823 63.50526 
L 446.659087 61.630785 
L 447.629944 61.016733 
L 448.600801 65.496082 
L 450.542515 62.875253 
L 451.513372 62.875253 
L 452.484229 64.151631 
L 453.455086 61.016733 
L 454.425942 62.260996 
L 455.396799 61.630785 
L 456.367656 61.630785 
L 457.338513 60.418226 
L 458.30937 61.016733 
L 459.280227 58.528205 
L 460.251084 57.961199 
L 461.221941 60.418226 
L 462.192798 57.961199 
L 463.163655 59.834682 
L 464.134511 56.039678 
L 465.105368 61.016733 
L 466.076225 61.630785 
L 467.047082 60.418226 
L 470.93051 53.55115 
L 471.901367 56.039678 
L 472.872223 53.55115 
L 473.84308 56.039678 
L 474.813937 56.589093 
L 475.784794 54.598951 
L 476.755651 56.589093 
L 477.726508 57.152966 
L 478.697365 56.589093 
L 479.668222 54.982054 
L 479.668222 54.982054 
" clip-path="url(#p6df4165a4f)" style="fill: none; stroke: #d62728; stroke-width: 1.5; stroke-linecap: square"/>
   </g>
   <g id="line2d_28">
    <path d="M 73.85004 184.810429 
L 74.820897 182.38344 
L 76.762611 181.520511 
L 77.733467 179.201389 
L 79.675181 180.110546 
L 80.646038 182.794028 
L 81.616895 180.110546 
L 82.587752 180.963756 
L 83.558609 182.794028 
L 84.529466 180.110546 
L 85.500323 180.963756 
L 86.47118 183.19158 
L 87.442036 182.794028 
L 88.412893 180.543817 
L 91.325464 183.19158 
L 92.296321 183.19158 
L 93.267178 180.543817 
L 94.238035 183.19158 
L 95.208892 180.543817 
L 96.179748 179.663299 
L 97.150605 180.543817 
L 98.121462 185.194252 
L 99.092319 179.663299 
L 100.063176 179.201389 
L 102.00489 179.201389 
L 102.975747 181.520511 
L 103.946604 179.663299 
L 104.917461 181.959167 
L 105.888317 178.724081 
L 106.859174 180.597025 
L 107.830031 177.720089 
L 108.800888 181.520511 
L 109.771745 180.110546 
L 110.742602 181.066729 
L 111.713459 179.201389 
L 112.684316 178.230593 
L 113.655173 175.488995 
L 115.596886 181.520511 
L 116.567743 176.019337 
L 117.5386 178.724081 
L 118.509457 178.230593 
L 119.480314 178.230593 
L 120.451171 176.019337 
L 121.422028 176.532571 
L 122.392885 178.230593 
L 123.363742 179.201389 
L 124.334598 182.38344 
L 125.305455 182.38344 
L 127.247169 179.201389 
L 129.188883 178.724081 
L 130.15974 179.663299 
L 132.101454 179.663299 
L 133.07231 176.532571 
L 134.043167 179.663299 
L 135.984881 178.724081 
L 136.955738 179.663299 
L 137.926595 182.38344 
L 140.839166 179.663299 
L 143.751736 177.510924 
L 144.722593 180.110546 
L 145.69345 177.510924 
L 146.664307 176.532571 
L 147.635164 179.201389 
L 148.606021 180.543817 
L 157.343733 179.201389 
L 158.31459 178.724081 
L 160.256303 185.924756 
L 161.22716 180.543817 
L 162.198017 181.959167 
L 163.168874 185.565492 
L 164.139731 182.38344 
L 165.110588 178.724081 
L 167.052302 180.543817 
L 168.023159 179.663299 
L 168.994016 180.963756 
L 169.964872 181.959167 
L 170.935729 180.110546 
L 171.906586 182.794028 
L 172.877443 180.963756 
L 173.8483 179.663299 
L 174.819157 179.201389 
L 175.790014 183.19158 
L 176.760871 182.794028 
L 177.731728 182.794028 
L 178.702584 178.724081 
L 179.673441 179.201389 
L 180.644298 178.724081 
L 181.615155 181.959167 
L 182.586012 180.110546 
L 183.556869 179.663299 
L 184.527726 180.110546 
L 185.498583 179.663299 
L 186.46944 180.110546 
L 187.440297 181.959167 
L 188.411153 180.110546 
L 189.38201 181.959167 
L 190.352867 180.110546 
L 191.323724 177.977523 
L 192.294581 177.029512 
L 194.236295 180.963756 
L 195.207152 177.977523 
L 196.178009 183.57671 
L 197.148865 180.543817 
L 198.119722 180.543817 
L 210.740862 177.510924 
L 211.711719 180.110546 
L 212.682576 180.110546 
L 213.653433 177.510924 
L 214.62429 180.543817 
L 215.595146 177.977523 
L 216.566003 180.963756 
L 217.53686 178.868936 
L 218.507717 177.977523 
L 219.478574 178.429982 
L 220.449431 178.429982 
L 221.420288 183.57671 
L 222.391145 182.794028 
L 223.362002 180.110546 
L 226.274572 181.370969 
L 227.245429 183.57671 
L 228.216286 180.963756 
L 229.187143 181.766027 
L 230.158 181.766027 
L 231.128857 179.708672 
L 232.099714 179.708672 
L 233.070571 178.868936 
L 236.953998 182.149466 
L 237.924855 178.868936 
L 238.895712 179.708672 
L 239.866569 182.149466 
L 240.837426 182.52179 
L 241.808283 184.311956 
L 245.69171 181.766027 
L 246.662567 184.311956 
L 248.604281 180.110546 
L 249.575138 179.708672 
L 250.545995 179.708672 
L 251.516852 181.766027 
L 252.487708 182.52179 
L 253.458565 180.110546 
L 254.429422 182.149466 
L 255.400279 181.370969 
L 256.371136 182.149466 
L 257.341993 179.708672 
L 258.31285 184.663119 
L 259.283707 186.936222 
L 260.254564 181.766027 
L 261.22542 179.294978 
L 262.196277 182.149466 
L 263.167134 182.149466 
L 264.137991 180.110546 
L 265.108848 180.880805 
L 266.079705 180.110546 
L 267.050562 180.110546 
L 268.021419 182.52179 
L 268.992276 182.883477 
L 269.963133 182.883477 
L 270.933989 180.110546 
L 271.904846 180.110546 
L 272.875703 182.52179 
L 273.84656 181.766027 
L 274.817417 179.708672 
L 275.788274 179.708672 
L 276.759131 179.294978 
L 277.729988 179.708672 
L 278.700845 180.5011 
L 279.671701 180.5011 
L 280.642558 182.52179 
L 281.613415 180.110546 
L 282.584272 182.149466 
L 283.555129 179.708672 
L 284.525986 183.234975 
L 285.496843 185.334908 
L 286.4677 180.110546 
L 287.438557 182.883477 
L 288.409414 182.883477 
L 289.38027 180.880805 
L 290.351127 180.5011 
L 291.321984 185.334908 
L 292.292841 180.880805 
L 293.263698 185.96885 
L 294.234555 182.883477 
L 296.176269 183.234975 
L 299.088839 183.234975 
L 301.030553 180.880805 
L 304.913981 181.250107 
L 305.884838 179.371098 
L 333.068831 183.234975 
L 334.039688 184.663119 
L 335.010544 185.334908 
L 335.981401 182.149466 
L 336.952258 180.880805 
L 337.923115 180.880805 
L 338.893972 181.250107 
L 339.864829 180.5011 
L 341.806543 186.568056 
L 342.7774 184.23247 
L 343.748257 183.909081 
L 344.719113 186.568056 
L 345.68997 185.334908 
L 346.660827 183.234975 
L 347.631684 183.57671 
L 348.602541 182.883477 
L 349.573398 183.57671 
L 350.544255 185.96885 
L 368.019679 180.5011 
L 368.990536 178.986385 
L 370.93225 180.880805 
L 371.903106 182.883477 
L 372.873963 182.883477 
L 373.84482 181.250107 
L 374.815677 183.234975 
L 375.786534 183.909081 
L 376.757391 181.609428 
L 377.728248 183.909081 
L 378.699105 181.609428 
L 379.669962 182.299702 
L 380.640818 184.23247 
L 381.611675 184.23247 
L 382.582532 182.299702 
L 384.524246 182.954578 
L 385.495103 179.776458 
L 388.407674 179.083535 
L 390.349387 181.150395 
L 392.291101 180.46605 
L 393.261958 179.083535 
L 394.232815 182.954578 
L 395.203672 180.812554 
L 396.174529 181.150395 
L 397.145386 177.5897 
L 398.116243 178.724081 
L 399.087099 180.110546 
L 400.057956 179.371098 
L 401.028813 180.46605 
L 401.99967 178.724081 
L 402.970527 180.110546 
L 403.941384 180.46605 
L 404.912241 176.363343 
L 405.883098 177.5897 
L 406.853955 182.299702 
L 408.795668 181.609428 
L 409.766525 181.959167 
L 410.737382 184.853717 
L 411.708239 180.110546 
L 412.679096 182.954578 
L 413.649953 182.631392 
L 414.62081 183.269581 
L 415.591667 180.812554 
L 416.562524 183.57671 
L 417.53338 183.57671 
L 418.504237 183.269581 
L 419.475094 186.003024 
L 420.445951 183.876255 
L 421.416808 183.57671 
L 422.387665 186.003024 
L 423.358522 185.726608 
L 424.329379 186.272614 
L 425.300236 186.003024 
L 426.271093 182.954578 
L 427.241949 185.443105 
L 428.212806 183.269581 
L 429.183663 183.57671 
L 430.15452 184.853717 
L 431.125377 185.152238 
L 434.037948 184.168494 
L 435.008805 182.954578 
L 435.979661 182.954578 
L 436.950518 183.269581 
L 437.921375 183.269581 
L 438.892232 183.57671 
L 439.863089 185.152238 
L 440.833946 182.954578 
L 441.804803 185.443105 
L 442.77566 182.631392 
L 443.746517 182.954578 
L 444.717374 182.631392 
L 445.68823 185.443105 
L 446.659087 185.152238 
L 447.629944 182.954578 
L 448.600801 184.547235 
L 449.571658 182.631392 
L 450.542515 183.269581 
L 451.513372 183.269581 
L 452.484229 185.152238 
L 453.455086 182.954578 
L 454.425942 182.299702 
L 455.396799 182.631392 
L 456.367656 182.631392 
L 457.338513 180.812554 
L 458.30937 180.46605 
L 459.280227 182.954578 
L 460.251084 183.269581 
L 461.221941 180.812554 
L 462.192798 180.812554 
L 463.163655 181.150395 
L 464.134511 182.954578 
L 465.105368 182.954578 
L 466.076225 182.631392 
L 467.047082 183.269581 
L 469.959653 179.371098 
L 470.93051 180.46605 
L 473.84308 180.46605 
L 475.784794 179.745687 
L 476.755651 180.110546 
L 477.726508 179.745687 
L 478.697365 180.110546 
L 479.668222 181.150395 
L 479.668222 181.150395 
" clip-path="url(#p6df4165a4f)" style="fill: none; stroke: #9467bd; stroke-width: 1.5; stroke-linecap: square"/>
   </g>
   <g id="line2d_29">
    <path d="M 73.85004 145.331417 
L 74.820897 141.016771 
L 76.762611 138.751582 
L 77.733467 134.652668 
L 78.704324 135.833106 
L 79.675181 133.895037 
L 80.646038 138.963834 
L 81.616895 133.895037 
L 82.587752 139.156495 
L 83.558609 138.963834 
L 84.529466 136.976071 
L 85.500323 136.170262 
L 86.47118 140.057105 
L 87.442036 138.963834 
L 88.412893 135.050424 
L 91.325464 136.976071 
L 92.296321 136.976071 
L 93.267178 135.050424 
L 94.238035 136.976071 
L 95.208892 135.050424 
L 96.179748 132.702378 
L 97.150605 135.050424 
L 98.121462 139.903053 
L 99.092319 135.833106 
L 100.063176 134.652668 
L 102.00489 134.652668 
L 102.975747 138.751582 
L 103.946604 135.833106 
L 104.917461 136.667967 
L 105.888317 136.667967 
L 106.859174 143.138139 
L 107.830031 140.907045 
L 108.800888 142.041499 
L 109.771745 138.516588 
L 110.742602 144.253685 
L 111.713459 141.016771 
L 112.684316 138.751582 
L 113.655173 139.903053 
L 115.596886 138.751582 
L 116.567743 137.834719 
L 117.5386 136.667967 
L 118.509457 138.751582 
L 119.480314 138.751582 
L 120.451171 134.652668 
L 121.422028 135.833106 
L 122.392885 135.461664 
L 123.363742 134.652668 
L 125.305455 141.016771 
L 127.247169 144.198822 
L 129.188883 139.903053 
L 130.15974 142.094562 
L 131.130597 138.963834 
L 132.101454 138.963834 
L 133.07231 142.094562 
L 134.043167 142.094562 
L 135.014024 141.016771 
L 135.984881 143.138139 
L 136.955738 142.094562 
L 137.926595 144.198822 
L 140.839166 142.094562 
L 143.751736 138.083317 
L 144.722593 140.057105 
L 145.69345 138.083317 
L 146.664307 142.094562 
L 147.635164 141.016771 
L 148.606021 141.11621 
L 157.343733 141.016771 
L 158.31459 143.138139 
L 160.256303 145.225291 
L 161.22716 141.11621 
L 162.198017 146.373224 
L 163.168874 144.198822 
L 164.139731 144.198822 
L 165.110588 143.138139 
L 166.081445 135.833106 
L 167.052302 144.149103 
L 168.023159 142.094562 
L 168.994016 145.12896 
L 169.964872 143.138139 
L 170.935729 143.138139 
L 171.906586 145.225291 
L 172.877443 142.142728 
L 173.8483 142.094562 
L 174.819157 141.016771 
L 176.760871 145.225291 
L 177.731728 142.094562 
L 178.702584 136.667967 
L 179.673441 137.834719 
L 180.644298 136.667967 
L 181.615155 139.903053 
L 182.586012 136.976071 
L 183.556869 138.963834 
L 184.527726 140.057105 
L 185.498583 138.963834 
L 186.46944 140.057105 
L 187.440297 143.138139 
L 188.411153 136.976071 
L 189.38201 136.667967 
L 190.352867 133.895037 
L 191.323724 133.184029 
L 192.294581 133.895037 
L 194.236295 136.170262 
L 195.207152 133.184029 
L 196.178009 135.050424 
L 197.148865 132.017531 
L 210.740862 132.017531 
L 211.711719 133.895037 
L 212.682576 133.895037 
L 213.653433 135.050424 
L 214.62429 135.050424 
L 215.595146 136.170262 
L 216.566003 139.156495 
L 217.53686 135.412561 
L 218.507717 136.170262 
L 219.478574 134.315178 
L 220.449431 134.315178 
L 221.420288 138.083317 
L 222.391145 138.963834 
L 223.362002 136.976071 
L 226.274572 134.315178 
L 227.245429 138.083317 
L 228.216286 133.184029 
L 229.187143 135.412561 
L 230.158 135.412561 
L 231.128857 131.885667 
L 232.099714 131.885667 
L 233.070571 132.515469 
L 234.041427 131.885667 
L 236.953998 133.623181 
L 237.924855 129.618377 
L 238.895712 129.072549 
L 239.866569 130.768693 
L 240.837426 129.072549 
L 241.808283 131.374191 
L 245.69171 129.618377 
L 246.662567 131.374191 
L 248.604281 130.197796 
L 249.575138 129.072549 
L 250.545995 126.259431 
L 251.516852 129.618377 
L 252.487708 126.259431 
L 253.458565 127.424865 
L 255.400279 128.433204 
L 256.371136 130.768693 
L 257.341993 129.072549 
L 259.283707 136.170262 
L 260.254564 132.515469 
L 261.22542 133.623181 
L 262.196277 130.768693 
L 263.167134 136.477668 
L 264.137991 130.197796 
L 265.108848 132.35452 
L 266.079705 130.197796 
L 267.050562 132.970726 
L 268.021419 134.698785 
L 268.992276 135.743657 
L 269.963133 135.743657 
L 271.904846 130.197796 
L 272.875703 131.885667 
L 273.84656 132.515469 
L 274.817417 131.885667 
L 275.788274 129.072549 
L 276.759131 130.768693 
L 277.729988 131.885667 
L 278.700845 131.291346 
L 279.671701 131.291346 
L 280.642558 131.885667 
L 281.613415 130.197796 
L 282.584272 133.623181 
L 283.555129 131.885667 
L 284.525986 134.025221 
L 285.496843 137.511903 
L 286.4677 132.970726 
L 287.438557 135.743657 
L 288.409414 135.743657 
L 289.38027 132.35452 
L 290.351127 131.291346 
L 291.321984 134.698785 
L 292.292841 132.35452 
L 294.234555 130.197796 
L 296.176269 128.557471 
L 299.088839 128.557471 
L 301.030553 132.35452 
L 304.913981 128.070616 
L 305.884838 127.609727 
L 333.068831 114.888095 
L 334.039688 112.235828 
L 335.010544 115.006959 
L 335.981401 110.787282 
L 337.923115 110.787282 
L 338.893972 109.457794 
L 339.864829 106.686469 
L 340.835686 108.091377 
L 341.806543 112.116769 
L 342.7774 110.787282 
L 343.748257 112.116769 
L 344.719113 114.775744 
L 345.68997 115.006959 
L 346.660827 114.888095 
L 347.631684 116.179091 
L 348.602541 116.333143 
L 349.573398 116.179091 
L 350.544255 120.355845 
L 368.019679 120.355845 
L 368.990536 121.279451 
L 370.93225 124.266805 
L 371.903106 121.879004 
L 372.873963 124.651935 
L 373.84482 120.093693 
L 374.815677 123.08972 
L 375.786534 125.411642 
L 376.757391 123.902494 
L 377.728248 120.093693 
L 378.699105 121.279451 
L 379.669962 123.557357 
L 380.640818 123.902494 
L 381.611675 126.525536 
L 382.582532 123.557357 
L 384.524246 125.718446 
L 385.495103 128.326903 
L 388.407674 126.36362 
L 389.378531 127.172781 
L 390.349387 125.345167 
L 392.291101 128.206974 
L 393.261958 126.36362 
L 394.232815 130.695501 
L 395.203672 129.214985 
L 396.174529 130.197796 
L 397.145386 129.693627 
L 398.116243 130.197796 
L 399.087099 127.172781 
L 400.057956 125.021659 
L 401.028813 128.206974 
L 401.99967 127.771482 
L 402.970527 127.172781 
L 403.941384 128.206974 
L 405.883098 124.651935 
L 406.853955 126.111372 
L 407.824812 122.43359 
L 408.795668 121.279451 
L 410.737382 123.557357 
L 411.708239 119.610243 
L 412.679096 120.741392 
L 413.649953 122.131089 
L 414.62081 121.843904 
L 415.591667 119.386877 
L 416.562524 120.492539 
L 417.53338 120.492539 
L 418.504237 116.929849 
L 419.475094 120.492539 
L 420.445951 119.174541 
L 421.416808 118.066224 
L 422.387665 120.492539 
L 423.358522 119.386877 
L 424.329379 119.174541 
L 425.300236 122.918853 
L 426.271093 118.252864 
L 427.241949 120.741392 
L 428.212806 119.386877 
L 429.183663 120.492539 
L 430.15452 115.895312 
L 431.125377 117.089397 
L 434.037948 120.255825 
L 435.008805 118.252864 
L 435.979661 118.252864 
L 436.950518 116.929849 
L 437.921375 116.929849 
L 438.892232 118.066224 
L 439.863089 124.651935 
L 440.833946 123.229919 
L 441.804803 123.229919 
L 442.77566 119.610243 
L 443.746517 120.741392 
L 444.717374 122.131089 
L 445.68823 120.741392 
L 446.659087 119.610243 
L 447.629944 118.252864 
L 448.600801 119.845522 
L 449.571658 122.131089 
L 450.542515 119.386877 
L 451.513372 119.386877 
L 452.484229 119.610243 
L 453.455086 118.252864 
L 454.425942 121.003342 
L 455.396799 122.131089 
L 456.367656 122.131089 
L 457.338513 119.386877 
L 458.30937 118.252864 
L 459.280227 120.741392 
L 460.251084 121.843904 
L 461.221941 119.386877 
L 462.192798 119.386877 
L 463.163655 118.066224 
L 464.134511 118.252864 
L 465.105368 120.741392 
L 466.076225 119.610243 
L 467.047082 119.386877 
L 469.959653 114.669385 
L 470.93051 115.764337 
L 473.84308 115.764337 
L 475.784794 113.341297 
L 478.697365 117.089397 
L 479.668222 115.63991 
L 479.668222 115.63991 
" clip-path="url(#p6df4165a4f)" style="fill: none; stroke: #8c564b; stroke-width: 1.5; stroke-linecap: square"/>
   </g>
   <g id="line2d_30">
    <path d="M 73.85004 49.923805 
L 74.820897 51.919329 
L 75.791754 49.320654 
L 76.762611 49.923805 
L 77.733467 45.555226 
L 78.704324 45.041992 
L 79.675181 47.626085 
L 80.646038 45.041992 
L 81.616895 47.626085 
L 82.587752 46.583274 
L 83.558609 48.17272 
L 84.529466 47.626085 
L 85.500323 49.569507 
L 86.47118 44.545051 
L 87.442036 45.041992 
L 88.412893 47.096532 
L 91.325464 44.545051 
L 92.296321 47.626085 
L 93.267178 47.096532 
L 94.238035 44.545051 
L 95.208892 47.096532 
L 96.179748 45.041992 
L 98.121462 49.320654 
L 99.092319 45.041992 
L 100.063176 45.555226 
L 102.00489 45.555226 
L 102.975747 46.633888 
L 103.946604 45.041992 
L 104.917461 46.085568 
L 105.888317 46.085568 
L 106.859174 44.382891 
L 107.830031 43.854475 
L 108.800888 46.633888 
L 109.771745 44.93018 
L 110.742602 50.547755 
L 111.713459 45.555226 
L 112.684316 43.34397 
L 113.655173 42.850482 
L 115.596886 40.054052 
L 116.567743 42.373175 
L 117.5386 42.850482 
L 118.509457 36.764135 
L 119.480314 43.34397 
L 120.451171 42.373175 
L 121.422028 41.911264 
L 122.392885 43.34397 
L 123.363742 39.191123 
L 124.334598 36.009072 
L 125.305455 39.191123 
L 127.247169 42.373175 
L 129.188883 42.850482 
L 130.15974 38.780536 
L 132.101454 38.780536 
L 133.07231 41.911264 
L 134.043167 38.780536 
L 135.014024 39.191123 
L 135.984881 42.850482 
L 136.955738 38.780536 
L 137.926595 39.191123 
L 140.839166 38.780536 
L 143.751736 44.06364 
L 144.722593 41.464017 
L 145.69345 44.06364 
L 146.664307 38.780536 
L 147.635164 36.009072 
L 148.606021 44.06364 
L 157.343733 42.373175 
L 158.31459 42.850482 
L 160.256303 45.041992 
L 161.22716 44.06364 
L 162.198017 42.850482 
L 163.168874 42.373175 
L 164.139731 39.191123 
L 165.110588 42.850482 
L 166.081445 41.911264 
L 167.052302 44.06364 
L 168.023159 41.911264 
L 168.994016 46.583274 
L 169.964872 42.850482 
L 170.935729 44.545051 
L 171.906586 41.911264 
L 172.877443 46.583274 
L 173.8483 41.911264 
L 174.819157 42.373175 
L 175.790014 44.545051 
L 176.760871 41.911264 
L 177.731728 38.780536 
L 178.702584 42.850482 
L 179.673441 45.555226 
L 180.644298 42.850482 
L 181.615155 39.615397 
L 182.586012 35.301949 
L 183.556869 41.911264 
L 184.527726 38.382983 
L 185.498583 38.780536 
L 186.46944 38.382983 
L 187.440297 39.615397 
L 188.411153 41.464017 
L 189.38201 33.145225 
L 191.323724 43.597041 
L 192.294581 41.464017 
L 194.236295 43.597041 
L 195.207152 40.610808 
L 196.178009 37.997854 
L 197.148865 41.030747 
L 210.740862 41.030747 
L 211.711719 38.382983 
L 212.682576 44.545051 
L 213.653433 44.06364 
L 214.62429 47.096532 
L 215.595146 43.597041 
L 216.566003 43.597041 
L 217.53686 42.705628 
L 218.507717 43.597041 
L 219.478574 43.144581 
L 220.449431 46.085568 
L 221.420288 41.030747 
L 222.391145 41.911264 
L 223.362002 41.464017 
L 226.274572 46.085568 
L 227.245429 41.030747 
L 228.216286 43.597041 
L 229.187143 42.705628 
L 230.158 45.602719 
L 231.128857 44.679009 
L 232.099714 44.679009 
L 233.070571 42.705628 
L 234.041427 44.679009 
L 236.953998 42.279585 
L 237.924855 42.705628 
L 238.895712 44.679009 
L 239.866569 39.425098 
L 240.837426 44.679009 
L 241.808283 40.203594 
L 245.69171 42.705628 
L 246.662567 40.203594 
L 247.633424 36.57061 
L 248.604281 38.691087 
L 249.575138 39.052773 
L 250.545995 39.052773 
L 251.516852 39.808536 
L 252.487708 39.052773 
L 253.458565 38.691087 
L 254.429422 39.425098 
L 255.400279 37.262607 
L 256.371136 39.425098 
L 257.341993 39.052773 
L 258.31285 36.911445 
L 259.283707 37.624575 
L 260.254564 39.808536 
L 261.22542 39.425098 
L 263.167134 39.425098 
L 265.108848 37.997854 
L 266.079705 38.691087 
L 267.050562 38.691087 
L 268.021419 36.239655 
L 268.992276 38.691087 
L 269.963133 35.918156 
L 270.933989 38.691087 
L 271.904846 38.691087 
L 272.875703 39.052773 
L 273.84656 36.911445 
L 274.817417 39.052773 
L 275.788274 39.052773 
L 276.759131 39.425098 
L 277.729988 39.052773 
L 278.700845 38.339588 
L 279.671701 38.339588 
L 280.642558 39.052773 
L 281.613415 38.691087 
L 282.584272 36.57061 
L 283.555129 41.865891 
L 284.525986 38.339588 
L 285.496843 39.052773 
L 286.4677 41.464017 
L 287.438557 41.464017 
L 288.409414 38.691087 
L 289.38027 40.693759 
L 290.351127 41.073464 
L 291.321984 39.052773 
L 292.292841 40.693759 
L 293.263698 38.339588 
L 294.234555 41.464017 
L 296.176269 38.339588 
L 299.088839 41.073464 
L 301.030553 40.693759 
L 304.913981 40.324457 
L 305.884838 39.615397 
L 333.068831 35.605713 
L 334.039688 34.014353 
L 335.010544 36.239655 
L 335.981401 33.716123 
L 336.952258 35.301949 
L 337.923115 35.301949 
L 338.893972 35.006508 
L 339.864829 35.605713 
L 340.835686 32.606044 
L 341.806543 35.006508 
L 342.7774 34.719051 
L 343.748257 35.006508 
L 344.719113 35.006508 
L 345.68997 33.426537 
L 346.660827 38.339588 
L 347.631684 37.997854 
L 348.602541 38.691087 
L 349.573398 37.997854 
L 350.544255 38.339588 
L 368.019679 35.605713 
L 368.990536 37.342093 
L 370.93225 37.997854 
L 371.903106 38.691087 
L 372.873963 38.691087 
L 373.84482 37.665482 
L 374.815677 38.339588 
L 375.786534 37.665482 
L 376.757391 37.342093 
L 377.728248 37.665482 
L 378.699105 37.342093 
L 379.669962 36.720846 
L 380.640818 37.342093 
L 381.611675 37.342093 
L 382.582532 34.166831 
L 383.553389 36.422325 
L 384.524246 36.131458 
L 385.495103 34.782257 
L 388.407674 35.301949 
L 389.378531 31.380633 
L 390.349387 33.145225 
L 392.291101 33.642931 
L 393.261958 35.301949 
L 394.232815 33.642931 
L 395.203672 35.847955 
L 396.174529 35.57154 
L 397.145386 33.901479 
L 398.116243 35.57154 
L 399.087099 36.422325 
L 400.057956 34.43926 
L 401.028813 36.131458 
L 401.99967 35.57154 
L 402.970527 36.422325 
L 403.941384 36.131458 
L 404.912241 32.096008 
L 405.883098 36.422325 
L 406.853955 34.166831 
L 407.824812 34.43926 
L 408.795668 37.342093 
L 412.679096 36.131458 
L 413.649953 36.422325 
L 414.62081 35.847955 
L 415.591667 35.847955 
L 416.562524 35.57154 
L 417.53338 33.145225 
L 418.504237 35.847955 
L 420.445951 35.301949 
L 421.416808 33.145225 
L 422.387665 35.57154 
L 423.358522 35.847955 
L 424.329379 35.301949 
L 425.300236 35.57154 
L 426.271093 36.131458 
L 427.241949 36.131458 
L 429.183663 35.57154 
L 430.15452 36.720846 
L 431.125377 36.422325 
L 434.037948 35.038934 
L 435.008805 36.131458 
L 435.979661 36.131458 
L 436.950518 35.847955 
L 437.921375 35.847955 
L 438.892232 35.57154 
L 439.863089 36.422325 
L 440.833946 36.131458 
L 441.804803 33.642931 
L 442.77566 36.422325 
L 443.746517 33.642931 
L 444.717374 33.901479 
L 445.68823 36.131458 
L 446.659087 36.422325 
L 447.629944 36.131458 
L 448.600801 37.027328 
L 450.542515 35.847955 
L 451.513372 35.847955 
L 452.484229 36.422325 
L 453.455086 36.131458 
L 454.425942 36.720846 
L 455.396799 36.422325 
L 456.367656 36.422325 
L 457.338513 35.847955 
L 458.30937 36.131458 
L 459.280227 33.642931 
L 460.251084 33.390928 
L 461.221941 35.847955 
L 462.192798 33.390928 
L 463.163655 35.57154 
L 464.134511 31.154403 
L 465.105368 36.131458 
L 466.076225 36.422325 
L 467.047082 35.847955 
L 469.959653 31.851191 
L 470.93051 31.154403 
L 471.901367 33.642931 
L 472.872223 31.154403 
L 473.84308 33.642931 
L 474.813937 31.380633 
L 475.784794 31.612816 
L 476.755651 33.901479 
L 477.726508 34.166831 
L 478.697365 33.901479 
L 479.668222 33.145225 
L 479.668222 33.145225 
" clip-path="url(#p6df4165a4f)" style="fill: none; stroke: #e377c2; stroke-width: 1.5; stroke-linecap: square"/>
   </g>
   <g id="patch_3">
    <path d="M 53.559131 194.725312 
L 53.559131 23.365312 
" style="fill: none; stroke: #000000; stroke-width: 0.8; stroke-linejoin: miter; stroke-linecap: square"/>
   </g>
   <g id="patch_4">
    <path d="M 499.959131 194.725312 
L 499.959131 23.365312 
" style="fill: none; stroke: #000000; stroke-width: 0.8; stroke-linejoin: miter; stroke-linecap: square"/>
   </g>
   <g id="patch_5">
    <path d="M 53.559131 194.725312 
L 499.959131 194.725312 
" style="fill: none; stroke: #000000; stroke-width: 0.8; stroke-linejoin: miter; stroke-linecap: square"/>
   </g>
   <g id="patch_6">
    <path d="M 53.559131 23.365313 
L 499.959131 23.365313 
" style="fill: none; stroke: #000000; stroke-width: 0.8; stroke-linejoin: miter; stroke-linecap: square"/>
   </g>
   <g id="legend_1">
    <g id="patch_7">
     <path d="M 164.201006 162.131062 
L 389.317256 162.131062 
Q 390.917256 162.131062 390.917256 160.531062 
L 390.917256 126.103562 
Q 390.917256 124.503562 389.317256 124.503562 
L 164.201006 124.503562 
Q 162.601006 124.503562 162.601006 126.103562 
L 162.601006 160.531062 
Q 162.601006 162.131062 164.201006 162.131062 
z
" style="fill: #ffffff; opacity: 0.8; stroke: #cccccc; stroke-linejoin: miter"/>
    </g>
    <g id="line2d_31">
     <path d="M 165.801006 130.982312 
L 173.801006 130.982312 
L 181.801006 130.982312 
" style="fill: none; stroke: #1f77b4; stroke-width: 1.5; stroke-linecap: square"/>
    </g>
    <g id="text_21">
     <!-- script-src -->
     <g transform="translate(188.201006 133.782312)scale(0.08 -0.08)">
      <use xlink:href="#DejaVuSans-73"/>
      <use xlink:href="#DejaVuSans-63" x="52.099609"/>
      <use xlink:href="#DejaVuSans-72" x="107.080078"/>
      <use xlink:href="#DejaVuSans-69" x="148.193359"/>
      <use xlink:href="#DejaVuSans-70" x="175.976562"/>
      <use xlink:href="#DejaVuSans-74" x="239.453125"/>
      <use xlink:href="#DejaVuSans-2d" x="278.662109"/>
      <use xlink:href="#DejaVuSans-73" x="314.746094"/>
      <use xlink:href="#DejaVuSans-72" x="366.845703"/>
      <use xlink:href="#DejaVuSans-63" x="405.708984"/>
     </g>
    </g>
    <g id="line2d_32">
     <path d="M 165.801006 142.724812 
L 173.801006 142.724812 
L 181.801006 142.724812 
" style="fill: none; stroke: #ff7f0e; stroke-width: 1.5; stroke-linecap: square"/>
    </g>
    <g id="text_22">
     <!-- connect-src -->
     <g transform="translate(188.201006 145.524812)scale(0.08 -0.08)">
      <use xlink:href="#DejaVuSans-63"/>
      <use xlink:href="#DejaVuSans-6f" x="54.980469"/>
      <use xlink:href="#DejaVuSans-6e" x="116.162109"/>
      <use xlink:href="#DejaVuSans-6e" x="179.541016"/>
      <use xlink:href="#DejaVuSans-65" x="242.919922"/>
      <use xlink:href="#DejaVuSans-63" x="304.443359"/>
      <use xlink:href="#DejaVuSans-74" x="359.423828"/>
      <use xlink:href="#DejaVuSans-2d" x="398.632812"/>
      <use xlink:href="#DejaVuSans-73" x="434.716797"/>
      <use xlink:href="#DejaVuSans-72" x="486.816406"/>
      <use xlink:href="#DejaVuSans-63" x="525.679688"/>
     </g>
    </g>
    <g id="line2d_33">
     <path d="M 165.801006 154.467312 
L 173.801006 154.467312 
L 181.801006 154.467312 
" style="fill: none; stroke: #2ca02c; stroke-width: 1.5; stroke-linecap: square"/>
    </g>
    <g id="text_23">
     <!-- style-src -->
     <g transform="translate(188.201006 157.267313)scale(0.08 -0.08)">
      <use xlink:href="#DejaVuSans-73"/>
      <use xlink:href="#DejaVuSans-74" x="52.099609"/>
      <use xlink:href="#DejaVuSans-79" x="91.308594"/>
      <use xlink:href="#DejaVuSans-6c" x="150.488281"/>
      <use xlink:href="#DejaVuSans-65" x="178.271484"/>
      <use xlink:href="#DejaVuSans-2d" x="239.794922"/>
      <use xlink:href="#DejaVuSans-73" x="275.878906"/>
      <use xlink:href="#DejaVuSans-72" x="327.978516"/>
      <use xlink:href="#DejaVuSans-63" x="366.841797"/>
     </g>
    </g>
    <g id="line2d_34">
     <path d="M 250.653506 130.982312 
L 258.653506 130.982312 
L 266.653506 130.982312 
" style="fill: none; stroke: #d62728; stroke-width: 1.5; stroke-linecap: square"/>
    </g>
    <g id="text_24">
     <!-- img-src -->
     <g transform="translate(273.053506 133.782312)scale(0.08 -0.08)">
      <defs>
       <path id="DejaVuSans-6d" d="M 3328 2828 
Q 3544 3216 3844 3400 
Q 4144 3584 4550 3584 
Q 5097 3584 5394 3201 
Q 5691 2819 5691 2113 
L 5691 0 
L 5113 0 
L 5113 2094 
Q 5113 2597 4934 2840 
Q 4756 3084 4391 3084 
Q 3944 3084 3684 2787 
Q 3425 2491 3425 1978 
L 3425 0 
L 2847 0 
L 2847 2094 
Q 2847 2600 2669 2842 
Q 2491 3084 2119 3084 
Q 1678 3084 1418 2786 
Q 1159 2488 1159 1978 
L 1159 0 
L 581 0 
L 581 3500 
L 1159 3500 
L 1159 2956 
Q 1356 3278 1631 3431 
Q 1906 3584 2284 3584 
Q 2666 3584 2933 3390 
Q 3200 3197 3328 2828 
z
" transform="scale(0.015625)"/>
      </defs>
      <use xlink:href="#DejaVuSans-69"/>
      <use xlink:href="#DejaVuSans-6d" x="27.783203"/>
      <use xlink:href="#DejaVuSans-67" x="125.195312"/>
      <use xlink:href="#DejaVuSans-2d" x="188.671875"/>
      <use xlink:href="#DejaVuSans-73" x="224.755859"/>
      <use xlink:href="#DejaVuSans-72" x="276.855469"/>
      <use xlink:href="#DejaVuSans-63" x="315.71875"/>
     </g>
    </g>
    <g id="line2d_35">
     <path d="M 250.653506 142.724812 
L 258.653506 142.724812 
L 266.653506 142.724812 
" style="fill: none; stroke: #9467bd; stroke-width: 1.5; stroke-linecap: square"/>
    </g>
    <g id="text_25">
     <!-- child-src -->
     <g transform="translate(273.053506 145.524812)scale(0.08 -0.08)">
      <defs>
       <path id="DejaVuSans-68" d="M 3513 2113 
L 3513 0 
L 2938 0 
L 2938 2094 
Q 2938 2591 2744 2837 
Q 2550 3084 2163 3084 
Q 1697 3084 1428 2787 
Q 1159 2491 1159 1978 
L 1159 0 
L 581 0 
L 581 4863 
L 1159 4863 
L 1159 2956 
Q 1366 3272 1645 3428 
Q 1925 3584 2291 3584 
Q 2894 3584 3203 3211 
Q 3513 2838 3513 2113 
z
" transform="scale(0.015625)"/>
      </defs>
      <use xlink:href="#DejaVuSans-63"/>
      <use xlink:href="#DejaVuSans-68" x="54.980469"/>
      <use xlink:href="#DejaVuSans-69" x="118.359375"/>
      <use xlink:href="#DejaVuSans-6c" x="146.142578"/>
      <use xlink:href="#DejaVuSans-64" x="173.925781"/>
      <use xlink:href="#DejaVuSans-2d" x="237.402344"/>
      <use xlink:href="#DejaVuSans-73" x="273.486328"/>
      <use xlink:href="#DejaVuSans-72" x="325.585938"/>
      <use xlink:href="#DejaVuSans-63" x="364.449219"/>
     </g>
    </g>
    <g id="line2d_36">
     <path d="M 322.607256 130.982312 
L 330.607256 130.982312 
L 338.607256 130.982312 
" style="fill: none; stroke: #8c564b; stroke-width: 1.5; stroke-linecap: square"/>
    </g>
    <g id="text_26">
     <!-- frame-src -->
     <g transform="translate(345.007256 133.782312)scale(0.08 -0.08)">
      <use xlink:href="#DejaVuSans-66"/>
      <use xlink:href="#DejaVuSans-72" x="35.205078"/>
      <use xlink:href="#DejaVuSans-61" x="76.318359"/>
      <use xlink:href="#DejaVuSans-6d" x="137.597656"/>
      <use xlink:href="#DejaVuSans-65" x="235.009766"/>
      <use xlink:href="#DejaVuSans-2d" x="296.533203"/>
      <use xlink:href="#DejaVuSans-73" x="332.617188"/>
      <use xlink:href="#DejaVuSans-72" x="384.716797"/>
      <use xlink:href="#DejaVuSans-63" x="423.580078"/>
     </g>
    </g>
    <g id="line2d_37">
     <path d="M 322.607256 142.724812 
L 330.607256 142.724812 
L 338.607256 142.724812 
" style="fill: none; stroke: #e377c2; stroke-width: 1.5; stroke-linecap: square"/>
    </g>
    <g id="text_27">
     <!-- default-src -->
     <g transform="translate(345.007256 145.524812)scale(0.08 -0.08)">
      <use xlink:href="#DejaVuSans-64"/>
      <use xlink:href="#DejaVuSans-65" x="63.476562"/>
      <use xlink:href="#DejaVuSans-66" x="125"/>
      <use xlink:href="#DejaVuSans-61" x="160.205078"/>
      <use xlink:href="#DejaVuSans-75" x="221.484375"/>
      <use xlink:href="#DejaVuSans-6c" x="284.863281"/>
      <use xlink:href="#DejaVuSans-74" x="312.646484"/>
      <use xlink:href="#DejaVuSans-2d" x="351.855469"/>
      <use xlink:href="#DejaVuSans-73" x="387.939453"/>
      <use xlink:href="#DejaVuSans-72" x="440.039062"/>
      <use xlink:href="#DejaVuSans-63" x="478.902344"/>
     </g>
    </g>
   </g>
  </g>
 </g>
 <defs>
  <clipPath id="p6df4165a4f">
   <rect x="53.559131" y="23.365313" width="446.4" height="171.36"/>
  </clipPath>
 </defs>
</svg>
