<?xml version="1.0" encoding="utf-8" standalone="no"?>
<!DOCTYPE svg PUBLIC "-//W3C//DTD SVG 1.1//EN"
  "http://www.w3.org/Graphics/SVG/1.1/DTD/svg11.dtd">
<svg xmlns:xlink="http://www.w3.org/1999/xlink" width="506.732901pt" height="237.886033pt" viewBox="0 0 506.732901 237.886033" xmlns="http://www.w3.org/2000/svg" version="1.1">
 <metadata>
  <rdf:RDF xmlns:dc="http://purl.org/dc/elements/1.1/" xmlns:cc="http://creativecommons.org/ns#" xmlns:rdf="http://www.w3.org/1999/02/22-rdf-syntax-ns#">
   <cc:Work>
    <dc:type rdf:resource="http://purl.org/dc/dcmitype/StillImage"/>
    <dc:date>2022-02-14T19:24:16.112624</dc:date>
    <dc:format>image/svg+xml</dc:format>
    <dc:creator>
     <cc:Agent>
      <dc:title>Matplotlib v3.5.1, https://matplotlib.org/</dc:title>
     </cc:Agent>
    </dc:creator>
   </cc:Work>
  </rdf:RDF>
 </metadata>
 <defs>
  <style type="text/css">*{stroke-linejoin: round; stroke-linecap: butt}</style>
 </defs>
 <g id="figure_1">
  <g id="patch_1">
   <path d="M 0 237.886033 
L 506.732901 237.886033 
L 506.732901 0 
L 0 0 
z
" style="fill: #ffffff"/>
  </g>
  <g id="axes_1">
   <g id="patch_2">
    <path d="M 53.132901 182.359219 
L 499.532901 182.359219 
L 499.532901 10.999219 
L 53.132901 10.999219 
z
" style="fill: #ffffff"/>
   </g>
   <g id="matplotlib.axis_1">
    <g id="xtick_1">
     <g id="line2d_1">
      <defs>
       <path id="me313f12a1c" d="M 0 0 
L 0 3.5 
" style="stroke: #000000; stroke-width: 0.8"/>
      </defs>
      <g>
       <use xlink:href="#me313f12a1c" x="68.024899" y="182.359219" style="stroke: #000000; stroke-width: 0.8"/>
      </g>
     </g>
     <g id="text_1">
      <!-- 2020-Nov-01 -->
      <g transform="translate(10.999219 228.263096)rotate(-30)scale(0.1 -0.1)">
       <defs>
        <path id="DejaVuSans-32" d="M 1228 531 
L 3431 531 
L 3431 0 
L 469 0 
L 469 531 
Q 828 903 1448 1529 
Q 2069 2156 2228 2338 
Q 2531 2678 2651 2914 
Q 2772 3150 2772 3378 
Q 2772 3750 2511 3984 
Q 2250 4219 1831 4219 
Q 1534 4219 1204 4116 
Q 875 4013 500 3803 
L 500 4441 
Q 881 4594 1212 4672 
Q 1544 4750 1819 4750 
Q 2544 4750 2975 4387 
Q 3406 4025 3406 3419 
Q 3406 3131 3298 2873 
Q 3191 2616 2906 2266 
Q 2828 2175 2409 1742 
Q 1991 1309 1228 531 
z
" transform="scale(0.015625)"/>
        <path id="DejaVuSans-30" d="M 2034 4250 
Q 1547 4250 1301 3770 
Q 1056 3291 1056 2328 
Q 1056 1369 1301 889 
Q 1547 409 2034 409 
Q 2525 409 2770 889 
Q 3016 1369 3016 2328 
Q 3016 3291 2770 3770 
Q 2525 4250 2034 4250 
z
M 2034 4750 
Q 2819 4750 3233 4129 
Q 3647 3509 3647 2328 
Q 3647 1150 3233 529 
Q 2819 -91 2034 -91 
Q 1250 -91 836 529 
Q 422 1150 422 2328 
Q 422 3509 836 4129 
Q 1250 4750 2034 4750 
z
" transform="scale(0.015625)"/>
        <path id="DejaVuSans-2d" d="M 313 2009 
L 1997 2009 
L 1997 1497 
L 313 1497 
L 313 2009 
z
" transform="scale(0.015625)"/>
        <path id="DejaVuSans-4e" d="M 628 4666 
L 1478 4666 
L 3547 763 
L 3547 4666 
L 4159 4666 
L 4159 0 
L 3309 0 
L 1241 3903 
L 1241 0 
L 628 0 
L 628 4666 
z
" transform="scale(0.015625)"/>
        <path id="DejaVuSans-6f" d="M 1959 3097 
Q 1497 3097 1228 2736 
Q 959 2375 959 1747 
Q 959 1119 1226 758 
Q 1494 397 1959 397 
Q 2419 397 2687 759 
Q 2956 1122 2956 1747 
Q 2956 2369 2687 2733 
Q 2419 3097 1959 3097 
z
M 1959 3584 
Q 2709 3584 3137 3096 
Q 3566 2609 3566 1747 
Q 3566 888 3137 398 
Q 2709 -91 1959 -91 
Q 1206 -91 779 398 
Q 353 888 353 1747 
Q 353 2609 779 3096 
Q 1206 3584 1959 3584 
z
" transform="scale(0.015625)"/>
        <path id="DejaVuSans-76" d="M 191 3500 
L 800 3500 
L 1894 563 
L 2988 3500 
L 3597 3500 
L 2284 0 
L 1503 0 
L 191 3500 
z
" transform="scale(0.015625)"/>
        <path id="DejaVuSans-31" d="M 794 531 
L 1825 531 
L 1825 4091 
L 703 3866 
L 703 4441 
L 1819 4666 
L 2450 4666 
L 2450 531 
L 3481 531 
L 3481 0 
L 794 0 
L 794 531 
z
" transform="scale(0.015625)"/>
       </defs>
       <use xlink:href="#DejaVuSans-32"/>
       <use xlink:href="#DejaVuSans-30" x="63.623047"/>
       <use xlink:href="#DejaVuSans-32" x="127.246094"/>
       <use xlink:href="#DejaVuSans-30" x="190.869141"/>
       <use xlink:href="#DejaVuSans-2d" x="254.492188"/>
       <use xlink:href="#DejaVuSans-4e" x="290.576172"/>
       <use xlink:href="#DejaVuSans-6f" x="365.380859"/>
       <use xlink:href="#DejaVuSans-76" x="426.5625"/>
       <use xlink:href="#DejaVuSans-2d" x="483.117188"/>
       <use xlink:href="#DejaVuSans-30" x="519.201172"/>
       <use xlink:href="#DejaVuSans-31" x="582.824219"/>
      </g>
     </g>
    </g>
    <g id="xtick_2">
     <g id="line2d_2">
      <g>
       <use xlink:href="#me313f12a1c" x="95.019456" y="182.359219" style="stroke: #000000; stroke-width: 0.8"/>
      </g>
     </g>
     <g id="text_2">
      <!-- 2020-Dec-01 -->
      <g transform="translate(37.911233 228.310752)rotate(-30)scale(0.1 -0.1)">
       <defs>
        <path id="DejaVuSans-44" d="M 1259 4147 
L 1259 519 
L 2022 519 
Q 2988 519 3436 956 
Q 3884 1394 3884 2338 
Q 3884 3275 3436 3711 
Q 2988 4147 2022 4147 
L 1259 4147 
z
M 628 4666 
L 1925 4666 
Q 3281 4666 3915 4102 
Q 4550 3538 4550 2338 
Q 4550 1131 3912 565 
Q 3275 0 1925 0 
L 628 0 
L 628 4666 
z
" transform="scale(0.015625)"/>
        <path id="DejaVuSans-65" d="M 3597 1894 
L 3597 1613 
L 953 1613 
Q 991 1019 1311 708 
Q 1631 397 2203 397 
Q 2534 397 2845 478 
Q 3156 559 3463 722 
L 3463 178 
Q 3153 47 2828 -22 
Q 2503 -91 2169 -91 
Q 1331 -91 842 396 
Q 353 884 353 1716 
Q 353 2575 817 3079 
Q 1281 3584 2069 3584 
Q 2775 3584 3186 3129 
Q 3597 2675 3597 1894 
z
M 3022 2063 
Q 3016 2534 2758 2815 
Q 2500 3097 2075 3097 
Q 1594 3097 1305 2825 
Q 1016 2553 972 2059 
L 3022 2063 
z
" transform="scale(0.015625)"/>
        <path id="DejaVuSans-63" d="M 3122 3366 
L 3122 2828 
Q 2878 2963 2633 3030 
Q 2388 3097 2138 3097 
Q 1578 3097 1268 2742 
Q 959 2388 959 1747 
Q 959 1106 1268 751 
Q 1578 397 2138 397 
Q 2388 397 2633 464 
Q 2878 531 3122 666 
L 3122 134 
Q 2881 22 2623 -34 
Q 2366 -91 2075 -91 
Q 1284 -91 818 406 
Q 353 903 353 1747 
Q 353 2603 823 3093 
Q 1294 3584 2113 3584 
Q 2378 3584 2631 3529 
Q 2884 3475 3122 3366 
z
" transform="scale(0.015625)"/>
       </defs>
       <use xlink:href="#DejaVuSans-32"/>
       <use xlink:href="#DejaVuSans-30" x="63.623047"/>
       <use xlink:href="#DejaVuSans-32" x="127.246094"/>
       <use xlink:href="#DejaVuSans-30" x="190.869141"/>
       <use xlink:href="#DejaVuSans-2d" x="254.492188"/>
       <use xlink:href="#DejaVuSans-44" x="290.576172"/>
       <use xlink:href="#DejaVuSans-65" x="367.578125"/>
       <use xlink:href="#DejaVuSans-63" x="429.101562"/>
       <use xlink:href="#DejaVuSans-2d" x="484.082031"/>
       <use xlink:href="#DejaVuSans-30" x="520.166016"/>
       <use xlink:href="#DejaVuSans-31" x="583.789062"/>
      </g>
     </g>
    </g>
    <g id="xtick_3">
     <g id="line2d_3">
      <g>
       <use xlink:href="#me313f12a1c" x="122.913832" y="182.359219" style="stroke: #000000; stroke-width: 0.8"/>
      </g>
     </g>
     <g id="text_3">
      <!-- 2021-Jan-01 -->
      <g transform="translate(68.727092 226.624034)rotate(-30)scale(0.1 -0.1)">
       <defs>
        <path id="DejaVuSans-4a" d="M 628 4666 
L 1259 4666 
L 1259 325 
Q 1259 -519 939 -900 
Q 619 -1281 -91 -1281 
L -331 -1281 
L -331 -750 
L -134 -750 
Q 284 -750 456 -515 
Q 628 -281 628 325 
L 628 4666 
z
" transform="scale(0.015625)"/>
        <path id="DejaVuSans-61" d="M 2194 1759 
Q 1497 1759 1228 1600 
Q 959 1441 959 1056 
Q 959 750 1161 570 
Q 1363 391 1709 391 
Q 2188 391 2477 730 
Q 2766 1069 2766 1631 
L 2766 1759 
L 2194 1759 
z
M 3341 1997 
L 3341 0 
L 2766 0 
L 2766 531 
Q 2569 213 2275 61 
Q 1981 -91 1556 -91 
Q 1019 -91 701 211 
Q 384 513 384 1019 
Q 384 1609 779 1909 
Q 1175 2209 1959 2209 
L 2766 2209 
L 2766 2266 
Q 2766 2663 2505 2880 
Q 2244 3097 1772 3097 
Q 1472 3097 1187 3025 
Q 903 2953 641 2809 
L 641 3341 
Q 956 3463 1253 3523 
Q 1550 3584 1831 3584 
Q 2591 3584 2966 3190 
Q 3341 2797 3341 1997 
z
" transform="scale(0.015625)"/>
        <path id="DejaVuSans-6e" d="M 3513 2113 
L 3513 0 
L 2938 0 
L 2938 2094 
Q 2938 2591 2744 2837 
Q 2550 3084 2163 3084 
Q 1697 3084 1428 2787 
Q 1159 2491 1159 1978 
L 1159 0 
L 581 0 
L 581 3500 
L 1159 3500 
L 1159 2956 
Q 1366 3272 1645 3428 
Q 1925 3584 2291 3584 
Q 2894 3584 3203 3211 
Q 3513 2838 3513 2113 
z
" transform="scale(0.015625)"/>
       </defs>
       <use xlink:href="#DejaVuSans-32"/>
       <use xlink:href="#DejaVuSans-30" x="63.623047"/>
       <use xlink:href="#DejaVuSans-32" x="127.246094"/>
       <use xlink:href="#DejaVuSans-31" x="190.869141"/>
       <use xlink:href="#DejaVuSans-2d" x="254.492188"/>
       <use xlink:href="#DejaVuSans-4a" x="296.201172"/>
       <use xlink:href="#DejaVuSans-61" x="325.693359"/>
       <use xlink:href="#DejaVuSans-6e" x="386.972656"/>
       <use xlink:href="#DejaVuSans-2d" x="450.351562"/>
       <use xlink:href="#DejaVuSans-30" x="486.435547"/>
       <use xlink:href="#DejaVuSans-31" x="550.058594"/>
      </g>
     </g>
    </g>
    <g id="xtick_4">
     <g id="line2d_4">
      <g>
       <use xlink:href="#me313f12a1c" x="150.808208" y="182.359219" style="stroke: #000000; stroke-width: 0.8"/>
      </g>
     </g>
     <g id="text_4">
      <!-- 2021-Feb-01 -->
      <g transform="translate(95.127574 227.486534)rotate(-30)scale(0.1 -0.1)">
       <defs>
        <path id="DejaVuSans-46" d="M 628 4666 
L 3309 4666 
L 3309 4134 
L 1259 4134 
L 1259 2759 
L 3109 2759 
L 3109 2228 
L 1259 2228 
L 1259 0 
L 628 0 
L 628 4666 
z
" transform="scale(0.015625)"/>
        <path id="DejaVuSans-62" d="M 3116 1747 
Q 3116 2381 2855 2742 
Q 2594 3103 2138 3103 
Q 1681 3103 1420 2742 
Q 1159 2381 1159 1747 
Q 1159 1113 1420 752 
Q 1681 391 2138 391 
Q 2594 391 2855 752 
Q 3116 1113 3116 1747 
z
M 1159 2969 
Q 1341 3281 1617 3432 
Q 1894 3584 2278 3584 
Q 2916 3584 3314 3078 
Q 3713 2572 3713 1747 
Q 3713 922 3314 415 
Q 2916 -91 2278 -91 
Q 1894 -91 1617 61 
Q 1341 213 1159 525 
L 1159 0 
L 581 0 
L 581 4863 
L 1159 4863 
L 1159 2969 
z
" transform="scale(0.015625)"/>
       </defs>
       <use xlink:href="#DejaVuSans-32"/>
       <use xlink:href="#DejaVuSans-30" x="63.623047"/>
       <use xlink:href="#DejaVuSans-32" x="127.246094"/>
       <use xlink:href="#DejaVuSans-31" x="190.869141"/>
       <use xlink:href="#DejaVuSans-2d" x="254.492188"/>
       <use xlink:href="#DejaVuSans-46" x="290.576172"/>
       <use xlink:href="#DejaVuSans-65" x="342.595703"/>
       <use xlink:href="#DejaVuSans-62" x="404.119141"/>
       <use xlink:href="#DejaVuSans-2d" x="467.595703"/>
       <use xlink:href="#DejaVuSans-30" x="503.679688"/>
       <use xlink:href="#DejaVuSans-31" x="567.302734"/>
      </g>
     </g>
    </g>
    <g id="xtick_5">
     <g id="line2d_5">
      <g>
       <use xlink:href="#me313f12a1c" x="176.003129" y="182.359219" style="stroke: #000000; stroke-width: 0.8"/>
      </g>
     </g>
     <g id="text_5">
      <!-- 2021-Mar-01 -->
      <g transform="translate(119.866478 227.749815)rotate(-30)scale(0.1 -0.1)">
       <defs>
        <path id="DejaVuSans-4d" d="M 628 4666 
L 1569 4666 
L 2759 1491 
L 3956 4666 
L 4897 4666 
L 4897 0 
L 4281 0 
L 4281 4097 
L 3078 897 
L 2444 897 
L 1241 4097 
L 1241 0 
L 628 0 
L 628 4666 
z
" transform="scale(0.015625)"/>
        <path id="DejaVuSans-72" d="M 2631 2963 
Q 2534 3019 2420 3045 
Q 2306 3072 2169 3072 
Q 1681 3072 1420 2755 
Q 1159 2438 1159 1844 
L 1159 0 
L 581 0 
L 581 3500 
L 1159 3500 
L 1159 2956 
Q 1341 3275 1631 3429 
Q 1922 3584 2338 3584 
Q 2397 3584 2469 3576 
Q 2541 3569 2628 3553 
L 2631 2963 
z
" transform="scale(0.015625)"/>
       </defs>
       <use xlink:href="#DejaVuSans-32"/>
       <use xlink:href="#DejaVuSans-30" x="63.623047"/>
       <use xlink:href="#DejaVuSans-32" x="127.246094"/>
       <use xlink:href="#DejaVuSans-31" x="190.869141"/>
       <use xlink:href="#DejaVuSans-2d" x="254.492188"/>
       <use xlink:href="#DejaVuSans-4d" x="290.576172"/>
       <use xlink:href="#DejaVuSans-61" x="376.855469"/>
       <use xlink:href="#DejaVuSans-72" x="438.134766"/>
       <use xlink:href="#DejaVuSans-2d" x="472.873047"/>
       <use xlink:href="#DejaVuSans-30" x="508.957031"/>
       <use xlink:href="#DejaVuSans-31" x="572.580078"/>
      </g>
     </g>
    </g>
    <g id="xtick_6">
     <g id="line2d_6">
      <g>
       <use xlink:href="#me313f12a1c" x="203.897505" y="182.359219" style="stroke: #000000; stroke-width: 0.8"/>
      </g>
     </g>
     <g id="text_6">
      <!-- 2021-Apr-01 -->
      <g transform="translate(149.312934 226.853721)rotate(-30)scale(0.1 -0.1)">
       <defs>
        <path id="DejaVuSans-41" d="M 2188 4044 
L 1331 1722 
L 3047 1722 
L 2188 4044 
z
M 1831 4666 
L 2547 4666 
L 4325 0 
L 3669 0 
L 3244 1197 
L 1141 1197 
L 716 0 
L 50 0 
L 1831 4666 
z
" transform="scale(0.015625)"/>
        <path id="DejaVuSans-70" d="M 1159 525 
L 1159 -1331 
L 581 -1331 
L 581 3500 
L 1159 3500 
L 1159 2969 
Q 1341 3281 1617 3432 
Q 1894 3584 2278 3584 
Q 2916 3584 3314 3078 
Q 3713 2572 3713 1747 
Q 3713 922 3314 415 
Q 2916 -91 2278 -91 
Q 1894 -91 1617 61 
Q 1341 213 1159 525 
z
M 3116 1747 
Q 3116 2381 2855 2742 
Q 2594 3103 2138 3103 
Q 1681 3103 1420 2742 
Q 1159 2381 1159 1747 
Q 1159 1113 1420 752 
Q 1681 391 2138 391 
Q 2594 391 2855 752 
Q 3116 1113 3116 1747 
z
" transform="scale(0.015625)"/>
       </defs>
       <use xlink:href="#DejaVuSans-32"/>
       <use xlink:href="#DejaVuSans-30" x="63.623047"/>
       <use xlink:href="#DejaVuSans-32" x="127.246094"/>
       <use xlink:href="#DejaVuSans-31" x="190.869141"/>
       <use xlink:href="#DejaVuSans-2d" x="254.492188"/>
       <use xlink:href="#DejaVuSans-41" x="288.326172"/>
       <use xlink:href="#DejaVuSans-70" x="356.734375"/>
       <use xlink:href="#DejaVuSans-72" x="420.210938"/>
       <use xlink:href="#DejaVuSans-2d" x="454.949219"/>
       <use xlink:href="#DejaVuSans-30" x="491.033203"/>
       <use xlink:href="#DejaVuSans-31" x="554.65625"/>
      </g>
     </g>
    </g>
    <g id="xtick_7">
     <g id="line2d_7">
      <g>
       <use xlink:href="#me313f12a1c" x="230.892062" y="182.359219" style="stroke: #000000; stroke-width: 0.8"/>
      </g>
     </g>
     <g id="text_7">
      <!-- 2021-May-01 -->
      <g transform="translate(172.789264 228.884971)rotate(-30)scale(0.1 -0.1)">
       <defs>
        <path id="DejaVuSans-79" d="M 2059 -325 
Q 1816 -950 1584 -1140 
Q 1353 -1331 966 -1331 
L 506 -1331 
L 506 -850 
L 844 -850 
Q 1081 -850 1212 -737 
Q 1344 -625 1503 -206 
L 1606 56 
L 191 3500 
L 800 3500 
L 1894 763 
L 2988 3500 
L 3597 3500 
L 2059 -325 
z
" transform="scale(0.015625)"/>
       </defs>
       <use xlink:href="#DejaVuSans-32"/>
       <use xlink:href="#DejaVuSans-30" x="63.623047"/>
       <use xlink:href="#DejaVuSans-32" x="127.246094"/>
       <use xlink:href="#DejaVuSans-31" x="190.869141"/>
       <use xlink:href="#DejaVuSans-2d" x="254.492188"/>
       <use xlink:href="#DejaVuSans-4d" x="290.576172"/>
       <use xlink:href="#DejaVuSans-61" x="376.855469"/>
       <use xlink:href="#DejaVuSans-79" x="438.134766"/>
       <use xlink:href="#DejaVuSans-2d" x="495.564453"/>
       <use xlink:href="#DejaVuSans-30" x="531.648438"/>
       <use xlink:href="#DejaVuSans-31" x="595.271484"/>
      </g>
     </g>
    </g>
    <g id="xtick_8">
     <g id="line2d_8">
      <g>
       <use xlink:href="#me313f12a1c" x="258.786439" y="182.359219" style="stroke: #000000; stroke-width: 0.8"/>
      </g>
     </g>
     <g id="text_8">
      <!-- 2021-Jun-01 -->
      <g transform="translate(204.418374 226.728721)rotate(-30)scale(0.1 -0.1)">
       <defs>
        <path id="DejaVuSans-75" d="M 544 1381 
L 544 3500 
L 1119 3500 
L 1119 1403 
Q 1119 906 1312 657 
Q 1506 409 1894 409 
Q 2359 409 2629 706 
Q 2900 1003 2900 1516 
L 2900 3500 
L 3475 3500 
L 3475 0 
L 2900 0 
L 2900 538 
Q 2691 219 2414 64 
Q 2138 -91 1772 -91 
Q 1169 -91 856 284 
Q 544 659 544 1381 
z
M 1991 3584 
L 1991 3584 
z
" transform="scale(0.015625)"/>
       </defs>
       <use xlink:href="#DejaVuSans-32"/>
       <use xlink:href="#DejaVuSans-30" x="63.623047"/>
       <use xlink:href="#DejaVuSans-32" x="127.246094"/>
       <use xlink:href="#DejaVuSans-31" x="190.869141"/>
       <use xlink:href="#DejaVuSans-2d" x="254.492188"/>
       <use xlink:href="#DejaVuSans-4a" x="296.201172"/>
       <use xlink:href="#DejaVuSans-75" x="325.693359"/>
       <use xlink:href="#DejaVuSans-6e" x="389.072266"/>
       <use xlink:href="#DejaVuSans-2d" x="452.451172"/>
       <use xlink:href="#DejaVuSans-30" x="488.535156"/>
       <use xlink:href="#DejaVuSans-31" x="552.158203"/>
      </g>
     </g>
    </g>
    <g id="xtick_9">
     <g id="line2d_9">
      <g>
       <use xlink:href="#me313f12a1c" x="285.780996" y="182.359219" style="stroke: #000000; stroke-width: 0.8"/>
      </g>
     </g>
     <g id="text_9">
      <!-- 2021-Jul-01 -->
      <g transform="translate(234.495441 224.949034)rotate(-30)scale(0.1 -0.1)">
       <defs>
        <path id="DejaVuSans-6c" d="M 603 4863 
L 1178 4863 
L 1178 0 
L 603 0 
L 603 4863 
z
" transform="scale(0.015625)"/>
       </defs>
       <use xlink:href="#DejaVuSans-32"/>
       <use xlink:href="#DejaVuSans-30" x="63.623047"/>
       <use xlink:href="#DejaVuSans-32" x="127.246094"/>
       <use xlink:href="#DejaVuSans-31" x="190.869141"/>
       <use xlink:href="#DejaVuSans-2d" x="254.492188"/>
       <use xlink:href="#DejaVuSans-4a" x="296.201172"/>
       <use xlink:href="#DejaVuSans-75" x="325.693359"/>
       <use xlink:href="#DejaVuSans-6c" x="389.072266"/>
       <use xlink:href="#DejaVuSans-2d" x="416.855469"/>
       <use xlink:href="#DejaVuSans-30" x="452.939453"/>
       <use xlink:href="#DejaVuSans-31" x="516.5625"/>
      </g>
     </g>
    </g>
    <g id="xtick_10">
     <g id="line2d_10">
      <g>
       <use xlink:href="#me313f12a1c" x="313.675372" y="182.359219" style="stroke: #000000; stroke-width: 0.8"/>
      </g>
     </g>
     <g id="text_10">
      <!-- 2021-Aug-01 -->
      <g transform="translate(256.610451 228.285752)rotate(-30)scale(0.1 -0.1)">
       <defs>
        <path id="DejaVuSans-67" d="M 2906 1791 
Q 2906 2416 2648 2759 
Q 2391 3103 1925 3103 
Q 1463 3103 1205 2759 
Q 947 2416 947 1791 
Q 947 1169 1205 825 
Q 1463 481 1925 481 
Q 2391 481 2648 825 
Q 2906 1169 2906 1791 
z
M 3481 434 
Q 3481 -459 3084 -895 
Q 2688 -1331 1869 -1331 
Q 1566 -1331 1297 -1286 
Q 1028 -1241 775 -1147 
L 775 -588 
Q 1028 -725 1275 -790 
Q 1522 -856 1778 -856 
Q 2344 -856 2625 -561 
Q 2906 -266 2906 331 
L 2906 616 
Q 2728 306 2450 153 
Q 2172 0 1784 0 
Q 1141 0 747 490 
Q 353 981 353 1791 
Q 353 2603 747 3093 
Q 1141 3584 1784 3584 
Q 2172 3584 2450 3431 
Q 2728 3278 2906 2969 
L 2906 3500 
L 3481 3500 
L 3481 434 
z
" transform="scale(0.015625)"/>
       </defs>
       <use xlink:href="#DejaVuSans-32"/>
       <use xlink:href="#DejaVuSans-30" x="63.623047"/>
       <use xlink:href="#DejaVuSans-32" x="127.246094"/>
       <use xlink:href="#DejaVuSans-31" x="190.869141"/>
       <use xlink:href="#DejaVuSans-2d" x="254.492188"/>
       <use xlink:href="#DejaVuSans-41" x="288.326172"/>
       <use xlink:href="#DejaVuSans-75" x="356.734375"/>
       <use xlink:href="#DejaVuSans-67" x="420.113281"/>
       <use xlink:href="#DejaVuSans-2d" x="483.589844"/>
       <use xlink:href="#DejaVuSans-30" x="519.673828"/>
       <use xlink:href="#DejaVuSans-31" x="583.296875"/>
      </g>
     </g>
    </g>
    <g id="xtick_11">
     <g id="line2d_11">
      <g>
       <use xlink:href="#me313f12a1c" x="341.569748" y="182.359219" style="stroke: #000000; stroke-width: 0.8"/>
      </g>
     </g>
     <g id="text_11">
      <!-- 2021-Sep-01 -->
      <g transform="translate(284.895891 228.059971)rotate(-30)scale(0.1 -0.1)">
       <defs>
        <path id="DejaVuSans-53" d="M 3425 4513 
L 3425 3897 
Q 3066 4069 2747 4153 
Q 2428 4238 2131 4238 
Q 1616 4238 1336 4038 
Q 1056 3838 1056 3469 
Q 1056 3159 1242 3001 
Q 1428 2844 1947 2747 
L 2328 2669 
Q 3034 2534 3370 2195 
Q 3706 1856 3706 1288 
Q 3706 609 3251 259 
Q 2797 -91 1919 -91 
Q 1588 -91 1214 -16 
Q 841 59 441 206 
L 441 856 
Q 825 641 1194 531 
Q 1563 422 1919 422 
Q 2459 422 2753 634 
Q 3047 847 3047 1241 
Q 3047 1584 2836 1778 
Q 2625 1972 2144 2069 
L 1759 2144 
Q 1053 2284 737 2584 
Q 422 2884 422 3419 
Q 422 4038 858 4394 
Q 1294 4750 2059 4750 
Q 2388 4750 2728 4690 
Q 3069 4631 3425 4513 
z
" transform="scale(0.015625)"/>
       </defs>
       <use xlink:href="#DejaVuSans-32"/>
       <use xlink:href="#DejaVuSans-30" x="63.623047"/>
       <use xlink:href="#DejaVuSans-32" x="127.246094"/>
       <use xlink:href="#DejaVuSans-31" x="190.869141"/>
       <use xlink:href="#DejaVuSans-2d" x="254.492188"/>
       <use xlink:href="#DejaVuSans-53" x="290.576172"/>
       <use xlink:href="#DejaVuSans-65" x="354.052734"/>
       <use xlink:href="#DejaVuSans-70" x="415.576172"/>
       <use xlink:href="#DejaVuSans-2d" x="479.052734"/>
       <use xlink:href="#DejaVuSans-30" x="515.136719"/>
       <use xlink:href="#DejaVuSans-31" x="578.759766"/>
      </g>
     </g>
    </g>
    <g id="xtick_12">
     <g id="line2d_12">
      <g>
       <use xlink:href="#me313f12a1c" x="368.564306" y="182.359219" style="stroke: #000000; stroke-width: 0.8"/>
      </g>
     </g>
     <g id="text_12">
      <!-- 2021-Oct-01 -->
      <g transform="translate(313.00275 227.417784)rotate(-30)scale(0.1 -0.1)">
       <defs>
        <path id="DejaVuSans-4f" d="M 2522 4238 
Q 1834 4238 1429 3725 
Q 1025 3213 1025 2328 
Q 1025 1447 1429 934 
Q 1834 422 2522 422 
Q 3209 422 3611 934 
Q 4013 1447 4013 2328 
Q 4013 3213 3611 3725 
Q 3209 4238 2522 4238 
z
M 2522 4750 
Q 3503 4750 4090 4092 
Q 4678 3434 4678 2328 
Q 4678 1225 4090 567 
Q 3503 -91 2522 -91 
Q 1538 -91 948 565 
Q 359 1222 359 2328 
Q 359 3434 948 4092 
Q 1538 4750 2522 4750 
z
" transform="scale(0.015625)"/>
        <path id="DejaVuSans-74" d="M 1172 4494 
L 1172 3500 
L 2356 3500 
L 2356 3053 
L 1172 3053 
L 1172 1153 
Q 1172 725 1289 603 
Q 1406 481 1766 481 
L 2356 481 
L 2356 0 
L 1766 0 
Q 1100 0 847 248 
Q 594 497 594 1153 
L 594 3053 
L 172 3053 
L 172 3500 
L 594 3500 
L 594 4494 
L 1172 4494 
z
" transform="scale(0.015625)"/>
       </defs>
       <use xlink:href="#DejaVuSans-32"/>
       <use xlink:href="#DejaVuSans-30" x="63.623047"/>
       <use xlink:href="#DejaVuSans-32" x="127.246094"/>
       <use xlink:href="#DejaVuSans-31" x="190.869141"/>
       <use xlink:href="#DejaVuSans-2d" x="254.492188"/>
       <use xlink:href="#DejaVuSans-4f" x="293.326172"/>
       <use xlink:href="#DejaVuSans-63" x="372.037109"/>
       <use xlink:href="#DejaVuSans-74" x="427.017578"/>
       <use xlink:href="#DejaVuSans-2d" x="466.226562"/>
       <use xlink:href="#DejaVuSans-30" x="502.310547"/>
       <use xlink:href="#DejaVuSans-31" x="565.933594"/>
      </g>
     </g>
    </g>
    <g id="xtick_13">
     <g id="line2d_13">
      <g>
       <use xlink:href="#me313f12a1c" x="396.458682" y="182.359219" style="stroke: #000000; stroke-width: 0.8"/>
      </g>
     </g>
     <g id="text_13">
      <!-- 2021-Nov-01 -->
      <g transform="translate(339.433002 228.263096)rotate(-30)scale(0.1 -0.1)">
       <use xlink:href="#DejaVuSans-32"/>
       <use xlink:href="#DejaVuSans-30" x="63.623047"/>
       <use xlink:href="#DejaVuSans-32" x="127.246094"/>
       <use xlink:href="#DejaVuSans-31" x="190.869141"/>
       <use xlink:href="#DejaVuSans-2d" x="254.492188"/>
       <use xlink:href="#DejaVuSans-4e" x="290.576172"/>
       <use xlink:href="#DejaVuSans-6f" x="365.380859"/>
       <use xlink:href="#DejaVuSans-76" x="426.5625"/>
       <use xlink:href="#DejaVuSans-2d" x="483.117188"/>
       <use xlink:href="#DejaVuSans-30" x="519.201172"/>
       <use xlink:href="#DejaVuSans-31" x="582.824219"/>
      </g>
     </g>
    </g>
    <g id="xtick_14">
     <g id="line2d_14">
      <g>
       <use xlink:href="#me313f12a1c" x="423.45324" y="182.359219" style="stroke: #000000; stroke-width: 0.8"/>
      </g>
     </g>
     <g id="text_14">
      <!-- 2021-Dec-01 -->
      <g transform="translate(366.345017 228.310752)rotate(-30)scale(0.1 -0.1)">
       <use xlink:href="#DejaVuSans-32"/>
       <use xlink:href="#DejaVuSans-30" x="63.623047"/>
       <use xlink:href="#DejaVuSans-32" x="127.246094"/>
       <use xlink:href="#DejaVuSans-31" x="190.869141"/>
       <use xlink:href="#DejaVuSans-2d" x="254.492188"/>
       <use xlink:href="#DejaVuSans-44" x="290.576172"/>
       <use xlink:href="#DejaVuSans-65" x="367.578125"/>
       <use xlink:href="#DejaVuSans-63" x="429.101562"/>
       <use xlink:href="#DejaVuSans-2d" x="484.082031"/>
       <use xlink:href="#DejaVuSans-30" x="520.166016"/>
       <use xlink:href="#DejaVuSans-31" x="583.789062"/>
      </g>
     </g>
    </g>
    <g id="xtick_15">
     <g id="line2d_15">
      <g>
       <use xlink:href="#me313f12a1c" x="451.347616" y="182.359219" style="stroke: #000000; stroke-width: 0.8"/>
      </g>
     </g>
     <g id="text_15">
      <!-- 2022-Jan-01 -->
      <g transform="translate(397.160875 226.624034)rotate(-30)scale(0.1 -0.1)">
       <use xlink:href="#DejaVuSans-32"/>
       <use xlink:href="#DejaVuSans-30" x="63.623047"/>
       <use xlink:href="#DejaVuSans-32" x="127.246094"/>
       <use xlink:href="#DejaVuSans-32" x="190.869141"/>
       <use xlink:href="#DejaVuSans-2d" x="254.492188"/>
       <use xlink:href="#DejaVuSans-4a" x="296.201172"/>
       <use xlink:href="#DejaVuSans-61" x="325.693359"/>
       <use xlink:href="#DejaVuSans-6e" x="386.972656"/>
       <use xlink:href="#DejaVuSans-2d" x="450.351562"/>
       <use xlink:href="#DejaVuSans-30" x="486.435547"/>
       <use xlink:href="#DejaVuSans-31" x="550.058594"/>
      </g>
     </g>
    </g>
    <g id="xtick_16">
     <g id="line2d_16">
      <g>
       <use xlink:href="#me313f12a1c" x="479.241992" y="182.359219" style="stroke: #000000; stroke-width: 0.8"/>
      </g>
     </g>
     <g id="text_16">
      <!-- 2022-Feb-01 -->
      <g transform="translate(423.561358 227.486534)rotate(-30)scale(0.1 -0.1)">
       <use xlink:href="#DejaVuSans-32"/>
       <use xlink:href="#DejaVuSans-30" x="63.623047"/>
       <use xlink:href="#DejaVuSans-32" x="127.246094"/>
       <use xlink:href="#DejaVuSans-32" x="190.869141"/>
       <use xlink:href="#DejaVuSans-2d" x="254.492188"/>
       <use xlink:href="#DejaVuSans-46" x="290.576172"/>
       <use xlink:href="#DejaVuSans-65" x="342.595703"/>
       <use xlink:href="#DejaVuSans-62" x="404.119141"/>
       <use xlink:href="#DejaVuSans-2d" x="467.595703"/>
       <use xlink:href="#DejaVuSans-30" x="503.679688"/>
       <use xlink:href="#DejaVuSans-31" x="567.302734"/>
      </g>
     </g>
    </g>
   </g>
   <g id="matplotlib.axis_2">
    <g id="ytick_1">
     <g id="line2d_17">
      <path d="M 53.132901 182.359219 
L 499.532901 182.359219 
" clip-path="url(#pa444f52d75)" style="fill: none; stroke: #b0b0b0; stroke-width: 0.8; stroke-linecap: square"/>
     </g>
     <g id="line2d_18">
      <defs>
       <path id="m1adbd70511" d="M 0 0 
L -3.5 0 
" style="stroke: #000000; stroke-width: 0.8"/>
      </defs>
      <g>
       <use xlink:href="#m1adbd70511" x="53.132901" y="182.359219" style="stroke: #000000; stroke-width: 0.8"/>
      </g>
     </g>
     <g id="text_17">
      <!-- 0 -->
      <g transform="translate(39.770401 186.158437)scale(0.1 -0.1)">
       <use xlink:href="#DejaVuSans-30"/>
      </g>
     </g>
    </g>
    <g id="ytick_2">
     <g id="line2d_19">
      <path d="M 53.132901 165.223219 
L 499.532901 165.223219 
" clip-path="url(#pa444f52d75)" style="fill: none; stroke: #b0b0b0; stroke-width: 0.8; stroke-linecap: square"/>
     </g>
     <g id="line2d_20">
      <g>
       <use xlink:href="#m1adbd70511" x="53.132901" y="165.223219" style="stroke: #000000; stroke-width: 0.8"/>
      </g>
     </g>
     <g id="text_18">
      <!-- 5 -->
      <g transform="translate(39.770401 169.022437)scale(0.1 -0.1)">
       <defs>
        <path id="DejaVuSans-35" d="M 691 4666 
L 3169 4666 
L 3169 4134 
L 1269 4134 
L 1269 2991 
Q 1406 3038 1543 3061 
Q 1681 3084 1819 3084 
Q 2600 3084 3056 2656 
Q 3513 2228 3513 1497 
Q 3513 744 3044 326 
Q 2575 -91 1722 -91 
Q 1428 -91 1123 -41 
Q 819 9 494 109 
L 494 744 
Q 775 591 1075 516 
Q 1375 441 1709 441 
Q 2250 441 2565 725 
Q 2881 1009 2881 1497 
Q 2881 1984 2565 2268 
Q 2250 2553 1709 2553 
Q 1456 2553 1204 2497 
Q 953 2441 691 2322 
L 691 4666 
z
" transform="scale(0.015625)"/>
       </defs>
       <use xlink:href="#DejaVuSans-35"/>
      </g>
     </g>
    </g>
    <g id="ytick_3">
     <g id="line2d_21">
      <path d="M 53.132901 148.087219 
L 499.532901 148.087219 
" clip-path="url(#pa444f52d75)" style="fill: none; stroke: #b0b0b0; stroke-width: 0.8; stroke-linecap: square"/>
     </g>
     <g id="line2d_22">
      <g>
       <use xlink:href="#m1adbd70511" x="53.132901" y="148.087219" style="stroke: #000000; stroke-width: 0.8"/>
      </g>
     </g>
     <g id="text_19">
      <!-- 10 -->
      <g transform="translate(33.407901 151.886437)scale(0.1 -0.1)">
       <use xlink:href="#DejaVuSans-31"/>
       <use xlink:href="#DejaVuSans-30" x="63.623047"/>
      </g>
     </g>
    </g>
    <g id="ytick_4">
     <g id="line2d_23">
      <path d="M 53.132901 130.951219 
L 499.532901 130.951219 
" clip-path="url(#pa444f52d75)" style="fill: none; stroke: #b0b0b0; stroke-width: 0.8; stroke-linecap: square"/>
     </g>
     <g id="line2d_24">
      <g>
       <use xlink:href="#m1adbd70511" x="53.132901" y="130.951219" style="stroke: #000000; stroke-width: 0.8"/>
      </g>
     </g>
     <g id="text_20">
      <!-- 15 -->
      <g transform="translate(33.407901 134.750437)scale(0.1 -0.1)">
       <use xlink:href="#DejaVuSans-31"/>
       <use xlink:href="#DejaVuSans-35" x="63.623047"/>
      </g>
     </g>
    </g>
    <g id="ytick_5">
     <g id="line2d_25">
      <path d="M 53.132901 113.815219 
L 499.532901 113.815219 
" clip-path="url(#pa444f52d75)" style="fill: none; stroke: #b0b0b0; stroke-width: 0.8; stroke-linecap: square"/>
     </g>
     <g id="line2d_26">
      <g>
       <use xlink:href="#m1adbd70511" x="53.132901" y="113.815219" style="stroke: #000000; stroke-width: 0.8"/>
      </g>
     </g>
     <g id="text_21">
      <!-- 20 -->
      <g transform="translate(33.407901 117.614437)scale(0.1 -0.1)">
       <use xlink:href="#DejaVuSans-32"/>
       <use xlink:href="#DejaVuSans-30" x="63.623047"/>
      </g>
     </g>
    </g>
    <g id="ytick_6">
     <g id="line2d_27">
      <path d="M 53.132901 96.679219 
L 499.532901 96.679219 
" clip-path="url(#pa444f52d75)" style="fill: none; stroke: #b0b0b0; stroke-width: 0.8; stroke-linecap: square"/>
     </g>
     <g id="line2d_28">
      <g>
       <use xlink:href="#m1adbd70511" x="53.132901" y="96.679219" style="stroke: #000000; stroke-width: 0.8"/>
      </g>
     </g>
     <g id="text_22">
      <!-- 25 -->
      <g transform="translate(33.407901 100.478437)scale(0.1 -0.1)">
       <use xlink:href="#DejaVuSans-32"/>
       <use xlink:href="#DejaVuSans-35" x="63.623047"/>
      </g>
     </g>
    </g>
    <g id="ytick_7">
     <g id="line2d_29">
      <path d="M 53.132901 79.543219 
L 499.532901 79.543219 
" clip-path="url(#pa444f52d75)" style="fill: none; stroke: #b0b0b0; stroke-width: 0.8; stroke-linecap: square"/>
     </g>
     <g id="line2d_30">
      <g>
       <use xlink:href="#m1adbd70511" x="53.132901" y="79.543219" style="stroke: #000000; stroke-width: 0.8"/>
      </g>
     </g>
     <g id="text_23">
      <!-- 30 -->
      <g transform="translate(33.407901 83.342437)scale(0.1 -0.1)">
       <defs>
        <path id="DejaVuSans-33" d="M 2597 2516 
Q 3050 2419 3304 2112 
Q 3559 1806 3559 1356 
Q 3559 666 3084 287 
Q 2609 -91 1734 -91 
Q 1441 -91 1130 -33 
Q 819 25 488 141 
L 488 750 
Q 750 597 1062 519 
Q 1375 441 1716 441 
Q 2309 441 2620 675 
Q 2931 909 2931 1356 
Q 2931 1769 2642 2001 
Q 2353 2234 1838 2234 
L 1294 2234 
L 1294 2753 
L 1863 2753 
Q 2328 2753 2575 2939 
Q 2822 3125 2822 3475 
Q 2822 3834 2567 4026 
Q 2313 4219 1838 4219 
Q 1578 4219 1281 4162 
Q 984 4106 628 3988 
L 628 4550 
Q 988 4650 1302 4700 
Q 1616 4750 1894 4750 
Q 2613 4750 3031 4423 
Q 3450 4097 3450 3541 
Q 3450 3153 3228 2886 
Q 3006 2619 2597 2516 
z
" transform="scale(0.015625)"/>
       </defs>
       <use xlink:href="#DejaVuSans-33"/>
       <use xlink:href="#DejaVuSans-30" x="63.623047"/>
      </g>
     </g>
    </g>
    <g id="ytick_8">
     <g id="line2d_31">
      <path d="M 53.132901 62.407219 
L 499.532901 62.407219 
" clip-path="url(#pa444f52d75)" style="fill: none; stroke: #b0b0b0; stroke-width: 0.8; stroke-linecap: square"/>
     </g>
     <g id="line2d_32">
      <g>
       <use xlink:href="#m1adbd70511" x="53.132901" y="62.407219" style="stroke: #000000; stroke-width: 0.8"/>
      </g>
     </g>
     <g id="text_24">
      <!-- 35 -->
      <g transform="translate(33.407901 66.206437)scale(0.1 -0.1)">
       <use xlink:href="#DejaVuSans-33"/>
       <use xlink:href="#DejaVuSans-35" x="63.623047"/>
      </g>
     </g>
    </g>
    <g id="ytick_9">
     <g id="line2d_33">
      <path d="M 53.132901 45.271219 
L 499.532901 45.271219 
" clip-path="url(#pa444f52d75)" style="fill: none; stroke: #b0b0b0; stroke-width: 0.8; stroke-linecap: square"/>
     </g>
     <g id="line2d_34">
      <g>
       <use xlink:href="#m1adbd70511" x="53.132901" y="45.271219" style="stroke: #000000; stroke-width: 0.8"/>
      </g>
     </g>
     <g id="text_25">
      <!-- 40 -->
      <g transform="translate(33.407901 49.070437)scale(0.1 -0.1)">
       <defs>
        <path id="DejaVuSans-34" d="M 2419 4116 
L 825 1625 
L 2419 1625 
L 2419 4116 
z
M 2253 4666 
L 3047 4666 
L 3047 1625 
L 3713 1625 
L 3713 1100 
L 3047 1100 
L 3047 0 
L 2419 0 
L 2419 1100 
L 313 1100 
L 313 1709 
L 2253 4666 
z
" transform="scale(0.015625)"/>
       </defs>
       <use xlink:href="#DejaVuSans-34"/>
       <use xlink:href="#DejaVuSans-30" x="63.623047"/>
      </g>
     </g>
    </g>
    <g id="ytick_10">
     <g id="line2d_35">
      <path d="M 53.132901 28.135219 
L 499.532901 28.135219 
" clip-path="url(#pa444f52d75)" style="fill: none; stroke: #b0b0b0; stroke-width: 0.8; stroke-linecap: square"/>
     </g>
     <g id="line2d_36">
      <g>
       <use xlink:href="#m1adbd70511" x="53.132901" y="28.135219" style="stroke: #000000; stroke-width: 0.8"/>
      </g>
     </g>
     <g id="text_26">
      <!-- 45 -->
      <g transform="translate(33.407901 31.934438)scale(0.1 -0.1)">
       <use xlink:href="#DejaVuSans-34"/>
       <use xlink:href="#DejaVuSans-35" x="63.623047"/>
      </g>
     </g>
    </g>
    <g id="ytick_11">
     <g id="line2d_37">
      <path d="M 53.132901 10.999219 
L 499.532901 10.999219 
" clip-path="url(#pa444f52d75)" style="fill: none; stroke: #b0b0b0; stroke-width: 0.8; stroke-linecap: square"/>
     </g>
     <g id="line2d_38">
      <g>
       <use xlink:href="#m1adbd70511" x="53.132901" y="10.999219" style="stroke: #000000; stroke-width: 0.8"/>
      </g>
     </g>
     <g id="text_27">
      <!-- 50 -->
      <g transform="translate(33.407901 14.798438)scale(0.1 -0.1)">
       <use xlink:href="#DejaVuSans-35"/>
       <use xlink:href="#DejaVuSans-30" x="63.623047"/>
      </g>
     </g>
    </g>
    <g id="text_28">
     <!-- Percentage Of Domains Using CSP -->
     <g transform="translate(27.328213 182.537031)rotate(-90)scale(0.1 -0.1)">
      <defs>
       <path id="DejaVuSans-50" d="M 1259 4147 
L 1259 2394 
L 2053 2394 
Q 2494 2394 2734 2622 
Q 2975 2850 2975 3272 
Q 2975 3691 2734 3919 
Q 2494 4147 2053 4147 
L 1259 4147 
z
M 628 4666 
L 2053 4666 
Q 2838 4666 3239 4311 
Q 3641 3956 3641 3272 
Q 3641 2581 3239 2228 
Q 2838 1875 2053 1875 
L 1259 1875 
L 1259 0 
L 628 0 
L 628 4666 
z
" transform="scale(0.015625)"/>
       <path id="DejaVuSans-20" transform="scale(0.015625)"/>
       <path id="DejaVuSans-66" d="M 2375 4863 
L 2375 4384 
L 1825 4384 
Q 1516 4384 1395 4259 
Q 1275 4134 1275 3809 
L 1275 3500 
L 2222 3500 
L 2222 3053 
L 1275 3053 
L 1275 0 
L 697 0 
L 697 3053 
L 147 3053 
L 147 3500 
L 697 3500 
L 697 3744 
Q 697 4328 969 4595 
Q 1241 4863 1831 4863 
L 2375 4863 
z
" transform="scale(0.015625)"/>
       <path id="DejaVuSans-6d" d="M 3328 2828 
Q 3544 3216 3844 3400 
Q 4144 3584 4550 3584 
Q 5097 3584 5394 3201 
Q 5691 2819 5691 2113 
L 5691 0 
L 5113 0 
L 5113 2094 
Q 5113 2597 4934 2840 
Q 4756 3084 4391 3084 
Q 3944 3084 3684 2787 
Q 3425 2491 3425 1978 
L 3425 0 
L 2847 0 
L 2847 2094 
Q 2847 2600 2669 2842 
Q 2491 3084 2119 3084 
Q 1678 3084 1418 2786 
Q 1159 2488 1159 1978 
L 1159 0 
L 581 0 
L 581 3500 
L 1159 3500 
L 1159 2956 
Q 1356 3278 1631 3431 
Q 1906 3584 2284 3584 
Q 2666 3584 2933 3390 
Q 3200 3197 3328 2828 
z
" transform="scale(0.015625)"/>
       <path id="DejaVuSans-69" d="M 603 3500 
L 1178 3500 
L 1178 0 
L 603 0 
L 603 3500 
z
M 603 4863 
L 1178 4863 
L 1178 4134 
L 603 4134 
L 603 4863 
z
" transform="scale(0.015625)"/>
       <path id="DejaVuSans-73" d="M 2834 3397 
L 2834 2853 
Q 2591 2978 2328 3040 
Q 2066 3103 1784 3103 
Q 1356 3103 1142 2972 
Q 928 2841 928 2578 
Q 928 2378 1081 2264 
Q 1234 2150 1697 2047 
L 1894 2003 
Q 2506 1872 2764 1633 
Q 3022 1394 3022 966 
Q 3022 478 2636 193 
Q 2250 -91 1575 -91 
Q 1294 -91 989 -36 
Q 684 19 347 128 
L 347 722 
Q 666 556 975 473 
Q 1284 391 1588 391 
Q 1994 391 2212 530 
Q 2431 669 2431 922 
Q 2431 1156 2273 1281 
Q 2116 1406 1581 1522 
L 1381 1569 
Q 847 1681 609 1914 
Q 372 2147 372 2553 
Q 372 3047 722 3315 
Q 1072 3584 1716 3584 
Q 2034 3584 2315 3537 
Q 2597 3491 2834 3397 
z
" transform="scale(0.015625)"/>
       <path id="DejaVuSans-55" d="M 556 4666 
L 1191 4666 
L 1191 1831 
Q 1191 1081 1462 751 
Q 1734 422 2344 422 
Q 2950 422 3222 751 
Q 3494 1081 3494 1831 
L 3494 4666 
L 4128 4666 
L 4128 1753 
Q 4128 841 3676 375 
Q 3225 -91 2344 -91 
Q 1459 -91 1007 375 
Q 556 841 556 1753 
L 556 4666 
z
" transform="scale(0.015625)"/>
       <path id="DejaVuSans-43" d="M 4122 4306 
L 4122 3641 
Q 3803 3938 3442 4084 
Q 3081 4231 2675 4231 
Q 1875 4231 1450 3742 
Q 1025 3253 1025 2328 
Q 1025 1406 1450 917 
Q 1875 428 2675 428 
Q 3081 428 3442 575 
Q 3803 722 4122 1019 
L 4122 359 
Q 3791 134 3420 21 
Q 3050 -91 2638 -91 
Q 1578 -91 968 557 
Q 359 1206 359 2328 
Q 359 3453 968 4101 
Q 1578 4750 2638 4750 
Q 3056 4750 3426 4639 
Q 3797 4528 4122 4306 
z
" transform="scale(0.015625)"/>
      </defs>
      <use xlink:href="#DejaVuSans-50"/>
      <use xlink:href="#DejaVuSans-65" x="56.677734"/>
      <use xlink:href="#DejaVuSans-72" x="118.201172"/>
      <use xlink:href="#DejaVuSans-63" x="157.064453"/>
      <use xlink:href="#DejaVuSans-65" x="212.044922"/>
      <use xlink:href="#DejaVuSans-6e" x="273.568359"/>
      <use xlink:href="#DejaVuSans-74" x="336.947266"/>
      <use xlink:href="#DejaVuSans-61" x="376.15625"/>
      <use xlink:href="#DejaVuSans-67" x="437.435547"/>
      <use xlink:href="#DejaVuSans-65" x="500.912109"/>
      <use xlink:href="#DejaVuSans-20" x="562.435547"/>
      <use xlink:href="#DejaVuSans-4f" x="594.222656"/>
      <use xlink:href="#DejaVuSans-66" x="672.933594"/>
      <use xlink:href="#DejaVuSans-20" x="708.138672"/>
      <use xlink:href="#DejaVuSans-44" x="739.925781"/>
      <use xlink:href="#DejaVuSans-6f" x="816.927734"/>
      <use xlink:href="#DejaVuSans-6d" x="878.109375"/>
      <use xlink:href="#DejaVuSans-61" x="975.521484"/>
      <use xlink:href="#DejaVuSans-69" x="1036.800781"/>
      <use xlink:href="#DejaVuSans-6e" x="1064.583984"/>
      <use xlink:href="#DejaVuSans-73" x="1127.962891"/>
      <use xlink:href="#DejaVuSans-20" x="1180.0625"/>
      <use xlink:href="#DejaVuSans-55" x="1211.849609"/>
      <use xlink:href="#DejaVuSans-73" x="1285.042969"/>
      <use xlink:href="#DejaVuSans-69" x="1337.142578"/>
      <use xlink:href="#DejaVuSans-6e" x="1364.925781"/>
      <use xlink:href="#DejaVuSans-67" x="1428.304688"/>
      <use xlink:href="#DejaVuSans-20" x="1491.78125"/>
      <use xlink:href="#DejaVuSans-43" x="1523.568359"/>
      <use xlink:href="#DejaVuSans-53" x="1593.392578"/>
      <use xlink:href="#DejaVuSans-50" x="1656.869141"/>
     </g>
    </g>
   </g>
   <g id="line2d_39">
    <path d="M 73.42381 65.834419 
L 74.323629 55.552819 
L 75.223447 89.824819 
L 76.123266 86.397619 
L 77.922903 65.834419 
L 78.822722 72.688819 
L 79.72254 69.261619 
L 80.622359 72.688819 
L 81.522177 79.543219 
L 82.421996 89.824819 
L 83.321814 82.970419 
L 84.221633 65.834419 
L 85.121452 69.261619 
L 86.02127 79.543219 
L 86.921089 82.970419 
L 89.620545 72.688819 
L 90.520363 76.116019 
L 91.420182 65.834419 
L 92.32 76.116019 
L 93.219819 79.543219 
L 94.119637 79.543219 
L 95.019456 82.970419 
L 95.919275 76.116019 
L 96.819093 76.116019 
L 97.718912 86.397619 
L 98.61873 89.824819 
L 99.518549 79.543219 
L 100.418368 72.688819 
L 101.318186 79.543219 
L 102.218005 65.834419 
L 103.117823 76.116019 
L 104.017642 79.543219 
L 104.917461 93.252019 
L 105.817279 76.116019 
L 106.717098 86.397619 
L 107.616916 82.970419 
L 108.516735 76.116019 
L 109.416553 72.688819 
L 110.316372 79.543219 
L 113.915646 79.543219 
L 115.715284 72.688819 
L 117.514921 79.543219 
L 118.414739 72.688819 
L 119.314558 69.261619 
L 120.214376 86.397619 
L 121.114195 69.261619 
L 122.913832 79.543219 
L 124.713469 76.116019 
L 125.613288 96.679219 
L 126.513107 82.970419 
L 127.412925 79.543219 
L 128.312744 69.261619 
L 129.212562 79.543219 
L 130.112381 82.970419 
L 131.912018 82.970419 
L 132.811837 79.543219 
L 135.511292 86.397619 
L 138.210748 76.116019 
L 139.110567 79.543219 
L 140.010385 89.824819 
L 140.910204 82.970419 
L 141.810022 89.824819 
L 142.709841 72.688819 
L 150.808208 96.679219 
L 151.708027 76.116019 
L 153.507664 72.688819 
L 154.407483 89.824819 
L 155.307301 76.116019 
L 156.20712 96.679219 
L 157.106938 79.543219 
L 158.006757 82.970419 
L 158.906576 93.252019 
L 159.806394 76.116019 
L 160.706213 93.252019 
L 161.606031 79.543219 
L 162.50585 82.970419 
L 163.405669 89.824819 
L 164.305487 86.397619 
L 165.205306 89.824819 
L 166.105124 82.970419 
L 167.004943 100.106419 
L 167.904761 93.252019 
L 168.80458 76.116019 
L 169.704399 79.543219 
L 170.604217 79.543219 
L 173.303673 89.824819 
L 174.203492 82.970419 
L 175.10331 96.679219 
L 176.003129 93.252019 
L 176.902947 93.252019 
L 177.802766 89.824819 
L 178.702584 96.679219 
L 179.602403 79.543219 
L 181.40204 79.543219 
L 182.301859 82.970419 
L 183.201677 72.688819 
L 185.001315 96.679219 
L 185.901133 82.970419 
L 186.800952 82.970419 
L 187.70077 86.397619 
L 188.600589 76.116019 
L 201.198049 76.116019 
L 202.097868 69.261619 
L 202.997686 76.116019 
L 203.897505 76.116019 
L 204.797323 86.397619 
L 205.697142 69.261619 
L 206.596961 65.834419 
L 207.496779 82.970419 
L 208.396598 72.688819 
L 209.296416 76.116019 
L 210.196235 72.688819 
L 211.096054 65.834419 
L 211.995872 79.543219 
L 214.695328 69.261619 
L 216.494965 69.261619 
L 217.394784 65.834419 
L 218.294602 79.543219 
L 219.194421 65.834419 
L 220.994058 58.980019 
L 221.893877 79.543219 
L 224.593332 72.688819 
L 225.493151 76.116019 
L 226.392969 72.688819 
L 227.292788 76.116019 
L 228.192607 69.261619 
L 232.6917 86.397619 
L 233.591518 65.834419 
L 234.491337 58.980019 
L 235.391155 76.116019 
L 236.290974 76.116019 
L 237.190792 69.261619 
L 238.090611 65.834419 
L 238.99043 79.543219 
L 239.890248 65.834419 
L 240.790067 69.261619 
L 241.689885 76.116019 
L 242.589704 69.261619 
L 243.489523 58.980019 
L 244.389341 76.116019 
L 245.28916 79.543219 
L 246.188978 72.688819 
L 247.088797 82.970419 
L 247.988616 65.834419 
L 248.888434 86.397619 
L 249.788253 69.261619 
L 250.688071 79.543219 
L 251.58789 69.261619 
L 252.487708 72.688819 
L 253.387527 62.407219 
L 254.287346 72.688819 
L 255.187164 58.980019 
L 256.086983 72.688819 
L 256.986801 62.407219 
L 257.88662 65.834419 
L 258.786439 86.397619 
L 259.686257 76.116019 
L 261.485894 82.970419 
L 262.385713 69.261619 
L 263.285531 79.543219 
L 264.18535 62.407219 
L 265.085169 86.397619 
L 265.984987 82.970419 
L 266.884806 76.116019 
L 267.784624 65.834419 
L 268.684443 72.688819 
L 269.584262 65.834419 
L 270.48408 76.116019 
L 271.383899 93.252019 
L 272.283717 76.116019 
L 273.183536 65.834419 
L 274.083354 58.980019 
L 274.983173 69.261619 
L 275.882992 86.397619 
L 276.78281 62.407219 
L 277.682629 62.407219 
L 279.482266 55.552819 
L 282.181722 58.980019 
L 283.981359 76.116019 
L 287.580633 62.407219 
L 288.480452 69.261619 
L 313.675372 62.407219 
L 314.575191 72.688819 
L 315.475009 58.980019 
L 316.374828 69.261619 
L 317.274647 58.980019 
L 318.174465 65.834419 
L 319.074284 69.261619 
L 319.974102 52.125619 
L 320.873921 69.261619 
L 321.773739 62.407219 
L 322.673558 76.116019 
L 323.573377 65.834419 
L 324.473195 72.688819 
L 325.373014 62.407219 
L 326.272832 76.116019 
L 327.172651 62.407219 
L 328.07247 79.543219 
L 328.972288 69.261619 
L 329.872107 65.834419 
L 346.068841 45.271219 
L 346.96866 72.688819 
L 348.768297 69.261619 
L 349.668116 62.407219 
L 350.567934 58.980019 
L 351.467753 76.116019 
L 352.367571 48.698419 
L 353.26739 62.407219 
L 354.167209 65.834419 
L 355.067027 48.698419 
L 355.966846 76.116019 
L 356.866664 79.543219 
L 357.766483 69.261619 
L 359.56612 82.970419 
L 360.465939 79.543219 
L 361.365757 79.543219 
L 362.265576 62.407219 
L 364.965032 58.980019 
L 365.86485 55.552819 
L 366.764669 72.688819 
L 367.664487 76.116019 
L 368.564306 86.397619 
L 369.464124 52.125619 
L 371.263762 72.688819 
L 372.16358 62.407219 
L 373.063399 69.261619 
L 373.963217 52.125619 
L 374.863036 52.125619 
L 375.762855 72.688819 
L 376.662673 72.688819 
L 377.562492 62.407219 
L 378.46231 65.834419 
L 379.362129 82.970419 
L 380.261948 48.698419 
L 381.161766 69.261619 
L 382.961403 69.261619 
L 383.861222 65.834419 
L 384.76104 76.116019 
L 385.660859 69.261619 
L 386.560678 76.116019 
L 387.460496 58.980019 
L 388.360315 55.552819 
L 389.260133 72.688819 
L 390.159952 79.543219 
L 391.059771 72.688819 
L 391.959589 62.407219 
L 392.859408 69.261619 
L 393.759226 65.834419 
L 395.558863 52.125619 
L 396.458682 65.834419 
L 397.358501 72.688819 
L 398.258319 89.824819 
L 399.158138 58.980019 
L 400.057956 72.688819 
L 400.957775 65.834419 
L 401.857594 62.407219 
L 402.757412 62.407219 
L 403.657231 65.834419 
L 404.557049 76.116019 
L 407.256505 69.261619 
L 408.156324 58.980019 
L 409.056142 65.834419 
L 409.955961 79.543219 
L 410.855779 58.980019 
L 411.755598 58.980019 
L 412.655417 72.688819 
L 413.555235 79.543219 
L 414.455054 76.116019 
L 415.354872 79.543219 
L 416.254691 65.834419 
L 417.154509 76.116019 
L 418.054328 82.970419 
L 418.954147 65.834419 
L 419.853965 62.407219 
L 420.753784 72.688819 
L 421.653602 69.261619 
L 422.553421 58.980019 
L 423.45324 65.834419 
L 424.353058 62.407219 
L 426.152695 69.261619 
L 427.052514 55.552819 
L 427.952333 69.261619 
L 428.852151 69.261619 
L 429.75197 72.688819 
L 430.651788 69.261619 
L 431.551607 48.698419 
L 432.451425 58.980019 
L 433.351244 62.407219 
L 434.251063 55.552819 
L 435.150881 69.261619 
L 436.0507 55.552819 
L 436.950518 72.688819 
L 437.850337 55.552819 
L 440.549793 52.125619 
L 441.449611 72.688819 
L 443.249248 52.125619 
L 444.149067 65.834419 
L 445.048886 58.980019 
L 445.948704 86.397619 
L 446.848523 62.407219 
L 447.748341 62.407219 
L 448.64816 69.261619 
L 449.547979 65.834419 
L 452.247434 62.407219 
L 453.147253 62.407219 
L 454.047071 72.688819 
L 454.94689 65.834419 
L 455.846709 72.688819 
L 456.746527 58.980019 
L 457.646346 69.261619 
L 459.445983 82.970419 
L 460.345802 82.970419 
L 461.24562 72.688819 
L 462.145439 65.834419 
L 463.045257 55.552819 
L 463.945076 65.834419 
L 465.744713 65.834419 
L 466.644532 52.125619 
L 467.54435 65.834419 
L 468.444169 65.834419 
L 469.343987 69.261619 
L 470.243806 65.834419 
L 471.143625 69.261619 
L 472.043443 65.834419 
L 472.943262 65.834419 
L 473.84308 62.407219 
L 474.742899 69.261619 
L 475.642718 65.834419 
L 476.542536 65.834419 
L 477.442355 62.407219 
L 478.342173 69.261619 
L 479.241992 69.261619 
L 479.241992 69.261619 
" clip-path="url(#pa444f52d75)" style="fill: none; stroke: #1f77b4; stroke-width: 1.5; stroke-linecap: square"/>
   </g>
   <g id="line2d_40">
    <path d="M 73.42381 107.341619 
L 74.323629 105.818419 
L 75.223447 105.818419 
L 76.123266 106.580019 
L 77.023084 106.960819 
L 77.922903 108.484019 
L 78.822722 105.437619 
L 79.72254 107.341619 
L 80.622359 103.533619 
L 81.522177 107.722419 
L 82.421996 105.818419 
L 83.321814 108.864819 
L 84.221633 107.341619 
L 85.121452 107.341619 
L 86.02127 106.960819 
L 86.921089 106.960819 
L 89.620545 102.772019 
L 90.520363 103.533619 
L 91.420182 106.960819 
L 93.219819 103.152819 
L 95.019456 105.437619 
L 95.919275 104.295219 
L 96.819093 104.295219 
L 97.718912 102.772019 
L 98.61873 102.010419 
L 99.518549 104.295219 
L 100.418368 102.010419 
L 101.318186 103.533619 
L 102.218005 104.676019 
L 103.117823 103.533619 
L 104.017642 101.629619 
L 104.917461 104.676019 
L 105.817279 101.629619 
L 106.717098 103.533619 
L 108.516735 102.772019 
L 109.416553 104.295219 
L 110.316372 100.868019 
L 112.116009 103.533619 
L 113.915646 101.248819 
L 114.815465 101.629619 
L 115.715284 100.487219 
L 116.615102 103.152819 
L 117.514921 101.248819 
L 118.414739 101.629619 
L 119.314558 99.725619 
L 120.214376 105.437619 
L 121.114195 101.629619 
L 122.913832 101.629619 
L 124.713469 106.199219 
L 125.613288 101.629619 
L 126.513107 101.629619 
L 127.412925 102.391219 
L 128.312744 102.772019 
L 129.212562 105.056819 
L 130.112381 100.487219 
L 131.012199 102.772019 
L 131.912018 100.868019 
L 132.811837 99.344819 
L 135.511292 102.010419 
L 138.210748 101.248819 
L 140.910204 100.106419 
L 141.810022 101.629619 
L 142.709841 102.010419 
L 150.808208 100.868019 
L 151.708027 103.914419 
L 153.507664 98.964019 
L 154.407483 102.391219 
L 155.307301 102.391219 
L 156.20712 100.868019 
L 157.106938 104.295219 
L 158.006757 102.772019 
L 158.906576 98.583219 
L 159.806394 102.010419 
L 160.706213 101.629619 
L 161.606031 100.106419 
L 162.50585 100.106419 
L 163.405669 96.679219 
L 164.305487 95.917619 
L 165.205306 97.440819 
L 166.105124 96.298419 
L 167.004943 97.440819 
L 167.904761 100.868019 
L 168.80458 98.964019 
L 169.704399 97.821619 
L 170.604217 98.583219 
L 171.504036 102.391219 
L 172.403854 103.152819 
L 173.303673 101.248819 
L 174.203492 102.010419 
L 175.10331 101.629619 
L 176.003129 97.440819 
L 176.902947 97.060019 
L 177.802766 100.106419 
L 178.702584 101.248819 
L 180.502222 104.295219 
L 181.40204 102.010419 
L 182.301859 102.010419 
L 183.201677 100.487219 
L 185.001315 102.010419 
L 185.901133 100.868019 
L 186.800952 101.248819 
L 187.70077 104.295219 
L 188.600589 100.868019 
L 200.298231 103.914419 
L 201.198049 102.010419 
L 202.097868 104.295219 
L 202.997686 103.533619 
L 203.897505 103.533619 
L 204.797323 100.487219 
L 205.697142 105.437619 
L 206.596961 100.487219 
L 207.496779 102.772019 
L 208.396598 100.868019 
L 209.296416 105.056819 
L 210.196235 100.106419 
L 211.096054 100.868019 
L 211.995872 102.772019 
L 214.695328 105.056819 
L 215.595146 103.533619 
L 216.494965 100.868019 
L 217.394784 103.914419 
L 218.294602 102.010419 
L 220.094239 101.248819 
L 220.994058 100.487219 
L 221.893877 104.295219 
L 224.593332 103.152819 
L 225.493151 103.914419 
L 226.392969 101.629619 
L 227.292788 102.010419 
L 229.092425 104.295219 
L 232.6917 100.487219 
L 233.591518 103.152819 
L 234.491337 102.010419 
L 235.391155 101.629619 
L 236.290974 100.868019 
L 237.190792 104.295219 
L 238.090611 103.914419 
L 238.99043 99.725619 
L 239.890248 102.772019 
L 240.790067 102.772019 
L 241.689885 103.914419 
L 242.589704 101.629619 
L 243.489523 100.106419 
L 244.389341 102.772019 
L 245.28916 99.725619 
L 246.188978 100.868019 
L 247.088797 99.344819 
L 247.988616 102.010419 
L 248.888434 100.868019 
L 249.788253 102.772019 
L 250.688071 103.914419 
L 251.58789 101.248819 
L 253.387527 102.010419 
L 254.287346 103.533619 
L 255.187164 96.679219 
L 256.086983 101.629619 
L 256.986801 102.010419 
L 258.786439 101.248819 
L 259.686257 103.152819 
L 260.586076 102.010419 
L 261.485894 100.106419 
L 262.385713 103.914419 
L 263.285531 100.868019 
L 264.18535 102.772019 
L 265.085169 100.487219 
L 265.984987 97.440819 
L 266.884806 102.391219 
L 267.784624 98.583219 
L 268.684443 102.010419 
L 269.584262 100.868019 
L 270.48408 98.964019 
L 271.383899 99.725619 
L 272.283717 101.248819 
L 273.183536 100.868019 
L 274.083354 99.344819 
L 274.983173 102.391219 
L 275.882992 101.629619 
L 276.78281 101.629619 
L 277.682629 102.391219 
L 279.482266 100.868019 
L 282.181722 102.010419 
L 283.981359 97.821619 
L 287.580633 102.391219 
L 288.480452 97.821619 
L 313.675372 100.106419 
L 314.575191 97.440819 
L 315.475009 100.487219 
L 316.374828 106.199219 
L 317.274647 101.629619 
L 318.174465 101.248819 
L 319.074284 100.106419 
L 319.974102 100.868019 
L 320.873921 99.725619 
L 321.773739 99.725619 
L 322.673558 101.248819 
L 323.573377 98.202419 
L 324.473195 99.344819 
L 325.373014 98.202419 
L 326.272832 99.344819 
L 327.172651 97.060019 
L 328.07247 98.964019 
L 328.972288 96.298419 
L 329.872107 102.010419 
L 346.068841 100.106419 
L 346.96866 100.487219 
L 348.768297 97.060019 
L 349.668116 98.202419 
L 350.567934 98.202419 
L 351.467753 95.917619 
L 352.367571 98.583219 
L 353.26739 98.202419 
L 354.167209 97.060019 
L 355.067027 98.202419 
L 355.966846 96.298419 
L 356.866664 96.298419 
L 357.766483 99.344819 
L 358.666301 100.106419 
L 359.56612 100.487219 
L 360.465939 98.583219 
L 361.365757 99.344819 
L 362.265576 95.536819 
L 365.86485 95.536819 
L 366.764669 97.440819 
L 367.664487 98.202419 
L 368.564306 97.440819 
L 369.464124 97.060019 
L 370.363943 97.440819 
L 371.263762 98.964019 
L 372.16358 100.106419 
L 373.063399 97.821619 
L 373.963217 98.964019 
L 374.863036 98.202419 
L 375.762855 95.536819 
L 376.662673 97.440819 
L 377.562492 98.583219 
L 378.46231 98.202419 
L 379.362129 98.583219 
L 380.261948 95.917619 
L 382.061585 96.679219 
L 382.961403 98.202419 
L 383.861222 97.821619 
L 384.76104 95.917619 
L 385.660859 98.583219 
L 386.560678 96.298419 
L 387.460496 97.440819 
L 388.360315 98.964019 
L 389.260133 97.440819 
L 390.159952 97.440819 
L 391.059771 98.583219 
L 391.959589 98.583219 
L 392.859408 99.725619 
L 393.759226 98.964019 
L 394.659045 98.583219 
L 395.558863 99.725619 
L 396.458682 98.202419 
L 397.358501 96.298419 
L 398.258319 97.821619 
L 399.158138 97.060019 
L 400.057956 95.156019 
L 400.957775 98.583219 
L 401.857594 98.583219 
L 402.757412 98.202419 
L 403.657231 96.679219 
L 404.557049 96.298419 
L 407.256505 94.775219 
L 408.156324 94.013619 
L 409.056142 94.394419 
L 409.955961 97.060019 
L 410.855779 98.964019 
L 411.755598 97.060019 
L 413.555235 97.060019 
L 414.455054 94.013619 
L 415.354872 94.775219 
L 416.254691 94.775219 
L 417.154509 90.967219 
L 418.054328 94.775219 
L 418.954147 91.728819 
L 419.853965 92.109619 
L 420.753784 95.917619 
L 421.653602 95.156019 
L 422.553421 95.156019 
L 423.45324 94.394419 
L 424.353058 96.298419 
L 426.152695 95.917619 
L 427.052514 95.156019 
L 427.952333 95.536819 
L 428.852151 97.440819 
L 429.75197 94.775219 
L 430.651788 94.394419 
L 431.551607 91.728819 
L 432.451425 94.394419 
L 433.351244 95.917619 
L 434.251063 95.917619 
L 435.150881 95.536819 
L 436.0507 94.013619 
L 436.950518 94.394419 
L 437.850337 96.679219 
L 440.549793 98.202419 
L 441.449611 96.298419 
L 442.34943 93.252019 
L 443.249248 95.917619 
L 444.149067 93.252019 
L 445.048886 88.682419 
L 445.948704 92.490419 
L 446.848523 93.632819 
L 447.748341 95.917619 
L 448.64816 93.252019 
L 449.547979 92.109619 
L 452.247434 95.917619 
L 453.147253 90.586419 
L 454.047071 92.490419 
L 454.94689 90.205619 
L 455.846709 90.205619 
L 456.746527 95.917619 
L 457.646346 92.871219 
L 458.546164 93.252019 
L 459.445983 93.252019 
L 460.345802 92.871219 
L 461.24562 94.394419 
L 462.145439 94.394419 
L 463.045257 93.252019 
L 463.945076 93.632819 
L 464.844894 92.109619 
L 465.744713 95.536819 
L 466.644532 94.013619 
L 467.54435 97.060019 
L 468.444169 93.632819 
L 469.343987 93.252019 
L 470.243806 98.964019 
L 471.143625 94.013619 
L 472.043443 95.536819 
L 472.943262 97.440819 
L 473.84308 95.536819 
L 475.642718 94.775219 
L 476.542536 92.871219 
L 477.442355 95.536819 
L 478.342173 94.013619 
L 479.241992 93.632819 
L 479.241992 93.632819 
" clip-path="url(#pa444f52d75)" style="fill: none; stroke: #ff7f0e; stroke-width: 1.5; stroke-linecap: square"/>
   </g>
   <g id="line2d_41">
    <path d="M 73.42381 134.454579 
L 74.323629 134.530739 
L 75.223447 133.731059 
L 76.123266 133.692979 
L 77.023084 134.035699 
L 78.822722 132.740979 
L 80.622359 133.197939 
L 81.522177 132.893299 
L 82.421996 133.350259 
L 83.321814 132.474419 
L 84.221633 132.474419 
L 85.121452 133.083699 
L 86.02127 132.284019 
L 86.921089 132.626739 
L 89.620545 132.855219 
L 90.520363 132.284019 
L 91.420182 132.474419 
L 93.219819 133.274099 
L 94.119637 133.045619 
L 95.019456 132.398259 
L 95.919275 132.893299 
L 98.61873 132.169779 
L 99.518549 132.360179 
L 100.418368 132.055539 
L 102.218005 132.360179 
L 103.117823 132.284019 
L 104.017642 132.626739 
L 104.917461 132.550579 
L 105.817279 132.664819 
L 106.717098 132.512499 
L 107.616916 132.169779 
L 108.516735 132.855219 
L 109.416553 132.474419 
L 110.316372 132.626739 
L 112.116009 132.512499 
L 113.015828 131.750899 
L 113.915646 132.169779 
L 115.715284 132.436339 
L 116.615102 131.674739 
L 117.514921 131.636659 
L 118.414739 132.169779 
L 120.214376 132.093619 
L 121.114195 132.398259 
L 122.913832 131.293939 
L 124.713469 132.093619 
L 125.613288 132.322099 
L 127.412925 131.674739 
L 128.312744 131.865139 
L 129.212562 131.941299 
L 130.112381 132.131699 
L 131.012199 132.702899 
L 131.912018 132.702899 
L 132.811837 132.169779 
L 135.511292 131.712819 
L 138.210748 131.941299 
L 139.110567 131.712819 
L 141.810022 131.484339 
L 142.709841 131.598579 
L 150.808208 130.951219 
L 151.708027 130.494259 
L 153.507664 130.189619 
L 155.307301 130.227699 
L 156.20712 130.570419 
L 157.106938 130.684659 
L 158.006757 129.656499 
L 158.906576 130.227699 
L 159.806394 130.189619 
L 160.706213 130.265779 
L 161.606031 130.075379 
L 163.405669 129.351859 
L 164.305487 130.227699 
L 167.004943 129.656499 
L 168.80458 129.808819 
L 170.604217 129.428019 
L 171.504036 129.923059 
L 172.403854 129.275699 
L 174.203492 129.542259 
L 175.10331 129.618419 
L 176.003129 130.037299 
L 178.702584 129.618419 
L 179.602403 129.580339 
L 180.502222 129.694579 
L 181.40204 129.923059 
L 182.301859 129.275699 
L 183.201677 129.275699 
L 185.001315 128.742579 
L 185.901133 129.123379 
L 186.800952 129.237619 
L 187.70077 128.856819 
L 188.600589 128.894899 
L 200.298231 128.285619 
L 201.198049 128.742579 
L 202.097868 128.095219 
L 202.997686 128.704499 
L 203.897505 128.209459 
L 204.797323 128.019059 
L 205.697142 127.676339 
L 206.596961 128.095219 
L 208.396598 128.590259 
L 209.296416 127.980979 
L 211.096054 127.638259 
L 211.995872 128.247539 
L 214.695328 127.562099 
L 215.595146 127.752499 
L 216.494965 127.371699 
L 217.394784 127.752499 
L 218.294602 127.409779 
L 219.194421 127.676339 
L 220.094239 127.638259 
L 221.893877 127.866739 
L 224.593332 128.019059 
L 226.392969 127.524019 
L 227.292788 127.980979 
L 228.192607 127.219379 
L 229.092425 126.724339 
L 232.6917 127.295539 
L 233.591518 126.533939 
L 235.391155 127.485939 
L 236.290974 126.724339 
L 237.190792 127.067059 
L 238.090611 126.914739 
L 238.99043 126.343539 
L 239.890248 126.686259 
L 240.790067 126.305459 
L 241.689885 126.533939 
L 243.489523 126.457779 
L 244.389341 126.419699 
L 245.28916 127.219379 
L 246.188978 126.648179 
L 247.088797 126.495859 
L 247.988616 126.533939 
L 248.888434 127.067059 
L 249.788253 126.762419 
L 250.688071 126.876659 
L 251.58789 126.724339 
L 252.487708 127.028979 
L 253.387527 126.952819 
L 254.287346 125.848499 
L 255.187164 126.076979 
L 256.086983 126.610099 
L 256.986801 126.724339 
L 257.88662 126.419699 
L 258.786439 125.924659 
L 259.686257 126.800499 
L 260.586076 125.924659 
L 261.485894 126.153139 
L 262.385713 126.229299 
L 263.285531 126.838579 
L 264.18535 126.724339 
L 265.085169 126.343539 
L 265.984987 126.153139 
L 266.884806 125.734259 
L 268.684443 125.658099 
L 269.584262 125.924659 
L 270.48408 125.391539 
L 271.383899 125.315379 
L 272.283717 125.010739 
L 273.183536 125.010739 
L 274.083354 124.668019 
L 274.983173 125.505779 
L 275.882992 125.048819 
L 277.682629 124.934579 
L 279.482266 125.239219 
L 282.181722 125.429619 
L 283.981359 125.239219 
L 287.580633 124.363379 
L 288.480452 124.591859 
L 313.675372 123.868339 
L 314.575191 123.982579 
L 315.475009 123.601779 
L 316.374828 123.792179 
L 317.274647 123.563699 
L 318.174465 123.068659 
L 319.074284 123.754099 
L 319.974102 124.096819 
L 320.873921 124.134899 
L 321.773739 123.297139 
L 323.573377 123.639859 
L 324.473195 122.916339 
L 325.373014 123.639859 
L 326.272832 123.487539 
L 327.172651 123.144819 
L 328.07247 123.068659 
L 328.972288 122.878259 
L 329.872107 123.144819 
L 346.96866 122.649779 
L 348.768297 123.144819 
L 349.668116 122.840179 
L 350.567934 122.002419 
L 351.467753 122.878259 
L 352.367571 122.497459 
L 354.167209 122.040499 
L 355.067027 122.230899 
L 355.966846 122.040499 
L 356.866664 121.621619 
L 357.766483 122.002419 
L 358.666301 121.583539 
L 359.56612 121.888179 
L 360.465939 121.621619 
L 361.365757 122.040499 
L 362.265576 122.002419 
L 364.965032 121.773939 
L 365.86485 121.850099 
L 367.664487 121.240819 
L 368.564306 121.431219 
L 369.464124 121.431219 
L 370.363943 121.126579 
L 371.263762 121.164659 
L 372.16358 120.517299 
L 373.963217 120.631539 
L 374.863036 121.278899 
L 375.762855 121.202739 
L 376.662673 121.888179 
L 377.562492 121.431219 
L 378.46231 121.697779 
L 379.362129 121.431219 
L 380.261948 121.012339 
L 381.161766 121.202739 
L 382.061585 120.593459 
L 382.961403 121.240819 
L 383.861222 121.126579 
L 384.76104 120.783859 
L 386.560678 120.593459 
L 387.460496 120.669619 
L 388.360315 120.326899 
L 390.159952 120.593459 
L 391.059771 120.936179 
L 391.959589 119.984179 
L 392.859408 120.098419 
L 393.759226 119.717619 
L 394.659045 120.174579 
L 395.558863 120.174579 
L 396.458682 119.869939 
L 397.358501 120.098419 
L 398.258319 120.174579 
L 399.158138 120.441139 
L 400.057956 120.364979 
L 400.957775 120.060339 
L 401.857594 120.174579 
L 402.757412 120.022259 
L 403.657231 120.022259 
L 404.557049 119.565299 
L 407.256505 119.412979 
L 408.156324 119.489139 
L 409.056142 119.946099 
L 409.955961 119.565299 
L 410.855779 119.717619 
L 411.755598 119.641459 
L 412.655417 118.613299 
L 413.555235 118.841779 
L 414.455054 119.641459 
L 415.354872 119.108339 
L 416.254691 119.222579 
L 417.154509 119.565299 
L 418.054328 118.422899 
L 419.853965 119.222579 
L 420.753784 119.108339 
L 421.653602 119.755699 
L 422.553421 118.651379 
L 423.45324 118.384819 
L 424.353058 118.575219 
L 426.152695 117.889779 
L 427.052514 118.803699 
L 427.952333 118.270579 
L 429.75197 117.623219 
L 430.651788 118.080179 
L 431.551607 117.927859 
L 432.451425 117.508979 
L 434.251063 117.889779 
L 435.150881 117.889779 
L 436.0507 117.737459 
L 436.950518 118.156339 
L 437.850337 117.242419 
L 440.549793 117.775539 
L 441.449611 117.508979 
L 442.34943 117.508979 
L 443.249248 116.747379 
L 444.149067 117.090099 
L 445.048886 117.128179 
L 445.948704 117.623219 
L 446.848523 116.975859 
L 447.748341 117.470899 
L 448.64816 117.090099 
L 449.547979 117.737459 
L 452.247434 117.242419 
L 453.147253 116.899699 
L 454.047071 117.356659 
L 454.94689 117.547059 
L 456.746527 116.785459 
L 457.646346 117.052019 
L 458.546164 117.547059 
L 459.445983 117.737459 
L 460.345802 116.975859 
L 461.24562 116.899699 
L 462.145439 117.013939 
L 463.045257 117.318579 
L 463.945076 117.242419 
L 464.844894 117.432819 
L 465.744713 117.090099 
L 466.644532 117.128179 
L 468.444169 116.633139 
L 469.343987 116.633139 
L 470.243806 116.785459 
L 471.143625 116.442739 
L 472.043443 116.785459 
L 472.943262 116.785459 
L 473.84308 116.937779 
L 474.742899 116.100019 
L 476.542536 116.785459 
L 477.442355 116.252339 
L 478.342173 116.252339 
L 479.241992 116.404659 
L 479.241992 116.404659 
" clip-path="url(#pa444f52d75)" style="fill: none; stroke: #2ca02c; stroke-width: 1.5; stroke-linecap: square"/>
   </g>
   <g id="line2d_42">
    <path d="M 73.42381 155.501395 
L 74.323629 155.668947 
L 75.223447 155.634675 
L 76.123266 155.390963 
L 78.822722 155.234835 
L 80.622359 155.371923 
L 86.02127 155.044435 
L 95.019456 154.697907 
L 95.919275 154.930195 
L 96.819093 154.652211 
L 97.718912 154.496083 
L 98.61873 154.633171 
L 101.318186 154.461811 
L 102.218005 154.461811 
L 103.117823 154.324723 
L 104.017642 154.404691 
L 105.817279 154.777875 
L 108.516735 154.416115 
L 109.416553 154.317107 
L 110.316372 154.442771 
L 113.015828 154.583667 
L 113.915646 154.282835 
L 114.815465 154.221907 
L 116.615102 154.378035 
L 121.114195 154.419923 
L 125.613288 154.507507 
L 126.513107 154.400883 
L 128.312744 154.408499 
L 129.212562 154.244755 
L 131.912018 154.202867 
L 132.811837 153.951539 
L 135.511292 153.863955 
L 138.210748 154.054355 
L 139.110567 153.943923 
L 140.010385 153.490771 
L 140.910204 153.605011 
L 141.810022 153.452691 
L 142.709841 153.494579 
L 151.708027 152.725363 
L 153.507664 152.603507 
L 154.407483 152.702515 
L 155.307301 152.546387 
L 156.20712 152.603507 
L 160.706213 152.177011 
L 162.50585 152.386451 
L 163.405669 152.394067 
L 165.205306 152.097043 
L 166.105124 152.211283 
L 167.004943 152.142739 
L 167.904761 152.291251 
L 168.80458 152.234131 
L 169.704399 152.333139 
L 170.604217 152.276019 
L 171.504036 152.344563 
L 172.403854 152.207475 
L 173.303673 152.222707 
L 174.203492 152.104659 
L 175.10331 152.298867 
L 177.802766 152.055155 
L 182.301859 151.998035 
L 183.201677 151.807635 
L 185.001315 151.978995 
L 185.901133 151.860947 
L 187.70077 152.043731 
L 188.600589 152.013267 
L 205.697142 151.704819 
L 207.496779 151.819059 
L 208.396598 151.693395 
L 209.296416 151.822867 
L 210.196235 151.632467 
L 216.494965 151.605811 
L 218.294602 151.533459 
L 219.194421 151.640083 
L 221.893877 151.430643 
L 224.593332 151.400179 
L 225.493151 151.514419 
L 228.192607 151.179315 
L 229.092425 151.221203 
L 232.6917 151.156467 
L 233.591518 150.889907 
L 234.491337 150.897523 
L 235.391155 150.646195 
L 236.290974 150.771859 
L 237.190792 150.707123 
L 238.090611 150.882291 
L 239.890248 150.768051 
L 244.389341 150.828979 
L 246.188978 150.630963 
L 247.988616 150.684275 
L 248.888434 150.611923 
L 251.58789 150.794707 
L 253.387527 150.680467 
L 255.187164 150.650003 
L 256.086983 150.592883 
L 257.88662 150.669043 
L 259.686257 150.413907 
L 261.485894 150.223507 
L 262.385713 150.360595 
L 264.18535 150.124499 
L 265.085169 150.265395 
L 265.984987 149.876979 
L 266.884806 149.979795 
L 268.684443 149.945523 
L 272.283717 149.827475 
L 273.183536 149.739891 
L 274.083354 149.538067 
L 274.983173 149.678963 
L 276.78281 149.549491 
L 279.482266 149.267699 
L 282.181722 149.336243 
L 283.981359 148.959251 
L 288.480452 148.978291 
L 313.675372 148.719347 
L 317.274647 148.250963 
L 318.174465 148.247155 
L 319.074284 148.376627 
L 321.773739 148.338547 
L 323.573377 148.243347 
L 327.172651 148.296659 
L 328.07247 148.106259 
L 329.872107 148.091027 
L 353.26739 147.474131 
L 354.167209 147.378931 
L 357.766483 147.542675 
L 362.265576 147.169491 
L 365.86485 147.177107 
L 367.664487 146.933395 
L 368.564306 146.902931 
L 370.363943 147.100947 
L 375.762855 146.720147 
L 377.562492 146.689683 
L 379.362129 146.514515 
L 380.261948 146.605907 
L 382.061585 146.628755 
L 383.861222 146.514515 
L 384.76104 146.362195 
L 385.660859 146.396467 
L 386.560678 146.259379 
L 387.460496 146.666835 
L 389.260133 147.013363 
L 391.059771 146.609715 
L 391.959589 146.602099 
L 392.859408 146.232723 
L 394.659045 146.324115 
L 395.558863 146.385043 
L 396.458682 146.133715 
L 399.158138 146.240339 
L 400.057956 146.065171 
L 401.857594 146.152755 
L 402.757412 146.156563 
L 403.657231 145.996627 
L 407.256505 145.939507 
L 408.156324 146.103251 
L 409.056142 146.038515 
L 409.955961 145.790995 
L 415.354872 145.745299 
L 416.254691 145.482547 
L 418.954147 145.516819 
L 419.853965 145.676755 
L 420.753784 145.699603 
L 423.45324 145.265491 
L 424.353058 145.334035 
L 427.052514 145.318803 
L 427.952333 145.440659 
L 431.551607 145.105555 
L 432.451425 145.223603 
L 433.351244 145.196947 
L 434.251063 145.002739 
L 437.850337 144.850419 
L 442.34943 144.877075 
L 443.249248 144.785683 
L 445.048886 145.136019 
L 445.948704 145.078899 
L 446.848523 145.242643 
L 449.547979 145.063667 
L 453.147253 145.185523 
L 454.94689 144.766643 
L 456.746527 144.873267 
L 457.646346 144.747603 
L 459.445983 144.938003 
L 461.24562 144.663827 
L 465.744713 144.362995 
L 466.644532 144.138323 
L 472.043443 143.525235 
L 472.943262 143.285331 
L 473.84308 143.186323 
L 474.742899 143.254867 
L 475.642718 143.098739 
L 478.342173 142.973075 
L 479.241992 142.809331 
L 479.241992 142.809331 
" clip-path="url(#pa444f52d75)" style="fill: none; stroke: #d62728; stroke-width: 1.5; stroke-linecap: square"/>
   </g>
   <g id="line2d_43">
    <path d="M 73.42381 163.115872 
L 77.023084 163.030953 
L 78.822722 162.702323 
L 80.622359 162.645584 
L 83.321814 162.759443 
L 84.221633 162.568662 
L 86.02127 162.46775 
L 89.620545 162.356556 
L 91.420182 162.286489 
L 95.919275 162.2248 
L 97.718912 162.086188 
L 103.117823 161.974614 
L 104.017642 161.942246 
L 104.917461 162.256406 
L 106.717098 162.427766 
L 107.616916 162.462038 
L 109.416553 162.190528 
L 110.316372 162.166918 
L 113.015828 162.455945 
L 114.815465 162.172249 
L 116.615102 162.102944 
L 120.214376 162.3676 
L 122.913832 162.251456 
L 126.513107 162.543148 
L 130.112381 162.249171 
L 132.811837 162.218707 
L 135.511292 162.036304 
L 139.110567 162.069052 
L 140.010385 161.693203 
L 141.810022 161.556115 
L 142.709841 161.534028 
L 151.708027 161.498614 
L 154.407483 161.184073 
L 155.307301 161.290316 
L 157.106938 161.337536 
L 158.906576 161.386659 
L 161.606031 161.254521 
L 166.105124 161.200067 
L 168.80458 161.143708 
L 170.604217 161.278131 
L 173.303673 161.033657 
L 174.203492 160.903804 
L 175.10331 160.998624 
L 176.003129 160.738156 
L 176.902947 161.024137 
L 181.40204 160.59688 
L 183.201677 160.634198 
L 185.901133 160.442275 
L 187.70077 160.427424 
L 188.600589 160.498252 
L 201.198049 159.885926 
L 202.097868 159.937334 
L 204.797323 159.717612 
L 209.296416 159.87831 
L 210.196235 159.708092 
L 214.695328 159.622032 
L 221.893877 159.600326 
L 224.593332 159.382128 
L 227.292788 159.604515 
L 229.092425 159.444579 
L 238.99043 159.219526 
L 241.689885 159.277788 
L 244.389341 159.174211 
L 246.188978 159.212291 
L 247.088797 159.209625 
L 249.788253 158.85472 
L 251.58789 159.044739 
L 256.086983 158.756092 
L 257.88662 158.833776 
L 258.786439 158.847865 
L 260.586076 158.519235 
L 263.285531 158.4267 
L 265.984987 158.327312 
L 267.784624 158.203171 
L 269.584262 158.158236 
L 271.383899 158.19822 
L 274.083354 157.924425 
L 275.882992 157.911859 
L 277.682629 157.994112 
L 279.482266 157.775913 
L 282.181722 157.69328 
L 283.981359 157.766774 
L 288.480452 157.476224 
L 317.274647 157.372265 
L 319.074284 157.262214 
L 322.673558 157.229084 
L 323.573377 157.117891 
L 328.07247 157.259929 
L 328.972288 157.354748 
L 329.872107 157.01736 
L 352.367571 156.686444 
L 354.167209 156.623612 
L 358.666301 156.489571 
L 359.56612 156.562304 
L 362.265576 156.269088 
L 365.86485 156.39399 
L 367.664487 156.176553 
L 369.464124 156.029945 
L 373.063399 156.01776 
L 376.662673 155.72759 
L 378.46231 155.829644 
L 383.861222 155.502918 
L 384.76104 155.552803 
L 386.560678 155.326988 
L 387.460496 155.855539 
L 388.360315 155.785472 
L 391.059771 155.862393 
L 392.859408 155.095462 
L 394.659045 154.962563 
L 398.258319 154.89478 
L 400.057956 154.727609 
L 401.857594 154.712377 
L 404.557049 154.711616 
L 408.156324 154.526166 
L 410.855779 154.493798 
L 411.755598 154.331577 
L 414.455054 154.248563 
L 416.254691 154.409641 
L 418.954147 154.109571 
L 422.553421 154.371942 
L 424.353058 154.105001 
L 427.952333 154.1328 
L 429.75197 154.127088 
L 431.551607 153.920694 
L 433.351244 153.988857 
L 436.0507 153.994188 
L 437.850337 153.835014 
L 442.34943 153.916886 
L 444.149067 153.806835 
L 447.748341 154.136227 
L 449.547979 154.049024 
L 453.147253 154.276742 
L 454.94689 154.510172 
L 456.746527 154.106144 
L 459.445983 154.140035 
L 460.345802 154.223811 
L 463.945076 153.868144 
L 466.644532 153.931737 
L 473.84308 153.445075 
L 475.642718 153.14272 
L 479.241992 153.097404 
L 479.241992 153.097404 
" clip-path="url(#pa444f52d75)" style="fill: none; stroke: #9467bd; stroke-width: 1.5; stroke-linecap: square"/>
   </g>
   <g id="patch_3">
    <path d="M 53.132901 182.359219 
L 53.132901 10.999219 
" style="fill: none; stroke: #000000; stroke-width: 0.8; stroke-linejoin: miter; stroke-linecap: square"/>
   </g>
   <g id="patch_4">
    <path d="M 499.532901 182.359219 
L 499.532901 10.999219 
" style="fill: none; stroke: #000000; stroke-width: 0.8; stroke-linejoin: miter; stroke-linecap: square"/>
   </g>
   <g id="patch_5">
    <path d="M 53.132901 182.359219 
L 499.532901 182.359219 
" style="fill: none; stroke: #000000; stroke-width: 0.8; stroke-linejoin: miter; stroke-linecap: square"/>
   </g>
   <g id="patch_6">
    <path d="M 53.132901 10.999219 
L 499.532901 10.999219 
" style="fill: none; stroke: #000000; stroke-width: 0.8; stroke-linejoin: miter; stroke-linecap: square"/>
   </g>
   <g id="legend_1">
    <g id="patch_7">
     <path d="M 164.951651 48.355469 
L 492.532901 48.355469 
Q 494.532901 48.355469 494.532901 46.355469 
L 494.532901 17.999219 
Q 494.532901 15.999219 492.532901 15.999219 
L 164.951651 15.999219 
Q 162.951651 15.999219 162.951651 17.999219 
L 162.951651 46.355469 
Q 162.951651 48.355469 164.951651 48.355469 
z
" style="fill: #ffffff; opacity: 0.8; stroke: #cccccc; stroke-linejoin: miter"/>
    </g>
    <g id="line2d_44">
     <path d="M 166.951651 24.097656 
L 176.951651 24.097656 
L 186.951651 24.097656 
" style="fill: none; stroke: #1f77b4; stroke-width: 1.5; stroke-linecap: square"/>
    </g>
    <g id="text_29">
     <!-- Rank 1-100 -->
     <g transform="translate(194.951651 27.597656)scale(0.1 -0.1)">
      <defs>
       <path id="DejaVuSans-52" d="M 2841 2188 
Q 3044 2119 3236 1894 
Q 3428 1669 3622 1275 
L 4263 0 
L 3584 0 
L 2988 1197 
Q 2756 1666 2539 1819 
Q 2322 1972 1947 1972 
L 1259 1972 
L 1259 0 
L 628 0 
L 628 4666 
L 2053 4666 
Q 2853 4666 3247 4331 
Q 3641 3997 3641 3322 
Q 3641 2881 3436 2590 
Q 3231 2300 2841 2188 
z
M 1259 4147 
L 1259 2491 
L 2053 2491 
Q 2509 2491 2742 2702 
Q 2975 2913 2975 3322 
Q 2975 3731 2742 3939 
Q 2509 4147 2053 4147 
L 1259 4147 
z
" transform="scale(0.015625)"/>
       <path id="DejaVuSans-6b" d="M 581 4863 
L 1159 4863 
L 1159 1991 
L 2875 3500 
L 3609 3500 
L 1753 1863 
L 3688 0 
L 2938 0 
L 1159 1709 
L 1159 0 
L 581 0 
L 581 4863 
z
" transform="scale(0.015625)"/>
      </defs>
      <use xlink:href="#DejaVuSans-52"/>
      <use xlink:href="#DejaVuSans-61" x="67.232422"/>
      <use xlink:href="#DejaVuSans-6e" x="128.511719"/>
      <use xlink:href="#DejaVuSans-6b" x="191.890625"/>
      <use xlink:href="#DejaVuSans-20" x="249.800781"/>
      <use xlink:href="#DejaVuSans-31" x="281.587891"/>
      <use xlink:href="#DejaVuSans-2d" x="345.210938"/>
      <use xlink:href="#DejaVuSans-31" x="381.294922"/>
      <use xlink:href="#DejaVuSans-30" x="444.917969"/>
      <use xlink:href="#DejaVuSans-30" x="508.541016"/>
     </g>
    </g>
    <g id="line2d_45">
     <path d="M 166.951651 38.775781 
L 176.951651 38.775781 
L 186.951651 38.775781 
" style="fill: none; stroke: #ff7f0e; stroke-width: 1.5; stroke-linecap: square"/>
    </g>
    <g id="text_30">
     <!-- Rank 101-1k -->
     <g transform="translate(194.951651 42.275781)scale(0.1 -0.1)">
      <use xlink:href="#DejaVuSans-52"/>
      <use xlink:href="#DejaVuSans-61" x="67.232422"/>
      <use xlink:href="#DejaVuSans-6e" x="128.511719"/>
      <use xlink:href="#DejaVuSans-6b" x="191.890625"/>
      <use xlink:href="#DejaVuSans-20" x="249.800781"/>
      <use xlink:href="#DejaVuSans-31" x="281.587891"/>
      <use xlink:href="#DejaVuSans-30" x="345.210938"/>
      <use xlink:href="#DejaVuSans-31" x="408.833984"/>
      <use xlink:href="#DejaVuSans-2d" x="472.457031"/>
      <use xlink:href="#DejaVuSans-31" x="508.541016"/>
      <use xlink:href="#DejaVuSans-6b" x="572.164062"/>
     </g>
    </g>
    <g id="line2d_46">
     <path d="M 277.957901 24.097656 
L 287.957901 24.097656 
L 297.957901 24.097656 
" style="fill: none; stroke: #2ca02c; stroke-width: 1.5; stroke-linecap: square"/>
    </g>
    <g id="text_31">
     <!-- Rank 1k-10k -->
     <g transform="translate(305.957901 27.597656)scale(0.1 -0.1)">
      <use xlink:href="#DejaVuSans-52"/>
      <use xlink:href="#DejaVuSans-61" x="67.232422"/>
      <use xlink:href="#DejaVuSans-6e" x="128.511719"/>
      <use xlink:href="#DejaVuSans-6b" x="191.890625"/>
      <use xlink:href="#DejaVuSans-20" x="249.800781"/>
      <use xlink:href="#DejaVuSans-31" x="281.587891"/>
      <use xlink:href="#DejaVuSans-6b" x="345.210938"/>
      <use xlink:href="#DejaVuSans-2d" x="403.121094"/>
      <use xlink:href="#DejaVuSans-31" x="439.205078"/>
      <use xlink:href="#DejaVuSans-30" x="502.828125"/>
      <use xlink:href="#DejaVuSans-6b" x="566.451172"/>
     </g>
    </g>
    <g id="line2d_47">
     <path d="M 277.957901 38.775781 
L 287.957901 38.775781 
L 297.957901 38.775781 
" style="fill: none; stroke: #d62728; stroke-width: 1.5; stroke-linecap: square"/>
    </g>
    <g id="text_32">
     <!-- Rank 10k-100k -->
     <g transform="translate(305.957901 42.275781)scale(0.1 -0.1)">
      <use xlink:href="#DejaVuSans-52"/>
      <use xlink:href="#DejaVuSans-61" x="67.232422"/>
      <use xlink:href="#DejaVuSans-6e" x="128.511719"/>
      <use xlink:href="#DejaVuSans-6b" x="191.890625"/>
      <use xlink:href="#DejaVuSans-20" x="249.800781"/>
      <use xlink:href="#DejaVuSans-31" x="281.587891"/>
      <use xlink:href="#DejaVuSans-30" x="345.210938"/>
      <use xlink:href="#DejaVuSans-6b" x="408.833984"/>
      <use xlink:href="#DejaVuSans-2d" x="466.744141"/>
      <use xlink:href="#DejaVuSans-31" x="502.828125"/>
      <use xlink:href="#DejaVuSans-30" x="566.451172"/>
      <use xlink:href="#DejaVuSans-30" x="630.074219"/>
      <use xlink:href="#DejaVuSans-6b" x="693.697266"/>
     </g>
    </g>
    <g id="line2d_48">
     <path d="M 401.117276 24.097656 
L 411.117276 24.097656 
L 421.117276 24.097656 
" style="fill: none; stroke: #9467bd; stroke-width: 1.5; stroke-linecap: square"/>
    </g>
    <g id="text_33">
     <!-- Rank 100k+ -->
     <g transform="translate(429.117276 27.597656)scale(0.1 -0.1)">
      <defs>
       <path id="DejaVuSans-2b" d="M 2944 4013 
L 2944 2272 
L 4684 2272 
L 4684 1741 
L 2944 1741 
L 2944 0 
L 2419 0 
L 2419 1741 
L 678 1741 
L 678 2272 
L 2419 2272 
L 2419 4013 
L 2944 4013 
z
" transform="scale(0.015625)"/>
      </defs>
      <use xlink:href="#DejaVuSans-52"/>
      <use xlink:href="#DejaVuSans-61" x="67.232422"/>
      <use xlink:href="#DejaVuSans-6e" x="128.511719"/>
      <use xlink:href="#DejaVuSans-6b" x="191.890625"/>
      <use xlink:href="#DejaVuSans-20" x="249.800781"/>
      <use xlink:href="#DejaVuSans-31" x="281.587891"/>
      <use xlink:href="#DejaVuSans-30" x="345.210938"/>
      <use xlink:href="#DejaVuSans-30" x="408.833984"/>
      <use xlink:href="#DejaVuSans-6b" x="472.457031"/>
      <use xlink:href="#DejaVuSans-2b" x="530.367188"/>
     </g>
    </g>
   </g>
  </g>
 </g>
 <defs>
  <clipPath id="pa444f52d75">
   <rect x="53.132901" y="10.999219" width="446.4" height="171.36"/>
  </clipPath>
 </defs>
</svg>
