<?xml version="1.0" encoding="utf-8" standalone="no"?>
<!DOCTYPE svg PUBLIC "-//W3C//DTD SVG 1.1//EN"
  "http://www.w3.org/Graphics/SVG/1.1/DTD/svg11.dtd">
<svg xmlns:xlink="http://www.w3.org/1999/xlink" width="506.732901pt" height="250.252127pt" viewBox="0 0 506.732901 250.252127" xmlns="http://www.w3.org/2000/svg" version="1.1">
 <metadata>
  <rdf:RDF xmlns:dc="http://purl.org/dc/elements/1.1/" xmlns:cc="http://creativecommons.org/ns#" xmlns:rdf="http://www.w3.org/1999/02/22-rdf-syntax-ns#">
   <cc:Work>
    <dc:type rdf:resource="http://purl.org/dc/dcmitype/StillImage"/>
    <dc:date>2022-02-13T18:43:40.317498</dc:date>
    <dc:format>image/svg+xml</dc:format>
    <dc:creator>
     <cc:Agent>
      <dc:title>Matplotlib v3.5.1, https://matplotlib.org/</dc:title>
     </cc:Agent>
    </dc:creator>
   </cc:Work>
  </rdf:RDF>
 </metadata>
 <defs>
  <style type="text/css">*{stroke-linejoin: round; stroke-linecap: butt}</style>
 </defs>
 <g id="figure_1">
  <g id="patch_1">
   <path d="M 0 250.252127 
L 506.732901 250.252127 
L 506.732901 0 
L 0 0 
z
" style="fill: #ffffff"/>
  </g>
  <g id="axes_1">
   <g id="patch_2">
    <path d="M 53.132901 194.725312 
L 499.532901 194.725312 
L 499.532901 23.365313 
L 53.132901 23.365313 
z
" style="fill: #ffffff"/>
   </g>
   <g id="matplotlib.axis_1">
    <g id="xtick_1">
     <g id="line2d_1">
      <defs>
       <path id="m7619adea13" d="M 0 0 
L 0 3.5 
" style="stroke: #000000; stroke-width: 0.8"/>
      </defs>
      <g>
       <use xlink:href="#m7619adea13" x="68.024899" y="194.725312" style="stroke: #000000; stroke-width: 0.8"/>
      </g>
     </g>
     <g id="text_1">
      <!-- 2020-Nov-01 -->
      <g transform="translate(10.999219 240.62919)rotate(-30)scale(0.1 -0.1)">
       <defs>
        <path id="DejaVuSans-32" d="M 1228 531 
L 3431 531 
L 3431 0 
L 469 0 
L 469 531 
Q 828 903 1448 1529 
Q 2069 2156 2228 2338 
Q 2531 2678 2651 2914 
Q 2772 3150 2772 3378 
Q 2772 3750 2511 3984 
Q 2250 4219 1831 4219 
Q 1534 4219 1204 4116 
Q 875 4013 500 3803 
L 500 4441 
Q 881 4594 1212 4672 
Q 1544 4750 1819 4750 
Q 2544 4750 2975 4387 
Q 3406 4025 3406 3419 
Q 3406 3131 3298 2873 
Q 3191 2616 2906 2266 
Q 2828 2175 2409 1742 
Q 1991 1309 1228 531 
z
" transform="scale(0.015625)"/>
        <path id="DejaVuSans-30" d="M 2034 4250 
Q 1547 4250 1301 3770 
Q 1056 3291 1056 2328 
Q 1056 1369 1301 889 
Q 1547 409 2034 409 
Q 2525 409 2770 889 
Q 3016 1369 3016 2328 
Q 3016 3291 2770 3770 
Q 2525 4250 2034 4250 
z
M 2034 4750 
Q 2819 4750 3233 4129 
Q 3647 3509 3647 2328 
Q 3647 1150 3233 529 
Q 2819 -91 2034 -91 
Q 1250 -91 836 529 
Q 422 1150 422 2328 
Q 422 3509 836 4129 
Q 1250 4750 2034 4750 
z
" transform="scale(0.015625)"/>
        <path id="DejaVuSans-2d" d="M 313 2009 
L 1997 2009 
L 1997 1497 
L 313 1497 
L 313 2009 
z
" transform="scale(0.015625)"/>
        <path id="DejaVuSans-4e" d="M 628 4666 
L 1478 4666 
L 3547 763 
L 3547 4666 
L 4159 4666 
L 4159 0 
L 3309 0 
L 1241 3903 
L 1241 0 
L 628 0 
L 628 4666 
z
" transform="scale(0.015625)"/>
        <path id="DejaVuSans-6f" d="M 1959 3097 
Q 1497 3097 1228 2736 
Q 959 2375 959 1747 
Q 959 1119 1226 758 
Q 1494 397 1959 397 
Q 2419 397 2687 759 
Q 2956 1122 2956 1747 
Q 2956 2369 2687 2733 
Q 2419 3097 1959 3097 
z
M 1959 3584 
Q 2709 3584 3137 3096 
Q 3566 2609 3566 1747 
Q 3566 888 3137 398 
Q 2709 -91 1959 -91 
Q 1206 -91 779 398 
Q 353 888 353 1747 
Q 353 2609 779 3096 
Q 1206 3584 1959 3584 
z
" transform="scale(0.015625)"/>
        <path id="DejaVuSans-76" d="M 191 3500 
L 800 3500 
L 1894 563 
L 2988 3500 
L 3597 3500 
L 2284 0 
L 1503 0 
L 191 3500 
z
" transform="scale(0.015625)"/>
        <path id="DejaVuSans-31" d="M 794 531 
L 1825 531 
L 1825 4091 
L 703 3866 
L 703 4441 
L 1819 4666 
L 2450 4666 
L 2450 531 
L 3481 531 
L 3481 0 
L 794 0 
L 794 531 
z
" transform="scale(0.015625)"/>
       </defs>
       <use xlink:href="#DejaVuSans-32"/>
       <use xlink:href="#DejaVuSans-30" x="63.623047"/>
       <use xlink:href="#DejaVuSans-32" x="127.246094"/>
       <use xlink:href="#DejaVuSans-30" x="190.869141"/>
       <use xlink:href="#DejaVuSans-2d" x="254.492188"/>
       <use xlink:href="#DejaVuSans-4e" x="290.576172"/>
       <use xlink:href="#DejaVuSans-6f" x="365.380859"/>
       <use xlink:href="#DejaVuSans-76" x="426.5625"/>
       <use xlink:href="#DejaVuSans-2d" x="483.117188"/>
       <use xlink:href="#DejaVuSans-30" x="519.201172"/>
       <use xlink:href="#DejaVuSans-31" x="582.824219"/>
      </g>
     </g>
    </g>
    <g id="xtick_2">
     <g id="line2d_2">
      <g>
       <use xlink:href="#m7619adea13" x="95.019456" y="194.725312" style="stroke: #000000; stroke-width: 0.8"/>
      </g>
     </g>
     <g id="text_2">
      <!-- 2020-Dec-01 -->
      <g transform="translate(37.911233 240.676846)rotate(-30)scale(0.1 -0.1)">
       <defs>
        <path id="DejaVuSans-44" d="M 1259 4147 
L 1259 519 
L 2022 519 
Q 2988 519 3436 956 
Q 3884 1394 3884 2338 
Q 3884 3275 3436 3711 
Q 2988 4147 2022 4147 
L 1259 4147 
z
M 628 4666 
L 1925 4666 
Q 3281 4666 3915 4102 
Q 4550 3538 4550 2338 
Q 4550 1131 3912 565 
Q 3275 0 1925 0 
L 628 0 
L 628 4666 
z
" transform="scale(0.015625)"/>
        <path id="DejaVuSans-65" d="M 3597 1894 
L 3597 1613 
L 953 1613 
Q 991 1019 1311 708 
Q 1631 397 2203 397 
Q 2534 397 2845 478 
Q 3156 559 3463 722 
L 3463 178 
Q 3153 47 2828 -22 
Q 2503 -91 2169 -91 
Q 1331 -91 842 396 
Q 353 884 353 1716 
Q 353 2575 817 3079 
Q 1281 3584 2069 3584 
Q 2775 3584 3186 3129 
Q 3597 2675 3597 1894 
z
M 3022 2063 
Q 3016 2534 2758 2815 
Q 2500 3097 2075 3097 
Q 1594 3097 1305 2825 
Q 1016 2553 972 2059 
L 3022 2063 
z
" transform="scale(0.015625)"/>
        <path id="DejaVuSans-63" d="M 3122 3366 
L 3122 2828 
Q 2878 2963 2633 3030 
Q 2388 3097 2138 3097 
Q 1578 3097 1268 2742 
Q 959 2388 959 1747 
Q 959 1106 1268 751 
Q 1578 397 2138 397 
Q 2388 397 2633 464 
Q 2878 531 3122 666 
L 3122 134 
Q 2881 22 2623 -34 
Q 2366 -91 2075 -91 
Q 1284 -91 818 406 
Q 353 903 353 1747 
Q 353 2603 823 3093 
Q 1294 3584 2113 3584 
Q 2378 3584 2631 3529 
Q 2884 3475 3122 3366 
z
" transform="scale(0.015625)"/>
       </defs>
       <use xlink:href="#DejaVuSans-32"/>
       <use xlink:href="#DejaVuSans-30" x="63.623047"/>
       <use xlink:href="#DejaVuSans-32" x="127.246094"/>
       <use xlink:href="#DejaVuSans-30" x="190.869141"/>
       <use xlink:href="#DejaVuSans-2d" x="254.492188"/>
       <use xlink:href="#DejaVuSans-44" x="290.576172"/>
       <use xlink:href="#DejaVuSans-65" x="367.578125"/>
       <use xlink:href="#DejaVuSans-63" x="429.101562"/>
       <use xlink:href="#DejaVuSans-2d" x="484.082031"/>
       <use xlink:href="#DejaVuSans-30" x="520.166016"/>
       <use xlink:href="#DejaVuSans-31" x="583.789062"/>
      </g>
     </g>
    </g>
    <g id="xtick_3">
     <g id="line2d_3">
      <g>
       <use xlink:href="#m7619adea13" x="122.913832" y="194.725312" style="stroke: #000000; stroke-width: 0.8"/>
      </g>
     </g>
     <g id="text_3">
      <!-- 2021-Jan-01 -->
      <g transform="translate(68.727092 238.990127)rotate(-30)scale(0.1 -0.1)">
       <defs>
        <path id="DejaVuSans-4a" d="M 628 4666 
L 1259 4666 
L 1259 325 
Q 1259 -519 939 -900 
Q 619 -1281 -91 -1281 
L -331 -1281 
L -331 -750 
L -134 -750 
Q 284 -750 456 -515 
Q 628 -281 628 325 
L 628 4666 
z
" transform="scale(0.015625)"/>
        <path id="DejaVuSans-61" d="M 2194 1759 
Q 1497 1759 1228 1600 
Q 959 1441 959 1056 
Q 959 750 1161 570 
Q 1363 391 1709 391 
Q 2188 391 2477 730 
Q 2766 1069 2766 1631 
L 2766 1759 
L 2194 1759 
z
M 3341 1997 
L 3341 0 
L 2766 0 
L 2766 531 
Q 2569 213 2275 61 
Q 1981 -91 1556 -91 
Q 1019 -91 701 211 
Q 384 513 384 1019 
Q 384 1609 779 1909 
Q 1175 2209 1959 2209 
L 2766 2209 
L 2766 2266 
Q 2766 2663 2505 2880 
Q 2244 3097 1772 3097 
Q 1472 3097 1187 3025 
Q 903 2953 641 2809 
L 641 3341 
Q 956 3463 1253 3523 
Q 1550 3584 1831 3584 
Q 2591 3584 2966 3190 
Q 3341 2797 3341 1997 
z
" transform="scale(0.015625)"/>
        <path id="DejaVuSans-6e" d="M 3513 2113 
L 3513 0 
L 2938 0 
L 2938 2094 
Q 2938 2591 2744 2837 
Q 2550 3084 2163 3084 
Q 1697 3084 1428 2787 
Q 1159 2491 1159 1978 
L 1159 0 
L 581 0 
L 581 3500 
L 1159 3500 
L 1159 2956 
Q 1366 3272 1645 3428 
Q 1925 3584 2291 3584 
Q 2894 3584 3203 3211 
Q 3513 2838 3513 2113 
z
" transform="scale(0.015625)"/>
       </defs>
       <use xlink:href="#DejaVuSans-32"/>
       <use xlink:href="#DejaVuSans-30" x="63.623047"/>
       <use xlink:href="#DejaVuSans-32" x="127.246094"/>
       <use xlink:href="#DejaVuSans-31" x="190.869141"/>
       <use xlink:href="#DejaVuSans-2d" x="254.492188"/>
       <use xlink:href="#DejaVuSans-4a" x="296.201172"/>
       <use xlink:href="#DejaVuSans-61" x="325.693359"/>
       <use xlink:href="#DejaVuSans-6e" x="386.972656"/>
       <use xlink:href="#DejaVuSans-2d" x="450.351562"/>
       <use xlink:href="#DejaVuSans-30" x="486.435547"/>
       <use xlink:href="#DejaVuSans-31" x="550.058594"/>
      </g>
     </g>
    </g>
    <g id="xtick_4">
     <g id="line2d_4">
      <g>
       <use xlink:href="#m7619adea13" x="150.808208" y="194.725312" style="stroke: #000000; stroke-width: 0.8"/>
      </g>
     </g>
     <g id="text_4">
      <!-- 2021-Feb-01 -->
      <g transform="translate(95.127574 239.852627)rotate(-30)scale(0.1 -0.1)">
       <defs>
        <path id="DejaVuSans-46" d="M 628 4666 
L 3309 4666 
L 3309 4134 
L 1259 4134 
L 1259 2759 
L 3109 2759 
L 3109 2228 
L 1259 2228 
L 1259 0 
L 628 0 
L 628 4666 
z
" transform="scale(0.015625)"/>
        <path id="DejaVuSans-62" d="M 3116 1747 
Q 3116 2381 2855 2742 
Q 2594 3103 2138 3103 
Q 1681 3103 1420 2742 
Q 1159 2381 1159 1747 
Q 1159 1113 1420 752 
Q 1681 391 2138 391 
Q 2594 391 2855 752 
Q 3116 1113 3116 1747 
z
M 1159 2969 
Q 1341 3281 1617 3432 
Q 1894 3584 2278 3584 
Q 2916 3584 3314 3078 
Q 3713 2572 3713 1747 
Q 3713 922 3314 415 
Q 2916 -91 2278 -91 
Q 1894 -91 1617 61 
Q 1341 213 1159 525 
L 1159 0 
L 581 0 
L 581 4863 
L 1159 4863 
L 1159 2969 
z
" transform="scale(0.015625)"/>
       </defs>
       <use xlink:href="#DejaVuSans-32"/>
       <use xlink:href="#DejaVuSans-30" x="63.623047"/>
       <use xlink:href="#DejaVuSans-32" x="127.246094"/>
       <use xlink:href="#DejaVuSans-31" x="190.869141"/>
       <use xlink:href="#DejaVuSans-2d" x="254.492188"/>
       <use xlink:href="#DejaVuSans-46" x="290.576172"/>
       <use xlink:href="#DejaVuSans-65" x="342.595703"/>
       <use xlink:href="#DejaVuSans-62" x="404.119141"/>
       <use xlink:href="#DejaVuSans-2d" x="467.595703"/>
       <use xlink:href="#DejaVuSans-30" x="503.679688"/>
       <use xlink:href="#DejaVuSans-31" x="567.302734"/>
      </g>
     </g>
    </g>
    <g id="xtick_5">
     <g id="line2d_5">
      <g>
       <use xlink:href="#m7619adea13" x="176.003129" y="194.725312" style="stroke: #000000; stroke-width: 0.8"/>
      </g>
     </g>
     <g id="text_5">
      <!-- 2021-Mar-01 -->
      <g transform="translate(119.866478 240.115909)rotate(-30)scale(0.1 -0.1)">
       <defs>
        <path id="DejaVuSans-4d" d="M 628 4666 
L 1569 4666 
L 2759 1491 
L 3956 4666 
L 4897 4666 
L 4897 0 
L 4281 0 
L 4281 4097 
L 3078 897 
L 2444 897 
L 1241 4097 
L 1241 0 
L 628 0 
L 628 4666 
z
" transform="scale(0.015625)"/>
        <path id="DejaVuSans-72" d="M 2631 2963 
Q 2534 3019 2420 3045 
Q 2306 3072 2169 3072 
Q 1681 3072 1420 2755 
Q 1159 2438 1159 1844 
L 1159 0 
L 581 0 
L 581 3500 
L 1159 3500 
L 1159 2956 
Q 1341 3275 1631 3429 
Q 1922 3584 2338 3584 
Q 2397 3584 2469 3576 
Q 2541 3569 2628 3553 
L 2631 2963 
z
" transform="scale(0.015625)"/>
       </defs>
       <use xlink:href="#DejaVuSans-32"/>
       <use xlink:href="#DejaVuSans-30" x="63.623047"/>
       <use xlink:href="#DejaVuSans-32" x="127.246094"/>
       <use xlink:href="#DejaVuSans-31" x="190.869141"/>
       <use xlink:href="#DejaVuSans-2d" x="254.492188"/>
       <use xlink:href="#DejaVuSans-4d" x="290.576172"/>
       <use xlink:href="#DejaVuSans-61" x="376.855469"/>
       <use xlink:href="#DejaVuSans-72" x="438.134766"/>
       <use xlink:href="#DejaVuSans-2d" x="472.873047"/>
       <use xlink:href="#DejaVuSans-30" x="508.957031"/>
       <use xlink:href="#DejaVuSans-31" x="572.580078"/>
      </g>
     </g>
    </g>
    <g id="xtick_6">
     <g id="line2d_6">
      <g>
       <use xlink:href="#m7619adea13" x="203.897505" y="194.725312" style="stroke: #000000; stroke-width: 0.8"/>
      </g>
     </g>
     <g id="text_6">
      <!-- 2021-Apr-01 -->
      <g transform="translate(149.312934 239.219815)rotate(-30)scale(0.1 -0.1)">
       <defs>
        <path id="DejaVuSans-41" d="M 2188 4044 
L 1331 1722 
L 3047 1722 
L 2188 4044 
z
M 1831 4666 
L 2547 4666 
L 4325 0 
L 3669 0 
L 3244 1197 
L 1141 1197 
L 716 0 
L 50 0 
L 1831 4666 
z
" transform="scale(0.015625)"/>
        <path id="DejaVuSans-70" d="M 1159 525 
L 1159 -1331 
L 581 -1331 
L 581 3500 
L 1159 3500 
L 1159 2969 
Q 1341 3281 1617 3432 
Q 1894 3584 2278 3584 
Q 2916 3584 3314 3078 
Q 3713 2572 3713 1747 
Q 3713 922 3314 415 
Q 2916 -91 2278 -91 
Q 1894 -91 1617 61 
Q 1341 213 1159 525 
z
M 3116 1747 
Q 3116 2381 2855 2742 
Q 2594 3103 2138 3103 
Q 1681 3103 1420 2742 
Q 1159 2381 1159 1747 
Q 1159 1113 1420 752 
Q 1681 391 2138 391 
Q 2594 391 2855 752 
Q 3116 1113 3116 1747 
z
" transform="scale(0.015625)"/>
       </defs>
       <use xlink:href="#DejaVuSans-32"/>
       <use xlink:href="#DejaVuSans-30" x="63.623047"/>
       <use xlink:href="#DejaVuSans-32" x="127.246094"/>
       <use xlink:href="#DejaVuSans-31" x="190.869141"/>
       <use xlink:href="#DejaVuSans-2d" x="254.492188"/>
       <use xlink:href="#DejaVuSans-41" x="288.326172"/>
       <use xlink:href="#DejaVuSans-70" x="356.734375"/>
       <use xlink:href="#DejaVuSans-72" x="420.210938"/>
       <use xlink:href="#DejaVuSans-2d" x="454.949219"/>
       <use xlink:href="#DejaVuSans-30" x="491.033203"/>
       <use xlink:href="#DejaVuSans-31" x="554.65625"/>
      </g>
     </g>
    </g>
    <g id="xtick_7">
     <g id="line2d_7">
      <g>
       <use xlink:href="#m7619adea13" x="230.892062" y="194.725312" style="stroke: #000000; stroke-width: 0.8"/>
      </g>
     </g>
     <g id="text_7">
      <!-- 2021-May-01 -->
      <g transform="translate(172.789264 241.251065)rotate(-30)scale(0.1 -0.1)">
       <defs>
        <path id="DejaVuSans-79" d="M 2059 -325 
Q 1816 -950 1584 -1140 
Q 1353 -1331 966 -1331 
L 506 -1331 
L 506 -850 
L 844 -850 
Q 1081 -850 1212 -737 
Q 1344 -625 1503 -206 
L 1606 56 
L 191 3500 
L 800 3500 
L 1894 763 
L 2988 3500 
L 3597 3500 
L 2059 -325 
z
" transform="scale(0.015625)"/>
       </defs>
       <use xlink:href="#DejaVuSans-32"/>
       <use xlink:href="#DejaVuSans-30" x="63.623047"/>
       <use xlink:href="#DejaVuSans-32" x="127.246094"/>
       <use xlink:href="#DejaVuSans-31" x="190.869141"/>
       <use xlink:href="#DejaVuSans-2d" x="254.492188"/>
       <use xlink:href="#DejaVuSans-4d" x="290.576172"/>
       <use xlink:href="#DejaVuSans-61" x="376.855469"/>
       <use xlink:href="#DejaVuSans-79" x="438.134766"/>
       <use xlink:href="#DejaVuSans-2d" x="495.564453"/>
       <use xlink:href="#DejaVuSans-30" x="531.648438"/>
       <use xlink:href="#DejaVuSans-31" x="595.271484"/>
      </g>
     </g>
    </g>
    <g id="xtick_8">
     <g id="line2d_8">
      <g>
       <use xlink:href="#m7619adea13" x="258.786439" y="194.725312" style="stroke: #000000; stroke-width: 0.8"/>
      </g>
     </g>
     <g id="text_8">
      <!-- 2021-Jun-01 -->
      <g transform="translate(204.418374 239.094815)rotate(-30)scale(0.1 -0.1)">
       <defs>
        <path id="DejaVuSans-75" d="M 544 1381 
L 544 3500 
L 1119 3500 
L 1119 1403 
Q 1119 906 1312 657 
Q 1506 409 1894 409 
Q 2359 409 2629 706 
Q 2900 1003 2900 1516 
L 2900 3500 
L 3475 3500 
L 3475 0 
L 2900 0 
L 2900 538 
Q 2691 219 2414 64 
Q 2138 -91 1772 -91 
Q 1169 -91 856 284 
Q 544 659 544 1381 
z
M 1991 3584 
L 1991 3584 
z
" transform="scale(0.015625)"/>
       </defs>
       <use xlink:href="#DejaVuSans-32"/>
       <use xlink:href="#DejaVuSans-30" x="63.623047"/>
       <use xlink:href="#DejaVuSans-32" x="127.246094"/>
       <use xlink:href="#DejaVuSans-31" x="190.869141"/>
       <use xlink:href="#DejaVuSans-2d" x="254.492188"/>
       <use xlink:href="#DejaVuSans-4a" x="296.201172"/>
       <use xlink:href="#DejaVuSans-75" x="325.693359"/>
       <use xlink:href="#DejaVuSans-6e" x="389.072266"/>
       <use xlink:href="#DejaVuSans-2d" x="452.451172"/>
       <use xlink:href="#DejaVuSans-30" x="488.535156"/>
       <use xlink:href="#DejaVuSans-31" x="552.158203"/>
      </g>
     </g>
    </g>
    <g id="xtick_9">
     <g id="line2d_9">
      <g>
       <use xlink:href="#m7619adea13" x="285.780996" y="194.725312" style="stroke: #000000; stroke-width: 0.8"/>
      </g>
     </g>
     <g id="text_9">
      <!-- 2021-Jul-01 -->
      <g transform="translate(234.495441 237.315127)rotate(-30)scale(0.1 -0.1)">
       <defs>
        <path id="DejaVuSans-6c" d="M 603 4863 
L 1178 4863 
L 1178 0 
L 603 0 
L 603 4863 
z
" transform="scale(0.015625)"/>
       </defs>
       <use xlink:href="#DejaVuSans-32"/>
       <use xlink:href="#DejaVuSans-30" x="63.623047"/>
       <use xlink:href="#DejaVuSans-32" x="127.246094"/>
       <use xlink:href="#DejaVuSans-31" x="190.869141"/>
       <use xlink:href="#DejaVuSans-2d" x="254.492188"/>
       <use xlink:href="#DejaVuSans-4a" x="296.201172"/>
       <use xlink:href="#DejaVuSans-75" x="325.693359"/>
       <use xlink:href="#DejaVuSans-6c" x="389.072266"/>
       <use xlink:href="#DejaVuSans-2d" x="416.855469"/>
       <use xlink:href="#DejaVuSans-30" x="452.939453"/>
       <use xlink:href="#DejaVuSans-31" x="516.5625"/>
      </g>
     </g>
    </g>
    <g id="xtick_10">
     <g id="line2d_10">
      <g>
       <use xlink:href="#m7619adea13" x="313.675372" y="194.725312" style="stroke: #000000; stroke-width: 0.8"/>
      </g>
     </g>
     <g id="text_10">
      <!-- 2021-Aug-01 -->
      <g transform="translate(256.610451 240.651846)rotate(-30)scale(0.1 -0.1)">
       <defs>
        <path id="DejaVuSans-67" d="M 2906 1791 
Q 2906 2416 2648 2759 
Q 2391 3103 1925 3103 
Q 1463 3103 1205 2759 
Q 947 2416 947 1791 
Q 947 1169 1205 825 
Q 1463 481 1925 481 
Q 2391 481 2648 825 
Q 2906 1169 2906 1791 
z
M 3481 434 
Q 3481 -459 3084 -895 
Q 2688 -1331 1869 -1331 
Q 1566 -1331 1297 -1286 
Q 1028 -1241 775 -1147 
L 775 -588 
Q 1028 -725 1275 -790 
Q 1522 -856 1778 -856 
Q 2344 -856 2625 -561 
Q 2906 -266 2906 331 
L 2906 616 
Q 2728 306 2450 153 
Q 2172 0 1784 0 
Q 1141 0 747 490 
Q 353 981 353 1791 
Q 353 2603 747 3093 
Q 1141 3584 1784 3584 
Q 2172 3584 2450 3431 
Q 2728 3278 2906 2969 
L 2906 3500 
L 3481 3500 
L 3481 434 
z
" transform="scale(0.015625)"/>
       </defs>
       <use xlink:href="#DejaVuSans-32"/>
       <use xlink:href="#DejaVuSans-30" x="63.623047"/>
       <use xlink:href="#DejaVuSans-32" x="127.246094"/>
       <use xlink:href="#DejaVuSans-31" x="190.869141"/>
       <use xlink:href="#DejaVuSans-2d" x="254.492188"/>
       <use xlink:href="#DejaVuSans-41" x="288.326172"/>
       <use xlink:href="#DejaVuSans-75" x="356.734375"/>
       <use xlink:href="#DejaVuSans-67" x="420.113281"/>
       <use xlink:href="#DejaVuSans-2d" x="483.589844"/>
       <use xlink:href="#DejaVuSans-30" x="519.673828"/>
       <use xlink:href="#DejaVuSans-31" x="583.296875"/>
      </g>
     </g>
    </g>
    <g id="xtick_11">
     <g id="line2d_11">
      <g>
       <use xlink:href="#m7619adea13" x="341.569748" y="194.725312" style="stroke: #000000; stroke-width: 0.8"/>
      </g>
     </g>
     <g id="text_11">
      <!-- 2021-Sep-01 -->
      <g transform="translate(284.895891 240.426065)rotate(-30)scale(0.1 -0.1)">
       <defs>
        <path id="DejaVuSans-53" d="M 3425 4513 
L 3425 3897 
Q 3066 4069 2747 4153 
Q 2428 4238 2131 4238 
Q 1616 4238 1336 4038 
Q 1056 3838 1056 3469 
Q 1056 3159 1242 3001 
Q 1428 2844 1947 2747 
L 2328 2669 
Q 3034 2534 3370 2195 
Q 3706 1856 3706 1288 
Q 3706 609 3251 259 
Q 2797 -91 1919 -91 
Q 1588 -91 1214 -16 
Q 841 59 441 206 
L 441 856 
Q 825 641 1194 531 
Q 1563 422 1919 422 
Q 2459 422 2753 634 
Q 3047 847 3047 1241 
Q 3047 1584 2836 1778 
Q 2625 1972 2144 2069 
L 1759 2144 
Q 1053 2284 737 2584 
Q 422 2884 422 3419 
Q 422 4038 858 4394 
Q 1294 4750 2059 4750 
Q 2388 4750 2728 4690 
Q 3069 4631 3425 4513 
z
" transform="scale(0.015625)"/>
       </defs>
       <use xlink:href="#DejaVuSans-32"/>
       <use xlink:href="#DejaVuSans-30" x="63.623047"/>
       <use xlink:href="#DejaVuSans-32" x="127.246094"/>
       <use xlink:href="#DejaVuSans-31" x="190.869141"/>
       <use xlink:href="#DejaVuSans-2d" x="254.492188"/>
       <use xlink:href="#DejaVuSans-53" x="290.576172"/>
       <use xlink:href="#DejaVuSans-65" x="354.052734"/>
       <use xlink:href="#DejaVuSans-70" x="415.576172"/>
       <use xlink:href="#DejaVuSans-2d" x="479.052734"/>
       <use xlink:href="#DejaVuSans-30" x="515.136719"/>
       <use xlink:href="#DejaVuSans-31" x="578.759766"/>
      </g>
     </g>
    </g>
    <g id="xtick_12">
     <g id="line2d_12">
      <g>
       <use xlink:href="#m7619adea13" x="368.564306" y="194.725312" style="stroke: #000000; stroke-width: 0.8"/>
      </g>
     </g>
     <g id="text_12">
      <!-- 2021-Oct-01 -->
      <g transform="translate(313.00275 239.783877)rotate(-30)scale(0.1 -0.1)">
       <defs>
        <path id="DejaVuSans-4f" d="M 2522 4238 
Q 1834 4238 1429 3725 
Q 1025 3213 1025 2328 
Q 1025 1447 1429 934 
Q 1834 422 2522 422 
Q 3209 422 3611 934 
Q 4013 1447 4013 2328 
Q 4013 3213 3611 3725 
Q 3209 4238 2522 4238 
z
M 2522 4750 
Q 3503 4750 4090 4092 
Q 4678 3434 4678 2328 
Q 4678 1225 4090 567 
Q 3503 -91 2522 -91 
Q 1538 -91 948 565 
Q 359 1222 359 2328 
Q 359 3434 948 4092 
Q 1538 4750 2522 4750 
z
" transform="scale(0.015625)"/>
        <path id="DejaVuSans-74" d="M 1172 4494 
L 1172 3500 
L 2356 3500 
L 2356 3053 
L 1172 3053 
L 1172 1153 
Q 1172 725 1289 603 
Q 1406 481 1766 481 
L 2356 481 
L 2356 0 
L 1766 0 
Q 1100 0 847 248 
Q 594 497 594 1153 
L 594 3053 
L 172 3053 
L 172 3500 
L 594 3500 
L 594 4494 
L 1172 4494 
z
" transform="scale(0.015625)"/>
       </defs>
       <use xlink:href="#DejaVuSans-32"/>
       <use xlink:href="#DejaVuSans-30" x="63.623047"/>
       <use xlink:href="#DejaVuSans-32" x="127.246094"/>
       <use xlink:href="#DejaVuSans-31" x="190.869141"/>
       <use xlink:href="#DejaVuSans-2d" x="254.492188"/>
       <use xlink:href="#DejaVuSans-4f" x="293.326172"/>
       <use xlink:href="#DejaVuSans-63" x="372.037109"/>
       <use xlink:href="#DejaVuSans-74" x="427.017578"/>
       <use xlink:href="#DejaVuSans-2d" x="466.226562"/>
       <use xlink:href="#DejaVuSans-30" x="502.310547"/>
       <use xlink:href="#DejaVuSans-31" x="565.933594"/>
      </g>
     </g>
    </g>
    <g id="xtick_13">
     <g id="line2d_13">
      <g>
       <use xlink:href="#m7619adea13" x="396.458682" y="194.725312" style="stroke: #000000; stroke-width: 0.8"/>
      </g>
     </g>
     <g id="text_13">
      <!-- 2021-Nov-01 -->
      <g transform="translate(339.433002 240.62919)rotate(-30)scale(0.1 -0.1)">
       <use xlink:href="#DejaVuSans-32"/>
       <use xlink:href="#DejaVuSans-30" x="63.623047"/>
       <use xlink:href="#DejaVuSans-32" x="127.246094"/>
       <use xlink:href="#DejaVuSans-31" x="190.869141"/>
       <use xlink:href="#DejaVuSans-2d" x="254.492188"/>
       <use xlink:href="#DejaVuSans-4e" x="290.576172"/>
       <use xlink:href="#DejaVuSans-6f" x="365.380859"/>
       <use xlink:href="#DejaVuSans-76" x="426.5625"/>
       <use xlink:href="#DejaVuSans-2d" x="483.117188"/>
       <use xlink:href="#DejaVuSans-30" x="519.201172"/>
       <use xlink:href="#DejaVuSans-31" x="582.824219"/>
      </g>
     </g>
    </g>
    <g id="xtick_14">
     <g id="line2d_14">
      <g>
       <use xlink:href="#m7619adea13" x="423.45324" y="194.725312" style="stroke: #000000; stroke-width: 0.8"/>
      </g>
     </g>
     <g id="text_14">
      <!-- 2021-Dec-01 -->
      <g transform="translate(366.345017 240.676846)rotate(-30)scale(0.1 -0.1)">
       <use xlink:href="#DejaVuSans-32"/>
       <use xlink:href="#DejaVuSans-30" x="63.623047"/>
       <use xlink:href="#DejaVuSans-32" x="127.246094"/>
       <use xlink:href="#DejaVuSans-31" x="190.869141"/>
       <use xlink:href="#DejaVuSans-2d" x="254.492188"/>
       <use xlink:href="#DejaVuSans-44" x="290.576172"/>
       <use xlink:href="#DejaVuSans-65" x="367.578125"/>
       <use xlink:href="#DejaVuSans-63" x="429.101562"/>
       <use xlink:href="#DejaVuSans-2d" x="484.082031"/>
       <use xlink:href="#DejaVuSans-30" x="520.166016"/>
       <use xlink:href="#DejaVuSans-31" x="583.789062"/>
      </g>
     </g>
    </g>
    <g id="xtick_15">
     <g id="line2d_15">
      <g>
       <use xlink:href="#m7619adea13" x="451.347616" y="194.725312" style="stroke: #000000; stroke-width: 0.8"/>
      </g>
     </g>
     <g id="text_15">
      <!-- 2022-Jan-01 -->
      <g transform="translate(397.160875 238.990127)rotate(-30)scale(0.1 -0.1)">
       <use xlink:href="#DejaVuSans-32"/>
       <use xlink:href="#DejaVuSans-30" x="63.623047"/>
       <use xlink:href="#DejaVuSans-32" x="127.246094"/>
       <use xlink:href="#DejaVuSans-32" x="190.869141"/>
       <use xlink:href="#DejaVuSans-2d" x="254.492188"/>
       <use xlink:href="#DejaVuSans-4a" x="296.201172"/>
       <use xlink:href="#DejaVuSans-61" x="325.693359"/>
       <use xlink:href="#DejaVuSans-6e" x="386.972656"/>
       <use xlink:href="#DejaVuSans-2d" x="450.351562"/>
       <use xlink:href="#DejaVuSans-30" x="486.435547"/>
       <use xlink:href="#DejaVuSans-31" x="550.058594"/>
      </g>
     </g>
    </g>
    <g id="xtick_16">
     <g id="line2d_16">
      <g>
       <use xlink:href="#m7619adea13" x="479.241992" y="194.725312" style="stroke: #000000; stroke-width: 0.8"/>
      </g>
     </g>
     <g id="text_16">
      <!-- 2022-Feb-01 -->
      <g transform="translate(423.561358 239.852627)rotate(-30)scale(0.1 -0.1)">
       <use xlink:href="#DejaVuSans-32"/>
       <use xlink:href="#DejaVuSans-30" x="63.623047"/>
       <use xlink:href="#DejaVuSans-32" x="127.246094"/>
       <use xlink:href="#DejaVuSans-32" x="190.869141"/>
       <use xlink:href="#DejaVuSans-2d" x="254.492188"/>
       <use xlink:href="#DejaVuSans-46" x="290.576172"/>
       <use xlink:href="#DejaVuSans-65" x="342.595703"/>
       <use xlink:href="#DejaVuSans-62" x="404.119141"/>
       <use xlink:href="#DejaVuSans-2d" x="467.595703"/>
       <use xlink:href="#DejaVuSans-30" x="503.679688"/>
       <use xlink:href="#DejaVuSans-31" x="567.302734"/>
      </g>
     </g>
    </g>
   </g>
   <g id="matplotlib.axis_2">
    <g id="ytick_1">
     <g id="line2d_17">
      <path d="M 53.132901 187.750394 
L 499.532901 187.750394 
" clip-path="url(#p1c256e6781)" style="fill: none; stroke: #b0b0b0; stroke-width: 0.8; stroke-linecap: square"/>
     </g>
     <g id="line2d_18">
      <defs>
       <path id="m08190ac5e7" d="M 0 0 
L -3.5 0 
" style="stroke: #000000; stroke-width: 0.8"/>
      </defs>
      <g>
       <use xlink:href="#m08190ac5e7" x="53.132901" y="187.750394" style="stroke: #000000; stroke-width: 0.8"/>
      </g>
     </g>
     <g id="text_17">
      <!-- 0 -->
      <g transform="translate(39.770401 191.549613)scale(0.1 -0.1)">
       <use xlink:href="#DejaVuSans-30"/>
      </g>
     </g>
    </g>
    <g id="ytick_2">
     <g id="line2d_19">
      <path d="M 53.132901 145.061354 
L 499.532901 145.061354 
" clip-path="url(#p1c256e6781)" style="fill: none; stroke: #b0b0b0; stroke-width: 0.8; stroke-linecap: square"/>
     </g>
     <g id="line2d_20">
      <g>
       <use xlink:href="#m08190ac5e7" x="53.132901" y="145.061354" style="stroke: #000000; stroke-width: 0.8"/>
      </g>
     </g>
     <g id="text_18">
      <!-- 20 -->
      <g transform="translate(33.407901 148.860573)scale(0.1 -0.1)">
       <use xlink:href="#DejaVuSans-32"/>
       <use xlink:href="#DejaVuSans-30" x="63.623047"/>
      </g>
     </g>
    </g>
    <g id="ytick_3">
     <g id="line2d_21">
      <path d="M 53.132901 102.372314 
L 499.532901 102.372314 
" clip-path="url(#p1c256e6781)" style="fill: none; stroke: #b0b0b0; stroke-width: 0.8; stroke-linecap: square"/>
     </g>
     <g id="line2d_22">
      <g>
       <use xlink:href="#m08190ac5e7" x="53.132901" y="102.372314" style="stroke: #000000; stroke-width: 0.8"/>
      </g>
     </g>
     <g id="text_19">
      <!-- 40 -->
      <g transform="translate(33.407901 106.171532)scale(0.1 -0.1)">
       <defs>
        <path id="DejaVuSans-34" d="M 2419 4116 
L 825 1625 
L 2419 1625 
L 2419 4116 
z
M 2253 4666 
L 3047 4666 
L 3047 1625 
L 3713 1625 
L 3713 1100 
L 3047 1100 
L 3047 0 
L 2419 0 
L 2419 1100 
L 313 1100 
L 313 1709 
L 2253 4666 
z
" transform="scale(0.015625)"/>
       </defs>
       <use xlink:href="#DejaVuSans-34"/>
       <use xlink:href="#DejaVuSans-30" x="63.623047"/>
      </g>
     </g>
    </g>
    <g id="ytick_4">
     <g id="line2d_23">
      <path d="M 53.132901 59.683273 
L 499.532901 59.683273 
" clip-path="url(#p1c256e6781)" style="fill: none; stroke: #b0b0b0; stroke-width: 0.8; stroke-linecap: square"/>
     </g>
     <g id="line2d_24">
      <g>
       <use xlink:href="#m08190ac5e7" x="53.132901" y="59.683273" style="stroke: #000000; stroke-width: 0.8"/>
      </g>
     </g>
     <g id="text_20">
      <!-- 60 -->
      <g transform="translate(33.407901 63.482492)scale(0.1 -0.1)">
       <defs>
        <path id="DejaVuSans-36" d="M 2113 2584 
Q 1688 2584 1439 2293 
Q 1191 2003 1191 1497 
Q 1191 994 1439 701 
Q 1688 409 2113 409 
Q 2538 409 2786 701 
Q 3034 994 3034 1497 
Q 3034 2003 2786 2293 
Q 2538 2584 2113 2584 
z
M 3366 4563 
L 3366 3988 
Q 3128 4100 2886 4159 
Q 2644 4219 2406 4219 
Q 1781 4219 1451 3797 
Q 1122 3375 1075 2522 
Q 1259 2794 1537 2939 
Q 1816 3084 2150 3084 
Q 2853 3084 3261 2657 
Q 3669 2231 3669 1497 
Q 3669 778 3244 343 
Q 2819 -91 2113 -91 
Q 1303 -91 875 529 
Q 447 1150 447 2328 
Q 447 3434 972 4092 
Q 1497 4750 2381 4750 
Q 2619 4750 2861 4703 
Q 3103 4656 3366 4563 
z
" transform="scale(0.015625)"/>
       </defs>
       <use xlink:href="#DejaVuSans-36"/>
       <use xlink:href="#DejaVuSans-30" x="63.623047"/>
      </g>
     </g>
    </g>
    <g id="text_21">
     <!-- Percentage Of directives present in CSPs -->
     <g transform="translate(27.328213 210.890625)rotate(-90)scale(0.1 -0.1)">
      <defs>
       <path id="DejaVuSans-50" d="M 1259 4147 
L 1259 2394 
L 2053 2394 
Q 2494 2394 2734 2622 
Q 2975 2850 2975 3272 
Q 2975 3691 2734 3919 
Q 2494 4147 2053 4147 
L 1259 4147 
z
M 628 4666 
L 2053 4666 
Q 2838 4666 3239 4311 
Q 3641 3956 3641 3272 
Q 3641 2581 3239 2228 
Q 2838 1875 2053 1875 
L 1259 1875 
L 1259 0 
L 628 0 
L 628 4666 
z
" transform="scale(0.015625)"/>
       <path id="DejaVuSans-20" transform="scale(0.015625)"/>
       <path id="DejaVuSans-66" d="M 2375 4863 
L 2375 4384 
L 1825 4384 
Q 1516 4384 1395 4259 
Q 1275 4134 1275 3809 
L 1275 3500 
L 2222 3500 
L 2222 3053 
L 1275 3053 
L 1275 0 
L 697 0 
L 697 3053 
L 147 3053 
L 147 3500 
L 697 3500 
L 697 3744 
Q 697 4328 969 4595 
Q 1241 4863 1831 4863 
L 2375 4863 
z
" transform="scale(0.015625)"/>
       <path id="DejaVuSans-64" d="M 2906 2969 
L 2906 4863 
L 3481 4863 
L 3481 0 
L 2906 0 
L 2906 525 
Q 2725 213 2448 61 
Q 2172 -91 1784 -91 
Q 1150 -91 751 415 
Q 353 922 353 1747 
Q 353 2572 751 3078 
Q 1150 3584 1784 3584 
Q 2172 3584 2448 3432 
Q 2725 3281 2906 2969 
z
M 947 1747 
Q 947 1113 1208 752 
Q 1469 391 1925 391 
Q 2381 391 2643 752 
Q 2906 1113 2906 1747 
Q 2906 2381 2643 2742 
Q 2381 3103 1925 3103 
Q 1469 3103 1208 2742 
Q 947 2381 947 1747 
z
" transform="scale(0.015625)"/>
       <path id="DejaVuSans-69" d="M 603 3500 
L 1178 3500 
L 1178 0 
L 603 0 
L 603 3500 
z
M 603 4863 
L 1178 4863 
L 1178 4134 
L 603 4134 
L 603 4863 
z
" transform="scale(0.015625)"/>
       <path id="DejaVuSans-73" d="M 2834 3397 
L 2834 2853 
Q 2591 2978 2328 3040 
Q 2066 3103 1784 3103 
Q 1356 3103 1142 2972 
Q 928 2841 928 2578 
Q 928 2378 1081 2264 
Q 1234 2150 1697 2047 
L 1894 2003 
Q 2506 1872 2764 1633 
Q 3022 1394 3022 966 
Q 3022 478 2636 193 
Q 2250 -91 1575 -91 
Q 1294 -91 989 -36 
Q 684 19 347 128 
L 347 722 
Q 666 556 975 473 
Q 1284 391 1588 391 
Q 1994 391 2212 530 
Q 2431 669 2431 922 
Q 2431 1156 2273 1281 
Q 2116 1406 1581 1522 
L 1381 1569 
Q 847 1681 609 1914 
Q 372 2147 372 2553 
Q 372 3047 722 3315 
Q 1072 3584 1716 3584 
Q 2034 3584 2315 3537 
Q 2597 3491 2834 3397 
z
" transform="scale(0.015625)"/>
       <path id="DejaVuSans-43" d="M 4122 4306 
L 4122 3641 
Q 3803 3938 3442 4084 
Q 3081 4231 2675 4231 
Q 1875 4231 1450 3742 
Q 1025 3253 1025 2328 
Q 1025 1406 1450 917 
Q 1875 428 2675 428 
Q 3081 428 3442 575 
Q 3803 722 4122 1019 
L 4122 359 
Q 3791 134 3420 21 
Q 3050 -91 2638 -91 
Q 1578 -91 968 557 
Q 359 1206 359 2328 
Q 359 3453 968 4101 
Q 1578 4750 2638 4750 
Q 3056 4750 3426 4639 
Q 3797 4528 4122 4306 
z
" transform="scale(0.015625)"/>
      </defs>
      <use xlink:href="#DejaVuSans-50"/>
      <use xlink:href="#DejaVuSans-65" x="56.677734"/>
      <use xlink:href="#DejaVuSans-72" x="118.201172"/>
      <use xlink:href="#DejaVuSans-63" x="157.064453"/>
      <use xlink:href="#DejaVuSans-65" x="212.044922"/>
      <use xlink:href="#DejaVuSans-6e" x="273.568359"/>
      <use xlink:href="#DejaVuSans-74" x="336.947266"/>
      <use xlink:href="#DejaVuSans-61" x="376.15625"/>
      <use xlink:href="#DejaVuSans-67" x="437.435547"/>
      <use xlink:href="#DejaVuSans-65" x="500.912109"/>
      <use xlink:href="#DejaVuSans-20" x="562.435547"/>
      <use xlink:href="#DejaVuSans-4f" x="594.222656"/>
      <use xlink:href="#DejaVuSans-66" x="672.933594"/>
      <use xlink:href="#DejaVuSans-20" x="708.138672"/>
      <use xlink:href="#DejaVuSans-64" x="739.925781"/>
      <use xlink:href="#DejaVuSans-69" x="803.402344"/>
      <use xlink:href="#DejaVuSans-72" x="831.185547"/>
      <use xlink:href="#DejaVuSans-65" x="870.048828"/>
      <use xlink:href="#DejaVuSans-63" x="931.572266"/>
      <use xlink:href="#DejaVuSans-74" x="986.552734"/>
      <use xlink:href="#DejaVuSans-69" x="1025.761719"/>
      <use xlink:href="#DejaVuSans-76" x="1053.544922"/>
      <use xlink:href="#DejaVuSans-65" x="1112.724609"/>
      <use xlink:href="#DejaVuSans-73" x="1174.248047"/>
      <use xlink:href="#DejaVuSans-20" x="1226.347656"/>
      <use xlink:href="#DejaVuSans-70" x="1258.134766"/>
      <use xlink:href="#DejaVuSans-72" x="1321.611328"/>
      <use xlink:href="#DejaVuSans-65" x="1360.474609"/>
      <use xlink:href="#DejaVuSans-73" x="1421.998047"/>
      <use xlink:href="#DejaVuSans-65" x="1474.097656"/>
      <use xlink:href="#DejaVuSans-6e" x="1535.621094"/>
      <use xlink:href="#DejaVuSans-74" x="1599"/>
      <use xlink:href="#DejaVuSans-20" x="1638.208984"/>
      <use xlink:href="#DejaVuSans-69" x="1669.996094"/>
      <use xlink:href="#DejaVuSans-6e" x="1697.779297"/>
      <use xlink:href="#DejaVuSans-20" x="1761.158203"/>
      <use xlink:href="#DejaVuSans-43" x="1792.945312"/>
      <use xlink:href="#DejaVuSans-53" x="1862.769531"/>
      <use xlink:href="#DejaVuSans-50" x="1926.246094"/>
      <use xlink:href="#DejaVuSans-73" x="1984.798828"/>
     </g>
    </g>
   </g>
   <g id="line2d_25">
    <path d="M 73.42381 38.618271 
L 74.323629 38.711531 
L 76.123266 38.518119 
L 77.023084 38.822333 
L 77.922903 38.907309 
L 78.822722 38.402638 
L 79.72254 38.896718 
L 80.622359 38.696748 
L 81.522177 38.936666 
L 82.421996 38.888245 
L 83.321814 38.664084 
L 84.221633 38.906339 
L 85.121452 38.61406 
L 86.02127 38.972749 
L 86.921089 38.840591 
L 89.620545 38.851955 
L 90.520363 38.63401 
L 91.420182 38.741917 
L 93.219819 38.513804 
L 94.119637 38.716409 
L 95.019456 38.725133 
L 95.919275 38.886289 
L 97.718912 38.327172 
L 99.518549 38.631144 
L 104.017642 38.292503 
L 105.817279 38.493508 
L 107.616916 38.188684 
L 109.416553 37.854329 
L 110.316372 38.176272 
L 113.015828 37.698875 
L 113.915646 38.16455 
L 114.815465 37.929593 
L 115.715284 38.022218 
L 116.615102 37.840571 
L 117.514921 37.891379 
L 118.414739 38.22035 
L 121.114195 38.143307 
L 122.913832 38.289031 
L 125.613288 38.174985 
L 126.513107 38.231563 
L 128.312744 37.845631 
L 129.212562 37.950425 
L 130.112381 37.660828 
L 131.912018 37.573233 
L 132.811837 37.611585 
L 138.210748 37.631421 
L 139.110567 37.657119 
L 140.010385 37.458065 
L 140.910204 37.385675 
L 141.810022 37.076681 
L 142.709841 37.437496 
L 150.808208 37.076738 
L 151.708027 36.754418 
L 154.407483 36.765816 
L 157.106938 36.32996 
L 158.006757 36.58906 
L 158.906576 36.423581 
L 159.806394 36.886893 
L 161.606031 36.7095 
L 162.50585 36.685229 
L 163.405669 36.878282 
L 164.305487 36.409796 
L 165.205306 36.408147 
L 166.105124 36.550179 
L 167.004943 36.064214 
L 167.904761 36.368225 
L 169.704399 36.192689 
L 170.604217 36.430839 
L 171.504036 36.511445 
L 173.303673 36.345516 
L 175.10331 36.624804 
L 176.902947 36.227757 
L 177.802766 36.297067 
L 178.702584 36.152779 
L 180.502222 36.119664 
L 181.40204 35.973204 
L 182.301859 35.618825 
L 183.201677 35.988994 
L 185.901133 35.58073 
L 186.800952 35.283606 
L 187.70077 35.573597 
L 188.600589 35.532999 
L 200.298231 35.254847 
L 201.198049 34.927014 
L 202.097868 35.150922 
L 202.997686 34.949453 
L 203.897505 35.20613 
L 204.797323 35.019567 
L 205.697142 34.999463 
L 206.596961 35.143394 
L 207.496779 35.131754 
L 209.296416 34.866113 
L 210.196235 34.551662 
L 211.096054 34.66852 
L 211.995872 34.441507 
L 214.695328 34.18942 
L 215.595146 33.967367 
L 216.494965 34.241208 
L 217.394784 34.163854 
L 218.294602 33.818224 
L 220.994058 33.814978 
L 221.893877 33.725111 
L 229.092425 33.885862 
L 234.491337 34.064441 
L 235.391155 33.948828 
L 236.290974 34.062144 
L 237.190792 33.788975 
L 238.99043 33.772896 
L 239.890248 34.00826 
L 240.790067 33.770412 
L 241.689885 33.885058 
L 242.589704 33.778318 
L 245.28916 33.922186 
L 246.188978 33.808938 
L 247.088797 33.500814 
L 247.988616 33.60496 
L 248.888434 33.44789 
L 249.788253 33.532552 
L 251.58789 33.208692 
L 252.487708 33.43884 
L 253.387527 33.425784 
L 254.287346 33.19691 
L 255.187164 33.187269 
L 256.086983 32.949698 
L 257.88662 33.000765 
L 260.586076 32.754689 
L 261.485894 32.84151 
L 265.085169 32.292241 
L 265.984987 32.183395 
L 266.884806 32.37057 
L 267.784624 32.704178 
L 269.584262 32.57375 
L 270.48408 32.807676 
L 271.383899 32.590195 
L 272.283717 32.901533 
L 273.183536 32.571521 
L 274.983173 32.587731 
L 275.882992 32.424397 
L 277.682629 32.740837 
L 279.482266 32.725155 
L 282.181722 32.927592 
L 283.981359 32.586517 
L 287.580633 32.38076 
L 288.480452 32.444268 
L 313.675372 32.563177 
L 314.575191 32.850063 
L 315.475009 32.329466 
L 316.374828 32.591158 
L 317.274647 32.132556 
L 318.174465 32.269108 
L 319.074284 32.018505 
L 319.974102 32.197938 
L 321.773739 32.314214 
L 326.272832 31.691353 
L 327.172651 31.94426 
L 328.07247 31.912062 
L 328.972288 32.209054 
L 329.872107 31.825231 
L 346.96866 31.287245 
L 349.668116 31.639282 
L 350.567934 31.583109 
L 351.467753 31.253669 
L 352.367571 31.277968 
L 353.26739 31.154403 
L 354.167209 31.459716 
L 355.067027 31.329392 
L 357.766483 31.458625 
L 358.666301 31.180079 
L 359.56612 32.697188 
L 362.265576 32.532315 
L 364.965032 32.97903 
L 365.86485 32.823668 
L 367.664487 32.713418 
L 368.564306 32.636438 
L 369.464124 32.69191 
L 370.363943 32.516051 
L 375.762855 32.514609 
L 376.662673 32.311839 
L 378.46231 32.43018 
L 380.261948 32.098601 
L 382.061585 32.266949 
L 382.961403 32.293655 
L 383.861222 32.689481 
L 384.76104 32.670605 
L 386.560678 32.277769 
L 387.460496 32.447007 
L 388.360315 32.304715 
L 389.260133 32.422635 
L 390.159952 32.412532 
L 391.059771 32.602236 
L 392.859408 32.320118 
L 395.558863 32.444883 
L 397.358501 32.441835 
L 399.158138 32.554492 
L 400.057956 32.331407 
L 400.957775 32.428107 
L 401.857594 32.394018 
L 402.757412 32.480636 
L 403.657231 31.915821 
L 404.557049 31.863974 
L 408.156324 32.05421 
L 412.655417 31.725175 
L 413.555235 31.820275 
L 414.455054 31.770617 
L 415.354872 31.859991 
L 416.254691 32.171193 
L 417.154509 32.237251 
L 418.054328 31.815883 
L 418.954147 32.052668 
L 419.853965 31.966615 
L 420.753784 32.11167 
L 422.553421 31.90103 
L 423.45324 32.059331 
L 424.353058 31.937984 
L 426.152695 31.303204 
L 427.052514 31.546068 
L 429.75197 31.613976 
L 430.651788 32.175846 
L 431.551607 32.225905 
L 432.451425 32.123033 
L 436.0507 32.376065 
L 436.950518 32.066997 
L 437.850337 31.994307 
L 440.549793 31.918781 
L 441.449611 32.045321 
L 442.34943 32.04037 
L 443.249248 31.512658 
L 444.149067 32.078817 
L 445.048886 31.936453 
L 446.848523 32.137183 
L 448.64816 32.095036 
L 449.547979 32.296598 
L 454.047071 32.176006 
L 454.94689 31.895727 
L 455.846709 32.295215 
L 456.746527 31.891182 
L 458.546164 31.925376 
L 460.345802 32.184498 
L 461.24562 31.554695 
L 462.145439 31.744388 
L 466.644532 31.817195 
L 467.54435 31.698538 
L 468.444169 31.866505 
L 469.343987 31.771209 
L 470.243806 32.005698 
L 471.143625 31.558481 
L 472.043443 31.9087 
L 472.943262 31.606928 
L 473.84308 31.43088 
L 474.742899 31.618352 
L 476.542536 31.160477 
L 477.442355 31.445896 
L 478.342173 31.435617 
L 479.241992 31.558659 
L 479.241992 31.558659 
" clip-path="url(#p1c256e6781)" style="fill: none; stroke: #1f77b4; stroke-width: 1.5; stroke-linecap: square"/>
   </g>
   <g id="line2d_26">
    <path d="M 73.42381 115.461435 
L 75.223447 114.706303 
L 77.023084 115.021982 
L 77.922903 114.833154 
L 78.822722 114.803763 
L 79.72254 114.482042 
L 80.622359 115.03725 
L 81.522177 114.767131 
L 82.421996 114.960656 
L 83.321814 114.480272 
L 84.221633 114.553033 
L 85.121452 114.476405 
L 86.02127 114.5826 
L 86.921089 114.960468 
L 89.620545 114.922425 
L 90.520363 115.098586 
L 92.32 114.70946 
L 94.119637 114.853589 
L 95.019456 114.806697 
L 95.919275 114.488289 
L 96.819093 114.86212 
L 97.718912 114.764412 
L 99.518549 114.165405 
L 101.318186 114.341465 
L 102.218005 114.155009 
L 103.117823 113.835197 
L 104.017642 113.749891 
L 104.917461 113.991679 
L 105.817279 113.90727 
L 107.616916 114.054658 
L 108.516735 113.80196 
L 109.416553 113.915849 
L 110.316372 113.672758 
L 113.015828 113.798716 
L 114.815465 113.715142 
L 115.715284 113.740269 
L 116.615102 113.88739 
L 117.514921 113.627069 
L 118.414739 113.839244 
L 119.314558 113.597647 
L 120.214376 113.699369 
L 121.114195 113.367287 
L 122.913832 113.392631 
L 124.713469 113.724473 
L 125.613288 113.235637 
L 126.513107 113.834816 
L 127.412925 113.659539 
L 128.312744 113.601033 
L 129.212562 113.674479 
L 130.112381 113.201105 
L 131.912018 113.562426 
L 138.210748 113.858673 
L 139.110567 113.572506 
L 140.010385 114.086795 
L 140.910204 113.365961 
L 142.709841 113.745429 
L 150.808208 113.039087 
L 151.708027 113.418653 
L 153.507664 113.226791 
L 154.407483 113.367646 
L 155.307301 113.229894 
L 156.20712 113.354466 
L 157.106938 113.246757 
L 158.006757 113.453706 
L 158.906576 113.312438 
L 159.806394 112.9904 
L 161.606031 112.986232 
L 162.50585 112.898674 
L 163.405669 112.995891 
L 164.305487 112.894689 
L 165.205306 112.596975 
L 166.105124 112.656081 
L 167.004943 112.305402 
L 167.904761 112.392751 
L 168.80458 112.233859 
L 169.704399 112.78868 
L 170.604217 112.51053 
L 173.303673 112.293638 
L 174.203492 112.498234 
L 176.902947 112.394216 
L 180.502222 112.608756 
L 185.001315 112.079113 
L 185.901133 111.977556 
L 186.800952 112.201918 
L 187.70077 112.148746 
L 188.600589 112.244414 
L 202.097868 112.55235 
L 202.997686 112.520039 
L 203.897505 112.716413 
L 205.697142 112.782215 
L 206.596961 112.770772 
L 207.496779 112.625877 
L 209.296416 112.770207 
L 210.196235 112.487179 
L 211.995872 112.743793 
L 215.595146 112.020744 
L 216.494965 112.284961 
L 217.394784 112.290169 
L 218.294602 112.143643 
L 219.194421 112.484548 
L 221.893877 111.98308 
L 224.593332 111.837768 
L 225.493151 112.035235 
L 226.392969 111.88022 
L 227.292788 111.967304 
L 229.092425 111.786999 
L 232.6917 112.093503 
L 233.591518 111.676484 
L 234.491337 111.940747 
L 235.391155 111.610814 
L 236.290974 111.773149 
L 237.190792 111.414156 
L 238.99043 111.761748 
L 239.890248 111.726179 
L 240.790067 111.355439 
L 241.689885 111.409516 
L 242.589704 111.577353 
L 243.489523 111.080542 
L 244.389341 111.084051 
L 245.28916 110.817262 
L 246.188978 110.979343 
L 247.088797 110.616133 
L 247.988616 110.828615 
L 248.888434 110.702802 
L 249.788253 110.915412 
L 250.688071 110.9794 
L 251.58789 110.931199 
L 252.487708 110.998869 
L 253.387527 110.897375 
L 254.287346 111.265708 
L 256.086983 111.167132 
L 256.986801 111.409765 
L 257.88662 111.490758 
L 258.786439 111.261062 
L 259.686257 111.23055 
L 260.586076 110.798366 
L 261.485894 111.062279 
L 262.385713 111.084137 
L 264.18535 110.588245 
L 265.085169 110.415974 
L 265.984987 110.585523 
L 266.884806 110.469137 
L 267.784624 110.872328 
L 269.584262 110.507718 
L 270.48408 110.659863 
L 271.383899 111.115064 
L 273.183536 110.295958 
L 274.983173 110.465414 
L 275.882992 110.437836 
L 276.78281 110.739265 
L 277.682629 110.433886 
L 279.482266 110.55896 
L 282.181722 110.338993 
L 283.981359 110.053729 
L 288.480452 110.097331 
L 316.374828 110.058754 
L 318.174465 109.309539 
L 319.074284 109.482594 
L 319.974102 109.262511 
L 320.873921 109.456309 
L 322.673558 109.221407 
L 323.573377 109.397308 
L 324.473195 109.035553 
L 325.373014 108.891413 
L 326.272832 108.972062 
L 327.172651 109.165611 
L 328.07247 109.15841 
L 328.972288 108.944817 
L 329.872107 109.060139 
L 346.96866 109.035497 
L 349.668116 108.69232 
L 351.467753 108.601105 
L 353.26739 108.856599 
L 354.167209 108.894342 
L 355.067027 108.773527 
L 355.966846 109.037444 
L 356.866664 108.905982 
L 357.766483 109.094505 
L 358.666301 108.815942 
L 359.56612 108.059612 
L 360.465939 108.153734 
L 361.365757 107.987321 
L 362.265576 108.074601 
L 364.965032 108.119291 
L 365.86485 107.968743 
L 366.764669 108.045146 
L 368.564306 107.779097 
L 369.464124 107.875689 
L 370.363943 107.748857 
L 371.263762 107.994207 
L 372.16358 107.730595 
L 373.063399 107.648053 
L 373.963217 107.770552 
L 374.863036 108.030862 
L 375.762855 107.618367 
L 377.562492 107.792686 
L 378.46231 107.76849 
L 379.362129 107.58228 
L 381.161766 107.601037 
L 382.961403 107.392685 
L 384.76104 107.779931 
L 386.560678 107.305747 
L 387.460496 107.35228 
L 388.360315 107.180564 
L 390.159952 107.558152 
L 392.859408 107.250162 
L 393.759226 106.923257 
L 395.558863 106.940768 
L 397.358501 107.056547 
L 398.258319 106.955551 
L 399.158138 107.024124 
L 400.057956 107.220073 
L 400.957775 107.224476 
L 401.857594 107.097496 
L 402.757412 107.35343 
L 407.256505 107.575205 
L 408.156324 107.539983 
L 410.855779 107.905278 
L 411.755598 108.063981 
L 413.555235 107.825641 
L 414.455054 107.668056 
L 415.354872 107.758458 
L 417.154509 107.716113 
L 418.054328 107.421884 
L 418.954147 107.773509 
L 419.853965 107.53246 
L 421.653602 107.576276 
L 423.45324 107.844403 
L 424.353058 107.904331 
L 428.852151 107.916305 
L 431.551607 108.233661 
L 432.451425 108.114786 
L 433.351244 108.192587 
L 434.251063 108.509165 
L 436.0507 108.529881 
L 436.950518 108.261812 
L 437.850337 108.154785 
L 440.549793 108.097418 
L 442.34943 108.281572 
L 452.247434 108.514883 
L 453.147253 108.278381 
L 454.047071 108.510726 
L 454.94689 108.439915 
L 455.846709 108.648237 
L 457.646346 108.594321 
L 458.546164 108.721921 
L 459.445983 108.579641 
L 460.345802 108.303721 
L 461.24562 108.575228 
L 462.145439 108.436098 
L 463.045257 108.539381 
L 464.844894 108.497118 
L 465.744713 108.772942 
L 466.644532 108.595718 
L 468.444169 108.720677 
L 472.943262 107.979161 
L 473.84308 108.188365 
L 474.742899 107.90641 
L 475.642718 107.902106 
L 477.442355 107.450166 
L 478.342173 107.589731 
L 479.241992 107.871855 
L 479.241992 107.871855 
" clip-path="url(#p1c256e6781)" style="fill: none; stroke: #ff7f0e; stroke-width: 1.5; stroke-linecap: square"/>
   </g>
   <g id="line2d_27">
    <path d="M 73.42381 128.883085 
L 74.323629 128.394591 
L 75.223447 128.2161 
L 76.123266 128.3923 
L 77.023084 128.356322 
L 78.822722 127.864594 
L 79.72254 127.816457 
L 80.622359 128.195319 
L 81.522177 127.982891 
L 82.421996 127.972417 
L 83.321814 127.611372 
L 85.121452 127.465243 
L 86.02127 127.56777 
L 86.921089 127.811267 
L 91.420182 127.762376 
L 92.32 127.71675 
L 95.019456 128.037255 
L 95.919275 127.591699 
L 96.819093 127.864568 
L 97.718912 127.828231 
L 99.518549 127.29978 
L 100.418368 127.247891 
L 101.318186 127.415246 
L 103.117823 127.00453 
L 104.017642 126.861855 
L 104.917461 127.043252 
L 108.516735 126.998841 
L 109.416553 126.93332 
L 110.316372 126.648358 
L 116.615102 126.831045 
L 117.514921 126.707655 
L 120.214376 126.704339 
L 121.114195 126.389444 
L 122.913832 126.365688 
L 124.713469 126.684704 
L 125.613288 126.337133 
L 126.513107 126.811664 
L 127.412925 126.594237 
L 129.212562 126.678967 
L 130.112381 126.511869 
L 131.912018 126.508733 
L 132.811837 126.605244 
L 138.210748 126.870911 
L 139.110567 126.53693 
L 140.010385 127.009457 
L 140.910204 126.420916 
L 142.709841 126.832483 
L 150.808208 126.164046 
L 151.708027 126.467416 
L 153.507664 126.23296 
L 154.407483 126.377556 
L 155.307301 126.267711 
L 157.106938 126.399573 
L 158.906576 126.54296 
L 159.806394 126.100486 
L 160.706213 125.998952 
L 162.50585 125.997185 
L 163.405669 125.999497 
L 164.305487 126.145408 
L 165.205306 125.798437 
L 168.80458 125.402605 
L 169.704399 125.948912 
L 170.604217 125.495544 
L 171.504036 125.306549 
L 172.403854 125.242054 
L 174.203492 125.448507 
L 176.003129 125.347244 
L 176.902947 125.252104 
L 178.702584 125.542366 
L 180.502222 125.704329 
L 182.301859 125.598571 
L 185.901133 125.226883 
L 186.800952 125.381391 
L 187.70077 125.259936 
L 188.600589 125.441853 
L 200.298231 125.586604 
L 201.198049 125.718764 
L 202.097868 125.610935 
L 202.997686 125.633402 
L 204.797323 125.950399 
L 207.496779 125.799275 
L 208.396598 125.728727 
L 209.296416 125.787601 
L 210.196235 125.609383 
L 211.995872 125.727995 
L 215.595146 125.089223 
L 216.494965 125.394725 
L 217.394784 125.225643 
L 218.294602 125.280564 
L 219.194421 125.531952 
L 220.994058 125.243286 
L 221.893877 124.950301 
L 224.593332 124.653929 
L 225.493151 124.929613 
L 226.392969 124.725547 
L 227.292788 125.044219 
L 228.192607 124.819981 
L 229.092425 124.959729 
L 232.6917 125.209703 
L 233.591518 124.882279 
L 234.491337 125.17122 
L 235.391155 124.92705 
L 236.290974 125.026786 
L 237.190792 124.746065 
L 238.090611 124.984844 
L 238.99043 124.897725 
L 239.890248 125.064098 
L 240.790067 124.695764 
L 241.689885 124.81069 
L 242.589704 124.738341 
L 243.489523 124.41609 
L 244.389341 124.472054 
L 245.28916 124.194455 
L 246.188978 124.36721 
L 247.088797 124.08432 
L 249.788253 124.253375 
L 250.688071 124.307959 
L 251.58789 124.217419 
L 252.487708 124.329793 
L 253.387527 124.112346 
L 254.287346 124.348615 
L 255.187164 124.384722 
L 256.086983 124.296222 
L 257.88662 124.705626 
L 259.686257 124.538349 
L 260.586076 123.898159 
L 261.485894 124.191403 
L 262.385713 124.07998 
L 263.285531 123.744494 
L 265.085169 123.320341 
L 265.984987 123.467563 
L 266.884806 123.219182 
L 267.784624 123.6278 
L 268.684443 123.460983 
L 269.584262 123.587671 
L 270.48408 123.589891 
L 271.383899 123.905788 
L 272.283717 123.738496 
L 273.183536 123.292031 
L 275.882992 123.485004 
L 276.78281 123.750933 
L 277.682629 123.415601 
L 279.482266 123.674009 
L 282.181722 123.46288 
L 283.981359 123.185559 
L 315.475009 123.192788 
L 316.374828 123.501407 
L 317.274647 123.356806 
L 318.174465 123.023453 
L 319.074284 123.179886 
L 319.974102 123.084061 
L 320.873921 123.182193 
L 322.673558 122.96398 
L 323.573377 123.198233 
L 326.272832 122.978234 
L 327.172651 123.208956 
L 328.07247 123.176876 
L 328.972288 122.992399 
L 329.872107 123.089004 
L 346.96866 123.26851 
L 351.467753 122.900214 
L 352.367571 123.099615 
L 354.167209 123.125124 
L 355.067027 122.91421 
L 355.966846 123.186055 
L 356.866664 123.021728 
L 357.766483 123.111409 
L 358.666301 122.952475 
L 359.56612 122.057358 
L 360.465939 122.223273 
L 361.365757 122.08998 
L 362.265576 122.183856 
L 364.965032 122.258937 
L 365.86485 122.041159 
L 366.764669 122.000055 
L 367.664487 121.759632 
L 370.363943 121.731748 
L 371.263762 122.032842 
L 372.16358 121.682104 
L 373.063399 121.56209 
L 374.863036 121.904881 
L 375.762855 121.66229 
L 383.861222 121.5614 
L 384.76104 121.712012 
L 386.560678 121.202741 
L 387.460496 121.329743 
L 388.360315 121.194084 
L 389.260133 121.267203 
L 390.159952 121.464047 
L 391.959589 121.153981 
L 392.859408 121.081222 
L 393.759226 120.601212 
L 396.458682 120.677932 
L 397.358501 120.848487 
L 398.258319 120.742906 
L 400.957775 121.025351 
L 401.857594 120.93263 
L 402.757412 121.101436 
L 403.657231 121.143932 
L 404.557049 121.430977 
L 409.955961 121.265182 
L 411.755598 121.547481 
L 413.555235 121.382109 
L 414.455054 121.192048 
L 416.254691 121.358875 
L 417.154509 121.336358 
L 418.054328 120.993367 
L 418.954147 121.368355 
L 419.853965 121.075549 
L 426.152695 121.450942 
L 427.952333 121.469882 
L 430.651788 121.804415 
L 432.451425 121.601584 
L 434.251063 121.789059 
L 435.150881 121.711765 
L 436.0507 121.763513 
L 437.850337 121.443319 
L 440.549793 121.571808 
L 442.34943 121.900921 
L 444.149067 121.858697 
L 445.048886 121.9787 
L 446.848523 121.943662 
L 447.748341 121.979489 
L 448.64816 121.857902 
L 453.147253 121.804885 
L 454.047071 122.016451 
L 454.94689 121.982582 
L 455.846709 122.150891 
L 456.746527 122.169295 
L 457.646346 121.979224 
L 458.546164 122.098306 
L 460.345802 121.857736 
L 461.24562 122.049269 
L 462.145439 121.897699 
L 463.045257 122.015678 
L 464.844894 121.872432 
L 465.744713 122.259115 
L 466.644532 122.126173 
L 467.54435 122.25517 
L 469.343987 122.090038 
L 470.243806 121.800509 
L 471.143625 121.771217 
L 472.943262 121.424764 
L 473.84308 121.641172 
L 474.742899 121.353189 
L 476.542536 121.09709 
L 477.442355 120.902907 
L 479.241992 121.435014 
L 479.241992 121.435014 
" clip-path="url(#p1c256e6781)" style="fill: none; stroke: #2ca02c; stroke-width: 1.5; stroke-linecap: square"/>
   </g>
   <g id="line2d_28">
    <path d="M 73.42381 186.834734 
L 75.223447 186.766554 
L 76.123266 186.745946 
L 77.023084 186.84069 
L 78.822722 186.732974 
L 81.522177 186.7776 
L 86.921089 186.85928 
L 93.219819 186.79345 
L 97.718912 186.847045 
L 103.117823 186.75342 
L 104.917461 186.803289 
L 150.808208 186.916366 
L 151.708027 186.936222 
L 154.407483 186.880166 
L 158.906576 186.861129 
L 162.50585 186.907421 
L 163.405669 186.82002 
L 165.205306 186.801269 
L 169.704399 186.804234 
L 175.10331 186.834868 
L 177.802766 186.797325 
L 211.096054 186.817452 
L 211.995872 186.876839 
L 214.695328 186.760572 
L 216.494965 186.838066 
L 224.593332 186.76605 
L 225.493151 186.708623 
L 227.292788 186.726298 
L 235.391155 186.690491 
L 238.99043 186.53873 
L 240.790067 186.502738 
L 243.489523 186.470334 
L 245.28916 186.475469 
L 247.988616 186.410819 
L 250.688071 186.451424 
L 252.487708 186.434224 
L 255.187164 186.466709 
L 256.986801 186.430651 
L 257.88662 186.449352 
L 258.786439 186.356299 
L 259.686257 186.449352 
L 260.586076 186.344202 
L 261.485894 186.439328 
L 263.285531 186.293619 
L 264.18535 185.564133 
L 266.884806 185.589062 
L 270.48408 185.628636 
L 272.283717 185.584171 
L 279.482266 185.537787 
L 367.664487 185.384901 
L 370.363943 185.422606 
L 372.16358 185.382182 
L 373.963217 185.34619 
L 375.762855 185.396396 
L 378.46231 185.348535 
L 379.362129 185.395335 
L 380.261948 185.286334 
L 382.961403 185.319645 
L 385.660859 185.321814 
L 387.460496 185.344307 
L 398.258319 185.272121 
L 402.757412 185.300409 
L 404.557049 185.291814 
L 416.254691 185.200419 
L 418.954147 185.147777 
L 433.351244 185.097965 
L 435.150881 185.056793 
L 437.850337 184.993249 
L 455.846709 185.077203 
L 457.646346 185.033957 
L 460.345802 185.079276 
L 462.145439 185.021691 
L 479.241992 184.987253 
L 479.241992 184.987253 
" clip-path="url(#p1c256e6781)" style="fill: none; stroke: #d62728; stroke-width: 1.5; stroke-linecap: square"/>
   </g>
   <g id="line2d_29">
    <path d="M 73.42381 165.605876 
L 75.223447 165.745982 
L 77.023084 165.17538 
L 77.922903 165.363522 
L 80.622359 165.322408 
L 81.522177 165.233776 
L 82.421996 165.342573 
L 83.321814 165.59019 
L 84.221633 165.49444 
L 85.121452 165.561129 
L 86.02127 165.325733 
L 89.620545 165.262834 
L 93.219819 165.647321 
L 94.119637 165.627251 
L 95.019456 165.387238 
L 98.61873 165.581527 
L 99.518549 165.473008 
L 104.017642 165.550243 
L 104.917461 165.297068 
L 105.817279 165.2764 
L 106.717098 165.442911 
L 107.616916 165.447737 
L 108.516735 165.671439 
L 109.416553 165.710231 
L 110.316372 165.483622 
L 113.015828 165.651731 
L 114.815465 165.610285 
L 115.715284 165.706763 
L 116.615102 165.548271 
L 117.514921 165.699613 
L 118.414739 165.526955 
L 119.314558 165.513674 
L 120.214376 165.696512 
L 121.114195 165.569547 
L 122.913832 165.691678 
L 124.713469 165.588172 
L 125.613288 165.732603 
L 126.513107 165.742207 
L 127.412925 165.897563 
L 128.312744 165.899179 
L 130.112381 166.173893 
L 131.012199 166.107665 
L 131.912018 166.158205 
L 132.811837 166.070431 
L 138.210748 165.974357 
L 140.010385 166.131489 
L 140.910204 166.250722 
L 142.709841 166.160076 
L 153.507664 166.648103 
L 155.307301 166.623898 
L 156.20712 166.895178 
L 157.106938 166.749369 
L 158.006757 166.749719 
L 158.906576 166.885209 
L 159.806394 166.730917 
L 160.706213 166.812931 
L 163.405669 166.697968 
L 165.205306 166.826509 
L 166.105124 166.765311 
L 167.004943 166.920174 
L 169.704399 166.827345 
L 170.604217 166.905463 
L 171.504036 166.842182 
L 172.403854 167.03567 
L 178.702584 166.71755 
L 179.602403 166.778199 
L 180.502222 166.654311 
L 182.301859 166.795632 
L 183.201677 166.659054 
L 185.901133 166.763627 
L 186.800952 166.933053 
L 187.70077 166.726922 
L 188.600589 166.800758 
L 208.396598 166.909349 
L 209.296416 166.822431 
L 210.196235 166.950306 
L 211.096054 166.848525 
L 211.995872 166.904197 
L 214.695328 167.26108 
L 216.494965 167.104004 
L 219.194421 167.394855 
L 220.094239 167.339076 
L 220.994058 167.166122 
L 221.893877 167.29144 
L 224.593332 167.335095 
L 225.493151 167.150839 
L 226.392969 167.18211 
L 227.292788 167.071536 
L 229.092425 167.179013 
L 236.290974 166.945266 
L 238.090611 167.123579 
L 244.389341 167.153466 
L 245.28916 167.237429 
L 246.188978 167.136121 
L 247.088797 167.368158 
L 248.888434 167.35766 
L 249.788253 167.214464 
L 250.688071 167.493996 
L 256.986801 167.470962 
L 257.88662 167.342624 
L 258.786439 167.470962 
L 259.686257 167.398383 
L 263.285531 167.761228 
L 265.085169 167.503571 
L 265.984987 167.699536 
L 266.884806 167.680878 
L 267.784624 167.545145 
L 268.684443 167.627064 
L 269.584262 167.593803 
L 270.48408 167.312608 
L 275.882992 167.532675 
L 276.78281 167.39835 
L 279.482266 167.408685 
L 282.181722 167.451878 
L 283.981359 167.59374 
L 288.480452 167.728411 
L 315.475009 167.495337 
L 316.374828 167.603649 
L 319.074284 167.57211 
L 319.974102 167.686854 
L 322.673558 167.537716 
L 324.473195 167.69251 
L 325.373014 167.750545 
L 328.972288 167.561237 
L 329.872107 167.747839 
L 346.96866 168.067503 
L 352.367571 168.125151 
L 353.26739 168.254508 
L 354.167209 168.065305 
L 355.067027 168.022658 
L 355.966846 167.866747 
L 359.56612 168.019616 
L 362.265576 168.108098 
L 365.86485 167.967668 
L 366.764669 168.018802 
L 367.664487 167.935343 
L 369.464124 168.003368 
L 370.363943 167.867207 
L 372.16358 167.950851 
L 377.562492 168.1902 
L 378.46231 167.975088 
L 379.362129 168.269094 
L 382.061585 168.02619 
L 382.961403 168.240851 
L 383.861222 168.05583 
L 386.560678 168.120889 
L 387.460496 167.963498 
L 388.360315 168.01126 
L 389.260133 167.871857 
L 390.159952 167.975231 
L 391.059771 167.817891 
L 399.158138 167.729153 
L 400.057956 167.684232 
L 400.957775 167.860898 
L 402.757412 167.744783 
L 403.657231 167.878767 
L 407.256505 167.884249 
L 409.056142 167.876309 
L 410.855779 167.943494 
L 411.755598 167.809572 
L 415.354872 167.929383 
L 416.254691 167.673181 
L 419.853965 167.780077 
L 420.753784 167.561083 
L 422.553421 167.7284 
L 423.45324 167.636022 
L 427.052514 167.91807 
L 427.952333 167.765631 
L 430.651788 167.780943 
L 431.551607 167.660371 
L 433.351244 167.766751 
L 434.251063 167.611489 
L 435.150881 167.729976 
L 436.0507 167.688449 
L 437.850337 167.968256 
L 442.34943 167.886959 
L 443.249248 168.109766 
L 444.149067 167.906214 
L 445.048886 167.942004 
L 445.948704 167.806749 
L 449.547979 167.871508 
L 452.247434 167.971805 
L 453.147253 167.734207 
L 454.047071 167.872036 
L 454.94689 167.884776 
L 455.846709 167.731837 
L 456.746527 167.944327 
L 457.646346 168.006903 
L 459.445983 167.737534 
L 464.844894 168.141336 
L 465.744713 168.021184 
L 473.84308 168.058604 
L 474.742899 167.923866 
L 476.542536 168.16922 
L 478.342173 167.969912 
L 479.241992 167.873607 
L 479.241992 167.873607 
" clip-path="url(#p1c256e6781)" style="fill: none; stroke: #9467bd; stroke-width: 1.5; stroke-linecap: square"/>
   </g>
   <g id="line2d_30">
    <path d="M 73.42381 168.762494 
L 75.223447 168.625512 
L 76.123266 169.000698 
L 77.023084 168.814195 
L 78.822722 169.034603 
L 79.72254 168.741761 
L 80.622359 168.926059 
L 82.421996 168.863122 
L 83.321814 168.60775 
L 84.221633 168.791618 
L 85.121452 168.667155 
L 86.921089 168.872852 
L 90.520363 168.547068 
L 92.32 168.669933 
L 94.119637 168.657819 
L 95.019456 168.759274 
L 95.919275 168.680252 
L 96.819093 168.805967 
L 97.718912 168.68741 
L 98.61873 168.818368 
L 101.318186 168.780595 
L 103.117823 169.109297 
L 104.917461 168.877588 
L 106.717098 168.929899 
L 107.616916 169.118671 
L 108.516735 168.953446 
L 109.416553 169.039214 
L 110.316372 168.96209 
L 113.015828 169.331033 
L 113.915646 169.046433 
L 114.815465 169.292726 
L 118.414739 169.033522 
L 119.314558 169.178067 
L 120.214376 169.015962 
L 121.114195 169.09212 
L 124.713469 169.004753 
L 125.613288 169.235433 
L 127.412925 169.119891 
L 128.312744 169.269605 
L 129.212562 169.079019 
L 135.511292 169.131844 
L 139.110567 169.06113 
L 140.910204 168.999133 
L 141.810022 169.173576 
L 142.709841 169.127361 
L 150.808208 169.182308 
L 151.708027 169.332494 
L 153.507664 169.092215 
L 154.407483 169.192779 
L 155.307301 169.13117 
L 157.106938 169.401672 
L 158.006757 169.100054 
L 160.706213 169.064737 
L 161.606031 169.275435 
L 162.50585 169.161749 
L 164.305487 169.286276 
L 166.105124 169.197428 
L 169.704399 169.149739 
L 171.504036 169.304512 
L 173.303673 169.14257 
L 174.203492 169.411274 
L 175.10331 169.269553 
L 176.003129 169.485538 
L 177.802766 169.070233 
L 178.702584 169.410263 
L 181.40204 169.258387 
L 183.201677 169.316395 
L 186.800952 169.278376 
L 187.70077 169.357445 
L 188.600589 169.253195 
L 202.997686 169.230291 
L 203.897505 169.027131 
L 204.797323 168.993271 
L 205.697142 169.254625 
L 206.596961 169.13587 
L 209.296416 169.48599 
L 210.196235 169.32347 
L 215.595146 169.657105 
L 216.494965 169.424491 
L 217.394784 169.344498 
L 218.294602 169.553179 
L 220.094239 169.205481 
L 221.893877 169.129781 
L 232.6917 169.313656 
L 233.591518 169.192471 
L 235.391155 169.28881 
L 236.290974 169.160627 
L 238.99043 169.306175 
L 239.890248 169.138896 
L 240.790067 169.438638 
L 241.689885 169.156742 
L 243.489523 169.351922 
L 244.389341 169.499227 
L 245.28916 169.349618 
L 247.988616 169.354825 
L 248.888434 169.468553 
L 250.688071 169.244782 
L 251.58789 169.495955 
L 252.487708 169.342814 
L 255.187164 169.555553 
L 256.986801 169.794454 
L 260.586076 169.580908 
L 263.285531 169.531486 
L 264.18535 169.764265 
L 268.684443 169.695648 
L 270.48408 169.633847 
L 272.283717 169.608274 
L 273.183536 169.894294 
L 274.083354 170.021671 
L 274.983173 169.771713 
L 275.882992 169.922858 
L 282.181722 169.796064 
L 283.981359 170.047133 
L 287.580633 169.977871 
L 288.480452 169.847973 
L 313.675372 169.878147 
L 314.575191 169.755258 
L 315.475009 169.908706 
L 317.274647 169.937578 
L 318.174465 169.852285 
L 319.074284 169.897743 
L 319.974102 169.744653 
L 324.473195 169.720452 
L 326.272832 169.915075 
L 327.172651 169.684927 
L 329.872107 169.829323 
L 349.668116 169.671929 
L 352.367571 169.895725 
L 354.167209 169.734654 
L 355.966846 169.78938 
L 358.666301 169.504405 
L 360.465939 169.791714 
L 361.365757 169.641669 
L 362.265576 169.784284 
L 367.664487 169.782372 
L 372.16358 169.900195 
L 373.063399 169.971346 
L 373.963217 169.815035 
L 374.863036 170.047403 
L 375.762855 169.847195 
L 376.662673 169.971317 
L 385.660859 169.718584 
L 386.560678 169.936974 
L 387.460496 169.768063 
L 388.360315 169.782721 
L 389.260133 169.674684 
L 392.859408 169.733825 
L 393.759226 169.596873 
L 394.659045 169.85462 
L 396.458682 169.777548 
L 400.957775 169.812379 
L 401.857594 169.761597 
L 404.557049 169.94903 
L 407.256505 170.155107 
L 408.156324 170.013638 
L 409.056142 170.074221 
L 409.955961 169.958141 
L 411.755598 170.177257 
L 430.651788 170.316747 
L 431.551607 170.371169 
L 433.351244 170.223262 
L 434.251063 170.330921 
L 442.34943 169.983404 
L 443.249248 170.200154 
L 444.149067 169.905666 
L 445.048886 170.052487 
L 445.948704 170.005973 
L 446.848523 170.079089 
L 447.748341 169.968338 
L 448.64816 170.051312 
L 449.547979 169.894113 
L 452.247434 169.88 
L 454.047071 170.077363 
L 458.546164 170.092351 
L 459.445983 170.106279 
L 460.345802 169.876801 
L 461.24562 170.149169 
L 463.945076 169.984732 
L 464.844894 170.047772 
L 466.644532 169.997347 
L 476.542536 170.087194 
L 477.442355 169.942235 
L 478.342173 170.195773 
L 479.241992 170.087091 
L 479.241992 170.087091 
" clip-path="url(#p1c256e6781)" style="fill: none; stroke: #8c564b; stroke-width: 1.5; stroke-linecap: square"/>
   </g>
   <g id="patch_3">
    <path d="M 53.132901 194.725312 
L 53.132901 23.365313 
" style="fill: none; stroke: #000000; stroke-width: 0.8; stroke-linejoin: miter; stroke-linecap: square"/>
   </g>
   <g id="patch_4">
    <path d="M 499.532901 194.725312 
L 499.532901 23.365313 
" style="fill: none; stroke: #000000; stroke-width: 0.8; stroke-linejoin: miter; stroke-linecap: square"/>
   </g>
   <g id="patch_5">
    <path d="M 53.132901 194.725312 
L 499.532901 194.725312 
" style="fill: none; stroke: #000000; stroke-width: 0.8; stroke-linejoin: miter; stroke-linecap: square"/>
   </g>
   <g id="patch_6">
    <path d="M 53.132901 23.365313 
L 499.532901 23.365313 
" style="fill: none; stroke: #000000; stroke-width: 0.8; stroke-linejoin: miter; stroke-linecap: square"/>
   </g>
   <g id="legend_1">
    <g id="patch_7">
     <path d="M 160.304151 156.259812 
L 392.361651 156.259812 
Q 393.961651 156.259812 393.961651 154.659812 
L 393.961651 131.974812 
Q 393.961651 130.374812 392.361651 130.374812 
L 160.304151 130.374812 
Q 158.704151 130.374812 158.704151 131.974812 
L 158.704151 154.659812 
Q 158.704151 156.259812 160.304151 156.259812 
z
" style="fill: #ffffff; opacity: 0.8; stroke: #cccccc; stroke-linejoin: miter"/>
    </g>
    <g id="line2d_31">
     <path d="M 161.904151 136.853562 
L 169.904151 136.853562 
L 177.904151 136.853562 
" style="fill: none; stroke: #1f77b4; stroke-width: 1.5; stroke-linecap: square"/>
    </g>
    <g id="text_22">
     <!-- self -->
     <g transform="translate(184.304151 139.653562)scale(0.08 -0.08)">
      <use xlink:href="#DejaVuSans-73"/>
      <use xlink:href="#DejaVuSans-65" x="52.099609"/>
      <use xlink:href="#DejaVuSans-6c" x="113.623047"/>
      <use xlink:href="#DejaVuSans-66" x="141.40625"/>
     </g>
    </g>
    <g id="line2d_32">
     <path d="M 161.904151 148.596062 
L 169.904151 148.596062 
L 177.904151 148.596062 
" style="fill: none; stroke: #ff7f0e; stroke-width: 1.5; stroke-linecap: square"/>
    </g>
    <g id="text_23">
     <!-- unsafe-inline -->
     <g transform="translate(184.304151 151.396062)scale(0.08 -0.08)">
      <use xlink:href="#DejaVuSans-75"/>
      <use xlink:href="#DejaVuSans-6e" x="63.378906"/>
      <use xlink:href="#DejaVuSans-73" x="126.757812"/>
      <use xlink:href="#DejaVuSans-61" x="178.857422"/>
      <use xlink:href="#DejaVuSans-66" x="240.136719"/>
      <use xlink:href="#DejaVuSans-65" x="275.341797"/>
      <use xlink:href="#DejaVuSans-2d" x="336.865234"/>
      <use xlink:href="#DejaVuSans-69" x="372.949219"/>
      <use xlink:href="#DejaVuSans-6e" x="400.732422"/>
      <use xlink:href="#DejaVuSans-6c" x="464.111328"/>
      <use xlink:href="#DejaVuSans-69" x="491.894531"/>
      <use xlink:href="#DejaVuSans-6e" x="519.677734"/>
      <use xlink:href="#DejaVuSans-65" x="583.056641"/>
     </g>
    </g>
    <g id="line2d_33">
     <path d="M 251.869151 136.853562 
L 259.869151 136.853562 
L 267.869151 136.853562 
" style="fill: none; stroke: #2ca02c; stroke-width: 1.5; stroke-linecap: square"/>
    </g>
    <g id="text_24">
     <!-- unsafe-eval -->
     <g transform="translate(274.269151 139.653562)scale(0.08 -0.08)">
      <use xlink:href="#DejaVuSans-75"/>
      <use xlink:href="#DejaVuSans-6e" x="63.378906"/>
      <use xlink:href="#DejaVuSans-73" x="126.757812"/>
      <use xlink:href="#DejaVuSans-61" x="178.857422"/>
      <use xlink:href="#DejaVuSans-66" x="240.136719"/>
      <use xlink:href="#DejaVuSans-65" x="275.341797"/>
      <use xlink:href="#DejaVuSans-2d" x="336.865234"/>
      <use xlink:href="#DejaVuSans-65" x="372.949219"/>
      <use xlink:href="#DejaVuSans-76" x="434.472656"/>
      <use xlink:href="#DejaVuSans-61" x="493.652344"/>
      <use xlink:href="#DejaVuSans-6c" x="554.931641"/>
     </g>
    </g>
    <g id="line2d_34">
     <path d="M 251.869151 148.596062 
L 259.869151 148.596062 
L 267.869151 148.596062 
" style="fill: none; stroke: #d62728; stroke-width: 1.5; stroke-linecap: square"/>
    </g>
    <g id="text_25">
     <!-- unsafe-hashes -->
     <g transform="translate(274.269151 151.396062)scale(0.08 -0.08)">
      <defs>
       <path id="DejaVuSans-68" d="M 3513 2113 
L 3513 0 
L 2938 0 
L 2938 2094 
Q 2938 2591 2744 2837 
Q 2550 3084 2163 3084 
Q 1697 3084 1428 2787 
Q 1159 2491 1159 1978 
L 1159 0 
L 581 0 
L 581 4863 
L 1159 4863 
L 1159 2956 
Q 1366 3272 1645 3428 
Q 1925 3584 2291 3584 
Q 2894 3584 3203 3211 
Q 3513 2838 3513 2113 
z
" transform="scale(0.015625)"/>
      </defs>
      <use xlink:href="#DejaVuSans-75"/>
      <use xlink:href="#DejaVuSans-6e" x="63.378906"/>
      <use xlink:href="#DejaVuSans-73" x="126.757812"/>
      <use xlink:href="#DejaVuSans-61" x="178.857422"/>
      <use xlink:href="#DejaVuSans-66" x="240.136719"/>
      <use xlink:href="#DejaVuSans-65" x="275.341797"/>
      <use xlink:href="#DejaVuSans-2d" x="336.865234"/>
      <use xlink:href="#DejaVuSans-68" x="372.949219"/>
      <use xlink:href="#DejaVuSans-61" x="436.328125"/>
      <use xlink:href="#DejaVuSans-73" x="497.607422"/>
      <use xlink:href="#DejaVuSans-68" x="549.707031"/>
      <use xlink:href="#DejaVuSans-65" x="613.085938"/>
      <use xlink:href="#DejaVuSans-73" x="674.609375"/>
     </g>
    </g>
    <g id="line2d_35">
     <path d="M 348.404151 136.853562 
L 356.404151 136.853562 
L 364.404151 136.853562 
" style="fill: none; stroke: #9467bd; stroke-width: 1.5; stroke-linecap: square"/>
    </g>
    <g id="text_26">
     <!-- none -->
     <g transform="translate(370.804151 139.653562)scale(0.08 -0.08)">
      <use xlink:href="#DejaVuSans-6e"/>
      <use xlink:href="#DejaVuSans-6f" x="63.378906"/>
      <use xlink:href="#DejaVuSans-6e" x="124.560547"/>
      <use xlink:href="#DejaVuSans-65" x="187.939453"/>
     </g>
    </g>
    <g id="line2d_36">
     <path d="M 348.404151 148.596062 
L 356.404151 148.596062 
L 364.404151 148.596062 
" style="fill: none; stroke: #8c564b; stroke-width: 1.5; stroke-linecap: square"/>
    </g>
    <g id="text_27">
     <!-- * -->
     <g transform="translate(370.804151 151.396062)scale(0.08 -0.08)">
      <defs>
       <path id="DejaVuSans-2a" d="M 3009 3897 
L 1888 3291 
L 3009 2681 
L 2828 2375 
L 1778 3009 
L 1778 1831 
L 1422 1831 
L 1422 3009 
L 372 2375 
L 191 2681 
L 1313 3291 
L 191 3897 
L 372 4206 
L 1422 3572 
L 1422 4750 
L 1778 4750 
L 1778 3572 
L 2828 4206 
L 3009 3897 
z
" transform="scale(0.015625)"/>
      </defs>
      <use xlink:href="#DejaVuSans-2a"/>
     </g>
    </g>
   </g>
  </g>
 </g>
 <defs>
  <clipPath id="p1c256e6781">
   <rect x="53.132901" y="23.365313" width="446.4" height="171.36"/>
  </clipPath>
 </defs>
</svg>
