<?xml version="1.0" encoding="utf-8" standalone="no"?>
<!DOCTYPE svg PUBLIC "-//W3C//DTD SVG 1.1//EN"
  "http://www.w3.org/Graphics/SVG/1.1/DTD/svg11.dtd">
<svg xmlns:xlink="http://www.w3.org/1999/xlink" width="507.159131pt" height="250.252127pt" viewBox="0 0 507.159131 250.252127" xmlns="http://www.w3.org/2000/svg" version="1.1">
 <metadata>
  <rdf:RDF xmlns:dc="http://purl.org/dc/elements/1.1/" xmlns:cc="http://creativecommons.org/ns#" xmlns:rdf="http://www.w3.org/1999/02/22-rdf-syntax-ns#">
   <cc:Work>
    <dc:type rdf:resource="http://purl.org/dc/dcmitype/StillImage"/>
    <dc:date>2022-02-02T19:49:13.701763</dc:date>
    <dc:format>image/svg+xml</dc:format>
    <dc:creator>
     <cc:Agent>
      <dc:title>Matplotlib v3.5.1, https://matplotlib.org/</dc:title>
     </cc:Agent>
    </dc:creator>
   </cc:Work>
  </rdf:RDF>
 </metadata>
 <defs>
  <style type="text/css">*{stroke-linejoin: round; stroke-linecap: butt}</style>
 </defs>
 <g id="figure_1">
  <g id="patch_1">
   <path d="M 0 250.252127 
L 507.159131 250.252127 
L 507.159131 0 
L 0 0 
z
" style="fill: #ffffff"/>
  </g>
  <g id="axes_1">
   <g id="patch_2">
    <path d="M 53.559131 194.725312 
L 499.959131 194.725312 
L 499.959131 23.365313 
L 53.559131 23.365313 
z
" style="fill: #ffffff"/>
   </g>
   <g id="matplotlib.axis_1">
    <g id="xtick_1">
     <g id="line2d_1">
      <defs>
       <path id="mefa3fb2ef4" d="M 0 0 
L 0 3.5 
" style="stroke: #000000; stroke-width: 0.8"/>
      </defs>
      <g>
       <use xlink:href="#mefa3fb2ef4" x="68.024899" y="194.725312" style="stroke: #000000; stroke-width: 0.8"/>
      </g>
     </g>
     <g id="text_1">
      <!-- 2020-Nov-01 -->
      <g transform="translate(10.999219 240.62919)rotate(-30)scale(0.1 -0.1)">
       <defs>
        <path id="DejaVuSans-32" d="M 1228 531 
L 3431 531 
L 3431 0 
L 469 0 
L 469 531 
Q 828 903 1448 1529 
Q 2069 2156 2228 2338 
Q 2531 2678 2651 2914 
Q 2772 3150 2772 3378 
Q 2772 3750 2511 3984 
Q 2250 4219 1831 4219 
Q 1534 4219 1204 4116 
Q 875 4013 500 3803 
L 500 4441 
Q 881 4594 1212 4672 
Q 1544 4750 1819 4750 
Q 2544 4750 2975 4387 
Q 3406 4025 3406 3419 
Q 3406 3131 3298 2873 
Q 3191 2616 2906 2266 
Q 2828 2175 2409 1742 
Q 1991 1309 1228 531 
z
" transform="scale(0.015625)"/>
        <path id="DejaVuSans-30" d="M 2034 4250 
Q 1547 4250 1301 3770 
Q 1056 3291 1056 2328 
Q 1056 1369 1301 889 
Q 1547 409 2034 409 
Q 2525 409 2770 889 
Q 3016 1369 3016 2328 
Q 3016 3291 2770 3770 
Q 2525 4250 2034 4250 
z
M 2034 4750 
Q 2819 4750 3233 4129 
Q 3647 3509 3647 2328 
Q 3647 1150 3233 529 
Q 2819 -91 2034 -91 
Q 1250 -91 836 529 
Q 422 1150 422 2328 
Q 422 3509 836 4129 
Q 1250 4750 2034 4750 
z
" transform="scale(0.015625)"/>
        <path id="DejaVuSans-2d" d="M 313 2009 
L 1997 2009 
L 1997 1497 
L 313 1497 
L 313 2009 
z
" transform="scale(0.015625)"/>
        <path id="DejaVuSans-4e" d="M 628 4666 
L 1478 4666 
L 3547 763 
L 3547 4666 
L 4159 4666 
L 4159 0 
L 3309 0 
L 1241 3903 
L 1241 0 
L 628 0 
L 628 4666 
z
" transform="scale(0.015625)"/>
        <path id="DejaVuSans-6f" d="M 1959 3097 
Q 1497 3097 1228 2736 
Q 959 2375 959 1747 
Q 959 1119 1226 758 
Q 1494 397 1959 397 
Q 2419 397 2687 759 
Q 2956 1122 2956 1747 
Q 2956 2369 2687 2733 
Q 2419 3097 1959 3097 
z
M 1959 3584 
Q 2709 3584 3137 3096 
Q 3566 2609 3566 1747 
Q 3566 888 3137 398 
Q 2709 -91 1959 -91 
Q 1206 -91 779 398 
Q 353 888 353 1747 
Q 353 2609 779 3096 
Q 1206 3584 1959 3584 
z
" transform="scale(0.015625)"/>
        <path id="DejaVuSans-76" d="M 191 3500 
L 800 3500 
L 1894 563 
L 2988 3500 
L 3597 3500 
L 2284 0 
L 1503 0 
L 191 3500 
z
" transform="scale(0.015625)"/>
        <path id="DejaVuSans-31" d="M 794 531 
L 1825 531 
L 1825 4091 
L 703 3866 
L 703 4441 
L 1819 4666 
L 2450 4666 
L 2450 531 
L 3481 531 
L 3481 0 
L 794 0 
L 794 531 
z
" transform="scale(0.015625)"/>
       </defs>
       <use xlink:href="#DejaVuSans-32"/>
       <use xlink:href="#DejaVuSans-30" x="63.623047"/>
       <use xlink:href="#DejaVuSans-32" x="127.246094"/>
       <use xlink:href="#DejaVuSans-30" x="190.869141"/>
       <use xlink:href="#DejaVuSans-2d" x="254.492188"/>
       <use xlink:href="#DejaVuSans-4e" x="290.576172"/>
       <use xlink:href="#DejaVuSans-6f" x="365.380859"/>
       <use xlink:href="#DejaVuSans-76" x="426.5625"/>
       <use xlink:href="#DejaVuSans-2d" x="483.117188"/>
       <use xlink:href="#DejaVuSans-30" x="519.201172"/>
       <use xlink:href="#DejaVuSans-31" x="582.824219"/>
      </g>
     </g>
    </g>
    <g id="xtick_2">
     <g id="line2d_2">
      <g>
       <use xlink:href="#mefa3fb2ef4" x="97.150605" y="194.725312" style="stroke: #000000; stroke-width: 0.8"/>
      </g>
     </g>
     <g id="text_2">
      <!-- 2020-Dec-01 -->
      <g transform="translate(40.042383 240.676846)rotate(-30)scale(0.1 -0.1)">
       <defs>
        <path id="DejaVuSans-44" d="M 1259 4147 
L 1259 519 
L 2022 519 
Q 2988 519 3436 956 
Q 3884 1394 3884 2338 
Q 3884 3275 3436 3711 
Q 2988 4147 2022 4147 
L 1259 4147 
z
M 628 4666 
L 1925 4666 
Q 3281 4666 3915 4102 
Q 4550 3538 4550 2338 
Q 4550 1131 3912 565 
Q 3275 0 1925 0 
L 628 0 
L 628 4666 
z
" transform="scale(0.015625)"/>
        <path id="DejaVuSans-65" d="M 3597 1894 
L 3597 1613 
L 953 1613 
Q 991 1019 1311 708 
Q 1631 397 2203 397 
Q 2534 397 2845 478 
Q 3156 559 3463 722 
L 3463 178 
Q 3153 47 2828 -22 
Q 2503 -91 2169 -91 
Q 1331 -91 842 396 
Q 353 884 353 1716 
Q 353 2575 817 3079 
Q 1281 3584 2069 3584 
Q 2775 3584 3186 3129 
Q 3597 2675 3597 1894 
z
M 3022 2063 
Q 3016 2534 2758 2815 
Q 2500 3097 2075 3097 
Q 1594 3097 1305 2825 
Q 1016 2553 972 2059 
L 3022 2063 
z
" transform="scale(0.015625)"/>
        <path id="DejaVuSans-63" d="M 3122 3366 
L 3122 2828 
Q 2878 2963 2633 3030 
Q 2388 3097 2138 3097 
Q 1578 3097 1268 2742 
Q 959 2388 959 1747 
Q 959 1106 1268 751 
Q 1578 397 2138 397 
Q 2388 397 2633 464 
Q 2878 531 3122 666 
L 3122 134 
Q 2881 22 2623 -34 
Q 2366 -91 2075 -91 
Q 1284 -91 818 406 
Q 353 903 353 1747 
Q 353 2603 823 3093 
Q 1294 3584 2113 3584 
Q 2378 3584 2631 3529 
Q 2884 3475 3122 3366 
z
" transform="scale(0.015625)"/>
       </defs>
       <use xlink:href="#DejaVuSans-32"/>
       <use xlink:href="#DejaVuSans-30" x="63.623047"/>
       <use xlink:href="#DejaVuSans-32" x="127.246094"/>
       <use xlink:href="#DejaVuSans-30" x="190.869141"/>
       <use xlink:href="#DejaVuSans-2d" x="254.492188"/>
       <use xlink:href="#DejaVuSans-44" x="290.576172"/>
       <use xlink:href="#DejaVuSans-65" x="367.578125"/>
       <use xlink:href="#DejaVuSans-63" x="429.101562"/>
       <use xlink:href="#DejaVuSans-2d" x="484.082031"/>
       <use xlink:href="#DejaVuSans-30" x="520.166016"/>
       <use xlink:href="#DejaVuSans-31" x="583.789062"/>
      </g>
     </g>
    </g>
    <g id="xtick_3">
     <g id="line2d_3">
      <g>
       <use xlink:href="#mefa3fb2ef4" x="127.247169" y="194.725312" style="stroke: #000000; stroke-width: 0.8"/>
      </g>
     </g>
     <g id="text_3">
      <!-- 2021-Jan-01 -->
      <g transform="translate(73.060429 238.990127)rotate(-30)scale(0.1 -0.1)">
       <defs>
        <path id="DejaVuSans-4a" d="M 628 4666 
L 1259 4666 
L 1259 325 
Q 1259 -519 939 -900 
Q 619 -1281 -91 -1281 
L -331 -1281 
L -331 -750 
L -134 -750 
Q 284 -750 456 -515 
Q 628 -281 628 325 
L 628 4666 
z
" transform="scale(0.015625)"/>
        <path id="DejaVuSans-61" d="M 2194 1759 
Q 1497 1759 1228 1600 
Q 959 1441 959 1056 
Q 959 750 1161 570 
Q 1363 391 1709 391 
Q 2188 391 2477 730 
Q 2766 1069 2766 1631 
L 2766 1759 
L 2194 1759 
z
M 3341 1997 
L 3341 0 
L 2766 0 
L 2766 531 
Q 2569 213 2275 61 
Q 1981 -91 1556 -91 
Q 1019 -91 701 211 
Q 384 513 384 1019 
Q 384 1609 779 1909 
Q 1175 2209 1959 2209 
L 2766 2209 
L 2766 2266 
Q 2766 2663 2505 2880 
Q 2244 3097 1772 3097 
Q 1472 3097 1187 3025 
Q 903 2953 641 2809 
L 641 3341 
Q 956 3463 1253 3523 
Q 1550 3584 1831 3584 
Q 2591 3584 2966 3190 
Q 3341 2797 3341 1997 
z
" transform="scale(0.015625)"/>
        <path id="DejaVuSans-6e" d="M 3513 2113 
L 3513 0 
L 2938 0 
L 2938 2094 
Q 2938 2591 2744 2837 
Q 2550 3084 2163 3084 
Q 1697 3084 1428 2787 
Q 1159 2491 1159 1978 
L 1159 0 
L 581 0 
L 581 3500 
L 1159 3500 
L 1159 2956 
Q 1366 3272 1645 3428 
Q 1925 3584 2291 3584 
Q 2894 3584 3203 3211 
Q 3513 2838 3513 2113 
z
" transform="scale(0.015625)"/>
       </defs>
       <use xlink:href="#DejaVuSans-32"/>
       <use xlink:href="#DejaVuSans-30" x="63.623047"/>
       <use xlink:href="#DejaVuSans-32" x="127.246094"/>
       <use xlink:href="#DejaVuSans-31" x="190.869141"/>
       <use xlink:href="#DejaVuSans-2d" x="254.492188"/>
       <use xlink:href="#DejaVuSans-4a" x="296.201172"/>
       <use xlink:href="#DejaVuSans-61" x="325.693359"/>
       <use xlink:href="#DejaVuSans-6e" x="386.972656"/>
       <use xlink:href="#DejaVuSans-2d" x="450.351562"/>
       <use xlink:href="#DejaVuSans-30" x="486.435547"/>
       <use xlink:href="#DejaVuSans-31" x="550.058594"/>
      </g>
     </g>
    </g>
    <g id="xtick_4">
     <g id="line2d_4">
      <g>
       <use xlink:href="#mefa3fb2ef4" x="157.343733" y="194.725312" style="stroke: #000000; stroke-width: 0.8"/>
      </g>
     </g>
     <g id="text_4">
      <!-- 2021-Feb-01 -->
      <g transform="translate(101.663099 239.852627)rotate(-30)scale(0.1 -0.1)">
       <defs>
        <path id="DejaVuSans-46" d="M 628 4666 
L 3309 4666 
L 3309 4134 
L 1259 4134 
L 1259 2759 
L 3109 2759 
L 3109 2228 
L 1259 2228 
L 1259 0 
L 628 0 
L 628 4666 
z
" transform="scale(0.015625)"/>
        <path id="DejaVuSans-62" d="M 3116 1747 
Q 3116 2381 2855 2742 
Q 2594 3103 2138 3103 
Q 1681 3103 1420 2742 
Q 1159 2381 1159 1747 
Q 1159 1113 1420 752 
Q 1681 391 2138 391 
Q 2594 391 2855 752 
Q 3116 1113 3116 1747 
z
M 1159 2969 
Q 1341 3281 1617 3432 
Q 1894 3584 2278 3584 
Q 2916 3584 3314 3078 
Q 3713 2572 3713 1747 
Q 3713 922 3314 415 
Q 2916 -91 2278 -91 
Q 1894 -91 1617 61 
Q 1341 213 1159 525 
L 1159 0 
L 581 0 
L 581 4863 
L 1159 4863 
L 1159 2969 
z
" transform="scale(0.015625)"/>
       </defs>
       <use xlink:href="#DejaVuSans-32"/>
       <use xlink:href="#DejaVuSans-30" x="63.623047"/>
       <use xlink:href="#DejaVuSans-32" x="127.246094"/>
       <use xlink:href="#DejaVuSans-31" x="190.869141"/>
       <use xlink:href="#DejaVuSans-2d" x="254.492188"/>
       <use xlink:href="#DejaVuSans-46" x="290.576172"/>
       <use xlink:href="#DejaVuSans-65" x="342.595703"/>
       <use xlink:href="#DejaVuSans-62" x="404.119141"/>
       <use xlink:href="#DejaVuSans-2d" x="467.595703"/>
       <use xlink:href="#DejaVuSans-30" x="503.679688"/>
       <use xlink:href="#DejaVuSans-31" x="567.302734"/>
      </g>
     </g>
    </g>
    <g id="xtick_5">
     <g id="line2d_5">
      <g>
       <use xlink:href="#mefa3fb2ef4" x="184.527726" y="194.725312" style="stroke: #000000; stroke-width: 0.8"/>
      </g>
     </g>
     <g id="text_5">
      <!-- 2021-Mar-01 -->
      <g transform="translate(128.391075 240.115909)rotate(-30)scale(0.1 -0.1)">
       <defs>
        <path id="DejaVuSans-4d" d="M 628 4666 
L 1569 4666 
L 2759 1491 
L 3956 4666 
L 4897 4666 
L 4897 0 
L 4281 0 
L 4281 4097 
L 3078 897 
L 2444 897 
L 1241 4097 
L 1241 0 
L 628 0 
L 628 4666 
z
" transform="scale(0.015625)"/>
        <path id="DejaVuSans-72" d="M 2631 2963 
Q 2534 3019 2420 3045 
Q 2306 3072 2169 3072 
Q 1681 3072 1420 2755 
Q 1159 2438 1159 1844 
L 1159 0 
L 581 0 
L 581 3500 
L 1159 3500 
L 1159 2956 
Q 1341 3275 1631 3429 
Q 1922 3584 2338 3584 
Q 2397 3584 2469 3576 
Q 2541 3569 2628 3553 
L 2631 2963 
z
" transform="scale(0.015625)"/>
       </defs>
       <use xlink:href="#DejaVuSans-32"/>
       <use xlink:href="#DejaVuSans-30" x="63.623047"/>
       <use xlink:href="#DejaVuSans-32" x="127.246094"/>
       <use xlink:href="#DejaVuSans-31" x="190.869141"/>
       <use xlink:href="#DejaVuSans-2d" x="254.492188"/>
       <use xlink:href="#DejaVuSans-4d" x="290.576172"/>
       <use xlink:href="#DejaVuSans-61" x="376.855469"/>
       <use xlink:href="#DejaVuSans-72" x="438.134766"/>
       <use xlink:href="#DejaVuSans-2d" x="472.873047"/>
       <use xlink:href="#DejaVuSans-30" x="508.957031"/>
       <use xlink:href="#DejaVuSans-31" x="572.580078"/>
      </g>
     </g>
    </g>
    <g id="xtick_6">
     <g id="line2d_6">
      <g>
       <use xlink:href="#mefa3fb2ef4" x="214.62429" y="194.725312" style="stroke: #000000; stroke-width: 0.8"/>
      </g>
     </g>
     <g id="text_6">
      <!-- 2021-Apr-01 -->
      <g transform="translate(160.039719 239.219815)rotate(-30)scale(0.1 -0.1)">
       <defs>
        <path id="DejaVuSans-41" d="M 2188 4044 
L 1331 1722 
L 3047 1722 
L 2188 4044 
z
M 1831 4666 
L 2547 4666 
L 4325 0 
L 3669 0 
L 3244 1197 
L 1141 1197 
L 716 0 
L 50 0 
L 1831 4666 
z
" transform="scale(0.015625)"/>
        <path id="DejaVuSans-70" d="M 1159 525 
L 1159 -1331 
L 581 -1331 
L 581 3500 
L 1159 3500 
L 1159 2969 
Q 1341 3281 1617 3432 
Q 1894 3584 2278 3584 
Q 2916 3584 3314 3078 
Q 3713 2572 3713 1747 
Q 3713 922 3314 415 
Q 2916 -91 2278 -91 
Q 1894 -91 1617 61 
Q 1341 213 1159 525 
z
M 3116 1747 
Q 3116 2381 2855 2742 
Q 2594 3103 2138 3103 
Q 1681 3103 1420 2742 
Q 1159 2381 1159 1747 
Q 1159 1113 1420 752 
Q 1681 391 2138 391 
Q 2594 391 2855 752 
Q 3116 1113 3116 1747 
z
" transform="scale(0.015625)"/>
       </defs>
       <use xlink:href="#DejaVuSans-32"/>
       <use xlink:href="#DejaVuSans-30" x="63.623047"/>
       <use xlink:href="#DejaVuSans-32" x="127.246094"/>
       <use xlink:href="#DejaVuSans-31" x="190.869141"/>
       <use xlink:href="#DejaVuSans-2d" x="254.492188"/>
       <use xlink:href="#DejaVuSans-41" x="288.326172"/>
       <use xlink:href="#DejaVuSans-70" x="356.734375"/>
       <use xlink:href="#DejaVuSans-72" x="420.210938"/>
       <use xlink:href="#DejaVuSans-2d" x="454.949219"/>
       <use xlink:href="#DejaVuSans-30" x="491.033203"/>
       <use xlink:href="#DejaVuSans-31" x="554.65625"/>
      </g>
     </g>
    </g>
    <g id="xtick_7">
     <g id="line2d_7">
      <g>
       <use xlink:href="#mefa3fb2ef4" x="243.749996" y="194.725312" style="stroke: #000000; stroke-width: 0.8"/>
      </g>
     </g>
     <g id="text_7">
      <!-- 2021-May-01 -->
      <g transform="translate(185.647198 241.251065)rotate(-30)scale(0.1 -0.1)">
       <defs>
        <path id="DejaVuSans-79" d="M 2059 -325 
Q 1816 -950 1584 -1140 
Q 1353 -1331 966 -1331 
L 506 -1331 
L 506 -850 
L 844 -850 
Q 1081 -850 1212 -737 
Q 1344 -625 1503 -206 
L 1606 56 
L 191 3500 
L 800 3500 
L 1894 763 
L 2988 3500 
L 3597 3500 
L 2059 -325 
z
" transform="scale(0.015625)"/>
       </defs>
       <use xlink:href="#DejaVuSans-32"/>
       <use xlink:href="#DejaVuSans-30" x="63.623047"/>
       <use xlink:href="#DejaVuSans-32" x="127.246094"/>
       <use xlink:href="#DejaVuSans-31" x="190.869141"/>
       <use xlink:href="#DejaVuSans-2d" x="254.492188"/>
       <use xlink:href="#DejaVuSans-4d" x="290.576172"/>
       <use xlink:href="#DejaVuSans-61" x="376.855469"/>
       <use xlink:href="#DejaVuSans-79" x="438.134766"/>
       <use xlink:href="#DejaVuSans-2d" x="495.564453"/>
       <use xlink:href="#DejaVuSans-30" x="531.648438"/>
       <use xlink:href="#DejaVuSans-31" x="595.271484"/>
      </g>
     </g>
    </g>
    <g id="xtick_8">
     <g id="line2d_8">
      <g>
       <use xlink:href="#mefa3fb2ef4" x="273.84656" y="194.725312" style="stroke: #000000; stroke-width: 0.8"/>
      </g>
     </g>
     <g id="text_8">
      <!-- 2021-Jun-01 -->
      <g transform="translate(219.478496 239.094815)rotate(-30)scale(0.1 -0.1)">
       <defs>
        <path id="DejaVuSans-75" d="M 544 1381 
L 544 3500 
L 1119 3500 
L 1119 1403 
Q 1119 906 1312 657 
Q 1506 409 1894 409 
Q 2359 409 2629 706 
Q 2900 1003 2900 1516 
L 2900 3500 
L 3475 3500 
L 3475 0 
L 2900 0 
L 2900 538 
Q 2691 219 2414 64 
Q 2138 -91 1772 -91 
Q 1169 -91 856 284 
Q 544 659 544 1381 
z
M 1991 3584 
L 1991 3584 
z
" transform="scale(0.015625)"/>
       </defs>
       <use xlink:href="#DejaVuSans-32"/>
       <use xlink:href="#DejaVuSans-30" x="63.623047"/>
       <use xlink:href="#DejaVuSans-32" x="127.246094"/>
       <use xlink:href="#DejaVuSans-31" x="190.869141"/>
       <use xlink:href="#DejaVuSans-2d" x="254.492188"/>
       <use xlink:href="#DejaVuSans-4a" x="296.201172"/>
       <use xlink:href="#DejaVuSans-75" x="325.693359"/>
       <use xlink:href="#DejaVuSans-6e" x="389.072266"/>
       <use xlink:href="#DejaVuSans-2d" x="452.451172"/>
       <use xlink:href="#DejaVuSans-30" x="488.535156"/>
       <use xlink:href="#DejaVuSans-31" x="552.158203"/>
      </g>
     </g>
    </g>
    <g id="xtick_9">
     <g id="line2d_9">
      <g>
       <use xlink:href="#mefa3fb2ef4" x="302.972267" y="194.725312" style="stroke: #000000; stroke-width: 0.8"/>
      </g>
     </g>
     <g id="text_9">
      <!-- 2021-Jul-01 -->
      <g transform="translate(251.686712 237.315127)rotate(-30)scale(0.1 -0.1)">
       <defs>
        <path id="DejaVuSans-6c" d="M 603 4863 
L 1178 4863 
L 1178 0 
L 603 0 
L 603 4863 
z
" transform="scale(0.015625)"/>
       </defs>
       <use xlink:href="#DejaVuSans-32"/>
       <use xlink:href="#DejaVuSans-30" x="63.623047"/>
       <use xlink:href="#DejaVuSans-32" x="127.246094"/>
       <use xlink:href="#DejaVuSans-31" x="190.869141"/>
       <use xlink:href="#DejaVuSans-2d" x="254.492188"/>
       <use xlink:href="#DejaVuSans-4a" x="296.201172"/>
       <use xlink:href="#DejaVuSans-75" x="325.693359"/>
       <use xlink:href="#DejaVuSans-6c" x="389.072266"/>
       <use xlink:href="#DejaVuSans-2d" x="416.855469"/>
       <use xlink:href="#DejaVuSans-30" x="452.939453"/>
       <use xlink:href="#DejaVuSans-31" x="516.5625"/>
      </g>
     </g>
    </g>
    <g id="xtick_10">
     <g id="line2d_10">
      <g>
       <use xlink:href="#mefa3fb2ef4" x="333.068831" y="194.725312" style="stroke: #000000; stroke-width: 0.8"/>
      </g>
     </g>
     <g id="text_10">
      <!-- 2021-Aug-01 -->
      <g transform="translate(276.003909 240.651846)rotate(-30)scale(0.1 -0.1)">
       <defs>
        <path id="DejaVuSans-67" d="M 2906 1791 
Q 2906 2416 2648 2759 
Q 2391 3103 1925 3103 
Q 1463 3103 1205 2759 
Q 947 2416 947 1791 
Q 947 1169 1205 825 
Q 1463 481 1925 481 
Q 2391 481 2648 825 
Q 2906 1169 2906 1791 
z
M 3481 434 
Q 3481 -459 3084 -895 
Q 2688 -1331 1869 -1331 
Q 1566 -1331 1297 -1286 
Q 1028 -1241 775 -1147 
L 775 -588 
Q 1028 -725 1275 -790 
Q 1522 -856 1778 -856 
Q 2344 -856 2625 -561 
Q 2906 -266 2906 331 
L 2906 616 
Q 2728 306 2450 153 
Q 2172 0 1784 0 
Q 1141 0 747 490 
Q 353 981 353 1791 
Q 353 2603 747 3093 
Q 1141 3584 1784 3584 
Q 2172 3584 2450 3431 
Q 2728 3278 2906 2969 
L 2906 3500 
L 3481 3500 
L 3481 434 
z
" transform="scale(0.015625)"/>
       </defs>
       <use xlink:href="#DejaVuSans-32"/>
       <use xlink:href="#DejaVuSans-30" x="63.623047"/>
       <use xlink:href="#DejaVuSans-32" x="127.246094"/>
       <use xlink:href="#DejaVuSans-31" x="190.869141"/>
       <use xlink:href="#DejaVuSans-2d" x="254.492188"/>
       <use xlink:href="#DejaVuSans-41" x="288.326172"/>
       <use xlink:href="#DejaVuSans-75" x="356.734375"/>
       <use xlink:href="#DejaVuSans-67" x="420.113281"/>
       <use xlink:href="#DejaVuSans-2d" x="483.589844"/>
       <use xlink:href="#DejaVuSans-30" x="519.673828"/>
       <use xlink:href="#DejaVuSans-31" x="583.296875"/>
      </g>
     </g>
    </g>
    <g id="xtick_11">
     <g id="line2d_11">
      <g>
       <use xlink:href="#mefa3fb2ef4" x="363.165394" y="194.725312" style="stroke: #000000; stroke-width: 0.8"/>
      </g>
     </g>
     <g id="text_11">
      <!-- 2021-Sep-01 -->
      <g transform="translate(306.491537 240.426065)rotate(-30)scale(0.1 -0.1)">
       <defs>
        <path id="DejaVuSans-53" d="M 3425 4513 
L 3425 3897 
Q 3066 4069 2747 4153 
Q 2428 4238 2131 4238 
Q 1616 4238 1336 4038 
Q 1056 3838 1056 3469 
Q 1056 3159 1242 3001 
Q 1428 2844 1947 2747 
L 2328 2669 
Q 3034 2534 3370 2195 
Q 3706 1856 3706 1288 
Q 3706 609 3251 259 
Q 2797 -91 1919 -91 
Q 1588 -91 1214 -16 
Q 841 59 441 206 
L 441 856 
Q 825 641 1194 531 
Q 1563 422 1919 422 
Q 2459 422 2753 634 
Q 3047 847 3047 1241 
Q 3047 1584 2836 1778 
Q 2625 1972 2144 2069 
L 1759 2144 
Q 1053 2284 737 2584 
Q 422 2884 422 3419 
Q 422 4038 858 4394 
Q 1294 4750 2059 4750 
Q 2388 4750 2728 4690 
Q 3069 4631 3425 4513 
z
" transform="scale(0.015625)"/>
       </defs>
       <use xlink:href="#DejaVuSans-32"/>
       <use xlink:href="#DejaVuSans-30" x="63.623047"/>
       <use xlink:href="#DejaVuSans-32" x="127.246094"/>
       <use xlink:href="#DejaVuSans-31" x="190.869141"/>
       <use xlink:href="#DejaVuSans-2d" x="254.492188"/>
       <use xlink:href="#DejaVuSans-53" x="290.576172"/>
       <use xlink:href="#DejaVuSans-65" x="354.052734"/>
       <use xlink:href="#DejaVuSans-70" x="415.576172"/>
       <use xlink:href="#DejaVuSans-2d" x="479.052734"/>
       <use xlink:href="#DejaVuSans-30" x="515.136719"/>
       <use xlink:href="#DejaVuSans-31" x="578.759766"/>
      </g>
     </g>
    </g>
    <g id="xtick_12">
     <g id="line2d_12">
      <g>
       <use xlink:href="#mefa3fb2ef4" x="392.291101" y="194.725312" style="stroke: #000000; stroke-width: 0.8"/>
      </g>
     </g>
     <g id="text_12">
      <!-- 2021-Oct-01 -->
      <g transform="translate(336.729546 239.783877)rotate(-30)scale(0.1 -0.1)">
       <defs>
        <path id="DejaVuSans-4f" d="M 2522 4238 
Q 1834 4238 1429 3725 
Q 1025 3213 1025 2328 
Q 1025 1447 1429 934 
Q 1834 422 2522 422 
Q 3209 422 3611 934 
Q 4013 1447 4013 2328 
Q 4013 3213 3611 3725 
Q 3209 4238 2522 4238 
z
M 2522 4750 
Q 3503 4750 4090 4092 
Q 4678 3434 4678 2328 
Q 4678 1225 4090 567 
Q 3503 -91 2522 -91 
Q 1538 -91 948 565 
Q 359 1222 359 2328 
Q 359 3434 948 4092 
Q 1538 4750 2522 4750 
z
" transform="scale(0.015625)"/>
        <path id="DejaVuSans-74" d="M 1172 4494 
L 1172 3500 
L 2356 3500 
L 2356 3053 
L 1172 3053 
L 1172 1153 
Q 1172 725 1289 603 
Q 1406 481 1766 481 
L 2356 481 
L 2356 0 
L 1766 0 
Q 1100 0 847 248 
Q 594 497 594 1153 
L 594 3053 
L 172 3053 
L 172 3500 
L 594 3500 
L 594 4494 
L 1172 4494 
z
" transform="scale(0.015625)"/>
       </defs>
       <use xlink:href="#DejaVuSans-32"/>
       <use xlink:href="#DejaVuSans-30" x="63.623047"/>
       <use xlink:href="#DejaVuSans-32" x="127.246094"/>
       <use xlink:href="#DejaVuSans-31" x="190.869141"/>
       <use xlink:href="#DejaVuSans-2d" x="254.492188"/>
       <use xlink:href="#DejaVuSans-4f" x="293.326172"/>
       <use xlink:href="#DejaVuSans-63" x="372.037109"/>
       <use xlink:href="#DejaVuSans-74" x="427.017578"/>
       <use xlink:href="#DejaVuSans-2d" x="466.226562"/>
       <use xlink:href="#DejaVuSans-30" x="502.310547"/>
       <use xlink:href="#DejaVuSans-31" x="565.933594"/>
      </g>
     </g>
    </g>
    <g id="xtick_13">
     <g id="line2d_13">
      <g>
       <use xlink:href="#mefa3fb2ef4" x="422.387665" y="194.725312" style="stroke: #000000; stroke-width: 0.8"/>
      </g>
     </g>
     <g id="text_13">
      <!-- 2021-Nov-01 -->
      <g transform="translate(365.361985 240.62919)rotate(-30)scale(0.1 -0.1)">
       <use xlink:href="#DejaVuSans-32"/>
       <use xlink:href="#DejaVuSans-30" x="63.623047"/>
       <use xlink:href="#DejaVuSans-32" x="127.246094"/>
       <use xlink:href="#DejaVuSans-31" x="190.869141"/>
       <use xlink:href="#DejaVuSans-2d" x="254.492188"/>
       <use xlink:href="#DejaVuSans-4e" x="290.576172"/>
       <use xlink:href="#DejaVuSans-6f" x="365.380859"/>
       <use xlink:href="#DejaVuSans-76" x="426.5625"/>
       <use xlink:href="#DejaVuSans-2d" x="483.117188"/>
       <use xlink:href="#DejaVuSans-30" x="519.201172"/>
       <use xlink:href="#DejaVuSans-31" x="582.824219"/>
      </g>
     </g>
    </g>
    <g id="xtick_14">
     <g id="line2d_14">
      <g>
       <use xlink:href="#mefa3fb2ef4" x="451.513372" y="194.725312" style="stroke: #000000; stroke-width: 0.8"/>
      </g>
     </g>
     <g id="text_14">
      <!-- 2021-Dec-01 -->
      <g transform="translate(394.405149 240.676846)rotate(-30)scale(0.1 -0.1)">
       <use xlink:href="#DejaVuSans-32"/>
       <use xlink:href="#DejaVuSans-30" x="63.623047"/>
       <use xlink:href="#DejaVuSans-32" x="127.246094"/>
       <use xlink:href="#DejaVuSans-31" x="190.869141"/>
       <use xlink:href="#DejaVuSans-2d" x="254.492188"/>
       <use xlink:href="#DejaVuSans-44" x="290.576172"/>
       <use xlink:href="#DejaVuSans-65" x="367.578125"/>
       <use xlink:href="#DejaVuSans-63" x="429.101562"/>
       <use xlink:href="#DejaVuSans-2d" x="484.082031"/>
       <use xlink:href="#DejaVuSans-30" x="520.166016"/>
       <use xlink:href="#DejaVuSans-31" x="583.789062"/>
      </g>
     </g>
    </g>
    <g id="xtick_15">
     <g id="line2d_15">
      <g>
       <use xlink:href="#mefa3fb2ef4" x="481.609935" y="194.725312" style="stroke: #000000; stroke-width: 0.8"/>
      </g>
     </g>
     <g id="text_15">
      <!-- 2022-Jan-01 -->
      <g transform="translate(427.423195 238.990127)rotate(-30)scale(0.1 -0.1)">
       <use xlink:href="#DejaVuSans-32"/>
       <use xlink:href="#DejaVuSans-30" x="63.623047"/>
       <use xlink:href="#DejaVuSans-32" x="127.246094"/>
       <use xlink:href="#DejaVuSans-32" x="190.869141"/>
       <use xlink:href="#DejaVuSans-2d" x="254.492188"/>
       <use xlink:href="#DejaVuSans-4a" x="296.201172"/>
       <use xlink:href="#DejaVuSans-61" x="325.693359"/>
       <use xlink:href="#DejaVuSans-6e" x="386.972656"/>
       <use xlink:href="#DejaVuSans-2d" x="450.351562"/>
       <use xlink:href="#DejaVuSans-30" x="486.435547"/>
       <use xlink:href="#DejaVuSans-31" x="550.058594"/>
      </g>
     </g>
    </g>
   </g>
   <g id="matplotlib.axis_2">
    <g id="ytick_1">
     <g id="line2d_16">
      <path d="M 53.559131 181.79387 
L 499.959131 181.79387 
" clip-path="url(#pa336aa56f7)" style="fill: none; stroke: #b0b0b0; stroke-width: 0.8; stroke-linecap: square"/>
     </g>
     <g id="line2d_17">
      <defs>
       <path id="m59e8d7a94a" d="M 0 0 
L -3.5 0 
" style="stroke: #000000; stroke-width: 0.8"/>
      </defs>
      <g>
       <use xlink:href="#m59e8d7a94a" x="53.559131" y="181.79387" style="stroke: #000000; stroke-width: 0.8"/>
      </g>
     </g>
     <g id="text_16">
      <!-- 10 -->
      <g transform="translate(33.834131 185.593089)scale(0.1 -0.1)">
       <use xlink:href="#DejaVuSans-31"/>
       <use xlink:href="#DejaVuSans-30" x="63.623047"/>
      </g>
     </g>
    </g>
    <g id="ytick_2">
     <g id="line2d_18">
      <path d="M 53.559131 155.804146 
L 499.959131 155.804146 
" clip-path="url(#pa336aa56f7)" style="fill: none; stroke: #b0b0b0; stroke-width: 0.8; stroke-linecap: square"/>
     </g>
     <g id="line2d_19">
      <g>
       <use xlink:href="#m59e8d7a94a" x="53.559131" y="155.804146" style="stroke: #000000; stroke-width: 0.8"/>
      </g>
     </g>
     <g id="text_17">
      <!-- 20 -->
      <g transform="translate(33.834131 159.603365)scale(0.1 -0.1)">
       <use xlink:href="#DejaVuSans-32"/>
       <use xlink:href="#DejaVuSans-30" x="63.623047"/>
      </g>
     </g>
    </g>
    <g id="ytick_3">
     <g id="line2d_20">
      <path d="M 53.559131 129.814422 
L 499.959131 129.814422 
" clip-path="url(#pa336aa56f7)" style="fill: none; stroke: #b0b0b0; stroke-width: 0.8; stroke-linecap: square"/>
     </g>
     <g id="line2d_21">
      <g>
       <use xlink:href="#m59e8d7a94a" x="53.559131" y="129.814422" style="stroke: #000000; stroke-width: 0.8"/>
      </g>
     </g>
     <g id="text_18">
      <!-- 30 -->
      <g transform="translate(33.834131 133.613641)scale(0.1 -0.1)">
       <defs>
        <path id="DejaVuSans-33" d="M 2597 2516 
Q 3050 2419 3304 2112 
Q 3559 1806 3559 1356 
Q 3559 666 3084 287 
Q 2609 -91 1734 -91 
Q 1441 -91 1130 -33 
Q 819 25 488 141 
L 488 750 
Q 750 597 1062 519 
Q 1375 441 1716 441 
Q 2309 441 2620 675 
Q 2931 909 2931 1356 
Q 2931 1769 2642 2001 
Q 2353 2234 1838 2234 
L 1294 2234 
L 1294 2753 
L 1863 2753 
Q 2328 2753 2575 2939 
Q 2822 3125 2822 3475 
Q 2822 3834 2567 4026 
Q 2313 4219 1838 4219 
Q 1578 4219 1281 4162 
Q 984 4106 628 3988 
L 628 4550 
Q 988 4650 1302 4700 
Q 1616 4750 1894 4750 
Q 2613 4750 3031 4423 
Q 3450 4097 3450 3541 
Q 3450 3153 3228 2886 
Q 3006 2619 2597 2516 
z
" transform="scale(0.015625)"/>
       </defs>
       <use xlink:href="#DejaVuSans-33"/>
       <use xlink:href="#DejaVuSans-30" x="63.623047"/>
      </g>
     </g>
    </g>
    <g id="ytick_4">
     <g id="line2d_22">
      <path d="M 53.559131 103.824699 
L 499.959131 103.824699 
" clip-path="url(#pa336aa56f7)" style="fill: none; stroke: #b0b0b0; stroke-width: 0.8; stroke-linecap: square"/>
     </g>
     <g id="line2d_23">
      <g>
       <use xlink:href="#m59e8d7a94a" x="53.559131" y="103.824699" style="stroke: #000000; stroke-width: 0.8"/>
      </g>
     </g>
     <g id="text_19">
      <!-- 40 -->
      <g transform="translate(33.834131 107.623918)scale(0.1 -0.1)">
       <defs>
        <path id="DejaVuSans-34" d="M 2419 4116 
L 825 1625 
L 2419 1625 
L 2419 4116 
z
M 2253 4666 
L 3047 4666 
L 3047 1625 
L 3713 1625 
L 3713 1100 
L 3047 1100 
L 3047 0 
L 2419 0 
L 2419 1100 
L 313 1100 
L 313 1709 
L 2253 4666 
z
" transform="scale(0.015625)"/>
       </defs>
       <use xlink:href="#DejaVuSans-34"/>
       <use xlink:href="#DejaVuSans-30" x="63.623047"/>
      </g>
     </g>
    </g>
    <g id="ytick_5">
     <g id="line2d_24">
      <path d="M 53.559131 77.834975 
L 499.959131 77.834975 
" clip-path="url(#pa336aa56f7)" style="fill: none; stroke: #b0b0b0; stroke-width: 0.8; stroke-linecap: square"/>
     </g>
     <g id="line2d_25">
      <g>
       <use xlink:href="#m59e8d7a94a" x="53.559131" y="77.834975" style="stroke: #000000; stroke-width: 0.8"/>
      </g>
     </g>
     <g id="text_20">
      <!-- 50 -->
      <g transform="translate(33.834131 81.634194)scale(0.1 -0.1)">
       <defs>
        <path id="DejaVuSans-35" d="M 691 4666 
L 3169 4666 
L 3169 4134 
L 1269 4134 
L 1269 2991 
Q 1406 3038 1543 3061 
Q 1681 3084 1819 3084 
Q 2600 3084 3056 2656 
Q 3513 2228 3513 1497 
Q 3513 744 3044 326 
Q 2575 -91 1722 -91 
Q 1428 -91 1123 -41 
Q 819 9 494 109 
L 494 744 
Q 775 591 1075 516 
Q 1375 441 1709 441 
Q 2250 441 2565 725 
Q 2881 1009 2881 1497 
Q 2881 1984 2565 2268 
Q 2250 2553 1709 2553 
Q 1456 2553 1204 2497 
Q 953 2441 691 2322 
L 691 4666 
z
" transform="scale(0.015625)"/>
       </defs>
       <use xlink:href="#DejaVuSans-35"/>
       <use xlink:href="#DejaVuSans-30" x="63.623047"/>
      </g>
     </g>
    </g>
    <g id="ytick_6">
     <g id="line2d_26">
      <path d="M 53.559131 51.845251 
L 499.959131 51.845251 
" clip-path="url(#pa336aa56f7)" style="fill: none; stroke: #b0b0b0; stroke-width: 0.8; stroke-linecap: square"/>
     </g>
     <g id="line2d_27">
      <g>
       <use xlink:href="#m59e8d7a94a" x="53.559131" y="51.845251" style="stroke: #000000; stroke-width: 0.8"/>
      </g>
     </g>
     <g id="text_21">
      <!-- 60 -->
      <g transform="translate(33.834131 55.64447)scale(0.1 -0.1)">
       <defs>
        <path id="DejaVuSans-36" d="M 2113 2584 
Q 1688 2584 1439 2293 
Q 1191 2003 1191 1497 
Q 1191 994 1439 701 
Q 1688 409 2113 409 
Q 2538 409 2786 701 
Q 3034 994 3034 1497 
Q 3034 2003 2786 2293 
Q 2538 2584 2113 2584 
z
M 3366 4563 
L 3366 3988 
Q 3128 4100 2886 4159 
Q 2644 4219 2406 4219 
Q 1781 4219 1451 3797 
Q 1122 3375 1075 2522 
Q 1259 2794 1537 2939 
Q 1816 3084 2150 3084 
Q 2853 3084 3261 2657 
Q 3669 2231 3669 1497 
Q 3669 778 3244 343 
Q 2819 -91 2113 -91 
Q 1303 -91 875 529 
Q 447 1150 447 2328 
Q 447 3434 972 4092 
Q 1497 4750 2381 4750 
Q 2619 4750 2861 4703 
Q 3103 4656 3366 4563 
z
" transform="scale(0.015625)"/>
       </defs>
       <use xlink:href="#DejaVuSans-36"/>
       <use xlink:href="#DejaVuSans-30" x="63.623047"/>
      </g>
     </g>
    </g>
    <g id="ytick_7">
     <g id="line2d_28">
      <path d="M 53.559131 25.855528 
L 499.959131 25.855528 
" clip-path="url(#pa336aa56f7)" style="fill: none; stroke: #b0b0b0; stroke-width: 0.8; stroke-linecap: square"/>
     </g>
     <g id="line2d_29">
      <g>
       <use xlink:href="#m59e8d7a94a" x="53.559131" y="25.855528" style="stroke: #000000; stroke-width: 0.8"/>
      </g>
     </g>
     <g id="text_22">
      <!-- 70 -->
      <g transform="translate(33.834131 29.654746)scale(0.1 -0.1)">
       <defs>
        <path id="DejaVuSans-37" d="M 525 4666 
L 3525 4666 
L 3525 4397 
L 1831 0 
L 1172 0 
L 2766 4134 
L 525 4134 
L 525 4666 
z
" transform="scale(0.015625)"/>
       </defs>
       <use xlink:href="#DejaVuSans-37"/>
       <use xlink:href="#DejaVuSans-30" x="63.623047"/>
      </g>
     </g>
    </g>
    <g id="text_23">
     <!-- Percentage Of directives present in CSPs -->
     <g transform="translate(27.754443 210.890625)rotate(-90)scale(0.1 -0.1)">
      <defs>
       <path id="DejaVuSans-50" d="M 1259 4147 
L 1259 2394 
L 2053 2394 
Q 2494 2394 2734 2622 
Q 2975 2850 2975 3272 
Q 2975 3691 2734 3919 
Q 2494 4147 2053 4147 
L 1259 4147 
z
M 628 4666 
L 2053 4666 
Q 2838 4666 3239 4311 
Q 3641 3956 3641 3272 
Q 3641 2581 3239 2228 
Q 2838 1875 2053 1875 
L 1259 1875 
L 1259 0 
L 628 0 
L 628 4666 
z
" transform="scale(0.015625)"/>
       <path id="DejaVuSans-20" transform="scale(0.015625)"/>
       <path id="DejaVuSans-66" d="M 2375 4863 
L 2375 4384 
L 1825 4384 
Q 1516 4384 1395 4259 
Q 1275 4134 1275 3809 
L 1275 3500 
L 2222 3500 
L 2222 3053 
L 1275 3053 
L 1275 0 
L 697 0 
L 697 3053 
L 147 3053 
L 147 3500 
L 697 3500 
L 697 3744 
Q 697 4328 969 4595 
Q 1241 4863 1831 4863 
L 2375 4863 
z
" transform="scale(0.015625)"/>
       <path id="DejaVuSans-64" d="M 2906 2969 
L 2906 4863 
L 3481 4863 
L 3481 0 
L 2906 0 
L 2906 525 
Q 2725 213 2448 61 
Q 2172 -91 1784 -91 
Q 1150 -91 751 415 
Q 353 922 353 1747 
Q 353 2572 751 3078 
Q 1150 3584 1784 3584 
Q 2172 3584 2448 3432 
Q 2725 3281 2906 2969 
z
M 947 1747 
Q 947 1113 1208 752 
Q 1469 391 1925 391 
Q 2381 391 2643 752 
Q 2906 1113 2906 1747 
Q 2906 2381 2643 2742 
Q 2381 3103 1925 3103 
Q 1469 3103 1208 2742 
Q 947 2381 947 1747 
z
" transform="scale(0.015625)"/>
       <path id="DejaVuSans-69" d="M 603 3500 
L 1178 3500 
L 1178 0 
L 603 0 
L 603 3500 
z
M 603 4863 
L 1178 4863 
L 1178 4134 
L 603 4134 
L 603 4863 
z
" transform="scale(0.015625)"/>
       <path id="DejaVuSans-73" d="M 2834 3397 
L 2834 2853 
Q 2591 2978 2328 3040 
Q 2066 3103 1784 3103 
Q 1356 3103 1142 2972 
Q 928 2841 928 2578 
Q 928 2378 1081 2264 
Q 1234 2150 1697 2047 
L 1894 2003 
Q 2506 1872 2764 1633 
Q 3022 1394 3022 966 
Q 3022 478 2636 193 
Q 2250 -91 1575 -91 
Q 1294 -91 989 -36 
Q 684 19 347 128 
L 347 722 
Q 666 556 975 473 
Q 1284 391 1588 391 
Q 1994 391 2212 530 
Q 2431 669 2431 922 
Q 2431 1156 2273 1281 
Q 2116 1406 1581 1522 
L 1381 1569 
Q 847 1681 609 1914 
Q 372 2147 372 2553 
Q 372 3047 722 3315 
Q 1072 3584 1716 3584 
Q 2034 3584 2315 3537 
Q 2597 3491 2834 3397 
z
" transform="scale(0.015625)"/>
       <path id="DejaVuSans-43" d="M 4122 4306 
L 4122 3641 
Q 3803 3938 3442 4084 
Q 3081 4231 2675 4231 
Q 1875 4231 1450 3742 
Q 1025 3253 1025 2328 
Q 1025 1406 1450 917 
Q 1875 428 2675 428 
Q 3081 428 3442 575 
Q 3803 722 4122 1019 
L 4122 359 
Q 3791 134 3420 21 
Q 3050 -91 2638 -91 
Q 1578 -91 968 557 
Q 359 1206 359 2328 
Q 359 3453 968 4101 
Q 1578 4750 2638 4750 
Q 3056 4750 3426 4639 
Q 3797 4528 4122 4306 
z
" transform="scale(0.015625)"/>
      </defs>
      <use xlink:href="#DejaVuSans-50"/>
      <use xlink:href="#DejaVuSans-65" x="56.677734"/>
      <use xlink:href="#DejaVuSans-72" x="118.201172"/>
      <use xlink:href="#DejaVuSans-63" x="157.064453"/>
      <use xlink:href="#DejaVuSans-65" x="212.044922"/>
      <use xlink:href="#DejaVuSans-6e" x="273.568359"/>
      <use xlink:href="#DejaVuSans-74" x="336.947266"/>
      <use xlink:href="#DejaVuSans-61" x="376.15625"/>
      <use xlink:href="#DejaVuSans-67" x="437.435547"/>
      <use xlink:href="#DejaVuSans-65" x="500.912109"/>
      <use xlink:href="#DejaVuSans-20" x="562.435547"/>
      <use xlink:href="#DejaVuSans-4f" x="594.222656"/>
      <use xlink:href="#DejaVuSans-66" x="672.933594"/>
      <use xlink:href="#DejaVuSans-20" x="708.138672"/>
      <use xlink:href="#DejaVuSans-64" x="739.925781"/>
      <use xlink:href="#DejaVuSans-69" x="803.402344"/>
      <use xlink:href="#DejaVuSans-72" x="831.185547"/>
      <use xlink:href="#DejaVuSans-65" x="870.048828"/>
      <use xlink:href="#DejaVuSans-63" x="931.572266"/>
      <use xlink:href="#DejaVuSans-74" x="986.552734"/>
      <use xlink:href="#DejaVuSans-69" x="1025.761719"/>
      <use xlink:href="#DejaVuSans-76" x="1053.544922"/>
      <use xlink:href="#DejaVuSans-65" x="1112.724609"/>
      <use xlink:href="#DejaVuSans-73" x="1174.248047"/>
      <use xlink:href="#DejaVuSans-20" x="1226.347656"/>
      <use xlink:href="#DejaVuSans-70" x="1258.134766"/>
      <use xlink:href="#DejaVuSans-72" x="1321.611328"/>
      <use xlink:href="#DejaVuSans-65" x="1360.474609"/>
      <use xlink:href="#DejaVuSans-73" x="1421.998047"/>
      <use xlink:href="#DejaVuSans-65" x="1474.097656"/>
      <use xlink:href="#DejaVuSans-6e" x="1535.621094"/>
      <use xlink:href="#DejaVuSans-74" x="1599"/>
      <use xlink:href="#DejaVuSans-20" x="1638.208984"/>
      <use xlink:href="#DejaVuSans-69" x="1669.996094"/>
      <use xlink:href="#DejaVuSans-6e" x="1697.779297"/>
      <use xlink:href="#DejaVuSans-20" x="1761.158203"/>
      <use xlink:href="#DejaVuSans-43" x="1792.945312"/>
      <use xlink:href="#DejaVuSans-53" x="1862.769531"/>
      <use xlink:href="#DejaVuSans-50" x="1926.246094"/>
      <use xlink:href="#DejaVuSans-73" x="1984.798828"/>
     </g>
    </g>
   </g>
   <g id="line2d_30">
    <path d="M 73.85004 54.022401 
L 74.820897 52.951197 
L 75.791754 54.581012 
L 76.762611 54.022401 
L 77.733467 54.823241 
L 78.704324 53.178058 
L 79.675181 53.178058 
L 80.646038 54.022401 
L 81.616895 52.640855 
L 82.587752 49.645063 
L 83.558609 52.395298 
L 84.529466 53.469609 
L 85.500323 56.400151 
L 86.47118 53.213132 
L 87.442036 53.469609 
L 88.412893 53.178058 
L 91.325464 54.581012 
L 92.296321 53.428382 
L 93.267178 50.789831 
L 94.238035 54.510864 
L 95.208892 53.966861 
L 96.179748 56.962399 
L 97.150605 57.530503 
L 98.121462 56.962399 
L 99.092319 55.292868 
L 100.063176 54.269163 
L 101.034033 55.060475 
L 102.00489 54.333629 
L 102.975747 56.743838 
L 103.946604 54.581012 
L 104.917461 56.87552 
L 105.888317 54.823241 
L 106.859174 55.38312 
L 107.830031 54.823241 
L 108.800888 52.395298 
L 109.771745 51.286333 
L 110.742602 54.333629 
L 111.713459 55.615781 
L 112.684316 53.720798 
L 113.655173 54.823241 
L 115.596886 54.902866 
L 116.567743 52.951197 
L 117.5386 51.568765 
L 118.509457 56.520651 
L 119.480314 53.250101 
L 120.451171 52.381122 
L 121.422028 53.213132 
L 122.392885 55.38312 
L 123.363742 55.716061 
L 124.334598 58.272817 
L 127.247169 55.38312 
L 129.188883 55.145534 
L 130.15974 54.823241 
L 131.130597 56.400151 
L 132.101454 53.469609 
L 133.07231 55.948892 
L 134.043167 56.743838 
L 135.014024 56.618874 
L 135.984881 54.747657 
L 136.955738 56.400151 
L 137.926595 55.292868 
L 140.839166 57.176477 
L 143.751736 51.589195 
L 144.722593 56.500127 
L 145.69345 51.080848 
L 146.664307 54.829717 
L 147.635164 53.62886 
L 148.606021 53.113043 
L 157.343733 54.902866 
L 158.31459 54.747657 
L 160.256303 56.285707 
L 162.198017 54.510864 
L 163.168874 57.94488 
L 164.139731 57.793148 
L 165.110588 55.38312 
L 166.081445 56.285707 
L 167.052302 61.108915 
L 168.023159 61.591398 
L 168.994016 58.374071 
L 169.964872 61.509772 
L 170.935729 58.535675 
L 171.906586 62.507702 
L 172.877443 61.344034 
L 173.8483 60.771015 
L 174.819157 58.14579 
L 175.790014 62.965233 
L 176.760871 62.965233 
L 177.731728 62.083627 
L 178.702584 61.509772 
L 179.673441 61.272896 
L 180.644298 57.450878 
L 181.615155 57.793148 
L 182.586012 56.176872 
L 183.556869 58.724884 
L 184.527726 59.086169 
L 185.498583 57.990605 
L 186.46944 56.387145 
L 187.440297 59.822295 
L 188.411153 59.452 
L 189.38201 60.379191 
L 190.352867 58.724884 
L 191.323724 58.724884 
L 192.294581 60.885155 
L 194.236295 59.452 
L 195.207152 57.316772 
L 196.178009 59.452 
L 197.148865 60.172056 
L 198.119722 59.99889 
L 210.740862 55.343868 
L 211.711719 56.073245 
L 212.682576 56.593374 
L 213.653433 57.990605 
L 214.62429 57.450878 
L 215.595146 57.118529 
L 216.566003 57.84288 
L 217.53686 57.450878 
L 218.507717 58.724884 
L 219.478574 55.648626 
L 220.449431 58.535675 
L 221.420288 57.450878 
L 222.391145 58.342682 
L 223.362002 56.916417 
L 226.274572 56.710323 
L 227.245429 63.540627 
L 228.216286 62.815788 
L 229.187143 61.672212 
L 230.158 63.248906 
L 231.128857 62.815788 
L 232.099714 62.663309 
L 233.070571 63.098534 
L 234.041427 63.695488 
L 236.953998 64.43821 
L 237.924855 66.268868 
L 239.866569 67.521593 
L 240.837426 67.005924 
L 241.808283 68.259814 
L 245.69171 63.695488 
L 246.662567 62.945029 
L 247.633424 64.298661 
L 248.604281 64.43821 
L 249.575138 63.248906 
L 250.545995 61.509772 
L 251.516852 59.458403 
L 252.487708 63.840508 
L 253.458565 62.083627 
L 255.400279 64.840113 
L 256.371136 64.258254 
L 257.341993 65.30186 
L 258.31285 65.900918 
L 259.283707 67.838928 
L 260.254564 63.982584 
L 261.22542 64.708852 
L 262.196277 64.574912 
L 263.167134 63.982584 
L 264.137991 63.982584 
L 265.108848 64.121804 
L 266.079705 62.815788 
L 267.050562 62.965233 
L 268.021419 62.395535 
L 268.992276 64.392015 
L 269.963133 63.682155 
L 270.933989 63.682155 
L 271.904846 62.965233 
L 272.875703 61.831451 
L 273.84656 60.941655 
L 274.817417 62.965233 
L 275.788274 62.241141 
L 276.759131 60.024758 
L 277.729988 60.379191 
L 278.700845 60.551169 
L 279.671701 60.379191 
L 280.642558 61.987583 
L 281.613415 59.270887 
L 282.584272 61.672212 
L 283.555129 63.111733 
L 284.525986 61.509772 
L 285.496843 64.574912 
L 286.4677 60.941655 
L 287.438557 61.672212 
L 288.409414 60.379191 
L 289.38027 59.99889 
L 290.351127 58.342682 
L 291.321984 59.458403 
L 292.292841 58.342682 
L 293.263698 59.642169 
L 294.234555 60.024758 
L 296.176269 60.941655 
L 299.088839 59.822295 
L 301.030553 60.551169 
L 304.913981 59.99889 
L 305.884838 58.724884 
L 333.068831 59.092386 
L 334.039688 61.831451 
L 335.010544 61.272896 
L 335.981401 60.551169 
L 336.952258 59.452 
L 337.923115 59.629613 
L 338.893972 61.272896 
L 339.864829 59.822295 
L 340.835686 60.719791 
L 341.806543 63.956967 
L 342.7774 61.987583 
L 343.748257 62.69533 
L 344.719113 65.094914 
L 345.68997 64.258254 
L 346.660827 60.719791 
L 347.631684 66.480241 
L 348.602541 66.844296 
L 349.573398 66.733837 
L 350.544255 66.255395 
L 368.019679 61.047355 
L 368.990536 59.44602 
L 370.93225 59.44602 
L 371.903106 62.58279 
L 372.873963 63.534409 
L 373.84482 61.515846 
L 374.815677 61.047355 
L 375.786534 60.14244 
L 377.728248 62.58279 
L 378.699105 60.989784 
L 379.669962 60.46857 
L 380.640818 62.046825 
L 381.611675 60.989784 
L 382.582532 59.270887 
L 383.553389 59.440422 
L 384.524246 59.952138 
L 385.495103 60.114709 
L 389.378531 58.403406 
L 390.349387 60.14244 
L 391.320244 58.583328 
L 392.291101 60.627167 
L 393.261958 60.114709 
L 394.232815 59.952138 
L 395.203672 58.253676 
L 396.174529 57.3801 
L 397.145386 59.270887 
L 398.116243 60.627167 
L 399.087099 58.759949 
L 400.057956 55.677837 
L 401.028813 58.933358 
L 401.99967 57.188933 
L 402.970527 59.786556 
L 403.941384 58.742998 
L 404.912241 60.508493 
L 405.883098 56.279517 
L 406.853955 55.558069 
L 407.824812 57.118529 
L 408.795668 56.387145 
L 409.766525 57.648782 
L 410.737382 56.387145 
L 411.708239 57.84288 
L 412.679096 56.795675 
L 413.649953 57.316772 
L 414.62081 56.481916 
L 415.591667 56.795675 
L 416.562524 57.511258 
L 417.53338 57.84288 
L 419.475094 61.272896 
L 420.445951 62.395535 
L 421.416808 61.272896 
L 422.387665 60.551169 
L 423.358522 61.108915 
L 424.329379 59.99889 
L 425.300236 60.203755 
L 427.241949 58.342682 
L 428.212806 58.724884 
L 429.183663 59.270887 
L 430.15452 57.249055 
L 431.125377 58.535675 
L 434.037948 61.509772 
L 435.008805 62.965233 
L 435.979661 57.990605 
L 436.950518 61.831451 
L 437.921375 60.341892 
L 438.892232 60.719791 
L 439.863089 60.551169 
L 440.833946 57.450878 
L 441.804803 60.172056 
L 442.77566 61.272896 
L 443.746517 61.272896 
L 444.717374 62.140697 
L 445.68823 62.546902 
L 446.659087 61.272896 
L 447.629944 60.885155 
L 448.600801 61.987583 
L 449.571658 60.885155 
L 450.542515 61.206479 
L 451.513372 61.206479 
L 452.484229 61.591398 
L 453.455086 61.047355 
L 454.425942 62.840904 
L 455.396799 61.591398 
L 456.367656 62.983704 
L 457.338513 61.746099 
L 458.30937 63.534409 
L 459.280227 64.09041 
L 460.251084 62.983704 
L 461.221941 62.140697 
L 462.192798 65.907324 
L 463.163655 65.790957 
L 464.134511 64.392015 
L 465.105368 65.907324 
L 466.076225 63.111733 
L 467.047082 65.790957 
L 469.959653 62.546902 
L 470.93051 62.140697 
L 471.901367 59.642169 
L 472.872223 59.99889 
L 473.84308 62.395535 
L 474.813937 60.771015 
L 475.784794 63.39624 
L 476.755651 61.591398 
L 477.726508 61.002252 
L 478.697365 64.121804 
L 479.668222 60.941655 
L 479.668222 60.941655 
" clip-path="url(#pa336aa56f7)" style="fill: none; stroke: #1f77b4; stroke-width: 1.5; stroke-linecap: square"/>
   </g>
   <g id="line2d_31">
    <path d="M 73.85004 126.140482 
L 74.820897 122.072803 
L 75.791754 125.710782 
L 76.762611 124.779764 
L 77.733467 122.504813 
L 78.704324 123.816794 
L 79.675181 122.483988 
L 80.646038 123.419045 
L 81.616895 122.91919 
L 82.587752 121.151181 
L 83.558609 122.526299 
L 84.529466 122.504813 
L 85.500323 123.383975 
L 87.442036 122.504813 
L 88.412893 123.816794 
L 91.325464 122.975021 
L 92.296321 123.349973 
L 93.267178 123.349973 
L 95.208892 124.245196 
L 96.179748 126.986525 
L 97.150605 126.565707 
L 98.121462 126.986525 
L 99.092319 126.897209 
L 100.063176 126.986525 
L 101.034033 126.063328 
L 102.00489 126.220099 
L 102.975747 128.86192 
L 103.946604 127.078662 
L 104.917461 128.137666 
L 105.888317 127.919338 
L 106.859174 130.222638 
L 107.830031 127.919338 
L 108.800888 129.401887 
L 109.771745 128.137666 
L 110.742602 128.984963 
L 111.713459 129.679761 
L 112.684316 128.742681 
L 113.655173 130.626601 
L 115.596886 131.34323 
L 116.567743 128.984963 
L 117.5386 126.220099 
L 118.509457 129.401887 
L 119.480314 129.111998 
L 120.451171 126.063328 
L 121.422028 125.710782 
L 122.392885 126.140482 
L 123.363742 130.367395 
L 124.334598 130.93226 
L 125.305455 129.814422 
L 127.247169 128.86192 
L 129.188883 129.401887 
L 130.15974 127.919338 
L 131.130597 128.742681 
L 132.101454 125.212076 
L 133.07231 128.446542 
L 134.043167 128.86192 
L 135.014024 128.223215 
L 135.984881 127.307799 
L 136.955738 127.403005 
L 137.926595 126.897209 
L 140.839166 130.480826 
L 143.751736 127.12583 
L 144.722593 132.788371 
L 145.69345 130.069224 
L 146.664307 131.928419 
L 147.635164 131.34323 
L 148.606021 131.71611 
L 157.343733 128.795218 
L 158.31459 128.627075 
L 160.256303 126.810585 
L 161.22716 127.12583 
L 162.198017 127.815213 
L 163.168874 126.897209 
L 164.139731 128.909308 
L 165.110588 126.140482 
L 166.081445 128.116601 
L 167.052302 131.873014 
L 168.023159 131.563731 
L 168.994016 129.939977 
L 169.964872 129.422618 
L 170.935729 129.299774 
L 171.906586 131.813632 
L 172.877443 127.307799 
L 173.8483 129.026855 
L 174.819157 126.40163 
L 175.790014 128.909308 
L 176.760871 128.909308 
L 177.731728 127.714243 
L 178.702584 126.810585 
L 179.673441 126.247205 
L 180.644298 124.973199 
L 181.615155 126.323266 
L 182.586012 124.973199 
L 183.556869 127.521212 
L 184.527726 128.909308 
L 185.498583 128.406112 
L 186.46944 125.777184 
L 187.440297 129.299774 
L 188.411153 127.912735 
L 189.38201 128.909308 
L 190.352867 124.973199 
L 192.294581 127.428892 
L 194.236295 127.912735 
L 195.207152 124.467254 
L 196.178009 126.644944 
L 197.148865 127.038821 
L 198.119722 126.247205 
L 210.740862 124.066695 
L 211.711719 126.954309 
L 212.682576 125.316201 
L 213.653433 125.845548 
L 214.62429 128.795218 
L 215.595146 127.428892 
L 216.566003 127.815213 
L 217.53686 124.973199 
L 218.507717 128.795218 
L 219.478574 127.912735 
L 220.449431 128.013154 
L 221.420288 130.069224 
L 222.391145 128.514936 
L 223.362002 129.180527 
L 226.274572 128.406112 
L 227.245429 133.712881 
L 228.216286 132.03465 
L 229.187143 132.788371 
L 230.158 134.853246 
L 231.128857 132.03465 
L 232.099714 132.584901 
L 233.070571 135.441064 
L 234.041427 133.719614 
L 236.953998 135.441064 
L 237.924855 134.304794 
L 238.895712 135.285943 
L 239.866569 137.652593 
L 240.837426 137.394759 
L 241.808283 139.389584 
L 245.69171 136.41285 
L 246.662567 137.394759 
L 247.633424 137.394759 
L 248.604281 138.120417 
L 249.575138 137.505259 
L 250.545995 134.646683 
L 251.516852 134.277304 
L 252.487708 133.146438 
L 253.458565 132.964692 
L 254.429422 134.277304 
L 255.400279 137.61134 
L 256.371136 134.081392 
L 257.341993 133.904176 
L 258.31285 134.853246 
L 259.283707 137.144857 
L 260.254564 133.904176 
L 261.22542 136.902529 
L 262.196277 134.853246 
L 263.167134 137.862002 
L 264.137991 136.542727 
L 265.108848 135.952699 
L 266.079705 134.646683 
L 267.050562 136.667434 
L 268.021419 138.306114 
L 268.992276 138.648368 
L 269.963133 137.019494 
L 270.933989 138.306114 
L 271.904846 135.374413 
L 272.875703 137.368086 
L 273.84656 137.61134 
L 274.817417 136.667434 
L 275.788274 135.012367 
L 276.759131 136.542727 
L 277.729988 135.374413 
L 278.700845 136.087804 
L 279.671701 135.374413 
L 280.642558 136.787275 
L 281.613415 136.087804 
L 283.555129 137.368086 
L 284.525986 137.258715 
L 285.496843 138.831265 
L 286.4677 135.012367 
L 287.438557 136.667434 
L 288.409414 136.667434 
L 289.38027 136.439254 
L 290.351127 137.61134 
L 291.321984 138.215141 
L 292.292841 136.311853 
L 293.263698 135.012367 
L 294.234555 136.542727 
L 296.176269 136.311853 
L 299.088839 134.446254 
L 301.030553 134.807522 
L 304.913981 132.617236 
L 305.884838 130.069224 
L 333.068831 130.314225 
L 334.039688 132.246958 
L 335.010544 131.34323 
L 335.981401 130.966676 
L 336.952258 129.180527 
L 337.923115 128.684434 
L 338.893972 131.34323 
L 339.864829 130.586394 
L 340.835686 130.448318 
L 341.806543 130.823732 
L 342.7774 129.180527 
L 344.719113 135.165248 
L 346.660827 130.448318 
L 347.631684 133.347006 
L 348.602541 132.788371 
L 349.573398 134.646683 
L 350.544255 134.446254 
L 368.019679 131.928419 
L 368.990536 130.549981 
L 370.93225 129.32405 
L 371.903106 132.132755 
L 372.873963 133.171947 
L 373.84482 130.418835 
L 375.786534 130.91258 
L 376.757391 129.692405 
L 378.699105 131.980233 
L 379.669962 131.131874 
L 380.640818 132.486263 
L 381.611675 129.573777 
L 382.582532 127.538825 
L 384.524246 131.483487 
L 385.495103 129.814422 
L 389.378531 128.842844 
L 390.349387 129.692405 
L 391.320244 129.573777 
L 392.291101 130.645144 
L 393.261958 129.814422 
L 394.232815 131.483487 
L 395.203672 129.458399 
L 396.174529 128.370549 
L 397.145386 128.736508 
L 398.116243 130.645144 
L 399.087099 130.291298 
L 400.057956 127.538825 
L 401.028813 130.995774 
L 401.99967 127.628371 
L 402.970527 130.777005 
L 403.941384 130.183945 
L 404.912241 129.814422 
L 405.883098 130.183945 
L 406.853955 129.814422 
L 407.824812 129.939977 
L 408.795668 128.300458 
L 409.766525 129.562095 
L 410.737382 127.038821 
L 412.679096 128.576817 
L 413.649953 126.954309 
L 414.62081 127.252055 
L 415.591667 127.339211 
L 416.562524 127.720464 
L 417.53338 127.815213 
L 418.504237 127.428892 
L 419.475094 128.795218 
L 420.445951 126.726535 
L 421.416808 127.521212 
L 422.387665 127.12583 
L 423.358522 128.013154 
L 424.329379 126.247205 
L 425.300236 129.422618 
L 426.271093 128.406112 
L 427.241949 128.514936 
L 428.212806 127.521212 
L 430.15452 129.299774 
L 431.125377 130.586394 
L 434.037948 129.422618 
L 435.008805 130.202329 
L 435.979661 128.406112 
L 436.950518 128.406112 
L 437.921375 130.314225 
L 438.892232 130.448318 
L 439.863089 132.246958 
L 440.833946 131.34323 
L 441.804803 132.085369 
L 442.77566 130.069224 
L 443.746517 130.069224 
L 444.717374 131.195519 
L 445.68823 132.617236 
L 446.659087 130.069224 
L 447.629944 131.195519 
L 448.600801 134.251692 
L 449.571658 131.195519 
L 450.542515 131.415685 
L 451.513372 131.415685 
L 452.484229 131.563731 
L 453.455086 129.441364 
L 454.425942 126.565707 
L 455.396799 127.815213 
L 456.367656 127.339211 
L 457.338513 126.101605 
L 458.30937 125.710782 
L 459.280227 127.815213 
L 460.251084 127.339211 
L 461.221941 126.17335 
L 462.192798 128.684434 
L 464.134511 129.686394 
L 465.105368 131.195519 
L 466.076225 130.966676 
L 467.047082 130.448318 
L 469.959653 124.973199 
L 470.93051 123.662266 
L 471.901367 123.316992 
L 472.872223 122.425187 
L 473.84308 122.866675 
L 474.813937 119.838569 
L 475.784794 122.463794 
L 476.755651 119.79755 
L 477.726508 120.253436 
L 478.697365 121.58652 
L 479.668222 118.119047 
L 479.668222 118.119047 
" clip-path="url(#pa336aa56f7)" style="fill: none; stroke: #ff7f0e; stroke-width: 1.5; stroke-linecap: square"/>
   </g>
   <g id="line2d_32">
    <path d="M 73.85004 75.793897 
L 74.820897 73.687679 
L 75.791754 76.467095 
L 78.704324 74.502959 
L 80.646038 74.433179 
L 81.616895 75.182962 
L 82.587752 70.271828 
L 83.558609 74.397181 
L 84.529466 72.420449 
L 85.500323 75.155622 
L 86.47118 73.731335 
L 87.442036 73.774081 
L 88.412893 74.502959 
L 91.325464 73.731335 
L 92.296321 75.856062 
L 93.267178 74.536787 
L 94.238035 74.502959 
L 95.208892 75.182962 
L 96.179748 78.508284 
L 98.121462 77.161666 
L 99.092319 77.834975 
L 100.063176 77.161666 
L 101.034033 77.834975 
L 102.00489 76.452543 
L 102.975747 79.876053 
L 103.946604 76.467095 
L 104.917461 77.834975 
L 105.888317 76.481344 
L 106.859174 79.876053 
L 107.830031 77.834975 
L 108.800888 77.147416 
L 109.771745 75.040381 
L 110.742602 76.452543 
L 111.713459 77.161666 
L 112.684316 76.495299 
L 113.655173 77.834975 
L 115.596886 77.140063 
L 116.567743 75.070111 
L 117.5386 73.687679 
L 118.509457 75.772299 
L 119.480314 77.13255 
L 120.451171 75.155622 
L 121.422028 75.099215 
L 122.392885 74.433179 
L 123.363742 79.217407 
L 124.334598 80.629569 
L 125.305455 80.570735 
L 127.247169 77.154616 
L 129.188883 77.147416 
L 130.15974 76.481344 
L 131.130597 76.495299 
L 132.101454 73.774081 
L 133.07231 76.467095 
L 134.043167 77.154616 
L 135.014024 75.182962 
L 135.984881 74.536787 
L 136.955738 76.495299 
L 137.926595 76.508969 
L 140.839166 79.834185 
L 143.751736 72.073706 
L 144.722593 77.188465 
L 145.69345 72.738951 
L 146.664307 77.213211 
L 147.635164 76.560969 
L 148.606021 74.665497 
L 157.343733 76.560969 
L 158.31459 77.175337 
L 160.256303 81.100016 
L 161.22716 78.475116 
L 162.198017 78.501378 
L 163.168874 80.486988 
L 164.139731 81.067528 
L 165.110588 78.515334 
L 166.081445 78.487983 
L 167.052302 81.694835 
L 168.023159 84.082505 
L 168.994016 79.718288 
L 169.964872 83.712048 
L 170.935729 81.694835 
L 171.906586 86.498216 
L 172.877443 83.771714 
L 173.8483 83.085424 
L 174.819157 80.4602 
L 175.790014 83.65357 
L 176.760871 83.65357 
L 177.731728 81.772812 
L 178.702584 82.406032 
L 179.673441 81.656993 
L 180.644298 80.382987 
L 181.615155 81.067528 
L 182.586012 79.108981 
L 183.556869 81.656993 
L 184.527726 83.65357 
L 185.498583 82.315962 
L 186.46944 80.358249 
L 187.440297 82.981455 
L 188.411153 83.540036 
L 189.38201 83.65357 
L 190.352867 81.656993 
L 191.323724 81.656993 
L 192.294581 82.229373 
L 194.236295 83.540036 
L 195.207152 80.943794 
L 196.178009 83.540036 
L 197.148865 85.404798 
L 198.119722 84.205005 
L 210.740862 80.333987 
L 212.682576 81.583493 
L 213.653433 84.876526 
L 214.62429 84.205005 
L 215.595146 82.229373 
L 216.566003 82.832999 
L 217.53686 82.930999 
L 218.507717 84.205005 
L 219.478574 81.004454 
L 220.449431 84.268075 
L 221.420288 84.205005 
L 222.391145 84.332406 
L 223.362002 84.807828 
L 226.274572 84.876526 
L 227.245429 89.530351 
L 228.216286 87.630097 
L 229.187143 88.825654 
L 230.158 92.421045 
L 231.128857 88.936113 
L 232.099714 87.72954 
L 233.070571 92.571416 
L 234.041427 91.974462 
L 236.953998 95.250769 
L 237.924855 94.843957 
L 238.895712 94.249537 
L 239.866569 95.023946 
L 240.837426 96.785815 
L 241.808283 96.985298 
L 245.69171 91.974462 
L 246.662567 92.724921 
L 247.633424 90.017658 
L 248.604281 91.23174 
L 249.575138 91.095038 
L 250.545995 88.936113 
L 252.487708 90.496635 
L 253.458565 88.335874 
L 254.429422 90.961098 
L 255.400279 92.129323 
L 256.371136 91.411696 
L 257.341993 91.687366 
L 258.31285 95.073057 
L 259.283707 95.827861 
L 260.254564 91.687366 
L 261.22542 93.586323 
L 262.196277 93.747051 
L 263.167134 94.325917 
L 264.137991 91.687366 
L 265.108848 91.548146 
L 266.079705 90.24213 
L 267.050562 90.118675 
L 268.021419 90.701175 
L 268.992276 89.997654 
L 269.963133 88.127935 
L 270.933989 88.127935 
L 271.904846 86.239612 
L 272.875703 87.43709 
L 273.84656 85.631892 
L 275.788274 86.931378 
L 276.759131 85.090989 
L 277.729988 84.946591 
L 278.700845 86.156808 
L 279.671701 84.946591 
L 280.642558 87.343411 
L 281.613415 86.156808 
L 283.555129 88.717372 
L 284.525986 87.630097 
L 285.496843 89.769032 
L 286.4677 86.931378 
L 287.438557 88.825654 
L 288.409414 86.239612 
L 289.38027 85.479011 
L 290.351127 83.03292 
L 291.321984 84.398037 
L 292.292841 84.332406 
L 293.263698 83.03292 
L 294.234555 85.090989 
L 296.176269 86.931378 
L 299.088839 84.268075 
L 301.030553 86.156808 
L 304.913981 85.479011 
L 305.884838 82.930999 
L 333.068831 80.333987 
L 334.039688 82.315962 
L 335.981401 81.03568 
L 337.923115 78.462746 
L 338.893972 81.656993 
L 339.864829 80.408215 
L 340.835686 82.272245 
L 342.7774 81.004454 
L 343.748257 82.881523 
L 344.719113 84.205005 
L 345.68997 83.65357 
L 346.660827 79.736662 
L 347.631684 84.14316 
L 348.602541 84.946591 
L 349.573398 85.018065 
L 350.544255 84.268075 
L 368.019679 82.187321 
L 368.990536 80.286836 
L 370.93225 81.512766 
L 371.903106 84.545937 
L 372.873963 84.674376 
L 373.84482 80.857036 
L 374.815677 82.187321 
L 376.757391 82.105587 
L 377.728248 84.545937 
L 378.699105 82.647887 
L 379.669962 83.224549 
L 380.640818 85.121814 
L 381.611675 82.647887 
L 382.582532 80.829183 
L 383.553389 80.801839 
L 384.524246 81.411543 
L 385.495103 81.379028 
L 388.407674 77.834975 
L 389.378531 77.834975 
L 391.320244 79.038203 
L 392.291101 78.428348 
L 393.261958 79.016326 
L 394.232815 79.027164 
L 395.203672 78.428348 
L 396.174529 76.631747 
L 397.145386 76.03845 
L 398.116243 78.428348 
L 399.087099 79.027164 
L 400.057956 77.236134 
L 401.028813 80.197677 
L 401.99967 77.834975 
L 402.970527 79.038203 
L 403.941384 79.682586 
L 404.912241 81.547793 
L 405.883098 77.219105 
L 406.853955 76.597369 
L 407.824812 78.462746 
L 408.795668 75.311701 
L 409.766525 76.573338 
L 410.737382 75.311701 
L 411.708239 77.834975 
L 412.679096 77.834975 
L 413.649953 78.456739 
L 414.62081 76.004713 
L 416.562524 77.219105 
L 417.53338 79.084481 
L 419.475094 80.382987 
L 420.445951 81.694835 
L 421.416808 81.656993 
L 422.387665 82.315962 
L 423.358522 81.694835 
L 424.329379 81.656993 
L 425.300236 83.712048 
L 426.271093 83.596244 
L 427.241949 83.03292 
L 428.212806 82.930999 
L 429.183663 83.596244 
L 430.15452 82.981455 
L 431.125377 84.268075 
L 434.037948 83.712048 
L 435.979661 83.596244 
L 436.950518 82.315962 
L 437.921375 84.082505 
L 438.892232 84.807828 
L 439.863089 86.156808 
L 440.833946 85.479011 
L 442.77566 82.930999 
L 443.746517 84.205005 
L 444.717374 84.740457 
L 445.68823 86.753018 
L 446.659087 85.479011 
L 447.629944 85.995999 
L 448.600801 87.343411 
L 449.571658 85.995999 
L 450.542515 87.073029 
L 451.513372 87.073029 
L 452.484229 87.831023 
L 453.455086 85.917904 
L 454.425942 87.831023 
L 455.396799 87.831023 
L 456.367656 86.498216 
L 457.338513 86.498216 
L 458.30937 85.917904 
L 459.280227 86.581517 
L 460.251084 88.973428 
L 461.221941 87.251542 
L 463.163655 89.878993 
L 464.134511 89.997654 
L 465.105368 91.018168 
L 466.076225 88.717372 
L 467.047082 89.878993 
L 469.959653 85.479011 
L 470.93051 85.995999 
L 471.901367 83.03292 
L 472.872223 82.930999 
L 473.84308 82.981455 
L 474.813937 81.772812 
L 475.784794 84.398037 
L 476.755651 80.542238 
L 477.726508 81.20152 
L 478.697365 82.406032 
L 479.668222 81.733434 
L 479.668222 81.733434 
" clip-path="url(#pa336aa56f7)" style="fill: none; stroke: #2ca02c; stroke-width: 1.5; stroke-linecap: square"/>
   </g>
   <g id="line2d_33">
    <path d="M 73.85004 48.579527 
L 74.820897 48.803901 
L 75.791754 50.477371 
L 76.762611 49.940245 
L 77.733467 50.762346 
L 78.704324 50.512445 
L 79.675181 49.179639 
L 80.646038 48.579527 
L 81.616895 49.988843 
L 82.587752 44.144593 
L 83.558609 48.269945 
L 84.529466 46.701452 
L 85.500323 49.701769 
L 86.47118 47.741611 
L 87.442036 48.055083 
L 88.412893 47.846832 
L 91.325464 49.109491 
L 92.296321 48.151281 
L 93.267178 45.51273 
L 94.238035 47.846832 
L 95.208892 46.010824 
L 96.179748 50.22931 
L 97.150605 50.762346 
L 98.121462 48.882692 
L 99.092319 49.988843 
L 100.063176 48.882692 
L 101.034033 49.701769 
L 102.00489 50.186333 
L 102.975747 51.300964 
L 103.946604 46.373731 
L 104.917461 49.889036 
L 105.888317 48.055083 
L 106.859174 51.300964 
L 107.830031 49.408715 
L 109.771745 49.889036 
L 110.742602 51.568765 
L 111.713459 51.575928 
L 112.684316 49.701769 
L 113.655173 50.762346 
L 115.596886 50.733392 
L 116.567743 50.186333 
L 117.5386 48.803901 
L 118.509457 51.020181 
L 119.480314 49.035552 
L 120.451171 49.701769 
L 121.422028 49.109491 
L 122.392885 51.300964 
L 123.363742 52.951197 
L 124.334598 55.478224 
L 125.305455 53.213132 
L 127.247169 54.022401 
L 129.188883 49.645063 
L 130.15974 49.408715 
L 131.130597 51.041446 
L 132.101454 48.055083 
L 133.07231 50.477371 
L 134.043167 51.300964 
L 135.014024 52.640855 
L 135.984881 50.789831 
L 136.955738 52.381122 
L 137.926595 52.640855 
L 140.839166 53.178058 
L 143.751736 50.308913 
L 144.722593 55.207106 
L 145.69345 51.080848 
L 146.664307 53.58619 
L 147.635164 52.354854 
L 148.606021 51.845251 
L 157.343733 52.354854 
L 158.31459 56.066932 
L 160.256303 54.97969 
L 161.22716 54.149759 
L 162.198017 54.510864 
L 163.168874 57.94488 
L 164.139731 56.500127 
L 165.110588 56.743838 
L 166.081445 56.285707 
L 167.052302 57.249055 
L 168.023159 59.092386 
L 168.994016 54.607444 
L 169.964872 58.897739 
L 170.935729 55.962435 
L 171.906586 58.509283 
L 172.877443 57.386208 
L 173.8483 54.207954 
L 174.819157 54.207954 
L 175.790014 59.086169 
L 176.760871 56.500127 
L 177.731728 55.520566 
L 178.702584 56.285707 
L 179.673441 56.176872 
L 180.644298 51.080848 
L 181.615155 52.621064 
L 182.586012 53.62886 
L 183.556869 56.176872 
L 184.527726 55.207106 
L 185.498583 55.430041 
L 186.46944 52.602234 
L 187.440297 57.249055 
L 188.411153 55.648626 
L 189.38201 57.793148 
L 190.352867 54.902866 
L 191.323724 53.62886 
L 192.294581 57.118529 
L 194.236295 54.380834 
L 195.207152 52.342662 
L 196.178009 55.648626 
L 197.148865 55.125508 
L 198.119722 54.902866 
L 210.740862 55.343868 
L 211.711719 56.073245 
L 212.682576 55.343868 
L 213.653433 56.710323 
L 214.62429 56.176872 
L 215.595146 54.607444 
L 216.566003 55.343868 
L 217.53686 54.902866 
L 218.507717 54.902866 
L 219.478574 53.113043 
L 220.449431 57.249055 
L 221.420288 57.450878 
L 222.391145 57.043196 
L 223.362002 55.648626 
L 226.274572 55.430041 
L 227.245429 62.241141 
L 228.216286 61.509772 
L 230.158 61.922899 
L 231.128857 62.815788 
L 232.099714 61.344034 
L 233.070571 63.098534 
L 234.041427 62.34887 
L 236.953998 65.777887 
L 237.924855 67.629586 
L 239.866569 66.146475 
L 240.837426 67.005924 
L 241.808283 68.259814 
L 245.69171 62.34887 
L 246.662567 62.945029 
L 247.633424 62.945029 
L 248.604281 63.098534 
L 249.575138 61.922899 
L 250.545995 60.203755 
L 251.516852 59.458403 
L 252.487708 61.174896 
L 253.458565 58.14579 
L 254.429422 63.39624 
L 255.400279 62.241141 
L 256.371136 62.965233 
L 257.341993 61.344034 
L 258.31285 64.574912 
L 259.283707 66.506121 
L 260.254564 61.344034 
L 261.22542 63.39624 
L 262.196277 63.248906 
L 263.167134 63.982584 
L 264.137991 62.663309 
L 265.108848 62.815788 
L 266.079705 61.509772 
L 267.050562 61.672212 
L 268.992276 60.551169 
L 269.963133 58.535675 
L 270.933989 59.822295 
L 271.904846 57.793148 
L 272.875703 60.551169 
L 273.84656 58.342682 
L 274.817417 59.086169 
L 275.788274 59.642169 
L 277.729988 57.793148 
L 278.700845 57.990605 
L 279.671701 57.793148 
L 280.642558 59.452 
L 281.613415 57.990605 
L 282.584272 60.379191 
L 283.555129 59.270887 
L 284.525986 60.203755 
L 285.496843 61.922899 
L 286.4677 59.642169 
L 287.438557 61.672212 
L 288.409414 59.086169 
L 289.38027 58.724884 
L 290.351127 54.444224 
L 291.321984 58.14579 
L 292.292841 58.342682 
L 293.263698 55.74371 
L 294.234555 58.705483 
L 296.176269 59.642169 
L 299.088839 55.962435 
L 301.030553 59.270887 
L 304.913981 57.450878 
L 305.884838 56.176872 
L 333.068831 52.844856 
L 334.039688 55.430041 
L 335.010544 54.902866 
L 335.981401 54.149759 
L 336.952258 51.845251 
L 338.893972 54.902866 
L 340.835686 56.916417 
L 341.806543 53.863871 
L 342.7774 54.380834 
L 343.748257 56.387145 
L 344.719113 58.724884 
L 345.68997 59.086169 
L 346.660827 54.380834 
L 347.631684 58.910419 
L 348.602541 60.379191 
L 349.573398 60.203755 
L 350.544255 59.822295 
L 368.019679 58.5603 
L 368.990536 55.768229 
L 370.93225 58.220089 
L 371.903106 60.14244 
L 372.873963 59.803827 
L 373.84482 56.680549 
L 374.815677 56.073245 
L 375.786534 54.041566 
L 377.728248 58.922265 
L 378.699105 57.3801 
L 379.669962 56.87552 
L 380.640818 58.403406 
L 381.611675 56.176872 
L 382.582532 55.677837 
L 383.553389 54.69344 
L 384.524246 56.37557 
L 385.495103 55.389305 
L 388.407674 50.414624 
L 389.378531 51.116568 
L 390.349387 51.601216 
L 392.291101 53.506695 
L 393.261958 54.207954 
L 394.232815 55.183381 
L 395.203672 53.506695 
L 396.174529 52.567188 
L 397.145386 52.084788 
L 398.116243 54.69344 
L 399.087099 55.183381 
L 400.057956 54.480154 
L 401.028813 56.570656 
L 401.99967 54.759987 
L 402.970527 54.973644 
L 403.941384 55.047777 
L 404.912241 58.033281 
L 405.883098 53.816036 
L 406.853955 53.082857 
L 407.824812 53.351902 
L 408.795668 51.340597 
L 409.766525 52.602234 
L 410.737382 51.340597 
L 411.708239 52.844856 
L 412.679096 53.082857 
L 413.649953 53.58619 
L 414.62081 51.601216 
L 415.591667 53.082857 
L 416.562524 52.584296 
L 417.53338 54.094362 
L 418.504237 54.607444 
L 419.475094 56.176872 
L 420.445951 57.249055 
L 421.416808 56.176872 
L 422.387665 55.430041 
L 423.358522 55.962435 
L 424.329379 56.176872 
L 425.300236 57.591723 
L 426.271093 57.990605 
L 427.241949 57.043196 
L 428.212806 57.450878 
L 430.15452 58.535675 
L 431.125377 59.822295 
L 434.037948 57.591723 
L 435.008805 57.793148 
L 435.979661 56.710323 
L 436.950518 55.430041 
L 437.921375 56.593374 
L 438.892232 58.184208 
L 439.863089 59.270887 
L 440.833946 57.450878 
L 441.804803 56.387145 
L 442.77566 56.176872 
L 443.746517 57.450878 
L 444.717374 58.374071 
L 445.68823 57.450878 
L 446.659087 56.176872 
L 447.629944 58.374071 
L 448.600801 59.452 
L 449.571658 58.374071 
L 450.542515 57.511258 
L 451.513372 57.511258 
L 452.484229 57.84288 
L 453.455086 57.316772 
L 454.425942 57.84288 
L 455.396799 57.84288 
L 456.367656 58.033281 
L 457.338513 58.033281 
L 458.30937 57.316772 
L 459.280227 57.84288 
L 460.251084 61.746099 
L 461.221941 60.885155 
L 462.192798 62.140697 
L 463.163655 61.987583 
L 464.134511 63.111733 
L 465.105368 63.39624 
L 466.076225 61.831451 
L 467.047082 63.255374 
L 469.959653 59.99889 
L 470.93051 60.885155 
L 471.901367 58.342682 
L 472.872223 58.724884 
L 473.84308 58.535675 
L 474.813937 56.833178 
L 475.784794 58.14579 
L 476.755651 54.823241 
L 477.726508 54.269163 
L 479.668222 55.74371 
L 479.668222 55.74371 
" clip-path="url(#pa336aa56f7)" style="fill: none; stroke: #d62728; stroke-width: 1.5; stroke-linecap: square"/>
   </g>
   <g id="line2d_34">
    <path d="M 73.85004 181.929942 
L 74.820897 177.370087 
L 75.791754 180.42599 
L 76.762611 180.569223 
L 77.733467 178.003702 
L 78.704324 178.461854 
L 79.675181 177.129048 
L 80.646038 179.208505 
L 81.616895 175.959442 
L 82.587752 177.531005 
L 83.558609 180.28124 
L 84.529466 178.003702 
L 85.500323 178.310711 
L 86.47118 179.058109 
L 87.442036 179.357333 
L 88.412893 178.461854 
L 91.325464 177.690229 
L 92.296321 178.759537 
L 93.267178 178.759537 
L 94.238035 179.79466 
L 95.208892 179.937461 
L 96.179748 179.50462 
L 97.150605 180.710965 
L 98.121462 183.544473 
L 99.092319 181.263467 
L 100.063176 180.851237 
L 101.034033 179.650387 
L 102.00489 180.134951 
L 102.975747 181.929942 
L 103.946604 180.42599 
L 104.917461 182.632248 
L 105.888317 182.064596 
L 106.859174 183.29066 
L 107.830031 182.064596 
L 108.800888 184.406593 
L 109.771745 182.632248 
L 110.742602 184.282248 
L 111.713459 183.544473 
L 112.684316 183.669417 
L 113.655173 183.418228 
L 115.596886 186.936222 
L 116.567743 184.282248 
L 117.5386 184.282248 
L 118.509457 183.031476 
L 119.480314 182.496295 
L 120.451171 180.990064 
L 121.422028 181.79387 
L 122.392885 181.929942 
L 123.363742 182.899816 
L 124.334598 184.029545 
L 125.305455 184.52963 
L 127.247169 183.29066 
L 129.188883 183.031476 
L 131.130597 180.990064 
L 132.101454 179.357333 
L 133.07231 179.058109 
L 134.043167 180.569223 
L 135.014024 178.611455 
L 135.984881 178.759537 
L 136.955738 178.310711 
L 137.926595 178.611455 
L 140.839166 178.461854 
L 143.751736 177.056827 
L 144.722593 179.33713 
L 145.69345 178.481454 
L 146.664307 180.42599 
L 147.635164 179.75546 
L 148.606021 181.159974 
L 157.343733 179.75546 
L 158.31459 178.759537 
L 160.256303 182.969284 
L 161.22716 179.617391 
L 162.198017 179.79466 
L 163.168874 182.589474 
L 164.139731 180.630151 
L 165.110588 179.208505 
L 166.081445 180.357252 
L 167.052302 180.764574 
L 168.023159 181.543969 
L 168.994016 180.161665 
L 169.964872 182.969284 
L 170.935729 180.764574 
L 171.906586 182.460273 
L 172.877443 180.078812 
L 173.8483 180.218735 
L 174.819157 178.906123 
L 175.790014 183.216193 
L 176.760871 181.923172 
L 177.731728 181.531347 
L 178.702584 180.357252 
L 179.673441 181.029466 
L 180.644298 181.029466 
L 181.615155 183.216193 
L 182.586012 181.029466 
L 183.556869 182.303472 
L 184.527726 181.923172 
L 185.498583 182.177954 
L 186.46944 181.289215 
L 187.440297 183.337814 
L 188.411153 182.427766 
L 189.38201 183.216193 
L 190.352867 182.303472 
L 191.323724 181.029466 
L 192.294581 181.417207 
L 194.236295 183.695557 
L 195.207152 179.182462 
L 196.178009 181.159974 
L 197.148865 181.289215 
L 198.119722 181.029466 
L 212.682576 181.543969 
L 213.653433 182.177954 
L 214.62429 183.577478 
L 215.595146 181.417207 
L 216.566003 182.793475 
L 217.53686 182.303472 
L 219.478574 179.892183 
L 220.449431 183.337814 
L 221.420288 184.851484 
L 222.391145 184.392842 
L 223.362002 183.695557 
L 226.274572 182.177954 
L 227.245429 185.692328 
L 228.216286 182.969284 
L 229.187143 184.509214 
L 230.158 185.241486 
L 231.128857 181.663268 
L 232.099714 182.717363 
L 233.070571 182.32974 
L 234.041427 182.197855 
L 236.953998 183.669417 
L 237.924855 179.208505 
L 238.895712 180.42599 
L 239.866569 180.28124 
L 240.837426 183.418228 
L 241.808283 183.16175 
L 245.69171 183.544473 
L 246.662567 184.771859 
L 247.633424 182.064596 
L 248.604281 180.990064 
L 249.575138 181.263467 
L 250.545995 181.663268 
L 251.516852 182.84396 
L 252.487708 183.793079 
L 253.458565 180.218735 
L 254.429422 181.531347 
L 255.400279 180.494384 
L 256.371136 181.923172 
L 257.341993 180.078812 
L 258.31285 182.589474 
L 259.283707 182.460273 
L 260.254564 180.078812 
L 261.22542 178.906123 
L 262.196277 179.937461 
L 263.167134 180.078812 
L 264.137991 178.759537 
L 265.108848 177.745219 
L 266.079705 177.745219 
L 267.050562 178.044109 
L 268.021419 180.764574 
L 268.992276 179.617391 
L 269.963133 178.191334 
L 270.933989 178.191334 
L 271.904846 178.044109 
L 272.875703 179.617391 
L 273.84656 179.194897 
L 274.817417 176.751088 
L 275.788274 177.895411 
L 276.759131 177.440261 
L 277.729988 178.044109 
L 278.700845 177.056827 
L 279.671701 176.751088 
L 280.642558 178.624391 
L 282.584272 178.044109 
L 283.555129 175.776545 
L 285.496843 179.937461 
L 286.4677 176.595925 
L 287.438557 179.33713 
L 288.409414 179.33713 
L 289.38027 178.481454 
L 290.351127 177.895411 
L 291.321984 180.218735 
L 292.292841 177.895411 
L 293.263698 180.494384 
L 294.234555 178.759537 
L 296.176269 179.194897 
L 299.088839 175.618094 
L 301.030553 174.496263 
L 304.913981 174.659436 
L 305.884838 173.38543 
L 333.068831 180.294463 
L 334.039688 183.458236 
L 335.010544 182.303472 
L 335.981401 180.897672 
L 336.952258 179.892183 
L 337.923115 180.161665 
L 338.893972 181.029466 
L 339.864829 180.764574 
L 340.835686 181.159974 
L 341.806543 182.550852 
L 342.7774 181.159974 
L 343.748257 181.289215 
L 344.719113 184.851484 
L 345.68997 183.216193 
L 346.660827 183.695557 
L 347.631684 183.812489 
L 348.602541 183.216193 
L 349.573398 181.663268 
L 350.544255 184.624434 
L 368.019679 184.156572 
L 368.990536 183.264986 
L 370.93225 183.264986 
L 371.903106 182.159922 
L 372.873963 182.913045 
L 373.84482 182.398282 
L 374.815677 182.913045 
L 375.786534 182.159922 
L 376.757391 180.939747 
L 377.728248 183.380097 
L 378.699105 182.515807 
L 379.669962 182.632248 
L 380.640818 183.494132 
L 382.582532 181.434565 
L 383.553389 184.048686 
L 384.524246 181.555432 
L 385.495103 179.431168 
L 388.407674 179.171054 
L 389.378531 179.850713 
L 390.349387 179.719573 
L 392.291101 180.48845 
L 393.261958 178.249817 
L 394.232815 180.363243 
L 395.203672 179.301705 
L 396.174529 177.702895 
L 397.145386 179.039199 
L 398.116243 179.301705 
L 399.087099 179.171054 
L 400.057956 177.841516 
L 401.028813 179.431168 
L 401.99967 177.421767 
L 402.970527 178.906123 
L 403.941384 179.453563 
L 404.912241 178.081052 
L 405.883098 178.221823 
L 406.853955 178.081052 
L 407.824812 178.906123 
L 408.795668 177.504304 
L 409.766525 178.765941 
L 410.737382 178.765941 
L 411.708239 177.795451 
L 412.679096 179.318658 
L 413.649953 179.182462 
L 414.62081 178.499398 
L 415.591667 179.318658 
L 416.562524 179.453563 
L 417.53338 180.294463 
L 418.504237 180.161665 
L 419.475094 183.577478 
L 420.445951 182.051194 
L 421.416808 182.303472 
L 422.387665 182.177954 
L 423.358522 183.337814 
L 424.329379 182.303472 
L 425.300236 180.357252 
L 426.271093 179.617391 
L 427.241949 181.79387 
L 428.212806 181.029466 
L 429.183663 180.897672 
L 430.15452 182.051194 
L 431.125377 182.051194 
L 434.037948 180.357252 
L 435.008805 180.630151 
L 435.979661 179.617391 
L 436.950518 178.337109 
L 437.921375 179.044957 
L 438.892232 178.624391 
L 439.863089 178.337109 
L 440.833946 177.207448 
L 441.804803 177.504304 
L 442.77566 177.207448 
L 443.746517 177.207448 
L 444.717374 177.650581 
L 445.68823 178.481454 
L 446.659087 177.207448 
L 447.629944 176.395038 
L 448.600801 178.624391 
L 449.571658 177.650581 
L 450.542515 178.221823 
L 451.513372 178.221823 
L 452.484229 179.044957 
L 453.455086 177.938935 
L 454.425942 179.044957 
L 455.396799 179.044957 
L 456.367656 179.318658 
L 457.338513 178.081052 
L 458.30937 177.938935 
L 459.280227 179.044957 
L 460.251084 179.318658 
L 461.221941 177.650581 
L 462.192798 180.161665 
L 463.163655 179.892183 
L 464.134511 180.897672 
L 465.105368 180.161665 
L 466.076225 180.897672 
L 467.047082 181.159974 
L 470.93051 177.650581 
L 471.901367 177.895411 
L 472.872223 178.481454 
L 473.84308 178.191334 
L 474.813937 176.280898 
L 475.784794 178.906123 
L 476.755651 178.003702 
L 477.726508 178.158002 
L 478.697365 177.745219 
L 479.668222 176.595925 
L 479.668222 176.595925 
" clip-path="url(#pa336aa56f7)" style="fill: none; stroke: #9467bd; stroke-width: 1.5; stroke-linecap: square"/>
   </g>
   <g id="line2d_35">
    <path d="M 73.85004 130.222638 
L 74.820897 128.984963 
L 75.791754 129.814422 
L 76.762611 128.86192 
L 77.733467 131.980233 
L 79.675181 129.148019 
L 80.646038 132.944075 
L 81.616895 130.875228 
L 82.587752 130.777005 
L 83.558609 129.401887 
L 84.529466 130.626601 
L 85.500323 128.742681 
L 86.47118 131.182303 
L 87.442036 130.626601 
L 88.412893 127.815213 
L 91.325464 131.182303 
L 93.267178 128.627075 
L 94.238035 133.146438 
L 95.208892 130.875228 
L 96.179748 131.026378 
L 97.150605 133.333864 
L 98.121462 136.41285 
L 99.092319 133.52724 
L 100.063176 132.372996 
L 101.034033 131.422034 
L 102.00489 133.13226 
L 102.975747 134.304794 
L 103.946604 131.182303 
L 104.917461 133.726854 
L 105.888317 134.687496 
L 106.859174 132.944075 
L 107.830031 134.687496 
L 108.800888 133.52724 
L 109.771745 133.726854 
L 110.742602 135.897124 
L 111.713459 136.41285 
L 112.684316 134.101387 
L 113.655173 136.041127 
L 115.596886 136.902529 
L 116.567743 134.514692 
L 117.5386 133.13226 
L 118.509457 137.652593 
L 119.480314 136.136247 
L 120.451171 134.101387 
L 121.422028 135.285943 
L 122.392885 138.386949 
L 123.363742 137.279556 
L 124.334598 139.316042 
L 125.305455 138.021704 
L 127.247169 138.386949 
L 129.188883 139.027711 
L 130.15974 137.394759 
L 131.130597 136.78074 
L 132.101454 133.333864 
L 133.07231 138.021704 
L 135.014024 138.831265 
L 135.984881 137.862002 
L 136.955738 139.460093 
L 137.926595 138.831265 
L 140.839166 139.81047 
L 143.751736 137.368086 
L 144.722593 143.13254 
L 145.69345 137.71326 
L 146.664307 139.389584 
L 147.635164 138.987266 
L 148.606021 139.322858 
L 157.343733 137.71326 
L 158.31459 139.181277 
L 160.256303 137.258715 
L 161.22716 138.648368 
L 162.198017 139.81047 
L 163.168874 138.831265 
L 164.139731 139.253476 
L 165.110588 138.386949 
L 166.081445 135.952699 
L 167.052302 137.019494 
L 168.994016 136.217688 
L 169.964872 137.258715 
L 170.935729 135.732874 
L 171.906586 135.812051 
L 172.877443 133.904176 
L 173.8483 135.589917 
L 174.819157 132.964692 
L 175.790014 135.374413 
L 176.760871 135.374413 
L 177.731728 134.277304 
L 178.702584 132.03465 
L 179.673441 135.165248 
L 180.644298 132.617236 
L 181.615155 132.788371 
L 182.586012 132.617236 
L 183.556869 135.165248 
L 184.527726 132.788371 
L 185.498583 133.52724 
L 186.46944 133.347006 
L 187.440297 135.732874 
L 188.411153 134.251692 
L 189.38201 137.960455 
L 190.352867 133.891242 
L 191.323724 133.891242 
L 192.294581 133.706603 
L 194.236295 135.519484 
L 195.207152 134.415474 
L 196.178009 138.055067 
L 197.148865 137.131917 
L 198.119722 137.71326 
L 210.740862 135.312249 
L 211.711719 136.902529 
L 212.682576 135.312249 
L 213.653433 134.807522 
L 214.62429 133.891242 
L 215.595146 134.962146 
L 216.566003 135.312249 
L 217.53686 132.617236 
L 218.507717 133.891242 
L 219.478574 134.251692 
L 220.449431 137.019494 
L 221.420288 136.439254 
L 222.391145 136.311853 
L 223.362002 132.983901 
L 226.274572 133.52724 
L 227.245429 137.61134 
L 228.216286 137.258715 
L 230.158 133.52724 
L 231.128857 132.03465 
L 232.099714 131.265625 
L 233.070571 131.422034 
L 234.041427 128.333143 
L 236.953998 131.422034 
L 237.924855 131.583357 
L 238.895712 132.550183 
L 239.866569 132.152122 
L 240.837426 131.980233 
L 241.808283 135.285943 
L 245.69171 131.026378 
L 246.662567 131.980233 
L 247.633424 131.980233 
L 248.604281 130.082358 
L 249.575138 130.875228 
L 250.545995 128.116601 
L 251.516852 127.714243 
L 252.487708 129.148019 
L 253.458565 129.026855 
L 254.429422 130.339467 
L 255.400279 131.113909 
L 256.371136 130.202329 
L 257.341993 131.265625 
L 258.31285 130.875228 
L 259.283707 133.146438 
L 260.254564 128.627075 
L 261.22542 131.65208 
L 262.196277 130.875228 
L 263.167134 133.904176 
L 264.137991 132.584901 
L 265.108848 132.03465 
L 266.079705 132.03465 
L 267.050562 132.788371 
L 268.021419 134.446254 
L 268.992276 134.807522 
L 269.963133 133.159634 
L 270.933989 134.446254 
L 271.904846 131.49535 
L 272.875703 133.52724 
L 273.84656 132.413395 
L 274.817417 134.081392 
L 275.788274 132.413395 
L 276.759131 133.904176 
L 277.729988 132.788371 
L 278.700845 132.246958 
L 279.671701 134.081392 
L 280.642558 135.519484 
L 281.613415 134.807522 
L 282.584272 135.374413 
L 283.555129 137.368086 
L 284.525986 137.258715 
L 285.496843 138.831265 
L 286.4677 133.712881 
L 287.438557 135.374413 
L 288.409414 135.374413 
L 289.38027 133.891242 
L 290.351127 133.712881 
L 291.321984 134.277304 
L 292.292841 133.712881 
L 293.263698 132.413395 
L 294.234555 133.904176 
L 296.176269 132.413395 
L 299.088839 134.446254 
L 301.030553 136.087804 
L 304.913981 133.891242 
L 305.884838 133.891242 
L 333.068831 127.815213 
L 334.039688 128.406112 
L 335.010544 126.247205 
L 335.981401 125.845548 
L 337.923115 122.406723 
L 338.893972 123.699193 
L 339.864829 122.866675 
L 340.835686 124.109361 
L 341.806543 125.777184 
L 342.7774 124.109361 
L 343.748257 124.515547 
L 344.719113 126.247205 
L 345.68997 126.323266 
L 346.660827 125.377153 
L 347.631684 128.300458 
L 348.602541 127.616287 
L 349.573398 128.116601 
L 350.544255 128.013154 
L 368.019679 126.954309 
L 368.990536 125.646259 
L 370.93225 125.646259 
L 371.903106 127.252055 
L 372.873963 126.954309 
L 373.84482 125.583537 
L 374.815677 125.710782 
L 375.786534 126.031881 
L 376.757391 124.811706 
L 377.728248 126.031881 
L 378.699105 124.760865 
L 379.669962 125.143458 
L 380.640818 125.199425 
L 381.611675 123.557637 
L 382.582532 122.748092 
L 384.524246 126.714731 
L 385.495103 126.270369 
L 388.407674 124.330352 
L 389.378531 123.984952 
L 390.349387 124.811706 
L 391.320244 124.760865 
L 392.291101 125.898163 
L 393.261958 125.089018 
L 394.232815 127.90692 
L 395.203672 124.711417 
L 396.174529 124.760865 
L 397.145386 125.143458 
L 399.087099 126.714731 
L 400.057956 123.945775 
L 401.028813 127.45172 
L 401.99967 123.984952 
L 402.970527 127.167321 
L 403.941384 127.720464 
L 404.912241 126.101605 
L 405.883098 124.025242 
L 406.853955 124.863999 
L 407.824812 123.662266 
L 408.795668 121.992273 
L 409.766525 123.25391 
L 410.737382 121.992273 
L 411.708239 121.567683 
L 412.679096 123.626393 
L 413.649953 121.9802 
L 414.62081 122.371356 
L 415.591667 122.388787 
L 416.562524 124.025242 
L 417.53338 122.817189 
L 418.504237 124.917808 
L 419.475094 126.247205 
L 420.445951 124.153295 
L 421.416808 124.973199 
L 422.387665 124.565266 
L 423.358522 126.726535 
L 424.329379 124.973199 
L 425.300236 125.504569 
L 426.271093 124.565266 
L 427.241949 125.915964 
L 428.212806 124.973199 
L 430.15452 126.726535 
L 431.125377 128.013154 
L 434.037948 126.810585 
L 435.008805 127.616287 
L 435.979661 124.565266 
L 436.950518 125.845548 
L 437.921375 127.815213 
L 438.892232 127.912735 
L 439.863089 127.12583 
L 440.833946 127.521212 
L 441.804803 128.300458 
L 442.77566 126.247205 
L 444.717374 126.17335 
L 445.68823 128.795218 
L 446.659087 126.247205 
L 447.629944 127.428892 
L 448.600801 127.912735 
L 449.571658 126.17335 
L 450.542515 126.488723 
L 451.513372 125.256983 
L 452.484229 126.565707 
L 453.455086 123.223727 
L 454.425942 125.316201 
L 455.396799 125.316201 
L 456.367656 126.101605 
L 457.338513 124.863999 
L 459.280227 126.565707 
L 460.251084 126.101605 
L 461.221941 123.662266 
L 462.192798 127.428892 
L 464.134511 128.406112 
L 465.105368 128.684434 
L 466.076225 128.406112 
L 467.047082 129.180527 
L 469.959653 124.973199 
L 470.93051 124.917808 
L 471.901367 124.616478 
L 472.872223 123.699193 
L 473.84308 124.153295 
L 474.813937 119.838569 
L 475.784794 123.776406 
L 476.755651 121.151181 
L 477.726508 121.600054 
L 478.697365 124.198553 
L 479.668222 122.017505 
L 479.668222 122.017505 
" clip-path="url(#pa336aa56f7)" style="fill: none; stroke: #8c564b; stroke-width: 1.5; stroke-linecap: square"/>
   </g>
   <g id="line2d_36">
    <path d="M 73.85004 41.775934 
L 74.820897 40.509308 
L 75.791754 42.27009 
L 77.733467 41.286926 
L 79.675181 41.182801 
L 80.646038 40.415216 
L 81.616895 39.380792 
L 82.587752 37.269004 
L 83.558609 41.394357 
L 84.529466 39.933295 
L 85.500323 43.003387 
L 86.47118 42.27009 
L 87.442036 41.286926 
L 88.412893 42.515607 
L 91.325464 42.27009 
L 92.296321 44.193455 
L 93.267178 42.874179 
L 94.238035 43.848413 
L 95.208892 42.032805 
L 96.179748 44.842839 
L 97.150605 45.34782 
L 98.121462 44.842839 
L 99.092319 46.010824 
L 100.063176 44.842839 
L 101.034033 48.362093 
L 102.00489 46.039037 
L 102.975747 48.579527 
L 103.946604 45.00585 
L 104.917461 45.697145 
L 105.888317 45.34782 
L 106.859174 45.85809 
L 107.830031 43.994189 
L 108.800888 45.51971 
L 109.771745 45.697145 
L 110.742602 44.656604 
L 111.713459 46.189457 
L 112.684316 45.68274 
L 113.655173 46.701452 
L 115.596886 43.784268 
L 116.567743 43.274172 
L 117.5386 41.89174 
L 118.509457 41.394357 
L 119.480314 46.225852 
L 120.451171 45.68274 
L 121.422028 42.27009 
L 122.392885 43.136653 
L 123.363742 44.656604 
L 124.334598 44.299848 
L 125.305455 45.00585 
L 127.247169 45.85809 
L 129.188883 45.51971 
L 130.15974 43.994189 
L 131.130597 45.68274 
L 132.101454 43.994189 
L 133.07231 46.373731 
L 134.043167 45.85809 
L 135.014024 43.358811 
L 135.984881 44.193455 
L 136.955738 43.003387 
L 137.926595 43.358811 
L 140.839166 46.514026 
L 143.751736 43.907503 
L 144.722593 47.44898 
L 145.69345 47.25883 
L 146.664307 48.61208 
L 147.635164 45.984824 
L 148.606021 46.774086 
L 157.343733 48.532836 
L 158.31459 49.470556 
L 160.256303 48.449609 
L 161.22716 47.748349 
L 162.198017 45.18122 
L 163.168874 48.662836 
L 164.139731 50.035022 
L 165.110588 47.218808 
L 166.081445 49.755625 
L 167.052302 48.242715 
L 168.023159 51.59535 
L 168.994016 47.074191 
L 169.964872 51.061642 
L 170.935729 49.529335 
L 171.906586 50.512445 
L 172.877443 46.832005 
L 173.8483 47.644892 
L 174.819157 46.33228 
L 175.790014 48.742001 
L 176.760871 48.742001 
L 177.731728 45.019667 
L 178.702584 48.449609 
L 179.673441 48.532836 
L 180.644298 45.984824 
L 181.615155 47.44898 
L 182.586012 43.436811 
L 184.527726 48.742001 
L 185.498583 46.468067 
L 186.46944 45.032411 
L 187.440297 46.956095 
L 188.411153 46.774086 
L 189.38201 46.155959 
L 190.352867 43.436811 
L 191.323724 45.984824 
L 192.294581 47.074191 
L 194.236295 46.774086 
L 195.207152 44.881498 
L 196.178009 44.238503 
L 197.148865 45.032411 
L 198.119722 45.984824 
L 210.740862 44.098315 
L 211.711719 43.63797 
L 212.682576 44.098315 
L 213.653433 45.187785 
L 214.62429 47.25883 
L 215.595146 45.818649 
L 217.53686 42.162805 
L 218.507717 44.710817 
L 219.478574 44.238503 
L 221.420288 47.25883 
L 222.391145 45.34782 
L 223.362002 46.774086 
L 226.274572 46.468067 
L 227.245429 47.946793 
L 228.216286 47.143593 
L 229.187143 46.155959 
L 230.158 48.662836 
L 232.099714 45.51273 
L 233.070571 48.362093 
L 234.041427 47.536074 
L 236.953998 47.022416 
L 237.924855 48.579527 
L 239.866569 49.645063 
L 240.837426 52.115978 
L 241.808283 50.477371 
L 245.69171 51.575928 
L 246.662567 50.762346 
L 247.633424 48.055083 
L 248.604281 51.041446 
L 249.575138 51.314849 
L 250.545995 49.755625 
L 251.516852 48.957504 
L 252.487708 46.514026 
L 253.458565 47.644892 
L 254.429422 50.270117 
L 255.400279 50.545765 
L 256.371136 51.328043 
L 257.341993 48.151281 
L 258.31285 49.988843 
L 259.283707 50.512445 
L 260.254564 48.151281 
L 261.22542 50.270117 
L 262.196277 49.988843 
L 263.167134 50.789831 
L 264.137991 48.151281 
L 265.108848 48.449609 
L 266.079705 47.143593 
L 267.050562 46.155959 
L 268.021419 44.382855 
L 268.992276 45.187785 
L 269.963133 43.096235 
L 270.933989 44.382855 
L 271.904846 40.983874 
L 272.875703 45.187785 
L 273.84656 42.748848 
L 274.817417 43.569916 
L 275.788274 44.048334 
L 276.759131 45.51273 
L 277.729988 44.862938 
L 278.700845 46.468067 
L 279.671701 44.862938 
L 280.642558 45.506294 
L 282.584272 42.276895 
L 283.555129 45.187785 
L 284.525986 44.53156 
L 285.496843 44.684817 
L 286.4677 44.048334 
L 287.438557 46.155959 
L 288.409414 44.862938 
L 289.38027 45.984824 
L 290.351127 44.048334 
L 291.321984 43.707055 
L 292.292841 45.34782 
L 293.263698 41.449362 
L 294.234555 45.51273 
L 296.176269 46.647307 
L 299.088839 44.382855 
L 301.030553 45.187785 
L 304.913981 44.710817 
L 305.884838 43.436811 
L 333.068831 45.34782 
L 334.039688 45.187785 
L 335.010544 43.436811 
L 335.981401 42.627221 
L 336.952258 39.167337 
L 337.923115 40.79648 
L 338.893972 42.162805 
L 339.864829 41.809616 
L 340.835686 44.238503 
L 341.806543 41.2475 
L 342.7774 41.70292 
L 343.748257 43.770774 
L 344.719113 44.710817 
L 345.68997 43.569916 
L 346.660827 42.970712 
L 347.631684 42.509137 
L 348.602541 42.276895 
L 349.573398 43.225544 
L 350.544255 43.096235 
L 368.019679 39.907388 
L 368.990536 38.605203 
L 370.93225 39.831134 
L 371.903106 40.619643 
L 372.873963 41.150915 
L 373.84482 38.548183 
L 374.815677 38.66386 
L 375.786534 38.179293 
L 376.757391 38.179293 
L 377.728248 39.399468 
L 378.699105 38.128453 
L 379.669962 37.712591 
L 380.640818 37.757364 
L 381.611675 35.721997 
L 382.582532 35.317224 
L 385.495103 36.487687 
L 388.407674 33.723976 
L 390.349387 36.959119 
L 392.291101 36.89226 
L 394.232815 38.492733 
L 395.203672 38.079005 
L 396.174529 35.721997 
L 397.145386 35.317224 
L 399.087099 38.492733 
L 400.057956 35.317224 
L 401.028813 38.85039 
L 401.99967 36.542891 
L 402.970527 38.128453 
L 403.941384 36.57167 
L 404.912241 38.231587 
L 405.883098 34.108189 
L 406.853955 33.281163 
L 407.824812 33.263227 
L 408.795668 31.154403 
L 409.766525 32.41604 
L 410.737382 31.154403 
L 411.708239 34.102267 
L 412.679096 33.281163 
L 413.649953 34.933278 
L 414.62081 32.078419 
L 415.591667 33.281163 
L 416.562524 32.876448 
L 417.53338 34.102267 
L 418.504237 34.518769 
L 419.475094 35.792775 
L 420.445951 36.663136 
L 421.416808 39.614793 
L 424.329379 40.888799 
L 425.300236 40.613512 
L 426.271093 38.786375 
L 427.241949 41.449362 
L 428.212806 43.436811 
L 429.183663 42.627221 
L 430.15452 43.096235 
L 431.125377 43.096235 
L 434.037948 43.225544 
L 435.979661 43.907503 
L 436.950518 42.627221 
L 437.921375 45.34782 
L 438.892232 45.506294 
L 439.863089 46.468067 
L 440.833946 44.710817 
L 441.804803 45.032411 
L 442.77566 44.710817 
L 443.746517 44.710817 
L 444.717374 44.563107 
L 445.68823 44.710817 
L 446.659087 44.710817 
L 447.629944 48.329733 
L 448.600801 48.041877 
L 449.571658 47.074191 
L 450.542515 45.193853 
L 451.513372 45.193853 
L 452.484229 46.597326 
L 453.455086 46.125025 
L 454.425942 45.34782 
L 455.396799 45.34782 
L 456.367656 44.419616 
L 457.338513 44.419616 
L 458.30937 41.150915 
L 459.280227 40.349797 
L 460.251084 44.419616 
L 461.221941 44.563107 
L 462.192798 44.563107 
L 463.163655 42.970712 
L 464.134511 42.627221 
L 465.105368 44.563107 
L 466.076225 41.346939 
L 467.047082 41.70292 
L 469.959653 39.614793 
L 470.93051 40.79648 
L 471.901367 37.550903 
L 472.872223 38.340787 
L 473.84308 41.809616 
L 474.813937 39.769218 
L 475.784794 41.08183 
L 476.755651 39.933295 
L 477.726508 39.456368 
L 478.697365 39.307495 
L 479.668222 38.85039 
L 479.668222 38.85039 
" clip-path="url(#pa336aa56f7)" style="fill: none; stroke: #e377c2; stroke-width: 1.5; stroke-linecap: square"/>
   </g>
   <g id="patch_3">
    <path d="M 53.559131 194.725312 
L 53.559131 23.365313 
" style="fill: none; stroke: #000000; stroke-width: 0.8; stroke-linejoin: miter; stroke-linecap: square"/>
   </g>
   <g id="patch_4">
    <path d="M 499.959131 194.725312 
L 499.959131 23.365313 
" style="fill: none; stroke: #000000; stroke-width: 0.8; stroke-linejoin: miter; stroke-linecap: square"/>
   </g>
   <g id="patch_5">
    <path d="M 53.559131 194.725312 
L 499.959131 194.725312 
" style="fill: none; stroke: #000000; stroke-width: 0.8; stroke-linejoin: miter; stroke-linecap: square"/>
   </g>
   <g id="patch_6">
    <path d="M 53.559131 23.365313 
L 499.959131 23.365313 
" style="fill: none; stroke: #000000; stroke-width: 0.8; stroke-linejoin: miter; stroke-linecap: square"/>
   </g>
   <g id="legend_1">
    <g id="patch_7">
     <path d="M 164.201006 162.131062 
L 389.317256 162.131062 
Q 390.917256 162.131062 390.917256 160.531062 
L 390.917256 126.103562 
Q 390.917256 124.503562 389.317256 124.503562 
L 164.201006 124.503562 
Q 162.601006 124.503562 162.601006 126.103562 
L 162.601006 160.531062 
Q 162.601006 162.131062 164.201006 162.131062 
z
" style="fill: #ffffff; opacity: 0.8; stroke: #cccccc; stroke-linejoin: miter"/>
    </g>
    <g id="line2d_37">
     <path d="M 165.801006 130.982312 
L 173.801006 130.982312 
L 181.801006 130.982312 
" style="fill: none; stroke: #1f77b4; stroke-width: 1.5; stroke-linecap: square"/>
    </g>
    <g id="text_24">
     <!-- script-src -->
     <g transform="translate(188.201006 133.782312)scale(0.08 -0.08)">
      <use xlink:href="#DejaVuSans-73"/>
      <use xlink:href="#DejaVuSans-63" x="52.099609"/>
      <use xlink:href="#DejaVuSans-72" x="107.080078"/>
      <use xlink:href="#DejaVuSans-69" x="148.193359"/>
      <use xlink:href="#DejaVuSans-70" x="175.976562"/>
      <use xlink:href="#DejaVuSans-74" x="239.453125"/>
      <use xlink:href="#DejaVuSans-2d" x="278.662109"/>
      <use xlink:href="#DejaVuSans-73" x="314.746094"/>
      <use xlink:href="#DejaVuSans-72" x="366.845703"/>
      <use xlink:href="#DejaVuSans-63" x="405.708984"/>
     </g>
    </g>
    <g id="line2d_38">
     <path d="M 165.801006 142.724812 
L 173.801006 142.724812 
L 181.801006 142.724812 
" style="fill: none; stroke: #ff7f0e; stroke-width: 1.5; stroke-linecap: square"/>
    </g>
    <g id="text_25">
     <!-- connect-src -->
     <g transform="translate(188.201006 145.524812)scale(0.08 -0.08)">
      <use xlink:href="#DejaVuSans-63"/>
      <use xlink:href="#DejaVuSans-6f" x="54.980469"/>
      <use xlink:href="#DejaVuSans-6e" x="116.162109"/>
      <use xlink:href="#DejaVuSans-6e" x="179.541016"/>
      <use xlink:href="#DejaVuSans-65" x="242.919922"/>
      <use xlink:href="#DejaVuSans-63" x="304.443359"/>
      <use xlink:href="#DejaVuSans-74" x="359.423828"/>
      <use xlink:href="#DejaVuSans-2d" x="398.632812"/>
      <use xlink:href="#DejaVuSans-73" x="434.716797"/>
      <use xlink:href="#DejaVuSans-72" x="486.816406"/>
      <use xlink:href="#DejaVuSans-63" x="525.679688"/>
     </g>
    </g>
    <g id="line2d_39">
     <path d="M 165.801006 154.467312 
L 173.801006 154.467312 
L 181.801006 154.467312 
" style="fill: none; stroke: #2ca02c; stroke-width: 1.5; stroke-linecap: square"/>
    </g>
    <g id="text_26">
     <!-- style-src -->
     <g transform="translate(188.201006 157.267313)scale(0.08 -0.08)">
      <use xlink:href="#DejaVuSans-73"/>
      <use xlink:href="#DejaVuSans-74" x="52.099609"/>
      <use xlink:href="#DejaVuSans-79" x="91.308594"/>
      <use xlink:href="#DejaVuSans-6c" x="150.488281"/>
      <use xlink:href="#DejaVuSans-65" x="178.271484"/>
      <use xlink:href="#DejaVuSans-2d" x="239.794922"/>
      <use xlink:href="#DejaVuSans-73" x="275.878906"/>
      <use xlink:href="#DejaVuSans-72" x="327.978516"/>
      <use xlink:href="#DejaVuSans-63" x="366.841797"/>
     </g>
    </g>
    <g id="line2d_40">
     <path d="M 250.653506 130.982312 
L 258.653506 130.982312 
L 266.653506 130.982312 
" style="fill: none; stroke: #d62728; stroke-width: 1.5; stroke-linecap: square"/>
    </g>
    <g id="text_27">
     <!-- img-src -->
     <g transform="translate(273.053506 133.782312)scale(0.08 -0.08)">
      <defs>
       <path id="DejaVuSans-6d" d="M 3328 2828 
Q 3544 3216 3844 3400 
Q 4144 3584 4550 3584 
Q 5097 3584 5394 3201 
Q 5691 2819 5691 2113 
L 5691 0 
L 5113 0 
L 5113 2094 
Q 5113 2597 4934 2840 
Q 4756 3084 4391 3084 
Q 3944 3084 3684 2787 
Q 3425 2491 3425 1978 
L 3425 0 
L 2847 0 
L 2847 2094 
Q 2847 2600 2669 2842 
Q 2491 3084 2119 3084 
Q 1678 3084 1418 2786 
Q 1159 2488 1159 1978 
L 1159 0 
L 581 0 
L 581 3500 
L 1159 3500 
L 1159 2956 
Q 1356 3278 1631 3431 
Q 1906 3584 2284 3584 
Q 2666 3584 2933 3390 
Q 3200 3197 3328 2828 
z
" transform="scale(0.015625)"/>
      </defs>
      <use xlink:href="#DejaVuSans-69"/>
      <use xlink:href="#DejaVuSans-6d" x="27.783203"/>
      <use xlink:href="#DejaVuSans-67" x="125.195312"/>
      <use xlink:href="#DejaVuSans-2d" x="188.671875"/>
      <use xlink:href="#DejaVuSans-73" x="224.755859"/>
      <use xlink:href="#DejaVuSans-72" x="276.855469"/>
      <use xlink:href="#DejaVuSans-63" x="315.71875"/>
     </g>
    </g>
    <g id="line2d_41">
     <path d="M 250.653506 142.724812 
L 258.653506 142.724812 
L 266.653506 142.724812 
" style="fill: none; stroke: #9467bd; stroke-width: 1.5; stroke-linecap: square"/>
    </g>
    <g id="text_28">
     <!-- child-src -->
     <g transform="translate(273.053506 145.524812)scale(0.08 -0.08)">
      <defs>
       <path id="DejaVuSans-68" d="M 3513 2113 
L 3513 0 
L 2938 0 
L 2938 2094 
Q 2938 2591 2744 2837 
Q 2550 3084 2163 3084 
Q 1697 3084 1428 2787 
Q 1159 2491 1159 1978 
L 1159 0 
L 581 0 
L 581 4863 
L 1159 4863 
L 1159 2956 
Q 1366 3272 1645 3428 
Q 1925 3584 2291 3584 
Q 2894 3584 3203 3211 
Q 3513 2838 3513 2113 
z
" transform="scale(0.015625)"/>
      </defs>
      <use xlink:href="#DejaVuSans-63"/>
      <use xlink:href="#DejaVuSans-68" x="54.980469"/>
      <use xlink:href="#DejaVuSans-69" x="118.359375"/>
      <use xlink:href="#DejaVuSans-6c" x="146.142578"/>
      <use xlink:href="#DejaVuSans-64" x="173.925781"/>
      <use xlink:href="#DejaVuSans-2d" x="237.402344"/>
      <use xlink:href="#DejaVuSans-73" x="273.486328"/>
      <use xlink:href="#DejaVuSans-72" x="325.585938"/>
      <use xlink:href="#DejaVuSans-63" x="364.449219"/>
     </g>
    </g>
    <g id="line2d_42">
     <path d="M 322.607256 130.982312 
L 330.607256 130.982312 
L 338.607256 130.982312 
" style="fill: none; stroke: #8c564b; stroke-width: 1.5; stroke-linecap: square"/>
    </g>
    <g id="text_29">
     <!-- frame-src -->
     <g transform="translate(345.007256 133.782312)scale(0.08 -0.08)">
      <use xlink:href="#DejaVuSans-66"/>
      <use xlink:href="#DejaVuSans-72" x="35.205078"/>
      <use xlink:href="#DejaVuSans-61" x="76.318359"/>
      <use xlink:href="#DejaVuSans-6d" x="137.597656"/>
      <use xlink:href="#DejaVuSans-65" x="235.009766"/>
      <use xlink:href="#DejaVuSans-2d" x="296.533203"/>
      <use xlink:href="#DejaVuSans-73" x="332.617188"/>
      <use xlink:href="#DejaVuSans-72" x="384.716797"/>
      <use xlink:href="#DejaVuSans-63" x="423.580078"/>
     </g>
    </g>
    <g id="line2d_43">
     <path d="M 322.607256 142.724812 
L 330.607256 142.724812 
L 338.607256 142.724812 
" style="fill: none; stroke: #e377c2; stroke-width: 1.5; stroke-linecap: square"/>
    </g>
    <g id="text_30">
     <!-- default-src -->
     <g transform="translate(345.007256 145.524812)scale(0.08 -0.08)">
      <use xlink:href="#DejaVuSans-64"/>
      <use xlink:href="#DejaVuSans-65" x="63.476562"/>
      <use xlink:href="#DejaVuSans-66" x="125"/>
      <use xlink:href="#DejaVuSans-61" x="160.205078"/>
      <use xlink:href="#DejaVuSans-75" x="221.484375"/>
      <use xlink:href="#DejaVuSans-6c" x="284.863281"/>
      <use xlink:href="#DejaVuSans-74" x="312.646484"/>
      <use xlink:href="#DejaVuSans-2d" x="351.855469"/>
      <use xlink:href="#DejaVuSans-73" x="387.939453"/>
      <use xlink:href="#DejaVuSans-72" x="440.039062"/>
      <use xlink:href="#DejaVuSans-63" x="478.902344"/>
     </g>
    </g>
   </g>
  </g>
 </g>
 <defs>
  <clipPath id="pa336aa56f7">
   <rect x="53.559131" y="23.365313" width="446.4" height="171.36"/>
  </clipPath>
 </defs>
</svg>
