<?xml version="1.0" encoding="utf-8" standalone="no"?>
<!DOCTYPE svg PUBLIC "-//W3C//DTD SVG 1.1//EN"
  "http://www.w3.org/Graphics/SVG/1.1/DTD/svg11.dtd">
<svg xmlns:xlink="http://www.w3.org/1999/xlink" width="506.732901pt" height="250.252127pt" viewBox="0 0 506.732901 250.252127" xmlns="http://www.w3.org/2000/svg" version="1.1">
 <metadata>
  <rdf:RDF xmlns:dc="http://purl.org/dc/elements/1.1/" xmlns:cc="http://creativecommons.org/ns#" xmlns:rdf="http://www.w3.org/1999/02/22-rdf-syntax-ns#">
   <cc:Work>
    <dc:type rdf:resource="http://purl.org/dc/dcmitype/StillImage"/>
    <dc:date>2022-02-14T19:24:25.977626</dc:date>
    <dc:format>image/svg+xml</dc:format>
    <dc:creator>
     <cc:Agent>
      <dc:title>Matplotlib v3.5.1, https://matplotlib.org/</dc:title>
     </cc:Agent>
    </dc:creator>
   </cc:Work>
  </rdf:RDF>
 </metadata>
 <defs>
  <style type="text/css">*{stroke-linejoin: round; stroke-linecap: butt}</style>
 </defs>
 <g id="figure_1">
  <g id="patch_1">
   <path d="M 0 250.252127 
L 506.732901 250.252127 
L 506.732901 0 
L 0 0 
z
" style="fill: #ffffff"/>
  </g>
  <g id="axes_1">
   <g id="patch_2">
    <path d="M 53.132901 194.725312 
L 499.532901 194.725312 
L 499.532901 23.365313 
L 53.132901 23.365313 
z
" style="fill: #ffffff"/>
   </g>
   <g id="matplotlib.axis_1">
    <g id="xtick_1">
     <g id="line2d_1">
      <defs>
       <path id="mcc298f6cc8" d="M 0 0 
L 0 3.5 
" style="stroke: #000000; stroke-width: 0.8"/>
      </defs>
      <g>
       <use xlink:href="#mcc298f6cc8" x="68.024899" y="194.725312" style="stroke: #000000; stroke-width: 0.8"/>
      </g>
     </g>
     <g id="text_1">
      <!-- 2020-Nov-01 -->
      <g transform="translate(10.999219 240.62919)rotate(-30)scale(0.1 -0.1)">
       <defs>
        <path id="DejaVuSans-32" d="M 1228 531 
L 3431 531 
L 3431 0 
L 469 0 
L 469 531 
Q 828 903 1448 1529 
Q 2069 2156 2228 2338 
Q 2531 2678 2651 2914 
Q 2772 3150 2772 3378 
Q 2772 3750 2511 3984 
Q 2250 4219 1831 4219 
Q 1534 4219 1204 4116 
Q 875 4013 500 3803 
L 500 4441 
Q 881 4594 1212 4672 
Q 1544 4750 1819 4750 
Q 2544 4750 2975 4387 
Q 3406 4025 3406 3419 
Q 3406 3131 3298 2873 
Q 3191 2616 2906 2266 
Q 2828 2175 2409 1742 
Q 1991 1309 1228 531 
z
" transform="scale(0.015625)"/>
        <path id="DejaVuSans-30" d="M 2034 4250 
Q 1547 4250 1301 3770 
Q 1056 3291 1056 2328 
Q 1056 1369 1301 889 
Q 1547 409 2034 409 
Q 2525 409 2770 889 
Q 3016 1369 3016 2328 
Q 3016 3291 2770 3770 
Q 2525 4250 2034 4250 
z
M 2034 4750 
Q 2819 4750 3233 4129 
Q 3647 3509 3647 2328 
Q 3647 1150 3233 529 
Q 2819 -91 2034 -91 
Q 1250 -91 836 529 
Q 422 1150 422 2328 
Q 422 3509 836 4129 
Q 1250 4750 2034 4750 
z
" transform="scale(0.015625)"/>
        <path id="DejaVuSans-2d" d="M 313 2009 
L 1997 2009 
L 1997 1497 
L 313 1497 
L 313 2009 
z
" transform="scale(0.015625)"/>
        <path id="DejaVuSans-4e" d="M 628 4666 
L 1478 4666 
L 3547 763 
L 3547 4666 
L 4159 4666 
L 4159 0 
L 3309 0 
L 1241 3903 
L 1241 0 
L 628 0 
L 628 4666 
z
" transform="scale(0.015625)"/>
        <path id="DejaVuSans-6f" d="M 1959 3097 
Q 1497 3097 1228 2736 
Q 959 2375 959 1747 
Q 959 1119 1226 758 
Q 1494 397 1959 397 
Q 2419 397 2687 759 
Q 2956 1122 2956 1747 
Q 2956 2369 2687 2733 
Q 2419 3097 1959 3097 
z
M 1959 3584 
Q 2709 3584 3137 3096 
Q 3566 2609 3566 1747 
Q 3566 888 3137 398 
Q 2709 -91 1959 -91 
Q 1206 -91 779 398 
Q 353 888 353 1747 
Q 353 2609 779 3096 
Q 1206 3584 1959 3584 
z
" transform="scale(0.015625)"/>
        <path id="DejaVuSans-76" d="M 191 3500 
L 800 3500 
L 1894 563 
L 2988 3500 
L 3597 3500 
L 2284 0 
L 1503 0 
L 191 3500 
z
" transform="scale(0.015625)"/>
        <path id="DejaVuSans-31" d="M 794 531 
L 1825 531 
L 1825 4091 
L 703 3866 
L 703 4441 
L 1819 4666 
L 2450 4666 
L 2450 531 
L 3481 531 
L 3481 0 
L 794 0 
L 794 531 
z
" transform="scale(0.015625)"/>
       </defs>
       <use xlink:href="#DejaVuSans-32"/>
       <use xlink:href="#DejaVuSans-30" x="63.623047"/>
       <use xlink:href="#DejaVuSans-32" x="127.246094"/>
       <use xlink:href="#DejaVuSans-30" x="190.869141"/>
       <use xlink:href="#DejaVuSans-2d" x="254.492188"/>
       <use xlink:href="#DejaVuSans-4e" x="290.576172"/>
       <use xlink:href="#DejaVuSans-6f" x="365.380859"/>
       <use xlink:href="#DejaVuSans-76" x="426.5625"/>
       <use xlink:href="#DejaVuSans-2d" x="483.117188"/>
       <use xlink:href="#DejaVuSans-30" x="519.201172"/>
       <use xlink:href="#DejaVuSans-31" x="582.824219"/>
      </g>
     </g>
    </g>
    <g id="xtick_2">
     <g id="line2d_2">
      <g>
       <use xlink:href="#mcc298f6cc8" x="95.019456" y="194.725312" style="stroke: #000000; stroke-width: 0.8"/>
      </g>
     </g>
     <g id="text_2">
      <!-- 2020-Dec-01 -->
      <g transform="translate(37.911233 240.676846)rotate(-30)scale(0.1 -0.1)">
       <defs>
        <path id="DejaVuSans-44" d="M 1259 4147 
L 1259 519 
L 2022 519 
Q 2988 519 3436 956 
Q 3884 1394 3884 2338 
Q 3884 3275 3436 3711 
Q 2988 4147 2022 4147 
L 1259 4147 
z
M 628 4666 
L 1925 4666 
Q 3281 4666 3915 4102 
Q 4550 3538 4550 2338 
Q 4550 1131 3912 565 
Q 3275 0 1925 0 
L 628 0 
L 628 4666 
z
" transform="scale(0.015625)"/>
        <path id="DejaVuSans-65" d="M 3597 1894 
L 3597 1613 
L 953 1613 
Q 991 1019 1311 708 
Q 1631 397 2203 397 
Q 2534 397 2845 478 
Q 3156 559 3463 722 
L 3463 178 
Q 3153 47 2828 -22 
Q 2503 -91 2169 -91 
Q 1331 -91 842 396 
Q 353 884 353 1716 
Q 353 2575 817 3079 
Q 1281 3584 2069 3584 
Q 2775 3584 3186 3129 
Q 3597 2675 3597 1894 
z
M 3022 2063 
Q 3016 2534 2758 2815 
Q 2500 3097 2075 3097 
Q 1594 3097 1305 2825 
Q 1016 2553 972 2059 
L 3022 2063 
z
" transform="scale(0.015625)"/>
        <path id="DejaVuSans-63" d="M 3122 3366 
L 3122 2828 
Q 2878 2963 2633 3030 
Q 2388 3097 2138 3097 
Q 1578 3097 1268 2742 
Q 959 2388 959 1747 
Q 959 1106 1268 751 
Q 1578 397 2138 397 
Q 2388 397 2633 464 
Q 2878 531 3122 666 
L 3122 134 
Q 2881 22 2623 -34 
Q 2366 -91 2075 -91 
Q 1284 -91 818 406 
Q 353 903 353 1747 
Q 353 2603 823 3093 
Q 1294 3584 2113 3584 
Q 2378 3584 2631 3529 
Q 2884 3475 3122 3366 
z
" transform="scale(0.015625)"/>
       </defs>
       <use xlink:href="#DejaVuSans-32"/>
       <use xlink:href="#DejaVuSans-30" x="63.623047"/>
       <use xlink:href="#DejaVuSans-32" x="127.246094"/>
       <use xlink:href="#DejaVuSans-30" x="190.869141"/>
       <use xlink:href="#DejaVuSans-2d" x="254.492188"/>
       <use xlink:href="#DejaVuSans-44" x="290.576172"/>
       <use xlink:href="#DejaVuSans-65" x="367.578125"/>
       <use xlink:href="#DejaVuSans-63" x="429.101562"/>
       <use xlink:href="#DejaVuSans-2d" x="484.082031"/>
       <use xlink:href="#DejaVuSans-30" x="520.166016"/>
       <use xlink:href="#DejaVuSans-31" x="583.789062"/>
      </g>
     </g>
    </g>
    <g id="xtick_3">
     <g id="line2d_3">
      <g>
       <use xlink:href="#mcc298f6cc8" x="122.913832" y="194.725312" style="stroke: #000000; stroke-width: 0.8"/>
      </g>
     </g>
     <g id="text_3">
      <!-- 2021-Jan-01 -->
      <g transform="translate(68.727092 238.990127)rotate(-30)scale(0.1 -0.1)">
       <defs>
        <path id="DejaVuSans-4a" d="M 628 4666 
L 1259 4666 
L 1259 325 
Q 1259 -519 939 -900 
Q 619 -1281 -91 -1281 
L -331 -1281 
L -331 -750 
L -134 -750 
Q 284 -750 456 -515 
Q 628 -281 628 325 
L 628 4666 
z
" transform="scale(0.015625)"/>
        <path id="DejaVuSans-61" d="M 2194 1759 
Q 1497 1759 1228 1600 
Q 959 1441 959 1056 
Q 959 750 1161 570 
Q 1363 391 1709 391 
Q 2188 391 2477 730 
Q 2766 1069 2766 1631 
L 2766 1759 
L 2194 1759 
z
M 3341 1997 
L 3341 0 
L 2766 0 
L 2766 531 
Q 2569 213 2275 61 
Q 1981 -91 1556 -91 
Q 1019 -91 701 211 
Q 384 513 384 1019 
Q 384 1609 779 1909 
Q 1175 2209 1959 2209 
L 2766 2209 
L 2766 2266 
Q 2766 2663 2505 2880 
Q 2244 3097 1772 3097 
Q 1472 3097 1187 3025 
Q 903 2953 641 2809 
L 641 3341 
Q 956 3463 1253 3523 
Q 1550 3584 1831 3584 
Q 2591 3584 2966 3190 
Q 3341 2797 3341 1997 
z
" transform="scale(0.015625)"/>
        <path id="DejaVuSans-6e" d="M 3513 2113 
L 3513 0 
L 2938 0 
L 2938 2094 
Q 2938 2591 2744 2837 
Q 2550 3084 2163 3084 
Q 1697 3084 1428 2787 
Q 1159 2491 1159 1978 
L 1159 0 
L 581 0 
L 581 3500 
L 1159 3500 
L 1159 2956 
Q 1366 3272 1645 3428 
Q 1925 3584 2291 3584 
Q 2894 3584 3203 3211 
Q 3513 2838 3513 2113 
z
" transform="scale(0.015625)"/>
       </defs>
       <use xlink:href="#DejaVuSans-32"/>
       <use xlink:href="#DejaVuSans-30" x="63.623047"/>
       <use xlink:href="#DejaVuSans-32" x="127.246094"/>
       <use xlink:href="#DejaVuSans-31" x="190.869141"/>
       <use xlink:href="#DejaVuSans-2d" x="254.492188"/>
       <use xlink:href="#DejaVuSans-4a" x="296.201172"/>
       <use xlink:href="#DejaVuSans-61" x="325.693359"/>
       <use xlink:href="#DejaVuSans-6e" x="386.972656"/>
       <use xlink:href="#DejaVuSans-2d" x="450.351562"/>
       <use xlink:href="#DejaVuSans-30" x="486.435547"/>
       <use xlink:href="#DejaVuSans-31" x="550.058594"/>
      </g>
     </g>
    </g>
    <g id="xtick_4">
     <g id="line2d_4">
      <g>
       <use xlink:href="#mcc298f6cc8" x="150.808208" y="194.725312" style="stroke: #000000; stroke-width: 0.8"/>
      </g>
     </g>
     <g id="text_4">
      <!-- 2021-Feb-01 -->
      <g transform="translate(95.127574 239.852627)rotate(-30)scale(0.1 -0.1)">
       <defs>
        <path id="DejaVuSans-46" d="M 628 4666 
L 3309 4666 
L 3309 4134 
L 1259 4134 
L 1259 2759 
L 3109 2759 
L 3109 2228 
L 1259 2228 
L 1259 0 
L 628 0 
L 628 4666 
z
" transform="scale(0.015625)"/>
        <path id="DejaVuSans-62" d="M 3116 1747 
Q 3116 2381 2855 2742 
Q 2594 3103 2138 3103 
Q 1681 3103 1420 2742 
Q 1159 2381 1159 1747 
Q 1159 1113 1420 752 
Q 1681 391 2138 391 
Q 2594 391 2855 752 
Q 3116 1113 3116 1747 
z
M 1159 2969 
Q 1341 3281 1617 3432 
Q 1894 3584 2278 3584 
Q 2916 3584 3314 3078 
Q 3713 2572 3713 1747 
Q 3713 922 3314 415 
Q 2916 -91 2278 -91 
Q 1894 -91 1617 61 
Q 1341 213 1159 525 
L 1159 0 
L 581 0 
L 581 4863 
L 1159 4863 
L 1159 2969 
z
" transform="scale(0.015625)"/>
       </defs>
       <use xlink:href="#DejaVuSans-32"/>
       <use xlink:href="#DejaVuSans-30" x="63.623047"/>
       <use xlink:href="#DejaVuSans-32" x="127.246094"/>
       <use xlink:href="#DejaVuSans-31" x="190.869141"/>
       <use xlink:href="#DejaVuSans-2d" x="254.492188"/>
       <use xlink:href="#DejaVuSans-46" x="290.576172"/>
       <use xlink:href="#DejaVuSans-65" x="342.595703"/>
       <use xlink:href="#DejaVuSans-62" x="404.119141"/>
       <use xlink:href="#DejaVuSans-2d" x="467.595703"/>
       <use xlink:href="#DejaVuSans-30" x="503.679688"/>
       <use xlink:href="#DejaVuSans-31" x="567.302734"/>
      </g>
     </g>
    </g>
    <g id="xtick_5">
     <g id="line2d_5">
      <g>
       <use xlink:href="#mcc298f6cc8" x="176.003129" y="194.725312" style="stroke: #000000; stroke-width: 0.8"/>
      </g>
     </g>
     <g id="text_5">
      <!-- 2021-Mar-01 -->
      <g transform="translate(119.866478 240.115909)rotate(-30)scale(0.1 -0.1)">
       <defs>
        <path id="DejaVuSans-4d" d="M 628 4666 
L 1569 4666 
L 2759 1491 
L 3956 4666 
L 4897 4666 
L 4897 0 
L 4281 0 
L 4281 4097 
L 3078 897 
L 2444 897 
L 1241 4097 
L 1241 0 
L 628 0 
L 628 4666 
z
" transform="scale(0.015625)"/>
        <path id="DejaVuSans-72" d="M 2631 2963 
Q 2534 3019 2420 3045 
Q 2306 3072 2169 3072 
Q 1681 3072 1420 2755 
Q 1159 2438 1159 1844 
L 1159 0 
L 581 0 
L 581 3500 
L 1159 3500 
L 1159 2956 
Q 1341 3275 1631 3429 
Q 1922 3584 2338 3584 
Q 2397 3584 2469 3576 
Q 2541 3569 2628 3553 
L 2631 2963 
z
" transform="scale(0.015625)"/>
       </defs>
       <use xlink:href="#DejaVuSans-32"/>
       <use xlink:href="#DejaVuSans-30" x="63.623047"/>
       <use xlink:href="#DejaVuSans-32" x="127.246094"/>
       <use xlink:href="#DejaVuSans-31" x="190.869141"/>
       <use xlink:href="#DejaVuSans-2d" x="254.492188"/>
       <use xlink:href="#DejaVuSans-4d" x="290.576172"/>
       <use xlink:href="#DejaVuSans-61" x="376.855469"/>
       <use xlink:href="#DejaVuSans-72" x="438.134766"/>
       <use xlink:href="#DejaVuSans-2d" x="472.873047"/>
       <use xlink:href="#DejaVuSans-30" x="508.957031"/>
       <use xlink:href="#DejaVuSans-31" x="572.580078"/>
      </g>
     </g>
    </g>
    <g id="xtick_6">
     <g id="line2d_6">
      <g>
       <use xlink:href="#mcc298f6cc8" x="203.897505" y="194.725312" style="stroke: #000000; stroke-width: 0.8"/>
      </g>
     </g>
     <g id="text_6">
      <!-- 2021-Apr-01 -->
      <g transform="translate(149.312934 239.219815)rotate(-30)scale(0.1 -0.1)">
       <defs>
        <path id="DejaVuSans-41" d="M 2188 4044 
L 1331 1722 
L 3047 1722 
L 2188 4044 
z
M 1831 4666 
L 2547 4666 
L 4325 0 
L 3669 0 
L 3244 1197 
L 1141 1197 
L 716 0 
L 50 0 
L 1831 4666 
z
" transform="scale(0.015625)"/>
        <path id="DejaVuSans-70" d="M 1159 525 
L 1159 -1331 
L 581 -1331 
L 581 3500 
L 1159 3500 
L 1159 2969 
Q 1341 3281 1617 3432 
Q 1894 3584 2278 3584 
Q 2916 3584 3314 3078 
Q 3713 2572 3713 1747 
Q 3713 922 3314 415 
Q 2916 -91 2278 -91 
Q 1894 -91 1617 61 
Q 1341 213 1159 525 
z
M 3116 1747 
Q 3116 2381 2855 2742 
Q 2594 3103 2138 3103 
Q 1681 3103 1420 2742 
Q 1159 2381 1159 1747 
Q 1159 1113 1420 752 
Q 1681 391 2138 391 
Q 2594 391 2855 752 
Q 3116 1113 3116 1747 
z
" transform="scale(0.015625)"/>
       </defs>
       <use xlink:href="#DejaVuSans-32"/>
       <use xlink:href="#DejaVuSans-30" x="63.623047"/>
       <use xlink:href="#DejaVuSans-32" x="127.246094"/>
       <use xlink:href="#DejaVuSans-31" x="190.869141"/>
       <use xlink:href="#DejaVuSans-2d" x="254.492188"/>
       <use xlink:href="#DejaVuSans-41" x="288.326172"/>
       <use xlink:href="#DejaVuSans-70" x="356.734375"/>
       <use xlink:href="#DejaVuSans-72" x="420.210938"/>
       <use xlink:href="#DejaVuSans-2d" x="454.949219"/>
       <use xlink:href="#DejaVuSans-30" x="491.033203"/>
       <use xlink:href="#DejaVuSans-31" x="554.65625"/>
      </g>
     </g>
    </g>
    <g id="xtick_7">
     <g id="line2d_7">
      <g>
       <use xlink:href="#mcc298f6cc8" x="230.892062" y="194.725312" style="stroke: #000000; stroke-width: 0.8"/>
      </g>
     </g>
     <g id="text_7">
      <!-- 2021-May-01 -->
      <g transform="translate(172.789264 241.251065)rotate(-30)scale(0.1 -0.1)">
       <defs>
        <path id="DejaVuSans-79" d="M 2059 -325 
Q 1816 -950 1584 -1140 
Q 1353 -1331 966 -1331 
L 506 -1331 
L 506 -850 
L 844 -850 
Q 1081 -850 1212 -737 
Q 1344 -625 1503 -206 
L 1606 56 
L 191 3500 
L 800 3500 
L 1894 763 
L 2988 3500 
L 3597 3500 
L 2059 -325 
z
" transform="scale(0.015625)"/>
       </defs>
       <use xlink:href="#DejaVuSans-32"/>
       <use xlink:href="#DejaVuSans-30" x="63.623047"/>
       <use xlink:href="#DejaVuSans-32" x="127.246094"/>
       <use xlink:href="#DejaVuSans-31" x="190.869141"/>
       <use xlink:href="#DejaVuSans-2d" x="254.492188"/>
       <use xlink:href="#DejaVuSans-4d" x="290.576172"/>
       <use xlink:href="#DejaVuSans-61" x="376.855469"/>
       <use xlink:href="#DejaVuSans-79" x="438.134766"/>
       <use xlink:href="#DejaVuSans-2d" x="495.564453"/>
       <use xlink:href="#DejaVuSans-30" x="531.648438"/>
       <use xlink:href="#DejaVuSans-31" x="595.271484"/>
      </g>
     </g>
    </g>
    <g id="xtick_8">
     <g id="line2d_8">
      <g>
       <use xlink:href="#mcc298f6cc8" x="258.786439" y="194.725312" style="stroke: #000000; stroke-width: 0.8"/>
      </g>
     </g>
     <g id="text_8">
      <!-- 2021-Jun-01 -->
      <g transform="translate(204.418374 239.094815)rotate(-30)scale(0.1 -0.1)">
       <defs>
        <path id="DejaVuSans-75" d="M 544 1381 
L 544 3500 
L 1119 3500 
L 1119 1403 
Q 1119 906 1312 657 
Q 1506 409 1894 409 
Q 2359 409 2629 706 
Q 2900 1003 2900 1516 
L 2900 3500 
L 3475 3500 
L 3475 0 
L 2900 0 
L 2900 538 
Q 2691 219 2414 64 
Q 2138 -91 1772 -91 
Q 1169 -91 856 284 
Q 544 659 544 1381 
z
M 1991 3584 
L 1991 3584 
z
" transform="scale(0.015625)"/>
       </defs>
       <use xlink:href="#DejaVuSans-32"/>
       <use xlink:href="#DejaVuSans-30" x="63.623047"/>
       <use xlink:href="#DejaVuSans-32" x="127.246094"/>
       <use xlink:href="#DejaVuSans-31" x="190.869141"/>
       <use xlink:href="#DejaVuSans-2d" x="254.492188"/>
       <use xlink:href="#DejaVuSans-4a" x="296.201172"/>
       <use xlink:href="#DejaVuSans-75" x="325.693359"/>
       <use xlink:href="#DejaVuSans-6e" x="389.072266"/>
       <use xlink:href="#DejaVuSans-2d" x="452.451172"/>
       <use xlink:href="#DejaVuSans-30" x="488.535156"/>
       <use xlink:href="#DejaVuSans-31" x="552.158203"/>
      </g>
     </g>
    </g>
    <g id="xtick_9">
     <g id="line2d_9">
      <g>
       <use xlink:href="#mcc298f6cc8" x="285.780996" y="194.725312" style="stroke: #000000; stroke-width: 0.8"/>
      </g>
     </g>
     <g id="text_9">
      <!-- 2021-Jul-01 -->
      <g transform="translate(234.495441 237.315127)rotate(-30)scale(0.1 -0.1)">
       <defs>
        <path id="DejaVuSans-6c" d="M 603 4863 
L 1178 4863 
L 1178 0 
L 603 0 
L 603 4863 
z
" transform="scale(0.015625)"/>
       </defs>
       <use xlink:href="#DejaVuSans-32"/>
       <use xlink:href="#DejaVuSans-30" x="63.623047"/>
       <use xlink:href="#DejaVuSans-32" x="127.246094"/>
       <use xlink:href="#DejaVuSans-31" x="190.869141"/>
       <use xlink:href="#DejaVuSans-2d" x="254.492188"/>
       <use xlink:href="#DejaVuSans-4a" x="296.201172"/>
       <use xlink:href="#DejaVuSans-75" x="325.693359"/>
       <use xlink:href="#DejaVuSans-6c" x="389.072266"/>
       <use xlink:href="#DejaVuSans-2d" x="416.855469"/>
       <use xlink:href="#DejaVuSans-30" x="452.939453"/>
       <use xlink:href="#DejaVuSans-31" x="516.5625"/>
      </g>
     </g>
    </g>
    <g id="xtick_10">
     <g id="line2d_10">
      <g>
       <use xlink:href="#mcc298f6cc8" x="313.675372" y="194.725312" style="stroke: #000000; stroke-width: 0.8"/>
      </g>
     </g>
     <g id="text_10">
      <!-- 2021-Aug-01 -->
      <g transform="translate(256.610451 240.651846)rotate(-30)scale(0.1 -0.1)">
       <defs>
        <path id="DejaVuSans-67" d="M 2906 1791 
Q 2906 2416 2648 2759 
Q 2391 3103 1925 3103 
Q 1463 3103 1205 2759 
Q 947 2416 947 1791 
Q 947 1169 1205 825 
Q 1463 481 1925 481 
Q 2391 481 2648 825 
Q 2906 1169 2906 1791 
z
M 3481 434 
Q 3481 -459 3084 -895 
Q 2688 -1331 1869 -1331 
Q 1566 -1331 1297 -1286 
Q 1028 -1241 775 -1147 
L 775 -588 
Q 1028 -725 1275 -790 
Q 1522 -856 1778 -856 
Q 2344 -856 2625 -561 
Q 2906 -266 2906 331 
L 2906 616 
Q 2728 306 2450 153 
Q 2172 0 1784 0 
Q 1141 0 747 490 
Q 353 981 353 1791 
Q 353 2603 747 3093 
Q 1141 3584 1784 3584 
Q 2172 3584 2450 3431 
Q 2728 3278 2906 2969 
L 2906 3500 
L 3481 3500 
L 3481 434 
z
" transform="scale(0.015625)"/>
       </defs>
       <use xlink:href="#DejaVuSans-32"/>
       <use xlink:href="#DejaVuSans-30" x="63.623047"/>
       <use xlink:href="#DejaVuSans-32" x="127.246094"/>
       <use xlink:href="#DejaVuSans-31" x="190.869141"/>
       <use xlink:href="#DejaVuSans-2d" x="254.492188"/>
       <use xlink:href="#DejaVuSans-41" x="288.326172"/>
       <use xlink:href="#DejaVuSans-75" x="356.734375"/>
       <use xlink:href="#DejaVuSans-67" x="420.113281"/>
       <use xlink:href="#DejaVuSans-2d" x="483.589844"/>
       <use xlink:href="#DejaVuSans-30" x="519.673828"/>
       <use xlink:href="#DejaVuSans-31" x="583.296875"/>
      </g>
     </g>
    </g>
    <g id="xtick_11">
     <g id="line2d_11">
      <g>
       <use xlink:href="#mcc298f6cc8" x="341.569748" y="194.725312" style="stroke: #000000; stroke-width: 0.8"/>
      </g>
     </g>
     <g id="text_11">
      <!-- 2021-Sep-01 -->
      <g transform="translate(284.895891 240.426065)rotate(-30)scale(0.1 -0.1)">
       <defs>
        <path id="DejaVuSans-53" d="M 3425 4513 
L 3425 3897 
Q 3066 4069 2747 4153 
Q 2428 4238 2131 4238 
Q 1616 4238 1336 4038 
Q 1056 3838 1056 3469 
Q 1056 3159 1242 3001 
Q 1428 2844 1947 2747 
L 2328 2669 
Q 3034 2534 3370 2195 
Q 3706 1856 3706 1288 
Q 3706 609 3251 259 
Q 2797 -91 1919 -91 
Q 1588 -91 1214 -16 
Q 841 59 441 206 
L 441 856 
Q 825 641 1194 531 
Q 1563 422 1919 422 
Q 2459 422 2753 634 
Q 3047 847 3047 1241 
Q 3047 1584 2836 1778 
Q 2625 1972 2144 2069 
L 1759 2144 
Q 1053 2284 737 2584 
Q 422 2884 422 3419 
Q 422 4038 858 4394 
Q 1294 4750 2059 4750 
Q 2388 4750 2728 4690 
Q 3069 4631 3425 4513 
z
" transform="scale(0.015625)"/>
       </defs>
       <use xlink:href="#DejaVuSans-32"/>
       <use xlink:href="#DejaVuSans-30" x="63.623047"/>
       <use xlink:href="#DejaVuSans-32" x="127.246094"/>
       <use xlink:href="#DejaVuSans-31" x="190.869141"/>
       <use xlink:href="#DejaVuSans-2d" x="254.492188"/>
       <use xlink:href="#DejaVuSans-53" x="290.576172"/>
       <use xlink:href="#DejaVuSans-65" x="354.052734"/>
       <use xlink:href="#DejaVuSans-70" x="415.576172"/>
       <use xlink:href="#DejaVuSans-2d" x="479.052734"/>
       <use xlink:href="#DejaVuSans-30" x="515.136719"/>
       <use xlink:href="#DejaVuSans-31" x="578.759766"/>
      </g>
     </g>
    </g>
    <g id="xtick_12">
     <g id="line2d_12">
      <g>
       <use xlink:href="#mcc298f6cc8" x="368.564306" y="194.725312" style="stroke: #000000; stroke-width: 0.8"/>
      </g>
     </g>
     <g id="text_12">
      <!-- 2021-Oct-01 -->
      <g transform="translate(313.00275 239.783877)rotate(-30)scale(0.1 -0.1)">
       <defs>
        <path id="DejaVuSans-4f" d="M 2522 4238 
Q 1834 4238 1429 3725 
Q 1025 3213 1025 2328 
Q 1025 1447 1429 934 
Q 1834 422 2522 422 
Q 3209 422 3611 934 
Q 4013 1447 4013 2328 
Q 4013 3213 3611 3725 
Q 3209 4238 2522 4238 
z
M 2522 4750 
Q 3503 4750 4090 4092 
Q 4678 3434 4678 2328 
Q 4678 1225 4090 567 
Q 3503 -91 2522 -91 
Q 1538 -91 948 565 
Q 359 1222 359 2328 
Q 359 3434 948 4092 
Q 1538 4750 2522 4750 
z
" transform="scale(0.015625)"/>
        <path id="DejaVuSans-74" d="M 1172 4494 
L 1172 3500 
L 2356 3500 
L 2356 3053 
L 1172 3053 
L 1172 1153 
Q 1172 725 1289 603 
Q 1406 481 1766 481 
L 2356 481 
L 2356 0 
L 1766 0 
Q 1100 0 847 248 
Q 594 497 594 1153 
L 594 3053 
L 172 3053 
L 172 3500 
L 594 3500 
L 594 4494 
L 1172 4494 
z
" transform="scale(0.015625)"/>
       </defs>
       <use xlink:href="#DejaVuSans-32"/>
       <use xlink:href="#DejaVuSans-30" x="63.623047"/>
       <use xlink:href="#DejaVuSans-32" x="127.246094"/>
       <use xlink:href="#DejaVuSans-31" x="190.869141"/>
       <use xlink:href="#DejaVuSans-2d" x="254.492188"/>
       <use xlink:href="#DejaVuSans-4f" x="293.326172"/>
       <use xlink:href="#DejaVuSans-63" x="372.037109"/>
       <use xlink:href="#DejaVuSans-74" x="427.017578"/>
       <use xlink:href="#DejaVuSans-2d" x="466.226562"/>
       <use xlink:href="#DejaVuSans-30" x="502.310547"/>
       <use xlink:href="#DejaVuSans-31" x="565.933594"/>
      </g>
     </g>
    </g>
    <g id="xtick_13">
     <g id="line2d_13">
      <g>
       <use xlink:href="#mcc298f6cc8" x="396.458682" y="194.725312" style="stroke: #000000; stroke-width: 0.8"/>
      </g>
     </g>
     <g id="text_13">
      <!-- 2021-Nov-01 -->
      <g transform="translate(339.433002 240.62919)rotate(-30)scale(0.1 -0.1)">
       <use xlink:href="#DejaVuSans-32"/>
       <use xlink:href="#DejaVuSans-30" x="63.623047"/>
       <use xlink:href="#DejaVuSans-32" x="127.246094"/>
       <use xlink:href="#DejaVuSans-31" x="190.869141"/>
       <use xlink:href="#DejaVuSans-2d" x="254.492188"/>
       <use xlink:href="#DejaVuSans-4e" x="290.576172"/>
       <use xlink:href="#DejaVuSans-6f" x="365.380859"/>
       <use xlink:href="#DejaVuSans-76" x="426.5625"/>
       <use xlink:href="#DejaVuSans-2d" x="483.117188"/>
       <use xlink:href="#DejaVuSans-30" x="519.201172"/>
       <use xlink:href="#DejaVuSans-31" x="582.824219"/>
      </g>
     </g>
    </g>
    <g id="xtick_14">
     <g id="line2d_14">
      <g>
       <use xlink:href="#mcc298f6cc8" x="423.45324" y="194.725312" style="stroke: #000000; stroke-width: 0.8"/>
      </g>
     </g>
     <g id="text_14">
      <!-- 2021-Dec-01 -->
      <g transform="translate(366.345017 240.676846)rotate(-30)scale(0.1 -0.1)">
       <use xlink:href="#DejaVuSans-32"/>
       <use xlink:href="#DejaVuSans-30" x="63.623047"/>
       <use xlink:href="#DejaVuSans-32" x="127.246094"/>
       <use xlink:href="#DejaVuSans-31" x="190.869141"/>
       <use xlink:href="#DejaVuSans-2d" x="254.492188"/>
       <use xlink:href="#DejaVuSans-44" x="290.576172"/>
       <use xlink:href="#DejaVuSans-65" x="367.578125"/>
       <use xlink:href="#DejaVuSans-63" x="429.101562"/>
       <use xlink:href="#DejaVuSans-2d" x="484.082031"/>
       <use xlink:href="#DejaVuSans-30" x="520.166016"/>
       <use xlink:href="#DejaVuSans-31" x="583.789062"/>
      </g>
     </g>
    </g>
    <g id="xtick_15">
     <g id="line2d_15">
      <g>
       <use xlink:href="#mcc298f6cc8" x="451.347616" y="194.725312" style="stroke: #000000; stroke-width: 0.8"/>
      </g>
     </g>
     <g id="text_15">
      <!-- 2022-Jan-01 -->
      <g transform="translate(397.160875 238.990127)rotate(-30)scale(0.1 -0.1)">
       <use xlink:href="#DejaVuSans-32"/>
       <use xlink:href="#DejaVuSans-30" x="63.623047"/>
       <use xlink:href="#DejaVuSans-32" x="127.246094"/>
       <use xlink:href="#DejaVuSans-32" x="190.869141"/>
       <use xlink:href="#DejaVuSans-2d" x="254.492188"/>
       <use xlink:href="#DejaVuSans-4a" x="296.201172"/>
       <use xlink:href="#DejaVuSans-61" x="325.693359"/>
       <use xlink:href="#DejaVuSans-6e" x="386.972656"/>
       <use xlink:href="#DejaVuSans-2d" x="450.351562"/>
       <use xlink:href="#DejaVuSans-30" x="486.435547"/>
       <use xlink:href="#DejaVuSans-31" x="550.058594"/>
      </g>
     </g>
    </g>
    <g id="xtick_16">
     <g id="line2d_16">
      <g>
       <use xlink:href="#mcc298f6cc8" x="479.241992" y="194.725312" style="stroke: #000000; stroke-width: 0.8"/>
      </g>
     </g>
     <g id="text_16">
      <!-- 2022-Feb-01 -->
      <g transform="translate(423.561358 239.852627)rotate(-30)scale(0.1 -0.1)">
       <use xlink:href="#DejaVuSans-32"/>
       <use xlink:href="#DejaVuSans-30" x="63.623047"/>
       <use xlink:href="#DejaVuSans-32" x="127.246094"/>
       <use xlink:href="#DejaVuSans-32" x="190.869141"/>
       <use xlink:href="#DejaVuSans-2d" x="254.492188"/>
       <use xlink:href="#DejaVuSans-46" x="290.576172"/>
       <use xlink:href="#DejaVuSans-65" x="342.595703"/>
       <use xlink:href="#DejaVuSans-62" x="404.119141"/>
       <use xlink:href="#DejaVuSans-2d" x="467.595703"/>
       <use xlink:href="#DejaVuSans-30" x="503.679688"/>
       <use xlink:href="#DejaVuSans-31" x="567.302734"/>
      </g>
     </g>
    </g>
   </g>
   <g id="matplotlib.axis_2">
    <g id="ytick_1">
     <g id="line2d_17">
      <path d="M 53.132901 165.0707 
L 499.532901 165.0707 
" clip-path="url(#pb02ee767a7)" style="fill: none; stroke: #b0b0b0; stroke-width: 0.8; stroke-linecap: square"/>
     </g>
     <g id="line2d_18">
      <defs>
       <path id="mbdf2468fa7" d="M 0 0 
L -3.5 0 
" style="stroke: #000000; stroke-width: 0.8"/>
      </defs>
      <g>
       <use xlink:href="#mbdf2468fa7" x="53.132901" y="165.0707" style="stroke: #000000; stroke-width: 0.8"/>
      </g>
     </g>
     <g id="text_17">
      <!-- 20 -->
      <g transform="translate(33.407901 168.869919)scale(0.1 -0.1)">
       <use xlink:href="#DejaVuSans-32"/>
       <use xlink:href="#DejaVuSans-30" x="63.623047"/>
      </g>
     </g>
    </g>
    <g id="ytick_2">
     <g id="line2d_19">
      <path d="M 53.132901 131.812972 
L 499.532901 131.812972 
" clip-path="url(#pb02ee767a7)" style="fill: none; stroke: #b0b0b0; stroke-width: 0.8; stroke-linecap: square"/>
     </g>
     <g id="line2d_20">
      <g>
       <use xlink:href="#mbdf2468fa7" x="53.132901" y="131.812972" style="stroke: #000000; stroke-width: 0.8"/>
      </g>
     </g>
     <g id="text_18">
      <!-- 30 -->
      <g transform="translate(33.407901 135.612191)scale(0.1 -0.1)">
       <defs>
        <path id="DejaVuSans-33" d="M 2597 2516 
Q 3050 2419 3304 2112 
Q 3559 1806 3559 1356 
Q 3559 666 3084 287 
Q 2609 -91 1734 -91 
Q 1441 -91 1130 -33 
Q 819 25 488 141 
L 488 750 
Q 750 597 1062 519 
Q 1375 441 1716 441 
Q 2309 441 2620 675 
Q 2931 909 2931 1356 
Q 2931 1769 2642 2001 
Q 2353 2234 1838 2234 
L 1294 2234 
L 1294 2753 
L 1863 2753 
Q 2328 2753 2575 2939 
Q 2822 3125 2822 3475 
Q 2822 3834 2567 4026 
Q 2313 4219 1838 4219 
Q 1578 4219 1281 4162 
Q 984 4106 628 3988 
L 628 4550 
Q 988 4650 1302 4700 
Q 1616 4750 1894 4750 
Q 2613 4750 3031 4423 
Q 3450 4097 3450 3541 
Q 3450 3153 3228 2886 
Q 3006 2619 2597 2516 
z
" transform="scale(0.015625)"/>
       </defs>
       <use xlink:href="#DejaVuSans-33"/>
       <use xlink:href="#DejaVuSans-30" x="63.623047"/>
      </g>
     </g>
    </g>
    <g id="ytick_3">
     <g id="line2d_21">
      <path d="M 53.132901 98.555244 
L 499.532901 98.555244 
" clip-path="url(#pb02ee767a7)" style="fill: none; stroke: #b0b0b0; stroke-width: 0.8; stroke-linecap: square"/>
     </g>
     <g id="line2d_22">
      <g>
       <use xlink:href="#mbdf2468fa7" x="53.132901" y="98.555244" style="stroke: #000000; stroke-width: 0.8"/>
      </g>
     </g>
     <g id="text_19">
      <!-- 40 -->
      <g transform="translate(33.407901 102.354463)scale(0.1 -0.1)">
       <defs>
        <path id="DejaVuSans-34" d="M 2419 4116 
L 825 1625 
L 2419 1625 
L 2419 4116 
z
M 2253 4666 
L 3047 4666 
L 3047 1625 
L 3713 1625 
L 3713 1100 
L 3047 1100 
L 3047 0 
L 2419 0 
L 2419 1100 
L 313 1100 
L 313 1709 
L 2253 4666 
z
" transform="scale(0.015625)"/>
       </defs>
       <use xlink:href="#DejaVuSans-34"/>
       <use xlink:href="#DejaVuSans-30" x="63.623047"/>
      </g>
     </g>
    </g>
    <g id="ytick_4">
     <g id="line2d_23">
      <path d="M 53.132901 65.297517 
L 499.532901 65.297517 
" clip-path="url(#pb02ee767a7)" style="fill: none; stroke: #b0b0b0; stroke-width: 0.8; stroke-linecap: square"/>
     </g>
     <g id="line2d_24">
      <g>
       <use xlink:href="#mbdf2468fa7" x="53.132901" y="65.297517" style="stroke: #000000; stroke-width: 0.8"/>
      </g>
     </g>
     <g id="text_20">
      <!-- 50 -->
      <g transform="translate(33.407901 69.096735)scale(0.1 -0.1)">
       <defs>
        <path id="DejaVuSans-35" d="M 691 4666 
L 3169 4666 
L 3169 4134 
L 1269 4134 
L 1269 2991 
Q 1406 3038 1543 3061 
Q 1681 3084 1819 3084 
Q 2600 3084 3056 2656 
Q 3513 2228 3513 1497 
Q 3513 744 3044 326 
Q 2575 -91 1722 -91 
Q 1428 -91 1123 -41 
Q 819 9 494 109 
L 494 744 
Q 775 591 1075 516 
Q 1375 441 1709 441 
Q 2250 441 2565 725 
Q 2881 1009 2881 1497 
Q 2881 1984 2565 2268 
Q 2250 2553 1709 2553 
Q 1456 2553 1204 2497 
Q 953 2441 691 2322 
L 691 4666 
z
" transform="scale(0.015625)"/>
       </defs>
       <use xlink:href="#DejaVuSans-35"/>
       <use xlink:href="#DejaVuSans-30" x="63.623047"/>
      </g>
     </g>
    </g>
    <g id="ytick_5">
     <g id="line2d_25">
      <path d="M 53.132901 32.039789 
L 499.532901 32.039789 
" clip-path="url(#pb02ee767a7)" style="fill: none; stroke: #b0b0b0; stroke-width: 0.8; stroke-linecap: square"/>
     </g>
     <g id="line2d_26">
      <g>
       <use xlink:href="#mbdf2468fa7" x="53.132901" y="32.039789" style="stroke: #000000; stroke-width: 0.8"/>
      </g>
     </g>
     <g id="text_21">
      <!-- 60 -->
      <g transform="translate(33.407901 35.839008)scale(0.1 -0.1)">
       <defs>
        <path id="DejaVuSans-36" d="M 2113 2584 
Q 1688 2584 1439 2293 
Q 1191 2003 1191 1497 
Q 1191 994 1439 701 
Q 1688 409 2113 409 
Q 2538 409 2786 701 
Q 3034 994 3034 1497 
Q 3034 2003 2786 2293 
Q 2538 2584 2113 2584 
z
M 3366 4563 
L 3366 3988 
Q 3128 4100 2886 4159 
Q 2644 4219 2406 4219 
Q 1781 4219 1451 3797 
Q 1122 3375 1075 2522 
Q 1259 2794 1537 2939 
Q 1816 3084 2150 3084 
Q 2853 3084 3261 2657 
Q 3669 2231 3669 1497 
Q 3669 778 3244 343 
Q 2819 -91 2113 -91 
Q 1303 -91 875 529 
Q 447 1150 447 2328 
Q 447 3434 972 4092 
Q 1497 4750 2381 4750 
Q 2619 4750 2861 4703 
Q 3103 4656 3366 4563 
z
" transform="scale(0.015625)"/>
       </defs>
       <use xlink:href="#DejaVuSans-36"/>
       <use xlink:href="#DejaVuSans-30" x="63.623047"/>
      </g>
     </g>
    </g>
    <g id="text_22">
     <!-- Percentage Of directives present in CSPs -->
     <g transform="translate(27.328213 210.890625)rotate(-90)scale(0.1 -0.1)">
      <defs>
       <path id="DejaVuSans-50" d="M 1259 4147 
L 1259 2394 
L 2053 2394 
Q 2494 2394 2734 2622 
Q 2975 2850 2975 3272 
Q 2975 3691 2734 3919 
Q 2494 4147 2053 4147 
L 1259 4147 
z
M 628 4666 
L 2053 4666 
Q 2838 4666 3239 4311 
Q 3641 3956 3641 3272 
Q 3641 2581 3239 2228 
Q 2838 1875 2053 1875 
L 1259 1875 
L 1259 0 
L 628 0 
L 628 4666 
z
" transform="scale(0.015625)"/>
       <path id="DejaVuSans-20" transform="scale(0.015625)"/>
       <path id="DejaVuSans-66" d="M 2375 4863 
L 2375 4384 
L 1825 4384 
Q 1516 4384 1395 4259 
Q 1275 4134 1275 3809 
L 1275 3500 
L 2222 3500 
L 2222 3053 
L 1275 3053 
L 1275 0 
L 697 0 
L 697 3053 
L 147 3053 
L 147 3500 
L 697 3500 
L 697 3744 
Q 697 4328 969 4595 
Q 1241 4863 1831 4863 
L 2375 4863 
z
" transform="scale(0.015625)"/>
       <path id="DejaVuSans-64" d="M 2906 2969 
L 2906 4863 
L 3481 4863 
L 3481 0 
L 2906 0 
L 2906 525 
Q 2725 213 2448 61 
Q 2172 -91 1784 -91 
Q 1150 -91 751 415 
Q 353 922 353 1747 
Q 353 2572 751 3078 
Q 1150 3584 1784 3584 
Q 2172 3584 2448 3432 
Q 2725 3281 2906 2969 
z
M 947 1747 
Q 947 1113 1208 752 
Q 1469 391 1925 391 
Q 2381 391 2643 752 
Q 2906 1113 2906 1747 
Q 2906 2381 2643 2742 
Q 2381 3103 1925 3103 
Q 1469 3103 1208 2742 
Q 947 2381 947 1747 
z
" transform="scale(0.015625)"/>
       <path id="DejaVuSans-69" d="M 603 3500 
L 1178 3500 
L 1178 0 
L 603 0 
L 603 3500 
z
M 603 4863 
L 1178 4863 
L 1178 4134 
L 603 4134 
L 603 4863 
z
" transform="scale(0.015625)"/>
       <path id="DejaVuSans-73" d="M 2834 3397 
L 2834 2853 
Q 2591 2978 2328 3040 
Q 2066 3103 1784 3103 
Q 1356 3103 1142 2972 
Q 928 2841 928 2578 
Q 928 2378 1081 2264 
Q 1234 2150 1697 2047 
L 1894 2003 
Q 2506 1872 2764 1633 
Q 3022 1394 3022 966 
Q 3022 478 2636 193 
Q 2250 -91 1575 -91 
Q 1294 -91 989 -36 
Q 684 19 347 128 
L 347 722 
Q 666 556 975 473 
Q 1284 391 1588 391 
Q 1994 391 2212 530 
Q 2431 669 2431 922 
Q 2431 1156 2273 1281 
Q 2116 1406 1581 1522 
L 1381 1569 
Q 847 1681 609 1914 
Q 372 2147 372 2553 
Q 372 3047 722 3315 
Q 1072 3584 1716 3584 
Q 2034 3584 2315 3537 
Q 2597 3491 2834 3397 
z
" transform="scale(0.015625)"/>
       <path id="DejaVuSans-43" d="M 4122 4306 
L 4122 3641 
Q 3803 3938 3442 4084 
Q 3081 4231 2675 4231 
Q 1875 4231 1450 3742 
Q 1025 3253 1025 2328 
Q 1025 1406 1450 917 
Q 1875 428 2675 428 
Q 3081 428 3442 575 
Q 3803 722 4122 1019 
L 4122 359 
Q 3791 134 3420 21 
Q 3050 -91 2638 -91 
Q 1578 -91 968 557 
Q 359 1206 359 2328 
Q 359 3453 968 4101 
Q 1578 4750 2638 4750 
Q 3056 4750 3426 4639 
Q 3797 4528 4122 4306 
z
" transform="scale(0.015625)"/>
      </defs>
      <use xlink:href="#DejaVuSans-50"/>
      <use xlink:href="#DejaVuSans-65" x="56.677734"/>
      <use xlink:href="#DejaVuSans-72" x="118.201172"/>
      <use xlink:href="#DejaVuSans-63" x="157.064453"/>
      <use xlink:href="#DejaVuSans-65" x="212.044922"/>
      <use xlink:href="#DejaVuSans-6e" x="273.568359"/>
      <use xlink:href="#DejaVuSans-74" x="336.947266"/>
      <use xlink:href="#DejaVuSans-61" x="376.15625"/>
      <use xlink:href="#DejaVuSans-67" x="437.435547"/>
      <use xlink:href="#DejaVuSans-65" x="500.912109"/>
      <use xlink:href="#DejaVuSans-20" x="562.435547"/>
      <use xlink:href="#DejaVuSans-4f" x="594.222656"/>
      <use xlink:href="#DejaVuSans-66" x="672.933594"/>
      <use xlink:href="#DejaVuSans-20" x="708.138672"/>
      <use xlink:href="#DejaVuSans-64" x="739.925781"/>
      <use xlink:href="#DejaVuSans-69" x="803.402344"/>
      <use xlink:href="#DejaVuSans-72" x="831.185547"/>
      <use xlink:href="#DejaVuSans-65" x="870.048828"/>
      <use xlink:href="#DejaVuSans-63" x="931.572266"/>
      <use xlink:href="#DejaVuSans-74" x="986.552734"/>
      <use xlink:href="#DejaVuSans-69" x="1025.761719"/>
      <use xlink:href="#DejaVuSans-76" x="1053.544922"/>
      <use xlink:href="#DejaVuSans-65" x="1112.724609"/>
      <use xlink:href="#DejaVuSans-73" x="1174.248047"/>
      <use xlink:href="#DejaVuSans-20" x="1226.347656"/>
      <use xlink:href="#DejaVuSans-70" x="1258.134766"/>
      <use xlink:href="#DejaVuSans-72" x="1321.611328"/>
      <use xlink:href="#DejaVuSans-65" x="1360.474609"/>
      <use xlink:href="#DejaVuSans-73" x="1421.998047"/>
      <use xlink:href="#DejaVuSans-65" x="1474.097656"/>
      <use xlink:href="#DejaVuSans-6e" x="1535.621094"/>
      <use xlink:href="#DejaVuSans-74" x="1599"/>
      <use xlink:href="#DejaVuSans-20" x="1638.208984"/>
      <use xlink:href="#DejaVuSans-69" x="1669.996094"/>
      <use xlink:href="#DejaVuSans-6e" x="1697.779297"/>
      <use xlink:href="#DejaVuSans-20" x="1761.158203"/>
      <use xlink:href="#DejaVuSans-43" x="1792.945312"/>
      <use xlink:href="#DejaVuSans-53" x="1862.769531"/>
      <use xlink:href="#DejaVuSans-50" x="1926.246094"/>
      <use xlink:href="#DejaVuSans-73" x="1984.798828"/>
     </g>
    </g>
   </g>
   <g id="line2d_27">
    <path d="M 73.42381 40.770041 
L 74.323629 40.897613 
L 75.223447 40.732898 
L 76.123266 40.087156 
L 77.922903 40.824161 
L 78.822722 41.052498 
L 79.72254 41.593752 
L 80.622359 41.501329 
L 81.522177 41.252815 
L 82.421996 41.163245 
L 83.321814 41.83728 
L 84.221633 41.862594 
L 85.121452 42.263423 
L 86.02127 42.230509 
L 86.921089 41.972077 
L 89.620545 42.299334 
L 90.520363 41.822976 
L 91.420182 42.10095 
L 92.32 42.560454 
L 94.119637 41.626081 
L 95.019456 41.809262 
L 95.919275 41.809551 
L 96.819093 41.571216 
L 97.718912 41.552886 
L 98.61873 41.836916 
L 100.418368 41.913177 
L 101.318186 42.132106 
L 102.218005 41.931074 
L 103.117823 42.369033 
L 104.017642 42.046045 
L 106.717098 41.89393 
L 107.616916 42.151113 
L 109.416553 41.916724 
L 110.316372 41.887218 
L 113.015828 41.527639 
L 113.915646 42.236876 
L 114.815465 42.01035 
L 115.715284 42.060676 
L 116.615102 41.806324 
L 118.414739 42.154188 
L 120.214376 41.420174 
L 121.114195 41.939204 
L 126.513107 41.890392 
L 127.412925 41.45968 
L 128.312744 41.385183 
L 129.212562 41.808733 
L 131.012199 41.812674 
L 131.912018 41.552664 
L 135.511292 42.33531 
L 138.210748 42.560868 
L 140.010385 42.458226 
L 140.910204 42.626245 
L 141.810022 42.553018 
L 142.709841 42.600739 
L 150.808208 42.71901 
L 151.708027 42.442104 
L 153.507664 42.642093 
L 154.407483 42.348671 
L 155.307301 42.490149 
L 156.20712 42.248442 
L 157.106938 42.636024 
L 158.906576 42.061412 
L 159.806394 42.682454 
L 160.706213 42.571563 
L 161.606031 42.789761 
L 163.405669 42.652324 
L 164.305487 42.912969 
L 165.205306 42.917793 
L 166.105124 43.284522 
L 167.004943 43.52389 
L 167.904761 43.293979 
L 168.80458 43.547883 
L 169.704399 42.922578 
L 172.403854 43.673599 
L 174.203492 43.176713 
L 175.10331 42.934521 
L 176.902947 43.519661 
L 177.802766 43.09447 
L 178.702584 42.858314 
L 179.602403 42.75503 
L 180.502222 42.828595 
L 181.40204 43.254793 
L 182.301859 43.206786 
L 183.201677 42.890484 
L 185.901133 43.263149 
L 186.800952 42.79998 
L 187.70077 43.147875 
L 188.600589 42.995546 
L 200.298231 42.662661 
L 201.198049 42.49382 
L 202.097868 42.767798 
L 203.897505 42.444166 
L 204.797323 42.11057 
L 205.697142 42.120192 
L 206.596961 42.554903 
L 208.396598 42.448185 
L 209.296416 42.768949 
L 210.196235 42.545729 
L 211.096054 42.12379 
L 211.995872 42.401982 
L 217.394784 42.31059 
L 220.094239 42.565506 
L 220.994058 43.057335 
L 221.893877 42.655414 
L 224.593332 43.289048 
L 227.292788 42.991306 
L 228.192607 43.244276 
L 229.092425 43.034979 
L 233.591518 42.744418 
L 235.391155 42.917663 
L 237.190792 43.003029 
L 238.090611 42.601814 
L 238.99043 43.039251 
L 239.890248 42.717225 
L 240.790067 43.14995 
L 241.689885 42.726955 
L 242.589704 42.488626 
L 244.389341 43.016456 
L 245.28916 42.580257 
L 246.188978 42.555194 
L 247.088797 43.182809 
L 247.988616 43.163678 
L 248.888434 42.933181 
L 249.788253 43.22399 
L 251.58789 42.720304 
L 253.387527 42.98436 
L 255.187164 42.671938 
L 256.086983 42.211124 
L 256.986801 42.383769 
L 257.88662 42.21372 
L 258.786439 42.18974 
L 259.686257 42.352907 
L 260.586076 42.730217 
L 261.485894 42.390778 
L 262.385713 42.341568 
L 263.285531 42.446012 
L 265.984987 41.739016 
L 266.884806 41.940929 
L 267.784624 41.430448 
L 269.584262 42.036995 
L 270.48408 41.822557 
L 271.383899 41.820027 
L 272.283717 41.934987 
L 273.183536 41.87028 
L 274.083354 42.073414 
L 275.882992 42.011829 
L 277.682629 42.235884 
L 279.482266 41.84746 
L 282.181722 41.688636 
L 283.981359 41.916617 
L 287.580633 41.541997 
L 288.480452 41.649873 
L 314.575191 40.799593 
L 315.475009 40.556151 
L 316.374828 40.767299 
L 317.274647 41.207471 
L 319.974102 40.849912 
L 320.873921 41.016735 
L 321.773739 41.057843 
L 322.673558 40.772723 
L 323.573377 40.353246 
L 324.473195 40.987794 
L 325.373014 41.378022 
L 326.272832 41.093779 
L 327.172651 41.466931 
L 328.07247 41.222515 
L 328.972288 40.762809 
L 329.872107 40.518767 
L 346.96866 41.345929 
L 348.768297 41.230298 
L 349.668116 40.940865 
L 350.567934 41.241277 
L 351.467753 41.036042 
L 353.26739 41.068024 
L 354.167209 40.787037 
L 355.966846 40.493801 
L 356.866664 40.898974 
L 357.766483 40.418798 
L 358.666301 40.761583 
L 359.56612 39.966423 
L 360.465939 40.221355 
L 361.365757 40.041676 
L 365.86485 40.20156 
L 366.764669 39.93901 
L 367.664487 40.513001 
L 368.564306 39.992321 
L 369.464124 39.832549 
L 370.363943 40.014837 
L 371.263762 39.598951 
L 372.16358 39.471023 
L 373.063399 39.619646 
L 373.963217 39.522318 
L 374.863036 39.236808 
L 376.662673 39.607966 
L 377.562492 39.776197 
L 378.46231 39.205474 
L 379.362129 39.585614 
L 380.261948 39.555618 
L 381.161766 39.140369 
L 382.061585 39.368783 
L 382.961403 39.038537 
L 383.861222 38.853924 
L 384.76104 38.92334 
L 385.660859 39.385478 
L 386.560678 39.620528 
L 388.360315 39.84619 
L 390.159952 39.745361 
L 391.059771 39.319167 
L 392.859408 39.365407 
L 393.759226 39.807491 
L 394.659045 39.9342 
L 396.458682 39.60057 
L 397.358501 39.716034 
L 398.258319 39.671827 
L 399.158138 39.36588 
L 400.057956 39.426814 
L 403.657231 39.05081 
L 404.557049 39.299588 
L 407.256505 39.0806 
L 408.156324 38.757839 
L 409.056142 39.241196 
L 412.655417 38.762189 
L 413.555235 38.888059 
L 414.455054 39.282332 
L 415.354872 39.000503 
L 416.254691 39.075825 
L 417.154509 38.801024 
L 418.054328 38.93404 
L 418.954147 39.477834 
L 419.853965 39.652152 
L 421.653602 39.201576 
L 422.553421 39.587341 
L 423.45324 39.388372 
L 424.353058 38.922032 
L 426.152695 39.25125 
L 427.052514 38.970167 
L 427.952333 38.931252 
L 428.852151 39.063641 
L 430.651788 39.001965 
L 431.551607 38.734198 
L 432.451425 39.100225 
L 433.351244 38.823097 
L 434.251063 38.711584 
L 435.150881 38.778363 
L 436.0507 38.993693 
L 436.950518 38.763953 
L 437.850337 38.849033 
L 440.549793 39.302152 
L 441.449611 39.010294 
L 442.34943 39.217966 
L 443.249248 39.138975 
L 445.048886 39.498884 
L 446.848523 39.174881 
L 447.748341 39.352697 
L 448.64816 39.674588 
L 449.547979 39.145607 
L 454.047071 39.381837 
L 454.94689 39.059834 
L 455.846709 39.2228 
L 456.746527 39.091021 
L 457.646346 39.45831 
L 458.546164 39.167318 
L 459.445983 39.26009 
L 460.345802 39.808912 
L 461.24562 39.465679 
L 462.145439 39.805729 
L 463.045257 39.489158 
L 463.945076 39.673166 
L 464.844894 39.546279 
L 465.744713 39.294752 
L 466.644532 39.594089 
L 467.54435 39.262778 
L 468.444169 40.19816 
L 469.343987 40.185103 
L 470.243806 39.889546 
L 471.143625 40.441632 
L 472.043443 40.466303 
L 472.943262 40.75068 
L 473.84308 40.759456 
L 474.742899 40.644359 
L 476.542536 40.878223 
L 478.342173 40.803142 
L 479.241992 40.392654 
L 479.241992 40.392654 
" clip-path="url(#pb02ee767a7)" style="fill: none; stroke: #1f77b4; stroke-width: 1.5; stroke-linecap: square"/>
   </g>
   <g id="line2d_28">
    <path d="M 73.42381 107.195875 
L 75.223447 107.142982 
L 76.123266 106.544868 
L 77.023084 106.804001 
L 78.822722 106.726906 
L 79.72254 107.2449 
L 81.522177 106.963753 
L 83.321814 107.231398 
L 84.221633 107.25338 
L 86.921089 106.840729 
L 90.520363 106.805817 
L 91.420182 107.117394 
L 92.32 107.232502 
L 93.219819 106.834475 
L 94.119637 106.754518 
L 95.019456 106.9818 
L 95.919275 106.975507 
L 97.718912 106.675933 
L 98.61873 107.032155 
L 99.518549 107.015945 
L 100.418368 106.869676 
L 101.318186 106.974858 
L 102.218005 106.91422 
L 103.117823 107.091852 
L 104.917461 106.618802 
L 105.817279 106.758563 
L 106.717098 106.580782 
L 107.616916 106.793537 
L 108.516735 106.768589 
L 109.416553 107.140813 
L 110.316372 106.95778 
L 112.116009 106.913735 
L 113.015828 107.007873 
L 113.915646 107.361133 
L 114.815465 107.1043 
L 117.514921 107.262867 
L 118.414739 107.48679 
L 119.314558 107.032606 
L 120.214376 106.982542 
L 121.114195 107.066938 
L 122.913832 107.072254 
L 124.713469 107.480801 
L 125.613288 107.265482 
L 126.513107 107.18395 
L 127.412925 107.449025 
L 129.212562 107.806365 
L 130.112381 107.464142 
L 131.012199 107.654997 
L 131.912018 107.26169 
L 132.811837 107.886209 
L 135.511292 107.794185 
L 138.210748 107.905676 
L 139.110567 107.543022 
L 140.910204 107.946929 
L 142.709841 107.887496 
L 150.808208 107.659559 
L 151.708027 107.468734 
L 153.507664 107.38567 
L 154.407483 107.478991 
L 155.307301 107.726461 
L 156.20712 107.041549 
L 157.106938 107.586126 
L 158.006757 106.950866 
L 158.906576 106.905795 
L 161.606031 107.313593 
L 164.305487 107.619427 
L 165.205306 107.105661 
L 166.105124 107.298501 
L 167.004943 107.654955 
L 167.904761 107.566217 
L 168.80458 107.800618 
L 169.704399 107.286231 
L 170.604217 107.973992 
L 171.504036 108.166477 
L 174.203492 107.573092 
L 176.003129 107.497904 
L 176.902947 107.864395 
L 177.802766 107.525462 
L 178.702584 107.521571 
L 180.502222 107.012216 
L 181.40204 107.562497 
L 182.301859 107.359101 
L 183.201677 107.555075 
L 185.001315 107.181381 
L 185.901133 107.350562 
L 186.800952 107.246168 
L 188.600589 107.420909 
L 202.997686 106.244426 
L 203.897505 106.312619 
L 204.797323 105.857903 
L 205.697142 106.430839 
L 206.596961 106.702451 
L 207.496779 106.232855 
L 208.396598 106.305702 
L 209.296416 106.4942 
L 210.196235 106.423617 
L 211.096054 105.624669 
L 211.995872 106.385539 
L 214.695328 106.034805 
L 215.595146 105.800029 
L 218.294602 106.264619 
L 219.194421 106.68727 
L 220.094239 106.582209 
L 220.994058 106.74563 
L 221.893877 106.176945 
L 224.593332 106.557926 
L 225.493151 106.024614 
L 226.392969 106.200749 
L 227.292788 106.03155 
L 228.192607 106.403186 
L 229.092425 106.219218 
L 234.491337 106.789016 
L 236.290974 106.424968 
L 237.190792 106.441759 
L 238.090611 106.15407 
L 238.99043 106.288304 
L 240.790067 106.832229 
L 241.689885 106.269962 
L 242.589704 106.366304 
L 243.489523 106.621731 
L 246.188978 106.110537 
L 247.088797 106.491579 
L 248.888434 105.789401 
L 249.788253 106.264129 
L 250.688071 105.89958 
L 252.487708 105.749516 
L 254.287346 105.937051 
L 256.986801 105.617801 
L 257.88662 105.296254 
L 258.786439 105.64773 
L 260.586076 105.619971 
L 261.485894 105.428301 
L 262.385713 105.416213 
L 263.285531 105.892542 
L 264.18535 105.082211 
L 265.085169 104.858537 
L 267.784624 104.637597 
L 268.684443 105.019693 
L 269.584262 105.226883 
L 271.383899 104.959313 
L 272.283717 105.145251 
L 273.183536 104.810642 
L 274.083354 104.824227 
L 274.983173 105.085365 
L 276.78281 104.944969 
L 277.682629 105.035573 
L 279.482266 104.865075 
L 282.181722 104.424255 
L 287.580633 104.611859 
L 288.480452 104.405552 
L 314.575191 103.515852 
L 315.475009 102.938897 
L 316.374828 103.198953 
L 317.274647 103.262024 
L 319.074284 102.707587 
L 319.974102 103.087281 
L 321.773739 103.07401 
L 323.573377 102.635971 
L 324.473195 103.467875 
L 326.272832 103.181627 
L 327.172651 103.451753 
L 328.07247 103.490814 
L 328.972288 102.817762 
L 329.872107 102.83345 
L 346.068841 103.592795 
L 346.96866 103.412279 
L 348.768297 103.594466 
L 349.668116 103.263565 
L 350.567934 103.482175 
L 351.467753 103.233296 
L 352.367571 103.112343 
L 353.26739 103.234304 
L 354.167209 102.593602 
L 355.067027 102.71719 
L 355.966846 102.625694 
L 356.866664 102.841704 
L 357.766483 102.808855 
L 358.666301 103.132774 
L 359.56612 101.826435 
L 360.465939 102.256785 
L 364.965032 101.863117 
L 365.86485 101.526546 
L 367.664487 101.951195 
L 368.564306 101.746624 
L 372.16358 101.465688 
L 373.963217 101.66224 
L 374.863036 100.915043 
L 376.662673 101.402495 
L 377.562492 101.523995 
L 378.46231 100.979256 
L 379.362129 101.660839 
L 381.161766 100.964696 
L 382.061585 101.331434 
L 382.961403 100.874788 
L 383.861222 100.61958 
L 384.76104 100.609001 
L 385.660859 100.988026 
L 386.560678 101.143789 
L 387.460496 101.451165 
L 389.260133 101.414916 
L 391.059771 101.014347 
L 391.959589 101.17291 
L 392.859408 101.068123 
L 393.759226 101.433906 
L 394.659045 101.411206 
L 395.558863 101.093206 
L 396.458682 101.240885 
L 399.158138 101.336578 
L 400.957775 100.951875 
L 401.857594 101.018514 
L 402.757412 100.770994 
L 403.657231 100.14736 
L 404.557049 100.214117 
L 407.256505 99.881157 
L 408.156324 99.60794 
L 409.056142 100.133878 
L 409.955961 100.092642 
L 410.855779 99.632418 
L 412.655417 99.32372 
L 413.555235 99.671311 
L 414.455054 99.778241 
L 415.354872 99.509251 
L 418.054328 99.329089 
L 418.954147 100.00898 
L 419.853965 100.37444 
L 420.753784 100.378313 
L 421.653602 100.239538 
L 422.553421 100.477534 
L 424.353058 99.849401 
L 427.052514 99.905455 
L 430.651788 99.262967 
L 431.551607 99.074488 
L 432.451425 99.333918 
L 433.351244 99.074624 
L 434.251063 98.656491 
L 436.0507 99.151592 
L 436.950518 98.883423 
L 437.850337 99.143569 
L 440.549793 99.619047 
L 441.449611 99.358731 
L 442.34943 99.302609 
L 443.249248 99.598121 
L 444.149067 99.638231 
L 445.048886 99.857296 
L 446.848523 99.409788 
L 448.64816 99.704457 
L 449.547979 99.680506 
L 454.047071 100.006173 
L 454.94689 99.706588 
L 457.646346 99.877737 
L 458.546164 99.424796 
L 459.445983 99.679489 
L 460.345802 100.659455 
L 461.24562 100.010412 
L 462.145439 100.192012 
L 463.045257 99.752154 
L 463.945076 99.898218 
L 465.744713 99.549314 
L 466.644532 100.073767 
L 467.54435 99.796152 
L 468.444169 100.33978 
L 469.343987 100.098494 
L 470.243806 100.215105 
L 471.143625 100.158068 
L 472.943262 100.456869 
L 475.642718 100.200346 
L 476.542536 100.564135 
L 477.442355 100.487441 
L 478.342173 100.28948 
L 479.241992 100.331723 
L 479.241992 100.331723 
" clip-path="url(#pb02ee767a7)" style="fill: none; stroke: #ff7f0e; stroke-width: 1.5; stroke-linecap: square"/>
   </g>
   <g id="line2d_29">
    <path d="M 73.42381 68.684707 
L 74.323629 68.75307 
L 76.123266 68.355306 
L 77.023084 68.581258 
L 77.922903 68.395739 
L 78.822722 68.698049 
L 79.72254 69.308525 
L 80.622359 69.295897 
L 81.522177 69.125464 
L 82.421996 69.183433 
L 83.321814 69.715689 
L 84.221633 69.566619 
L 86.02127 69.60164 
L 86.921089 69.273005 
L 89.620545 69.625682 
L 90.520363 69.435575 
L 91.420182 69.565888 
L 92.32 70.007882 
L 93.219819 69.611216 
L 94.119637 68.982583 
L 95.019456 69.385216 
L 96.819093 69.311557 
L 97.718912 69.32483 
L 98.61873 69.668503 
L 100.418368 69.55153 
L 101.318186 69.772508 
L 102.218005 69.522821 
L 103.117823 70.096502 
L 104.017642 69.891967 
L 104.917461 69.55286 
L 107.616916 69.485188 
L 108.516735 69.568456 
L 109.416553 69.433924 
L 110.316372 69.425784 
L 112.116009 69.149471 
L 113.015828 69.141905 
L 113.915646 69.78363 
L 114.815465 69.364324 
L 116.615102 69.285643 
L 118.414739 69.620445 
L 119.314558 69.182765 
L 120.214376 69.109865 
L 121.114195 69.393049 
L 124.713469 69.522113 
L 125.613288 69.217877 
L 126.513107 69.269939 
L 127.412925 69.017873 
L 129.212562 69.69155 
L 131.012199 69.560689 
L 131.912018 69.180323 
L 132.811837 69.438257 
L 135.511292 69.708128 
L 139.110567 69.294544 
L 140.010385 69.31214 
L 140.910204 69.728942 
L 141.810022 69.665827 
L 142.709841 69.75886 
L 151.708027 69.469633 
L 153.507664 69.582373 
L 154.407483 69.496359 
L 155.307301 69.593508 
L 156.20712 69.193305 
L 157.106938 69.487846 
L 158.006757 69.278821 
L 158.906576 68.909346 
L 159.806394 69.469461 
L 160.706213 69.621694 
L 163.405669 69.687422 
L 164.305487 70.215879 
L 165.205306 69.897727 
L 167.004943 70.865854 
L 167.904761 70.560267 
L 168.80458 70.823868 
L 169.704399 70.367582 
L 170.604217 70.617233 
L 171.504036 71.152498 
L 172.403854 71.100211 
L 173.303673 70.906459 
L 174.203492 70.96016 
L 175.10331 70.336566 
L 176.003129 70.759854 
L 176.902947 71.042162 
L 177.802766 70.543806 
L 178.702584 70.758229 
L 179.602403 70.252676 
L 180.502222 70.242774 
L 181.40204 70.666155 
L 182.301859 70.753591 
L 183.201677 70.514642 
L 185.901133 70.607419 
L 186.800952 70.183287 
L 188.600589 70.557199 
L 200.298231 69.837974 
L 201.198049 69.526239 
L 202.097868 69.992144 
L 202.997686 69.525669 
L 203.897505 69.54123 
L 204.797323 69.277532 
L 205.697142 69.311342 
L 206.596961 69.667666 
L 208.396598 68.938222 
L 209.296416 69.447223 
L 210.196235 69.409018 
L 211.096054 68.706069 
L 211.995872 68.893964 
L 215.595146 68.977548 
L 216.494965 68.727289 
L 217.394784 68.660113 
L 218.294602 69.066004 
L 219.194421 69.078311 
L 220.094239 69.233604 
L 220.994058 69.674984 
L 221.893877 69.062001 
L 224.593332 70.176133 
L 225.493151 69.640428 
L 226.392969 69.749718 
L 227.292788 69.570317 
L 228.192607 70.131552 
L 229.092425 69.619388 
L 232.6917 69.54632 
L 233.591518 69.8513 
L 234.491337 69.728439 
L 235.391155 69.833539 
L 236.290974 69.776744 
L 237.190792 70.004606 
L 238.090611 69.467865 
L 238.99043 69.680584 
L 239.890248 69.539355 
L 240.790067 69.812624 
L 241.689885 69.402224 
L 243.489523 69.808521 
L 244.389341 69.894182 
L 246.188978 69.629388 
L 247.088797 70.046203 
L 247.988616 69.791804 
L 248.888434 69.660775 
L 249.788253 70.015522 
L 250.688071 69.409251 
L 251.58789 69.190139 
L 252.487708 69.378478 
L 253.387527 69.411702 
L 254.287346 69.048858 
L 256.086983 68.628286 
L 257.88662 68.761647 
L 258.786439 68.812561 
L 259.686257 69.092162 
L 260.586076 69.238497 
L 261.485894 68.99282 
L 263.285531 69.288775 
L 264.18535 68.681026 
L 265.984987 68.271919 
L 266.884806 68.449373 
L 267.784624 68.143482 
L 268.684443 68.644374 
L 269.584262 68.752253 
L 271.383899 68.124649 
L 273.183536 68.347938 
L 274.083354 68.336469 
L 275.882992 68.525437 
L 276.78281 68.342651 
L 277.682629 68.383869 
L 279.482266 67.829114 
L 282.181722 67.69262 
L 283.981359 67.819771 
L 287.580633 67.53298 
L 288.480452 67.741769 
L 314.575191 66.567196 
L 315.475009 66.179736 
L 316.374828 66.491725 
L 317.274647 66.65374 
L 319.074284 66.311234 
L 320.873921 66.656771 
L 322.673558 66.312067 
L 323.573377 65.921123 
L 324.473195 66.50618 
L 326.272832 66.388828 
L 327.172651 66.65009 
L 328.07247 66.503211 
L 328.972288 66.229214 
L 329.872107 66.129928 
L 346.96866 66.889206 
L 348.768297 67.185328 
L 349.668116 66.946566 
L 350.567934 67.146538 
L 351.467753 66.888433 
L 352.367571 66.803291 
L 353.26739 66.833189 
L 354.167209 66.471898 
L 355.067027 66.394757 
L 355.966846 66.202899 
L 356.866664 66.662931 
L 357.766483 66.004566 
L 358.666301 66.606728 
L 359.56612 65.607004 
L 360.465939 65.858923 
L 361.365757 65.736667 
L 362.265576 65.83802 
L 364.965032 65.558566 
L 365.86485 65.744329 
L 366.764669 65.520449 
L 367.664487 65.899307 
L 368.564306 65.501143 
L 370.363943 65.815377 
L 371.263762 65.528204 
L 372.16358 65.472956 
L 373.063399 65.739921 
L 374.863036 65.150489 
L 375.762855 65.407642 
L 376.662673 65.784305 
L 378.46231 65.334188 
L 379.362129 65.72834 
L 380.261948 65.846384 
L 381.161766 65.571318 
L 382.061585 65.653204 
L 382.961403 65.224575 
L 383.861222 64.95955 
L 384.76104 64.914489 
L 385.660859 65.625287 
L 386.560678 65.705376 
L 387.460496 65.977949 
L 389.260133 65.931791 
L 391.059771 65.469799 
L 392.859408 65.450961 
L 393.759226 65.909998 
L 395.558863 65.594091 
L 397.358501 65.729575 
L 398.258319 65.90808 
L 399.158138 65.512568 
L 400.057956 65.745107 
L 403.657231 65.038709 
L 404.557049 64.985363 
L 407.256505 64.978447 
L 408.156324 64.772947 
L 409.056142 65.173354 
L 409.955961 65.076117 
L 410.855779 64.517983 
L 411.755598 64.680523 
L 412.655417 64.707059 
L 414.455054 65.120783 
L 415.354872 64.900014 
L 416.254691 64.944125 
L 417.154509 64.689111 
L 418.054328 64.910594 
L 418.954147 65.429835 
L 419.853965 65.456475 
L 421.653602 65.24444 
L 422.553421 65.536475 
L 424.353058 64.893093 
L 426.152695 65.2097 
L 427.052514 64.919528 
L 428.852151 64.769672 
L 429.75197 65.060676 
L 430.651788 64.591537 
L 431.551607 64.487287 
L 432.451425 64.712639 
L 434.251063 64.005751 
L 435.150881 64.082966 
L 436.0507 64.38207 
L 436.950518 64.302508 
L 437.850337 64.540354 
L 440.549793 64.906413 
L 441.449611 64.680119 
L 444.149067 64.934214 
L 445.048886 65.228259 
L 446.848523 64.759085 
L 447.748341 64.993102 
L 449.547979 65.019674 
L 454.047071 65.201371 
L 454.94689 64.693849 
L 455.846709 64.833927 
L 456.746527 64.677916 
L 457.646346 65.070704 
L 458.546164 64.642734 
L 459.445983 65.02693 
L 460.345802 65.542599 
L 461.24562 65.027072 
L 462.145439 65.454228 
L 463.045257 64.906085 
L 463.945076 65.088764 
L 464.844894 64.870219 
L 465.744713 64.477845 
L 466.644532 65.018889 
L 467.54435 64.949923 
L 468.444169 65.461791 
L 469.343987 65.565682 
L 470.243806 65.375323 
L 472.043443 65.600442 
L 472.943262 65.961877 
L 473.84308 65.753999 
L 475.642718 65.896046 
L 476.542536 65.767283 
L 477.442355 65.913084 
L 478.342173 65.877871 
L 479.241992 65.570821 
L 479.241992 65.570821 
" clip-path="url(#pb02ee767a7)" style="fill: none; stroke: #2ca02c; stroke-width: 1.5; stroke-linecap: square"/>
   </g>
   <g id="line2d_30">
    <path d="M 73.42381 63.860926 
L 74.323629 63.741198 
L 75.223447 63.756465 
L 76.123266 63.21087 
L 77.023084 63.800131 
L 77.922903 63.917636 
L 78.822722 63.843854 
L 79.72254 64.44356 
L 81.522177 64.246453 
L 82.421996 64.270803 
L 83.321814 64.651585 
L 84.221633 64.381788 
L 85.121452 64.730682 
L 86.02127 64.60164 
L 86.921089 64.306861 
L 89.620545 64.734087 
L 90.520363 64.505666 
L 91.420182 64.687749 
L 92.32 64.991979 
L 93.219819 64.363095 
L 94.119637 64.248296 
L 95.019456 64.669625 
L 95.919275 64.232797 
L 98.61873 65.004418 
L 99.518549 64.865069 
L 100.418368 64.91542 
L 101.318186 64.7238 
L 102.218005 64.661176 
L 103.117823 65.068994 
L 104.017642 64.916761 
L 105.817279 64.345119 
L 107.616916 64.586881 
L 108.516735 64.286643 
L 109.416553 64.692189 
L 112.116009 64.189765 
L 113.015828 64.443208 
L 113.915646 64.89427 
L 114.815465 64.559235 
L 115.715284 64.696564 
L 116.615102 64.534897 
L 117.514921 64.87312 
L 118.414739 64.858959 
L 120.214376 64.419673 
L 121.114195 64.708862 
L 122.913832 64.6368 
L 124.713469 64.70833 
L 125.613288 64.267165 
L 127.412925 64.408139 
L 129.212562 64.787161 
L 130.112381 64.562993 
L 131.012199 64.873692 
L 131.912018 64.600603 
L 132.811837 64.837434 
L 135.511292 65.211516 
L 139.110567 64.571902 
L 140.010385 64.75897 
L 140.910204 65.101652 
L 141.810022 64.980265 
L 142.709841 65.029348 
L 150.808208 64.835739 
L 151.708027 64.652846 
L 153.507664 64.947486 
L 156.20712 64.248187 
L 157.106938 64.695458 
L 158.006757 64.467577 
L 158.906576 64.093573 
L 159.806394 64.708395 
L 163.405669 64.673814 
L 164.305487 65.249533 
L 165.205306 65.022699 
L 166.105124 65.392811 
L 167.004943 65.630665 
L 167.904761 65.273703 
L 168.80458 65.7956 
L 169.704399 65.130895 
L 170.604217 65.440009 
L 172.403854 65.889628 
L 173.303673 65.415352 
L 174.203492 65.120927 
L 175.10331 64.695663 
L 176.902947 65.485866 
L 177.802766 64.805677 
L 178.702584 64.935028 
L 179.602403 64.669398 
L 180.502222 64.587727 
L 181.40204 64.868489 
L 182.301859 64.96158 
L 183.201677 64.730689 
L 185.001315 64.812643 
L 185.901133 64.617941 
L 188.600589 64.90706 
L 200.298231 63.971343 
L 201.198049 63.671085 
L 202.097868 64.039626 
L 202.997686 63.783457 
L 204.797323 63.687623 
L 205.697142 63.653973 
L 206.596961 63.870529 
L 208.396598 63.197969 
L 209.296416 63.862363 
L 210.196235 63.535444 
L 211.096054 62.81857 
L 211.995872 63.139648 
L 214.695328 62.886895 
L 215.595146 62.947617 
L 217.394784 62.684614 
L 218.294602 63.164619 
L 219.194421 63.174965 
L 220.094239 63.417924 
L 220.994058 63.941273 
L 221.893877 63.166885 
L 224.593332 64.006761 
L 225.493151 63.536286 
L 226.392969 63.60875 
L 227.292788 63.369278 
L 228.192607 63.737094 
L 229.092425 63.283546 
L 234.491337 63.662807 
L 237.190792 63.692827 
L 238.090611 63.314189 
L 240.790067 63.863809 
L 241.689885 63.389094 
L 242.589704 63.518402 
L 243.489523 63.793848 
L 246.188978 63.301458 
L 247.088797 63.827433 
L 247.988616 63.567321 
L 248.888434 63.126427 
L 249.788253 63.886327 
L 250.688071 63.436194 
L 255.187164 63.216047 
L 256.086983 62.736988 
L 256.986801 62.767739 
L 258.786439 63.217609 
L 259.686257 63.582129 
L 260.586076 63.67964 
L 261.485894 63.403286 
L 262.385713 63.387103 
L 263.285531 63.498348 
L 265.085169 62.650465 
L 268.684443 62.933223 
L 269.584262 63.236977 
L 271.383899 62.96206 
L 272.283717 63.168093 
L 273.183536 62.918188 
L 274.083354 62.807405 
L 274.983173 63.195938 
L 275.882992 63.044063 
L 276.78281 63.223588 
L 277.682629 63.162368 
L 279.482266 62.604542 
L 282.181722 62.298605 
L 287.580633 62.108256 
L 288.480452 62.237233 
L 314.575191 61.075094 
L 315.475009 60.592344 
L 316.374828 60.912226 
L 317.274647 61.053219 
L 318.174465 60.78426 
L 319.974102 61.107336 
L 322.673558 60.751552 
L 323.573377 60.386613 
L 324.473195 60.696799 
L 325.373014 60.424126 
L 326.272832 60.32815 
L 327.172651 60.694876 
L 328.07247 60.649758 
L 328.972288 60.153769 
L 329.872107 60.090108 
L 346.96866 60.484325 
L 348.768297 60.810408 
L 349.668116 60.672596 
L 350.567934 60.926241 
L 351.467753 60.676283 
L 352.367571 60.628669 
L 353.26739 60.709459 
L 354.167209 60.353749 
L 355.067027 60.549115 
L 355.966846 60.185876 
L 356.866664 60.391441 
L 357.766483 60.140768 
L 358.666301 60.597543 
L 359.56612 59.623577 
L 360.465939 59.8893 
L 362.265576 59.911122 
L 364.965032 59.535778 
L 365.86485 59.749597 
L 366.764669 59.519864 
L 367.664487 59.659201 
L 368.564306 59.521934 
L 370.363943 59.564063 
L 371.263762 59.253509 
L 373.963217 59.414447 
L 374.863036 58.920178 
L 375.762855 59.332416 
L 376.662673 59.557091 
L 377.562492 59.475897 
L 378.46231 59.264992 
L 380.261948 59.662474 
L 381.161766 58.981834 
L 382.061585 59.360265 
L 382.961403 58.933361 
L 384.76104 58.676613 
L 385.660859 59.270191 
L 386.560678 59.234013 
L 387.460496 59.518376 
L 389.260133 59.679657 
L 390.159952 59.526504 
L 391.059771 59.140693 
L 392.859408 59.150713 
L 393.759226 59.677101 
L 395.558863 59.410955 
L 398.258319 59.784492 
L 399.158138 59.383598 
L 400.957775 59.493735 
L 401.857594 59.067631 
L 402.757412 59.104871 
L 403.657231 58.75592 
L 404.557049 58.956341 
L 407.256505 58.774308 
L 408.156324 58.442545 
L 409.056142 58.876558 
L 409.955961 59.000919 
L 410.855779 58.52975 
L 412.655417 58.643856 
L 413.555235 58.966664 
L 414.455054 58.899761 
L 415.354872 58.628304 
L 416.254691 58.742094 
L 417.154509 58.463979 
L 418.054328 58.50879 
L 418.954147 59.113848 
L 419.853965 59.204093 
L 420.753784 59.155722 
L 421.653602 58.94603 
L 422.553421 59.181946 
L 423.45324 58.723027 
L 424.353058 58.404723 
L 426.152695 58.816686 
L 427.952333 58.455304 
L 428.852151 58.576296 
L 429.75197 58.499305 
L 430.651788 58.03726 
L 431.551607 58.057727 
L 432.451425 58.409925 
L 434.251063 57.634204 
L 435.150881 57.983997 
L 440.549793 58.892106 
L 442.34943 58.910156 
L 443.249248 58.749219 
L 445.048886 59.479838 
L 445.948704 59.008417 
L 446.848523 58.853702 
L 448.64816 59.1869 
L 452.247434 59.287714 
L 453.147253 59.489336 
L 454.047071 59.520024 
L 454.94689 59.322079 
L 455.846709 59.463288 
L 456.746527 59.284771 
L 457.646346 59.714434 
L 458.546164 59.317167 
L 459.445983 59.562824 
L 460.345802 60.413368 
L 461.24562 59.653073 
L 462.145439 59.951903 
L 463.045257 59.356462 
L 463.945076 59.643807 
L 464.844894 59.324067 
L 465.744713 59.193581 
L 466.644532 59.620472 
L 467.54435 59.457949 
L 468.444169 59.876471 
L 470.243806 59.859744 
L 471.143625 59.845146 
L 472.043443 59.991998 
L 472.943262 60.284613 
L 473.84308 60.103957 
L 475.642718 60.150162 
L 476.542536 60.266749 
L 478.342173 60.193811 
L 479.241992 60.053489 
L 479.241992 60.053489 
" clip-path="url(#pb02ee767a7)" style="fill: none; stroke: #d62728; stroke-width: 1.5; stroke-linecap: square"/>
   </g>
   <g id="line2d_31">
    <path d="M 73.42381 186.801437 
L 74.323629 186.611198 
L 75.223447 186.59273 
L 76.123266 186.257376 
L 77.023084 186.401881 
L 77.922903 186.883229 
L 78.822722 186.470693 
L 79.72254 186.818128 
L 81.522177 186.42935 
L 82.421996 186.488728 
L 83.321814 186.7585 
L 84.221633 186.831515 
L 85.121452 186.651636 
L 86.02127 186.921212 
L 86.921089 186.633544 
L 89.620545 186.819092 
L 90.520363 186.655016 
L 92.32 186.901335 
L 93.219819 186.708319 
L 94.119637 186.290543 
L 95.019456 186.506134 
L 95.919275 186.50876 
L 97.718912 186.714013 
L 99.518549 186.509902 
L 100.418368 186.091132 
L 101.318186 186.504761 
L 102.218005 186.711386 
L 103.117823 186.567106 
L 104.017642 186.936222 
L 105.817279 186.277422 
L 107.616916 186.181641 
L 109.416553 186.665775 
L 110.316372 186.301072 
L 113.015828 186.307804 
L 113.915646 186.246164 
L 114.815465 186.338227 
L 115.715284 186.139102 
L 116.615102 186.354045 
L 117.514921 186.125772 
L 118.414739 186.402158 
L 119.314558 186.091148 
L 120.214376 186.26435 
L 121.114195 185.871496 
L 122.913832 186.233575 
L 124.713469 186.105931 
L 125.613288 186.275831 
L 126.513107 185.87815 
L 128.312744 185.832144 
L 130.112381 185.921206 
L 131.012199 185.838081 
L 131.912018 186.037853 
L 135.511292 185.956602 
L 138.210748 186.186639 
L 139.110567 185.909356 
L 140.010385 186.10341 
L 140.910204 186.096713 
L 141.810022 186.365602 
L 142.709841 185.997568 
L 150.808208 186.06458 
L 151.708027 185.559075 
L 153.507664 186.106327 
L 154.407483 185.857383 
L 155.307301 185.826611 
L 156.20712 185.536252 
L 157.106938 185.420287 
L 158.906576 185.523287 
L 160.706213 185.749876 
L 161.606031 185.514844 
L 162.50585 185.769616 
L 163.405669 185.672068 
L 164.305487 185.833387 
L 165.205306 185.60795 
L 166.105124 185.654279 
L 167.904761 186.031212 
L 168.80458 185.667627 
L 170.604217 185.632354 
L 172.403854 185.804082 
L 173.303673 185.701238 
L 174.203492 185.249017 
L 175.10331 185.396834 
L 176.003129 185.716682 
L 178.702584 185.74891 
L 179.602403 185.500846 
L 181.40204 185.807789 
L 183.201677 185.800386 
L 185.001315 185.754033 
L 186.800952 185.464481 
L 187.70077 185.956287 
L 188.600589 185.718971 
L 202.997686 186.029775 
L 203.897505 186.148185 
L 204.797323 185.99485 
L 205.697142 186.260119 
L 206.596961 186.123225 
L 207.496779 185.757346 
L 210.196235 186.237731 
L 211.096054 185.614972 
L 211.995872 185.950011 
L 214.695328 186.248782 
L 217.394784 186.141498 
L 218.294602 186.563233 
L 219.194421 186.526157 
L 220.094239 186.365375 
L 220.994058 186.620631 
L 221.893877 186.699373 
L 224.593332 186.803516 
L 225.493151 186.581783 
L 226.392969 186.603565 
L 227.292788 186.360203 
L 228.192607 186.60671 
L 229.092425 186.669172 
L 238.090611 186.237632 
L 238.99043 186.448065 
L 239.890248 186.125644 
L 240.790067 186.370881 
L 241.689885 186.402386 
L 242.589704 186.58627 
L 246.188978 186.398794 
L 247.988616 186.875379 
L 248.888434 186.499148 
L 250.688071 186.662038 
L 251.58789 186.263401 
L 252.487708 186.56937 
L 253.387527 186.707954 
L 254.287346 186.570056 
L 255.187164 186.792921 
L 256.086983 186.537506 
L 258.786439 186.514551 
L 260.586076 186.762687 
L 261.485894 186.538651 
L 262.385713 186.603648 
L 263.285531 186.441509 
L 264.18535 186.162278 
L 265.085169 186.069268 
L 265.984987 186.136466 
L 266.884806 186.022842 
L 267.784624 185.72193 
L 269.584262 186.213274 
L 271.383899 185.880851 
L 273.183536 186.073868 
L 274.083354 186.418579 
L 274.983173 186.224556 
L 277.682629 186.09028 
L 279.482266 186.158605 
L 283.981359 185.785216 
L 287.580633 186.121806 
L 288.480452 185.979986 
L 313.675372 185.548501 
L 315.475009 184.985342 
L 316.374828 185.325259 
L 317.274647 185.064755 
L 318.174465 184.971918 
L 319.974102 185.386727 
L 322.673558 185.307069 
L 323.573377 184.932575 
L 324.473195 185.462015 
L 326.272832 185.419768 
L 327.172651 185.57921 
L 328.972288 185.389475 
L 329.872107 185.49381 
L 348.768297 185.652583 
L 349.668116 185.678133 
L 350.567934 185.427001 
L 351.467753 185.544278 
L 352.367571 185.390132 
L 353.26739 185.610788 
L 354.167209 185.349617 
L 355.067027 185.558822 
L 355.966846 185.581392 
L 356.866664 185.840065 
L 357.766483 185.524231 
L 358.666301 185.60365 
L 359.56612 184.056359 
L 362.265576 184.245521 
L 364.965032 184.075116 
L 365.86485 183.833092 
L 367.664487 183.813238 
L 368.564306 184.030159 
L 369.464124 183.906281 
L 371.263762 184.083025 
L 372.16358 183.848232 
L 373.063399 184.101449 
L 373.963217 184.025215 
L 374.863036 183.765307 
L 376.662673 183.954403 
L 377.562492 183.744028 
L 378.46231 183.656008 
L 379.362129 184.14059 
L 381.161766 183.670933 
L 382.061585 184.015183 
L 383.861222 183.631453 
L 385.660859 183.96846 
L 387.460496 184.4095 
L 388.360315 184.338793 
L 389.260133 184.59548 
L 390.159952 184.419925 
L 391.059771 184.12693 
L 391.959589 184.240398 
L 392.859408 184.126694 
L 394.659045 184.406965 
L 396.458682 184.398687 
L 397.358501 184.059685 
L 398.258319 184.159774 
L 399.158138 183.934308 
L 400.957775 184.064895 
L 401.857594 184.328665 
L 402.757412 184.174832 
L 403.657231 184.697275 
L 404.557049 184.442055 
L 407.256505 184.576511 
L 408.156324 184.392652 
L 409.056142 184.670587 
L 410.855779 184.583837 
L 413.555235 184.842033 
L 414.455054 184.84012 
L 416.254691 184.408314 
L 417.154509 184.306889 
L 418.054328 184.50475 
L 418.954147 185.433582 
L 420.753784 185.832443 
L 421.653602 185.515763 
L 422.553421 185.706103 
L 424.353058 185.534559 
L 427.052514 185.453958 
L 427.952333 185.203339 
L 429.75197 185.253055 
L 430.651788 184.642887 
L 433.351244 184.841985 
L 434.251063 184.541448 
L 435.150881 184.734194 
L 436.950518 184.523992 
L 437.850337 184.816116 
L 441.449611 184.855248 
L 442.34943 184.988837 
L 444.149067 184.945064 
L 445.048886 185.148616 
L 447.748341 184.984632 
L 448.64816 185.287815 
L 452.247434 185.267122 
L 453.147253 185.085776 
L 454.94689 185.304948 
L 455.846709 185.279698 
L 456.746527 185.124822 
L 457.646346 185.229119 
L 460.345802 184.932905 
L 461.24562 185.244135 
L 462.145439 185.33876 
L 463.045257 185.118932 
L 464.844894 185.228695 
L 468.444169 185.036057 
L 470.243806 185.092768 
L 471.143625 185.284281 
L 475.642718 184.935044 
L 476.542536 185.344094 
L 477.442355 185.059535 
L 478.342173 185.004171 
L 479.241992 184.714453 
L 479.241992 184.714453 
" clip-path="url(#pb02ee767a7)" style="fill: none; stroke: #9467bd; stroke-width: 1.5; stroke-linecap: square"/>
   </g>
   <g id="line2d_32">
    <path d="M 73.42381 114.392006 
L 74.323629 114.624889 
L 75.223447 114.67701 
L 76.123266 113.946556 
L 77.023084 114.317201 
L 77.922903 114.244227 
L 79.72254 114.671734 
L 80.622359 114.300324 
L 82.421996 115.190606 
L 83.321814 115.008415 
L 85.121452 115.230486 
L 86.02127 114.80782 
L 86.921089 114.8689 
L 91.420182 114.841114 
L 92.32 115.125547 
L 93.219819 114.668256 
L 94.119637 114.662057 
L 95.019456 114.824032 
L 95.919275 114.774897 
L 96.819093 114.411981 
L 97.718912 114.730559 
L 98.61873 114.805629 
L 99.518549 114.418422 
L 100.418368 114.409725 
L 101.318186 114.624416 
L 102.218005 114.499405 
L 103.117823 114.91242 
L 104.017642 114.26268 
L 104.917461 114.392741 
L 105.817279 113.996786 
L 107.616916 114.077548 
L 108.516735 113.667798 
L 109.416553 114.152528 
L 110.316372 113.855007 
L 113.915646 114.518752 
L 114.815465 113.786378 
L 115.715284 114.124929 
L 116.615102 114.117691 
L 117.514921 113.953358 
L 118.414739 114.403475 
L 120.214376 113.578909 
L 121.114195 113.830203 
L 122.913832 113.430093 
L 124.713469 113.197169 
L 126.513107 113.243152 
L 127.412925 113.236245 
L 128.312744 113.034867 
L 130.112381 113.639119 
L 131.012199 113.763051 
L 131.912018 113.608585 
L 132.811837 113.606151 
L 138.210748 113.881885 
L 139.110567 113.520115 
L 140.010385 113.717791 
L 140.910204 113.651471 
L 141.810022 113.812605 
L 142.709841 113.738438 
L 150.808208 113.565455 
L 151.708027 113.380246 
L 153.507664 113.517239 
L 154.407483 113.270498 
L 155.307301 113.591213 
L 158.006757 113.325765 
L 158.906576 113.021826 
L 159.806394 113.088518 
L 160.706213 113.48807 
L 162.50585 113.354562 
L 163.405669 113.298608 
L 164.305487 113.545454 
L 165.205306 113.414521 
L 167.004943 113.841996 
L 167.904761 113.590995 
L 168.80458 113.706461 
L 169.704399 113.594059 
L 170.604217 113.911176 
L 171.504036 114.033384 
L 175.10331 113.52842 
L 176.003129 113.821473 
L 177.802766 113.778852 
L 178.702584 114.046362 
L 179.602403 113.592874 
L 180.502222 113.458504 
L 181.40204 113.847167 
L 182.301859 113.683977 
L 183.201677 113.778608 
L 185.001315 113.230759 
L 185.901133 113.409149 
L 186.800952 113.063109 
L 187.70077 112.957673 
L 188.600589 113.323697 
L 200.298231 112.365428 
L 201.198049 111.992937 
L 202.097868 112.198864 
L 202.997686 112.52497 
L 204.797323 112.297479 
L 206.596961 112.878632 
L 207.496779 112.64576 
L 208.396598 112.716023 
L 209.296416 112.969077 
L 210.196235 112.474507 
L 211.096054 112.131905 
L 211.995872 112.184118 
L 215.595146 111.342244 
L 216.494965 111.499869 
L 217.394784 111.172145 
L 218.294602 111.392413 
L 219.194421 111.883099 
L 220.094239 111.601826 
L 220.994058 111.707495 
L 221.893877 111.520084 
L 224.593332 111.567806 
L 225.493151 111.450517 
L 226.392969 111.486368 
L 227.292788 111.158911 
L 229.092425 111.901881 
L 235.391155 111.44055 
L 236.290974 111.225671 
L 237.190792 111.512578 
L 238.090611 111.257119 
L 238.99043 111.217915 
L 239.890248 111.529272 
L 240.790067 111.689714 
L 242.589704 111.373393 
L 243.489523 111.591301 
L 244.389341 111.41314 
L 245.28916 111.433317 
L 246.188978 110.95204 
L 247.088797 111.589278 
L 248.888434 111.206587 
L 249.788253 111.403385 
L 250.688071 111.199617 
L 252.487708 111.134701 
L 253.387527 111.37219 
L 254.287346 111.418178 
L 256.086983 111.053955 
L 256.986801 111.156244 
L 257.88662 111.059401 
L 258.786439 111.201085 
L 260.586076 111.158085 
L 262.385713 110.971903 
L 263.285531 111.352087 
L 264.18535 110.669658 
L 267.784624 110.350076 
L 269.584262 110.947187 
L 271.383899 110.388227 
L 272.283717 110.891638 
L 273.183536 110.748795 
L 274.083354 110.454929 
L 277.682629 110.499935 
L 279.482266 110.02913 
L 282.181722 109.999413 
L 287.580633 109.539813 
L 288.480452 109.492776 
L 314.575191 108.299296 
L 315.475009 107.820513 
L 316.374828 108.151982 
L 317.274647 108.316152 
L 319.074284 107.93213 
L 319.974102 107.970942 
L 320.873921 107.884228 
L 321.773739 108.079712 
L 323.573377 107.819702 
L 324.473195 108.205054 
L 325.373014 108.379844 
L 326.272832 108.228944 
L 327.172651 108.39497 
L 328.07247 108.371933 
L 328.972288 108.019741 
L 329.872107 107.905351 
L 346.068841 108.101479 
L 346.96866 107.815635 
L 348.768297 108.261818 
L 349.668116 107.774758 
L 350.567934 107.919825 
L 351.467753 107.873469 
L 352.367571 107.563374 
L 353.26739 107.67069 
L 354.167209 107.139595 
L 355.067027 107.219658 
L 355.966846 106.756503 
L 356.866664 107.022697 
L 357.766483 107.032298 
L 358.666301 107.258201 
L 359.56612 107.922403 
L 360.465939 108.226409 
L 362.265576 107.941364 
L 365.86485 108.005324 
L 366.764669 107.67316 
L 367.664487 108.098718 
L 368.564306 107.873924 
L 370.363943 107.817546 
L 371.263762 107.457929 
L 372.16358 107.319816 
L 373.963217 107.765925 
L 374.863036 107.218868 
L 376.662673 107.739925 
L 377.562492 107.722686 
L 379.362129 108.040691 
L 380.261948 107.505448 
L 381.161766 107.262125 
L 382.061585 107.441969 
L 383.861222 107.031809 
L 384.76104 106.792159 
L 385.660859 107.252075 
L 386.560678 107.524517 
L 387.460496 107.330102 
L 388.360315 107.46909 
L 389.260133 107.431462 
L 390.159952 106.9831 
L 391.059771 107.270913 
L 392.859408 107.025377 
L 393.759226 107.162406 
L 395.558863 106.791039 
L 396.458682 107.011239 
L 397.358501 106.97319 
L 398.258319 107.264746 
L 399.158138 106.927919 
L 400.957775 106.746715 
L 401.857594 106.486471 
L 403.657231 107.233346 
L 404.557049 107.027983 
L 407.256505 107.148863 
L 408.156324 107.040828 
L 409.056142 107.15791 
L 409.955961 107.088862 
L 411.755598 106.512701 
L 412.655417 106.373957 
L 413.555235 106.611409 
L 414.455054 106.635504 
L 417.154509 106.201753 
L 418.054328 106.240928 
L 418.954147 105.707482 
L 419.853965 105.796704 
L 420.753784 105.617423 
L 423.45324 105.751836 
L 424.353058 105.388253 
L 427.052514 105.408267 
L 427.952333 105.260261 
L 429.75197 105.358719 
L 430.651788 105.032823 
L 431.551607 104.876774 
L 432.451425 105.165237 
L 434.251063 104.347242 
L 436.0507 104.923263 
L 436.950518 104.539261 
L 440.549793 105.233559 
L 442.34943 105.038198 
L 443.249248 104.968418 
L 444.149067 105.122365 
L 445.048886 105.034337 
L 445.948704 104.747322 
L 447.748341 104.688763 
L 448.64816 105.016527 
L 449.547979 104.837954 
L 452.247434 104.962217 
L 453.147253 105.221114 
L 454.047071 105.250493 
L 454.94689 105.025864 
L 456.746527 105.047963 
L 457.646346 104.815276 
L 458.546164 104.732902 
L 459.445983 104.829365 
L 460.345802 105.911228 
L 461.24562 104.86097 
L 462.145439 105.241615 
L 463.945076 105.030046 
L 465.744713 104.903337 
L 466.644532 105.106484 
L 467.54435 105.062191 
L 468.444169 105.510092 
L 469.343987 105.133088 
L 472.943262 105.323096 
L 473.84308 105.407642 
L 474.742899 105.21297 
L 476.542536 105.415537 
L 477.442355 105.736862 
L 478.342173 105.08594 
L 479.241992 105.080387 
L 479.241992 105.080387 
" clip-path="url(#pb02ee767a7)" style="fill: none; stroke: #8c564b; stroke-width: 1.5; stroke-linecap: square"/>
   </g>
   <g id="line2d_33">
    <path d="M 73.42381 35.366352 
L 74.323629 35.305419 
L 75.223447 34.832121 
L 76.123266 34.863979 
L 77.023084 35.454879 
L 77.922903 35.512923 
L 78.822722 35.990637 
L 79.72254 36.18536 
L 80.622359 36.687745 
L 81.522177 36.166187 
L 82.421996 36.536535 
L 83.321814 36.282268 
L 84.221633 36.600377 
L 85.121452 36.36319 
L 86.02127 36.379995 
L 86.921089 36.182531 
L 89.620545 36.383321 
L 90.520363 36.305565 
L 91.420182 36.358974 
L 92.32 36.755247 
L 94.119637 35.893755 
L 95.019456 36.606736 
L 95.919275 36.319191 
L 96.819093 36.687894 
L 97.718912 36.852237 
L 98.61873 37.427699 
L 100.418368 37.302539 
L 102.218005 37.145789 
L 103.117823 37.493873 
L 104.017642 37.020071 
L 104.917461 36.704153 
L 107.616916 36.770589 
L 108.516735 36.563446 
L 109.416553 36.94799 
L 110.316372 36.676538 
L 112.116009 36.344915 
L 113.015828 36.653055 
L 113.915646 36.742647 
L 114.815465 36.354359 
L 115.715284 36.551943 
L 116.615102 36.580503 
L 117.514921 36.738111 
L 118.414739 36.440405 
L 119.314558 36.346148 
L 120.214376 35.977544 
L 121.114195 36.3282 
L 122.913832 35.864465 
L 124.713469 36.452424 
L 125.613288 35.844549 
L 126.513107 36.208319 
L 127.412925 36.073306 
L 129.212562 36.730077 
L 130.112381 36.028625 
L 131.012199 36.552269 
L 131.912018 36.27603 
L 132.811837 36.386944 
L 138.210748 36.191164 
L 139.110567 36.359038 
L 140.010385 36.338373 
L 140.910204 36.774804 
L 142.709841 37.164239 
L 150.808208 36.618681 
L 151.708027 36.676555 
L 153.507664 36.462243 
L 155.307301 36.601262 
L 156.20712 36.290178 
L 158.006757 36.466134 
L 158.906576 36.113933 
L 159.806394 36.454595 
L 161.606031 36.262992 
L 162.50585 36.602273 
L 163.405669 36.559232 
L 164.305487 37.20287 
L 165.205306 36.608933 
L 167.004943 37.170274 
L 167.904761 37.150134 
L 168.80458 37.404857 
L 169.704399 37.043206 
L 171.504036 37.477409 
L 174.203492 37.431661 
L 175.10331 36.797973 
L 176.003129 37.042015 
L 176.902947 37.633755 
L 177.802766 37.239236 
L 178.702584 37.572999 
L 179.602403 36.869325 
L 180.502222 37.127004 
L 181.40204 37.225221 
L 183.201677 37.06026 
L 185.001315 37.128655 
L 186.800952 36.799104 
L 188.600589 37.207599 
L 200.298231 36.324003 
L 201.198049 35.920792 
L 202.097868 36.208798 
L 202.997686 35.812602 
L 203.897505 35.59152 
L 204.797323 35.581556 
L 206.596961 36.044273 
L 208.396598 35.457138 
L 209.296416 35.737811 
L 210.196235 35.563933 
L 211.096054 34.886151 
L 211.995872 35.231221 
L 214.695328 35.175808 
L 215.595146 35.502565 
L 217.394784 35.232601 
L 218.294602 35.646927 
L 220.994058 35.956354 
L 221.893877 35.236841 
L 224.593332 36.507114 
L 225.493151 36.012951 
L 226.392969 36.105987 
L 227.292788 36.067177 
L 228.192607 36.304216 
L 229.092425 36.045957 
L 234.491337 36.087845 
L 235.391155 36.183332 
L 236.290974 35.957505 
L 237.190792 36.413103 
L 238.090611 35.826337 
L 238.99043 35.8163 
L 239.890248 35.968845 
L 240.790067 35.960015 
L 241.689885 35.370466 
L 242.589704 36.181824 
L 245.28916 35.609948 
L 246.188978 35.675163 
L 247.088797 35.969882 
L 247.988616 35.3778 
L 248.888434 35.302748 
L 249.788253 35.894231 
L 250.688071 35.23243 
L 252.487708 35.258279 
L 253.387527 35.049861 
L 254.287346 35.224261 
L 255.187164 35.074572 
L 256.086983 34.612808 
L 256.986801 34.825668 
L 257.88662 34.723709 
L 260.586076 35.138644 
L 261.485894 35.020874 
L 262.385713 35.278199 
L 263.285531 35.207979 
L 265.085169 34.463496 
L 265.984987 34.287572 
L 266.884806 34.548954 
L 267.784624 34.34122 
L 268.684443 34.827813 
L 269.584262 35.066015 
L 270.48408 34.88747 
L 272.283717 34.904832 
L 273.183536 34.732294 
L 274.083354 34.430296 
L 274.983173 34.646964 
L 275.882992 34.743933 
L 276.78281 34.99792 
L 282.181722 34.100786 
L 283.981359 34.049585 
L 287.580633 33.712909 
L 288.480452 33.780573 
L 314.575191 34.067339 
L 315.475009 33.674836 
L 316.374828 34.208941 
L 317.274647 34.279997 
L 318.174465 33.763209 
L 319.074284 33.735816 
L 319.974102 33.89558 
L 320.873921 33.702186 
L 321.773739 33.636939 
L 322.673558 33.436746 
L 323.573377 33.493572 
L 326.272832 32.967404 
L 327.172651 33.429339 
L 329.872107 33.046426 
L 346.96866 33.606697 
L 348.768297 33.830838 
L 349.668116 33.548574 
L 350.567934 33.541763 
L 351.467753 33.365553 
L 352.367571 33.467907 
L 354.167209 33.020966 
L 355.067027 32.966768 
L 355.966846 32.760323 
L 356.866664 33.045487 
L 357.766483 32.914645 
L 358.666301 33.03818 
L 359.56612 32.351152 
L 360.465939 32.679792 
L 361.365757 32.585457 
L 362.265576 32.885956 
L 369.464124 32.741507 
L 370.363943 32.838773 
L 371.263762 32.475327 
L 372.16358 32.638129 
L 373.063399 33.131052 
L 374.863036 32.547035 
L 375.762855 32.718893 
L 376.662673 33.325644 
L 377.562492 32.952119 
L 378.46231 32.714551 
L 379.362129 33.150763 
L 380.261948 33.371708 
L 381.161766 32.678659 
L 382.061585 33.057603 
L 382.961403 32.510262 
L 383.861222 32.368621 
L 384.76104 32.393633 
L 385.660859 32.830079 
L 386.560678 32.714116 
L 388.360315 33.096566 
L 389.260133 32.94952 
L 390.159952 32.595113 
L 391.059771 32.391607 
L 391.959589 32.350727 
L 392.859408 32.469433 
L 393.759226 32.926085 
L 394.659045 32.965365 
L 395.558863 32.503524 
L 396.458682 33.021288 
L 397.358501 32.983117 
L 398.258319 33.189084 
L 402.757412 32.741383 
L 403.657231 32.161161 
L 404.557049 32.467885 
L 407.256505 32.397856 
L 408.156324 32.142925 
L 409.056142 32.465488 
L 409.955961 32.450706 
L 410.855779 32.220499 
L 415.354872 32.322457 
L 416.254691 31.919636 
L 418.054328 31.846328 
L 418.954147 31.768096 
L 419.853965 31.827844 
L 421.653602 31.700099 
L 422.553421 31.834461 
L 423.45324 31.718134 
L 424.353058 31.22039 
L 426.152695 31.962511 
L 427.052514 31.53346 
L 427.952333 31.491005 
L 428.852151 31.568248 
L 429.75197 31.481897 
L 430.651788 31.227477 
L 431.551607 31.17206 
L 432.451425 31.488083 
L 433.351244 31.154403 
L 436.0507 31.373693 
L 436.950518 31.187922 
L 437.850337 31.486277 
L 440.549793 31.897253 
L 441.449611 31.705872 
L 444.149067 31.666107 
L 445.048886 32.261415 
L 445.948704 31.876931 
L 446.848523 31.741046 
L 447.748341 31.733635 
L 448.64816 31.88008 
L 449.547979 31.83488 
L 454.047071 32.022308 
L 454.94689 31.58835 
L 456.746527 31.533636 
L 457.646346 32.025831 
L 458.546164 31.833751 
L 459.445983 31.910606 
L 460.345802 32.613983 
L 461.24562 32.050258 
L 462.145439 32.196501 
L 463.045257 31.69533 
L 463.945076 32.001518 
L 464.844894 31.767714 
L 466.644532 31.984063 
L 467.54435 32.067596 
L 468.444169 32.779887 
L 469.343987 32.693767 
L 470.243806 32.489334 
L 472.043443 32.797967 
L 472.943262 32.9164 
L 475.642718 32.788806 
L 476.542536 32.917824 
L 477.442355 32.723752 
L 478.342173 32.780594 
L 479.241992 32.637642 
L 479.241992 32.637642 
" clip-path="url(#pb02ee767a7)" style="fill: none; stroke: #e377c2; stroke-width: 1.5; stroke-linecap: square"/>
   </g>
   <g id="patch_3">
    <path d="M 53.132901 194.725312 
L 53.132901 23.365313 
" style="fill: none; stroke: #000000; stroke-width: 0.8; stroke-linejoin: miter; stroke-linecap: square"/>
   </g>
   <g id="patch_4">
    <path d="M 499.532901 194.725312 
L 499.532901 23.365313 
" style="fill: none; stroke: #000000; stroke-width: 0.8; stroke-linejoin: miter; stroke-linecap: square"/>
   </g>
   <g id="patch_5">
    <path d="M 53.132901 194.725312 
L 499.532901 194.725312 
" style="fill: none; stroke: #000000; stroke-width: 0.8; stroke-linejoin: miter; stroke-linecap: square"/>
   </g>
   <g id="patch_6">
    <path d="M 53.132901 23.365313 
L 499.532901 23.365313 
" style="fill: none; stroke: #000000; stroke-width: 0.8; stroke-linejoin: miter; stroke-linecap: square"/>
   </g>
   <g id="legend_1">
    <g id="patch_7">
     <path d="M 163.774776 162.131062 
L 388.891026 162.131062 
Q 390.491026 162.131062 390.491026 160.531062 
L 390.491026 126.103562 
Q 390.491026 124.503562 388.891026 124.503562 
L 163.774776 124.503562 
Q 162.174776 124.503562 162.174776 126.103562 
L 162.174776 160.531062 
Q 162.174776 162.131062 163.774776 162.131062 
z
" style="fill: #ffffff; opacity: 0.8; stroke: #cccccc; stroke-linejoin: miter"/>
    </g>
    <g id="line2d_34">
     <path d="M 165.374776 130.982312 
L 173.374776 130.982312 
L 181.374776 130.982312 
" style="fill: none; stroke: #1f77b4; stroke-width: 1.5; stroke-linecap: square"/>
    </g>
    <g id="text_23">
     <!-- script-src -->
     <g transform="translate(187.774776 133.782312)scale(0.08 -0.08)">
      <use xlink:href="#DejaVuSans-73"/>
      <use xlink:href="#DejaVuSans-63" x="52.099609"/>
      <use xlink:href="#DejaVuSans-72" x="107.080078"/>
      <use xlink:href="#DejaVuSans-69" x="148.193359"/>
      <use xlink:href="#DejaVuSans-70" x="175.976562"/>
      <use xlink:href="#DejaVuSans-74" x="239.453125"/>
      <use xlink:href="#DejaVuSans-2d" x="278.662109"/>
      <use xlink:href="#DejaVuSans-73" x="314.746094"/>
      <use xlink:href="#DejaVuSans-72" x="366.845703"/>
      <use xlink:href="#DejaVuSans-63" x="405.708984"/>
     </g>
    </g>
    <g id="line2d_35">
     <path d="M 165.374776 142.724812 
L 173.374776 142.724812 
L 181.374776 142.724812 
" style="fill: none; stroke: #ff7f0e; stroke-width: 1.5; stroke-linecap: square"/>
    </g>
    <g id="text_24">
     <!-- connect-src -->
     <g transform="translate(187.774776 145.524812)scale(0.08 -0.08)">
      <use xlink:href="#DejaVuSans-63"/>
      <use xlink:href="#DejaVuSans-6f" x="54.980469"/>
      <use xlink:href="#DejaVuSans-6e" x="116.162109"/>
      <use xlink:href="#DejaVuSans-6e" x="179.541016"/>
      <use xlink:href="#DejaVuSans-65" x="242.919922"/>
      <use xlink:href="#DejaVuSans-63" x="304.443359"/>
      <use xlink:href="#DejaVuSans-74" x="359.423828"/>
      <use xlink:href="#DejaVuSans-2d" x="398.632812"/>
      <use xlink:href="#DejaVuSans-73" x="434.716797"/>
      <use xlink:href="#DejaVuSans-72" x="486.816406"/>
      <use xlink:href="#DejaVuSans-63" x="525.679688"/>
     </g>
    </g>
    <g id="line2d_36">
     <path d="M 165.374776 154.467312 
L 173.374776 154.467312 
L 181.374776 154.467312 
" style="fill: none; stroke: #2ca02c; stroke-width: 1.5; stroke-linecap: square"/>
    </g>
    <g id="text_25">
     <!-- style-src -->
     <g transform="translate(187.774776 157.267313)scale(0.08 -0.08)">
      <use xlink:href="#DejaVuSans-73"/>
      <use xlink:href="#DejaVuSans-74" x="52.099609"/>
      <use xlink:href="#DejaVuSans-79" x="91.308594"/>
      <use xlink:href="#DejaVuSans-6c" x="150.488281"/>
      <use xlink:href="#DejaVuSans-65" x="178.271484"/>
      <use xlink:href="#DejaVuSans-2d" x="239.794922"/>
      <use xlink:href="#DejaVuSans-73" x="275.878906"/>
      <use xlink:href="#DejaVuSans-72" x="327.978516"/>
      <use xlink:href="#DejaVuSans-63" x="366.841797"/>
     </g>
    </g>
    <g id="line2d_37">
     <path d="M 250.227276 130.982312 
L 258.227276 130.982312 
L 266.227276 130.982312 
" style="fill: none; stroke: #d62728; stroke-width: 1.5; stroke-linecap: square"/>
    </g>
    <g id="text_26">
     <!-- img-src -->
     <g transform="translate(272.627276 133.782312)scale(0.08 -0.08)">
      <defs>
       <path id="DejaVuSans-6d" d="M 3328 2828 
Q 3544 3216 3844 3400 
Q 4144 3584 4550 3584 
Q 5097 3584 5394 3201 
Q 5691 2819 5691 2113 
L 5691 0 
L 5113 0 
L 5113 2094 
Q 5113 2597 4934 2840 
Q 4756 3084 4391 3084 
Q 3944 3084 3684 2787 
Q 3425 2491 3425 1978 
L 3425 0 
L 2847 0 
L 2847 2094 
Q 2847 2600 2669 2842 
Q 2491 3084 2119 3084 
Q 1678 3084 1418 2786 
Q 1159 2488 1159 1978 
L 1159 0 
L 581 0 
L 581 3500 
L 1159 3500 
L 1159 2956 
Q 1356 3278 1631 3431 
Q 1906 3584 2284 3584 
Q 2666 3584 2933 3390 
Q 3200 3197 3328 2828 
z
" transform="scale(0.015625)"/>
      </defs>
      <use xlink:href="#DejaVuSans-69"/>
      <use xlink:href="#DejaVuSans-6d" x="27.783203"/>
      <use xlink:href="#DejaVuSans-67" x="125.195312"/>
      <use xlink:href="#DejaVuSans-2d" x="188.671875"/>
      <use xlink:href="#DejaVuSans-73" x="224.755859"/>
      <use xlink:href="#DejaVuSans-72" x="276.855469"/>
      <use xlink:href="#DejaVuSans-63" x="315.71875"/>
     </g>
    </g>
    <g id="line2d_38">
     <path d="M 250.227276 142.724812 
L 258.227276 142.724812 
L 266.227276 142.724812 
" style="fill: none; stroke: #9467bd; stroke-width: 1.5; stroke-linecap: square"/>
    </g>
    <g id="text_27">
     <!-- child-src -->
     <g transform="translate(272.627276 145.524812)scale(0.08 -0.08)">
      <defs>
       <path id="DejaVuSans-68" d="M 3513 2113 
L 3513 0 
L 2938 0 
L 2938 2094 
Q 2938 2591 2744 2837 
Q 2550 3084 2163 3084 
Q 1697 3084 1428 2787 
Q 1159 2491 1159 1978 
L 1159 0 
L 581 0 
L 581 4863 
L 1159 4863 
L 1159 2956 
Q 1366 3272 1645 3428 
Q 1925 3584 2291 3584 
Q 2894 3584 3203 3211 
Q 3513 2838 3513 2113 
z
" transform="scale(0.015625)"/>
      </defs>
      <use xlink:href="#DejaVuSans-63"/>
      <use xlink:href="#DejaVuSans-68" x="54.980469"/>
      <use xlink:href="#DejaVuSans-69" x="118.359375"/>
      <use xlink:href="#DejaVuSans-6c" x="146.142578"/>
      <use xlink:href="#DejaVuSans-64" x="173.925781"/>
      <use xlink:href="#DejaVuSans-2d" x="237.402344"/>
      <use xlink:href="#DejaVuSans-73" x="273.486328"/>
      <use xlink:href="#DejaVuSans-72" x="325.585938"/>
      <use xlink:href="#DejaVuSans-63" x="364.449219"/>
     </g>
    </g>
    <g id="line2d_39">
     <path d="M 322.181026 130.982312 
L 330.181026 130.982312 
L 338.181026 130.982312 
" style="fill: none; stroke: #8c564b; stroke-width: 1.5; stroke-linecap: square"/>
    </g>
    <g id="text_28">
     <!-- frame-src -->
     <g transform="translate(344.581026 133.782312)scale(0.08 -0.08)">
      <use xlink:href="#DejaVuSans-66"/>
      <use xlink:href="#DejaVuSans-72" x="35.205078"/>
      <use xlink:href="#DejaVuSans-61" x="76.318359"/>
      <use xlink:href="#DejaVuSans-6d" x="137.597656"/>
      <use xlink:href="#DejaVuSans-65" x="235.009766"/>
      <use xlink:href="#DejaVuSans-2d" x="296.533203"/>
      <use xlink:href="#DejaVuSans-73" x="332.617188"/>
      <use xlink:href="#DejaVuSans-72" x="384.716797"/>
      <use xlink:href="#DejaVuSans-63" x="423.580078"/>
     </g>
    </g>
    <g id="line2d_40">
     <path d="M 322.181026 142.724812 
L 330.181026 142.724812 
L 338.181026 142.724812 
" style="fill: none; stroke: #e377c2; stroke-width: 1.5; stroke-linecap: square"/>
    </g>
    <g id="text_29">
     <!-- default-src -->
     <g transform="translate(344.581026 145.524812)scale(0.08 -0.08)">
      <use xlink:href="#DejaVuSans-64"/>
      <use xlink:href="#DejaVuSans-65" x="63.476562"/>
      <use xlink:href="#DejaVuSans-66" x="125"/>
      <use xlink:href="#DejaVuSans-61" x="160.205078"/>
      <use xlink:href="#DejaVuSans-75" x="221.484375"/>
      <use xlink:href="#DejaVuSans-6c" x="284.863281"/>
      <use xlink:href="#DejaVuSans-74" x="312.646484"/>
      <use xlink:href="#DejaVuSans-2d" x="351.855469"/>
      <use xlink:href="#DejaVuSans-73" x="387.939453"/>
      <use xlink:href="#DejaVuSans-72" x="440.039062"/>
      <use xlink:href="#DejaVuSans-63" x="478.902344"/>
     </g>
    </g>
   </g>
  </g>
 </g>
 <defs>
  <clipPath id="pb02ee767a7">
   <rect x="53.132901" y="23.365313" width="446.4" height="171.36"/>
  </clipPath>
 </defs>
</svg>
