<?xml version="1.0" encoding="utf-8" standalone="no"?>
<!DOCTYPE svg PUBLIC "-//W3C//DTD SVG 1.1//EN"
  "http://www.w3.org/Graphics/SVG/1.1/DTD/svg11.dtd">
<svg xmlns:xlink="http://www.w3.org/1999/xlink" width="507.159131pt" height="250.252127pt" viewBox="0 0 507.159131 250.252127" xmlns="http://www.w3.org/2000/svg" version="1.1">
 <metadata>
  <rdf:RDF xmlns:dc="http://purl.org/dc/elements/1.1/" xmlns:cc="http://creativecommons.org/ns#" xmlns:rdf="http://www.w3.org/1999/02/22-rdf-syntax-ns#">
   <cc:Work>
    <dc:type rdf:resource="http://purl.org/dc/dcmitype/StillImage"/>
    <dc:date>2022-02-02T20:24:20.244810</dc:date>
    <dc:format>image/svg+xml</dc:format>
    <dc:creator>
     <cc:Agent>
      <dc:title>Matplotlib v3.5.1, https://matplotlib.org/</dc:title>
     </cc:Agent>
    </dc:creator>
   </cc:Work>
  </rdf:RDF>
 </metadata>
 <defs>
  <style type="text/css">*{stroke-linejoin: round; stroke-linecap: butt}</style>
 </defs>
 <g id="figure_1">
  <g id="patch_1">
   <path d="M 0 250.252127 
L 507.159131 250.252127 
L 507.159131 0 
L 0 0 
z
" style="fill: #ffffff"/>
  </g>
  <g id="axes_1">
   <g id="patch_2">
    <path d="M 53.559131 194.725312 
L 499.959131 194.725312 
L 499.959131 23.365313 
L 53.559131 23.365313 
z
" style="fill: #ffffff"/>
   </g>
   <g id="matplotlib.axis_1">
    <g id="xtick_1">
     <g id="line2d_1">
      <defs>
       <path id="m0e967d5683" d="M 0 0 
L 0 3.5 
" style="stroke: #000000; stroke-width: 0.8"/>
      </defs>
      <g>
       <use xlink:href="#m0e967d5683" x="68.024899" y="194.725312" style="stroke: #000000; stroke-width: 0.8"/>
      </g>
     </g>
     <g id="text_1">
      <!-- 2020-Nov-01 -->
      <g transform="translate(10.999219 240.62919)rotate(-30)scale(0.1 -0.1)">
       <defs>
        <path id="DejaVuSans-32" d="M 1228 531 
L 3431 531 
L 3431 0 
L 469 0 
L 469 531 
Q 828 903 1448 1529 
Q 2069 2156 2228 2338 
Q 2531 2678 2651 2914 
Q 2772 3150 2772 3378 
Q 2772 3750 2511 3984 
Q 2250 4219 1831 4219 
Q 1534 4219 1204 4116 
Q 875 4013 500 3803 
L 500 4441 
Q 881 4594 1212 4672 
Q 1544 4750 1819 4750 
Q 2544 4750 2975 4387 
Q 3406 4025 3406 3419 
Q 3406 3131 3298 2873 
Q 3191 2616 2906 2266 
Q 2828 2175 2409 1742 
Q 1991 1309 1228 531 
z
" transform="scale(0.015625)"/>
        <path id="DejaVuSans-30" d="M 2034 4250 
Q 1547 4250 1301 3770 
Q 1056 3291 1056 2328 
Q 1056 1369 1301 889 
Q 1547 409 2034 409 
Q 2525 409 2770 889 
Q 3016 1369 3016 2328 
Q 3016 3291 2770 3770 
Q 2525 4250 2034 4250 
z
M 2034 4750 
Q 2819 4750 3233 4129 
Q 3647 3509 3647 2328 
Q 3647 1150 3233 529 
Q 2819 -91 2034 -91 
Q 1250 -91 836 529 
Q 422 1150 422 2328 
Q 422 3509 836 4129 
Q 1250 4750 2034 4750 
z
" transform="scale(0.015625)"/>
        <path id="DejaVuSans-2d" d="M 313 2009 
L 1997 2009 
L 1997 1497 
L 313 1497 
L 313 2009 
z
" transform="scale(0.015625)"/>
        <path id="DejaVuSans-4e" d="M 628 4666 
L 1478 4666 
L 3547 763 
L 3547 4666 
L 4159 4666 
L 4159 0 
L 3309 0 
L 1241 3903 
L 1241 0 
L 628 0 
L 628 4666 
z
" transform="scale(0.015625)"/>
        <path id="DejaVuSans-6f" d="M 1959 3097 
Q 1497 3097 1228 2736 
Q 959 2375 959 1747 
Q 959 1119 1226 758 
Q 1494 397 1959 397 
Q 2419 397 2687 759 
Q 2956 1122 2956 1747 
Q 2956 2369 2687 2733 
Q 2419 3097 1959 3097 
z
M 1959 3584 
Q 2709 3584 3137 3096 
Q 3566 2609 3566 1747 
Q 3566 888 3137 398 
Q 2709 -91 1959 -91 
Q 1206 -91 779 398 
Q 353 888 353 1747 
Q 353 2609 779 3096 
Q 1206 3584 1959 3584 
z
" transform="scale(0.015625)"/>
        <path id="DejaVuSans-76" d="M 191 3500 
L 800 3500 
L 1894 563 
L 2988 3500 
L 3597 3500 
L 2284 0 
L 1503 0 
L 191 3500 
z
" transform="scale(0.015625)"/>
        <path id="DejaVuSans-31" d="M 794 531 
L 1825 531 
L 1825 4091 
L 703 3866 
L 703 4441 
L 1819 4666 
L 2450 4666 
L 2450 531 
L 3481 531 
L 3481 0 
L 794 0 
L 794 531 
z
" transform="scale(0.015625)"/>
       </defs>
       <use xlink:href="#DejaVuSans-32"/>
       <use xlink:href="#DejaVuSans-30" x="63.623047"/>
       <use xlink:href="#DejaVuSans-32" x="127.246094"/>
       <use xlink:href="#DejaVuSans-30" x="190.869141"/>
       <use xlink:href="#DejaVuSans-2d" x="254.492188"/>
       <use xlink:href="#DejaVuSans-4e" x="290.576172"/>
       <use xlink:href="#DejaVuSans-6f" x="365.380859"/>
       <use xlink:href="#DejaVuSans-76" x="426.5625"/>
       <use xlink:href="#DejaVuSans-2d" x="483.117188"/>
       <use xlink:href="#DejaVuSans-30" x="519.201172"/>
       <use xlink:href="#DejaVuSans-31" x="582.824219"/>
      </g>
     </g>
    </g>
    <g id="xtick_2">
     <g id="line2d_2">
      <g>
       <use xlink:href="#m0e967d5683" x="97.150605" y="194.725312" style="stroke: #000000; stroke-width: 0.8"/>
      </g>
     </g>
     <g id="text_2">
      <!-- 2020-Dec-01 -->
      <g transform="translate(40.042383 240.676846)rotate(-30)scale(0.1 -0.1)">
       <defs>
        <path id="DejaVuSans-44" d="M 1259 4147 
L 1259 519 
L 2022 519 
Q 2988 519 3436 956 
Q 3884 1394 3884 2338 
Q 3884 3275 3436 3711 
Q 2988 4147 2022 4147 
L 1259 4147 
z
M 628 4666 
L 1925 4666 
Q 3281 4666 3915 4102 
Q 4550 3538 4550 2338 
Q 4550 1131 3912 565 
Q 3275 0 1925 0 
L 628 0 
L 628 4666 
z
" transform="scale(0.015625)"/>
        <path id="DejaVuSans-65" d="M 3597 1894 
L 3597 1613 
L 953 1613 
Q 991 1019 1311 708 
Q 1631 397 2203 397 
Q 2534 397 2845 478 
Q 3156 559 3463 722 
L 3463 178 
Q 3153 47 2828 -22 
Q 2503 -91 2169 -91 
Q 1331 -91 842 396 
Q 353 884 353 1716 
Q 353 2575 817 3079 
Q 1281 3584 2069 3584 
Q 2775 3584 3186 3129 
Q 3597 2675 3597 1894 
z
M 3022 2063 
Q 3016 2534 2758 2815 
Q 2500 3097 2075 3097 
Q 1594 3097 1305 2825 
Q 1016 2553 972 2059 
L 3022 2063 
z
" transform="scale(0.015625)"/>
        <path id="DejaVuSans-63" d="M 3122 3366 
L 3122 2828 
Q 2878 2963 2633 3030 
Q 2388 3097 2138 3097 
Q 1578 3097 1268 2742 
Q 959 2388 959 1747 
Q 959 1106 1268 751 
Q 1578 397 2138 397 
Q 2388 397 2633 464 
Q 2878 531 3122 666 
L 3122 134 
Q 2881 22 2623 -34 
Q 2366 -91 2075 -91 
Q 1284 -91 818 406 
Q 353 903 353 1747 
Q 353 2603 823 3093 
Q 1294 3584 2113 3584 
Q 2378 3584 2631 3529 
Q 2884 3475 3122 3366 
z
" transform="scale(0.015625)"/>
       </defs>
       <use xlink:href="#DejaVuSans-32"/>
       <use xlink:href="#DejaVuSans-30" x="63.623047"/>
       <use xlink:href="#DejaVuSans-32" x="127.246094"/>
       <use xlink:href="#DejaVuSans-30" x="190.869141"/>
       <use xlink:href="#DejaVuSans-2d" x="254.492188"/>
       <use xlink:href="#DejaVuSans-44" x="290.576172"/>
       <use xlink:href="#DejaVuSans-65" x="367.578125"/>
       <use xlink:href="#DejaVuSans-63" x="429.101562"/>
       <use xlink:href="#DejaVuSans-2d" x="484.082031"/>
       <use xlink:href="#DejaVuSans-30" x="520.166016"/>
       <use xlink:href="#DejaVuSans-31" x="583.789062"/>
      </g>
     </g>
    </g>
    <g id="xtick_3">
     <g id="line2d_3">
      <g>
       <use xlink:href="#m0e967d5683" x="127.247169" y="194.725312" style="stroke: #000000; stroke-width: 0.8"/>
      </g>
     </g>
     <g id="text_3">
      <!-- 2021-Jan-01 -->
      <g transform="translate(73.060429 238.990127)rotate(-30)scale(0.1 -0.1)">
       <defs>
        <path id="DejaVuSans-4a" d="M 628 4666 
L 1259 4666 
L 1259 325 
Q 1259 -519 939 -900 
Q 619 -1281 -91 -1281 
L -331 -1281 
L -331 -750 
L -134 -750 
Q 284 -750 456 -515 
Q 628 -281 628 325 
L 628 4666 
z
" transform="scale(0.015625)"/>
        <path id="DejaVuSans-61" d="M 2194 1759 
Q 1497 1759 1228 1600 
Q 959 1441 959 1056 
Q 959 750 1161 570 
Q 1363 391 1709 391 
Q 2188 391 2477 730 
Q 2766 1069 2766 1631 
L 2766 1759 
L 2194 1759 
z
M 3341 1997 
L 3341 0 
L 2766 0 
L 2766 531 
Q 2569 213 2275 61 
Q 1981 -91 1556 -91 
Q 1019 -91 701 211 
Q 384 513 384 1019 
Q 384 1609 779 1909 
Q 1175 2209 1959 2209 
L 2766 2209 
L 2766 2266 
Q 2766 2663 2505 2880 
Q 2244 3097 1772 3097 
Q 1472 3097 1187 3025 
Q 903 2953 641 2809 
L 641 3341 
Q 956 3463 1253 3523 
Q 1550 3584 1831 3584 
Q 2591 3584 2966 3190 
Q 3341 2797 3341 1997 
z
" transform="scale(0.015625)"/>
        <path id="DejaVuSans-6e" d="M 3513 2113 
L 3513 0 
L 2938 0 
L 2938 2094 
Q 2938 2591 2744 2837 
Q 2550 3084 2163 3084 
Q 1697 3084 1428 2787 
Q 1159 2491 1159 1978 
L 1159 0 
L 581 0 
L 581 3500 
L 1159 3500 
L 1159 2956 
Q 1366 3272 1645 3428 
Q 1925 3584 2291 3584 
Q 2894 3584 3203 3211 
Q 3513 2838 3513 2113 
z
" transform="scale(0.015625)"/>
       </defs>
       <use xlink:href="#DejaVuSans-32"/>
       <use xlink:href="#DejaVuSans-30" x="63.623047"/>
       <use xlink:href="#DejaVuSans-32" x="127.246094"/>
       <use xlink:href="#DejaVuSans-31" x="190.869141"/>
       <use xlink:href="#DejaVuSans-2d" x="254.492188"/>
       <use xlink:href="#DejaVuSans-4a" x="296.201172"/>
       <use xlink:href="#DejaVuSans-61" x="325.693359"/>
       <use xlink:href="#DejaVuSans-6e" x="386.972656"/>
       <use xlink:href="#DejaVuSans-2d" x="450.351562"/>
       <use xlink:href="#DejaVuSans-30" x="486.435547"/>
       <use xlink:href="#DejaVuSans-31" x="550.058594"/>
      </g>
     </g>
    </g>
    <g id="xtick_4">
     <g id="line2d_4">
      <g>
       <use xlink:href="#m0e967d5683" x="157.343733" y="194.725312" style="stroke: #000000; stroke-width: 0.8"/>
      </g>
     </g>
     <g id="text_4">
      <!-- 2021-Feb-01 -->
      <g transform="translate(101.663099 239.852627)rotate(-30)scale(0.1 -0.1)">
       <defs>
        <path id="DejaVuSans-46" d="M 628 4666 
L 3309 4666 
L 3309 4134 
L 1259 4134 
L 1259 2759 
L 3109 2759 
L 3109 2228 
L 1259 2228 
L 1259 0 
L 628 0 
L 628 4666 
z
" transform="scale(0.015625)"/>
        <path id="DejaVuSans-62" d="M 3116 1747 
Q 3116 2381 2855 2742 
Q 2594 3103 2138 3103 
Q 1681 3103 1420 2742 
Q 1159 2381 1159 1747 
Q 1159 1113 1420 752 
Q 1681 391 2138 391 
Q 2594 391 2855 752 
Q 3116 1113 3116 1747 
z
M 1159 2969 
Q 1341 3281 1617 3432 
Q 1894 3584 2278 3584 
Q 2916 3584 3314 3078 
Q 3713 2572 3713 1747 
Q 3713 922 3314 415 
Q 2916 -91 2278 -91 
Q 1894 -91 1617 61 
Q 1341 213 1159 525 
L 1159 0 
L 581 0 
L 581 4863 
L 1159 4863 
L 1159 2969 
z
" transform="scale(0.015625)"/>
       </defs>
       <use xlink:href="#DejaVuSans-32"/>
       <use xlink:href="#DejaVuSans-30" x="63.623047"/>
       <use xlink:href="#DejaVuSans-32" x="127.246094"/>
       <use xlink:href="#DejaVuSans-31" x="190.869141"/>
       <use xlink:href="#DejaVuSans-2d" x="254.492188"/>
       <use xlink:href="#DejaVuSans-46" x="290.576172"/>
       <use xlink:href="#DejaVuSans-65" x="342.595703"/>
       <use xlink:href="#DejaVuSans-62" x="404.119141"/>
       <use xlink:href="#DejaVuSans-2d" x="467.595703"/>
       <use xlink:href="#DejaVuSans-30" x="503.679688"/>
       <use xlink:href="#DejaVuSans-31" x="567.302734"/>
      </g>
     </g>
    </g>
    <g id="xtick_5">
     <g id="line2d_5">
      <g>
       <use xlink:href="#m0e967d5683" x="184.527726" y="194.725312" style="stroke: #000000; stroke-width: 0.8"/>
      </g>
     </g>
     <g id="text_5">
      <!-- 2021-Mar-01 -->
      <g transform="translate(128.391075 240.115909)rotate(-30)scale(0.1 -0.1)">
       <defs>
        <path id="DejaVuSans-4d" d="M 628 4666 
L 1569 4666 
L 2759 1491 
L 3956 4666 
L 4897 4666 
L 4897 0 
L 4281 0 
L 4281 4097 
L 3078 897 
L 2444 897 
L 1241 4097 
L 1241 0 
L 628 0 
L 628 4666 
z
" transform="scale(0.015625)"/>
        <path id="DejaVuSans-72" d="M 2631 2963 
Q 2534 3019 2420 3045 
Q 2306 3072 2169 3072 
Q 1681 3072 1420 2755 
Q 1159 2438 1159 1844 
L 1159 0 
L 581 0 
L 581 3500 
L 1159 3500 
L 1159 2956 
Q 1341 3275 1631 3429 
Q 1922 3584 2338 3584 
Q 2397 3584 2469 3576 
Q 2541 3569 2628 3553 
L 2631 2963 
z
" transform="scale(0.015625)"/>
       </defs>
       <use xlink:href="#DejaVuSans-32"/>
       <use xlink:href="#DejaVuSans-30" x="63.623047"/>
       <use xlink:href="#DejaVuSans-32" x="127.246094"/>
       <use xlink:href="#DejaVuSans-31" x="190.869141"/>
       <use xlink:href="#DejaVuSans-2d" x="254.492188"/>
       <use xlink:href="#DejaVuSans-4d" x="290.576172"/>
       <use xlink:href="#DejaVuSans-61" x="376.855469"/>
       <use xlink:href="#DejaVuSans-72" x="438.134766"/>
       <use xlink:href="#DejaVuSans-2d" x="472.873047"/>
       <use xlink:href="#DejaVuSans-30" x="508.957031"/>
       <use xlink:href="#DejaVuSans-31" x="572.580078"/>
      </g>
     </g>
    </g>
    <g id="xtick_6">
     <g id="line2d_6">
      <g>
       <use xlink:href="#m0e967d5683" x="214.62429" y="194.725312" style="stroke: #000000; stroke-width: 0.8"/>
      </g>
     </g>
     <g id="text_6">
      <!-- 2021-Apr-01 -->
      <g transform="translate(160.039719 239.219815)rotate(-30)scale(0.1 -0.1)">
       <defs>
        <path id="DejaVuSans-41" d="M 2188 4044 
L 1331 1722 
L 3047 1722 
L 2188 4044 
z
M 1831 4666 
L 2547 4666 
L 4325 0 
L 3669 0 
L 3244 1197 
L 1141 1197 
L 716 0 
L 50 0 
L 1831 4666 
z
" transform="scale(0.015625)"/>
        <path id="DejaVuSans-70" d="M 1159 525 
L 1159 -1331 
L 581 -1331 
L 581 3500 
L 1159 3500 
L 1159 2969 
Q 1341 3281 1617 3432 
Q 1894 3584 2278 3584 
Q 2916 3584 3314 3078 
Q 3713 2572 3713 1747 
Q 3713 922 3314 415 
Q 2916 -91 2278 -91 
Q 1894 -91 1617 61 
Q 1341 213 1159 525 
z
M 3116 1747 
Q 3116 2381 2855 2742 
Q 2594 3103 2138 3103 
Q 1681 3103 1420 2742 
Q 1159 2381 1159 1747 
Q 1159 1113 1420 752 
Q 1681 391 2138 391 
Q 2594 391 2855 752 
Q 3116 1113 3116 1747 
z
" transform="scale(0.015625)"/>
       </defs>
       <use xlink:href="#DejaVuSans-32"/>
       <use xlink:href="#DejaVuSans-30" x="63.623047"/>
       <use xlink:href="#DejaVuSans-32" x="127.246094"/>
       <use xlink:href="#DejaVuSans-31" x="190.869141"/>
       <use xlink:href="#DejaVuSans-2d" x="254.492188"/>
       <use xlink:href="#DejaVuSans-41" x="288.326172"/>
       <use xlink:href="#DejaVuSans-70" x="356.734375"/>
       <use xlink:href="#DejaVuSans-72" x="420.210938"/>
       <use xlink:href="#DejaVuSans-2d" x="454.949219"/>
       <use xlink:href="#DejaVuSans-30" x="491.033203"/>
       <use xlink:href="#DejaVuSans-31" x="554.65625"/>
      </g>
     </g>
    </g>
    <g id="xtick_7">
     <g id="line2d_7">
      <g>
       <use xlink:href="#m0e967d5683" x="243.749996" y="194.725312" style="stroke: #000000; stroke-width: 0.8"/>
      </g>
     </g>
     <g id="text_7">
      <!-- 2021-May-01 -->
      <g transform="translate(185.647198 241.251065)rotate(-30)scale(0.1 -0.1)">
       <defs>
        <path id="DejaVuSans-79" d="M 2059 -325 
Q 1816 -950 1584 -1140 
Q 1353 -1331 966 -1331 
L 506 -1331 
L 506 -850 
L 844 -850 
Q 1081 -850 1212 -737 
Q 1344 -625 1503 -206 
L 1606 56 
L 191 3500 
L 800 3500 
L 1894 763 
L 2988 3500 
L 3597 3500 
L 2059 -325 
z
" transform="scale(0.015625)"/>
       </defs>
       <use xlink:href="#DejaVuSans-32"/>
       <use xlink:href="#DejaVuSans-30" x="63.623047"/>
       <use xlink:href="#DejaVuSans-32" x="127.246094"/>
       <use xlink:href="#DejaVuSans-31" x="190.869141"/>
       <use xlink:href="#DejaVuSans-2d" x="254.492188"/>
       <use xlink:href="#DejaVuSans-4d" x="290.576172"/>
       <use xlink:href="#DejaVuSans-61" x="376.855469"/>
       <use xlink:href="#DejaVuSans-79" x="438.134766"/>
       <use xlink:href="#DejaVuSans-2d" x="495.564453"/>
       <use xlink:href="#DejaVuSans-30" x="531.648438"/>
       <use xlink:href="#DejaVuSans-31" x="595.271484"/>
      </g>
     </g>
    </g>
    <g id="xtick_8">
     <g id="line2d_8">
      <g>
       <use xlink:href="#m0e967d5683" x="273.84656" y="194.725312" style="stroke: #000000; stroke-width: 0.8"/>
      </g>
     </g>
     <g id="text_8">
      <!-- 2021-Jun-01 -->
      <g transform="translate(219.478496 239.094815)rotate(-30)scale(0.1 -0.1)">
       <defs>
        <path id="DejaVuSans-75" d="M 544 1381 
L 544 3500 
L 1119 3500 
L 1119 1403 
Q 1119 906 1312 657 
Q 1506 409 1894 409 
Q 2359 409 2629 706 
Q 2900 1003 2900 1516 
L 2900 3500 
L 3475 3500 
L 3475 0 
L 2900 0 
L 2900 538 
Q 2691 219 2414 64 
Q 2138 -91 1772 -91 
Q 1169 -91 856 284 
Q 544 659 544 1381 
z
M 1991 3584 
L 1991 3584 
z
" transform="scale(0.015625)"/>
       </defs>
       <use xlink:href="#DejaVuSans-32"/>
       <use xlink:href="#DejaVuSans-30" x="63.623047"/>
       <use xlink:href="#DejaVuSans-32" x="127.246094"/>
       <use xlink:href="#DejaVuSans-31" x="190.869141"/>
       <use xlink:href="#DejaVuSans-2d" x="254.492188"/>
       <use xlink:href="#DejaVuSans-4a" x="296.201172"/>
       <use xlink:href="#DejaVuSans-75" x="325.693359"/>
       <use xlink:href="#DejaVuSans-6e" x="389.072266"/>
       <use xlink:href="#DejaVuSans-2d" x="452.451172"/>
       <use xlink:href="#DejaVuSans-30" x="488.535156"/>
       <use xlink:href="#DejaVuSans-31" x="552.158203"/>
      </g>
     </g>
    </g>
    <g id="xtick_9">
     <g id="line2d_9">
      <g>
       <use xlink:href="#m0e967d5683" x="302.972267" y="194.725312" style="stroke: #000000; stroke-width: 0.8"/>
      </g>
     </g>
     <g id="text_9">
      <!-- 2021-Jul-01 -->
      <g transform="translate(251.686712 237.315127)rotate(-30)scale(0.1 -0.1)">
       <defs>
        <path id="DejaVuSans-6c" d="M 603 4863 
L 1178 4863 
L 1178 0 
L 603 0 
L 603 4863 
z
" transform="scale(0.015625)"/>
       </defs>
       <use xlink:href="#DejaVuSans-32"/>
       <use xlink:href="#DejaVuSans-30" x="63.623047"/>
       <use xlink:href="#DejaVuSans-32" x="127.246094"/>
       <use xlink:href="#DejaVuSans-31" x="190.869141"/>
       <use xlink:href="#DejaVuSans-2d" x="254.492188"/>
       <use xlink:href="#DejaVuSans-4a" x="296.201172"/>
       <use xlink:href="#DejaVuSans-75" x="325.693359"/>
       <use xlink:href="#DejaVuSans-6c" x="389.072266"/>
       <use xlink:href="#DejaVuSans-2d" x="416.855469"/>
       <use xlink:href="#DejaVuSans-30" x="452.939453"/>
       <use xlink:href="#DejaVuSans-31" x="516.5625"/>
      </g>
     </g>
    </g>
    <g id="xtick_10">
     <g id="line2d_10">
      <g>
       <use xlink:href="#m0e967d5683" x="333.068831" y="194.725312" style="stroke: #000000; stroke-width: 0.8"/>
      </g>
     </g>
     <g id="text_10">
      <!-- 2021-Aug-01 -->
      <g transform="translate(276.003909 240.651846)rotate(-30)scale(0.1 -0.1)">
       <defs>
        <path id="DejaVuSans-67" d="M 2906 1791 
Q 2906 2416 2648 2759 
Q 2391 3103 1925 3103 
Q 1463 3103 1205 2759 
Q 947 2416 947 1791 
Q 947 1169 1205 825 
Q 1463 481 1925 481 
Q 2391 481 2648 825 
Q 2906 1169 2906 1791 
z
M 3481 434 
Q 3481 -459 3084 -895 
Q 2688 -1331 1869 -1331 
Q 1566 -1331 1297 -1286 
Q 1028 -1241 775 -1147 
L 775 -588 
Q 1028 -725 1275 -790 
Q 1522 -856 1778 -856 
Q 2344 -856 2625 -561 
Q 2906 -266 2906 331 
L 2906 616 
Q 2728 306 2450 153 
Q 2172 0 1784 0 
Q 1141 0 747 490 
Q 353 981 353 1791 
Q 353 2603 747 3093 
Q 1141 3584 1784 3584 
Q 2172 3584 2450 3431 
Q 2728 3278 2906 2969 
L 2906 3500 
L 3481 3500 
L 3481 434 
z
" transform="scale(0.015625)"/>
       </defs>
       <use xlink:href="#DejaVuSans-32"/>
       <use xlink:href="#DejaVuSans-30" x="63.623047"/>
       <use xlink:href="#DejaVuSans-32" x="127.246094"/>
       <use xlink:href="#DejaVuSans-31" x="190.869141"/>
       <use xlink:href="#DejaVuSans-2d" x="254.492188"/>
       <use xlink:href="#DejaVuSans-41" x="288.326172"/>
       <use xlink:href="#DejaVuSans-75" x="356.734375"/>
       <use xlink:href="#DejaVuSans-67" x="420.113281"/>
       <use xlink:href="#DejaVuSans-2d" x="483.589844"/>
       <use xlink:href="#DejaVuSans-30" x="519.673828"/>
       <use xlink:href="#DejaVuSans-31" x="583.296875"/>
      </g>
     </g>
    </g>
    <g id="xtick_11">
     <g id="line2d_11">
      <g>
       <use xlink:href="#m0e967d5683" x="363.165394" y="194.725312" style="stroke: #000000; stroke-width: 0.8"/>
      </g>
     </g>
     <g id="text_11">
      <!-- 2021-Sep-01 -->
      <g transform="translate(306.491537 240.426065)rotate(-30)scale(0.1 -0.1)">
       <defs>
        <path id="DejaVuSans-53" d="M 3425 4513 
L 3425 3897 
Q 3066 4069 2747 4153 
Q 2428 4238 2131 4238 
Q 1616 4238 1336 4038 
Q 1056 3838 1056 3469 
Q 1056 3159 1242 3001 
Q 1428 2844 1947 2747 
L 2328 2669 
Q 3034 2534 3370 2195 
Q 3706 1856 3706 1288 
Q 3706 609 3251 259 
Q 2797 -91 1919 -91 
Q 1588 -91 1214 -16 
Q 841 59 441 206 
L 441 856 
Q 825 641 1194 531 
Q 1563 422 1919 422 
Q 2459 422 2753 634 
Q 3047 847 3047 1241 
Q 3047 1584 2836 1778 
Q 2625 1972 2144 2069 
L 1759 2144 
Q 1053 2284 737 2584 
Q 422 2884 422 3419 
Q 422 4038 858 4394 
Q 1294 4750 2059 4750 
Q 2388 4750 2728 4690 
Q 3069 4631 3425 4513 
z
" transform="scale(0.015625)"/>
       </defs>
       <use xlink:href="#DejaVuSans-32"/>
       <use xlink:href="#DejaVuSans-30" x="63.623047"/>
       <use xlink:href="#DejaVuSans-32" x="127.246094"/>
       <use xlink:href="#DejaVuSans-31" x="190.869141"/>
       <use xlink:href="#DejaVuSans-2d" x="254.492188"/>
       <use xlink:href="#DejaVuSans-53" x="290.576172"/>
       <use xlink:href="#DejaVuSans-65" x="354.052734"/>
       <use xlink:href="#DejaVuSans-70" x="415.576172"/>
       <use xlink:href="#DejaVuSans-2d" x="479.052734"/>
       <use xlink:href="#DejaVuSans-30" x="515.136719"/>
       <use xlink:href="#DejaVuSans-31" x="578.759766"/>
      </g>
     </g>
    </g>
    <g id="xtick_12">
     <g id="line2d_12">
      <g>
       <use xlink:href="#m0e967d5683" x="392.291101" y="194.725312" style="stroke: #000000; stroke-width: 0.8"/>
      </g>
     </g>
     <g id="text_12">
      <!-- 2021-Oct-01 -->
      <g transform="translate(336.729546 239.783877)rotate(-30)scale(0.1 -0.1)">
       <defs>
        <path id="DejaVuSans-4f" d="M 2522 4238 
Q 1834 4238 1429 3725 
Q 1025 3213 1025 2328 
Q 1025 1447 1429 934 
Q 1834 422 2522 422 
Q 3209 422 3611 934 
Q 4013 1447 4013 2328 
Q 4013 3213 3611 3725 
Q 3209 4238 2522 4238 
z
M 2522 4750 
Q 3503 4750 4090 4092 
Q 4678 3434 4678 2328 
Q 4678 1225 4090 567 
Q 3503 -91 2522 -91 
Q 1538 -91 948 565 
Q 359 1222 359 2328 
Q 359 3434 948 4092 
Q 1538 4750 2522 4750 
z
" transform="scale(0.015625)"/>
        <path id="DejaVuSans-74" d="M 1172 4494 
L 1172 3500 
L 2356 3500 
L 2356 3053 
L 1172 3053 
L 1172 1153 
Q 1172 725 1289 603 
Q 1406 481 1766 481 
L 2356 481 
L 2356 0 
L 1766 0 
Q 1100 0 847 248 
Q 594 497 594 1153 
L 594 3053 
L 172 3053 
L 172 3500 
L 594 3500 
L 594 4494 
L 1172 4494 
z
" transform="scale(0.015625)"/>
       </defs>
       <use xlink:href="#DejaVuSans-32"/>
       <use xlink:href="#DejaVuSans-30" x="63.623047"/>
       <use xlink:href="#DejaVuSans-32" x="127.246094"/>
       <use xlink:href="#DejaVuSans-31" x="190.869141"/>
       <use xlink:href="#DejaVuSans-2d" x="254.492188"/>
       <use xlink:href="#DejaVuSans-4f" x="293.326172"/>
       <use xlink:href="#DejaVuSans-63" x="372.037109"/>
       <use xlink:href="#DejaVuSans-74" x="427.017578"/>
       <use xlink:href="#DejaVuSans-2d" x="466.226562"/>
       <use xlink:href="#DejaVuSans-30" x="502.310547"/>
       <use xlink:href="#DejaVuSans-31" x="565.933594"/>
      </g>
     </g>
    </g>
    <g id="xtick_13">
     <g id="line2d_13">
      <g>
       <use xlink:href="#m0e967d5683" x="422.387665" y="194.725312" style="stroke: #000000; stroke-width: 0.8"/>
      </g>
     </g>
     <g id="text_13">
      <!-- 2021-Nov-01 -->
      <g transform="translate(365.361985 240.62919)rotate(-30)scale(0.1 -0.1)">
       <use xlink:href="#DejaVuSans-32"/>
       <use xlink:href="#DejaVuSans-30" x="63.623047"/>
       <use xlink:href="#DejaVuSans-32" x="127.246094"/>
       <use xlink:href="#DejaVuSans-31" x="190.869141"/>
       <use xlink:href="#DejaVuSans-2d" x="254.492188"/>
       <use xlink:href="#DejaVuSans-4e" x="290.576172"/>
       <use xlink:href="#DejaVuSans-6f" x="365.380859"/>
       <use xlink:href="#DejaVuSans-76" x="426.5625"/>
       <use xlink:href="#DejaVuSans-2d" x="483.117188"/>
       <use xlink:href="#DejaVuSans-30" x="519.201172"/>
       <use xlink:href="#DejaVuSans-31" x="582.824219"/>
      </g>
     </g>
    </g>
    <g id="xtick_14">
     <g id="line2d_14">
      <g>
       <use xlink:href="#m0e967d5683" x="451.513372" y="194.725312" style="stroke: #000000; stroke-width: 0.8"/>
      </g>
     </g>
     <g id="text_14">
      <!-- 2021-Dec-01 -->
      <g transform="translate(394.405149 240.676846)rotate(-30)scale(0.1 -0.1)">
       <use xlink:href="#DejaVuSans-32"/>
       <use xlink:href="#DejaVuSans-30" x="63.623047"/>
       <use xlink:href="#DejaVuSans-32" x="127.246094"/>
       <use xlink:href="#DejaVuSans-31" x="190.869141"/>
       <use xlink:href="#DejaVuSans-2d" x="254.492188"/>
       <use xlink:href="#DejaVuSans-44" x="290.576172"/>
       <use xlink:href="#DejaVuSans-65" x="367.578125"/>
       <use xlink:href="#DejaVuSans-63" x="429.101562"/>
       <use xlink:href="#DejaVuSans-2d" x="484.082031"/>
       <use xlink:href="#DejaVuSans-30" x="520.166016"/>
       <use xlink:href="#DejaVuSans-31" x="583.789062"/>
      </g>
     </g>
    </g>
    <g id="xtick_15">
     <g id="line2d_15">
      <g>
       <use xlink:href="#m0e967d5683" x="481.609935" y="194.725312" style="stroke: #000000; stroke-width: 0.8"/>
      </g>
     </g>
     <g id="text_15">
      <!-- 2022-Jan-01 -->
      <g transform="translate(427.423195 238.990127)rotate(-30)scale(0.1 -0.1)">
       <use xlink:href="#DejaVuSans-32"/>
       <use xlink:href="#DejaVuSans-30" x="63.623047"/>
       <use xlink:href="#DejaVuSans-32" x="127.246094"/>
       <use xlink:href="#DejaVuSans-32" x="190.869141"/>
       <use xlink:href="#DejaVuSans-2d" x="254.492188"/>
       <use xlink:href="#DejaVuSans-4a" x="296.201172"/>
       <use xlink:href="#DejaVuSans-61" x="325.693359"/>
       <use xlink:href="#DejaVuSans-6e" x="386.972656"/>
       <use xlink:href="#DejaVuSans-2d" x="450.351562"/>
       <use xlink:href="#DejaVuSans-30" x="486.435547"/>
       <use xlink:href="#DejaVuSans-31" x="550.058594"/>
      </g>
     </g>
    </g>
   </g>
   <g id="matplotlib.axis_2">
    <g id="ytick_1">
     <g id="line2d_16">
      <path d="M 53.559131 187.041361 
L 499.959131 187.041361 
" clip-path="url(#p62e301cd31)" style="fill: none; stroke: #b0b0b0; stroke-width: 0.8; stroke-linecap: square"/>
     </g>
     <g id="line2d_17">
      <defs>
       <path id="m408e4d20ad" d="M 0 0 
L -3.5 0 
" style="stroke: #000000; stroke-width: 0.8"/>
      </defs>
      <g>
       <use xlink:href="#m408e4d20ad" x="53.559131" y="187.041361" style="stroke: #000000; stroke-width: 0.8"/>
      </g>
     </g>
     <g id="text_16">
      <!-- 0 -->
      <g transform="translate(40.196631 190.84058)scale(0.1 -0.1)">
       <use xlink:href="#DejaVuSans-30"/>
      </g>
     </g>
    </g>
    <g id="ytick_2">
     <g id="line2d_18">
      <path d="M 53.559131 151.233768 
L 499.959131 151.233768 
" clip-path="url(#p62e301cd31)" style="fill: none; stroke: #b0b0b0; stroke-width: 0.8; stroke-linecap: square"/>
     </g>
     <g id="line2d_19">
      <g>
       <use xlink:href="#m408e4d20ad" x="53.559131" y="151.233768" style="stroke: #000000; stroke-width: 0.8"/>
      </g>
     </g>
     <g id="text_17">
      <!-- 20 -->
      <g transform="translate(33.834131 155.032986)scale(0.1 -0.1)">
       <use xlink:href="#DejaVuSans-32"/>
       <use xlink:href="#DejaVuSans-30" x="63.623047"/>
      </g>
     </g>
    </g>
    <g id="ytick_3">
     <g id="line2d_20">
      <path d="M 53.559131 115.426174 
L 499.959131 115.426174 
" clip-path="url(#p62e301cd31)" style="fill: none; stroke: #b0b0b0; stroke-width: 0.8; stroke-linecap: square"/>
     </g>
     <g id="line2d_21">
      <g>
       <use xlink:href="#m408e4d20ad" x="53.559131" y="115.426174" style="stroke: #000000; stroke-width: 0.8"/>
      </g>
     </g>
     <g id="text_18">
      <!-- 40 -->
      <g transform="translate(33.834131 119.225393)scale(0.1 -0.1)">
       <defs>
        <path id="DejaVuSans-34" d="M 2419 4116 
L 825 1625 
L 2419 1625 
L 2419 4116 
z
M 2253 4666 
L 3047 4666 
L 3047 1625 
L 3713 1625 
L 3713 1100 
L 3047 1100 
L 3047 0 
L 2419 0 
L 2419 1100 
L 313 1100 
L 313 1709 
L 2253 4666 
z
" transform="scale(0.015625)"/>
       </defs>
       <use xlink:href="#DejaVuSans-34"/>
       <use xlink:href="#DejaVuSans-30" x="63.623047"/>
      </g>
     </g>
    </g>
    <g id="ytick_4">
     <g id="line2d_22">
      <path d="M 53.559131 79.61858 
L 499.959131 79.61858 
" clip-path="url(#p62e301cd31)" style="fill: none; stroke: #b0b0b0; stroke-width: 0.8; stroke-linecap: square"/>
     </g>
     <g id="line2d_23">
      <g>
       <use xlink:href="#m408e4d20ad" x="53.559131" y="79.61858" style="stroke: #000000; stroke-width: 0.8"/>
      </g>
     </g>
     <g id="text_19">
      <!-- 60 -->
      <g transform="translate(33.834131 83.417799)scale(0.1 -0.1)">
       <defs>
        <path id="DejaVuSans-36" d="M 2113 2584 
Q 1688 2584 1439 2293 
Q 1191 2003 1191 1497 
Q 1191 994 1439 701 
Q 1688 409 2113 409 
Q 2538 409 2786 701 
Q 3034 994 3034 1497 
Q 3034 2003 2786 2293 
Q 2538 2584 2113 2584 
z
M 3366 4563 
L 3366 3988 
Q 3128 4100 2886 4159 
Q 2644 4219 2406 4219 
Q 1781 4219 1451 3797 
Q 1122 3375 1075 2522 
Q 1259 2794 1537 2939 
Q 1816 3084 2150 3084 
Q 2853 3084 3261 2657 
Q 3669 2231 3669 1497 
Q 3669 778 3244 343 
Q 2819 -91 2113 -91 
Q 1303 -91 875 529 
Q 447 1150 447 2328 
Q 447 3434 972 4092 
Q 1497 4750 2381 4750 
Q 2619 4750 2861 4703 
Q 3103 4656 3366 4563 
z
" transform="scale(0.015625)"/>
       </defs>
       <use xlink:href="#DejaVuSans-36"/>
       <use xlink:href="#DejaVuSans-30" x="63.623047"/>
      </g>
     </g>
    </g>
    <g id="ytick_5">
     <g id="line2d_24">
      <path d="M 53.559131 43.810986 
L 499.959131 43.810986 
" clip-path="url(#p62e301cd31)" style="fill: none; stroke: #b0b0b0; stroke-width: 0.8; stroke-linecap: square"/>
     </g>
     <g id="line2d_25">
      <g>
       <use xlink:href="#m408e4d20ad" x="53.559131" y="43.810986" style="stroke: #000000; stroke-width: 0.8"/>
      </g>
     </g>
     <g id="text_20">
      <!-- 80 -->
      <g transform="translate(33.834131 47.610205)scale(0.1 -0.1)">
       <defs>
        <path id="DejaVuSans-38" d="M 2034 2216 
Q 1584 2216 1326 1975 
Q 1069 1734 1069 1313 
Q 1069 891 1326 650 
Q 1584 409 2034 409 
Q 2484 409 2743 651 
Q 3003 894 3003 1313 
Q 3003 1734 2745 1975 
Q 2488 2216 2034 2216 
z
M 1403 2484 
Q 997 2584 770 2862 
Q 544 3141 544 3541 
Q 544 4100 942 4425 
Q 1341 4750 2034 4750 
Q 2731 4750 3128 4425 
Q 3525 4100 3525 3541 
Q 3525 3141 3298 2862 
Q 3072 2584 2669 2484 
Q 3125 2378 3379 2068 
Q 3634 1759 3634 1313 
Q 3634 634 3220 271 
Q 2806 -91 2034 -91 
Q 1263 -91 848 271 
Q 434 634 434 1313 
Q 434 1759 690 2068 
Q 947 2378 1403 2484 
z
M 1172 3481 
Q 1172 3119 1398 2916 
Q 1625 2713 2034 2713 
Q 2441 2713 2670 2916 
Q 2900 3119 2900 3481 
Q 2900 3844 2670 4047 
Q 2441 4250 2034 4250 
Q 1625 4250 1398 4047 
Q 1172 3844 1172 3481 
z
" transform="scale(0.015625)"/>
       </defs>
       <use xlink:href="#DejaVuSans-38"/>
       <use xlink:href="#DejaVuSans-30" x="63.623047"/>
      </g>
     </g>
    </g>
    <g id="text_21">
     <!-- Percentage Of directives present in CSPs -->
     <g transform="translate(27.754443 210.890625)rotate(-90)scale(0.1 -0.1)">
      <defs>
       <path id="DejaVuSans-50" d="M 1259 4147 
L 1259 2394 
L 2053 2394 
Q 2494 2394 2734 2622 
Q 2975 2850 2975 3272 
Q 2975 3691 2734 3919 
Q 2494 4147 2053 4147 
L 1259 4147 
z
M 628 4666 
L 2053 4666 
Q 2838 4666 3239 4311 
Q 3641 3956 3641 3272 
Q 3641 2581 3239 2228 
Q 2838 1875 2053 1875 
L 1259 1875 
L 1259 0 
L 628 0 
L 628 4666 
z
" transform="scale(0.015625)"/>
       <path id="DejaVuSans-20" transform="scale(0.015625)"/>
       <path id="DejaVuSans-66" d="M 2375 4863 
L 2375 4384 
L 1825 4384 
Q 1516 4384 1395 4259 
Q 1275 4134 1275 3809 
L 1275 3500 
L 2222 3500 
L 2222 3053 
L 1275 3053 
L 1275 0 
L 697 0 
L 697 3053 
L 147 3053 
L 147 3500 
L 697 3500 
L 697 3744 
Q 697 4328 969 4595 
Q 1241 4863 1831 4863 
L 2375 4863 
z
" transform="scale(0.015625)"/>
       <path id="DejaVuSans-64" d="M 2906 2969 
L 2906 4863 
L 3481 4863 
L 3481 0 
L 2906 0 
L 2906 525 
Q 2725 213 2448 61 
Q 2172 -91 1784 -91 
Q 1150 -91 751 415 
Q 353 922 353 1747 
Q 353 2572 751 3078 
Q 1150 3584 1784 3584 
Q 2172 3584 2448 3432 
Q 2725 3281 2906 2969 
z
M 947 1747 
Q 947 1113 1208 752 
Q 1469 391 1925 391 
Q 2381 391 2643 752 
Q 2906 1113 2906 1747 
Q 2906 2381 2643 2742 
Q 2381 3103 1925 3103 
Q 1469 3103 1208 2742 
Q 947 2381 947 1747 
z
" transform="scale(0.015625)"/>
       <path id="DejaVuSans-69" d="M 603 3500 
L 1178 3500 
L 1178 0 
L 603 0 
L 603 3500 
z
M 603 4863 
L 1178 4863 
L 1178 4134 
L 603 4134 
L 603 4863 
z
" transform="scale(0.015625)"/>
       <path id="DejaVuSans-73" d="M 2834 3397 
L 2834 2853 
Q 2591 2978 2328 3040 
Q 2066 3103 1784 3103 
Q 1356 3103 1142 2972 
Q 928 2841 928 2578 
Q 928 2378 1081 2264 
Q 1234 2150 1697 2047 
L 1894 2003 
Q 2506 1872 2764 1633 
Q 3022 1394 3022 966 
Q 3022 478 2636 193 
Q 2250 -91 1575 -91 
Q 1294 -91 989 -36 
Q 684 19 347 128 
L 347 722 
Q 666 556 975 473 
Q 1284 391 1588 391 
Q 1994 391 2212 530 
Q 2431 669 2431 922 
Q 2431 1156 2273 1281 
Q 2116 1406 1581 1522 
L 1381 1569 
Q 847 1681 609 1914 
Q 372 2147 372 2553 
Q 372 3047 722 3315 
Q 1072 3584 1716 3584 
Q 2034 3584 2315 3537 
Q 2597 3491 2834 3397 
z
" transform="scale(0.015625)"/>
       <path id="DejaVuSans-43" d="M 4122 4306 
L 4122 3641 
Q 3803 3938 3442 4084 
Q 3081 4231 2675 4231 
Q 1875 4231 1450 3742 
Q 1025 3253 1025 2328 
Q 1025 1406 1450 917 
Q 1875 428 2675 428 
Q 3081 428 3442 575 
Q 3803 722 4122 1019 
L 4122 359 
Q 3791 134 3420 21 
Q 3050 -91 2638 -91 
Q 1578 -91 968 557 
Q 359 1206 359 2328 
Q 359 3453 968 4101 
Q 1578 4750 2638 4750 
Q 3056 4750 3426 4639 
Q 3797 4528 4122 4306 
z
" transform="scale(0.015625)"/>
      </defs>
      <use xlink:href="#DejaVuSans-50"/>
      <use xlink:href="#DejaVuSans-65" x="56.677734"/>
      <use xlink:href="#DejaVuSans-72" x="118.201172"/>
      <use xlink:href="#DejaVuSans-63" x="157.064453"/>
      <use xlink:href="#DejaVuSans-65" x="212.044922"/>
      <use xlink:href="#DejaVuSans-6e" x="273.568359"/>
      <use xlink:href="#DejaVuSans-74" x="336.947266"/>
      <use xlink:href="#DejaVuSans-61" x="376.15625"/>
      <use xlink:href="#DejaVuSans-67" x="437.435547"/>
      <use xlink:href="#DejaVuSans-65" x="500.912109"/>
      <use xlink:href="#DejaVuSans-20" x="562.435547"/>
      <use xlink:href="#DejaVuSans-4f" x="594.222656"/>
      <use xlink:href="#DejaVuSans-66" x="672.933594"/>
      <use xlink:href="#DejaVuSans-20" x="708.138672"/>
      <use xlink:href="#DejaVuSans-64" x="739.925781"/>
      <use xlink:href="#DejaVuSans-69" x="803.402344"/>
      <use xlink:href="#DejaVuSans-72" x="831.185547"/>
      <use xlink:href="#DejaVuSans-65" x="870.048828"/>
      <use xlink:href="#DejaVuSans-63" x="931.572266"/>
      <use xlink:href="#DejaVuSans-74" x="986.552734"/>
      <use xlink:href="#DejaVuSans-69" x="1025.761719"/>
      <use xlink:href="#DejaVuSans-76" x="1053.544922"/>
      <use xlink:href="#DejaVuSans-65" x="1112.724609"/>
      <use xlink:href="#DejaVuSans-73" x="1174.248047"/>
      <use xlink:href="#DejaVuSans-20" x="1226.347656"/>
      <use xlink:href="#DejaVuSans-70" x="1258.134766"/>
      <use xlink:href="#DejaVuSans-72" x="1321.611328"/>
      <use xlink:href="#DejaVuSans-65" x="1360.474609"/>
      <use xlink:href="#DejaVuSans-73" x="1421.998047"/>
      <use xlink:href="#DejaVuSans-65" x="1474.097656"/>
      <use xlink:href="#DejaVuSans-6e" x="1535.621094"/>
      <use xlink:href="#DejaVuSans-74" x="1599"/>
      <use xlink:href="#DejaVuSans-20" x="1638.208984"/>
      <use xlink:href="#DejaVuSans-69" x="1669.996094"/>
      <use xlink:href="#DejaVuSans-6e" x="1697.779297"/>
      <use xlink:href="#DejaVuSans-20" x="1761.158203"/>
      <use xlink:href="#DejaVuSans-43" x="1792.945312"/>
      <use xlink:href="#DejaVuSans-53" x="1862.769531"/>
      <use xlink:href="#DejaVuSans-50" x="1926.246094"/>
      <use xlink:href="#DejaVuSans-73" x="1984.798828"/>
     </g>
    </g>
   </g>
   <g id="line2d_26">
    <path d="M 73.85004 38.469453 
L 74.820897 38.51408 
L 76.762611 38.34634 
L 77.733467 38.061774 
L 79.675181 38.021365 
L 80.646038 38.13136 
L 82.587752 38.015061 
L 83.558609 38.228437 
L 84.529466 38.103483 
L 88.412893 38.282624 
L 91.325464 38.161868 
L 92.296321 38.359101 
L 94.238035 38.052574 
L 97.150605 38.290547 
L 99.092319 37.977892 
L 100.063176 38.100899 
L 102.975747 38.00435 
L 104.917461 38.347102 
L 106.859174 38.141082 
L 108.800888 38.358339 
L 109.771745 38.11405 
L 110.742602 38.301817 
L 111.713459 38.276286 
L 112.684316 38.0923 
L 113.655173 38.045188 
L 116.567743 38.11748 
L 118.509457 37.836455 
L 119.480314 38.00146 
L 120.451171 37.612454 
L 121.422028 37.922047 
L 122.392885 37.919049 
L 123.363742 37.734114 
L 124.334598 37.95185 
L 125.305455 37.727461 
L 127.247169 37.997528 
L 131.130597 37.959007 
L 133.07231 38.085546 
L 134.043167 38.039497 
L 135.014024 37.833229 
L 135.984881 37.947985 
L 136.955738 37.924753 
L 137.926595 38.127055 
L 140.839166 37.80094 
L 144.722593 37.693888 
L 145.69345 37.797999 
L 146.664307 37.67221 
L 160.256303 37.732314 
L 161.22716 37.928121 
L 163.168874 37.468208 
L 164.139731 37.537184 
L 165.110588 37.761129 
L 173.8483 38.036534 
L 174.819157 37.655854 
L 175.790014 37.992626 
L 176.760871 37.780901 
L 177.731728 37.780784 
L 179.673441 37.918028 
L 181.615155 37.815262 
L 182.586012 37.491999 
L 183.556869 37.790666 
L 184.527726 37.756652 
L 185.498583 37.932515 
L 186.46944 37.806306 
L 187.440297 37.968444 
L 190.352867 37.767111 
L 191.323724 37.454738 
L 192.294581 37.718937 
L 196.178009 37.269734 
L 197.148865 37.444152 
L 198.119722 37.494544 
L 211.711719 37.597316 
L 213.653433 37.406605 
L 214.62429 37.711447 
L 215.595146 37.580689 
L 216.566003 37.735203 
L 219.478574 37.414399 
L 220.449431 37.4994 
L 221.420288 37.318229 
L 226.274572 37.341983 
L 227.245429 37.112864 
L 228.216286 37.315913 
L 230.158 37.137046 
L 231.128857 37.292337 
L 234.041427 36.993619 
L 236.953998 37.099636 
L 237.924855 37.019418 
L 239.866569 37.072351 
L 240.837426 36.927412 
L 241.808283 37.063341 
L 246.662567 37.170318 
L 248.604281 36.983936 
L 249.575138 37.000252 
L 250.545995 36.816217 
L 254.429422 37.142094 
L 255.400279 36.987476 
L 258.31285 37.004144 
L 259.283707 37.176138 
L 260.254564 36.975172 
L 261.22542 36.929623 
L 262.196277 36.763185 
L 264.137991 36.753172 
L 266.079705 36.617893 
L 267.050562 36.91605 
L 268.992276 36.616841 
L 269.963133 36.893092 
L 270.933989 36.71381 
L 274.817417 36.907184 
L 275.788274 36.701912 
L 276.759131 36.78369 
L 277.729988 36.703522 
L 278.700845 36.761538 
L 279.671701 36.513339 
L 280.642558 36.737485 
L 281.613415 36.374661 
L 283.555129 36.573956 
L 284.525986 36.689996 
L 285.496843 36.551661 
L 286.4677 36.695679 
L 288.409414 36.303248 
L 289.38027 36.502417 
L 291.321984 36.484922 
L 292.292841 36.531334 
L 293.263698 36.393766 
L 294.234555 36.646332 
L 296.176269 36.446636 
L 301.030553 36.481078 
L 305.884838 36.13025 
L 333.068831 36.016752 
L 334.039688 36.186694 
L 335.010544 35.940525 
L 335.981401 36.076906 
L 337.923115 36.006003 
L 338.893972 35.908703 
L 341.806543 36.062918 
L 342.7774 35.794139 
L 343.748257 36.13878 
L 345.68997 35.808024 
L 346.660827 35.896126 
L 347.631684 35.708451 
L 350.544255 36.08749 
L 368.019679 36.032166 
L 368.990536 35.901632 
L 370.93225 36.003425 
L 371.903106 36.236025 
L 373.84482 36.05975 
L 374.815677 35.874624 
L 375.786534 35.884932 
L 376.757391 36.132562 
L 378.699105 35.915675 
L 380.640818 36.013105 
L 381.611675 36.010857 
L 382.582532 37.119899 
L 383.553389 37.434096 
L 384.524246 37.27468 
L 392.291101 37.14321 
L 394.232815 37.049521 
L 398.116243 37.417471 
L 402.970527 37.158818 
L 404.912241 37.370732 
L 405.883098 37.211795 
L 409.766525 37.396449 
L 410.737382 37.332385 
L 411.708239 37.061119 
L 412.679096 37.17219 
L 413.649953 37.113579 
L 414.62081 37.435045 
L 415.591667 37.257152 
L 416.562524 37.469514 
L 417.53338 37.256172 
L 418.504237 37.345574 
L 420.445951 37.158658 
L 421.416808 37.08494 
L 422.387665 37.126902 
L 423.358522 37.050972 
L 425.300236 37.485449 
L 426.271093 37.200563 
L 430.15452 37.127118 
L 431.125377 37.024881 
L 435.979661 37.076555 
L 436.950518 36.934618 
L 437.921375 36.954384 
L 438.892232 36.749244 
L 440.833946 36.782829 
L 442.77566 36.722703 
L 444.717374 36.963064 
L 445.68823 36.852167 
L 447.629944 36.889923 
L 450.542515 36.619079 
L 451.513372 36.774978 
L 453.455086 36.631997 
L 454.425942 36.418758 
L 455.396799 36.699189 
L 456.367656 36.535709 
L 457.338513 36.725778 
L 458.30937 36.759215 
L 459.280227 37.218025 
L 460.251084 37.389882 
L 461.221941 37.674937 
L 463.163655 37.49631 
L 464.134511 37.973758 
L 465.105368 38.284077 
L 467.047082 38.35123 
L 469.959653 38.279097 
L 470.93051 38.449463 
L 471.901367 38.178916 
L 472.872223 38.298341 
L 473.84308 38.214592 
L 474.813937 38.349031 
L 475.784794 38.055267 
L 476.755651 38.295728 
L 477.726508 38.178038 
L 479.668222 38.233285 
L 479.668222 38.233285 
" clip-path="url(#p62e301cd31)" style="fill: none; stroke: #1f77b4; stroke-width: 1.5; stroke-linecap: square"/>
   </g>
   <g id="line2d_27">
    <path d="M 73.85004 32.863362 
L 74.820897 32.894242 
L 75.791754 32.762625 
L 76.762611 32.869199 
L 77.733467 32.729172 
L 78.704324 32.772958 
L 79.675181 33.062948 
L 80.646038 32.962447 
L 81.616895 33.006971 
L 82.587752 32.916792 
L 83.558609 33.00512 
L 85.500323 32.727976 
L 88.412893 33.069117 
L 94.238035 32.659131 
L 95.208892 32.818926 
L 96.179748 32.811693 
L 97.150605 32.940969 
L 98.121462 32.731269 
L 100.063176 32.555564 
L 102.975747 32.641275 
L 103.946604 32.843951 
L 104.917461 32.923542 
L 105.888317 32.746842 
L 107.830031 32.791102 
L 109.771745 32.694132 
L 110.742602 32.836849 
L 111.713459 32.63761 
L 113.655173 32.776442 
L 115.596886 32.75656 
L 117.5386 32.953432 
L 122.392885 32.724946 
L 123.363742 32.960561 
L 124.334598 32.670319 
L 125.305455 32.773449 
L 127.247169 32.692845 
L 129.188883 32.852149 
L 130.15974 33.262521 
L 134.043167 32.853407 
L 136.955738 32.90518 
L 140.839166 33.058212 
L 143.751736 32.971868 
L 144.722593 33.179999 
L 145.69345 33.22164 
L 146.664307 33.107777 
L 148.606021 33.431527 
L 162.198017 32.768196 
L 163.168874 32.535355 
L 165.110588 32.769997 
L 166.081445 32.462235 
L 167.052302 32.337001 
L 168.023159 32.683332 
L 168.994016 32.327666 
L 169.964872 32.284194 
L 170.935729 32.569111 
L 171.906586 32.321616 
L 173.8483 32.419363 
L 176.760871 32.019317 
L 178.702584 32.200238 
L 179.673441 32.257489 
L 181.615155 31.793598 
L 182.586012 32.022934 
L 183.556869 32.114258 
L 185.498583 32.009621 
L 186.46944 31.742828 
L 189.38201 31.960335 
L 190.352867 32.080473 
L 191.323724 31.793818 
L 192.294581 31.924769 
L 194.236295 31.790513 
L 195.207152 31.843769 
L 196.178009 31.722637 
L 210.740862 31.611054 
L 211.711719 31.471409 
L 212.682576 31.67449 
L 215.595146 31.423854 
L 217.53686 31.664414 
L 220.449431 31.628157 
L 221.420288 31.437864 
L 229.187143 31.55104 
L 230.158 31.465925 
L 231.128857 31.583328 
L 232.099714 31.518672 
L 233.070571 31.774704 
L 234.041427 31.568749 
L 236.953998 31.335286 
L 237.924855 31.614304 
L 238.895712 31.319566 
L 241.808283 31.719179 
L 245.69171 31.712082 
L 246.662567 31.850352 
L 252.487708 31.705025 
L 253.458565 31.854994 
L 256.371136 31.420528 
L 258.31285 31.320663 
L 260.254564 31.353287 
L 263.167134 31.359042 
L 264.137991 31.45238 
L 265.108848 31.355455 
L 266.079705 31.454127 
L 267.050562 31.370481 
L 268.021419 31.454706 
L 268.992276 31.820744 
L 269.963133 31.877293 
L 271.904846 31.842599 
L 272.875703 32.001857 
L 274.817417 32.054722 
L 275.788274 31.781241 
L 276.759131 31.750364 
L 277.729988 31.845092 
L 278.700845 31.721616 
L 280.642558 31.967208 
L 281.613415 31.746836 
L 282.584272 31.693057 
L 285.496843 31.851834 
L 288.409414 32.014913 
L 292.292841 31.78715 
L 294.234555 32.162544 
L 296.176269 32.296388 
L 299.088839 32.174607 
L 305.884838 32.243797 
L 336.952258 32.414945 
L 337.923115 32.133302 
L 338.893972 32.318111 
L 340.835686 32.170228 
L 345.68997 32.09577 
L 347.631684 32.051264 
L 349.573398 32.021404 
L 350.544255 32.069145 
L 368.019679 31.697669 
L 368.990536 31.402386 
L 371.903106 31.451078 
L 372.873963 31.70897 
L 373.84482 31.525681 
L 375.786534 31.529798 
L 376.757391 31.478095 
L 380.640818 31.773565 
L 382.582532 31.367962 
L 383.553389 31.413855 
L 384.524246 31.24991 
L 385.495103 31.198882 
L 388.407674 31.34815 
L 389.378531 31.617786 
L 390.349387 31.423234 
L 392.291101 31.450518 
L 393.261958 31.653098 
L 396.174529 31.735876 
L 397.145386 31.866724 
L 398.116243 31.738377 
L 399.087099 31.778498 
L 401.99967 31.528669 
L 402.970527 31.786983 
L 403.941384 31.514836 
L 404.912241 31.786214 
L 405.883098 31.668696 
L 406.853955 31.677606 
L 407.824812 31.540652 
L 408.795668 31.818026 
L 410.737382 31.577001 
L 412.679096 31.727164 
L 413.649953 31.676925 
L 414.62081 31.892542 
L 419.475094 31.705625 
L 420.445951 31.615051 
L 422.387665 31.84784 
L 423.358522 31.670273 
L 424.329379 31.681553 
L 425.300236 31.578174 
L 426.271093 31.689614 
L 427.241949 31.517127 
L 428.212806 31.714156 
L 430.15452 31.777863 
L 431.125377 31.84537 
L 434.037948 31.793719 
L 435.008805 32.057082 
L 435.979661 31.697617 
L 436.950518 31.658529 
L 437.921375 31.783129 
L 438.892232 31.520301 
L 439.863089 31.784578 
L 440.833946 31.581726 
L 443.746517 31.660503 
L 444.717374 31.483126 
L 446.659087 31.530221 
L 448.600801 31.480724 
L 449.571658 31.643642 
L 450.542515 31.554356 
L 452.484229 31.613521 
L 453.455086 31.311285 
L 456.367656 31.35042 
L 457.338513 31.240968 
L 459.280227 31.527204 
L 460.251084 31.154403 
L 461.221941 31.465528 
L 462.192798 31.620834 
L 463.163655 31.660533 
L 464.134511 32.07902 
L 465.105368 32.144515 
L 466.076225 32.416478 
L 467.047082 32.421789 
L 469.959653 32.317673 
L 470.93051 32.497991 
L 472.872223 32.511229 
L 475.784794 32.533413 
L 476.755651 32.785668 
L 477.726508 32.487664 
L 479.668222 32.457867 
L 479.668222 32.457867 
" clip-path="url(#p62e301cd31)" style="fill: none; stroke: #ff7f0e; stroke-width: 1.5; stroke-linecap: square"/>
   </g>
   <g id="line2d_28">
    <path d="M 73.85004 46.763108 
L 75.791754 46.850858 
L 76.762611 46.843199 
L 77.733467 46.414796 
L 79.675181 46.580294 
L 80.646038 46.471638 
L 81.616895 46.568583 
L 82.587752 46.39521 
L 84.529466 46.265871 
L 85.500323 46.033329 
L 87.442036 46.207719 
L 88.412893 46.399339 
L 93.267178 45.999497 
L 94.238035 46.102186 
L 96.179748 46.068501 
L 97.150605 46.223382 
L 98.121462 46.143344 
L 99.092319 45.845693 
L 100.063176 45.816147 
L 102.00489 45.995161 
L 102.975747 46.210257 
L 107.830031 46.450456 
L 109.771745 46.163632 
L 110.742602 46.539452 
L 111.713459 46.374385 
L 112.684316 46.506825 
L 113.655173 46.395655 
L 117.5386 46.674956 
L 118.509457 46.48745 
L 119.480314 46.634567 
L 122.392885 46.562672 
L 123.363742 46.726617 
L 124.334598 46.517029 
L 125.305455 46.505969 
L 127.247169 46.634892 
L 129.188883 46.496159 
L 130.15974 46.904832 
L 131.130597 46.645539 
L 133.07231 46.736623 
L 134.043167 46.427605 
L 135.984881 46.545742 
L 136.955738 46.140382 
L 137.926595 46.568731 
L 140.839166 46.450587 
L 143.751736 46.70064 
L 144.722593 46.42982 
L 145.69345 46.410049 
L 146.664307 46.278875 
L 148.606021 46.714305 
L 158.31459 46.420679 
L 160.256303 47.167355 
L 161.22716 46.7562 
L 162.198017 46.808532 
L 163.168874 46.57792 
L 164.139731 46.713282 
L 165.110588 46.665763 
L 166.081445 47.077194 
L 167.052302 47.06176 
L 168.023159 46.880424 
L 174.819157 46.753769 
L 176.760871 46.376663 
L 178.702584 46.680975 
L 180.644298 46.62125 
L 181.615155 46.375289 
L 183.556869 46.647341 
L 186.46944 46.40542 
L 188.411153 46.720217 
L 189.38201 46.623006 
L 191.323724 46.737919 
L 192.294581 46.637233 
L 194.236295 46.748116 
L 195.207152 46.513378 
L 196.178009 46.652973 
L 197.148865 46.585904 
L 198.119722 46.687996 
L 211.711719 46.443898 
L 212.682576 46.59872 
L 213.653433 46.475378 
L 214.62429 46.537881 
L 215.595146 46.43114 
L 217.53686 46.629355 
L 218.507717 46.407413 
L 219.478574 46.599871 
L 220.449431 46.323739 
L 221.420288 46.347546 
L 222.391145 45.96381 
L 223.362002 46.214088 
L 226.274572 45.963865 
L 227.245429 45.68466 
L 228.216286 45.957575 
L 229.187143 45.841669 
L 230.158 45.851207 
L 231.128857 45.734749 
L 233.070571 45.937073 
L 234.041427 45.873819 
L 236.953998 45.557447 
L 237.924855 45.701918 
L 238.895712 45.529201 
L 239.866569 45.598788 
L 240.837426 45.89557 
L 246.662567 45.800485 
L 248.604281 45.950107 
L 249.575138 45.837071 
L 251.516852 45.945103 
L 252.487708 46.308722 
L 253.458565 46.26324 
L 254.429422 45.85522 
L 255.400279 45.75437 
L 257.341993 45.831363 
L 260.254564 45.615296 
L 261.22542 45.771413 
L 262.196277 45.622523 
L 263.167134 45.834593 
L 264.137991 45.835526 
L 265.108848 45.709474 
L 266.079705 45.975164 
L 267.050562 45.752759 
L 269.963133 46.110437 
L 271.904846 46.038798 
L 272.875703 46.235205 
L 274.817417 46.190153 
L 275.788274 46.284271 
L 276.759131 46.221175 
L 277.729988 45.986019 
L 279.671701 45.840073 
L 280.642558 46.053177 
L 281.613415 45.852954 
L 282.584272 45.871924 
L 283.555129 46.060462 
L 285.496843 46.221235 
L 286.4677 46.381106 
L 287.438557 45.948469 
L 288.409414 46.093894 
L 289.38027 46.038749 
L 290.351127 46.332737 
L 291.321984 46.109606 
L 292.292841 46.255341 
L 293.263698 46.20192 
L 294.234555 46.366432 
L 296.176269 46.354184 
L 299.088839 46.459716 
L 301.030553 46.185159 
L 304.913981 46.023453 
L 305.884838 46.130569 
L 334.039688 46.019131 
L 335.010544 45.943821 
L 336.952258 46.219274 
L 337.923115 45.896287 
L 338.893972 45.980241 
L 342.7774 45.882254 
L 350.544255 45.956074 
L 368.990536 45.424308 
L 370.93225 45.245028 
L 375.786534 45.405457 
L 376.757391 45.239127 
L 377.728248 45.439259 
L 378.699105 45.353848 
L 379.669962 45.394579 
L 380.640818 45.555665 
L 382.582532 45.269666 
L 383.553389 45.465839 
L 384.524246 45.146667 
L 385.495103 45.300605 
L 390.349387 45.248724 
L 391.320244 45.064266 
L 395.203672 45.092634 
L 396.174529 45.27727 
L 397.145386 45.330962 
L 398.116243 45.245411 
L 399.087099 45.366263 
L 400.057956 45.184558 
L 401.028813 45.163532 
L 401.99967 45.023572 
L 404.912241 45.052916 
L 405.883098 44.842196 
L 406.853955 45.05146 
L 408.795668 45.065261 
L 409.766525 45.090026 
L 410.737382 44.895814 
L 411.708239 45.068504 
L 412.679096 44.905506 
L 413.649953 44.945114 
L 414.62081 45.28807 
L 418.504237 45.218535 
L 419.475094 45.115019 
L 421.416808 45.212474 
L 422.387665 45.338777 
L 423.358522 45.326869 
L 424.329379 45.176877 
L 426.271093 45.249806 
L 427.241949 45.375857 
L 429.183663 45.412492 
L 430.15452 46.339726 
L 431.125377 46.220879 
L 434.037948 46.352378 
L 435.008805 46.618371 
L 436.950518 46.224831 
L 438.892232 46.166679 
L 439.863089 46.231714 
L 440.833946 46.104806 
L 444.717374 46.189626 
L 445.68823 46.109312 
L 446.659087 46.239476 
L 447.629944 46.066583 
L 452.484229 46.358291 
L 453.455086 45.989566 
L 454.425942 45.943462 
L 455.396799 46.127808 
L 456.367656 45.940659 
L 457.338513 45.933369 
L 458.30937 46.190597 
L 463.163655 46.106043 
L 464.134511 46.613274 
L 465.105368 46.730863 
L 466.076225 47.017481 
L 467.047082 47.161056 
L 469.959653 46.986942 
L 471.901367 47.110662 
L 472.872223 46.92075 
L 474.813937 46.989559 
L 475.784794 46.877239 
L 476.755651 47.262571 
L 477.726508 47.052934 
L 479.668222 47.052505 
L 479.668222 47.052505 
" clip-path="url(#p62e301cd31)" style="fill: none; stroke: #2ca02c; stroke-width: 1.5; stroke-linecap: square"/>
   </g>
   <g id="line2d_29">
    <path d="M 73.85004 186.390467 
L 74.820897 186.307427 
L 77.733467 186.353956 
L 79.675181 186.28011 
L 82.587752 186.257012 
L 83.558609 186.318768 
L 84.529466 186.218954 
L 91.325464 186.268067 
L 92.296321 186.211639 
L 94.238035 186.27087 
L 102.00489 186.317326 
L 115.596886 186.206315 
L 116.567743 186.128813 
L 118.509457 186.170323 
L 120.451171 186.230966 
L 122.392885 186.188894 
L 123.363742 186.110419 
L 125.305455 186.209087 
L 134.043167 186.294879 
L 135.984881 186.352754 
L 140.839166 186.322177 
L 148.606021 186.366619 
L 220.449431 186.185138 
L 223.362002 186.244944 
L 227.245429 186.175523 
L 231.128857 186.24556 
L 233.070571 186.175691 
L 245.69171 186.05633 
L 248.604281 186.084298 
L 252.487708 185.967066 
L 254.429422 185.952221 
L 256.371136 185.927052 
L 261.22542 185.865768 
L 265.108848 185.953686 
L 268.992276 185.866807 
L 269.963133 185.917692 
L 271.904846 185.886802 
L 278.700845 185.769305 
L 279.671701 185.163172 
L 282.584272 185.136026 
L 285.496843 185.136026 
L 292.292841 185.171964 
L 294.234555 185.160052 
L 299.088839 185.051705 
L 305.884838 184.906117 
L 336.952258 184.875098 
L 337.923115 184.762425 
L 339.864829 184.816081 
L 344.719113 184.733212 
L 347.631684 184.652994 
L 350.544255 184.662855 
L 372.873963 184.563578 
L 375.786534 184.59612 
L 378.699105 184.671044 
L 381.611675 184.670283 
L 383.553389 184.716008 
L 385.495103 184.714719 
L 389.378531 184.713981 
L 396.174529 184.644282 
L 401.028813 184.643033 
L 408.795668 184.568728 
L 410.737382 184.653636 
L 416.562524 184.525122 
L 418.504237 184.508322 
L 421.416808 184.527973 
L 423.358522 184.501235 
L 425.300236 184.515492 
L 431.125377 184.539509 
L 466.076225 184.347593 
L 467.047082 184.420471 
L 471.901367 184.337135 
L 474.813937 184.368766 
L 479.668222 184.283729 
L 479.668222 184.283729 
" clip-path="url(#p62e301cd31)" style="fill: none; stroke: #d62728; stroke-width: 1.5; stroke-linecap: square"/>
   </g>
   <g id="line2d_30">
    <path d="M 73.85004 186.831395 
L 388.407674 186.842683 
L 389.378531 186.785917 
L 390.349387 186.87155 
L 392.291101 186.872271 
L 413.649953 186.862433 
L 414.62081 186.697534 
L 415.591667 186.820786 
L 417.53338 186.781032 
L 423.358522 186.836512 
L 426.271093 186.837755 
L 428.212806 186.783636 
L 434.037948 186.853508 
L 435.979661 186.758967 
L 436.950518 186.826559 
L 439.863089 186.748424 
L 442.77566 186.800809 
L 443.746517 186.720768 
L 445.68823 186.815253 
L 449.571658 186.801899 
L 457.338513 186.842636 
L 459.280227 186.621762 
L 460.251084 186.714554 
L 461.221941 186.42566 
L 463.163655 186.504889 
L 464.134511 185.969591 
L 466.076225 185.41469 
L 469.959653 185.635611 
L 470.93051 185.456035 
L 471.901367 185.624243 
L 472.872223 185.397148 
L 473.84308 185.55089 
L 474.813937 185.432614 
L 475.784794 185.612176 
L 476.755651 185.299974 
L 477.726508 185.54046 
L 479.668222 185.558484 
L 479.668222 185.558484 
" clip-path="url(#p62e301cd31)" style="fill: none; stroke: #9467bd; stroke-width: 1.5; stroke-linecap: square"/>
   </g>
   <g id="line2d_31">
    <path d="M 73.85004 175.010312 
L 75.791754 174.923803 
L 76.762611 175.149925 
L 77.733467 175.105497 
L 78.704324 175.244366 
L 79.675181 175.25226 
L 80.646038 175.03548 
L 81.616895 175.228971 
L 86.47118 174.989149 
L 87.442036 175.098668 
L 88.412893 175.080963 
L 93.267178 174.786507 
L 95.208892 174.857341 
L 96.179748 174.941732 
L 98.121462 174.830064 
L 99.092319 175.007065 
L 100.063176 174.805459 
L 105.888317 174.971386 
L 106.859174 174.785368 
L 107.830031 174.868467 
L 108.800888 174.674531 
L 109.771745 174.816434 
L 111.713459 174.664267 
L 112.684316 174.878185 
L 113.655173 174.754247 
L 115.596886 174.873539 
L 117.5386 174.875475 
L 118.509457 175.005195 
L 119.480314 174.883729 
L 120.451171 174.905204 
L 121.422028 174.757927 
L 122.392885 174.868921 
L 127.247169 174.696635 
L 130.15974 174.908243 
L 131.130597 174.915997 
L 132.101454 174.73139 
L 134.043167 174.881552 
L 135.984881 174.784147 
L 136.955738 174.943406 
L 137.926595 174.878296 
L 146.664307 174.837304 
L 147.635164 175.12995 
L 148.606021 175.069511 
L 157.343733 175.016137 
L 158.31459 175.12338 
L 161.22716 175.037443 
L 162.198017 175.236868 
L 166.081445 175.047666 
L 168.023159 175.012483 
L 168.994016 175.105497 
L 169.964872 174.900961 
L 171.906586 175.099208 
L 172.877443 174.921637 
L 173.8483 174.964443 
L 176.760871 174.84694 
L 179.673441 174.970544 
L 180.644298 174.813924 
L 181.615155 174.998033 
L 182.586012 175.050067 
L 183.556869 174.985929 
L 184.527726 175.228929 
L 186.46944 175.061399 
L 187.440297 175.150759 
L 194.236295 175.020888 
L 198.119722 175.089874 
L 215.595146 174.815146 
L 216.566003 174.658937 
L 218.507717 174.846554 
L 219.478574 174.794066 
L 220.449431 174.8795 
L 221.420288 174.706513 
L 223.362002 174.973915 
L 228.216286 174.9776 
L 229.187143 174.888293 
L 230.158 175.07668 
L 231.128857 174.896743 
L 234.041427 174.895873 
L 236.953998 174.809273 
L 237.924855 174.892724 
L 238.895712 174.790491 
L 241.808283 174.935895 
L 264.137991 174.821467 
L 265.108848 174.730853 
L 266.079705 174.904866 
L 267.050562 174.732501 
L 272.875703 174.985261 
L 278.700845 174.932669 
L 279.671701 175.017741 
L 280.642558 174.9149 
L 281.613415 175.193494 
L 283.555129 175.048387 
L 284.525986 175.136104 
L 286.4677 175.061184 
L 287.438557 175.148838 
L 288.409414 175.090782 
L 289.38027 175.17986 
L 292.292841 175.0081 
L 293.263698 175.133699 
L 294.234555 175.079367 
L 296.176269 175.183509 
L 299.088839 174.963527 
L 301.030553 175.062161 
L 335.010544 174.664911 
L 335.981401 174.795734 
L 345.68997 174.637365 
L 350.544255 174.690859 
L 368.019679 174.779682 
L 368.990536 174.897765 
L 373.84482 174.810927 
L 375.786534 174.901968 
L 377.728248 174.908567 
L 380.640818 174.88322 
L 385.495103 174.755555 
L 398.116243 174.832007 
L 406.853955 174.650472 
L 407.824812 174.560947 
L 409.766525 174.527212 
L 411.708239 174.562499 
L 413.649953 174.516411 
L 414.62081 174.443514 
L 418.504237 174.526777 
L 419.475094 174.493121 
L 420.445951 174.571668 
L 421.416808 174.474418 
L 422.387665 174.614421 
L 425.300236 174.534234 
L 435.979661 174.723592 
L 437.921375 174.608913 
L 438.892232 174.78269 
L 439.863089 174.711363 
L 440.833946 174.878782 
L 443.746517 174.91225 
L 449.571658 174.828785 
L 450.542515 174.912682 
L 451.513372 174.796153 
L 452.484229 174.820114 
L 453.455086 174.957258 
L 454.425942 174.831221 
L 465.105368 175.009906 
L 466.076225 175.18618 
L 470.93051 174.943499 
L 471.901367 174.937349 
L 472.872223 175.078741 
L 473.84308 174.949105 
L 476.755651 175.05958 
L 479.668222 174.879163 
L 479.668222 174.879163 
" clip-path="url(#p62e301cd31)" style="fill: none; stroke: #8c564b; stroke-width: 1.5; stroke-linecap: square"/>
   </g>
   <g id="patch_3">
    <path d="M 53.559131 194.725312 
L 53.559131 23.365312 
" style="fill: none; stroke: #000000; stroke-width: 0.8; stroke-linejoin: miter; stroke-linecap: square"/>
   </g>
   <g id="patch_4">
    <path d="M 499.959131 194.725312 
L 499.959131 23.365312 
" style="fill: none; stroke: #000000; stroke-width: 0.8; stroke-linejoin: miter; stroke-linecap: square"/>
   </g>
   <g id="patch_5">
    <path d="M 53.559131 194.725312 
L 499.959131 194.725312 
" style="fill: none; stroke: #000000; stroke-width: 0.8; stroke-linejoin: miter; stroke-linecap: square"/>
   </g>
   <g id="patch_6">
    <path d="M 53.559131 23.365313 
L 499.959131 23.365313 
" style="fill: none; stroke: #000000; stroke-width: 0.8; stroke-linejoin: miter; stroke-linecap: square"/>
   </g>
   <g id="legend_1">
    <g id="patch_7">
     <path d="M 160.730381 156.259812 
L 392.787881 156.259812 
Q 394.387881 156.259812 394.387881 154.659812 
L 394.387881 131.974812 
Q 394.387881 130.374812 392.787881 130.374812 
L 160.730381 130.374812 
Q 159.130381 130.374812 159.130381 131.974812 
L 159.130381 154.659812 
Q 159.130381 156.259812 160.730381 156.259812 
z
" style="fill: #ffffff; opacity: 0.8; stroke: #cccccc; stroke-linejoin: miter"/>
    </g>
    <g id="line2d_32">
     <path d="M 162.330381 136.853562 
L 170.330381 136.853562 
L 178.330381 136.853562 
" style="fill: none; stroke: #1f77b4; stroke-width: 1.5; stroke-linecap: square"/>
    </g>
    <g id="text_22">
     <!-- self -->
     <g transform="translate(184.730381 139.653562)scale(0.08 -0.08)">
      <use xlink:href="#DejaVuSans-73"/>
      <use xlink:href="#DejaVuSans-65" x="52.099609"/>
      <use xlink:href="#DejaVuSans-6c" x="113.623047"/>
      <use xlink:href="#DejaVuSans-66" x="141.40625"/>
     </g>
    </g>
    <g id="line2d_33">
     <path d="M 162.330381 148.596062 
L 170.330381 148.596062 
L 178.330381 148.596062 
" style="fill: none; stroke: #ff7f0e; stroke-width: 1.5; stroke-linecap: square"/>
    </g>
    <g id="text_23">
     <!-- unsafe-inline -->
     <g transform="translate(184.730381 151.396062)scale(0.08 -0.08)">
      <use xlink:href="#DejaVuSans-75"/>
      <use xlink:href="#DejaVuSans-6e" x="63.378906"/>
      <use xlink:href="#DejaVuSans-73" x="126.757812"/>
      <use xlink:href="#DejaVuSans-61" x="178.857422"/>
      <use xlink:href="#DejaVuSans-66" x="240.136719"/>
      <use xlink:href="#DejaVuSans-65" x="275.341797"/>
      <use xlink:href="#DejaVuSans-2d" x="336.865234"/>
      <use xlink:href="#DejaVuSans-69" x="372.949219"/>
      <use xlink:href="#DejaVuSans-6e" x="400.732422"/>
      <use xlink:href="#DejaVuSans-6c" x="464.111328"/>
      <use xlink:href="#DejaVuSans-69" x="491.894531"/>
      <use xlink:href="#DejaVuSans-6e" x="519.677734"/>
      <use xlink:href="#DejaVuSans-65" x="583.056641"/>
     </g>
    </g>
    <g id="line2d_34">
     <path d="M 252.295381 136.853562 
L 260.295381 136.853562 
L 268.295381 136.853562 
" style="fill: none; stroke: #2ca02c; stroke-width: 1.5; stroke-linecap: square"/>
    </g>
    <g id="text_24">
     <!-- unsafe-eval -->
     <g transform="translate(274.695381 139.653562)scale(0.08 -0.08)">
      <use xlink:href="#DejaVuSans-75"/>
      <use xlink:href="#DejaVuSans-6e" x="63.378906"/>
      <use xlink:href="#DejaVuSans-73" x="126.757812"/>
      <use xlink:href="#DejaVuSans-61" x="178.857422"/>
      <use xlink:href="#DejaVuSans-66" x="240.136719"/>
      <use xlink:href="#DejaVuSans-65" x="275.341797"/>
      <use xlink:href="#DejaVuSans-2d" x="336.865234"/>
      <use xlink:href="#DejaVuSans-65" x="372.949219"/>
      <use xlink:href="#DejaVuSans-76" x="434.472656"/>
      <use xlink:href="#DejaVuSans-61" x="493.652344"/>
      <use xlink:href="#DejaVuSans-6c" x="554.931641"/>
     </g>
    </g>
    <g id="line2d_35">
     <path d="M 252.295381 148.596062 
L 260.295381 148.596062 
L 268.295381 148.596062 
" style="fill: none; stroke: #d62728; stroke-width: 1.5; stroke-linecap: square"/>
    </g>
    <g id="text_25">
     <!-- unsafe-hashes -->
     <g transform="translate(274.695381 151.396062)scale(0.08 -0.08)">
      <defs>
       <path id="DejaVuSans-68" d="M 3513 2113 
L 3513 0 
L 2938 0 
L 2938 2094 
Q 2938 2591 2744 2837 
Q 2550 3084 2163 3084 
Q 1697 3084 1428 2787 
Q 1159 2491 1159 1978 
L 1159 0 
L 581 0 
L 581 4863 
L 1159 4863 
L 1159 2956 
Q 1366 3272 1645 3428 
Q 1925 3584 2291 3584 
Q 2894 3584 3203 3211 
Q 3513 2838 3513 2113 
z
" transform="scale(0.015625)"/>
      </defs>
      <use xlink:href="#DejaVuSans-75"/>
      <use xlink:href="#DejaVuSans-6e" x="63.378906"/>
      <use xlink:href="#DejaVuSans-73" x="126.757812"/>
      <use xlink:href="#DejaVuSans-61" x="178.857422"/>
      <use xlink:href="#DejaVuSans-66" x="240.136719"/>
      <use xlink:href="#DejaVuSans-65" x="275.341797"/>
      <use xlink:href="#DejaVuSans-2d" x="336.865234"/>
      <use xlink:href="#DejaVuSans-68" x="372.949219"/>
      <use xlink:href="#DejaVuSans-61" x="436.328125"/>
      <use xlink:href="#DejaVuSans-73" x="497.607422"/>
      <use xlink:href="#DejaVuSans-68" x="549.707031"/>
      <use xlink:href="#DejaVuSans-65" x="613.085938"/>
      <use xlink:href="#DejaVuSans-73" x="674.609375"/>
     </g>
    </g>
    <g id="line2d_36">
     <path d="M 348.830381 136.853562 
L 356.830381 136.853562 
L 364.830381 136.853562 
" style="fill: none; stroke: #9467bd; stroke-width: 1.5; stroke-linecap: square"/>
    </g>
    <g id="text_26">
     <!-- none -->
     <g transform="translate(371.230381 139.653562)scale(0.08 -0.08)">
      <use xlink:href="#DejaVuSans-6e"/>
      <use xlink:href="#DejaVuSans-6f" x="63.378906"/>
      <use xlink:href="#DejaVuSans-6e" x="124.560547"/>
      <use xlink:href="#DejaVuSans-65" x="187.939453"/>
     </g>
    </g>
    <g id="line2d_37">
     <path d="M 348.830381 148.596062 
L 356.830381 148.596062 
L 364.830381 148.596062 
" style="fill: none; stroke: #8c564b; stroke-width: 1.5; stroke-linecap: square"/>
    </g>
    <g id="text_27">
     <!-- * -->
     <g transform="translate(371.230381 151.396062)scale(0.08 -0.08)">
      <defs>
       <path id="DejaVuSans-2a" d="M 3009 3897 
L 1888 3291 
L 3009 2681 
L 2828 2375 
L 1778 3009 
L 1778 1831 
L 1422 1831 
L 1422 3009 
L 372 2375 
L 191 2681 
L 1313 3291 
L 191 3897 
L 372 4206 
L 1422 3572 
L 1422 4750 
L 1778 4750 
L 1778 3572 
L 2828 4206 
L 3009 3897 
z
" transform="scale(0.015625)"/>
      </defs>
      <use xlink:href="#DejaVuSans-2a"/>
     </g>
    </g>
   </g>
  </g>
 </g>
 <defs>
  <clipPath id="p62e301cd31">
   <rect x="53.559131" y="23.365313" width="446.4" height="171.36"/>
  </clipPath>
 </defs>
</svg>
