<?xml version="1.0" encoding="utf-8" standalone="no"?>
<!DOCTYPE svg PUBLIC "-//W3C//DTD SVG 1.1//EN"
  "http://www.w3.org/Graphics/SVG/1.1/DTD/svg11.dtd">
<svg xmlns:xlink="http://www.w3.org/1999/xlink" width="507.159131pt" height="252.30369pt" viewBox="0 0 507.159131 252.30369" xmlns="http://www.w3.org/2000/svg" version="1.1">
 <metadata>
  <rdf:RDF xmlns:dc="http://purl.org/dc/elements/1.1/" xmlns:cc="http://creativecommons.org/ns#" xmlns:rdf="http://www.w3.org/1999/02/22-rdf-syntax-ns#">
   <cc:Work>
    <dc:type rdf:resource="http://purl.org/dc/dcmitype/StillImage"/>
    <dc:date>2022-01-31T18:44:36.826471</dc:date>
    <dc:format>image/svg+xml</dc:format>
    <dc:creator>
     <cc:Agent>
      <dc:title>Matplotlib v3.5.1, https://matplotlib.org/</dc:title>
     </cc:Agent>
    </dc:creator>
   </cc:Work>
  </rdf:RDF>
 </metadata>
 <defs>
  <style type="text/css">*{stroke-linejoin: round; stroke-linecap: butt}</style>
 </defs>
 <g id="figure_1">
  <g id="patch_1">
   <path d="M 0 252.30369 
L 507.159131 252.30369 
L 507.159131 -0 
L 0 -0 
z
" style="fill: #ffffff"/>
  </g>
  <g id="axes_1">
   <g id="patch_2">
    <path d="M 53.559131 196.776875 
L 499.959131 196.776875 
L 499.959131 25.416875 
L 53.559131 25.416875 
z
" style="fill: #ffffff"/>
   </g>
   <g id="matplotlib.axis_1">
    <g id="xtick_1">
     <g id="line2d_1">
      <defs>
       <path id="m82dbdb4681" d="M 0 0 
L 0 3.5 
" style="stroke: #000000; stroke-width: 0.8"/>
      </defs>
      <g>
       <use xlink:href="#m82dbdb4681" x="68.024899" y="196.776875" style="stroke: #000000; stroke-width: 0.8"/>
      </g>
     </g>
     <g id="text_1">
      <!-- 2020-Nov-01 -->
      <g transform="translate(10.999219 242.680752)rotate(-30)scale(0.1 -0.1)">
       <defs>
        <path id="DejaVuSans-32" d="M 1228 531 
L 3431 531 
L 3431 0 
L 469 0 
L 469 531 
Q 828 903 1448 1529 
Q 2069 2156 2228 2338 
Q 2531 2678 2651 2914 
Q 2772 3150 2772 3378 
Q 2772 3750 2511 3984 
Q 2250 4219 1831 4219 
Q 1534 4219 1204 4116 
Q 875 4013 500 3803 
L 500 4441 
Q 881 4594 1212 4672 
Q 1544 4750 1819 4750 
Q 2544 4750 2975 4387 
Q 3406 4025 3406 3419 
Q 3406 3131 3298 2873 
Q 3191 2616 2906 2266 
Q 2828 2175 2409 1742 
Q 1991 1309 1228 531 
z
" transform="scale(0.015625)"/>
        <path id="DejaVuSans-30" d="M 2034 4250 
Q 1547 4250 1301 3770 
Q 1056 3291 1056 2328 
Q 1056 1369 1301 889 
Q 1547 409 2034 409 
Q 2525 409 2770 889 
Q 3016 1369 3016 2328 
Q 3016 3291 2770 3770 
Q 2525 4250 2034 4250 
z
M 2034 4750 
Q 2819 4750 3233 4129 
Q 3647 3509 3647 2328 
Q 3647 1150 3233 529 
Q 2819 -91 2034 -91 
Q 1250 -91 836 529 
Q 422 1150 422 2328 
Q 422 3509 836 4129 
Q 1250 4750 2034 4750 
z
" transform="scale(0.015625)"/>
        <path id="DejaVuSans-2d" d="M 313 2009 
L 1997 2009 
L 1997 1497 
L 313 1497 
L 313 2009 
z
" transform="scale(0.015625)"/>
        <path id="DejaVuSans-4e" d="M 628 4666 
L 1478 4666 
L 3547 763 
L 3547 4666 
L 4159 4666 
L 4159 0 
L 3309 0 
L 1241 3903 
L 1241 0 
L 628 0 
L 628 4666 
z
" transform="scale(0.015625)"/>
        <path id="DejaVuSans-6f" d="M 1959 3097 
Q 1497 3097 1228 2736 
Q 959 2375 959 1747 
Q 959 1119 1226 758 
Q 1494 397 1959 397 
Q 2419 397 2687 759 
Q 2956 1122 2956 1747 
Q 2956 2369 2687 2733 
Q 2419 3097 1959 3097 
z
M 1959 3584 
Q 2709 3584 3137 3096 
Q 3566 2609 3566 1747 
Q 3566 888 3137 398 
Q 2709 -91 1959 -91 
Q 1206 -91 779 398 
Q 353 888 353 1747 
Q 353 2609 779 3096 
Q 1206 3584 1959 3584 
z
" transform="scale(0.015625)"/>
        <path id="DejaVuSans-76" d="M 191 3500 
L 800 3500 
L 1894 563 
L 2988 3500 
L 3597 3500 
L 2284 0 
L 1503 0 
L 191 3500 
z
" transform="scale(0.015625)"/>
        <path id="DejaVuSans-31" d="M 794 531 
L 1825 531 
L 1825 4091 
L 703 3866 
L 703 4441 
L 1819 4666 
L 2450 4666 
L 2450 531 
L 3481 531 
L 3481 0 
L 794 0 
L 794 531 
z
" transform="scale(0.015625)"/>
       </defs>
       <use xlink:href="#DejaVuSans-32"/>
       <use xlink:href="#DejaVuSans-30" x="63.623047"/>
       <use xlink:href="#DejaVuSans-32" x="127.246094"/>
       <use xlink:href="#DejaVuSans-30" x="190.869141"/>
       <use xlink:href="#DejaVuSans-2d" x="254.492188"/>
       <use xlink:href="#DejaVuSans-4e" x="290.576172"/>
       <use xlink:href="#DejaVuSans-6f" x="365.380859"/>
       <use xlink:href="#DejaVuSans-76" x="426.5625"/>
       <use xlink:href="#DejaVuSans-2d" x="483.117188"/>
       <use xlink:href="#DejaVuSans-30" x="519.201172"/>
       <use xlink:href="#DejaVuSans-31" x="582.824219"/>
      </g>
     </g>
    </g>
    <g id="xtick_2">
     <g id="line2d_2">
      <g>
       <use xlink:href="#m82dbdb4681" x="97.150605" y="196.776875" style="stroke: #000000; stroke-width: 0.8"/>
      </g>
     </g>
     <g id="text_2">
      <!-- 2020-Dec-01 -->
      <g transform="translate(40.042383 242.728409)rotate(-30)scale(0.1 -0.1)">
       <defs>
        <path id="DejaVuSans-44" d="M 1259 4147 
L 1259 519 
L 2022 519 
Q 2988 519 3436 956 
Q 3884 1394 3884 2338 
Q 3884 3275 3436 3711 
Q 2988 4147 2022 4147 
L 1259 4147 
z
M 628 4666 
L 1925 4666 
Q 3281 4666 3915 4102 
Q 4550 3538 4550 2338 
Q 4550 1131 3912 565 
Q 3275 0 1925 0 
L 628 0 
L 628 4666 
z
" transform="scale(0.015625)"/>
        <path id="DejaVuSans-65" d="M 3597 1894 
L 3597 1613 
L 953 1613 
Q 991 1019 1311 708 
Q 1631 397 2203 397 
Q 2534 397 2845 478 
Q 3156 559 3463 722 
L 3463 178 
Q 3153 47 2828 -22 
Q 2503 -91 2169 -91 
Q 1331 -91 842 396 
Q 353 884 353 1716 
Q 353 2575 817 3079 
Q 1281 3584 2069 3584 
Q 2775 3584 3186 3129 
Q 3597 2675 3597 1894 
z
M 3022 2063 
Q 3016 2534 2758 2815 
Q 2500 3097 2075 3097 
Q 1594 3097 1305 2825 
Q 1016 2553 972 2059 
L 3022 2063 
z
" transform="scale(0.015625)"/>
        <path id="DejaVuSans-63" d="M 3122 3366 
L 3122 2828 
Q 2878 2963 2633 3030 
Q 2388 3097 2138 3097 
Q 1578 3097 1268 2742 
Q 959 2388 959 1747 
Q 959 1106 1268 751 
Q 1578 397 2138 397 
Q 2388 397 2633 464 
Q 2878 531 3122 666 
L 3122 134 
Q 2881 22 2623 -34 
Q 2366 -91 2075 -91 
Q 1284 -91 818 406 
Q 353 903 353 1747 
Q 353 2603 823 3093 
Q 1294 3584 2113 3584 
Q 2378 3584 2631 3529 
Q 2884 3475 3122 3366 
z
" transform="scale(0.015625)"/>
       </defs>
       <use xlink:href="#DejaVuSans-32"/>
       <use xlink:href="#DejaVuSans-30" x="63.623047"/>
       <use xlink:href="#DejaVuSans-32" x="127.246094"/>
       <use xlink:href="#DejaVuSans-30" x="190.869141"/>
       <use xlink:href="#DejaVuSans-2d" x="254.492188"/>
       <use xlink:href="#DejaVuSans-44" x="290.576172"/>
       <use xlink:href="#DejaVuSans-65" x="367.578125"/>
       <use xlink:href="#DejaVuSans-63" x="429.101562"/>
       <use xlink:href="#DejaVuSans-2d" x="484.082031"/>
       <use xlink:href="#DejaVuSans-30" x="520.166016"/>
       <use xlink:href="#DejaVuSans-31" x="583.789062"/>
      </g>
     </g>
    </g>
    <g id="xtick_3">
     <g id="line2d_3">
      <g>
       <use xlink:href="#m82dbdb4681" x="127.247169" y="196.776875" style="stroke: #000000; stroke-width: 0.8"/>
      </g>
     </g>
     <g id="text_3">
      <!-- 2021-Jan-01 -->
      <g transform="translate(73.060429 241.04169)rotate(-30)scale(0.1 -0.1)">
       <defs>
        <path id="DejaVuSans-4a" d="M 628 4666 
L 1259 4666 
L 1259 325 
Q 1259 -519 939 -900 
Q 619 -1281 -91 -1281 
L -331 -1281 
L -331 -750 
L -134 -750 
Q 284 -750 456 -515 
Q 628 -281 628 325 
L 628 4666 
z
" transform="scale(0.015625)"/>
        <path id="DejaVuSans-61" d="M 2194 1759 
Q 1497 1759 1228 1600 
Q 959 1441 959 1056 
Q 959 750 1161 570 
Q 1363 391 1709 391 
Q 2188 391 2477 730 
Q 2766 1069 2766 1631 
L 2766 1759 
L 2194 1759 
z
M 3341 1997 
L 3341 0 
L 2766 0 
L 2766 531 
Q 2569 213 2275 61 
Q 1981 -91 1556 -91 
Q 1019 -91 701 211 
Q 384 513 384 1019 
Q 384 1609 779 1909 
Q 1175 2209 1959 2209 
L 2766 2209 
L 2766 2266 
Q 2766 2663 2505 2880 
Q 2244 3097 1772 3097 
Q 1472 3097 1187 3025 
Q 903 2953 641 2809 
L 641 3341 
Q 956 3463 1253 3523 
Q 1550 3584 1831 3584 
Q 2591 3584 2966 3190 
Q 3341 2797 3341 1997 
z
" transform="scale(0.015625)"/>
        <path id="DejaVuSans-6e" d="M 3513 2113 
L 3513 0 
L 2938 0 
L 2938 2094 
Q 2938 2591 2744 2837 
Q 2550 3084 2163 3084 
Q 1697 3084 1428 2787 
Q 1159 2491 1159 1978 
L 1159 0 
L 581 0 
L 581 3500 
L 1159 3500 
L 1159 2956 
Q 1366 3272 1645 3428 
Q 1925 3584 2291 3584 
Q 2894 3584 3203 3211 
Q 3513 2838 3513 2113 
z
" transform="scale(0.015625)"/>
       </defs>
       <use xlink:href="#DejaVuSans-32"/>
       <use xlink:href="#DejaVuSans-30" x="63.623047"/>
       <use xlink:href="#DejaVuSans-32" x="127.246094"/>
       <use xlink:href="#DejaVuSans-31" x="190.869141"/>
       <use xlink:href="#DejaVuSans-2d" x="254.492188"/>
       <use xlink:href="#DejaVuSans-4a" x="296.201172"/>
       <use xlink:href="#DejaVuSans-61" x="325.693359"/>
       <use xlink:href="#DejaVuSans-6e" x="386.972656"/>
       <use xlink:href="#DejaVuSans-2d" x="450.351562"/>
       <use xlink:href="#DejaVuSans-30" x="486.435547"/>
       <use xlink:href="#DejaVuSans-31" x="550.058594"/>
      </g>
     </g>
    </g>
    <g id="xtick_4">
     <g id="line2d_4">
      <g>
       <use xlink:href="#m82dbdb4681" x="157.343733" y="196.776875" style="stroke: #000000; stroke-width: 0.8"/>
      </g>
     </g>
     <g id="text_4">
      <!-- 2021-Feb-01 -->
      <g transform="translate(101.663099 241.90419)rotate(-30)scale(0.1 -0.1)">
       <defs>
        <path id="DejaVuSans-46" d="M 628 4666 
L 3309 4666 
L 3309 4134 
L 1259 4134 
L 1259 2759 
L 3109 2759 
L 3109 2228 
L 1259 2228 
L 1259 0 
L 628 0 
L 628 4666 
z
" transform="scale(0.015625)"/>
        <path id="DejaVuSans-62" d="M 3116 1747 
Q 3116 2381 2855 2742 
Q 2594 3103 2138 3103 
Q 1681 3103 1420 2742 
Q 1159 2381 1159 1747 
Q 1159 1113 1420 752 
Q 1681 391 2138 391 
Q 2594 391 2855 752 
Q 3116 1113 3116 1747 
z
M 1159 2969 
Q 1341 3281 1617 3432 
Q 1894 3584 2278 3584 
Q 2916 3584 3314 3078 
Q 3713 2572 3713 1747 
Q 3713 922 3314 415 
Q 2916 -91 2278 -91 
Q 1894 -91 1617 61 
Q 1341 213 1159 525 
L 1159 0 
L 581 0 
L 581 4863 
L 1159 4863 
L 1159 2969 
z
" transform="scale(0.015625)"/>
       </defs>
       <use xlink:href="#DejaVuSans-32"/>
       <use xlink:href="#DejaVuSans-30" x="63.623047"/>
       <use xlink:href="#DejaVuSans-32" x="127.246094"/>
       <use xlink:href="#DejaVuSans-31" x="190.869141"/>
       <use xlink:href="#DejaVuSans-2d" x="254.492188"/>
       <use xlink:href="#DejaVuSans-46" x="290.576172"/>
       <use xlink:href="#DejaVuSans-65" x="342.595703"/>
       <use xlink:href="#DejaVuSans-62" x="404.119141"/>
       <use xlink:href="#DejaVuSans-2d" x="467.595703"/>
       <use xlink:href="#DejaVuSans-30" x="503.679688"/>
       <use xlink:href="#DejaVuSans-31" x="567.302734"/>
      </g>
     </g>
    </g>
    <g id="xtick_5">
     <g id="line2d_5">
      <g>
       <use xlink:href="#m82dbdb4681" x="184.527726" y="196.776875" style="stroke: #000000; stroke-width: 0.8"/>
      </g>
     </g>
     <g id="text_5">
      <!-- 2021-Mar-01 -->
      <g transform="translate(128.391075 242.167471)rotate(-30)scale(0.1 -0.1)">
       <defs>
        <path id="DejaVuSans-4d" d="M 628 4666 
L 1569 4666 
L 2759 1491 
L 3956 4666 
L 4897 4666 
L 4897 0 
L 4281 0 
L 4281 4097 
L 3078 897 
L 2444 897 
L 1241 4097 
L 1241 0 
L 628 0 
L 628 4666 
z
" transform="scale(0.015625)"/>
        <path id="DejaVuSans-72" d="M 2631 2963 
Q 2534 3019 2420 3045 
Q 2306 3072 2169 3072 
Q 1681 3072 1420 2755 
Q 1159 2438 1159 1844 
L 1159 0 
L 581 0 
L 581 3500 
L 1159 3500 
L 1159 2956 
Q 1341 3275 1631 3429 
Q 1922 3584 2338 3584 
Q 2397 3584 2469 3576 
Q 2541 3569 2628 3553 
L 2631 2963 
z
" transform="scale(0.015625)"/>
       </defs>
       <use xlink:href="#DejaVuSans-32"/>
       <use xlink:href="#DejaVuSans-30" x="63.623047"/>
       <use xlink:href="#DejaVuSans-32" x="127.246094"/>
       <use xlink:href="#DejaVuSans-31" x="190.869141"/>
       <use xlink:href="#DejaVuSans-2d" x="254.492188"/>
       <use xlink:href="#DejaVuSans-4d" x="290.576172"/>
       <use xlink:href="#DejaVuSans-61" x="376.855469"/>
       <use xlink:href="#DejaVuSans-72" x="438.134766"/>
       <use xlink:href="#DejaVuSans-2d" x="472.873047"/>
       <use xlink:href="#DejaVuSans-30" x="508.957031"/>
       <use xlink:href="#DejaVuSans-31" x="572.580078"/>
      </g>
     </g>
    </g>
    <g id="xtick_6">
     <g id="line2d_6">
      <g>
       <use xlink:href="#m82dbdb4681" x="214.62429" y="196.776875" style="stroke: #000000; stroke-width: 0.8"/>
      </g>
     </g>
     <g id="text_6">
      <!-- 2021-Apr-01 -->
      <g transform="translate(160.039719 241.271377)rotate(-30)scale(0.1 -0.1)">
       <defs>
        <path id="DejaVuSans-41" d="M 2188 4044 
L 1331 1722 
L 3047 1722 
L 2188 4044 
z
M 1831 4666 
L 2547 4666 
L 4325 0 
L 3669 0 
L 3244 1197 
L 1141 1197 
L 716 0 
L 50 0 
L 1831 4666 
z
" transform="scale(0.015625)"/>
        <path id="DejaVuSans-70" d="M 1159 525 
L 1159 -1331 
L 581 -1331 
L 581 3500 
L 1159 3500 
L 1159 2969 
Q 1341 3281 1617 3432 
Q 1894 3584 2278 3584 
Q 2916 3584 3314 3078 
Q 3713 2572 3713 1747 
Q 3713 922 3314 415 
Q 2916 -91 2278 -91 
Q 1894 -91 1617 61 
Q 1341 213 1159 525 
z
M 3116 1747 
Q 3116 2381 2855 2742 
Q 2594 3103 2138 3103 
Q 1681 3103 1420 2742 
Q 1159 2381 1159 1747 
Q 1159 1113 1420 752 
Q 1681 391 2138 391 
Q 2594 391 2855 752 
Q 3116 1113 3116 1747 
z
" transform="scale(0.015625)"/>
       </defs>
       <use xlink:href="#DejaVuSans-32"/>
       <use xlink:href="#DejaVuSans-30" x="63.623047"/>
       <use xlink:href="#DejaVuSans-32" x="127.246094"/>
       <use xlink:href="#DejaVuSans-31" x="190.869141"/>
       <use xlink:href="#DejaVuSans-2d" x="254.492188"/>
       <use xlink:href="#DejaVuSans-41" x="288.326172"/>
       <use xlink:href="#DejaVuSans-70" x="356.734375"/>
       <use xlink:href="#DejaVuSans-72" x="420.210938"/>
       <use xlink:href="#DejaVuSans-2d" x="454.949219"/>
       <use xlink:href="#DejaVuSans-30" x="491.033203"/>
       <use xlink:href="#DejaVuSans-31" x="554.65625"/>
      </g>
     </g>
    </g>
    <g id="xtick_7">
     <g id="line2d_7">
      <g>
       <use xlink:href="#m82dbdb4681" x="243.749996" y="196.776875" style="stroke: #000000; stroke-width: 0.8"/>
      </g>
     </g>
     <g id="text_7">
      <!-- 2021-May-01 -->
      <g transform="translate(185.647198 243.302627)rotate(-30)scale(0.1 -0.1)">
       <defs>
        <path id="DejaVuSans-79" d="M 2059 -325 
Q 1816 -950 1584 -1140 
Q 1353 -1331 966 -1331 
L 506 -1331 
L 506 -850 
L 844 -850 
Q 1081 -850 1212 -737 
Q 1344 -625 1503 -206 
L 1606 56 
L 191 3500 
L 800 3500 
L 1894 763 
L 2988 3500 
L 3597 3500 
L 2059 -325 
z
" transform="scale(0.015625)"/>
       </defs>
       <use xlink:href="#DejaVuSans-32"/>
       <use xlink:href="#DejaVuSans-30" x="63.623047"/>
       <use xlink:href="#DejaVuSans-32" x="127.246094"/>
       <use xlink:href="#DejaVuSans-31" x="190.869141"/>
       <use xlink:href="#DejaVuSans-2d" x="254.492188"/>
       <use xlink:href="#DejaVuSans-4d" x="290.576172"/>
       <use xlink:href="#DejaVuSans-61" x="376.855469"/>
       <use xlink:href="#DejaVuSans-79" x="438.134766"/>
       <use xlink:href="#DejaVuSans-2d" x="495.564453"/>
       <use xlink:href="#DejaVuSans-30" x="531.648438"/>
       <use xlink:href="#DejaVuSans-31" x="595.271484"/>
      </g>
     </g>
    </g>
    <g id="xtick_8">
     <g id="line2d_8">
      <g>
       <use xlink:href="#m82dbdb4681" x="273.84656" y="196.776875" style="stroke: #000000; stroke-width: 0.8"/>
      </g>
     </g>
     <g id="text_8">
      <!-- 2021-Jun-01 -->
      <g transform="translate(219.478496 241.146377)rotate(-30)scale(0.1 -0.1)">
       <defs>
        <path id="DejaVuSans-75" d="M 544 1381 
L 544 3500 
L 1119 3500 
L 1119 1403 
Q 1119 906 1312 657 
Q 1506 409 1894 409 
Q 2359 409 2629 706 
Q 2900 1003 2900 1516 
L 2900 3500 
L 3475 3500 
L 3475 0 
L 2900 0 
L 2900 538 
Q 2691 219 2414 64 
Q 2138 -91 1772 -91 
Q 1169 -91 856 284 
Q 544 659 544 1381 
z
M 1991 3584 
L 1991 3584 
z
" transform="scale(0.015625)"/>
       </defs>
       <use xlink:href="#DejaVuSans-32"/>
       <use xlink:href="#DejaVuSans-30" x="63.623047"/>
       <use xlink:href="#DejaVuSans-32" x="127.246094"/>
       <use xlink:href="#DejaVuSans-31" x="190.869141"/>
       <use xlink:href="#DejaVuSans-2d" x="254.492188"/>
       <use xlink:href="#DejaVuSans-4a" x="296.201172"/>
       <use xlink:href="#DejaVuSans-75" x="325.693359"/>
       <use xlink:href="#DejaVuSans-6e" x="389.072266"/>
       <use xlink:href="#DejaVuSans-2d" x="452.451172"/>
       <use xlink:href="#DejaVuSans-30" x="488.535156"/>
       <use xlink:href="#DejaVuSans-31" x="552.158203"/>
      </g>
     </g>
    </g>
    <g id="xtick_9">
     <g id="line2d_9">
      <g>
       <use xlink:href="#m82dbdb4681" x="302.972267" y="196.776875" style="stroke: #000000; stroke-width: 0.8"/>
      </g>
     </g>
     <g id="text_9">
      <!-- 2021-Jul-01 -->
      <g transform="translate(251.686712 239.36669)rotate(-30)scale(0.1 -0.1)">
       <defs>
        <path id="DejaVuSans-6c" d="M 603 4863 
L 1178 4863 
L 1178 0 
L 603 0 
L 603 4863 
z
" transform="scale(0.015625)"/>
       </defs>
       <use xlink:href="#DejaVuSans-32"/>
       <use xlink:href="#DejaVuSans-30" x="63.623047"/>
       <use xlink:href="#DejaVuSans-32" x="127.246094"/>
       <use xlink:href="#DejaVuSans-31" x="190.869141"/>
       <use xlink:href="#DejaVuSans-2d" x="254.492188"/>
       <use xlink:href="#DejaVuSans-4a" x="296.201172"/>
       <use xlink:href="#DejaVuSans-75" x="325.693359"/>
       <use xlink:href="#DejaVuSans-6c" x="389.072266"/>
       <use xlink:href="#DejaVuSans-2d" x="416.855469"/>
       <use xlink:href="#DejaVuSans-30" x="452.939453"/>
       <use xlink:href="#DejaVuSans-31" x="516.5625"/>
      </g>
     </g>
    </g>
    <g id="xtick_10">
     <g id="line2d_10">
      <g>
       <use xlink:href="#m82dbdb4681" x="333.068831" y="196.776875" style="stroke: #000000; stroke-width: 0.8"/>
      </g>
     </g>
     <g id="text_10">
      <!-- 2021-Aug-01 -->
      <g transform="translate(276.003909 242.703409)rotate(-30)scale(0.1 -0.1)">
       <defs>
        <path id="DejaVuSans-67" d="M 2906 1791 
Q 2906 2416 2648 2759 
Q 2391 3103 1925 3103 
Q 1463 3103 1205 2759 
Q 947 2416 947 1791 
Q 947 1169 1205 825 
Q 1463 481 1925 481 
Q 2391 481 2648 825 
Q 2906 1169 2906 1791 
z
M 3481 434 
Q 3481 -459 3084 -895 
Q 2688 -1331 1869 -1331 
Q 1566 -1331 1297 -1286 
Q 1028 -1241 775 -1147 
L 775 -588 
Q 1028 -725 1275 -790 
Q 1522 -856 1778 -856 
Q 2344 -856 2625 -561 
Q 2906 -266 2906 331 
L 2906 616 
Q 2728 306 2450 153 
Q 2172 0 1784 0 
Q 1141 0 747 490 
Q 353 981 353 1791 
Q 353 2603 747 3093 
Q 1141 3584 1784 3584 
Q 2172 3584 2450 3431 
Q 2728 3278 2906 2969 
L 2906 3500 
L 3481 3500 
L 3481 434 
z
" transform="scale(0.015625)"/>
       </defs>
       <use xlink:href="#DejaVuSans-32"/>
       <use xlink:href="#DejaVuSans-30" x="63.623047"/>
       <use xlink:href="#DejaVuSans-32" x="127.246094"/>
       <use xlink:href="#DejaVuSans-31" x="190.869141"/>
       <use xlink:href="#DejaVuSans-2d" x="254.492188"/>
       <use xlink:href="#DejaVuSans-41" x="288.326172"/>
       <use xlink:href="#DejaVuSans-75" x="356.734375"/>
       <use xlink:href="#DejaVuSans-67" x="420.113281"/>
       <use xlink:href="#DejaVuSans-2d" x="483.589844"/>
       <use xlink:href="#DejaVuSans-30" x="519.673828"/>
       <use xlink:href="#DejaVuSans-31" x="583.296875"/>
      </g>
     </g>
    </g>
    <g id="xtick_11">
     <g id="line2d_11">
      <g>
       <use xlink:href="#m82dbdb4681" x="363.165394" y="196.776875" style="stroke: #000000; stroke-width: 0.8"/>
      </g>
     </g>
     <g id="text_11">
      <!-- 2021-Sep-01 -->
      <g transform="translate(306.491537 242.477627)rotate(-30)scale(0.1 -0.1)">
       <defs>
        <path id="DejaVuSans-53" d="M 3425 4513 
L 3425 3897 
Q 3066 4069 2747 4153 
Q 2428 4238 2131 4238 
Q 1616 4238 1336 4038 
Q 1056 3838 1056 3469 
Q 1056 3159 1242 3001 
Q 1428 2844 1947 2747 
L 2328 2669 
Q 3034 2534 3370 2195 
Q 3706 1856 3706 1288 
Q 3706 609 3251 259 
Q 2797 -91 1919 -91 
Q 1588 -91 1214 -16 
Q 841 59 441 206 
L 441 856 
Q 825 641 1194 531 
Q 1563 422 1919 422 
Q 2459 422 2753 634 
Q 3047 847 3047 1241 
Q 3047 1584 2836 1778 
Q 2625 1972 2144 2069 
L 1759 2144 
Q 1053 2284 737 2584 
Q 422 2884 422 3419 
Q 422 4038 858 4394 
Q 1294 4750 2059 4750 
Q 2388 4750 2728 4690 
Q 3069 4631 3425 4513 
z
" transform="scale(0.015625)"/>
       </defs>
       <use xlink:href="#DejaVuSans-32"/>
       <use xlink:href="#DejaVuSans-30" x="63.623047"/>
       <use xlink:href="#DejaVuSans-32" x="127.246094"/>
       <use xlink:href="#DejaVuSans-31" x="190.869141"/>
       <use xlink:href="#DejaVuSans-2d" x="254.492188"/>
       <use xlink:href="#DejaVuSans-53" x="290.576172"/>
       <use xlink:href="#DejaVuSans-65" x="354.052734"/>
       <use xlink:href="#DejaVuSans-70" x="415.576172"/>
       <use xlink:href="#DejaVuSans-2d" x="479.052734"/>
       <use xlink:href="#DejaVuSans-30" x="515.136719"/>
       <use xlink:href="#DejaVuSans-31" x="578.759766"/>
      </g>
     </g>
    </g>
    <g id="xtick_12">
     <g id="line2d_12">
      <g>
       <use xlink:href="#m82dbdb4681" x="392.291101" y="196.776875" style="stroke: #000000; stroke-width: 0.8"/>
      </g>
     </g>
     <g id="text_12">
      <!-- 2021-Oct-01 -->
      <g transform="translate(336.729546 241.83544)rotate(-30)scale(0.1 -0.1)">
       <defs>
        <path id="DejaVuSans-4f" d="M 2522 4238 
Q 1834 4238 1429 3725 
Q 1025 3213 1025 2328 
Q 1025 1447 1429 934 
Q 1834 422 2522 422 
Q 3209 422 3611 934 
Q 4013 1447 4013 2328 
Q 4013 3213 3611 3725 
Q 3209 4238 2522 4238 
z
M 2522 4750 
Q 3503 4750 4090 4092 
Q 4678 3434 4678 2328 
Q 4678 1225 4090 567 
Q 3503 -91 2522 -91 
Q 1538 -91 948 565 
Q 359 1222 359 2328 
Q 359 3434 948 4092 
Q 1538 4750 2522 4750 
z
" transform="scale(0.015625)"/>
        <path id="DejaVuSans-74" d="M 1172 4494 
L 1172 3500 
L 2356 3500 
L 2356 3053 
L 1172 3053 
L 1172 1153 
Q 1172 725 1289 603 
Q 1406 481 1766 481 
L 2356 481 
L 2356 0 
L 1766 0 
Q 1100 0 847 248 
Q 594 497 594 1153 
L 594 3053 
L 172 3053 
L 172 3500 
L 594 3500 
L 594 4494 
L 1172 4494 
z
" transform="scale(0.015625)"/>
       </defs>
       <use xlink:href="#DejaVuSans-32"/>
       <use xlink:href="#DejaVuSans-30" x="63.623047"/>
       <use xlink:href="#DejaVuSans-32" x="127.246094"/>
       <use xlink:href="#DejaVuSans-31" x="190.869141"/>
       <use xlink:href="#DejaVuSans-2d" x="254.492188"/>
       <use xlink:href="#DejaVuSans-4f" x="293.326172"/>
       <use xlink:href="#DejaVuSans-63" x="372.037109"/>
       <use xlink:href="#DejaVuSans-74" x="427.017578"/>
       <use xlink:href="#DejaVuSans-2d" x="466.226562"/>
       <use xlink:href="#DejaVuSans-30" x="502.310547"/>
       <use xlink:href="#DejaVuSans-31" x="565.933594"/>
      </g>
     </g>
    </g>
    <g id="xtick_13">
     <g id="line2d_13">
      <g>
       <use xlink:href="#m82dbdb4681" x="422.387665" y="196.776875" style="stroke: #000000; stroke-width: 0.8"/>
      </g>
     </g>
     <g id="text_13">
      <!-- 2021-Nov-01 -->
      <g transform="translate(365.361985 242.680752)rotate(-30)scale(0.1 -0.1)">
       <use xlink:href="#DejaVuSans-32"/>
       <use xlink:href="#DejaVuSans-30" x="63.623047"/>
       <use xlink:href="#DejaVuSans-32" x="127.246094"/>
       <use xlink:href="#DejaVuSans-31" x="190.869141"/>
       <use xlink:href="#DejaVuSans-2d" x="254.492188"/>
       <use xlink:href="#DejaVuSans-4e" x="290.576172"/>
       <use xlink:href="#DejaVuSans-6f" x="365.380859"/>
       <use xlink:href="#DejaVuSans-76" x="426.5625"/>
       <use xlink:href="#DejaVuSans-2d" x="483.117188"/>
       <use xlink:href="#DejaVuSans-30" x="519.201172"/>
       <use xlink:href="#DejaVuSans-31" x="582.824219"/>
      </g>
     </g>
    </g>
    <g id="xtick_14">
     <g id="line2d_14">
      <g>
       <use xlink:href="#m82dbdb4681" x="451.513372" y="196.776875" style="stroke: #000000; stroke-width: 0.8"/>
      </g>
     </g>
     <g id="text_14">
      <!-- 2021-Dec-01 -->
      <g transform="translate(394.405149 242.728409)rotate(-30)scale(0.1 -0.1)">
       <use xlink:href="#DejaVuSans-32"/>
       <use xlink:href="#DejaVuSans-30" x="63.623047"/>
       <use xlink:href="#DejaVuSans-32" x="127.246094"/>
       <use xlink:href="#DejaVuSans-31" x="190.869141"/>
       <use xlink:href="#DejaVuSans-2d" x="254.492188"/>
       <use xlink:href="#DejaVuSans-44" x="290.576172"/>
       <use xlink:href="#DejaVuSans-65" x="367.578125"/>
       <use xlink:href="#DejaVuSans-63" x="429.101562"/>
       <use xlink:href="#DejaVuSans-2d" x="484.082031"/>
       <use xlink:href="#DejaVuSans-30" x="520.166016"/>
       <use xlink:href="#DejaVuSans-31" x="583.789062"/>
      </g>
     </g>
    </g>
    <g id="xtick_15">
     <g id="line2d_15">
      <g>
       <use xlink:href="#m82dbdb4681" x="481.609935" y="196.776875" style="stroke: #000000; stroke-width: 0.8"/>
      </g>
     </g>
     <g id="text_15">
      <!-- 2022-Jan-01 -->
      <g transform="translate(427.423195 241.04169)rotate(-30)scale(0.1 -0.1)">
       <use xlink:href="#DejaVuSans-32"/>
       <use xlink:href="#DejaVuSans-30" x="63.623047"/>
       <use xlink:href="#DejaVuSans-32" x="127.246094"/>
       <use xlink:href="#DejaVuSans-32" x="190.869141"/>
       <use xlink:href="#DejaVuSans-2d" x="254.492188"/>
       <use xlink:href="#DejaVuSans-4a" x="296.201172"/>
       <use xlink:href="#DejaVuSans-61" x="325.693359"/>
       <use xlink:href="#DejaVuSans-6e" x="386.972656"/>
       <use xlink:href="#DejaVuSans-2d" x="450.351562"/>
       <use xlink:href="#DejaVuSans-30" x="486.435547"/>
       <use xlink:href="#DejaVuSans-31" x="550.058594"/>
      </g>
     </g>
    </g>
   </g>
   <g id="matplotlib.axis_2">
    <g id="ytick_1">
     <g id="line2d_16">
      <path d="M 53.559131 196.776875 
L 499.959131 196.776875 
" clip-path="url(#p232809a855)" style="fill: none; stroke: #b0b0b0; stroke-width: 0.8; stroke-linecap: square"/>
     </g>
     <g id="line2d_17">
      <defs>
       <path id="m3474c0e47c" d="M 0 0 
L -3.5 0 
" style="stroke: #000000; stroke-width: 0.8"/>
      </defs>
      <g>
       <use xlink:href="#m3474c0e47c" x="53.559131" y="196.776875" style="stroke: #000000; stroke-width: 0.8"/>
      </g>
     </g>
     <g id="text_16">
      <!-- 0 -->
      <g transform="translate(40.196631 200.576094)scale(0.1 -0.1)">
       <use xlink:href="#DejaVuSans-30"/>
      </g>
     </g>
    </g>
    <g id="ytick_2">
     <g id="line2d_18">
      <path d="M 53.559131 179.640875 
L 499.959131 179.640875 
" clip-path="url(#p232809a855)" style="fill: none; stroke: #b0b0b0; stroke-width: 0.8; stroke-linecap: square"/>
     </g>
     <g id="line2d_19">
      <g>
       <use xlink:href="#m3474c0e47c" x="53.559131" y="179.640875" style="stroke: #000000; stroke-width: 0.8"/>
      </g>
     </g>
     <g id="text_17">
      <!-- 5 -->
      <g transform="translate(40.196631 183.440094)scale(0.1 -0.1)">
       <defs>
        <path id="DejaVuSans-35" d="M 691 4666 
L 3169 4666 
L 3169 4134 
L 1269 4134 
L 1269 2991 
Q 1406 3038 1543 3061 
Q 1681 3084 1819 3084 
Q 2600 3084 3056 2656 
Q 3513 2228 3513 1497 
Q 3513 744 3044 326 
Q 2575 -91 1722 -91 
Q 1428 -91 1123 -41 
Q 819 9 494 109 
L 494 744 
Q 775 591 1075 516 
Q 1375 441 1709 441 
Q 2250 441 2565 725 
Q 2881 1009 2881 1497 
Q 2881 1984 2565 2268 
Q 2250 2553 1709 2553 
Q 1456 2553 1204 2497 
Q 953 2441 691 2322 
L 691 4666 
z
" transform="scale(0.015625)"/>
       </defs>
       <use xlink:href="#DejaVuSans-35"/>
      </g>
     </g>
    </g>
    <g id="ytick_3">
     <g id="line2d_20">
      <path d="M 53.559131 162.504875 
L 499.959131 162.504875 
" clip-path="url(#p232809a855)" style="fill: none; stroke: #b0b0b0; stroke-width: 0.8; stroke-linecap: square"/>
     </g>
     <g id="line2d_21">
      <g>
       <use xlink:href="#m3474c0e47c" x="53.559131" y="162.504875" style="stroke: #000000; stroke-width: 0.8"/>
      </g>
     </g>
     <g id="text_18">
      <!-- 10 -->
      <g transform="translate(33.834131 166.304094)scale(0.1 -0.1)">
       <use xlink:href="#DejaVuSans-31"/>
       <use xlink:href="#DejaVuSans-30" x="63.623047"/>
      </g>
     </g>
    </g>
    <g id="ytick_4">
     <g id="line2d_22">
      <path d="M 53.559131 145.368875 
L 499.959131 145.368875 
" clip-path="url(#p232809a855)" style="fill: none; stroke: #b0b0b0; stroke-width: 0.8; stroke-linecap: square"/>
     </g>
     <g id="line2d_23">
      <g>
       <use xlink:href="#m3474c0e47c" x="53.559131" y="145.368875" style="stroke: #000000; stroke-width: 0.8"/>
      </g>
     </g>
     <g id="text_19">
      <!-- 15 -->
      <g transform="translate(33.834131 149.168094)scale(0.1 -0.1)">
       <use xlink:href="#DejaVuSans-31"/>
       <use xlink:href="#DejaVuSans-35" x="63.623047"/>
      </g>
     </g>
    </g>
    <g id="ytick_5">
     <g id="line2d_24">
      <path d="M 53.559131 128.232875 
L 499.959131 128.232875 
" clip-path="url(#p232809a855)" style="fill: none; stroke: #b0b0b0; stroke-width: 0.8; stroke-linecap: square"/>
     </g>
     <g id="line2d_25">
      <g>
       <use xlink:href="#m3474c0e47c" x="53.559131" y="128.232875" style="stroke: #000000; stroke-width: 0.8"/>
      </g>
     </g>
     <g id="text_20">
      <!-- 20 -->
      <g transform="translate(33.834131 132.032094)scale(0.1 -0.1)">
       <use xlink:href="#DejaVuSans-32"/>
       <use xlink:href="#DejaVuSans-30" x="63.623047"/>
      </g>
     </g>
    </g>
    <g id="ytick_6">
     <g id="line2d_26">
      <path d="M 53.559131 111.096875 
L 499.959131 111.096875 
" clip-path="url(#p232809a855)" style="fill: none; stroke: #b0b0b0; stroke-width: 0.8; stroke-linecap: square"/>
     </g>
     <g id="line2d_27">
      <g>
       <use xlink:href="#m3474c0e47c" x="53.559131" y="111.096875" style="stroke: #000000; stroke-width: 0.8"/>
      </g>
     </g>
     <g id="text_21">
      <!-- 25 -->
      <g transform="translate(33.834131 114.896094)scale(0.1 -0.1)">
       <use xlink:href="#DejaVuSans-32"/>
       <use xlink:href="#DejaVuSans-35" x="63.623047"/>
      </g>
     </g>
    </g>
    <g id="ytick_7">
     <g id="line2d_28">
      <path d="M 53.559131 93.960875 
L 499.959131 93.960875 
" clip-path="url(#p232809a855)" style="fill: none; stroke: #b0b0b0; stroke-width: 0.8; stroke-linecap: square"/>
     </g>
     <g id="line2d_29">
      <g>
       <use xlink:href="#m3474c0e47c" x="53.559131" y="93.960875" style="stroke: #000000; stroke-width: 0.8"/>
      </g>
     </g>
     <g id="text_22">
      <!-- 30 -->
      <g transform="translate(33.834131 97.760094)scale(0.1 -0.1)">
       <defs>
        <path id="DejaVuSans-33" d="M 2597 2516 
Q 3050 2419 3304 2112 
Q 3559 1806 3559 1356 
Q 3559 666 3084 287 
Q 2609 -91 1734 -91 
Q 1441 -91 1130 -33 
Q 819 25 488 141 
L 488 750 
Q 750 597 1062 519 
Q 1375 441 1716 441 
Q 2309 441 2620 675 
Q 2931 909 2931 1356 
Q 2931 1769 2642 2001 
Q 2353 2234 1838 2234 
L 1294 2234 
L 1294 2753 
L 1863 2753 
Q 2328 2753 2575 2939 
Q 2822 3125 2822 3475 
Q 2822 3834 2567 4026 
Q 2313 4219 1838 4219 
Q 1578 4219 1281 4162 
Q 984 4106 628 3988 
L 628 4550 
Q 988 4650 1302 4700 
Q 1616 4750 1894 4750 
Q 2613 4750 3031 4423 
Q 3450 4097 3450 3541 
Q 3450 3153 3228 2886 
Q 3006 2619 2597 2516 
z
" transform="scale(0.015625)"/>
       </defs>
       <use xlink:href="#DejaVuSans-33"/>
       <use xlink:href="#DejaVuSans-30" x="63.623047"/>
      </g>
     </g>
    </g>
    <g id="ytick_8">
     <g id="line2d_30">
      <path d="M 53.559131 76.824875 
L 499.959131 76.824875 
" clip-path="url(#p232809a855)" style="fill: none; stroke: #b0b0b0; stroke-width: 0.8; stroke-linecap: square"/>
     </g>
     <g id="line2d_31">
      <g>
       <use xlink:href="#m3474c0e47c" x="53.559131" y="76.824875" style="stroke: #000000; stroke-width: 0.8"/>
      </g>
     </g>
     <g id="text_23">
      <!-- 35 -->
      <g transform="translate(33.834131 80.624094)scale(0.1 -0.1)">
       <use xlink:href="#DejaVuSans-33"/>
       <use xlink:href="#DejaVuSans-35" x="63.623047"/>
      </g>
     </g>
    </g>
    <g id="ytick_9">
     <g id="line2d_32">
      <path d="M 53.559131 59.688875 
L 499.959131 59.688875 
" clip-path="url(#p232809a855)" style="fill: none; stroke: #b0b0b0; stroke-width: 0.8; stroke-linecap: square"/>
     </g>
     <g id="line2d_33">
      <g>
       <use xlink:href="#m3474c0e47c" x="53.559131" y="59.688875" style="stroke: #000000; stroke-width: 0.8"/>
      </g>
     </g>
     <g id="text_24">
      <!-- 40 -->
      <g transform="translate(33.834131 63.488094)scale(0.1 -0.1)">
       <defs>
        <path id="DejaVuSans-34" d="M 2419 4116 
L 825 1625 
L 2419 1625 
L 2419 4116 
z
M 2253 4666 
L 3047 4666 
L 3047 1625 
L 3713 1625 
L 3713 1100 
L 3047 1100 
L 3047 0 
L 2419 0 
L 2419 1100 
L 313 1100 
L 313 1709 
L 2253 4666 
z
" transform="scale(0.015625)"/>
       </defs>
       <use xlink:href="#DejaVuSans-34"/>
       <use xlink:href="#DejaVuSans-30" x="63.623047"/>
      </g>
     </g>
    </g>
    <g id="ytick_10">
     <g id="line2d_34">
      <path d="M 53.559131 42.552875 
L 499.959131 42.552875 
" clip-path="url(#p232809a855)" style="fill: none; stroke: #b0b0b0; stroke-width: 0.8; stroke-linecap: square"/>
     </g>
     <g id="line2d_35">
      <g>
       <use xlink:href="#m3474c0e47c" x="53.559131" y="42.552875" style="stroke: #000000; stroke-width: 0.8"/>
      </g>
     </g>
     <g id="text_25">
      <!-- 45 -->
      <g transform="translate(33.834131 46.352094)scale(0.1 -0.1)">
       <use xlink:href="#DejaVuSans-34"/>
       <use xlink:href="#DejaVuSans-35" x="63.623047"/>
      </g>
     </g>
    </g>
    <g id="ytick_11">
     <g id="line2d_36">
      <path d="M 53.559131 25.416875 
L 499.959131 25.416875 
" clip-path="url(#p232809a855)" style="fill: none; stroke: #b0b0b0; stroke-width: 0.8; stroke-linecap: square"/>
     </g>
     <g id="line2d_37">
      <g>
       <use xlink:href="#m3474c0e47c" x="53.559131" y="25.416875" style="stroke: #000000; stroke-width: 0.8"/>
      </g>
     </g>
     <g id="text_26">
      <!-- 50 -->
      <g transform="translate(33.834131 29.216094)scale(0.1 -0.1)">
       <use xlink:href="#DejaVuSans-35"/>
       <use xlink:href="#DejaVuSans-30" x="63.623047"/>
      </g>
     </g>
    </g>
    <g id="text_27">
     <!-- Percentage Of Domains Using security.txt -->
     <g transform="translate(27.754443 214.99375)rotate(-90)scale(0.1 -0.1)">
      <defs>
       <path id="DejaVuSans-50" d="M 1259 4147 
L 1259 2394 
L 2053 2394 
Q 2494 2394 2734 2622 
Q 2975 2850 2975 3272 
Q 2975 3691 2734 3919 
Q 2494 4147 2053 4147 
L 1259 4147 
z
M 628 4666 
L 2053 4666 
Q 2838 4666 3239 4311 
Q 3641 3956 3641 3272 
Q 3641 2581 3239 2228 
Q 2838 1875 2053 1875 
L 1259 1875 
L 1259 0 
L 628 0 
L 628 4666 
z
" transform="scale(0.015625)"/>
       <path id="DejaVuSans-20" transform="scale(0.015625)"/>
       <path id="DejaVuSans-66" d="M 2375 4863 
L 2375 4384 
L 1825 4384 
Q 1516 4384 1395 4259 
Q 1275 4134 1275 3809 
L 1275 3500 
L 2222 3500 
L 2222 3053 
L 1275 3053 
L 1275 0 
L 697 0 
L 697 3053 
L 147 3053 
L 147 3500 
L 697 3500 
L 697 3744 
Q 697 4328 969 4595 
Q 1241 4863 1831 4863 
L 2375 4863 
z
" transform="scale(0.015625)"/>
       <path id="DejaVuSans-6d" d="M 3328 2828 
Q 3544 3216 3844 3400 
Q 4144 3584 4550 3584 
Q 5097 3584 5394 3201 
Q 5691 2819 5691 2113 
L 5691 0 
L 5113 0 
L 5113 2094 
Q 5113 2597 4934 2840 
Q 4756 3084 4391 3084 
Q 3944 3084 3684 2787 
Q 3425 2491 3425 1978 
L 3425 0 
L 2847 0 
L 2847 2094 
Q 2847 2600 2669 2842 
Q 2491 3084 2119 3084 
Q 1678 3084 1418 2786 
Q 1159 2488 1159 1978 
L 1159 0 
L 581 0 
L 581 3500 
L 1159 3500 
L 1159 2956 
Q 1356 3278 1631 3431 
Q 1906 3584 2284 3584 
Q 2666 3584 2933 3390 
Q 3200 3197 3328 2828 
z
" transform="scale(0.015625)"/>
       <path id="DejaVuSans-69" d="M 603 3500 
L 1178 3500 
L 1178 0 
L 603 0 
L 603 3500 
z
M 603 4863 
L 1178 4863 
L 1178 4134 
L 603 4134 
L 603 4863 
z
" transform="scale(0.015625)"/>
       <path id="DejaVuSans-73" d="M 2834 3397 
L 2834 2853 
Q 2591 2978 2328 3040 
Q 2066 3103 1784 3103 
Q 1356 3103 1142 2972 
Q 928 2841 928 2578 
Q 928 2378 1081 2264 
Q 1234 2150 1697 2047 
L 1894 2003 
Q 2506 1872 2764 1633 
Q 3022 1394 3022 966 
Q 3022 478 2636 193 
Q 2250 -91 1575 -91 
Q 1294 -91 989 -36 
Q 684 19 347 128 
L 347 722 
Q 666 556 975 473 
Q 1284 391 1588 391 
Q 1994 391 2212 530 
Q 2431 669 2431 922 
Q 2431 1156 2273 1281 
Q 2116 1406 1581 1522 
L 1381 1569 
Q 847 1681 609 1914 
Q 372 2147 372 2553 
Q 372 3047 722 3315 
Q 1072 3584 1716 3584 
Q 2034 3584 2315 3537 
Q 2597 3491 2834 3397 
z
" transform="scale(0.015625)"/>
       <path id="DejaVuSans-55" d="M 556 4666 
L 1191 4666 
L 1191 1831 
Q 1191 1081 1462 751 
Q 1734 422 2344 422 
Q 2950 422 3222 751 
Q 3494 1081 3494 1831 
L 3494 4666 
L 4128 4666 
L 4128 1753 
Q 4128 841 3676 375 
Q 3225 -91 2344 -91 
Q 1459 -91 1007 375 
Q 556 841 556 1753 
L 556 4666 
z
" transform="scale(0.015625)"/>
       <path id="DejaVuSans-2e" d="M 684 794 
L 1344 794 
L 1344 0 
L 684 0 
L 684 794 
z
" transform="scale(0.015625)"/>
       <path id="DejaVuSans-78" d="M 3513 3500 
L 2247 1797 
L 3578 0 
L 2900 0 
L 1881 1375 
L 863 0 
L 184 0 
L 1544 1831 
L 300 3500 
L 978 3500 
L 1906 2253 
L 2834 3500 
L 3513 3500 
z
" transform="scale(0.015625)"/>
      </defs>
      <use xlink:href="#DejaVuSans-50"/>
      <use xlink:href="#DejaVuSans-65" x="56.677734"/>
      <use xlink:href="#DejaVuSans-72" x="118.201172"/>
      <use xlink:href="#DejaVuSans-63" x="157.064453"/>
      <use xlink:href="#DejaVuSans-65" x="212.044922"/>
      <use xlink:href="#DejaVuSans-6e" x="273.568359"/>
      <use xlink:href="#DejaVuSans-74" x="336.947266"/>
      <use xlink:href="#DejaVuSans-61" x="376.15625"/>
      <use xlink:href="#DejaVuSans-67" x="437.435547"/>
      <use xlink:href="#DejaVuSans-65" x="500.912109"/>
      <use xlink:href="#DejaVuSans-20" x="562.435547"/>
      <use xlink:href="#DejaVuSans-4f" x="594.222656"/>
      <use xlink:href="#DejaVuSans-66" x="672.933594"/>
      <use xlink:href="#DejaVuSans-20" x="708.138672"/>
      <use xlink:href="#DejaVuSans-44" x="739.925781"/>
      <use xlink:href="#DejaVuSans-6f" x="816.927734"/>
      <use xlink:href="#DejaVuSans-6d" x="878.109375"/>
      <use xlink:href="#DejaVuSans-61" x="975.521484"/>
      <use xlink:href="#DejaVuSans-69" x="1036.800781"/>
      <use xlink:href="#DejaVuSans-6e" x="1064.583984"/>
      <use xlink:href="#DejaVuSans-73" x="1127.962891"/>
      <use xlink:href="#DejaVuSans-20" x="1180.0625"/>
      <use xlink:href="#DejaVuSans-55" x="1211.849609"/>
      <use xlink:href="#DejaVuSans-73" x="1285.042969"/>
      <use xlink:href="#DejaVuSans-69" x="1337.142578"/>
      <use xlink:href="#DejaVuSans-6e" x="1364.925781"/>
      <use xlink:href="#DejaVuSans-67" x="1428.304688"/>
      <use xlink:href="#DejaVuSans-20" x="1491.78125"/>
      <use xlink:href="#DejaVuSans-73" x="1523.568359"/>
      <use xlink:href="#DejaVuSans-65" x="1575.667969"/>
      <use xlink:href="#DejaVuSans-63" x="1637.191406"/>
      <use xlink:href="#DejaVuSans-75" x="1692.171875"/>
      <use xlink:href="#DejaVuSans-72" x="1755.550781"/>
      <use xlink:href="#DejaVuSans-69" x="1796.664062"/>
      <use xlink:href="#DejaVuSans-74" x="1824.447266"/>
      <use xlink:href="#DejaVuSans-79" x="1863.65625"/>
      <use xlink:href="#DejaVuSans-2e" x="1908.585938"/>
      <use xlink:href="#DejaVuSans-74" x="1940.373047"/>
      <use xlink:href="#DejaVuSans-78" x="1979.582031"/>
      <use xlink:href="#DejaVuSans-74" x="2038.761719"/>
     </g>
    </g>
   </g>
   <g id="line2d_38">
    <path d="M 73.85004 76.824875 
L 74.820897 59.688875 
L 75.791754 93.960875 
L 76.762611 97.388075 
L 77.733467 87.106475 
L 78.704324 66.543275 
L 79.675181 80.252075 
L 81.616895 80.252075 
L 82.587752 87.106475 
L 83.558609 100.815275 
L 84.529466 87.106475 
L 85.500323 69.970475 
L 87.442036 90.533675 
L 88.412893 90.533675 
L 91.325464 80.252075 
L 92.296321 87.106475 
L 93.267178 73.397675 
L 94.238035 87.106475 
L 95.208892 83.679275 
L 96.179748 90.533675 
L 97.150605 90.533675 
L 98.121462 87.106475 
L 99.092319 87.106475 
L 100.063176 93.960875 
L 101.034033 97.388075 
L 102.00489 87.106475 
L 102.975747 83.679275 
L 103.946604 90.533675 
L 104.917461 73.397675 
L 105.888317 87.106475 
L 106.859174 87.106475 
L 107.830031 100.815275 
L 108.800888 80.252075 
L 110.742602 93.960875 
L 112.684316 80.252075 
L 113.655173 87.106475 
L 116.567743 87.106475 
L 117.5386 83.679275 
L 119.480314 69.970475 
L 120.451171 83.679275 
L 121.422028 83.679275 
L 122.392885 76.824875 
L 123.363742 76.824875 
L 124.334598 93.960875 
L 125.305455 69.970475 
L 127.247169 83.679275 
L 129.188883 83.679275 
L 130.15974 100.815275 
L 131.130597 87.106475 
L 132.101454 83.679275 
L 133.07231 73.397675 
L 134.043167 87.106475 
L 135.014024 83.679275 
L 135.984881 90.533675 
L 136.955738 83.679275 
L 137.926595 90.533675 
L 140.839166 93.960875 
L 143.751736 83.679275 
L 144.722593 90.533675 
L 145.69345 100.815275 
L 146.664307 87.106475 
L 147.635164 100.815275 
L 148.606021 76.824875 
L 157.343733 107.669675 
L 158.31459 83.679275 
L 160.256303 83.679275 
L 161.22716 97.388075 
L 162.198017 83.679275 
L 163.168874 107.669675 
L 164.139731 87.106475 
L 165.110588 90.533675 
L 166.081445 104.242475 
L 167.052302 87.106475 
L 168.023159 100.815275 
L 168.994016 87.106475 
L 170.935729 100.815275 
L 171.906586 93.960875 
L 172.877443 100.815275 
L 173.8483 90.533675 
L 174.819157 107.669675 
L 175.790014 97.388075 
L 176.760871 83.679275 
L 178.702584 90.533675 
L 179.673441 90.533675 
L 180.644298 97.388075 
L 181.615155 100.815275 
L 182.586012 93.960875 
L 183.556869 104.242475 
L 185.498583 104.242475 
L 186.46944 97.388075 
L 187.440297 107.669675 
L 188.411153 87.106475 
L 189.38201 83.679275 
L 190.352867 90.533675 
L 191.323724 90.533675 
L 192.294581 80.252075 
L 194.236295 107.669675 
L 195.207152 93.960875 
L 197.148865 93.960875 
L 198.119722 83.679275 
L 210.740862 87.106475 
L 211.711719 83.679275 
L 212.682576 73.397675 
L 213.653433 80.252075 
L 214.62429 83.679275 
L 215.595146 93.960875 
L 216.566003 76.824875 
L 217.53686 69.970475 
L 218.507717 93.960875 
L 219.478574 80.252075 
L 220.449431 83.679275 
L 221.420288 80.252075 
L 222.391145 69.970475 
L 223.362002 83.679275 
L 226.274572 76.824875 
L 227.245429 73.397675 
L 228.216286 76.824875 
L 229.187143 69.970475 
L 230.158 87.106475 
L 231.128857 66.543275 
L 233.070571 59.688875 
L 234.041427 83.679275 
L 236.953998 76.824875 
L 237.924855 83.679275 
L 238.895712 83.679275 
L 239.866569 87.106475 
L 240.837426 76.824875 
L 245.69171 93.960875 
L 246.662567 73.397675 
L 247.633424 69.970475 
L 248.604281 83.679275 
L 249.575138 80.252075 
L 250.545995 80.252075 
L 251.516852 73.397675 
L 252.487708 90.533675 
L 253.458565 69.970475 
L 254.429422 76.824875 
L 255.400279 87.106475 
L 256.371136 76.824875 
L 257.341993 69.970475 
L 258.31285 87.106475 
L 259.283707 90.533675 
L 260.254564 83.679275 
L 261.22542 93.960875 
L 262.196277 76.824875 
L 263.167134 93.960875 
L 264.137991 76.824875 
L 265.108848 87.106475 
L 266.079705 80.252075 
L 267.050562 76.824875 
L 268.021419 69.970475 
L 268.992276 83.679275 
L 269.963133 69.970475 
L 270.933989 83.679275 
L 271.904846 69.970475 
L 272.875703 76.824875 
L 273.84656 97.388075 
L 274.817417 83.679275 
L 276.759131 90.533675 
L 277.729988 76.824875 
L 278.700845 90.533675 
L 279.671701 69.970475 
L 280.642558 90.533675 
L 281.613415 93.960875 
L 282.584272 87.106475 
L 283.555129 76.824875 
L 284.525986 83.679275 
L 285.496843 80.252075 
L 286.4677 87.106475 
L 287.438557 107.669675 
L 288.409414 90.533675 
L 290.351127 69.970475 
L 291.321984 83.679275 
L 292.292841 100.815275 
L 293.263698 76.824875 
L 294.234555 66.543275 
L 296.176269 63.116075 
L 299.088839 69.970475 
L 301.030553 90.533675 
L 304.913981 73.397675 
L 305.884838 80.252075 
L 333.068831 76.824875 
L 334.039688 87.106475 
L 335.010544 69.970475 
L 335.981401 80.252075 
L 336.952258 66.543275 
L 337.923115 76.824875 
L 338.893972 80.252075 
L 339.864829 63.116075 
L 340.835686 80.252075 
L 341.806543 73.397675 
L 342.7774 87.106475 
L 343.748257 76.824875 
L 344.719113 80.252075 
L 345.68997 69.970475 
L 346.660827 83.679275 
L 347.631684 69.970475 
L 348.602541 87.106475 
L 349.573398 76.824875 
L 350.544255 69.970475 
L 368.019679 52.834475 
L 368.990536 80.252075 
L 370.93225 76.824875 
L 372.873963 63.116075 
L 373.84482 83.679275 
L 374.815677 56.261675 
L 375.786534 69.970475 
L 376.757391 73.397675 
L 377.728248 56.261675 
L 378.699105 83.679275 
L 379.669962 87.106475 
L 380.640818 76.824875 
L 382.582532 90.533675 
L 383.553389 87.106475 
L 384.524246 87.106475 
L 385.495103 69.970475 
L 388.407674 66.543275 
L 389.378531 59.688875 
L 390.349387 80.252075 
L 391.320244 83.679275 
L 392.291101 93.960875 
L 393.261958 59.688875 
L 394.232815 69.970475 
L 395.203672 76.824875 
L 396.174529 69.970475 
L 397.145386 76.824875 
L 398.116243 52.834475 
L 399.087099 52.834475 
L 400.057956 76.824875 
L 401.028813 76.824875 
L 401.99967 66.543275 
L 402.970527 69.970475 
L 403.941384 87.106475 
L 404.912241 52.834475 
L 405.883098 69.970475 
L 406.853955 73.397675 
L 407.824812 73.397675 
L 408.795668 69.970475 
L 409.766525 80.252075 
L 410.737382 73.397675 
L 411.708239 76.824875 
L 412.679096 59.688875 
L 413.649953 59.688875 
L 414.62081 76.824875 
L 415.591667 83.679275 
L 416.562524 76.824875 
L 417.53338 63.116075 
L 418.504237 73.397675 
L 419.475094 63.116075 
L 420.445951 63.116075 
L 421.416808 52.834475 
L 422.387665 69.970475 
L 423.358522 73.397675 
L 424.329379 93.960875 
L 425.300236 59.688875 
L 426.271093 76.824875 
L 427.241949 66.543275 
L 428.212806 66.543275 
L 429.183663 63.116075 
L 430.15452 66.543275 
L 431.125377 80.252075 
L 434.037948 73.397675 
L 435.008805 63.116075 
L 435.979661 63.116075 
L 436.950518 83.679275 
L 437.921375 63.116075 
L 438.892232 59.688875 
L 439.863089 73.397675 
L 440.833946 83.679275 
L 441.804803 76.824875 
L 442.77566 80.252075 
L 443.746517 69.970475 
L 444.717374 76.824875 
L 445.68823 87.106475 
L 446.659087 66.543275 
L 447.629944 66.543275 
L 448.600801 76.824875 
L 449.571658 73.397675 
L 450.542515 63.116075 
L 451.513372 66.543275 
L 452.484229 66.543275 
L 453.455086 69.970475 
L 454.425942 69.970475 
L 455.396799 59.688875 
L 456.367656 73.397675 
L 457.338513 73.397675 
L 458.30937 76.824875 
L 459.280227 73.397675 
L 460.251084 52.834475 
L 462.192798 66.543275 
L 463.163655 59.688875 
L 464.134511 73.397675 
L 465.105368 59.688875 
L 466.076225 73.397675 
L 467.047082 59.688875 
L 469.959653 56.261675 
L 470.93051 76.824875 
L 472.872223 56.261675 
L 473.84308 69.970475 
L 474.813937 63.116075 
L 475.784794 90.533675 
L 476.755651 66.543275 
L 477.726508 63.116075 
L 478.697365 73.397675 
L 479.668222 69.970475 
L 479.668222 69.970475 
" clip-path="url(#p232809a855)" style="fill: none; stroke: #1f77b4; stroke-width: 1.5; stroke-linecap: square"/>
   </g>
   <g id="line2d_39">
    <path d="M 73.85004 113.381675 
L 74.820897 110.335275 
L 75.791754 109.573675 
L 76.762611 111.477675 
L 77.733467 111.858475 
L 78.704324 114.524075 
L 79.675181 109.954475 
L 80.646038 112.239275 
L 81.616895 107.288875 
L 82.587752 113.381675 
L 83.558609 109.954475 
L 84.529466 112.239275 
L 85.500323 111.477675 
L 86.47118 112.620075 
L 87.442036 110.716075 
L 88.412893 110.716075 
L 91.325464 106.908075 
L 92.296321 108.812075 
L 93.267178 112.620075 
L 94.238035 110.335275 
L 95.208892 107.669675 
L 96.179748 107.288875 
L 97.150605 110.335275 
L 98.121462 109.954475 
L 99.092319 109.192875 
L 100.063176 107.288875 
L 101.034033 105.765675 
L 102.00489 108.431275 
L 102.975747 106.146475 
L 103.946604 109.192875 
L 105.888317 108.431275 
L 106.859174 107.288875 
L 107.830031 108.431275 
L 108.800888 106.527275 
L 109.771745 107.288875 
L 110.742602 107.288875 
L 111.713459 106.527275 
L 112.684316 108.050475 
L 113.655173 105.004075 
L 115.596886 107.288875 
L 116.567743 104.242475 
L 117.5386 104.623275 
L 118.509457 106.527275 
L 119.480314 104.242475 
L 120.451171 107.288875 
L 121.422028 103.861675 
L 122.392885 105.384875 
L 123.363742 102.338475 
L 124.334598 110.335275 
L 125.305455 105.765675 
L 127.247169 106.527275 
L 129.188883 112.239275 
L 130.15974 106.527275 
L 131.130597 106.908075 
L 132.101454 106.908075 
L 133.07231 107.669675 
L 134.043167 110.335275 
L 135.014024 105.004075 
L 135.984881 106.908075 
L 136.955738 104.623275 
L 137.926595 103.100075 
L 140.839166 107.288875 
L 143.751736 106.146475 
L 144.722593 105.004075 
L 145.69345 105.004075 
L 146.664307 104.242475 
L 147.635164 105.004075 
L 148.606021 107.669675 
L 157.343733 105.004075 
L 158.31459 109.192875 
L 160.256303 103.480875 
L 161.22716 106.146475 
L 162.198017 107.288875 
L 163.168874 105.765675 
L 164.139731 109.573675 
L 165.110588 105.384875 
L 166.081445 102.338475 
L 167.052302 105.004075 
L 168.023159 106.146475 
L 168.994016 105.004075 
L 169.964872 104.242475 
L 170.935729 99.292075 
L 171.906586 98.911275 
L 172.877443 100.815275 
L 173.8483 98.911275 
L 174.819157 100.434475 
L 175.790014 105.384875 
L 176.760871 101.576875 
L 177.731728 101.957675 
L 178.702584 103.480875 
L 179.673441 106.146475 
L 180.644298 108.050475 
L 181.615155 105.384875 
L 182.586012 106.527275 
L 183.556869 106.908075 
L 184.527726 101.576875 
L 185.498583 98.911275 
L 186.46944 105.384875 
L 187.440297 104.623275 
L 188.411153 107.669675 
L 189.38201 108.050475 
L 190.352867 105.765675 
L 191.323724 106.146475 
L 192.294581 103.861675 
L 194.236295 105.004075 
L 195.207152 104.623275 
L 196.178009 106.908075 
L 197.148865 109.573675 
L 198.119722 106.527275 
L 210.740862 110.716075 
L 211.711719 107.288875 
L 212.682576 110.716075 
L 213.653433 110.716075 
L 214.62429 110.335275 
L 215.595146 107.669675 
L 216.566003 111.477675 
L 217.53686 106.527275 
L 218.507717 109.573675 
L 219.478574 107.669675 
L 220.449431 111.858475 
L 221.420288 107.288875 
L 222.391145 106.908075 
L 223.362002 109.954475 
L 226.274572 109.573675 
L 227.245429 108.431275 
L 228.216286 106.527275 
L 229.187143 111.096875 
L 230.158 108.050475 
L 231.128857 106.527275 
L 232.099714 107.669675 
L 233.070571 107.669675 
L 234.041427 111.477675 
L 236.953998 109.192875 
L 237.924855 110.335275 
L 238.895712 107.288875 
L 239.866569 107.669675 
L 240.837426 108.812075 
L 241.808283 109.192875 
L 245.69171 106.146475 
L 246.662567 109.192875 
L 247.633424 107.669675 
L 248.604281 107.288875 
L 249.575138 105.765675 
L 250.545995 109.573675 
L 251.516852 108.431275 
L 252.487708 105.384875 
L 253.458565 108.050475 
L 255.400279 109.573675 
L 256.371136 108.050475 
L 257.341993 104.242475 
L 258.31285 110.335275 
L 259.283707 105.765675 
L 260.254564 105.765675 
L 261.22542 105.004075 
L 262.196277 106.908075 
L 263.167134 106.527275 
L 265.108848 109.573675 
L 266.079705 105.384875 
L 267.050562 105.384875 
L 268.021419 107.288875 
L 268.992276 108.050475 
L 269.963133 101.957675 
L 270.933989 106.527275 
L 271.904846 106.908075 
L 272.875703 106.908075 
L 273.84656 106.146475 
L 274.817417 108.431275 
L 275.788274 108.431275 
L 276.759131 104.623275 
L 277.729988 109.573675 
L 278.700845 105.384875 
L 279.671701 108.050475 
L 280.642558 107.288875 
L 281.613415 101.957675 
L 282.584272 107.669675 
L 283.555129 103.480875 
L 284.525986 106.146475 
L 285.496843 105.765675 
L 286.4677 104.623275 
L 287.438557 105.384875 
L 288.409414 107.288875 
L 289.38027 105.765675 
L 290.351127 105.004075 
L 291.321984 107.669675 
L 292.292841 107.288875 
L 293.263698 108.050475 
L 294.234555 108.050475 
L 296.176269 106.146475 
L 299.088839 108.050475 
L 301.030553 102.719275 
L 304.913981 108.050475 
L 305.884838 102.719275 
L 333.068831 105.384875 
L 334.039688 102.719275 
L 335.010544 106.527275 
L 335.981401 112.620075 
L 336.952258 107.288875 
L 337.923115 107.288875 
L 338.893972 105.004075 
L 339.864829 106.908075 
L 340.835686 104.242475 
L 342.7774 107.288875 
L 343.748257 102.719275 
L 344.719113 105.765675 
L 345.68997 102.338475 
L 346.660827 104.623275 
L 347.631684 102.719275 
L 348.602541 103.100075 
L 349.573398 101.576875 
L 350.544255 107.288875 
L 368.019679 104.242475 
L 368.990536 106.146475 
L 370.93225 102.338475 
L 371.903106 103.100075 
L 372.873963 103.100075 
L 373.84482 98.911275 
L 374.815677 102.719275 
L 375.786534 102.719275 
L 376.757391 100.815275 
L 377.728248 101.576875 
L 378.699105 101.957675 
L 379.669962 100.053675 
L 380.640818 103.480875 
L 382.582532 106.527275 
L 383.553389 102.338475 
L 384.524246 104.623275 
L 385.495103 99.672875 
L 388.407674 100.053675 
L 389.378531 99.672875 
L 391.320244 102.719275 
L 392.291101 101.957675 
L 393.261958 100.815275 
L 394.232815 101.957675 
L 395.203672 103.480875 
L 396.174529 105.765675 
L 397.145386 102.719275 
L 398.116243 103.100075 
L 399.087099 102.719275 
L 400.057956 100.434475 
L 401.028813 102.338475 
L 401.99967 102.719275 
L 402.970527 102.338475 
L 403.941384 103.861675 
L 404.912241 101.196075 
L 405.883098 101.196075 
L 406.853955 101.576875 
L 407.824812 101.576875 
L 408.795668 103.861675 
L 409.766525 100.434475 
L 410.737382 102.719275 
L 411.708239 100.815275 
L 412.679096 102.338475 
L 413.649953 104.242475 
L 414.62081 103.100075 
L 415.591667 102.719275 
L 416.562524 104.242475 
L 417.53338 103.861675 
L 418.504237 105.004075 
L 419.475094 103.100075 
L 420.445951 102.719275 
L 421.416808 104.623275 
L 422.387665 102.719275 
L 423.358522 101.576875 
L 424.329379 102.338475 
L 425.300236 101.957675 
L 426.271093 99.292075 
L 427.241949 102.719275 
L 428.212806 102.338475 
L 429.183663 101.576875 
L 431.125377 101.576875 
L 434.037948 98.911275 
L 435.008805 98.911275 
L 435.979661 99.292075 
L 436.950518 100.815275 
L 437.921375 105.384875 
L 438.892232 103.861675 
L 439.863089 102.719275 
L 440.833946 102.338475 
L 441.804803 98.530475 
L 442.77566 100.815275 
L 443.746517 100.815275 
L 444.717374 94.722475 
L 445.68823 100.434475 
L 446.659087 97.388075 
L 447.629944 96.626475 
L 448.600801 102.338475 
L 449.571658 99.672875 
L 450.542515 99.672875 
L 451.513372 100.815275 
L 452.484229 101.196075 
L 453.455086 99.292075 
L 454.425942 101.576875 
L 455.396799 100.053675 
L 457.338513 103.100075 
L 458.30937 99.292075 
L 459.280227 100.053675 
L 460.251084 96.245675 
L 462.192798 102.719275 
L 463.163655 102.338475 
L 464.134511 100.053675 
L 465.105368 97.388075 
L 466.076225 100.434475 
L 467.047082 103.100075 
L 469.959653 104.242475 
L 470.93051 101.957675 
L 471.901367 98.149675 
L 472.872223 101.196075 
L 473.84308 98.911275 
L 474.813937 93.960875 
L 475.784794 97.388075 
L 476.755651 99.292075 
L 477.726508 102.338475 
L 478.697365 98.530475 
L 479.668222 97.007275 
L 479.668222 97.007275 
" clip-path="url(#p232809a855)" style="fill: none; stroke: #ff7f0e; stroke-width: 1.5; stroke-linecap: square"/>
   </g>
   <g id="line2d_40">
    <path d="M 73.85004 143.198315 
L 74.820897 143.541035 
L 75.791754 142.741355 
L 76.762611 142.474795 
L 77.733467 142.855595 
L 78.704324 142.017835 
L 79.675181 141.598955 
L 80.646038 141.637035 
L 81.616895 141.941675 
L 82.587752 141.675115 
L 83.558609 142.055915 
L 84.529466 141.294315 
L 85.500323 141.180075 
L 86.47118 141.751275 
L 87.442036 140.989675 
L 91.325464 141.751275 
L 92.296321 140.951595 
L 93.267178 141.103915 
L 95.208892 142.017835 
L 96.179748 141.865515 
L 97.150605 141.218155 
L 98.121462 141.789355 
L 99.092319 141.294315 
L 100.063176 141.065835 
L 101.034033 140.951595 
L 102.00489 141.180075 
L 102.975747 140.570795 
L 103.946604 140.989675 
L 105.888317 141.065835 
L 106.859174 141.598955 
L 107.830031 141.408555 
L 108.800888 141.598955 
L 110.742602 140.875435 
L 111.713459 141.408555 
L 113.655173 141.256235 
L 115.596886 141.027755 
L 116.567743 140.037675 
L 117.5386 140.608875 
L 118.509457 140.913515 
L 119.480314 140.761195 
L 121.422028 139.733035 
L 122.392885 140.761195 
L 123.363742 140.532715 
L 124.334598 140.418475 
L 125.305455 140.761195 
L 127.247169 139.847275 
L 129.188883 140.646955 
L 130.15974 140.875435 
L 132.101454 140.037675 
L 133.07231 139.961515 
L 134.043167 140.342315 
L 135.014024 140.532715 
L 135.984881 140.913515 
L 136.955738 140.989675 
L 137.926595 140.761195 
L 140.839166 140.380395 
L 143.751736 140.570795 
L 146.664307 139.999595 
L 148.606021 140.075755 
L 157.343733 139.618795 
L 158.31459 139.123755 
L 161.22716 138.628715 
L 162.198017 138.742955 
L 164.139731 139.390315 
L 165.110588 138.285995 
L 166.081445 138.971435 
L 167.052302 138.666795 
L 168.023159 138.857195 
L 168.994016 138.400235 
L 169.964872 138.133675 
L 170.935729 137.524395 
L 171.906586 138.628715 
L 172.877443 138.552555 
L 173.8483 138.171755 
L 174.819157 138.362155 
L 176.760871 138.324075 
L 178.702584 137.714795 
L 179.673441 138.247915 
L 180.644298 137.486315 
L 182.586012 137.981355 
L 183.556869 137.943275 
L 184.527726 138.476395 
L 185.498583 137.981355 
L 188.411153 137.981355 
L 189.38201 137.867115 
L 190.352867 138.171755 
L 191.323724 137.295915 
L 192.294581 137.448235 
L 194.236295 136.991275 
L 195.207152 137.676715 
L 196.178009 137.524395 
L 197.148865 137.181675 
L 198.119722 137.372075 
L 210.740862 137.067435 
L 211.711719 137.295915 
L 212.682576 136.838955 
L 213.653433 137.410155 
L 214.62429 136.991275 
L 215.595146 136.953195 
L 216.566003 136.343915 
L 217.53686 136.953195 
L 219.478574 137.410155 
L 221.420288 136.267755 
L 222.391145 136.305835 
L 223.362002 136.877035 
L 227.245429 136.496235 
L 228.216286 136.153515 
L 229.187143 136.610475 
L 230.158 136.153515 
L 231.128857 136.458155 
L 232.099714 136.420075 
L 233.070571 136.648555 
L 234.041427 136.420075 
L 236.953998 136.838955 
L 237.924855 136.343915 
L 238.895712 136.153515 
L 239.866569 136.800875 
L 240.837426 135.963115 
L 241.808283 135.468075 
L 245.69171 136.115435 
L 246.662567 135.239595 
L 247.633424 135.658475 
L 248.604281 136.458155 
L 249.575138 135.353835 
L 250.545995 135.734635 
L 251.516852 135.506155 
L 252.487708 134.744555 
L 253.458565 135.429995 
L 254.429422 134.973035 
L 255.400279 135.315755 
L 256.371136 135.391915 
L 258.31285 134.782635 
L 259.283707 135.696555 
L 260.254564 135.201515 
L 261.22542 135.125355 
L 262.196277 135.163435 
L 263.167134 135.658475 
L 264.137991 135.544235 
L 265.108848 135.620395 
L 266.079705 135.391915 
L 267.050562 135.810795 
L 268.021419 135.734635 
L 268.992276 134.554155 
L 269.963133 134.706475 
L 270.933989 135.506155 
L 271.904846 135.468075 
L 273.84656 134.782635 
L 274.817417 135.544235 
L 275.788274 134.516075 
L 276.759131 134.973035 
L 277.729988 134.782635 
L 278.700845 135.506155 
L 279.671701 135.468075 
L 280.642558 134.973035 
L 281.613415 135.011115 
L 282.584272 134.401835 
L 283.555129 134.668395 
L 285.496843 134.896875 
L 286.4677 134.325675 
L 287.438557 134.135275 
L 288.409414 133.830635 
L 289.38027 133.944875 
L 290.351127 133.678315 
L 291.321984 134.477995 
L 292.292841 134.021035 
L 293.263698 133.830635 
L 294.234555 133.754475 
L 296.176269 133.906795 
L 299.088839 134.363755 
L 301.030553 134.059115 
L 304.913981 133.183275 
L 305.884838 133.297515 
L 333.068831 131.621995 
L 334.039688 131.964715 
L 335.010544 130.860395 
L 335.981401 131.088875 
L 336.952258 130.898475 
L 337.923115 130.517675 
L 338.893972 131.126955 
L 340.835686 131.545835 
L 341.806543 130.517675 
L 342.7774 130.708075 
L 343.748257 131.088875 
L 344.719113 130.251115 
L 345.68997 131.012715 
L 346.660827 130.860395 
L 348.602541 130.060715 
L 350.544255 130.136875 
L 368.019679 129.832235 
L 368.990536 130.174955 
L 370.93225 130.479595 
L 371.903106 130.289195 
L 372.873963 129.375275 
L 373.84482 130.327275 
L 374.815677 129.794155 
L 375.786534 129.641835 
L 376.757391 129.679915 
L 377.728248 129.946475 
L 378.699105 129.413355 
L 379.669962 129.184875 
L 380.640818 129.489515 
L 381.611675 128.804075 
L 382.582532 129.527595 
L 383.553389 129.108715 
L 384.524246 129.375275 
L 388.407674 129.375275 
L 389.378531 129.184875 
L 390.349387 129.146795 
L 391.320244 128.842155 
L 392.291101 128.880235 
L 394.232815 128.499435 
L 395.203672 128.575595 
L 396.174529 127.852075 
L 398.116243 127.852075 
L 399.087099 128.537515 
L 400.057956 128.270955 
L 401.028813 129.261035 
L 401.99967 128.689835 
L 402.970527 129.146795 
L 403.941384 128.765995 
L 404.912241 128.232875 
L 405.883098 128.461355 
L 406.853955 127.737835 
L 407.824812 128.385195 
L 408.795668 128.385195 
L 409.766525 128.118635 
L 410.737382 128.080555 
L 411.708239 127.890155 
L 412.679096 128.194795 
L 413.649953 127.471275 
L 414.62081 127.852075 
L 415.591667 127.775915 
L 416.562524 128.270955 
L 417.53338 127.395115 
L 418.504237 127.433195 
L 419.475094 127.090475 
L 420.445951 127.280875 
L 421.416808 127.357035 
L 422.387665 126.861995 
L 425.300236 127.813995 
L 426.271093 127.509355 
L 429.183663 127.242795 
L 430.15452 127.280875 
L 431.125377 126.976235 
L 434.037948 126.709675 
L 435.979661 127.166635 
L 436.950518 127.090475 
L 437.921375 127.395115 
L 438.892232 126.900075 
L 439.863089 125.871915 
L 440.833946 126.138475 
L 441.804803 126.861995 
L 442.77566 126.405035 
L 444.717374 126.938155 
L 445.68823 125.605355 
L 447.629944 126.671595 
L 448.600801 126.633515 
L 449.571658 127.128555 
L 450.542515 126.024235 
L 451.513372 125.681515 
L 452.484229 125.833835 
L 453.455086 126.100395 
L 454.425942 124.957995 
L 455.396799 125.909995 
L 457.338513 124.919915 
L 458.30937 124.843755 
L 459.280227 125.148395 
L 462.192798 124.539115 
L 463.163655 124.996075 
L 464.134511 124.919915 
L 465.105368 124.539115 
L 466.076225 125.224555 
L 467.047082 124.310635 
L 470.93051 124.729515 
L 471.901367 124.539115 
L 472.872223 123.701355 
L 475.784794 124.577195 
L 476.755651 123.853675 
L 477.726508 124.424875 
L 478.697365 124.272555 
L 479.668222 124.843755 
L 479.668222 124.843755 
" clip-path="url(#p232809a855)" style="fill: none; stroke: #2ca02c; stroke-width: 1.5; stroke-linecap: square"/>
   </g>
   <g id="line2d_41">
    <path d="M 73.85004 167.980779 
L 74.820897 168.148331 
L 75.791754 168.121675 
L 76.762611 167.900811 
L 79.675181 167.679947 
L 81.616895 167.870347 
L 87.442036 167.493355 
L 93.267178 167.116363 
L 94.238035 167.222987 
L 97.150605 167.135403 
L 98.121462 167.382923 
L 100.063176 166.918347 
L 101.034033 167.097323 
L 104.917461 166.906923 
L 105.888317 166.735563 
L 106.859174 166.830763 
L 108.800888 167.200139 
L 110.742602 166.964043 
L 112.684316 166.701291 
L 113.655173 166.830763 
L 115.596886 165.219979 
L 116.567743 165.277099 
L 117.5386 164.919147 
L 118.509457 164.858219 
L 119.480314 165.037195 
L 120.451171 165.101931 
L 121.422028 165.033387 
L 123.363742 165.109547 
L 124.334598 165.082891 
L 125.305455 165.246635 
L 127.247169 165.265675 
L 129.188883 165.398955 
L 132.101454 165.246635 
L 133.07231 165.235211 
L 134.043167 165.056235 
L 135.984881 165.075275 
L 136.955738 165.014347 
L 137.926595 166.331915 
L 140.839166 166.259563 
L 143.751736 166.449963 
L 144.722593 166.309067 
L 145.69345 165.852107 
L 146.664307 165.977771 
L 147.635164 165.814027 
L 148.606021 165.852107 
L 158.31459 165.132395 
L 160.256303 164.980075 
L 161.22716 165.063851 
L 162.198017 164.922955 
L 163.168874 165.002923 
L 168.023159 164.545963 
L 170.935729 164.770635 
L 172.877443 164.416491 
L 173.8483 164.587851 
L 174.819157 164.450763 
L 175.790014 164.622123 
L 178.702584 164.614507 
L 179.673441 164.717323 
L 180.644298 164.507883 
L 181.615155 164.591659 
L 182.586012 164.469803 
L 183.556869 164.683051 
L 186.46944 164.351755 
L 189.38201 164.458379 
L 191.323724 164.332715 
L 192.294581 164.115659 
L 194.236295 164.340331 
L 195.207152 164.157547 
L 197.148865 164.359371 
L 198.119722 164.347947 
L 215.595146 163.982379 
L 218.507717 164.073771 
L 219.478574 163.989995 
L 220.449431 164.104235 
L 221.420288 163.913835 
L 227.245429 163.986187 
L 230.158 163.852907 
L 231.128857 163.940491 
L 232.099714 163.849099 
L 233.070571 163.879563 
L 234.041427 163.753899 
L 236.953998 163.753899 
L 237.924855 163.936683 
L 240.837426 163.590155 
L 241.808283 163.677739 
L 245.69171 163.578731 
L 246.662567 163.281707 
L 247.633424 163.323595 
L 248.604281 163.022763 
L 249.575138 163.167467 
L 250.545995 163.091307 
L 251.516852 163.296939 
L 252.487708 163.182699 
L 258.31285 163.255051 
L 260.254564 163.057035 
L 262.196277 163.095115 
L 263.167134 163.003723 
L 265.108848 163.262667 
L 268.021419 163.068459 
L 272.875703 163.053227 
L 274.817417 162.744779 
L 278.700845 162.638155 
L 279.671701 162.440139 
L 280.642558 162.565803 
L 281.613415 162.165963 
L 282.584272 162.333515 
L 284.525986 162.280203 
L 288.409414 162.204043 
L 290.351127 161.861323 
L 291.321984 162.006027 
L 292.292841 162.028875 
L 296.176269 161.606187 
L 299.088839 161.674731 
L 301.030553 161.244427 
L 304.913981 161.366283 
L 305.884838 161.282507 
L 334.039688 160.467595 
L 335.981401 159.972555 
L 337.923115 159.945899 
L 338.893972 160.071563 
L 339.864829 160.022059 
L 340.835686 160.109643 
L 343.748257 159.907819 
L 346.660827 160.014443 
L 347.631684 159.961131 
L 349.573398 159.686955 
L 350.544255 159.763115 
L 368.990536 159.290923 
L 370.93225 159.188107 
L 373.84482 159.321387 
L 374.815677 159.290923 
L 376.757391 159.054827 
L 380.640818 159.252843 
L 385.495103 158.780651 
L 390.349387 158.696875 
L 392.291101 158.510283 
L 394.232815 158.734955 
L 397.145386 158.502667 
L 399.087099 158.338923 
L 401.99967 158.258955 
L 405.883098 158.156139 
L 407.824812 158.171371 
L 411.708239 157.809611 
L 412.679096 158.213259 
L 414.62081 158.594059 
L 416.562524 158.217067 
L 417.53338 158.163755 
L 418.504237 157.798187 
L 421.416808 157.984779 
L 422.387665 157.699179 
L 425.300236 157.878155 
L 426.271093 157.680139 
L 428.212806 157.779147 
L 434.037948 157.569707 
L 435.008805 157.767723 
L 435.979661 157.687755 
L 436.950518 157.402155 
L 440.833946 157.364075 
L 441.804803 157.504971 
L 444.717374 157.101323 
L 447.629944 157.268875 
L 448.600801 157.337419 
L 450.542515 156.964235 
L 451.513372 156.888075 
L 454.425942 156.929963 
L 455.396799 156.922347 
L 456.367656 157.078475 
L 460.251084 156.705291 
L 461.221941 156.811915 
L 462.192798 156.762411 
L 463.163655 156.579627 
L 465.105368 156.465387 
L 466.076225 156.511083 
L 467.047082 156.434923 
L 471.901367 156.438731 
L 472.872223 156.309259 
L 474.813937 156.724331 
L 475.784794 156.671019 
L 476.755651 156.781451 
L 479.668222 156.625323 
L 479.668222 156.625323 
" clip-path="url(#p232809a855)" style="fill: none; stroke: #d62728; stroke-width: 1.5; stroke-linecap: square"/>
   </g>
   <g id="line2d_42">
    <path d="M 73.85004 176.678632 
L 77.733467 176.579243 
L 79.675181 176.254421 
L 81.616895 176.190065 
L 84.529466 176.313445 
L 85.500323 176.121141 
L 88.412893 176.014136 
L 95.208892 175.848488 
L 97.150605 175.85915 
L 101.034033 175.651995 
L 102.975747 175.715969 
L 103.946604 175.758238 
L 106.859174 175.507672 
L 107.830031 175.829448 
L 109.771745 176.014517 
L 110.742602 176.044981 
L 112.684316 175.779944 
L 113.655173 175.743768 
L 115.596886 171.235477 
L 116.567743 171.345147 
L 119.480314 170.96092 
L 121.422028 171.095342 
L 124.334598 171.441489 
L 127.247169 171.311256 
L 131.130597 171.773166 
L 132.101454 171.652453 
L 133.07231 171.362664 
L 136.955738 171.348574 
L 137.926595 175.788702 
L 140.839166 175.59259 
L 144.722593 175.619627 
L 145.69345 175.242254 
L 147.635164 175.099835 
L 148.606021 175.073941 
L 158.31459 175.052997 
L 161.22716 174.752926 
L 162.198017 174.856885 
L 164.139731 174.908673 
L 166.081445 174.947515 
L 168.994016 174.813854 
L 170.935729 174.875925 
L 172.877443 174.880113 
L 174.819157 174.720558 
L 176.760871 174.70723 
L 178.702584 174.857646 
L 181.615155 174.604414 
L 182.586012 174.46428 
L 183.556869 174.563288 
L 184.527726 174.291777 
L 185.498583 174.589182 
L 191.323724 174.157736 
L 192.294581 174.160021 
L 195.207152 173.974952 
L 198.119722 174.037784 
L 211.711719 173.405275 
L 212.682576 173.459729 
L 215.595146 173.233153 
L 220.449431 173.394993 
L 221.420288 173.227822 
L 223.362002 173.190504 
L 231.128857 173.12196 
L 234.041427 173.116629 
L 236.953998 172.889291 
L 239.866569 173.113582 
L 241.808283 172.949838 
L 252.487708 172.727451 
L 257.341993 172.716027 
L 260.254564 172.706888 
L 261.22542 172.696225 
L 264.137991 172.334465 
L 266.079705 172.526769 
L 270.933989 172.231649 
L 272.875703 172.305525 
L 273.84656 172.325707 
L 274.817417 172.095704 
L 277.729988 171.848945 
L 280.642558 172.000123 
L 282.584272 171.675681 
L 288.409414 171.548875 
L 290.351127 171.391224 
L 292.292841 171.378277 
L 294.234555 171.462814 
L 296.176269 171.23243 
L 299.088839 171.142942 
L 301.030553 171.216817 
L 305.884838 170.919413 
L 336.952258 170.786894 
L 338.893972 170.678747 
L 342.7774 170.64219 
L 343.748257 170.536709 
L 348.602541 170.664657 
L 349.573398 170.760238 
L 350.544255 170.417518 
L 374.815677 170.063374 
L 376.757391 170.006635 
L 380.640818 169.836037 
L 383.553389 169.837179 
L 384.524246 169.678005 
L 385.495103 169.643733 
L 390.349387 169.6186 
L 394.232815 169.407637 
L 397.145386 169.396213 
L 401.99967 169.161259 
L 402.970527 169.212286 
L 407.824812 168.849003 
L 410.737382 168.829582 
L 411.708239 168.694779 
L 412.679096 169.237038 
L 413.649953 169.160117 
L 416.562524 169.228661 
L 418.504237 168.453352 
L 420.445951 168.315502 
L 424.329379 168.251147 
L 426.271093 168.072933 
L 429.183663 168.0954 
L 431.125377 168.056177 
L 434.037948 167.825032 
L 436.950518 167.937749 
L 440.833946 167.607976 
L 442.77566 167.668142 
L 443.746517 167.754965 
L 446.659087 167.442709 
L 450.542515 167.727166 
L 452.484229 167.446517 
L 456.367656 167.472411 
L 457.338513 167.530293 
L 462.192798 167.337608 
L 465.105368 167.357029 
L 467.047082 167.181861 
L 471.901367 167.249262 
L 472.872223 167.137307 
L 474.813937 167.232126 
L 477.726508 167.499829 
L 479.668222 167.408437 
L 479.668222 167.408437 
" clip-path="url(#p232809a855)" style="fill: none; stroke: #9467bd; stroke-width: 1.5; stroke-linecap: square"/>
   </g>
   <g id="patch_3">
    <path d="M 53.559131 196.776875 
L 53.559131 25.416875 
" style="fill: none; stroke: #000000; stroke-width: 0.8; stroke-linejoin: miter; stroke-linecap: square"/>
   </g>
   <g id="patch_4">
    <path d="M 499.959131 196.776875 
L 499.959131 25.416875 
" style="fill: none; stroke: #000000; stroke-width: 0.8; stroke-linejoin: miter; stroke-linecap: square"/>
   </g>
   <g id="patch_5">
    <path d="M 53.559131 196.776875 
L 499.959131 196.776875 
" style="fill: none; stroke: #000000; stroke-width: 0.8; stroke-linejoin: miter; stroke-linecap: square"/>
   </g>
   <g id="patch_6">
    <path d="M 53.559131 25.416875 
L 499.959131 25.416875 
" style="fill: none; stroke: #000000; stroke-width: 0.8; stroke-linejoin: miter; stroke-linecap: square"/>
   </g>
   <g id="legend_1">
    <g id="patch_7">
     <path d="M 60.559131 62.773125 
L 388.140381 62.773125 
Q 390.140381 62.773125 390.140381 60.773125 
L 390.140381 32.416875 
Q 390.140381 30.416875 388.140381 30.416875 
L 60.559131 30.416875 
Q 58.559131 30.416875 58.559131 32.416875 
L 58.559131 60.773125 
Q 58.559131 62.773125 60.559131 62.773125 
z
" style="fill: #ffffff; opacity: 0.8; stroke: #cccccc; stroke-linejoin: miter"/>
    </g>
    <g id="line2d_43">
     <path d="M 62.559131 38.515313 
L 72.559131 38.515313 
L 82.559131 38.515313 
" style="fill: none; stroke: #1f77b4; stroke-width: 1.5; stroke-linecap: square"/>
    </g>
    <g id="text_28">
     <!-- Rank 1-100 -->
     <g transform="translate(90.559131 42.015313)scale(0.1 -0.1)">
      <defs>
       <path id="DejaVuSans-52" d="M 2841 2188 
Q 3044 2119 3236 1894 
Q 3428 1669 3622 1275 
L 4263 0 
L 3584 0 
L 2988 1197 
Q 2756 1666 2539 1819 
Q 2322 1972 1947 1972 
L 1259 1972 
L 1259 0 
L 628 0 
L 628 4666 
L 2053 4666 
Q 2853 4666 3247 4331 
Q 3641 3997 3641 3322 
Q 3641 2881 3436 2590 
Q 3231 2300 2841 2188 
z
M 1259 4147 
L 1259 2491 
L 2053 2491 
Q 2509 2491 2742 2702 
Q 2975 2913 2975 3322 
Q 2975 3731 2742 3939 
Q 2509 4147 2053 4147 
L 1259 4147 
z
" transform="scale(0.015625)"/>
       <path id="DejaVuSans-6b" d="M 581 4863 
L 1159 4863 
L 1159 1991 
L 2875 3500 
L 3609 3500 
L 1753 1863 
L 3688 0 
L 2938 0 
L 1159 1709 
L 1159 0 
L 581 0 
L 581 4863 
z
" transform="scale(0.015625)"/>
      </defs>
      <use xlink:href="#DejaVuSans-52"/>
      <use xlink:href="#DejaVuSans-61" x="67.232422"/>
      <use xlink:href="#DejaVuSans-6e" x="128.511719"/>
      <use xlink:href="#DejaVuSans-6b" x="191.890625"/>
      <use xlink:href="#DejaVuSans-20" x="249.800781"/>
      <use xlink:href="#DejaVuSans-31" x="281.587891"/>
      <use xlink:href="#DejaVuSans-2d" x="345.210938"/>
      <use xlink:href="#DejaVuSans-31" x="381.294922"/>
      <use xlink:href="#DejaVuSans-30" x="444.917969"/>
      <use xlink:href="#DejaVuSans-30" x="508.541016"/>
     </g>
    </g>
    <g id="line2d_44">
     <path d="M 62.559131 53.193438 
L 72.559131 53.193438 
L 82.559131 53.193438 
" style="fill: none; stroke: #ff7f0e; stroke-width: 1.5; stroke-linecap: square"/>
    </g>
    <g id="text_29">
     <!-- Rank 101-1k -->
     <g transform="translate(90.559131 56.693438)scale(0.1 -0.1)">
      <use xlink:href="#DejaVuSans-52"/>
      <use xlink:href="#DejaVuSans-61" x="67.232422"/>
      <use xlink:href="#DejaVuSans-6e" x="128.511719"/>
      <use xlink:href="#DejaVuSans-6b" x="191.890625"/>
      <use xlink:href="#DejaVuSans-20" x="249.800781"/>
      <use xlink:href="#DejaVuSans-31" x="281.587891"/>
      <use xlink:href="#DejaVuSans-30" x="345.210938"/>
      <use xlink:href="#DejaVuSans-31" x="408.833984"/>
      <use xlink:href="#DejaVuSans-2d" x="472.457031"/>
      <use xlink:href="#DejaVuSans-31" x="508.541016"/>
      <use xlink:href="#DejaVuSans-6b" x="572.164062"/>
     </g>
    </g>
    <g id="line2d_45">
     <path d="M 173.565381 38.515313 
L 183.565381 38.515313 
L 193.565381 38.515313 
" style="fill: none; stroke: #2ca02c; stroke-width: 1.5; stroke-linecap: square"/>
    </g>
    <g id="text_30">
     <!-- Rank 1k-10k -->
     <g transform="translate(201.565381 42.015313)scale(0.1 -0.1)">
      <use xlink:href="#DejaVuSans-52"/>
      <use xlink:href="#DejaVuSans-61" x="67.232422"/>
      <use xlink:href="#DejaVuSans-6e" x="128.511719"/>
      <use xlink:href="#DejaVuSans-6b" x="191.890625"/>
      <use xlink:href="#DejaVuSans-20" x="249.800781"/>
      <use xlink:href="#DejaVuSans-31" x="281.587891"/>
      <use xlink:href="#DejaVuSans-6b" x="345.210938"/>
      <use xlink:href="#DejaVuSans-2d" x="403.121094"/>
      <use xlink:href="#DejaVuSans-31" x="439.205078"/>
      <use xlink:href="#DejaVuSans-30" x="502.828125"/>
      <use xlink:href="#DejaVuSans-6b" x="566.451172"/>
     </g>
    </g>
    <g id="line2d_46">
     <path d="M 173.565381 53.193438 
L 183.565381 53.193438 
L 193.565381 53.193438 
" style="fill: none; stroke: #d62728; stroke-width: 1.5; stroke-linecap: square"/>
    </g>
    <g id="text_31">
     <!-- Rank 10k-100k -->
     <g transform="translate(201.565381 56.693438)scale(0.1 -0.1)">
      <use xlink:href="#DejaVuSans-52"/>
      <use xlink:href="#DejaVuSans-61" x="67.232422"/>
      <use xlink:href="#DejaVuSans-6e" x="128.511719"/>
      <use xlink:href="#DejaVuSans-6b" x="191.890625"/>
      <use xlink:href="#DejaVuSans-20" x="249.800781"/>
      <use xlink:href="#DejaVuSans-31" x="281.587891"/>
      <use xlink:href="#DejaVuSans-30" x="345.210938"/>
      <use xlink:href="#DejaVuSans-6b" x="408.833984"/>
      <use xlink:href="#DejaVuSans-2d" x="466.744141"/>
      <use xlink:href="#DejaVuSans-31" x="502.828125"/>
      <use xlink:href="#DejaVuSans-30" x="566.451172"/>
      <use xlink:href="#DejaVuSans-30" x="630.074219"/>
      <use xlink:href="#DejaVuSans-6b" x="693.697266"/>
     </g>
    </g>
    <g id="line2d_47">
     <path d="M 296.724756 38.515313 
L 306.724756 38.515313 
L 316.724756 38.515313 
" style="fill: none; stroke: #9467bd; stroke-width: 1.5; stroke-linecap: square"/>
    </g>
    <g id="text_32">
     <!-- Rank 100k+ -->
     <g transform="translate(324.724756 42.015313)scale(0.1 -0.1)">
      <defs>
       <path id="DejaVuSans-2b" d="M 2944 4013 
L 2944 2272 
L 4684 2272 
L 4684 1741 
L 2944 1741 
L 2944 0 
L 2419 0 
L 2419 1741 
L 678 1741 
L 678 2272 
L 2419 2272 
L 2419 4013 
L 2944 4013 
z
" transform="scale(0.015625)"/>
      </defs>
      <use xlink:href="#DejaVuSans-52"/>
      <use xlink:href="#DejaVuSans-61" x="67.232422"/>
      <use xlink:href="#DejaVuSans-6e" x="128.511719"/>
      <use xlink:href="#DejaVuSans-6b" x="191.890625"/>
      <use xlink:href="#DejaVuSans-20" x="249.800781"/>
      <use xlink:href="#DejaVuSans-31" x="281.587891"/>
      <use xlink:href="#DejaVuSans-30" x="345.210938"/>
      <use xlink:href="#DejaVuSans-30" x="408.833984"/>
      <use xlink:href="#DejaVuSans-6b" x="472.457031"/>
      <use xlink:href="#DejaVuSans-2b" x="530.367188"/>
     </g>
    </g>
   </g>
  </g>
 </g>
 <defs>
  <clipPath id="p232809a855">
   <rect x="53.559131" y="25.416875" width="446.4" height="171.36"/>
  </clipPath>
 </defs>
</svg>
