<?xml version="1.0" encoding="utf-8" standalone="no"?>
<!DOCTYPE svg PUBLIC "-//W3C//DTD SVG 1.1//EN"
  "http://www.w3.org/Graphics/SVG/1.1/DTD/svg11.dtd">
<svg xmlns:xlink="http://www.w3.org/1999/xlink" width="507.159131pt" height="250.252127pt" viewBox="0 0 507.159131 250.252127" xmlns="http://www.w3.org/2000/svg" version="1.1">
 <metadata>
  <rdf:RDF xmlns:dc="http://purl.org/dc/elements/1.1/" xmlns:cc="http://creativecommons.org/ns#" xmlns:rdf="http://www.w3.org/1999/02/22-rdf-syntax-ns#">
   <cc:Work>
    <dc:type rdf:resource="http://purl.org/dc/dcmitype/StillImage"/>
    <dc:date>2022-02-02T19:49:13.018583</dc:date>
    <dc:format>image/svg+xml</dc:format>
    <dc:creator>
     <cc:Agent>
      <dc:title>Matplotlib v3.5.1, https://matplotlib.org/</dc:title>
     </cc:Agent>
    </dc:creator>
   </cc:Work>
  </rdf:RDF>
 </metadata>
 <defs>
  <style type="text/css">*{stroke-linejoin: round; stroke-linecap: butt}</style>
 </defs>
 <g id="figure_1">
  <g id="patch_1">
   <path d="M 0 250.252127 
L 507.159131 250.252127 
L 507.159131 0 
L 0 0 
z
" style="fill: #ffffff"/>
  </g>
  <g id="axes_1">
   <g id="patch_2">
    <path d="M 53.559131 194.725312 
L 499.959131 194.725312 
L 499.959131 23.365313 
L 53.559131 23.365313 
z
" style="fill: #ffffff"/>
   </g>
   <g id="matplotlib.axis_1">
    <g id="xtick_1">
     <g id="line2d_1">
      <defs>
       <path id="m3aa729889d" d="M 0 0 
L 0 3.5 
" style="stroke: #000000; stroke-width: 0.8"/>
      </defs>
      <g>
       <use xlink:href="#m3aa729889d" x="68.024899" y="194.725312" style="stroke: #000000; stroke-width: 0.8"/>
      </g>
     </g>
     <g id="text_1">
      <!-- 2020-Nov-01 -->
      <g transform="translate(10.999219 240.62919)rotate(-30)scale(0.1 -0.1)">
       <defs>
        <path id="DejaVuSans-32" d="M 1228 531 
L 3431 531 
L 3431 0 
L 469 0 
L 469 531 
Q 828 903 1448 1529 
Q 2069 2156 2228 2338 
Q 2531 2678 2651 2914 
Q 2772 3150 2772 3378 
Q 2772 3750 2511 3984 
Q 2250 4219 1831 4219 
Q 1534 4219 1204 4116 
Q 875 4013 500 3803 
L 500 4441 
Q 881 4594 1212 4672 
Q 1544 4750 1819 4750 
Q 2544 4750 2975 4387 
Q 3406 4025 3406 3419 
Q 3406 3131 3298 2873 
Q 3191 2616 2906 2266 
Q 2828 2175 2409 1742 
Q 1991 1309 1228 531 
z
" transform="scale(0.015625)"/>
        <path id="DejaVuSans-30" d="M 2034 4250 
Q 1547 4250 1301 3770 
Q 1056 3291 1056 2328 
Q 1056 1369 1301 889 
Q 1547 409 2034 409 
Q 2525 409 2770 889 
Q 3016 1369 3016 2328 
Q 3016 3291 2770 3770 
Q 2525 4250 2034 4250 
z
M 2034 4750 
Q 2819 4750 3233 4129 
Q 3647 3509 3647 2328 
Q 3647 1150 3233 529 
Q 2819 -91 2034 -91 
Q 1250 -91 836 529 
Q 422 1150 422 2328 
Q 422 3509 836 4129 
Q 1250 4750 2034 4750 
z
" transform="scale(0.015625)"/>
        <path id="DejaVuSans-2d" d="M 313 2009 
L 1997 2009 
L 1997 1497 
L 313 1497 
L 313 2009 
z
" transform="scale(0.015625)"/>
        <path id="DejaVuSans-4e" d="M 628 4666 
L 1478 4666 
L 3547 763 
L 3547 4666 
L 4159 4666 
L 4159 0 
L 3309 0 
L 1241 3903 
L 1241 0 
L 628 0 
L 628 4666 
z
" transform="scale(0.015625)"/>
        <path id="DejaVuSans-6f" d="M 1959 3097 
Q 1497 3097 1228 2736 
Q 959 2375 959 1747 
Q 959 1119 1226 758 
Q 1494 397 1959 397 
Q 2419 397 2687 759 
Q 2956 1122 2956 1747 
Q 2956 2369 2687 2733 
Q 2419 3097 1959 3097 
z
M 1959 3584 
Q 2709 3584 3137 3096 
Q 3566 2609 3566 1747 
Q 3566 888 3137 398 
Q 2709 -91 1959 -91 
Q 1206 -91 779 398 
Q 353 888 353 1747 
Q 353 2609 779 3096 
Q 1206 3584 1959 3584 
z
" transform="scale(0.015625)"/>
        <path id="DejaVuSans-76" d="M 191 3500 
L 800 3500 
L 1894 563 
L 2988 3500 
L 3597 3500 
L 2284 0 
L 1503 0 
L 191 3500 
z
" transform="scale(0.015625)"/>
        <path id="DejaVuSans-31" d="M 794 531 
L 1825 531 
L 1825 4091 
L 703 3866 
L 703 4441 
L 1819 4666 
L 2450 4666 
L 2450 531 
L 3481 531 
L 3481 0 
L 794 0 
L 794 531 
z
" transform="scale(0.015625)"/>
       </defs>
       <use xlink:href="#DejaVuSans-32"/>
       <use xlink:href="#DejaVuSans-30" x="63.623047"/>
       <use xlink:href="#DejaVuSans-32" x="127.246094"/>
       <use xlink:href="#DejaVuSans-30" x="190.869141"/>
       <use xlink:href="#DejaVuSans-2d" x="254.492188"/>
       <use xlink:href="#DejaVuSans-4e" x="290.576172"/>
       <use xlink:href="#DejaVuSans-6f" x="365.380859"/>
       <use xlink:href="#DejaVuSans-76" x="426.5625"/>
       <use xlink:href="#DejaVuSans-2d" x="483.117188"/>
       <use xlink:href="#DejaVuSans-30" x="519.201172"/>
       <use xlink:href="#DejaVuSans-31" x="582.824219"/>
      </g>
     </g>
    </g>
    <g id="xtick_2">
     <g id="line2d_2">
      <g>
       <use xlink:href="#m3aa729889d" x="97.150605" y="194.725312" style="stroke: #000000; stroke-width: 0.8"/>
      </g>
     </g>
     <g id="text_2">
      <!-- 2020-Dec-01 -->
      <g transform="translate(40.042383 240.676846)rotate(-30)scale(0.1 -0.1)">
       <defs>
        <path id="DejaVuSans-44" d="M 1259 4147 
L 1259 519 
L 2022 519 
Q 2988 519 3436 956 
Q 3884 1394 3884 2338 
Q 3884 3275 3436 3711 
Q 2988 4147 2022 4147 
L 1259 4147 
z
M 628 4666 
L 1925 4666 
Q 3281 4666 3915 4102 
Q 4550 3538 4550 2338 
Q 4550 1131 3912 565 
Q 3275 0 1925 0 
L 628 0 
L 628 4666 
z
" transform="scale(0.015625)"/>
        <path id="DejaVuSans-65" d="M 3597 1894 
L 3597 1613 
L 953 1613 
Q 991 1019 1311 708 
Q 1631 397 2203 397 
Q 2534 397 2845 478 
Q 3156 559 3463 722 
L 3463 178 
Q 3153 47 2828 -22 
Q 2503 -91 2169 -91 
Q 1331 -91 842 396 
Q 353 884 353 1716 
Q 353 2575 817 3079 
Q 1281 3584 2069 3584 
Q 2775 3584 3186 3129 
Q 3597 2675 3597 1894 
z
M 3022 2063 
Q 3016 2534 2758 2815 
Q 2500 3097 2075 3097 
Q 1594 3097 1305 2825 
Q 1016 2553 972 2059 
L 3022 2063 
z
" transform="scale(0.015625)"/>
        <path id="DejaVuSans-63" d="M 3122 3366 
L 3122 2828 
Q 2878 2963 2633 3030 
Q 2388 3097 2138 3097 
Q 1578 3097 1268 2742 
Q 959 2388 959 1747 
Q 959 1106 1268 751 
Q 1578 397 2138 397 
Q 2388 397 2633 464 
Q 2878 531 3122 666 
L 3122 134 
Q 2881 22 2623 -34 
Q 2366 -91 2075 -91 
Q 1284 -91 818 406 
Q 353 903 353 1747 
Q 353 2603 823 3093 
Q 1294 3584 2113 3584 
Q 2378 3584 2631 3529 
Q 2884 3475 3122 3366 
z
" transform="scale(0.015625)"/>
       </defs>
       <use xlink:href="#DejaVuSans-32"/>
       <use xlink:href="#DejaVuSans-30" x="63.623047"/>
       <use xlink:href="#DejaVuSans-32" x="127.246094"/>
       <use xlink:href="#DejaVuSans-30" x="190.869141"/>
       <use xlink:href="#DejaVuSans-2d" x="254.492188"/>
       <use xlink:href="#DejaVuSans-44" x="290.576172"/>
       <use xlink:href="#DejaVuSans-65" x="367.578125"/>
       <use xlink:href="#DejaVuSans-63" x="429.101562"/>
       <use xlink:href="#DejaVuSans-2d" x="484.082031"/>
       <use xlink:href="#DejaVuSans-30" x="520.166016"/>
       <use xlink:href="#DejaVuSans-31" x="583.789062"/>
      </g>
     </g>
    </g>
    <g id="xtick_3">
     <g id="line2d_3">
      <g>
       <use xlink:href="#m3aa729889d" x="127.247169" y="194.725312" style="stroke: #000000; stroke-width: 0.8"/>
      </g>
     </g>
     <g id="text_3">
      <!-- 2021-Jan-01 -->
      <g transform="translate(73.060429 238.990127)rotate(-30)scale(0.1 -0.1)">
       <defs>
        <path id="DejaVuSans-4a" d="M 628 4666 
L 1259 4666 
L 1259 325 
Q 1259 -519 939 -900 
Q 619 -1281 -91 -1281 
L -331 -1281 
L -331 -750 
L -134 -750 
Q 284 -750 456 -515 
Q 628 -281 628 325 
L 628 4666 
z
" transform="scale(0.015625)"/>
        <path id="DejaVuSans-61" d="M 2194 1759 
Q 1497 1759 1228 1600 
Q 959 1441 959 1056 
Q 959 750 1161 570 
Q 1363 391 1709 391 
Q 2188 391 2477 730 
Q 2766 1069 2766 1631 
L 2766 1759 
L 2194 1759 
z
M 3341 1997 
L 3341 0 
L 2766 0 
L 2766 531 
Q 2569 213 2275 61 
Q 1981 -91 1556 -91 
Q 1019 -91 701 211 
Q 384 513 384 1019 
Q 384 1609 779 1909 
Q 1175 2209 1959 2209 
L 2766 2209 
L 2766 2266 
Q 2766 2663 2505 2880 
Q 2244 3097 1772 3097 
Q 1472 3097 1187 3025 
Q 903 2953 641 2809 
L 641 3341 
Q 956 3463 1253 3523 
Q 1550 3584 1831 3584 
Q 2591 3584 2966 3190 
Q 3341 2797 3341 1997 
z
" transform="scale(0.015625)"/>
        <path id="DejaVuSans-6e" d="M 3513 2113 
L 3513 0 
L 2938 0 
L 2938 2094 
Q 2938 2591 2744 2837 
Q 2550 3084 2163 3084 
Q 1697 3084 1428 2787 
Q 1159 2491 1159 1978 
L 1159 0 
L 581 0 
L 581 3500 
L 1159 3500 
L 1159 2956 
Q 1366 3272 1645 3428 
Q 1925 3584 2291 3584 
Q 2894 3584 3203 3211 
Q 3513 2838 3513 2113 
z
" transform="scale(0.015625)"/>
       </defs>
       <use xlink:href="#DejaVuSans-32"/>
       <use xlink:href="#DejaVuSans-30" x="63.623047"/>
       <use xlink:href="#DejaVuSans-32" x="127.246094"/>
       <use xlink:href="#DejaVuSans-31" x="190.869141"/>
       <use xlink:href="#DejaVuSans-2d" x="254.492188"/>
       <use xlink:href="#DejaVuSans-4a" x="296.201172"/>
       <use xlink:href="#DejaVuSans-61" x="325.693359"/>
       <use xlink:href="#DejaVuSans-6e" x="386.972656"/>
       <use xlink:href="#DejaVuSans-2d" x="450.351562"/>
       <use xlink:href="#DejaVuSans-30" x="486.435547"/>
       <use xlink:href="#DejaVuSans-31" x="550.058594"/>
      </g>
     </g>
    </g>
    <g id="xtick_4">
     <g id="line2d_4">
      <g>
       <use xlink:href="#m3aa729889d" x="157.343733" y="194.725312" style="stroke: #000000; stroke-width: 0.8"/>
      </g>
     </g>
     <g id="text_4">
      <!-- 2021-Feb-01 -->
      <g transform="translate(101.663099 239.852627)rotate(-30)scale(0.1 -0.1)">
       <defs>
        <path id="DejaVuSans-46" d="M 628 4666 
L 3309 4666 
L 3309 4134 
L 1259 4134 
L 1259 2759 
L 3109 2759 
L 3109 2228 
L 1259 2228 
L 1259 0 
L 628 0 
L 628 4666 
z
" transform="scale(0.015625)"/>
        <path id="DejaVuSans-62" d="M 3116 1747 
Q 3116 2381 2855 2742 
Q 2594 3103 2138 3103 
Q 1681 3103 1420 2742 
Q 1159 2381 1159 1747 
Q 1159 1113 1420 752 
Q 1681 391 2138 391 
Q 2594 391 2855 752 
Q 3116 1113 3116 1747 
z
M 1159 2969 
Q 1341 3281 1617 3432 
Q 1894 3584 2278 3584 
Q 2916 3584 3314 3078 
Q 3713 2572 3713 1747 
Q 3713 922 3314 415 
Q 2916 -91 2278 -91 
Q 1894 -91 1617 61 
Q 1341 213 1159 525 
L 1159 0 
L 581 0 
L 581 4863 
L 1159 4863 
L 1159 2969 
z
" transform="scale(0.015625)"/>
       </defs>
       <use xlink:href="#DejaVuSans-32"/>
       <use xlink:href="#DejaVuSans-30" x="63.623047"/>
       <use xlink:href="#DejaVuSans-32" x="127.246094"/>
       <use xlink:href="#DejaVuSans-31" x="190.869141"/>
       <use xlink:href="#DejaVuSans-2d" x="254.492188"/>
       <use xlink:href="#DejaVuSans-46" x="290.576172"/>
       <use xlink:href="#DejaVuSans-65" x="342.595703"/>
       <use xlink:href="#DejaVuSans-62" x="404.119141"/>
       <use xlink:href="#DejaVuSans-2d" x="467.595703"/>
       <use xlink:href="#DejaVuSans-30" x="503.679688"/>
       <use xlink:href="#DejaVuSans-31" x="567.302734"/>
      </g>
     </g>
    </g>
    <g id="xtick_5">
     <g id="line2d_5">
      <g>
       <use xlink:href="#m3aa729889d" x="184.527726" y="194.725312" style="stroke: #000000; stroke-width: 0.8"/>
      </g>
     </g>
     <g id="text_5">
      <!-- 2021-Mar-01 -->
      <g transform="translate(128.391075 240.115909)rotate(-30)scale(0.1 -0.1)">
       <defs>
        <path id="DejaVuSans-4d" d="M 628 4666 
L 1569 4666 
L 2759 1491 
L 3956 4666 
L 4897 4666 
L 4897 0 
L 4281 0 
L 4281 4097 
L 3078 897 
L 2444 897 
L 1241 4097 
L 1241 0 
L 628 0 
L 628 4666 
z
" transform="scale(0.015625)"/>
        <path id="DejaVuSans-72" d="M 2631 2963 
Q 2534 3019 2420 3045 
Q 2306 3072 2169 3072 
Q 1681 3072 1420 2755 
Q 1159 2438 1159 1844 
L 1159 0 
L 581 0 
L 581 3500 
L 1159 3500 
L 1159 2956 
Q 1341 3275 1631 3429 
Q 1922 3584 2338 3584 
Q 2397 3584 2469 3576 
Q 2541 3569 2628 3553 
L 2631 2963 
z
" transform="scale(0.015625)"/>
       </defs>
       <use xlink:href="#DejaVuSans-32"/>
       <use xlink:href="#DejaVuSans-30" x="63.623047"/>
       <use xlink:href="#DejaVuSans-32" x="127.246094"/>
       <use xlink:href="#DejaVuSans-31" x="190.869141"/>
       <use xlink:href="#DejaVuSans-2d" x="254.492188"/>
       <use xlink:href="#DejaVuSans-4d" x="290.576172"/>
       <use xlink:href="#DejaVuSans-61" x="376.855469"/>
       <use xlink:href="#DejaVuSans-72" x="438.134766"/>
       <use xlink:href="#DejaVuSans-2d" x="472.873047"/>
       <use xlink:href="#DejaVuSans-30" x="508.957031"/>
       <use xlink:href="#DejaVuSans-31" x="572.580078"/>
      </g>
     </g>
    </g>
    <g id="xtick_6">
     <g id="line2d_6">
      <g>
       <use xlink:href="#m3aa729889d" x="214.62429" y="194.725312" style="stroke: #000000; stroke-width: 0.8"/>
      </g>
     </g>
     <g id="text_6">
      <!-- 2021-Apr-01 -->
      <g transform="translate(160.039719 239.219815)rotate(-30)scale(0.1 -0.1)">
       <defs>
        <path id="DejaVuSans-41" d="M 2188 4044 
L 1331 1722 
L 3047 1722 
L 2188 4044 
z
M 1831 4666 
L 2547 4666 
L 4325 0 
L 3669 0 
L 3244 1197 
L 1141 1197 
L 716 0 
L 50 0 
L 1831 4666 
z
" transform="scale(0.015625)"/>
        <path id="DejaVuSans-70" d="M 1159 525 
L 1159 -1331 
L 581 -1331 
L 581 3500 
L 1159 3500 
L 1159 2969 
Q 1341 3281 1617 3432 
Q 1894 3584 2278 3584 
Q 2916 3584 3314 3078 
Q 3713 2572 3713 1747 
Q 3713 922 3314 415 
Q 2916 -91 2278 -91 
Q 1894 -91 1617 61 
Q 1341 213 1159 525 
z
M 3116 1747 
Q 3116 2381 2855 2742 
Q 2594 3103 2138 3103 
Q 1681 3103 1420 2742 
Q 1159 2381 1159 1747 
Q 1159 1113 1420 752 
Q 1681 391 2138 391 
Q 2594 391 2855 752 
Q 3116 1113 3116 1747 
z
" transform="scale(0.015625)"/>
       </defs>
       <use xlink:href="#DejaVuSans-32"/>
       <use xlink:href="#DejaVuSans-30" x="63.623047"/>
       <use xlink:href="#DejaVuSans-32" x="127.246094"/>
       <use xlink:href="#DejaVuSans-31" x="190.869141"/>
       <use xlink:href="#DejaVuSans-2d" x="254.492188"/>
       <use xlink:href="#DejaVuSans-41" x="288.326172"/>
       <use xlink:href="#DejaVuSans-70" x="356.734375"/>
       <use xlink:href="#DejaVuSans-72" x="420.210938"/>
       <use xlink:href="#DejaVuSans-2d" x="454.949219"/>
       <use xlink:href="#DejaVuSans-30" x="491.033203"/>
       <use xlink:href="#DejaVuSans-31" x="554.65625"/>
      </g>
     </g>
    </g>
    <g id="xtick_7">
     <g id="line2d_7">
      <g>
       <use xlink:href="#m3aa729889d" x="243.749996" y="194.725312" style="stroke: #000000; stroke-width: 0.8"/>
      </g>
     </g>
     <g id="text_7">
      <!-- 2021-May-01 -->
      <g transform="translate(185.647198 241.251065)rotate(-30)scale(0.1 -0.1)">
       <defs>
        <path id="DejaVuSans-79" d="M 2059 -325 
Q 1816 -950 1584 -1140 
Q 1353 -1331 966 -1331 
L 506 -1331 
L 506 -850 
L 844 -850 
Q 1081 -850 1212 -737 
Q 1344 -625 1503 -206 
L 1606 56 
L 191 3500 
L 800 3500 
L 1894 763 
L 2988 3500 
L 3597 3500 
L 2059 -325 
z
" transform="scale(0.015625)"/>
       </defs>
       <use xlink:href="#DejaVuSans-32"/>
       <use xlink:href="#DejaVuSans-30" x="63.623047"/>
       <use xlink:href="#DejaVuSans-32" x="127.246094"/>
       <use xlink:href="#DejaVuSans-31" x="190.869141"/>
       <use xlink:href="#DejaVuSans-2d" x="254.492188"/>
       <use xlink:href="#DejaVuSans-4d" x="290.576172"/>
       <use xlink:href="#DejaVuSans-61" x="376.855469"/>
       <use xlink:href="#DejaVuSans-79" x="438.134766"/>
       <use xlink:href="#DejaVuSans-2d" x="495.564453"/>
       <use xlink:href="#DejaVuSans-30" x="531.648438"/>
       <use xlink:href="#DejaVuSans-31" x="595.271484"/>
      </g>
     </g>
    </g>
    <g id="xtick_8">
     <g id="line2d_8">
      <g>
       <use xlink:href="#m3aa729889d" x="273.84656" y="194.725312" style="stroke: #000000; stroke-width: 0.8"/>
      </g>
     </g>
     <g id="text_8">
      <!-- 2021-Jun-01 -->
      <g transform="translate(219.478496 239.094815)rotate(-30)scale(0.1 -0.1)">
       <defs>
        <path id="DejaVuSans-75" d="M 544 1381 
L 544 3500 
L 1119 3500 
L 1119 1403 
Q 1119 906 1312 657 
Q 1506 409 1894 409 
Q 2359 409 2629 706 
Q 2900 1003 2900 1516 
L 2900 3500 
L 3475 3500 
L 3475 0 
L 2900 0 
L 2900 538 
Q 2691 219 2414 64 
Q 2138 -91 1772 -91 
Q 1169 -91 856 284 
Q 544 659 544 1381 
z
M 1991 3584 
L 1991 3584 
z
" transform="scale(0.015625)"/>
       </defs>
       <use xlink:href="#DejaVuSans-32"/>
       <use xlink:href="#DejaVuSans-30" x="63.623047"/>
       <use xlink:href="#DejaVuSans-32" x="127.246094"/>
       <use xlink:href="#DejaVuSans-31" x="190.869141"/>
       <use xlink:href="#DejaVuSans-2d" x="254.492188"/>
       <use xlink:href="#DejaVuSans-4a" x="296.201172"/>
       <use xlink:href="#DejaVuSans-75" x="325.693359"/>
       <use xlink:href="#DejaVuSans-6e" x="389.072266"/>
       <use xlink:href="#DejaVuSans-2d" x="452.451172"/>
       <use xlink:href="#DejaVuSans-30" x="488.535156"/>
       <use xlink:href="#DejaVuSans-31" x="552.158203"/>
      </g>
     </g>
    </g>
    <g id="xtick_9">
     <g id="line2d_9">
      <g>
       <use xlink:href="#m3aa729889d" x="302.972267" y="194.725312" style="stroke: #000000; stroke-width: 0.8"/>
      </g>
     </g>
     <g id="text_9">
      <!-- 2021-Jul-01 -->
      <g transform="translate(251.686712 237.315127)rotate(-30)scale(0.1 -0.1)">
       <defs>
        <path id="DejaVuSans-6c" d="M 603 4863 
L 1178 4863 
L 1178 0 
L 603 0 
L 603 4863 
z
" transform="scale(0.015625)"/>
       </defs>
       <use xlink:href="#DejaVuSans-32"/>
       <use xlink:href="#DejaVuSans-30" x="63.623047"/>
       <use xlink:href="#DejaVuSans-32" x="127.246094"/>
       <use xlink:href="#DejaVuSans-31" x="190.869141"/>
       <use xlink:href="#DejaVuSans-2d" x="254.492188"/>
       <use xlink:href="#DejaVuSans-4a" x="296.201172"/>
       <use xlink:href="#DejaVuSans-75" x="325.693359"/>
       <use xlink:href="#DejaVuSans-6c" x="389.072266"/>
       <use xlink:href="#DejaVuSans-2d" x="416.855469"/>
       <use xlink:href="#DejaVuSans-30" x="452.939453"/>
       <use xlink:href="#DejaVuSans-31" x="516.5625"/>
      </g>
     </g>
    </g>
    <g id="xtick_10">
     <g id="line2d_10">
      <g>
       <use xlink:href="#m3aa729889d" x="333.068831" y="194.725312" style="stroke: #000000; stroke-width: 0.8"/>
      </g>
     </g>
     <g id="text_10">
      <!-- 2021-Aug-01 -->
      <g transform="translate(276.003909 240.651846)rotate(-30)scale(0.1 -0.1)">
       <defs>
        <path id="DejaVuSans-67" d="M 2906 1791 
Q 2906 2416 2648 2759 
Q 2391 3103 1925 3103 
Q 1463 3103 1205 2759 
Q 947 2416 947 1791 
Q 947 1169 1205 825 
Q 1463 481 1925 481 
Q 2391 481 2648 825 
Q 2906 1169 2906 1791 
z
M 3481 434 
Q 3481 -459 3084 -895 
Q 2688 -1331 1869 -1331 
Q 1566 -1331 1297 -1286 
Q 1028 -1241 775 -1147 
L 775 -588 
Q 1028 -725 1275 -790 
Q 1522 -856 1778 -856 
Q 2344 -856 2625 -561 
Q 2906 -266 2906 331 
L 2906 616 
Q 2728 306 2450 153 
Q 2172 0 1784 0 
Q 1141 0 747 490 
Q 353 981 353 1791 
Q 353 2603 747 3093 
Q 1141 3584 1784 3584 
Q 2172 3584 2450 3431 
Q 2728 3278 2906 2969 
L 2906 3500 
L 3481 3500 
L 3481 434 
z
" transform="scale(0.015625)"/>
       </defs>
       <use xlink:href="#DejaVuSans-32"/>
       <use xlink:href="#DejaVuSans-30" x="63.623047"/>
       <use xlink:href="#DejaVuSans-32" x="127.246094"/>
       <use xlink:href="#DejaVuSans-31" x="190.869141"/>
       <use xlink:href="#DejaVuSans-2d" x="254.492188"/>
       <use xlink:href="#DejaVuSans-41" x="288.326172"/>
       <use xlink:href="#DejaVuSans-75" x="356.734375"/>
       <use xlink:href="#DejaVuSans-67" x="420.113281"/>
       <use xlink:href="#DejaVuSans-2d" x="483.589844"/>
       <use xlink:href="#DejaVuSans-30" x="519.673828"/>
       <use xlink:href="#DejaVuSans-31" x="583.296875"/>
      </g>
     </g>
    </g>
    <g id="xtick_11">
     <g id="line2d_11">
      <g>
       <use xlink:href="#m3aa729889d" x="363.165394" y="194.725312" style="stroke: #000000; stroke-width: 0.8"/>
      </g>
     </g>
     <g id="text_11">
      <!-- 2021-Sep-01 -->
      <g transform="translate(306.491537 240.426065)rotate(-30)scale(0.1 -0.1)">
       <defs>
        <path id="DejaVuSans-53" d="M 3425 4513 
L 3425 3897 
Q 3066 4069 2747 4153 
Q 2428 4238 2131 4238 
Q 1616 4238 1336 4038 
Q 1056 3838 1056 3469 
Q 1056 3159 1242 3001 
Q 1428 2844 1947 2747 
L 2328 2669 
Q 3034 2534 3370 2195 
Q 3706 1856 3706 1288 
Q 3706 609 3251 259 
Q 2797 -91 1919 -91 
Q 1588 -91 1214 -16 
Q 841 59 441 206 
L 441 856 
Q 825 641 1194 531 
Q 1563 422 1919 422 
Q 2459 422 2753 634 
Q 3047 847 3047 1241 
Q 3047 1584 2836 1778 
Q 2625 1972 2144 2069 
L 1759 2144 
Q 1053 2284 737 2584 
Q 422 2884 422 3419 
Q 422 4038 858 4394 
Q 1294 4750 2059 4750 
Q 2388 4750 2728 4690 
Q 3069 4631 3425 4513 
z
" transform="scale(0.015625)"/>
       </defs>
       <use xlink:href="#DejaVuSans-32"/>
       <use xlink:href="#DejaVuSans-30" x="63.623047"/>
       <use xlink:href="#DejaVuSans-32" x="127.246094"/>
       <use xlink:href="#DejaVuSans-31" x="190.869141"/>
       <use xlink:href="#DejaVuSans-2d" x="254.492188"/>
       <use xlink:href="#DejaVuSans-53" x="290.576172"/>
       <use xlink:href="#DejaVuSans-65" x="354.052734"/>
       <use xlink:href="#DejaVuSans-70" x="415.576172"/>
       <use xlink:href="#DejaVuSans-2d" x="479.052734"/>
       <use xlink:href="#DejaVuSans-30" x="515.136719"/>
       <use xlink:href="#DejaVuSans-31" x="578.759766"/>
      </g>
     </g>
    </g>
    <g id="xtick_12">
     <g id="line2d_12">
      <g>
       <use xlink:href="#m3aa729889d" x="392.291101" y="194.725312" style="stroke: #000000; stroke-width: 0.8"/>
      </g>
     </g>
     <g id="text_12">
      <!-- 2021-Oct-01 -->
      <g transform="translate(336.729546 239.783877)rotate(-30)scale(0.1 -0.1)">
       <defs>
        <path id="DejaVuSans-4f" d="M 2522 4238 
Q 1834 4238 1429 3725 
Q 1025 3213 1025 2328 
Q 1025 1447 1429 934 
Q 1834 422 2522 422 
Q 3209 422 3611 934 
Q 4013 1447 4013 2328 
Q 4013 3213 3611 3725 
Q 3209 4238 2522 4238 
z
M 2522 4750 
Q 3503 4750 4090 4092 
Q 4678 3434 4678 2328 
Q 4678 1225 4090 567 
Q 3503 -91 2522 -91 
Q 1538 -91 948 565 
Q 359 1222 359 2328 
Q 359 3434 948 4092 
Q 1538 4750 2522 4750 
z
" transform="scale(0.015625)"/>
        <path id="DejaVuSans-74" d="M 1172 4494 
L 1172 3500 
L 2356 3500 
L 2356 3053 
L 1172 3053 
L 1172 1153 
Q 1172 725 1289 603 
Q 1406 481 1766 481 
L 2356 481 
L 2356 0 
L 1766 0 
Q 1100 0 847 248 
Q 594 497 594 1153 
L 594 3053 
L 172 3053 
L 172 3500 
L 594 3500 
L 594 4494 
L 1172 4494 
z
" transform="scale(0.015625)"/>
       </defs>
       <use xlink:href="#DejaVuSans-32"/>
       <use xlink:href="#DejaVuSans-30" x="63.623047"/>
       <use xlink:href="#DejaVuSans-32" x="127.246094"/>
       <use xlink:href="#DejaVuSans-31" x="190.869141"/>
       <use xlink:href="#DejaVuSans-2d" x="254.492188"/>
       <use xlink:href="#DejaVuSans-4f" x="293.326172"/>
       <use xlink:href="#DejaVuSans-63" x="372.037109"/>
       <use xlink:href="#DejaVuSans-74" x="427.017578"/>
       <use xlink:href="#DejaVuSans-2d" x="466.226562"/>
       <use xlink:href="#DejaVuSans-30" x="502.310547"/>
       <use xlink:href="#DejaVuSans-31" x="565.933594"/>
      </g>
     </g>
    </g>
    <g id="xtick_13">
     <g id="line2d_13">
      <g>
       <use xlink:href="#m3aa729889d" x="422.387665" y="194.725312" style="stroke: #000000; stroke-width: 0.8"/>
      </g>
     </g>
     <g id="text_13">
      <!-- 2021-Nov-01 -->
      <g transform="translate(365.361985 240.62919)rotate(-30)scale(0.1 -0.1)">
       <use xlink:href="#DejaVuSans-32"/>
       <use xlink:href="#DejaVuSans-30" x="63.623047"/>
       <use xlink:href="#DejaVuSans-32" x="127.246094"/>
       <use xlink:href="#DejaVuSans-31" x="190.869141"/>
       <use xlink:href="#DejaVuSans-2d" x="254.492188"/>
       <use xlink:href="#DejaVuSans-4e" x="290.576172"/>
       <use xlink:href="#DejaVuSans-6f" x="365.380859"/>
       <use xlink:href="#DejaVuSans-76" x="426.5625"/>
       <use xlink:href="#DejaVuSans-2d" x="483.117188"/>
       <use xlink:href="#DejaVuSans-30" x="519.201172"/>
       <use xlink:href="#DejaVuSans-31" x="582.824219"/>
      </g>
     </g>
    </g>
    <g id="xtick_14">
     <g id="line2d_14">
      <g>
       <use xlink:href="#m3aa729889d" x="451.513372" y="194.725312" style="stroke: #000000; stroke-width: 0.8"/>
      </g>
     </g>
     <g id="text_14">
      <!-- 2021-Dec-01 -->
      <g transform="translate(394.405149 240.676846)rotate(-30)scale(0.1 -0.1)">
       <use xlink:href="#DejaVuSans-32"/>
       <use xlink:href="#DejaVuSans-30" x="63.623047"/>
       <use xlink:href="#DejaVuSans-32" x="127.246094"/>
       <use xlink:href="#DejaVuSans-31" x="190.869141"/>
       <use xlink:href="#DejaVuSans-2d" x="254.492188"/>
       <use xlink:href="#DejaVuSans-44" x="290.576172"/>
       <use xlink:href="#DejaVuSans-65" x="367.578125"/>
       <use xlink:href="#DejaVuSans-63" x="429.101562"/>
       <use xlink:href="#DejaVuSans-2d" x="484.082031"/>
       <use xlink:href="#DejaVuSans-30" x="520.166016"/>
       <use xlink:href="#DejaVuSans-31" x="583.789062"/>
      </g>
     </g>
    </g>
    <g id="xtick_15">
     <g id="line2d_15">
      <g>
       <use xlink:href="#m3aa729889d" x="481.609935" y="194.725312" style="stroke: #000000; stroke-width: 0.8"/>
      </g>
     </g>
     <g id="text_15">
      <!-- 2022-Jan-01 -->
      <g transform="translate(427.423195 238.990127)rotate(-30)scale(0.1 -0.1)">
       <use xlink:href="#DejaVuSans-32"/>
       <use xlink:href="#DejaVuSans-30" x="63.623047"/>
       <use xlink:href="#DejaVuSans-32" x="127.246094"/>
       <use xlink:href="#DejaVuSans-32" x="190.869141"/>
       <use xlink:href="#DejaVuSans-2d" x="254.492188"/>
       <use xlink:href="#DejaVuSans-4a" x="296.201172"/>
       <use xlink:href="#DejaVuSans-61" x="325.693359"/>
       <use xlink:href="#DejaVuSans-6e" x="386.972656"/>
       <use xlink:href="#DejaVuSans-2d" x="450.351562"/>
       <use xlink:href="#DejaVuSans-30" x="486.435547"/>
       <use xlink:href="#DejaVuSans-31" x="550.058594"/>
      </g>
     </g>
    </g>
   </g>
   <g id="matplotlib.axis_2">
    <g id="ytick_1">
     <g id="line2d_16">
      <path d="M 53.559131 165.0707 
L 499.959131 165.0707 
" clip-path="url(#p4648cb32d0)" style="fill: none; stroke: #b0b0b0; stroke-width: 0.8; stroke-linecap: square"/>
     </g>
     <g id="line2d_17">
      <defs>
       <path id="me8e1917dab" d="M 0 0 
L -3.5 0 
" style="stroke: #000000; stroke-width: 0.8"/>
      </defs>
      <g>
       <use xlink:href="#me8e1917dab" x="53.559131" y="165.0707" style="stroke: #000000; stroke-width: 0.8"/>
      </g>
     </g>
     <g id="text_16">
      <!-- 20 -->
      <g transform="translate(33.834131 168.869919)scale(0.1 -0.1)">
       <use xlink:href="#DejaVuSans-32"/>
       <use xlink:href="#DejaVuSans-30" x="63.623047"/>
      </g>
     </g>
    </g>
    <g id="ytick_2">
     <g id="line2d_18">
      <path d="M 53.559131 131.812972 
L 499.959131 131.812972 
" clip-path="url(#p4648cb32d0)" style="fill: none; stroke: #b0b0b0; stroke-width: 0.8; stroke-linecap: square"/>
     </g>
     <g id="line2d_19">
      <g>
       <use xlink:href="#me8e1917dab" x="53.559131" y="131.812972" style="stroke: #000000; stroke-width: 0.8"/>
      </g>
     </g>
     <g id="text_17">
      <!-- 30 -->
      <g transform="translate(33.834131 135.612191)scale(0.1 -0.1)">
       <defs>
        <path id="DejaVuSans-33" d="M 2597 2516 
Q 3050 2419 3304 2112 
Q 3559 1806 3559 1356 
Q 3559 666 3084 287 
Q 2609 -91 1734 -91 
Q 1441 -91 1130 -33 
Q 819 25 488 141 
L 488 750 
Q 750 597 1062 519 
Q 1375 441 1716 441 
Q 2309 441 2620 675 
Q 2931 909 2931 1356 
Q 2931 1769 2642 2001 
Q 2353 2234 1838 2234 
L 1294 2234 
L 1294 2753 
L 1863 2753 
Q 2328 2753 2575 2939 
Q 2822 3125 2822 3475 
Q 2822 3834 2567 4026 
Q 2313 4219 1838 4219 
Q 1578 4219 1281 4162 
Q 984 4106 628 3988 
L 628 4550 
Q 988 4650 1302 4700 
Q 1616 4750 1894 4750 
Q 2613 4750 3031 4423 
Q 3450 4097 3450 3541 
Q 3450 3153 3228 2886 
Q 3006 2619 2597 2516 
z
" transform="scale(0.015625)"/>
       </defs>
       <use xlink:href="#DejaVuSans-33"/>
       <use xlink:href="#DejaVuSans-30" x="63.623047"/>
      </g>
     </g>
    </g>
    <g id="ytick_3">
     <g id="line2d_20">
      <path d="M 53.559131 98.555244 
L 499.959131 98.555244 
" clip-path="url(#p4648cb32d0)" style="fill: none; stroke: #b0b0b0; stroke-width: 0.8; stroke-linecap: square"/>
     </g>
     <g id="line2d_21">
      <g>
       <use xlink:href="#me8e1917dab" x="53.559131" y="98.555244" style="stroke: #000000; stroke-width: 0.8"/>
      </g>
     </g>
     <g id="text_18">
      <!-- 40 -->
      <g transform="translate(33.834131 102.354463)scale(0.1 -0.1)">
       <defs>
        <path id="DejaVuSans-34" d="M 2419 4116 
L 825 1625 
L 2419 1625 
L 2419 4116 
z
M 2253 4666 
L 3047 4666 
L 3047 1625 
L 3713 1625 
L 3713 1100 
L 3047 1100 
L 3047 0 
L 2419 0 
L 2419 1100 
L 313 1100 
L 313 1709 
L 2253 4666 
z
" transform="scale(0.015625)"/>
       </defs>
       <use xlink:href="#DejaVuSans-34"/>
       <use xlink:href="#DejaVuSans-30" x="63.623047"/>
      </g>
     </g>
    </g>
    <g id="ytick_4">
     <g id="line2d_22">
      <path d="M 53.559131 65.297517 
L 499.959131 65.297517 
" clip-path="url(#p4648cb32d0)" style="fill: none; stroke: #b0b0b0; stroke-width: 0.8; stroke-linecap: square"/>
     </g>
     <g id="line2d_23">
      <g>
       <use xlink:href="#me8e1917dab" x="53.559131" y="65.297517" style="stroke: #000000; stroke-width: 0.8"/>
      </g>
     </g>
     <g id="text_19">
      <!-- 50 -->
      <g transform="translate(33.834131 69.096735)scale(0.1 -0.1)">
       <defs>
        <path id="DejaVuSans-35" d="M 691 4666 
L 3169 4666 
L 3169 4134 
L 1269 4134 
L 1269 2991 
Q 1406 3038 1543 3061 
Q 1681 3084 1819 3084 
Q 2600 3084 3056 2656 
Q 3513 2228 3513 1497 
Q 3513 744 3044 326 
Q 2575 -91 1722 -91 
Q 1428 -91 1123 -41 
Q 819 9 494 109 
L 494 744 
Q 775 591 1075 516 
Q 1375 441 1709 441 
Q 2250 441 2565 725 
Q 2881 1009 2881 1497 
Q 2881 1984 2565 2268 
Q 2250 2553 1709 2553 
Q 1456 2553 1204 2497 
Q 953 2441 691 2322 
L 691 4666 
z
" transform="scale(0.015625)"/>
       </defs>
       <use xlink:href="#DejaVuSans-35"/>
       <use xlink:href="#DejaVuSans-30" x="63.623047"/>
      </g>
     </g>
    </g>
    <g id="ytick_5">
     <g id="line2d_24">
      <path d="M 53.559131 32.039789 
L 499.959131 32.039789 
" clip-path="url(#p4648cb32d0)" style="fill: none; stroke: #b0b0b0; stroke-width: 0.8; stroke-linecap: square"/>
     </g>
     <g id="line2d_25">
      <g>
       <use xlink:href="#me8e1917dab" x="53.559131" y="32.039789" style="stroke: #000000; stroke-width: 0.8"/>
      </g>
     </g>
     <g id="text_20">
      <!-- 60 -->
      <g transform="translate(33.834131 35.839008)scale(0.1 -0.1)">
       <defs>
        <path id="DejaVuSans-36" d="M 2113 2584 
Q 1688 2584 1439 2293 
Q 1191 2003 1191 1497 
Q 1191 994 1439 701 
Q 1688 409 2113 409 
Q 2538 409 2786 701 
Q 3034 994 3034 1497 
Q 3034 2003 2786 2293 
Q 2538 2584 2113 2584 
z
M 3366 4563 
L 3366 3988 
Q 3128 4100 2886 4159 
Q 2644 4219 2406 4219 
Q 1781 4219 1451 3797 
Q 1122 3375 1075 2522 
Q 1259 2794 1537 2939 
Q 1816 3084 2150 3084 
Q 2853 3084 3261 2657 
Q 3669 2231 3669 1497 
Q 3669 778 3244 343 
Q 2819 -91 2113 -91 
Q 1303 -91 875 529 
Q 447 1150 447 2328 
Q 447 3434 972 4092 
Q 1497 4750 2381 4750 
Q 2619 4750 2861 4703 
Q 3103 4656 3366 4563 
z
" transform="scale(0.015625)"/>
       </defs>
       <use xlink:href="#DejaVuSans-36"/>
       <use xlink:href="#DejaVuSans-30" x="63.623047"/>
      </g>
     </g>
    </g>
    <g id="text_21">
     <!-- Percentage Of directives present in CSPs -->
     <g transform="translate(27.754443 210.890625)rotate(-90)scale(0.1 -0.1)">
      <defs>
       <path id="DejaVuSans-50" d="M 1259 4147 
L 1259 2394 
L 2053 2394 
Q 2494 2394 2734 2622 
Q 2975 2850 2975 3272 
Q 2975 3691 2734 3919 
Q 2494 4147 2053 4147 
L 1259 4147 
z
M 628 4666 
L 2053 4666 
Q 2838 4666 3239 4311 
Q 3641 3956 3641 3272 
Q 3641 2581 3239 2228 
Q 2838 1875 2053 1875 
L 1259 1875 
L 1259 0 
L 628 0 
L 628 4666 
z
" transform="scale(0.015625)"/>
       <path id="DejaVuSans-20" transform="scale(0.015625)"/>
       <path id="DejaVuSans-66" d="M 2375 4863 
L 2375 4384 
L 1825 4384 
Q 1516 4384 1395 4259 
Q 1275 4134 1275 3809 
L 1275 3500 
L 2222 3500 
L 2222 3053 
L 1275 3053 
L 1275 0 
L 697 0 
L 697 3053 
L 147 3053 
L 147 3500 
L 697 3500 
L 697 3744 
Q 697 4328 969 4595 
Q 1241 4863 1831 4863 
L 2375 4863 
z
" transform="scale(0.015625)"/>
       <path id="DejaVuSans-64" d="M 2906 2969 
L 2906 4863 
L 3481 4863 
L 3481 0 
L 2906 0 
L 2906 525 
Q 2725 213 2448 61 
Q 2172 -91 1784 -91 
Q 1150 -91 751 415 
Q 353 922 353 1747 
Q 353 2572 751 3078 
Q 1150 3584 1784 3584 
Q 2172 3584 2448 3432 
Q 2725 3281 2906 2969 
z
M 947 1747 
Q 947 1113 1208 752 
Q 1469 391 1925 391 
Q 2381 391 2643 752 
Q 2906 1113 2906 1747 
Q 2906 2381 2643 2742 
Q 2381 3103 1925 3103 
Q 1469 3103 1208 2742 
Q 947 2381 947 1747 
z
" transform="scale(0.015625)"/>
       <path id="DejaVuSans-69" d="M 603 3500 
L 1178 3500 
L 1178 0 
L 603 0 
L 603 3500 
z
M 603 4863 
L 1178 4863 
L 1178 4134 
L 603 4134 
L 603 4863 
z
" transform="scale(0.015625)"/>
       <path id="DejaVuSans-73" d="M 2834 3397 
L 2834 2853 
Q 2591 2978 2328 3040 
Q 2066 3103 1784 3103 
Q 1356 3103 1142 2972 
Q 928 2841 928 2578 
Q 928 2378 1081 2264 
Q 1234 2150 1697 2047 
L 1894 2003 
Q 2506 1872 2764 1633 
Q 3022 1394 3022 966 
Q 3022 478 2636 193 
Q 2250 -91 1575 -91 
Q 1294 -91 989 -36 
Q 684 19 347 128 
L 347 722 
Q 666 556 975 473 
Q 1284 391 1588 391 
Q 1994 391 2212 530 
Q 2431 669 2431 922 
Q 2431 1156 2273 1281 
Q 2116 1406 1581 1522 
L 1381 1569 
Q 847 1681 609 1914 
Q 372 2147 372 2553 
Q 372 3047 722 3315 
Q 1072 3584 1716 3584 
Q 2034 3584 2315 3537 
Q 2597 3491 2834 3397 
z
" transform="scale(0.015625)"/>
       <path id="DejaVuSans-43" d="M 4122 4306 
L 4122 3641 
Q 3803 3938 3442 4084 
Q 3081 4231 2675 4231 
Q 1875 4231 1450 3742 
Q 1025 3253 1025 2328 
Q 1025 1406 1450 917 
Q 1875 428 2675 428 
Q 3081 428 3442 575 
Q 3803 722 4122 1019 
L 4122 359 
Q 3791 134 3420 21 
Q 3050 -91 2638 -91 
Q 1578 -91 968 557 
Q 359 1206 359 2328 
Q 359 3453 968 4101 
Q 1578 4750 2638 4750 
Q 3056 4750 3426 4639 
Q 3797 4528 4122 4306 
z
" transform="scale(0.015625)"/>
      </defs>
      <use xlink:href="#DejaVuSans-50"/>
      <use xlink:href="#DejaVuSans-65" x="56.677734"/>
      <use xlink:href="#DejaVuSans-72" x="118.201172"/>
      <use xlink:href="#DejaVuSans-63" x="157.064453"/>
      <use xlink:href="#DejaVuSans-65" x="212.044922"/>
      <use xlink:href="#DejaVuSans-6e" x="273.568359"/>
      <use xlink:href="#DejaVuSans-74" x="336.947266"/>
      <use xlink:href="#DejaVuSans-61" x="376.15625"/>
      <use xlink:href="#DejaVuSans-67" x="437.435547"/>
      <use xlink:href="#DejaVuSans-65" x="500.912109"/>
      <use xlink:href="#DejaVuSans-20" x="562.435547"/>
      <use xlink:href="#DejaVuSans-4f" x="594.222656"/>
      <use xlink:href="#DejaVuSans-66" x="672.933594"/>
      <use xlink:href="#DejaVuSans-20" x="708.138672"/>
      <use xlink:href="#DejaVuSans-64" x="739.925781"/>
      <use xlink:href="#DejaVuSans-69" x="803.402344"/>
      <use xlink:href="#DejaVuSans-72" x="831.185547"/>
      <use xlink:href="#DejaVuSans-65" x="870.048828"/>
      <use xlink:href="#DejaVuSans-63" x="931.572266"/>
      <use xlink:href="#DejaVuSans-74" x="986.552734"/>
      <use xlink:href="#DejaVuSans-69" x="1025.761719"/>
      <use xlink:href="#DejaVuSans-76" x="1053.544922"/>
      <use xlink:href="#DejaVuSans-65" x="1112.724609"/>
      <use xlink:href="#DejaVuSans-73" x="1174.248047"/>
      <use xlink:href="#DejaVuSans-20" x="1226.347656"/>
      <use xlink:href="#DejaVuSans-70" x="1258.134766"/>
      <use xlink:href="#DejaVuSans-72" x="1321.611328"/>
      <use xlink:href="#DejaVuSans-65" x="1360.474609"/>
      <use xlink:href="#DejaVuSans-73" x="1421.998047"/>
      <use xlink:href="#DejaVuSans-65" x="1474.097656"/>
      <use xlink:href="#DejaVuSans-6e" x="1535.621094"/>
      <use xlink:href="#DejaVuSans-74" x="1599"/>
      <use xlink:href="#DejaVuSans-20" x="1638.208984"/>
      <use xlink:href="#DejaVuSans-69" x="1669.996094"/>
      <use xlink:href="#DejaVuSans-6e" x="1697.779297"/>
      <use xlink:href="#DejaVuSans-20" x="1761.158203"/>
      <use xlink:href="#DejaVuSans-43" x="1792.945312"/>
      <use xlink:href="#DejaVuSans-53" x="1862.769531"/>
      <use xlink:href="#DejaVuSans-50" x="1926.246094"/>
      <use xlink:href="#DejaVuSans-73" x="1984.798828"/>
     </g>
    </g>
   </g>
   <g id="line2d_26">
    <path d="M 73.85004 40.770041 
L 74.820897 40.897613 
L 75.791754 40.732898 
L 76.762611 40.087156 
L 78.704324 40.824161 
L 79.675181 41.052498 
L 80.646038 41.593752 
L 81.616895 41.501329 
L 82.587752 41.252815 
L 83.558609 41.163245 
L 84.529466 41.83728 
L 85.500323 41.862594 
L 86.47118 42.263423 
L 87.442036 42.230509 
L 88.412893 41.972077 
L 91.325464 42.299334 
L 92.296321 41.822976 
L 93.267178 42.10095 
L 94.238035 42.560454 
L 96.179748 41.626081 
L 97.150605 41.809262 
L 98.121462 41.809551 
L 99.092319 41.571216 
L 100.063176 41.552886 
L 101.034033 41.836916 
L 102.975747 41.913177 
L 103.946604 42.132106 
L 104.917461 41.931074 
L 105.888317 42.369033 
L 106.859174 42.046045 
L 109.771745 41.89393 
L 110.742602 42.151113 
L 112.684316 41.916724 
L 113.655173 41.887218 
L 116.567743 41.527639 
L 117.5386 42.236876 
L 118.509457 42.01035 
L 119.480314 42.060676 
L 120.451171 41.806324 
L 122.392885 42.154188 
L 124.334598 41.420174 
L 125.305455 41.939204 
L 131.130597 41.890392 
L 132.101454 41.45968 
L 133.07231 41.385183 
L 134.043167 41.808733 
L 135.984881 41.812674 
L 136.955738 41.552664 
L 140.839166 42.33531 
L 143.751736 42.560868 
L 145.69345 42.458226 
L 146.664307 42.626245 
L 147.635164 42.553018 
L 148.606021 42.600739 
L 157.343733 42.71901 
L 158.31459 42.442104 
L 160.256303 42.642093 
L 161.22716 42.348671 
L 162.198017 42.490149 
L 163.168874 42.248442 
L 164.139731 42.636024 
L 166.081445 42.061412 
L 167.052302 42.682454 
L 168.023159 42.571563 
L 168.994016 42.789761 
L 170.935729 42.652324 
L 171.906586 42.912969 
L 172.877443 42.917793 
L 173.8483 43.284522 
L 174.819157 43.52389 
L 175.790014 43.293979 
L 176.760871 43.547883 
L 177.731728 42.922578 
L 180.644298 43.673599 
L 182.586012 43.176713 
L 183.556869 42.934521 
L 185.498583 43.519661 
L 186.46944 43.09447 
L 187.440297 42.858314 
L 188.411153 42.75503 
L 189.38201 42.828595 
L 190.352867 43.254793 
L 191.323724 43.206786 
L 192.294581 42.890484 
L 195.207152 43.263149 
L 196.178009 42.79998 
L 197.148865 43.147875 
L 198.119722 42.995546 
L 210.740862 42.662661 
L 211.711719 42.49382 
L 212.682576 42.767798 
L 214.62429 42.444166 
L 215.595146 42.11057 
L 216.566003 42.120192 
L 217.53686 42.554903 
L 219.478574 42.448185 
L 220.449431 42.768949 
L 221.420288 42.545729 
L 222.391145 42.12379 
L 223.362002 42.401982 
L 229.187143 42.31059 
L 232.099714 42.565506 
L 233.070571 43.057335 
L 234.041427 42.655414 
L 236.953998 43.289048 
L 239.866569 42.991306 
L 240.837426 43.244276 
L 241.808283 43.034979 
L 246.662567 42.744418 
L 248.604281 42.917663 
L 250.545995 43.003029 
L 251.516852 42.601814 
L 252.487708 43.039251 
L 253.458565 42.717225 
L 254.429422 43.14995 
L 255.400279 42.726955 
L 256.371136 42.488626 
L 258.31285 43.016456 
L 259.283707 42.580257 
L 260.254564 42.555194 
L 261.22542 43.182809 
L 262.196277 43.163678 
L 263.167134 42.933181 
L 264.137991 43.22399 
L 266.079705 42.720304 
L 268.021419 42.98436 
L 269.963133 42.671938 
L 270.933989 42.211124 
L 271.904846 42.383769 
L 272.875703 42.21372 
L 273.84656 42.18974 
L 274.817417 42.352907 
L 275.788274 42.730217 
L 276.759131 42.390778 
L 277.729988 42.341568 
L 278.700845 42.446012 
L 280.642558 41.99105 
L 281.613415 41.739016 
L 282.584272 41.940929 
L 283.555129 41.430448 
L 285.496843 42.036995 
L 286.4677 41.822557 
L 287.438557 41.820027 
L 288.409414 41.934987 
L 289.38027 41.87028 
L 290.351127 42.073414 
L 292.292841 42.011829 
L 294.234555 42.235884 
L 296.176269 41.84746 
L 299.088839 41.688636 
L 301.030553 41.916617 
L 304.913981 41.541997 
L 305.884838 41.649873 
L 334.039688 40.799593 
L 335.010544 40.556151 
L 335.981401 40.767299 
L 336.952258 41.207471 
L 339.864829 40.849912 
L 340.835686 41.016735 
L 341.806543 41.057843 
L 342.7774 40.772723 
L 343.748257 40.353246 
L 344.719113 40.987794 
L 345.68997 41.378022 
L 346.660827 41.093779 
L 347.631684 41.466931 
L 348.602541 41.222515 
L 349.573398 40.762809 
L 350.544255 40.518767 
L 368.990536 41.345929 
L 370.93225 41.230298 
L 371.903106 40.940865 
L 372.873963 41.241277 
L 373.84482 41.036042 
L 375.786534 41.068024 
L 376.757391 40.787037 
L 378.699105 40.493801 
L 379.669962 40.898974 
L 380.640818 40.418798 
L 381.611675 40.761583 
L 382.582532 39.966423 
L 383.553389 40.221355 
L 384.524246 40.041676 
L 389.378531 40.20156 
L 390.349387 39.93901 
L 391.320244 40.513001 
L 392.291101 39.992321 
L 393.261958 39.832549 
L 394.232815 40.014837 
L 395.203672 39.598951 
L 396.174529 39.471023 
L 397.145386 39.619646 
L 398.116243 39.522318 
L 399.087099 39.236808 
L 401.028813 39.607966 
L 401.99967 39.776197 
L 402.970527 39.205474 
L 403.941384 39.585614 
L 404.912241 39.555618 
L 405.883098 39.140369 
L 406.853955 39.368783 
L 407.824812 39.038537 
L 408.795668 38.853924 
L 409.766525 38.92334 
L 410.737382 39.385478 
L 411.708239 39.620528 
L 413.649953 39.84619 
L 415.591667 39.745361 
L 416.562524 39.319167 
L 418.504237 39.365407 
L 419.475094 39.807491 
L 420.445951 39.9342 
L 422.387665 39.60057 
L 423.358522 39.716034 
L 424.329379 39.671827 
L 425.300236 39.36588 
L 426.271093 39.426814 
L 430.15452 39.05081 
L 431.125377 39.299588 
L 434.037948 39.0806 
L 435.008805 38.757839 
L 435.979661 39.241196 
L 439.863089 38.762189 
L 440.833946 38.888059 
L 441.804803 39.282332 
L 442.77566 39.000503 
L 443.746517 39.075825 
L 444.717374 38.801024 
L 445.68823 38.93404 
L 446.659087 39.477834 
L 447.629944 39.652152 
L 449.571658 39.201576 
L 450.542515 39.587341 
L 451.513372 39.388372 
L 452.484229 38.922032 
L 453.455086 39.435472 
L 456.367656 38.931252 
L 457.338513 39.063641 
L 459.280227 39.001965 
L 460.251084 38.734198 
L 461.221941 39.100225 
L 462.192798 38.823097 
L 463.163655 38.711584 
L 464.134511 38.778363 
L 465.105368 38.993693 
L 466.076225 38.763953 
L 467.047082 38.849033 
L 469.959653 39.302152 
L 470.93051 39.010294 
L 471.901367 39.217966 
L 472.872223 39.138975 
L 474.813937 39.498884 
L 476.755651 39.174881 
L 477.726508 39.352697 
L 478.697365 39.674588 
L 479.668222 39.145607 
L 479.668222 39.145607 
" clip-path="url(#p4648cb32d0)" style="fill: none; stroke: #1f77b4; stroke-width: 1.5; stroke-linecap: square"/>
   </g>
   <g id="line2d_27">
    <path d="M 73.85004 107.195875 
L 75.791754 107.142982 
L 76.762611 106.544868 
L 77.733467 106.804001 
L 79.675181 106.726906 
L 80.646038 107.2449 
L 82.587752 106.963753 
L 84.529466 107.231398 
L 85.500323 107.25338 
L 88.412893 106.840729 
L 92.296321 106.805817 
L 93.267178 107.117394 
L 94.238035 107.232502 
L 95.208892 106.834475 
L 96.179748 106.754518 
L 97.150605 106.9818 
L 98.121462 106.975507 
L 100.063176 106.675933 
L 101.034033 107.032155 
L 102.00489 107.015945 
L 102.975747 106.869676 
L 103.946604 106.974858 
L 104.917461 106.91422 
L 105.888317 107.091852 
L 107.830031 106.618802 
L 108.800888 106.758563 
L 109.771745 106.580782 
L 110.742602 106.793537 
L 111.713459 106.768589 
L 112.684316 107.140813 
L 113.655173 106.95778 
L 115.596886 106.913735 
L 116.567743 107.007873 
L 117.5386 107.361133 
L 118.509457 107.1043 
L 121.422028 107.262867 
L 122.392885 107.48679 
L 123.363742 107.032606 
L 124.334598 106.982542 
L 125.305455 107.066938 
L 127.247169 107.072254 
L 129.188883 107.480801 
L 130.15974 107.265482 
L 131.130597 107.18395 
L 132.101454 107.449025 
L 134.043167 107.806365 
L 135.014024 107.464142 
L 135.984881 107.654997 
L 136.955738 107.26169 
L 137.926595 107.886209 
L 140.839166 107.794185 
L 143.751736 107.905676 
L 144.722593 107.543022 
L 146.664307 107.946929 
L 148.606021 107.887496 
L 157.343733 107.659559 
L 158.31459 107.468734 
L 160.256303 107.38567 
L 161.22716 107.478991 
L 162.198017 107.726461 
L 163.168874 107.041549 
L 164.139731 107.586126 
L 165.110588 106.950866 
L 166.081445 106.905795 
L 168.994016 107.313593 
L 171.906586 107.619427 
L 172.877443 107.105661 
L 173.8483 107.298501 
L 174.819157 107.654955 
L 175.790014 107.566217 
L 176.760871 107.800618 
L 177.731728 107.286231 
L 178.702584 107.973992 
L 179.673441 108.166477 
L 182.586012 107.573092 
L 184.527726 107.497904 
L 185.498583 107.864395 
L 186.46944 107.525462 
L 187.440297 107.521571 
L 189.38201 107.012216 
L 190.352867 107.562497 
L 191.323724 107.359101 
L 192.294581 107.555075 
L 194.236295 107.181381 
L 195.207152 107.350562 
L 196.178009 107.246168 
L 198.119722 107.420909 
L 213.653433 106.244426 
L 214.62429 106.312619 
L 215.595146 105.857903 
L 216.566003 106.430839 
L 217.53686 106.702451 
L 218.507717 106.232855 
L 219.478574 106.305702 
L 220.449431 106.4942 
L 221.420288 106.423617 
L 222.391145 105.624669 
L 223.362002 106.385539 
L 226.274572 106.034805 
L 227.245429 105.800029 
L 230.158 106.264619 
L 231.128857 106.68727 
L 232.099714 106.582209 
L 233.070571 106.74563 
L 234.041427 106.176945 
L 236.953998 106.557926 
L 237.924855 106.024614 
L 238.895712 106.200749 
L 239.866569 106.03155 
L 240.837426 106.403186 
L 241.808283 106.219218 
L 247.633424 106.789016 
L 249.575138 106.424968 
L 250.545995 106.441759 
L 251.516852 106.15407 
L 252.487708 106.288304 
L 254.429422 106.832229 
L 255.400279 106.269962 
L 256.371136 106.366304 
L 257.341993 106.621731 
L 260.254564 106.110537 
L 261.22542 106.491579 
L 263.167134 105.789401 
L 264.137991 106.264129 
L 265.108848 105.89958 
L 267.050562 105.749516 
L 268.992276 105.937051 
L 271.904846 105.617801 
L 272.875703 105.296254 
L 273.84656 105.64773 
L 275.788274 105.619971 
L 276.759131 105.428301 
L 277.729988 105.416213 
L 278.700845 105.892542 
L 279.671701 105.082211 
L 280.642558 104.858537 
L 283.555129 104.637597 
L 284.525986 105.019693 
L 285.496843 105.226883 
L 287.438557 104.959313 
L 288.409414 105.145251 
L 289.38027 104.810642 
L 290.351127 104.824227 
L 291.321984 105.085365 
L 293.263698 104.944969 
L 294.234555 105.035573 
L 296.176269 104.865075 
L 299.088839 104.424255 
L 304.913981 104.611859 
L 305.884838 104.405552 
L 334.039688 103.515852 
L 335.010544 102.938897 
L 335.981401 103.198953 
L 336.952258 103.262024 
L 338.893972 102.707587 
L 339.864829 103.087281 
L 341.806543 103.07401 
L 343.748257 102.635971 
L 344.719113 103.467875 
L 346.660827 103.181627 
L 347.631684 103.451753 
L 348.602541 103.490814 
L 349.573398 102.817762 
L 350.544255 102.83345 
L 368.019679 103.592795 
L 368.990536 103.412279 
L 370.93225 103.594466 
L 371.903106 103.263565 
L 372.873963 103.482175 
L 373.84482 103.233296 
L 374.815677 103.112343 
L 375.786534 103.234304 
L 376.757391 102.593602 
L 377.728248 102.71719 
L 378.699105 102.625694 
L 379.669962 102.841704 
L 380.640818 102.808855 
L 381.611675 103.132774 
L 382.582532 101.826435 
L 383.553389 102.256785 
L 388.407674 101.863117 
L 389.378531 101.526546 
L 391.320244 101.951195 
L 392.291101 101.746624 
L 396.174529 101.465688 
L 398.116243 101.66224 
L 399.087099 100.915043 
L 401.028813 101.402495 
L 401.99967 101.523995 
L 402.970527 100.979256 
L 403.941384 101.660839 
L 405.883098 100.964696 
L 406.853955 101.331434 
L 407.824812 100.874788 
L 408.795668 100.61958 
L 409.766525 100.609001 
L 410.737382 100.988026 
L 411.708239 101.143789 
L 412.679096 101.451165 
L 414.62081 101.414916 
L 416.562524 101.014347 
L 417.53338 101.17291 
L 418.504237 101.068123 
L 419.475094 101.433906 
L 420.445951 101.411206 
L 421.416808 101.093206 
L 422.387665 101.240885 
L 425.300236 101.336578 
L 427.241949 100.951875 
L 428.212806 101.018514 
L 429.183663 100.770994 
L 430.15452 100.14736 
L 431.125377 100.214117 
L 434.037948 99.881157 
L 435.008805 99.60794 
L 435.979661 100.133878 
L 436.950518 100.092642 
L 437.921375 99.632418 
L 439.863089 99.32372 
L 440.833946 99.671311 
L 441.804803 99.778241 
L 442.77566 99.509251 
L 445.68823 99.329089 
L 446.659087 100.00898 
L 447.629944 100.37444 
L 448.600801 100.378313 
L 449.571658 100.239538 
L 450.542515 100.477534 
L 452.484229 99.849401 
L 453.455086 100.38659 
L 454.425942 99.932201 
L 456.367656 99.772419 
L 460.251084 99.074488 
L 461.221941 99.333918 
L 462.192798 99.074624 
L 463.163655 98.656491 
L 465.105368 99.151592 
L 466.076225 98.883423 
L 467.047082 99.143569 
L 469.959653 99.619047 
L 470.93051 99.358731 
L 471.901367 99.302609 
L 472.872223 99.598121 
L 473.84308 99.638231 
L 474.813937 99.857296 
L 476.755651 99.409788 
L 478.697365 99.704457 
L 479.668222 99.680506 
L 479.668222 99.680506 
" clip-path="url(#p4648cb32d0)" style="fill: none; stroke: #ff7f0e; stroke-width: 1.5; stroke-linecap: square"/>
   </g>
   <g id="line2d_28">
    <path d="M 73.85004 68.684707 
L 74.820897 68.75307 
L 76.762611 68.355306 
L 77.733467 68.581258 
L 78.704324 68.395739 
L 79.675181 68.698049 
L 80.646038 69.308525 
L 81.616895 69.295897 
L 82.587752 69.125464 
L 83.558609 69.183433 
L 84.529466 69.715689 
L 85.500323 69.566619 
L 87.442036 69.60164 
L 88.412893 69.273005 
L 91.325464 69.625682 
L 92.296321 69.435575 
L 93.267178 69.565888 
L 94.238035 70.007882 
L 95.208892 69.611216 
L 96.179748 68.982583 
L 97.150605 69.385216 
L 99.092319 69.311557 
L 100.063176 69.32483 
L 101.034033 69.668503 
L 102.975747 69.55153 
L 103.946604 69.772508 
L 104.917461 69.522821 
L 105.888317 70.096502 
L 106.859174 69.891967 
L 107.830031 69.55286 
L 110.742602 69.485188 
L 111.713459 69.568456 
L 112.684316 69.433924 
L 113.655173 69.425784 
L 115.596886 69.149471 
L 116.567743 69.141905 
L 117.5386 69.78363 
L 118.509457 69.364324 
L 120.451171 69.285643 
L 122.392885 69.620445 
L 123.363742 69.182765 
L 124.334598 69.109865 
L 125.305455 69.393049 
L 129.188883 69.522113 
L 130.15974 69.217877 
L 131.130597 69.269939 
L 132.101454 69.017873 
L 134.043167 69.69155 
L 135.984881 69.560689 
L 136.955738 69.180323 
L 137.926595 69.438257 
L 140.839166 69.708128 
L 144.722593 69.294544 
L 145.69345 69.31214 
L 146.664307 69.728942 
L 147.635164 69.665827 
L 148.606021 69.75886 
L 158.31459 69.469633 
L 160.256303 69.582373 
L 161.22716 69.496359 
L 162.198017 69.593508 
L 163.168874 69.193305 
L 164.139731 69.487846 
L 165.110588 69.278821 
L 166.081445 68.909346 
L 167.052302 69.469461 
L 168.023159 69.621694 
L 170.935729 69.687422 
L 171.906586 70.215879 
L 172.877443 69.897727 
L 174.819157 70.865854 
L 175.790014 70.560267 
L 176.760871 70.823868 
L 177.731728 70.367582 
L 178.702584 70.617233 
L 179.673441 71.152498 
L 180.644298 71.100211 
L 181.615155 70.906459 
L 182.586012 70.96016 
L 183.556869 70.336566 
L 184.527726 70.759854 
L 185.498583 71.042162 
L 186.46944 70.543806 
L 187.440297 70.758229 
L 188.411153 70.252676 
L 189.38201 70.242774 
L 190.352867 70.666155 
L 191.323724 70.753591 
L 192.294581 70.514642 
L 195.207152 70.607419 
L 196.178009 70.183287 
L 198.119722 70.557199 
L 210.740862 69.837974 
L 211.711719 69.526239 
L 212.682576 69.992144 
L 213.653433 69.525669 
L 214.62429 69.54123 
L 215.595146 69.277532 
L 216.566003 69.311342 
L 217.53686 69.667666 
L 219.478574 68.938222 
L 220.449431 69.447223 
L 221.420288 69.409018 
L 222.391145 68.706069 
L 223.362002 68.893964 
L 227.245429 68.977548 
L 228.216286 68.727289 
L 229.187143 68.660113 
L 230.158 69.066004 
L 231.128857 69.078311 
L 232.099714 69.233604 
L 233.070571 69.674984 
L 234.041427 69.062001 
L 236.953998 70.176133 
L 237.924855 69.640428 
L 238.895712 69.749718 
L 239.866569 69.570317 
L 240.837426 70.131552 
L 241.808283 69.619388 
L 245.69171 69.54632 
L 246.662567 69.8513 
L 247.633424 69.728439 
L 248.604281 69.833539 
L 249.575138 69.776744 
L 250.545995 70.004606 
L 251.516852 69.467865 
L 252.487708 69.680584 
L 253.458565 69.539355 
L 254.429422 69.812624 
L 255.400279 69.402224 
L 257.341993 69.808521 
L 258.31285 69.894182 
L 260.254564 69.629388 
L 261.22542 70.046203 
L 262.196277 69.791804 
L 263.167134 69.660775 
L 264.137991 70.015522 
L 265.108848 69.409251 
L 266.079705 69.190139 
L 267.050562 69.378478 
L 268.021419 69.411702 
L 268.992276 69.048858 
L 270.933989 68.628286 
L 272.875703 68.761647 
L 273.84656 68.812561 
L 274.817417 69.092162 
L 275.788274 69.238497 
L 276.759131 68.99282 
L 278.700845 69.288775 
L 279.671701 68.681026 
L 281.613415 68.271919 
L 282.584272 68.449373 
L 283.555129 68.143482 
L 284.525986 68.644374 
L 285.496843 68.752253 
L 287.438557 68.124649 
L 289.38027 68.347938 
L 290.351127 68.336469 
L 292.292841 68.525437 
L 293.263698 68.342651 
L 294.234555 68.383869 
L 296.176269 67.829114 
L 299.088839 67.69262 
L 301.030553 67.819771 
L 304.913981 67.53298 
L 305.884838 67.741769 
L 334.039688 66.567196 
L 335.010544 66.179736 
L 335.981401 66.491725 
L 336.952258 66.65374 
L 338.893972 66.311234 
L 340.835686 66.656771 
L 342.7774 66.312067 
L 343.748257 65.921123 
L 344.719113 66.50618 
L 346.660827 66.388828 
L 347.631684 66.65009 
L 348.602541 66.503211 
L 349.573398 66.229214 
L 350.544255 66.129928 
L 368.990536 66.889206 
L 370.93225 67.185328 
L 371.903106 66.946566 
L 372.873963 67.146538 
L 373.84482 66.888433 
L 374.815677 66.803291 
L 375.786534 66.833189 
L 376.757391 66.471898 
L 377.728248 66.394757 
L 378.699105 66.202899 
L 379.669962 66.662931 
L 380.640818 66.004566 
L 381.611675 66.606728 
L 382.582532 65.607004 
L 383.553389 65.858923 
L 384.524246 65.736667 
L 385.495103 65.83802 
L 388.407674 65.558566 
L 389.378531 65.744329 
L 390.349387 65.520449 
L 391.320244 65.899307 
L 392.291101 65.501143 
L 394.232815 65.815377 
L 395.203672 65.528204 
L 396.174529 65.472956 
L 397.145386 65.739921 
L 399.087099 65.150489 
L 400.057956 65.407642 
L 401.028813 65.784305 
L 402.970527 65.334188 
L 403.941384 65.72834 
L 404.912241 65.846384 
L 405.883098 65.571318 
L 406.853955 65.653204 
L 407.824812 65.224575 
L 408.795668 64.95955 
L 409.766525 64.914489 
L 410.737382 65.625287 
L 411.708239 65.705376 
L 412.679096 65.977949 
L 414.62081 65.931791 
L 416.562524 65.469799 
L 418.504237 65.450961 
L 419.475094 65.909998 
L 421.416808 65.594091 
L 423.358522 65.729575 
L 424.329379 65.90808 
L 425.300236 65.512568 
L 426.271093 65.745107 
L 430.15452 65.038709 
L 431.125377 64.985363 
L 434.037948 64.978447 
L 435.008805 64.772947 
L 435.979661 65.173354 
L 436.950518 65.076117 
L 437.921375 64.517983 
L 438.892232 64.680523 
L 439.863089 64.707059 
L 441.804803 65.120783 
L 442.77566 64.900014 
L 443.746517 64.944125 
L 444.717374 64.689111 
L 445.68823 64.910594 
L 446.659087 65.429835 
L 447.629944 65.456475 
L 449.571658 65.24444 
L 450.542515 65.536475 
L 452.484229 64.893093 
L 453.455086 65.429331 
L 456.367656 64.805018 
L 457.338513 64.769672 
L 458.30937 65.060676 
L 459.280227 64.591537 
L 460.251084 64.487287 
L 461.221941 64.712639 
L 463.163655 64.005751 
L 464.134511 64.082966 
L 465.105368 64.38207 
L 466.076225 64.302508 
L 467.047082 64.540354 
L 469.959653 64.906413 
L 470.93051 64.680119 
L 473.84308 64.934214 
L 474.813937 65.228259 
L 476.755651 64.759085 
L 477.726508 64.993102 
L 479.668222 65.019674 
L 479.668222 65.019674 
" clip-path="url(#p4648cb32d0)" style="fill: none; stroke: #2ca02c; stroke-width: 1.5; stroke-linecap: square"/>
   </g>
   <g id="line2d_29">
    <path d="M 73.85004 63.860926 
L 74.820897 63.741198 
L 75.791754 63.756465 
L 76.762611 63.21087 
L 77.733467 63.800131 
L 78.704324 63.917636 
L 79.675181 63.843854 
L 80.646038 64.44356 
L 82.587752 64.246453 
L 83.558609 64.270803 
L 84.529466 64.651585 
L 85.500323 64.381788 
L 86.47118 64.730682 
L 87.442036 64.60164 
L 88.412893 64.306861 
L 91.325464 64.734087 
L 92.296321 64.505666 
L 93.267178 64.687749 
L 94.238035 64.991979 
L 95.208892 64.363095 
L 96.179748 64.248296 
L 97.150605 64.669625 
L 98.121462 64.232797 
L 101.034033 65.004418 
L 102.00489 64.865069 
L 102.975747 64.91542 
L 103.946604 64.7238 
L 104.917461 64.661176 
L 105.888317 65.068994 
L 106.859174 64.916761 
L 108.800888 64.345119 
L 110.742602 64.586881 
L 111.713459 64.286643 
L 112.684316 64.692189 
L 115.596886 64.189765 
L 116.567743 64.443208 
L 117.5386 64.89427 
L 118.509457 64.559235 
L 119.480314 64.696564 
L 120.451171 64.534897 
L 121.422028 64.87312 
L 122.392885 64.858959 
L 124.334598 64.419673 
L 125.305455 64.708862 
L 127.247169 64.6368 
L 129.188883 64.70833 
L 130.15974 64.267165 
L 132.101454 64.408139 
L 134.043167 64.787161 
L 135.014024 64.562993 
L 135.984881 64.873692 
L 136.955738 64.600603 
L 137.926595 64.837434 
L 140.839166 65.211516 
L 144.722593 64.571902 
L 145.69345 64.75897 
L 146.664307 65.101652 
L 147.635164 64.980265 
L 148.606021 65.029348 
L 157.343733 64.835739 
L 158.31459 64.652846 
L 160.256303 64.947486 
L 163.168874 64.248187 
L 164.139731 64.695458 
L 165.110588 64.467577 
L 166.081445 64.093573 
L 167.052302 64.708395 
L 170.935729 64.673814 
L 171.906586 65.249533 
L 172.877443 65.022699 
L 173.8483 65.392811 
L 174.819157 65.630665 
L 175.790014 65.273703 
L 176.760871 65.7956 
L 177.731728 65.130895 
L 178.702584 65.440009 
L 180.644298 65.889628 
L 181.615155 65.415352 
L 182.586012 65.120927 
L 183.556869 64.695663 
L 185.498583 65.485866 
L 186.46944 64.805677 
L 187.440297 64.935028 
L 188.411153 64.669398 
L 189.38201 64.587727 
L 190.352867 64.868489 
L 191.323724 64.96158 
L 192.294581 64.730689 
L 194.236295 64.812643 
L 195.207152 64.617941 
L 198.119722 64.90706 
L 210.740862 63.971343 
L 211.711719 63.671085 
L 212.682576 64.039626 
L 213.653433 63.783457 
L 215.595146 63.687623 
L 216.566003 63.653973 
L 217.53686 63.870529 
L 219.478574 63.197969 
L 220.449431 63.862363 
L 221.420288 63.535444 
L 222.391145 62.81857 
L 223.362002 63.139648 
L 226.274572 62.886895 
L 227.245429 62.947617 
L 229.187143 62.684614 
L 230.158 63.164619 
L 231.128857 63.174965 
L 232.099714 63.417924 
L 233.070571 63.941273 
L 234.041427 63.166885 
L 236.953998 64.006761 
L 237.924855 63.536286 
L 238.895712 63.60875 
L 239.866569 63.369278 
L 240.837426 63.737094 
L 241.808283 63.283546 
L 247.633424 63.662807 
L 250.545995 63.692827 
L 251.516852 63.314189 
L 254.429422 63.863809 
L 255.400279 63.389094 
L 256.371136 63.518402 
L 257.341993 63.793848 
L 260.254564 63.301458 
L 261.22542 63.827433 
L 262.196277 63.567321 
L 263.167134 63.126427 
L 264.137991 63.886327 
L 265.108848 63.436194 
L 269.963133 63.216047 
L 270.933989 62.736988 
L 271.904846 62.767739 
L 273.84656 63.217609 
L 274.817417 63.582129 
L 275.788274 63.67964 
L 276.759131 63.403286 
L 277.729988 63.387103 
L 278.700845 63.498348 
L 280.642558 62.650465 
L 284.525986 62.933223 
L 285.496843 63.236977 
L 287.438557 62.96206 
L 288.409414 63.168093 
L 289.38027 62.918188 
L 290.351127 62.807405 
L 291.321984 63.195938 
L 292.292841 63.044063 
L 293.263698 63.223588 
L 294.234555 63.162368 
L 296.176269 62.604542 
L 299.088839 62.298605 
L 304.913981 62.108256 
L 305.884838 62.237233 
L 334.039688 61.075094 
L 335.010544 60.592344 
L 335.981401 60.912226 
L 336.952258 61.053219 
L 337.923115 60.78426 
L 339.864829 61.107336 
L 342.7774 60.751552 
L 343.748257 60.386613 
L 344.719113 60.696799 
L 345.68997 60.424126 
L 346.660827 60.32815 
L 347.631684 60.694876 
L 348.602541 60.649758 
L 349.573398 60.153769 
L 350.544255 60.090108 
L 368.990536 60.484325 
L 370.93225 60.810408 
L 371.903106 60.672596 
L 372.873963 60.926241 
L 373.84482 60.676283 
L 374.815677 60.628669 
L 375.786534 60.709459 
L 376.757391 60.353749 
L 377.728248 60.549115 
L 378.699105 60.185876 
L 379.669962 60.391441 
L 380.640818 60.140768 
L 381.611675 60.597543 
L 382.582532 59.623577 
L 383.553389 59.8893 
L 385.495103 59.911122 
L 388.407674 59.535778 
L 389.378531 59.749597 
L 390.349387 59.519864 
L 391.320244 59.659201 
L 392.291101 59.521934 
L 394.232815 59.564063 
L 395.203672 59.253509 
L 398.116243 59.414447 
L 399.087099 58.920178 
L 400.057956 59.332416 
L 401.028813 59.557091 
L 401.99967 59.475897 
L 402.970527 59.264992 
L 404.912241 59.662474 
L 405.883098 58.981834 
L 406.853955 59.360265 
L 407.824812 58.933361 
L 408.795668 58.748274 
L 409.766525 58.676613 
L 410.737382 59.270191 
L 411.708239 59.234013 
L 412.679096 59.518376 
L 414.62081 59.679657 
L 415.591667 59.526504 
L 416.562524 59.140693 
L 418.504237 59.150713 
L 419.475094 59.677101 
L 421.416808 59.410955 
L 424.329379 59.784492 
L 425.300236 59.383598 
L 427.241949 59.493735 
L 428.212806 59.067631 
L 429.183663 59.104871 
L 430.15452 58.75592 
L 431.125377 58.956341 
L 434.037948 58.774308 
L 435.008805 58.442545 
L 435.979661 58.876558 
L 436.950518 59.000919 
L 437.921375 58.52975 
L 439.863089 58.643856 
L 440.833946 58.966664 
L 441.804803 58.899761 
L 442.77566 58.628304 
L 443.746517 58.742094 
L 444.717374 58.463979 
L 445.68823 58.50879 
L 446.659087 59.113848 
L 447.629944 59.204093 
L 448.600801 59.155722 
L 449.571658 58.94603 
L 450.542515 59.181946 
L 451.513372 58.723027 
L 452.484229 58.404723 
L 453.455086 59.0495 
L 456.367656 58.455304 
L 457.338513 58.576296 
L 458.30937 58.499305 
L 459.280227 58.03726 
L 460.251084 58.057727 
L 461.221941 58.409925 
L 463.163655 57.634204 
L 464.134511 57.983997 
L 469.959653 58.892106 
L 471.901367 58.910156 
L 472.872223 58.749219 
L 474.813937 59.479838 
L 475.784794 59.008417 
L 476.755651 58.853702 
L 478.697365 59.1869 
L 479.668222 59.184985 
L 479.668222 59.184985 
" clip-path="url(#p4648cb32d0)" style="fill: none; stroke: #d62728; stroke-width: 1.5; stroke-linecap: square"/>
   </g>
   <g id="line2d_30">
    <path d="M 73.85004 186.801437 
L 74.820897 186.611198 
L 75.791754 186.59273 
L 76.762611 186.257376 
L 77.733467 186.401881 
L 78.704324 186.883229 
L 79.675181 186.470693 
L 80.646038 186.818128 
L 82.587752 186.42935 
L 83.558609 186.488728 
L 84.529466 186.7585 
L 85.500323 186.831515 
L 86.47118 186.651636 
L 87.442036 186.921212 
L 88.412893 186.633544 
L 91.325464 186.819092 
L 92.296321 186.655016 
L 94.238035 186.901335 
L 95.208892 186.708319 
L 96.179748 186.290543 
L 97.150605 186.506134 
L 98.121462 186.50876 
L 100.063176 186.714013 
L 102.00489 186.509902 
L 102.975747 186.091132 
L 103.946604 186.504761 
L 104.917461 186.711386 
L 105.888317 186.567106 
L 106.859174 186.936222 
L 108.800888 186.277422 
L 110.742602 186.181641 
L 112.684316 186.665775 
L 113.655173 186.301072 
L 116.567743 186.307804 
L 117.5386 186.246164 
L 118.509457 186.338227 
L 119.480314 186.139102 
L 120.451171 186.354045 
L 121.422028 186.125772 
L 122.392885 186.402158 
L 123.363742 186.091148 
L 124.334598 186.26435 
L 125.305455 185.871496 
L 127.247169 186.233575 
L 129.188883 186.105931 
L 130.15974 186.275831 
L 131.130597 185.87815 
L 133.07231 185.832144 
L 135.014024 185.921206 
L 135.984881 185.838081 
L 136.955738 186.037853 
L 140.839166 185.956602 
L 143.751736 186.186639 
L 144.722593 185.909356 
L 145.69345 186.10341 
L 146.664307 186.096713 
L 147.635164 186.365602 
L 148.606021 185.997568 
L 157.343733 186.06458 
L 158.31459 185.559075 
L 160.256303 186.106327 
L 161.22716 185.857383 
L 162.198017 185.826611 
L 163.168874 185.536252 
L 164.139731 185.420287 
L 166.081445 185.523287 
L 168.023159 185.749876 
L 168.994016 185.514844 
L 169.964872 185.769616 
L 170.935729 185.672068 
L 171.906586 185.833387 
L 172.877443 185.60795 
L 173.8483 185.654279 
L 175.790014 186.031212 
L 176.760871 185.667627 
L 178.702584 185.632354 
L 180.644298 185.804082 
L 181.615155 185.701238 
L 182.586012 185.249017 
L 183.556869 185.396834 
L 184.527726 185.716682 
L 187.440297 185.74891 
L 188.411153 185.500846 
L 190.352867 185.807789 
L 192.294581 185.800386 
L 194.236295 185.754033 
L 196.178009 185.464481 
L 197.148865 185.956287 
L 198.119722 185.718971 
L 213.653433 186.029775 
L 214.62429 186.148185 
L 215.595146 185.99485 
L 216.566003 186.260119 
L 217.53686 186.123225 
L 218.507717 185.757346 
L 221.420288 186.237731 
L 222.391145 185.614972 
L 223.362002 185.950011 
L 226.274572 186.248782 
L 229.187143 186.141498 
L 230.158 186.563233 
L 231.128857 186.526157 
L 232.099714 186.365375 
L 233.070571 186.620631 
L 234.041427 186.699373 
L 236.953998 186.803516 
L 237.924855 186.581783 
L 238.895712 186.603565 
L 239.866569 186.360203 
L 240.837426 186.60671 
L 241.808283 186.669172 
L 251.516852 186.237632 
L 252.487708 186.448065 
L 253.458565 186.125644 
L 254.429422 186.370881 
L 255.400279 186.402386 
L 256.371136 186.58627 
L 260.254564 186.398794 
L 262.196277 186.875379 
L 263.167134 186.499148 
L 265.108848 186.662038 
L 266.079705 186.263401 
L 267.050562 186.56937 
L 268.021419 186.707954 
L 268.992276 186.570056 
L 269.963133 186.792921 
L 270.933989 186.537506 
L 273.84656 186.514551 
L 275.788274 186.762687 
L 276.759131 186.538651 
L 277.729988 186.603648 
L 278.700845 186.441509 
L 279.671701 186.162278 
L 280.642558 186.069268 
L 281.613415 186.136466 
L 282.584272 186.022842 
L 283.555129 185.72193 
L 285.496843 186.213274 
L 287.438557 185.880851 
L 289.38027 186.073868 
L 290.351127 186.418579 
L 291.321984 186.224556 
L 294.234555 186.09028 
L 296.176269 186.158605 
L 301.030553 185.785216 
L 304.913981 186.121806 
L 305.884838 185.979986 
L 333.068831 185.548501 
L 335.010544 184.985342 
L 335.981401 185.325259 
L 336.952258 185.064755 
L 337.923115 184.971918 
L 339.864829 185.386727 
L 342.7774 185.307069 
L 343.748257 184.932575 
L 344.719113 185.462015 
L 346.660827 185.419768 
L 347.631684 185.57921 
L 349.573398 185.389475 
L 350.544255 185.49381 
L 370.93225 185.652583 
L 371.903106 185.678133 
L 372.873963 185.427001 
L 373.84482 185.544278 
L 374.815677 185.390132 
L 375.786534 185.610788 
L 376.757391 185.349617 
L 377.728248 185.558822 
L 378.699105 185.581392 
L 379.669962 185.840065 
L 380.640818 185.524231 
L 381.611675 185.60365 
L 382.582532 184.056359 
L 385.495103 184.245521 
L 388.407674 184.075116 
L 389.378531 183.833092 
L 391.320244 183.813238 
L 392.291101 184.030159 
L 393.261958 183.906281 
L 395.203672 184.083025 
L 396.174529 183.848232 
L 397.145386 184.101449 
L 398.116243 184.025215 
L 399.087099 183.765307 
L 401.028813 183.954403 
L 401.99967 183.744028 
L 402.970527 183.656008 
L 403.941384 184.14059 
L 405.883098 183.670933 
L 406.853955 184.015183 
L 408.795668 183.631453 
L 410.737382 183.96846 
L 412.679096 184.4095 
L 413.649953 184.338793 
L 414.62081 184.59548 
L 415.591667 184.419925 
L 416.562524 184.12693 
L 417.53338 184.240398 
L 418.504237 184.126694 
L 420.445951 184.406965 
L 422.387665 184.398687 
L 423.358522 184.059685 
L 424.329379 184.159774 
L 425.300236 183.934308 
L 427.241949 184.064895 
L 428.212806 184.328665 
L 429.183663 184.174832 
L 430.15452 184.697275 
L 431.125377 184.442055 
L 434.037948 184.576511 
L 435.008805 184.392652 
L 435.979661 184.670587 
L 437.921375 184.583837 
L 440.833946 184.842033 
L 441.804803 184.84012 
L 443.746517 184.408314 
L 444.717374 184.306889 
L 445.68823 184.50475 
L 446.659087 185.433582 
L 448.600801 185.832443 
L 449.571658 185.515763 
L 450.542515 185.706103 
L 452.484229 185.534559 
L 453.455086 185.661914 
L 455.396799 185.453958 
L 456.367656 185.203339 
L 458.30937 185.253055 
L 459.280227 184.642887 
L 462.192798 184.841985 
L 463.163655 184.541448 
L 464.134511 184.734194 
L 466.076225 184.523992 
L 467.047082 184.816116 
L 470.93051 184.855248 
L 471.901367 184.988837 
L 473.84308 184.945064 
L 474.813937 185.148616 
L 477.726508 184.984632 
L 478.697365 185.287815 
L 479.668222 185.273311 
L 479.668222 185.273311 
" clip-path="url(#p4648cb32d0)" style="fill: none; stroke: #9467bd; stroke-width: 1.5; stroke-linecap: square"/>
   </g>
   <g id="line2d_31">
    <path d="M 73.85004 114.392006 
L 74.820897 114.624889 
L 75.791754 114.67701 
L 76.762611 113.946556 
L 77.733467 114.317201 
L 78.704324 114.244227 
L 80.646038 114.671734 
L 81.616895 114.300324 
L 83.558609 115.190606 
L 84.529466 115.008415 
L 86.47118 115.230486 
L 87.442036 114.80782 
L 88.412893 114.8689 
L 93.267178 114.841114 
L 94.238035 115.125547 
L 95.208892 114.668256 
L 96.179748 114.662057 
L 97.150605 114.824032 
L 98.121462 114.774897 
L 99.092319 114.411981 
L 100.063176 114.730559 
L 101.034033 114.805629 
L 102.00489 114.418422 
L 102.975747 114.409725 
L 103.946604 114.624416 
L 104.917461 114.499405 
L 105.888317 114.91242 
L 106.859174 114.26268 
L 107.830031 114.392741 
L 108.800888 113.996786 
L 110.742602 114.077548 
L 111.713459 113.667798 
L 112.684316 114.152528 
L 113.655173 113.855007 
L 117.5386 114.518752 
L 118.509457 113.786378 
L 119.480314 114.124929 
L 120.451171 114.117691 
L 121.422028 113.953358 
L 122.392885 114.403475 
L 124.334598 113.578909 
L 125.305455 113.830203 
L 127.247169 113.430093 
L 129.188883 113.197169 
L 131.130597 113.243152 
L 132.101454 113.236245 
L 133.07231 113.034867 
L 135.014024 113.639119 
L 135.984881 113.763051 
L 136.955738 113.608585 
L 137.926595 113.606151 
L 143.751736 113.881885 
L 144.722593 113.520115 
L 145.69345 113.717791 
L 146.664307 113.651471 
L 147.635164 113.812605 
L 148.606021 113.738438 
L 157.343733 113.565455 
L 158.31459 113.380246 
L 160.256303 113.517239 
L 161.22716 113.270498 
L 162.198017 113.591213 
L 165.110588 113.325765 
L 166.081445 113.021826 
L 167.052302 113.088518 
L 168.023159 113.48807 
L 169.964872 113.354562 
L 170.935729 113.298608 
L 171.906586 113.545454 
L 172.877443 113.414521 
L 174.819157 113.841996 
L 175.790014 113.590995 
L 176.760871 113.706461 
L 177.731728 113.594059 
L 178.702584 113.911176 
L 179.673441 114.033384 
L 183.556869 113.52842 
L 184.527726 113.821473 
L 186.46944 113.778852 
L 187.440297 114.046362 
L 188.411153 113.592874 
L 189.38201 113.458504 
L 190.352867 113.847167 
L 191.323724 113.683977 
L 192.294581 113.778608 
L 194.236295 113.230759 
L 195.207152 113.409149 
L 196.178009 113.063109 
L 197.148865 112.957673 
L 198.119722 113.323697 
L 210.740862 112.365428 
L 211.711719 111.992937 
L 212.682576 112.198864 
L 213.653433 112.52497 
L 215.595146 112.297479 
L 217.53686 112.878632 
L 218.507717 112.64576 
L 219.478574 112.716023 
L 220.449431 112.969077 
L 221.420288 112.474507 
L 222.391145 112.131905 
L 223.362002 112.184118 
L 227.245429 111.342244 
L 228.216286 111.499869 
L 229.187143 111.172145 
L 230.158 111.392413 
L 231.128857 111.883099 
L 232.099714 111.601826 
L 233.070571 111.707495 
L 234.041427 111.520084 
L 236.953998 111.567806 
L 237.924855 111.450517 
L 238.895712 111.486368 
L 239.866569 111.158911 
L 241.808283 111.901881 
L 248.604281 111.44055 
L 249.575138 111.225671 
L 250.545995 111.512578 
L 251.516852 111.257119 
L 252.487708 111.217915 
L 253.458565 111.529272 
L 254.429422 111.689714 
L 256.371136 111.373393 
L 257.341993 111.591301 
L 258.31285 111.41314 
L 259.283707 111.433317 
L 260.254564 110.95204 
L 261.22542 111.589278 
L 263.167134 111.206587 
L 264.137991 111.403385 
L 265.108848 111.199617 
L 267.050562 111.134701 
L 268.021419 111.37219 
L 268.992276 111.418178 
L 270.933989 111.053955 
L 271.904846 111.156244 
L 272.875703 111.059401 
L 273.84656 111.201085 
L 275.788274 111.158085 
L 277.729988 110.971903 
L 278.700845 111.352087 
L 279.671701 110.669658 
L 283.555129 110.350076 
L 285.496843 110.947187 
L 287.438557 110.388227 
L 288.409414 110.891638 
L 289.38027 110.748795 
L 290.351127 110.454929 
L 294.234555 110.499935 
L 296.176269 110.02913 
L 299.088839 109.999413 
L 304.913981 109.539813 
L 305.884838 109.492776 
L 334.039688 108.299296 
L 335.010544 107.820513 
L 335.981401 108.151982 
L 336.952258 108.316152 
L 338.893972 107.93213 
L 339.864829 107.970942 
L 340.835686 107.884228 
L 341.806543 108.079712 
L 343.748257 107.819702 
L 344.719113 108.205054 
L 345.68997 108.379844 
L 346.660827 108.228944 
L 347.631684 108.39497 
L 348.602541 108.371933 
L 349.573398 108.019741 
L 350.544255 107.905351 
L 368.019679 108.101479 
L 368.990536 107.815635 
L 370.93225 108.261818 
L 371.903106 107.774758 
L 372.873963 107.919825 
L 373.84482 107.873469 
L 374.815677 107.563374 
L 375.786534 107.67069 
L 376.757391 107.139595 
L 377.728248 107.219658 
L 378.699105 106.756503 
L 379.669962 107.022697 
L 380.640818 107.032298 
L 381.611675 107.258201 
L 382.582532 107.922403 
L 383.553389 108.226409 
L 385.495103 107.941364 
L 389.378531 108.005324 
L 390.349387 107.67316 
L 391.320244 108.098718 
L 392.291101 107.873924 
L 394.232815 107.817546 
L 395.203672 107.457929 
L 396.174529 107.319816 
L 398.116243 107.765925 
L 399.087099 107.218868 
L 401.028813 107.739925 
L 401.99967 107.722686 
L 403.941384 108.040691 
L 404.912241 107.505448 
L 405.883098 107.262125 
L 406.853955 107.441969 
L 408.795668 107.031809 
L 409.766525 106.792159 
L 410.737382 107.252075 
L 411.708239 107.524517 
L 412.679096 107.330102 
L 413.649953 107.46909 
L 414.62081 107.431462 
L 415.591667 106.9831 
L 416.562524 107.270913 
L 418.504237 107.025377 
L 419.475094 107.162406 
L 421.416808 106.791039 
L 422.387665 107.011239 
L 423.358522 106.97319 
L 424.329379 107.264746 
L 425.300236 106.927919 
L 427.241949 106.746715 
L 428.212806 106.486471 
L 430.15452 107.233346 
L 431.125377 107.027983 
L 434.037948 107.148863 
L 435.008805 107.040828 
L 435.979661 107.15791 
L 436.950518 107.088862 
L 438.892232 106.512701 
L 439.863089 106.373957 
L 440.833946 106.611409 
L 441.804803 106.635504 
L 444.717374 106.201753 
L 445.68823 106.240928 
L 446.659087 105.707482 
L 447.629944 105.796704 
L 448.600801 105.617423 
L 451.513372 105.751836 
L 452.484229 105.388253 
L 455.396799 105.408267 
L 456.367656 105.260261 
L 458.30937 105.358719 
L 459.280227 105.032823 
L 460.251084 104.876774 
L 461.221941 105.165237 
L 463.163655 104.347242 
L 465.105368 104.923263 
L 466.076225 104.539261 
L 469.959653 105.233559 
L 471.901367 105.038198 
L 472.872223 104.968418 
L 473.84308 105.122365 
L 474.813937 105.034337 
L 475.784794 104.747322 
L 477.726508 104.688763 
L 478.697365 105.016527 
L 479.668222 104.837954 
L 479.668222 104.837954 
" clip-path="url(#p4648cb32d0)" style="fill: none; stroke: #8c564b; stroke-width: 1.5; stroke-linecap: square"/>
   </g>
   <g id="line2d_32">
    <path d="M 73.85004 35.366352 
L 74.820897 35.305419 
L 75.791754 34.832121 
L 76.762611 34.863979 
L 77.733467 35.454879 
L 78.704324 35.512923 
L 79.675181 35.990637 
L 80.646038 36.18536 
L 81.616895 36.687745 
L 82.587752 36.166187 
L 83.558609 36.536535 
L 84.529466 36.282268 
L 85.500323 36.600377 
L 86.47118 36.36319 
L 87.442036 36.379995 
L 88.412893 36.182531 
L 91.325464 36.383321 
L 92.296321 36.305565 
L 93.267178 36.358974 
L 94.238035 36.755247 
L 96.179748 35.893755 
L 97.150605 36.606736 
L 98.121462 36.319191 
L 99.092319 36.687894 
L 100.063176 36.852237 
L 101.034033 37.427699 
L 102.975747 37.302539 
L 104.917461 37.145789 
L 105.888317 37.493873 
L 106.859174 37.020071 
L 107.830031 36.704153 
L 110.742602 36.770589 
L 111.713459 36.563446 
L 112.684316 36.94799 
L 113.655173 36.676538 
L 115.596886 36.344915 
L 116.567743 36.653055 
L 117.5386 36.742647 
L 118.509457 36.354359 
L 119.480314 36.551943 
L 120.451171 36.580503 
L 121.422028 36.738111 
L 122.392885 36.440405 
L 123.363742 36.346148 
L 124.334598 35.977544 
L 125.305455 36.3282 
L 127.247169 35.864465 
L 129.188883 36.452424 
L 130.15974 35.844549 
L 131.130597 36.208319 
L 132.101454 36.073306 
L 134.043167 36.730077 
L 135.014024 36.028625 
L 135.984881 36.552269 
L 136.955738 36.27603 
L 137.926595 36.386944 
L 143.751736 36.191164 
L 144.722593 36.359038 
L 145.69345 36.338373 
L 146.664307 36.774804 
L 148.606021 37.164239 
L 157.343733 36.618681 
L 158.31459 36.676555 
L 160.256303 36.462243 
L 162.198017 36.601262 
L 163.168874 36.290178 
L 165.110588 36.466134 
L 166.081445 36.113933 
L 167.052302 36.454595 
L 168.994016 36.262992 
L 169.964872 36.602273 
L 170.935729 36.559232 
L 171.906586 37.20287 
L 172.877443 36.608933 
L 174.819157 37.170274 
L 175.790014 37.150134 
L 176.760871 37.404857 
L 177.731728 37.043206 
L 179.673441 37.477409 
L 182.586012 37.431661 
L 183.556869 36.797973 
L 184.527726 37.042015 
L 185.498583 37.633755 
L 186.46944 37.239236 
L 187.440297 37.572999 
L 188.411153 36.869325 
L 189.38201 37.127004 
L 190.352867 37.225221 
L 192.294581 37.06026 
L 194.236295 37.128655 
L 196.178009 36.799104 
L 198.119722 37.207599 
L 210.740862 36.324003 
L 211.711719 35.920792 
L 212.682576 36.208798 
L 213.653433 35.812602 
L 214.62429 35.59152 
L 215.595146 35.581556 
L 217.53686 36.044273 
L 219.478574 35.457138 
L 220.449431 35.737811 
L 221.420288 35.563933 
L 222.391145 34.886151 
L 223.362002 35.231221 
L 226.274572 35.175808 
L 227.245429 35.502565 
L 229.187143 35.232601 
L 230.158 35.646927 
L 233.070571 35.956354 
L 234.041427 35.236841 
L 236.953998 36.507114 
L 237.924855 36.012951 
L 238.895712 36.105987 
L 239.866569 36.067177 
L 240.837426 36.304216 
L 241.808283 36.045957 
L 247.633424 36.087845 
L 248.604281 36.183332 
L 249.575138 35.957505 
L 250.545995 36.413103 
L 251.516852 35.826337 
L 252.487708 35.8163 
L 253.458565 35.968845 
L 254.429422 35.960015 
L 255.400279 35.370466 
L 256.371136 36.181824 
L 259.283707 35.609948 
L 260.254564 35.675163 
L 261.22542 35.969882 
L 262.196277 35.3778 
L 263.167134 35.302748 
L 264.137991 35.894231 
L 265.108848 35.23243 
L 267.050562 35.258279 
L 268.021419 35.049861 
L 268.992276 35.224261 
L 269.963133 35.074572 
L 270.933989 34.612808 
L 271.904846 34.825668 
L 272.875703 34.723709 
L 275.788274 35.138644 
L 276.759131 35.020874 
L 277.729988 35.278199 
L 278.700845 35.207979 
L 280.642558 34.463496 
L 281.613415 34.287572 
L 282.584272 34.548954 
L 283.555129 34.34122 
L 284.525986 34.827813 
L 285.496843 35.066015 
L 286.4677 34.88747 
L 288.409414 34.904832 
L 289.38027 34.732294 
L 290.351127 34.430296 
L 291.321984 34.646964 
L 292.292841 34.743933 
L 293.263698 34.99792 
L 299.088839 34.100786 
L 301.030553 34.049585 
L 304.913981 33.712909 
L 305.884838 33.780573 
L 334.039688 34.067339 
L 335.010544 33.674836 
L 335.981401 34.208941 
L 336.952258 34.279997 
L 337.923115 33.763209 
L 338.893972 33.735816 
L 339.864829 33.89558 
L 340.835686 33.702186 
L 341.806543 33.636939 
L 342.7774 33.436746 
L 343.748257 33.493572 
L 346.660827 32.967404 
L 347.631684 33.429339 
L 350.544255 33.046426 
L 368.990536 33.606697 
L 370.93225 33.830838 
L 371.903106 33.548574 
L 372.873963 33.541763 
L 373.84482 33.365553 
L 374.815677 33.467907 
L 376.757391 33.020966 
L 377.728248 32.966768 
L 378.699105 32.760323 
L 379.669962 33.045487 
L 380.640818 32.914645 
L 381.611675 33.03818 
L 382.582532 32.351152 
L 383.553389 32.679792 
L 384.524246 32.585457 
L 385.495103 32.885956 
L 393.261958 32.741507 
L 394.232815 32.838773 
L 395.203672 32.475327 
L 396.174529 32.638129 
L 397.145386 33.131052 
L 399.087099 32.547035 
L 400.057956 32.718893 
L 401.028813 33.325644 
L 401.99967 32.952119 
L 402.970527 32.714551 
L 403.941384 33.150763 
L 404.912241 33.371708 
L 405.883098 32.678659 
L 406.853955 33.057603 
L 407.824812 32.510262 
L 408.795668 32.368621 
L 409.766525 32.393633 
L 410.737382 32.830079 
L 411.708239 32.714116 
L 413.649953 33.096566 
L 414.62081 32.94952 
L 415.591667 32.595113 
L 416.562524 32.391607 
L 417.53338 32.350727 
L 418.504237 32.469433 
L 419.475094 32.926085 
L 420.445951 32.965365 
L 421.416808 32.503524 
L 422.387665 33.021288 
L 423.358522 32.983117 
L 424.329379 33.189084 
L 429.183663 32.741383 
L 430.15452 32.161161 
L 431.125377 32.467885 
L 434.037948 32.397856 
L 435.008805 32.142925 
L 435.979661 32.465488 
L 436.950518 32.450706 
L 437.921375 32.220499 
L 442.77566 32.322457 
L 443.746517 31.919636 
L 445.68823 31.846328 
L 446.659087 31.768096 
L 447.629944 31.827844 
L 449.571658 31.700099 
L 450.542515 31.834461 
L 451.513372 31.718134 
L 452.484229 31.22039 
L 453.455086 31.702343 
L 454.425942 31.962511 
L 455.396799 31.53346 
L 456.367656 31.491005 
L 457.338513 31.568248 
L 458.30937 31.481897 
L 459.280227 31.227477 
L 460.251084 31.17206 
L 461.221941 31.488083 
L 462.192798 31.154403 
L 465.105368 31.373693 
L 466.076225 31.187922 
L 467.047082 31.486277 
L 469.959653 31.897253 
L 470.93051 31.705872 
L 473.84308 31.666107 
L 474.813937 32.261415 
L 475.784794 31.876931 
L 476.755651 31.741046 
L 477.726508 31.733635 
L 478.697365 31.88008 
L 479.668222 31.83488 
L 479.668222 31.83488 
" clip-path="url(#p4648cb32d0)" style="fill: none; stroke: #e377c2; stroke-width: 1.5; stroke-linecap: square"/>
   </g>
   <g id="patch_3">
    <path d="M 53.559131 194.725312 
L 53.559131 23.365313 
" style="fill: none; stroke: #000000; stroke-width: 0.8; stroke-linejoin: miter; stroke-linecap: square"/>
   </g>
   <g id="patch_4">
    <path d="M 499.959131 194.725312 
L 499.959131 23.365313 
" style="fill: none; stroke: #000000; stroke-width: 0.8; stroke-linejoin: miter; stroke-linecap: square"/>
   </g>
   <g id="patch_5">
    <path d="M 53.559131 194.725312 
L 499.959131 194.725312 
" style="fill: none; stroke: #000000; stroke-width: 0.8; stroke-linejoin: miter; stroke-linecap: square"/>
   </g>
   <g id="patch_6">
    <path d="M 53.559131 23.365313 
L 499.959131 23.365313 
" style="fill: none; stroke: #000000; stroke-width: 0.8; stroke-linejoin: miter; stroke-linecap: square"/>
   </g>
   <g id="legend_1">
    <g id="patch_7">
     <path d="M 164.201006 162.131062 
L 389.317256 162.131062 
Q 390.917256 162.131062 390.917256 160.531062 
L 390.917256 126.103562 
Q 390.917256 124.503562 389.317256 124.503562 
L 164.201006 124.503562 
Q 162.601006 124.503562 162.601006 126.103562 
L 162.601006 160.531062 
Q 162.601006 162.131062 164.201006 162.131062 
z
" style="fill: #ffffff; opacity: 0.8; stroke: #cccccc; stroke-linejoin: miter"/>
    </g>
    <g id="line2d_33">
     <path d="M 165.801006 130.982312 
L 173.801006 130.982312 
L 181.801006 130.982312 
" style="fill: none; stroke: #1f77b4; stroke-width: 1.5; stroke-linecap: square"/>
    </g>
    <g id="text_22">
     <!-- script-src -->
     <g transform="translate(188.201006 133.782312)scale(0.08 -0.08)">
      <use xlink:href="#DejaVuSans-73"/>
      <use xlink:href="#DejaVuSans-63" x="52.099609"/>
      <use xlink:href="#DejaVuSans-72" x="107.080078"/>
      <use xlink:href="#DejaVuSans-69" x="148.193359"/>
      <use xlink:href="#DejaVuSans-70" x="175.976562"/>
      <use xlink:href="#DejaVuSans-74" x="239.453125"/>
      <use xlink:href="#DejaVuSans-2d" x="278.662109"/>
      <use xlink:href="#DejaVuSans-73" x="314.746094"/>
      <use xlink:href="#DejaVuSans-72" x="366.845703"/>
      <use xlink:href="#DejaVuSans-63" x="405.708984"/>
     </g>
    </g>
    <g id="line2d_34">
     <path d="M 165.801006 142.724812 
L 173.801006 142.724812 
L 181.801006 142.724812 
" style="fill: none; stroke: #ff7f0e; stroke-width: 1.5; stroke-linecap: square"/>
    </g>
    <g id="text_23">
     <!-- connect-src -->
     <g transform="translate(188.201006 145.524812)scale(0.08 -0.08)">
      <use xlink:href="#DejaVuSans-63"/>
      <use xlink:href="#DejaVuSans-6f" x="54.980469"/>
      <use xlink:href="#DejaVuSans-6e" x="116.162109"/>
      <use xlink:href="#DejaVuSans-6e" x="179.541016"/>
      <use xlink:href="#DejaVuSans-65" x="242.919922"/>
      <use xlink:href="#DejaVuSans-63" x="304.443359"/>
      <use xlink:href="#DejaVuSans-74" x="359.423828"/>
      <use xlink:href="#DejaVuSans-2d" x="398.632812"/>
      <use xlink:href="#DejaVuSans-73" x="434.716797"/>
      <use xlink:href="#DejaVuSans-72" x="486.816406"/>
      <use xlink:href="#DejaVuSans-63" x="525.679688"/>
     </g>
    </g>
    <g id="line2d_35">
     <path d="M 165.801006 154.467312 
L 173.801006 154.467312 
L 181.801006 154.467312 
" style="fill: none; stroke: #2ca02c; stroke-width: 1.5; stroke-linecap: square"/>
    </g>
    <g id="text_24">
     <!-- style-src -->
     <g transform="translate(188.201006 157.267313)scale(0.08 -0.08)">
      <use xlink:href="#DejaVuSans-73"/>
      <use xlink:href="#DejaVuSans-74" x="52.099609"/>
      <use xlink:href="#DejaVuSans-79" x="91.308594"/>
      <use xlink:href="#DejaVuSans-6c" x="150.488281"/>
      <use xlink:href="#DejaVuSans-65" x="178.271484"/>
      <use xlink:href="#DejaVuSans-2d" x="239.794922"/>
      <use xlink:href="#DejaVuSans-73" x="275.878906"/>
      <use xlink:href="#DejaVuSans-72" x="327.978516"/>
      <use xlink:href="#DejaVuSans-63" x="366.841797"/>
     </g>
    </g>
    <g id="line2d_36">
     <path d="M 250.653506 130.982312 
L 258.653506 130.982312 
L 266.653506 130.982312 
" style="fill: none; stroke: #d62728; stroke-width: 1.5; stroke-linecap: square"/>
    </g>
    <g id="text_25">
     <!-- img-src -->
     <g transform="translate(273.053506 133.782312)scale(0.08 -0.08)">
      <defs>
       <path id="DejaVuSans-6d" d="M 3328 2828 
Q 3544 3216 3844 3400 
Q 4144 3584 4550 3584 
Q 5097 3584 5394 3201 
Q 5691 2819 5691 2113 
L 5691 0 
L 5113 0 
L 5113 2094 
Q 5113 2597 4934 2840 
Q 4756 3084 4391 3084 
Q 3944 3084 3684 2787 
Q 3425 2491 3425 1978 
L 3425 0 
L 2847 0 
L 2847 2094 
Q 2847 2600 2669 2842 
Q 2491 3084 2119 3084 
Q 1678 3084 1418 2786 
Q 1159 2488 1159 1978 
L 1159 0 
L 581 0 
L 581 3500 
L 1159 3500 
L 1159 2956 
Q 1356 3278 1631 3431 
Q 1906 3584 2284 3584 
Q 2666 3584 2933 3390 
Q 3200 3197 3328 2828 
z
" transform="scale(0.015625)"/>
      </defs>
      <use xlink:href="#DejaVuSans-69"/>
      <use xlink:href="#DejaVuSans-6d" x="27.783203"/>
      <use xlink:href="#DejaVuSans-67" x="125.195312"/>
      <use xlink:href="#DejaVuSans-2d" x="188.671875"/>
      <use xlink:href="#DejaVuSans-73" x="224.755859"/>
      <use xlink:href="#DejaVuSans-72" x="276.855469"/>
      <use xlink:href="#DejaVuSans-63" x="315.71875"/>
     </g>
    </g>
    <g id="line2d_37">
     <path d="M 250.653506 142.724812 
L 258.653506 142.724812 
L 266.653506 142.724812 
" style="fill: none; stroke: #9467bd; stroke-width: 1.5; stroke-linecap: square"/>
    </g>
    <g id="text_26">
     <!-- child-src -->
     <g transform="translate(273.053506 145.524812)scale(0.08 -0.08)">
      <defs>
       <path id="DejaVuSans-68" d="M 3513 2113 
L 3513 0 
L 2938 0 
L 2938 2094 
Q 2938 2591 2744 2837 
Q 2550 3084 2163 3084 
Q 1697 3084 1428 2787 
Q 1159 2491 1159 1978 
L 1159 0 
L 581 0 
L 581 4863 
L 1159 4863 
L 1159 2956 
Q 1366 3272 1645 3428 
Q 1925 3584 2291 3584 
Q 2894 3584 3203 3211 
Q 3513 2838 3513 2113 
z
" transform="scale(0.015625)"/>
      </defs>
      <use xlink:href="#DejaVuSans-63"/>
      <use xlink:href="#DejaVuSans-68" x="54.980469"/>
      <use xlink:href="#DejaVuSans-69" x="118.359375"/>
      <use xlink:href="#DejaVuSans-6c" x="146.142578"/>
      <use xlink:href="#DejaVuSans-64" x="173.925781"/>
      <use xlink:href="#DejaVuSans-2d" x="237.402344"/>
      <use xlink:href="#DejaVuSans-73" x="273.486328"/>
      <use xlink:href="#DejaVuSans-72" x="325.585938"/>
      <use xlink:href="#DejaVuSans-63" x="364.449219"/>
     </g>
    </g>
    <g id="line2d_38">
     <path d="M 322.607256 130.982312 
L 330.607256 130.982312 
L 338.607256 130.982312 
" style="fill: none; stroke: #8c564b; stroke-width: 1.5; stroke-linecap: square"/>
    </g>
    <g id="text_27">
     <!-- frame-src -->
     <g transform="translate(345.007256 133.782312)scale(0.08 -0.08)">
      <use xlink:href="#DejaVuSans-66"/>
      <use xlink:href="#DejaVuSans-72" x="35.205078"/>
      <use xlink:href="#DejaVuSans-61" x="76.318359"/>
      <use xlink:href="#DejaVuSans-6d" x="137.597656"/>
      <use xlink:href="#DejaVuSans-65" x="235.009766"/>
      <use xlink:href="#DejaVuSans-2d" x="296.533203"/>
      <use xlink:href="#DejaVuSans-73" x="332.617188"/>
      <use xlink:href="#DejaVuSans-72" x="384.716797"/>
      <use xlink:href="#DejaVuSans-63" x="423.580078"/>
     </g>
    </g>
    <g id="line2d_39">
     <path d="M 322.607256 142.724812 
L 330.607256 142.724812 
L 338.607256 142.724812 
" style="fill: none; stroke: #e377c2; stroke-width: 1.5; stroke-linecap: square"/>
    </g>
    <g id="text_28">
     <!-- default-src -->
     <g transform="translate(345.007256 145.524812)scale(0.08 -0.08)">
      <use xlink:href="#DejaVuSans-64"/>
      <use xlink:href="#DejaVuSans-65" x="63.476562"/>
      <use xlink:href="#DejaVuSans-66" x="125"/>
      <use xlink:href="#DejaVuSans-61" x="160.205078"/>
      <use xlink:href="#DejaVuSans-75" x="221.484375"/>
      <use xlink:href="#DejaVuSans-6c" x="284.863281"/>
      <use xlink:href="#DejaVuSans-74" x="312.646484"/>
      <use xlink:href="#DejaVuSans-2d" x="351.855469"/>
      <use xlink:href="#DejaVuSans-73" x="387.939453"/>
      <use xlink:href="#DejaVuSans-72" x="440.039062"/>
      <use xlink:href="#DejaVuSans-63" x="478.902344"/>
     </g>
    </g>
   </g>
  </g>
 </g>
 <defs>
  <clipPath id="p4648cb32d0">
   <rect x="53.559131" y="23.365313" width="446.4" height="171.36"/>
  </clipPath>
 </defs>
</svg>
