<?xml version="1.0" encoding="utf-8" standalone="no"?>
<!DOCTYPE svg PUBLIC "-//W3C//DTD SVG 1.1//EN"
  "http://www.w3.org/Graphics/SVG/1.1/DTD/svg11.dtd">
<svg xmlns:xlink="http://www.w3.org/1999/xlink" width="506.732901pt" height="237.886033pt" viewBox="0 0 506.732901 237.886033" xmlns="http://www.w3.org/2000/svg" version="1.1">
 <metadata>
  <rdf:RDF xmlns:dc="http://purl.org/dc/elements/1.1/" xmlns:cc="http://creativecommons.org/ns#" xmlns:rdf="http://www.w3.org/1999/02/22-rdf-syntax-ns#">
   <cc:Work>
    <dc:type rdf:resource="http://purl.org/dc/dcmitype/StillImage"/>
    <dc:date>2022-02-14T19:25:14.653896</dc:date>
    <dc:format>image/svg+xml</dc:format>
    <dc:creator>
     <cc:Agent>
      <dc:title>Matplotlib v3.5.1, https://matplotlib.org/</dc:title>
     </cc:Agent>
    </dc:creator>
   </cc:Work>
  </rdf:RDF>
 </metadata>
 <defs>
  <style type="text/css">*{stroke-linejoin: round; stroke-linecap: butt}</style>
 </defs>
 <g id="figure_1">
  <g id="patch_1">
   <path d="M 0 237.886033 
L 506.732901 237.886033 
L 506.732901 0 
L 0 0 
z
" style="fill: #ffffff"/>
  </g>
  <g id="axes_1">
   <g id="patch_2">
    <path d="M 53.132901 182.359219 
L 499.532901 182.359219 
L 499.532901 10.999219 
L 53.132901 10.999219 
z
" style="fill: #ffffff"/>
   </g>
   <g id="matplotlib.axis_1">
    <g id="xtick_1">
     <g id="line2d_1">
      <defs>
       <path id="m563fcfe0fd" d="M 0 0 
L 0 3.5 
" style="stroke: #000000; stroke-width: 0.8"/>
      </defs>
      <g>
       <use xlink:href="#m563fcfe0fd" x="68.024899" y="182.359219" style="stroke: #000000; stroke-width: 0.8"/>
      </g>
     </g>
     <g id="text_1">
      <!-- 2020-Nov-01 -->
      <g transform="translate(10.999219 228.263096)rotate(-30)scale(0.1 -0.1)">
       <defs>
        <path id="DejaVuSans-32" d="M 1228 531 
L 3431 531 
L 3431 0 
L 469 0 
L 469 531 
Q 828 903 1448 1529 
Q 2069 2156 2228 2338 
Q 2531 2678 2651 2914 
Q 2772 3150 2772 3378 
Q 2772 3750 2511 3984 
Q 2250 4219 1831 4219 
Q 1534 4219 1204 4116 
Q 875 4013 500 3803 
L 500 4441 
Q 881 4594 1212 4672 
Q 1544 4750 1819 4750 
Q 2544 4750 2975 4387 
Q 3406 4025 3406 3419 
Q 3406 3131 3298 2873 
Q 3191 2616 2906 2266 
Q 2828 2175 2409 1742 
Q 1991 1309 1228 531 
z
" transform="scale(0.015625)"/>
        <path id="DejaVuSans-30" d="M 2034 4250 
Q 1547 4250 1301 3770 
Q 1056 3291 1056 2328 
Q 1056 1369 1301 889 
Q 1547 409 2034 409 
Q 2525 409 2770 889 
Q 3016 1369 3016 2328 
Q 3016 3291 2770 3770 
Q 2525 4250 2034 4250 
z
M 2034 4750 
Q 2819 4750 3233 4129 
Q 3647 3509 3647 2328 
Q 3647 1150 3233 529 
Q 2819 -91 2034 -91 
Q 1250 -91 836 529 
Q 422 1150 422 2328 
Q 422 3509 836 4129 
Q 1250 4750 2034 4750 
z
" transform="scale(0.015625)"/>
        <path id="DejaVuSans-2d" d="M 313 2009 
L 1997 2009 
L 1997 1497 
L 313 1497 
L 313 2009 
z
" transform="scale(0.015625)"/>
        <path id="DejaVuSans-4e" d="M 628 4666 
L 1478 4666 
L 3547 763 
L 3547 4666 
L 4159 4666 
L 4159 0 
L 3309 0 
L 1241 3903 
L 1241 0 
L 628 0 
L 628 4666 
z
" transform="scale(0.015625)"/>
        <path id="DejaVuSans-6f" d="M 1959 3097 
Q 1497 3097 1228 2736 
Q 959 2375 959 1747 
Q 959 1119 1226 758 
Q 1494 397 1959 397 
Q 2419 397 2687 759 
Q 2956 1122 2956 1747 
Q 2956 2369 2687 2733 
Q 2419 3097 1959 3097 
z
M 1959 3584 
Q 2709 3584 3137 3096 
Q 3566 2609 3566 1747 
Q 3566 888 3137 398 
Q 2709 -91 1959 -91 
Q 1206 -91 779 398 
Q 353 888 353 1747 
Q 353 2609 779 3096 
Q 1206 3584 1959 3584 
z
" transform="scale(0.015625)"/>
        <path id="DejaVuSans-76" d="M 191 3500 
L 800 3500 
L 1894 563 
L 2988 3500 
L 3597 3500 
L 2284 0 
L 1503 0 
L 191 3500 
z
" transform="scale(0.015625)"/>
        <path id="DejaVuSans-31" d="M 794 531 
L 1825 531 
L 1825 4091 
L 703 3866 
L 703 4441 
L 1819 4666 
L 2450 4666 
L 2450 531 
L 3481 531 
L 3481 0 
L 794 0 
L 794 531 
z
" transform="scale(0.015625)"/>
       </defs>
       <use xlink:href="#DejaVuSans-32"/>
       <use xlink:href="#DejaVuSans-30" x="63.623047"/>
       <use xlink:href="#DejaVuSans-32" x="127.246094"/>
       <use xlink:href="#DejaVuSans-30" x="190.869141"/>
       <use xlink:href="#DejaVuSans-2d" x="254.492188"/>
       <use xlink:href="#DejaVuSans-4e" x="290.576172"/>
       <use xlink:href="#DejaVuSans-6f" x="365.380859"/>
       <use xlink:href="#DejaVuSans-76" x="426.5625"/>
       <use xlink:href="#DejaVuSans-2d" x="483.117188"/>
       <use xlink:href="#DejaVuSans-30" x="519.201172"/>
       <use xlink:href="#DejaVuSans-31" x="582.824219"/>
      </g>
     </g>
    </g>
    <g id="xtick_2">
     <g id="line2d_2">
      <g>
       <use xlink:href="#m563fcfe0fd" x="95.019456" y="182.359219" style="stroke: #000000; stroke-width: 0.8"/>
      </g>
     </g>
     <g id="text_2">
      <!-- 2020-Dec-01 -->
      <g transform="translate(37.911233 228.310752)rotate(-30)scale(0.1 -0.1)">
       <defs>
        <path id="DejaVuSans-44" d="M 1259 4147 
L 1259 519 
L 2022 519 
Q 2988 519 3436 956 
Q 3884 1394 3884 2338 
Q 3884 3275 3436 3711 
Q 2988 4147 2022 4147 
L 1259 4147 
z
M 628 4666 
L 1925 4666 
Q 3281 4666 3915 4102 
Q 4550 3538 4550 2338 
Q 4550 1131 3912 565 
Q 3275 0 1925 0 
L 628 0 
L 628 4666 
z
" transform="scale(0.015625)"/>
        <path id="DejaVuSans-65" d="M 3597 1894 
L 3597 1613 
L 953 1613 
Q 991 1019 1311 708 
Q 1631 397 2203 397 
Q 2534 397 2845 478 
Q 3156 559 3463 722 
L 3463 178 
Q 3153 47 2828 -22 
Q 2503 -91 2169 -91 
Q 1331 -91 842 396 
Q 353 884 353 1716 
Q 353 2575 817 3079 
Q 1281 3584 2069 3584 
Q 2775 3584 3186 3129 
Q 3597 2675 3597 1894 
z
M 3022 2063 
Q 3016 2534 2758 2815 
Q 2500 3097 2075 3097 
Q 1594 3097 1305 2825 
Q 1016 2553 972 2059 
L 3022 2063 
z
" transform="scale(0.015625)"/>
        <path id="DejaVuSans-63" d="M 3122 3366 
L 3122 2828 
Q 2878 2963 2633 3030 
Q 2388 3097 2138 3097 
Q 1578 3097 1268 2742 
Q 959 2388 959 1747 
Q 959 1106 1268 751 
Q 1578 397 2138 397 
Q 2388 397 2633 464 
Q 2878 531 3122 666 
L 3122 134 
Q 2881 22 2623 -34 
Q 2366 -91 2075 -91 
Q 1284 -91 818 406 
Q 353 903 353 1747 
Q 353 2603 823 3093 
Q 1294 3584 2113 3584 
Q 2378 3584 2631 3529 
Q 2884 3475 3122 3366 
z
" transform="scale(0.015625)"/>
       </defs>
       <use xlink:href="#DejaVuSans-32"/>
       <use xlink:href="#DejaVuSans-30" x="63.623047"/>
       <use xlink:href="#DejaVuSans-32" x="127.246094"/>
       <use xlink:href="#DejaVuSans-30" x="190.869141"/>
       <use xlink:href="#DejaVuSans-2d" x="254.492188"/>
       <use xlink:href="#DejaVuSans-44" x="290.576172"/>
       <use xlink:href="#DejaVuSans-65" x="367.578125"/>
       <use xlink:href="#DejaVuSans-63" x="429.101562"/>
       <use xlink:href="#DejaVuSans-2d" x="484.082031"/>
       <use xlink:href="#DejaVuSans-30" x="520.166016"/>
       <use xlink:href="#DejaVuSans-31" x="583.789062"/>
      </g>
     </g>
    </g>
    <g id="xtick_3">
     <g id="line2d_3">
      <g>
       <use xlink:href="#m563fcfe0fd" x="122.913832" y="182.359219" style="stroke: #000000; stroke-width: 0.8"/>
      </g>
     </g>
     <g id="text_3">
      <!-- 2021-Jan-01 -->
      <g transform="translate(68.727092 226.624034)rotate(-30)scale(0.1 -0.1)">
       <defs>
        <path id="DejaVuSans-4a" d="M 628 4666 
L 1259 4666 
L 1259 325 
Q 1259 -519 939 -900 
Q 619 -1281 -91 -1281 
L -331 -1281 
L -331 -750 
L -134 -750 
Q 284 -750 456 -515 
Q 628 -281 628 325 
L 628 4666 
z
" transform="scale(0.015625)"/>
        <path id="DejaVuSans-61" d="M 2194 1759 
Q 1497 1759 1228 1600 
Q 959 1441 959 1056 
Q 959 750 1161 570 
Q 1363 391 1709 391 
Q 2188 391 2477 730 
Q 2766 1069 2766 1631 
L 2766 1759 
L 2194 1759 
z
M 3341 1997 
L 3341 0 
L 2766 0 
L 2766 531 
Q 2569 213 2275 61 
Q 1981 -91 1556 -91 
Q 1019 -91 701 211 
Q 384 513 384 1019 
Q 384 1609 779 1909 
Q 1175 2209 1959 2209 
L 2766 2209 
L 2766 2266 
Q 2766 2663 2505 2880 
Q 2244 3097 1772 3097 
Q 1472 3097 1187 3025 
Q 903 2953 641 2809 
L 641 3341 
Q 956 3463 1253 3523 
Q 1550 3584 1831 3584 
Q 2591 3584 2966 3190 
Q 3341 2797 3341 1997 
z
" transform="scale(0.015625)"/>
        <path id="DejaVuSans-6e" d="M 3513 2113 
L 3513 0 
L 2938 0 
L 2938 2094 
Q 2938 2591 2744 2837 
Q 2550 3084 2163 3084 
Q 1697 3084 1428 2787 
Q 1159 2491 1159 1978 
L 1159 0 
L 581 0 
L 581 3500 
L 1159 3500 
L 1159 2956 
Q 1366 3272 1645 3428 
Q 1925 3584 2291 3584 
Q 2894 3584 3203 3211 
Q 3513 2838 3513 2113 
z
" transform="scale(0.015625)"/>
       </defs>
       <use xlink:href="#DejaVuSans-32"/>
       <use xlink:href="#DejaVuSans-30" x="63.623047"/>
       <use xlink:href="#DejaVuSans-32" x="127.246094"/>
       <use xlink:href="#DejaVuSans-31" x="190.869141"/>
       <use xlink:href="#DejaVuSans-2d" x="254.492188"/>
       <use xlink:href="#DejaVuSans-4a" x="296.201172"/>
       <use xlink:href="#DejaVuSans-61" x="325.693359"/>
       <use xlink:href="#DejaVuSans-6e" x="386.972656"/>
       <use xlink:href="#DejaVuSans-2d" x="450.351562"/>
       <use xlink:href="#DejaVuSans-30" x="486.435547"/>
       <use xlink:href="#DejaVuSans-31" x="550.058594"/>
      </g>
     </g>
    </g>
    <g id="xtick_4">
     <g id="line2d_4">
      <g>
       <use xlink:href="#m563fcfe0fd" x="150.808208" y="182.359219" style="stroke: #000000; stroke-width: 0.8"/>
      </g>
     </g>
     <g id="text_4">
      <!-- 2021-Feb-01 -->
      <g transform="translate(95.127574 227.486534)rotate(-30)scale(0.1 -0.1)">
       <defs>
        <path id="DejaVuSans-46" d="M 628 4666 
L 3309 4666 
L 3309 4134 
L 1259 4134 
L 1259 2759 
L 3109 2759 
L 3109 2228 
L 1259 2228 
L 1259 0 
L 628 0 
L 628 4666 
z
" transform="scale(0.015625)"/>
        <path id="DejaVuSans-62" d="M 3116 1747 
Q 3116 2381 2855 2742 
Q 2594 3103 2138 3103 
Q 1681 3103 1420 2742 
Q 1159 2381 1159 1747 
Q 1159 1113 1420 752 
Q 1681 391 2138 391 
Q 2594 391 2855 752 
Q 3116 1113 3116 1747 
z
M 1159 2969 
Q 1341 3281 1617 3432 
Q 1894 3584 2278 3584 
Q 2916 3584 3314 3078 
Q 3713 2572 3713 1747 
Q 3713 922 3314 415 
Q 2916 -91 2278 -91 
Q 1894 -91 1617 61 
Q 1341 213 1159 525 
L 1159 0 
L 581 0 
L 581 4863 
L 1159 4863 
L 1159 2969 
z
" transform="scale(0.015625)"/>
       </defs>
       <use xlink:href="#DejaVuSans-32"/>
       <use xlink:href="#DejaVuSans-30" x="63.623047"/>
       <use xlink:href="#DejaVuSans-32" x="127.246094"/>
       <use xlink:href="#DejaVuSans-31" x="190.869141"/>
       <use xlink:href="#DejaVuSans-2d" x="254.492188"/>
       <use xlink:href="#DejaVuSans-46" x="290.576172"/>
       <use xlink:href="#DejaVuSans-65" x="342.595703"/>
       <use xlink:href="#DejaVuSans-62" x="404.119141"/>
       <use xlink:href="#DejaVuSans-2d" x="467.595703"/>
       <use xlink:href="#DejaVuSans-30" x="503.679688"/>
       <use xlink:href="#DejaVuSans-31" x="567.302734"/>
      </g>
     </g>
    </g>
    <g id="xtick_5">
     <g id="line2d_5">
      <g>
       <use xlink:href="#m563fcfe0fd" x="176.003129" y="182.359219" style="stroke: #000000; stroke-width: 0.8"/>
      </g>
     </g>
     <g id="text_5">
      <!-- 2021-Mar-01 -->
      <g transform="translate(119.866478 227.749815)rotate(-30)scale(0.1 -0.1)">
       <defs>
        <path id="DejaVuSans-4d" d="M 628 4666 
L 1569 4666 
L 2759 1491 
L 3956 4666 
L 4897 4666 
L 4897 0 
L 4281 0 
L 4281 4097 
L 3078 897 
L 2444 897 
L 1241 4097 
L 1241 0 
L 628 0 
L 628 4666 
z
" transform="scale(0.015625)"/>
        <path id="DejaVuSans-72" d="M 2631 2963 
Q 2534 3019 2420 3045 
Q 2306 3072 2169 3072 
Q 1681 3072 1420 2755 
Q 1159 2438 1159 1844 
L 1159 0 
L 581 0 
L 581 3500 
L 1159 3500 
L 1159 2956 
Q 1341 3275 1631 3429 
Q 1922 3584 2338 3584 
Q 2397 3584 2469 3576 
Q 2541 3569 2628 3553 
L 2631 2963 
z
" transform="scale(0.015625)"/>
       </defs>
       <use xlink:href="#DejaVuSans-32"/>
       <use xlink:href="#DejaVuSans-30" x="63.623047"/>
       <use xlink:href="#DejaVuSans-32" x="127.246094"/>
       <use xlink:href="#DejaVuSans-31" x="190.869141"/>
       <use xlink:href="#DejaVuSans-2d" x="254.492188"/>
       <use xlink:href="#DejaVuSans-4d" x="290.576172"/>
       <use xlink:href="#DejaVuSans-61" x="376.855469"/>
       <use xlink:href="#DejaVuSans-72" x="438.134766"/>
       <use xlink:href="#DejaVuSans-2d" x="472.873047"/>
       <use xlink:href="#DejaVuSans-30" x="508.957031"/>
       <use xlink:href="#DejaVuSans-31" x="572.580078"/>
      </g>
     </g>
    </g>
    <g id="xtick_6">
     <g id="line2d_6">
      <g>
       <use xlink:href="#m563fcfe0fd" x="203.897505" y="182.359219" style="stroke: #000000; stroke-width: 0.8"/>
      </g>
     </g>
     <g id="text_6">
      <!-- 2021-Apr-01 -->
      <g transform="translate(149.312934 226.853721)rotate(-30)scale(0.1 -0.1)">
       <defs>
        <path id="DejaVuSans-41" d="M 2188 4044 
L 1331 1722 
L 3047 1722 
L 2188 4044 
z
M 1831 4666 
L 2547 4666 
L 4325 0 
L 3669 0 
L 3244 1197 
L 1141 1197 
L 716 0 
L 50 0 
L 1831 4666 
z
" transform="scale(0.015625)"/>
        <path id="DejaVuSans-70" d="M 1159 525 
L 1159 -1331 
L 581 -1331 
L 581 3500 
L 1159 3500 
L 1159 2969 
Q 1341 3281 1617 3432 
Q 1894 3584 2278 3584 
Q 2916 3584 3314 3078 
Q 3713 2572 3713 1747 
Q 3713 922 3314 415 
Q 2916 -91 2278 -91 
Q 1894 -91 1617 61 
Q 1341 213 1159 525 
z
M 3116 1747 
Q 3116 2381 2855 2742 
Q 2594 3103 2138 3103 
Q 1681 3103 1420 2742 
Q 1159 2381 1159 1747 
Q 1159 1113 1420 752 
Q 1681 391 2138 391 
Q 2594 391 2855 752 
Q 3116 1113 3116 1747 
z
" transform="scale(0.015625)"/>
       </defs>
       <use xlink:href="#DejaVuSans-32"/>
       <use xlink:href="#DejaVuSans-30" x="63.623047"/>
       <use xlink:href="#DejaVuSans-32" x="127.246094"/>
       <use xlink:href="#DejaVuSans-31" x="190.869141"/>
       <use xlink:href="#DejaVuSans-2d" x="254.492188"/>
       <use xlink:href="#DejaVuSans-41" x="288.326172"/>
       <use xlink:href="#DejaVuSans-70" x="356.734375"/>
       <use xlink:href="#DejaVuSans-72" x="420.210938"/>
       <use xlink:href="#DejaVuSans-2d" x="454.949219"/>
       <use xlink:href="#DejaVuSans-30" x="491.033203"/>
       <use xlink:href="#DejaVuSans-31" x="554.65625"/>
      </g>
     </g>
    </g>
    <g id="xtick_7">
     <g id="line2d_7">
      <g>
       <use xlink:href="#m563fcfe0fd" x="230.892062" y="182.359219" style="stroke: #000000; stroke-width: 0.8"/>
      </g>
     </g>
     <g id="text_7">
      <!-- 2021-May-01 -->
      <g transform="translate(172.789264 228.884971)rotate(-30)scale(0.1 -0.1)">
       <defs>
        <path id="DejaVuSans-79" d="M 2059 -325 
Q 1816 -950 1584 -1140 
Q 1353 -1331 966 -1331 
L 506 -1331 
L 506 -850 
L 844 -850 
Q 1081 -850 1212 -737 
Q 1344 -625 1503 -206 
L 1606 56 
L 191 3500 
L 800 3500 
L 1894 763 
L 2988 3500 
L 3597 3500 
L 2059 -325 
z
" transform="scale(0.015625)"/>
       </defs>
       <use xlink:href="#DejaVuSans-32"/>
       <use xlink:href="#DejaVuSans-30" x="63.623047"/>
       <use xlink:href="#DejaVuSans-32" x="127.246094"/>
       <use xlink:href="#DejaVuSans-31" x="190.869141"/>
       <use xlink:href="#DejaVuSans-2d" x="254.492188"/>
       <use xlink:href="#DejaVuSans-4d" x="290.576172"/>
       <use xlink:href="#DejaVuSans-61" x="376.855469"/>
       <use xlink:href="#DejaVuSans-79" x="438.134766"/>
       <use xlink:href="#DejaVuSans-2d" x="495.564453"/>
       <use xlink:href="#DejaVuSans-30" x="531.648438"/>
       <use xlink:href="#DejaVuSans-31" x="595.271484"/>
      </g>
     </g>
    </g>
    <g id="xtick_8">
     <g id="line2d_8">
      <g>
       <use xlink:href="#m563fcfe0fd" x="258.786439" y="182.359219" style="stroke: #000000; stroke-width: 0.8"/>
      </g>
     </g>
     <g id="text_8">
      <!-- 2021-Jun-01 -->
      <g transform="translate(204.418374 226.728721)rotate(-30)scale(0.1 -0.1)">
       <defs>
        <path id="DejaVuSans-75" d="M 544 1381 
L 544 3500 
L 1119 3500 
L 1119 1403 
Q 1119 906 1312 657 
Q 1506 409 1894 409 
Q 2359 409 2629 706 
Q 2900 1003 2900 1516 
L 2900 3500 
L 3475 3500 
L 3475 0 
L 2900 0 
L 2900 538 
Q 2691 219 2414 64 
Q 2138 -91 1772 -91 
Q 1169 -91 856 284 
Q 544 659 544 1381 
z
M 1991 3584 
L 1991 3584 
z
" transform="scale(0.015625)"/>
       </defs>
       <use xlink:href="#DejaVuSans-32"/>
       <use xlink:href="#DejaVuSans-30" x="63.623047"/>
       <use xlink:href="#DejaVuSans-32" x="127.246094"/>
       <use xlink:href="#DejaVuSans-31" x="190.869141"/>
       <use xlink:href="#DejaVuSans-2d" x="254.492188"/>
       <use xlink:href="#DejaVuSans-4a" x="296.201172"/>
       <use xlink:href="#DejaVuSans-75" x="325.693359"/>
       <use xlink:href="#DejaVuSans-6e" x="389.072266"/>
       <use xlink:href="#DejaVuSans-2d" x="452.451172"/>
       <use xlink:href="#DejaVuSans-30" x="488.535156"/>
       <use xlink:href="#DejaVuSans-31" x="552.158203"/>
      </g>
     </g>
    </g>
    <g id="xtick_9">
     <g id="line2d_9">
      <g>
       <use xlink:href="#m563fcfe0fd" x="285.780996" y="182.359219" style="stroke: #000000; stroke-width: 0.8"/>
      </g>
     </g>
     <g id="text_9">
      <!-- 2021-Jul-01 -->
      <g transform="translate(234.495441 224.949034)rotate(-30)scale(0.1 -0.1)">
       <defs>
        <path id="DejaVuSans-6c" d="M 603 4863 
L 1178 4863 
L 1178 0 
L 603 0 
L 603 4863 
z
" transform="scale(0.015625)"/>
       </defs>
       <use xlink:href="#DejaVuSans-32"/>
       <use xlink:href="#DejaVuSans-30" x="63.623047"/>
       <use xlink:href="#DejaVuSans-32" x="127.246094"/>
       <use xlink:href="#DejaVuSans-31" x="190.869141"/>
       <use xlink:href="#DejaVuSans-2d" x="254.492188"/>
       <use xlink:href="#DejaVuSans-4a" x="296.201172"/>
       <use xlink:href="#DejaVuSans-75" x="325.693359"/>
       <use xlink:href="#DejaVuSans-6c" x="389.072266"/>
       <use xlink:href="#DejaVuSans-2d" x="416.855469"/>
       <use xlink:href="#DejaVuSans-30" x="452.939453"/>
       <use xlink:href="#DejaVuSans-31" x="516.5625"/>
      </g>
     </g>
    </g>
    <g id="xtick_10">
     <g id="line2d_10">
      <g>
       <use xlink:href="#m563fcfe0fd" x="313.675372" y="182.359219" style="stroke: #000000; stroke-width: 0.8"/>
      </g>
     </g>
     <g id="text_10">
      <!-- 2021-Aug-01 -->
      <g transform="translate(256.610451 228.285752)rotate(-30)scale(0.1 -0.1)">
       <defs>
        <path id="DejaVuSans-67" d="M 2906 1791 
Q 2906 2416 2648 2759 
Q 2391 3103 1925 3103 
Q 1463 3103 1205 2759 
Q 947 2416 947 1791 
Q 947 1169 1205 825 
Q 1463 481 1925 481 
Q 2391 481 2648 825 
Q 2906 1169 2906 1791 
z
M 3481 434 
Q 3481 -459 3084 -895 
Q 2688 -1331 1869 -1331 
Q 1566 -1331 1297 -1286 
Q 1028 -1241 775 -1147 
L 775 -588 
Q 1028 -725 1275 -790 
Q 1522 -856 1778 -856 
Q 2344 -856 2625 -561 
Q 2906 -266 2906 331 
L 2906 616 
Q 2728 306 2450 153 
Q 2172 0 1784 0 
Q 1141 0 747 490 
Q 353 981 353 1791 
Q 353 2603 747 3093 
Q 1141 3584 1784 3584 
Q 2172 3584 2450 3431 
Q 2728 3278 2906 2969 
L 2906 3500 
L 3481 3500 
L 3481 434 
z
" transform="scale(0.015625)"/>
       </defs>
       <use xlink:href="#DejaVuSans-32"/>
       <use xlink:href="#DejaVuSans-30" x="63.623047"/>
       <use xlink:href="#DejaVuSans-32" x="127.246094"/>
       <use xlink:href="#DejaVuSans-31" x="190.869141"/>
       <use xlink:href="#DejaVuSans-2d" x="254.492188"/>
       <use xlink:href="#DejaVuSans-41" x="288.326172"/>
       <use xlink:href="#DejaVuSans-75" x="356.734375"/>
       <use xlink:href="#DejaVuSans-67" x="420.113281"/>
       <use xlink:href="#DejaVuSans-2d" x="483.589844"/>
       <use xlink:href="#DejaVuSans-30" x="519.673828"/>
       <use xlink:href="#DejaVuSans-31" x="583.296875"/>
      </g>
     </g>
    </g>
    <g id="xtick_11">
     <g id="line2d_11">
      <g>
       <use xlink:href="#m563fcfe0fd" x="341.569748" y="182.359219" style="stroke: #000000; stroke-width: 0.8"/>
      </g>
     </g>
     <g id="text_11">
      <!-- 2021-Sep-01 -->
      <g transform="translate(284.895891 228.059971)rotate(-30)scale(0.1 -0.1)">
       <defs>
        <path id="DejaVuSans-53" d="M 3425 4513 
L 3425 3897 
Q 3066 4069 2747 4153 
Q 2428 4238 2131 4238 
Q 1616 4238 1336 4038 
Q 1056 3838 1056 3469 
Q 1056 3159 1242 3001 
Q 1428 2844 1947 2747 
L 2328 2669 
Q 3034 2534 3370 2195 
Q 3706 1856 3706 1288 
Q 3706 609 3251 259 
Q 2797 -91 1919 -91 
Q 1588 -91 1214 -16 
Q 841 59 441 206 
L 441 856 
Q 825 641 1194 531 
Q 1563 422 1919 422 
Q 2459 422 2753 634 
Q 3047 847 3047 1241 
Q 3047 1584 2836 1778 
Q 2625 1972 2144 2069 
L 1759 2144 
Q 1053 2284 737 2584 
Q 422 2884 422 3419 
Q 422 4038 858 4394 
Q 1294 4750 2059 4750 
Q 2388 4750 2728 4690 
Q 3069 4631 3425 4513 
z
" transform="scale(0.015625)"/>
       </defs>
       <use xlink:href="#DejaVuSans-32"/>
       <use xlink:href="#DejaVuSans-30" x="63.623047"/>
       <use xlink:href="#DejaVuSans-32" x="127.246094"/>
       <use xlink:href="#DejaVuSans-31" x="190.869141"/>
       <use xlink:href="#DejaVuSans-2d" x="254.492188"/>
       <use xlink:href="#DejaVuSans-53" x="290.576172"/>
       <use xlink:href="#DejaVuSans-65" x="354.052734"/>
       <use xlink:href="#DejaVuSans-70" x="415.576172"/>
       <use xlink:href="#DejaVuSans-2d" x="479.052734"/>
       <use xlink:href="#DejaVuSans-30" x="515.136719"/>
       <use xlink:href="#DejaVuSans-31" x="578.759766"/>
      </g>
     </g>
    </g>
    <g id="xtick_12">
     <g id="line2d_12">
      <g>
       <use xlink:href="#m563fcfe0fd" x="368.564306" y="182.359219" style="stroke: #000000; stroke-width: 0.8"/>
      </g>
     </g>
     <g id="text_12">
      <!-- 2021-Oct-01 -->
      <g transform="translate(313.00275 227.417784)rotate(-30)scale(0.1 -0.1)">
       <defs>
        <path id="DejaVuSans-4f" d="M 2522 4238 
Q 1834 4238 1429 3725 
Q 1025 3213 1025 2328 
Q 1025 1447 1429 934 
Q 1834 422 2522 422 
Q 3209 422 3611 934 
Q 4013 1447 4013 2328 
Q 4013 3213 3611 3725 
Q 3209 4238 2522 4238 
z
M 2522 4750 
Q 3503 4750 4090 4092 
Q 4678 3434 4678 2328 
Q 4678 1225 4090 567 
Q 3503 -91 2522 -91 
Q 1538 -91 948 565 
Q 359 1222 359 2328 
Q 359 3434 948 4092 
Q 1538 4750 2522 4750 
z
" transform="scale(0.015625)"/>
        <path id="DejaVuSans-74" d="M 1172 4494 
L 1172 3500 
L 2356 3500 
L 2356 3053 
L 1172 3053 
L 1172 1153 
Q 1172 725 1289 603 
Q 1406 481 1766 481 
L 2356 481 
L 2356 0 
L 1766 0 
Q 1100 0 847 248 
Q 594 497 594 1153 
L 594 3053 
L 172 3053 
L 172 3500 
L 594 3500 
L 594 4494 
L 1172 4494 
z
" transform="scale(0.015625)"/>
       </defs>
       <use xlink:href="#DejaVuSans-32"/>
       <use xlink:href="#DejaVuSans-30" x="63.623047"/>
       <use xlink:href="#DejaVuSans-32" x="127.246094"/>
       <use xlink:href="#DejaVuSans-31" x="190.869141"/>
       <use xlink:href="#DejaVuSans-2d" x="254.492188"/>
       <use xlink:href="#DejaVuSans-4f" x="293.326172"/>
       <use xlink:href="#DejaVuSans-63" x="372.037109"/>
       <use xlink:href="#DejaVuSans-74" x="427.017578"/>
       <use xlink:href="#DejaVuSans-2d" x="466.226562"/>
       <use xlink:href="#DejaVuSans-30" x="502.310547"/>
       <use xlink:href="#DejaVuSans-31" x="565.933594"/>
      </g>
     </g>
    </g>
    <g id="xtick_13">
     <g id="line2d_13">
      <g>
       <use xlink:href="#m563fcfe0fd" x="396.458682" y="182.359219" style="stroke: #000000; stroke-width: 0.8"/>
      </g>
     </g>
     <g id="text_13">
      <!-- 2021-Nov-01 -->
      <g transform="translate(339.433002 228.263096)rotate(-30)scale(0.1 -0.1)">
       <use xlink:href="#DejaVuSans-32"/>
       <use xlink:href="#DejaVuSans-30" x="63.623047"/>
       <use xlink:href="#DejaVuSans-32" x="127.246094"/>
       <use xlink:href="#DejaVuSans-31" x="190.869141"/>
       <use xlink:href="#DejaVuSans-2d" x="254.492188"/>
       <use xlink:href="#DejaVuSans-4e" x="290.576172"/>
       <use xlink:href="#DejaVuSans-6f" x="365.380859"/>
       <use xlink:href="#DejaVuSans-76" x="426.5625"/>
       <use xlink:href="#DejaVuSans-2d" x="483.117188"/>
       <use xlink:href="#DejaVuSans-30" x="519.201172"/>
       <use xlink:href="#DejaVuSans-31" x="582.824219"/>
      </g>
     </g>
    </g>
    <g id="xtick_14">
     <g id="line2d_14">
      <g>
       <use xlink:href="#m563fcfe0fd" x="423.45324" y="182.359219" style="stroke: #000000; stroke-width: 0.8"/>
      </g>
     </g>
     <g id="text_14">
      <!-- 2021-Dec-01 -->
      <g transform="translate(366.345017 228.310752)rotate(-30)scale(0.1 -0.1)">
       <use xlink:href="#DejaVuSans-32"/>
       <use xlink:href="#DejaVuSans-30" x="63.623047"/>
       <use xlink:href="#DejaVuSans-32" x="127.246094"/>
       <use xlink:href="#DejaVuSans-31" x="190.869141"/>
       <use xlink:href="#DejaVuSans-2d" x="254.492188"/>
       <use xlink:href="#DejaVuSans-44" x="290.576172"/>
       <use xlink:href="#DejaVuSans-65" x="367.578125"/>
       <use xlink:href="#DejaVuSans-63" x="429.101562"/>
       <use xlink:href="#DejaVuSans-2d" x="484.082031"/>
       <use xlink:href="#DejaVuSans-30" x="520.166016"/>
       <use xlink:href="#DejaVuSans-31" x="583.789062"/>
      </g>
     </g>
    </g>
    <g id="xtick_15">
     <g id="line2d_15">
      <g>
       <use xlink:href="#m563fcfe0fd" x="451.347616" y="182.359219" style="stroke: #000000; stroke-width: 0.8"/>
      </g>
     </g>
     <g id="text_15">
      <!-- 2022-Jan-01 -->
      <g transform="translate(397.160875 226.624034)rotate(-30)scale(0.1 -0.1)">
       <use xlink:href="#DejaVuSans-32"/>
       <use xlink:href="#DejaVuSans-30" x="63.623047"/>
       <use xlink:href="#DejaVuSans-32" x="127.246094"/>
       <use xlink:href="#DejaVuSans-32" x="190.869141"/>
       <use xlink:href="#DejaVuSans-2d" x="254.492188"/>
       <use xlink:href="#DejaVuSans-4a" x="296.201172"/>
       <use xlink:href="#DejaVuSans-61" x="325.693359"/>
       <use xlink:href="#DejaVuSans-6e" x="386.972656"/>
       <use xlink:href="#DejaVuSans-2d" x="450.351562"/>
       <use xlink:href="#DejaVuSans-30" x="486.435547"/>
       <use xlink:href="#DejaVuSans-31" x="550.058594"/>
      </g>
     </g>
    </g>
    <g id="xtick_16">
     <g id="line2d_16">
      <g>
       <use xlink:href="#m563fcfe0fd" x="479.241992" y="182.359219" style="stroke: #000000; stroke-width: 0.8"/>
      </g>
     </g>
     <g id="text_16">
      <!-- 2022-Feb-01 -->
      <g transform="translate(423.561358 227.486534)rotate(-30)scale(0.1 -0.1)">
       <use xlink:href="#DejaVuSans-32"/>
       <use xlink:href="#DejaVuSans-30" x="63.623047"/>
       <use xlink:href="#DejaVuSans-32" x="127.246094"/>
       <use xlink:href="#DejaVuSans-32" x="190.869141"/>
       <use xlink:href="#DejaVuSans-2d" x="254.492188"/>
       <use xlink:href="#DejaVuSans-46" x="290.576172"/>
       <use xlink:href="#DejaVuSans-65" x="342.595703"/>
       <use xlink:href="#DejaVuSans-62" x="404.119141"/>
       <use xlink:href="#DejaVuSans-2d" x="467.595703"/>
       <use xlink:href="#DejaVuSans-30" x="503.679688"/>
       <use xlink:href="#DejaVuSans-31" x="567.302734"/>
      </g>
     </g>
    </g>
   </g>
   <g id="matplotlib.axis_2">
    <g id="ytick_1">
     <g id="line2d_17">
      <defs>
       <path id="m6d320b00c7" d="M 0 0 
L -3.5 0 
" style="stroke: #000000; stroke-width: 0.8"/>
      </defs>
      <g>
       <use xlink:href="#m6d320b00c7" x="53.132901" y="182.359219" style="stroke: #000000; stroke-width: 0.8"/>
      </g>
     </g>
     <g id="text_17">
      <!-- 0 -->
      <g transform="translate(39.770401 186.158437)scale(0.1 -0.1)">
       <use xlink:href="#DejaVuSans-30"/>
      </g>
     </g>
    </g>
    <g id="ytick_2">
     <g id="line2d_18">
      <g>
       <use xlink:href="#m6d320b00c7" x="53.132901" y="148.087219" style="stroke: #000000; stroke-width: 0.8"/>
      </g>
     </g>
     <g id="text_18">
      <!-- 20 -->
      <g transform="translate(33.407901 151.886437)scale(0.1 -0.1)">
       <use xlink:href="#DejaVuSans-32"/>
       <use xlink:href="#DejaVuSans-30" x="63.623047"/>
      </g>
     </g>
    </g>
    <g id="ytick_3">
     <g id="line2d_19">
      <g>
       <use xlink:href="#m6d320b00c7" x="53.132901" y="113.815219" style="stroke: #000000; stroke-width: 0.8"/>
      </g>
     </g>
     <g id="text_19">
      <!-- 40 -->
      <g transform="translate(33.407901 117.614437)scale(0.1 -0.1)">
       <defs>
        <path id="DejaVuSans-34" d="M 2419 4116 
L 825 1625 
L 2419 1625 
L 2419 4116 
z
M 2253 4666 
L 3047 4666 
L 3047 1625 
L 3713 1625 
L 3713 1100 
L 3047 1100 
L 3047 0 
L 2419 0 
L 2419 1100 
L 313 1100 
L 313 1709 
L 2253 4666 
z
" transform="scale(0.015625)"/>
       </defs>
       <use xlink:href="#DejaVuSans-34"/>
       <use xlink:href="#DejaVuSans-30" x="63.623047"/>
      </g>
     </g>
    </g>
    <g id="ytick_4">
     <g id="line2d_20">
      <g>
       <use xlink:href="#m6d320b00c7" x="53.132901" y="79.543219" style="stroke: #000000; stroke-width: 0.8"/>
      </g>
     </g>
     <g id="text_20">
      <!-- 60 -->
      <g transform="translate(33.407901 83.342437)scale(0.1 -0.1)">
       <defs>
        <path id="DejaVuSans-36" d="M 2113 2584 
Q 1688 2584 1439 2293 
Q 1191 2003 1191 1497 
Q 1191 994 1439 701 
Q 1688 409 2113 409 
Q 2538 409 2786 701 
Q 3034 994 3034 1497 
Q 3034 2003 2786 2293 
Q 2538 2584 2113 2584 
z
M 3366 4563 
L 3366 3988 
Q 3128 4100 2886 4159 
Q 2644 4219 2406 4219 
Q 1781 4219 1451 3797 
Q 1122 3375 1075 2522 
Q 1259 2794 1537 2939 
Q 1816 3084 2150 3084 
Q 2853 3084 3261 2657 
Q 3669 2231 3669 1497 
Q 3669 778 3244 343 
Q 2819 -91 2113 -91 
Q 1303 -91 875 529 
Q 447 1150 447 2328 
Q 447 3434 972 4092 
Q 1497 4750 2381 4750 
Q 2619 4750 2861 4703 
Q 3103 4656 3366 4563 
z
" transform="scale(0.015625)"/>
       </defs>
       <use xlink:href="#DejaVuSans-36"/>
       <use xlink:href="#DejaVuSans-30" x="63.623047"/>
      </g>
     </g>
    </g>
    <g id="ytick_5">
     <g id="line2d_21">
      <g>
       <use xlink:href="#m6d320b00c7" x="53.132901" y="45.271219" style="stroke: #000000; stroke-width: 0.8"/>
      </g>
     </g>
     <g id="text_21">
      <!-- 80 -->
      <g transform="translate(33.407901 49.070437)scale(0.1 -0.1)">
       <defs>
        <path id="DejaVuSans-38" d="M 2034 2216 
Q 1584 2216 1326 1975 
Q 1069 1734 1069 1313 
Q 1069 891 1326 650 
Q 1584 409 2034 409 
Q 2484 409 2743 651 
Q 3003 894 3003 1313 
Q 3003 1734 2745 1975 
Q 2488 2216 2034 2216 
z
M 1403 2484 
Q 997 2584 770 2862 
Q 544 3141 544 3541 
Q 544 4100 942 4425 
Q 1341 4750 2034 4750 
Q 2731 4750 3128 4425 
Q 3525 4100 3525 3541 
Q 3525 3141 3298 2862 
Q 3072 2584 2669 2484 
Q 3125 2378 3379 2068 
Q 3634 1759 3634 1313 
Q 3634 634 3220 271 
Q 2806 -91 2034 -91 
Q 1263 -91 848 271 
Q 434 634 434 1313 
Q 434 1759 690 2068 
Q 947 2378 1403 2484 
z
M 1172 3481 
Q 1172 3119 1398 2916 
Q 1625 2713 2034 2713 
Q 2441 2713 2670 2916 
Q 2900 3119 2900 3481 
Q 2900 3844 2670 4047 
Q 2441 4250 2034 4250 
Q 1625 4250 1398 4047 
Q 1172 3844 1172 3481 
z
" transform="scale(0.015625)"/>
       </defs>
       <use xlink:href="#DejaVuSans-38"/>
       <use xlink:href="#DejaVuSans-30" x="63.623047"/>
      </g>
     </g>
    </g>
    <g id="ytick_6">
     <g id="line2d_22">
      <g>
       <use xlink:href="#m6d320b00c7" x="53.132901" y="10.999219" style="stroke: #000000; stroke-width: 0.8"/>
      </g>
     </g>
     <g id="text_22">
      <!-- 100 -->
      <g transform="translate(27.045401 14.798438)scale(0.1 -0.1)">
       <use xlink:href="#DejaVuSans-31"/>
       <use xlink:href="#DejaVuSans-30" x="63.623047"/>
       <use xlink:href="#DejaVuSans-30" x="127.246094"/>
      </g>
     </g>
    </g>
   </g>
   <g id="line2d_23">
    <path d="M 73.42381 182.359219 
L 479.241992 182.359219 
L 479.241992 182.359219 
" clip-path="url(#p75dccf46f3)" style="fill: none; stroke: #1f77b4; stroke-width: 1.5; stroke-linecap: square"/>
   </g>
   <g id="line2d_24">
    <path d="M 73.42381 87.657845 
L 74.323629 87.214074 
L 75.223447 87.769122 
L 76.123266 86.992783 
L 77.023084 86.747915 
L 77.922903 87.48357 
L 78.822722 86.738989 
L 79.72254 86.822016 
L 81.522177 86.600626 
L 82.421996 84.266196 
L 83.321814 84.045119 
L 84.221633 86.3868 
L 86.921089 86.278096 
L 89.620545 86.166465 
L 90.520363 86.536177 
L 91.420182 85.186402 
L 92.32 86.123775 
L 95.019456 85.730526 
L 95.919275 85.147848 
L 96.819093 86.123628 
L 97.718912 86.526175 
L 98.61873 86.522761 
L 99.518549 85.584639 
L 100.418368 85.869267 
L 101.318186 85.376685 
L 102.218005 85.590756 
L 103.117823 83.893272 
L 104.017642 85.138265 
L 104.917461 85.314774 
L 105.817279 85.922904 
L 106.717098 85.762057 
L 107.616916 86.240847 
L 108.516735 84.391315 
L 109.416553 83.32325 
L 110.316372 83.027561 
L 112.116009 81.40691 
L 113.015828 81.635376 
L 113.915646 80.212406 
L 114.815465 79.930744 
L 115.715284 80.90278 
L 116.615102 81.066818 
L 117.514921 80.551193 
L 118.414739 80.583612 
L 119.314558 80.207876 
L 120.214376 80.318497 
L 121.114195 79.787175 
L 122.913832 80.907479 
L 124.713469 80.620905 
L 125.613288 79.732132 
L 126.513107 78.331637 
L 127.412925 80.343812 
L 128.312744 81.101423 
L 129.212562 79.625568 
L 130.112381 80.18216 
L 131.012199 79.442565 
L 131.912018 79.09184 
L 132.811837 79.48075 
L 135.511292 76.94848 
L 138.210748 78.113398 
L 139.110567 79.065247 
L 140.010385 78.587827 
L 140.910204 78.802828 
L 142.709841 78.83455 
L 150.808208 78.992776 
L 151.708027 77.59003 
L 153.507664 79.551608 
L 154.407483 80.849742 
L 155.307301 80.145358 
L 156.20712 79.768635 
L 157.106938 80.111474 
L 158.006757 80.196055 
L 158.906576 78.517253 
L 159.806394 76.120966 
L 161.606031 66.728718 
L 162.50585 75.687732 
L 163.405669 75.355495 
L 164.305487 77.326386 
L 165.205306 78.434729 
L 166.105124 77.927275 
L 167.004943 78.342077 
L 167.904761 80.866576 
L 168.80458 79.35085 
L 169.704399 80.273096 
L 170.604217 79.500604 
L 171.504036 79.833444 
L 172.403854 81.577572 
L 173.303673 83.926963 
L 174.203492 84.854885 
L 175.10331 84.185282 
L 176.003129 85.684759 
L 177.802766 84.590969 
L 178.702584 84.384927 
L 179.602403 84.743788 
L 180.502222 83.936206 
L 181.40204 82.886185 
L 182.301859 82.044898 
L 183.201677 80.779618 
L 185.001315 79.388668 
L 185.901133 78.974108 
L 186.800952 80.323956 
L 187.70077 79.925331 
L 188.600589 84.192023 
L 200.298231 80.622452 
L 201.198049 80.679428 
L 202.097868 80.289337 
L 202.997686 80.796299 
L 203.897505 80.55479 
L 204.797323 80.539865 
L 206.596961 80.204774 
L 207.496779 79.725687 
L 208.396598 79.864935 
L 209.296416 78.492819 
L 210.196235 80.824139 
L 211.096054 80.071551 
L 211.995872 80.607353 
L 216.494965 81.169669 
L 217.394784 81.036445 
L 218.294602 81.420389 
L 220.094239 81.428752 
L 220.994058 81.472766 
L 221.893877 81.7775 
L 224.593332 81.382263 
L 225.493151 81.37552 
L 227.292788 80.438156 
L 228.192607 80.688273 
L 229.092425 80.605147 
L 233.591518 81.729315 
L 234.491337 81.689999 
L 235.391155 94.763221 
L 236.290974 94.984636 
L 237.190792 94.673168 
L 238.090611 95.184947 
L 239.890248 95.474019 
L 240.790067 95.372477 
L 241.689885 94.492633 
L 243.489523 93.76144 
L 244.389341 94.354694 
L 245.28916 93.997968 
L 246.188978 95.516608 
L 247.088797 93.898906 
L 247.988616 93.824533 
L 248.888434 94.260213 
L 249.788253 95.600451 
L 250.688071 93.211338 
L 251.58789 93.783184 
L 252.487708 96.423916 
L 253.387527 95.331111 
L 254.287346 94.803032 
L 255.187164 95.82859 
L 256.086983 95.758919 
L 256.986801 96.059746 
L 257.88662 95.450512 
L 258.786439 95.378916 
L 259.686257 95.016759 
L 260.586076 94.22375 
L 261.485894 95.109102 
L 262.385713 95.16851 
L 263.285531 95.047995 
L 264.18535 94.545758 
L 265.085169 94.659942 
L 265.984987 93.969781 
L 266.884806 95.205784 
L 267.784624 94.719093 
L 268.684443 95.087793 
L 270.48408 94.520261 
L 271.383899 94.653203 
L 272.283717 94.217455 
L 273.183536 93.132037 
L 274.083354 92.616137 
L 274.983173 93.74034 
L 275.882992 92.526963 
L 276.78281 93.982133 
L 277.682629 94.769484 
L 279.482266 93.9211 
L 282.181722 94.07403 
L 283.981359 93.654885 
L 287.580633 93.368868 
L 288.480452 93.119036 
L 313.675372 102.964019 
L 314.575191 104.608268 
L 315.475009 104.882248 
L 316.374828 104.746773 
L 317.274647 104.447588 
L 318.174465 104.457538 
L 319.074284 104.872554 
L 319.974102 104.50466 
L 320.873921 104.775872 
L 321.773739 104.58043 
L 322.673558 104.109077 
L 323.573377 104.021454 
L 324.473195 103.260825 
L 325.373014 101.993965 
L 326.272832 101.443078 
L 327.172651 101.663121 
L 328.07247 103.119506 
L 328.972288 101.393443 
L 329.872107 102.751887 
L 346.068841 100.289755 
L 346.96866 100.42571 
L 348.768297 99.616194 
L 349.668116 99.567071 
L 350.567934 98.798238 
L 351.467753 99.536813 
L 352.367571 99.66463 
L 353.26739 100.070195 
L 354.167209 100.082804 
L 355.067027 98.332908 
L 355.966846 97.553803 
L 356.866664 99.500741 
L 357.766483 99.61166 
L 358.666301 99.003383 
L 359.56612 99.352095 
L 360.465939 98.064518 
L 361.365757 98.828723 
L 362.265576 98.362369 
L 364.965032 98.643994 
L 365.86485 97.339237 
L 366.764669 98.05328 
L 367.664487 96.808124 
L 368.564306 97.911803 
L 369.464124 96.197443 
L 370.363943 96.147582 
L 371.263762 97.331879 
L 372.16358 96.209939 
L 373.063399 96.269886 
L 373.963217 89.150133 
L 374.863036 97.675638 
L 375.762855 96.016575 
L 376.662673 96.127071 
L 377.562492 97.717173 
L 378.46231 97.007283 
L 379.362129 94.443804 
L 380.261948 93.980018 
L 381.161766 97.014779 
L 382.061585 97.475467 
L 382.961403 94.539009 
L 383.861222 97.144163 
L 384.76104 95.080003 
L 386.560678 95.008853 
L 387.460496 94.768345 
L 388.360315 93.21188 
L 389.260133 92.944463 
L 390.159952 93.118396 
L 391.059771 95.572395 
L 391.959589 95.811701 
L 392.859408 97.253148 
L 393.759226 97.052613 
L 394.659045 97.893028 
L 395.558863 97.310949 
L 396.458682 97.241672 
L 397.358501 97.564708 
L 398.258319 96.126754 
L 399.158138 95.685081 
L 400.057956 96.663848 
L 400.957775 96.683078 
L 401.857594 93.092178 
L 402.757412 95.462657 
L 403.657231 96.619963 
L 407.256505 96.306829 
L 409.056142 95.601969 
L 409.955961 96.165042 
L 410.855779 96.41021 
L 411.755598 96.221562 
L 412.655417 96.610116 
L 413.555235 96.138458 
L 414.455054 90.05021 
L 415.354872 96.878773 
L 416.254691 95.75635 
L 417.154509 95.391618 
L 418.054328 95.909359 
L 418.954147 96.674111 
L 419.853965 96.986939 
L 420.753784 95.969346 
L 421.653602 95.941835 
L 422.553421 94.020159 
L 423.45324 94.776859 
L 424.353058 91.803582 
L 426.152695 92.698084 
L 427.052514 92.592581 
L 427.952333 93.610358 
L 428.852151 93.938999 
L 429.75197 94.094194 
L 430.651788 94.036169 
L 431.551607 94.692049 
L 432.451425 95.150845 
L 433.351244 92.893215 
L 434.251063 95.235471 
L 435.150881 94.604546 
L 436.0507 95.282156 
L 436.950518 95.569381 
L 437.850337 95.566885 
L 440.549793 94.114104 
L 441.449611 93.977863 
L 442.34943 95.536467 
L 444.149067 95.133769 
L 445.048886 94.68319 
L 445.948704 94.391066 
L 446.848523 94.397143 
L 447.748341 94.52037 
L 448.64816 94.308931 
L 449.547979 94.378556 
L 452.247434 95.207346 
L 453.147253 94.714499 
L 454.047071 95.371938 
L 454.94689 92.918627 
L 455.846709 94.081073 
L 456.746527 95.005632 
L 458.546164 95.175367 
L 459.445983 95.81286 
L 460.345802 96.182496 
L 461.24562 95.753253 
L 462.145439 95.625997 
L 463.045257 96.112503 
L 463.945076 95.3471 
L 464.844894 95.591728 
L 465.744713 96.092506 
L 466.644532 94.951551 
L 467.54435 95.435655 
L 468.444169 95.032 
L 469.343987 94.817052 
L 470.243806 94.19957 
L 471.143625 94.066399 
L 472.043443 94.422686 
L 472.943262 93.680726 
L 474.742899 93.150511 
L 475.642718 93.35588 
L 476.542536 93.050358 
L 477.442355 93.8011 
L 478.342173 93.280002 
L 479.241992 93.6792 
L 479.241992 93.6792 
" clip-path="url(#p75dccf46f3)" style="fill: none; stroke: #ff7f0e; stroke-width: 1.5; stroke-linecap: square"/>
   </g>
   <g id="line2d_25">
    <path d="M 73.42381 105.700593 
L 74.323629 106.144363 
L 75.223447 105.589315 
L 76.123266 106.365655 
L 77.023084 106.610523 
L 77.922903 105.874867 
L 78.822722 106.619448 
L 79.72254 106.536422 
L 81.522177 106.757811 
L 82.421996 109.092242 
L 83.321814 109.313318 
L 84.221633 106.971637 
L 86.921089 107.080342 
L 89.620545 107.191972 
L 90.520363 106.82226 
L 91.420182 108.172036 
L 92.32 107.234662 
L 95.019456 107.627911 
L 95.919275 108.210589 
L 96.819093 107.23481 
L 97.718912 106.832262 
L 98.61873 106.835677 
L 99.518549 107.773798 
L 100.418368 107.48917 
L 101.318186 107.981752 
L 102.218005 107.767682 
L 103.117823 109.465165 
L 104.017642 108.220172 
L 104.917461 108.043664 
L 105.817279 107.435533 
L 106.717098 107.59638 
L 107.616916 107.117591 
L 108.516735 108.967122 
L 109.416553 110.035188 
L 110.316372 110.330877 
L 112.116009 111.951528 
L 113.015828 111.723061 
L 113.915646 113.146031 
L 114.815465 113.427693 
L 115.715284 112.455657 
L 116.615102 112.29162 
L 117.514921 112.807244 
L 118.414739 112.774825 
L 119.314558 113.150562 
L 120.214376 113.03994 
L 121.114195 113.571263 
L 122.913832 112.450959 
L 124.713469 112.737533 
L 125.613288 113.626305 
L 126.513107 115.0268 
L 127.412925 113.014626 
L 128.312744 112.257014 
L 129.212562 113.73287 
L 130.112381 113.176277 
L 131.012199 113.915873 
L 131.912018 114.266597 
L 132.811837 113.877688 
L 135.511292 116.409957 
L 138.210748 115.24504 
L 139.110567 114.29319 
L 140.010385 114.770611 
L 140.910204 114.555609 
L 142.709841 114.523887 
L 150.808208 114.365662 
L 151.708027 115.768407 
L 153.507664 113.80683 
L 154.407483 112.508696 
L 155.307301 113.21308 
L 156.20712 113.589803 
L 157.106938 113.246963 
L 158.006757 113.162382 
L 158.906576 114.841185 
L 159.806394 117.237472 
L 161.606031 126.629719 
L 162.50585 117.670706 
L 163.405669 118.002942 
L 164.305487 116.032051 
L 165.205306 114.923709 
L 166.105124 115.431163 
L 167.004943 115.016361 
L 167.904761 112.491862 
L 168.80458 114.007587 
L 169.704399 113.085341 
L 170.604217 113.857834 
L 171.504036 113.524994 
L 172.403854 111.780865 
L 173.303673 109.431475 
L 174.203492 108.503553 
L 175.10331 109.173155 
L 176.003129 107.673679 
L 177.802766 108.767469 
L 178.702584 108.973511 
L 179.602403 108.614649 
L 180.502222 109.422231 
L 181.40204 110.472253 
L 182.301859 111.31354 
L 183.201677 112.57882 
L 185.001315 113.96977 
L 185.901133 114.384329 
L 186.800952 113.034482 
L 187.70077 113.433107 
L 188.600589 109.166414 
L 200.298231 112.735985 
L 201.198049 112.67901 
L 202.097868 113.069101 
L 202.997686 112.562138 
L 203.897505 112.803647 
L 204.797323 112.818572 
L 206.596961 113.153663 
L 207.496779 113.63275 
L 208.396598 113.493503 
L 209.296416 114.865618 
L 210.196235 112.534299 
L 211.096054 113.286887 
L 211.995872 112.751085 
L 216.494965 112.188768 
L 217.394784 112.321993 
L 218.294602 111.938048 
L 220.094239 111.929686 
L 220.994058 111.885671 
L 221.893877 111.580937 
L 224.593332 111.976174 
L 225.493151 111.982917 
L 227.292788 112.920281 
L 228.192607 112.670165 
L 229.092425 112.753291 
L 233.591518 111.629123 
L 234.491337 111.668439 
L 235.391155 98.595216 
L 236.290974 98.373802 
L 237.190792 98.685269 
L 238.090611 98.17349 
L 239.890248 97.884418 
L 240.790067 97.985961 
L 241.689885 98.865804 
L 243.489523 99.596998 
L 244.389341 99.003743 
L 245.28916 99.360469 
L 246.188978 97.84183 
L 247.088797 99.459531 
L 247.988616 99.533904 
L 248.888434 99.098225 
L 249.788253 97.757986 
L 250.688071 100.1471 
L 251.58789 99.575253 
L 252.487708 96.934521 
L 253.387527 98.027326 
L 254.287346 98.555405 
L 255.187164 97.529847 
L 256.086983 97.599518 
L 256.986801 97.298691 
L 257.88662 97.907925 
L 258.786439 97.979521 
L 259.686257 98.341678 
L 260.586076 99.134687 
L 261.485894 98.249335 
L 262.385713 98.189927 
L 263.285531 98.310443 
L 264.18535 98.812679 
L 265.085169 98.698495 
L 265.984987 99.388656 
L 266.884806 98.152653 
L 267.784624 98.639344 
L 268.684443 98.270645 
L 270.48408 98.838177 
L 271.383899 98.705235 
L 272.283717 99.140982 
L 273.183536 100.226401 
L 274.083354 100.7423 
L 274.983173 99.618097 
L 275.882992 100.831475 
L 276.78281 99.376305 
L 277.682629 98.588954 
L 279.482266 99.437337 
L 282.181722 99.284407 
L 283.981359 99.703553 
L 287.580633 99.989569 
L 288.480452 100.239401 
L 313.675372 90.394419 
L 314.575191 88.75017 
L 315.475009 88.476189 
L 316.374828 88.611664 
L 317.274647 88.910849 
L 318.174465 88.900899 
L 319.074284 88.485884 
L 319.974102 88.853778 
L 320.873921 88.582565 
L 321.773739 88.778008 
L 322.673558 89.249361 
L 323.573377 89.336983 
L 324.473195 90.097612 
L 325.373014 91.364473 
L 326.272832 91.915359 
L 327.172651 91.695317 
L 328.07247 90.238932 
L 328.972288 91.964995 
L 329.872107 90.606551 
L 346.068841 93.068682 
L 346.96866 92.932728 
L 348.768297 93.742243 
L 349.668116 93.791366 
L 350.567934 94.5602 
L 351.467753 93.821625 
L 352.367571 93.693808 
L 353.26739 93.288242 
L 354.167209 93.275633 
L 355.067027 95.02553 
L 355.966846 95.804635 
L 356.866664 93.857696 
L 357.766483 93.746778 
L 358.666301 94.355054 
L 359.56612 94.006342 
L 360.465939 95.29392 
L 361.365757 94.529715 
L 362.265576 94.996069 
L 364.965032 94.714443 
L 365.86485 96.019201 
L 366.764669 95.305157 
L 367.664487 96.550313 
L 368.564306 95.446635 
L 369.464124 97.160994 
L 370.363943 97.210855 
L 371.263762 96.026558 
L 372.16358 97.148498 
L 373.063399 97.088552 
L 373.963217 104.208304 
L 374.863036 95.6828 
L 375.762855 97.341863 
L 376.662673 97.231366 
L 377.562492 95.641265 
L 378.46231 96.351154 
L 379.362129 98.914634 
L 380.261948 99.37842 
L 381.161766 96.343658 
L 382.061585 95.88297 
L 382.961403 98.819429 
L 383.861222 96.214274 
L 384.76104 98.278435 
L 386.560678 98.349584 
L 387.460496 98.590093 
L 388.360315 100.146558 
L 389.260133 100.413974 
L 390.159952 100.240041 
L 391.059771 97.786042 
L 391.959589 97.546737 
L 392.859408 96.105289 
L 393.759226 96.305825 
L 394.659045 95.46541 
L 395.558863 96.047488 
L 396.458682 96.116765 
L 397.358501 95.79373 
L 398.258319 97.231683 
L 399.158138 97.673357 
L 400.057956 96.694589 
L 400.957775 96.67536 
L 401.857594 100.26626 
L 402.757412 97.895781 
L 403.657231 96.738474 
L 407.256505 97.051608 
L 409.056142 97.756469 
L 409.955961 97.193395 
L 410.855779 96.948228 
L 411.755598 97.136875 
L 412.655417 96.748321 
L 413.555235 97.21998 
L 414.455054 103.308228 
L 415.354872 96.479664 
L 416.254691 97.602088 
L 417.154509 97.96682 
L 418.054328 97.449078 
L 418.954147 96.684326 
L 419.853965 96.371498 
L 420.753784 97.389092 
L 421.653602 97.416603 
L 422.553421 99.338279 
L 423.45324 98.581578 
L 424.353058 101.554855 
L 426.152695 100.660354 
L 427.052514 100.765857 
L 427.952333 99.748079 
L 428.852151 99.419438 
L 429.75197 99.264244 
L 430.651788 99.322268 
L 431.551607 98.666388 
L 432.451425 98.207592 
L 433.351244 100.465223 
L 434.251063 98.122966 
L 435.150881 98.753892 
L 436.0507 98.076281 
L 436.950518 97.789057 
L 437.850337 97.791553 
L 440.549793 99.244333 
L 441.449611 99.380574 
L 442.34943 97.821971 
L 444.149067 98.224668 
L 445.048886 98.675248 
L 445.948704 98.967372 
L 446.848523 98.961295 
L 447.748341 98.838067 
L 448.64816 99.049506 
L 449.547979 98.979882 
L 452.247434 98.151091 
L 453.147253 98.643939 
L 454.047071 97.9865 
L 454.94689 100.439811 
L 455.846709 99.277364 
L 456.746527 98.352805 
L 458.546164 98.183071 
L 459.445983 97.545577 
L 460.345802 97.175941 
L 461.24562 97.605184 
L 462.145439 97.732441 
L 463.045257 97.245935 
L 463.945076 98.011338 
L 464.844894 97.76671 
L 465.744713 97.265932 
L 466.644532 98.406886 
L 467.54435 97.922782 
L 468.444169 98.326438 
L 469.343987 98.541386 
L 470.243806 99.158868 
L 471.143625 99.292039 
L 472.043443 98.935752 
L 472.943262 99.677711 
L 474.742899 100.207926 
L 475.642718 100.002558 
L 476.542536 100.308079 
L 477.442355 99.557338 
L 478.342173 100.078435 
L 479.241992 99.679237 
L 479.241992 99.679237 
" clip-path="url(#p75dccf46f3)" style="fill: none; stroke: #2ca02c; stroke-width: 1.5; stroke-linecap: square"/>
   </g>
   <g id="line2d_26">
    <path d="M 73.42381 182.359219 
L 479.241992 182.359219 
L 479.241992 182.359219 
" clip-path="url(#p75dccf46f3)" style="fill: none; stroke: #d62728; stroke-width: 1.5; stroke-linecap: square"/>
   </g>
   <g id="patch_3">
    <path d="M 53.132901 182.359219 
L 53.132901 10.999219 
" style="fill: none; stroke: #000000; stroke-width: 0.8; stroke-linejoin: miter; stroke-linecap: square"/>
   </g>
   <g id="patch_4">
    <path d="M 499.532901 182.359219 
L 499.532901 10.999219 
" style="fill: none; stroke: #000000; stroke-width: 0.8; stroke-linejoin: miter; stroke-linecap: square"/>
   </g>
   <g id="patch_5">
    <path d="M 53.132901 182.359219 
L 499.532901 182.359219 
" style="fill: none; stroke: #000000; stroke-width: 0.8; stroke-linejoin: miter; stroke-linecap: square"/>
   </g>
   <g id="patch_6">
    <path d="M 53.132901 10.999219 
L 499.532901 10.999219 
" style="fill: none; stroke: #000000; stroke-width: 0.8; stroke-linejoin: miter; stroke-linecap: square"/>
   </g>
   <g id="legend_1">
    <g id="patch_7">
     <path d="M 365.412588 48.355469 
L 492.532901 48.355469 
Q 494.532901 48.355469 494.532901 46.355469 
L 494.532901 17.999219 
Q 494.532901 15.999219 492.532901 15.999219 
L 365.412588 15.999219 
Q 363.412588 15.999219 363.412588 17.999219 
L 363.412588 46.355469 
Q 363.412588 48.355469 365.412588 48.355469 
z
" style="fill: #ffffff; opacity: 0.8; stroke: #cccccc; stroke-linejoin: miter"/>
    </g>
    <g id="line2d_27">
     <path d="M 367.412588 24.097656 
L 377.412588 24.097656 
L 387.412588 24.097656 
" style="fill: none; stroke: #1f77b4; stroke-width: 1.5; stroke-linecap: square"/>
    </g>
    <g id="text_23">
     <!-- TLS -->
     <g transform="translate(395.412588 27.597656)scale(0.1 -0.1)">
      <defs>
       <path id="DejaVuSans-54" d="M -19 4666 
L 3928 4666 
L 3928 4134 
L 2272 4134 
L 2272 0 
L 1638 0 
L 1638 4134 
L -19 4134 
L -19 4666 
z
" transform="scale(0.015625)"/>
       <path id="DejaVuSans-4c" d="M 628 4666 
L 1259 4666 
L 1259 531 
L 3531 531 
L 3531 0 
L 628 0 
L 628 4666 
z
" transform="scale(0.015625)"/>
      </defs>
      <use xlink:href="#DejaVuSans-54"/>
      <use xlink:href="#DejaVuSans-4c" x="61.083984"/>
      <use xlink:href="#DejaVuSans-53" x="116.796875"/>
     </g>
    </g>
    <g id="line2d_28">
     <path d="M 367.412588 38.775781 
L 377.412588 38.775781 
L 387.412588 38.775781 
" style="fill: none; stroke: #ff7f0e; stroke-width: 1.5; stroke-linecap: square"/>
    </g>
    <g id="text_24">
     <!-- HTTP -->
     <g transform="translate(395.412588 42.275781)scale(0.1 -0.1)">
      <defs>
       <path id="DejaVuSans-48" d="M 628 4666 
L 1259 4666 
L 1259 2753 
L 3553 2753 
L 3553 4666 
L 4184 4666 
L 4184 0 
L 3553 0 
L 3553 2222 
L 1259 2222 
L 1259 0 
L 628 0 
L 628 4666 
z
" transform="scale(0.015625)"/>
       <path id="DejaVuSans-50" d="M 1259 4147 
L 1259 2394 
L 2053 2394 
Q 2494 2394 2734 2622 
Q 2975 2850 2975 3272 
Q 2975 3691 2734 3919 
Q 2494 4147 2053 4147 
L 1259 4147 
z
M 628 4666 
L 2053 4666 
Q 2838 4666 3239 4311 
Q 3641 3956 3641 3272 
Q 3641 2581 3239 2228 
Q 2838 1875 2053 1875 
L 1259 1875 
L 1259 0 
L 628 0 
L 628 4666 
z
" transform="scale(0.015625)"/>
      </defs>
      <use xlink:href="#DejaVuSans-48"/>
      <use xlink:href="#DejaVuSans-54" x="75.195312"/>
      <use xlink:href="#DejaVuSans-54" x="134.529297"/>
      <use xlink:href="#DejaVuSans-50" x="195.613281"/>
     </g>
    </g>
    <g id="line2d_29">
     <path d="M 441.003213 24.097656 
L 451.003213 24.097656 
L 461.003213 24.097656 
" style="fill: none; stroke: #2ca02c; stroke-width: 1.5; stroke-linecap: square"/>
    </g>
    <g id="text_25">
     <!-- DNS -->
     <g transform="translate(469.003213 27.597656)scale(0.1 -0.1)">
      <use xlink:href="#DejaVuSans-44"/>
      <use xlink:href="#DejaVuSans-4e" x="77.001953"/>
      <use xlink:href="#DejaVuSans-53" x="151.806641"/>
     </g>
    </g>
    <g id="line2d_30">
     <path d="M 441.003213 38.775781 
L 451.003213 38.775781 
L 461.003213 38.775781 
" style="fill: none; stroke: #d62728; stroke-width: 1.5; stroke-linecap: square"/>
    </g>
    <g id="text_26">
     <!-- TCP -->
     <g transform="translate(469.003213 42.275781)scale(0.1 -0.1)">
      <defs>
       <path id="DejaVuSans-43" d="M 4122 4306 
L 4122 3641 
Q 3803 3938 3442 4084 
Q 3081 4231 2675 4231 
Q 1875 4231 1450 3742 
Q 1025 3253 1025 2328 
Q 1025 1406 1450 917 
Q 1875 428 2675 428 
Q 3081 428 3442 575 
Q 3803 722 4122 1019 
L 4122 359 
Q 3791 134 3420 21 
Q 3050 -91 2638 -91 
Q 1578 -91 968 557 
Q 359 1206 359 2328 
Q 359 3453 968 4101 
Q 1578 4750 2638 4750 
Q 3056 4750 3426 4639 
Q 3797 4528 4122 4306 
z
" transform="scale(0.015625)"/>
      </defs>
      <use xlink:href="#DejaVuSans-54"/>
      <use xlink:href="#DejaVuSans-43" x="55.208984"/>
      <use xlink:href="#DejaVuSans-50" x="125.033203"/>
     </g>
    </g>
   </g>
  </g>
 </g>
 <defs>
  <clipPath id="p75dccf46f3">
   <rect x="53.132901" y="10.999219" width="446.4" height="171.36"/>
  </clipPath>
 </defs>
</svg>
