<?xml version="1.0" encoding="utf-8" standalone="no"?>
<!DOCTYPE svg PUBLIC "-//W3C//DTD SVG 1.1//EN"
  "http://www.w3.org/Graphics/SVG/1.1/DTD/svg11.dtd">
<svg xmlns:xlink="http://www.w3.org/1999/xlink" width="504.090034pt" height="234.086815pt" viewBox="0 0 504.090034 234.086815" xmlns="http://www.w3.org/2000/svg" version="1.1">
 <metadata>
  <rdf:RDF xmlns:dc="http://purl.org/dc/elements/1.1/" xmlns:cc="http://creativecommons.org/ns#" xmlns:rdf="http://www.w3.org/1999/02/22-rdf-syntax-ns#">
   <cc:Work>
    <dc:type rdf:resource="http://purl.org/dc/dcmitype/StillImage"/>
    <dc:date>2022-02-14T19:25:29.715703</dc:date>
    <dc:format>image/svg+xml</dc:format>
    <dc:creator>
     <cc:Agent>
      <dc:title>Matplotlib v3.5.1, https://matplotlib.org/</dc:title>
     </cc:Agent>
    </dc:creator>
   </cc:Work>
  </rdf:RDF>
 </metadata>
 <defs>
  <style type="text/css">*{stroke-linejoin: round; stroke-linecap: butt}</style>
 </defs>
 <g id="figure_1">
  <g id="patch_1">
   <path d="M 0 234.086815 
L 504.090034 234.086815 
L 504.090034 0 
L 0 0 
z
" style="fill: #ffffff"/>
  </g>
  <g id="axes_1">
   <g id="patch_2">
    <path d="M 50.490034 178.56 
L 496.890034 178.56 
L 496.890034 7.2 
L 50.490034 7.2 
z
" style="fill: #ffffff"/>
   </g>
   <g id="matplotlib.axis_1">
    <g id="xtick_1">
     <g id="line2d_1">
      <defs>
       <path id="m0d76c00428" d="M 0 0 
L 0 3.5 
" style="stroke: #000000; stroke-width: 0.8"/>
      </defs>
      <g>
       <use xlink:href="#m0d76c00428" x="67.135869" y="178.56" style="stroke: #000000; stroke-width: 0.8"/>
      </g>
     </g>
     <g id="text_1">
      <!-- 2021-Mar-01 -->
      <g transform="translate(10.999219 223.950596)rotate(-30)scale(0.1 -0.1)">
       <defs>
        <path id="DejaVuSans-32" d="M 1228 531 
L 3431 531 
L 3431 0 
L 469 0 
L 469 531 
Q 828 903 1448 1529 
Q 2069 2156 2228 2338 
Q 2531 2678 2651 2914 
Q 2772 3150 2772 3378 
Q 2772 3750 2511 3984 
Q 2250 4219 1831 4219 
Q 1534 4219 1204 4116 
Q 875 4013 500 3803 
L 500 4441 
Q 881 4594 1212 4672 
Q 1544 4750 1819 4750 
Q 2544 4750 2975 4387 
Q 3406 4025 3406 3419 
Q 3406 3131 3298 2873 
Q 3191 2616 2906 2266 
Q 2828 2175 2409 1742 
Q 1991 1309 1228 531 
z
" transform="scale(0.015625)"/>
        <path id="DejaVuSans-30" d="M 2034 4250 
Q 1547 4250 1301 3770 
Q 1056 3291 1056 2328 
Q 1056 1369 1301 889 
Q 1547 409 2034 409 
Q 2525 409 2770 889 
Q 3016 1369 3016 2328 
Q 3016 3291 2770 3770 
Q 2525 4250 2034 4250 
z
M 2034 4750 
Q 2819 4750 3233 4129 
Q 3647 3509 3647 2328 
Q 3647 1150 3233 529 
Q 2819 -91 2034 -91 
Q 1250 -91 836 529 
Q 422 1150 422 2328 
Q 422 3509 836 4129 
Q 1250 4750 2034 4750 
z
" transform="scale(0.015625)"/>
        <path id="DejaVuSans-31" d="M 794 531 
L 1825 531 
L 1825 4091 
L 703 3866 
L 703 4441 
L 1819 4666 
L 2450 4666 
L 2450 531 
L 3481 531 
L 3481 0 
L 794 0 
L 794 531 
z
" transform="scale(0.015625)"/>
        <path id="DejaVuSans-2d" d="M 313 2009 
L 1997 2009 
L 1997 1497 
L 313 1497 
L 313 2009 
z
" transform="scale(0.015625)"/>
        <path id="DejaVuSans-4d" d="M 628 4666 
L 1569 4666 
L 2759 1491 
L 3956 4666 
L 4897 4666 
L 4897 0 
L 4281 0 
L 4281 4097 
L 3078 897 
L 2444 897 
L 1241 4097 
L 1241 0 
L 628 0 
L 628 4666 
z
" transform="scale(0.015625)"/>
        <path id="DejaVuSans-61" d="M 2194 1759 
Q 1497 1759 1228 1600 
Q 959 1441 959 1056 
Q 959 750 1161 570 
Q 1363 391 1709 391 
Q 2188 391 2477 730 
Q 2766 1069 2766 1631 
L 2766 1759 
L 2194 1759 
z
M 3341 1997 
L 3341 0 
L 2766 0 
L 2766 531 
Q 2569 213 2275 61 
Q 1981 -91 1556 -91 
Q 1019 -91 701 211 
Q 384 513 384 1019 
Q 384 1609 779 1909 
Q 1175 2209 1959 2209 
L 2766 2209 
L 2766 2266 
Q 2766 2663 2505 2880 
Q 2244 3097 1772 3097 
Q 1472 3097 1187 3025 
Q 903 2953 641 2809 
L 641 3341 
Q 956 3463 1253 3523 
Q 1550 3584 1831 3584 
Q 2591 3584 2966 3190 
Q 3341 2797 3341 1997 
z
" transform="scale(0.015625)"/>
        <path id="DejaVuSans-72" d="M 2631 2963 
Q 2534 3019 2420 3045 
Q 2306 3072 2169 3072 
Q 1681 3072 1420 2755 
Q 1159 2438 1159 1844 
L 1159 0 
L 581 0 
L 581 3500 
L 1159 3500 
L 1159 2956 
Q 1341 3275 1631 3429 
Q 1922 3584 2338 3584 
Q 2397 3584 2469 3576 
Q 2541 3569 2628 3553 
L 2631 2963 
z
" transform="scale(0.015625)"/>
       </defs>
       <use xlink:href="#DejaVuSans-32"/>
       <use xlink:href="#DejaVuSans-30" x="63.623047"/>
       <use xlink:href="#DejaVuSans-32" x="127.246094"/>
       <use xlink:href="#DejaVuSans-31" x="190.869141"/>
       <use xlink:href="#DejaVuSans-2d" x="254.492188"/>
       <use xlink:href="#DejaVuSans-4d" x="290.576172"/>
       <use xlink:href="#DejaVuSans-61" x="376.855469"/>
       <use xlink:href="#DejaVuSans-72" x="438.134766"/>
       <use xlink:href="#DejaVuSans-2d" x="472.873047"/>
       <use xlink:href="#DejaVuSans-30" x="508.957031"/>
       <use xlink:href="#DejaVuSans-31" x="572.580078"/>
      </g>
     </g>
    </g>
    <g id="xtick_2">
     <g id="line2d_2">
      <g>
       <use xlink:href="#m0d76c00428" x="104.801629" y="178.56" style="stroke: #000000; stroke-width: 0.8"/>
      </g>
     </g>
     <g id="text_2">
      <!-- 2021-Apr-01 -->
      <g transform="translate(50.217058 223.054502)rotate(-30)scale(0.1 -0.1)">
       <defs>
        <path id="DejaVuSans-41" d="M 2188 4044 
L 1331 1722 
L 3047 1722 
L 2188 4044 
z
M 1831 4666 
L 2547 4666 
L 4325 0 
L 3669 0 
L 3244 1197 
L 1141 1197 
L 716 0 
L 50 0 
L 1831 4666 
z
" transform="scale(0.015625)"/>
        <path id="DejaVuSans-70" d="M 1159 525 
L 1159 -1331 
L 581 -1331 
L 581 3500 
L 1159 3500 
L 1159 2969 
Q 1341 3281 1617 3432 
Q 1894 3584 2278 3584 
Q 2916 3584 3314 3078 
Q 3713 2572 3713 1747 
Q 3713 922 3314 415 
Q 2916 -91 2278 -91 
Q 1894 -91 1617 61 
Q 1341 213 1159 525 
z
M 3116 1747 
Q 3116 2381 2855 2742 
Q 2594 3103 2138 3103 
Q 1681 3103 1420 2742 
Q 1159 2381 1159 1747 
Q 1159 1113 1420 752 
Q 1681 391 2138 391 
Q 2594 391 2855 752 
Q 3116 1113 3116 1747 
z
" transform="scale(0.015625)"/>
       </defs>
       <use xlink:href="#DejaVuSans-32"/>
       <use xlink:href="#DejaVuSans-30" x="63.623047"/>
       <use xlink:href="#DejaVuSans-32" x="127.246094"/>
       <use xlink:href="#DejaVuSans-31" x="190.869141"/>
       <use xlink:href="#DejaVuSans-2d" x="254.492188"/>
       <use xlink:href="#DejaVuSans-41" x="288.326172"/>
       <use xlink:href="#DejaVuSans-70" x="356.734375"/>
       <use xlink:href="#DejaVuSans-72" x="420.210938"/>
       <use xlink:href="#DejaVuSans-2d" x="454.949219"/>
       <use xlink:href="#DejaVuSans-30" x="491.033203"/>
       <use xlink:href="#DejaVuSans-31" x="554.65625"/>
      </g>
     </g>
    </g>
    <g id="xtick_3">
     <g id="line2d_3">
      <g>
       <use xlink:href="#m0d76c00428" x="141.252364" y="178.56" style="stroke: #000000; stroke-width: 0.8"/>
      </g>
     </g>
     <g id="text_3">
      <!-- 2021-May-01 -->
      <g transform="translate(83.149565 225.085752)rotate(-30)scale(0.1 -0.1)">
       <defs>
        <path id="DejaVuSans-79" d="M 2059 -325 
Q 1816 -950 1584 -1140 
Q 1353 -1331 966 -1331 
L 506 -1331 
L 506 -850 
L 844 -850 
Q 1081 -850 1212 -737 
Q 1344 -625 1503 -206 
L 1606 56 
L 191 3500 
L 800 3500 
L 1894 763 
L 2988 3500 
L 3597 3500 
L 2059 -325 
z
" transform="scale(0.015625)"/>
       </defs>
       <use xlink:href="#DejaVuSans-32"/>
       <use xlink:href="#DejaVuSans-30" x="63.623047"/>
       <use xlink:href="#DejaVuSans-32" x="127.246094"/>
       <use xlink:href="#DejaVuSans-31" x="190.869141"/>
       <use xlink:href="#DejaVuSans-2d" x="254.492188"/>
       <use xlink:href="#DejaVuSans-4d" x="290.576172"/>
       <use xlink:href="#DejaVuSans-61" x="376.855469"/>
       <use xlink:href="#DejaVuSans-79" x="438.134766"/>
       <use xlink:href="#DejaVuSans-2d" x="495.564453"/>
       <use xlink:href="#DejaVuSans-30" x="531.648438"/>
       <use xlink:href="#DejaVuSans-31" x="595.271484"/>
      </g>
     </g>
    </g>
    <g id="xtick_4">
     <g id="line2d_4">
      <g>
       <use xlink:href="#m0d76c00428" x="178.918123" y="178.56" style="stroke: #000000; stroke-width: 0.8"/>
      </g>
     </g>
     <g id="text_4">
      <!-- 2021-Jun-01 -->
      <g transform="translate(124.550059 222.929502)rotate(-30)scale(0.1 -0.1)">
       <defs>
        <path id="DejaVuSans-4a" d="M 628 4666 
L 1259 4666 
L 1259 325 
Q 1259 -519 939 -900 
Q 619 -1281 -91 -1281 
L -331 -1281 
L -331 -750 
L -134 -750 
Q 284 -750 456 -515 
Q 628 -281 628 325 
L 628 4666 
z
" transform="scale(0.015625)"/>
        <path id="DejaVuSans-75" d="M 544 1381 
L 544 3500 
L 1119 3500 
L 1119 1403 
Q 1119 906 1312 657 
Q 1506 409 1894 409 
Q 2359 409 2629 706 
Q 2900 1003 2900 1516 
L 2900 3500 
L 3475 3500 
L 3475 0 
L 2900 0 
L 2900 538 
Q 2691 219 2414 64 
Q 2138 -91 1772 -91 
Q 1169 -91 856 284 
Q 544 659 544 1381 
z
M 1991 3584 
L 1991 3584 
z
" transform="scale(0.015625)"/>
        <path id="DejaVuSans-6e" d="M 3513 2113 
L 3513 0 
L 2938 0 
L 2938 2094 
Q 2938 2591 2744 2837 
Q 2550 3084 2163 3084 
Q 1697 3084 1428 2787 
Q 1159 2491 1159 1978 
L 1159 0 
L 581 0 
L 581 3500 
L 1159 3500 
L 1159 2956 
Q 1366 3272 1645 3428 
Q 1925 3584 2291 3584 
Q 2894 3584 3203 3211 
Q 3513 2838 3513 2113 
z
" transform="scale(0.015625)"/>
       </defs>
       <use xlink:href="#DejaVuSans-32"/>
       <use xlink:href="#DejaVuSans-30" x="63.623047"/>
       <use xlink:href="#DejaVuSans-32" x="127.246094"/>
       <use xlink:href="#DejaVuSans-31" x="190.869141"/>
       <use xlink:href="#DejaVuSans-2d" x="254.492188"/>
       <use xlink:href="#DejaVuSans-4a" x="296.201172"/>
       <use xlink:href="#DejaVuSans-75" x="325.693359"/>
       <use xlink:href="#DejaVuSans-6e" x="389.072266"/>
       <use xlink:href="#DejaVuSans-2d" x="452.451172"/>
       <use xlink:href="#DejaVuSans-30" x="488.535156"/>
       <use xlink:href="#DejaVuSans-31" x="552.158203"/>
      </g>
     </g>
    </g>
    <g id="xtick_5">
     <g id="line2d_5">
      <g>
       <use xlink:href="#m0d76c00428" x="215.368858" y="178.56" style="stroke: #000000; stroke-width: 0.8"/>
      </g>
     </g>
     <g id="text_5">
      <!-- 2021-Jul-01 -->
      <g transform="translate(164.083303 221.149815)rotate(-30)scale(0.1 -0.1)">
       <defs>
        <path id="DejaVuSans-6c" d="M 603 4863 
L 1178 4863 
L 1178 0 
L 603 0 
L 603 4863 
z
" transform="scale(0.015625)"/>
       </defs>
       <use xlink:href="#DejaVuSans-32"/>
       <use xlink:href="#DejaVuSans-30" x="63.623047"/>
       <use xlink:href="#DejaVuSans-32" x="127.246094"/>
       <use xlink:href="#DejaVuSans-31" x="190.869141"/>
       <use xlink:href="#DejaVuSans-2d" x="254.492188"/>
       <use xlink:href="#DejaVuSans-4a" x="296.201172"/>
       <use xlink:href="#DejaVuSans-75" x="325.693359"/>
       <use xlink:href="#DejaVuSans-6c" x="389.072266"/>
       <use xlink:href="#DejaVuSans-2d" x="416.855469"/>
       <use xlink:href="#DejaVuSans-30" x="452.939453"/>
       <use xlink:href="#DejaVuSans-31" x="516.5625"/>
      </g>
     </g>
    </g>
    <g id="xtick_6">
     <g id="line2d_6">
      <g>
       <use xlink:href="#m0d76c00428" x="253.034617" y="178.56" style="stroke: #000000; stroke-width: 0.8"/>
      </g>
     </g>
     <g id="text_6">
      <!-- 2021-Aug-01 -->
      <g transform="translate(195.969696 224.486534)rotate(-30)scale(0.1 -0.1)">
       <defs>
        <path id="DejaVuSans-67" d="M 2906 1791 
Q 2906 2416 2648 2759 
Q 2391 3103 1925 3103 
Q 1463 3103 1205 2759 
Q 947 2416 947 1791 
Q 947 1169 1205 825 
Q 1463 481 1925 481 
Q 2391 481 2648 825 
Q 2906 1169 2906 1791 
z
M 3481 434 
Q 3481 -459 3084 -895 
Q 2688 -1331 1869 -1331 
Q 1566 -1331 1297 -1286 
Q 1028 -1241 775 -1147 
L 775 -588 
Q 1028 -725 1275 -790 
Q 1522 -856 1778 -856 
Q 2344 -856 2625 -561 
Q 2906 -266 2906 331 
L 2906 616 
Q 2728 306 2450 153 
Q 2172 0 1784 0 
Q 1141 0 747 490 
Q 353 981 353 1791 
Q 353 2603 747 3093 
Q 1141 3584 1784 3584 
Q 2172 3584 2450 3431 
Q 2728 3278 2906 2969 
L 2906 3500 
L 3481 3500 
L 3481 434 
z
" transform="scale(0.015625)"/>
       </defs>
       <use xlink:href="#DejaVuSans-32"/>
       <use xlink:href="#DejaVuSans-30" x="63.623047"/>
       <use xlink:href="#DejaVuSans-32" x="127.246094"/>
       <use xlink:href="#DejaVuSans-31" x="190.869141"/>
       <use xlink:href="#DejaVuSans-2d" x="254.492188"/>
       <use xlink:href="#DejaVuSans-41" x="288.326172"/>
       <use xlink:href="#DejaVuSans-75" x="356.734375"/>
       <use xlink:href="#DejaVuSans-67" x="420.113281"/>
       <use xlink:href="#DejaVuSans-2d" x="483.589844"/>
       <use xlink:href="#DejaVuSans-30" x="519.673828"/>
       <use xlink:href="#DejaVuSans-31" x="583.296875"/>
      </g>
     </g>
    </g>
    <g id="xtick_7">
     <g id="line2d_7">
      <g>
       <use xlink:href="#m0d76c00428" x="290.700377" y="178.56" style="stroke: #000000; stroke-width: 0.8"/>
      </g>
     </g>
     <g id="text_7">
      <!-- 2021-Sep-01 -->
      <g transform="translate(234.02652 224.260752)rotate(-30)scale(0.1 -0.1)">
       <defs>
        <path id="DejaVuSans-53" d="M 3425 4513 
L 3425 3897 
Q 3066 4069 2747 4153 
Q 2428 4238 2131 4238 
Q 1616 4238 1336 4038 
Q 1056 3838 1056 3469 
Q 1056 3159 1242 3001 
Q 1428 2844 1947 2747 
L 2328 2669 
Q 3034 2534 3370 2195 
Q 3706 1856 3706 1288 
Q 3706 609 3251 259 
Q 2797 -91 1919 -91 
Q 1588 -91 1214 -16 
Q 841 59 441 206 
L 441 856 
Q 825 641 1194 531 
Q 1563 422 1919 422 
Q 2459 422 2753 634 
Q 3047 847 3047 1241 
Q 3047 1584 2836 1778 
Q 2625 1972 2144 2069 
L 1759 2144 
Q 1053 2284 737 2584 
Q 422 2884 422 3419 
Q 422 4038 858 4394 
Q 1294 4750 2059 4750 
Q 2388 4750 2728 4690 
Q 3069 4631 3425 4513 
z
" transform="scale(0.015625)"/>
        <path id="DejaVuSans-65" d="M 3597 1894 
L 3597 1613 
L 953 1613 
Q 991 1019 1311 708 
Q 1631 397 2203 397 
Q 2534 397 2845 478 
Q 3156 559 3463 722 
L 3463 178 
Q 3153 47 2828 -22 
Q 2503 -91 2169 -91 
Q 1331 -91 842 396 
Q 353 884 353 1716 
Q 353 2575 817 3079 
Q 1281 3584 2069 3584 
Q 2775 3584 3186 3129 
Q 3597 2675 3597 1894 
z
M 3022 2063 
Q 3016 2534 2758 2815 
Q 2500 3097 2075 3097 
Q 1594 3097 1305 2825 
Q 1016 2553 972 2059 
L 3022 2063 
z
" transform="scale(0.015625)"/>
       </defs>
       <use xlink:href="#DejaVuSans-32"/>
       <use xlink:href="#DejaVuSans-30" x="63.623047"/>
       <use xlink:href="#DejaVuSans-32" x="127.246094"/>
       <use xlink:href="#DejaVuSans-31" x="190.869141"/>
       <use xlink:href="#DejaVuSans-2d" x="254.492188"/>
       <use xlink:href="#DejaVuSans-53" x="290.576172"/>
       <use xlink:href="#DejaVuSans-65" x="354.052734"/>
       <use xlink:href="#DejaVuSans-70" x="415.576172"/>
       <use xlink:href="#DejaVuSans-2d" x="479.052734"/>
       <use xlink:href="#DejaVuSans-30" x="515.136719"/>
       <use xlink:href="#DejaVuSans-31" x="578.759766"/>
      </g>
     </g>
    </g>
    <g id="xtick_8">
     <g id="line2d_8">
      <g>
       <use xlink:href="#m0d76c00428" x="327.151112" y="178.56" style="stroke: #000000; stroke-width: 0.8"/>
      </g>
     </g>
     <g id="text_8">
      <!-- 2021-Oct-01 -->
      <g transform="translate(271.589556 223.618565)rotate(-30)scale(0.1 -0.1)">
       <defs>
        <path id="DejaVuSans-4f" d="M 2522 4238 
Q 1834 4238 1429 3725 
Q 1025 3213 1025 2328 
Q 1025 1447 1429 934 
Q 1834 422 2522 422 
Q 3209 422 3611 934 
Q 4013 1447 4013 2328 
Q 4013 3213 3611 3725 
Q 3209 4238 2522 4238 
z
M 2522 4750 
Q 3503 4750 4090 4092 
Q 4678 3434 4678 2328 
Q 4678 1225 4090 567 
Q 3503 -91 2522 -91 
Q 1538 -91 948 565 
Q 359 1222 359 2328 
Q 359 3434 948 4092 
Q 1538 4750 2522 4750 
z
" transform="scale(0.015625)"/>
        <path id="DejaVuSans-63" d="M 3122 3366 
L 3122 2828 
Q 2878 2963 2633 3030 
Q 2388 3097 2138 3097 
Q 1578 3097 1268 2742 
Q 959 2388 959 1747 
Q 959 1106 1268 751 
Q 1578 397 2138 397 
Q 2388 397 2633 464 
Q 2878 531 3122 666 
L 3122 134 
Q 2881 22 2623 -34 
Q 2366 -91 2075 -91 
Q 1284 -91 818 406 
Q 353 903 353 1747 
Q 353 2603 823 3093 
Q 1294 3584 2113 3584 
Q 2378 3584 2631 3529 
Q 2884 3475 3122 3366 
z
" transform="scale(0.015625)"/>
        <path id="DejaVuSans-74" d="M 1172 4494 
L 1172 3500 
L 2356 3500 
L 2356 3053 
L 1172 3053 
L 1172 1153 
Q 1172 725 1289 603 
Q 1406 481 1766 481 
L 2356 481 
L 2356 0 
L 1766 0 
Q 1100 0 847 248 
Q 594 497 594 1153 
L 594 3053 
L 172 3053 
L 172 3500 
L 594 3500 
L 594 4494 
L 1172 4494 
z
" transform="scale(0.015625)"/>
       </defs>
       <use xlink:href="#DejaVuSans-32"/>
       <use xlink:href="#DejaVuSans-30" x="63.623047"/>
       <use xlink:href="#DejaVuSans-32" x="127.246094"/>
       <use xlink:href="#DejaVuSans-31" x="190.869141"/>
       <use xlink:href="#DejaVuSans-2d" x="254.492188"/>
       <use xlink:href="#DejaVuSans-4f" x="293.326172"/>
       <use xlink:href="#DejaVuSans-63" x="372.037109"/>
       <use xlink:href="#DejaVuSans-74" x="427.017578"/>
       <use xlink:href="#DejaVuSans-2d" x="466.226562"/>
       <use xlink:href="#DejaVuSans-30" x="502.310547"/>
       <use xlink:href="#DejaVuSans-31" x="565.933594"/>
      </g>
     </g>
    </g>
    <g id="xtick_9">
     <g id="line2d_9">
      <g>
       <use xlink:href="#m0d76c00428" x="364.816871" y="178.56" style="stroke: #000000; stroke-width: 0.8"/>
      </g>
     </g>
     <g id="text_9">
      <!-- 2021-Nov-01 -->
      <g transform="translate(307.791191 224.463877)rotate(-30)scale(0.1 -0.1)">
       <defs>
        <path id="DejaVuSans-4e" d="M 628 4666 
L 1478 4666 
L 3547 763 
L 3547 4666 
L 4159 4666 
L 4159 0 
L 3309 0 
L 1241 3903 
L 1241 0 
L 628 0 
L 628 4666 
z
" transform="scale(0.015625)"/>
        <path id="DejaVuSans-6f" d="M 1959 3097 
Q 1497 3097 1228 2736 
Q 959 2375 959 1747 
Q 959 1119 1226 758 
Q 1494 397 1959 397 
Q 2419 397 2687 759 
Q 2956 1122 2956 1747 
Q 2956 2369 2687 2733 
Q 2419 3097 1959 3097 
z
M 1959 3584 
Q 2709 3584 3137 3096 
Q 3566 2609 3566 1747 
Q 3566 888 3137 398 
Q 2709 -91 1959 -91 
Q 1206 -91 779 398 
Q 353 888 353 1747 
Q 353 2609 779 3096 
Q 1206 3584 1959 3584 
z
" transform="scale(0.015625)"/>
        <path id="DejaVuSans-76" d="M 191 3500 
L 800 3500 
L 1894 563 
L 2988 3500 
L 3597 3500 
L 2284 0 
L 1503 0 
L 191 3500 
z
" transform="scale(0.015625)"/>
       </defs>
       <use xlink:href="#DejaVuSans-32"/>
       <use xlink:href="#DejaVuSans-30" x="63.623047"/>
       <use xlink:href="#DejaVuSans-32" x="127.246094"/>
       <use xlink:href="#DejaVuSans-31" x="190.869141"/>
       <use xlink:href="#DejaVuSans-2d" x="254.492188"/>
       <use xlink:href="#DejaVuSans-4e" x="290.576172"/>
       <use xlink:href="#DejaVuSans-6f" x="365.380859"/>
       <use xlink:href="#DejaVuSans-76" x="426.5625"/>
       <use xlink:href="#DejaVuSans-2d" x="483.117188"/>
       <use xlink:href="#DejaVuSans-30" x="519.201172"/>
       <use xlink:href="#DejaVuSans-31" x="582.824219"/>
      </g>
     </g>
    </g>
    <g id="xtick_10">
     <g id="line2d_10">
      <g>
       <use xlink:href="#m0d76c00428" x="401.267606" y="178.56" style="stroke: #000000; stroke-width: 0.8"/>
      </g>
     </g>
     <g id="text_10">
      <!-- 2021-Dec-01 -->
      <g transform="translate(344.159383 224.511534)rotate(-30)scale(0.1 -0.1)">
       <defs>
        <path id="DejaVuSans-44" d="M 1259 4147 
L 1259 519 
L 2022 519 
Q 2988 519 3436 956 
Q 3884 1394 3884 2338 
Q 3884 3275 3436 3711 
Q 2988 4147 2022 4147 
L 1259 4147 
z
M 628 4666 
L 1925 4666 
Q 3281 4666 3915 4102 
Q 4550 3538 4550 2338 
Q 4550 1131 3912 565 
Q 3275 0 1925 0 
L 628 0 
L 628 4666 
z
" transform="scale(0.015625)"/>
       </defs>
       <use xlink:href="#DejaVuSans-32"/>
       <use xlink:href="#DejaVuSans-30" x="63.623047"/>
       <use xlink:href="#DejaVuSans-32" x="127.246094"/>
       <use xlink:href="#DejaVuSans-31" x="190.869141"/>
       <use xlink:href="#DejaVuSans-2d" x="254.492188"/>
       <use xlink:href="#DejaVuSans-44" x="290.576172"/>
       <use xlink:href="#DejaVuSans-65" x="367.578125"/>
       <use xlink:href="#DejaVuSans-63" x="429.101562"/>
       <use xlink:href="#DejaVuSans-2d" x="484.082031"/>
       <use xlink:href="#DejaVuSans-30" x="520.166016"/>
       <use xlink:href="#DejaVuSans-31" x="583.789062"/>
      </g>
     </g>
    </g>
    <g id="xtick_11">
     <g id="line2d_11">
      <g>
       <use xlink:href="#m0d76c00428" x="438.933365" y="178.56" style="stroke: #000000; stroke-width: 0.8"/>
      </g>
     </g>
     <g id="text_11">
      <!-- 2022-Jan-01 -->
      <g transform="translate(384.746625 222.824815)rotate(-30)scale(0.1 -0.1)">
       <use xlink:href="#DejaVuSans-32"/>
       <use xlink:href="#DejaVuSans-30" x="63.623047"/>
       <use xlink:href="#DejaVuSans-32" x="127.246094"/>
       <use xlink:href="#DejaVuSans-32" x="190.869141"/>
       <use xlink:href="#DejaVuSans-2d" x="254.492188"/>
       <use xlink:href="#DejaVuSans-4a" x="296.201172"/>
       <use xlink:href="#DejaVuSans-61" x="325.693359"/>
       <use xlink:href="#DejaVuSans-6e" x="386.972656"/>
       <use xlink:href="#DejaVuSans-2d" x="450.351562"/>
       <use xlink:href="#DejaVuSans-30" x="486.435547"/>
       <use xlink:href="#DejaVuSans-31" x="550.058594"/>
      </g>
     </g>
    </g>
    <g id="xtick_12">
     <g id="line2d_12">
      <g>
       <use xlink:href="#m0d76c00428" x="476.599125" y="178.56" style="stroke: #000000; stroke-width: 0.8"/>
      </g>
     </g>
     <g id="text_12">
      <!-- 2022-Feb-01 -->
      <g transform="translate(420.918491 223.687315)rotate(-30)scale(0.1 -0.1)">
       <defs>
        <path id="DejaVuSans-46" d="M 628 4666 
L 3309 4666 
L 3309 4134 
L 1259 4134 
L 1259 2759 
L 3109 2759 
L 3109 2228 
L 1259 2228 
L 1259 0 
L 628 0 
L 628 4666 
z
" transform="scale(0.015625)"/>
        <path id="DejaVuSans-62" d="M 3116 1747 
Q 3116 2381 2855 2742 
Q 2594 3103 2138 3103 
Q 1681 3103 1420 2742 
Q 1159 2381 1159 1747 
Q 1159 1113 1420 752 
Q 1681 391 2138 391 
Q 2594 391 2855 752 
Q 3116 1113 3116 1747 
z
M 1159 2969 
Q 1341 3281 1617 3432 
Q 1894 3584 2278 3584 
Q 2916 3584 3314 3078 
Q 3713 2572 3713 1747 
Q 3713 922 3314 415 
Q 2916 -91 2278 -91 
Q 1894 -91 1617 61 
Q 1341 213 1159 525 
L 1159 0 
L 581 0 
L 581 4863 
L 1159 4863 
L 1159 2969 
z
" transform="scale(0.015625)"/>
       </defs>
       <use xlink:href="#DejaVuSans-32"/>
       <use xlink:href="#DejaVuSans-30" x="63.623047"/>
       <use xlink:href="#DejaVuSans-32" x="127.246094"/>
       <use xlink:href="#DejaVuSans-32" x="190.869141"/>
       <use xlink:href="#DejaVuSans-2d" x="254.492188"/>
       <use xlink:href="#DejaVuSans-46" x="290.576172"/>
       <use xlink:href="#DejaVuSans-65" x="342.595703"/>
       <use xlink:href="#DejaVuSans-62" x="404.119141"/>
       <use xlink:href="#DejaVuSans-2d" x="467.595703"/>
       <use xlink:href="#DejaVuSans-30" x="503.679688"/>
       <use xlink:href="#DejaVuSans-31" x="567.302734"/>
      </g>
     </g>
    </g>
   </g>
   <g id="matplotlib.axis_2">
    <g id="ytick_1">
     <g id="line2d_13">
      <path d="M 50.490034 178.56 
L 496.890034 178.56 
" clip-path="url(#p11987c9c2d)" style="fill: none; stroke: #b0b0b0; stroke-width: 0.8; stroke-linecap: square"/>
     </g>
     <g id="line2d_14">
      <defs>
       <path id="m0bc7774d43" d="M 0 0 
L -3.5 0 
" style="stroke: #000000; stroke-width: 0.8"/>
      </defs>
      <g>
       <use xlink:href="#m0bc7774d43" x="50.490034" y="178.56" style="stroke: #000000; stroke-width: 0.8"/>
      </g>
     </g>
     <g id="text_13">
      <!-- 0 -->
      <g transform="translate(37.127534 182.359219)scale(0.1 -0.1)">
       <use xlink:href="#DejaVuSans-30"/>
      </g>
     </g>
    </g>
    <g id="ytick_2">
     <g id="line2d_15">
      <path d="M 50.490034 140.48 
L 496.890034 140.48 
" clip-path="url(#p11987c9c2d)" style="fill: none; stroke: #b0b0b0; stroke-width: 0.8; stroke-linecap: square"/>
     </g>
     <g id="line2d_16">
      <g>
       <use xlink:href="#m0bc7774d43" x="50.490034" y="140.48" style="stroke: #000000; stroke-width: 0.8"/>
      </g>
     </g>
     <g id="text_14">
      <!-- 10 -->
      <g transform="translate(30.765034 144.279219)scale(0.1 -0.1)">
       <use xlink:href="#DejaVuSans-31"/>
       <use xlink:href="#DejaVuSans-30" x="63.623047"/>
      </g>
     </g>
    </g>
    <g id="ytick_3">
     <g id="line2d_17">
      <path d="M 50.490034 102.4 
L 496.890034 102.4 
" clip-path="url(#p11987c9c2d)" style="fill: none; stroke: #b0b0b0; stroke-width: 0.8; stroke-linecap: square"/>
     </g>
     <g id="line2d_18">
      <g>
       <use xlink:href="#m0bc7774d43" x="50.490034" y="102.4" style="stroke: #000000; stroke-width: 0.8"/>
      </g>
     </g>
     <g id="text_15">
      <!-- 20 -->
      <g transform="translate(30.765034 106.199219)scale(0.1 -0.1)">
       <use xlink:href="#DejaVuSans-32"/>
       <use xlink:href="#DejaVuSans-30" x="63.623047"/>
      </g>
     </g>
    </g>
    <g id="ytick_4">
     <g id="line2d_19">
      <path d="M 50.490034 64.32 
L 496.890034 64.32 
" clip-path="url(#p11987c9c2d)" style="fill: none; stroke: #b0b0b0; stroke-width: 0.8; stroke-linecap: square"/>
     </g>
     <g id="line2d_20">
      <g>
       <use xlink:href="#m0bc7774d43" x="50.490034" y="64.32" style="stroke: #000000; stroke-width: 0.8"/>
      </g>
     </g>
     <g id="text_16">
      <!-- 30 -->
      <g transform="translate(30.765034 68.119219)scale(0.1 -0.1)">
       <defs>
        <path id="DejaVuSans-33" d="M 2597 2516 
Q 3050 2419 3304 2112 
Q 3559 1806 3559 1356 
Q 3559 666 3084 287 
Q 2609 -91 1734 -91 
Q 1441 -91 1130 -33 
Q 819 25 488 141 
L 488 750 
Q 750 597 1062 519 
Q 1375 441 1716 441 
Q 2309 441 2620 675 
Q 2931 909 2931 1356 
Q 2931 1769 2642 2001 
Q 2353 2234 1838 2234 
L 1294 2234 
L 1294 2753 
L 1863 2753 
Q 2328 2753 2575 2939 
Q 2822 3125 2822 3475 
Q 2822 3834 2567 4026 
Q 2313 4219 1838 4219 
Q 1578 4219 1281 4162 
Q 984 4106 628 3988 
L 628 4550 
Q 988 4650 1302 4700 
Q 1616 4750 1894 4750 
Q 2613 4750 3031 4423 
Q 3450 4097 3450 3541 
Q 3450 3153 3228 2886 
Q 3006 2619 2597 2516 
z
" transform="scale(0.015625)"/>
       </defs>
       <use xlink:href="#DejaVuSans-33"/>
       <use xlink:href="#DejaVuSans-30" x="63.623047"/>
      </g>
     </g>
    </g>
    <g id="ytick_5">
     <g id="line2d_21">
      <path d="M 50.490034 26.24 
L 496.890034 26.24 
" clip-path="url(#p11987c9c2d)" style="fill: none; stroke: #b0b0b0; stroke-width: 0.8; stroke-linecap: square"/>
     </g>
     <g id="line2d_22">
      <g>
       <use xlink:href="#m0bc7774d43" x="50.490034" y="26.24" style="stroke: #000000; stroke-width: 0.8"/>
      </g>
     </g>
     <g id="text_17">
      <!-- 40 -->
      <g transform="translate(30.765034 30.039219)scale(0.1 -0.1)">
       <defs>
        <path id="DejaVuSans-34" d="M 2419 4116 
L 825 1625 
L 2419 1625 
L 2419 4116 
z
M 2253 4666 
L 3047 4666 
L 3047 1625 
L 3713 1625 
L 3713 1100 
L 3047 1100 
L 3047 0 
L 2419 0 
L 2419 1100 
L 313 1100 
L 313 1709 
L 2253 4666 
z
" transform="scale(0.015625)"/>
       </defs>
       <use xlink:href="#DejaVuSans-34"/>
       <use xlink:href="#DejaVuSans-30" x="63.623047"/>
      </g>
     </g>
    </g>
    <g id="text_18">
     <!-- Percentage Of Domains -->
     <g transform="translate(24.685346 151.883125)rotate(-90)scale(0.1 -0.1)">
      <defs>
       <path id="DejaVuSans-50" d="M 1259 4147 
L 1259 2394 
L 2053 2394 
Q 2494 2394 2734 2622 
Q 2975 2850 2975 3272 
Q 2975 3691 2734 3919 
Q 2494 4147 2053 4147 
L 1259 4147 
z
M 628 4666 
L 2053 4666 
Q 2838 4666 3239 4311 
Q 3641 3956 3641 3272 
Q 3641 2581 3239 2228 
Q 2838 1875 2053 1875 
L 1259 1875 
L 1259 0 
L 628 0 
L 628 4666 
z
" transform="scale(0.015625)"/>
       <path id="DejaVuSans-20" transform="scale(0.015625)"/>
       <path id="DejaVuSans-66" d="M 2375 4863 
L 2375 4384 
L 1825 4384 
Q 1516 4384 1395 4259 
Q 1275 4134 1275 3809 
L 1275 3500 
L 2222 3500 
L 2222 3053 
L 1275 3053 
L 1275 0 
L 697 0 
L 697 3053 
L 147 3053 
L 147 3500 
L 697 3500 
L 697 3744 
Q 697 4328 969 4595 
Q 1241 4863 1831 4863 
L 2375 4863 
z
" transform="scale(0.015625)"/>
       <path id="DejaVuSans-6d" d="M 3328 2828 
Q 3544 3216 3844 3400 
Q 4144 3584 4550 3584 
Q 5097 3584 5394 3201 
Q 5691 2819 5691 2113 
L 5691 0 
L 5113 0 
L 5113 2094 
Q 5113 2597 4934 2840 
Q 4756 3084 4391 3084 
Q 3944 3084 3684 2787 
Q 3425 2491 3425 1978 
L 3425 0 
L 2847 0 
L 2847 2094 
Q 2847 2600 2669 2842 
Q 2491 3084 2119 3084 
Q 1678 3084 1418 2786 
Q 1159 2488 1159 1978 
L 1159 0 
L 581 0 
L 581 3500 
L 1159 3500 
L 1159 2956 
Q 1356 3278 1631 3431 
Q 1906 3584 2284 3584 
Q 2666 3584 2933 3390 
Q 3200 3197 3328 2828 
z
" transform="scale(0.015625)"/>
       <path id="DejaVuSans-69" d="M 603 3500 
L 1178 3500 
L 1178 0 
L 603 0 
L 603 3500 
z
M 603 4863 
L 1178 4863 
L 1178 4134 
L 603 4134 
L 603 4863 
z
" transform="scale(0.015625)"/>
       <path id="DejaVuSans-73" d="M 2834 3397 
L 2834 2853 
Q 2591 2978 2328 3040 
Q 2066 3103 1784 3103 
Q 1356 3103 1142 2972 
Q 928 2841 928 2578 
Q 928 2378 1081 2264 
Q 1234 2150 1697 2047 
L 1894 2003 
Q 2506 1872 2764 1633 
Q 3022 1394 3022 966 
Q 3022 478 2636 193 
Q 2250 -91 1575 -91 
Q 1294 -91 989 -36 
Q 684 19 347 128 
L 347 722 
Q 666 556 975 473 
Q 1284 391 1588 391 
Q 1994 391 2212 530 
Q 2431 669 2431 922 
Q 2431 1156 2273 1281 
Q 2116 1406 1581 1522 
L 1381 1569 
Q 847 1681 609 1914 
Q 372 2147 372 2553 
Q 372 3047 722 3315 
Q 1072 3584 1716 3584 
Q 2034 3584 2315 3537 
Q 2597 3491 2834 3397 
z
" transform="scale(0.015625)"/>
      </defs>
      <use xlink:href="#DejaVuSans-50"/>
      <use xlink:href="#DejaVuSans-65" x="56.677734"/>
      <use xlink:href="#DejaVuSans-72" x="118.201172"/>
      <use xlink:href="#DejaVuSans-63" x="157.064453"/>
      <use xlink:href="#DejaVuSans-65" x="212.044922"/>
      <use xlink:href="#DejaVuSans-6e" x="273.568359"/>
      <use xlink:href="#DejaVuSans-74" x="336.947266"/>
      <use xlink:href="#DejaVuSans-61" x="376.15625"/>
      <use xlink:href="#DejaVuSans-67" x="437.435547"/>
      <use xlink:href="#DejaVuSans-65" x="500.912109"/>
      <use xlink:href="#DejaVuSans-20" x="562.435547"/>
      <use xlink:href="#DejaVuSans-4f" x="594.222656"/>
      <use xlink:href="#DejaVuSans-66" x="672.933594"/>
      <use xlink:href="#DejaVuSans-20" x="708.138672"/>
      <use xlink:href="#DejaVuSans-44" x="739.925781"/>
      <use xlink:href="#DejaVuSans-6f" x="816.927734"/>
      <use xlink:href="#DejaVuSans-6d" x="878.109375"/>
      <use xlink:href="#DejaVuSans-61" x="975.521484"/>
      <use xlink:href="#DejaVuSans-69" x="1036.800781"/>
      <use xlink:href="#DejaVuSans-6e" x="1064.583984"/>
      <use xlink:href="#DejaVuSans-73" x="1127.962891"/>
     </g>
    </g>
   </g>
   <g id="line2d_23">
    <path d="M 70.780943 125.579642 
L 71.995967 126.149941 
L 73.210992 125.895552 
L 74.426016 126.322792 
L 75.641041 125.969736 
L 76.856065 126.253581 
L 80.501139 126.421125 
L 81.716163 127.058122 
L 82.931188 126.829989 
L 84.146212 126.77673 
L 99.941531 126.783558 
L 101.156555 127.046397 
L 102.37158 127.029594 
L 103.586604 126.5238 
L 104.801629 127.342286 
L 106.016653 127.201546 
L 107.231678 127.611901 
L 108.446702 127.275526 
L 109.661727 127.479131 
L 113.3068 127.580118 
L 115.736849 128.13675 
L 120.596947 127.611432 
L 121.811972 128.048 
L 123.026996 127.511129 
L 124.242021 127.753131 
L 125.457045 127.80532 
L 126.67207 128.423849 
L 127.887094 127.853679 
L 129.102119 128.434172 
L 133.962217 128.209963 
L 135.177241 127.883194 
L 136.392266 127.927931 
L 138.822315 127.392787 
L 143.682413 127.627445 
L 144.897437 126.963796 
L 146.112462 127.591129 
L 147.327486 127.3572 
L 148.542511 127.241034 
L 149.757535 127.900839 
L 150.97256 127.230459 
L 152.187584 127.285614 
L 153.402609 127.679159 
L 155.832658 127.413551 
L 157.047682 128.036709 
L 158.262707 127.856704 
L 160.692756 127.660715 
L 161.90778 127.893721 
L 163.122805 128.552057 
L 164.337829 129.009069 
L 165.552854 128.682882 
L 166.767878 128.978086 
L 167.982903 128.49663 
L 169.197927 129.104037 
L 170.412952 128.472005 
L 171.627976 129.190942 
L 174.058025 129.096946 
L 175.27305 129.26462 
L 176.488074 128.630697 
L 177.703098 128.20537 
L 181.348172 128.899925 
L 182.563196 128.352437 
L 183.778221 128.74842 
L 184.993245 128.17522 
L 186.20827 128.178403 
L 187.423294 127.317212 
L 188.638319 128.213455 
L 189.853343 128.180735 
L 191.068368 128.035768 
L 192.283392 128.067182 
L 193.498417 128.942248 
L 195.928466 127.992622 
L 197.14349 128.470361 
L 198.358515 128.113287 
L 199.573539 127.55663 
L 200.788564 127.57061 
L 202.003588 128.006075 
L 203.218613 128.076984 
L 204.433637 127.77232 
L 206.863686 128.039714 
L 210.50876 127.650622 
L 212.938809 128.012278 
L 217.798907 127.675148 
L 219.013931 127.854632 
L 253.034617 131.991579 
L 254.249642 133.004662 
L 255.464666 133.257194 
L 256.679691 133.290445 
L 257.894715 132.101439 
L 259.10974 132.960677 
L 260.324764 132.900272 
L 261.539789 132.654757 
L 262.754813 132.123585 
L 263.969838 133.028983 
L 265.184862 133.123939 
L 266.399887 133.349652 
L 267.614911 132.33942 
L 268.829936 133.196242 
L 270.04496 131.605491 
L 271.259985 132.488165 
L 272.475009 132.139174 
L 273.690034 132.455601 
L 274.905058 131.920612 
L 296.775499 132.68814 
L 297.990524 131.447462 
L 300.420573 131.518124 
L 301.635597 131.928181 
L 302.850622 132.802708 
L 304.065646 132.062316 
L 305.280671 132.793836 
L 306.495695 134.48248 
L 307.71072 133.417968 
L 310.140769 132.861894 
L 311.355793 134.212337 
L 312.570818 132.9892 
L 313.785842 134.682683 
L 315.000867 133.116699 
L 316.215891 133.608104 
L 318.64594 133.679055 
L 322.291014 133.059903 
L 323.506038 132.54091 
L 324.721063 133.632674 
L 325.936087 133.433243 
L 327.151112 132.994638 
L 328.366136 133.381234 
L 329.581161 133.231728 
L 330.796185 132.954893 
L 332.01121 134.398684 
L 333.226234 132.732618 
L 334.441259 134.542937 
L 335.656283 134.511266 
L 338.086332 133.275112 
L 339.301357 133.219204 
L 340.516381 133.851954 
L 341.731406 133.047719 
L 342.94643 133.043324 
L 344.161455 133.19923 
L 345.376479 132.650907 
L 346.591504 133.649413 
L 347.806528 133.014254 
L 349.021553 133.29007 
L 351.451601 134.212093 
L 352.666626 133.032966 
L 353.88165 133.244069 
L 355.096675 133.572514 
L 356.311699 133.207942 
L 357.526724 133.821202 
L 358.741748 133.154925 
L 359.956773 132.814209 
L 361.171797 133.450887 
L 362.386822 133.461171 
L 363.601846 133.796571 
L 364.816871 132.577192 
L 366.031895 134.150486 
L 367.24692 134.764894 
L 368.461944 134.05693 
L 372.107018 134.714675 
L 373.322042 133.987334 
L 374.537067 134.475472 
L 375.752091 133.32303 
L 379.397165 133.040734 
L 380.612189 132.54452 
L 381.827214 134.04823 
L 383.042238 133.524115 
L 385.472287 134.105034 
L 386.687312 132.849603 
L 387.902336 133.349931 
L 389.117361 133.324579 
L 390.332385 132.866054 
L 391.54741 133.229122 
L 392.762434 132.703135 
L 393.977459 133.062759 
L 395.192483 131.349525 
L 396.407508 131.742853 
L 397.622532 133.35509 
L 398.837557 133.261538 
L 400.052581 132.79327 
L 401.267606 132.009614 
L 402.48263 132.700665 
L 403.697655 132.539517 
L 404.912679 132.644956 
L 407.342728 131.644189 
L 408.557753 131.885355 
L 409.772777 131.681902 
L 410.987802 132.457426 
L 412.202826 132.018362 
L 413.417851 132.791516 
L 415.8479 133.51802 
L 417.062924 133.096822 
L 418.277949 131.596241 
L 419.492973 132.60409 
L 420.707998 132.452773 
L 424.353071 133.255151 
L 425.568096 132.079845 
L 426.78312 132.986092 
L 427.998145 132.588897 
L 429.213169 131.383546 
L 430.428194 131.90914 
L 431.643218 131.934632 
L 432.858243 132.576999 
L 434.073267 131.138823 
L 435.288292 132.498415 
L 436.503316 131.005476 
L 440.14839 132.062753 
L 441.363414 131.969717 
L 442.578439 131.105809 
L 443.793463 132.611282 
L 445.008488 131.123439 
L 447.438537 131.336781 
L 448.653561 130.507824 
L 449.868586 130.754399 
L 451.08361 131.236056 
L 452.298635 131.938887 
L 453.513659 131.466245 
L 454.728684 131.388595 
L 455.943708 128.481603 
L 457.158733 130.149618 
L 458.373757 130.069216 
L 459.588782 131.888427 
L 460.803806 129.52903 
L 462.018831 129.4645 
L 463.233855 131.980232 
L 464.44888 131.290097 
L 465.663904 131.76678 
L 466.878929 129.725727 
L 468.093953 131.734778 
L 469.308978 130.427385 
L 470.524002 131.573725 
L 471.739027 130.113926 
L 472.954051 129.053324 
L 474.169076 131.444778 
L 475.3841 131.805964 
L 476.599125 131.707644 
L 476.599125 131.707644 
" clip-path="url(#p11987c9c2d)" style="fill: none; stroke: #1f77b4; stroke-width: 1.5; stroke-linecap: square"/>
   </g>
   <g id="line2d_24">
    <path d="M 70.780943 178.56 
L 75.641041 178.501889 
L 76.856065 178.44415 
L 79.286114 178.443636 
L 80.501139 178.56 
L 84.146212 178.387197 
L 119.381923 178.448 
L 121.811972 178.392 
L 125.457045 178.504041 
L 476.599125 178.56 
L 476.599125 178.56 
" clip-path="url(#p11987c9c2d)" style="fill: none; stroke: #ff7f0e; stroke-width: 1.5; stroke-linecap: square"/>
   </g>
   <g id="line2d_25">
    <path d="M 70.780943 83.301198 
L 73.210992 83.519853 
L 74.426016 84.25566 
L 75.641041 83.258306 
L 79.286114 84.072727 
L 80.501139 83.418191 
L 81.716163 84.04301 
L 84.146212 83.748807 
L 99.941531 83.588846 
L 101.156555 83.889445 
L 102.37158 83.488398 
L 103.586604 82.932071 
L 104.801629 84.043662 
L 106.016653 83.657279 
L 108.446702 83.998926 
L 109.661727 84.667963 
L 110.876751 84.049957 
L 112.091776 84.517189 
L 113.3068 83.923314 
L 114.521825 84.178015 
L 115.736849 84.771625 
L 119.381923 84.48 
L 120.596947 84.156945 
L 123.026996 84.504969 
L 125.457045 83.765702 
L 126.67207 84.435943 
L 127.887094 83.904479 
L 129.102119 84.392659 
L 132.747192 84.265075 
L 135.177241 83.387844 
L 136.392266 83.429703 
L 138.822315 83.805902 
L 143.682413 84.470852 
L 146.112462 83.650539 
L 147.327486 83.984763 
L 148.542511 83.885356 
L 149.757535 84.147233 
L 150.97256 83.636262 
L 153.402609 83.860467 
L 154.617633 84.079117 
L 155.832658 83.249173 
L 157.047682 83.690939 
L 158.262707 82.959129 
L 159.477731 82.849137 
L 161.90778 82.820113 
L 164.337829 84.751574 
L 165.552854 83.853833 
L 166.767878 84.517819 
L 169.197927 84.724679 
L 170.412952 84.562987 
L 171.627976 85.033063 
L 172.843001 85.136629 
L 174.058025 85.74853 
L 175.27305 85.688594 
L 176.488074 85.004214 
L 177.703098 84.461852 
L 178.918123 84.619114 
L 180.133147 85.16448 
L 181.348172 85.079003 
L 182.563196 84.003336 
L 183.778221 84.544046 
L 184.993245 84.272373 
L 186.20827 83.672845 
L 187.423294 83.332916 
L 188.638319 84.59425 
L 189.853343 84.688624 
L 191.068368 84.009829 
L 192.283392 84.641201 
L 193.498417 84.957952 
L 194.713441 84.701227 
L 195.928466 84.742067 
L 198.358515 84.181038 
L 199.573539 83.56218 
L 200.788564 83.981163 
L 202.003588 84.196271 
L 203.218613 83.77666 
L 204.433637 83.763504 
L 206.863686 84.041623 
L 210.50876 82.970661 
L 212.938809 83.53458 
L 217.798907 82.995766 
L 219.013931 83.58804 
L 253.034617 60.450909 
L 254.249642 60.169403 
L 255.464666 61.189405 
L 256.679691 59.734114 
L 257.894715 61.719389 
L 259.10974 58.46567 
L 260.324764 61.79698 
L 261.539789 60.96785 
L 262.754813 60.329036 
L 263.969838 58.090286 
L 265.184862 61.321113 
L 266.399887 59.064097 
L 267.614911 59.090197 
L 268.829936 60.039195 
L 270.04496 60.215473 
L 271.259985 58.815937 
L 272.475009 59.550007 
L 273.690034 60.985806 
L 274.905058 59.576562 
L 296.775499 55.034391 
L 297.990524 57.300548 
L 300.420573 58.908855 
L 301.635597 57.550694 
L 302.850622 57.086544 
L 304.065646 56.864337 
L 305.280671 55.506957 
L 306.495695 58.343748 
L 307.71072 56.983098 
L 308.925744 57.797894 
L 310.140769 56.259654 
L 311.355793 59.421743 
L 312.570818 57.497643 
L 313.785842 58.639265 
L 316.215891 57.142452 
L 318.64594 55.984211 
L 322.291014 55.699206 
L 323.506038 55.807 
L 324.721063 56.448479 
L 325.936087 56.35272 
L 327.151112 58.773142 
L 328.366136 56.376771 
L 329.581161 57.560614 
L 330.796185 57.016842 
L 332.01121 57.925483 
L 333.226234 60.837327 
L 334.441259 57.513076 
L 335.656283 59.081068 
L 336.871308 59.036172 
L 338.086332 57.52205 
L 339.301357 57.581564 
L 340.516381 57.150038 
L 341.731406 56.950351 
L 342.94643 59.151247 
L 344.161455 57.772545 
L 345.376479 57.702614 
L 346.591504 57.980296 
L 347.806528 57.156849 
L 349.021553 54.863963 
L 350.236577 58.307368 
L 351.451601 56.629221 
L 352.666626 57.258877 
L 353.88165 57.23025 
L 355.096675 56.398858 
L 356.311699 56.764819 
L 357.526724 58.701639 
L 358.741748 58.761255 
L 359.956773 63.936192 
L 361.171797 56.239902 
L 362.386822 57.311538 
L 363.601846 58.672762 
L 364.816871 57.394002 
L 366.031895 57.578811 
L 367.24692 58.045808 
L 368.461944 58.957998 
L 369.676969 58.103909 
L 370.891993 58.001609 
L 372.107018 57.740625 
L 373.322042 57.724276 
L 374.537067 58.88 
L 375.752091 62.41933 
L 379.397165 59.983853 
L 380.612189 58.703329 
L 381.827214 61.117009 
L 383.042238 58.721361 
L 384.257263 57.593324 
L 385.472287 59.035828 
L 386.687312 63.641285 
L 387.902336 56.769611 
L 389.117361 61.873175 
L 390.332385 61.706717 
L 391.54741 61.132914 
L 392.762434 54.621116 
L 393.977459 58.010428 
L 395.192483 58.741997 
L 396.407508 59.771755 
L 397.622532 56.66085 
L 398.837557 56.264615 
L 400.052581 56.914111 
L 401.267606 55.912591 
L 402.48263 58.938334 
L 403.697655 58.334737 
L 404.912679 57.50646 
L 407.342728 57.048049 
L 408.557753 56.49189 
L 409.772777 57.384539 
L 410.987802 59.491935 
L 412.202826 57.70951 
L 413.417851 57.511679 
L 414.632875 57.485658 
L 415.8479 59.003484 
L 417.062924 57.115109 
L 418.277949 55.562177 
L 419.492973 58.718305 
L 420.707998 58.618904 
L 424.353071 58.92607 
L 425.568096 58.143725 
L 426.78312 57.04712 
L 427.998145 58.073308 
L 429.213169 57.777851 
L 430.428194 56.966119 
L 431.643218 55.847893 
L 432.858243 56.532218 
L 434.073267 54.417187 
L 435.288292 56.940799 
L 436.503316 57.256984 
L 440.14839 57.594505 
L 441.363414 56.03902 
L 442.578439 55.020039 
L 443.793463 58.362331 
L 445.008488 55.758407 
L 446.223512 56.940236 
L 447.438537 56.879567 
L 448.653561 52.868464 
L 449.868586 55.570673 
L 451.08361 55.517746 
L 452.298635 57.491286 
L 453.513659 55.763163 
L 454.728684 55.124693 
L 455.943708 54.814776 
L 457.158733 56.550957 
L 458.373757 53.180515 
L 459.588782 55.770569 
L 460.803806 53.012638 
L 462.018831 54.770359 
L 463.233855 57.119891 
L 464.44888 56.608932 
L 465.663904 58.532007 
L 466.878929 53.03982 
L 468.093953 58.085318 
L 469.308978 56.098002 
L 470.524002 55.603782 
L 471.739027 53.047894 
L 472.954051 53.535573 
L 474.169076 56.657881 
L 475.3841 56.121254 
L 476.599125 56.628449 
L 476.599125 56.628449 
" clip-path="url(#p11987c9c2d)" style="fill: none; stroke: #2ca02c; stroke-width: 1.5; stroke-linecap: square"/>
   </g>
   <g id="line2d_26">
    <path d="M 70.780943 156.979765 
L 71.995967 158.187984 
L 73.210992 157.9825 
L 74.426016 157.35308 
L 75.641041 157.640116 
L 79.286114 157.381818 
L 80.501139 157.553154 
L 84.146212 157.70845 
L 99.941531 158.249904 
L 101.156555 157.954559 
L 102.37158 158.130448 
L 104.801629 158.107098 
L 108.446702 158.227949 
L 109.661727 158.251417 
L 110.876751 158.677971 
L 112.091776 158.633762 
L 113.3068 158.337041 
L 114.521825 158.532741 
L 115.736849 158.571388 
L 119.381923 158.512 
L 120.596947 159.041833 
L 121.811972 159.072 
L 123.026996 158.62078 
L 124.242021 159.276865 
L 125.457045 159.086319 
L 126.67207 159.220972 
L 129.102119 158.967388 
L 132.747192 159.400252 
L 133.962217 159.06607 
L 135.177241 159.625809 
L 136.392266 159.489331 
L 137.60729 159.47256 
L 138.822315 159.219016 
L 143.682413 159.231179 
L 144.897437 159.433821 
L 146.112462 159.412085 
L 147.327486 159.233997 
L 148.542511 158.872983 
L 149.757535 159.058709 
L 150.97256 159.055879 
L 152.187584 158.684912 
L 153.402609 158.541308 
L 154.617633 158.867263 
L 155.832658 158.888289 
L 157.047682 158.703685 
L 158.262707 158.654671 
L 159.477731 159.009137 
L 160.692756 159.222717 
L 161.90778 158.736472 
L 163.122805 158.799687 
L 164.337829 159.4054 
L 165.552854 159.245648 
L 166.767878 159.217605 
L 167.982903 158.907931 
L 169.197927 158.963211 
L 170.412952 158.710718 
L 171.627976 158.97694 
L 172.843001 158.716417 
L 174.058025 158.905806 
L 175.27305 158.623968 
L 177.703098 158.671574 
L 178.918123 159.125842 
L 181.348172 158.750542 
L 182.563196 159.1778 
L 183.778221 158.853124 
L 184.993245 158.351618 
L 186.20827 158.483532 
L 187.423294 158.788734 
L 188.638319 158.866254 
L 189.853343 158.549291 
L 191.068368 159.173424 
L 192.283392 159.247576 
L 193.498417 159.167909 
L 194.713441 159.268012 
L 195.928466 158.940074 
L 199.573539 159.420258 
L 200.788564 159.168908 
L 202.003588 159.24484 
L 203.218613 159.635589 
L 204.433637 159.407019 
L 210.50876 159.549536 
L 212.938809 159.866475 
L 217.798907 159.403985 
L 219.013931 159.726577 
L 253.034617 161.626029 
L 254.249642 161.989579 
L 255.464666 161.411178 
L 256.679691 161.57722 
L 257.894715 161.311592 
L 259.10974 162.017489 
L 260.324764 161.650965 
L 261.539789 161.799249 
L 262.754813 161.387086 
L 263.969838 161.633175 
L 265.184862 161.461553 
L 266.399887 161.67934 
L 267.614911 161.767056 
L 268.829936 161.308993 
L 271.259985 161.583356 
L 272.475009 161.931645 
L 273.690034 161.437028 
L 274.905058 162.395212 
L 296.775499 161.715599 
L 297.990524 161.064069 
L 300.420573 160.965807 
L 301.635597 161.159276 
L 302.850622 161.599156 
L 304.065646 160.869502 
L 305.280671 161.391044 
L 306.495695 161.492589 
L 307.71072 161.274936 
L 308.925744 162.056374 
L 310.140769 162.397191 
L 311.355793 161.495104 
L 315.000867 161.83729 
L 316.215891 161.432959 
L 317.430916 161.932332 
L 318.64594 162.047199 
L 322.291014 162.550707 
L 325.936087 161.683757 
L 327.151112 162.388247 
L 328.366136 162.092973 
L 329.581161 161.502116 
L 330.796185 161.966717 
L 332.01121 162.221357 
L 333.226234 162.032946 
L 334.441259 161.477187 
L 335.656283 162.139466 
L 338.086332 161.812939 
L 339.301357 161.740027 
L 340.516381 161.468812 
L 341.731406 161.701667 
L 342.94643 161.73518 
L 345.376479 161.481191 
L 346.591504 162.05797 
L 347.806528 161.395567 
L 349.021553 162.634592 
L 350.236577 162.213971 
L 351.451601 162.669532 
L 352.666626 161.924119 
L 353.88165 162.793397 
L 355.096675 161.839912 
L 356.311699 162.096941 
L 357.526724 161.913005 
L 358.741748 162.039618 
L 359.956773 161.184898 
L 361.171797 162.274934 
L 362.386822 161.868249 
L 363.601846 161.877333 
L 364.816871 162.349112 
L 366.031895 162.298811 
L 367.24692 162.563915 
L 368.461944 161.81984 
L 369.676969 162.581657 
L 372.107018 162.639664 
L 373.322042 162.431394 
L 374.537067 162.496604 
L 375.752091 162.268543 
L 379.397165 162.376514 
L 381.827214 161.9519 
L 384.257263 162.826594 
L 385.472287 162.712628 
L 386.687312 161.900643 
L 387.902336 162.721098 
L 389.117361 161.699525 
L 390.332385 161.92535 
L 391.54741 161.95415 
L 392.762434 162.78691 
L 393.977459 162.100247 
L 395.192483 161.888314 
L 396.407508 162.338269 
L 397.622532 162.378697 
L 398.837557 161.612308 
L 400.052581 162.333614 
L 401.267606 161.661213 
L 402.48263 161.964784 
L 403.697655 161.503821 
L 404.912679 161.815752 
L 406.127704 162.51651 
L 407.342728 162.712882 
L 408.557753 162.02174 
L 409.772777 162.48305 
L 410.987802 162.017007 
L 412.202826 161.100312 
L 413.417851 162.302869 
L 414.632875 162.016964 
L 415.8479 162.209501 
L 417.062924 161.727612 
L 418.277949 162.608064 
L 419.492973 162.053601 
L 420.707998 162.048628 
L 424.353071 161.81125 
L 425.568096 161.38026 
L 426.78312 161.982886 
L 427.998145 161.857338 
L 429.213169 161.930951 
L 430.428194 162.177591 
L 431.643218 163.07054 
L 432.858243 162.324544 
L 434.073267 161.022112 
L 435.288292 162.150236 
L 436.503316 162.084826 
L 440.14839 162.368994 
L 441.363414 162.091846 
L 442.578439 161.540117 
L 443.793463 161.746946 
L 445.008488 162.346842 
L 446.223512 161.626264 
L 447.438537 161.214853 
L 448.653561 161.012857 
L 449.868586 160.944618 
L 451.08361 161.470798 
L 452.298635 161.227179 
L 453.513659 162.152473 
L 454.728684 162.195471 
L 455.943708 159.700003 
L 457.158733 160.917577 
L 458.373757 160.396049 
L 459.588782 160.597239 
L 460.803806 159.606398 
L 462.018831 159.697843 
L 463.233855 160.936628 
L 466.878929 160.2069 
L 468.093953 160.590365 
L 469.308978 160.306429 
L 470.524002 160.979742 
L 471.739027 160.066284 
L 472.954051 159.827744 
L 475.3841 160.994948 
L 476.599125 160.773943 
L 476.599125 160.773943 
" clip-path="url(#p11987c9c2d)" style="fill: none; stroke: #d62728; stroke-width: 1.5; stroke-linecap: square"/>
   </g>
   <g id="line2d_27">
    <path d="M 70.780943 172.503422 
L 71.995967 173.220326 
L 73.210992 172.747147 
L 75.641041 173.155697 
L 76.856065 173.05711 
L 79.286114 173.090909 
L 80.501139 172.857311 
L 81.716163 173.095918 
L 82.931188 172.657918 
L 84.146212 172.915105 
L 99.941531 172.724423 
L 102.37158 173.024619 
L 103.586604 172.740162 
L 104.801629 172.862813 
L 106.016653 172.501175 
L 108.446702 172.710276 
L 109.661727 173.15938 
L 110.876751 173.209312 
L 113.3068 172.645207 
L 114.521825 172.974933 
L 115.736849 172.631174 
L 119.381923 172.68 
L 120.596947 173.023328 
L 121.811972 172.68 
L 124.242021 172.803006 
L 125.457045 172.516444 
L 126.67207 173.138365 
L 127.887094 172.863916 
L 129.102119 173.257156 
L 133.962217 172.489033 
L 135.177241 172.879743 
L 137.60729 173.0905 
L 138.822315 172.930492 
L 143.682413 173.172369 
L 144.897437 173.000064 
L 149.757535 173.146044 
L 150.97256 172.868996 
L 152.187584 172.714386 
L 153.402609 172.999252 
L 157.047682 173.099513 
L 158.262707 172.920157 
L 159.477731 173.092386 
L 160.692756 173.114443 
L 161.90778 172.745837 
L 163.122805 172.87477 
L 164.337829 173.15742 
L 165.552854 173.127839 
L 166.767878 172.83901 
L 169.197927 173.37422 
L 170.412952 173.201241 
L 171.627976 173.184258 
L 172.843001 173.421441 
L 177.703098 172.775278 
L 178.918123 173.085589 
L 180.133147 173.091878 
L 181.348172 172.884563 
L 184.993245 172.677236 
L 186.20827 172.955999 
L 191.068368 173.036451 
L 192.283392 172.787851 
L 193.498417 173.089047 
L 197.14349 173.000482 
L 198.358515 173.3915 
L 199.573539 173.330268 
L 200.788564 173.104567 
L 206.863686 173.37432 
L 210.50876 173.082409 
L 212.938809 173.13458 
L 217.798907 173.379782 
L 219.013931 173.301665 
L 253.034617 173.629856 
L 254.249642 174.19095 
L 255.464666 174.019035 
L 256.679691 174.006258 
L 257.894715 173.860743 
L 259.10974 174.316953 
L 260.324764 173.332601 
L 261.539789 174.182989 
L 262.754813 173.638168 
L 263.969838 173.899766 
L 265.184862 173.819309 
L 266.399887 173.60763 
L 267.614911 174.028571 
L 270.04496 173.609014 
L 271.259985 173.968832 
L 272.475009 173.550175 
L 274.905058 173.684064 
L 297.990524 173.764428 
L 300.420573 173.350843 
L 302.850622 173.487598 
L 304.065646 173.108547 
L 305.280671 173.829235 
L 306.495695 173.881083 
L 307.71072 173.802643 
L 308.925744 173.534858 
L 310.140769 173.927012 
L 311.355793 173.398396 
L 312.570818 173.520156 
L 313.785842 173.790726 
L 316.215891 173.448237 
L 318.64594 173.426213 
L 322.291014 173.767744 
L 323.506038 173.246017 
L 324.721063 173.544611 
L 325.936087 173.269642 
L 327.151112 173.661065 
L 328.366136 173.809896 
L 329.581161 173.405437 
L 330.796185 173.22267 
L 333.226234 173.972048 
L 334.441259 173.477077 
L 335.656283 173.712033 
L 336.871308 173.770718 
L 338.086332 173.499362 
L 339.301357 173.388642 
L 341.731406 173.601667 
L 342.94643 173.285762 
L 344.161455 173.426795 
L 345.376479 172.971521 
L 347.806528 173.134161 
L 349.021553 173.495198 
L 350.236577 173.406316 
L 351.451601 173.782474 
L 353.88165 173.234856 
L 355.096675 173.491723 
L 356.311699 173.369418 
L 357.526724 173.461858 
L 358.741748 172.897353 
L 359.956773 173.373402 
L 361.171797 173.148988 
L 363.601846 173.430857 
L 364.816871 173.000497 
L 366.031895 173.362595 
L 367.24692 173.07267 
L 369.676969 173.663411 
L 372.107018 173.665398 
L 374.537067 173.068679 
L 375.752091 173.4369 
L 379.397165 173.319633 
L 380.612189 173.45862 
L 383.042238 173.316096 
L 384.257263 172.576147 
L 385.472287 172.848772 
L 386.687312 172.749792 
L 387.902336 172.40897 
L 389.117361 172.288726 
L 390.332385 172.296335 
L 391.54741 172.474626 
L 392.762434 173.232665 
L 393.977459 173.228696 
L 395.192483 172.691151 
L 396.407508 172.502518 
L 397.622532 172.703909 
L 400.052581 173.411243 
L 403.697655 172.735939 
L 404.912679 172.71531 
L 406.127704 173.229421 
L 407.342728 173.347132 
L 408.557753 172.889739 
L 409.772777 173.201017 
L 410.987802 173.114814 
L 413.417851 172.502407 
L 414.632875 172.925029 
L 415.8479 172.936261 
L 417.062924 172.687017 
L 418.277949 172.578024 
L 419.492973 172.271848 
L 420.707998 173.160055 
L 425.568096 172.552361 
L 426.78312 172.244909 
L 427.998145 172.871787 
L 429.213169 172.669459 
L 430.428194 172.787151 
L 432.858243 172.746659 
L 434.073267 171.883946 
L 435.288292 172.691951 
L 436.503316 172.479258 
L 440.14839 172.644056 
L 441.363414 172.462614 
L 442.578439 171.826277 
L 443.793463 172.34648 
L 445.008488 172.38854 
L 446.223512 172.235981 
L 448.653561 171.487152 
L 449.868586 171.609352 
L 451.08361 172.092394 
L 452.298635 172.086296 
L 453.513659 172.329294 
L 454.728684 172.170041 
L 455.943708 171.037494 
L 457.158733 170.748445 
L 458.373757 171.058663 
L 459.588782 171.606673 
L 460.803806 170.622167 
L 462.018831 171.015137 
L 463.233855 171.749788 
L 464.44888 171.799612 
L 465.663904 171.533209 
L 466.878929 170.456731 
L 468.093953 171.632576 
L 469.308978 171.405863 
L 470.524002 171.01052 
L 471.739027 170.832078 
L 472.954051 170.371328 
L 474.169076 171.694489 
L 475.3841 171.792289 
L 476.599125 171.477057 
L 476.599125 171.477057 
" clip-path="url(#p11987c9c2d)" style="fill: none; stroke: #9467bd; stroke-width: 1.5; stroke-linecap: square"/>
   </g>
   <g id="line2d_28">
    <path d="M 70.780943 174.914293 
L 71.995967 176.006243 
L 73.210992 175.421059 
L 74.426016 175.49742 
L 75.641041 175.422017 
L 76.856065 175.605817 
L 79.286114 175.592727 
L 80.501139 175.24313 
L 81.716163 175.421059 
L 82.931188 175.377505 
L 84.146212 175.795154 
L 99.941531 175.642212 
L 102.37158 175.877908 
L 104.801629 175.82535 
L 106.016653 175.5589 
L 108.446702 175.663535 
L 109.661727 175.915946 
L 114.521825 175.682844 
L 115.736849 175.454425 
L 121.811972 175.704 
L 125.457045 175.370345 
L 126.67207 176.044808 
L 127.887094 175.432738 
L 129.102119 175.936488 
L 133.962217 175.663759 
L 135.177241 176.165382 
L 136.392266 176.106464 
L 137.60729 176.215928 
L 138.822315 175.88459 
L 143.682413 176.116126 
L 146.112462 175.903642 
L 147.327486 176.172017 
L 148.542511 176.126773 
L 149.757535 175.853022 
L 150.97256 175.797377 
L 152.187584 175.498012 
L 153.402609 175.501589 
L 157.047682 175.802178 
L 158.262707 175.574201 
L 159.477731 175.688122 
L 160.692756 175.559387 
L 161.90778 174.905383 
L 163.122805 175.413805 
L 164.337829 175.776853 
L 165.552854 175.651873 
L 167.982903 175.595721 
L 169.197927 175.994404 
L 171.627976 175.817275 
L 172.843001 175.990721 
L 174.058025 175.884846 
L 175.27305 175.890968 
L 176.488074 175.271572 
L 177.703098 175.419722 
L 181.348172 175.394852 
L 182.563196 175.001121 
L 183.778221 175.293667 
L 184.993245 175.291798 
L 186.20827 175.513165 
L 187.423294 175.5266 
L 188.638319 175.684605 
L 189.853343 175.468915 
L 191.068368 175.635768 
L 192.283392 175.431172 
L 193.498417 175.79744 
L 194.713441 175.471114 
L 197.14349 175.483373 
L 198.358515 176.083427 
L 199.573539 176.18775 
L 200.788564 175.913305 
L 203.218613 175.871873 
L 204.433637 176.085177 
L 210.50876 175.660099 
L 217.798907 175.808009 
L 219.013931 175.716207 
L 253.034617 175.451866 
L 254.249642 176.10907 
L 255.464666 176.15596 
L 256.679691 175.988475 
L 259.10974 176.304203 
L 260.324764 175.839619 
L 262.754813 175.831593 
L 263.969838 175.828139 
L 265.184862 176.003223 
L 266.399887 176.003938 
L 268.829936 176.536734 
L 270.04496 176.217598 
L 271.259985 176.371187 
L 272.475009 176.055087 
L 273.690034 175.95433 
L 274.905058 176.069033 
L 297.990524 175.872372 
L 300.420573 175.530184 
L 302.850622 175.812449 
L 304.065646 175.192926 
L 305.280671 175.742803 
L 306.495695 175.901525 
L 307.71072 175.864164 
L 308.925744 175.703603 
L 310.140769 176.243506 
L 311.355793 176.189876 
L 312.570818 175.801349 
L 313.785842 176.069379 
L 317.430916 175.973474 
L 318.64594 175.64909 
L 324.721063 175.761941 
L 325.936087 175.491592 
L 327.151112 176.031517 
L 328.366136 176.026611 
L 329.581161 175.265331 
L 330.796185 175.864913 
L 333.226234 176.161752 
L 334.441259 175.887535 
L 335.656283 175.901437 
L 336.871308 175.696842 
L 338.086332 175.84708 
L 339.301357 175.582551 
L 340.516381 175.746207 
L 344.161455 175.260083 
L 345.376479 175.217358 
L 346.591504 175.478925 
L 347.806528 175.221022 
L 350.236577 175.905072 
L 351.451601 175.859659 
L 352.666626 176.161096 
L 355.096675 175.947486 
L 357.526724 176.062951 
L 358.741748 175.910505 
L 362.386822 175.864438 
L 363.601846 175.658667 
L 364.816871 175.598395 
L 366.031895 175.884108 
L 367.24692 176.023404 
L 368.461944 175.72705 
L 369.676969 175.725133 
L 370.891993 175.989459 
L 372.107018 175.674761 
L 373.322042 175.880487 
L 374.537067 175.583396 
L 375.752091 175.844757 
L 380.612189 175.004493 
L 383.042238 175.115475 
L 384.257263 174.58796 
L 385.472287 174.340894 
L 386.687312 174.292325 
L 387.902336 174.613089 
L 389.117361 174.499093 
L 390.332385 174.247313 
L 392.762434 174.590613 
L 393.977459 175.247345 
L 395.192483 174.405063 
L 396.407508 174.299229 
L 398.837557 174.48 
L 400.052581 175.02348 
L 401.267606 174.728908 
L 402.48263 174.21488 
L 403.697655 174.503957 
L 404.912679 174.45292 
L 406.127704 174.83377 
L 407.342728 174.650349 
L 408.557753 174.307305 
L 409.772777 174.55377 
L 412.202826 174.247667 
L 413.417851 174.46983 
L 414.632875 174.372544 
L 415.8479 174.498411 
L 417.062924 173.997951 
L 419.492973 174.053491 
L 420.707998 174.198506 
L 424.353071 174.242776 
L 425.568096 174.027921 
L 426.78312 173.613179 
L 427.998145 174.319696 
L 429.213169 174.441834 
L 430.428194 173.983327 
L 431.643218 174.478318 
L 432.858243 174.370205 
L 434.073267 172.890653 
L 435.288292 174.197911 
L 436.503316 174.506172 
L 440.14839 174.0452 
L 441.363414 174.078161 
L 442.578439 172.992749 
L 443.793463 174.069557 
L 445.008488 174.219058 
L 446.223512 174.222037 
L 447.438537 173.271846 
L 448.653561 171.811099 
L 449.868586 172.617461 
L 451.08361 173.564695 
L 454.728684 173.832469 
L 455.943708 171.306155 
L 457.158733 172.34264 
L 458.373757 171.487311 
L 459.588782 172.712884 
L 460.803806 170.730164 
L 462.018831 171.069029 
L 463.233855 173.361365 
L 464.44888 173.225631 
L 465.663904 172.886517 
L 466.878929 171.476347 
L 468.093953 173.195153 
L 469.308978 172.720961 
L 470.524002 172.541533 
L 472.954051 171.388222 
L 474.169076 173.266744 
L 475.3841 173.18716 
L 476.599125 172.788713 
L 476.599125 172.788713 
" clip-path="url(#p11987c9c2d)" style="fill: none; stroke: #8c564b; stroke-width: 1.5; stroke-linecap: square"/>
   </g>
   <g id="patch_3">
    <path d="M 50.490034 178.56 
L 50.490034 7.2 
" style="fill: none; stroke: #000000; stroke-width: 0.8; stroke-linejoin: miter; stroke-linecap: square"/>
   </g>
   <g id="patch_4">
    <path d="M 496.890034 178.56 
L 496.890034 7.2 
" style="fill: none; stroke: #000000; stroke-width: 0.8; stroke-linejoin: miter; stroke-linecap: square"/>
   </g>
   <g id="patch_5">
    <path d="M 50.490034 178.56 
L 496.890034 178.56 
" style="fill: none; stroke: #000000; stroke-width: 0.8; stroke-linejoin: miter; stroke-linecap: square"/>
   </g>
   <g id="patch_6">
    <path d="M 50.490034 7.2 
L 496.890034 7.2 
" style="fill: none; stroke: #000000; stroke-width: 0.8; stroke-linejoin: miter; stroke-linecap: square"/>
   </g>
   <g id="legend_1">
    <g id="patch_7">
     <path d="M 55.390034 74.448125 
L 175.611752 74.448125 
Q 177.011752 74.448125 177.011752 73.048125 
L 177.011752 12.1 
Q 177.011752 10.7 175.611752 10.7 
L 55.390034 10.7 
Q 53.990034 10.7 53.990034 12.1 
L 53.990034 73.048125 
Q 53.990034 74.448125 55.390034 74.448125 
z
" style="fill: #ffffff; opacity: 0.8; stroke: #cccccc; stroke-linejoin: miter"/>
    </g>
    <g id="line2d_29">
     <path d="M 56.790034 16.368906 
L 63.790034 16.368906 
L 70.790034 16.368906 
" style="fill: none; stroke: #1f77b4; stroke-width: 1.5; stroke-linecap: square"/>
    </g>
    <g id="text_19">
     <!-- No Base Redirect -->
     <g transform="translate(76.390034 18.818906)scale(0.07 -0.07)">
      <defs>
       <path id="DejaVuSans-42" d="M 1259 2228 
L 1259 519 
L 2272 519 
Q 2781 519 3026 730 
Q 3272 941 3272 1375 
Q 3272 1813 3026 2020 
Q 2781 2228 2272 2228 
L 1259 2228 
z
M 1259 4147 
L 1259 2741 
L 2194 2741 
Q 2656 2741 2882 2914 
Q 3109 3088 3109 3444 
Q 3109 3797 2882 3972 
Q 2656 4147 2194 4147 
L 1259 4147 
z
M 628 4666 
L 2241 4666 
Q 2963 4666 3353 4366 
Q 3744 4066 3744 3513 
Q 3744 3084 3544 2831 
Q 3344 2578 2956 2516 
Q 3422 2416 3680 2098 
Q 3938 1781 3938 1306 
Q 3938 681 3513 340 
Q 3088 0 2303 0 
L 628 0 
L 628 4666 
z
" transform="scale(0.015625)"/>
       <path id="DejaVuSans-52" d="M 2841 2188 
Q 3044 2119 3236 1894 
Q 3428 1669 3622 1275 
L 4263 0 
L 3584 0 
L 2988 1197 
Q 2756 1666 2539 1819 
Q 2322 1972 1947 1972 
L 1259 1972 
L 1259 0 
L 628 0 
L 628 4666 
L 2053 4666 
Q 2853 4666 3247 4331 
Q 3641 3997 3641 3322 
Q 3641 2881 3436 2590 
Q 3231 2300 2841 2188 
z
M 1259 4147 
L 1259 2491 
L 2053 2491 
Q 2509 2491 2742 2702 
Q 2975 2913 2975 3322 
Q 2975 3731 2742 3939 
Q 2509 4147 2053 4147 
L 1259 4147 
z
" transform="scale(0.015625)"/>
       <path id="DejaVuSans-64" d="M 2906 2969 
L 2906 4863 
L 3481 4863 
L 3481 0 
L 2906 0 
L 2906 525 
Q 2725 213 2448 61 
Q 2172 -91 1784 -91 
Q 1150 -91 751 415 
Q 353 922 353 1747 
Q 353 2572 751 3078 
Q 1150 3584 1784 3584 
Q 2172 3584 2448 3432 
Q 2725 3281 2906 2969 
z
M 947 1747 
Q 947 1113 1208 752 
Q 1469 391 1925 391 
Q 2381 391 2643 752 
Q 2906 1113 2906 1747 
Q 2906 2381 2643 2742 
Q 2381 3103 1925 3103 
Q 1469 3103 1208 2742 
Q 947 2381 947 1747 
z
" transform="scale(0.015625)"/>
      </defs>
      <use xlink:href="#DejaVuSans-4e"/>
      <use xlink:href="#DejaVuSans-6f" x="74.804688"/>
      <use xlink:href="#DejaVuSans-20" x="135.986328"/>
      <use xlink:href="#DejaVuSans-42" x="167.773438"/>
      <use xlink:href="#DejaVuSans-61" x="236.376953"/>
      <use xlink:href="#DejaVuSans-73" x="297.65625"/>
      <use xlink:href="#DejaVuSans-65" x="349.755859"/>
      <use xlink:href="#DejaVuSans-20" x="411.279297"/>
      <use xlink:href="#DejaVuSans-52" x="443.066406"/>
      <use xlink:href="#DejaVuSans-65" x="508.048828"/>
      <use xlink:href="#DejaVuSans-64" x="569.572266"/>
      <use xlink:href="#DejaVuSans-69" x="633.048828"/>
      <use xlink:href="#DejaVuSans-72" x="660.832031"/>
      <use xlink:href="#DejaVuSans-65" x="699.695312"/>
      <use xlink:href="#DejaVuSans-63" x="761.21875"/>
      <use xlink:href="#DejaVuSans-74" x="816.199219"/>
     </g>
    </g>
    <g id="line2d_30">
     <path d="M 56.790034 26.643594 
L 63.790034 26.643594 
L 70.790034 26.643594 
" style="fill: none; stroke: #ff7f0e; stroke-width: 1.5; stroke-linecap: square"/>
    </g>
    <g id="text_20">
     <!-- Subdomain not HTTPS -->
     <g transform="translate(76.390034 29.093594)scale(0.07 -0.07)">
      <defs>
       <path id="DejaVuSans-48" d="M 628 4666 
L 1259 4666 
L 1259 2753 
L 3553 2753 
L 3553 4666 
L 4184 4666 
L 4184 0 
L 3553 0 
L 3553 2222 
L 1259 2222 
L 1259 0 
L 628 0 
L 628 4666 
z
" transform="scale(0.015625)"/>
       <path id="DejaVuSans-54" d="M -19 4666 
L 3928 4666 
L 3928 4134 
L 2272 4134 
L 2272 0 
L 1638 0 
L 1638 4134 
L -19 4134 
L -19 4666 
z
" transform="scale(0.015625)"/>
      </defs>
      <use xlink:href="#DejaVuSans-53"/>
      <use xlink:href="#DejaVuSans-75" x="63.476562"/>
      <use xlink:href="#DejaVuSans-62" x="126.855469"/>
      <use xlink:href="#DejaVuSans-64" x="190.332031"/>
      <use xlink:href="#DejaVuSans-6f" x="253.808594"/>
      <use xlink:href="#DejaVuSans-6d" x="314.990234"/>
      <use xlink:href="#DejaVuSans-61" x="412.402344"/>
      <use xlink:href="#DejaVuSans-69" x="473.681641"/>
      <use xlink:href="#DejaVuSans-6e" x="501.464844"/>
      <use xlink:href="#DejaVuSans-20" x="564.84375"/>
      <use xlink:href="#DejaVuSans-6e" x="596.630859"/>
      <use xlink:href="#DejaVuSans-6f" x="660.009766"/>
      <use xlink:href="#DejaVuSans-74" x="721.191406"/>
      <use xlink:href="#DejaVuSans-20" x="760.400391"/>
      <use xlink:href="#DejaVuSans-48" x="792.1875"/>
      <use xlink:href="#DejaVuSans-54" x="867.382812"/>
      <use xlink:href="#DejaVuSans-54" x="926.716797"/>
      <use xlink:href="#DejaVuSans-50" x="987.800781"/>
      <use xlink:href="#DejaVuSans-53" x="1048.103516"/>
     </g>
    </g>
    <g id="line2d_31">
     <path d="M 56.790034 36.918281 
L 63.790034 36.918281 
L 70.790034 36.918281 
" style="fill: none; stroke: #2ca02c; stroke-width: 1.5; stroke-linecap: square"/>
    </g>
    <g id="text_21">
     <!-- No HSTS Header -->
     <g transform="translate(76.390034 39.368281)scale(0.07 -0.07)">
      <use xlink:href="#DejaVuSans-4e"/>
      <use xlink:href="#DejaVuSans-6f" x="74.804688"/>
      <use xlink:href="#DejaVuSans-20" x="135.986328"/>
      <use xlink:href="#DejaVuSans-48" x="167.773438"/>
      <use xlink:href="#DejaVuSans-53" x="242.96875"/>
      <use xlink:href="#DejaVuSans-54" x="306.445312"/>
      <use xlink:href="#DejaVuSans-53" x="367.529297"/>
      <use xlink:href="#DejaVuSans-20" x="431.005859"/>
      <use xlink:href="#DejaVuSans-48" x="462.792969"/>
      <use xlink:href="#DejaVuSans-65" x="537.988281"/>
      <use xlink:href="#DejaVuSans-61" x="599.511719"/>
      <use xlink:href="#DejaVuSans-64" x="660.791016"/>
      <use xlink:href="#DejaVuSans-65" x="724.267578"/>
      <use xlink:href="#DejaVuSans-72" x="785.791016"/>
     </g>
    </g>
    <g id="line2d_32">
     <path d="M 56.790034 47.192969 
L 63.790034 47.192969 
L 70.790034 47.192969 
" style="fill: none; stroke: #d62728; stroke-width: 1.5; stroke-linecap: square"/>
    </g>
    <g id="text_22">
     <!-- Max Age too short -->
     <g transform="translate(76.390034 49.642969)scale(0.07 -0.07)">
      <defs>
       <path id="DejaVuSans-78" d="M 3513 3500 
L 2247 1797 
L 3578 0 
L 2900 0 
L 1881 1375 
L 863 0 
L 184 0 
L 1544 1831 
L 300 3500 
L 978 3500 
L 1906 2253 
L 2834 3500 
L 3513 3500 
z
" transform="scale(0.015625)"/>
       <path id="DejaVuSans-68" d="M 3513 2113 
L 3513 0 
L 2938 0 
L 2938 2094 
Q 2938 2591 2744 2837 
Q 2550 3084 2163 3084 
Q 1697 3084 1428 2787 
Q 1159 2491 1159 1978 
L 1159 0 
L 581 0 
L 581 4863 
L 1159 4863 
L 1159 2956 
Q 1366 3272 1645 3428 
Q 1925 3584 2291 3584 
Q 2894 3584 3203 3211 
Q 3513 2838 3513 2113 
z
" transform="scale(0.015625)"/>
      </defs>
      <use xlink:href="#DejaVuSans-4d"/>
      <use xlink:href="#DejaVuSans-61" x="86.279297"/>
      <use xlink:href="#DejaVuSans-78" x="147.558594"/>
      <use xlink:href="#DejaVuSans-20" x="206.738281"/>
      <use xlink:href="#DejaVuSans-41" x="238.525391"/>
      <use xlink:href="#DejaVuSans-67" x="306.933594"/>
      <use xlink:href="#DejaVuSans-65" x="370.410156"/>
      <use xlink:href="#DejaVuSans-20" x="431.933594"/>
      <use xlink:href="#DejaVuSans-74" x="463.720703"/>
      <use xlink:href="#DejaVuSans-6f" x="502.929688"/>
      <use xlink:href="#DejaVuSans-6f" x="564.111328"/>
      <use xlink:href="#DejaVuSans-20" x="625.292969"/>
      <use xlink:href="#DejaVuSans-73" x="657.080078"/>
      <use xlink:href="#DejaVuSans-68" x="709.179688"/>
      <use xlink:href="#DejaVuSans-6f" x="772.558594"/>
      <use xlink:href="#DejaVuSans-72" x="833.740234"/>
      <use xlink:href="#DejaVuSans-74" x="874.853516"/>
     </g>
    </g>
    <g id="line2d_33">
     <path d="M 56.790034 57.467656 
L 63.790034 57.467656 
L 70.790034 57.467656 
" style="fill: none; stroke: #9467bd; stroke-width: 1.5; stroke-linecap: square"/>
    </g>
    <g id="text_23">
     <!-- Missing includeSubDomains -->
     <g transform="translate(76.390034 59.917656)scale(0.07 -0.07)">
      <use xlink:href="#DejaVuSans-4d"/>
      <use xlink:href="#DejaVuSans-69" x="86.279297"/>
      <use xlink:href="#DejaVuSans-73" x="114.0625"/>
      <use xlink:href="#DejaVuSans-73" x="166.162109"/>
      <use xlink:href="#DejaVuSans-69" x="218.261719"/>
      <use xlink:href="#DejaVuSans-6e" x="246.044922"/>
      <use xlink:href="#DejaVuSans-67" x="309.423828"/>
      <use xlink:href="#DejaVuSans-20" x="372.900391"/>
      <use xlink:href="#DejaVuSans-69" x="404.6875"/>
      <use xlink:href="#DejaVuSans-6e" x="432.470703"/>
      <use xlink:href="#DejaVuSans-63" x="495.849609"/>
      <use xlink:href="#DejaVuSans-6c" x="550.830078"/>
      <use xlink:href="#DejaVuSans-75" x="578.613281"/>
      <use xlink:href="#DejaVuSans-64" x="641.992188"/>
      <use xlink:href="#DejaVuSans-65" x="705.46875"/>
      <use xlink:href="#DejaVuSans-53" x="766.992188"/>
      <use xlink:href="#DejaVuSans-75" x="830.46875"/>
      <use xlink:href="#DejaVuSans-62" x="893.847656"/>
      <use xlink:href="#DejaVuSans-44" x="957.324219"/>
      <use xlink:href="#DejaVuSans-6f" x="1034.326172"/>
      <use xlink:href="#DejaVuSans-6d" x="1095.507812"/>
      <use xlink:href="#DejaVuSans-61" x="1192.919922"/>
      <use xlink:href="#DejaVuSans-69" x="1254.199219"/>
      <use xlink:href="#DejaVuSans-6e" x="1281.982422"/>
      <use xlink:href="#DejaVuSans-73" x="1345.361328"/>
     </g>
    </g>
    <g id="line2d_34">
     <path d="M 56.790034 67.742344 
L 63.790034 67.742344 
L 70.790034 67.742344 
" style="fill: none; stroke: #8c564b; stroke-width: 1.5; stroke-linecap: square"/>
    </g>
    <g id="text_24">
     <!-- Missing preload -->
     <g transform="translate(76.390034 70.192344)scale(0.07 -0.07)">
      <use xlink:href="#DejaVuSans-4d"/>
      <use xlink:href="#DejaVuSans-69" x="86.279297"/>
      <use xlink:href="#DejaVuSans-73" x="114.0625"/>
      <use xlink:href="#DejaVuSans-73" x="166.162109"/>
      <use xlink:href="#DejaVuSans-69" x="218.261719"/>
      <use xlink:href="#DejaVuSans-6e" x="246.044922"/>
      <use xlink:href="#DejaVuSans-67" x="309.423828"/>
      <use xlink:href="#DejaVuSans-20" x="372.900391"/>
      <use xlink:href="#DejaVuSans-70" x="404.6875"/>
      <use xlink:href="#DejaVuSans-72" x="468.164062"/>
      <use xlink:href="#DejaVuSans-65" x="507.027344"/>
      <use xlink:href="#DejaVuSans-6c" x="568.550781"/>
      <use xlink:href="#DejaVuSans-6f" x="596.333984"/>
      <use xlink:href="#DejaVuSans-61" x="657.515625"/>
      <use xlink:href="#DejaVuSans-64" x="718.794922"/>
     </g>
    </g>
   </g>
  </g>
 </g>
 <defs>
  <clipPath id="p11987c9c2d">
   <rect x="50.490034" y="7.2" width="446.4" height="171.36"/>
  </clipPath>
 </defs>
</svg>
