<?xml version="1.0" encoding="utf-8" standalone="no"?>
<!DOCTYPE svg PUBLIC "-//W3C//DTD SVG 1.1//EN"
  "http://www.w3.org/Graphics/SVG/1.1/DTD/svg11.dtd">
<svg xmlns:xlink="http://www.w3.org/1999/xlink" width="503.132498pt" height="237.886033pt" viewBox="0 0 503.132498 237.886033" xmlns="http://www.w3.org/2000/svg" version="1.1">
 <metadata>
  <rdf:RDF xmlns:dc="http://purl.org/dc/elements/1.1/" xmlns:cc="http://creativecommons.org/ns#" xmlns:rdf="http://www.w3.org/1999/02/22-rdf-syntax-ns#">
   <cc:Work>
    <dc:type rdf:resource="http://purl.org/dc/dcmitype/StillImage"/>
    <dc:date>2022-01-25T19:28:32.938049</dc:date>
    <dc:format>image/svg+xml</dc:format>
    <dc:creator>
     <cc:Agent>
      <dc:title>Matplotlib v3.5.1, https://matplotlib.org/</dc:title>
     </cc:Agent>
    </dc:creator>
   </cc:Work>
  </rdf:RDF>
 </metadata>
 <defs>
  <style type="text/css">*{stroke-linejoin: round; stroke-linecap: butt}</style>
 </defs>
 <g id="figure_1">
  <g id="patch_1">
   <path d="M 0 237.886033 
L 503.132498 237.886033 
L 503.132498 0 
L 0 0 
z
" style="fill: #ffffff"/>
  </g>
  <g id="axes_1">
   <g id="patch_2">
    <path d="M 49.532498 182.359219 
L 495.932498 182.359219 
L 495.932498 10.999219 
L 49.532498 10.999219 
z
" style="fill: #ffffff"/>
   </g>
   <g id="matplotlib.axis_1">
    <g id="xtick_1">
     <g id="line2d_1">
      <defs>
       <path id="m76df4a85fe" d="M 0 0 
L 0 3.5 
" style="stroke: #000000; stroke-width: 0.8"/>
      </defs>
      <g>
       <use xlink:href="#m76df4a85fe" x="67.135869" y="182.359219" style="stroke: #000000; stroke-width: 0.8"/>
      </g>
     </g>
     <g id="text_1">
      <!-- 2021-Mar-01 -->
      <g transform="translate(10.999219 227.749815)rotate(-30)scale(0.1 -0.1)">
       <defs>
        <path id="DejaVuSans-32" d="M 1228 531 
L 3431 531 
L 3431 0 
L 469 0 
L 469 531 
Q 828 903 1448 1529 
Q 2069 2156 2228 2338 
Q 2531 2678 2651 2914 
Q 2772 3150 2772 3378 
Q 2772 3750 2511 3984 
Q 2250 4219 1831 4219 
Q 1534 4219 1204 4116 
Q 875 4013 500 3803 
L 500 4441 
Q 881 4594 1212 4672 
Q 1544 4750 1819 4750 
Q 2544 4750 2975 4387 
Q 3406 4025 3406 3419 
Q 3406 3131 3298 2873 
Q 3191 2616 2906 2266 
Q 2828 2175 2409 1742 
Q 1991 1309 1228 531 
z
" transform="scale(0.015625)"/>
        <path id="DejaVuSans-30" d="M 2034 4250 
Q 1547 4250 1301 3770 
Q 1056 3291 1056 2328 
Q 1056 1369 1301 889 
Q 1547 409 2034 409 
Q 2525 409 2770 889 
Q 3016 1369 3016 2328 
Q 3016 3291 2770 3770 
Q 2525 4250 2034 4250 
z
M 2034 4750 
Q 2819 4750 3233 4129 
Q 3647 3509 3647 2328 
Q 3647 1150 3233 529 
Q 2819 -91 2034 -91 
Q 1250 -91 836 529 
Q 422 1150 422 2328 
Q 422 3509 836 4129 
Q 1250 4750 2034 4750 
z
" transform="scale(0.015625)"/>
        <path id="DejaVuSans-31" d="M 794 531 
L 1825 531 
L 1825 4091 
L 703 3866 
L 703 4441 
L 1819 4666 
L 2450 4666 
L 2450 531 
L 3481 531 
L 3481 0 
L 794 0 
L 794 531 
z
" transform="scale(0.015625)"/>
        <path id="DejaVuSans-2d" d="M 313 2009 
L 1997 2009 
L 1997 1497 
L 313 1497 
L 313 2009 
z
" transform="scale(0.015625)"/>
        <path id="DejaVuSans-4d" d="M 628 4666 
L 1569 4666 
L 2759 1491 
L 3956 4666 
L 4897 4666 
L 4897 0 
L 4281 0 
L 4281 4097 
L 3078 897 
L 2444 897 
L 1241 4097 
L 1241 0 
L 628 0 
L 628 4666 
z
" transform="scale(0.015625)"/>
        <path id="DejaVuSans-61" d="M 2194 1759 
Q 1497 1759 1228 1600 
Q 959 1441 959 1056 
Q 959 750 1161 570 
Q 1363 391 1709 391 
Q 2188 391 2477 730 
Q 2766 1069 2766 1631 
L 2766 1759 
L 2194 1759 
z
M 3341 1997 
L 3341 0 
L 2766 0 
L 2766 531 
Q 2569 213 2275 61 
Q 1981 -91 1556 -91 
Q 1019 -91 701 211 
Q 384 513 384 1019 
Q 384 1609 779 1909 
Q 1175 2209 1959 2209 
L 2766 2209 
L 2766 2266 
Q 2766 2663 2505 2880 
Q 2244 3097 1772 3097 
Q 1472 3097 1187 3025 
Q 903 2953 641 2809 
L 641 3341 
Q 956 3463 1253 3523 
Q 1550 3584 1831 3584 
Q 2591 3584 2966 3190 
Q 3341 2797 3341 1997 
z
" transform="scale(0.015625)"/>
        <path id="DejaVuSans-72" d="M 2631 2963 
Q 2534 3019 2420 3045 
Q 2306 3072 2169 3072 
Q 1681 3072 1420 2755 
Q 1159 2438 1159 1844 
L 1159 0 
L 581 0 
L 581 3500 
L 1159 3500 
L 1159 2956 
Q 1341 3275 1631 3429 
Q 1922 3584 2338 3584 
Q 2397 3584 2469 3576 
Q 2541 3569 2628 3553 
L 2631 2963 
z
" transform="scale(0.015625)"/>
       </defs>
       <use xlink:href="#DejaVuSans-32"/>
       <use xlink:href="#DejaVuSans-30" x="63.623047"/>
       <use xlink:href="#DejaVuSans-32" x="127.246094"/>
       <use xlink:href="#DejaVuSans-31" x="190.869141"/>
       <use xlink:href="#DejaVuSans-2d" x="254.492188"/>
       <use xlink:href="#DejaVuSans-4d" x="290.576172"/>
       <use xlink:href="#DejaVuSans-61" x="376.855469"/>
       <use xlink:href="#DejaVuSans-72" x="438.134766"/>
       <use xlink:href="#DejaVuSans-2d" x="472.873047"/>
       <use xlink:href="#DejaVuSans-30" x="508.957031"/>
       <use xlink:href="#DejaVuSans-31" x="572.580078"/>
      </g>
     </g>
    </g>
    <g id="xtick_2">
     <g id="line2d_2">
      <g>
       <use xlink:href="#m76df4a85fe" x="108.792703" y="182.359219" style="stroke: #000000; stroke-width: 0.8"/>
      </g>
     </g>
     <g id="text_2">
      <!-- 2021-Apr-01 -->
      <g transform="translate(54.208132 226.853721)rotate(-30)scale(0.1 -0.1)">
       <defs>
        <path id="DejaVuSans-41" d="M 2188 4044 
L 1331 1722 
L 3047 1722 
L 2188 4044 
z
M 1831 4666 
L 2547 4666 
L 4325 0 
L 3669 0 
L 3244 1197 
L 1141 1197 
L 716 0 
L 50 0 
L 1831 4666 
z
" transform="scale(0.015625)"/>
        <path id="DejaVuSans-70" d="M 1159 525 
L 1159 -1331 
L 581 -1331 
L 581 3500 
L 1159 3500 
L 1159 2969 
Q 1341 3281 1617 3432 
Q 1894 3584 2278 3584 
Q 2916 3584 3314 3078 
Q 3713 2572 3713 1747 
Q 3713 922 3314 415 
Q 2916 -91 2278 -91 
Q 1894 -91 1617 61 
Q 1341 213 1159 525 
z
M 3116 1747 
Q 3116 2381 2855 2742 
Q 2594 3103 2138 3103 
Q 1681 3103 1420 2742 
Q 1159 2381 1159 1747 
Q 1159 1113 1420 752 
Q 1681 391 2138 391 
Q 2594 391 2855 752 
Q 3116 1113 3116 1747 
z
" transform="scale(0.015625)"/>
       </defs>
       <use xlink:href="#DejaVuSans-32"/>
       <use xlink:href="#DejaVuSans-30" x="63.623047"/>
       <use xlink:href="#DejaVuSans-32" x="127.246094"/>
       <use xlink:href="#DejaVuSans-31" x="190.869141"/>
       <use xlink:href="#DejaVuSans-2d" x="254.492188"/>
       <use xlink:href="#DejaVuSans-41" x="288.326172"/>
       <use xlink:href="#DejaVuSans-70" x="356.734375"/>
       <use xlink:href="#DejaVuSans-72" x="420.210938"/>
       <use xlink:href="#DejaVuSans-2d" x="454.949219"/>
       <use xlink:href="#DejaVuSans-30" x="491.033203"/>
       <use xlink:href="#DejaVuSans-31" x="554.65625"/>
      </g>
     </g>
    </g>
    <g id="xtick_3">
     <g id="line2d_3">
      <g>
       <use xlink:href="#m76df4a85fe" x="149.105767" y="182.359219" style="stroke: #000000; stroke-width: 0.8"/>
      </g>
     </g>
     <g id="text_3">
      <!-- 2021-May-01 -->
      <g transform="translate(91.002968 228.884971)rotate(-30)scale(0.1 -0.1)">
       <defs>
        <path id="DejaVuSans-79" d="M 2059 -325 
Q 1816 -950 1584 -1140 
Q 1353 -1331 966 -1331 
L 506 -1331 
L 506 -850 
L 844 -850 
Q 1081 -850 1212 -737 
Q 1344 -625 1503 -206 
L 1606 56 
L 191 3500 
L 800 3500 
L 1894 763 
L 2988 3500 
L 3597 3500 
L 2059 -325 
z
" transform="scale(0.015625)"/>
       </defs>
       <use xlink:href="#DejaVuSans-32"/>
       <use xlink:href="#DejaVuSans-30" x="63.623047"/>
       <use xlink:href="#DejaVuSans-32" x="127.246094"/>
       <use xlink:href="#DejaVuSans-31" x="190.869141"/>
       <use xlink:href="#DejaVuSans-2d" x="254.492188"/>
       <use xlink:href="#DejaVuSans-4d" x="290.576172"/>
       <use xlink:href="#DejaVuSans-61" x="376.855469"/>
       <use xlink:href="#DejaVuSans-79" x="438.134766"/>
       <use xlink:href="#DejaVuSans-2d" x="495.564453"/>
       <use xlink:href="#DejaVuSans-30" x="531.648438"/>
       <use xlink:href="#DejaVuSans-31" x="595.271484"/>
      </g>
     </g>
    </g>
    <g id="xtick_4">
     <g id="line2d_4">
      <g>
       <use xlink:href="#m76df4a85fe" x="190.7626" y="182.359219" style="stroke: #000000; stroke-width: 0.8"/>
      </g>
     </g>
     <g id="text_4">
      <!-- 2021-Jun-01 -->
      <g transform="translate(136.394536 226.728721)rotate(-30)scale(0.1 -0.1)">
       <defs>
        <path id="DejaVuSans-4a" d="M 628 4666 
L 1259 4666 
L 1259 325 
Q 1259 -519 939 -900 
Q 619 -1281 -91 -1281 
L -331 -1281 
L -331 -750 
L -134 -750 
Q 284 -750 456 -515 
Q 628 -281 628 325 
L 628 4666 
z
" transform="scale(0.015625)"/>
        <path id="DejaVuSans-75" d="M 544 1381 
L 544 3500 
L 1119 3500 
L 1119 1403 
Q 1119 906 1312 657 
Q 1506 409 1894 409 
Q 2359 409 2629 706 
Q 2900 1003 2900 1516 
L 2900 3500 
L 3475 3500 
L 3475 0 
L 2900 0 
L 2900 538 
Q 2691 219 2414 64 
Q 2138 -91 1772 -91 
Q 1169 -91 856 284 
Q 544 659 544 1381 
z
M 1991 3584 
L 1991 3584 
z
" transform="scale(0.015625)"/>
        <path id="DejaVuSans-6e" d="M 3513 2113 
L 3513 0 
L 2938 0 
L 2938 2094 
Q 2938 2591 2744 2837 
Q 2550 3084 2163 3084 
Q 1697 3084 1428 2787 
Q 1159 2491 1159 1978 
L 1159 0 
L 581 0 
L 581 3500 
L 1159 3500 
L 1159 2956 
Q 1366 3272 1645 3428 
Q 1925 3584 2291 3584 
Q 2894 3584 3203 3211 
Q 3513 2838 3513 2113 
z
" transform="scale(0.015625)"/>
       </defs>
       <use xlink:href="#DejaVuSans-32"/>
       <use xlink:href="#DejaVuSans-30" x="63.623047"/>
       <use xlink:href="#DejaVuSans-32" x="127.246094"/>
       <use xlink:href="#DejaVuSans-31" x="190.869141"/>
       <use xlink:href="#DejaVuSans-2d" x="254.492188"/>
       <use xlink:href="#DejaVuSans-4a" x="296.201172"/>
       <use xlink:href="#DejaVuSans-75" x="325.693359"/>
       <use xlink:href="#DejaVuSans-6e" x="389.072266"/>
       <use xlink:href="#DejaVuSans-2d" x="452.451172"/>
       <use xlink:href="#DejaVuSans-30" x="488.535156"/>
       <use xlink:href="#DejaVuSans-31" x="552.158203"/>
      </g>
     </g>
    </g>
    <g id="xtick_5">
     <g id="line2d_5">
      <g>
       <use xlink:href="#m76df4a85fe" x="231.075665" y="182.359219" style="stroke: #000000; stroke-width: 0.8"/>
      </g>
     </g>
     <g id="text_5">
      <!-- 2021-Jul-01 -->
      <g transform="translate(179.790109 224.949034)rotate(-30)scale(0.1 -0.1)">
       <defs>
        <path id="DejaVuSans-6c" d="M 603 4863 
L 1178 4863 
L 1178 0 
L 603 0 
L 603 4863 
z
" transform="scale(0.015625)"/>
       </defs>
       <use xlink:href="#DejaVuSans-32"/>
       <use xlink:href="#DejaVuSans-30" x="63.623047"/>
       <use xlink:href="#DejaVuSans-32" x="127.246094"/>
       <use xlink:href="#DejaVuSans-31" x="190.869141"/>
       <use xlink:href="#DejaVuSans-2d" x="254.492188"/>
       <use xlink:href="#DejaVuSans-4a" x="296.201172"/>
       <use xlink:href="#DejaVuSans-75" x="325.693359"/>
       <use xlink:href="#DejaVuSans-6c" x="389.072266"/>
       <use xlink:href="#DejaVuSans-2d" x="416.855469"/>
       <use xlink:href="#DejaVuSans-30" x="452.939453"/>
       <use xlink:href="#DejaVuSans-31" x="516.5625"/>
      </g>
     </g>
    </g>
    <g id="xtick_6">
     <g id="line2d_6">
      <g>
       <use xlink:href="#m76df4a85fe" x="272.732498" y="182.359219" style="stroke: #000000; stroke-width: 0.8"/>
      </g>
     </g>
     <g id="text_6">
      <!-- 2021-Aug-01 -->
      <g transform="translate(215.667576 228.285752)rotate(-30)scale(0.1 -0.1)">
       <defs>
        <path id="DejaVuSans-67" d="M 2906 1791 
Q 2906 2416 2648 2759 
Q 2391 3103 1925 3103 
Q 1463 3103 1205 2759 
Q 947 2416 947 1791 
Q 947 1169 1205 825 
Q 1463 481 1925 481 
Q 2391 481 2648 825 
Q 2906 1169 2906 1791 
z
M 3481 434 
Q 3481 -459 3084 -895 
Q 2688 -1331 1869 -1331 
Q 1566 -1331 1297 -1286 
Q 1028 -1241 775 -1147 
L 775 -588 
Q 1028 -725 1275 -790 
Q 1522 -856 1778 -856 
Q 2344 -856 2625 -561 
Q 2906 -266 2906 331 
L 2906 616 
Q 2728 306 2450 153 
Q 2172 0 1784 0 
Q 1141 0 747 490 
Q 353 981 353 1791 
Q 353 2603 747 3093 
Q 1141 3584 1784 3584 
Q 2172 3584 2450 3431 
Q 2728 3278 2906 2969 
L 2906 3500 
L 3481 3500 
L 3481 434 
z
" transform="scale(0.015625)"/>
       </defs>
       <use xlink:href="#DejaVuSans-32"/>
       <use xlink:href="#DejaVuSans-30" x="63.623047"/>
       <use xlink:href="#DejaVuSans-32" x="127.246094"/>
       <use xlink:href="#DejaVuSans-31" x="190.869141"/>
       <use xlink:href="#DejaVuSans-2d" x="254.492188"/>
       <use xlink:href="#DejaVuSans-41" x="288.326172"/>
       <use xlink:href="#DejaVuSans-75" x="356.734375"/>
       <use xlink:href="#DejaVuSans-67" x="420.113281"/>
       <use xlink:href="#DejaVuSans-2d" x="483.589844"/>
       <use xlink:href="#DejaVuSans-30" x="519.673828"/>
       <use xlink:href="#DejaVuSans-31" x="583.296875"/>
      </g>
     </g>
    </g>
    <g id="xtick_7">
     <g id="line2d_7">
      <g>
       <use xlink:href="#m76df4a85fe" x="314.389331" y="182.359219" style="stroke: #000000; stroke-width: 0.8"/>
      </g>
     </g>
     <g id="text_7">
      <!-- 2021-Sep-01 -->
      <g transform="translate(257.715474 228.059971)rotate(-30)scale(0.1 -0.1)">
       <defs>
        <path id="DejaVuSans-53" d="M 3425 4513 
L 3425 3897 
Q 3066 4069 2747 4153 
Q 2428 4238 2131 4238 
Q 1616 4238 1336 4038 
Q 1056 3838 1056 3469 
Q 1056 3159 1242 3001 
Q 1428 2844 1947 2747 
L 2328 2669 
Q 3034 2534 3370 2195 
Q 3706 1856 3706 1288 
Q 3706 609 3251 259 
Q 2797 -91 1919 -91 
Q 1588 -91 1214 -16 
Q 841 59 441 206 
L 441 856 
Q 825 641 1194 531 
Q 1563 422 1919 422 
Q 2459 422 2753 634 
Q 3047 847 3047 1241 
Q 3047 1584 2836 1778 
Q 2625 1972 2144 2069 
L 1759 2144 
Q 1053 2284 737 2584 
Q 422 2884 422 3419 
Q 422 4038 858 4394 
Q 1294 4750 2059 4750 
Q 2388 4750 2728 4690 
Q 3069 4631 3425 4513 
z
" transform="scale(0.015625)"/>
        <path id="DejaVuSans-65" d="M 3597 1894 
L 3597 1613 
L 953 1613 
Q 991 1019 1311 708 
Q 1631 397 2203 397 
Q 2534 397 2845 478 
Q 3156 559 3463 722 
L 3463 178 
Q 3153 47 2828 -22 
Q 2503 -91 2169 -91 
Q 1331 -91 842 396 
Q 353 884 353 1716 
Q 353 2575 817 3079 
Q 1281 3584 2069 3584 
Q 2775 3584 3186 3129 
Q 3597 2675 3597 1894 
z
M 3022 2063 
Q 3016 2534 2758 2815 
Q 2500 3097 2075 3097 
Q 1594 3097 1305 2825 
Q 1016 2553 972 2059 
L 3022 2063 
z
" transform="scale(0.015625)"/>
       </defs>
       <use xlink:href="#DejaVuSans-32"/>
       <use xlink:href="#DejaVuSans-30" x="63.623047"/>
       <use xlink:href="#DejaVuSans-32" x="127.246094"/>
       <use xlink:href="#DejaVuSans-31" x="190.869141"/>
       <use xlink:href="#DejaVuSans-2d" x="254.492188"/>
       <use xlink:href="#DejaVuSans-53" x="290.576172"/>
       <use xlink:href="#DejaVuSans-65" x="354.052734"/>
       <use xlink:href="#DejaVuSans-70" x="415.576172"/>
       <use xlink:href="#DejaVuSans-2d" x="479.052734"/>
       <use xlink:href="#DejaVuSans-30" x="515.136719"/>
       <use xlink:href="#DejaVuSans-31" x="578.759766"/>
      </g>
     </g>
    </g>
    <g id="xtick_8">
     <g id="line2d_8">
      <g>
       <use xlink:href="#m76df4a85fe" x="354.702396" y="182.359219" style="stroke: #000000; stroke-width: 0.8"/>
      </g>
     </g>
     <g id="text_8">
      <!-- 2021-Oct-01 -->
      <g transform="translate(299.14084 227.417784)rotate(-30)scale(0.1 -0.1)">
       <defs>
        <path id="DejaVuSans-4f" d="M 2522 4238 
Q 1834 4238 1429 3725 
Q 1025 3213 1025 2328 
Q 1025 1447 1429 934 
Q 1834 422 2522 422 
Q 3209 422 3611 934 
Q 4013 1447 4013 2328 
Q 4013 3213 3611 3725 
Q 3209 4238 2522 4238 
z
M 2522 4750 
Q 3503 4750 4090 4092 
Q 4678 3434 4678 2328 
Q 4678 1225 4090 567 
Q 3503 -91 2522 -91 
Q 1538 -91 948 565 
Q 359 1222 359 2328 
Q 359 3434 948 4092 
Q 1538 4750 2522 4750 
z
" transform="scale(0.015625)"/>
        <path id="DejaVuSans-63" d="M 3122 3366 
L 3122 2828 
Q 2878 2963 2633 3030 
Q 2388 3097 2138 3097 
Q 1578 3097 1268 2742 
Q 959 2388 959 1747 
Q 959 1106 1268 751 
Q 1578 397 2138 397 
Q 2388 397 2633 464 
Q 2878 531 3122 666 
L 3122 134 
Q 2881 22 2623 -34 
Q 2366 -91 2075 -91 
Q 1284 -91 818 406 
Q 353 903 353 1747 
Q 353 2603 823 3093 
Q 1294 3584 2113 3584 
Q 2378 3584 2631 3529 
Q 2884 3475 3122 3366 
z
" transform="scale(0.015625)"/>
        <path id="DejaVuSans-74" d="M 1172 4494 
L 1172 3500 
L 2356 3500 
L 2356 3053 
L 1172 3053 
L 1172 1153 
Q 1172 725 1289 603 
Q 1406 481 1766 481 
L 2356 481 
L 2356 0 
L 1766 0 
Q 1100 0 847 248 
Q 594 497 594 1153 
L 594 3053 
L 172 3053 
L 172 3500 
L 594 3500 
L 594 4494 
L 1172 4494 
z
" transform="scale(0.015625)"/>
       </defs>
       <use xlink:href="#DejaVuSans-32"/>
       <use xlink:href="#DejaVuSans-30" x="63.623047"/>
       <use xlink:href="#DejaVuSans-32" x="127.246094"/>
       <use xlink:href="#DejaVuSans-31" x="190.869141"/>
       <use xlink:href="#DejaVuSans-2d" x="254.492188"/>
       <use xlink:href="#DejaVuSans-4f" x="293.326172"/>
       <use xlink:href="#DejaVuSans-63" x="372.037109"/>
       <use xlink:href="#DejaVuSans-74" x="427.017578"/>
       <use xlink:href="#DejaVuSans-2d" x="466.226562"/>
       <use xlink:href="#DejaVuSans-30" x="502.310547"/>
       <use xlink:href="#DejaVuSans-31" x="565.933594"/>
      </g>
     </g>
    </g>
    <g id="xtick_9">
     <g id="line2d_9">
      <g>
       <use xlink:href="#m76df4a85fe" x="396.359229" y="182.359219" style="stroke: #000000; stroke-width: 0.8"/>
      </g>
     </g>
     <g id="text_9">
      <!-- 2021-Nov-01 -->
      <g transform="translate(339.333549 228.263096)rotate(-30)scale(0.1 -0.1)">
       <defs>
        <path id="DejaVuSans-4e" d="M 628 4666 
L 1478 4666 
L 3547 763 
L 3547 4666 
L 4159 4666 
L 4159 0 
L 3309 0 
L 1241 3903 
L 1241 0 
L 628 0 
L 628 4666 
z
" transform="scale(0.015625)"/>
        <path id="DejaVuSans-6f" d="M 1959 3097 
Q 1497 3097 1228 2736 
Q 959 2375 959 1747 
Q 959 1119 1226 758 
Q 1494 397 1959 397 
Q 2419 397 2687 759 
Q 2956 1122 2956 1747 
Q 2956 2369 2687 2733 
Q 2419 3097 1959 3097 
z
M 1959 3584 
Q 2709 3584 3137 3096 
Q 3566 2609 3566 1747 
Q 3566 888 3137 398 
Q 2709 -91 1959 -91 
Q 1206 -91 779 398 
Q 353 888 353 1747 
Q 353 2609 779 3096 
Q 1206 3584 1959 3584 
z
" transform="scale(0.015625)"/>
        <path id="DejaVuSans-76" d="M 191 3500 
L 800 3500 
L 1894 563 
L 2988 3500 
L 3597 3500 
L 2284 0 
L 1503 0 
L 191 3500 
z
" transform="scale(0.015625)"/>
       </defs>
       <use xlink:href="#DejaVuSans-32"/>
       <use xlink:href="#DejaVuSans-30" x="63.623047"/>
       <use xlink:href="#DejaVuSans-32" x="127.246094"/>
       <use xlink:href="#DejaVuSans-31" x="190.869141"/>
       <use xlink:href="#DejaVuSans-2d" x="254.492188"/>
       <use xlink:href="#DejaVuSans-4e" x="290.576172"/>
       <use xlink:href="#DejaVuSans-6f" x="365.380859"/>
       <use xlink:href="#DejaVuSans-76" x="426.5625"/>
       <use xlink:href="#DejaVuSans-2d" x="483.117188"/>
       <use xlink:href="#DejaVuSans-30" x="519.201172"/>
       <use xlink:href="#DejaVuSans-31" x="582.824219"/>
      </g>
     </g>
    </g>
    <g id="xtick_10">
     <g id="line2d_10">
      <g>
       <use xlink:href="#m76df4a85fe" x="436.672293" y="182.359219" style="stroke: #000000; stroke-width: 0.8"/>
      </g>
     </g>
     <g id="text_10">
      <!-- 2021-Dec-01 -->
      <g transform="translate(379.56407 228.310752)rotate(-30)scale(0.1 -0.1)">
       <defs>
        <path id="DejaVuSans-44" d="M 1259 4147 
L 1259 519 
L 2022 519 
Q 2988 519 3436 956 
Q 3884 1394 3884 2338 
Q 3884 3275 3436 3711 
Q 2988 4147 2022 4147 
L 1259 4147 
z
M 628 4666 
L 1925 4666 
Q 3281 4666 3915 4102 
Q 4550 3538 4550 2338 
Q 4550 1131 3912 565 
Q 3275 0 1925 0 
L 628 0 
L 628 4666 
z
" transform="scale(0.015625)"/>
       </defs>
       <use xlink:href="#DejaVuSans-32"/>
       <use xlink:href="#DejaVuSans-30" x="63.623047"/>
       <use xlink:href="#DejaVuSans-32" x="127.246094"/>
       <use xlink:href="#DejaVuSans-31" x="190.869141"/>
       <use xlink:href="#DejaVuSans-2d" x="254.492188"/>
       <use xlink:href="#DejaVuSans-44" x="290.576172"/>
       <use xlink:href="#DejaVuSans-65" x="367.578125"/>
       <use xlink:href="#DejaVuSans-63" x="429.101562"/>
       <use xlink:href="#DejaVuSans-2d" x="484.082031"/>
       <use xlink:href="#DejaVuSans-30" x="520.166016"/>
       <use xlink:href="#DejaVuSans-31" x="583.789062"/>
      </g>
     </g>
    </g>
    <g id="xtick_11">
     <g id="line2d_11">
      <g>
       <use xlink:href="#m76df4a85fe" x="478.329126" y="182.359219" style="stroke: #000000; stroke-width: 0.8"/>
      </g>
     </g>
     <g id="text_11">
      <!-- 2022-Jan-01 -->
      <g transform="translate(424.142386 226.624034)rotate(-30)scale(0.1 -0.1)">
       <use xlink:href="#DejaVuSans-32"/>
       <use xlink:href="#DejaVuSans-30" x="63.623047"/>
       <use xlink:href="#DejaVuSans-32" x="127.246094"/>
       <use xlink:href="#DejaVuSans-32" x="190.869141"/>
       <use xlink:href="#DejaVuSans-2d" x="254.492188"/>
       <use xlink:href="#DejaVuSans-4a" x="296.201172"/>
       <use xlink:href="#DejaVuSans-61" x="325.693359"/>
       <use xlink:href="#DejaVuSans-6e" x="386.972656"/>
       <use xlink:href="#DejaVuSans-2d" x="450.351562"/>
       <use xlink:href="#DejaVuSans-30" x="486.435547"/>
       <use xlink:href="#DejaVuSans-31" x="550.058594"/>
      </g>
     </g>
    </g>
   </g>
   <g id="matplotlib.axis_2">
    <g id="ytick_1">
     <g id="line2d_12">
      <path d="M 49.532498 182.359219 
L 495.932498 182.359219 
" clip-path="url(#pb0fb55da4a)" style="fill: none; stroke: #b0b0b0; stroke-width: 0.8; stroke-linecap: square"/>
     </g>
     <g id="line2d_13">
      <defs>
       <path id="m0a3bf731c3" d="M 0 0 
L -3.5 0 
" style="stroke: #000000; stroke-width: 0.8"/>
      </defs>
      <g>
       <use xlink:href="#m0a3bf731c3" x="49.532498" y="182.359219" style="stroke: #000000; stroke-width: 0.8"/>
      </g>
     </g>
     <g id="text_12">
      <!-- 0 -->
      <g transform="translate(36.169998 186.158437)scale(0.1 -0.1)">
       <use xlink:href="#DejaVuSans-30"/>
      </g>
     </g>
    </g>
    <g id="ytick_2">
     <g id="line2d_14">
      <path d="M 49.532498 153.799219 
L 495.932498 153.799219 
" clip-path="url(#pb0fb55da4a)" style="fill: none; stroke: #b0b0b0; stroke-width: 0.8; stroke-linecap: square"/>
     </g>
     <g id="line2d_15">
      <g>
       <use xlink:href="#m0a3bf731c3" x="49.532498" y="153.799219" style="stroke: #000000; stroke-width: 0.8"/>
      </g>
     </g>
     <g id="text_13">
      <!-- 10 -->
      <g transform="translate(29.807498 157.598437)scale(0.1 -0.1)">
       <use xlink:href="#DejaVuSans-31"/>
       <use xlink:href="#DejaVuSans-30" x="63.623047"/>
      </g>
     </g>
    </g>
    <g id="ytick_3">
     <g id="line2d_16">
      <path d="M 49.532498 125.239219 
L 495.932498 125.239219 
" clip-path="url(#pb0fb55da4a)" style="fill: none; stroke: #b0b0b0; stroke-width: 0.8; stroke-linecap: square"/>
     </g>
     <g id="line2d_17">
      <g>
       <use xlink:href="#m0a3bf731c3" x="49.532498" y="125.239219" style="stroke: #000000; stroke-width: 0.8"/>
      </g>
     </g>
     <g id="text_14">
      <!-- 20 -->
      <g transform="translate(29.807498 129.038437)scale(0.1 -0.1)">
       <use xlink:href="#DejaVuSans-32"/>
       <use xlink:href="#DejaVuSans-30" x="63.623047"/>
      </g>
     </g>
    </g>
    <g id="ytick_4">
     <g id="line2d_18">
      <path d="M 49.532498 96.679219 
L 495.932498 96.679219 
" clip-path="url(#pb0fb55da4a)" style="fill: none; stroke: #b0b0b0; stroke-width: 0.8; stroke-linecap: square"/>
     </g>
     <g id="line2d_19">
      <g>
       <use xlink:href="#m0a3bf731c3" x="49.532498" y="96.679219" style="stroke: #000000; stroke-width: 0.8"/>
      </g>
     </g>
     <g id="text_15">
      <!-- 30 -->
      <g transform="translate(29.807498 100.478437)scale(0.1 -0.1)">
       <defs>
        <path id="DejaVuSans-33" d="M 2597 2516 
Q 3050 2419 3304 2112 
Q 3559 1806 3559 1356 
Q 3559 666 3084 287 
Q 2609 -91 1734 -91 
Q 1441 -91 1130 -33 
Q 819 25 488 141 
L 488 750 
Q 750 597 1062 519 
Q 1375 441 1716 441 
Q 2309 441 2620 675 
Q 2931 909 2931 1356 
Q 2931 1769 2642 2001 
Q 2353 2234 1838 2234 
L 1294 2234 
L 1294 2753 
L 1863 2753 
Q 2328 2753 2575 2939 
Q 2822 3125 2822 3475 
Q 2822 3834 2567 4026 
Q 2313 4219 1838 4219 
Q 1578 4219 1281 4162 
Q 984 4106 628 3988 
L 628 4550 
Q 988 4650 1302 4700 
Q 1616 4750 1894 4750 
Q 2613 4750 3031 4423 
Q 3450 4097 3450 3541 
Q 3450 3153 3228 2886 
Q 3006 2619 2597 2516 
z
" transform="scale(0.015625)"/>
       </defs>
       <use xlink:href="#DejaVuSans-33"/>
       <use xlink:href="#DejaVuSans-30" x="63.623047"/>
      </g>
     </g>
    </g>
    <g id="ytick_5">
     <g id="line2d_20">
      <path d="M 49.532498 68.119219 
L 495.932498 68.119219 
" clip-path="url(#pb0fb55da4a)" style="fill: none; stroke: #b0b0b0; stroke-width: 0.8; stroke-linecap: square"/>
     </g>
     <g id="line2d_21">
      <g>
       <use xlink:href="#m0a3bf731c3" x="49.532498" y="68.119219" style="stroke: #000000; stroke-width: 0.8"/>
      </g>
     </g>
     <g id="text_16">
      <!-- 40 -->
      <g transform="translate(29.807498 71.918437)scale(0.1 -0.1)">
       <defs>
        <path id="DejaVuSans-34" d="M 2419 4116 
L 825 1625 
L 2419 1625 
L 2419 4116 
z
M 2253 4666 
L 3047 4666 
L 3047 1625 
L 3713 1625 
L 3713 1100 
L 3047 1100 
L 3047 0 
L 2419 0 
L 2419 1100 
L 313 1100 
L 313 1709 
L 2253 4666 
z
" transform="scale(0.015625)"/>
       </defs>
       <use xlink:href="#DejaVuSans-34"/>
       <use xlink:href="#DejaVuSans-30" x="63.623047"/>
      </g>
     </g>
    </g>
    <g id="ytick_6">
     <g id="line2d_22">
      <path d="M 49.532498 39.559219 
L 495.932498 39.559219 
" clip-path="url(#pb0fb55da4a)" style="fill: none; stroke: #b0b0b0; stroke-width: 0.8; stroke-linecap: square"/>
     </g>
     <g id="line2d_23">
      <g>
       <use xlink:href="#m0a3bf731c3" x="49.532498" y="39.559219" style="stroke: #000000; stroke-width: 0.8"/>
      </g>
     </g>
     <g id="text_17">
      <!-- 50 -->
      <g transform="translate(29.807498 43.358437)scale(0.1 -0.1)">
       <defs>
        <path id="DejaVuSans-35" d="M 691 4666 
L 3169 4666 
L 3169 4134 
L 1269 4134 
L 1269 2991 
Q 1406 3038 1543 3061 
Q 1681 3084 1819 3084 
Q 2600 3084 3056 2656 
Q 3513 2228 3513 1497 
Q 3513 744 3044 326 
Q 2575 -91 1722 -91 
Q 1428 -91 1123 -41 
Q 819 9 494 109 
L 494 744 
Q 775 591 1075 516 
Q 1375 441 1709 441 
Q 2250 441 2565 725 
Q 2881 1009 2881 1497 
Q 2881 1984 2565 2268 
Q 2250 2553 1709 2553 
Q 1456 2553 1204 2497 
Q 953 2441 691 2322 
L 691 4666 
z
" transform="scale(0.015625)"/>
       </defs>
       <use xlink:href="#DejaVuSans-35"/>
       <use xlink:href="#DejaVuSans-30" x="63.623047"/>
      </g>
     </g>
    </g>
    <g id="ytick_7">
     <g id="line2d_24">
      <path d="M 49.532498 10.999219 
L 495.932498 10.999219 
" clip-path="url(#pb0fb55da4a)" style="fill: none; stroke: #b0b0b0; stroke-width: 0.8; stroke-linecap: square"/>
     </g>
     <g id="line2d_25">
      <g>
       <use xlink:href="#m0a3bf731c3" x="49.532498" y="10.999219" style="stroke: #000000; stroke-width: 0.8"/>
      </g>
     </g>
     <g id="text_18">
      <!-- 60 -->
      <g transform="translate(29.807498 14.798438)scale(0.1 -0.1)">
       <defs>
        <path id="DejaVuSans-36" d="M 2113 2584 
Q 1688 2584 1439 2293 
Q 1191 2003 1191 1497 
Q 1191 994 1439 701 
Q 1688 409 2113 409 
Q 2538 409 2786 701 
Q 3034 994 3034 1497 
Q 3034 2003 2786 2293 
Q 2538 2584 2113 2584 
z
M 3366 4563 
L 3366 3988 
Q 3128 4100 2886 4159 
Q 2644 4219 2406 4219 
Q 1781 4219 1451 3797 
Q 1122 3375 1075 2522 
Q 1259 2794 1537 2939 
Q 1816 3084 2150 3084 
Q 2853 3084 3261 2657 
Q 3669 2231 3669 1497 
Q 3669 778 3244 343 
Q 2819 -91 2113 -91 
Q 1303 -91 875 529 
Q 447 1150 447 2328 
Q 447 3434 972 4092 
Q 1497 4750 2381 4750 
Q 2619 4750 2861 4703 
Q 3103 4656 3366 4563 
z
" transform="scale(0.015625)"/>
       </defs>
       <use xlink:href="#DejaVuSans-36"/>
       <use xlink:href="#DejaVuSans-30" x="63.623047"/>
      </g>
     </g>
    </g>
    <g id="text_19">
     <!-- Percentage Of Domains -->
     <g transform="translate(23.72781 155.682344)rotate(-90)scale(0.1 -0.1)">
      <defs>
       <path id="DejaVuSans-50" d="M 1259 4147 
L 1259 2394 
L 2053 2394 
Q 2494 2394 2734 2622 
Q 2975 2850 2975 3272 
Q 2975 3691 2734 3919 
Q 2494 4147 2053 4147 
L 1259 4147 
z
M 628 4666 
L 2053 4666 
Q 2838 4666 3239 4311 
Q 3641 3956 3641 3272 
Q 3641 2581 3239 2228 
Q 2838 1875 2053 1875 
L 1259 1875 
L 1259 0 
L 628 0 
L 628 4666 
z
" transform="scale(0.015625)"/>
       <path id="DejaVuSans-20" transform="scale(0.015625)"/>
       <path id="DejaVuSans-66" d="M 2375 4863 
L 2375 4384 
L 1825 4384 
Q 1516 4384 1395 4259 
Q 1275 4134 1275 3809 
L 1275 3500 
L 2222 3500 
L 2222 3053 
L 1275 3053 
L 1275 0 
L 697 0 
L 697 3053 
L 147 3053 
L 147 3500 
L 697 3500 
L 697 3744 
Q 697 4328 969 4595 
Q 1241 4863 1831 4863 
L 2375 4863 
z
" transform="scale(0.015625)"/>
       <path id="DejaVuSans-6d" d="M 3328 2828 
Q 3544 3216 3844 3400 
Q 4144 3584 4550 3584 
Q 5097 3584 5394 3201 
Q 5691 2819 5691 2113 
L 5691 0 
L 5113 0 
L 5113 2094 
Q 5113 2597 4934 2840 
Q 4756 3084 4391 3084 
Q 3944 3084 3684 2787 
Q 3425 2491 3425 1978 
L 3425 0 
L 2847 0 
L 2847 2094 
Q 2847 2600 2669 2842 
Q 2491 3084 2119 3084 
Q 1678 3084 1418 2786 
Q 1159 2488 1159 1978 
L 1159 0 
L 581 0 
L 581 3500 
L 1159 3500 
L 1159 2956 
Q 1356 3278 1631 3431 
Q 1906 3584 2284 3584 
Q 2666 3584 2933 3390 
Q 3200 3197 3328 2828 
z
" transform="scale(0.015625)"/>
       <path id="DejaVuSans-69" d="M 603 3500 
L 1178 3500 
L 1178 0 
L 603 0 
L 603 3500 
z
M 603 4863 
L 1178 4863 
L 1178 4134 
L 603 4134 
L 603 4863 
z
" transform="scale(0.015625)"/>
       <path id="DejaVuSans-73" d="M 2834 3397 
L 2834 2853 
Q 2591 2978 2328 3040 
Q 2066 3103 1784 3103 
Q 1356 3103 1142 2972 
Q 928 2841 928 2578 
Q 928 2378 1081 2264 
Q 1234 2150 1697 2047 
L 1894 2003 
Q 2506 1872 2764 1633 
Q 3022 1394 3022 966 
Q 3022 478 2636 193 
Q 2250 -91 1575 -91 
Q 1294 -91 989 -36 
Q 684 19 347 128 
L 347 722 
Q 666 556 975 473 
Q 1284 391 1588 391 
Q 1994 391 2212 530 
Q 2431 669 2431 922 
Q 2431 1156 2273 1281 
Q 2116 1406 1581 1522 
L 1381 1569 
Q 847 1681 609 1914 
Q 372 2147 372 2553 
Q 372 3047 722 3315 
Q 1072 3584 1716 3584 
Q 2034 3584 2315 3537 
Q 2597 3491 2834 3397 
z
" transform="scale(0.015625)"/>
      </defs>
      <use xlink:href="#DejaVuSans-50"/>
      <use xlink:href="#DejaVuSans-65" x="56.677734"/>
      <use xlink:href="#DejaVuSans-72" x="118.201172"/>
      <use xlink:href="#DejaVuSans-63" x="157.064453"/>
      <use xlink:href="#DejaVuSans-65" x="212.044922"/>
      <use xlink:href="#DejaVuSans-6e" x="273.568359"/>
      <use xlink:href="#DejaVuSans-74" x="336.947266"/>
      <use xlink:href="#DejaVuSans-61" x="376.15625"/>
      <use xlink:href="#DejaVuSans-67" x="437.435547"/>
      <use xlink:href="#DejaVuSans-65" x="500.912109"/>
      <use xlink:href="#DejaVuSans-20" x="562.435547"/>
      <use xlink:href="#DejaVuSans-4f" x="594.222656"/>
      <use xlink:href="#DejaVuSans-66" x="672.933594"/>
      <use xlink:href="#DejaVuSans-20" x="708.138672"/>
      <use xlink:href="#DejaVuSans-44" x="739.925781"/>
      <use xlink:href="#DejaVuSans-6f" x="816.927734"/>
      <use xlink:href="#DejaVuSans-6d" x="878.109375"/>
      <use xlink:href="#DejaVuSans-61" x="975.521484"/>
      <use xlink:href="#DejaVuSans-69" x="1036.800781"/>
      <use xlink:href="#DejaVuSans-6e" x="1064.583984"/>
      <use xlink:href="#DejaVuSans-73" x="1127.962891"/>
     </g>
    </g>
   </g>
   <g id="line2d_26">
    <path d="M 69.823407 22.991732 
L 72.510945 23.884556 
L 73.854713 24.114704 
L 75.198482 24.182849 
L 76.542251 24.036782 
L 77.88602 24.156189 
L 81.917326 24.795269 
L 83.261095 24.852433 
L 84.604864 25.914174 
L 85.948633 26.055079 
L 103.417627 27.575588 
L 104.761396 27.422692 
L 111.48024 27.869884 
L 114.167778 27.782489 
L 116.855315 27.979644 
L 118.199084 28.214536 
L 119.542853 28.153486 
L 128.949235 28.949702 
L 134.32431 28.584517 
L 135.668079 28.669463 
L 139.699385 29.144963 
L 141.043154 28.598976 
L 143.730692 28.389355 
L 151.793305 29.374405 
L 154.480842 29.585384 
L 155.824611 32.65974 
L 157.16838 32.859977 
L 162.543455 32.667793 
L 163.887224 32.80952 
L 165.230993 32.781775 
L 166.574762 32.918393 
L 169.262299 32.904639 
L 170.606068 33.528921 
L 171.949837 32.766664 
L 174.637374 33.289481 
L 177.324912 33.100301 
L 178.668681 33.249505 
L 181.356219 33.067065 
L 182.699987 33.24823 
L 184.043756 33.552701 
L 185.387525 33.330581 
L 186.731294 33.455472 
L 190.7626 33.389908 
L 192.106369 33.527719 
L 193.450138 33.850262 
L 198.825213 33.906402 
L 200.168982 33.724743 
L 201.512751 34.228057 
L 205.544057 34.489788 
L 208.231595 34.413776 
L 212.262901 34.631356 
L 213.60667 35.119437 
L 214.950439 34.733791 
L 216.294208 34.828616 
L 217.637976 34.596615 
L 218.981745 34.49344 
L 221.669283 34.828468 
L 228.388127 34.916497 
L 235.106971 35.348107 
L 272.732498 58.651403 
L 274.076267 59.19572 
L 275.420035 59.040787 
L 280.795111 59.125533 
L 284.826417 59.101473 
L 286.170186 59.437738 
L 287.513955 59.365013 
L 290.201492 59.809128 
L 291.545261 59.684778 
L 292.88903 59.784464 
L 295.576568 59.291133 
L 296.920337 59.659512 
L 322.451944 61.062142 
L 325.139482 60.432147 
L 326.48325 61.22984 
L 327.827019 61.348573 
L 330.514557 61.166925 
L 331.858326 61.294806 
L 333.202094 61.639479 
L 334.545863 61.615824 
L 337.233401 62.098085 
L 338.57717 63.59285 
L 341.264707 61.861555 
L 342.608476 61.972108 
L 343.952245 61.878579 
L 345.296014 61.601674 
L 349.32732 61.876589 
L 350.671089 62.294861 
L 352.014858 62.124746 
L 353.358627 62.167246 
L 356.046164 62.642947 
L 357.389933 62.937023 
L 358.733702 62.893755 
L 360.077471 62.970388 
L 361.42124 62.915687 
L 362.765008 63.010061 
L 364.108777 62.970157 
L 365.452546 62.748934 
L 366.796315 62.660463 
L 368.140084 62.833092 
L 369.483852 62.723725 
L 370.827621 62.781205 
L 372.17139 63.631695 
L 373.515159 63.177718 
L 374.858928 63.263675 
L 376.202697 63.541051 
L 377.546465 63.294182 
L 378.890234 63.856686 
L 380.234003 63.937935 
L 381.577772 63.827353 
L 382.921541 63.296587 
L 384.265309 63.690881 
L 386.952847 63.697475 
L 388.296616 63.445061 
L 389.640385 63.799215 
L 390.984153 62.695148 
L 392.327922 63.846645 
L 395.01546 64.007253 
L 396.359229 63.934286 
L 397.702998 64.022897 
L 400.390535 64.399491 
L 401.734304 64.520148 
L 403.078073 64.21978 
L 404.421842 64.159601 
L 405.76561 64.391392 
L 407.109379 63.963332 
L 408.453148 62.965494 
L 412.484455 67.465467 
L 413.828223 64.347884 
L 415.171992 63.760968 
L 416.515761 64.864283 
L 417.85953 64.1291 
L 419.203299 64.151738 
L 420.547067 63.294051 
L 421.890836 63.830019 
L 423.234605 62.929479 
L 424.578374 62.831302 
L 425.922143 62.910936 
L 427.265911 64.246204 
L 428.60968 64.098598 
L 429.953449 63.467528 
L 431.297218 63.343796 
L 432.640987 64.586647 
L 433.984756 64.277862 
L 435.328524 64.580205 
L 436.672293 64.098255 
L 438.016062 64.290891 
L 439.359831 64.225849 
L 440.7036 63.930625 
L 442.047368 63.891322 
L 443.391137 64.10286 
L 447.422444 64.302109 
L 448.766212 64.318342 
L 450.109981 63.91182 
L 451.45375 66.091927 
L 452.797519 63.935799 
L 454.141288 64.159019 
L 455.485057 64.123127 
L 456.828825 64.274041 
L 458.172594 64.288332 
L 462.203901 64.489047 
L 463.547669 64.028713 
L 464.891438 64.966755 
L 466.235207 64.856079 
L 467.578976 64.456389 
L 468.922745 64.335262 
L 474.29782 64.352881 
L 475.641589 64.265057 
L 475.641589 64.265057 
" clip-path="url(#pb0fb55da4a)" style="fill: none; stroke: #1f77b4; stroke-width: 1.5; stroke-linecap: square"/>
   </g>
   <g id="line2d_27">
    <path d="M 69.823407 173.264843 
L 72.510945 173.283846 
L 77.88602 173.158321 
L 83.261095 173.175346 
L 85.948633 173.109759 
L 106.105165 173.196931 
L 107.448934 172.955385 
L 114.167778 172.86548 
L 124.917928 173.166155 
L 126.261697 173.098404 
L 128.949235 173.205952 
L 132.980541 173.303993 
L 134.32431 173.30912 
L 135.668079 173.432102 
L 141.043154 173.566397 
L 146.418229 173.688478 
L 151.793305 173.340473 
L 153.137073 171.603417 
L 154.480842 173.569231 
L 155.824611 173.41049 
L 163.887224 173.445083 
L 165.230993 173.819934 
L 170.606068 173.761865 
L 171.949837 173.445883 
L 173.293606 173.809552 
L 174.637374 173.859511 
L 175.981143 173.768812 
L 177.324912 173.524549 
L 178.668681 173.908712 
L 180.01245 173.90165 
L 181.356219 173.511573 
L 184.043756 173.569582 
L 190.7626 173.686102 
L 198.825213 173.65851 
L 216.294208 173.77199 
L 218.981745 173.753696 
L 221.669283 174.002869 
L 228.388127 174.093729 
L 235.106971 174.15144 
L 272.732498 181.380612 
L 286.170186 181.375694 
L 337.233401 181.353975 
L 338.57717 181.112491 
L 339.920939 181.344177 
L 353.358627 181.412316 
L 361.42124 181.367406 
L 408.453148 181.34731 
L 412.484455 181.193177 
L 413.828223 181.37971 
L 415.171992 181.408694 
L 416.515761 181.264041 
L 419.203299 181.374978 
L 424.578374 181.407805 
L 431.297218 181.388611 
L 440.7036 181.40217 
L 470.266514 181.40383 
L 475.641589 181.399134 
L 475.641589 181.399134 
" clip-path="url(#pb0fb55da4a)" style="fill: none; stroke: #ff7f0e; stroke-width: 1.5; stroke-linecap: square"/>
   </g>
   <g id="line2d_28">
    <path d="M 0 0 
" clip-path="url(#pb0fb55da4a)" style="fill: none; stroke: #2ca02c; stroke-width: 1.5; stroke-linecap: square"/>
   </g>
   <g id="line2d_29">
    <path d="M 69.823407 170.72738 
L 76.542251 170.609957 
L 77.88602 170.640005 
L 81.917326 170.538184 
L 83.261095 170.731532 
L 85.948633 170.470357 
L 111.48024 170.260971 
L 116.855315 170.352174 
L 119.542853 170.314909 
L 127.605466 170.272151 
L 131.636772 170.101314 
L 135.668079 170.114593 
L 141.043154 170.103745 
L 143.730692 170.251724 
L 146.418229 170.152991 
L 154.480842 170.133399 
L 155.824611 169.870087 
L 159.855917 169.821238 
L 162.543455 169.863452 
L 163.887224 169.802078 
L 165.230993 170.059958 
L 167.91853 170.013033 
L 170.606068 170.008685 
L 171.949837 169.787614 
L 173.293606 169.988785 
L 174.637374 169.979533 
L 177.324912 169.652095 
L 178.668681 169.886981 
L 180.01245 169.960089 
L 181.356219 169.699782 
L 182.699987 169.675624 
L 184.043756 169.878124 
L 188.075063 169.738564 
L 192.106369 169.716956 
L 196.137675 169.67477 
L 204.200288 169.543839 
L 206.887826 169.512448 
L 210.919132 169.532722 
L 212.262901 169.499528 
L 213.60667 169.281478 
L 235.106971 169.074784 
L 274.076267 167.894206 
L 275.420035 168.093504 
L 282.13888 167.959647 
L 291.545261 167.921885 
L 292.88903 168.010959 
L 294.232799 167.909193 
L 295.576568 168.228747 
L 296.920337 167.855377 
L 329.170788 167.574064 
L 331.858326 167.655903 
L 335.889632 167.541076 
L 337.233401 167.561516 
L 338.57717 167.386381 
L 341.264707 167.531797 
L 345.296014 167.733936 
L 349.32732 167.458188 
L 353.358627 167.453946 
L 364.108777 167.244534 
L 365.452546 167.318906 
L 368.140084 167.308795 
L 370.827621 167.333677 
L 373.515159 167.198217 
L 389.640385 167.177969 
L 390.984153 166.971668 
L 393.671691 167.164629 
L 404.421842 167.060135 
L 405.76561 167.161712 
L 407.109379 167.150581 
L 408.453148 166.976489 
L 412.484455 166.769521 
L 413.828223 167.060595 
L 416.515761 167.164912 
L 417.85953 167.081402 
L 419.203299 167.116168 
L 420.547067 166.903685 
L 421.890836 167.501633 
L 423.234605 167.125447 
L 425.922143 167.199173 
L 427.265911 167.615281 
L 428.60968 167.553622 
L 429.953449 166.934503 
L 431.297218 167.000707 
L 432.640987 167.189655 
L 436.672293 167.130998 
L 438.016062 167.055807 
L 439.359831 167.120119 
L 440.7036 167.381543 
L 442.047368 167.353683 
L 443.391137 167.148016 
L 447.422444 167.053377 
L 448.766212 167.148231 
L 450.109981 167.030942 
L 462.203901 167.182309 
L 463.547669 167.599006 
L 464.891438 167.156075 
L 467.578976 167.143536 
L 468.922745 167.376896 
L 475.641589 167.465222 
L 475.641589 167.465222 
" clip-path="url(#pb0fb55da4a)" style="fill: none; stroke: #d62728; stroke-width: 1.5; stroke-linecap: square"/>
   </g>
   <g id="line2d_30">
    <path d="M 69.823407 165.242934 
L 76.542251 165.073053 
L 77.88602 165.084121 
L 81.917326 164.96798 
L 83.261095 165.16401 
L 85.948633 164.887266 
L 111.48024 164.597631 
L 116.855315 164.659298 
L 119.542853 164.592087 
L 130.293004 164.390897 
L 132.980541 164.425961 
L 134.32431 164.470532 
L 135.668079 164.394226 
L 139.699385 164.306361 
L 143.730692 164.536286 
L 146.418229 164.394471 
L 154.480842 164.364959 
L 155.824611 163.927913 
L 159.855917 163.855373 
L 162.543455 163.917879 
L 163.887224 163.842179 
L 165.230993 164.08973 
L 167.91853 164.006584 
L 175.981143 163.790328 
L 177.324912 163.634875 
L 178.668681 163.844207 
L 180.01245 163.927845 
L 181.356219 163.709619 
L 182.699987 163.673271 
L 184.043756 163.961841 
L 185.387525 163.791777 
L 192.106369 163.684006 
L 196.137675 163.581661 
L 201.512751 163.536793 
L 208.231595 163.442858 
L 212.262901 163.390092 
L 213.60667 163.185159 
L 217.637976 163.189304 
L 218.981745 163.236116 
L 221.669283 163.118505 
L 235.106971 163.078611 
L 274.076267 161.443013 
L 275.420035 161.659897 
L 278.107573 161.443764 
L 282.13888 161.505267 
L 283.482648 161.472025 
L 284.826417 161.56804 
L 290.201492 161.271495 
L 292.88903 161.399091 
L 294.232799 161.374645 
L 295.576568 161.630798 
L 296.920337 161.262835 
L 330.514557 160.940694 
L 335.889632 160.965088 
L 337.233401 160.92641 
L 338.57717 160.626838 
L 341.264707 160.943716 
L 354.702396 160.752964 
L 356.046164 160.602733 
L 372.17139 160.509903 
L 374.858928 160.37209 
L 377.546465 160.416458 
L 389.640385 160.35867 
L 390.984153 160.094895 
L 393.671691 160.284905 
L 396.359229 160.263977 
L 397.702998 160.318531 
L 400.390535 160.184649 
L 405.76561 160.191306 
L 407.109379 160.211764 
L 408.453148 159.991082 
L 412.484455 159.699741 
L 413.828223 160.149913 
L 416.515761 160.263194 
L 419.203299 160.187211 
L 420.547067 159.887566 
L 421.890836 160.544084 
L 423.234605 160.113166 
L 425.922143 160.195251 
L 427.265911 160.617783 
L 428.60968 160.569263 
L 429.953449 159.948781 
L 431.297218 159.94352 
L 432.640987 160.196403 
L 433.984756 160.256948 
L 438.016062 160.107893 
L 439.359831 160.125638 
L 440.7036 160.342587 
L 442.047368 160.333066 
L 443.391137 160.116531 
L 447.422444 160.019949 
L 448.766212 160.063973 
L 451.45375 159.974576 
L 454.141288 160.090218 
L 458.172594 160.012583 
L 462.203901 160.166237 
L 463.547669 160.602711 
L 464.891438 160.160103 
L 467.578976 160.076787 
L 468.922745 160.307401 
L 475.641589 160.415874 
L 475.641589 160.415874 
" clip-path="url(#pb0fb55da4a)" style="fill: none; stroke: #9467bd; stroke-width: 1.5; stroke-linecap: square"/>
   </g>
   <g id="line2d_31">
    <path d="M 69.823407 161.254278 
L 75.198482 160.987641 
L 77.88602 161.04755 
L 81.917326 160.894802 
L 83.261095 161.120609 
L 85.948633 160.761623 
L 103.417627 160.4238 
L 106.105165 160.498135 
L 141.043154 160.066499 
L 142.386923 160.205593 
L 143.730692 160.229854 
L 146.418229 160.075317 
L 154.480842 160.009125 
L 155.824611 159.479065 
L 158.512149 159.354547 
L 163.887224 159.347812 
L 165.230993 159.639413 
L 167.91853 159.570985 
L 170.606068 159.567664 
L 171.949837 159.344589 
L 173.293606 159.510565 
L 175.981143 159.307557 
L 177.324912 159.130649 
L 178.668681 159.359828 
L 180.01245 159.464522 
L 181.356219 159.220895 
L 182.699987 159.15882 
L 184.043756 159.434122 
L 185.387525 159.281159 
L 201.512751 159.027509 
L 206.887826 158.893146 
L 210.919132 158.912164 
L 212.262901 158.863914 
L 213.60667 158.651229 
L 217.637976 158.654314 
L 218.981745 158.70315 
L 225.700589 158.451812 
L 228.388127 158.504301 
L 235.106971 158.370917 
L 274.076267 156.252163 
L 275.420035 156.461119 
L 279.451342 156.264013 
L 286.170186 156.328797 
L 287.513955 156.285689 
L 288.857724 156.120878 
L 291.545261 156.212197 
L 294.232799 156.208178 
L 295.576568 156.540762 
L 296.920337 156.107621 
L 322.451944 155.820961 
L 326.48325 155.720311 
L 331.858326 155.826855 
L 334.545863 155.761433 
L 337.233401 155.698977 
L 338.57717 155.385739 
L 339.920939 155.622182 
L 342.608476 155.703886 
L 343.952245 155.66874 
L 345.296014 155.758837 
L 358.733702 155.307913 
L 360.077471 155.331119 
L 362.765008 155.127994 
L 366.796315 155.212855 
L 372.17139 155.180097 
L 373.515159 155.017235 
L 389.640385 154.971362 
L 390.984153 154.668197 
L 393.671691 154.906922 
L 396.359229 154.859734 
L 397.702998 154.961365 
L 400.390535 154.781675 
L 403.078073 154.806343 
L 407.109379 154.849913 
L 408.453148 154.550384 
L 412.484455 154.206268 
L 413.828223 154.721818 
L 416.515761 154.83789 
L 419.203299 154.739525 
L 420.547067 154.406923 
L 421.890836 155.164169 
L 423.234605 154.678241 
L 425.922143 154.752523 
L 427.265911 155.226799 
L 428.60968 155.160446 
L 429.953449 154.437917 
L 431.297218 154.470043 
L 432.640987 154.812322 
L 439.359831 154.721722 
L 440.7036 154.884666 
L 442.047368 154.885571 
L 443.391137 154.639975 
L 446.078675 154.550395 
L 447.422444 154.500524 
L 448.766212 154.565786 
L 451.45375 154.436894 
L 454.141288 154.555741 
L 458.172594 154.472014 
L 462.203901 154.637953 
L 463.547669 155.05723 
L 464.891438 154.604216 
L 467.578976 154.539336 
L 468.922745 154.748897 
L 475.641589 154.85245 
L 475.641589 154.85245 
" clip-path="url(#pb0fb55da4a)" style="fill: none; stroke: #8c564b; stroke-width: 1.5; stroke-linecap: square"/>
   </g>
   <g id="patch_3">
    <path d="M 49.532498 182.359219 
L 49.532498 10.999219 
" style="fill: none; stroke: #000000; stroke-width: 0.8; stroke-linejoin: miter; stroke-linecap: square"/>
   </g>
   <g id="patch_4">
    <path d="M 495.932498 182.359219 
L 495.932498 10.999219 
" style="fill: none; stroke: #000000; stroke-width: 0.8; stroke-linejoin: miter; stroke-linecap: square"/>
   </g>
   <g id="patch_5">
    <path d="M 49.532498 182.359219 
L 495.932498 182.359219 
" style="fill: none; stroke: #000000; stroke-width: 0.8; stroke-linejoin: miter; stroke-linecap: square"/>
   </g>
   <g id="patch_6">
    <path d="M 49.532498 10.999219 
L 495.932498 10.999219 
" style="fill: none; stroke: #000000; stroke-width: 0.8; stroke-linejoin: miter; stroke-linecap: square"/>
   </g>
   <g id="legend_1">
    <g id="patch_7">
     <path d="M 55.132498 133.106719 
L 192.528748 133.106719 
Q 194.128748 133.106719 194.128748 131.506719 
L 194.128748 61.851719 
Q 194.128748 60.251719 192.528748 60.251719 
L 55.132498 60.251719 
Q 53.532498 60.251719 53.532498 61.851719 
L 53.532498 131.506719 
Q 53.532498 133.106719 55.132498 133.106719 
z
" style="fill: #ffffff; opacity: 0.8; stroke: #cccccc; stroke-linejoin: miter"/>
    </g>
    <g id="line2d_32">
     <path d="M 56.732498 66.730469 
L 64.732498 66.730469 
L 72.732498 66.730469 
" style="fill: none; stroke: #1f77b4; stroke-width: 1.5; stroke-linecap: square"/>
    </g>
    <g id="text_20">
     <!-- No Base Redirect -->
     <g transform="translate(79.132498 69.530469)scale(0.08 -0.08)">
      <defs>
       <path id="DejaVuSans-42" d="M 1259 2228 
L 1259 519 
L 2272 519 
Q 2781 519 3026 730 
Q 3272 941 3272 1375 
Q 3272 1813 3026 2020 
Q 2781 2228 2272 2228 
L 1259 2228 
z
M 1259 4147 
L 1259 2741 
L 2194 2741 
Q 2656 2741 2882 2914 
Q 3109 3088 3109 3444 
Q 3109 3797 2882 3972 
Q 2656 4147 2194 4147 
L 1259 4147 
z
M 628 4666 
L 2241 4666 
Q 2963 4666 3353 4366 
Q 3744 4066 3744 3513 
Q 3744 3084 3544 2831 
Q 3344 2578 2956 2516 
Q 3422 2416 3680 2098 
Q 3938 1781 3938 1306 
Q 3938 681 3513 340 
Q 3088 0 2303 0 
L 628 0 
L 628 4666 
z
" transform="scale(0.015625)"/>
       <path id="DejaVuSans-52" d="M 2841 2188 
Q 3044 2119 3236 1894 
Q 3428 1669 3622 1275 
L 4263 0 
L 3584 0 
L 2988 1197 
Q 2756 1666 2539 1819 
Q 2322 1972 1947 1972 
L 1259 1972 
L 1259 0 
L 628 0 
L 628 4666 
L 2053 4666 
Q 2853 4666 3247 4331 
Q 3641 3997 3641 3322 
Q 3641 2881 3436 2590 
Q 3231 2300 2841 2188 
z
M 1259 4147 
L 1259 2491 
L 2053 2491 
Q 2509 2491 2742 2702 
Q 2975 2913 2975 3322 
Q 2975 3731 2742 3939 
Q 2509 4147 2053 4147 
L 1259 4147 
z
" transform="scale(0.015625)"/>
       <path id="DejaVuSans-64" d="M 2906 2969 
L 2906 4863 
L 3481 4863 
L 3481 0 
L 2906 0 
L 2906 525 
Q 2725 213 2448 61 
Q 2172 -91 1784 -91 
Q 1150 -91 751 415 
Q 353 922 353 1747 
Q 353 2572 751 3078 
Q 1150 3584 1784 3584 
Q 2172 3584 2448 3432 
Q 2725 3281 2906 2969 
z
M 947 1747 
Q 947 1113 1208 752 
Q 1469 391 1925 391 
Q 2381 391 2643 752 
Q 2906 1113 2906 1747 
Q 2906 2381 2643 2742 
Q 2381 3103 1925 3103 
Q 1469 3103 1208 2742 
Q 947 2381 947 1747 
z
" transform="scale(0.015625)"/>
      </defs>
      <use xlink:href="#DejaVuSans-4e"/>
      <use xlink:href="#DejaVuSans-6f" x="74.804688"/>
      <use xlink:href="#DejaVuSans-20" x="135.986328"/>
      <use xlink:href="#DejaVuSans-42" x="167.773438"/>
      <use xlink:href="#DejaVuSans-61" x="236.376953"/>
      <use xlink:href="#DejaVuSans-73" x="297.65625"/>
      <use xlink:href="#DejaVuSans-65" x="349.755859"/>
      <use xlink:href="#DejaVuSans-20" x="411.279297"/>
      <use xlink:href="#DejaVuSans-52" x="443.066406"/>
      <use xlink:href="#DejaVuSans-65" x="508.048828"/>
      <use xlink:href="#DejaVuSans-64" x="569.572266"/>
      <use xlink:href="#DejaVuSans-69" x="633.048828"/>
      <use xlink:href="#DejaVuSans-72" x="660.832031"/>
      <use xlink:href="#DejaVuSans-65" x="699.695312"/>
      <use xlink:href="#DejaVuSans-63" x="761.21875"/>
      <use xlink:href="#DejaVuSans-74" x="816.199219"/>
     </g>
    </g>
    <g id="line2d_33">
     <path d="M 56.732498 78.472969 
L 64.732498 78.472969 
L 72.732498 78.472969 
" style="fill: none; stroke: #ff7f0e; stroke-width: 1.5; stroke-linecap: square"/>
    </g>
    <g id="text_21">
     <!-- Subdomain not HTTPS -->
     <g transform="translate(79.132498 81.272969)scale(0.08 -0.08)">
      <defs>
       <path id="DejaVuSans-62" d="M 3116 1747 
Q 3116 2381 2855 2742 
Q 2594 3103 2138 3103 
Q 1681 3103 1420 2742 
Q 1159 2381 1159 1747 
Q 1159 1113 1420 752 
Q 1681 391 2138 391 
Q 2594 391 2855 752 
Q 3116 1113 3116 1747 
z
M 1159 2969 
Q 1341 3281 1617 3432 
Q 1894 3584 2278 3584 
Q 2916 3584 3314 3078 
Q 3713 2572 3713 1747 
Q 3713 922 3314 415 
Q 2916 -91 2278 -91 
Q 1894 -91 1617 61 
Q 1341 213 1159 525 
L 1159 0 
L 581 0 
L 581 4863 
L 1159 4863 
L 1159 2969 
z
" transform="scale(0.015625)"/>
       <path id="DejaVuSans-48" d="M 628 4666 
L 1259 4666 
L 1259 2753 
L 3553 2753 
L 3553 4666 
L 4184 4666 
L 4184 0 
L 3553 0 
L 3553 2222 
L 1259 2222 
L 1259 0 
L 628 0 
L 628 4666 
z
" transform="scale(0.015625)"/>
       <path id="DejaVuSans-54" d="M -19 4666 
L 3928 4666 
L 3928 4134 
L 2272 4134 
L 2272 0 
L 1638 0 
L 1638 4134 
L -19 4134 
L -19 4666 
z
" transform="scale(0.015625)"/>
      </defs>
      <use xlink:href="#DejaVuSans-53"/>
      <use xlink:href="#DejaVuSans-75" x="63.476562"/>
      <use xlink:href="#DejaVuSans-62" x="126.855469"/>
      <use xlink:href="#DejaVuSans-64" x="190.332031"/>
      <use xlink:href="#DejaVuSans-6f" x="253.808594"/>
      <use xlink:href="#DejaVuSans-6d" x="314.990234"/>
      <use xlink:href="#DejaVuSans-61" x="412.402344"/>
      <use xlink:href="#DejaVuSans-69" x="473.681641"/>
      <use xlink:href="#DejaVuSans-6e" x="501.464844"/>
      <use xlink:href="#DejaVuSans-20" x="564.84375"/>
      <use xlink:href="#DejaVuSans-6e" x="596.630859"/>
      <use xlink:href="#DejaVuSans-6f" x="660.009766"/>
      <use xlink:href="#DejaVuSans-74" x="721.191406"/>
      <use xlink:href="#DejaVuSans-20" x="760.400391"/>
      <use xlink:href="#DejaVuSans-48" x="792.1875"/>
      <use xlink:href="#DejaVuSans-54" x="867.382812"/>
      <use xlink:href="#DejaVuSans-54" x="926.716797"/>
      <use xlink:href="#DejaVuSans-50" x="987.800781"/>
      <use xlink:href="#DejaVuSans-53" x="1048.103516"/>
     </g>
    </g>
    <g id="line2d_34">
     <path d="M 56.732498 90.215469 
L 64.732498 90.215469 
L 72.732498 90.215469 
" style="fill: none; stroke: #2ca02c; stroke-width: 1.5; stroke-linecap: square"/>
    </g>
    <g id="text_22">
     <!-- No HSTS Header -->
     <g transform="translate(79.132498 93.015469)scale(0.08 -0.08)">
      <use xlink:href="#DejaVuSans-4e"/>
      <use xlink:href="#DejaVuSans-6f" x="74.804688"/>
      <use xlink:href="#DejaVuSans-20" x="135.986328"/>
      <use xlink:href="#DejaVuSans-48" x="167.773438"/>
      <use xlink:href="#DejaVuSans-53" x="242.96875"/>
      <use xlink:href="#DejaVuSans-54" x="306.445312"/>
      <use xlink:href="#DejaVuSans-53" x="367.529297"/>
      <use xlink:href="#DejaVuSans-20" x="431.005859"/>
      <use xlink:href="#DejaVuSans-48" x="462.792969"/>
      <use xlink:href="#DejaVuSans-65" x="537.988281"/>
      <use xlink:href="#DejaVuSans-61" x="599.511719"/>
      <use xlink:href="#DejaVuSans-64" x="660.791016"/>
      <use xlink:href="#DejaVuSans-65" x="724.267578"/>
      <use xlink:href="#DejaVuSans-72" x="785.791016"/>
     </g>
    </g>
    <g id="line2d_35">
     <path d="M 56.732498 101.957969 
L 64.732498 101.957969 
L 72.732498 101.957969 
" style="fill: none; stroke: #d62728; stroke-width: 1.5; stroke-linecap: square"/>
    </g>
    <g id="text_23">
     <!-- Max Age too short -->
     <g transform="translate(79.132498 104.757969)scale(0.08 -0.08)">
      <defs>
       <path id="DejaVuSans-78" d="M 3513 3500 
L 2247 1797 
L 3578 0 
L 2900 0 
L 1881 1375 
L 863 0 
L 184 0 
L 1544 1831 
L 300 3500 
L 978 3500 
L 1906 2253 
L 2834 3500 
L 3513 3500 
z
" transform="scale(0.015625)"/>
       <path id="DejaVuSans-68" d="M 3513 2113 
L 3513 0 
L 2938 0 
L 2938 2094 
Q 2938 2591 2744 2837 
Q 2550 3084 2163 3084 
Q 1697 3084 1428 2787 
Q 1159 2491 1159 1978 
L 1159 0 
L 581 0 
L 581 4863 
L 1159 4863 
L 1159 2956 
Q 1366 3272 1645 3428 
Q 1925 3584 2291 3584 
Q 2894 3584 3203 3211 
Q 3513 2838 3513 2113 
z
" transform="scale(0.015625)"/>
      </defs>
      <use xlink:href="#DejaVuSans-4d"/>
      <use xlink:href="#DejaVuSans-61" x="86.279297"/>
      <use xlink:href="#DejaVuSans-78" x="147.558594"/>
      <use xlink:href="#DejaVuSans-20" x="206.738281"/>
      <use xlink:href="#DejaVuSans-41" x="238.525391"/>
      <use xlink:href="#DejaVuSans-67" x="306.933594"/>
      <use xlink:href="#DejaVuSans-65" x="370.410156"/>
      <use xlink:href="#DejaVuSans-20" x="431.933594"/>
      <use xlink:href="#DejaVuSans-74" x="463.720703"/>
      <use xlink:href="#DejaVuSans-6f" x="502.929688"/>
      <use xlink:href="#DejaVuSans-6f" x="564.111328"/>
      <use xlink:href="#DejaVuSans-20" x="625.292969"/>
      <use xlink:href="#DejaVuSans-73" x="657.080078"/>
      <use xlink:href="#DejaVuSans-68" x="709.179688"/>
      <use xlink:href="#DejaVuSans-6f" x="772.558594"/>
      <use xlink:href="#DejaVuSans-72" x="833.740234"/>
      <use xlink:href="#DejaVuSans-74" x="874.853516"/>
     </g>
    </g>
    <g id="line2d_36">
     <path d="M 56.732498 113.700469 
L 64.732498 113.700469 
L 72.732498 113.700469 
" style="fill: none; stroke: #9467bd; stroke-width: 1.5; stroke-linecap: square"/>
    </g>
    <g id="text_24">
     <!-- Missing includeSubDomains -->
     <g transform="translate(79.132498 116.500469)scale(0.08 -0.08)">
      <use xlink:href="#DejaVuSans-4d"/>
      <use xlink:href="#DejaVuSans-69" x="86.279297"/>
      <use xlink:href="#DejaVuSans-73" x="114.0625"/>
      <use xlink:href="#DejaVuSans-73" x="166.162109"/>
      <use xlink:href="#DejaVuSans-69" x="218.261719"/>
      <use xlink:href="#DejaVuSans-6e" x="246.044922"/>
      <use xlink:href="#DejaVuSans-67" x="309.423828"/>
      <use xlink:href="#DejaVuSans-20" x="372.900391"/>
      <use xlink:href="#DejaVuSans-69" x="404.6875"/>
      <use xlink:href="#DejaVuSans-6e" x="432.470703"/>
      <use xlink:href="#DejaVuSans-63" x="495.849609"/>
      <use xlink:href="#DejaVuSans-6c" x="550.830078"/>
      <use xlink:href="#DejaVuSans-75" x="578.613281"/>
      <use xlink:href="#DejaVuSans-64" x="641.992188"/>
      <use xlink:href="#DejaVuSans-65" x="705.46875"/>
      <use xlink:href="#DejaVuSans-53" x="766.992188"/>
      <use xlink:href="#DejaVuSans-75" x="830.46875"/>
      <use xlink:href="#DejaVuSans-62" x="893.847656"/>
      <use xlink:href="#DejaVuSans-44" x="957.324219"/>
      <use xlink:href="#DejaVuSans-6f" x="1034.326172"/>
      <use xlink:href="#DejaVuSans-6d" x="1095.507812"/>
      <use xlink:href="#DejaVuSans-61" x="1192.919922"/>
      <use xlink:href="#DejaVuSans-69" x="1254.199219"/>
      <use xlink:href="#DejaVuSans-6e" x="1281.982422"/>
      <use xlink:href="#DejaVuSans-73" x="1345.361328"/>
     </g>
    </g>
    <g id="line2d_37">
     <path d="M 56.732498 125.442969 
L 64.732498 125.442969 
L 72.732498 125.442969 
" style="fill: none; stroke: #8c564b; stroke-width: 1.5; stroke-linecap: square"/>
    </g>
    <g id="text_25">
     <!-- Missing preload -->
     <g transform="translate(79.132498 128.242969)scale(0.08 -0.08)">
      <use xlink:href="#DejaVuSans-4d"/>
      <use xlink:href="#DejaVuSans-69" x="86.279297"/>
      <use xlink:href="#DejaVuSans-73" x="114.0625"/>
      <use xlink:href="#DejaVuSans-73" x="166.162109"/>
      <use xlink:href="#DejaVuSans-69" x="218.261719"/>
      <use xlink:href="#DejaVuSans-6e" x="246.044922"/>
      <use xlink:href="#DejaVuSans-67" x="309.423828"/>
      <use xlink:href="#DejaVuSans-20" x="372.900391"/>
      <use xlink:href="#DejaVuSans-70" x="404.6875"/>
      <use xlink:href="#DejaVuSans-72" x="468.164062"/>
      <use xlink:href="#DejaVuSans-65" x="507.027344"/>
      <use xlink:href="#DejaVuSans-6c" x="568.550781"/>
      <use xlink:href="#DejaVuSans-6f" x="596.333984"/>
      <use xlink:href="#DejaVuSans-61" x="657.515625"/>
      <use xlink:href="#DejaVuSans-64" x="718.794922"/>
     </g>
    </g>
   </g>
  </g>
 </g>
 <defs>
  <clipPath id="pb0fb55da4a">
   <rect x="49.532498" y="10.999219" width="446.4" height="171.36"/>
  </clipPath>
 </defs>
</svg>
