<?xml version="1.0" encoding="utf-8" standalone="no"?>
<!DOCTYPE svg PUBLIC "-//W3C//DTD SVG 1.1//EN"
  "http://www.w3.org/Graphics/SVG/1.1/DTD/svg11.dtd">
<svg xmlns:xlink="http://www.w3.org/1999/xlink" width="506.928125pt" height="234.086815pt" viewBox="0 0 506.928125 234.086815" xmlns="http://www.w3.org/2000/svg" version="1.1">
 <metadata>
  <rdf:RDF xmlns:dc="http://purl.org/dc/elements/1.1/" xmlns:cc="http://creativecommons.org/ns#" xmlns:rdf="http://www.w3.org/1999/02/22-rdf-syntax-ns#">
   <cc:Work>
    <dc:type rdf:resource="http://purl.org/dc/dcmitype/StillImage"/>
    <dc:date>2022-02-06T10:07:55.832798</dc:date>
    <dc:format>image/svg+xml</dc:format>
    <dc:creator>
     <cc:Agent>
      <dc:title>Matplotlib v3.5.1, https://matplotlib.org/</dc:title>
     </cc:Agent>
    </dc:creator>
   </cc:Work>
  </rdf:RDF>
 </metadata>
 <defs>
  <style type="text/css">*{stroke-linejoin: round; stroke-linecap: butt}</style>
 </defs>
 <g id="figure_1">
  <g id="patch_1">
   <path d="M 0 234.086815 
L 506.928125 234.086815 
L 506.928125 0 
L 0 0 
z
" style="fill: #ffffff"/>
  </g>
  <g id="axes_1">
   <g id="patch_2">
    <path d="M 53.328125 178.56 
L 499.728125 178.56 
L 499.728125 7.2 
L 53.328125 7.2 
z
" style="fill: #ffffff"/>
   </g>
   <g id="matplotlib.axis_1">
    <g id="xtick_1">
     <g id="line2d_1">
      <defs>
       <path id="mbae759a835" d="M 0 0 
L 0 3.5 
" style="stroke: #000000; stroke-width: 0.8"/>
      </defs>
      <g>
       <use xlink:href="#mbae759a835" x="70.931496" y="178.56" style="stroke: #000000; stroke-width: 0.8"/>
      </g>
     </g>
     <g id="text_1">
      <!-- 2021-Mar-01 -->
      <g transform="translate(14.794846 223.950596)rotate(-30)scale(0.1 -0.1)">
       <defs>
        <path id="DejaVuSans-32" d="M 1228 531 
L 3431 531 
L 3431 0 
L 469 0 
L 469 531 
Q 828 903 1448 1529 
Q 2069 2156 2228 2338 
Q 2531 2678 2651 2914 
Q 2772 3150 2772 3378 
Q 2772 3750 2511 3984 
Q 2250 4219 1831 4219 
Q 1534 4219 1204 4116 
Q 875 4013 500 3803 
L 500 4441 
Q 881 4594 1212 4672 
Q 1544 4750 1819 4750 
Q 2544 4750 2975 4387 
Q 3406 4025 3406 3419 
Q 3406 3131 3298 2873 
Q 3191 2616 2906 2266 
Q 2828 2175 2409 1742 
Q 1991 1309 1228 531 
z
" transform="scale(0.015625)"/>
        <path id="DejaVuSans-30" d="M 2034 4250 
Q 1547 4250 1301 3770 
Q 1056 3291 1056 2328 
Q 1056 1369 1301 889 
Q 1547 409 2034 409 
Q 2525 409 2770 889 
Q 3016 1369 3016 2328 
Q 3016 3291 2770 3770 
Q 2525 4250 2034 4250 
z
M 2034 4750 
Q 2819 4750 3233 4129 
Q 3647 3509 3647 2328 
Q 3647 1150 3233 529 
Q 2819 -91 2034 -91 
Q 1250 -91 836 529 
Q 422 1150 422 2328 
Q 422 3509 836 4129 
Q 1250 4750 2034 4750 
z
" transform="scale(0.015625)"/>
        <path id="DejaVuSans-31" d="M 794 531 
L 1825 531 
L 1825 4091 
L 703 3866 
L 703 4441 
L 1819 4666 
L 2450 4666 
L 2450 531 
L 3481 531 
L 3481 0 
L 794 0 
L 794 531 
z
" transform="scale(0.015625)"/>
        <path id="DejaVuSans-2d" d="M 313 2009 
L 1997 2009 
L 1997 1497 
L 313 1497 
L 313 2009 
z
" transform="scale(0.015625)"/>
        <path id="DejaVuSans-4d" d="M 628 4666 
L 1569 4666 
L 2759 1491 
L 3956 4666 
L 4897 4666 
L 4897 0 
L 4281 0 
L 4281 4097 
L 3078 897 
L 2444 897 
L 1241 4097 
L 1241 0 
L 628 0 
L 628 4666 
z
" transform="scale(0.015625)"/>
        <path id="DejaVuSans-61" d="M 2194 1759 
Q 1497 1759 1228 1600 
Q 959 1441 959 1056 
Q 959 750 1161 570 
Q 1363 391 1709 391 
Q 2188 391 2477 730 
Q 2766 1069 2766 1631 
L 2766 1759 
L 2194 1759 
z
M 3341 1997 
L 3341 0 
L 2766 0 
L 2766 531 
Q 2569 213 2275 61 
Q 1981 -91 1556 -91 
Q 1019 -91 701 211 
Q 384 513 384 1019 
Q 384 1609 779 1909 
Q 1175 2209 1959 2209 
L 2766 2209 
L 2766 2266 
Q 2766 2663 2505 2880 
Q 2244 3097 1772 3097 
Q 1472 3097 1187 3025 
Q 903 2953 641 2809 
L 641 3341 
Q 956 3463 1253 3523 
Q 1550 3584 1831 3584 
Q 2591 3584 2966 3190 
Q 3341 2797 3341 1997 
z
" transform="scale(0.015625)"/>
        <path id="DejaVuSans-72" d="M 2631 2963 
Q 2534 3019 2420 3045 
Q 2306 3072 2169 3072 
Q 1681 3072 1420 2755 
Q 1159 2438 1159 1844 
L 1159 0 
L 581 0 
L 581 3500 
L 1159 3500 
L 1159 2956 
Q 1341 3275 1631 3429 
Q 1922 3584 2338 3584 
Q 2397 3584 2469 3576 
Q 2541 3569 2628 3553 
L 2631 2963 
z
" transform="scale(0.015625)"/>
       </defs>
       <use xlink:href="#DejaVuSans-32"/>
       <use xlink:href="#DejaVuSans-30" x="63.623047"/>
       <use xlink:href="#DejaVuSans-32" x="127.246094"/>
       <use xlink:href="#DejaVuSans-31" x="190.869141"/>
       <use xlink:href="#DejaVuSans-2d" x="254.492188"/>
       <use xlink:href="#DejaVuSans-4d" x="290.576172"/>
       <use xlink:href="#DejaVuSans-61" x="376.855469"/>
       <use xlink:href="#DejaVuSans-72" x="438.134766"/>
       <use xlink:href="#DejaVuSans-2d" x="472.873047"/>
       <use xlink:href="#DejaVuSans-30" x="508.957031"/>
       <use xlink:href="#DejaVuSans-31" x="572.580078"/>
      </g>
     </g>
    </g>
    <g id="xtick_2">
     <g id="line2d_2">
      <g>
       <use xlink:href="#mbae759a835" x="112.58833" y="178.56" style="stroke: #000000; stroke-width: 0.8"/>
      </g>
     </g>
     <g id="text_2">
      <!-- 2021-Apr-01 -->
      <g transform="translate(58.003759 223.054502)rotate(-30)scale(0.1 -0.1)">
       <defs>
        <path id="DejaVuSans-41" d="M 2188 4044 
L 1331 1722 
L 3047 1722 
L 2188 4044 
z
M 1831 4666 
L 2547 4666 
L 4325 0 
L 3669 0 
L 3244 1197 
L 1141 1197 
L 716 0 
L 50 0 
L 1831 4666 
z
" transform="scale(0.015625)"/>
        <path id="DejaVuSans-70" d="M 1159 525 
L 1159 -1331 
L 581 -1331 
L 581 3500 
L 1159 3500 
L 1159 2969 
Q 1341 3281 1617 3432 
Q 1894 3584 2278 3584 
Q 2916 3584 3314 3078 
Q 3713 2572 3713 1747 
Q 3713 922 3314 415 
Q 2916 -91 2278 -91 
Q 1894 -91 1617 61 
Q 1341 213 1159 525 
z
M 3116 1747 
Q 3116 2381 2855 2742 
Q 2594 3103 2138 3103 
Q 1681 3103 1420 2742 
Q 1159 2381 1159 1747 
Q 1159 1113 1420 752 
Q 1681 391 2138 391 
Q 2594 391 2855 752 
Q 3116 1113 3116 1747 
z
" transform="scale(0.015625)"/>
       </defs>
       <use xlink:href="#DejaVuSans-32"/>
       <use xlink:href="#DejaVuSans-30" x="63.623047"/>
       <use xlink:href="#DejaVuSans-32" x="127.246094"/>
       <use xlink:href="#DejaVuSans-31" x="190.869141"/>
       <use xlink:href="#DejaVuSans-2d" x="254.492188"/>
       <use xlink:href="#DejaVuSans-41" x="288.326172"/>
       <use xlink:href="#DejaVuSans-70" x="356.734375"/>
       <use xlink:href="#DejaVuSans-72" x="420.210938"/>
       <use xlink:href="#DejaVuSans-2d" x="454.949219"/>
       <use xlink:href="#DejaVuSans-30" x="491.033203"/>
       <use xlink:href="#DejaVuSans-31" x="554.65625"/>
      </g>
     </g>
    </g>
    <g id="xtick_3">
     <g id="line2d_3">
      <g>
       <use xlink:href="#mbae759a835" x="152.901394" y="178.56" style="stroke: #000000; stroke-width: 0.8"/>
      </g>
     </g>
     <g id="text_3">
      <!-- 2021-May-01 -->
      <g transform="translate(94.798595 225.085752)rotate(-30)scale(0.1 -0.1)">
       <defs>
        <path id="DejaVuSans-79" d="M 2059 -325 
Q 1816 -950 1584 -1140 
Q 1353 -1331 966 -1331 
L 506 -1331 
L 506 -850 
L 844 -850 
Q 1081 -850 1212 -737 
Q 1344 -625 1503 -206 
L 1606 56 
L 191 3500 
L 800 3500 
L 1894 763 
L 2988 3500 
L 3597 3500 
L 2059 -325 
z
" transform="scale(0.015625)"/>
       </defs>
       <use xlink:href="#DejaVuSans-32"/>
       <use xlink:href="#DejaVuSans-30" x="63.623047"/>
       <use xlink:href="#DejaVuSans-32" x="127.246094"/>
       <use xlink:href="#DejaVuSans-31" x="190.869141"/>
       <use xlink:href="#DejaVuSans-2d" x="254.492188"/>
       <use xlink:href="#DejaVuSans-4d" x="290.576172"/>
       <use xlink:href="#DejaVuSans-61" x="376.855469"/>
       <use xlink:href="#DejaVuSans-79" x="438.134766"/>
       <use xlink:href="#DejaVuSans-2d" x="495.564453"/>
       <use xlink:href="#DejaVuSans-30" x="531.648438"/>
       <use xlink:href="#DejaVuSans-31" x="595.271484"/>
      </g>
     </g>
    </g>
    <g id="xtick_4">
     <g id="line2d_4">
      <g>
       <use xlink:href="#mbae759a835" x="194.558227" y="178.56" style="stroke: #000000; stroke-width: 0.8"/>
      </g>
     </g>
     <g id="text_4">
      <!-- 2021-Jun-01 -->
      <g transform="translate(140.190163 222.929502)rotate(-30)scale(0.1 -0.1)">
       <defs>
        <path id="DejaVuSans-4a" d="M 628 4666 
L 1259 4666 
L 1259 325 
Q 1259 -519 939 -900 
Q 619 -1281 -91 -1281 
L -331 -1281 
L -331 -750 
L -134 -750 
Q 284 -750 456 -515 
Q 628 -281 628 325 
L 628 4666 
z
" transform="scale(0.015625)"/>
        <path id="DejaVuSans-75" d="M 544 1381 
L 544 3500 
L 1119 3500 
L 1119 1403 
Q 1119 906 1312 657 
Q 1506 409 1894 409 
Q 2359 409 2629 706 
Q 2900 1003 2900 1516 
L 2900 3500 
L 3475 3500 
L 3475 0 
L 2900 0 
L 2900 538 
Q 2691 219 2414 64 
Q 2138 -91 1772 -91 
Q 1169 -91 856 284 
Q 544 659 544 1381 
z
M 1991 3584 
L 1991 3584 
z
" transform="scale(0.015625)"/>
        <path id="DejaVuSans-6e" d="M 3513 2113 
L 3513 0 
L 2938 0 
L 2938 2094 
Q 2938 2591 2744 2837 
Q 2550 3084 2163 3084 
Q 1697 3084 1428 2787 
Q 1159 2491 1159 1978 
L 1159 0 
L 581 0 
L 581 3500 
L 1159 3500 
L 1159 2956 
Q 1366 3272 1645 3428 
Q 1925 3584 2291 3584 
Q 2894 3584 3203 3211 
Q 3513 2838 3513 2113 
z
" transform="scale(0.015625)"/>
       </defs>
       <use xlink:href="#DejaVuSans-32"/>
       <use xlink:href="#DejaVuSans-30" x="63.623047"/>
       <use xlink:href="#DejaVuSans-32" x="127.246094"/>
       <use xlink:href="#DejaVuSans-31" x="190.869141"/>
       <use xlink:href="#DejaVuSans-2d" x="254.492188"/>
       <use xlink:href="#DejaVuSans-4a" x="296.201172"/>
       <use xlink:href="#DejaVuSans-75" x="325.693359"/>
       <use xlink:href="#DejaVuSans-6e" x="389.072266"/>
       <use xlink:href="#DejaVuSans-2d" x="452.451172"/>
       <use xlink:href="#DejaVuSans-30" x="488.535156"/>
       <use xlink:href="#DejaVuSans-31" x="552.158203"/>
      </g>
     </g>
    </g>
    <g id="xtick_5">
     <g id="line2d_5">
      <g>
       <use xlink:href="#mbae759a835" x="234.871292" y="178.56" style="stroke: #000000; stroke-width: 0.8"/>
      </g>
     </g>
     <g id="text_5">
      <!-- 2021-Jul-01 -->
      <g transform="translate(183.585737 221.149815)rotate(-30)scale(0.1 -0.1)">
       <defs>
        <path id="DejaVuSans-6c" d="M 603 4863 
L 1178 4863 
L 1178 0 
L 603 0 
L 603 4863 
z
" transform="scale(0.015625)"/>
       </defs>
       <use xlink:href="#DejaVuSans-32"/>
       <use xlink:href="#DejaVuSans-30" x="63.623047"/>
       <use xlink:href="#DejaVuSans-32" x="127.246094"/>
       <use xlink:href="#DejaVuSans-31" x="190.869141"/>
       <use xlink:href="#DejaVuSans-2d" x="254.492188"/>
       <use xlink:href="#DejaVuSans-4a" x="296.201172"/>
       <use xlink:href="#DejaVuSans-75" x="325.693359"/>
       <use xlink:href="#DejaVuSans-6c" x="389.072266"/>
       <use xlink:href="#DejaVuSans-2d" x="416.855469"/>
       <use xlink:href="#DejaVuSans-30" x="452.939453"/>
       <use xlink:href="#DejaVuSans-31" x="516.5625"/>
      </g>
     </g>
    </g>
    <g id="xtick_6">
     <g id="line2d_6">
      <g>
       <use xlink:href="#mbae759a835" x="276.528125" y="178.56" style="stroke: #000000; stroke-width: 0.8"/>
      </g>
     </g>
     <g id="text_6">
      <!-- 2021-Aug-01 -->
      <g transform="translate(219.463203 224.486534)rotate(-30)scale(0.1 -0.1)">
       <defs>
        <path id="DejaVuSans-67" d="M 2906 1791 
Q 2906 2416 2648 2759 
Q 2391 3103 1925 3103 
Q 1463 3103 1205 2759 
Q 947 2416 947 1791 
Q 947 1169 1205 825 
Q 1463 481 1925 481 
Q 2391 481 2648 825 
Q 2906 1169 2906 1791 
z
M 3481 434 
Q 3481 -459 3084 -895 
Q 2688 -1331 1869 -1331 
Q 1566 -1331 1297 -1286 
Q 1028 -1241 775 -1147 
L 775 -588 
Q 1028 -725 1275 -790 
Q 1522 -856 1778 -856 
Q 2344 -856 2625 -561 
Q 2906 -266 2906 331 
L 2906 616 
Q 2728 306 2450 153 
Q 2172 0 1784 0 
Q 1141 0 747 490 
Q 353 981 353 1791 
Q 353 2603 747 3093 
Q 1141 3584 1784 3584 
Q 2172 3584 2450 3431 
Q 2728 3278 2906 2969 
L 2906 3500 
L 3481 3500 
L 3481 434 
z
" transform="scale(0.015625)"/>
       </defs>
       <use xlink:href="#DejaVuSans-32"/>
       <use xlink:href="#DejaVuSans-30" x="63.623047"/>
       <use xlink:href="#DejaVuSans-32" x="127.246094"/>
       <use xlink:href="#DejaVuSans-31" x="190.869141"/>
       <use xlink:href="#DejaVuSans-2d" x="254.492188"/>
       <use xlink:href="#DejaVuSans-41" x="288.326172"/>
       <use xlink:href="#DejaVuSans-75" x="356.734375"/>
       <use xlink:href="#DejaVuSans-67" x="420.113281"/>
       <use xlink:href="#DejaVuSans-2d" x="483.589844"/>
       <use xlink:href="#DejaVuSans-30" x="519.673828"/>
       <use xlink:href="#DejaVuSans-31" x="583.296875"/>
      </g>
     </g>
    </g>
    <g id="xtick_7">
     <g id="line2d_7">
      <g>
       <use xlink:href="#mbae759a835" x="318.184958" y="178.56" style="stroke: #000000; stroke-width: 0.8"/>
      </g>
     </g>
     <g id="text_7">
      <!-- 2021-Sep-01 -->
      <g transform="translate(261.511101 224.260752)rotate(-30)scale(0.1 -0.1)">
       <defs>
        <path id="DejaVuSans-53" d="M 3425 4513 
L 3425 3897 
Q 3066 4069 2747 4153 
Q 2428 4238 2131 4238 
Q 1616 4238 1336 4038 
Q 1056 3838 1056 3469 
Q 1056 3159 1242 3001 
Q 1428 2844 1947 2747 
L 2328 2669 
Q 3034 2534 3370 2195 
Q 3706 1856 3706 1288 
Q 3706 609 3251 259 
Q 2797 -91 1919 -91 
Q 1588 -91 1214 -16 
Q 841 59 441 206 
L 441 856 
Q 825 641 1194 531 
Q 1563 422 1919 422 
Q 2459 422 2753 634 
Q 3047 847 3047 1241 
Q 3047 1584 2836 1778 
Q 2625 1972 2144 2069 
L 1759 2144 
Q 1053 2284 737 2584 
Q 422 2884 422 3419 
Q 422 4038 858 4394 
Q 1294 4750 2059 4750 
Q 2388 4750 2728 4690 
Q 3069 4631 3425 4513 
z
" transform="scale(0.015625)"/>
        <path id="DejaVuSans-65" d="M 3597 1894 
L 3597 1613 
L 953 1613 
Q 991 1019 1311 708 
Q 1631 397 2203 397 
Q 2534 397 2845 478 
Q 3156 559 3463 722 
L 3463 178 
Q 3153 47 2828 -22 
Q 2503 -91 2169 -91 
Q 1331 -91 842 396 
Q 353 884 353 1716 
Q 353 2575 817 3079 
Q 1281 3584 2069 3584 
Q 2775 3584 3186 3129 
Q 3597 2675 3597 1894 
z
M 3022 2063 
Q 3016 2534 2758 2815 
Q 2500 3097 2075 3097 
Q 1594 3097 1305 2825 
Q 1016 2553 972 2059 
L 3022 2063 
z
" transform="scale(0.015625)"/>
       </defs>
       <use xlink:href="#DejaVuSans-32"/>
       <use xlink:href="#DejaVuSans-30" x="63.623047"/>
       <use xlink:href="#DejaVuSans-32" x="127.246094"/>
       <use xlink:href="#DejaVuSans-31" x="190.869141"/>
       <use xlink:href="#DejaVuSans-2d" x="254.492188"/>
       <use xlink:href="#DejaVuSans-53" x="290.576172"/>
       <use xlink:href="#DejaVuSans-65" x="354.052734"/>
       <use xlink:href="#DejaVuSans-70" x="415.576172"/>
       <use xlink:href="#DejaVuSans-2d" x="479.052734"/>
       <use xlink:href="#DejaVuSans-30" x="515.136719"/>
       <use xlink:href="#DejaVuSans-31" x="578.759766"/>
      </g>
     </g>
    </g>
    <g id="xtick_8">
     <g id="line2d_8">
      <g>
       <use xlink:href="#mbae759a835" x="358.498023" y="178.56" style="stroke: #000000; stroke-width: 0.8"/>
      </g>
     </g>
     <g id="text_8">
      <!-- 2021-Oct-01 -->
      <g transform="translate(302.936467 223.618565)rotate(-30)scale(0.1 -0.1)">
       <defs>
        <path id="DejaVuSans-4f" d="M 2522 4238 
Q 1834 4238 1429 3725 
Q 1025 3213 1025 2328 
Q 1025 1447 1429 934 
Q 1834 422 2522 422 
Q 3209 422 3611 934 
Q 4013 1447 4013 2328 
Q 4013 3213 3611 3725 
Q 3209 4238 2522 4238 
z
M 2522 4750 
Q 3503 4750 4090 4092 
Q 4678 3434 4678 2328 
Q 4678 1225 4090 567 
Q 3503 -91 2522 -91 
Q 1538 -91 948 565 
Q 359 1222 359 2328 
Q 359 3434 948 4092 
Q 1538 4750 2522 4750 
z
" transform="scale(0.015625)"/>
        <path id="DejaVuSans-63" d="M 3122 3366 
L 3122 2828 
Q 2878 2963 2633 3030 
Q 2388 3097 2138 3097 
Q 1578 3097 1268 2742 
Q 959 2388 959 1747 
Q 959 1106 1268 751 
Q 1578 397 2138 397 
Q 2388 397 2633 464 
Q 2878 531 3122 666 
L 3122 134 
Q 2881 22 2623 -34 
Q 2366 -91 2075 -91 
Q 1284 -91 818 406 
Q 353 903 353 1747 
Q 353 2603 823 3093 
Q 1294 3584 2113 3584 
Q 2378 3584 2631 3529 
Q 2884 3475 3122 3366 
z
" transform="scale(0.015625)"/>
        <path id="DejaVuSans-74" d="M 1172 4494 
L 1172 3500 
L 2356 3500 
L 2356 3053 
L 1172 3053 
L 1172 1153 
Q 1172 725 1289 603 
Q 1406 481 1766 481 
L 2356 481 
L 2356 0 
L 1766 0 
Q 1100 0 847 248 
Q 594 497 594 1153 
L 594 3053 
L 172 3053 
L 172 3500 
L 594 3500 
L 594 4494 
L 1172 4494 
z
" transform="scale(0.015625)"/>
       </defs>
       <use xlink:href="#DejaVuSans-32"/>
       <use xlink:href="#DejaVuSans-30" x="63.623047"/>
       <use xlink:href="#DejaVuSans-32" x="127.246094"/>
       <use xlink:href="#DejaVuSans-31" x="190.869141"/>
       <use xlink:href="#DejaVuSans-2d" x="254.492188"/>
       <use xlink:href="#DejaVuSans-4f" x="293.326172"/>
       <use xlink:href="#DejaVuSans-63" x="372.037109"/>
       <use xlink:href="#DejaVuSans-74" x="427.017578"/>
       <use xlink:href="#DejaVuSans-2d" x="466.226562"/>
       <use xlink:href="#DejaVuSans-30" x="502.310547"/>
       <use xlink:href="#DejaVuSans-31" x="565.933594"/>
      </g>
     </g>
    </g>
    <g id="xtick_9">
     <g id="line2d_9">
      <g>
       <use xlink:href="#mbae759a835" x="400.154856" y="178.56" style="stroke: #000000; stroke-width: 0.8"/>
      </g>
     </g>
     <g id="text_9">
      <!-- 2021-Nov-01 -->
      <g transform="translate(343.129176 224.463877)rotate(-30)scale(0.1 -0.1)">
       <defs>
        <path id="DejaVuSans-4e" d="M 628 4666 
L 1478 4666 
L 3547 763 
L 3547 4666 
L 4159 4666 
L 4159 0 
L 3309 0 
L 1241 3903 
L 1241 0 
L 628 0 
L 628 4666 
z
" transform="scale(0.015625)"/>
        <path id="DejaVuSans-6f" d="M 1959 3097 
Q 1497 3097 1228 2736 
Q 959 2375 959 1747 
Q 959 1119 1226 758 
Q 1494 397 1959 397 
Q 2419 397 2687 759 
Q 2956 1122 2956 1747 
Q 2956 2369 2687 2733 
Q 2419 3097 1959 3097 
z
M 1959 3584 
Q 2709 3584 3137 3096 
Q 3566 2609 3566 1747 
Q 3566 888 3137 398 
Q 2709 -91 1959 -91 
Q 1206 -91 779 398 
Q 353 888 353 1747 
Q 353 2609 779 3096 
Q 1206 3584 1959 3584 
z
" transform="scale(0.015625)"/>
        <path id="DejaVuSans-76" d="M 191 3500 
L 800 3500 
L 1894 563 
L 2988 3500 
L 3597 3500 
L 2284 0 
L 1503 0 
L 191 3500 
z
" transform="scale(0.015625)"/>
       </defs>
       <use xlink:href="#DejaVuSans-32"/>
       <use xlink:href="#DejaVuSans-30" x="63.623047"/>
       <use xlink:href="#DejaVuSans-32" x="127.246094"/>
       <use xlink:href="#DejaVuSans-31" x="190.869141"/>
       <use xlink:href="#DejaVuSans-2d" x="254.492188"/>
       <use xlink:href="#DejaVuSans-4e" x="290.576172"/>
       <use xlink:href="#DejaVuSans-6f" x="365.380859"/>
       <use xlink:href="#DejaVuSans-76" x="426.5625"/>
       <use xlink:href="#DejaVuSans-2d" x="483.117188"/>
       <use xlink:href="#DejaVuSans-30" x="519.201172"/>
       <use xlink:href="#DejaVuSans-31" x="582.824219"/>
      </g>
     </g>
    </g>
    <g id="xtick_10">
     <g id="line2d_10">
      <g>
       <use xlink:href="#mbae759a835" x="440.46792" y="178.56" style="stroke: #000000; stroke-width: 0.8"/>
      </g>
     </g>
     <g id="text_10">
      <!-- 2021-Dec-01 -->
      <g transform="translate(383.359697 224.511534)rotate(-30)scale(0.1 -0.1)">
       <defs>
        <path id="DejaVuSans-44" d="M 1259 4147 
L 1259 519 
L 2022 519 
Q 2988 519 3436 956 
Q 3884 1394 3884 2338 
Q 3884 3275 3436 3711 
Q 2988 4147 2022 4147 
L 1259 4147 
z
M 628 4666 
L 1925 4666 
Q 3281 4666 3915 4102 
Q 4550 3538 4550 2338 
Q 4550 1131 3912 565 
Q 3275 0 1925 0 
L 628 0 
L 628 4666 
z
" transform="scale(0.015625)"/>
       </defs>
       <use xlink:href="#DejaVuSans-32"/>
       <use xlink:href="#DejaVuSans-30" x="63.623047"/>
       <use xlink:href="#DejaVuSans-32" x="127.246094"/>
       <use xlink:href="#DejaVuSans-31" x="190.869141"/>
       <use xlink:href="#DejaVuSans-2d" x="254.492188"/>
       <use xlink:href="#DejaVuSans-44" x="290.576172"/>
       <use xlink:href="#DejaVuSans-65" x="367.578125"/>
       <use xlink:href="#DejaVuSans-63" x="429.101562"/>
       <use xlink:href="#DejaVuSans-2d" x="484.082031"/>
       <use xlink:href="#DejaVuSans-30" x="520.166016"/>
       <use xlink:href="#DejaVuSans-31" x="583.789062"/>
      </g>
     </g>
    </g>
    <g id="xtick_11">
     <g id="line2d_11">
      <g>
       <use xlink:href="#mbae759a835" x="482.124754" y="178.56" style="stroke: #000000; stroke-width: 0.8"/>
      </g>
     </g>
     <g id="text_11">
      <!-- 2022-Jan-01 -->
      <g transform="translate(427.938013 222.824815)rotate(-30)scale(0.1 -0.1)">
       <use xlink:href="#DejaVuSans-32"/>
       <use xlink:href="#DejaVuSans-30" x="63.623047"/>
       <use xlink:href="#DejaVuSans-32" x="127.246094"/>
       <use xlink:href="#DejaVuSans-32" x="190.869141"/>
       <use xlink:href="#DejaVuSans-2d" x="254.492188"/>
       <use xlink:href="#DejaVuSans-4a" x="296.201172"/>
       <use xlink:href="#DejaVuSans-61" x="325.693359"/>
       <use xlink:href="#DejaVuSans-6e" x="386.972656"/>
       <use xlink:href="#DejaVuSans-2d" x="450.351562"/>
       <use xlink:href="#DejaVuSans-30" x="486.435547"/>
       <use xlink:href="#DejaVuSans-31" x="550.058594"/>
      </g>
     </g>
    </g>
   </g>
   <g id="matplotlib.axis_2">
    <g id="ytick_1">
     <g id="line2d_12">
      <path d="M 53.328125 173.04 
L 499.728125 173.04 
" clip-path="url(#p2a06021ebe)" style="fill: none; stroke: #b0b0b0; stroke-width: 0.8; stroke-linecap: square"/>
     </g>
     <g id="line2d_13">
      <defs>
       <path id="m6cb8da98a5" d="M 0 0 
L -3.5 0 
" style="stroke: #000000; stroke-width: 0.8"/>
      </defs>
      <g>
       <use xlink:href="#m6cb8da98a5" x="53.328125" y="173.04" style="stroke: #000000; stroke-width: 0.8"/>
      </g>
     </g>
     <g id="text_12">
      <!-- 2000 -->
      <g transform="translate(20.878125 176.839219)scale(0.1 -0.1)">
       <use xlink:href="#DejaVuSans-32"/>
       <use xlink:href="#DejaVuSans-30" x="63.623047"/>
       <use xlink:href="#DejaVuSans-30" x="127.246094"/>
       <use xlink:href="#DejaVuSans-30" x="190.869141"/>
      </g>
     </g>
    </g>
    <g id="ytick_2">
     <g id="line2d_14">
      <path d="M 53.328125 143.949091 
L 499.728125 143.949091 
" clip-path="url(#p2a06021ebe)" style="fill: none; stroke: #b0b0b0; stroke-width: 0.8; stroke-linecap: square"/>
     </g>
     <g id="line2d_15">
      <g>
       <use xlink:href="#m6cb8da98a5" x="53.328125" y="143.949091" style="stroke: #000000; stroke-width: 0.8"/>
      </g>
     </g>
     <g id="text_13">
      <!-- 3000 -->
      <g transform="translate(20.878125 147.74831)scale(0.1 -0.1)">
       <defs>
        <path id="DejaVuSans-33" d="M 2597 2516 
Q 3050 2419 3304 2112 
Q 3559 1806 3559 1356 
Q 3559 666 3084 287 
Q 2609 -91 1734 -91 
Q 1441 -91 1130 -33 
Q 819 25 488 141 
L 488 750 
Q 750 597 1062 519 
Q 1375 441 1716 441 
Q 2309 441 2620 675 
Q 2931 909 2931 1356 
Q 2931 1769 2642 2001 
Q 2353 2234 1838 2234 
L 1294 2234 
L 1294 2753 
L 1863 2753 
Q 2328 2753 2575 2939 
Q 2822 3125 2822 3475 
Q 2822 3834 2567 4026 
Q 2313 4219 1838 4219 
Q 1578 4219 1281 4162 
Q 984 4106 628 3988 
L 628 4550 
Q 988 4650 1302 4700 
Q 1616 4750 1894 4750 
Q 2613 4750 3031 4423 
Q 3450 4097 3450 3541 
Q 3450 3153 3228 2886 
Q 3006 2619 2597 2516 
z
" transform="scale(0.015625)"/>
       </defs>
       <use xlink:href="#DejaVuSans-33"/>
       <use xlink:href="#DejaVuSans-30" x="63.623047"/>
       <use xlink:href="#DejaVuSans-30" x="127.246094"/>
       <use xlink:href="#DejaVuSans-30" x="190.869141"/>
      </g>
     </g>
    </g>
    <g id="ytick_3">
     <g id="line2d_16">
      <path d="M 53.328125 114.858182 
L 499.728125 114.858182 
" clip-path="url(#p2a06021ebe)" style="fill: none; stroke: #b0b0b0; stroke-width: 0.8; stroke-linecap: square"/>
     </g>
     <g id="line2d_17">
      <g>
       <use xlink:href="#m6cb8da98a5" x="53.328125" y="114.858182" style="stroke: #000000; stroke-width: 0.8"/>
      </g>
     </g>
     <g id="text_14">
      <!-- 4000 -->
      <g transform="translate(20.878125 118.657401)scale(0.1 -0.1)">
       <defs>
        <path id="DejaVuSans-34" d="M 2419 4116 
L 825 1625 
L 2419 1625 
L 2419 4116 
z
M 2253 4666 
L 3047 4666 
L 3047 1625 
L 3713 1625 
L 3713 1100 
L 3047 1100 
L 3047 0 
L 2419 0 
L 2419 1100 
L 313 1100 
L 313 1709 
L 2253 4666 
z
" transform="scale(0.015625)"/>
       </defs>
       <use xlink:href="#DejaVuSans-34"/>
       <use xlink:href="#DejaVuSans-30" x="63.623047"/>
       <use xlink:href="#DejaVuSans-30" x="127.246094"/>
       <use xlink:href="#DejaVuSans-30" x="190.869141"/>
      </g>
     </g>
    </g>
    <g id="ytick_4">
     <g id="line2d_18">
      <path d="M 53.328125 85.767273 
L 499.728125 85.767273 
" clip-path="url(#p2a06021ebe)" style="fill: none; stroke: #b0b0b0; stroke-width: 0.8; stroke-linecap: square"/>
     </g>
     <g id="line2d_19">
      <g>
       <use xlink:href="#m6cb8da98a5" x="53.328125" y="85.767273" style="stroke: #000000; stroke-width: 0.8"/>
      </g>
     </g>
     <g id="text_15">
      <!-- 5000 -->
      <g transform="translate(20.878125 89.566491)scale(0.1 -0.1)">
       <defs>
        <path id="DejaVuSans-35" d="M 691 4666 
L 3169 4666 
L 3169 4134 
L 1269 4134 
L 1269 2991 
Q 1406 3038 1543 3061 
Q 1681 3084 1819 3084 
Q 2600 3084 3056 2656 
Q 3513 2228 3513 1497 
Q 3513 744 3044 326 
Q 2575 -91 1722 -91 
Q 1428 -91 1123 -41 
Q 819 9 494 109 
L 494 744 
Q 775 591 1075 516 
Q 1375 441 1709 441 
Q 2250 441 2565 725 
Q 2881 1009 2881 1497 
Q 2881 1984 2565 2268 
Q 2250 2553 1709 2553 
Q 1456 2553 1204 2497 
Q 953 2441 691 2322 
L 691 4666 
z
" transform="scale(0.015625)"/>
       </defs>
       <use xlink:href="#DejaVuSans-35"/>
       <use xlink:href="#DejaVuSans-30" x="63.623047"/>
       <use xlink:href="#DejaVuSans-30" x="127.246094"/>
       <use xlink:href="#DejaVuSans-30" x="190.869141"/>
      </g>
     </g>
    </g>
    <g id="ytick_5">
     <g id="line2d_20">
      <path d="M 53.328125 56.676364 
L 499.728125 56.676364 
" clip-path="url(#p2a06021ebe)" style="fill: none; stroke: #b0b0b0; stroke-width: 0.8; stroke-linecap: square"/>
     </g>
     <g id="line2d_21">
      <g>
       <use xlink:href="#m6cb8da98a5" x="53.328125" y="56.676364" style="stroke: #000000; stroke-width: 0.8"/>
      </g>
     </g>
     <g id="text_16">
      <!-- 6000 -->
      <g transform="translate(20.878125 60.475582)scale(0.1 -0.1)">
       <defs>
        <path id="DejaVuSans-36" d="M 2113 2584 
Q 1688 2584 1439 2293 
Q 1191 2003 1191 1497 
Q 1191 994 1439 701 
Q 1688 409 2113 409 
Q 2538 409 2786 701 
Q 3034 994 3034 1497 
Q 3034 2003 2786 2293 
Q 2538 2584 2113 2584 
z
M 3366 4563 
L 3366 3988 
Q 3128 4100 2886 4159 
Q 2644 4219 2406 4219 
Q 1781 4219 1451 3797 
Q 1122 3375 1075 2522 
Q 1259 2794 1537 2939 
Q 1816 3084 2150 3084 
Q 2853 3084 3261 2657 
Q 3669 2231 3669 1497 
Q 3669 778 3244 343 
Q 2819 -91 2113 -91 
Q 1303 -91 875 529 
Q 447 1150 447 2328 
Q 447 3434 972 4092 
Q 1497 4750 2381 4750 
Q 2619 4750 2861 4703 
Q 3103 4656 3366 4563 
z
" transform="scale(0.015625)"/>
       </defs>
       <use xlink:href="#DejaVuSans-36"/>
       <use xlink:href="#DejaVuSans-30" x="63.623047"/>
       <use xlink:href="#DejaVuSans-30" x="127.246094"/>
       <use xlink:href="#DejaVuSans-30" x="190.869141"/>
      </g>
     </g>
    </g>
    <g id="ytick_6">
     <g id="line2d_22">
      <path d="M 53.328125 27.585455 
L 499.728125 27.585455 
" clip-path="url(#p2a06021ebe)" style="fill: none; stroke: #b0b0b0; stroke-width: 0.8; stroke-linecap: square"/>
     </g>
     <g id="line2d_23">
      <g>
       <use xlink:href="#m6cb8da98a5" x="53.328125" y="27.585455" style="stroke: #000000; stroke-width: 0.8"/>
      </g>
     </g>
     <g id="text_17">
      <!-- 7000 -->
      <g transform="translate(20.878125 31.384673)scale(0.1 -0.1)">
       <defs>
        <path id="DejaVuSans-37" d="M 525 4666 
L 3525 4666 
L 3525 4397 
L 1831 0 
L 1172 0 
L 2766 4134 
L 525 4134 
L 525 4666 
z
" transform="scale(0.015625)"/>
       </defs>
       <use xlink:href="#DejaVuSans-37"/>
       <use xlink:href="#DejaVuSans-30" x="63.623047"/>
       <use xlink:href="#DejaVuSans-30" x="127.246094"/>
       <use xlink:href="#DejaVuSans-30" x="190.869141"/>
      </g>
     </g>
    </g>
    <g id="text_18">
     <!-- Number of Domains -->
     <g transform="translate(14.798438 142.969844)rotate(-90)scale(0.1 -0.1)">
      <defs>
       <path id="DejaVuSans-6d" d="M 3328 2828 
Q 3544 3216 3844 3400 
Q 4144 3584 4550 3584 
Q 5097 3584 5394 3201 
Q 5691 2819 5691 2113 
L 5691 0 
L 5113 0 
L 5113 2094 
Q 5113 2597 4934 2840 
Q 4756 3084 4391 3084 
Q 3944 3084 3684 2787 
Q 3425 2491 3425 1978 
L 3425 0 
L 2847 0 
L 2847 2094 
Q 2847 2600 2669 2842 
Q 2491 3084 2119 3084 
Q 1678 3084 1418 2786 
Q 1159 2488 1159 1978 
L 1159 0 
L 581 0 
L 581 3500 
L 1159 3500 
L 1159 2956 
Q 1356 3278 1631 3431 
Q 1906 3584 2284 3584 
Q 2666 3584 2933 3390 
Q 3200 3197 3328 2828 
z
" transform="scale(0.015625)"/>
       <path id="DejaVuSans-62" d="M 3116 1747 
Q 3116 2381 2855 2742 
Q 2594 3103 2138 3103 
Q 1681 3103 1420 2742 
Q 1159 2381 1159 1747 
Q 1159 1113 1420 752 
Q 1681 391 2138 391 
Q 2594 391 2855 752 
Q 3116 1113 3116 1747 
z
M 1159 2969 
Q 1341 3281 1617 3432 
Q 1894 3584 2278 3584 
Q 2916 3584 3314 3078 
Q 3713 2572 3713 1747 
Q 3713 922 3314 415 
Q 2916 -91 2278 -91 
Q 1894 -91 1617 61 
Q 1341 213 1159 525 
L 1159 0 
L 581 0 
L 581 4863 
L 1159 4863 
L 1159 2969 
z
" transform="scale(0.015625)"/>
       <path id="DejaVuSans-20" transform="scale(0.015625)"/>
       <path id="DejaVuSans-66" d="M 2375 4863 
L 2375 4384 
L 1825 4384 
Q 1516 4384 1395 4259 
Q 1275 4134 1275 3809 
L 1275 3500 
L 2222 3500 
L 2222 3053 
L 1275 3053 
L 1275 0 
L 697 0 
L 697 3053 
L 147 3053 
L 147 3500 
L 697 3500 
L 697 3744 
Q 697 4328 969 4595 
Q 1241 4863 1831 4863 
L 2375 4863 
z
" transform="scale(0.015625)"/>
       <path id="DejaVuSans-69" d="M 603 3500 
L 1178 3500 
L 1178 0 
L 603 0 
L 603 3500 
z
M 603 4863 
L 1178 4863 
L 1178 4134 
L 603 4134 
L 603 4863 
z
" transform="scale(0.015625)"/>
       <path id="DejaVuSans-73" d="M 2834 3397 
L 2834 2853 
Q 2591 2978 2328 3040 
Q 2066 3103 1784 3103 
Q 1356 3103 1142 2972 
Q 928 2841 928 2578 
Q 928 2378 1081 2264 
Q 1234 2150 1697 2047 
L 1894 2003 
Q 2506 1872 2764 1633 
Q 3022 1394 3022 966 
Q 3022 478 2636 193 
Q 2250 -91 1575 -91 
Q 1294 -91 989 -36 
Q 684 19 347 128 
L 347 722 
Q 666 556 975 473 
Q 1284 391 1588 391 
Q 1994 391 2212 530 
Q 2431 669 2431 922 
Q 2431 1156 2273 1281 
Q 2116 1406 1581 1522 
L 1381 1569 
Q 847 1681 609 1914 
Q 372 2147 372 2553 
Q 372 3047 722 3315 
Q 1072 3584 1716 3584 
Q 2034 3584 2315 3537 
Q 2597 3491 2834 3397 
z
" transform="scale(0.015625)"/>
      </defs>
      <use xlink:href="#DejaVuSans-4e"/>
      <use xlink:href="#DejaVuSans-75" x="74.804688"/>
      <use xlink:href="#DejaVuSans-6d" x="138.183594"/>
      <use xlink:href="#DejaVuSans-62" x="235.595703"/>
      <use xlink:href="#DejaVuSans-65" x="299.072266"/>
      <use xlink:href="#DejaVuSans-72" x="360.595703"/>
      <use xlink:href="#DejaVuSans-20" x="401.708984"/>
      <use xlink:href="#DejaVuSans-6f" x="433.496094"/>
      <use xlink:href="#DejaVuSans-66" x="494.677734"/>
      <use xlink:href="#DejaVuSans-20" x="529.882812"/>
      <use xlink:href="#DejaVuSans-44" x="561.669922"/>
      <use xlink:href="#DejaVuSans-6f" x="638.671875"/>
      <use xlink:href="#DejaVuSans-6d" x="699.853516"/>
      <use xlink:href="#DejaVuSans-61" x="797.265625"/>
      <use xlink:href="#DejaVuSans-69" x="858.544922"/>
      <use xlink:href="#DejaVuSans-6e" x="886.328125"/>
      <use xlink:href="#DejaVuSans-73" x="949.707031"/>
     </g>
    </g>
   </g>
   <g id="line2d_24">
    <path d="M 73.619034 42.043636 
L 74.962803 42.829091 
L 76.306572 40.356364 
L 77.650341 40.647273 
L 78.994109 39.512727 
L 80.337878 40.589091 
L 81.681647 39.978182 
L 84.369185 40.821818 
L 85.712953 40.850909 
L 87.056722 40.647273 
L 89.74426 38.901818 
L 107.213254 37.592727 
L 108.557023 37.68 
L 109.900792 37.098182 
L 111.244561 37.069091 
L 112.58833 36.778182 
L 113.932099 35.585455 
L 115.275867 36.836364 
L 116.619636 36.167273 
L 117.963405 34.305455 
L 119.307174 34.538182 
L 120.650943 34.974545 
L 121.994711 34.567273 
L 123.33848 34.858182 
L 124.682249 35.032727 
L 128.713555 33.403636 
L 130.057324 33.141818 
L 131.401093 33.403636 
L 132.744862 32.88 
L 135.4324 33.258182 
L 138.119937 32.850909 
L 139.463706 32.763636 
L 143.495012 32.327273 
L 144.838781 32.56 
L 146.18255 32.298182 
L 148.870088 32.734545 
L 150.213856 32.472727 
L 155.588932 31.774545 
L 156.932701 31.978182 
L 158.276469 31.047273 
L 159.620238 31.745455 
L 160.964007 30.901818 
L 162.307776 30.698182 
L 163.651545 30.727273 
L 164.995313 31.541818 
L 166.339082 31.309091 
L 167.682851 30.96 
L 169.02662 31.309091 
L 170.370389 30.378182 
L 171.714158 30.203636 
L 173.057926 30.64 
L 174.401695 32.967273 
L 175.745464 30.378182 
L 177.089233 30.523636 
L 178.433002 28.225455 
L 179.77677 29.330909 
L 181.120539 27.905455 
L 182.464308 29.418182 
L 183.808077 28.283636 
L 185.151846 28.632727 
L 186.495614 29.272727 
L 187.839383 28.574545 
L 189.183152 28.952727 
L 190.526921 27.847273 
L 191.87069 28.4 
L 193.214459 29.418182 
L 194.558227 28.109091 
L 195.901996 28.632727 
L 197.245765 28.225455 
L 198.589534 28.894545 
L 201.277071 27.847273 
L 202.62084 27.614545 
L 203.964609 26.712727 
L 205.308378 27.032727 
L 206.652147 26.945455 
L 207.995915 26.654545 
L 209.339684 25.869091 
L 210.683453 26.712727 
L 213.370991 26.829091 
L 214.71476 25.985455 
L 216.058528 25.461818 
L 218.746066 26.130909 
L 220.089835 25.898182 
L 221.433604 25.170909 
L 222.777372 25.316364 
L 225.46491 24.007273 
L 229.496217 24.938182 
L 232.183754 24.996364 
L 237.558829 25.927273 
L 238.902598 24.763636 
L 276.528125 24.501818 
L 277.871894 23.309091 
L 279.215663 23.861818 
L 280.559431 24.618182 
L 281.9032 23.774545 
L 283.246969 24.792727 
L 284.590738 23.309091 
L 288.622044 24.414545 
L 289.965813 23.250909 
L 291.309582 23.192727 
L 292.653351 23.425455 
L 293.99712 23.163636 
L 295.340888 23.134545 
L 296.684657 23.716364 
L 298.028426 23.367273 
L 299.372195 22.901818 
L 300.715964 22.203636 
L 324.903802 22.785455 
L 326.247571 21.010909 
L 328.935109 22.087273 
L 330.278878 22.407273 
L 331.622646 22.349091 
L 332.966415 23.28 
L 334.310184 23.454545 
L 335.653953 22.872727 
L 336.997722 21.650909 
L 338.34149 21.796364 
L 339.685259 20.807273 
L 342.372797 21.010909 
L 343.716566 22.174545 
L 345.060335 21.214545 
L 346.404103 22.349091 
L 347.747872 21.36 
L 349.091641 21.912727 
L 353.122947 20.865455 
L 354.466716 22.756364 
L 355.810485 22.698182 
L 357.154254 21.825455 
L 358.498023 22.436364 
L 359.841791 22.669091 
L 361.18556 21.243636 
L 362.529329 23.076364 
L 363.873098 19.003636 
L 365.216867 18.741818 
L 366.560636 19.818182 
L 367.904404 18.712727 
L 369.248173 18.421818 
L 370.591942 18.887273 
L 371.935711 19.149091 
L 373.27948 18.625455 
L 374.623248 18.974545 
L 375.967017 21.185455 
L 377.310786 19.730909 
L 378.654555 19.12 
L 379.998324 19.090909 
L 381.342092 18.887273 
L 382.685861 19.061818 
L 385.373399 17.898182 
L 386.717168 18.8 
L 389.404705 19.207273 
L 390.748474 19.934545 
L 392.092243 18.276364 
L 394.779781 17.636364 
L 396.123549 18.305455 
L 397.467318 17.52 
L 398.811087 17.403636 
L 400.154856 18.014545 
L 401.498625 15.949091 
L 402.842394 17.229091 
L 404.186162 16.152727 
L 405.529931 16.298182 
L 406.8737 15.745455 
L 408.217469 16.210909 
L 409.561238 16.24 
L 410.905006 15.367273 
L 412.248775 14.989091 
L 416.280082 15.6 
L 417.62385 16.24 
L 418.967619 16.443636 
L 420.311388 15.745455 
L 421.655157 17.869091 
L 422.998926 15.92 
L 424.342695 17.054545 
L 425.686463 15.105455 
L 427.030232 15.716364 
L 428.374001 15.454545 
L 429.71777 16.414545 
L 431.061539 19.12 
L 432.405307 15.92 
L 433.749076 17.927273 
L 435.092845 18.450909 
L 436.436614 18.625455 
L 437.780383 17.723636 
L 439.124151 20.021818 
L 440.46792 16.938182 
L 441.811689 16.443636 
L 443.155458 16.821818 
L 444.499227 20.836364 
L 445.842996 20.312727 
L 447.186764 20.72 
L 448.530533 17.083636 
L 449.874302 18.305455 
L 451.218071 18.858182 
L 452.56184 20.574545 
L 453.905608 17.258182 
L 455.249377 16.938182 
L 456.593146 18.48 
L 457.936915 16.996364 
L 459.280684 18.218182 
L 460.624453 17.898182 
L 461.968221 16.589091 
L 465.999528 21.505455 
L 467.343297 17.84 
L 468.687065 20.72 
L 470.030834 20.196364 
L 471.374603 18.712727 
L 472.718372 18.218182 
L 474.062141 19.527273 
L 475.405909 18.48 
L 476.749678 19.469091 
L 478.093447 21.04 
L 479.437216 21.185455 
L 479.437216 21.185455 
" clip-path="url(#p2a06021ebe)" style="fill: none; stroke: #1f77b4; stroke-width: 1.5; stroke-linecap: square"/>
   </g>
   <g id="line2d_25">
    <path d="M 73.619034 102.494545 
L 74.962803 103.396364 
L 76.306572 100.865455 
L 77.650341 101.389091 
L 78.994109 100.516364 
L 80.337878 101.476364 
L 81.681647 101.069091 
L 84.369185 101.301818 
L 85.712953 101.767273 
L 87.056722 101.214545 
L 88.400491 100.981818 
L 89.74426 99.992727 
L 108.557023 99.061818 
L 109.900792 98.683636 
L 111.244561 99.12 
L 112.58833 98.334545 
L 113.932099 97.898182 
L 115.275867 98.48 
L 116.619636 97.985455 
L 117.963405 96.123636 
L 119.307174 96.356364 
L 120.650943 96.414545 
L 121.994711 96.821818 
L 124.682249 96.56 
L 130.057324 95.163636 
L 131.401093 95.338182 
L 132.744862 94.989091 
L 134.088631 95.076364 
L 135.4324 95.629091 
L 136.776168 94.785455 
L 138.119937 95.192727 
L 139.463706 94.698182 
L 143.495012 94.465455 
L 144.838781 95.658182 
L 146.18255 94.785455 
L 147.526319 94.872727 
L 150.213856 94.785455 
L 155.588932 93.738182 
L 156.932701 94.116364 
L 158.276469 93.796364 
L 159.620238 93.941818 
L 160.964007 93.738182 
L 162.307776 93.389091 
L 164.995313 94.058182 
L 166.339082 93.854545 
L 167.682851 93.767273 
L 169.02662 94.32 
L 170.370389 93.534545 
L 171.714158 93.563636 
L 173.057926 94.029091 
L 174.401695 96.356364 
L 175.745464 94 
L 177.089233 93.796364 
L 178.433002 91.149091 
L 179.77677 92.458182 
L 181.120539 91.323636 
L 182.464308 92.429091 
L 183.808077 91.381818 
L 185.151846 91.905455 
L 186.495614 92.050909 
L 187.839383 91.527273 
L 189.183152 91.847273 
L 190.526921 90.741818 
L 191.87069 91.381818 
L 193.214459 92.458182 
L 194.558227 91.12 
L 195.901996 91.527273 
L 197.245765 91.498182 
L 198.589534 92.458182 
L 201.277071 91.847273 
L 202.62084 91.789091 
L 205.308378 90.741818 
L 206.652147 90.829091 
L 207.995915 90.683636 
L 209.339684 89.781818 
L 210.683453 90.101818 
L 213.370991 90.509091 
L 216.058528 89.52 
L 217.402297 90.014545 
L 218.746066 90.305455 
L 220.089835 89.956364 
L 221.433604 89.490909 
L 222.777372 89.665455 
L 225.46491 88.56 
L 229.496217 89.956364 
L 232.183754 89.52 
L 237.558829 90.567273 
L 238.902598 89.229091 
L 276.528125 100.574545 
L 277.871894 99.469091 
L 279.215663 99.527273 
L 280.559431 100.865455 
L 281.9032 99.44 
L 283.246969 101.505455 
L 284.590738 99.410909 
L 285.934507 99.469091 
L 288.622044 101.68 
L 289.965813 99.381818 
L 291.309582 100.370909 
L 292.653351 100.312727 
L 293.99712 99.905455 
L 295.340888 99.905455 
L 296.684657 100.661818 
L 298.028426 100.138182 
L 299.372195 99.381818 
L 300.715964 99.090909 
L 324.903802 102.96 
L 326.247571 100.283636 
L 328.935109 99.789091 
L 330.278878 101.127273 
L 331.622646 101.738182 
L 332.966415 101.854545 
L 334.310184 103.076364 
L 335.653953 100.574545 
L 336.997722 100.865455 
L 338.34149 100.167273 
L 339.685259 100.08 
L 341.029028 98.829091 
L 342.372797 99.556364 
L 343.716566 99.818182 
L 345.060335 99.12 
L 346.404103 101.621818 
L 347.747872 100.603636 
L 349.091641 101.418182 
L 353.122947 100.254545 
L 354.466716 101.709091 
L 355.810485 101.883636 
L 357.154254 101.389091 
L 358.498023 100.312727 
L 359.841791 101.825455 
L 361.18556 99.847273 
L 362.529329 101.912727 
L 363.873098 98.072727 
L 365.216867 96.385455 
L 366.560636 99.236364 
L 367.904404 97.229091 
L 369.248173 97.229091 
L 370.591942 98.450909 
L 371.935711 98.741818 
L 373.27948 98.741818 
L 374.623248 98.887273 
L 375.967017 99.207273 
L 378.654555 99.032727 
L 379.998324 98.48 
L 382.685861 99.585455 
L 384.02963 97.52 
L 386.717168 98.363636 
L 388.060937 98.334545 
L 389.404705 99.207273 
L 390.748474 99.44 
L 392.092243 97.403636 
L 393.436012 97.432727 
L 394.779781 94.407273 
L 396.123549 98.683636 
L 397.467318 97.927273 
L 398.811087 96.88 
L 400.154856 98.014545 
L 401.498625 96.472727 
L 402.842394 96.996364 
L 404.186162 96.123636 
L 405.529931 96.181818 
L 406.8737 95.803636 
L 408.217469 96.443636 
L 409.561238 96.56 
L 410.905006 95.483636 
L 412.248775 93.185455 
L 416.280082 95.134545 
L 417.62385 96.530909 
L 418.967619 95.309091 
L 420.311388 95.92 
L 421.655157 98.072727 
L 422.998926 96.210909 
L 424.342695 94.669091 
L 425.686463 96.821818 
L 427.030232 95.018182 
L 428.374001 94.843636 
L 429.71777 95.658182 
L 431.061539 100.225455 
L 432.405307 96.530909 
L 433.749076 98.072727 
L 435.092845 98.276364 
L 436.436614 99.905455 
L 437.780383 98.538182 
L 439.124151 99.992727 
L 441.811689 95.92 
L 443.155458 97.258182 
L 444.499227 100.545455 
L 445.842996 100.72 
L 447.186764 100.632727 
L 448.530533 97.432727 
L 449.874302 98.450909 
L 451.218071 98.305455 
L 452.56184 100.429091 
L 453.905608 98.014545 
L 455.249377 97.781818 
L 457.936915 97.636364 
L 459.280684 98.916364 
L 460.624453 97.461818 
L 461.968221 96.647273 
L 465.999528 101.010909 
L 467.343297 97.636364 
L 468.687065 100.923636 
L 470.030834 100.661818 
L 471.374603 98.945455 
L 472.718372 99.149091 
L 474.062141 100.050909 
L 475.405909 99.061818 
L 476.749678 101.127273 
L 478.093447 101.912727 
L 479.437216 101.796364 
L 479.437216 101.796364 
" clip-path="url(#p2a06021ebe)" style="fill: none; stroke: #ff7f0e; stroke-width: 1.5; stroke-linecap: square"/>
   </g>
   <g id="line2d_26">
    <path d="M 73.619034 170.770909 
L 74.962803 170.654545 
L 76.306572 170.712727 
L 78.994109 170.218182 
L 80.337878 170.334545 
L 81.681647 170.130909 
L 84.369185 170.741818 
L 85.712953 170.305455 
L 87.056722 170.654545 
L 88.400491 170.014545 
L 89.74426 170.130909 
L 107.213254 169.723636 
L 108.557023 169.84 
L 109.900792 169.636364 
L 111.244561 169.170909 
L 112.58833 169.665455 
L 113.932099 168.909091 
L 115.275867 169.578182 
L 116.619636 169.403636 
L 119.307174 169.403636 
L 120.650943 169.781818 
L 121.994711 168.967273 
L 123.33848 169.403636 
L 124.682249 169.694545 
L 128.713555 169.054545 
L 131.401093 169.287273 
L 132.744862 169.112727 
L 134.088631 169.170909 
L 135.4324 168.850909 
L 136.776168 169.461818 
L 138.119937 168.88 
L 139.463706 169.287273 
L 143.495012 169.083636 
L 144.838781 168.123636 
L 146.18255 168.734545 
L 148.870088 169.170909 
L 150.213856 168.909091 
L 155.588932 169.258182 
L 156.932701 169.083636 
L 158.276469 168.472727 
L 159.620238 169.025455 
L 160.964007 168.385455 
L 162.307776 168.530909 
L 163.651545 168.210909 
L 164.995313 168.705455 
L 166.339082 168.676364 
L 169.02662 168.210909 
L 173.057926 167.832727 
L 174.401695 167.832727 
L 175.745464 167.6 
L 178.433002 168.298182 
L 181.120539 167.803636 
L 182.464308 168.210909 
L 185.151846 167.949091 
L 186.495614 168.443636 
L 187.839383 168.269091 
L 190.526921 168.327273 
L 193.214459 168.181818 
L 195.901996 168.327273 
L 198.589534 167.658182 
L 202.62084 167.047273 
L 203.964609 166.669091 
L 205.308378 167.512727 
L 207.995915 167.192727 
L 209.339684 167.309091 
L 210.683453 167.832727 
L 212.027222 167.745455 
L 213.370991 167.541818 
L 214.71476 167.163636 
L 216.058528 167.163636 
L 217.402297 166.96 
L 220.089835 167.163636 
L 221.433604 166.901818 
L 222.777372 166.872727 
L 225.46491 166.669091 
L 229.496217 166.203636 
L 232.183754 166.698182 
L 237.558829 166.581818 
L 238.902598 166.756364 
L 276.528125 155.149091 
L 277.871894 155.061818 
L 279.215663 155.556364 
L 280.559431 154.974545 
L 281.9032 155.556364 
L 283.246969 154.509091 
L 284.590738 155.12 
L 285.934507 155.44 
L 287.278276 154.829091 
L 288.622044 153.956364 
L 289.965813 155.090909 
L 291.309582 154.043636 
L 292.653351 154.334545 
L 293.99712 154.48 
L 295.340888 154.450909 
L 296.684657 154.276364 
L 298.028426 154.450909 
L 299.372195 154.741818 
L 300.715964 154.334545 
L 324.903802 151.047273 
L 326.247571 151.949091 
L 328.935109 153.52 
L 330.278878 152.501818 
L 331.622646 151.832727 
L 332.966415 152.647273 
L 334.310184 151.6 
L 335.653953 153.52 
L 336.997722 152.007273 
L 338.34149 152.850909 
L 339.685259 151.949091 
L 341.029028 153.287273 
L 342.372797 152.676364 
L 343.716566 153.578182 
L 345.060335 153.316364 
L 346.404103 151.949091 
L 347.747872 151.978182 
L 349.091641 151.716364 
L 353.122947 151.832727 
L 354.466716 152.269091 
L 355.810485 152.036364 
L 357.154254 151.658182 
L 358.498023 153.345455 
L 359.841791 152.065455 
L 361.18556 152.618182 
L 363.873098 152.152727 
L 365.216867 153.578182 
L 366.560636 151.803636 
L 367.904404 152.705455 
L 369.248173 152.414545 
L 370.591942 151.658182 
L 371.935711 151.629091 
L 373.27948 151.105455 
L 374.623248 151.309091 
L 375.967017 153.2 
L 377.310786 151.832727 
L 378.654555 151.309091 
L 379.998324 151.832727 
L 381.342092 151.018182 
L 382.685861 150.698182 
L 384.02963 152.123636 
L 385.373399 151.221818 
L 386.717168 151.658182 
L 388.060937 151.92 
L 389.404705 151.221818 
L 392.092243 152.094545 
L 393.436012 151.774545 
L 394.779781 154.450909 
L 396.123549 150.843636 
L 397.467318 150.814545 
L 398.811087 151.745455 
L 401.498625 150.698182 
L 402.842394 151.454545 
L 404.186162 151.250909 
L 405.529931 151.338182 
L 409.561238 150.901818 
L 410.905006 151.105455 
L 412.248775 153.025455 
L 416.280082 151.687273 
L 417.62385 150.930909 
L 418.967619 152.356364 
L 420.311388 151.047273 
L 422.998926 150.930909 
L 424.342695 153.607273 
L 425.686463 149.505455 
L 427.030232 151.92 
L 428.374001 151.832727 
L 429.71777 151.978182 
L 431.061539 150.116364 
L 433.749076 151.076364 
L 435.092845 151.396364 
L 436.436614 149.941818 
L 437.780383 150.407273 
L 439.124151 151.250909 
L 440.46792 150.203636 
L 441.811689 151.745455 
L 443.155458 150.785455 
L 444.499227 151.512727 
L 445.842996 150.814545 
L 447.186764 151.309091 
L 448.530533 150.872727 
L 449.874302 151.076364 
L 451.218071 151.774545 
L 452.56184 151.367273 
L 453.905608 150.465455 
L 455.249377 150.378182 
L 456.593146 151.949091 
L 457.936915 150.581818 
L 459.280684 150.523636 
L 460.624453 151.658182 
L 461.968221 151.163636 
L 465.999528 151.716364 
L 467.343297 151.425455 
L 468.687065 151.018182 
L 470.030834 150.756364 
L 471.374603 150.989091 
L 472.718372 150.290909 
L 474.062141 150.698182 
L 475.405909 150.64 
L 476.749678 149.563636 
L 478.093447 150.349091 
L 479.437216 150.610909 
L 479.437216 150.610909 
" clip-path="url(#p2a06021ebe)" style="fill: none; stroke: #2ca02c; stroke-width: 1.5; stroke-linecap: square"/>
   </g>
   <g id="patch_3">
    <path d="M 53.328125 178.56 
L 53.328125 7.2 
" style="fill: none; stroke: #000000; stroke-width: 0.8; stroke-linejoin: miter; stroke-linecap: square"/>
   </g>
   <g id="patch_4">
    <path d="M 499.728125 178.56 
L 499.728125 7.2 
" style="fill: none; stroke: #000000; stroke-width: 0.8; stroke-linejoin: miter; stroke-linecap: square"/>
   </g>
   <g id="patch_5">
    <path d="M 53.328125 178.56 
L 499.728125 178.56 
" style="fill: none; stroke: #000000; stroke-width: 0.8; stroke-linejoin: miter; stroke-linecap: square"/>
   </g>
   <g id="patch_6">
    <path d="M 53.328125 7.2 
L 499.728125 7.2 
" style="fill: none; stroke: #000000; stroke-width: 0.8; stroke-linejoin: miter; stroke-linecap: square"/>
   </g>
   <g id="legend_1">
    <g id="patch_7">
     <path d="M 256.688437 82.125188 
L 385.647812 82.125188 
Q 387.647812 82.125188 387.647812 80.125188 
L 387.647812 37.090813 
Q 387.647812 35.090813 385.647812 35.090813 
L 256.688437 35.090813 
Q 254.688437 35.090813 254.688437 37.090813 
L 254.688437 80.125188 
Q 254.688437 82.125188 256.688437 82.125188 
z
" style="fill: #ffffff; opacity: 0.8; stroke: #cccccc; stroke-linejoin: miter"/>
    </g>
    <g id="line2d_27">
     <path d="M 258.688437 43.18925 
L 268.688437 43.18925 
L 278.688437 43.18925 
" style="fill: none; stroke: #1f77b4; stroke-width: 1.5; stroke-linecap: square"/>
    </g>
    <g id="text_19">
     <!-- Preloaded Domains -->
     <g transform="translate(286.688437 46.68925)scale(0.1 -0.1)">
      <defs>
       <path id="DejaVuSans-50" d="M 1259 4147 
L 1259 2394 
L 2053 2394 
Q 2494 2394 2734 2622 
Q 2975 2850 2975 3272 
Q 2975 3691 2734 3919 
Q 2494 4147 2053 4147 
L 1259 4147 
z
M 628 4666 
L 2053 4666 
Q 2838 4666 3239 4311 
Q 3641 3956 3641 3272 
Q 3641 2581 3239 2228 
Q 2838 1875 2053 1875 
L 1259 1875 
L 1259 0 
L 628 0 
L 628 4666 
z
" transform="scale(0.015625)"/>
       <path id="DejaVuSans-64" d="M 2906 2969 
L 2906 4863 
L 3481 4863 
L 3481 0 
L 2906 0 
L 2906 525 
Q 2725 213 2448 61 
Q 2172 -91 1784 -91 
Q 1150 -91 751 415 
Q 353 922 353 1747 
Q 353 2572 751 3078 
Q 1150 3584 1784 3584 
Q 2172 3584 2448 3432 
Q 2725 3281 2906 2969 
z
M 947 1747 
Q 947 1113 1208 752 
Q 1469 391 1925 391 
Q 2381 391 2643 752 
Q 2906 1113 2906 1747 
Q 2906 2381 2643 2742 
Q 2381 3103 1925 3103 
Q 1469 3103 1208 2742 
Q 947 2381 947 1747 
z
" transform="scale(0.015625)"/>
      </defs>
      <use xlink:href="#DejaVuSans-50"/>
      <use xlink:href="#DejaVuSans-72" x="58.552734"/>
      <use xlink:href="#DejaVuSans-65" x="97.416016"/>
      <use xlink:href="#DejaVuSans-6c" x="158.939453"/>
      <use xlink:href="#DejaVuSans-6f" x="186.722656"/>
      <use xlink:href="#DejaVuSans-61" x="247.904297"/>
      <use xlink:href="#DejaVuSans-64" x="309.183594"/>
      <use xlink:href="#DejaVuSans-65" x="372.660156"/>
      <use xlink:href="#DejaVuSans-64" x="434.183594"/>
      <use xlink:href="#DejaVuSans-20" x="497.660156"/>
      <use xlink:href="#DejaVuSans-44" x="529.447266"/>
      <use xlink:href="#DejaVuSans-6f" x="606.449219"/>
      <use xlink:href="#DejaVuSans-6d" x="667.630859"/>
      <use xlink:href="#DejaVuSans-61" x="765.042969"/>
      <use xlink:href="#DejaVuSans-69" x="826.322266"/>
      <use xlink:href="#DejaVuSans-6e" x="854.105469"/>
      <use xlink:href="#DejaVuSans-73" x="917.484375"/>
     </g>
    </g>
    <g id="line2d_28">
     <path d="M 258.688437 57.867375 
L 268.688437 57.867375 
L 278.688437 57.867375 
" style="fill: none; stroke: #ff7f0e; stroke-width: 1.5; stroke-linecap: square"/>
    </g>
    <g id="text_20">
     <!-- All Criteria Met -->
     <g transform="translate(286.688437 61.367375)scale(0.1 -0.1)">
      <defs>
       <path id="DejaVuSans-43" d="M 4122 4306 
L 4122 3641 
Q 3803 3938 3442 4084 
Q 3081 4231 2675 4231 
Q 1875 4231 1450 3742 
Q 1025 3253 1025 2328 
Q 1025 1406 1450 917 
Q 1875 428 2675 428 
Q 3081 428 3442 575 
Q 3803 722 4122 1019 
L 4122 359 
Q 3791 134 3420 21 
Q 3050 -91 2638 -91 
Q 1578 -91 968 557 
Q 359 1206 359 2328 
Q 359 3453 968 4101 
Q 1578 4750 2638 4750 
Q 3056 4750 3426 4639 
Q 3797 4528 4122 4306 
z
" transform="scale(0.015625)"/>
      </defs>
      <use xlink:href="#DejaVuSans-41"/>
      <use xlink:href="#DejaVuSans-6c" x="68.408203"/>
      <use xlink:href="#DejaVuSans-6c" x="96.191406"/>
      <use xlink:href="#DejaVuSans-20" x="123.974609"/>
      <use xlink:href="#DejaVuSans-43" x="155.761719"/>
      <use xlink:href="#DejaVuSans-72" x="225.585938"/>
      <use xlink:href="#DejaVuSans-69" x="266.699219"/>
      <use xlink:href="#DejaVuSans-74" x="294.482422"/>
      <use xlink:href="#DejaVuSans-65" x="333.691406"/>
      <use xlink:href="#DejaVuSans-72" x="395.214844"/>
      <use xlink:href="#DejaVuSans-69" x="436.328125"/>
      <use xlink:href="#DejaVuSans-61" x="464.111328"/>
      <use xlink:href="#DejaVuSans-20" x="525.390625"/>
      <use xlink:href="#DejaVuSans-4d" x="557.177734"/>
      <use xlink:href="#DejaVuSans-65" x="643.457031"/>
      <use xlink:href="#DejaVuSans-74" x="704.980469"/>
     </g>
    </g>
    <g id="line2d_29">
     <path d="M 258.688437 72.5455 
L 268.688437 72.5455 
L 278.688437 72.5455 
" style="fill: none; stroke: #2ca02c; stroke-width: 1.5; stroke-linecap: square"/>
    </g>
    <g id="text_21">
     <!-- Not All Criteria Met -->
     <g transform="translate(286.688437 76.0455)scale(0.1 -0.1)">
      <use xlink:href="#DejaVuSans-4e"/>
      <use xlink:href="#DejaVuSans-6f" x="74.804688"/>
      <use xlink:href="#DejaVuSans-74" x="135.986328"/>
      <use xlink:href="#DejaVuSans-20" x="175.195312"/>
      <use xlink:href="#DejaVuSans-41" x="206.982422"/>
      <use xlink:href="#DejaVuSans-6c" x="275.390625"/>
      <use xlink:href="#DejaVuSans-6c" x="303.173828"/>
      <use xlink:href="#DejaVuSans-20" x="330.957031"/>
      <use xlink:href="#DejaVuSans-43" x="362.744141"/>
      <use xlink:href="#DejaVuSans-72" x="432.568359"/>
      <use xlink:href="#DejaVuSans-69" x="473.681641"/>
      <use xlink:href="#DejaVuSans-74" x="501.464844"/>
      <use xlink:href="#DejaVuSans-65" x="540.673828"/>
      <use xlink:href="#DejaVuSans-72" x="602.197266"/>
      <use xlink:href="#DejaVuSans-69" x="643.310547"/>
      <use xlink:href="#DejaVuSans-61" x="671.09375"/>
      <use xlink:href="#DejaVuSans-20" x="732.373047"/>
      <use xlink:href="#DejaVuSans-4d" x="764.160156"/>
      <use xlink:href="#DejaVuSans-65" x="850.439453"/>
      <use xlink:href="#DejaVuSans-74" x="911.962891"/>
     </g>
    </g>
   </g>
  </g>
 </g>
 <defs>
  <clipPath id="p2a06021ebe">
   <rect x="53.328125" y="7.2" width="446.4" height="171.36"/>
  </clipPath>
 </defs>
</svg>
