<?xml version="1.0" encoding="utf-8" standalone="no"?>
<!DOCTYPE svg PUBLIC "-//W3C//DTD SVG 1.1//EN"
  "http://www.w3.org/Graphics/SVG/1.1/DTD/svg11.dtd">
<svg xmlns:xlink="http://www.w3.org/1999/xlink" width="502.867755pt" height="234.086815pt" viewBox="0 0 502.867755 234.086815" xmlns="http://www.w3.org/2000/svg" version="1.1">
 <metadata>
  <rdf:RDF xmlns:dc="http://purl.org/dc/elements/1.1/" xmlns:cc="http://creativecommons.org/ns#" xmlns:rdf="http://www.w3.org/1999/02/22-rdf-syntax-ns#">
   <cc:Work>
    <dc:type rdf:resource="http://purl.org/dc/dcmitype/StillImage"/>
    <dc:date>2022-02-13T10:05:50.991014</dc:date>
    <dc:format>image/svg+xml</dc:format>
    <dc:creator>
     <cc:Agent>
      <dc:title>Matplotlib v3.5.1, https://matplotlib.org/</dc:title>
     </cc:Agent>
    </dc:creator>
   </cc:Work>
  </rdf:RDF>
 </metadata>
 <defs>
  <style type="text/css">*{stroke-linejoin: round; stroke-linecap: butt}</style>
 </defs>
 <g id="figure_1">
  <g id="patch_1">
   <path d="M 0 234.086815 
L 502.867755 234.086815 
L 502.867755 0 
L 0 0 
z
" style="fill: #ffffff"/>
  </g>
  <g id="axes_1">
   <g id="patch_2">
    <path d="M 49.267755 178.56 
L 495.667755 178.56 
L 495.667755 7.2 
L 49.267755 7.2 
z
" style="fill: #ffffff"/>
   </g>
   <g id="matplotlib.axis_1">
    <g id="xtick_1">
     <g id="line2d_1">
      <defs>
       <path id="mf44a0aa7f5" d="M 0 0 
L 0 3.5 
" style="stroke: #000000; stroke-width: 0.8"/>
      </defs>
      <g>
       <use xlink:href="#mf44a0aa7f5" x="67.135869" y="178.56" style="stroke: #000000; stroke-width: 0.8"/>
      </g>
     </g>
     <g id="text_1">
      <!-- 2021-Mar-01 -->
      <g transform="translate(10.999219 223.950596)rotate(-30)scale(0.1 -0.1)">
       <defs>
        <path id="DejaVuSans-32" d="M 1228 531 
L 3431 531 
L 3431 0 
L 469 0 
L 469 531 
Q 828 903 1448 1529 
Q 2069 2156 2228 2338 
Q 2531 2678 2651 2914 
Q 2772 3150 2772 3378 
Q 2772 3750 2511 3984 
Q 2250 4219 1831 4219 
Q 1534 4219 1204 4116 
Q 875 4013 500 3803 
L 500 4441 
Q 881 4594 1212 4672 
Q 1544 4750 1819 4750 
Q 2544 4750 2975 4387 
Q 3406 4025 3406 3419 
Q 3406 3131 3298 2873 
Q 3191 2616 2906 2266 
Q 2828 2175 2409 1742 
Q 1991 1309 1228 531 
z
" transform="scale(0.015625)"/>
        <path id="DejaVuSans-30" d="M 2034 4250 
Q 1547 4250 1301 3770 
Q 1056 3291 1056 2328 
Q 1056 1369 1301 889 
Q 1547 409 2034 409 
Q 2525 409 2770 889 
Q 3016 1369 3016 2328 
Q 3016 3291 2770 3770 
Q 2525 4250 2034 4250 
z
M 2034 4750 
Q 2819 4750 3233 4129 
Q 3647 3509 3647 2328 
Q 3647 1150 3233 529 
Q 2819 -91 2034 -91 
Q 1250 -91 836 529 
Q 422 1150 422 2328 
Q 422 3509 836 4129 
Q 1250 4750 2034 4750 
z
" transform="scale(0.015625)"/>
        <path id="DejaVuSans-31" d="M 794 531 
L 1825 531 
L 1825 4091 
L 703 3866 
L 703 4441 
L 1819 4666 
L 2450 4666 
L 2450 531 
L 3481 531 
L 3481 0 
L 794 0 
L 794 531 
z
" transform="scale(0.015625)"/>
        <path id="DejaVuSans-2d" d="M 313 2009 
L 1997 2009 
L 1997 1497 
L 313 1497 
L 313 2009 
z
" transform="scale(0.015625)"/>
        <path id="DejaVuSans-4d" d="M 628 4666 
L 1569 4666 
L 2759 1491 
L 3956 4666 
L 4897 4666 
L 4897 0 
L 4281 0 
L 4281 4097 
L 3078 897 
L 2444 897 
L 1241 4097 
L 1241 0 
L 628 0 
L 628 4666 
z
" transform="scale(0.015625)"/>
        <path id="DejaVuSans-61" d="M 2194 1759 
Q 1497 1759 1228 1600 
Q 959 1441 959 1056 
Q 959 750 1161 570 
Q 1363 391 1709 391 
Q 2188 391 2477 730 
Q 2766 1069 2766 1631 
L 2766 1759 
L 2194 1759 
z
M 3341 1997 
L 3341 0 
L 2766 0 
L 2766 531 
Q 2569 213 2275 61 
Q 1981 -91 1556 -91 
Q 1019 -91 701 211 
Q 384 513 384 1019 
Q 384 1609 779 1909 
Q 1175 2209 1959 2209 
L 2766 2209 
L 2766 2266 
Q 2766 2663 2505 2880 
Q 2244 3097 1772 3097 
Q 1472 3097 1187 3025 
Q 903 2953 641 2809 
L 641 3341 
Q 956 3463 1253 3523 
Q 1550 3584 1831 3584 
Q 2591 3584 2966 3190 
Q 3341 2797 3341 1997 
z
" transform="scale(0.015625)"/>
        <path id="DejaVuSans-72" d="M 2631 2963 
Q 2534 3019 2420 3045 
Q 2306 3072 2169 3072 
Q 1681 3072 1420 2755 
Q 1159 2438 1159 1844 
L 1159 0 
L 581 0 
L 581 3500 
L 1159 3500 
L 1159 2956 
Q 1341 3275 1631 3429 
Q 1922 3584 2338 3584 
Q 2397 3584 2469 3576 
Q 2541 3569 2628 3553 
L 2631 2963 
z
" transform="scale(0.015625)"/>
       </defs>
       <use xlink:href="#DejaVuSans-32"/>
       <use xlink:href="#DejaVuSans-30" x="63.623047"/>
       <use xlink:href="#DejaVuSans-32" x="127.246094"/>
       <use xlink:href="#DejaVuSans-31" x="190.869141"/>
       <use xlink:href="#DejaVuSans-2d" x="254.492188"/>
       <use xlink:href="#DejaVuSans-4d" x="290.576172"/>
       <use xlink:href="#DejaVuSans-61" x="376.855469"/>
       <use xlink:href="#DejaVuSans-72" x="438.134766"/>
       <use xlink:href="#DejaVuSans-2d" x="472.873047"/>
       <use xlink:href="#DejaVuSans-30" x="508.957031"/>
       <use xlink:href="#DejaVuSans-31" x="572.580078"/>
      </g>
     </g>
    </g>
    <g id="xtick_2">
     <g id="line2d_2">
      <g>
       <use xlink:href="#mf44a0aa7f5" x="104.689194" y="178.56" style="stroke: #000000; stroke-width: 0.8"/>
      </g>
     </g>
     <g id="text_2">
      <!-- 2021-Apr-01 -->
      <g transform="translate(50.104623 223.054502)rotate(-30)scale(0.1 -0.1)">
       <defs>
        <path id="DejaVuSans-41" d="M 2188 4044 
L 1331 1722 
L 3047 1722 
L 2188 4044 
z
M 1831 4666 
L 2547 4666 
L 4325 0 
L 3669 0 
L 3244 1197 
L 1141 1197 
L 716 0 
L 50 0 
L 1831 4666 
z
" transform="scale(0.015625)"/>
        <path id="DejaVuSans-70" d="M 1159 525 
L 1159 -1331 
L 581 -1331 
L 581 3500 
L 1159 3500 
L 1159 2969 
Q 1341 3281 1617 3432 
Q 1894 3584 2278 3584 
Q 2916 3584 3314 3078 
Q 3713 2572 3713 1747 
Q 3713 922 3314 415 
Q 2916 -91 2278 -91 
Q 1894 -91 1617 61 
Q 1341 213 1159 525 
z
M 3116 1747 
Q 3116 2381 2855 2742 
Q 2594 3103 2138 3103 
Q 1681 3103 1420 2742 
Q 1159 2381 1159 1747 
Q 1159 1113 1420 752 
Q 1681 391 2138 391 
Q 2594 391 2855 752 
Q 3116 1113 3116 1747 
z
" transform="scale(0.015625)"/>
       </defs>
       <use xlink:href="#DejaVuSans-32"/>
       <use xlink:href="#DejaVuSans-30" x="63.623047"/>
       <use xlink:href="#DejaVuSans-32" x="127.246094"/>
       <use xlink:href="#DejaVuSans-31" x="190.869141"/>
       <use xlink:href="#DejaVuSans-2d" x="254.492188"/>
       <use xlink:href="#DejaVuSans-41" x="288.326172"/>
       <use xlink:href="#DejaVuSans-70" x="356.734375"/>
       <use xlink:href="#DejaVuSans-72" x="420.210938"/>
       <use xlink:href="#DejaVuSans-2d" x="454.949219"/>
       <use xlink:href="#DejaVuSans-30" x="491.033203"/>
       <use xlink:href="#DejaVuSans-31" x="554.65625"/>
      </g>
     </g>
    </g>
    <g id="xtick_3">
     <g id="line2d_3">
      <g>
       <use xlink:href="#mf44a0aa7f5" x="141.03112" y="178.56" style="stroke: #000000; stroke-width: 0.8"/>
      </g>
     </g>
     <g id="text_3">
      <!-- 2021-May-01 -->
      <g transform="translate(82.928321 225.085752)rotate(-30)scale(0.1 -0.1)">
       <defs>
        <path id="DejaVuSans-79" d="M 2059 -325 
Q 1816 -950 1584 -1140 
Q 1353 -1331 966 -1331 
L 506 -1331 
L 506 -850 
L 844 -850 
Q 1081 -850 1212 -737 
Q 1344 -625 1503 -206 
L 1606 56 
L 191 3500 
L 800 3500 
L 1894 763 
L 2988 3500 
L 3597 3500 
L 2059 -325 
z
" transform="scale(0.015625)"/>
       </defs>
       <use xlink:href="#DejaVuSans-32"/>
       <use xlink:href="#DejaVuSans-30" x="63.623047"/>
       <use xlink:href="#DejaVuSans-32" x="127.246094"/>
       <use xlink:href="#DejaVuSans-31" x="190.869141"/>
       <use xlink:href="#DejaVuSans-2d" x="254.492188"/>
       <use xlink:href="#DejaVuSans-4d" x="290.576172"/>
       <use xlink:href="#DejaVuSans-61" x="376.855469"/>
       <use xlink:href="#DejaVuSans-79" x="438.134766"/>
       <use xlink:href="#DejaVuSans-2d" x="495.564453"/>
       <use xlink:href="#DejaVuSans-30" x="531.648438"/>
       <use xlink:href="#DejaVuSans-31" x="595.271484"/>
      </g>
     </g>
    </g>
    <g id="xtick_4">
     <g id="line2d_4">
      <g>
       <use xlink:href="#mf44a0aa7f5" x="178.584445" y="178.56" style="stroke: #000000; stroke-width: 0.8"/>
      </g>
     </g>
     <g id="text_4">
      <!-- 2021-Jun-01 -->
      <g transform="translate(124.21638 222.929502)rotate(-30)scale(0.1 -0.1)">
       <defs>
        <path id="DejaVuSans-4a" d="M 628 4666 
L 1259 4666 
L 1259 325 
Q 1259 -519 939 -900 
Q 619 -1281 -91 -1281 
L -331 -1281 
L -331 -750 
L -134 -750 
Q 284 -750 456 -515 
Q 628 -281 628 325 
L 628 4666 
z
" transform="scale(0.015625)"/>
        <path id="DejaVuSans-75" d="M 544 1381 
L 544 3500 
L 1119 3500 
L 1119 1403 
Q 1119 906 1312 657 
Q 1506 409 1894 409 
Q 2359 409 2629 706 
Q 2900 1003 2900 1516 
L 2900 3500 
L 3475 3500 
L 3475 0 
L 2900 0 
L 2900 538 
Q 2691 219 2414 64 
Q 2138 -91 1772 -91 
Q 1169 -91 856 284 
Q 544 659 544 1381 
z
M 1991 3584 
L 1991 3584 
z
" transform="scale(0.015625)"/>
        <path id="DejaVuSans-6e" d="M 3513 2113 
L 3513 0 
L 2938 0 
L 2938 2094 
Q 2938 2591 2744 2837 
Q 2550 3084 2163 3084 
Q 1697 3084 1428 2787 
Q 1159 2491 1159 1978 
L 1159 0 
L 581 0 
L 581 3500 
L 1159 3500 
L 1159 2956 
Q 1366 3272 1645 3428 
Q 1925 3584 2291 3584 
Q 2894 3584 3203 3211 
Q 3513 2838 3513 2113 
z
" transform="scale(0.015625)"/>
       </defs>
       <use xlink:href="#DejaVuSans-32"/>
       <use xlink:href="#DejaVuSans-30" x="63.623047"/>
       <use xlink:href="#DejaVuSans-32" x="127.246094"/>
       <use xlink:href="#DejaVuSans-31" x="190.869141"/>
       <use xlink:href="#DejaVuSans-2d" x="254.492188"/>
       <use xlink:href="#DejaVuSans-4a" x="296.201172"/>
       <use xlink:href="#DejaVuSans-75" x="325.693359"/>
       <use xlink:href="#DejaVuSans-6e" x="389.072266"/>
       <use xlink:href="#DejaVuSans-2d" x="452.451172"/>
       <use xlink:href="#DejaVuSans-30" x="488.535156"/>
       <use xlink:href="#DejaVuSans-31" x="552.158203"/>
      </g>
     </g>
    </g>
    <g id="xtick_5">
     <g id="line2d_5">
      <g>
       <use xlink:href="#mf44a0aa7f5" x="214.926371" y="178.56" style="stroke: #000000; stroke-width: 0.8"/>
      </g>
     </g>
     <g id="text_5">
      <!-- 2021-Jul-01 -->
      <g transform="translate(163.640816 221.149815)rotate(-30)scale(0.1 -0.1)">
       <defs>
        <path id="DejaVuSans-6c" d="M 603 4863 
L 1178 4863 
L 1178 0 
L 603 0 
L 603 4863 
z
" transform="scale(0.015625)"/>
       </defs>
       <use xlink:href="#DejaVuSans-32"/>
       <use xlink:href="#DejaVuSans-30" x="63.623047"/>
       <use xlink:href="#DejaVuSans-32" x="127.246094"/>
       <use xlink:href="#DejaVuSans-31" x="190.869141"/>
       <use xlink:href="#DejaVuSans-2d" x="254.492188"/>
       <use xlink:href="#DejaVuSans-4a" x="296.201172"/>
       <use xlink:href="#DejaVuSans-75" x="325.693359"/>
       <use xlink:href="#DejaVuSans-6c" x="389.072266"/>
       <use xlink:href="#DejaVuSans-2d" x="416.855469"/>
       <use xlink:href="#DejaVuSans-30" x="452.939453"/>
       <use xlink:href="#DejaVuSans-31" x="516.5625"/>
      </g>
     </g>
    </g>
    <g id="xtick_6">
     <g id="line2d_6">
      <g>
       <use xlink:href="#mf44a0aa7f5" x="252.479696" y="178.56" style="stroke: #000000; stroke-width: 0.8"/>
      </g>
     </g>
     <g id="text_6">
      <!-- 2021-Aug-01 -->
      <g transform="translate(195.414774 224.486534)rotate(-30)scale(0.1 -0.1)">
       <defs>
        <path id="DejaVuSans-67" d="M 2906 1791 
Q 2906 2416 2648 2759 
Q 2391 3103 1925 3103 
Q 1463 3103 1205 2759 
Q 947 2416 947 1791 
Q 947 1169 1205 825 
Q 1463 481 1925 481 
Q 2391 481 2648 825 
Q 2906 1169 2906 1791 
z
M 3481 434 
Q 3481 -459 3084 -895 
Q 2688 -1331 1869 -1331 
Q 1566 -1331 1297 -1286 
Q 1028 -1241 775 -1147 
L 775 -588 
Q 1028 -725 1275 -790 
Q 1522 -856 1778 -856 
Q 2344 -856 2625 -561 
Q 2906 -266 2906 331 
L 2906 616 
Q 2728 306 2450 153 
Q 2172 0 1784 0 
Q 1141 0 747 490 
Q 353 981 353 1791 
Q 353 2603 747 3093 
Q 1141 3584 1784 3584 
Q 2172 3584 2450 3431 
Q 2728 3278 2906 2969 
L 2906 3500 
L 3481 3500 
L 3481 434 
z
" transform="scale(0.015625)"/>
       </defs>
       <use xlink:href="#DejaVuSans-32"/>
       <use xlink:href="#DejaVuSans-30" x="63.623047"/>
       <use xlink:href="#DejaVuSans-32" x="127.246094"/>
       <use xlink:href="#DejaVuSans-31" x="190.869141"/>
       <use xlink:href="#DejaVuSans-2d" x="254.492188"/>
       <use xlink:href="#DejaVuSans-41" x="288.326172"/>
       <use xlink:href="#DejaVuSans-75" x="356.734375"/>
       <use xlink:href="#DejaVuSans-67" x="420.113281"/>
       <use xlink:href="#DejaVuSans-2d" x="483.589844"/>
       <use xlink:href="#DejaVuSans-30" x="519.673828"/>
       <use xlink:href="#DejaVuSans-31" x="583.296875"/>
      </g>
     </g>
    </g>
    <g id="xtick_7">
     <g id="line2d_7">
      <g>
       <use xlink:href="#mf44a0aa7f5" x="290.03302" y="178.56" style="stroke: #000000; stroke-width: 0.8"/>
      </g>
     </g>
     <g id="text_7">
      <!-- 2021-Sep-01 -->
      <g transform="translate(233.359163 224.260752)rotate(-30)scale(0.1 -0.1)">
       <defs>
        <path id="DejaVuSans-53" d="M 3425 4513 
L 3425 3897 
Q 3066 4069 2747 4153 
Q 2428 4238 2131 4238 
Q 1616 4238 1336 4038 
Q 1056 3838 1056 3469 
Q 1056 3159 1242 3001 
Q 1428 2844 1947 2747 
L 2328 2669 
Q 3034 2534 3370 2195 
Q 3706 1856 3706 1288 
Q 3706 609 3251 259 
Q 2797 -91 1919 -91 
Q 1588 -91 1214 -16 
Q 841 59 441 206 
L 441 856 
Q 825 641 1194 531 
Q 1563 422 1919 422 
Q 2459 422 2753 634 
Q 3047 847 3047 1241 
Q 3047 1584 2836 1778 
Q 2625 1972 2144 2069 
L 1759 2144 
Q 1053 2284 737 2584 
Q 422 2884 422 3419 
Q 422 4038 858 4394 
Q 1294 4750 2059 4750 
Q 2388 4750 2728 4690 
Q 3069 4631 3425 4513 
z
" transform="scale(0.015625)"/>
        <path id="DejaVuSans-65" d="M 3597 1894 
L 3597 1613 
L 953 1613 
Q 991 1019 1311 708 
Q 1631 397 2203 397 
Q 2534 397 2845 478 
Q 3156 559 3463 722 
L 3463 178 
Q 3153 47 2828 -22 
Q 2503 -91 2169 -91 
Q 1331 -91 842 396 
Q 353 884 353 1716 
Q 353 2575 817 3079 
Q 1281 3584 2069 3584 
Q 2775 3584 3186 3129 
Q 3597 2675 3597 1894 
z
M 3022 2063 
Q 3016 2534 2758 2815 
Q 2500 3097 2075 3097 
Q 1594 3097 1305 2825 
Q 1016 2553 972 2059 
L 3022 2063 
z
" transform="scale(0.015625)"/>
       </defs>
       <use xlink:href="#DejaVuSans-32"/>
       <use xlink:href="#DejaVuSans-30" x="63.623047"/>
       <use xlink:href="#DejaVuSans-32" x="127.246094"/>
       <use xlink:href="#DejaVuSans-31" x="190.869141"/>
       <use xlink:href="#DejaVuSans-2d" x="254.492188"/>
       <use xlink:href="#DejaVuSans-53" x="290.576172"/>
       <use xlink:href="#DejaVuSans-65" x="354.052734"/>
       <use xlink:href="#DejaVuSans-70" x="415.576172"/>
       <use xlink:href="#DejaVuSans-2d" x="479.052734"/>
       <use xlink:href="#DejaVuSans-30" x="515.136719"/>
       <use xlink:href="#DejaVuSans-31" x="578.759766"/>
      </g>
     </g>
    </g>
    <g id="xtick_8">
     <g id="line2d_8">
      <g>
       <use xlink:href="#mf44a0aa7f5" x="326.374947" y="178.56" style="stroke: #000000; stroke-width: 0.8"/>
      </g>
     </g>
     <g id="text_8">
      <!-- 2021-Oct-01 -->
      <g transform="translate(270.813391 223.618565)rotate(-30)scale(0.1 -0.1)">
       <defs>
        <path id="DejaVuSans-4f" d="M 2522 4238 
Q 1834 4238 1429 3725 
Q 1025 3213 1025 2328 
Q 1025 1447 1429 934 
Q 1834 422 2522 422 
Q 3209 422 3611 934 
Q 4013 1447 4013 2328 
Q 4013 3213 3611 3725 
Q 3209 4238 2522 4238 
z
M 2522 4750 
Q 3503 4750 4090 4092 
Q 4678 3434 4678 2328 
Q 4678 1225 4090 567 
Q 3503 -91 2522 -91 
Q 1538 -91 948 565 
Q 359 1222 359 2328 
Q 359 3434 948 4092 
Q 1538 4750 2522 4750 
z
" transform="scale(0.015625)"/>
        <path id="DejaVuSans-63" d="M 3122 3366 
L 3122 2828 
Q 2878 2963 2633 3030 
Q 2388 3097 2138 3097 
Q 1578 3097 1268 2742 
Q 959 2388 959 1747 
Q 959 1106 1268 751 
Q 1578 397 2138 397 
Q 2388 397 2633 464 
Q 2878 531 3122 666 
L 3122 134 
Q 2881 22 2623 -34 
Q 2366 -91 2075 -91 
Q 1284 -91 818 406 
Q 353 903 353 1747 
Q 353 2603 823 3093 
Q 1294 3584 2113 3584 
Q 2378 3584 2631 3529 
Q 2884 3475 3122 3366 
z
" transform="scale(0.015625)"/>
        <path id="DejaVuSans-74" d="M 1172 4494 
L 1172 3500 
L 2356 3500 
L 2356 3053 
L 1172 3053 
L 1172 1153 
Q 1172 725 1289 603 
Q 1406 481 1766 481 
L 2356 481 
L 2356 0 
L 1766 0 
Q 1100 0 847 248 
Q 594 497 594 1153 
L 594 3053 
L 172 3053 
L 172 3500 
L 594 3500 
L 594 4494 
L 1172 4494 
z
" transform="scale(0.015625)"/>
       </defs>
       <use xlink:href="#DejaVuSans-32"/>
       <use xlink:href="#DejaVuSans-30" x="63.623047"/>
       <use xlink:href="#DejaVuSans-32" x="127.246094"/>
       <use xlink:href="#DejaVuSans-31" x="190.869141"/>
       <use xlink:href="#DejaVuSans-2d" x="254.492188"/>
       <use xlink:href="#DejaVuSans-4f" x="293.326172"/>
       <use xlink:href="#DejaVuSans-63" x="372.037109"/>
       <use xlink:href="#DejaVuSans-74" x="427.017578"/>
       <use xlink:href="#DejaVuSans-2d" x="466.226562"/>
       <use xlink:href="#DejaVuSans-30" x="502.310547"/>
       <use xlink:href="#DejaVuSans-31" x="565.933594"/>
      </g>
     </g>
    </g>
    <g id="xtick_9">
     <g id="line2d_9">
      <g>
       <use xlink:href="#mf44a0aa7f5" x="363.928271" y="178.56" style="stroke: #000000; stroke-width: 0.8"/>
      </g>
     </g>
     <g id="text_9">
      <!-- 2021-Nov-01 -->
      <g transform="translate(306.902591 224.463877)rotate(-30)scale(0.1 -0.1)">
       <defs>
        <path id="DejaVuSans-4e" d="M 628 4666 
L 1478 4666 
L 3547 763 
L 3547 4666 
L 4159 4666 
L 4159 0 
L 3309 0 
L 1241 3903 
L 1241 0 
L 628 0 
L 628 4666 
z
" transform="scale(0.015625)"/>
        <path id="DejaVuSans-6f" d="M 1959 3097 
Q 1497 3097 1228 2736 
Q 959 2375 959 1747 
Q 959 1119 1226 758 
Q 1494 397 1959 397 
Q 2419 397 2687 759 
Q 2956 1122 2956 1747 
Q 2956 2369 2687 2733 
Q 2419 3097 1959 3097 
z
M 1959 3584 
Q 2709 3584 3137 3096 
Q 3566 2609 3566 1747 
Q 3566 888 3137 398 
Q 2709 -91 1959 -91 
Q 1206 -91 779 398 
Q 353 888 353 1747 
Q 353 2609 779 3096 
Q 1206 3584 1959 3584 
z
" transform="scale(0.015625)"/>
        <path id="DejaVuSans-76" d="M 191 3500 
L 800 3500 
L 1894 563 
L 2988 3500 
L 3597 3500 
L 2284 0 
L 1503 0 
L 191 3500 
z
" transform="scale(0.015625)"/>
       </defs>
       <use xlink:href="#DejaVuSans-32"/>
       <use xlink:href="#DejaVuSans-30" x="63.623047"/>
       <use xlink:href="#DejaVuSans-32" x="127.246094"/>
       <use xlink:href="#DejaVuSans-31" x="190.869141"/>
       <use xlink:href="#DejaVuSans-2d" x="254.492188"/>
       <use xlink:href="#DejaVuSans-4e" x="290.576172"/>
       <use xlink:href="#DejaVuSans-6f" x="365.380859"/>
       <use xlink:href="#DejaVuSans-76" x="426.5625"/>
       <use xlink:href="#DejaVuSans-2d" x="483.117188"/>
       <use xlink:href="#DejaVuSans-30" x="519.201172"/>
       <use xlink:href="#DejaVuSans-31" x="582.824219"/>
      </g>
     </g>
    </g>
    <g id="xtick_10">
     <g id="line2d_10">
      <g>
       <use xlink:href="#mf44a0aa7f5" x="400.270198" y="178.56" style="stroke: #000000; stroke-width: 0.8"/>
      </g>
     </g>
     <g id="text_10">
      <!-- 2021-Dec-01 -->
      <g transform="translate(343.161975 224.511534)rotate(-30)scale(0.1 -0.1)">
       <defs>
        <path id="DejaVuSans-44" d="M 1259 4147 
L 1259 519 
L 2022 519 
Q 2988 519 3436 956 
Q 3884 1394 3884 2338 
Q 3884 3275 3436 3711 
Q 2988 4147 2022 4147 
L 1259 4147 
z
M 628 4666 
L 1925 4666 
Q 3281 4666 3915 4102 
Q 4550 3538 4550 2338 
Q 4550 1131 3912 565 
Q 3275 0 1925 0 
L 628 0 
L 628 4666 
z
" transform="scale(0.015625)"/>
       </defs>
       <use xlink:href="#DejaVuSans-32"/>
       <use xlink:href="#DejaVuSans-30" x="63.623047"/>
       <use xlink:href="#DejaVuSans-32" x="127.246094"/>
       <use xlink:href="#DejaVuSans-31" x="190.869141"/>
       <use xlink:href="#DejaVuSans-2d" x="254.492188"/>
       <use xlink:href="#DejaVuSans-44" x="290.576172"/>
       <use xlink:href="#DejaVuSans-65" x="367.578125"/>
       <use xlink:href="#DejaVuSans-63" x="429.101562"/>
       <use xlink:href="#DejaVuSans-2d" x="484.082031"/>
       <use xlink:href="#DejaVuSans-30" x="520.166016"/>
       <use xlink:href="#DejaVuSans-31" x="583.789062"/>
      </g>
     </g>
    </g>
    <g id="xtick_11">
     <g id="line2d_11">
      <g>
       <use xlink:href="#mf44a0aa7f5" x="437.823522" y="178.56" style="stroke: #000000; stroke-width: 0.8"/>
      </g>
     </g>
     <g id="text_11">
      <!-- 2022-Jan-01 -->
      <g transform="translate(383.636782 222.824815)rotate(-30)scale(0.1 -0.1)">
       <use xlink:href="#DejaVuSans-32"/>
       <use xlink:href="#DejaVuSans-30" x="63.623047"/>
       <use xlink:href="#DejaVuSans-32" x="127.246094"/>
       <use xlink:href="#DejaVuSans-32" x="190.869141"/>
       <use xlink:href="#DejaVuSans-2d" x="254.492188"/>
       <use xlink:href="#DejaVuSans-4a" x="296.201172"/>
       <use xlink:href="#DejaVuSans-61" x="325.693359"/>
       <use xlink:href="#DejaVuSans-6e" x="386.972656"/>
       <use xlink:href="#DejaVuSans-2d" x="450.351562"/>
       <use xlink:href="#DejaVuSans-30" x="486.435547"/>
       <use xlink:href="#DejaVuSans-31" x="550.058594"/>
      </g>
     </g>
    </g>
    <g id="xtick_12">
     <g id="line2d_12">
      <g>
       <use xlink:href="#mf44a0aa7f5" x="475.376846" y="178.56" style="stroke: #000000; stroke-width: 0.8"/>
      </g>
     </g>
     <g id="text_12">
      <!-- 2022-Feb-01 -->
      <g transform="translate(419.696212 223.687315)rotate(-30)scale(0.1 -0.1)">
       <defs>
        <path id="DejaVuSans-46" d="M 628 4666 
L 3309 4666 
L 3309 4134 
L 1259 4134 
L 1259 2759 
L 3109 2759 
L 3109 2228 
L 1259 2228 
L 1259 0 
L 628 0 
L 628 4666 
z
" transform="scale(0.015625)"/>
        <path id="DejaVuSans-62" d="M 3116 1747 
Q 3116 2381 2855 2742 
Q 2594 3103 2138 3103 
Q 1681 3103 1420 2742 
Q 1159 2381 1159 1747 
Q 1159 1113 1420 752 
Q 1681 391 2138 391 
Q 2594 391 2855 752 
Q 3116 1113 3116 1747 
z
M 1159 2969 
Q 1341 3281 1617 3432 
Q 1894 3584 2278 3584 
Q 2916 3584 3314 3078 
Q 3713 2572 3713 1747 
Q 3713 922 3314 415 
Q 2916 -91 2278 -91 
Q 1894 -91 1617 61 
Q 1341 213 1159 525 
L 1159 0 
L 581 0 
L 581 4863 
L 1159 4863 
L 1159 2969 
z
" transform="scale(0.015625)"/>
       </defs>
       <use xlink:href="#DejaVuSans-32"/>
       <use xlink:href="#DejaVuSans-30" x="63.623047"/>
       <use xlink:href="#DejaVuSans-32" x="127.246094"/>
       <use xlink:href="#DejaVuSans-32" x="190.869141"/>
       <use xlink:href="#DejaVuSans-2d" x="254.492188"/>
       <use xlink:href="#DejaVuSans-46" x="290.576172"/>
       <use xlink:href="#DejaVuSans-65" x="342.595703"/>
       <use xlink:href="#DejaVuSans-62" x="404.119141"/>
       <use xlink:href="#DejaVuSans-2d" x="467.595703"/>
       <use xlink:href="#DejaVuSans-30" x="503.679688"/>
       <use xlink:href="#DejaVuSans-31" x="567.302734"/>
      </g>
     </g>
    </g>
   </g>
   <g id="matplotlib.axis_2">
    <g id="ytick_1">
     <g id="line2d_13">
      <path d="M 49.267755 178.56 
L 495.667755 178.56 
" clip-path="url(#pbcc072a77e)" style="fill: none; stroke: #b0b0b0; stroke-width: 0.8; stroke-linecap: square"/>
     </g>
     <g id="line2d_14">
      <defs>
       <path id="m5c39db550e" d="M 0 0 
L -3.5 0 
" style="stroke: #000000; stroke-width: 0.8"/>
      </defs>
      <g>
       <use xlink:href="#m5c39db550e" x="49.267755" y="178.56" style="stroke: #000000; stroke-width: 0.8"/>
      </g>
     </g>
     <g id="text_13">
      <!-- 0 -->
      <g transform="translate(35.905255 182.359219)scale(0.1 -0.1)">
       <use xlink:href="#DejaVuSans-30"/>
      </g>
     </g>
    </g>
    <g id="ytick_2">
     <g id="line2d_15">
      <path d="M 49.267755 140.48 
L 495.667755 140.48 
" clip-path="url(#pbcc072a77e)" style="fill: none; stroke: #b0b0b0; stroke-width: 0.8; stroke-linecap: square"/>
     </g>
     <g id="line2d_16">
      <g>
       <use xlink:href="#m5c39db550e" x="49.267755" y="140.48" style="stroke: #000000; stroke-width: 0.8"/>
      </g>
     </g>
     <g id="text_14">
      <!-- 10 -->
      <g transform="translate(29.542755 144.279219)scale(0.1 -0.1)">
       <use xlink:href="#DejaVuSans-31"/>
       <use xlink:href="#DejaVuSans-30" x="63.623047"/>
      </g>
     </g>
    </g>
    <g id="ytick_3">
     <g id="line2d_17">
      <path d="M 49.267755 102.4 
L 495.667755 102.4 
" clip-path="url(#pbcc072a77e)" style="fill: none; stroke: #b0b0b0; stroke-width: 0.8; stroke-linecap: square"/>
     </g>
     <g id="line2d_18">
      <g>
       <use xlink:href="#m5c39db550e" x="49.267755" y="102.4" style="stroke: #000000; stroke-width: 0.8"/>
      </g>
     </g>
     <g id="text_15">
      <!-- 20 -->
      <g transform="translate(29.542755 106.199219)scale(0.1 -0.1)">
       <use xlink:href="#DejaVuSans-32"/>
       <use xlink:href="#DejaVuSans-30" x="63.623047"/>
      </g>
     </g>
    </g>
    <g id="ytick_4">
     <g id="line2d_19">
      <path d="M 49.267755 64.32 
L 495.667755 64.32 
" clip-path="url(#pbcc072a77e)" style="fill: none; stroke: #b0b0b0; stroke-width: 0.8; stroke-linecap: square"/>
     </g>
     <g id="line2d_20">
      <g>
       <use xlink:href="#m5c39db550e" x="49.267755" y="64.32" style="stroke: #000000; stroke-width: 0.8"/>
      </g>
     </g>
     <g id="text_16">
      <!-- 30 -->
      <g transform="translate(29.542755 68.119219)scale(0.1 -0.1)">
       <defs>
        <path id="DejaVuSans-33" d="M 2597 2516 
Q 3050 2419 3304 2112 
Q 3559 1806 3559 1356 
Q 3559 666 3084 287 
Q 2609 -91 1734 -91 
Q 1441 -91 1130 -33 
Q 819 25 488 141 
L 488 750 
Q 750 597 1062 519 
Q 1375 441 1716 441 
Q 2309 441 2620 675 
Q 2931 909 2931 1356 
Q 2931 1769 2642 2001 
Q 2353 2234 1838 2234 
L 1294 2234 
L 1294 2753 
L 1863 2753 
Q 2328 2753 2575 2939 
Q 2822 3125 2822 3475 
Q 2822 3834 2567 4026 
Q 2313 4219 1838 4219 
Q 1578 4219 1281 4162 
Q 984 4106 628 3988 
L 628 4550 
Q 988 4650 1302 4700 
Q 1616 4750 1894 4750 
Q 2613 4750 3031 4423 
Q 3450 4097 3450 3541 
Q 3450 3153 3228 2886 
Q 3006 2619 2597 2516 
z
" transform="scale(0.015625)"/>
       </defs>
       <use xlink:href="#DejaVuSans-33"/>
       <use xlink:href="#DejaVuSans-30" x="63.623047"/>
      </g>
     </g>
    </g>
    <g id="ytick_5">
     <g id="line2d_21">
      <path d="M 49.267755 26.24 
L 495.667755 26.24 
" clip-path="url(#pbcc072a77e)" style="fill: none; stroke: #b0b0b0; stroke-width: 0.8; stroke-linecap: square"/>
     </g>
     <g id="line2d_22">
      <g>
       <use xlink:href="#m5c39db550e" x="49.267755" y="26.24" style="stroke: #000000; stroke-width: 0.8"/>
      </g>
     </g>
     <g id="text_17">
      <!-- 40 -->
      <g transform="translate(29.542755 30.039219)scale(0.1 -0.1)">
       <defs>
        <path id="DejaVuSans-34" d="M 2419 4116 
L 825 1625 
L 2419 1625 
L 2419 4116 
z
M 2253 4666 
L 3047 4666 
L 3047 1625 
L 3713 1625 
L 3713 1100 
L 3047 1100 
L 3047 0 
L 2419 0 
L 2419 1100 
L 313 1100 
L 313 1709 
L 2253 4666 
z
" transform="scale(0.015625)"/>
       </defs>
       <use xlink:href="#DejaVuSans-34"/>
       <use xlink:href="#DejaVuSans-30" x="63.623047"/>
      </g>
     </g>
    </g>
    <g id="text_18">
     <!-- Percentage Of Domains -->
     <g transform="translate(23.463068 151.883125)rotate(-90)scale(0.1 -0.1)">
      <defs>
       <path id="DejaVuSans-50" d="M 1259 4147 
L 1259 2394 
L 2053 2394 
Q 2494 2394 2734 2622 
Q 2975 2850 2975 3272 
Q 2975 3691 2734 3919 
Q 2494 4147 2053 4147 
L 1259 4147 
z
M 628 4666 
L 2053 4666 
Q 2838 4666 3239 4311 
Q 3641 3956 3641 3272 
Q 3641 2581 3239 2228 
Q 2838 1875 2053 1875 
L 1259 1875 
L 1259 0 
L 628 0 
L 628 4666 
z
" transform="scale(0.015625)"/>
       <path id="DejaVuSans-20" transform="scale(0.015625)"/>
       <path id="DejaVuSans-66" d="M 2375 4863 
L 2375 4384 
L 1825 4384 
Q 1516 4384 1395 4259 
Q 1275 4134 1275 3809 
L 1275 3500 
L 2222 3500 
L 2222 3053 
L 1275 3053 
L 1275 0 
L 697 0 
L 697 3053 
L 147 3053 
L 147 3500 
L 697 3500 
L 697 3744 
Q 697 4328 969 4595 
Q 1241 4863 1831 4863 
L 2375 4863 
z
" transform="scale(0.015625)"/>
       <path id="DejaVuSans-6d" d="M 3328 2828 
Q 3544 3216 3844 3400 
Q 4144 3584 4550 3584 
Q 5097 3584 5394 3201 
Q 5691 2819 5691 2113 
L 5691 0 
L 5113 0 
L 5113 2094 
Q 5113 2597 4934 2840 
Q 4756 3084 4391 3084 
Q 3944 3084 3684 2787 
Q 3425 2491 3425 1978 
L 3425 0 
L 2847 0 
L 2847 2094 
Q 2847 2600 2669 2842 
Q 2491 3084 2119 3084 
Q 1678 3084 1418 2786 
Q 1159 2488 1159 1978 
L 1159 0 
L 581 0 
L 581 3500 
L 1159 3500 
L 1159 2956 
Q 1356 3278 1631 3431 
Q 1906 3584 2284 3584 
Q 2666 3584 2933 3390 
Q 3200 3197 3328 2828 
z
" transform="scale(0.015625)"/>
       <path id="DejaVuSans-69" d="M 603 3500 
L 1178 3500 
L 1178 0 
L 603 0 
L 603 3500 
z
M 603 4863 
L 1178 4863 
L 1178 4134 
L 603 4134 
L 603 4863 
z
" transform="scale(0.015625)"/>
       <path id="DejaVuSans-73" d="M 2834 3397 
L 2834 2853 
Q 2591 2978 2328 3040 
Q 2066 3103 1784 3103 
Q 1356 3103 1142 2972 
Q 928 2841 928 2578 
Q 928 2378 1081 2264 
Q 1234 2150 1697 2047 
L 1894 2003 
Q 2506 1872 2764 1633 
Q 3022 1394 3022 966 
Q 3022 478 2636 193 
Q 2250 -91 1575 -91 
Q 1294 -91 989 -36 
Q 684 19 347 128 
L 347 722 
Q 666 556 975 473 
Q 1284 391 1588 391 
Q 1994 391 2212 530 
Q 2431 669 2431 922 
Q 2431 1156 2273 1281 
Q 2116 1406 1581 1522 
L 1381 1569 
Q 847 1681 609 1914 
Q 372 2147 372 2553 
Q 372 3047 722 3315 
Q 1072 3584 1716 3584 
Q 2034 3584 2315 3537 
Q 2597 3491 2834 3397 
z
" transform="scale(0.015625)"/>
      </defs>
      <use xlink:href="#DejaVuSans-50"/>
      <use xlink:href="#DejaVuSans-65" x="56.677734"/>
      <use xlink:href="#DejaVuSans-72" x="118.201172"/>
      <use xlink:href="#DejaVuSans-63" x="157.064453"/>
      <use xlink:href="#DejaVuSans-65" x="212.044922"/>
      <use xlink:href="#DejaVuSans-6e" x="273.568359"/>
      <use xlink:href="#DejaVuSans-74" x="336.947266"/>
      <use xlink:href="#DejaVuSans-61" x="376.15625"/>
      <use xlink:href="#DejaVuSans-67" x="437.435547"/>
      <use xlink:href="#DejaVuSans-65" x="500.912109"/>
      <use xlink:href="#DejaVuSans-20" x="562.435547"/>
      <use xlink:href="#DejaVuSans-4f" x="594.222656"/>
      <use xlink:href="#DejaVuSans-66" x="672.933594"/>
      <use xlink:href="#DejaVuSans-20" x="708.138672"/>
      <use xlink:href="#DejaVuSans-44" x="739.925781"/>
      <use xlink:href="#DejaVuSans-6f" x="816.927734"/>
      <use xlink:href="#DejaVuSans-6d" x="878.109375"/>
      <use xlink:href="#DejaVuSans-61" x="975.521484"/>
      <use xlink:href="#DejaVuSans-69" x="1036.800781"/>
      <use xlink:href="#DejaVuSans-6e" x="1064.583984"/>
      <use xlink:href="#DejaVuSans-73" x="1127.962891"/>
     </g>
    </g>
   </g>
   <g id="line2d_23">
    <path d="M 69.558664 125.506825 
L 70.770062 125.579642 
L 71.98146 126.149941 
L 73.192857 125.895552 
L 74.404255 126.322792 
L 75.615652 125.969736 
L 76.82705 126.253581 
L 80.461242 126.421125 
L 81.67264 127.058122 
L 82.884038 126.829989 
L 84.095435 126.77673 
L 99.843603 126.783558 
L 101.055001 127.046397 
L 102.266398 127.029594 
L 103.477796 126.5238 
L 104.689194 127.342286 
L 105.900591 127.201546 
L 107.111989 127.611901 
L 108.323386 127.275526 
L 109.534784 127.479131 
L 113.168977 127.580118 
L 115.591772 128.13675 
L 120.437362 127.611432 
L 121.648759 128.048 
L 122.860157 127.511129 
L 124.071555 127.753131 
L 125.282952 127.80532 
L 126.49435 128.423849 
L 127.705747 128.024655 
L 128.917145 128.434172 
L 132.551337 128.095217 
L 133.762735 128.209963 
L 134.974133 127.883194 
L 136.18553 127.927931 
L 138.608325 127.392787 
L 143.453915 127.627445 
L 144.665313 126.963796 
L 145.876711 127.591129 
L 147.088108 127.3572 
L 148.299506 127.241034 
L 149.510903 127.900839 
L 150.722301 127.230459 
L 151.933698 127.285614 
L 153.145096 127.679159 
L 154.356493 127.37213 
L 155.567891 127.234299 
L 156.779289 128.036709 
L 157.990686 128.080579 
L 159.202084 127.805076 
L 160.413481 127.660715 
L 161.624879 128.091866 
L 162.836276 128.204905 
L 164.047674 129.009069 
L 165.259071 128.682882 
L 166.470469 128.978086 
L 167.681867 128.49663 
L 168.893264 129.104037 
L 170.104662 128.472005 
L 171.316059 129.190942 
L 173.738854 129.096946 
L 174.950252 129.26462 
L 176.16165 128.630697 
L 177.373047 128.20537 
L 178.584445 128.601134 
L 181.00724 128.735701 
L 182.218637 128.470532 
L 183.430035 128.653031 
L 184.641432 128.063559 
L 185.85283 128.019538 
L 187.064228 127.317212 
L 188.275625 128.213455 
L 189.487023 128.180735 
L 190.69842 128.035768 
L 191.909818 128.067182 
L 193.121215 128.942248 
L 195.54401 127.992622 
L 196.755408 128.470361 
L 197.966806 128.113287 
L 199.178203 127.55663 
L 200.389601 127.57061 
L 201.600998 128.006075 
L 202.812396 128.076984 
L 204.023793 127.77232 
L 206.446588 128.039714 
L 210.080781 127.650622 
L 212.503576 128.012278 
L 217.349166 127.675148 
L 218.560564 127.854632 
L 252.479696 131.991579 
L 253.691093 133.004662 
L 256.113888 133.466674 
L 257.325286 132.101439 
L 258.536683 132.838241 
L 260.959479 132.654757 
L 262.170876 132.123585 
L 263.382274 133.028983 
L 264.593671 133.123939 
L 265.805069 133.349652 
L 267.016466 132.33942 
L 268.227864 133.196242 
L 269.439261 131.605491 
L 270.650659 132.488165 
L 271.862057 132.139174 
L 273.073454 132.455601 
L 274.284852 131.920612 
L 296.090008 132.48134 
L 297.301405 131.447462 
L 300.935598 131.928181 
L 302.146996 132.577604 
L 303.358393 132.265204 
L 304.569791 132.599541 
L 305.781188 134.48248 
L 306.992586 133.417968 
L 309.415381 132.861894 
L 310.626778 134.212337 
L 311.838176 132.9892 
L 313.049574 134.682683 
L 314.260971 133.406267 
L 315.472369 133.608104 
L 316.683766 133.691688 
L 317.895164 134.022911 
L 321.529356 133.059903 
L 322.740754 132.868226 
L 323.952152 133.2975 
L 325.163549 133.433243 
L 326.374947 132.994638 
L 328.797742 133.263333 
L 330.009139 132.608715 
L 331.220537 133.840654 
L 332.431934 131.834124 
L 333.643332 133.697316 
L 334.85473 133.95516 
L 336.066127 132.991022 
L 338.488922 132.326825 
L 339.70032 132.961559 
L 342.123115 132.080395 
L 343.334512 132.65882 
L 344.54591 132.140274 
L 345.757308 132.802495 
L 346.968705 132.474246 
L 348.180103 132.412069 
L 349.3915 132.532731 
L 350.602898 132.972013 
L 351.814295 131.784818 
L 353.025693 131.945562 
L 354.23709 132.399194 
L 355.448488 131.963091 
L 356.659886 132.179825 
L 357.871283 133.154925 
L 359.082681 132.814209 
L 360.294078 133.450887 
L 361.505476 133.461171 
L 362.716873 133.796571 
L 363.928271 132.577192 
L 365.139669 134.150486 
L 366.351066 134.764894 
L 367.562464 134.05693 
L 371.196656 134.714675 
L 372.408054 133.987334 
L 373.619451 134.475472 
L 374.830849 133.32303 
L 378.465042 133.040734 
L 379.676439 132.54452 
L 380.887837 134.04823 
L 382.099234 133.524115 
L 383.310632 133.543147 
L 384.522029 134.105034 
L 385.733427 132.576409 
L 386.944825 133.349931 
L 388.156222 133.324579 
L 389.36762 132.866054 
L 390.579017 133.229122 
L 391.790415 132.703135 
L 393.001812 133.333247 
L 394.21321 131.349525 
L 395.424607 131.077145 
L 396.636005 132.861916 
L 397.847403 133.573817 
L 399.0588 132.454876 
L 400.270198 132.601379 
L 401.481595 133.27456 
L 403.90439 132.644956 
L 405.115788 131.498372 
L 406.327185 131.249442 
L 407.538583 132.51843 
L 408.749981 131.681902 
L 409.961378 132.238027 
L 411.172776 132.018362 
L 412.384173 132.791516 
L 416.018366 133.674829 
L 417.229763 132.013155 
L 418.441161 133.017712 
L 419.652559 132.676129 
L 423.286751 132.604112 
L 424.498149 132.718637 
L 425.709546 132.986092 
L 426.920944 132.049275 
L 428.132342 131.383546 
L 429.343739 131.90914 
L 430.555137 131.934632 
L 431.766534 132.789017 
L 432.977932 131.842814 
L 434.189329 131.862588 
L 435.400727 130.406205 
L 439.03492 130.389418 
L 441.457715 129.810636 
L 442.669112 131.087398 
L 443.88051 129.405328 
L 445.091907 129.195026 
L 446.303305 129.94493 
L 447.514702 130.460085 
L 448.7261 129.869307 
L 449.937498 128.990345 
L 451.148895 130.071036 
L 452.360293 129.56316 
L 453.57169 129.784691 
L 454.783088 128.481603 
L 455.994485 128.866718 
L 457.205883 130.069216 
L 458.41728 130.691377 
L 459.628678 128.429791 
L 462.051473 130.452195 
L 463.262871 129.052659 
L 464.474268 129.747822 
L 465.685666 129.443647 
L 466.897063 129.826667 
L 468.108461 128.961605 
L 469.319858 130.706026 
L 470.531256 129.391069 
L 471.742654 129.417654 
L 472.954051 130.581854 
L 474.165449 129.862979 
L 475.376846 130.07489 
L 475.376846 130.07489 
" clip-path="url(#pbcc072a77e)" style="fill: none; stroke: #1f77b4; stroke-width: 1.5; stroke-linecap: square"/>
   </g>
   <g id="line2d_24">
    <path d="M 69.558664 176.920388 
L 70.770062 177.031155 
L 71.98146 176.760762 
L 73.192857 176.641759 
L 74.404255 176.942033 
L 81.67264 176.99053 
L 82.884038 176.708367 
L 84.095435 176.947173 
L 102.266398 176.848026 
L 103.477796 176.620054 
L 105.900591 176.69139 
L 107.111989 177.078288 
L 108.323386 176.799403 
L 109.534784 176.928563 
L 110.746181 176.870309 
L 111.957579 176.979449 
L 113.168977 176.813728 
L 114.380374 176.811141 
L 115.591772 177.035445 
L 120.437362 176.714443 
L 121.648759 176.768 
L 122.860157 176.940287 
L 125.282952 177.049111 
L 126.49435 177.218565 
L 127.705747 176.942423 
L 128.917145 177.108695 
L 132.551337 177.110183 
L 133.762735 176.889092 
L 137.396928 176.997286 
L 138.608325 177.11082 
L 147.088108 177.227172 
L 148.299506 177.122184 
L 149.510903 177.234133 
L 151.933698 177.22386 
L 155.567891 177.336636 
L 156.779289 177.401715 
L 159.202084 177.179289 
L 165.259071 177.188242 
L 166.470469 177.252345 
L 167.681867 177.132755 
L 168.893264 177.195321 
L 172.527457 177.029365 
L 174.950252 177.198249 
L 176.16165 177.080207 
L 177.373047 177.237778 
L 181.00724 177.245953 
L 183.430035 177.085724 
L 184.641432 177.084455 
L 185.85283 177.250096 
L 188.275625 177.257934 
L 191.909818 177.265312 
L 193.121215 177.097468 
L 196.755408 177.210602 
L 199.178203 177.050387 
L 202.812396 177.108412 
L 217.349166 177.049103 
L 218.560564 177.218588 
L 257.325286 177.171583 
L 260.959479 177.225545 
L 263.382274 177.327984 
L 264.593671 177.175079 
L 265.805069 177.33522 
L 267.016466 177.120605 
L 269.439261 177.282326 
L 271.862057 177.334192 
L 273.073454 177.1774 
L 274.284852 177.235017 
L 304.569791 177.333677 
L 305.781188 177.44344 
L 306.992586 177.291371 
L 308.203983 177.29049 
L 309.415381 177.138515 
L 311.838176 177.339827 
L 314.260971 177.241258 
L 315.472369 177.347932 
L 317.895164 177.192864 
L 322.740754 177.345074 
L 326.374947 177.190405 
L 328.797742 177.338636 
L 331.220537 177.188888 
L 333.643332 177.387816 
L 336.066127 177.34271 
L 338.488922 177.392227 
L 343.334512 177.18508 
L 344.54591 177.294007 
L 346.968705 177.243264 
L 350.602898 177.236307 
L 351.814295 177.38929 
L 353.025693 177.228159 
L 356.659886 177.434007 
L 357.871283 177.209277 
L 360.294078 177.363334 
L 365.139669 177.222054 
L 366.351066 177.317586 
L 367.562464 177.272295 
L 369.985259 177.377551 
L 386.944825 177.432311 
L 388.156222 177.480518 
L 389.36762 177.379145 
L 391.790415 177.515424 
L 393.001812 177.32514 
L 399.0588 177.458512 
L 401.481595 177.167395 
L 405.115788 177.299421 
L 406.327185 177.19173 
L 407.538583 177.31843 
L 417.229763 177.259809 
L 418.441161 177.10597 
L 419.652559 177.166452 
L 439.03492 177.163751 
L 442.669112 177.058042 
L 443.88051 177.09996 
L 445.091907 176.9851 
L 446.303305 177.206574 
L 452.360293 176.948262 
L 453.57169 177.01073 
L 455.994485 176.923558 
L 460.840076 177.158811 
L 465.685666 177.050387 
L 466.897063 177.102857 
L 468.108461 177.032217 
L 469.319858 177.116361 
L 474.165449 177.06163 
L 475.376846 178.235685 
L 475.376846 178.235685 
" clip-path="url(#pbcc072a77e)" style="fill: none; stroke: #ff7f0e; stroke-width: 1.5; stroke-linecap: square"/>
   </g>
   <g id="line2d_25">
    <path d="M 69.558664 83.872379 
L 70.770062 83.301198 
L 73.192857 83.519853 
L 74.404255 84.25566 
L 75.615652 83.258306 
L 79.249845 84.072727 
L 80.461242 83.418191 
L 81.67264 84.04301 
L 84.095435 83.748807 
L 99.843603 83.588846 
L 101.055001 83.889445 
L 102.266398 83.488398 
L 103.477796 82.932071 
L 104.689194 84.043662 
L 105.900591 83.657279 
L 108.323386 83.998926 
L 109.534784 84.667963 
L 110.746181 84.049957 
L 111.957579 84.517189 
L 113.168977 83.923314 
L 114.380374 84.178015 
L 115.591772 84.771625 
L 119.225964 84.48 
L 120.437362 84.156945 
L 122.860157 84.504969 
L 125.282952 83.765702 
L 126.49435 84.435943 
L 127.705747 84.126955 
L 128.917145 84.392659 
L 133.762735 83.8195 
L 134.974133 83.387844 
L 136.18553 83.429703 
L 138.608325 83.805902 
L 143.453915 84.470852 
L 145.876711 83.650539 
L 147.088108 83.984763 
L 148.299506 83.885356 
L 149.510903 84.147233 
L 150.722301 83.636262 
L 154.356493 83.790267 
L 155.567891 82.970748 
L 156.779289 83.690939 
L 159.202084 82.849137 
L 160.413481 82.87379 
L 161.624879 83.139374 
L 162.836276 83.235084 
L 164.047674 84.751574 
L 165.259071 83.853833 
L 166.470469 84.517819 
L 168.893264 84.724679 
L 170.104662 84.562987 
L 171.316059 85.033063 
L 172.527457 85.136629 
L 173.738854 85.74853 
L 174.950252 85.688594 
L 176.16165 85.004214 
L 177.373047 84.461852 
L 178.584445 84.859857 
L 179.795842 84.992627 
L 181.00724 84.879367 
L 182.218637 84.164814 
L 183.430035 84.479358 
L 184.641432 84.179747 
L 185.85283 83.482803 
L 187.064228 83.332916 
L 188.275625 84.59425 
L 189.487023 84.688624 
L 190.69842 84.009829 
L 191.909818 84.641201 
L 193.121215 84.957952 
L 194.332613 84.701227 
L 195.54401 84.742067 
L 197.966806 84.181038 
L 199.178203 83.56218 
L 200.389601 83.981163 
L 201.600998 84.196271 
L 202.812396 83.77666 
L 204.023793 83.763504 
L 206.446588 84.041623 
L 210.080781 82.970661 
L 212.503576 83.53458 
L 217.349166 82.995766 
L 218.560564 83.58804 
L 252.479696 60.450909 
L 253.691093 60.169403 
L 254.902491 61.189405 
L 256.113888 59.955438 
L 257.325286 61.719389 
L 258.536683 58.245231 
L 259.748081 61.50143 
L 262.170876 60.329036 
L 263.382274 58.090286 
L 264.593671 61.321113 
L 265.805069 59.064097 
L 267.016466 59.090197 
L 268.227864 60.039195 
L 269.439261 60.215473 
L 270.650659 58.815937 
L 271.862057 59.550007 
L 273.073454 60.985806 
L 274.284852 59.576562 
L 296.090008 54.620628 
L 297.301405 57.300548 
L 299.7242 59.271977 
L 300.935598 57.550694 
L 302.146996 56.576713 
L 303.358393 57.202641 
L 304.569791 55.127908 
L 305.781188 58.343748 
L 306.992586 56.983098 
L 308.203983 57.797894 
L 309.415381 56.259654 
L 310.626778 59.421743 
L 311.838176 57.497643 
L 313.049574 58.639265 
L 314.260971 58.34346 
L 315.472369 57.142452 
L 316.683766 56.570979 
L 317.895164 56.621972 
L 321.529356 55.699206 
L 322.740754 56.11661 
L 323.952152 55.84125 
L 325.163549 56.35272 
L 326.374947 58.773142 
L 327.586344 56.017721 
L 328.797742 57.591878 
L 330.009139 56.555084 
L 331.220537 57.26932 
L 332.431934 59.414313 
L 333.643332 56.226601 
L 334.85473 58.542962 
L 336.066127 57.571981 
L 337.277525 56.773562 
L 339.70032 55.762339 
L 340.911717 56.227737 
L 342.123115 57.852572 
L 343.334512 57.038211 
L 346.968705 56.314246 
L 348.180103 53.801454 
L 349.3915 56.51076 
L 350.602898 54.768231 
L 351.814295 55.529033 
L 353.025693 55.444611 
L 354.23709 54.94925 
L 355.448488 55.674695 
L 357.871283 58.761255 
L 359.082681 63.936192 
L 360.294078 56.239902 
L 361.505476 57.311538 
L 362.716873 58.672762 
L 363.928271 57.394002 
L 365.139669 57.578811 
L 366.351066 58.045808 
L 367.562464 58.957998 
L 368.773861 58.103909 
L 369.985259 58.001609 
L 371.196656 57.740625 
L 372.408054 57.724276 
L 373.619451 58.88 
L 374.830849 62.41933 
L 378.465042 59.983853 
L 379.676439 58.703329 
L 380.887837 61.117009 
L 382.099234 58.721361 
L 383.310632 57.061227 
L 384.522029 59.035828 
L 385.733427 63.213083 
L 386.944825 56.769611 
L 388.156222 61.873175 
L 389.36762 61.706717 
L 390.579017 61.132914 
L 391.790415 54.621116 
L 393.001812 58.624208 
L 394.21321 58.741997 
L 395.424607 58.55125 
L 396.636005 55.691034 
L 397.847403 56.728906 
L 399.0588 56.557135 
L 400.270198 57.227173 
L 401.481595 60.188606 
L 405.115788 56.07371 
L 406.327185 56.415611 
L 407.538583 57.765543 
L 408.749981 57.384539 
L 409.961378 58.894904 
L 411.172776 57.70951 
L 412.384173 57.511679 
L 413.595571 57.485658 
L 414.806968 59.003484 
L 416.018366 57.866464 
L 417.229763 56.290019 
L 418.441161 59.173773 
L 419.652559 59.076129 
L 423.286751 57.912587 
L 424.498149 59.362072 
L 425.709546 57.04712 
L 426.920944 56.928679 
L 428.132342 57.777851 
L 429.343739 56.966119 
L 430.555137 55.847893 
L 431.766534 57.024761 
L 432.977932 55.410776 
L 435.400727 56.197673 
L 439.03492 54.669773 
L 440.246317 53.369171 
L 441.457715 53.204492 
L 442.669112 56.418628 
L 443.88051 52.726203 
L 445.091907 54.142886 
L 446.303305 55.073392 
L 447.514702 52.797638 
L 448.7261 54.301782 
L 449.937498 52.885057 
L 451.148895 54.589881 
L 452.360293 52.522077 
L 453.57169 52.641706 
L 454.783088 54.814776 
L 455.994485 54.735906 
L 457.205883 53.180515 
L 458.41728 53.757743 
L 459.628678 51.477967 
L 460.840076 54.770359 
L 462.051473 55.029848 
L 463.262871 53.260205 
L 464.474268 55.36478 
L 465.685666 52.669019 
L 466.897063 54.972698 
L 468.108461 53.663711 
L 469.319858 54.246605 
L 470.531256 52.226953 
L 471.742654 53.94905 
L 472.954051 55.164878 
L 474.165449 53.339089 
L 475.376846 53.806785 
L 475.376846 53.806785 
" clip-path="url(#pbcc072a77e)" style="fill: none; stroke: #2ca02c; stroke-width: 1.5; stroke-linecap: square"/>
   </g>
   <g id="line2d_26">
    <path d="M 69.558664 156.95225 
L 70.770062 156.979765 
L 71.98146 158.187984 
L 73.192857 157.9825 
L 74.404255 157.35308 
L 75.615652 157.640116 
L 79.249845 157.381818 
L 80.461242 157.553154 
L 84.095435 157.70845 
L 99.843603 158.249904 
L 101.055001 157.954559 
L 102.266398 158.130448 
L 104.689194 158.107098 
L 108.323386 158.227949 
L 109.534784 158.251417 
L 110.746181 158.677971 
L 111.957579 158.633762 
L 113.168977 158.337041 
L 114.380374 158.532741 
L 115.591772 158.571388 
L 119.225964 158.512 
L 120.437362 159.041833 
L 121.648759 159.072 
L 122.860157 158.62078 
L 124.071555 159.276865 
L 125.282952 159.086319 
L 127.705747 159.26063 
L 128.917145 158.967388 
L 132.551337 159.21052 
L 133.762735 159.06607 
L 134.974133 159.625809 
L 136.18553 159.489331 
L 137.396928 159.47256 
L 138.608325 159.219016 
L 143.453915 159.231179 
L 144.665313 159.433821 
L 145.876711 159.412085 
L 147.088108 159.233997 
L 148.299506 158.872983 
L 149.510903 159.058709 
L 150.722301 159.055879 
L 151.933698 158.684912 
L 153.145096 158.541308 
L 159.202084 159.009137 
L 160.413481 159.222717 
L 161.624879 158.924311 
L 162.836276 158.35134 
L 164.047674 159.4054 
L 165.259071 159.245648 
L 166.470469 159.217605 
L 167.681867 158.907931 
L 168.893264 158.963211 
L 170.104662 158.710718 
L 171.316059 158.97694 
L 172.527457 158.716417 
L 173.738854 158.905806 
L 174.950252 158.623968 
L 177.373047 158.671574 
L 178.584445 159.252753 
L 179.795842 158.858717 
L 181.00724 158.63028 
L 182.218637 159.408144 
L 183.430035 158.575371 
L 184.641432 158.120964 
L 185.85283 158.201909 
L 187.064228 158.788734 
L 188.275625 158.866254 
L 189.487023 158.549291 
L 190.69842 159.173424 
L 191.909818 159.247576 
L 193.121215 159.167909 
L 194.332613 159.268012 
L 195.54401 158.940074 
L 199.178203 159.420258 
L 200.389601 159.168908 
L 201.600998 159.24484 
L 202.812396 159.635589 
L 204.023793 159.407019 
L 210.080781 159.549536 
L 212.503576 159.866475 
L 217.349166 159.403985 
L 218.560564 159.726577 
L 252.479696 161.626029 
L 253.691093 161.989579 
L 254.902491 161.411178 
L 256.113888 161.562872 
L 257.325286 161.311592 
L 258.536683 162.031477 
L 259.748081 161.669892 
L 260.959479 161.799249 
L 262.170876 161.387086 
L 263.382274 161.633175 
L 264.593671 161.461553 
L 265.805069 161.67934 
L 267.016466 161.767056 
L 268.227864 161.308993 
L 270.650659 161.583356 
L 271.862057 161.931645 
L 273.073454 161.437028 
L 274.284852 162.395212 
L 296.090008 161.39344 
L 297.301405 161.064069 
L 299.7242 161.29184 
L 300.935598 161.159276 
L 302.146996 161.323231 
L 304.569791 161.124884 
L 305.781188 161.492589 
L 306.992586 161.274936 
L 308.203983 162.056374 
L 309.415381 162.397191 
L 310.626778 161.495104 
L 313.049574 161.708567 
L 314.260971 162.049348 
L 315.472369 161.432959 
L 316.683766 161.932332 
L 317.895164 162.206948 
L 322.740754 162.554673 
L 323.952152 161.931875 
L 325.163549 161.683757 
L 326.374947 162.388247 
L 327.586344 161.881077 
L 328.797742 161.514009 
L 330.009139 161.753743 
L 331.220537 161.84298 
L 333.643332 160.870676 
L 334.85473 161.760774 
L 336.066127 161.253315 
L 337.277525 161.432959 
L 339.70032 160.90386 
L 340.911717 161.279646 
L 342.123115 161.11673 
L 343.334512 161.267735 
L 344.54591 161.099853 
L 345.757308 161.381053 
L 346.968705 161.021079 
L 348.180103 162.010397 
L 349.3915 161.147146 
L 350.602898 161.722625 
L 351.814295 160.946138 
L 353.025693 161.778802 
L 354.23709 160.969854 
L 355.448488 161.226592 
L 356.659886 160.383261 
L 357.871283 162.039618 
L 359.082681 161.184898 
L 360.294078 162.274934 
L 361.505476 161.868249 
L 362.716873 161.877333 
L 363.928271 162.349112 
L 365.139669 162.298811 
L 366.351066 162.563915 
L 367.562464 161.81984 
L 368.773861 162.581657 
L 371.196656 162.639664 
L 372.408054 162.431394 
L 373.619451 162.496604 
L 374.830849 162.268543 
L 378.465042 162.376514 
L 380.887837 161.9519 
L 382.099234 162.417 
L 383.310632 162.723621 
L 384.522029 162.712628 
L 385.733427 161.801076 
L 386.944825 162.721098 
L 388.156222 161.699525 
L 389.36762 161.92535 
L 390.579017 161.95415 
L 391.790415 162.78691 
L 393.001812 162.198103 
L 394.21321 161.888314 
L 396.636005 161.989885 
L 397.847403 161.904216 
L 399.0588 162.090138 
L 400.270198 162.068661 
L 401.481595 162.364524 
L 403.90439 161.815752 
L 405.115788 162.172469 
L 406.327185 162.403892 
L 408.749981 162.48305 
L 409.961378 161.919562 
L 411.172776 161.100312 
L 412.384173 162.302869 
L 413.595571 162.016964 
L 414.806968 162.209501 
L 416.018366 162.115894 
L 417.229763 162.905698 
L 418.441161 162.357954 
L 419.652559 162.147097 
L 423.286751 161.39257 
L 424.498149 161.791302 
L 425.709546 161.982886 
L 426.920944 161.499068 
L 428.132342 161.930951 
L 429.343739 162.177591 
L 430.555137 163.07054 
L 432.977932 161.662294 
L 434.189329 161.746824 
L 435.400727 161.682438 
L 439.03492 161.321698 
L 441.457715 160.551027 
L 442.669112 160.751069 
L 443.88051 161.309901 
L 445.091907 160.095653 
L 446.303305 160.099266 
L 447.514702 161.049469 
L 448.7261 160.570297 
L 449.937498 159.957701 
L 451.148895 159.86481 
L 452.360293 160.884605 
L 453.57169 161.304332 
L 454.783088 159.700003 
L 455.994485 159.959112 
L 457.205883 160.396049 
L 458.41728 159.863837 
L 459.628678 158.429849 
L 460.840076 159.697843 
L 462.051473 159.851409 
L 463.262871 158.512033 
L 464.474268 159.110975 
L 465.685666 159.905491 
L 468.108461 158.917071 
L 469.319858 160.594709 
L 470.531256 159.241685 
L 471.742654 160.158212 
L 472.954051 159.931317 
L 474.165449 159.830377 
L 475.376846 159.587566 
L 475.376846 159.587566 
" clip-path="url(#pbcc072a77e)" style="fill: none; stroke: #d62728; stroke-width: 1.5; stroke-linecap: square"/>
   </g>
   <g id="line2d_27">
    <path d="M 69.558664 172.762799 
L 70.770062 172.503422 
L 71.98146 173.220326 
L 73.192857 172.747147 
L 75.615652 173.155697 
L 76.82705 173.05711 
L 79.249845 173.090909 
L 80.461242 172.857311 
L 81.67264 173.095918 
L 82.884038 172.657918 
L 84.095435 172.915105 
L 99.843603 172.724423 
L 102.266398 173.024619 
L 103.477796 172.740162 
L 104.689194 172.862813 
L 105.900591 172.501175 
L 108.323386 172.710276 
L 109.534784 173.15938 
L 110.746181 173.209312 
L 113.168977 172.645207 
L 114.380374 172.974933 
L 115.591772 172.631174 
L 119.225964 172.68 
L 120.437362 173.023328 
L 121.648759 172.68 
L 124.071555 172.803006 
L 125.282952 172.516444 
L 126.49435 173.138365 
L 128.917145 173.257156 
L 132.551337 172.370397 
L 133.762735 172.489033 
L 134.974133 172.879743 
L 137.396928 173.0905 
L 138.608325 172.930492 
L 143.453915 173.172369 
L 144.665313 173.000064 
L 149.510903 173.146044 
L 150.722301 172.868996 
L 151.933698 172.714386 
L 153.145096 172.999252 
L 155.567891 172.776822 
L 156.779289 173.099513 
L 157.990686 173.159363 
L 161.624879 172.934044 
L 162.836276 172.564024 
L 164.047674 173.15742 
L 165.259071 173.127839 
L 166.470469 172.83901 
L 168.893264 173.37422 
L 170.104662 173.201241 
L 171.316059 173.184258 
L 172.527457 173.421441 
L 177.373047 172.775278 
L 178.584445 173.324136 
L 179.795842 172.852665 
L 181.00724 172.646786 
L 182.218637 173.103631 
L 183.430035 172.444485 
L 184.641432 172.439219 
L 187.064228 172.980711 
L 190.69842 173.036451 
L 191.909818 172.787851 
L 193.121215 173.089047 
L 196.755408 173.000482 
L 197.966806 173.3915 
L 199.178203 173.330268 
L 200.389601 173.104567 
L 206.446588 173.37432 
L 210.080781 173.082409 
L 212.503576 173.13458 
L 217.349166 173.379782 
L 218.560564 173.301665 
L 252.479696 173.629856 
L 253.691093 174.19095 
L 254.902491 174.019035 
L 256.113888 174.002411 
L 257.325286 173.860743 
L 258.536683 174.320541 
L 259.748081 173.338452 
L 260.959479 174.182989 
L 262.170876 173.638168 
L 263.382274 173.899766 
L 264.593671 173.819309 
L 265.805069 173.60763 
L 267.016466 174.028571 
L 269.439261 173.609014 
L 270.650659 173.968832 
L 271.862057 173.550175 
L 274.284852 173.684064 
L 296.090008 173.298423 
L 297.301405 173.764428 
L 299.7242 173.686777 
L 300.935598 173.467105 
L 302.146996 173.044234 
L 303.358393 173.552278 
L 304.569791 173.601389 
L 305.781188 173.881083 
L 306.992586 173.802643 
L 308.203983 173.534858 
L 309.415381 173.927012 
L 310.626778 173.398396 
L 311.838176 173.520156 
L 313.049574 173.790726 
L 314.260971 173.865278 
L 315.472369 173.448237 
L 316.683766 173.439734 
L 317.895164 173.564695 
L 321.529356 173.767744 
L 322.740754 173.436183 
L 325.163549 173.269642 
L 326.374947 173.661065 
L 327.586344 173.566947 
L 328.797742 173.19662 
L 330.009139 172.975642 
L 331.220537 173.391962 
L 332.431934 173.580145 
L 333.643332 173.018766 
L 334.85473 173.504434 
L 336.066127 173.479138 
L 338.488922 172.93346 
L 339.70032 173.310877 
L 340.911717 173.396967 
L 342.123115 173.085497 
L 343.334512 173.166082 
L 344.54591 172.757534 
L 345.757308 172.621598 
L 346.968705 172.97704 
L 348.180103 173.096509 
L 349.3915 172.401796 
L 350.602898 173.21228 
L 351.814295 172.706451 
L 353.025693 172.593352 
L 354.23709 172.643315 
L 355.448488 172.514706 
L 356.659886 172.554706 
L 357.871283 172.897353 
L 359.082681 173.373402 
L 360.294078 173.148988 
L 362.716873 173.430857 
L 363.928271 173.000497 
L 365.139669 173.362595 
L 366.351066 173.07267 
L 368.773861 173.663411 
L 371.196656 173.665398 
L 373.619451 173.068679 
L 374.830849 173.4369 
L 378.465042 173.319633 
L 379.676439 173.45862 
L 383.310632 173.2639 
L 384.522029 172.848772 
L 385.733427 173.387493 
L 386.944825 172.40897 
L 388.156222 172.288726 
L 389.36762 172.296335 
L 390.579017 172.474626 
L 391.790415 173.232665 
L 393.001812 172.642962 
L 395.424607 172.780837 
L 396.636005 172.984521 
L 397.847403 173.371282 
L 400.270198 172.873332 
L 401.481595 173.092737 
L 403.90439 172.71531 
L 405.115788 172.939917 
L 408.749981 173.201017 
L 409.961378 173.134904 
L 412.384173 172.502407 
L 413.595571 172.925029 
L 416.018366 173.02692 
L 418.441161 172.588092 
L 419.652559 173.192258 
L 423.286751 172.432548 
L 424.498149 172.797382 
L 425.709546 172.244909 
L 426.920944 172.628045 
L 431.766534 172.780046 
L 434.189329 172.393412 
L 435.400727 172.283657 
L 440.246317 171.554056 
L 441.457715 170.99732 
L 442.669112 171.372058 
L 443.88051 171.259801 
L 445.091907 170.902727 
L 446.303305 170.818402 
L 447.514702 171.804394 
L 449.937498 170.736092 
L 452.360293 171.253454 
L 453.57169 171.080763 
L 454.783088 171.037494 
L 455.994485 170.214147 
L 457.205883 171.058663 
L 458.41728 171.307178 
L 459.628678 169.470763 
L 460.840076 171.015137 
L 463.262871 170.20668 
L 464.474268 170.433666 
L 465.685666 170.364955 
L 466.897063 170.84254 
L 468.108461 170.102628 
L 469.319858 170.539781 
L 470.531256 170.101416 
L 472.954051 171.342049 
L 474.165449 171.014637 
L 475.376846 170.560227 
L 475.376846 170.560227 
" clip-path="url(#pbcc072a77e)" style="fill: none; stroke: #9467bd; stroke-width: 1.5; stroke-linecap: square"/>
   </g>
   <g id="line2d_28">
    <path d="M 69.558664 175.16366 
L 70.770062 174.914293 
L 71.98146 176.006243 
L 73.192857 175.421059 
L 74.404255 175.49742 
L 75.615652 175.422017 
L 76.82705 175.605817 
L 79.249845 175.592727 
L 80.461242 175.24313 
L 81.67264 175.421059 
L 82.884038 175.377505 
L 84.095435 175.795154 
L 99.843603 175.642212 
L 102.266398 175.877908 
L 104.689194 175.82535 
L 105.900591 175.5589 
L 108.323386 175.663535 
L 109.534784 175.915946 
L 114.380374 175.682844 
L 115.591772 175.454425 
L 121.648759 175.704 
L 125.282952 175.370345 
L 126.49435 176.044808 
L 127.705747 176.049966 
L 128.917145 175.936488 
L 132.551337 175.158506 
L 134.974133 176.165382 
L 136.18553 176.106464 
L 137.396928 176.215928 
L 138.608325 175.88459 
L 143.453915 176.116126 
L 145.876711 175.903642 
L 147.088108 176.172017 
L 148.299506 176.126773 
L 149.510903 175.853022 
L 150.722301 175.797377 
L 151.933698 175.498012 
L 155.567891 175.445981 
L 156.779289 175.802178 
L 157.990686 175.859682 
L 160.413481 175.559387 
L 161.624879 175.140301 
L 162.836276 174.840274 
L 164.047674 175.776853 
L 165.259071 175.651873 
L 167.681867 175.595721 
L 168.893264 175.994404 
L 171.316059 175.817275 
L 172.527457 175.990721 
L 173.738854 175.884846 
L 174.950252 175.890968 
L 176.16165 175.271572 
L 177.373047 175.419722 
L 178.584445 175.723907 
L 179.795842 175.267307 
L 181.00724 175.110625 
L 182.218637 175.340742 
L 183.430035 174.901612 
L 184.641432 174.953111 
L 185.85283 175.121502 
L 187.064228 175.5266 
L 188.275625 175.684605 
L 189.487023 175.468915 
L 190.69842 175.635768 
L 191.909818 175.431172 
L 193.121215 175.79744 
L 194.332613 175.471114 
L 196.755408 175.483373 
L 197.966806 176.083427 
L 199.178203 176.18775 
L 200.389601 175.913305 
L 202.812396 175.871873 
L 204.023793 176.085177 
L 210.080781 175.660099 
L 217.349166 175.808009 
L 218.560564 175.716207 
L 252.479696 175.451866 
L 253.691093 176.10907 
L 254.902491 176.15596 
L 256.113888 175.986302 
L 258.536683 176.30611 
L 259.748081 175.842664 
L 262.170876 175.831593 
L 263.382274 175.828139 
L 264.593671 176.003223 
L 265.805069 176.003938 
L 268.227864 176.536734 
L 269.439261 176.217598 
L 270.650659 176.371187 
L 271.862057 176.055087 
L 273.073454 175.95433 
L 274.284852 176.069033 
L 296.090008 175.424313 
L 297.301405 175.872372 
L 299.7242 175.964479 
L 302.146996 175.377827 
L 303.358393 175.683223 
L 304.569791 175.414215 
L 305.781188 175.901525 
L 306.992586 175.864164 
L 308.203983 175.703603 
L 309.415381 176.243506 
L 310.626778 176.189876 
L 311.838176 175.801349 
L 314.260971 176.397263 
L 315.472369 176.030468 
L 321.529356 175.716244 
L 322.740754 176.130148 
L 323.952152 175.3725 
L 325.163549 175.491592 
L 326.374947 176.031517 
L 327.586344 175.532297 
L 328.797742 175.267628 
L 330.009139 175.368939 
L 331.220537 175.606836 
L 333.643332 175.043448 
L 334.85473 175.558258 
L 336.066127 174.749354 
L 337.277525 175.450783 
L 338.488922 174.685118 
L 339.70032 175.007563 
L 340.911717 175.188224 
L 342.123115 174.641973 
L 344.54591 174.973021 
L 345.757308 174.636413 
L 346.968705 174.87314 
L 348.180103 174.793904 
L 349.3915 174.312962 
L 350.602898 174.324182 
L 351.814295 174.675372 
L 353.025693 174.457929 
L 355.448488 174.654633 
L 356.659886 173.948792 
L 357.871283 175.910505 
L 361.505476 175.864438 
L 362.716873 175.658667 
L 363.928271 175.598395 
L 365.139669 175.884108 
L 366.351066 176.023404 
L 367.562464 175.72705 
L 368.773861 175.725133 
L 369.985259 175.989459 
L 371.196656 175.674761 
L 372.408054 175.880487 
L 373.619451 175.583396 
L 374.830849 175.844757 
L 379.676439 175.004493 
L 382.099234 175.115475 
L 383.310632 175.288879 
L 384.522029 174.340894 
L 385.733427 174.939245 
L 386.944825 174.613089 
L 388.156222 174.499093 
L 389.36762 174.247313 
L 393.001812 174.64961 
L 394.21321 174.405063 
L 396.636005 174.599847 
L 397.847403 174.87601 
L 399.0588 174.626116 
L 401.481595 174.485342 
L 405.115788 174.463117 
L 406.327185 174.244688 
L 407.538583 174.731824 
L 411.172776 174.247667 
L 412.384173 174.46983 
L 413.595571 174.372544 
L 414.806968 174.498411 
L 417.229763 174.34738 
L 418.441161 174.457559 
L 419.652559 174.224516 
L 423.286751 173.805943 
L 424.498149 174.406762 
L 425.709546 173.613179 
L 426.920944 173.940425 
L 428.132342 174.441834 
L 429.343739 173.983327 
L 430.555137 174.478318 
L 431.766534 174.394268 
L 432.977932 174.008606 
L 434.189329 173.763765 
L 435.400727 174.182382 
L 439.03492 172.223179 
L 440.246317 172.200759 
L 441.457715 171.323766 
L 442.669112 172.391244 
L 443.88051 172.179085 
L 446.303305 171.251498 
L 447.514702 171.858439 
L 448.7261 171.827327 
L 449.937498 171.064368 
L 452.360293 171.683251 
L 453.57169 172.256072 
L 454.783088 171.306155 
L 455.994485 170.923272 
L 457.205883 171.487311 
L 458.41728 171.360903 
L 459.628678 169.024665 
L 460.840076 171.069029 
L 462.051473 171.504189 
L 463.262871 169.872548 
L 464.474268 170.650368 
L 465.685666 171.065847 
L 466.897063 171.328254 
L 468.108461 170.375446 
L 469.319858 171.662612 
L 470.531256 170.701702 
L 471.742654 171.911955 
L 472.954051 172.403512 
L 474.165449 171.442743 
L 475.376846 170.884542 
L 475.376846 170.884542 
" clip-path="url(#pbcc072a77e)" style="fill: none; stroke: #8c564b; stroke-width: 1.5; stroke-linecap: square"/>
   </g>
   <g id="patch_3">
    <path d="M 49.267755 178.56 
L 49.267755 7.2 
" style="fill: none; stroke: #000000; stroke-width: 0.8; stroke-linejoin: miter; stroke-linecap: square"/>
   </g>
   <g id="patch_4">
    <path d="M 495.667755 178.56 
L 495.667755 7.2 
" style="fill: none; stroke: #000000; stroke-width: 0.8; stroke-linejoin: miter; stroke-linecap: square"/>
   </g>
   <g id="patch_5">
    <path d="M 49.267755 178.56 
L 495.667755 178.56 
" style="fill: none; stroke: #000000; stroke-width: 0.8; stroke-linejoin: miter; stroke-linecap: square"/>
   </g>
   <g id="patch_6">
    <path d="M 49.267755 7.2 
L 495.667755 7.2 
" style="fill: none; stroke: #000000; stroke-width: 0.8; stroke-linejoin: miter; stroke-linecap: square"/>
   </g>
   <g id="legend_1">
    <g id="patch_7">
     <path d="M 54.167755 74.448125 
L 174.389474 74.448125 
Q 175.789474 74.448125 175.789474 73.048125 
L 175.789474 12.1 
Q 175.789474 10.7 174.389474 10.7 
L 54.167755 10.7 
Q 52.767755 10.7 52.767755 12.1 
L 52.767755 73.048125 
Q 52.767755 74.448125 54.167755 74.448125 
z
" style="fill: #ffffff; opacity: 0.8; stroke: #cccccc; stroke-linejoin: miter"/>
    </g>
    <g id="line2d_29">
     <path d="M 55.567755 16.368906 
L 62.567755 16.368906 
L 69.567755 16.368906 
" style="fill: none; stroke: #1f77b4; stroke-width: 1.5; stroke-linecap: square"/>
    </g>
    <g id="text_19">
     <!-- No Base Redirect -->
     <g transform="translate(75.167755 18.818906)scale(0.07 -0.07)">
      <defs>
       <path id="DejaVuSans-42" d="M 1259 2228 
L 1259 519 
L 2272 519 
Q 2781 519 3026 730 
Q 3272 941 3272 1375 
Q 3272 1813 3026 2020 
Q 2781 2228 2272 2228 
L 1259 2228 
z
M 1259 4147 
L 1259 2741 
L 2194 2741 
Q 2656 2741 2882 2914 
Q 3109 3088 3109 3444 
Q 3109 3797 2882 3972 
Q 2656 4147 2194 4147 
L 1259 4147 
z
M 628 4666 
L 2241 4666 
Q 2963 4666 3353 4366 
Q 3744 4066 3744 3513 
Q 3744 3084 3544 2831 
Q 3344 2578 2956 2516 
Q 3422 2416 3680 2098 
Q 3938 1781 3938 1306 
Q 3938 681 3513 340 
Q 3088 0 2303 0 
L 628 0 
L 628 4666 
z
" transform="scale(0.015625)"/>
       <path id="DejaVuSans-52" d="M 2841 2188 
Q 3044 2119 3236 1894 
Q 3428 1669 3622 1275 
L 4263 0 
L 3584 0 
L 2988 1197 
Q 2756 1666 2539 1819 
Q 2322 1972 1947 1972 
L 1259 1972 
L 1259 0 
L 628 0 
L 628 4666 
L 2053 4666 
Q 2853 4666 3247 4331 
Q 3641 3997 3641 3322 
Q 3641 2881 3436 2590 
Q 3231 2300 2841 2188 
z
M 1259 4147 
L 1259 2491 
L 2053 2491 
Q 2509 2491 2742 2702 
Q 2975 2913 2975 3322 
Q 2975 3731 2742 3939 
Q 2509 4147 2053 4147 
L 1259 4147 
z
" transform="scale(0.015625)"/>
       <path id="DejaVuSans-64" d="M 2906 2969 
L 2906 4863 
L 3481 4863 
L 3481 0 
L 2906 0 
L 2906 525 
Q 2725 213 2448 61 
Q 2172 -91 1784 -91 
Q 1150 -91 751 415 
Q 353 922 353 1747 
Q 353 2572 751 3078 
Q 1150 3584 1784 3584 
Q 2172 3584 2448 3432 
Q 2725 3281 2906 2969 
z
M 947 1747 
Q 947 1113 1208 752 
Q 1469 391 1925 391 
Q 2381 391 2643 752 
Q 2906 1113 2906 1747 
Q 2906 2381 2643 2742 
Q 2381 3103 1925 3103 
Q 1469 3103 1208 2742 
Q 947 2381 947 1747 
z
" transform="scale(0.015625)"/>
      </defs>
      <use xlink:href="#DejaVuSans-4e"/>
      <use xlink:href="#DejaVuSans-6f" x="74.804688"/>
      <use xlink:href="#DejaVuSans-20" x="135.986328"/>
      <use xlink:href="#DejaVuSans-42" x="167.773438"/>
      <use xlink:href="#DejaVuSans-61" x="236.376953"/>
      <use xlink:href="#DejaVuSans-73" x="297.65625"/>
      <use xlink:href="#DejaVuSans-65" x="349.755859"/>
      <use xlink:href="#DejaVuSans-20" x="411.279297"/>
      <use xlink:href="#DejaVuSans-52" x="443.066406"/>
      <use xlink:href="#DejaVuSans-65" x="508.048828"/>
      <use xlink:href="#DejaVuSans-64" x="569.572266"/>
      <use xlink:href="#DejaVuSans-69" x="633.048828"/>
      <use xlink:href="#DejaVuSans-72" x="660.832031"/>
      <use xlink:href="#DejaVuSans-65" x="699.695312"/>
      <use xlink:href="#DejaVuSans-63" x="761.21875"/>
      <use xlink:href="#DejaVuSans-74" x="816.199219"/>
     </g>
    </g>
    <g id="line2d_30">
     <path d="M 55.567755 26.643594 
L 62.567755 26.643594 
L 69.567755 26.643594 
" style="fill: none; stroke: #ff7f0e; stroke-width: 1.5; stroke-linecap: square"/>
    </g>
    <g id="text_20">
     <!-- Subdomain not HTTPS -->
     <g transform="translate(75.167755 29.093594)scale(0.07 -0.07)">
      <defs>
       <path id="DejaVuSans-48" d="M 628 4666 
L 1259 4666 
L 1259 2753 
L 3553 2753 
L 3553 4666 
L 4184 4666 
L 4184 0 
L 3553 0 
L 3553 2222 
L 1259 2222 
L 1259 0 
L 628 0 
L 628 4666 
z
" transform="scale(0.015625)"/>
       <path id="DejaVuSans-54" d="M -19 4666 
L 3928 4666 
L 3928 4134 
L 2272 4134 
L 2272 0 
L 1638 0 
L 1638 4134 
L -19 4134 
L -19 4666 
z
" transform="scale(0.015625)"/>
      </defs>
      <use xlink:href="#DejaVuSans-53"/>
      <use xlink:href="#DejaVuSans-75" x="63.476562"/>
      <use xlink:href="#DejaVuSans-62" x="126.855469"/>
      <use xlink:href="#DejaVuSans-64" x="190.332031"/>
      <use xlink:href="#DejaVuSans-6f" x="253.808594"/>
      <use xlink:href="#DejaVuSans-6d" x="314.990234"/>
      <use xlink:href="#DejaVuSans-61" x="412.402344"/>
      <use xlink:href="#DejaVuSans-69" x="473.681641"/>
      <use xlink:href="#DejaVuSans-6e" x="501.464844"/>
      <use xlink:href="#DejaVuSans-20" x="564.84375"/>
      <use xlink:href="#DejaVuSans-6e" x="596.630859"/>
      <use xlink:href="#DejaVuSans-6f" x="660.009766"/>
      <use xlink:href="#DejaVuSans-74" x="721.191406"/>
      <use xlink:href="#DejaVuSans-20" x="760.400391"/>
      <use xlink:href="#DejaVuSans-48" x="792.1875"/>
      <use xlink:href="#DejaVuSans-54" x="867.382812"/>
      <use xlink:href="#DejaVuSans-54" x="926.716797"/>
      <use xlink:href="#DejaVuSans-50" x="987.800781"/>
      <use xlink:href="#DejaVuSans-53" x="1048.103516"/>
     </g>
    </g>
    <g id="line2d_31">
     <path d="M 55.567755 36.918281 
L 62.567755 36.918281 
L 69.567755 36.918281 
" style="fill: none; stroke: #2ca02c; stroke-width: 1.5; stroke-linecap: square"/>
    </g>
    <g id="text_21">
     <!-- No HSTS Header -->
     <g transform="translate(75.167755 39.368281)scale(0.07 -0.07)">
      <use xlink:href="#DejaVuSans-4e"/>
      <use xlink:href="#DejaVuSans-6f" x="74.804688"/>
      <use xlink:href="#DejaVuSans-20" x="135.986328"/>
      <use xlink:href="#DejaVuSans-48" x="167.773438"/>
      <use xlink:href="#DejaVuSans-53" x="242.96875"/>
      <use xlink:href="#DejaVuSans-54" x="306.445312"/>
      <use xlink:href="#DejaVuSans-53" x="367.529297"/>
      <use xlink:href="#DejaVuSans-20" x="431.005859"/>
      <use xlink:href="#DejaVuSans-48" x="462.792969"/>
      <use xlink:href="#DejaVuSans-65" x="537.988281"/>
      <use xlink:href="#DejaVuSans-61" x="599.511719"/>
      <use xlink:href="#DejaVuSans-64" x="660.791016"/>
      <use xlink:href="#DejaVuSans-65" x="724.267578"/>
      <use xlink:href="#DejaVuSans-72" x="785.791016"/>
     </g>
    </g>
    <g id="line2d_32">
     <path d="M 55.567755 47.192969 
L 62.567755 47.192969 
L 69.567755 47.192969 
" style="fill: none; stroke: #d62728; stroke-width: 1.5; stroke-linecap: square"/>
    </g>
    <g id="text_22">
     <!-- Max Age too short -->
     <g transform="translate(75.167755 49.642969)scale(0.07 -0.07)">
      <defs>
       <path id="DejaVuSans-78" d="M 3513 3500 
L 2247 1797 
L 3578 0 
L 2900 0 
L 1881 1375 
L 863 0 
L 184 0 
L 1544 1831 
L 300 3500 
L 978 3500 
L 1906 2253 
L 2834 3500 
L 3513 3500 
z
" transform="scale(0.015625)"/>
       <path id="DejaVuSans-68" d="M 3513 2113 
L 3513 0 
L 2938 0 
L 2938 2094 
Q 2938 2591 2744 2837 
Q 2550 3084 2163 3084 
Q 1697 3084 1428 2787 
Q 1159 2491 1159 1978 
L 1159 0 
L 581 0 
L 581 4863 
L 1159 4863 
L 1159 2956 
Q 1366 3272 1645 3428 
Q 1925 3584 2291 3584 
Q 2894 3584 3203 3211 
Q 3513 2838 3513 2113 
z
" transform="scale(0.015625)"/>
      </defs>
      <use xlink:href="#DejaVuSans-4d"/>
      <use xlink:href="#DejaVuSans-61" x="86.279297"/>
      <use xlink:href="#DejaVuSans-78" x="147.558594"/>
      <use xlink:href="#DejaVuSans-20" x="206.738281"/>
      <use xlink:href="#DejaVuSans-41" x="238.525391"/>
      <use xlink:href="#DejaVuSans-67" x="306.933594"/>
      <use xlink:href="#DejaVuSans-65" x="370.410156"/>
      <use xlink:href="#DejaVuSans-20" x="431.933594"/>
      <use xlink:href="#DejaVuSans-74" x="463.720703"/>
      <use xlink:href="#DejaVuSans-6f" x="502.929688"/>
      <use xlink:href="#DejaVuSans-6f" x="564.111328"/>
      <use xlink:href="#DejaVuSans-20" x="625.292969"/>
      <use xlink:href="#DejaVuSans-73" x="657.080078"/>
      <use xlink:href="#DejaVuSans-68" x="709.179688"/>
      <use xlink:href="#DejaVuSans-6f" x="772.558594"/>
      <use xlink:href="#DejaVuSans-72" x="833.740234"/>
      <use xlink:href="#DejaVuSans-74" x="874.853516"/>
     </g>
    </g>
    <g id="line2d_33">
     <path d="M 55.567755 57.467656 
L 62.567755 57.467656 
L 69.567755 57.467656 
" style="fill: none; stroke: #9467bd; stroke-width: 1.5; stroke-linecap: square"/>
    </g>
    <g id="text_23">
     <!-- Missing includeSubDomains -->
     <g transform="translate(75.167755 59.917656)scale(0.07 -0.07)">
      <use xlink:href="#DejaVuSans-4d"/>
      <use xlink:href="#DejaVuSans-69" x="86.279297"/>
      <use xlink:href="#DejaVuSans-73" x="114.0625"/>
      <use xlink:href="#DejaVuSans-73" x="166.162109"/>
      <use xlink:href="#DejaVuSans-69" x="218.261719"/>
      <use xlink:href="#DejaVuSans-6e" x="246.044922"/>
      <use xlink:href="#DejaVuSans-67" x="309.423828"/>
      <use xlink:href="#DejaVuSans-20" x="372.900391"/>
      <use xlink:href="#DejaVuSans-69" x="404.6875"/>
      <use xlink:href="#DejaVuSans-6e" x="432.470703"/>
      <use xlink:href="#DejaVuSans-63" x="495.849609"/>
      <use xlink:href="#DejaVuSans-6c" x="550.830078"/>
      <use xlink:href="#DejaVuSans-75" x="578.613281"/>
      <use xlink:href="#DejaVuSans-64" x="641.992188"/>
      <use xlink:href="#DejaVuSans-65" x="705.46875"/>
      <use xlink:href="#DejaVuSans-53" x="766.992188"/>
      <use xlink:href="#DejaVuSans-75" x="830.46875"/>
      <use xlink:href="#DejaVuSans-62" x="893.847656"/>
      <use xlink:href="#DejaVuSans-44" x="957.324219"/>
      <use xlink:href="#DejaVuSans-6f" x="1034.326172"/>
      <use xlink:href="#DejaVuSans-6d" x="1095.507812"/>
      <use xlink:href="#DejaVuSans-61" x="1192.919922"/>
      <use xlink:href="#DejaVuSans-69" x="1254.199219"/>
      <use xlink:href="#DejaVuSans-6e" x="1281.982422"/>
      <use xlink:href="#DejaVuSans-73" x="1345.361328"/>
     </g>
    </g>
    <g id="line2d_34">
     <path d="M 55.567755 67.742344 
L 62.567755 67.742344 
L 69.567755 67.742344 
" style="fill: none; stroke: #8c564b; stroke-width: 1.5; stroke-linecap: square"/>
    </g>
    <g id="text_24">
     <!-- Missing preload -->
     <g transform="translate(75.167755 70.192344)scale(0.07 -0.07)">
      <use xlink:href="#DejaVuSans-4d"/>
      <use xlink:href="#DejaVuSans-69" x="86.279297"/>
      <use xlink:href="#DejaVuSans-73" x="114.0625"/>
      <use xlink:href="#DejaVuSans-73" x="166.162109"/>
      <use xlink:href="#DejaVuSans-69" x="218.261719"/>
      <use xlink:href="#DejaVuSans-6e" x="246.044922"/>
      <use xlink:href="#DejaVuSans-67" x="309.423828"/>
      <use xlink:href="#DejaVuSans-20" x="372.900391"/>
      <use xlink:href="#DejaVuSans-70" x="404.6875"/>
      <use xlink:href="#DejaVuSans-72" x="468.164062"/>
      <use xlink:href="#DejaVuSans-65" x="507.027344"/>
      <use xlink:href="#DejaVuSans-6c" x="568.550781"/>
      <use xlink:href="#DejaVuSans-6f" x="596.333984"/>
      <use xlink:href="#DejaVuSans-61" x="657.515625"/>
      <use xlink:href="#DejaVuSans-64" x="718.794922"/>
     </g>
    </g>
   </g>
  </g>
 </g>
 <defs>
  <clipPath id="pbcc072a77e">
   <rect x="49.267755" y="7.2" width="446.4" height="171.36"/>
  </clipPath>
 </defs>
</svg>
