<?xml version="1.0" encoding="utf-8" standalone="no"?>
<!DOCTYPE svg PUBLIC "-//W3C//DTD SVG 1.1//EN"
  "http://www.w3.org/Graphics/SVG/1.1/DTD/svg11.dtd">
<svg xmlns:xlink="http://www.w3.org/1999/xlink" width="506.928125pt" height="234.086815pt" viewBox="0 0 506.928125 234.086815" xmlns="http://www.w3.org/2000/svg" version="1.1">
 <metadata>
  <rdf:RDF xmlns:dc="http://purl.org/dc/elements/1.1/" xmlns:cc="http://creativecommons.org/ns#" xmlns:rdf="http://www.w3.org/1999/02/22-rdf-syntax-ns#">
   <cc:Work>
    <dc:type rdf:resource="http://purl.org/dc/dcmitype/StillImage"/>
    <dc:date>2022-02-14T19:25:24.533175</dc:date>
    <dc:format>image/svg+xml</dc:format>
    <dc:creator>
     <cc:Agent>
      <dc:title>Matplotlib v3.5.1, https://matplotlib.org/</dc:title>
     </cc:Agent>
    </dc:creator>
   </cc:Work>
  </rdf:RDF>
 </metadata>
 <defs>
  <style type="text/css">*{stroke-linejoin: round; stroke-linecap: butt}</style>
 </defs>
 <g id="figure_1">
  <g id="patch_1">
   <path d="M 0 234.086815 
L 506.928125 234.086815 
L 506.928125 0 
L 0 0 
z
" style="fill: #ffffff"/>
  </g>
  <g id="axes_1">
   <g id="patch_2">
    <path d="M 53.328125 178.56 
L 499.728125 178.56 
L 499.728125 7.2 
L 53.328125 7.2 
z
" style="fill: #ffffff"/>
   </g>
   <g id="matplotlib.axis_1">
    <g id="xtick_1">
     <g id="line2d_1">
      <defs>
       <path id="m19ab9d8ba6" d="M 0 0 
L 0 3.5 
" style="stroke: #000000; stroke-width: 0.8"/>
      </defs>
      <g>
       <use xlink:href="#m19ab9d8ba6" x="69.973961" y="178.56" style="stroke: #000000; stroke-width: 0.8"/>
      </g>
     </g>
     <g id="text_1">
      <!-- 2021-Mar-01 -->
      <g transform="translate(13.83731 223.950596)rotate(-30)scale(0.1 -0.1)">
       <defs>
        <path id="DejaVuSans-32" d="M 1228 531 
L 3431 531 
L 3431 0 
L 469 0 
L 469 531 
Q 828 903 1448 1529 
Q 2069 2156 2228 2338 
Q 2531 2678 2651 2914 
Q 2772 3150 2772 3378 
Q 2772 3750 2511 3984 
Q 2250 4219 1831 4219 
Q 1534 4219 1204 4116 
Q 875 4013 500 3803 
L 500 4441 
Q 881 4594 1212 4672 
Q 1544 4750 1819 4750 
Q 2544 4750 2975 4387 
Q 3406 4025 3406 3419 
Q 3406 3131 3298 2873 
Q 3191 2616 2906 2266 
Q 2828 2175 2409 1742 
Q 1991 1309 1228 531 
z
" transform="scale(0.015625)"/>
        <path id="DejaVuSans-30" d="M 2034 4250 
Q 1547 4250 1301 3770 
Q 1056 3291 1056 2328 
Q 1056 1369 1301 889 
Q 1547 409 2034 409 
Q 2525 409 2770 889 
Q 3016 1369 3016 2328 
Q 3016 3291 2770 3770 
Q 2525 4250 2034 4250 
z
M 2034 4750 
Q 2819 4750 3233 4129 
Q 3647 3509 3647 2328 
Q 3647 1150 3233 529 
Q 2819 -91 2034 -91 
Q 1250 -91 836 529 
Q 422 1150 422 2328 
Q 422 3509 836 4129 
Q 1250 4750 2034 4750 
z
" transform="scale(0.015625)"/>
        <path id="DejaVuSans-31" d="M 794 531 
L 1825 531 
L 1825 4091 
L 703 3866 
L 703 4441 
L 1819 4666 
L 2450 4666 
L 2450 531 
L 3481 531 
L 3481 0 
L 794 0 
L 794 531 
z
" transform="scale(0.015625)"/>
        <path id="DejaVuSans-2d" d="M 313 2009 
L 1997 2009 
L 1997 1497 
L 313 1497 
L 313 2009 
z
" transform="scale(0.015625)"/>
        <path id="DejaVuSans-4d" d="M 628 4666 
L 1569 4666 
L 2759 1491 
L 3956 4666 
L 4897 4666 
L 4897 0 
L 4281 0 
L 4281 4097 
L 3078 897 
L 2444 897 
L 1241 4097 
L 1241 0 
L 628 0 
L 628 4666 
z
" transform="scale(0.015625)"/>
        <path id="DejaVuSans-61" d="M 2194 1759 
Q 1497 1759 1228 1600 
Q 959 1441 959 1056 
Q 959 750 1161 570 
Q 1363 391 1709 391 
Q 2188 391 2477 730 
Q 2766 1069 2766 1631 
L 2766 1759 
L 2194 1759 
z
M 3341 1997 
L 3341 0 
L 2766 0 
L 2766 531 
Q 2569 213 2275 61 
Q 1981 -91 1556 -91 
Q 1019 -91 701 211 
Q 384 513 384 1019 
Q 384 1609 779 1909 
Q 1175 2209 1959 2209 
L 2766 2209 
L 2766 2266 
Q 2766 2663 2505 2880 
Q 2244 3097 1772 3097 
Q 1472 3097 1187 3025 
Q 903 2953 641 2809 
L 641 3341 
Q 956 3463 1253 3523 
Q 1550 3584 1831 3584 
Q 2591 3584 2966 3190 
Q 3341 2797 3341 1997 
z
" transform="scale(0.015625)"/>
        <path id="DejaVuSans-72" d="M 2631 2963 
Q 2534 3019 2420 3045 
Q 2306 3072 2169 3072 
Q 1681 3072 1420 2755 
Q 1159 2438 1159 1844 
L 1159 0 
L 581 0 
L 581 3500 
L 1159 3500 
L 1159 2956 
Q 1341 3275 1631 3429 
Q 1922 3584 2338 3584 
Q 2397 3584 2469 3576 
Q 2541 3569 2628 3553 
L 2631 2963 
z
" transform="scale(0.015625)"/>
       </defs>
       <use xlink:href="#DejaVuSans-32"/>
       <use xlink:href="#DejaVuSans-30" x="63.623047"/>
       <use xlink:href="#DejaVuSans-32" x="127.246094"/>
       <use xlink:href="#DejaVuSans-31" x="190.869141"/>
       <use xlink:href="#DejaVuSans-2d" x="254.492188"/>
       <use xlink:href="#DejaVuSans-4d" x="290.576172"/>
       <use xlink:href="#DejaVuSans-61" x="376.855469"/>
       <use xlink:href="#DejaVuSans-72" x="438.134766"/>
       <use xlink:href="#DejaVuSans-2d" x="472.873047"/>
       <use xlink:href="#DejaVuSans-30" x="508.957031"/>
       <use xlink:href="#DejaVuSans-31" x="572.580078"/>
      </g>
     </g>
    </g>
    <g id="xtick_2">
     <g id="line2d_2">
      <g>
       <use xlink:href="#m19ab9d8ba6" x="107.63972" y="178.56" style="stroke: #000000; stroke-width: 0.8"/>
      </g>
     </g>
     <g id="text_2">
      <!-- 2021-Apr-01 -->
      <g transform="translate(53.055149 223.054502)rotate(-30)scale(0.1 -0.1)">
       <defs>
        <path id="DejaVuSans-41" d="M 2188 4044 
L 1331 1722 
L 3047 1722 
L 2188 4044 
z
M 1831 4666 
L 2547 4666 
L 4325 0 
L 3669 0 
L 3244 1197 
L 1141 1197 
L 716 0 
L 50 0 
L 1831 4666 
z
" transform="scale(0.015625)"/>
        <path id="DejaVuSans-70" d="M 1159 525 
L 1159 -1331 
L 581 -1331 
L 581 3500 
L 1159 3500 
L 1159 2969 
Q 1341 3281 1617 3432 
Q 1894 3584 2278 3584 
Q 2916 3584 3314 3078 
Q 3713 2572 3713 1747 
Q 3713 922 3314 415 
Q 2916 -91 2278 -91 
Q 1894 -91 1617 61 
Q 1341 213 1159 525 
z
M 3116 1747 
Q 3116 2381 2855 2742 
Q 2594 3103 2138 3103 
Q 1681 3103 1420 2742 
Q 1159 2381 1159 1747 
Q 1159 1113 1420 752 
Q 1681 391 2138 391 
Q 2594 391 2855 752 
Q 3116 1113 3116 1747 
z
" transform="scale(0.015625)"/>
       </defs>
       <use xlink:href="#DejaVuSans-32"/>
       <use xlink:href="#DejaVuSans-30" x="63.623047"/>
       <use xlink:href="#DejaVuSans-32" x="127.246094"/>
       <use xlink:href="#DejaVuSans-31" x="190.869141"/>
       <use xlink:href="#DejaVuSans-2d" x="254.492188"/>
       <use xlink:href="#DejaVuSans-41" x="288.326172"/>
       <use xlink:href="#DejaVuSans-70" x="356.734375"/>
       <use xlink:href="#DejaVuSans-72" x="420.210938"/>
       <use xlink:href="#DejaVuSans-2d" x="454.949219"/>
       <use xlink:href="#DejaVuSans-30" x="491.033203"/>
       <use xlink:href="#DejaVuSans-31" x="554.65625"/>
      </g>
     </g>
    </g>
    <g id="xtick_3">
     <g id="line2d_3">
      <g>
       <use xlink:href="#m19ab9d8ba6" x="144.090455" y="178.56" style="stroke: #000000; stroke-width: 0.8"/>
      </g>
     </g>
     <g id="text_3">
      <!-- 2021-May-01 -->
      <g transform="translate(85.987656 225.085752)rotate(-30)scale(0.1 -0.1)">
       <defs>
        <path id="DejaVuSans-79" d="M 2059 -325 
Q 1816 -950 1584 -1140 
Q 1353 -1331 966 -1331 
L 506 -1331 
L 506 -850 
L 844 -850 
Q 1081 -850 1212 -737 
Q 1344 -625 1503 -206 
L 1606 56 
L 191 3500 
L 800 3500 
L 1894 763 
L 2988 3500 
L 3597 3500 
L 2059 -325 
z
" transform="scale(0.015625)"/>
       </defs>
       <use xlink:href="#DejaVuSans-32"/>
       <use xlink:href="#DejaVuSans-30" x="63.623047"/>
       <use xlink:href="#DejaVuSans-32" x="127.246094"/>
       <use xlink:href="#DejaVuSans-31" x="190.869141"/>
       <use xlink:href="#DejaVuSans-2d" x="254.492188"/>
       <use xlink:href="#DejaVuSans-4d" x="290.576172"/>
       <use xlink:href="#DejaVuSans-61" x="376.855469"/>
       <use xlink:href="#DejaVuSans-79" x="438.134766"/>
       <use xlink:href="#DejaVuSans-2d" x="495.564453"/>
       <use xlink:href="#DejaVuSans-30" x="531.648438"/>
       <use xlink:href="#DejaVuSans-31" x="595.271484"/>
      </g>
     </g>
    </g>
    <g id="xtick_4">
     <g id="line2d_4">
      <g>
       <use xlink:href="#m19ab9d8ba6" x="181.756214" y="178.56" style="stroke: #000000; stroke-width: 0.8"/>
      </g>
     </g>
     <g id="text_4">
      <!-- 2021-Jun-01 -->
      <g transform="translate(127.38815 222.929502)rotate(-30)scale(0.1 -0.1)">
       <defs>
        <path id="DejaVuSans-4a" d="M 628 4666 
L 1259 4666 
L 1259 325 
Q 1259 -519 939 -900 
Q 619 -1281 -91 -1281 
L -331 -1281 
L -331 -750 
L -134 -750 
Q 284 -750 456 -515 
Q 628 -281 628 325 
L 628 4666 
z
" transform="scale(0.015625)"/>
        <path id="DejaVuSans-75" d="M 544 1381 
L 544 3500 
L 1119 3500 
L 1119 1403 
Q 1119 906 1312 657 
Q 1506 409 1894 409 
Q 2359 409 2629 706 
Q 2900 1003 2900 1516 
L 2900 3500 
L 3475 3500 
L 3475 0 
L 2900 0 
L 2900 538 
Q 2691 219 2414 64 
Q 2138 -91 1772 -91 
Q 1169 -91 856 284 
Q 544 659 544 1381 
z
M 1991 3584 
L 1991 3584 
z
" transform="scale(0.015625)"/>
        <path id="DejaVuSans-6e" d="M 3513 2113 
L 3513 0 
L 2938 0 
L 2938 2094 
Q 2938 2591 2744 2837 
Q 2550 3084 2163 3084 
Q 1697 3084 1428 2787 
Q 1159 2491 1159 1978 
L 1159 0 
L 581 0 
L 581 3500 
L 1159 3500 
L 1159 2956 
Q 1366 3272 1645 3428 
Q 1925 3584 2291 3584 
Q 2894 3584 3203 3211 
Q 3513 2838 3513 2113 
z
" transform="scale(0.015625)"/>
       </defs>
       <use xlink:href="#DejaVuSans-32"/>
       <use xlink:href="#DejaVuSans-30" x="63.623047"/>
       <use xlink:href="#DejaVuSans-32" x="127.246094"/>
       <use xlink:href="#DejaVuSans-31" x="190.869141"/>
       <use xlink:href="#DejaVuSans-2d" x="254.492188"/>
       <use xlink:href="#DejaVuSans-4a" x="296.201172"/>
       <use xlink:href="#DejaVuSans-75" x="325.693359"/>
       <use xlink:href="#DejaVuSans-6e" x="389.072266"/>
       <use xlink:href="#DejaVuSans-2d" x="452.451172"/>
       <use xlink:href="#DejaVuSans-30" x="488.535156"/>
       <use xlink:href="#DejaVuSans-31" x="552.158203"/>
      </g>
     </g>
    </g>
    <g id="xtick_5">
     <g id="line2d_5">
      <g>
       <use xlink:href="#m19ab9d8ba6" x="218.206949" y="178.56" style="stroke: #000000; stroke-width: 0.8"/>
      </g>
     </g>
     <g id="text_5">
      <!-- 2021-Jul-01 -->
      <g transform="translate(166.921394 221.149815)rotate(-30)scale(0.1 -0.1)">
       <defs>
        <path id="DejaVuSans-6c" d="M 603 4863 
L 1178 4863 
L 1178 0 
L 603 0 
L 603 4863 
z
" transform="scale(0.015625)"/>
       </defs>
       <use xlink:href="#DejaVuSans-32"/>
       <use xlink:href="#DejaVuSans-30" x="63.623047"/>
       <use xlink:href="#DejaVuSans-32" x="127.246094"/>
       <use xlink:href="#DejaVuSans-31" x="190.869141"/>
       <use xlink:href="#DejaVuSans-2d" x="254.492188"/>
       <use xlink:href="#DejaVuSans-4a" x="296.201172"/>
       <use xlink:href="#DejaVuSans-75" x="325.693359"/>
       <use xlink:href="#DejaVuSans-6c" x="389.072266"/>
       <use xlink:href="#DejaVuSans-2d" x="416.855469"/>
       <use xlink:href="#DejaVuSans-30" x="452.939453"/>
       <use xlink:href="#DejaVuSans-31" x="516.5625"/>
      </g>
     </g>
    </g>
    <g id="xtick_6">
     <g id="line2d_6">
      <g>
       <use xlink:href="#m19ab9d8ba6" x="255.872709" y="178.56" style="stroke: #000000; stroke-width: 0.8"/>
      </g>
     </g>
     <g id="text_6">
      <!-- 2021-Aug-01 -->
      <g transform="translate(198.807787 224.486534)rotate(-30)scale(0.1 -0.1)">
       <defs>
        <path id="DejaVuSans-67" d="M 2906 1791 
Q 2906 2416 2648 2759 
Q 2391 3103 1925 3103 
Q 1463 3103 1205 2759 
Q 947 2416 947 1791 
Q 947 1169 1205 825 
Q 1463 481 1925 481 
Q 2391 481 2648 825 
Q 2906 1169 2906 1791 
z
M 3481 434 
Q 3481 -459 3084 -895 
Q 2688 -1331 1869 -1331 
Q 1566 -1331 1297 -1286 
Q 1028 -1241 775 -1147 
L 775 -588 
Q 1028 -725 1275 -790 
Q 1522 -856 1778 -856 
Q 2344 -856 2625 -561 
Q 2906 -266 2906 331 
L 2906 616 
Q 2728 306 2450 153 
Q 2172 0 1784 0 
Q 1141 0 747 490 
Q 353 981 353 1791 
Q 353 2603 747 3093 
Q 1141 3584 1784 3584 
Q 2172 3584 2450 3431 
Q 2728 3278 2906 2969 
L 2906 3500 
L 3481 3500 
L 3481 434 
z
" transform="scale(0.015625)"/>
       </defs>
       <use xlink:href="#DejaVuSans-32"/>
       <use xlink:href="#DejaVuSans-30" x="63.623047"/>
       <use xlink:href="#DejaVuSans-32" x="127.246094"/>
       <use xlink:href="#DejaVuSans-31" x="190.869141"/>
       <use xlink:href="#DejaVuSans-2d" x="254.492188"/>
       <use xlink:href="#DejaVuSans-41" x="288.326172"/>
       <use xlink:href="#DejaVuSans-75" x="356.734375"/>
       <use xlink:href="#DejaVuSans-67" x="420.113281"/>
       <use xlink:href="#DejaVuSans-2d" x="483.589844"/>
       <use xlink:href="#DejaVuSans-30" x="519.673828"/>
       <use xlink:href="#DejaVuSans-31" x="583.296875"/>
      </g>
     </g>
    </g>
    <g id="xtick_7">
     <g id="line2d_7">
      <g>
       <use xlink:href="#m19ab9d8ba6" x="293.538468" y="178.56" style="stroke: #000000; stroke-width: 0.8"/>
      </g>
     </g>
     <g id="text_7">
      <!-- 2021-Sep-01 -->
      <g transform="translate(236.864611 224.260752)rotate(-30)scale(0.1 -0.1)">
       <defs>
        <path id="DejaVuSans-53" d="M 3425 4513 
L 3425 3897 
Q 3066 4069 2747 4153 
Q 2428 4238 2131 4238 
Q 1616 4238 1336 4038 
Q 1056 3838 1056 3469 
Q 1056 3159 1242 3001 
Q 1428 2844 1947 2747 
L 2328 2669 
Q 3034 2534 3370 2195 
Q 3706 1856 3706 1288 
Q 3706 609 3251 259 
Q 2797 -91 1919 -91 
Q 1588 -91 1214 -16 
Q 841 59 441 206 
L 441 856 
Q 825 641 1194 531 
Q 1563 422 1919 422 
Q 2459 422 2753 634 
Q 3047 847 3047 1241 
Q 3047 1584 2836 1778 
Q 2625 1972 2144 2069 
L 1759 2144 
Q 1053 2284 737 2584 
Q 422 2884 422 3419 
Q 422 4038 858 4394 
Q 1294 4750 2059 4750 
Q 2388 4750 2728 4690 
Q 3069 4631 3425 4513 
z
" transform="scale(0.015625)"/>
        <path id="DejaVuSans-65" d="M 3597 1894 
L 3597 1613 
L 953 1613 
Q 991 1019 1311 708 
Q 1631 397 2203 397 
Q 2534 397 2845 478 
Q 3156 559 3463 722 
L 3463 178 
Q 3153 47 2828 -22 
Q 2503 -91 2169 -91 
Q 1331 -91 842 396 
Q 353 884 353 1716 
Q 353 2575 817 3079 
Q 1281 3584 2069 3584 
Q 2775 3584 3186 3129 
Q 3597 2675 3597 1894 
z
M 3022 2063 
Q 3016 2534 2758 2815 
Q 2500 3097 2075 3097 
Q 1594 3097 1305 2825 
Q 1016 2553 972 2059 
L 3022 2063 
z
" transform="scale(0.015625)"/>
       </defs>
       <use xlink:href="#DejaVuSans-32"/>
       <use xlink:href="#DejaVuSans-30" x="63.623047"/>
       <use xlink:href="#DejaVuSans-32" x="127.246094"/>
       <use xlink:href="#DejaVuSans-31" x="190.869141"/>
       <use xlink:href="#DejaVuSans-2d" x="254.492188"/>
       <use xlink:href="#DejaVuSans-53" x="290.576172"/>
       <use xlink:href="#DejaVuSans-65" x="354.052734"/>
       <use xlink:href="#DejaVuSans-70" x="415.576172"/>
       <use xlink:href="#DejaVuSans-2d" x="479.052734"/>
       <use xlink:href="#DejaVuSans-30" x="515.136719"/>
       <use xlink:href="#DejaVuSans-31" x="578.759766"/>
      </g>
     </g>
    </g>
    <g id="xtick_8">
     <g id="line2d_8">
      <g>
       <use xlink:href="#m19ab9d8ba6" x="329.989203" y="178.56" style="stroke: #000000; stroke-width: 0.8"/>
      </g>
     </g>
     <g id="text_8">
      <!-- 2021-Oct-01 -->
      <g transform="translate(274.427647 223.618565)rotate(-30)scale(0.1 -0.1)">
       <defs>
        <path id="DejaVuSans-4f" d="M 2522 4238 
Q 1834 4238 1429 3725 
Q 1025 3213 1025 2328 
Q 1025 1447 1429 934 
Q 1834 422 2522 422 
Q 3209 422 3611 934 
Q 4013 1447 4013 2328 
Q 4013 3213 3611 3725 
Q 3209 4238 2522 4238 
z
M 2522 4750 
Q 3503 4750 4090 4092 
Q 4678 3434 4678 2328 
Q 4678 1225 4090 567 
Q 3503 -91 2522 -91 
Q 1538 -91 948 565 
Q 359 1222 359 2328 
Q 359 3434 948 4092 
Q 1538 4750 2522 4750 
z
" transform="scale(0.015625)"/>
        <path id="DejaVuSans-63" d="M 3122 3366 
L 3122 2828 
Q 2878 2963 2633 3030 
Q 2388 3097 2138 3097 
Q 1578 3097 1268 2742 
Q 959 2388 959 1747 
Q 959 1106 1268 751 
Q 1578 397 2138 397 
Q 2388 397 2633 464 
Q 2878 531 3122 666 
L 3122 134 
Q 2881 22 2623 -34 
Q 2366 -91 2075 -91 
Q 1284 -91 818 406 
Q 353 903 353 1747 
Q 353 2603 823 3093 
Q 1294 3584 2113 3584 
Q 2378 3584 2631 3529 
Q 2884 3475 3122 3366 
z
" transform="scale(0.015625)"/>
        <path id="DejaVuSans-74" d="M 1172 4494 
L 1172 3500 
L 2356 3500 
L 2356 3053 
L 1172 3053 
L 1172 1153 
Q 1172 725 1289 603 
Q 1406 481 1766 481 
L 2356 481 
L 2356 0 
L 1766 0 
Q 1100 0 847 248 
Q 594 497 594 1153 
L 594 3053 
L 172 3053 
L 172 3500 
L 594 3500 
L 594 4494 
L 1172 4494 
z
" transform="scale(0.015625)"/>
       </defs>
       <use xlink:href="#DejaVuSans-32"/>
       <use xlink:href="#DejaVuSans-30" x="63.623047"/>
       <use xlink:href="#DejaVuSans-32" x="127.246094"/>
       <use xlink:href="#DejaVuSans-31" x="190.869141"/>
       <use xlink:href="#DejaVuSans-2d" x="254.492188"/>
       <use xlink:href="#DejaVuSans-4f" x="293.326172"/>
       <use xlink:href="#DejaVuSans-63" x="372.037109"/>
       <use xlink:href="#DejaVuSans-74" x="427.017578"/>
       <use xlink:href="#DejaVuSans-2d" x="466.226562"/>
       <use xlink:href="#DejaVuSans-30" x="502.310547"/>
       <use xlink:href="#DejaVuSans-31" x="565.933594"/>
      </g>
     </g>
    </g>
    <g id="xtick_9">
     <g id="line2d_9">
      <g>
       <use xlink:href="#m19ab9d8ba6" x="367.654962" y="178.56" style="stroke: #000000; stroke-width: 0.8"/>
      </g>
     </g>
     <g id="text_9">
      <!-- 2021-Nov-01 -->
      <g transform="translate(310.629282 224.463877)rotate(-30)scale(0.1 -0.1)">
       <defs>
        <path id="DejaVuSans-4e" d="M 628 4666 
L 1478 4666 
L 3547 763 
L 3547 4666 
L 4159 4666 
L 4159 0 
L 3309 0 
L 1241 3903 
L 1241 0 
L 628 0 
L 628 4666 
z
" transform="scale(0.015625)"/>
        <path id="DejaVuSans-6f" d="M 1959 3097 
Q 1497 3097 1228 2736 
Q 959 2375 959 1747 
Q 959 1119 1226 758 
Q 1494 397 1959 397 
Q 2419 397 2687 759 
Q 2956 1122 2956 1747 
Q 2956 2369 2687 2733 
Q 2419 3097 1959 3097 
z
M 1959 3584 
Q 2709 3584 3137 3096 
Q 3566 2609 3566 1747 
Q 3566 888 3137 398 
Q 2709 -91 1959 -91 
Q 1206 -91 779 398 
Q 353 888 353 1747 
Q 353 2609 779 3096 
Q 1206 3584 1959 3584 
z
" transform="scale(0.015625)"/>
        <path id="DejaVuSans-76" d="M 191 3500 
L 800 3500 
L 1894 563 
L 2988 3500 
L 3597 3500 
L 2284 0 
L 1503 0 
L 191 3500 
z
" transform="scale(0.015625)"/>
       </defs>
       <use xlink:href="#DejaVuSans-32"/>
       <use xlink:href="#DejaVuSans-30" x="63.623047"/>
       <use xlink:href="#DejaVuSans-32" x="127.246094"/>
       <use xlink:href="#DejaVuSans-31" x="190.869141"/>
       <use xlink:href="#DejaVuSans-2d" x="254.492188"/>
       <use xlink:href="#DejaVuSans-4e" x="290.576172"/>
       <use xlink:href="#DejaVuSans-6f" x="365.380859"/>
       <use xlink:href="#DejaVuSans-76" x="426.5625"/>
       <use xlink:href="#DejaVuSans-2d" x="483.117188"/>
       <use xlink:href="#DejaVuSans-30" x="519.201172"/>
       <use xlink:href="#DejaVuSans-31" x="582.824219"/>
      </g>
     </g>
    </g>
    <g id="xtick_10">
     <g id="line2d_10">
      <g>
       <use xlink:href="#m19ab9d8ba6" x="404.105697" y="178.56" style="stroke: #000000; stroke-width: 0.8"/>
      </g>
     </g>
     <g id="text_10">
      <!-- 2021-Dec-01 -->
      <g transform="translate(346.997474 224.511534)rotate(-30)scale(0.1 -0.1)">
       <defs>
        <path id="DejaVuSans-44" d="M 1259 4147 
L 1259 519 
L 2022 519 
Q 2988 519 3436 956 
Q 3884 1394 3884 2338 
Q 3884 3275 3436 3711 
Q 2988 4147 2022 4147 
L 1259 4147 
z
M 628 4666 
L 1925 4666 
Q 3281 4666 3915 4102 
Q 4550 3538 4550 2338 
Q 4550 1131 3912 565 
Q 3275 0 1925 0 
L 628 0 
L 628 4666 
z
" transform="scale(0.015625)"/>
       </defs>
       <use xlink:href="#DejaVuSans-32"/>
       <use xlink:href="#DejaVuSans-30" x="63.623047"/>
       <use xlink:href="#DejaVuSans-32" x="127.246094"/>
       <use xlink:href="#DejaVuSans-31" x="190.869141"/>
       <use xlink:href="#DejaVuSans-2d" x="254.492188"/>
       <use xlink:href="#DejaVuSans-44" x="290.576172"/>
       <use xlink:href="#DejaVuSans-65" x="367.578125"/>
       <use xlink:href="#DejaVuSans-63" x="429.101562"/>
       <use xlink:href="#DejaVuSans-2d" x="484.082031"/>
       <use xlink:href="#DejaVuSans-30" x="520.166016"/>
       <use xlink:href="#DejaVuSans-31" x="583.789062"/>
      </g>
     </g>
    </g>
    <g id="xtick_11">
     <g id="line2d_11">
      <g>
       <use xlink:href="#m19ab9d8ba6" x="441.771457" y="178.56" style="stroke: #000000; stroke-width: 0.8"/>
      </g>
     </g>
     <g id="text_11">
      <!-- 2022-Jan-01 -->
      <g transform="translate(387.584716 222.824815)rotate(-30)scale(0.1 -0.1)">
       <use xlink:href="#DejaVuSans-32"/>
       <use xlink:href="#DejaVuSans-30" x="63.623047"/>
       <use xlink:href="#DejaVuSans-32" x="127.246094"/>
       <use xlink:href="#DejaVuSans-32" x="190.869141"/>
       <use xlink:href="#DejaVuSans-2d" x="254.492188"/>
       <use xlink:href="#DejaVuSans-4a" x="296.201172"/>
       <use xlink:href="#DejaVuSans-61" x="325.693359"/>
       <use xlink:href="#DejaVuSans-6e" x="386.972656"/>
       <use xlink:href="#DejaVuSans-2d" x="450.351562"/>
       <use xlink:href="#DejaVuSans-30" x="486.435547"/>
       <use xlink:href="#DejaVuSans-31" x="550.058594"/>
      </g>
     </g>
    </g>
    <g id="xtick_12">
     <g id="line2d_12">
      <g>
       <use xlink:href="#m19ab9d8ba6" x="479.437216" y="178.56" style="stroke: #000000; stroke-width: 0.8"/>
      </g>
     </g>
     <g id="text_12">
      <!-- 2022-Feb-01 -->
      <g transform="translate(423.756582 223.687315)rotate(-30)scale(0.1 -0.1)">
       <defs>
        <path id="DejaVuSans-46" d="M 628 4666 
L 3309 4666 
L 3309 4134 
L 1259 4134 
L 1259 2759 
L 3109 2759 
L 3109 2228 
L 1259 2228 
L 1259 0 
L 628 0 
L 628 4666 
z
" transform="scale(0.015625)"/>
        <path id="DejaVuSans-62" d="M 3116 1747 
Q 3116 2381 2855 2742 
Q 2594 3103 2138 3103 
Q 1681 3103 1420 2742 
Q 1159 2381 1159 1747 
Q 1159 1113 1420 752 
Q 1681 391 2138 391 
Q 2594 391 2855 752 
Q 3116 1113 3116 1747 
z
M 1159 2969 
Q 1341 3281 1617 3432 
Q 1894 3584 2278 3584 
Q 2916 3584 3314 3078 
Q 3713 2572 3713 1747 
Q 3713 922 3314 415 
Q 2916 -91 2278 -91 
Q 1894 -91 1617 61 
Q 1341 213 1159 525 
L 1159 0 
L 581 0 
L 581 4863 
L 1159 4863 
L 1159 2969 
z
" transform="scale(0.015625)"/>
       </defs>
       <use xlink:href="#DejaVuSans-32"/>
       <use xlink:href="#DejaVuSans-30" x="63.623047"/>
       <use xlink:href="#DejaVuSans-32" x="127.246094"/>
       <use xlink:href="#DejaVuSans-32" x="190.869141"/>
       <use xlink:href="#DejaVuSans-2d" x="254.492188"/>
       <use xlink:href="#DejaVuSans-46" x="290.576172"/>
       <use xlink:href="#DejaVuSans-65" x="342.595703"/>
       <use xlink:href="#DejaVuSans-62" x="404.119141"/>
       <use xlink:href="#DejaVuSans-2d" x="467.595703"/>
       <use xlink:href="#DejaVuSans-30" x="503.679688"/>
       <use xlink:href="#DejaVuSans-31" x="567.302734"/>
      </g>
     </g>
    </g>
   </g>
   <g id="matplotlib.axis_2">
    <g id="ytick_1">
     <g id="line2d_13">
      <path d="M 53.328125 172.598517 
L 499.728125 172.598517 
" clip-path="url(#p94f21ee1ee)" style="fill: none; stroke: #b0b0b0; stroke-width: 0.8; stroke-linecap: square"/>
     </g>
     <g id="line2d_14">
      <defs>
       <path id="m5fc5b54f39" d="M 0 0 
L -3.5 0 
" style="stroke: #000000; stroke-width: 0.8"/>
      </defs>
      <g>
       <use xlink:href="#m5fc5b54f39" x="53.328125" y="172.598517" style="stroke: #000000; stroke-width: 0.8"/>
      </g>
     </g>
     <g id="text_13">
      <!-- 2000 -->
      <g transform="translate(20.878125 176.397736)scale(0.1 -0.1)">
       <use xlink:href="#DejaVuSans-32"/>
       <use xlink:href="#DejaVuSans-30" x="63.623047"/>
       <use xlink:href="#DejaVuSans-30" x="127.246094"/>
       <use xlink:href="#DejaVuSans-30" x="190.869141"/>
      </g>
     </g>
    </g>
    <g id="ytick_2">
     <g id="line2d_15">
      <path d="M 53.328125 143.588867 
L 499.728125 143.588867 
" clip-path="url(#p94f21ee1ee)" style="fill: none; stroke: #b0b0b0; stroke-width: 0.8; stroke-linecap: square"/>
     </g>
     <g id="line2d_16">
      <g>
       <use xlink:href="#m5fc5b54f39" x="53.328125" y="143.588867" style="stroke: #000000; stroke-width: 0.8"/>
      </g>
     </g>
     <g id="text_14">
      <!-- 3000 -->
      <g transform="translate(20.878125 147.388086)scale(0.1 -0.1)">
       <defs>
        <path id="DejaVuSans-33" d="M 2597 2516 
Q 3050 2419 3304 2112 
Q 3559 1806 3559 1356 
Q 3559 666 3084 287 
Q 2609 -91 1734 -91 
Q 1441 -91 1130 -33 
Q 819 25 488 141 
L 488 750 
Q 750 597 1062 519 
Q 1375 441 1716 441 
Q 2309 441 2620 675 
Q 2931 909 2931 1356 
Q 2931 1769 2642 2001 
Q 2353 2234 1838 2234 
L 1294 2234 
L 1294 2753 
L 1863 2753 
Q 2328 2753 2575 2939 
Q 2822 3125 2822 3475 
Q 2822 3834 2567 4026 
Q 2313 4219 1838 4219 
Q 1578 4219 1281 4162 
Q 984 4106 628 3988 
L 628 4550 
Q 988 4650 1302 4700 
Q 1616 4750 1894 4750 
Q 2613 4750 3031 4423 
Q 3450 4097 3450 3541 
Q 3450 3153 3228 2886 
Q 3006 2619 2597 2516 
z
" transform="scale(0.015625)"/>
       </defs>
       <use xlink:href="#DejaVuSans-33"/>
       <use xlink:href="#DejaVuSans-30" x="63.623047"/>
       <use xlink:href="#DejaVuSans-30" x="127.246094"/>
       <use xlink:href="#DejaVuSans-30" x="190.869141"/>
      </g>
     </g>
    </g>
    <g id="ytick_3">
     <g id="line2d_17">
      <path d="M 53.328125 114.579218 
L 499.728125 114.579218 
" clip-path="url(#p94f21ee1ee)" style="fill: none; stroke: #b0b0b0; stroke-width: 0.8; stroke-linecap: square"/>
     </g>
     <g id="line2d_18">
      <g>
       <use xlink:href="#m5fc5b54f39" x="53.328125" y="114.579218" style="stroke: #000000; stroke-width: 0.8"/>
      </g>
     </g>
     <g id="text_15">
      <!-- 4000 -->
      <g transform="translate(20.878125 118.378437)scale(0.1 -0.1)">
       <defs>
        <path id="DejaVuSans-34" d="M 2419 4116 
L 825 1625 
L 2419 1625 
L 2419 4116 
z
M 2253 4666 
L 3047 4666 
L 3047 1625 
L 3713 1625 
L 3713 1100 
L 3047 1100 
L 3047 0 
L 2419 0 
L 2419 1100 
L 313 1100 
L 313 1709 
L 2253 4666 
z
" transform="scale(0.015625)"/>
       </defs>
       <use xlink:href="#DejaVuSans-34"/>
       <use xlink:href="#DejaVuSans-30" x="63.623047"/>
       <use xlink:href="#DejaVuSans-30" x="127.246094"/>
       <use xlink:href="#DejaVuSans-30" x="190.869141"/>
      </g>
     </g>
    </g>
    <g id="ytick_4">
     <g id="line2d_19">
      <path d="M 53.328125 85.569568 
L 499.728125 85.569568 
" clip-path="url(#p94f21ee1ee)" style="fill: none; stroke: #b0b0b0; stroke-width: 0.8; stroke-linecap: square"/>
     </g>
     <g id="line2d_20">
      <g>
       <use xlink:href="#m5fc5b54f39" x="53.328125" y="85.569568" style="stroke: #000000; stroke-width: 0.8"/>
      </g>
     </g>
     <g id="text_16">
      <!-- 5000 -->
      <g transform="translate(20.878125 89.368787)scale(0.1 -0.1)">
       <defs>
        <path id="DejaVuSans-35" d="M 691 4666 
L 3169 4666 
L 3169 4134 
L 1269 4134 
L 1269 2991 
Q 1406 3038 1543 3061 
Q 1681 3084 1819 3084 
Q 2600 3084 3056 2656 
Q 3513 2228 3513 1497 
Q 3513 744 3044 326 
Q 2575 -91 1722 -91 
Q 1428 -91 1123 -41 
Q 819 9 494 109 
L 494 744 
Q 775 591 1075 516 
Q 1375 441 1709 441 
Q 2250 441 2565 725 
Q 2881 1009 2881 1497 
Q 2881 1984 2565 2268 
Q 2250 2553 1709 2553 
Q 1456 2553 1204 2497 
Q 953 2441 691 2322 
L 691 4666 
z
" transform="scale(0.015625)"/>
       </defs>
       <use xlink:href="#DejaVuSans-35"/>
       <use xlink:href="#DejaVuSans-30" x="63.623047"/>
       <use xlink:href="#DejaVuSans-30" x="127.246094"/>
       <use xlink:href="#DejaVuSans-30" x="190.869141"/>
      </g>
     </g>
    </g>
    <g id="ytick_5">
     <g id="line2d_21">
      <path d="M 53.328125 56.559919 
L 499.728125 56.559919 
" clip-path="url(#p94f21ee1ee)" style="fill: none; stroke: #b0b0b0; stroke-width: 0.8; stroke-linecap: square"/>
     </g>
     <g id="line2d_22">
      <g>
       <use xlink:href="#m5fc5b54f39" x="53.328125" y="56.559919" style="stroke: #000000; stroke-width: 0.8"/>
      </g>
     </g>
     <g id="text_17">
      <!-- 6000 -->
      <g transform="translate(20.878125 60.359137)scale(0.1 -0.1)">
       <defs>
        <path id="DejaVuSans-36" d="M 2113 2584 
Q 1688 2584 1439 2293 
Q 1191 2003 1191 1497 
Q 1191 994 1439 701 
Q 1688 409 2113 409 
Q 2538 409 2786 701 
Q 3034 994 3034 1497 
Q 3034 2003 2786 2293 
Q 2538 2584 2113 2584 
z
M 3366 4563 
L 3366 3988 
Q 3128 4100 2886 4159 
Q 2644 4219 2406 4219 
Q 1781 4219 1451 3797 
Q 1122 3375 1075 2522 
Q 1259 2794 1537 2939 
Q 1816 3084 2150 3084 
Q 2853 3084 3261 2657 
Q 3669 2231 3669 1497 
Q 3669 778 3244 343 
Q 2819 -91 2113 -91 
Q 1303 -91 875 529 
Q 447 1150 447 2328 
Q 447 3434 972 4092 
Q 1497 4750 2381 4750 
Q 2619 4750 2861 4703 
Q 3103 4656 3366 4563 
z
" transform="scale(0.015625)"/>
       </defs>
       <use xlink:href="#DejaVuSans-36"/>
       <use xlink:href="#DejaVuSans-30" x="63.623047"/>
       <use xlink:href="#DejaVuSans-30" x="127.246094"/>
       <use xlink:href="#DejaVuSans-30" x="190.869141"/>
      </g>
     </g>
    </g>
    <g id="ytick_6">
     <g id="line2d_23">
      <path d="M 53.328125 27.550269 
L 499.728125 27.550269 
" clip-path="url(#p94f21ee1ee)" style="fill: none; stroke: #b0b0b0; stroke-width: 0.8; stroke-linecap: square"/>
     </g>
     <g id="line2d_24">
      <g>
       <use xlink:href="#m5fc5b54f39" x="53.328125" y="27.550269" style="stroke: #000000; stroke-width: 0.8"/>
      </g>
     </g>
     <g id="text_18">
      <!-- 7000 -->
      <g transform="translate(20.878125 31.349488)scale(0.1 -0.1)">
       <defs>
        <path id="DejaVuSans-37" d="M 525 4666 
L 3525 4666 
L 3525 4397 
L 1831 0 
L 1172 0 
L 2766 4134 
L 525 4134 
L 525 4666 
z
" transform="scale(0.015625)"/>
       </defs>
       <use xlink:href="#DejaVuSans-37"/>
       <use xlink:href="#DejaVuSans-30" x="63.623047"/>
       <use xlink:href="#DejaVuSans-30" x="127.246094"/>
       <use xlink:href="#DejaVuSans-30" x="190.869141"/>
      </g>
     </g>
    </g>
    <g id="text_19">
     <!-- Number of Domains -->
     <g transform="translate(14.798438 142.969844)rotate(-90)scale(0.1 -0.1)">
      <defs>
       <path id="DejaVuSans-6d" d="M 3328 2828 
Q 3544 3216 3844 3400 
Q 4144 3584 4550 3584 
Q 5097 3584 5394 3201 
Q 5691 2819 5691 2113 
L 5691 0 
L 5113 0 
L 5113 2094 
Q 5113 2597 4934 2840 
Q 4756 3084 4391 3084 
Q 3944 3084 3684 2787 
Q 3425 2491 3425 1978 
L 3425 0 
L 2847 0 
L 2847 2094 
Q 2847 2600 2669 2842 
Q 2491 3084 2119 3084 
Q 1678 3084 1418 2786 
Q 1159 2488 1159 1978 
L 1159 0 
L 581 0 
L 581 3500 
L 1159 3500 
L 1159 2956 
Q 1356 3278 1631 3431 
Q 1906 3584 2284 3584 
Q 2666 3584 2933 3390 
Q 3200 3197 3328 2828 
z
" transform="scale(0.015625)"/>
       <path id="DejaVuSans-20" transform="scale(0.015625)"/>
       <path id="DejaVuSans-66" d="M 2375 4863 
L 2375 4384 
L 1825 4384 
Q 1516 4384 1395 4259 
Q 1275 4134 1275 3809 
L 1275 3500 
L 2222 3500 
L 2222 3053 
L 1275 3053 
L 1275 0 
L 697 0 
L 697 3053 
L 147 3053 
L 147 3500 
L 697 3500 
L 697 3744 
Q 697 4328 969 4595 
Q 1241 4863 1831 4863 
L 2375 4863 
z
" transform="scale(0.015625)"/>
       <path id="DejaVuSans-69" d="M 603 3500 
L 1178 3500 
L 1178 0 
L 603 0 
L 603 3500 
z
M 603 4863 
L 1178 4863 
L 1178 4134 
L 603 4134 
L 603 4863 
z
" transform="scale(0.015625)"/>
       <path id="DejaVuSans-73" d="M 2834 3397 
L 2834 2853 
Q 2591 2978 2328 3040 
Q 2066 3103 1784 3103 
Q 1356 3103 1142 2972 
Q 928 2841 928 2578 
Q 928 2378 1081 2264 
Q 1234 2150 1697 2047 
L 1894 2003 
Q 2506 1872 2764 1633 
Q 3022 1394 3022 966 
Q 3022 478 2636 193 
Q 2250 -91 1575 -91 
Q 1294 -91 989 -36 
Q 684 19 347 128 
L 347 722 
Q 666 556 975 473 
Q 1284 391 1588 391 
Q 1994 391 2212 530 
Q 2431 669 2431 922 
Q 2431 1156 2273 1281 
Q 2116 1406 1581 1522 
L 1381 1569 
Q 847 1681 609 1914 
Q 372 2147 372 2553 
Q 372 3047 722 3315 
Q 1072 3584 1716 3584 
Q 2034 3584 2315 3537 
Q 2597 3491 2834 3397 
z
" transform="scale(0.015625)"/>
      </defs>
      <use xlink:href="#DejaVuSans-4e"/>
      <use xlink:href="#DejaVuSans-75" x="74.804688"/>
      <use xlink:href="#DejaVuSans-6d" x="138.183594"/>
      <use xlink:href="#DejaVuSans-62" x="235.595703"/>
      <use xlink:href="#DejaVuSans-65" x="299.072266"/>
      <use xlink:href="#DejaVuSans-72" x="360.595703"/>
      <use xlink:href="#DejaVuSans-20" x="401.708984"/>
      <use xlink:href="#DejaVuSans-6f" x="433.496094"/>
      <use xlink:href="#DejaVuSans-66" x="494.677734"/>
      <use xlink:href="#DejaVuSans-20" x="529.882812"/>
      <use xlink:href="#DejaVuSans-44" x="561.669922"/>
      <use xlink:href="#DejaVuSans-6f" x="638.671875"/>
      <use xlink:href="#DejaVuSans-6d" x="699.853516"/>
      <use xlink:href="#DejaVuSans-61" x="797.265625"/>
      <use xlink:href="#DejaVuSans-69" x="858.544922"/>
      <use xlink:href="#DejaVuSans-6e" x="886.328125"/>
      <use xlink:href="#DejaVuSans-73" x="949.707031"/>
     </g>
    </g>
   </g>
   <g id="line2d_25">
    <path d="M 73.619034 42.751326 
L 74.834059 40.285505 
L 76.049083 40.575602 
L 77.264108 39.444225 
L 78.479132 40.517583 
L 79.694157 39.90838 
L 82.124206 40.74966 
L 83.33923 40.778669 
L 84.554255 40.575602 
L 86.984304 38.835023 
L 102.779622 37.529589 
L 103.994647 37.616618 
L 105.209671 37.036425 
L 106.424695 37.007415 
L 107.63972 36.717318 
L 108.854744 35.527923 
L 110.069769 36.775338 
L 111.284793 36.108116 
L 112.499818 34.251498 
L 113.714842 34.483575 
L 114.929867 34.91872 
L 116.144891 34.512585 
L 117.359916 34.802682 
L 118.57494 34.976739 
L 122.220014 33.352199 
L 123.435038 33.091112 
L 124.650063 33.352199 
L 125.865087 32.830025 
L 128.295136 33.207151 
L 130.725185 32.801016 
L 131.94021 32.713987 
L 135.585283 32.278842 
L 138.015332 32.249832 
L 140.445381 32.684977 
L 141.660406 32.42389 
L 146.520504 31.727659 
L 147.735528 31.930726 
L 148.950553 31.002417 
L 150.165577 31.698649 
L 151.380602 30.857369 
L 152.595626 30.654302 
L 153.810651 30.683311 
L 155.025675 32.191813 
L 156.2407 31.959736 
L 157.455724 30.915389 
L 158.670749 31.263504 
L 159.885773 30.335196 
L 161.100798 30.82836 
L 162.315822 30.596282 
L 163.530847 31.814688 
L 165.960896 30.480244 
L 167.17592 28.188481 
L 168.390945 29.290848 
L 169.605969 27.869375 
L 170.820994 29.377877 
L 172.036018 28.246501 
L 173.251043 28.594617 
L 174.466067 29.232829 
L 175.681092 28.536597 
L 176.896116 28.27551 
L 178.111141 27.811356 
L 179.326165 29.058771 
L 180.54119 30.103118 
L 181.756214 28.826694 
L 182.971239 28.594617 
L 184.186263 28.188481 
L 185.401288 28.855703 
L 186.616312 27.695317 
L 187.831337 27.811356 
L 189.046361 27.579279 
L 190.261386 26.67998 
L 191.47641 26.999086 
L 192.691435 26.912057 
L 193.906459 26.62196 
L 195.121484 25.8387 
L 196.336508 26.67998 
L 198.766557 26.796018 
L 199.981582 25.954738 
L 201.196606 25.432565 
L 203.626655 26.099787 
L 204.84168 25.867709 
L 206.056704 25.142468 
L 207.271729 25.287517 
L 209.701778 23.982082 
L 213.346851 24.910391 
L 215.7769 24.96841 
L 220.636998 25.896719 
L 221.852023 24.736333 
L 255.872709 24.475246 
L 257.087733 23.285851 
L 259.517782 24.417227 
L 260.732807 23.750005 
L 261.947831 24.939401 
L 263.162856 23.517928 
L 264.37788 23.662976 
L 265.592905 24.127131 
L 266.807929 24.388217 
L 268.022954 23.227831 
L 269.237978 23.169812 
L 270.453003 23.401889 
L 271.668027 23.140802 
L 272.883052 23.111793 
L 274.098076 23.691986 
L 275.313101 23.34387 
L 276.528125 22.879716 
L 277.743149 22.183484 
L 299.61359 22.067445 
L 300.828615 20.994088 
L 303.258664 22.792687 
L 304.473688 22.386552 
L 305.688713 21.545272 
L 306.903737 23.924063 
L 308.118762 22.792687 
L 309.333786 22.850706 
L 310.548811 21.632301 
L 311.763835 21.777349 
L 312.97886 20.791021 
L 314.193884 20.87805 
L 315.408909 22.386552 
L 316.623933 22.154474 
L 317.838958 22.5316 
L 319.053982 20.994088 
L 320.269007 21.342204 
L 321.484031 21.893388 
L 325.129105 20.84904 
L 326.344129 22.734667 
L 327.559154 21.371214 
L 328.774178 21.806359 
L 329.989203 20.907059 
L 331.204227 21.313195 
L 332.419252 22.734667 
L 333.634276 21.574281 
L 334.849301 18.992423 
L 336.064325 18.731336 
L 337.27935 19.804693 
L 338.494374 18.702326 
L 339.709399 18.41223 
L 340.924423 18.876384 
L 342.139448 19.137471 
L 343.354472 18.615297 
L 344.569497 18.963413 
L 345.784521 21.168146 
L 346.999546 19.717664 
L 348.21457 19.108461 
L 349.429595 19.079451 
L 350.644619 18.876384 
L 351.859644 19.050442 
L 354.289693 17.890056 
L 355.504717 18.789355 
L 357.934766 19.19549 
L 359.149791 19.920731 
L 360.364815 18.267181 
L 362.794864 17.628969 
L 364.009889 18.296191 
L 365.224913 17.51293 
L 366.439938 17.396892 
L 367.654962 18.006094 
L 368.869987 15.946409 
L 370.085011 17.222834 
L 371.300036 16.149477 
L 372.51506 16.294525 
L 373.730085 15.743342 
L 374.945109 16.207496 
L 376.160134 16.236506 
L 377.375158 15.366216 
L 378.590183 14.989091 
L 382.235256 15.598294 
L 383.450281 16.236506 
L 384.665305 16.439573 
L 385.88033 15.743342 
L 387.095354 16.468583 
L 388.310379 15.9174 
L 389.525403 15.772351 
L 390.740428 15.10513 
L 391.955452 15.714332 
L 393.170477 15.453245 
L 394.385501 16.410564 
L 395.600526 19.108461 
L 396.81555 17.193824 
L 398.030575 17.919066 
L 399.245599 15.424236 
L 400.460624 15.569284 
L 401.675648 19.427567 
L 402.890673 18.209162 
L 404.105697 20.123799 
L 405.320722 19.601625 
L 406.535746 18.180152 
L 407.750771 20.82003 
L 408.965795 17.164815 
L 411.395844 20.210828 
L 412.610869 18.296191 
L 413.825893 17.599959 
L 415.040918 20.558944 
L 416.255942 17.251844 
L 417.470967 16.932737 
L 419.901016 19.949741 
L 421.11604 20.094789 
L 422.331065 19.804693 
L 423.546089 17.861046 
L 427.191163 18.238172 
L 428.406187 20.994088 
L 429.621212 20.703992 
L 430.836236 16.990757 
L 432.051261 18.702326 
L 433.266285 18.209162 
L 434.48131 19.514596 
L 435.696334 19.688654 
L 436.911359 22.125465 
L 438.126383 17.890056 
L 439.341408 18.064114 
L 442.986481 17.745008 
L 444.201506 18.644307 
L 445.41653 22.270513 
L 446.631555 19.050442 
L 447.846579 19.398558 
L 449.061603 19.253509 
L 450.276628 21.71933 
L 451.491652 26.012758 
L 452.706677 22.415561 
L 453.921701 20.529934 
L 455.136726 19.021432 
L 456.35175 17.861046 
L 457.566775 17.977085 
L 458.781799 25.02643 
L 459.996824 22.734667 
L 461.211848 24.446237 
L 462.426873 20.907059 
L 463.641897 26.041767 
L 464.856922 25.635632 
L 466.071946 18.122133 
L 467.286971 21.458243 
L 468.501995 18.38322 
L 469.71702 24.765343 
L 470.932044 18.528268 
L 472.147069 20.616963 
L 473.362093 21.371214 
L 474.577118 23.34387 
L 475.792142 24.214159 
L 477.007167 19.833702 
L 478.222191 16.787689 
L 479.437216 20.06578 
L 479.437216 20.06578 
" clip-path="url(#p94f21ee1ee)" style="fill: none; stroke: #1f77b4; stroke-width: 1.5; stroke-linecap: square"/>
   </g>
   <g id="line2d_26">
    <path d="M 73.619034 102.714271 
L 74.834059 100.132412 
L 76.049083 100.712605 
L 77.264108 99.813306 
L 78.479132 100.799634 
L 79.694157 100.393499 
L 82.124206 100.654586 
L 83.33923 101.031712 
L 84.554255 100.538547 
L 85.769279 100.219441 
L 86.984304 99.349152 
L 103.994647 98.362824 
L 105.209671 98.014708 
L 106.424695 98.420843 
L 107.63972 97.637583 
L 108.854744 97.231447 
L 110.069769 97.898669 
L 111.284793 97.289467 
L 112.499818 95.461859 
L 113.714842 95.693936 
L 114.929867 95.780965 
L 116.144891 96.129081 
L 117.359916 95.955023 
L 118.57494 95.955023 
L 123.435038 94.50454 
L 124.650063 94.678598 
L 125.865087 94.388502 
L 127.080112 94.475531 
L 128.295136 95.055724 
L 129.510161 94.214444 
L 130.725185 94.56256 
L 131.94021 94.098405 
L 135.585283 93.866328 
L 136.800308 94.446521 
L 138.015332 94.098405 
L 139.230357 94.185434 
L 141.660406 94.156425 
L 146.520504 93.199106 
L 147.735528 93.518212 
L 148.950553 93.228116 
L 150.165577 93.373164 
L 152.595626 92.821981 
L 153.810651 93.199106 
L 155.025675 94.417511 
L 156.2407 94.127415 
L 157.455724 93.199106 
L 158.670749 93.808309 
L 159.885773 92.996039 
L 161.100798 93.837318 
L 162.315822 93.489203 
L 163.530847 94.243454 
L 164.745871 94.243454 
L 165.960896 93.199106 
L 167.17592 90.559228 
L 168.390945 91.893672 
L 169.605969 90.762296 
L 170.820994 91.835653 
L 172.036018 90.791305 
L 173.251043 91.284469 
L 174.466067 91.429518 
L 176.896116 90.38517 
L 178.111141 90.153093 
L 179.326165 91.545556 
L 180.54119 92.647923 
L 181.756214 91.313479 
L 182.971239 90.936353 
L 184.186263 90.907344 
L 185.401288 91.835653 
L 186.616312 90.791305 
L 187.831337 91.284469 
L 189.046361 91.22645 
L 191.47641 90.182103 
L 192.691435 90.240122 
L 193.906459 90.095074 
L 195.121484 89.253794 
L 197.551533 89.688939 
L 198.766557 89.921016 
L 201.196606 88.934688 
L 202.411631 89.398842 
L 203.626655 89.688939 
L 204.84168 89.398842 
L 206.056704 88.934688 
L 207.271729 89.050726 
L 209.701778 87.91935 
L 213.346851 89.340823 
L 215.7769 88.818649 
L 220.636998 89.892006 
L 221.852023 88.615582 
L 255.872709 99.842316 
L 257.087733 98.768959 
L 258.302758 98.884997 
L 259.517782 100.132412 
L 260.732807 98.68193 
L 261.947831 100.741615 
L 263.162856 98.68193 
L 264.37788 98.768959 
L 266.807929 101.002702 
L 268.022954 98.623911 
L 269.237978 99.697268 
L 270.453003 99.52321 
L 271.668027 99.146084 
L 272.883052 99.204104 
L 274.098076 99.987364 
L 275.313101 99.46519 
L 276.528125 98.623911 
L 277.743149 98.362824 
L 299.61359 101.234779 
L 300.828615 99.552219 
L 303.258664 100.045383 
L 304.473688 100.422509 
L 305.688713 99.929345 
L 306.903737 102.105069 
L 308.118762 101.582895 
L 309.333786 99.987364 
L 310.548811 100.161422 
L 311.763835 99.4942 
L 312.97886 99.349152 
L 314.193884 98.130747 
L 315.408909 100.248451 
L 316.623933 99.146084 
L 317.838958 99.784297 
L 319.053982 99.581229 
L 320.269007 99.900335 
L 321.484031 100.683596 
L 325.129105 99.610239 
L 326.344129 101.060721 
L 327.559154 99.784297 
L 328.774178 100.712605 
L 329.989203 98.014708 
L 331.204227 99.784297 
L 332.419252 100.538547 
L 333.634276 99.813306 
L 334.849301 97.376496 
L 336.064325 95.722946 
L 337.27935 98.594901 
L 338.494374 96.564225 
L 339.709399 96.593235 
L 340.924423 97.84065 
L 342.139448 98.130747 
L 343.354472 98.101737 
L 344.569497 98.246785 
L 345.784521 98.507872 
L 348.21457 98.362824 
L 349.429595 97.782631 
L 351.859644 98.884997 
L 353.074668 96.854322 
L 354.289693 97.202438 
L 355.504717 97.753621 
L 356.719742 97.637583 
L 357.934766 98.536882 
L 359.149791 98.826978 
L 360.364815 96.825312 
L 361.57984 96.709274 
L 362.794864 93.72128 
L 364.009889 98.014708 
L 365.224913 97.231447 
L 366.439938 96.1871 
L 367.654962 97.289467 
L 368.869987 95.722946 
L 370.085011 96.303139 
L 371.300036 95.40384 
L 372.51506 95.490868 
L 373.730085 95.113743 
L 374.945109 95.751955 
L 376.160134 95.809975 
L 377.375158 94.794637 
L 378.590183 92.502875 
L 382.235256 94.446521 
L 383.450281 95.838984 
L 384.665305 94.649589 
L 385.88033 95.258791 
L 387.095354 96.535216 
L 388.310379 95.461859 
L 389.525403 93.228116 
L 390.740428 96.15809 
L 391.955452 94.388502 
L 393.170477 94.156425 
L 394.385501 94.997704 
L 395.600526 99.610239 
L 396.81555 96.680264 
L 398.030575 97.376496 
L 399.245599 94.910675 
L 400.460624 96.709274 
L 401.675648 99.552219 
L 402.890673 97.724611 
L 404.105697 100.074393 
L 405.320722 98.217776 
L 406.535746 97.81164 
L 407.750771 99.842316 
L 408.965795 97.02838 
L 410.18082 97.956689 
L 411.395844 99.813306 
L 412.610869 97.782631 
L 413.825893 96.448187 
L 415.040918 99.784297 
L 416.255942 97.347486 
L 417.470967 97.144418 
L 418.685991 97.086399 
L 419.901016 99.610239 
L 421.11604 100.132412 
L 423.546089 97.05739 
L 427.191163 97.289467 
L 428.406187 99.987364 
L 429.621212 100.190432 
L 430.836236 96.99937 
L 432.051261 98.246785 
L 433.266285 98.420843 
L 434.48131 99.349152 
L 435.696334 99.436181 
L 436.911359 103.352483 
L 438.126383 98.246785 
L 439.341408 98.246785 
L 442.986481 97.666592 
L 444.201506 99.378162 
L 445.41653 102.772291 
L 446.631555 98.478862 
L 447.846579 99.726277 
L 449.061603 99.46519 
L 450.276628 101.553885 
L 451.491652 106.746612 
L 452.706677 103.178426 
L 455.136726 99.378162 
L 456.35175 99.117075 
L 457.566775 99.378162 
L 458.781799 106.021371 
L 459.996824 102.772291 
L 461.211848 106.050381 
L 462.426873 102.047049 
L 463.641897 107.616902 
L 464.856922 106.398497 
L 466.071946 99.204104 
L 467.286971 101.727943 
L 468.501995 98.884997 
L 469.71702 106.717603 
L 470.932044 99.320142 
L 472.147069 101.96002 
L 473.362093 102.511204 
L 474.577118 105.615236 
L 475.792142 106.311468 
L 477.007167 100.915673 
L 478.222191 98.972026 
L 479.437216 101.089731 
L 479.437216 101.089731 
" clip-path="url(#p94f21ee1ee)" style="fill: none; stroke: #ff7f0e; stroke-width: 1.5; stroke-linecap: square"/>
   </g>
   <g id="line2d_27">
    <path d="M 73.619034 170.65487 
L 74.834059 170.770909 
L 77.264108 170.248735 
L 78.479132 170.335764 
L 79.694157 170.132697 
L 82.124206 170.71289 
L 83.33923 170.364774 
L 84.554255 170.65487 
L 85.769279 170.103687 
L 86.984304 170.103687 
L 102.779622 169.697552 
L 103.994647 169.87161 
L 105.209671 169.639533 
L 106.424695 169.204388 
L 107.63972 169.697552 
L 108.854744 168.914292 
L 110.069769 169.494485 
L 113.714842 169.407456 
L 114.929867 169.755571 
L 116.144891 169.00132 
L 117.359916 169.465475 
L 118.57494 169.639533 
L 122.220014 169.05934 
L 124.650063 169.291417 
L 125.865087 169.05934 
L 127.080112 169.117359 
L 128.295136 168.769243 
L 129.510161 169.378446 
L 130.725185 168.856272 
L 131.94021 169.233398 
L 135.585283 169.03033 
L 136.800308 168.450137 
L 138.015332 168.769243 
L 140.445381 169.175378 
L 141.660406 168.885282 
L 146.520504 169.146369 
L 147.735528 169.03033 
L 148.950553 168.392118 
L 150.165577 168.943301 
L 151.380602 168.334099 
L 152.595626 168.450137 
L 153.810651 168.102021 
L 155.025675 168.392118 
L 156.2407 168.450137 
L 157.455724 168.334099 
L 158.670749 168.073012 
L 159.885773 167.956973 
L 161.100798 167.608857 
L 162.315822 167.724896 
L 163.530847 168.18905 
L 164.745871 167.492819 
L 167.17592 168.24707 
L 169.605969 167.724896 
L 170.820994 168.160041 
L 173.251043 167.927963 
L 174.466067 168.421127 
L 175.681092 168.276079 
L 176.896116 168.508156 
L 179.326165 168.131031 
L 180.54119 168.073012 
L 182.971239 168.276079 
L 185.401288 167.637867 
L 186.616312 167.521828 
L 187.831337 167.144703 
L 189.046361 166.970645 
L 190.261386 166.56451 
L 191.47641 167.434799 
L 193.906459 167.144703 
L 195.121484 167.202722 
L 196.336508 167.782915 
L 197.551533 167.695886 
L 198.766557 167.492819 
L 199.981582 167.115693 
L 201.196606 167.115693 
L 202.411631 166.941635 
L 204.84168 167.086684 
L 206.056704 166.825597 
L 207.271729 166.854606 
L 209.701778 166.680549 
L 213.346851 166.187384 
L 215.7769 166.767577 
L 220.636998 166.622529 
L 221.852023 166.738568 
L 255.872709 155.250747 
L 257.087733 155.134708 
L 258.302758 155.569853 
L 259.517782 154.902631 
L 260.732807 155.685891 
L 261.947831 154.815602 
L 263.162856 155.453814 
L 264.37788 155.511833 
L 265.592905 154.873621 
L 266.807929 154.003332 
L 268.022954 155.221737 
L 269.237978 154.090361 
L 270.453003 154.496496 
L 271.668027 154.612534 
L 272.883052 154.525505 
L 274.098076 154.322438 
L 275.313101 154.496496 
L 276.528125 154.873621 
L 277.743149 154.438476 
L 299.61359 151.450482 
L 303.258664 153.365119 
L 304.473688 152.581859 
L 305.688713 152.233743 
L 306.903737 152.436811 
L 308.118762 151.827608 
L 309.333786 153.481158 
L 310.548811 152.088695 
L 311.763835 152.900965 
L 312.97886 152.059685 
L 314.193884 153.365119 
L 315.408909 152.755917 
L 316.623933 153.626206 
L 317.838958 153.365119 
L 319.053982 152.030675 
L 320.269007 152.059685 
L 321.484031 151.827608 
L 325.129105 151.856618 
L 326.344129 152.291762 
L 327.559154 152.204733 
L 328.774178 151.711569 
L 329.989203 153.510168 
L 331.204227 152.146714 
L 332.419252 152.813936 
L 333.634276 152.378791 
L 334.849301 152.233743 
L 336.064325 153.626206 
L 337.27935 151.827608 
L 338.494374 152.755917 
L 339.709399 152.436811 
L 340.924423 151.65355 
L 342.139448 151.62454 
L 343.354472 151.131376 
L 344.569497 151.334444 
L 345.784521 153.27809 
L 346.999546 151.943647 
L 348.21457 151.363454 
L 349.429595 151.914637 
L 350.644619 151.102367 
L 351.859644 150.783261 
L 353.074668 152.175724 
L 354.289693 151.305434 
L 356.719742 152.001666 
L 357.934766 151.276425 
L 360.364815 152.059685 
L 361.57984 151.885627 
L 362.794864 154.525505 
L 364.009889 150.899299 
L 365.224913 150.899299 
L 366.439938 151.827608 
L 368.869987 150.84128 
L 370.085011 151.537511 
L 371.300036 151.363454 
L 372.51506 151.421473 
L 374.945109 151.073357 
L 376.160134 151.044347 
L 377.375158 151.189396 
L 378.590183 153.104033 
L 382.235256 151.769589 
L 383.450281 151.015338 
L 384.665305 152.407801 
L 385.88033 151.102367 
L 387.095354 150.551183 
L 388.310379 151.073357 
L 389.525403 153.162052 
L 390.740428 149.564855 
L 391.955452 151.943647 
L 393.170477 151.914637 
L 394.385501 152.030675 
L 395.600526 150.116039 
L 396.81555 151.131376 
L 399.245599 151.131376 
L 400.460624 149.477826 
L 401.675648 150.493164 
L 402.890673 151.102367 
L 404.105697 150.667222 
L 405.320722 152.001666 
L 406.535746 150.986328 
L 407.750771 151.595531 
L 408.965795 150.754251 
L 410.18082 151.363454 
L 411.395844 151.015338 
L 412.610869 151.131376 
L 413.825893 151.769589 
L 415.040918 151.392463 
L 416.255942 150.522174 
L 417.470967 150.406135 
L 418.685991 152.001666 
L 419.901016 150.957318 
L 421.11604 150.580193 
L 422.331065 151.914637 
L 423.546089 151.421473 
L 428.406187 151.62454 
L 430.836236 150.609203 
L 432.051261 151.073357 
L 433.266285 150.406135 
L 434.48131 150.783261 
L 435.696334 150.870289 
L 436.911359 149.390797 
L 438.126383 150.261087 
L 439.341408 150.435145 
L 442.986481 150.696232 
L 444.201506 149.883961 
L 445.41653 150.116039 
L 446.631555 151.189396 
L 447.846579 150.290096 
L 449.061603 150.406135 
L 450.276628 150.783261 
L 451.491652 149.883961 
L 453.921701 149.825942 
L 455.136726 150.261087 
L 456.35175 149.361788 
L 457.566775 149.216739 
L 458.781799 149.622875 
L 459.996824 150.580193 
L 461.211848 149.013672 
L 462.426873 149.477826 
L 463.641897 149.042682 
L 464.856922 149.854952 
L 466.071946 149.535846 
L 467.286971 150.348116 
L 468.501995 150.116039 
L 469.71702 148.665556 
L 470.932044 149.825942 
L 472.147069 149.274759 
L 473.362093 149.477826 
L 474.577118 148.34645 
L 475.792142 148.520508 
L 477.007167 149.535846 
L 478.222191 148.433479 
L 479.437216 149.593865 
L 479.437216 149.593865 
" clip-path="url(#p94f21ee1ee)" style="fill: none; stroke: #2ca02c; stroke-width: 1.5; stroke-linecap: square"/>
   </g>
   <g id="patch_3">
    <path d="M 53.328125 178.56 
L 53.328125 7.2 
" style="fill: none; stroke: #000000; stroke-width: 0.8; stroke-linejoin: miter; stroke-linecap: square"/>
   </g>
   <g id="patch_4">
    <path d="M 499.728125 178.56 
L 499.728125 7.2 
" style="fill: none; stroke: #000000; stroke-width: 0.8; stroke-linejoin: miter; stroke-linecap: square"/>
   </g>
   <g id="patch_5">
    <path d="M 53.328125 178.56 
L 499.728125 178.56 
" style="fill: none; stroke: #000000; stroke-width: 0.8; stroke-linejoin: miter; stroke-linecap: square"/>
   </g>
   <g id="patch_6">
    <path d="M 53.328125 7.2 
L 499.728125 7.2 
" style="fill: none; stroke: #000000; stroke-width: 0.8; stroke-linejoin: miter; stroke-linecap: square"/>
   </g>
   <g id="legend_1">
    <g id="patch_7">
     <path d="M 256.688437 82.125188 
L 385.647812 82.125188 
Q 387.647812 82.125188 387.647812 80.125188 
L 387.647812 37.090813 
Q 387.647812 35.090813 385.647812 35.090813 
L 256.688437 35.090813 
Q 254.688437 35.090813 254.688437 37.090813 
L 254.688437 80.125188 
Q 254.688437 82.125188 256.688437 82.125188 
z
" style="fill: #ffffff; opacity: 0.8; stroke: #cccccc; stroke-linejoin: miter"/>
    </g>
    <g id="line2d_28">
     <path d="M 258.688437 43.18925 
L 268.688437 43.18925 
L 278.688437 43.18925 
" style="fill: none; stroke: #1f77b4; stroke-width: 1.5; stroke-linecap: square"/>
    </g>
    <g id="text_20">
     <!-- Preloaded Domains -->
     <g transform="translate(286.688437 46.68925)scale(0.1 -0.1)">
      <defs>
       <path id="DejaVuSans-50" d="M 1259 4147 
L 1259 2394 
L 2053 2394 
Q 2494 2394 2734 2622 
Q 2975 2850 2975 3272 
Q 2975 3691 2734 3919 
Q 2494 4147 2053 4147 
L 1259 4147 
z
M 628 4666 
L 2053 4666 
Q 2838 4666 3239 4311 
Q 3641 3956 3641 3272 
Q 3641 2581 3239 2228 
Q 2838 1875 2053 1875 
L 1259 1875 
L 1259 0 
L 628 0 
L 628 4666 
z
" transform="scale(0.015625)"/>
       <path id="DejaVuSans-64" d="M 2906 2969 
L 2906 4863 
L 3481 4863 
L 3481 0 
L 2906 0 
L 2906 525 
Q 2725 213 2448 61 
Q 2172 -91 1784 -91 
Q 1150 -91 751 415 
Q 353 922 353 1747 
Q 353 2572 751 3078 
Q 1150 3584 1784 3584 
Q 2172 3584 2448 3432 
Q 2725 3281 2906 2969 
z
M 947 1747 
Q 947 1113 1208 752 
Q 1469 391 1925 391 
Q 2381 391 2643 752 
Q 2906 1113 2906 1747 
Q 2906 2381 2643 2742 
Q 2381 3103 1925 3103 
Q 1469 3103 1208 2742 
Q 947 2381 947 1747 
z
" transform="scale(0.015625)"/>
      </defs>
      <use xlink:href="#DejaVuSans-50"/>
      <use xlink:href="#DejaVuSans-72" x="58.552734"/>
      <use xlink:href="#DejaVuSans-65" x="97.416016"/>
      <use xlink:href="#DejaVuSans-6c" x="158.939453"/>
      <use xlink:href="#DejaVuSans-6f" x="186.722656"/>
      <use xlink:href="#DejaVuSans-61" x="247.904297"/>
      <use xlink:href="#DejaVuSans-64" x="309.183594"/>
      <use xlink:href="#DejaVuSans-65" x="372.660156"/>
      <use xlink:href="#DejaVuSans-64" x="434.183594"/>
      <use xlink:href="#DejaVuSans-20" x="497.660156"/>
      <use xlink:href="#DejaVuSans-44" x="529.447266"/>
      <use xlink:href="#DejaVuSans-6f" x="606.449219"/>
      <use xlink:href="#DejaVuSans-6d" x="667.630859"/>
      <use xlink:href="#DejaVuSans-61" x="765.042969"/>
      <use xlink:href="#DejaVuSans-69" x="826.322266"/>
      <use xlink:href="#DejaVuSans-6e" x="854.105469"/>
      <use xlink:href="#DejaVuSans-73" x="917.484375"/>
     </g>
    </g>
    <g id="line2d_29">
     <path d="M 258.688437 57.867375 
L 268.688437 57.867375 
L 278.688437 57.867375 
" style="fill: none; stroke: #ff7f0e; stroke-width: 1.5; stroke-linecap: square"/>
    </g>
    <g id="text_21">
     <!-- All Criteria Met -->
     <g transform="translate(286.688437 61.367375)scale(0.1 -0.1)">
      <defs>
       <path id="DejaVuSans-43" d="M 4122 4306 
L 4122 3641 
Q 3803 3938 3442 4084 
Q 3081 4231 2675 4231 
Q 1875 4231 1450 3742 
Q 1025 3253 1025 2328 
Q 1025 1406 1450 917 
Q 1875 428 2675 428 
Q 3081 428 3442 575 
Q 3803 722 4122 1019 
L 4122 359 
Q 3791 134 3420 21 
Q 3050 -91 2638 -91 
Q 1578 -91 968 557 
Q 359 1206 359 2328 
Q 359 3453 968 4101 
Q 1578 4750 2638 4750 
Q 3056 4750 3426 4639 
Q 3797 4528 4122 4306 
z
" transform="scale(0.015625)"/>
      </defs>
      <use xlink:href="#DejaVuSans-41"/>
      <use xlink:href="#DejaVuSans-6c" x="68.408203"/>
      <use xlink:href="#DejaVuSans-6c" x="96.191406"/>
      <use xlink:href="#DejaVuSans-20" x="123.974609"/>
      <use xlink:href="#DejaVuSans-43" x="155.761719"/>
      <use xlink:href="#DejaVuSans-72" x="225.585938"/>
      <use xlink:href="#DejaVuSans-69" x="266.699219"/>
      <use xlink:href="#DejaVuSans-74" x="294.482422"/>
      <use xlink:href="#DejaVuSans-65" x="333.691406"/>
      <use xlink:href="#DejaVuSans-72" x="395.214844"/>
      <use xlink:href="#DejaVuSans-69" x="436.328125"/>
      <use xlink:href="#DejaVuSans-61" x="464.111328"/>
      <use xlink:href="#DejaVuSans-20" x="525.390625"/>
      <use xlink:href="#DejaVuSans-4d" x="557.177734"/>
      <use xlink:href="#DejaVuSans-65" x="643.457031"/>
      <use xlink:href="#DejaVuSans-74" x="704.980469"/>
     </g>
    </g>
    <g id="line2d_30">
     <path d="M 258.688437 72.5455 
L 268.688437 72.5455 
L 278.688437 72.5455 
" style="fill: none; stroke: #2ca02c; stroke-width: 1.5; stroke-linecap: square"/>
    </g>
    <g id="text_22">
     <!-- Not All Criteria Met -->
     <g transform="translate(286.688437 76.0455)scale(0.1 -0.1)">
      <use xlink:href="#DejaVuSans-4e"/>
      <use xlink:href="#DejaVuSans-6f" x="74.804688"/>
      <use xlink:href="#DejaVuSans-74" x="135.986328"/>
      <use xlink:href="#DejaVuSans-20" x="175.195312"/>
      <use xlink:href="#DejaVuSans-41" x="206.982422"/>
      <use xlink:href="#DejaVuSans-6c" x="275.390625"/>
      <use xlink:href="#DejaVuSans-6c" x="303.173828"/>
      <use xlink:href="#DejaVuSans-20" x="330.957031"/>
      <use xlink:href="#DejaVuSans-43" x="362.744141"/>
      <use xlink:href="#DejaVuSans-72" x="432.568359"/>
      <use xlink:href="#DejaVuSans-69" x="473.681641"/>
      <use xlink:href="#DejaVuSans-74" x="501.464844"/>
      <use xlink:href="#DejaVuSans-65" x="540.673828"/>
      <use xlink:href="#DejaVuSans-72" x="602.197266"/>
      <use xlink:href="#DejaVuSans-69" x="643.310547"/>
      <use xlink:href="#DejaVuSans-61" x="671.09375"/>
      <use xlink:href="#DejaVuSans-20" x="732.373047"/>
      <use xlink:href="#DejaVuSans-4d" x="764.160156"/>
      <use xlink:href="#DejaVuSans-65" x="850.439453"/>
      <use xlink:href="#DejaVuSans-74" x="911.962891"/>
     </g>
    </g>
   </g>
  </g>
 </g>
 <defs>
  <clipPath id="p94f21ee1ee">
   <rect x="53.328125" y="7.2" width="446.4" height="171.36"/>
  </clipPath>
 </defs>
</svg>
