<?xml version="1.0" encoding="utf-8" standalone="no"?>
<!DOCTYPE svg PUBLIC "-//W3C//DTD SVG 1.1//EN"
  "http://www.w3.org/Graphics/SVG/1.1/DTD/svg11.dtd">
<svg xmlns:xlink="http://www.w3.org/1999/xlink" width="506.928125pt" height="234.086815pt" viewBox="0 0 506.928125 234.086815" xmlns="http://www.w3.org/2000/svg" version="1.1">
 <metadata>
  <rdf:RDF xmlns:dc="http://purl.org/dc/elements/1.1/" xmlns:cc="http://creativecommons.org/ns#" xmlns:rdf="http://www.w3.org/1999/02/22-rdf-syntax-ns#">
   <cc:Work>
    <dc:type rdf:resource="http://purl.org/dc/dcmitype/StillImage"/>
    <dc:date>2022-02-13T18:52:53.487813</dc:date>
    <dc:format>image/svg+xml</dc:format>
    <dc:creator>
     <cc:Agent>
      <dc:title>Matplotlib v3.5.1, https://matplotlib.org/</dc:title>
     </cc:Agent>
    </dc:creator>
   </cc:Work>
  </rdf:RDF>
 </metadata>
 <defs>
  <style type="text/css">*{stroke-linejoin: round; stroke-linecap: butt}</style>
 </defs>
 <g id="figure_1">
  <g id="patch_1">
   <path d="M 0 234.086815 
L 506.928125 234.086815 
L 506.928125 0 
L 0 0 
z
" style="fill: #ffffff"/>
  </g>
  <g id="axes_1">
   <g id="patch_2">
    <path d="M 53.328125 178.56 
L 499.728125 178.56 
L 499.728125 7.2 
L 53.328125 7.2 
z
" style="fill: #ffffff"/>
   </g>
   <g id="matplotlib.axis_1">
    <g id="xtick_1">
     <g id="line2d_1">
      <defs>
       <path id="m91237d7f12" d="M 0 0 
L 0 3.5 
" style="stroke: #000000; stroke-width: 0.8"/>
      </defs>
      <g>
       <use xlink:href="#m91237d7f12" x="71.196239" y="178.56" style="stroke: #000000; stroke-width: 0.8"/>
      </g>
     </g>
     <g id="text_1">
      <!-- 2021-Mar-01 -->
      <g transform="translate(15.059588 223.950596)rotate(-30)scale(0.1 -0.1)">
       <defs>
        <path id="DejaVuSans-32" d="M 1228 531 
L 3431 531 
L 3431 0 
L 469 0 
L 469 531 
Q 828 903 1448 1529 
Q 2069 2156 2228 2338 
Q 2531 2678 2651 2914 
Q 2772 3150 2772 3378 
Q 2772 3750 2511 3984 
Q 2250 4219 1831 4219 
Q 1534 4219 1204 4116 
Q 875 4013 500 3803 
L 500 4441 
Q 881 4594 1212 4672 
Q 1544 4750 1819 4750 
Q 2544 4750 2975 4387 
Q 3406 4025 3406 3419 
Q 3406 3131 3298 2873 
Q 3191 2616 2906 2266 
Q 2828 2175 2409 1742 
Q 1991 1309 1228 531 
z
" transform="scale(0.015625)"/>
        <path id="DejaVuSans-30" d="M 2034 4250 
Q 1547 4250 1301 3770 
Q 1056 3291 1056 2328 
Q 1056 1369 1301 889 
Q 1547 409 2034 409 
Q 2525 409 2770 889 
Q 3016 1369 3016 2328 
Q 3016 3291 2770 3770 
Q 2525 4250 2034 4250 
z
M 2034 4750 
Q 2819 4750 3233 4129 
Q 3647 3509 3647 2328 
Q 3647 1150 3233 529 
Q 2819 -91 2034 -91 
Q 1250 -91 836 529 
Q 422 1150 422 2328 
Q 422 3509 836 4129 
Q 1250 4750 2034 4750 
z
" transform="scale(0.015625)"/>
        <path id="DejaVuSans-31" d="M 794 531 
L 1825 531 
L 1825 4091 
L 703 3866 
L 703 4441 
L 1819 4666 
L 2450 4666 
L 2450 531 
L 3481 531 
L 3481 0 
L 794 0 
L 794 531 
z
" transform="scale(0.015625)"/>
        <path id="DejaVuSans-2d" d="M 313 2009 
L 1997 2009 
L 1997 1497 
L 313 1497 
L 313 2009 
z
" transform="scale(0.015625)"/>
        <path id="DejaVuSans-4d" d="M 628 4666 
L 1569 4666 
L 2759 1491 
L 3956 4666 
L 4897 4666 
L 4897 0 
L 4281 0 
L 4281 4097 
L 3078 897 
L 2444 897 
L 1241 4097 
L 1241 0 
L 628 0 
L 628 4666 
z
" transform="scale(0.015625)"/>
        <path id="DejaVuSans-61" d="M 2194 1759 
Q 1497 1759 1228 1600 
Q 959 1441 959 1056 
Q 959 750 1161 570 
Q 1363 391 1709 391 
Q 2188 391 2477 730 
Q 2766 1069 2766 1631 
L 2766 1759 
L 2194 1759 
z
M 3341 1997 
L 3341 0 
L 2766 0 
L 2766 531 
Q 2569 213 2275 61 
Q 1981 -91 1556 -91 
Q 1019 -91 701 211 
Q 384 513 384 1019 
Q 384 1609 779 1909 
Q 1175 2209 1959 2209 
L 2766 2209 
L 2766 2266 
Q 2766 2663 2505 2880 
Q 2244 3097 1772 3097 
Q 1472 3097 1187 3025 
Q 903 2953 641 2809 
L 641 3341 
Q 956 3463 1253 3523 
Q 1550 3584 1831 3584 
Q 2591 3584 2966 3190 
Q 3341 2797 3341 1997 
z
" transform="scale(0.015625)"/>
        <path id="DejaVuSans-72" d="M 2631 2963 
Q 2534 3019 2420 3045 
Q 2306 3072 2169 3072 
Q 1681 3072 1420 2755 
Q 1159 2438 1159 1844 
L 1159 0 
L 581 0 
L 581 3500 
L 1159 3500 
L 1159 2956 
Q 1341 3275 1631 3429 
Q 1922 3584 2338 3584 
Q 2397 3584 2469 3576 
Q 2541 3569 2628 3553 
L 2631 2963 
z
" transform="scale(0.015625)"/>
       </defs>
       <use xlink:href="#DejaVuSans-32"/>
       <use xlink:href="#DejaVuSans-30" x="63.623047"/>
       <use xlink:href="#DejaVuSans-32" x="127.246094"/>
       <use xlink:href="#DejaVuSans-31" x="190.869141"/>
       <use xlink:href="#DejaVuSans-2d" x="254.492188"/>
       <use xlink:href="#DejaVuSans-4d" x="290.576172"/>
       <use xlink:href="#DejaVuSans-61" x="376.855469"/>
       <use xlink:href="#DejaVuSans-72" x="438.134766"/>
       <use xlink:href="#DejaVuSans-2d" x="472.873047"/>
       <use xlink:href="#DejaVuSans-30" x="508.957031"/>
       <use xlink:href="#DejaVuSans-31" x="572.580078"/>
      </g>
     </g>
    </g>
    <g id="xtick_2">
     <g id="line2d_2">
      <g>
       <use xlink:href="#m91237d7f12" x="108.749563" y="178.56" style="stroke: #000000; stroke-width: 0.8"/>
      </g>
     </g>
     <g id="text_2">
      <!-- 2021-Apr-01 -->
      <g transform="translate(54.164993 223.054502)rotate(-30)scale(0.1 -0.1)">
       <defs>
        <path id="DejaVuSans-41" d="M 2188 4044 
L 1331 1722 
L 3047 1722 
L 2188 4044 
z
M 1831 4666 
L 2547 4666 
L 4325 0 
L 3669 0 
L 3244 1197 
L 1141 1197 
L 716 0 
L 50 0 
L 1831 4666 
z
" transform="scale(0.015625)"/>
        <path id="DejaVuSans-70" d="M 1159 525 
L 1159 -1331 
L 581 -1331 
L 581 3500 
L 1159 3500 
L 1159 2969 
Q 1341 3281 1617 3432 
Q 1894 3584 2278 3584 
Q 2916 3584 3314 3078 
Q 3713 2572 3713 1747 
Q 3713 922 3314 415 
Q 2916 -91 2278 -91 
Q 1894 -91 1617 61 
Q 1341 213 1159 525 
z
M 3116 1747 
Q 3116 2381 2855 2742 
Q 2594 3103 2138 3103 
Q 1681 3103 1420 2742 
Q 1159 2381 1159 1747 
Q 1159 1113 1420 752 
Q 1681 391 2138 391 
Q 2594 391 2855 752 
Q 3116 1113 3116 1747 
z
" transform="scale(0.015625)"/>
       </defs>
       <use xlink:href="#DejaVuSans-32"/>
       <use xlink:href="#DejaVuSans-30" x="63.623047"/>
       <use xlink:href="#DejaVuSans-32" x="127.246094"/>
       <use xlink:href="#DejaVuSans-31" x="190.869141"/>
       <use xlink:href="#DejaVuSans-2d" x="254.492188"/>
       <use xlink:href="#DejaVuSans-41" x="288.326172"/>
       <use xlink:href="#DejaVuSans-70" x="356.734375"/>
       <use xlink:href="#DejaVuSans-72" x="420.210938"/>
       <use xlink:href="#DejaVuSans-2d" x="454.949219"/>
       <use xlink:href="#DejaVuSans-30" x="491.033203"/>
       <use xlink:href="#DejaVuSans-31" x="554.65625"/>
      </g>
     </g>
    </g>
    <g id="xtick_3">
     <g id="line2d_3">
      <g>
       <use xlink:href="#m91237d7f12" x="145.09149" y="178.56" style="stroke: #000000; stroke-width: 0.8"/>
      </g>
     </g>
     <g id="text_3">
      <!-- 2021-May-01 -->
      <g transform="translate(86.988691 225.085752)rotate(-30)scale(0.1 -0.1)">
       <defs>
        <path id="DejaVuSans-79" d="M 2059 -325 
Q 1816 -950 1584 -1140 
Q 1353 -1331 966 -1331 
L 506 -1331 
L 506 -850 
L 844 -850 
Q 1081 -850 1212 -737 
Q 1344 -625 1503 -206 
L 1606 56 
L 191 3500 
L 800 3500 
L 1894 763 
L 2988 3500 
L 3597 3500 
L 2059 -325 
z
" transform="scale(0.015625)"/>
       </defs>
       <use xlink:href="#DejaVuSans-32"/>
       <use xlink:href="#DejaVuSans-30" x="63.623047"/>
       <use xlink:href="#DejaVuSans-32" x="127.246094"/>
       <use xlink:href="#DejaVuSans-31" x="190.869141"/>
       <use xlink:href="#DejaVuSans-2d" x="254.492188"/>
       <use xlink:href="#DejaVuSans-4d" x="290.576172"/>
       <use xlink:href="#DejaVuSans-61" x="376.855469"/>
       <use xlink:href="#DejaVuSans-79" x="438.134766"/>
       <use xlink:href="#DejaVuSans-2d" x="495.564453"/>
       <use xlink:href="#DejaVuSans-30" x="531.648438"/>
       <use xlink:href="#DejaVuSans-31" x="595.271484"/>
      </g>
     </g>
    </g>
    <g id="xtick_4">
     <g id="line2d_4">
      <g>
       <use xlink:href="#m91237d7f12" x="182.644814" y="178.56" style="stroke: #000000; stroke-width: 0.8"/>
      </g>
     </g>
     <g id="text_4">
      <!-- 2021-Jun-01 -->
      <g transform="translate(128.27675 222.929502)rotate(-30)scale(0.1 -0.1)">
       <defs>
        <path id="DejaVuSans-4a" d="M 628 4666 
L 1259 4666 
L 1259 325 
Q 1259 -519 939 -900 
Q 619 -1281 -91 -1281 
L -331 -1281 
L -331 -750 
L -134 -750 
Q 284 -750 456 -515 
Q 628 -281 628 325 
L 628 4666 
z
" transform="scale(0.015625)"/>
        <path id="DejaVuSans-75" d="M 544 1381 
L 544 3500 
L 1119 3500 
L 1119 1403 
Q 1119 906 1312 657 
Q 1506 409 1894 409 
Q 2359 409 2629 706 
Q 2900 1003 2900 1516 
L 2900 3500 
L 3475 3500 
L 3475 0 
L 2900 0 
L 2900 538 
Q 2691 219 2414 64 
Q 2138 -91 1772 -91 
Q 1169 -91 856 284 
Q 544 659 544 1381 
z
M 1991 3584 
L 1991 3584 
z
" transform="scale(0.015625)"/>
        <path id="DejaVuSans-6e" d="M 3513 2113 
L 3513 0 
L 2938 0 
L 2938 2094 
Q 2938 2591 2744 2837 
Q 2550 3084 2163 3084 
Q 1697 3084 1428 2787 
Q 1159 2491 1159 1978 
L 1159 0 
L 581 0 
L 581 3500 
L 1159 3500 
L 1159 2956 
Q 1366 3272 1645 3428 
Q 1925 3584 2291 3584 
Q 2894 3584 3203 3211 
Q 3513 2838 3513 2113 
z
" transform="scale(0.015625)"/>
       </defs>
       <use xlink:href="#DejaVuSans-32"/>
       <use xlink:href="#DejaVuSans-30" x="63.623047"/>
       <use xlink:href="#DejaVuSans-32" x="127.246094"/>
       <use xlink:href="#DejaVuSans-31" x="190.869141"/>
       <use xlink:href="#DejaVuSans-2d" x="254.492188"/>
       <use xlink:href="#DejaVuSans-4a" x="296.201172"/>
       <use xlink:href="#DejaVuSans-75" x="325.693359"/>
       <use xlink:href="#DejaVuSans-6e" x="389.072266"/>
       <use xlink:href="#DejaVuSans-2d" x="452.451172"/>
       <use xlink:href="#DejaVuSans-30" x="488.535156"/>
       <use xlink:href="#DejaVuSans-31" x="552.158203"/>
      </g>
     </g>
    </g>
    <g id="xtick_5">
     <g id="line2d_5">
      <g>
       <use xlink:href="#m91237d7f12" x="218.986741" y="178.56" style="stroke: #000000; stroke-width: 0.8"/>
      </g>
     </g>
     <g id="text_5">
      <!-- 2021-Jul-01 -->
      <g transform="translate(167.701186 221.149815)rotate(-30)scale(0.1 -0.1)">
       <defs>
        <path id="DejaVuSans-6c" d="M 603 4863 
L 1178 4863 
L 1178 0 
L 603 0 
L 603 4863 
z
" transform="scale(0.015625)"/>
       </defs>
       <use xlink:href="#DejaVuSans-32"/>
       <use xlink:href="#DejaVuSans-30" x="63.623047"/>
       <use xlink:href="#DejaVuSans-32" x="127.246094"/>
       <use xlink:href="#DejaVuSans-31" x="190.869141"/>
       <use xlink:href="#DejaVuSans-2d" x="254.492188"/>
       <use xlink:href="#DejaVuSans-4a" x="296.201172"/>
       <use xlink:href="#DejaVuSans-75" x="325.693359"/>
       <use xlink:href="#DejaVuSans-6c" x="389.072266"/>
       <use xlink:href="#DejaVuSans-2d" x="416.855469"/>
       <use xlink:href="#DejaVuSans-30" x="452.939453"/>
       <use xlink:href="#DejaVuSans-31" x="516.5625"/>
      </g>
     </g>
    </g>
    <g id="xtick_6">
     <g id="line2d_6">
      <g>
       <use xlink:href="#m91237d7f12" x="256.540065" y="178.56" style="stroke: #000000; stroke-width: 0.8"/>
      </g>
     </g>
     <g id="text_6">
      <!-- 2021-Aug-01 -->
      <g transform="translate(199.475144 224.486534)rotate(-30)scale(0.1 -0.1)">
       <defs>
        <path id="DejaVuSans-67" d="M 2906 1791 
Q 2906 2416 2648 2759 
Q 2391 3103 1925 3103 
Q 1463 3103 1205 2759 
Q 947 2416 947 1791 
Q 947 1169 1205 825 
Q 1463 481 1925 481 
Q 2391 481 2648 825 
Q 2906 1169 2906 1791 
z
M 3481 434 
Q 3481 -459 3084 -895 
Q 2688 -1331 1869 -1331 
Q 1566 -1331 1297 -1286 
Q 1028 -1241 775 -1147 
L 775 -588 
Q 1028 -725 1275 -790 
Q 1522 -856 1778 -856 
Q 2344 -856 2625 -561 
Q 2906 -266 2906 331 
L 2906 616 
Q 2728 306 2450 153 
Q 2172 0 1784 0 
Q 1141 0 747 490 
Q 353 981 353 1791 
Q 353 2603 747 3093 
Q 1141 3584 1784 3584 
Q 2172 3584 2450 3431 
Q 2728 3278 2906 2969 
L 2906 3500 
L 3481 3500 
L 3481 434 
z
" transform="scale(0.015625)"/>
       </defs>
       <use xlink:href="#DejaVuSans-32"/>
       <use xlink:href="#DejaVuSans-30" x="63.623047"/>
       <use xlink:href="#DejaVuSans-32" x="127.246094"/>
       <use xlink:href="#DejaVuSans-31" x="190.869141"/>
       <use xlink:href="#DejaVuSans-2d" x="254.492188"/>
       <use xlink:href="#DejaVuSans-41" x="288.326172"/>
       <use xlink:href="#DejaVuSans-75" x="356.734375"/>
       <use xlink:href="#DejaVuSans-67" x="420.113281"/>
       <use xlink:href="#DejaVuSans-2d" x="483.589844"/>
       <use xlink:href="#DejaVuSans-30" x="519.673828"/>
       <use xlink:href="#DejaVuSans-31" x="583.296875"/>
      </g>
     </g>
    </g>
    <g id="xtick_7">
     <g id="line2d_7">
      <g>
       <use xlink:href="#m91237d7f12" x="294.09339" y="178.56" style="stroke: #000000; stroke-width: 0.8"/>
      </g>
     </g>
     <g id="text_7">
      <!-- 2021-Sep-01 -->
      <g transform="translate(237.419533 224.260752)rotate(-30)scale(0.1 -0.1)">
       <defs>
        <path id="DejaVuSans-53" d="M 3425 4513 
L 3425 3897 
Q 3066 4069 2747 4153 
Q 2428 4238 2131 4238 
Q 1616 4238 1336 4038 
Q 1056 3838 1056 3469 
Q 1056 3159 1242 3001 
Q 1428 2844 1947 2747 
L 2328 2669 
Q 3034 2534 3370 2195 
Q 3706 1856 3706 1288 
Q 3706 609 3251 259 
Q 2797 -91 1919 -91 
Q 1588 -91 1214 -16 
Q 841 59 441 206 
L 441 856 
Q 825 641 1194 531 
Q 1563 422 1919 422 
Q 2459 422 2753 634 
Q 3047 847 3047 1241 
Q 3047 1584 2836 1778 
Q 2625 1972 2144 2069 
L 1759 2144 
Q 1053 2284 737 2584 
Q 422 2884 422 3419 
Q 422 4038 858 4394 
Q 1294 4750 2059 4750 
Q 2388 4750 2728 4690 
Q 3069 4631 3425 4513 
z
" transform="scale(0.015625)"/>
        <path id="DejaVuSans-65" d="M 3597 1894 
L 3597 1613 
L 953 1613 
Q 991 1019 1311 708 
Q 1631 397 2203 397 
Q 2534 397 2845 478 
Q 3156 559 3463 722 
L 3463 178 
Q 3153 47 2828 -22 
Q 2503 -91 2169 -91 
Q 1331 -91 842 396 
Q 353 884 353 1716 
Q 353 2575 817 3079 
Q 1281 3584 2069 3584 
Q 2775 3584 3186 3129 
Q 3597 2675 3597 1894 
z
M 3022 2063 
Q 3016 2534 2758 2815 
Q 2500 3097 2075 3097 
Q 1594 3097 1305 2825 
Q 1016 2553 972 2059 
L 3022 2063 
z
" transform="scale(0.015625)"/>
       </defs>
       <use xlink:href="#DejaVuSans-32"/>
       <use xlink:href="#DejaVuSans-30" x="63.623047"/>
       <use xlink:href="#DejaVuSans-32" x="127.246094"/>
       <use xlink:href="#DejaVuSans-31" x="190.869141"/>
       <use xlink:href="#DejaVuSans-2d" x="254.492188"/>
       <use xlink:href="#DejaVuSans-53" x="290.576172"/>
       <use xlink:href="#DejaVuSans-65" x="354.052734"/>
       <use xlink:href="#DejaVuSans-70" x="415.576172"/>
       <use xlink:href="#DejaVuSans-2d" x="479.052734"/>
       <use xlink:href="#DejaVuSans-30" x="515.136719"/>
       <use xlink:href="#DejaVuSans-31" x="578.759766"/>
      </g>
     </g>
    </g>
    <g id="xtick_8">
     <g id="line2d_8">
      <g>
       <use xlink:href="#m91237d7f12" x="330.435316" y="178.56" style="stroke: #000000; stroke-width: 0.8"/>
      </g>
     </g>
     <g id="text_8">
      <!-- 2021-Oct-01 -->
      <g transform="translate(274.873761 223.618565)rotate(-30)scale(0.1 -0.1)">
       <defs>
        <path id="DejaVuSans-4f" d="M 2522 4238 
Q 1834 4238 1429 3725 
Q 1025 3213 1025 2328 
Q 1025 1447 1429 934 
Q 1834 422 2522 422 
Q 3209 422 3611 934 
Q 4013 1447 4013 2328 
Q 4013 3213 3611 3725 
Q 3209 4238 2522 4238 
z
M 2522 4750 
Q 3503 4750 4090 4092 
Q 4678 3434 4678 2328 
Q 4678 1225 4090 567 
Q 3503 -91 2522 -91 
Q 1538 -91 948 565 
Q 359 1222 359 2328 
Q 359 3434 948 4092 
Q 1538 4750 2522 4750 
z
" transform="scale(0.015625)"/>
        <path id="DejaVuSans-63" d="M 3122 3366 
L 3122 2828 
Q 2878 2963 2633 3030 
Q 2388 3097 2138 3097 
Q 1578 3097 1268 2742 
Q 959 2388 959 1747 
Q 959 1106 1268 751 
Q 1578 397 2138 397 
Q 2388 397 2633 464 
Q 2878 531 3122 666 
L 3122 134 
Q 2881 22 2623 -34 
Q 2366 -91 2075 -91 
Q 1284 -91 818 406 
Q 353 903 353 1747 
Q 353 2603 823 3093 
Q 1294 3584 2113 3584 
Q 2378 3584 2631 3529 
Q 2884 3475 3122 3366 
z
" transform="scale(0.015625)"/>
        <path id="DejaVuSans-74" d="M 1172 4494 
L 1172 3500 
L 2356 3500 
L 2356 3053 
L 1172 3053 
L 1172 1153 
Q 1172 725 1289 603 
Q 1406 481 1766 481 
L 2356 481 
L 2356 0 
L 1766 0 
Q 1100 0 847 248 
Q 594 497 594 1153 
L 594 3053 
L 172 3053 
L 172 3500 
L 594 3500 
L 594 4494 
L 1172 4494 
z
" transform="scale(0.015625)"/>
       </defs>
       <use xlink:href="#DejaVuSans-32"/>
       <use xlink:href="#DejaVuSans-30" x="63.623047"/>
       <use xlink:href="#DejaVuSans-32" x="127.246094"/>
       <use xlink:href="#DejaVuSans-31" x="190.869141"/>
       <use xlink:href="#DejaVuSans-2d" x="254.492188"/>
       <use xlink:href="#DejaVuSans-4f" x="293.326172"/>
       <use xlink:href="#DejaVuSans-63" x="372.037109"/>
       <use xlink:href="#DejaVuSans-74" x="427.017578"/>
       <use xlink:href="#DejaVuSans-2d" x="466.226562"/>
       <use xlink:href="#DejaVuSans-30" x="502.310547"/>
       <use xlink:href="#DejaVuSans-31" x="565.933594"/>
      </g>
     </g>
    </g>
    <g id="xtick_9">
     <g id="line2d_9">
      <g>
       <use xlink:href="#m91237d7f12" x="367.988641" y="178.56" style="stroke: #000000; stroke-width: 0.8"/>
      </g>
     </g>
     <g id="text_9">
      <!-- 2021-Nov-01 -->
      <g transform="translate(310.962961 224.463877)rotate(-30)scale(0.1 -0.1)">
       <defs>
        <path id="DejaVuSans-4e" d="M 628 4666 
L 1478 4666 
L 3547 763 
L 3547 4666 
L 4159 4666 
L 4159 0 
L 3309 0 
L 1241 3903 
L 1241 0 
L 628 0 
L 628 4666 
z
" transform="scale(0.015625)"/>
        <path id="DejaVuSans-6f" d="M 1959 3097 
Q 1497 3097 1228 2736 
Q 959 2375 959 1747 
Q 959 1119 1226 758 
Q 1494 397 1959 397 
Q 2419 397 2687 759 
Q 2956 1122 2956 1747 
Q 2956 2369 2687 2733 
Q 2419 3097 1959 3097 
z
M 1959 3584 
Q 2709 3584 3137 3096 
Q 3566 2609 3566 1747 
Q 3566 888 3137 398 
Q 2709 -91 1959 -91 
Q 1206 -91 779 398 
Q 353 888 353 1747 
Q 353 2609 779 3096 
Q 1206 3584 1959 3584 
z
" transform="scale(0.015625)"/>
        <path id="DejaVuSans-76" d="M 191 3500 
L 800 3500 
L 1894 563 
L 2988 3500 
L 3597 3500 
L 2284 0 
L 1503 0 
L 191 3500 
z
" transform="scale(0.015625)"/>
       </defs>
       <use xlink:href="#DejaVuSans-32"/>
       <use xlink:href="#DejaVuSans-30" x="63.623047"/>
       <use xlink:href="#DejaVuSans-32" x="127.246094"/>
       <use xlink:href="#DejaVuSans-31" x="190.869141"/>
       <use xlink:href="#DejaVuSans-2d" x="254.492188"/>
       <use xlink:href="#DejaVuSans-4e" x="290.576172"/>
       <use xlink:href="#DejaVuSans-6f" x="365.380859"/>
       <use xlink:href="#DejaVuSans-76" x="426.5625"/>
       <use xlink:href="#DejaVuSans-2d" x="483.117188"/>
       <use xlink:href="#DejaVuSans-30" x="519.201172"/>
       <use xlink:href="#DejaVuSans-31" x="582.824219"/>
      </g>
     </g>
    </g>
    <g id="xtick_10">
     <g id="line2d_10">
      <g>
       <use xlink:href="#m91237d7f12" x="404.330567" y="178.56" style="stroke: #000000; stroke-width: 0.8"/>
      </g>
     </g>
     <g id="text_10">
      <!-- 2021-Dec-01 -->
      <g transform="translate(347.222345 224.511534)rotate(-30)scale(0.1 -0.1)">
       <defs>
        <path id="DejaVuSans-44" d="M 1259 4147 
L 1259 519 
L 2022 519 
Q 2988 519 3436 956 
Q 3884 1394 3884 2338 
Q 3884 3275 3436 3711 
Q 2988 4147 2022 4147 
L 1259 4147 
z
M 628 4666 
L 1925 4666 
Q 3281 4666 3915 4102 
Q 4550 3538 4550 2338 
Q 4550 1131 3912 565 
Q 3275 0 1925 0 
L 628 0 
L 628 4666 
z
" transform="scale(0.015625)"/>
       </defs>
       <use xlink:href="#DejaVuSans-32"/>
       <use xlink:href="#DejaVuSans-30" x="63.623047"/>
       <use xlink:href="#DejaVuSans-32" x="127.246094"/>
       <use xlink:href="#DejaVuSans-31" x="190.869141"/>
       <use xlink:href="#DejaVuSans-2d" x="254.492188"/>
       <use xlink:href="#DejaVuSans-44" x="290.576172"/>
       <use xlink:href="#DejaVuSans-65" x="367.578125"/>
       <use xlink:href="#DejaVuSans-63" x="429.101562"/>
       <use xlink:href="#DejaVuSans-2d" x="484.082031"/>
       <use xlink:href="#DejaVuSans-30" x="520.166016"/>
       <use xlink:href="#DejaVuSans-31" x="583.789062"/>
      </g>
     </g>
    </g>
    <g id="xtick_11">
     <g id="line2d_11">
      <g>
       <use xlink:href="#m91237d7f12" x="441.883892" y="178.56" style="stroke: #000000; stroke-width: 0.8"/>
      </g>
     </g>
     <g id="text_11">
      <!-- 2022-Jan-01 -->
      <g transform="translate(387.697151 222.824815)rotate(-30)scale(0.1 -0.1)">
       <use xlink:href="#DejaVuSans-32"/>
       <use xlink:href="#DejaVuSans-30" x="63.623047"/>
       <use xlink:href="#DejaVuSans-32" x="127.246094"/>
       <use xlink:href="#DejaVuSans-32" x="190.869141"/>
       <use xlink:href="#DejaVuSans-2d" x="254.492188"/>
       <use xlink:href="#DejaVuSans-4a" x="296.201172"/>
       <use xlink:href="#DejaVuSans-61" x="325.693359"/>
       <use xlink:href="#DejaVuSans-6e" x="386.972656"/>
       <use xlink:href="#DejaVuSans-2d" x="450.351562"/>
       <use xlink:href="#DejaVuSans-30" x="486.435547"/>
       <use xlink:href="#DejaVuSans-31" x="550.058594"/>
      </g>
     </g>
    </g>
    <g id="xtick_12">
     <g id="line2d_12">
      <g>
       <use xlink:href="#m91237d7f12" x="479.437216" y="178.56" style="stroke: #000000; stroke-width: 0.8"/>
      </g>
     </g>
     <g id="text_12">
      <!-- 2022-Feb-01 -->
      <g transform="translate(423.756582 223.687315)rotate(-30)scale(0.1 -0.1)">
       <defs>
        <path id="DejaVuSans-46" d="M 628 4666 
L 3309 4666 
L 3309 4134 
L 1259 4134 
L 1259 2759 
L 3109 2759 
L 3109 2228 
L 1259 2228 
L 1259 0 
L 628 0 
L 628 4666 
z
" transform="scale(0.015625)"/>
        <path id="DejaVuSans-62" d="M 3116 1747 
Q 3116 2381 2855 2742 
Q 2594 3103 2138 3103 
Q 1681 3103 1420 2742 
Q 1159 2381 1159 1747 
Q 1159 1113 1420 752 
Q 1681 391 2138 391 
Q 2594 391 2855 752 
Q 3116 1113 3116 1747 
z
M 1159 2969 
Q 1341 3281 1617 3432 
Q 1894 3584 2278 3584 
Q 2916 3584 3314 3078 
Q 3713 2572 3713 1747 
Q 3713 922 3314 415 
Q 2916 -91 2278 -91 
Q 1894 -91 1617 61 
Q 1341 213 1159 525 
L 1159 0 
L 581 0 
L 581 4863 
L 1159 4863 
L 1159 2969 
z
" transform="scale(0.015625)"/>
       </defs>
       <use xlink:href="#DejaVuSans-32"/>
       <use xlink:href="#DejaVuSans-30" x="63.623047"/>
       <use xlink:href="#DejaVuSans-32" x="127.246094"/>
       <use xlink:href="#DejaVuSans-32" x="190.869141"/>
       <use xlink:href="#DejaVuSans-2d" x="254.492188"/>
       <use xlink:href="#DejaVuSans-46" x="290.576172"/>
       <use xlink:href="#DejaVuSans-65" x="342.595703"/>
       <use xlink:href="#DejaVuSans-62" x="404.119141"/>
       <use xlink:href="#DejaVuSans-2d" x="467.595703"/>
       <use xlink:href="#DejaVuSans-30" x="503.679688"/>
       <use xlink:href="#DejaVuSans-31" x="567.302734"/>
      </g>
     </g>
    </g>
   </g>
   <g id="matplotlib.axis_2">
    <g id="ytick_1">
     <g id="line2d_13">
      <path d="M 53.328125 173.04 
L 499.728125 173.04 
" clip-path="url(#p1c1603d5c6)" style="fill: none; stroke: #b0b0b0; stroke-width: 0.8; stroke-linecap: square"/>
     </g>
     <g id="line2d_14">
      <defs>
       <path id="mc3c1cc320d" d="M 0 0 
L -3.5 0 
" style="stroke: #000000; stroke-width: 0.8"/>
      </defs>
      <g>
       <use xlink:href="#mc3c1cc320d" x="53.328125" y="173.04" style="stroke: #000000; stroke-width: 0.8"/>
      </g>
     </g>
     <g id="text_13">
      <!-- 2000 -->
      <g transform="translate(20.878125 176.839219)scale(0.1 -0.1)">
       <use xlink:href="#DejaVuSans-32"/>
       <use xlink:href="#DejaVuSans-30" x="63.623047"/>
       <use xlink:href="#DejaVuSans-30" x="127.246094"/>
       <use xlink:href="#DejaVuSans-30" x="190.869141"/>
      </g>
     </g>
    </g>
    <g id="ytick_2">
     <g id="line2d_15">
      <path d="M 53.328125 143.949091 
L 499.728125 143.949091 
" clip-path="url(#p1c1603d5c6)" style="fill: none; stroke: #b0b0b0; stroke-width: 0.8; stroke-linecap: square"/>
     </g>
     <g id="line2d_16">
      <g>
       <use xlink:href="#mc3c1cc320d" x="53.328125" y="143.949091" style="stroke: #000000; stroke-width: 0.8"/>
      </g>
     </g>
     <g id="text_14">
      <!-- 3000 -->
      <g transform="translate(20.878125 147.74831)scale(0.1 -0.1)">
       <defs>
        <path id="DejaVuSans-33" d="M 2597 2516 
Q 3050 2419 3304 2112 
Q 3559 1806 3559 1356 
Q 3559 666 3084 287 
Q 2609 -91 1734 -91 
Q 1441 -91 1130 -33 
Q 819 25 488 141 
L 488 750 
Q 750 597 1062 519 
Q 1375 441 1716 441 
Q 2309 441 2620 675 
Q 2931 909 2931 1356 
Q 2931 1769 2642 2001 
Q 2353 2234 1838 2234 
L 1294 2234 
L 1294 2753 
L 1863 2753 
Q 2328 2753 2575 2939 
Q 2822 3125 2822 3475 
Q 2822 3834 2567 4026 
Q 2313 4219 1838 4219 
Q 1578 4219 1281 4162 
Q 984 4106 628 3988 
L 628 4550 
Q 988 4650 1302 4700 
Q 1616 4750 1894 4750 
Q 2613 4750 3031 4423 
Q 3450 4097 3450 3541 
Q 3450 3153 3228 2886 
Q 3006 2619 2597 2516 
z
" transform="scale(0.015625)"/>
       </defs>
       <use xlink:href="#DejaVuSans-33"/>
       <use xlink:href="#DejaVuSans-30" x="63.623047"/>
       <use xlink:href="#DejaVuSans-30" x="127.246094"/>
       <use xlink:href="#DejaVuSans-30" x="190.869141"/>
      </g>
     </g>
    </g>
    <g id="ytick_3">
     <g id="line2d_17">
      <path d="M 53.328125 114.858182 
L 499.728125 114.858182 
" clip-path="url(#p1c1603d5c6)" style="fill: none; stroke: #b0b0b0; stroke-width: 0.8; stroke-linecap: square"/>
     </g>
     <g id="line2d_18">
      <g>
       <use xlink:href="#mc3c1cc320d" x="53.328125" y="114.858182" style="stroke: #000000; stroke-width: 0.8"/>
      </g>
     </g>
     <g id="text_15">
      <!-- 4000 -->
      <g transform="translate(20.878125 118.657401)scale(0.1 -0.1)">
       <defs>
        <path id="DejaVuSans-34" d="M 2419 4116 
L 825 1625 
L 2419 1625 
L 2419 4116 
z
M 2253 4666 
L 3047 4666 
L 3047 1625 
L 3713 1625 
L 3713 1100 
L 3047 1100 
L 3047 0 
L 2419 0 
L 2419 1100 
L 313 1100 
L 313 1709 
L 2253 4666 
z
" transform="scale(0.015625)"/>
       </defs>
       <use xlink:href="#DejaVuSans-34"/>
       <use xlink:href="#DejaVuSans-30" x="63.623047"/>
       <use xlink:href="#DejaVuSans-30" x="127.246094"/>
       <use xlink:href="#DejaVuSans-30" x="190.869141"/>
      </g>
     </g>
    </g>
    <g id="ytick_4">
     <g id="line2d_19">
      <path d="M 53.328125 85.767273 
L 499.728125 85.767273 
" clip-path="url(#p1c1603d5c6)" style="fill: none; stroke: #b0b0b0; stroke-width: 0.8; stroke-linecap: square"/>
     </g>
     <g id="line2d_20">
      <g>
       <use xlink:href="#mc3c1cc320d" x="53.328125" y="85.767273" style="stroke: #000000; stroke-width: 0.8"/>
      </g>
     </g>
     <g id="text_16">
      <!-- 5000 -->
      <g transform="translate(20.878125 89.566491)scale(0.1 -0.1)">
       <defs>
        <path id="DejaVuSans-35" d="M 691 4666 
L 3169 4666 
L 3169 4134 
L 1269 4134 
L 1269 2991 
Q 1406 3038 1543 3061 
Q 1681 3084 1819 3084 
Q 2600 3084 3056 2656 
Q 3513 2228 3513 1497 
Q 3513 744 3044 326 
Q 2575 -91 1722 -91 
Q 1428 -91 1123 -41 
Q 819 9 494 109 
L 494 744 
Q 775 591 1075 516 
Q 1375 441 1709 441 
Q 2250 441 2565 725 
Q 2881 1009 2881 1497 
Q 2881 1984 2565 2268 
Q 2250 2553 1709 2553 
Q 1456 2553 1204 2497 
Q 953 2441 691 2322 
L 691 4666 
z
" transform="scale(0.015625)"/>
       </defs>
       <use xlink:href="#DejaVuSans-35"/>
       <use xlink:href="#DejaVuSans-30" x="63.623047"/>
       <use xlink:href="#DejaVuSans-30" x="127.246094"/>
       <use xlink:href="#DejaVuSans-30" x="190.869141"/>
      </g>
     </g>
    </g>
    <g id="ytick_5">
     <g id="line2d_21">
      <path d="M 53.328125 56.676364 
L 499.728125 56.676364 
" clip-path="url(#p1c1603d5c6)" style="fill: none; stroke: #b0b0b0; stroke-width: 0.8; stroke-linecap: square"/>
     </g>
     <g id="line2d_22">
      <g>
       <use xlink:href="#mc3c1cc320d" x="53.328125" y="56.676364" style="stroke: #000000; stroke-width: 0.8"/>
      </g>
     </g>
     <g id="text_17">
      <!-- 6000 -->
      <g transform="translate(20.878125 60.475582)scale(0.1 -0.1)">
       <defs>
        <path id="DejaVuSans-36" d="M 2113 2584 
Q 1688 2584 1439 2293 
Q 1191 2003 1191 1497 
Q 1191 994 1439 701 
Q 1688 409 2113 409 
Q 2538 409 2786 701 
Q 3034 994 3034 1497 
Q 3034 2003 2786 2293 
Q 2538 2584 2113 2584 
z
M 3366 4563 
L 3366 3988 
Q 3128 4100 2886 4159 
Q 2644 4219 2406 4219 
Q 1781 4219 1451 3797 
Q 1122 3375 1075 2522 
Q 1259 2794 1537 2939 
Q 1816 3084 2150 3084 
Q 2853 3084 3261 2657 
Q 3669 2231 3669 1497 
Q 3669 778 3244 343 
Q 2819 -91 2113 -91 
Q 1303 -91 875 529 
Q 447 1150 447 2328 
Q 447 3434 972 4092 
Q 1497 4750 2381 4750 
Q 2619 4750 2861 4703 
Q 3103 4656 3366 4563 
z
" transform="scale(0.015625)"/>
       </defs>
       <use xlink:href="#DejaVuSans-36"/>
       <use xlink:href="#DejaVuSans-30" x="63.623047"/>
       <use xlink:href="#DejaVuSans-30" x="127.246094"/>
       <use xlink:href="#DejaVuSans-30" x="190.869141"/>
      </g>
     </g>
    </g>
    <g id="ytick_6">
     <g id="line2d_23">
      <path d="M 53.328125 27.585455 
L 499.728125 27.585455 
" clip-path="url(#p1c1603d5c6)" style="fill: none; stroke: #b0b0b0; stroke-width: 0.8; stroke-linecap: square"/>
     </g>
     <g id="line2d_24">
      <g>
       <use xlink:href="#mc3c1cc320d" x="53.328125" y="27.585455" style="stroke: #000000; stroke-width: 0.8"/>
      </g>
     </g>
     <g id="text_18">
      <!-- 7000 -->
      <g transform="translate(20.878125 31.384673)scale(0.1 -0.1)">
       <defs>
        <path id="DejaVuSans-37" d="M 525 4666 
L 3525 4666 
L 3525 4397 
L 1831 0 
L 1172 0 
L 2766 4134 
L 525 4134 
L 525 4666 
z
" transform="scale(0.015625)"/>
       </defs>
       <use xlink:href="#DejaVuSans-37"/>
       <use xlink:href="#DejaVuSans-30" x="63.623047"/>
       <use xlink:href="#DejaVuSans-30" x="127.246094"/>
       <use xlink:href="#DejaVuSans-30" x="190.869141"/>
      </g>
     </g>
    </g>
    <g id="text_19">
     <!-- Number of Domains -->
     <g transform="translate(14.798438 142.969844)rotate(-90)scale(0.1 -0.1)">
      <defs>
       <path id="DejaVuSans-6d" d="M 3328 2828 
Q 3544 3216 3844 3400 
Q 4144 3584 4550 3584 
Q 5097 3584 5394 3201 
Q 5691 2819 5691 2113 
L 5691 0 
L 5113 0 
L 5113 2094 
Q 5113 2597 4934 2840 
Q 4756 3084 4391 3084 
Q 3944 3084 3684 2787 
Q 3425 2491 3425 1978 
L 3425 0 
L 2847 0 
L 2847 2094 
Q 2847 2600 2669 2842 
Q 2491 3084 2119 3084 
Q 1678 3084 1418 2786 
Q 1159 2488 1159 1978 
L 1159 0 
L 581 0 
L 581 3500 
L 1159 3500 
L 1159 2956 
Q 1356 3278 1631 3431 
Q 1906 3584 2284 3584 
Q 2666 3584 2933 3390 
Q 3200 3197 3328 2828 
z
" transform="scale(0.015625)"/>
       <path id="DejaVuSans-20" transform="scale(0.015625)"/>
       <path id="DejaVuSans-66" d="M 2375 4863 
L 2375 4384 
L 1825 4384 
Q 1516 4384 1395 4259 
Q 1275 4134 1275 3809 
L 1275 3500 
L 2222 3500 
L 2222 3053 
L 1275 3053 
L 1275 0 
L 697 0 
L 697 3053 
L 147 3053 
L 147 3500 
L 697 3500 
L 697 3744 
Q 697 4328 969 4595 
Q 1241 4863 1831 4863 
L 2375 4863 
z
" transform="scale(0.015625)"/>
       <path id="DejaVuSans-69" d="M 603 3500 
L 1178 3500 
L 1178 0 
L 603 0 
L 603 3500 
z
M 603 4863 
L 1178 4863 
L 1178 4134 
L 603 4134 
L 603 4863 
z
" transform="scale(0.015625)"/>
       <path id="DejaVuSans-73" d="M 2834 3397 
L 2834 2853 
Q 2591 2978 2328 3040 
Q 2066 3103 1784 3103 
Q 1356 3103 1142 2972 
Q 928 2841 928 2578 
Q 928 2378 1081 2264 
Q 1234 2150 1697 2047 
L 1894 2003 
Q 2506 1872 2764 1633 
Q 3022 1394 3022 966 
Q 3022 478 2636 193 
Q 2250 -91 1575 -91 
Q 1294 -91 989 -36 
Q 684 19 347 128 
L 347 722 
Q 666 556 975 473 
Q 1284 391 1588 391 
Q 1994 391 2212 530 
Q 2431 669 2431 922 
Q 2431 1156 2273 1281 
Q 2116 1406 1581 1522 
L 1381 1569 
Q 847 1681 609 1914 
Q 372 2147 372 2553 
Q 372 3047 722 3315 
Q 1072 3584 1716 3584 
Q 2034 3584 2315 3537 
Q 2597 3491 2834 3397 
z
" transform="scale(0.015625)"/>
      </defs>
      <use xlink:href="#DejaVuSans-4e"/>
      <use xlink:href="#DejaVuSans-75" x="74.804688"/>
      <use xlink:href="#DejaVuSans-6d" x="138.183594"/>
      <use xlink:href="#DejaVuSans-62" x="235.595703"/>
      <use xlink:href="#DejaVuSans-65" x="299.072266"/>
      <use xlink:href="#DejaVuSans-72" x="360.595703"/>
      <use xlink:href="#DejaVuSans-20" x="401.708984"/>
      <use xlink:href="#DejaVuSans-6f" x="433.496094"/>
      <use xlink:href="#DejaVuSans-66" x="494.677734"/>
      <use xlink:href="#DejaVuSans-20" x="529.882812"/>
      <use xlink:href="#DejaVuSans-44" x="561.669922"/>
      <use xlink:href="#DejaVuSans-6f" x="638.671875"/>
      <use xlink:href="#DejaVuSans-6d" x="699.853516"/>
      <use xlink:href="#DejaVuSans-61" x="797.265625"/>
      <use xlink:href="#DejaVuSans-69" x="858.544922"/>
      <use xlink:href="#DejaVuSans-6e" x="886.328125"/>
      <use xlink:href="#DejaVuSans-73" x="949.707031"/>
     </g>
    </g>
   </g>
   <g id="line2d_25">
    <path d="M 73.619034 42.043636 
L 74.830432 42.829091 
L 76.041829 40.356364 
L 77.253227 40.647273 
L 78.464624 39.512727 
L 79.676022 40.589091 
L 80.887419 39.978182 
L 83.310215 40.821818 
L 84.521612 40.850909 
L 85.73301 40.647273 
L 88.155805 38.901818 
L 103.903973 37.592727 
L 105.115371 37.68 
L 106.326768 37.098182 
L 107.538166 37.069091 
L 108.749563 36.778182 
L 109.960961 35.585455 
L 111.172358 36.836364 
L 112.383756 36.167273 
L 113.595153 34.305455 
L 114.806551 34.538182 
L 116.017949 34.974545 
L 117.229346 34.567273 
L 118.440744 34.858182 
L 119.652141 35.032727 
L 123.286334 33.403636 
L 124.497732 33.141818 
L 125.709129 33.403636 
L 126.920527 32.88 
L 129.343322 33.258182 
L 130.554719 33.025455 
L 131.766117 32.618182 
L 132.977514 32.763636 
L 136.611707 32.56 
L 137.823105 32.327273 
L 139.034502 32.298182 
L 141.457297 32.734545 
L 142.668695 32.472727 
L 147.514285 31.774545 
L 148.725683 31.978182 
L 149.93708 31.047273 
L 151.148478 31.745455 
L 152.359875 30.901818 
L 153.571273 30.698182 
L 154.78267 30.727273 
L 155.994068 32.24 
L 158.416863 31.687273 
L 159.628261 32.007273 
L 160.839658 30.378182 
L 162.051056 30.203636 
L 163.262453 30.64 
L 164.473851 31.861818 
L 165.685248 30.378182 
L 166.896646 31.687273 
L 168.108044 28.225455 
L 169.319441 29.330909 
L 170.530839 27.905455 
L 171.742236 29.418182 
L 172.953634 28.283636 
L 174.165031 28.632727 
L 175.376429 29.272727 
L 176.587826 28.574545 
L 177.799224 28.312727 
L 179.010622 27.847273 
L 180.222019 29.098182 
L 181.433417 30.145455 
L 182.644814 28.109091 
L 183.856212 29.36 
L 185.067609 28.894545 
L 186.279007 28.196364 
L 188.701802 28.516364 
L 189.9132 28.254545 
L 191.124597 26.712727 
L 192.335995 27.032727 
L 193.547392 26.945455 
L 194.75879 26.654545 
L 195.970187 25.869091 
L 197.181585 26.712727 
L 199.60438 26.829091 
L 200.815778 25.985455 
L 202.027175 25.461818 
L 204.44997 26.130909 
L 205.661368 25.898182 
L 206.872765 25.170909 
L 208.084163 25.316364 
L 210.506958 24.007273 
L 214.141151 24.938182 
L 216.563946 24.996364 
L 221.409536 25.927273 
L 222.620934 24.763636 
L 256.540065 24.501818 
L 257.751463 23.309091 
L 258.96286 23.861818 
L 260.174258 24.618182 
L 261.385656 23.774545 
L 262.597053 24.792727 
L 263.808451 23.309091 
L 267.442643 24.414545 
L 268.654041 23.250909 
L 269.865438 23.192727 
L 271.076836 23.425455 
L 272.288234 23.163636 
L 273.499631 23.134545 
L 274.711029 23.716364 
L 275.922426 23.367273 
L 277.133824 22.901818 
L 278.345221 22.203636 
L 300.150377 22.785455 
L 301.361775 21.010909 
L 303.78457 22.087273 
L 304.995968 22.407273 
L 306.207365 22.349091 
L 307.418763 23.28 
L 308.63016 23.454545 
L 309.841558 22.872727 
L 311.052955 21.650909 
L 312.264353 21.796364 
L 313.475751 20.807273 
L 314.687148 20.894545 
L 315.898546 22.407273 
L 317.109943 22.174545 
L 318.321341 21.214545 
L 319.532738 21.010909 
L 320.744136 21.36 
L 321.955533 20.545455 
L 325.589726 20.865455 
L 326.801124 21.505455 
L 328.012521 22.698182 
L 330.435316 20.923636 
L 331.646714 22.669091 
L 332.858111 22.610909 
L 334.069509 22.930909 
L 335.280907 21.156364 
L 336.492304 22.116364 
L 337.703702 23.309091 
L 338.915099 20.865455 
L 340.126497 21.912727 
L 341.337894 21.010909 
L 342.549292 22.523636 
L 343.760689 22.290909 
L 344.972087 20.952727 
L 346.183485 24.821818 
L 347.394882 21.738182 
L 348.60628 21.214545 
L 349.817677 22.290909 
L 351.029075 20.894545 
L 352.240472 22.378182 
L 353.45187 22.552727 
L 354.663267 22 
L 355.874665 23.047273 
L 357.086063 23.28 
L 358.29746 23.396364 
L 359.508858 24.152727 
L 360.720255 24.618182 
L 361.931653 17.985455 
L 363.14305 17.636364 
L 364.354448 18.305455 
L 365.565845 17.52 
L 366.777243 17.403636 
L 367.988641 18.014545 
L 369.200038 15.949091 
L 370.411436 17.229091 
L 371.622833 16.152727 
L 372.834231 16.298182 
L 374.045628 15.745455 
L 375.257026 16.210909 
L 376.468424 16.24 
L 377.679821 15.367273 
L 378.891219 14.989091 
L 382.525411 15.6 
L 383.736809 16.24 
L 384.948206 16.443636 
L 386.159604 15.745455 
L 387.371002 17.869091 
L 388.582399 15.92 
L 389.793797 17.054545 
L 391.005194 15.105455 
L 392.216592 15.716364 
L 393.427989 15.454545 
L 394.639387 16.414545 
L 395.850784 19.12 
L 397.062182 15.92 
L 398.27358 17.927273 
L 399.484977 18.450909 
L 400.696375 18.625455 
L 401.907772 17.723636 
L 403.11917 20.021818 
L 404.330567 16.938182 
L 405.541965 16.443636 
L 407.96476 20.836364 
L 409.176158 20.312727 
L 410.387555 20.72 
L 411.598953 17.083636 
L 412.81035 18.305455 
L 414.021748 18.858182 
L 415.233145 20.574545 
L 416.444543 17.258182 
L 417.65594 16.938182 
L 418.867338 18.48 
L 420.078736 16.996364 
L 421.290133 18.218182 
L 422.501531 17.898182 
L 423.712928 16.589091 
L 427.347121 21.505455 
L 428.558518 17.84 
L 429.769916 20.72 
L 430.981314 20.196364 
L 432.192711 18.712727 
L 433.404109 18.218182 
L 434.615506 19.527273 
L 435.826904 18.48 
L 437.038301 19.469091 
L 438.249699 21.04 
L 439.461097 21.185455 
L 443.095289 24.938182 
L 444.306687 25.665455 
L 445.518084 27.614545 
L 446.729482 24.705455 
L 447.940879 26.363636 
L 449.152277 27.236364 
L 450.363675 26.596364 
L 451.575072 26.247273 
L 452.78647 25.549091 
L 453.997867 28.749091 
L 455.209265 25.607273 
L 456.420662 25.025455 
L 457.63206 23.861818 
L 458.843457 25.054545 
L 460.054855 28.138182 
L 461.266253 24.472727 
L 462.47765 25.025455 
L 463.689048 32.56 
L 464.900445 25.665455 
L 466.111843 23.978182 
L 467.32324 32.298182 
L 468.534638 26.741818 
L 469.746035 25.752727 
L 470.957433 25.956364 
L 472.168831 28.196364 
L 473.380228 24.036364 
L 474.591626 28.225455 
L 475.803023 22.930909 
L 477.014421 22.494545 
L 478.225818 24.210909 
L 479.437216 26.276364 
L 479.437216 26.276364 
" clip-path="url(#p1c1603d5c6)" style="fill: none; stroke: #1f77b4; stroke-width: 1.5; stroke-linecap: square"/>
   </g>
   <g id="line2d_26">
    <path d="M 73.619034 102.494545 
L 74.830432 103.396364 
L 76.041829 100.865455 
L 77.253227 101.389091 
L 78.464624 100.516364 
L 79.676022 101.476364 
L 80.887419 101.069091 
L 83.310215 101.301818 
L 84.521612 101.767273 
L 85.73301 101.214545 
L 86.944407 100.981818 
L 88.155805 99.992727 
L 105.115371 99.061818 
L 106.326768 98.683636 
L 107.538166 99.12 
L 108.749563 98.334545 
L 109.960961 97.898182 
L 111.172358 98.48 
L 112.383756 97.985455 
L 113.595153 96.123636 
L 114.806551 96.356364 
L 116.017949 96.414545 
L 117.229346 96.821818 
L 119.652141 96.56 
L 124.497732 95.163636 
L 125.709129 95.338182 
L 126.920527 94.989091 
L 128.131924 95.076364 
L 129.343322 95.629091 
L 130.554719 94.785455 
L 131.766117 94.581818 
L 137.823105 95.134545 
L 139.034502 94.785455 
L 140.2459 94.872727 
L 142.668695 94.785455 
L 147.514285 93.738182 
L 148.725683 94.116364 
L 149.93708 93.796364 
L 151.148478 93.941818 
L 152.359875 93.738182 
L 153.571273 93.389091 
L 154.78267 93.738182 
L 155.994068 94.930909 
L 157.205466 94.698182 
L 158.416863 94.581818 
L 159.628261 95.134545 
L 160.839658 93.534545 
L 162.051056 93.563636 
L 163.262453 94.029091 
L 164.473851 94.814545 
L 165.685248 94 
L 166.896646 95.338182 
L 168.108044 91.149091 
L 169.319441 92.458182 
L 170.530839 91.323636 
L 171.742236 92.429091 
L 172.953634 91.381818 
L 174.165031 91.905455 
L 175.376429 92.050909 
L 177.799224 91.061818 
L 179.010622 90.741818 
L 180.222019 92.196364 
L 181.433417 93.272727 
L 182.644814 91.12 
L 183.856212 92.283636 
L 185.067609 92.225455 
L 186.279007 91.672727 
L 188.701802 92.574545 
L 189.9132 92.574545 
L 191.124597 91.265455 
L 192.335995 90.741818 
L 193.547392 90.829091 
L 194.75879 90.683636 
L 195.970187 89.781818 
L 197.181585 90.101818 
L 199.60438 90.509091 
L 202.027175 89.52 
L 203.238573 90.014545 
L 204.44997 90.305455 
L 205.661368 89.956364 
L 206.872765 89.490909 
L 208.084163 89.665455 
L 210.506958 88.56 
L 214.141151 89.956364 
L 216.563946 89.52 
L 221.409536 90.567273 
L 222.620934 89.229091 
L 256.540065 100.574545 
L 257.751463 99.469091 
L 258.96286 99.527273 
L 260.174258 100.865455 
L 261.385656 99.44 
L 262.597053 101.505455 
L 263.808451 99.410909 
L 265.019848 99.469091 
L 267.442643 101.68 
L 268.654041 99.381818 
L 269.865438 100.370909 
L 271.076836 100.312727 
L 272.288234 99.905455 
L 273.499631 99.905455 
L 274.711029 100.661818 
L 275.922426 100.138182 
L 277.133824 99.381818 
L 278.345221 99.090909 
L 300.150377 102.96 
L 301.361775 100.283636 
L 303.78457 99.789091 
L 304.995968 101.127273 
L 306.207365 101.738182 
L 307.418763 101.854545 
L 308.63016 103.076364 
L 309.841558 100.574545 
L 311.052955 100.865455 
L 312.264353 100.167273 
L 313.475751 100.08 
L 314.687148 98.829091 
L 315.898546 100.923636 
L 317.109943 99.818182 
L 318.321341 99.12 
L 319.532738 100.225455 
L 320.744136 100.603636 
L 321.955533 99.992727 
L 325.589726 100.254545 
L 326.801124 100.458182 
L 328.012521 101.883636 
L 329.223919 101.389091 
L 330.435316 98.741818 
L 331.646714 101.825455 
L 332.858111 101.214545 
L 334.069509 101.912727 
L 335.280907 100.138182 
L 336.492304 99.934545 
L 337.703702 102.756364 
L 338.915099 99.178182 
L 340.126497 100.836364 
L 341.337894 100.516364 
L 342.549292 102.203636 
L 343.760689 102.232727 
L 344.972087 100.836364 
L 346.183485 102.64 
L 347.394882 101.098182 
L 348.60628 101.069091 
L 349.817677 101.912727 
L 351.029075 101.098182 
L 352.240472 102.785455 
L 353.45187 102.174545 
L 354.663267 102.407273 
L 355.874665 102.989091 
L 357.086063 102.930909 
L 358.29746 103.6 
L 359.508858 103.6 
L 360.720255 103.454545 
L 361.931653 97.432727 
L 363.14305 94.407273 
L 364.354448 98.683636 
L 365.565845 97.927273 
L 366.777243 96.88 
L 367.988641 98.014545 
L 369.200038 96.472727 
L 370.411436 96.996364 
L 371.622833 96.123636 
L 372.834231 96.181818 
L 374.045628 95.803636 
L 375.257026 96.443636 
L 376.468424 96.56 
L 377.679821 95.483636 
L 378.891219 93.185455 
L 382.525411 95.134545 
L 383.736809 96.530909 
L 384.948206 95.309091 
L 386.159604 95.92 
L 387.371002 98.072727 
L 388.582399 96.210909 
L 389.793797 94.669091 
L 391.005194 96.821818 
L 392.216592 95.018182 
L 393.427989 94.843636 
L 394.639387 95.658182 
L 395.850784 100.225455 
L 397.062182 96.530909 
L 398.27358 98.072727 
L 399.484977 98.276364 
L 400.696375 99.905455 
L 401.907772 98.538182 
L 403.11917 99.992727 
L 405.541965 95.92 
L 407.96476 100.545455 
L 409.176158 100.72 
L 410.387555 100.632727 
L 411.598953 97.432727 
L 412.81035 98.450909 
L 414.021748 98.305455 
L 415.233145 100.429091 
L 416.444543 98.014545 
L 417.65594 97.781818 
L 420.078736 97.636364 
L 421.290133 98.916364 
L 422.501531 97.461818 
L 423.712928 96.647273 
L 427.347121 101.010909 
L 428.558518 97.636364 
L 429.769916 100.923636 
L 430.981314 100.661818 
L 432.192711 98.945455 
L 433.404109 99.149091 
L 434.615506 100.050909 
L 435.826904 99.061818 
L 437.038301 101.127273 
L 438.249699 101.912727 
L 439.461097 101.796364 
L 444.306687 107.032727 
L 445.518084 108.749091 
L 446.729482 104.88 
L 447.940879 107.614545 
L 449.152277 108.196364 
L 450.363675 107.265455 
L 451.575072 107.469091 
L 452.78647 106.945455 
L 453.997867 110.058182 
L 455.209265 107.149091 
L 456.420662 107.44 
L 457.63206 106.189091 
L 458.843457 106.829091 
L 460.054855 108.632727 
L 461.266253 106.858182 
L 462.47765 107.032727 
L 463.689048 114.189091 
L 464.900445 107.149091 
L 466.111843 105.927273 
L 467.32324 112.821818 
L 468.534638 107.876364 
L 469.746035 108.429091 
L 470.957433 107.44 
L 472.168831 110.058182 
L 473.380228 106.101818 
L 474.591626 110.378182 
L 475.803023 105.723636 
L 477.014421 104.618182 
L 478.225818 106.916364 
L 479.437216 107.818182 
L 479.437216 107.818182 
" clip-path="url(#p1c1603d5c6)" style="fill: none; stroke: #ff7f0e; stroke-width: 1.5; stroke-linecap: square"/>
   </g>
   <g id="line2d_27">
    <path d="M 73.619034 170.770909 
L 74.830432 170.654545 
L 76.041829 170.712727 
L 78.464624 170.218182 
L 79.676022 170.334545 
L 80.887419 170.130909 
L 83.310215 170.741818 
L 84.521612 170.305455 
L 85.73301 170.654545 
L 86.944407 170.014545 
L 88.155805 170.130909 
L 103.903973 169.723636 
L 105.115371 169.84 
L 106.326768 169.636364 
L 107.538166 169.170909 
L 108.749563 169.665455 
L 109.960961 168.909091 
L 111.172358 169.578182 
L 112.383756 169.403636 
L 114.806551 169.403636 
L 116.017949 169.781818 
L 117.229346 168.967273 
L 118.440744 169.403636 
L 119.652141 169.694545 
L 123.286334 169.054545 
L 125.709129 169.287273 
L 126.920527 169.112727 
L 128.131924 169.170909 
L 129.343322 168.850909 
L 130.554719 169.461818 
L 131.766117 169.258182 
L 132.977514 169.287273 
L 136.611707 168.763636 
L 137.823105 168.414545 
L 139.034502 168.734545 
L 141.457297 169.170909 
L 142.668695 168.909091 
L 147.514285 169.258182 
L 148.725683 169.083636 
L 149.93708 168.472727 
L 151.148478 169.025455 
L 152.359875 168.385455 
L 153.571273 168.530909 
L 154.78267 168.210909 
L 155.994068 168.530909 
L 157.205466 168.530909 
L 159.628261 168.094545 
L 160.839658 168.065455 
L 162.051056 167.861818 
L 163.262453 167.832727 
L 164.473851 168.269091 
L 165.685248 167.6 
L 166.896646 167.570909 
L 168.108044 168.298182 
L 170.530839 167.803636 
L 171.742236 168.210909 
L 174.165031 167.949091 
L 175.376429 168.443636 
L 176.587826 168.269091 
L 177.799224 168.472727 
L 181.433417 168.094545 
L 183.856212 168.298182 
L 185.067609 167.890909 
L 186.279007 167.745455 
L 191.124597 166.669091 
L 192.335995 167.512727 
L 194.75879 167.192727 
L 195.970187 167.309091 
L 197.181585 167.832727 
L 198.392983 167.745455 
L 199.60438 167.541818 
L 200.815778 167.163636 
L 202.027175 167.163636 
L 203.238573 166.96 
L 205.661368 167.163636 
L 206.872765 166.901818 
L 208.084163 166.872727 
L 210.506958 166.669091 
L 214.141151 166.203636 
L 216.563946 166.698182 
L 221.409536 166.581818 
L 222.620934 166.756364 
L 256.540065 155.149091 
L 257.751463 155.061818 
L 258.96286 155.556364 
L 260.174258 154.974545 
L 261.385656 155.556364 
L 262.597053 154.509091 
L 263.808451 155.12 
L 265.019848 155.44 
L 266.231246 154.829091 
L 267.442643 153.956364 
L 268.654041 155.090909 
L 269.865438 154.043636 
L 271.076836 154.334545 
L 272.288234 154.48 
L 273.499631 154.450909 
L 274.711029 154.276364 
L 275.922426 154.450909 
L 277.133824 154.741818 
L 278.345221 154.334545 
L 300.150377 151.047273 
L 301.361775 151.949091 
L 303.78457 153.52 
L 304.995968 152.501818 
L 306.207365 151.832727 
L 307.418763 152.647273 
L 308.63016 151.6 
L 309.841558 153.52 
L 311.052955 152.007273 
L 312.264353 152.850909 
L 313.475751 151.949091 
L 314.687148 153.287273 
L 315.898546 152.705455 
L 317.109943 153.578182 
L 318.321341 153.316364 
L 319.532738 152.007273 
L 320.744136 151.978182 
L 321.955533 151.774545 
L 325.589726 151.832727 
L 326.801124 152.269091 
L 328.012521 152.036364 
L 329.223919 151.658182 
L 330.435316 153.403636 
L 331.646714 152.065455 
L 332.858111 152.618182 
L 334.069509 152.24 
L 335.280907 152.24 
L 336.492304 153.403636 
L 337.703702 151.774545 
L 338.915099 152.909091 
L 341.337894 151.716364 
L 343.760689 151.28 
L 344.972087 151.338182 
L 346.183485 153.403636 
L 347.394882 151.861818 
L 348.60628 151.367273 
L 349.817677 151.6 
L 351.029075 151.018182 
L 352.240472 150.814545 
L 353.45187 151.6 
L 354.663267 150.814545 
L 355.874665 151.28 
L 357.086063 151.570909 
L 358.29746 151.018182 
L 359.508858 151.774545 
L 360.720255 152.385455 
L 361.931653 151.774545 
L 363.14305 154.450909 
L 364.354448 150.843636 
L 365.565845 150.814545 
L 366.777243 151.745455 
L 369.200038 150.698182 
L 370.411436 151.454545 
L 371.622833 151.250909 
L 372.834231 151.338182 
L 376.468424 150.901818 
L 377.679821 151.105455 
L 378.891219 153.025455 
L 382.525411 151.687273 
L 383.736809 150.930909 
L 384.948206 152.356364 
L 386.159604 151.047273 
L 388.582399 150.930909 
L 389.793797 153.607273 
L 391.005194 149.505455 
L 392.216592 151.92 
L 393.427989 151.832727 
L 394.639387 151.978182 
L 395.850784 150.116364 
L 398.27358 151.076364 
L 399.484977 151.396364 
L 400.696375 149.941818 
L 401.907772 150.407273 
L 403.11917 151.250909 
L 404.330567 150.203636 
L 405.541965 151.745455 
L 407.96476 151.512727 
L 409.176158 150.814545 
L 410.387555 151.309091 
L 411.598953 150.872727 
L 412.81035 151.076364 
L 414.021748 151.774545 
L 415.233145 151.367273 
L 416.444543 150.465455 
L 417.65594 150.378182 
L 418.867338 151.949091 
L 420.078736 150.581818 
L 421.290133 150.523636 
L 422.501531 151.658182 
L 423.712928 151.163636 
L 427.347121 151.716364 
L 428.558518 151.425455 
L 429.769916 151.018182 
L 430.981314 150.756364 
L 432.192711 150.989091 
L 433.404109 150.290909 
L 434.615506 150.698182 
L 435.826904 150.64 
L 437.038301 149.563636 
L 438.249699 150.349091 
L 439.461097 150.610909 
L 443.095289 150.523636 
L 444.306687 149.854545 
L 445.518084 150.087273 
L 446.729482 151.047273 
L 447.940879 149.970909 
L 450.363675 150.552727 
L 451.575072 150 
L 452.78647 149.825455 
L 453.997867 149.912727 
L 455.209265 149.68 
L 456.420662 148.807273 
L 457.63206 148.894545 
L 458.843457 149.447273 
L 460.054855 150.727273 
L 461.266253 148.836364 
L 463.689048 149.592727 
L 464.900445 149.738182 
L 466.111843 149.272727 
L 467.32324 150.698182 
L 468.534638 150.087273 
L 469.746035 148.545455 
L 470.957433 149.738182 
L 472.168831 149.36 
L 473.380228 149.156364 
L 474.591626 149.069091 
L 475.803023 148.429091 
L 477.014421 149.098182 
L 478.225818 148.516364 
L 479.437216 149.68 
L 479.437216 149.68 
" clip-path="url(#p1c1603d5c6)" style="fill: none; stroke: #2ca02c; stroke-width: 1.5; stroke-linecap: square"/>
   </g>
   <g id="patch_3">
    <path d="M 53.328125 178.56 
L 53.328125 7.2 
" style="fill: none; stroke: #000000; stroke-width: 0.8; stroke-linejoin: miter; stroke-linecap: square"/>
   </g>
   <g id="patch_4">
    <path d="M 499.728125 178.56 
L 499.728125 7.2 
" style="fill: none; stroke: #000000; stroke-width: 0.8; stroke-linejoin: miter; stroke-linecap: square"/>
   </g>
   <g id="patch_5">
    <path d="M 53.328125 178.56 
L 499.728125 178.56 
" style="fill: none; stroke: #000000; stroke-width: 0.8; stroke-linejoin: miter; stroke-linecap: square"/>
   </g>
   <g id="patch_6">
    <path d="M 53.328125 7.2 
L 499.728125 7.2 
" style="fill: none; stroke: #000000; stroke-width: 0.8; stroke-linejoin: miter; stroke-linecap: square"/>
   </g>
   <g id="legend_1">
    <g id="patch_7">
     <path d="M 256.688437 82.125188 
L 385.647812 82.125188 
Q 387.647812 82.125188 387.647812 80.125188 
L 387.647812 37.090813 
Q 387.647812 35.090813 385.647812 35.090813 
L 256.688437 35.090813 
Q 254.688437 35.090813 254.688437 37.090813 
L 254.688437 80.125188 
Q 254.688437 82.125188 256.688437 82.125188 
z
" style="fill: #ffffff; opacity: 0.8; stroke: #cccccc; stroke-linejoin: miter"/>
    </g>
    <g id="line2d_28">
     <path d="M 258.688437 43.18925 
L 268.688437 43.18925 
L 278.688437 43.18925 
" style="fill: none; stroke: #1f77b4; stroke-width: 1.5; stroke-linecap: square"/>
    </g>
    <g id="text_20">
     <!-- Preloaded Domains -->
     <g transform="translate(286.688437 46.68925)scale(0.1 -0.1)">
      <defs>
       <path id="DejaVuSans-50" d="M 1259 4147 
L 1259 2394 
L 2053 2394 
Q 2494 2394 2734 2622 
Q 2975 2850 2975 3272 
Q 2975 3691 2734 3919 
Q 2494 4147 2053 4147 
L 1259 4147 
z
M 628 4666 
L 2053 4666 
Q 2838 4666 3239 4311 
Q 3641 3956 3641 3272 
Q 3641 2581 3239 2228 
Q 2838 1875 2053 1875 
L 1259 1875 
L 1259 0 
L 628 0 
L 628 4666 
z
" transform="scale(0.015625)"/>
       <path id="DejaVuSans-64" d="M 2906 2969 
L 2906 4863 
L 3481 4863 
L 3481 0 
L 2906 0 
L 2906 525 
Q 2725 213 2448 61 
Q 2172 -91 1784 -91 
Q 1150 -91 751 415 
Q 353 922 353 1747 
Q 353 2572 751 3078 
Q 1150 3584 1784 3584 
Q 2172 3584 2448 3432 
Q 2725 3281 2906 2969 
z
M 947 1747 
Q 947 1113 1208 752 
Q 1469 391 1925 391 
Q 2381 391 2643 752 
Q 2906 1113 2906 1747 
Q 2906 2381 2643 2742 
Q 2381 3103 1925 3103 
Q 1469 3103 1208 2742 
Q 947 2381 947 1747 
z
" transform="scale(0.015625)"/>
      </defs>
      <use xlink:href="#DejaVuSans-50"/>
      <use xlink:href="#DejaVuSans-72" x="58.552734"/>
      <use xlink:href="#DejaVuSans-65" x="97.416016"/>
      <use xlink:href="#DejaVuSans-6c" x="158.939453"/>
      <use xlink:href="#DejaVuSans-6f" x="186.722656"/>
      <use xlink:href="#DejaVuSans-61" x="247.904297"/>
      <use xlink:href="#DejaVuSans-64" x="309.183594"/>
      <use xlink:href="#DejaVuSans-65" x="372.660156"/>
      <use xlink:href="#DejaVuSans-64" x="434.183594"/>
      <use xlink:href="#DejaVuSans-20" x="497.660156"/>
      <use xlink:href="#DejaVuSans-44" x="529.447266"/>
      <use xlink:href="#DejaVuSans-6f" x="606.449219"/>
      <use xlink:href="#DejaVuSans-6d" x="667.630859"/>
      <use xlink:href="#DejaVuSans-61" x="765.042969"/>
      <use xlink:href="#DejaVuSans-69" x="826.322266"/>
      <use xlink:href="#DejaVuSans-6e" x="854.105469"/>
      <use xlink:href="#DejaVuSans-73" x="917.484375"/>
     </g>
    </g>
    <g id="line2d_29">
     <path d="M 258.688437 57.867375 
L 268.688437 57.867375 
L 278.688437 57.867375 
" style="fill: none; stroke: #ff7f0e; stroke-width: 1.5; stroke-linecap: square"/>
    </g>
    <g id="text_21">
     <!-- All Criteria Met -->
     <g transform="translate(286.688437 61.367375)scale(0.1 -0.1)">
      <defs>
       <path id="DejaVuSans-43" d="M 4122 4306 
L 4122 3641 
Q 3803 3938 3442 4084 
Q 3081 4231 2675 4231 
Q 1875 4231 1450 3742 
Q 1025 3253 1025 2328 
Q 1025 1406 1450 917 
Q 1875 428 2675 428 
Q 3081 428 3442 575 
Q 3803 722 4122 1019 
L 4122 359 
Q 3791 134 3420 21 
Q 3050 -91 2638 -91 
Q 1578 -91 968 557 
Q 359 1206 359 2328 
Q 359 3453 968 4101 
Q 1578 4750 2638 4750 
Q 3056 4750 3426 4639 
Q 3797 4528 4122 4306 
z
" transform="scale(0.015625)"/>
      </defs>
      <use xlink:href="#DejaVuSans-41"/>
      <use xlink:href="#DejaVuSans-6c" x="68.408203"/>
      <use xlink:href="#DejaVuSans-6c" x="96.191406"/>
      <use xlink:href="#DejaVuSans-20" x="123.974609"/>
      <use xlink:href="#DejaVuSans-43" x="155.761719"/>
      <use xlink:href="#DejaVuSans-72" x="225.585938"/>
      <use xlink:href="#DejaVuSans-69" x="266.699219"/>
      <use xlink:href="#DejaVuSans-74" x="294.482422"/>
      <use xlink:href="#DejaVuSans-65" x="333.691406"/>
      <use xlink:href="#DejaVuSans-72" x="395.214844"/>
      <use xlink:href="#DejaVuSans-69" x="436.328125"/>
      <use xlink:href="#DejaVuSans-61" x="464.111328"/>
      <use xlink:href="#DejaVuSans-20" x="525.390625"/>
      <use xlink:href="#DejaVuSans-4d" x="557.177734"/>
      <use xlink:href="#DejaVuSans-65" x="643.457031"/>
      <use xlink:href="#DejaVuSans-74" x="704.980469"/>
     </g>
    </g>
    <g id="line2d_30">
     <path d="M 258.688437 72.5455 
L 268.688437 72.5455 
L 278.688437 72.5455 
" style="fill: none; stroke: #2ca02c; stroke-width: 1.5; stroke-linecap: square"/>
    </g>
    <g id="text_22">
     <!-- Not All Criteria Met -->
     <g transform="translate(286.688437 76.0455)scale(0.1 -0.1)">
      <use xlink:href="#DejaVuSans-4e"/>
      <use xlink:href="#DejaVuSans-6f" x="74.804688"/>
      <use xlink:href="#DejaVuSans-74" x="135.986328"/>
      <use xlink:href="#DejaVuSans-20" x="175.195312"/>
      <use xlink:href="#DejaVuSans-41" x="206.982422"/>
      <use xlink:href="#DejaVuSans-6c" x="275.390625"/>
      <use xlink:href="#DejaVuSans-6c" x="303.173828"/>
      <use xlink:href="#DejaVuSans-20" x="330.957031"/>
      <use xlink:href="#DejaVuSans-43" x="362.744141"/>
      <use xlink:href="#DejaVuSans-72" x="432.568359"/>
      <use xlink:href="#DejaVuSans-69" x="473.681641"/>
      <use xlink:href="#DejaVuSans-74" x="501.464844"/>
      <use xlink:href="#DejaVuSans-65" x="540.673828"/>
      <use xlink:href="#DejaVuSans-72" x="602.197266"/>
      <use xlink:href="#DejaVuSans-69" x="643.310547"/>
      <use xlink:href="#DejaVuSans-61" x="671.09375"/>
      <use xlink:href="#DejaVuSans-20" x="732.373047"/>
      <use xlink:href="#DejaVuSans-4d" x="764.160156"/>
      <use xlink:href="#DejaVuSans-65" x="850.439453"/>
      <use xlink:href="#DejaVuSans-74" x="911.962891"/>
     </g>
    </g>
   </g>
  </g>
 </g>
 <defs>
  <clipPath id="p1c1603d5c6">
   <rect x="53.328125" y="7.2" width="446.4" height="171.36"/>
  </clipPath>
 </defs>
</svg>
