<?xml version="1.0" encoding="utf-8" standalone="no"?>
<!DOCTYPE svg PUBLIC "-//W3C//DTD SVG 1.1//EN"
  "http://www.w3.org/Graphics/SVG/1.1/DTD/svg11.dtd">
<svg xmlns:xlink="http://www.w3.org/1999/xlink" width="503.132498pt" height="234.086815pt" viewBox="0 0 503.132498 234.086815" xmlns="http://www.w3.org/2000/svg" version="1.1">
 <metadata>
  <rdf:RDF xmlns:dc="http://purl.org/dc/elements/1.1/" xmlns:cc="http://creativecommons.org/ns#" xmlns:rdf="http://www.w3.org/1999/02/22-rdf-syntax-ns#">
   <cc:Work>
    <dc:type rdf:resource="http://purl.org/dc/dcmitype/StillImage"/>
    <dc:date>2022-01-25T19:28:32.599554</dc:date>
    <dc:format>image/svg+xml</dc:format>
    <dc:creator>
     <cc:Agent>
      <dc:title>Matplotlib v3.5.1, https://matplotlib.org/</dc:title>
     </cc:Agent>
    </dc:creator>
   </cc:Work>
  </rdf:RDF>
 </metadata>
 <defs>
  <style type="text/css">*{stroke-linejoin: round; stroke-linecap: butt}</style>
 </defs>
 <g id="figure_1">
  <g id="patch_1">
   <path d="M 0 234.086815 
L 503.132498 234.086815 
L 503.132498 0 
L 0 0 
z
" style="fill: #ffffff"/>
  </g>
  <g id="axes_1">
   <g id="patch_2">
    <path d="M 49.532498 178.56 
L 495.932498 178.56 
L 495.932498 7.2 
L 49.532498 7.2 
z
" style="fill: #ffffff"/>
   </g>
   <g id="matplotlib.axis_1">
    <g id="xtick_1">
     <g id="line2d_1">
      <defs>
       <path id="mde8842c196" d="M 0 0 
L 0 3.5 
" style="stroke: #000000; stroke-width: 0.8"/>
      </defs>
      <g>
       <use xlink:href="#mde8842c196" x="67.135869" y="178.56" style="stroke: #000000; stroke-width: 0.8"/>
      </g>
     </g>
     <g id="text_1">
      <!-- 2021-Mar-01 -->
      <g transform="translate(10.999219 223.950596)rotate(-30)scale(0.1 -0.1)">
       <defs>
        <path id="DejaVuSans-32" d="M 1228 531 
L 3431 531 
L 3431 0 
L 469 0 
L 469 531 
Q 828 903 1448 1529 
Q 2069 2156 2228 2338 
Q 2531 2678 2651 2914 
Q 2772 3150 2772 3378 
Q 2772 3750 2511 3984 
Q 2250 4219 1831 4219 
Q 1534 4219 1204 4116 
Q 875 4013 500 3803 
L 500 4441 
Q 881 4594 1212 4672 
Q 1544 4750 1819 4750 
Q 2544 4750 2975 4387 
Q 3406 4025 3406 3419 
Q 3406 3131 3298 2873 
Q 3191 2616 2906 2266 
Q 2828 2175 2409 1742 
Q 1991 1309 1228 531 
z
" transform="scale(0.015625)"/>
        <path id="DejaVuSans-30" d="M 2034 4250 
Q 1547 4250 1301 3770 
Q 1056 3291 1056 2328 
Q 1056 1369 1301 889 
Q 1547 409 2034 409 
Q 2525 409 2770 889 
Q 3016 1369 3016 2328 
Q 3016 3291 2770 3770 
Q 2525 4250 2034 4250 
z
M 2034 4750 
Q 2819 4750 3233 4129 
Q 3647 3509 3647 2328 
Q 3647 1150 3233 529 
Q 2819 -91 2034 -91 
Q 1250 -91 836 529 
Q 422 1150 422 2328 
Q 422 3509 836 4129 
Q 1250 4750 2034 4750 
z
" transform="scale(0.015625)"/>
        <path id="DejaVuSans-31" d="M 794 531 
L 1825 531 
L 1825 4091 
L 703 3866 
L 703 4441 
L 1819 4666 
L 2450 4666 
L 2450 531 
L 3481 531 
L 3481 0 
L 794 0 
L 794 531 
z
" transform="scale(0.015625)"/>
        <path id="DejaVuSans-2d" d="M 313 2009 
L 1997 2009 
L 1997 1497 
L 313 1497 
L 313 2009 
z
" transform="scale(0.015625)"/>
        <path id="DejaVuSans-4d" d="M 628 4666 
L 1569 4666 
L 2759 1491 
L 3956 4666 
L 4897 4666 
L 4897 0 
L 4281 0 
L 4281 4097 
L 3078 897 
L 2444 897 
L 1241 4097 
L 1241 0 
L 628 0 
L 628 4666 
z
" transform="scale(0.015625)"/>
        <path id="DejaVuSans-61" d="M 2194 1759 
Q 1497 1759 1228 1600 
Q 959 1441 959 1056 
Q 959 750 1161 570 
Q 1363 391 1709 391 
Q 2188 391 2477 730 
Q 2766 1069 2766 1631 
L 2766 1759 
L 2194 1759 
z
M 3341 1997 
L 3341 0 
L 2766 0 
L 2766 531 
Q 2569 213 2275 61 
Q 1981 -91 1556 -91 
Q 1019 -91 701 211 
Q 384 513 384 1019 
Q 384 1609 779 1909 
Q 1175 2209 1959 2209 
L 2766 2209 
L 2766 2266 
Q 2766 2663 2505 2880 
Q 2244 3097 1772 3097 
Q 1472 3097 1187 3025 
Q 903 2953 641 2809 
L 641 3341 
Q 956 3463 1253 3523 
Q 1550 3584 1831 3584 
Q 2591 3584 2966 3190 
Q 3341 2797 3341 1997 
z
" transform="scale(0.015625)"/>
        <path id="DejaVuSans-72" d="M 2631 2963 
Q 2534 3019 2420 3045 
Q 2306 3072 2169 3072 
Q 1681 3072 1420 2755 
Q 1159 2438 1159 1844 
L 1159 0 
L 581 0 
L 581 3500 
L 1159 3500 
L 1159 2956 
Q 1341 3275 1631 3429 
Q 1922 3584 2338 3584 
Q 2397 3584 2469 3576 
Q 2541 3569 2628 3553 
L 2631 2963 
z
" transform="scale(0.015625)"/>
       </defs>
       <use xlink:href="#DejaVuSans-32"/>
       <use xlink:href="#DejaVuSans-30" x="63.623047"/>
       <use xlink:href="#DejaVuSans-32" x="127.246094"/>
       <use xlink:href="#DejaVuSans-31" x="190.869141"/>
       <use xlink:href="#DejaVuSans-2d" x="254.492188"/>
       <use xlink:href="#DejaVuSans-4d" x="290.576172"/>
       <use xlink:href="#DejaVuSans-61" x="376.855469"/>
       <use xlink:href="#DejaVuSans-72" x="438.134766"/>
       <use xlink:href="#DejaVuSans-2d" x="472.873047"/>
       <use xlink:href="#DejaVuSans-30" x="508.957031"/>
       <use xlink:href="#DejaVuSans-31" x="572.580078"/>
      </g>
     </g>
    </g>
    <g id="xtick_2">
     <g id="line2d_2">
      <g>
       <use xlink:href="#mde8842c196" x="108.792703" y="178.56" style="stroke: #000000; stroke-width: 0.8"/>
      </g>
     </g>
     <g id="text_2">
      <!-- 2021-Apr-01 -->
      <g transform="translate(54.208132 223.054502)rotate(-30)scale(0.1 -0.1)">
       <defs>
        <path id="DejaVuSans-41" d="M 2188 4044 
L 1331 1722 
L 3047 1722 
L 2188 4044 
z
M 1831 4666 
L 2547 4666 
L 4325 0 
L 3669 0 
L 3244 1197 
L 1141 1197 
L 716 0 
L 50 0 
L 1831 4666 
z
" transform="scale(0.015625)"/>
        <path id="DejaVuSans-70" d="M 1159 525 
L 1159 -1331 
L 581 -1331 
L 581 3500 
L 1159 3500 
L 1159 2969 
Q 1341 3281 1617 3432 
Q 1894 3584 2278 3584 
Q 2916 3584 3314 3078 
Q 3713 2572 3713 1747 
Q 3713 922 3314 415 
Q 2916 -91 2278 -91 
Q 1894 -91 1617 61 
Q 1341 213 1159 525 
z
M 3116 1747 
Q 3116 2381 2855 2742 
Q 2594 3103 2138 3103 
Q 1681 3103 1420 2742 
Q 1159 2381 1159 1747 
Q 1159 1113 1420 752 
Q 1681 391 2138 391 
Q 2594 391 2855 752 
Q 3116 1113 3116 1747 
z
" transform="scale(0.015625)"/>
       </defs>
       <use xlink:href="#DejaVuSans-32"/>
       <use xlink:href="#DejaVuSans-30" x="63.623047"/>
       <use xlink:href="#DejaVuSans-32" x="127.246094"/>
       <use xlink:href="#DejaVuSans-31" x="190.869141"/>
       <use xlink:href="#DejaVuSans-2d" x="254.492188"/>
       <use xlink:href="#DejaVuSans-41" x="288.326172"/>
       <use xlink:href="#DejaVuSans-70" x="356.734375"/>
       <use xlink:href="#DejaVuSans-72" x="420.210938"/>
       <use xlink:href="#DejaVuSans-2d" x="454.949219"/>
       <use xlink:href="#DejaVuSans-30" x="491.033203"/>
       <use xlink:href="#DejaVuSans-31" x="554.65625"/>
      </g>
     </g>
    </g>
    <g id="xtick_3">
     <g id="line2d_3">
      <g>
       <use xlink:href="#mde8842c196" x="149.105767" y="178.56" style="stroke: #000000; stroke-width: 0.8"/>
      </g>
     </g>
     <g id="text_3">
      <!-- 2021-May-01 -->
      <g transform="translate(91.002968 225.085752)rotate(-30)scale(0.1 -0.1)">
       <defs>
        <path id="DejaVuSans-79" d="M 2059 -325 
Q 1816 -950 1584 -1140 
Q 1353 -1331 966 -1331 
L 506 -1331 
L 506 -850 
L 844 -850 
Q 1081 -850 1212 -737 
Q 1344 -625 1503 -206 
L 1606 56 
L 191 3500 
L 800 3500 
L 1894 763 
L 2988 3500 
L 3597 3500 
L 2059 -325 
z
" transform="scale(0.015625)"/>
       </defs>
       <use xlink:href="#DejaVuSans-32"/>
       <use xlink:href="#DejaVuSans-30" x="63.623047"/>
       <use xlink:href="#DejaVuSans-32" x="127.246094"/>
       <use xlink:href="#DejaVuSans-31" x="190.869141"/>
       <use xlink:href="#DejaVuSans-2d" x="254.492188"/>
       <use xlink:href="#DejaVuSans-4d" x="290.576172"/>
       <use xlink:href="#DejaVuSans-61" x="376.855469"/>
       <use xlink:href="#DejaVuSans-79" x="438.134766"/>
       <use xlink:href="#DejaVuSans-2d" x="495.564453"/>
       <use xlink:href="#DejaVuSans-30" x="531.648438"/>
       <use xlink:href="#DejaVuSans-31" x="595.271484"/>
      </g>
     </g>
    </g>
    <g id="xtick_4">
     <g id="line2d_4">
      <g>
       <use xlink:href="#mde8842c196" x="190.7626" y="178.56" style="stroke: #000000; stroke-width: 0.8"/>
      </g>
     </g>
     <g id="text_4">
      <!-- 2021-Jun-01 -->
      <g transform="translate(136.394536 222.929502)rotate(-30)scale(0.1 -0.1)">
       <defs>
        <path id="DejaVuSans-4a" d="M 628 4666 
L 1259 4666 
L 1259 325 
Q 1259 -519 939 -900 
Q 619 -1281 -91 -1281 
L -331 -1281 
L -331 -750 
L -134 -750 
Q 284 -750 456 -515 
Q 628 -281 628 325 
L 628 4666 
z
" transform="scale(0.015625)"/>
        <path id="DejaVuSans-75" d="M 544 1381 
L 544 3500 
L 1119 3500 
L 1119 1403 
Q 1119 906 1312 657 
Q 1506 409 1894 409 
Q 2359 409 2629 706 
Q 2900 1003 2900 1516 
L 2900 3500 
L 3475 3500 
L 3475 0 
L 2900 0 
L 2900 538 
Q 2691 219 2414 64 
Q 2138 -91 1772 -91 
Q 1169 -91 856 284 
Q 544 659 544 1381 
z
M 1991 3584 
L 1991 3584 
z
" transform="scale(0.015625)"/>
        <path id="DejaVuSans-6e" d="M 3513 2113 
L 3513 0 
L 2938 0 
L 2938 2094 
Q 2938 2591 2744 2837 
Q 2550 3084 2163 3084 
Q 1697 3084 1428 2787 
Q 1159 2491 1159 1978 
L 1159 0 
L 581 0 
L 581 3500 
L 1159 3500 
L 1159 2956 
Q 1366 3272 1645 3428 
Q 1925 3584 2291 3584 
Q 2894 3584 3203 3211 
Q 3513 2838 3513 2113 
z
" transform="scale(0.015625)"/>
       </defs>
       <use xlink:href="#DejaVuSans-32"/>
       <use xlink:href="#DejaVuSans-30" x="63.623047"/>
       <use xlink:href="#DejaVuSans-32" x="127.246094"/>
       <use xlink:href="#DejaVuSans-31" x="190.869141"/>
       <use xlink:href="#DejaVuSans-2d" x="254.492188"/>
       <use xlink:href="#DejaVuSans-4a" x="296.201172"/>
       <use xlink:href="#DejaVuSans-75" x="325.693359"/>
       <use xlink:href="#DejaVuSans-6e" x="389.072266"/>
       <use xlink:href="#DejaVuSans-2d" x="452.451172"/>
       <use xlink:href="#DejaVuSans-30" x="488.535156"/>
       <use xlink:href="#DejaVuSans-31" x="552.158203"/>
      </g>
     </g>
    </g>
    <g id="xtick_5">
     <g id="line2d_5">
      <g>
       <use xlink:href="#mde8842c196" x="231.075665" y="178.56" style="stroke: #000000; stroke-width: 0.8"/>
      </g>
     </g>
     <g id="text_5">
      <!-- 2021-Jul-01 -->
      <g transform="translate(179.790109 221.149815)rotate(-30)scale(0.1 -0.1)">
       <defs>
        <path id="DejaVuSans-6c" d="M 603 4863 
L 1178 4863 
L 1178 0 
L 603 0 
L 603 4863 
z
" transform="scale(0.015625)"/>
       </defs>
       <use xlink:href="#DejaVuSans-32"/>
       <use xlink:href="#DejaVuSans-30" x="63.623047"/>
       <use xlink:href="#DejaVuSans-32" x="127.246094"/>
       <use xlink:href="#DejaVuSans-31" x="190.869141"/>
       <use xlink:href="#DejaVuSans-2d" x="254.492188"/>
       <use xlink:href="#DejaVuSans-4a" x="296.201172"/>
       <use xlink:href="#DejaVuSans-75" x="325.693359"/>
       <use xlink:href="#DejaVuSans-6c" x="389.072266"/>
       <use xlink:href="#DejaVuSans-2d" x="416.855469"/>
       <use xlink:href="#DejaVuSans-30" x="452.939453"/>
       <use xlink:href="#DejaVuSans-31" x="516.5625"/>
      </g>
     </g>
    </g>
    <g id="xtick_6">
     <g id="line2d_6">
      <g>
       <use xlink:href="#mde8842c196" x="272.732498" y="178.56" style="stroke: #000000; stroke-width: 0.8"/>
      </g>
     </g>
     <g id="text_6">
      <!-- 2021-Aug-01 -->
      <g transform="translate(215.667576 224.486534)rotate(-30)scale(0.1 -0.1)">
       <defs>
        <path id="DejaVuSans-67" d="M 2906 1791 
Q 2906 2416 2648 2759 
Q 2391 3103 1925 3103 
Q 1463 3103 1205 2759 
Q 947 2416 947 1791 
Q 947 1169 1205 825 
Q 1463 481 1925 481 
Q 2391 481 2648 825 
Q 2906 1169 2906 1791 
z
M 3481 434 
Q 3481 -459 3084 -895 
Q 2688 -1331 1869 -1331 
Q 1566 -1331 1297 -1286 
Q 1028 -1241 775 -1147 
L 775 -588 
Q 1028 -725 1275 -790 
Q 1522 -856 1778 -856 
Q 2344 -856 2625 -561 
Q 2906 -266 2906 331 
L 2906 616 
Q 2728 306 2450 153 
Q 2172 0 1784 0 
Q 1141 0 747 490 
Q 353 981 353 1791 
Q 353 2603 747 3093 
Q 1141 3584 1784 3584 
Q 2172 3584 2450 3431 
Q 2728 3278 2906 2969 
L 2906 3500 
L 3481 3500 
L 3481 434 
z
" transform="scale(0.015625)"/>
       </defs>
       <use xlink:href="#DejaVuSans-32"/>
       <use xlink:href="#DejaVuSans-30" x="63.623047"/>
       <use xlink:href="#DejaVuSans-32" x="127.246094"/>
       <use xlink:href="#DejaVuSans-31" x="190.869141"/>
       <use xlink:href="#DejaVuSans-2d" x="254.492188"/>
       <use xlink:href="#DejaVuSans-41" x="288.326172"/>
       <use xlink:href="#DejaVuSans-75" x="356.734375"/>
       <use xlink:href="#DejaVuSans-67" x="420.113281"/>
       <use xlink:href="#DejaVuSans-2d" x="483.589844"/>
       <use xlink:href="#DejaVuSans-30" x="519.673828"/>
       <use xlink:href="#DejaVuSans-31" x="583.296875"/>
      </g>
     </g>
    </g>
    <g id="xtick_7">
     <g id="line2d_7">
      <g>
       <use xlink:href="#mde8842c196" x="314.389331" y="178.56" style="stroke: #000000; stroke-width: 0.8"/>
      </g>
     </g>
     <g id="text_7">
      <!-- 2021-Sep-01 -->
      <g transform="translate(257.715474 224.260752)rotate(-30)scale(0.1 -0.1)">
       <defs>
        <path id="DejaVuSans-53" d="M 3425 4513 
L 3425 3897 
Q 3066 4069 2747 4153 
Q 2428 4238 2131 4238 
Q 1616 4238 1336 4038 
Q 1056 3838 1056 3469 
Q 1056 3159 1242 3001 
Q 1428 2844 1947 2747 
L 2328 2669 
Q 3034 2534 3370 2195 
Q 3706 1856 3706 1288 
Q 3706 609 3251 259 
Q 2797 -91 1919 -91 
Q 1588 -91 1214 -16 
Q 841 59 441 206 
L 441 856 
Q 825 641 1194 531 
Q 1563 422 1919 422 
Q 2459 422 2753 634 
Q 3047 847 3047 1241 
Q 3047 1584 2836 1778 
Q 2625 1972 2144 2069 
L 1759 2144 
Q 1053 2284 737 2584 
Q 422 2884 422 3419 
Q 422 4038 858 4394 
Q 1294 4750 2059 4750 
Q 2388 4750 2728 4690 
Q 3069 4631 3425 4513 
z
" transform="scale(0.015625)"/>
        <path id="DejaVuSans-65" d="M 3597 1894 
L 3597 1613 
L 953 1613 
Q 991 1019 1311 708 
Q 1631 397 2203 397 
Q 2534 397 2845 478 
Q 3156 559 3463 722 
L 3463 178 
Q 3153 47 2828 -22 
Q 2503 -91 2169 -91 
Q 1331 -91 842 396 
Q 353 884 353 1716 
Q 353 2575 817 3079 
Q 1281 3584 2069 3584 
Q 2775 3584 3186 3129 
Q 3597 2675 3597 1894 
z
M 3022 2063 
Q 3016 2534 2758 2815 
Q 2500 3097 2075 3097 
Q 1594 3097 1305 2825 
Q 1016 2553 972 2059 
L 3022 2063 
z
" transform="scale(0.015625)"/>
       </defs>
       <use xlink:href="#DejaVuSans-32"/>
       <use xlink:href="#DejaVuSans-30" x="63.623047"/>
       <use xlink:href="#DejaVuSans-32" x="127.246094"/>
       <use xlink:href="#DejaVuSans-31" x="190.869141"/>
       <use xlink:href="#DejaVuSans-2d" x="254.492188"/>
       <use xlink:href="#DejaVuSans-53" x="290.576172"/>
       <use xlink:href="#DejaVuSans-65" x="354.052734"/>
       <use xlink:href="#DejaVuSans-70" x="415.576172"/>
       <use xlink:href="#DejaVuSans-2d" x="479.052734"/>
       <use xlink:href="#DejaVuSans-30" x="515.136719"/>
       <use xlink:href="#DejaVuSans-31" x="578.759766"/>
      </g>
     </g>
    </g>
    <g id="xtick_8">
     <g id="line2d_8">
      <g>
       <use xlink:href="#mde8842c196" x="354.702396" y="178.56" style="stroke: #000000; stroke-width: 0.8"/>
      </g>
     </g>
     <g id="text_8">
      <!-- 2021-Oct-01 -->
      <g transform="translate(299.14084 223.618565)rotate(-30)scale(0.1 -0.1)">
       <defs>
        <path id="DejaVuSans-4f" d="M 2522 4238 
Q 1834 4238 1429 3725 
Q 1025 3213 1025 2328 
Q 1025 1447 1429 934 
Q 1834 422 2522 422 
Q 3209 422 3611 934 
Q 4013 1447 4013 2328 
Q 4013 3213 3611 3725 
Q 3209 4238 2522 4238 
z
M 2522 4750 
Q 3503 4750 4090 4092 
Q 4678 3434 4678 2328 
Q 4678 1225 4090 567 
Q 3503 -91 2522 -91 
Q 1538 -91 948 565 
Q 359 1222 359 2328 
Q 359 3434 948 4092 
Q 1538 4750 2522 4750 
z
" transform="scale(0.015625)"/>
        <path id="DejaVuSans-63" d="M 3122 3366 
L 3122 2828 
Q 2878 2963 2633 3030 
Q 2388 3097 2138 3097 
Q 1578 3097 1268 2742 
Q 959 2388 959 1747 
Q 959 1106 1268 751 
Q 1578 397 2138 397 
Q 2388 397 2633 464 
Q 2878 531 3122 666 
L 3122 134 
Q 2881 22 2623 -34 
Q 2366 -91 2075 -91 
Q 1284 -91 818 406 
Q 353 903 353 1747 
Q 353 2603 823 3093 
Q 1294 3584 2113 3584 
Q 2378 3584 2631 3529 
Q 2884 3475 3122 3366 
z
" transform="scale(0.015625)"/>
        <path id="DejaVuSans-74" d="M 1172 4494 
L 1172 3500 
L 2356 3500 
L 2356 3053 
L 1172 3053 
L 1172 1153 
Q 1172 725 1289 603 
Q 1406 481 1766 481 
L 2356 481 
L 2356 0 
L 1766 0 
Q 1100 0 847 248 
Q 594 497 594 1153 
L 594 3053 
L 172 3053 
L 172 3500 
L 594 3500 
L 594 4494 
L 1172 4494 
z
" transform="scale(0.015625)"/>
       </defs>
       <use xlink:href="#DejaVuSans-32"/>
       <use xlink:href="#DejaVuSans-30" x="63.623047"/>
       <use xlink:href="#DejaVuSans-32" x="127.246094"/>
       <use xlink:href="#DejaVuSans-31" x="190.869141"/>
       <use xlink:href="#DejaVuSans-2d" x="254.492188"/>
       <use xlink:href="#DejaVuSans-4f" x="293.326172"/>
       <use xlink:href="#DejaVuSans-63" x="372.037109"/>
       <use xlink:href="#DejaVuSans-74" x="427.017578"/>
       <use xlink:href="#DejaVuSans-2d" x="466.226562"/>
       <use xlink:href="#DejaVuSans-30" x="502.310547"/>
       <use xlink:href="#DejaVuSans-31" x="565.933594"/>
      </g>
     </g>
    </g>
    <g id="xtick_9">
     <g id="line2d_9">
      <g>
       <use xlink:href="#mde8842c196" x="396.359229" y="178.56" style="stroke: #000000; stroke-width: 0.8"/>
      </g>
     </g>
     <g id="text_9">
      <!-- 2021-Nov-01 -->
      <g transform="translate(339.333549 224.463877)rotate(-30)scale(0.1 -0.1)">
       <defs>
        <path id="DejaVuSans-4e" d="M 628 4666 
L 1478 4666 
L 3547 763 
L 3547 4666 
L 4159 4666 
L 4159 0 
L 3309 0 
L 1241 3903 
L 1241 0 
L 628 0 
L 628 4666 
z
" transform="scale(0.015625)"/>
        <path id="DejaVuSans-6f" d="M 1959 3097 
Q 1497 3097 1228 2736 
Q 959 2375 959 1747 
Q 959 1119 1226 758 
Q 1494 397 1959 397 
Q 2419 397 2687 759 
Q 2956 1122 2956 1747 
Q 2956 2369 2687 2733 
Q 2419 3097 1959 3097 
z
M 1959 3584 
Q 2709 3584 3137 3096 
Q 3566 2609 3566 1747 
Q 3566 888 3137 398 
Q 2709 -91 1959 -91 
Q 1206 -91 779 398 
Q 353 888 353 1747 
Q 353 2609 779 3096 
Q 1206 3584 1959 3584 
z
" transform="scale(0.015625)"/>
        <path id="DejaVuSans-76" d="M 191 3500 
L 800 3500 
L 1894 563 
L 2988 3500 
L 3597 3500 
L 2284 0 
L 1503 0 
L 191 3500 
z
" transform="scale(0.015625)"/>
       </defs>
       <use xlink:href="#DejaVuSans-32"/>
       <use xlink:href="#DejaVuSans-30" x="63.623047"/>
       <use xlink:href="#DejaVuSans-32" x="127.246094"/>
       <use xlink:href="#DejaVuSans-31" x="190.869141"/>
       <use xlink:href="#DejaVuSans-2d" x="254.492188"/>
       <use xlink:href="#DejaVuSans-4e" x="290.576172"/>
       <use xlink:href="#DejaVuSans-6f" x="365.380859"/>
       <use xlink:href="#DejaVuSans-76" x="426.5625"/>
       <use xlink:href="#DejaVuSans-2d" x="483.117188"/>
       <use xlink:href="#DejaVuSans-30" x="519.201172"/>
       <use xlink:href="#DejaVuSans-31" x="582.824219"/>
      </g>
     </g>
    </g>
    <g id="xtick_10">
     <g id="line2d_10">
      <g>
       <use xlink:href="#mde8842c196" x="436.672293" y="178.56" style="stroke: #000000; stroke-width: 0.8"/>
      </g>
     </g>
     <g id="text_10">
      <!-- 2021-Dec-01 -->
      <g transform="translate(379.56407 224.511534)rotate(-30)scale(0.1 -0.1)">
       <defs>
        <path id="DejaVuSans-44" d="M 1259 4147 
L 1259 519 
L 2022 519 
Q 2988 519 3436 956 
Q 3884 1394 3884 2338 
Q 3884 3275 3436 3711 
Q 2988 4147 2022 4147 
L 1259 4147 
z
M 628 4666 
L 1925 4666 
Q 3281 4666 3915 4102 
Q 4550 3538 4550 2338 
Q 4550 1131 3912 565 
Q 3275 0 1925 0 
L 628 0 
L 628 4666 
z
" transform="scale(0.015625)"/>
       </defs>
       <use xlink:href="#DejaVuSans-32"/>
       <use xlink:href="#DejaVuSans-30" x="63.623047"/>
       <use xlink:href="#DejaVuSans-32" x="127.246094"/>
       <use xlink:href="#DejaVuSans-31" x="190.869141"/>
       <use xlink:href="#DejaVuSans-2d" x="254.492188"/>
       <use xlink:href="#DejaVuSans-44" x="290.576172"/>
       <use xlink:href="#DejaVuSans-65" x="367.578125"/>
       <use xlink:href="#DejaVuSans-63" x="429.101562"/>
       <use xlink:href="#DejaVuSans-2d" x="484.082031"/>
       <use xlink:href="#DejaVuSans-30" x="520.166016"/>
       <use xlink:href="#DejaVuSans-31" x="583.789062"/>
      </g>
     </g>
    </g>
    <g id="xtick_11">
     <g id="line2d_11">
      <g>
       <use xlink:href="#mde8842c196" x="478.329126" y="178.56" style="stroke: #000000; stroke-width: 0.8"/>
      </g>
     </g>
     <g id="text_11">
      <!-- 2022-Jan-01 -->
      <g transform="translate(424.142386 222.824815)rotate(-30)scale(0.1 -0.1)">
       <use xlink:href="#DejaVuSans-32"/>
       <use xlink:href="#DejaVuSans-30" x="63.623047"/>
       <use xlink:href="#DejaVuSans-32" x="127.246094"/>
       <use xlink:href="#DejaVuSans-32" x="190.869141"/>
       <use xlink:href="#DejaVuSans-2d" x="254.492188"/>
       <use xlink:href="#DejaVuSans-4a" x="296.201172"/>
       <use xlink:href="#DejaVuSans-61" x="325.693359"/>
       <use xlink:href="#DejaVuSans-6e" x="386.972656"/>
       <use xlink:href="#DejaVuSans-2d" x="450.351562"/>
       <use xlink:href="#DejaVuSans-30" x="486.435547"/>
       <use xlink:href="#DejaVuSans-31" x="550.058594"/>
      </g>
     </g>
    </g>
   </g>
   <g id="matplotlib.axis_2">
    <g id="ytick_1">
     <g id="line2d_12">
      <path d="M 49.532498 178.56 
L 495.932498 178.56 
" clip-path="url(#p90c1d9f80c)" style="fill: none; stroke: #b0b0b0; stroke-width: 0.8; stroke-linecap: square"/>
     </g>
     <g id="line2d_13">
      <defs>
       <path id="m6b67bdd17c" d="M 0 0 
L -3.5 0 
" style="stroke: #000000; stroke-width: 0.8"/>
      </defs>
      <g>
       <use xlink:href="#m6b67bdd17c" x="49.532498" y="178.56" style="stroke: #000000; stroke-width: 0.8"/>
      </g>
     </g>
     <g id="text_12">
      <!-- 0 -->
      <g transform="translate(36.169998 182.359219)scale(0.1 -0.1)">
       <use xlink:href="#DejaVuSans-30"/>
      </g>
     </g>
    </g>
    <g id="ytick_2">
     <g id="line2d_14">
      <path d="M 49.532498 140.48 
L 495.932498 140.48 
" clip-path="url(#p90c1d9f80c)" style="fill: none; stroke: #b0b0b0; stroke-width: 0.8; stroke-linecap: square"/>
     </g>
     <g id="line2d_15">
      <g>
       <use xlink:href="#m6b67bdd17c" x="49.532498" y="140.48" style="stroke: #000000; stroke-width: 0.8"/>
      </g>
     </g>
     <g id="text_13">
      <!-- 10 -->
      <g transform="translate(29.807498 144.279219)scale(0.1 -0.1)">
       <use xlink:href="#DejaVuSans-31"/>
       <use xlink:href="#DejaVuSans-30" x="63.623047"/>
      </g>
     </g>
    </g>
    <g id="ytick_3">
     <g id="line2d_16">
      <path d="M 49.532498 102.4 
L 495.932498 102.4 
" clip-path="url(#p90c1d9f80c)" style="fill: none; stroke: #b0b0b0; stroke-width: 0.8; stroke-linecap: square"/>
     </g>
     <g id="line2d_17">
      <g>
       <use xlink:href="#m6b67bdd17c" x="49.532498" y="102.4" style="stroke: #000000; stroke-width: 0.8"/>
      </g>
     </g>
     <g id="text_14">
      <!-- 20 -->
      <g transform="translate(29.807498 106.199219)scale(0.1 -0.1)">
       <use xlink:href="#DejaVuSans-32"/>
       <use xlink:href="#DejaVuSans-30" x="63.623047"/>
      </g>
     </g>
    </g>
    <g id="ytick_4">
     <g id="line2d_18">
      <path d="M 49.532498 64.32 
L 495.932498 64.32 
" clip-path="url(#p90c1d9f80c)" style="fill: none; stroke: #b0b0b0; stroke-width: 0.8; stroke-linecap: square"/>
     </g>
     <g id="line2d_19">
      <g>
       <use xlink:href="#m6b67bdd17c" x="49.532498" y="64.32" style="stroke: #000000; stroke-width: 0.8"/>
      </g>
     </g>
     <g id="text_15">
      <!-- 30 -->
      <g transform="translate(29.807498 68.119219)scale(0.1 -0.1)">
       <defs>
        <path id="DejaVuSans-33" d="M 2597 2516 
Q 3050 2419 3304 2112 
Q 3559 1806 3559 1356 
Q 3559 666 3084 287 
Q 2609 -91 1734 -91 
Q 1441 -91 1130 -33 
Q 819 25 488 141 
L 488 750 
Q 750 597 1062 519 
Q 1375 441 1716 441 
Q 2309 441 2620 675 
Q 2931 909 2931 1356 
Q 2931 1769 2642 2001 
Q 2353 2234 1838 2234 
L 1294 2234 
L 1294 2753 
L 1863 2753 
Q 2328 2753 2575 2939 
Q 2822 3125 2822 3475 
Q 2822 3834 2567 4026 
Q 2313 4219 1838 4219 
Q 1578 4219 1281 4162 
Q 984 4106 628 3988 
L 628 4550 
Q 988 4650 1302 4700 
Q 1616 4750 1894 4750 
Q 2613 4750 3031 4423 
Q 3450 4097 3450 3541 
Q 3450 3153 3228 2886 
Q 3006 2619 2597 2516 
z
" transform="scale(0.015625)"/>
       </defs>
       <use xlink:href="#DejaVuSans-33"/>
       <use xlink:href="#DejaVuSans-30" x="63.623047"/>
      </g>
     </g>
    </g>
    <g id="ytick_5">
     <g id="line2d_20">
      <path d="M 49.532498 26.24 
L 495.932498 26.24 
" clip-path="url(#p90c1d9f80c)" style="fill: none; stroke: #b0b0b0; stroke-width: 0.8; stroke-linecap: square"/>
     </g>
     <g id="line2d_21">
      <g>
       <use xlink:href="#m6b67bdd17c" x="49.532498" y="26.24" style="stroke: #000000; stroke-width: 0.8"/>
      </g>
     </g>
     <g id="text_16">
      <!-- 40 -->
      <g transform="translate(29.807498 30.039219)scale(0.1 -0.1)">
       <defs>
        <path id="DejaVuSans-34" d="M 2419 4116 
L 825 1625 
L 2419 1625 
L 2419 4116 
z
M 2253 4666 
L 3047 4666 
L 3047 1625 
L 3713 1625 
L 3713 1100 
L 3047 1100 
L 3047 0 
L 2419 0 
L 2419 1100 
L 313 1100 
L 313 1709 
L 2253 4666 
z
" transform="scale(0.015625)"/>
       </defs>
       <use xlink:href="#DejaVuSans-34"/>
       <use xlink:href="#DejaVuSans-30" x="63.623047"/>
      </g>
     </g>
    </g>
    <g id="text_17">
     <!-- Percentage Of Domains -->
     <g transform="translate(23.72781 151.883125)rotate(-90)scale(0.1 -0.1)">
      <defs>
       <path id="DejaVuSans-50" d="M 1259 4147 
L 1259 2394 
L 2053 2394 
Q 2494 2394 2734 2622 
Q 2975 2850 2975 3272 
Q 2975 3691 2734 3919 
Q 2494 4147 2053 4147 
L 1259 4147 
z
M 628 4666 
L 2053 4666 
Q 2838 4666 3239 4311 
Q 3641 3956 3641 3272 
Q 3641 2581 3239 2228 
Q 2838 1875 2053 1875 
L 1259 1875 
L 1259 0 
L 628 0 
L 628 4666 
z
" transform="scale(0.015625)"/>
       <path id="DejaVuSans-20" transform="scale(0.015625)"/>
       <path id="DejaVuSans-66" d="M 2375 4863 
L 2375 4384 
L 1825 4384 
Q 1516 4384 1395 4259 
Q 1275 4134 1275 3809 
L 1275 3500 
L 2222 3500 
L 2222 3053 
L 1275 3053 
L 1275 0 
L 697 0 
L 697 3053 
L 147 3053 
L 147 3500 
L 697 3500 
L 697 3744 
Q 697 4328 969 4595 
Q 1241 4863 1831 4863 
L 2375 4863 
z
" transform="scale(0.015625)"/>
       <path id="DejaVuSans-6d" d="M 3328 2828 
Q 3544 3216 3844 3400 
Q 4144 3584 4550 3584 
Q 5097 3584 5394 3201 
Q 5691 2819 5691 2113 
L 5691 0 
L 5113 0 
L 5113 2094 
Q 5113 2597 4934 2840 
Q 4756 3084 4391 3084 
Q 3944 3084 3684 2787 
Q 3425 2491 3425 1978 
L 3425 0 
L 2847 0 
L 2847 2094 
Q 2847 2600 2669 2842 
Q 2491 3084 2119 3084 
Q 1678 3084 1418 2786 
Q 1159 2488 1159 1978 
L 1159 0 
L 581 0 
L 581 3500 
L 1159 3500 
L 1159 2956 
Q 1356 3278 1631 3431 
Q 1906 3584 2284 3584 
Q 2666 3584 2933 3390 
Q 3200 3197 3328 2828 
z
" transform="scale(0.015625)"/>
       <path id="DejaVuSans-69" d="M 603 3500 
L 1178 3500 
L 1178 0 
L 603 0 
L 603 3500 
z
M 603 4863 
L 1178 4863 
L 1178 4134 
L 603 4134 
L 603 4863 
z
" transform="scale(0.015625)"/>
       <path id="DejaVuSans-73" d="M 2834 3397 
L 2834 2853 
Q 2591 2978 2328 3040 
Q 2066 3103 1784 3103 
Q 1356 3103 1142 2972 
Q 928 2841 928 2578 
Q 928 2378 1081 2264 
Q 1234 2150 1697 2047 
L 1894 2003 
Q 2506 1872 2764 1633 
Q 3022 1394 3022 966 
Q 3022 478 2636 193 
Q 2250 -91 1575 -91 
Q 1294 -91 989 -36 
Q 684 19 347 128 
L 347 722 
Q 666 556 975 473 
Q 1284 391 1588 391 
Q 1994 391 2212 530 
Q 2431 669 2431 922 
Q 2431 1156 2273 1281 
Q 2116 1406 1581 1522 
L 1381 1569 
Q 847 1681 609 1914 
Q 372 2147 372 2553 
Q 372 3047 722 3315 
Q 1072 3584 1716 3584 
Q 2034 3584 2315 3537 
Q 2597 3491 2834 3397 
z
" transform="scale(0.015625)"/>
      </defs>
      <use xlink:href="#DejaVuSans-50"/>
      <use xlink:href="#DejaVuSans-65" x="56.677734"/>
      <use xlink:href="#DejaVuSans-72" x="118.201172"/>
      <use xlink:href="#DejaVuSans-63" x="157.064453"/>
      <use xlink:href="#DejaVuSans-65" x="212.044922"/>
      <use xlink:href="#DejaVuSans-6e" x="273.568359"/>
      <use xlink:href="#DejaVuSans-74" x="336.947266"/>
      <use xlink:href="#DejaVuSans-61" x="376.15625"/>
      <use xlink:href="#DejaVuSans-67" x="437.435547"/>
      <use xlink:href="#DejaVuSans-65" x="500.912109"/>
      <use xlink:href="#DejaVuSans-20" x="562.435547"/>
      <use xlink:href="#DejaVuSans-4f" x="594.222656"/>
      <use xlink:href="#DejaVuSans-66" x="672.933594"/>
      <use xlink:href="#DejaVuSans-20" x="708.138672"/>
      <use xlink:href="#DejaVuSans-44" x="739.925781"/>
      <use xlink:href="#DejaVuSans-6f" x="816.927734"/>
      <use xlink:href="#DejaVuSans-6d" x="878.109375"/>
      <use xlink:href="#DejaVuSans-61" x="975.521484"/>
      <use xlink:href="#DejaVuSans-69" x="1036.800781"/>
      <use xlink:href="#DejaVuSans-6e" x="1064.583984"/>
      <use xlink:href="#DejaVuSans-73" x="1127.962891"/>
     </g>
    </g>
   </g>
   <g id="line2d_22">
    <path d="M 69.823407 125.506825 
L 71.167176 125.579642 
L 72.510945 126.149941 
L 73.854713 125.895552 
L 75.198482 126.322792 
L 76.542251 125.969736 
L 77.88602 126.253581 
L 81.917326 126.421125 
L 83.261095 127.058122 
L 84.604864 126.829989 
L 85.948633 126.77673 
L 103.417627 126.783558 
L 104.761396 127.046397 
L 106.105165 127.029594 
L 107.448934 126.5238 
L 108.792703 127.342286 
L 110.136471 127.201546 
L 111.48024 127.611901 
L 112.824009 127.275526 
L 114.167778 127.479131 
L 118.199084 127.580118 
L 120.886622 128.13675 
L 126.261697 127.611432 
L 127.605466 128.048 
L 128.949235 127.511129 
L 130.293004 127.753131 
L 131.636772 127.80532 
L 132.980541 128.423849 
L 134.32431 127.853679 
L 135.668079 128.434172 
L 139.699385 128.26566 
L 142.386923 127.883194 
L 143.730692 127.927931 
L 146.418229 127.392787 
L 151.793305 127.627445 
L 153.137073 126.963796 
L 154.480842 127.591129 
L 155.824611 127.3572 
L 157.16838 127.241034 
L 158.512149 127.900839 
L 159.855917 127.230459 
L 162.543455 127.91227 
L 163.887224 127.558024 
L 165.230993 127.413551 
L 166.574762 128.036709 
L 167.91853 128.080579 
L 169.262299 127.805076 
L 170.606068 127.376904 
L 171.949837 128.091866 
L 174.637374 129.009069 
L 175.981143 128.682882 
L 177.324912 128.978086 
L 178.668681 128.49663 
L 180.01245 129.104037 
L 181.356219 128.472005 
L 182.699987 129.190942 
L 184.043756 129.142372 
L 185.387525 128.94044 
L 186.731294 129.26462 
L 189.418831 128.331948 
L 190.7626 128.601134 
L 193.450138 128.899925 
L 194.793907 128.352437 
L 196.137675 128.653031 
L 197.481444 128.17522 
L 198.825213 128.178403 
L 200.168982 127.317212 
L 201.512751 128.213455 
L 202.85652 128.180735 
L 204.200288 128.035768 
L 205.544057 128.067182 
L 206.887826 128.942248 
L 209.575364 127.992622 
L 210.919132 128.470361 
L 212.262901 128.113287 
L 213.60667 127.55663 
L 214.950439 127.57061 
L 216.294208 128.006075 
L 217.637976 128.076984 
L 218.981745 127.77232 
L 221.669283 128.039714 
L 225.700589 127.650622 
L 228.388127 128.012278 
L 233.763202 127.675148 
L 235.106971 127.854632 
L 272.732498 131.991579 
L 274.076267 133.004662 
L 276.763804 133.466674 
L 278.107573 132.101439 
L 279.451342 132.838241 
L 282.13888 132.654757 
L 283.482648 132.123585 
L 284.826417 133.028983 
L 286.170186 133.123939 
L 287.513955 133.349652 
L 288.857724 132.33942 
L 290.201492 133.196242 
L 291.545261 131.605491 
L 292.88903 132.488165 
L 294.232799 132.139174 
L 295.576568 132.455601 
L 296.920337 131.920612 
L 321.108175 132.48134 
L 322.451944 131.447462 
L 326.48325 131.928181 
L 327.827019 132.577604 
L 329.170788 132.265204 
L 330.514557 132.599541 
L 331.858326 134.48248 
L 333.202094 133.417968 
L 335.889632 132.861894 
L 337.233401 134.212337 
L 338.57717 133.291913 
L 339.920939 134.682683 
L 341.264707 133.406267 
L 342.608476 133.267075 
L 343.952245 133.691688 
L 345.296014 133.679055 
L 349.32732 133.059903 
L 350.671089 132.54091 
L 352.014858 133.2975 
L 353.358627 133.433243 
L 354.702396 132.611442 
L 357.389933 133.558282 
L 358.733702 132.576604 
L 360.077471 134.398684 
L 361.42124 132.732618 
L 362.765008 134.542937 
L 364.108777 134.511266 
L 366.796315 133.275112 
L 368.140084 133.219204 
L 369.483852 133.851954 
L 370.827621 133.047719 
L 372.17139 133.043324 
L 373.515159 133.19923 
L 374.858928 132.650907 
L 376.202697 133.649413 
L 377.546465 133.014254 
L 378.890234 133.29007 
L 381.577772 134.212093 
L 382.921541 133.032966 
L 384.265309 133.244069 
L 385.609078 133.572514 
L 386.952847 133.207942 
L 388.296616 133.821202 
L 389.640385 133.154925 
L 390.984153 132.814209 
L 392.327922 133.450887 
L 393.671691 133.461171 
L 395.01546 133.796571 
L 396.359229 132.577192 
L 397.702998 134.150486 
L 399.046766 134.764894 
L 400.390535 134.05693 
L 404.421842 134.714675 
L 405.76561 133.987334 
L 407.109379 134.475472 
L 408.453148 133.32303 
L 412.484455 133.040734 
L 413.828223 132.54452 
L 415.171992 134.04823 
L 416.515761 133.524115 
L 417.85953 133.543147 
L 419.203299 134.105034 
L 420.547067 132.576409 
L 421.890836 133.349931 
L 423.234605 133.324579 
L 424.578374 132.866054 
L 425.922143 133.229122 
L 427.265911 132.703135 
L 428.60968 133.333247 
L 429.953449 131.349525 
L 431.297218 131.077145 
L 432.640987 132.861916 
L 433.984756 133.573817 
L 435.328524 132.454876 
L 436.672293 132.601379 
L 438.016062 133.27456 
L 439.359831 132.78133 
L 440.7036 132.644956 
L 442.047368 131.498372 
L 443.391137 131.249442 
L 444.734906 132.51843 
L 446.078675 131.681902 
L 447.422444 132.238027 
L 448.766212 132.018362 
L 450.109981 132.791516 
L 454.141288 133.674829 
L 455.485057 132.013155 
L 456.828825 133.017712 
L 458.172594 132.676129 
L 462.203901 132.604112 
L 463.547669 132.718637 
L 464.891438 132.986092 
L 466.235207 132.049275 
L 467.578976 131.383546 
L 468.922745 131.90914 
L 470.266514 131.934632 
L 471.610282 132.789017 
L 472.954051 131.842814 
L 474.29782 131.862588 
L 475.641589 130.406205 
L 475.641589 130.406205 
" clip-path="url(#p90c1d9f80c)" style="fill: none; stroke: #1f77b4; stroke-width: 1.5; stroke-linecap: square"/>
   </g>
   <g id="line2d_23">
    <path d="M 69.823407 176.920388 
L 71.167176 177.031155 
L 72.510945 176.760762 
L 73.854713 176.641759 
L 75.198482 176.942033 
L 83.261095 176.99053 
L 84.604864 176.708367 
L 85.948633 176.947173 
L 106.105165 176.848026 
L 107.448934 176.620054 
L 110.136471 176.69139 
L 111.48024 177.078288 
L 112.824009 176.799403 
L 114.167778 176.928563 
L 115.511547 176.870309 
L 116.855315 176.979449 
L 118.199084 176.813728 
L 119.542853 176.811141 
L 120.886622 177.035445 
L 126.261697 176.714443 
L 127.605466 176.768 
L 128.949235 176.940287 
L 131.636772 177.049111 
L 132.980541 177.218565 
L 134.32431 176.884681 
L 135.668079 177.108695 
L 139.699385 177.167576 
L 141.043154 176.831372 
L 151.793305 177.226978 
L 163.887224 177.287716 
L 166.574762 177.401715 
L 169.262299 177.179289 
L 175.981143 177.188242 
L 177.324912 177.252345 
L 178.668681 177.132755 
L 180.01245 177.195321 
L 184.043756 177.029365 
L 186.731294 177.198249 
L 188.075063 177.085301 
L 189.418831 177.242543 
L 193.450138 177.250284 
L 196.137675 177.085724 
L 197.481444 177.089309 
L 198.825213 177.254213 
L 201.512751 177.257934 
L 205.544057 177.265312 
L 206.887826 177.097468 
L 210.919132 177.210602 
L 213.60667 177.050387 
L 217.637976 177.108412 
L 233.763202 177.049103 
L 235.106971 177.218588 
L 278.107573 177.171583 
L 282.13888 177.225545 
L 284.826417 177.327984 
L 286.170186 177.175079 
L 287.513955 177.33522 
L 288.857724 177.120605 
L 291.545261 177.282326 
L 294.232799 177.334192 
L 295.576568 177.1774 
L 296.920337 177.235017 
L 330.514557 177.333677 
L 331.858326 177.44344 
L 333.202094 177.291371 
L 334.545863 177.29049 
L 335.889632 177.138515 
L 338.57717 177.347932 
L 341.264707 177.241258 
L 342.608476 177.340167 
L 345.296014 177.183933 
L 350.671089 177.337784 
L 354.702396 177.180482 
L 357.389933 177.346589 
L 360.077471 177.202796 
L 362.765008 177.407172 
L 365.452546 177.362679 
L 368.140084 177.410809 
L 373.515159 177.198129 
L 374.858928 177.306509 
L 378.890234 177.254639 
L 381.577772 177.261759 
L 382.921541 177.412698 
L 384.265309 177.254818 
L 388.296616 177.467541 
L 389.640385 177.209277 
L 392.327922 177.363334 
L 397.702998 177.222054 
L 399.046766 177.317586 
L 400.390535 177.272295 
L 403.078073 177.377551 
L 421.890836 177.432311 
L 423.234605 177.480518 
L 424.578374 177.379145 
L 427.265911 177.515424 
L 428.60968 177.32514 
L 435.328524 177.458512 
L 438.016062 177.167395 
L 439.359831 177.319946 
L 440.7036 177.243628 
L 442.047368 177.299421 
L 443.391137 177.19173 
L 444.734906 177.31843 
L 455.485057 177.259809 
L 456.828825 177.10597 
L 458.172594 177.166452 
L 475.641589 177.188698 
L 475.641589 177.188698 
" clip-path="url(#p90c1d9f80c)" style="fill: none; stroke: #ff7f0e; stroke-width: 1.5; stroke-linecap: square"/>
   </g>
   <g id="line2d_24">
    <path d="M 69.823407 83.872379 
L 71.167176 83.301198 
L 73.854713 83.519853 
L 75.198482 84.25566 
L 76.542251 83.258306 
L 80.573557 84.072727 
L 81.917326 83.418191 
L 83.261095 84.04301 
L 85.948633 83.748807 
L 103.417627 83.588846 
L 104.761396 83.889445 
L 106.105165 83.488398 
L 107.448934 82.932071 
L 108.792703 84.043662 
L 110.136471 83.657279 
L 112.824009 83.998926 
L 114.167778 84.667963 
L 115.511547 84.049957 
L 116.855315 84.517189 
L 118.199084 83.923314 
L 119.542853 84.178015 
L 120.886622 84.771625 
L 124.917928 84.48 
L 126.261697 84.156945 
L 128.949235 84.504969 
L 131.636772 83.765702 
L 132.980541 84.435943 
L 134.32431 83.904479 
L 135.668079 84.392659 
L 139.699385 84.265075 
L 141.043154 83.596989 
L 142.386923 83.387844 
L 143.730692 83.429703 
L 146.418229 83.805902 
L 151.793305 84.470852 
L 154.480842 83.650539 
L 155.824611 83.984763 
L 157.16838 83.885356 
L 158.512149 84.147233 
L 159.855917 83.636262 
L 161.199686 84.025734 
L 162.543455 84.191199 
L 163.887224 84.079117 
L 165.230993 83.249173 
L 166.574762 83.690939 
L 170.606068 82.396126 
L 174.637374 84.751574 
L 175.981143 83.853833 
L 177.324912 84.517819 
L 180.01245 84.724679 
L 181.356219 84.562987 
L 182.699987 85.033063 
L 184.043756 85.136629 
L 185.387525 85.509633 
L 186.731294 85.688594 
L 189.418831 84.691181 
L 190.7626 84.859857 
L 192.106369 85.16448 
L 193.450138 85.079003 
L 194.793907 84.003336 
L 196.137675 84.479358 
L 197.481444 84.272373 
L 198.825213 83.672845 
L 200.168982 83.332916 
L 201.512751 84.59425 
L 202.85652 84.688624 
L 204.200288 84.009829 
L 205.544057 84.641201 
L 206.887826 84.957952 
L 208.231595 84.701227 
L 209.575364 84.742067 
L 212.262901 84.181038 
L 213.60667 83.56218 
L 214.950439 83.981163 
L 216.294208 84.196271 
L 217.637976 83.77666 
L 218.981745 83.763504 
L 221.669283 84.041623 
L 225.700589 82.970661 
L 228.388127 83.53458 
L 233.763202 82.995766 
L 235.106971 83.58804 
L 272.732498 60.450909 
L 274.076267 60.169403 
L 275.420035 61.189405 
L 276.763804 59.955438 
L 278.107573 61.719389 
L 279.451342 58.245231 
L 280.795111 61.50143 
L 283.482648 60.329036 
L 284.826417 58.090286 
L 286.170186 61.321113 
L 287.513955 59.064097 
L 288.857724 59.090197 
L 290.201492 60.039195 
L 291.545261 60.215473 
L 292.88903 58.815937 
L 294.232799 59.550007 
L 295.576568 60.985806 
L 296.920337 59.576562 
L 321.108175 54.620628 
L 322.451944 57.300548 
L 325.139482 59.271977 
L 326.48325 57.550694 
L 327.827019 56.576713 
L 329.170788 57.202641 
L 330.514557 55.127908 
L 331.858326 58.343748 
L 333.202094 56.983098 
L 334.545863 57.797894 
L 335.889632 56.259654 
L 337.233401 59.421743 
L 338.57717 57.880232 
L 339.920939 58.639265 
L 341.264707 58.34346 
L 342.608476 56.629749 
L 343.952245 56.570979 
L 345.296014 55.984211 
L 349.32732 55.699206 
L 352.014858 55.84125 
L 353.358627 56.35272 
L 354.702396 58.170534 
L 356.046164 56.017721 
L 357.389933 58.010263 
L 358.733702 56.576268 
L 360.077471 57.925483 
L 361.42124 60.837327 
L 362.765008 57.513076 
L 364.108777 59.081068 
L 365.452546 59.036172 
L 366.796315 57.52205 
L 368.140084 57.581564 
L 369.483852 57.150038 
L 370.827621 56.950351 
L 372.17139 59.151247 
L 373.515159 57.772545 
L 374.858928 57.702614 
L 376.202697 57.980296 
L 377.546465 57.156849 
L 378.890234 54.863963 
L 380.234003 58.307368 
L 381.577772 56.629221 
L 382.921541 57.258877 
L 384.265309 57.23025 
L 385.609078 56.398858 
L 386.952847 56.764819 
L 388.296616 58.701639 
L 389.640385 58.761255 
L 390.984153 63.936192 
L 392.327922 56.239902 
L 393.671691 57.311538 
L 395.01546 58.672762 
L 396.359229 57.394002 
L 397.702998 57.578811 
L 399.046766 58.045808 
L 400.390535 58.957998 
L 401.734304 58.103909 
L 403.078073 58.001609 
L 404.421842 57.740625 
L 405.76561 57.724276 
L 407.109379 58.88 
L 408.453148 62.41933 
L 412.484455 59.983853 
L 413.828223 58.703329 
L 415.171992 61.117009 
L 416.515761 58.721361 
L 417.85953 57.061227 
L 419.203299 59.035828 
L 420.547067 63.213083 
L 421.890836 56.769611 
L 423.234605 61.873175 
L 424.578374 61.706717 
L 425.922143 61.132914 
L 427.265911 54.621116 
L 428.60968 58.624208 
L 429.953449 58.741997 
L 431.297218 58.55125 
L 432.640987 55.691034 
L 433.984756 56.728906 
L 435.328524 56.557135 
L 436.672293 57.227173 
L 438.016062 60.188606 
L 442.047368 56.07371 
L 443.391137 56.415611 
L 444.734906 57.765543 
L 446.078675 57.384539 
L 447.422444 58.894904 
L 448.766212 57.70951 
L 450.109981 57.511679 
L 451.45375 57.485658 
L 452.797519 59.003484 
L 454.141288 57.866464 
L 455.485057 56.290019 
L 456.828825 59.173773 
L 458.172594 59.076129 
L 462.203901 57.912587 
L 463.547669 59.362072 
L 464.891438 57.04712 
L 466.235207 56.928679 
L 467.578976 57.777851 
L 468.922745 56.966119 
L 470.266514 55.847893 
L 471.610282 57.024761 
L 472.954051 55.410776 
L 475.641589 56.197673 
L 475.641589 56.197673 
" clip-path="url(#p90c1d9f80c)" style="fill: none; stroke: #2ca02c; stroke-width: 1.5; stroke-linecap: square"/>
   </g>
   <g id="line2d_25">
    <path d="M 69.823407 156.95225 
L 71.167176 156.979765 
L 72.510945 158.187984 
L 73.854713 157.9825 
L 75.198482 157.35308 
L 76.542251 157.640116 
L 80.573557 157.381818 
L 81.917326 157.553154 
L 85.948633 157.70845 
L 103.417627 158.249904 
L 104.761396 157.954559 
L 106.105165 158.130448 
L 108.792703 158.107098 
L 112.824009 158.227949 
L 114.167778 158.251417 
L 115.511547 158.677971 
L 116.855315 158.633762 
L 118.199084 158.337041 
L 119.542853 158.532741 
L 120.886622 158.571388 
L 124.917928 158.512 
L 126.261697 159.041833 
L 127.605466 159.072 
L 128.949235 158.62078 
L 130.293004 159.276865 
L 131.636772 159.086319 
L 132.980541 159.220972 
L 135.668079 158.967388 
L 139.699385 159.400252 
L 141.043154 158.931709 
L 142.386923 159.625809 
L 143.730692 159.489331 
L 145.074461 159.47256 
L 146.418229 159.219016 
L 151.793305 159.231179 
L 153.137073 159.433821 
L 154.480842 159.412085 
L 155.824611 159.233997 
L 157.16838 158.872983 
L 158.512149 159.058709 
L 159.855917 159.055879 
L 162.543455 158.777462 
L 165.230993 158.888289 
L 166.574762 158.703685 
L 169.262299 159.009137 
L 170.606068 158.66788 
L 171.949837 158.924311 
L 173.293606 158.799687 
L 174.637374 159.4054 
L 175.981143 159.245648 
L 177.324912 159.217605 
L 178.668681 158.907931 
L 180.01245 158.963211 
L 181.356219 158.710718 
L 182.699987 158.97694 
L 184.043756 158.716417 
L 186.731294 158.623968 
L 188.075063 158.897349 
L 189.418831 158.853037 
L 190.7626 159.252753 
L 193.450138 158.750542 
L 194.793907 159.1778 
L 196.137675 158.575371 
L 197.481444 158.351618 
L 198.825213 158.483532 
L 200.168982 158.788734 
L 201.512751 158.866254 
L 202.85652 158.549291 
L 204.200288 159.173424 
L 205.544057 159.247576 
L 206.887826 159.167909 
L 208.231595 159.268012 
L 209.575364 158.940074 
L 213.60667 159.420258 
L 214.950439 159.168908 
L 216.294208 159.24484 
L 217.637976 159.635589 
L 218.981745 159.407019 
L 225.700589 159.549536 
L 228.388127 159.866475 
L 233.763202 159.403985 
L 235.106971 159.726577 
L 272.732498 161.626029 
L 274.076267 161.989579 
L 275.420035 161.411178 
L 276.763804 161.562872 
L 278.107573 161.311592 
L 279.451342 162.031477 
L 280.795111 161.669892 
L 282.13888 161.799249 
L 283.482648 161.387086 
L 284.826417 161.633175 
L 286.170186 161.461553 
L 287.513955 161.67934 
L 288.857724 161.767056 
L 290.201492 161.308993 
L 292.88903 161.583356 
L 294.232799 161.931645 
L 295.576568 161.437028 
L 296.920337 162.395212 
L 321.108175 161.39344 
L 322.451944 161.064069 
L 325.139482 161.29184 
L 326.48325 161.159276 
L 327.827019 161.323231 
L 330.514557 161.124884 
L 331.858326 161.492589 
L 333.202094 161.274936 
L 334.545863 162.056374 
L 335.889632 162.397191 
L 337.233401 161.495104 
L 338.57717 161.854547 
L 339.920939 161.708567 
L 341.264707 162.049348 
L 342.608476 161.217159 
L 343.952245 161.932332 
L 345.296014 162.047199 
L 349.32732 162.550707 
L 350.671089 162.299213 
L 352.014858 161.931875 
L 353.358627 161.683757 
L 354.702396 162.16496 
L 357.389933 161.677761 
L 358.733702 161.741999 
L 360.077471 162.221357 
L 361.42124 162.032946 
L 362.765008 161.477187 
L 364.108777 162.139466 
L 366.796315 161.812939 
L 368.140084 161.740027 
L 369.483852 161.468812 
L 370.827621 161.701667 
L 372.17139 161.73518 
L 374.858928 161.481191 
L 376.202697 162.05797 
L 377.546465 161.395567 
L 378.890234 162.634592 
L 380.234003 162.213971 
L 381.577772 162.669532 
L 382.921541 161.924119 
L 384.265309 162.793397 
L 385.609078 161.839912 
L 386.952847 162.096941 
L 388.296616 161.913005 
L 389.640385 162.039618 
L 390.984153 161.184898 
L 392.327922 162.274934 
L 393.671691 161.868249 
L 395.01546 161.877333 
L 396.359229 162.349112 
L 397.702998 162.298811 
L 399.046766 162.563915 
L 400.390535 161.81984 
L 401.734304 162.581657 
L 404.421842 162.639664 
L 405.76561 162.431394 
L 407.109379 162.496604 
L 408.453148 162.268543 
L 412.484455 162.376514 
L 415.171992 161.9519 
L 416.515761 162.417 
L 417.85953 162.723621 
L 419.203299 162.712628 
L 420.547067 161.801076 
L 421.890836 162.721098 
L 423.234605 161.699525 
L 424.578374 161.92535 
L 425.922143 161.95415 
L 427.265911 162.78691 
L 428.60968 162.198103 
L 429.953449 161.888314 
L 432.640987 161.989885 
L 433.984756 161.904216 
L 435.328524 162.090138 
L 436.672293 162.068661 
L 438.016062 162.364524 
L 439.359831 161.612592 
L 440.7036 161.815752 
L 442.047368 162.172469 
L 443.391137 162.403892 
L 446.078675 162.48305 
L 447.422444 161.919562 
L 448.766212 161.100312 
L 450.109981 162.302869 
L 451.45375 162.016964 
L 452.797519 162.209501 
L 454.141288 162.115894 
L 455.485057 162.905698 
L 456.828825 162.357954 
L 458.172594 162.147097 
L 462.203901 161.39257 
L 463.547669 161.791302 
L 464.891438 161.982886 
L 466.235207 161.499068 
L 467.578976 161.930951 
L 468.922745 162.177591 
L 470.266514 163.07054 
L 472.954051 161.662294 
L 474.29782 161.746824 
L 475.641589 161.682438 
L 475.641589 161.682438 
" clip-path="url(#p90c1d9f80c)" style="fill: none; stroke: #d62728; stroke-width: 1.5; stroke-linecap: square"/>
   </g>
   <g id="line2d_26">
    <path d="M 69.823407 172.762799 
L 71.167176 172.503422 
L 72.510945 173.220326 
L 73.854713 172.747147 
L 76.542251 173.155697 
L 77.88602 173.05711 
L 80.573557 173.090909 
L 81.917326 172.857311 
L 83.261095 173.095918 
L 84.604864 172.657918 
L 85.948633 172.915105 
L 103.417627 172.724423 
L 106.105165 173.024619 
L 107.448934 172.740162 
L 108.792703 172.862813 
L 110.136471 172.501175 
L 112.824009 172.710276 
L 114.167778 173.15938 
L 115.511547 173.209312 
L 118.199084 172.645207 
L 119.542853 172.974933 
L 120.886622 172.631174 
L 124.917928 172.68 
L 126.261697 173.023328 
L 127.605466 172.68 
L 130.293004 172.803006 
L 131.636772 172.516444 
L 132.980541 173.138365 
L 134.32431 172.863916 
L 135.668079 173.257156 
L 139.699385 172.656124 
L 141.043154 172.258872 
L 142.386923 172.879743 
L 145.074461 173.0905 
L 146.418229 172.930492 
L 151.793305 173.172369 
L 153.137073 173.000064 
L 158.512149 173.146044 
L 159.855917 172.868996 
L 162.543455 173.240326 
L 163.887224 173.028332 
L 166.574762 173.099513 
L 167.91853 173.159363 
L 169.262299 173.092386 
L 170.606068 172.637065 
L 171.949837 172.934044 
L 173.293606 172.87477 
L 174.637374 173.15742 
L 175.981143 173.127839 
L 177.324912 172.83901 
L 180.01245 173.37422 
L 181.356219 173.201241 
L 182.699987 173.184258 
L 184.043756 173.421441 
L 185.387525 172.973692 
L 188.075063 173.316627 
L 189.418831 173.070595 
L 190.7626 173.324136 
L 193.450138 172.884563 
L 194.793907 172.811042 
L 196.137675 172.444485 
L 198.825213 172.955999 
L 204.200288 173.036451 
L 205.544057 172.787851 
L 206.887826 173.089047 
L 210.919132 173.000482 
L 212.262901 173.3915 
L 213.60667 173.330268 
L 214.950439 173.104567 
L 221.669283 173.37432 
L 225.700589 173.082409 
L 228.388127 173.13458 
L 233.763202 173.379782 
L 235.106971 173.301665 
L 272.732498 173.629856 
L 274.076267 174.19095 
L 275.420035 174.019035 
L 276.763804 174.002411 
L 278.107573 173.860743 
L 279.451342 174.320541 
L 280.795111 173.338452 
L 282.13888 174.182989 
L 283.482648 173.638168 
L 284.826417 173.899766 
L 286.170186 173.819309 
L 287.513955 173.60763 
L 288.857724 174.028571 
L 291.545261 173.609014 
L 292.88903 173.968832 
L 294.232799 173.550175 
L 296.920337 173.684064 
L 321.108175 173.298423 
L 322.451944 173.764428 
L 325.139482 173.686777 
L 326.48325 173.467105 
L 327.827019 173.044234 
L 329.170788 173.552278 
L 330.514557 173.601389 
L 331.858326 173.881083 
L 333.202094 173.802643 
L 334.545863 173.534858 
L 335.889632 173.927012 
L 337.233401 173.398396 
L 338.57717 173.764428 
L 341.264707 173.865278 
L 342.608476 173.256379 
L 343.952245 173.439734 
L 345.296014 173.426213 
L 349.32732 173.767744 
L 350.671089 173.246017 
L 356.046164 173.566947 
L 358.733702 173.131405 
L 360.077471 173.653187 
L 361.42124 173.972048 
L 362.765008 173.477077 
L 364.108777 173.712033 
L 365.452546 173.770718 
L 366.796315 173.499362 
L 368.140084 173.388642 
L 370.827621 173.601667 
L 372.17139 173.285762 
L 373.515159 173.426795 
L 374.858928 172.971521 
L 377.546465 173.134161 
L 378.890234 173.495198 
L 380.234003 173.406316 
L 381.577772 173.782474 
L 384.265309 173.234856 
L 385.609078 173.491723 
L 386.952847 173.369418 
L 388.296616 173.461858 
L 389.640385 172.897353 
L 390.984153 173.373402 
L 392.327922 173.148988 
L 395.01546 173.430857 
L 396.359229 173.000497 
L 397.702998 173.362595 
L 399.046766 173.07267 
L 401.734304 173.663411 
L 404.421842 173.665398 
L 407.109379 173.068679 
L 408.453148 173.4369 
L 412.484455 173.319633 
L 413.828223 173.45862 
L 417.85953 173.2639 
L 419.203299 172.848772 
L 420.547067 173.387493 
L 421.890836 172.40897 
L 423.234605 172.288726 
L 424.578374 172.296335 
L 425.922143 172.474626 
L 427.265911 173.232665 
L 428.60968 172.642962 
L 431.297218 172.780837 
L 432.640987 172.984521 
L 433.984756 173.371282 
L 436.672293 172.873332 
L 438.016062 173.092737 
L 439.359831 172.77308 
L 440.7036 172.71531 
L 442.047368 172.939917 
L 446.078675 173.201017 
L 447.422444 173.134904 
L 450.109981 172.502407 
L 451.45375 172.925029 
L 454.141288 173.02692 
L 456.828825 172.588092 
L 458.172594 173.192258 
L 462.203901 172.432548 
L 463.547669 172.797382 
L 464.891438 172.244909 
L 466.235207 172.628045 
L 471.610282 172.780046 
L 474.29782 172.393412 
L 475.641589 172.283657 
L 475.641589 172.283657 
" clip-path="url(#p90c1d9f80c)" style="fill: none; stroke: #9467bd; stroke-width: 1.5; stroke-linecap: square"/>
   </g>
   <g id="line2d_27">
    <path d="M 69.823407 175.16366 
L 71.167176 174.914293 
L 72.510945 176.006243 
L 73.854713 175.421059 
L 75.198482 175.49742 
L 76.542251 175.422017 
L 77.88602 175.605817 
L 80.573557 175.592727 
L 81.917326 175.24313 
L 83.261095 175.421059 
L 84.604864 175.377505 
L 85.948633 175.795154 
L 103.417627 175.642212 
L 106.105165 175.877908 
L 108.792703 175.82535 
L 110.136471 175.5589 
L 112.824009 175.663535 
L 114.167778 175.915946 
L 119.542853 175.682844 
L 120.886622 175.454425 
L 127.605466 175.704 
L 131.636772 175.370345 
L 132.980541 176.044808 
L 134.32431 175.432738 
L 135.668079 175.936488 
L 139.699385 175.663759 
L 141.043154 175.214269 
L 142.386923 176.165382 
L 143.730692 176.106464 
L 145.074461 176.215928 
L 146.418229 175.88459 
L 151.793305 176.116126 
L 154.480842 175.903642 
L 155.824611 176.172017 
L 157.16838 176.126773 
L 158.512149 175.853022 
L 163.887224 175.628216 
L 167.91853 175.859682 
L 169.262299 175.688122 
L 170.606068 174.816258 
L 174.637374 175.776853 
L 175.981143 175.651873 
L 178.668681 175.595721 
L 180.01245 175.994404 
L 182.699987 175.817275 
L 184.043756 175.990721 
L 185.387525 175.493007 
L 186.731294 175.890968 
L 188.075063 175.665221 
L 189.418831 175.760404 
L 190.7626 175.723907 
L 193.450138 175.394852 
L 194.793907 175.001121 
L 196.137675 174.901612 
L 197.481444 175.291798 
L 198.825213 175.513165 
L 200.168982 175.5266 
L 201.512751 175.684605 
L 202.85652 175.468915 
L 204.200288 175.635768 
L 205.544057 175.431172 
L 206.887826 175.79744 
L 208.231595 175.471114 
L 210.919132 175.483373 
L 212.262901 176.083427 
L 213.60667 176.18775 
L 214.950439 175.913305 
L 217.637976 175.871873 
L 218.981745 176.085177 
L 225.700589 175.660099 
L 233.763202 175.808009 
L 235.106971 175.716207 
L 272.732498 175.451866 
L 274.076267 176.10907 
L 275.420035 176.15596 
L 276.763804 175.986302 
L 279.451342 176.30611 
L 280.795111 175.842664 
L 283.482648 175.831593 
L 284.826417 175.828139 
L 286.170186 176.003223 
L 287.513955 176.003938 
L 290.201492 176.536734 
L 291.545261 176.217598 
L 292.88903 176.371187 
L 294.232799 176.055087 
L 295.576568 175.95433 
L 296.920337 176.069033 
L 321.108175 175.424313 
L 322.451944 175.872372 
L 325.139482 175.964479 
L 327.827019 175.377827 
L 329.170788 175.683223 
L 330.514557 175.414215 
L 331.858326 175.901525 
L 333.202094 175.864164 
L 334.545863 175.703603 
L 335.889632 176.243506 
L 339.920939 176.069379 
L 341.264707 176.397263 
L 342.608476 175.643008 
L 343.952245 175.973474 
L 345.296014 175.64909 
L 350.671089 175.690449 
L 352.014858 175.3725 
L 354.702396 175.641789 
L 356.046164 175.532297 
L 357.389933 175.658365 
L 358.733702 175.366709 
L 360.077471 176.054393 
L 361.42124 176.161752 
L 362.765008 175.887535 
L 364.108777 175.901437 
L 365.452546 175.696842 
L 366.796315 175.84708 
L 368.140084 175.582551 
L 369.483852 175.746207 
L 373.515159 175.260083 
L 374.858928 175.217358 
L 376.202697 175.478925 
L 377.546465 175.221022 
L 380.234003 175.905072 
L 381.577772 175.859659 
L 382.921541 176.161096 
L 385.609078 175.947486 
L 388.296616 176.062951 
L 389.640385 175.910505 
L 393.671691 175.864438 
L 395.01546 175.658667 
L 396.359229 175.598395 
L 397.702998 175.884108 
L 399.046766 176.023404 
L 400.390535 175.72705 
L 401.734304 175.725133 
L 403.078073 175.989459 
L 404.421842 175.674761 
L 405.76561 175.880487 
L 407.109379 175.583396 
L 408.453148 175.844757 
L 413.828223 175.004493 
L 416.515761 175.115475 
L 417.85953 175.288879 
L 419.203299 174.340894 
L 420.547067 174.939245 
L 421.890836 174.613089 
L 423.234605 174.499093 
L 424.578374 174.247313 
L 428.60968 174.64961 
L 429.953449 174.405063 
L 432.640987 174.599847 
L 433.984756 174.87601 
L 435.328524 174.626116 
L 438.016062 174.485342 
L 439.359831 174.529824 
L 443.391137 174.244688 
L 444.734906 174.731824 
L 448.766212 174.247667 
L 450.109981 174.46983 
L 451.45375 174.372544 
L 452.797519 174.498411 
L 455.485057 174.34738 
L 456.828825 174.457559 
L 458.172594 174.224516 
L 462.203901 173.805943 
L 463.547669 174.406762 
L 464.891438 173.613179 
L 466.235207 173.940425 
L 467.578976 174.441834 
L 468.922745 173.983327 
L 470.266514 174.478318 
L 471.610282 174.394268 
L 472.954051 174.008606 
L 474.29782 173.763765 
L 475.641589 174.182382 
L 475.641589 174.182382 
" clip-path="url(#p90c1d9f80c)" style="fill: none; stroke: #8c564b; stroke-width: 1.5; stroke-linecap: square"/>
   </g>
   <g id="patch_3">
    <path d="M 49.532498 178.56 
L 49.532498 7.2 
" style="fill: none; stroke: #000000; stroke-width: 0.8; stroke-linejoin: miter; stroke-linecap: square"/>
   </g>
   <g id="patch_4">
    <path d="M 495.932498 178.56 
L 495.932498 7.2 
" style="fill: none; stroke: #000000; stroke-width: 0.8; stroke-linejoin: miter; stroke-linecap: square"/>
   </g>
   <g id="patch_5">
    <path d="M 49.532498 178.56 
L 495.932498 178.56 
" style="fill: none; stroke: #000000; stroke-width: 0.8; stroke-linejoin: miter; stroke-linecap: square"/>
   </g>
   <g id="patch_6">
    <path d="M 49.532498 7.2 
L 495.932498 7.2 
" style="fill: none; stroke: #000000; stroke-width: 0.8; stroke-linejoin: miter; stroke-linecap: square"/>
   </g>
   <g id="legend_1">
    <g id="patch_7">
     <path d="M 54.432498 74.448125 
L 174.654217 74.448125 
Q 176.054217 74.448125 176.054217 73.048125 
L 176.054217 12.1 
Q 176.054217 10.7 174.654217 10.7 
L 54.432498 10.7 
Q 53.032498 10.7 53.032498 12.1 
L 53.032498 73.048125 
Q 53.032498 74.448125 54.432498 74.448125 
z
" style="fill: #ffffff; opacity: 0.8; stroke: #cccccc; stroke-linejoin: miter"/>
    </g>
    <g id="line2d_28">
     <path d="M 55.832498 16.368906 
L 62.832498 16.368906 
L 69.832498 16.368906 
" style="fill: none; stroke: #1f77b4; stroke-width: 1.5; stroke-linecap: square"/>
    </g>
    <g id="text_18">
     <!-- No Base Redirect -->
     <g transform="translate(75.432498 18.818906)scale(0.07 -0.07)">
      <defs>
       <path id="DejaVuSans-42" d="M 1259 2228 
L 1259 519 
L 2272 519 
Q 2781 519 3026 730 
Q 3272 941 3272 1375 
Q 3272 1813 3026 2020 
Q 2781 2228 2272 2228 
L 1259 2228 
z
M 1259 4147 
L 1259 2741 
L 2194 2741 
Q 2656 2741 2882 2914 
Q 3109 3088 3109 3444 
Q 3109 3797 2882 3972 
Q 2656 4147 2194 4147 
L 1259 4147 
z
M 628 4666 
L 2241 4666 
Q 2963 4666 3353 4366 
Q 3744 4066 3744 3513 
Q 3744 3084 3544 2831 
Q 3344 2578 2956 2516 
Q 3422 2416 3680 2098 
Q 3938 1781 3938 1306 
Q 3938 681 3513 340 
Q 3088 0 2303 0 
L 628 0 
L 628 4666 
z
" transform="scale(0.015625)"/>
       <path id="DejaVuSans-52" d="M 2841 2188 
Q 3044 2119 3236 1894 
Q 3428 1669 3622 1275 
L 4263 0 
L 3584 0 
L 2988 1197 
Q 2756 1666 2539 1819 
Q 2322 1972 1947 1972 
L 1259 1972 
L 1259 0 
L 628 0 
L 628 4666 
L 2053 4666 
Q 2853 4666 3247 4331 
Q 3641 3997 3641 3322 
Q 3641 2881 3436 2590 
Q 3231 2300 2841 2188 
z
M 1259 4147 
L 1259 2491 
L 2053 2491 
Q 2509 2491 2742 2702 
Q 2975 2913 2975 3322 
Q 2975 3731 2742 3939 
Q 2509 4147 2053 4147 
L 1259 4147 
z
" transform="scale(0.015625)"/>
       <path id="DejaVuSans-64" d="M 2906 2969 
L 2906 4863 
L 3481 4863 
L 3481 0 
L 2906 0 
L 2906 525 
Q 2725 213 2448 61 
Q 2172 -91 1784 -91 
Q 1150 -91 751 415 
Q 353 922 353 1747 
Q 353 2572 751 3078 
Q 1150 3584 1784 3584 
Q 2172 3584 2448 3432 
Q 2725 3281 2906 2969 
z
M 947 1747 
Q 947 1113 1208 752 
Q 1469 391 1925 391 
Q 2381 391 2643 752 
Q 2906 1113 2906 1747 
Q 2906 2381 2643 2742 
Q 2381 3103 1925 3103 
Q 1469 3103 1208 2742 
Q 947 2381 947 1747 
z
" transform="scale(0.015625)"/>
      </defs>
      <use xlink:href="#DejaVuSans-4e"/>
      <use xlink:href="#DejaVuSans-6f" x="74.804688"/>
      <use xlink:href="#DejaVuSans-20" x="135.986328"/>
      <use xlink:href="#DejaVuSans-42" x="167.773438"/>
      <use xlink:href="#DejaVuSans-61" x="236.376953"/>
      <use xlink:href="#DejaVuSans-73" x="297.65625"/>
      <use xlink:href="#DejaVuSans-65" x="349.755859"/>
      <use xlink:href="#DejaVuSans-20" x="411.279297"/>
      <use xlink:href="#DejaVuSans-52" x="443.066406"/>
      <use xlink:href="#DejaVuSans-65" x="508.048828"/>
      <use xlink:href="#DejaVuSans-64" x="569.572266"/>
      <use xlink:href="#DejaVuSans-69" x="633.048828"/>
      <use xlink:href="#DejaVuSans-72" x="660.832031"/>
      <use xlink:href="#DejaVuSans-65" x="699.695312"/>
      <use xlink:href="#DejaVuSans-63" x="761.21875"/>
      <use xlink:href="#DejaVuSans-74" x="816.199219"/>
     </g>
    </g>
    <g id="line2d_29">
     <path d="M 55.832498 26.643594 
L 62.832498 26.643594 
L 69.832498 26.643594 
" style="fill: none; stroke: #ff7f0e; stroke-width: 1.5; stroke-linecap: square"/>
    </g>
    <g id="text_19">
     <!-- Subdomain not HTTPS -->
     <g transform="translate(75.432498 29.093594)scale(0.07 -0.07)">
      <defs>
       <path id="DejaVuSans-62" d="M 3116 1747 
Q 3116 2381 2855 2742 
Q 2594 3103 2138 3103 
Q 1681 3103 1420 2742 
Q 1159 2381 1159 1747 
Q 1159 1113 1420 752 
Q 1681 391 2138 391 
Q 2594 391 2855 752 
Q 3116 1113 3116 1747 
z
M 1159 2969 
Q 1341 3281 1617 3432 
Q 1894 3584 2278 3584 
Q 2916 3584 3314 3078 
Q 3713 2572 3713 1747 
Q 3713 922 3314 415 
Q 2916 -91 2278 -91 
Q 1894 -91 1617 61 
Q 1341 213 1159 525 
L 1159 0 
L 581 0 
L 581 4863 
L 1159 4863 
L 1159 2969 
z
" transform="scale(0.015625)"/>
       <path id="DejaVuSans-48" d="M 628 4666 
L 1259 4666 
L 1259 2753 
L 3553 2753 
L 3553 4666 
L 4184 4666 
L 4184 0 
L 3553 0 
L 3553 2222 
L 1259 2222 
L 1259 0 
L 628 0 
L 628 4666 
z
" transform="scale(0.015625)"/>
       <path id="DejaVuSans-54" d="M -19 4666 
L 3928 4666 
L 3928 4134 
L 2272 4134 
L 2272 0 
L 1638 0 
L 1638 4134 
L -19 4134 
L -19 4666 
z
" transform="scale(0.015625)"/>
      </defs>
      <use xlink:href="#DejaVuSans-53"/>
      <use xlink:href="#DejaVuSans-75" x="63.476562"/>
      <use xlink:href="#DejaVuSans-62" x="126.855469"/>
      <use xlink:href="#DejaVuSans-64" x="190.332031"/>
      <use xlink:href="#DejaVuSans-6f" x="253.808594"/>
      <use xlink:href="#DejaVuSans-6d" x="314.990234"/>
      <use xlink:href="#DejaVuSans-61" x="412.402344"/>
      <use xlink:href="#DejaVuSans-69" x="473.681641"/>
      <use xlink:href="#DejaVuSans-6e" x="501.464844"/>
      <use xlink:href="#DejaVuSans-20" x="564.84375"/>
      <use xlink:href="#DejaVuSans-6e" x="596.630859"/>
      <use xlink:href="#DejaVuSans-6f" x="660.009766"/>
      <use xlink:href="#DejaVuSans-74" x="721.191406"/>
      <use xlink:href="#DejaVuSans-20" x="760.400391"/>
      <use xlink:href="#DejaVuSans-48" x="792.1875"/>
      <use xlink:href="#DejaVuSans-54" x="867.382812"/>
      <use xlink:href="#DejaVuSans-54" x="926.716797"/>
      <use xlink:href="#DejaVuSans-50" x="987.800781"/>
      <use xlink:href="#DejaVuSans-53" x="1048.103516"/>
     </g>
    </g>
    <g id="line2d_30">
     <path d="M 55.832498 36.918281 
L 62.832498 36.918281 
L 69.832498 36.918281 
" style="fill: none; stroke: #2ca02c; stroke-width: 1.5; stroke-linecap: square"/>
    </g>
    <g id="text_20">
     <!-- No HSTS Header -->
     <g transform="translate(75.432498 39.368281)scale(0.07 -0.07)">
      <use xlink:href="#DejaVuSans-4e"/>
      <use xlink:href="#DejaVuSans-6f" x="74.804688"/>
      <use xlink:href="#DejaVuSans-20" x="135.986328"/>
      <use xlink:href="#DejaVuSans-48" x="167.773438"/>
      <use xlink:href="#DejaVuSans-53" x="242.96875"/>
      <use xlink:href="#DejaVuSans-54" x="306.445312"/>
      <use xlink:href="#DejaVuSans-53" x="367.529297"/>
      <use xlink:href="#DejaVuSans-20" x="431.005859"/>
      <use xlink:href="#DejaVuSans-48" x="462.792969"/>
      <use xlink:href="#DejaVuSans-65" x="537.988281"/>
      <use xlink:href="#DejaVuSans-61" x="599.511719"/>
      <use xlink:href="#DejaVuSans-64" x="660.791016"/>
      <use xlink:href="#DejaVuSans-65" x="724.267578"/>
      <use xlink:href="#DejaVuSans-72" x="785.791016"/>
     </g>
    </g>
    <g id="line2d_31">
     <path d="M 55.832498 47.192969 
L 62.832498 47.192969 
L 69.832498 47.192969 
" style="fill: none; stroke: #d62728; stroke-width: 1.5; stroke-linecap: square"/>
    </g>
    <g id="text_21">
     <!-- Max Age too short -->
     <g transform="translate(75.432498 49.642969)scale(0.07 -0.07)">
      <defs>
       <path id="DejaVuSans-78" d="M 3513 3500 
L 2247 1797 
L 3578 0 
L 2900 0 
L 1881 1375 
L 863 0 
L 184 0 
L 1544 1831 
L 300 3500 
L 978 3500 
L 1906 2253 
L 2834 3500 
L 3513 3500 
z
" transform="scale(0.015625)"/>
       <path id="DejaVuSans-68" d="M 3513 2113 
L 3513 0 
L 2938 0 
L 2938 2094 
Q 2938 2591 2744 2837 
Q 2550 3084 2163 3084 
Q 1697 3084 1428 2787 
Q 1159 2491 1159 1978 
L 1159 0 
L 581 0 
L 581 4863 
L 1159 4863 
L 1159 2956 
Q 1366 3272 1645 3428 
Q 1925 3584 2291 3584 
Q 2894 3584 3203 3211 
Q 3513 2838 3513 2113 
z
" transform="scale(0.015625)"/>
      </defs>
      <use xlink:href="#DejaVuSans-4d"/>
      <use xlink:href="#DejaVuSans-61" x="86.279297"/>
      <use xlink:href="#DejaVuSans-78" x="147.558594"/>
      <use xlink:href="#DejaVuSans-20" x="206.738281"/>
      <use xlink:href="#DejaVuSans-41" x="238.525391"/>
      <use xlink:href="#DejaVuSans-67" x="306.933594"/>
      <use xlink:href="#DejaVuSans-65" x="370.410156"/>
      <use xlink:href="#DejaVuSans-20" x="431.933594"/>
      <use xlink:href="#DejaVuSans-74" x="463.720703"/>
      <use xlink:href="#DejaVuSans-6f" x="502.929688"/>
      <use xlink:href="#DejaVuSans-6f" x="564.111328"/>
      <use xlink:href="#DejaVuSans-20" x="625.292969"/>
      <use xlink:href="#DejaVuSans-73" x="657.080078"/>
      <use xlink:href="#DejaVuSans-68" x="709.179688"/>
      <use xlink:href="#DejaVuSans-6f" x="772.558594"/>
      <use xlink:href="#DejaVuSans-72" x="833.740234"/>
      <use xlink:href="#DejaVuSans-74" x="874.853516"/>
     </g>
    </g>
    <g id="line2d_32">
     <path d="M 55.832498 57.467656 
L 62.832498 57.467656 
L 69.832498 57.467656 
" style="fill: none; stroke: #9467bd; stroke-width: 1.5; stroke-linecap: square"/>
    </g>
    <g id="text_22">
     <!-- Missing includeSubDomains -->
     <g transform="translate(75.432498 59.917656)scale(0.07 -0.07)">
      <use xlink:href="#DejaVuSans-4d"/>
      <use xlink:href="#DejaVuSans-69" x="86.279297"/>
      <use xlink:href="#DejaVuSans-73" x="114.0625"/>
      <use xlink:href="#DejaVuSans-73" x="166.162109"/>
      <use xlink:href="#DejaVuSans-69" x="218.261719"/>
      <use xlink:href="#DejaVuSans-6e" x="246.044922"/>
      <use xlink:href="#DejaVuSans-67" x="309.423828"/>
      <use xlink:href="#DejaVuSans-20" x="372.900391"/>
      <use xlink:href="#DejaVuSans-69" x="404.6875"/>
      <use xlink:href="#DejaVuSans-6e" x="432.470703"/>
      <use xlink:href="#DejaVuSans-63" x="495.849609"/>
      <use xlink:href="#DejaVuSans-6c" x="550.830078"/>
      <use xlink:href="#DejaVuSans-75" x="578.613281"/>
      <use xlink:href="#DejaVuSans-64" x="641.992188"/>
      <use xlink:href="#DejaVuSans-65" x="705.46875"/>
      <use xlink:href="#DejaVuSans-53" x="766.992188"/>
      <use xlink:href="#DejaVuSans-75" x="830.46875"/>
      <use xlink:href="#DejaVuSans-62" x="893.847656"/>
      <use xlink:href="#DejaVuSans-44" x="957.324219"/>
      <use xlink:href="#DejaVuSans-6f" x="1034.326172"/>
      <use xlink:href="#DejaVuSans-6d" x="1095.507812"/>
      <use xlink:href="#DejaVuSans-61" x="1192.919922"/>
      <use xlink:href="#DejaVuSans-69" x="1254.199219"/>
      <use xlink:href="#DejaVuSans-6e" x="1281.982422"/>
      <use xlink:href="#DejaVuSans-73" x="1345.361328"/>
     </g>
    </g>
    <g id="line2d_33">
     <path d="M 55.832498 67.742344 
L 62.832498 67.742344 
L 69.832498 67.742344 
" style="fill: none; stroke: #8c564b; stroke-width: 1.5; stroke-linecap: square"/>
    </g>
    <g id="text_23">
     <!-- Missing preload -->
     <g transform="translate(75.432498 70.192344)scale(0.07 -0.07)">
      <use xlink:href="#DejaVuSans-4d"/>
      <use xlink:href="#DejaVuSans-69" x="86.279297"/>
      <use xlink:href="#DejaVuSans-73" x="114.0625"/>
      <use xlink:href="#DejaVuSans-73" x="166.162109"/>
      <use xlink:href="#DejaVuSans-69" x="218.261719"/>
      <use xlink:href="#DejaVuSans-6e" x="246.044922"/>
      <use xlink:href="#DejaVuSans-67" x="309.423828"/>
      <use xlink:href="#DejaVuSans-20" x="372.900391"/>
      <use xlink:href="#DejaVuSans-70" x="404.6875"/>
      <use xlink:href="#DejaVuSans-72" x="468.164062"/>
      <use xlink:href="#DejaVuSans-65" x="507.027344"/>
      <use xlink:href="#DejaVuSans-6c" x="568.550781"/>
      <use xlink:href="#DejaVuSans-6f" x="596.333984"/>
      <use xlink:href="#DejaVuSans-61" x="657.515625"/>
      <use xlink:href="#DejaVuSans-64" x="718.794922"/>
     </g>
    </g>
   </g>
  </g>
 </g>
 <defs>
  <clipPath id="p90c1d9f80c">
   <rect x="49.532498" y="7.2" width="446.4" height="171.36"/>
  </clipPath>
 </defs>
</svg>
