<?xml version="1.0" encoding="utf-8" standalone="no"?>
<!DOCTYPE svg PUBLIC "-//W3C//DTD SVG 1.1//EN"
  "http://www.w3.org/Graphics/SVG/1.1/DTD/svg11.dtd">
<svg xmlns:xlink="http://www.w3.org/1999/xlink" width="506.732901pt" height="237.886033pt" viewBox="0 0 506.732901 237.886033" xmlns="http://www.w3.org/2000/svg" version="1.1">
 <metadata>
  <rdf:RDF xmlns:dc="http://purl.org/dc/elements/1.1/" xmlns:cc="http://creativecommons.org/ns#" xmlns:rdf="http://www.w3.org/1999/02/22-rdf-syntax-ns#">
   <cc:Work>
    <dc:type rdf:resource="http://purl.org/dc/dcmitype/StillImage"/>
    <dc:date>2022-02-19T17:28:46.994795</dc:date>
    <dc:format>image/svg+xml</dc:format>
    <dc:creator>
     <cc:Agent>
      <dc:title>Matplotlib v3.5.1, https://matplotlib.org/</dc:title>
     </cc:Agent>
    </dc:creator>
   </cc:Work>
  </rdf:RDF>
 </metadata>
 <defs>
  <style type="text/css">*{stroke-linejoin: round; stroke-linecap: butt}</style>
 </defs>
 <g id="figure_1">
  <g id="patch_1">
   <path d="M 0 237.886033 
L 506.732901 237.886033 
L 506.732901 0 
L 0 0 
z
" style="fill: #ffffff"/>
  </g>
  <g id="axes_1">
   <g id="patch_2">
    <path d="M 53.132901 182.359219 
L 499.532901 182.359219 
L 499.532901 10.999219 
L 53.132901 10.999219 
z
" style="fill: #ffffff"/>
   </g>
   <g id="matplotlib.axis_1">
    <g id="xtick_1">
     <g id="line2d_1">
      <defs>
       <path id="m2b0f352b44" d="M 0 0 
L 0 3.5 
" style="stroke: #000000; stroke-width: 0.8"/>
      </defs>
      <g>
       <use xlink:href="#m2b0f352b44" x="68.024899" y="182.359219" style="stroke: #000000; stroke-width: 0.8"/>
      </g>
     </g>
     <g id="text_1">
      <!-- 2020-Nov-01 -->
      <g transform="translate(10.999219 228.263096)rotate(-30)scale(0.1 -0.1)">
       <defs>
        <path id="DejaVuSans-32" d="M 1228 531 
L 3431 531 
L 3431 0 
L 469 0 
L 469 531 
Q 828 903 1448 1529 
Q 2069 2156 2228 2338 
Q 2531 2678 2651 2914 
Q 2772 3150 2772 3378 
Q 2772 3750 2511 3984 
Q 2250 4219 1831 4219 
Q 1534 4219 1204 4116 
Q 875 4013 500 3803 
L 500 4441 
Q 881 4594 1212 4672 
Q 1544 4750 1819 4750 
Q 2544 4750 2975 4387 
Q 3406 4025 3406 3419 
Q 3406 3131 3298 2873 
Q 3191 2616 2906 2266 
Q 2828 2175 2409 1742 
Q 1991 1309 1228 531 
z
" transform="scale(0.015625)"/>
        <path id="DejaVuSans-30" d="M 2034 4250 
Q 1547 4250 1301 3770 
Q 1056 3291 1056 2328 
Q 1056 1369 1301 889 
Q 1547 409 2034 409 
Q 2525 409 2770 889 
Q 3016 1369 3016 2328 
Q 3016 3291 2770 3770 
Q 2525 4250 2034 4250 
z
M 2034 4750 
Q 2819 4750 3233 4129 
Q 3647 3509 3647 2328 
Q 3647 1150 3233 529 
Q 2819 -91 2034 -91 
Q 1250 -91 836 529 
Q 422 1150 422 2328 
Q 422 3509 836 4129 
Q 1250 4750 2034 4750 
z
" transform="scale(0.015625)"/>
        <path id="DejaVuSans-2d" d="M 313 2009 
L 1997 2009 
L 1997 1497 
L 313 1497 
L 313 2009 
z
" transform="scale(0.015625)"/>
        <path id="DejaVuSans-4e" d="M 628 4666 
L 1478 4666 
L 3547 763 
L 3547 4666 
L 4159 4666 
L 4159 0 
L 3309 0 
L 1241 3903 
L 1241 0 
L 628 0 
L 628 4666 
z
" transform="scale(0.015625)"/>
        <path id="DejaVuSans-6f" d="M 1959 3097 
Q 1497 3097 1228 2736 
Q 959 2375 959 1747 
Q 959 1119 1226 758 
Q 1494 397 1959 397 
Q 2419 397 2687 759 
Q 2956 1122 2956 1747 
Q 2956 2369 2687 2733 
Q 2419 3097 1959 3097 
z
M 1959 3584 
Q 2709 3584 3137 3096 
Q 3566 2609 3566 1747 
Q 3566 888 3137 398 
Q 2709 -91 1959 -91 
Q 1206 -91 779 398 
Q 353 888 353 1747 
Q 353 2609 779 3096 
Q 1206 3584 1959 3584 
z
" transform="scale(0.015625)"/>
        <path id="DejaVuSans-76" d="M 191 3500 
L 800 3500 
L 1894 563 
L 2988 3500 
L 3597 3500 
L 2284 0 
L 1503 0 
L 191 3500 
z
" transform="scale(0.015625)"/>
        <path id="DejaVuSans-31" d="M 794 531 
L 1825 531 
L 1825 4091 
L 703 3866 
L 703 4441 
L 1819 4666 
L 2450 4666 
L 2450 531 
L 3481 531 
L 3481 0 
L 794 0 
L 794 531 
z
" transform="scale(0.015625)"/>
       </defs>
       <use xlink:href="#DejaVuSans-32"/>
       <use xlink:href="#DejaVuSans-30" x="63.623047"/>
       <use xlink:href="#DejaVuSans-32" x="127.246094"/>
       <use xlink:href="#DejaVuSans-30" x="190.869141"/>
       <use xlink:href="#DejaVuSans-2d" x="254.492188"/>
       <use xlink:href="#DejaVuSans-4e" x="290.576172"/>
       <use xlink:href="#DejaVuSans-6f" x="365.380859"/>
       <use xlink:href="#DejaVuSans-76" x="426.5625"/>
       <use xlink:href="#DejaVuSans-2d" x="483.117188"/>
       <use xlink:href="#DejaVuSans-30" x="519.201172"/>
       <use xlink:href="#DejaVuSans-31" x="582.824219"/>
      </g>
     </g>
    </g>
    <g id="xtick_2">
     <g id="line2d_2">
      <g>
       <use xlink:href="#m2b0f352b44" x="95.019456" y="182.359219" style="stroke: #000000; stroke-width: 0.8"/>
      </g>
     </g>
     <g id="text_2">
      <!-- 2020-Dec-01 -->
      <g transform="translate(37.911233 228.310752)rotate(-30)scale(0.1 -0.1)">
       <defs>
        <path id="DejaVuSans-44" d="M 1259 4147 
L 1259 519 
L 2022 519 
Q 2988 519 3436 956 
Q 3884 1394 3884 2338 
Q 3884 3275 3436 3711 
Q 2988 4147 2022 4147 
L 1259 4147 
z
M 628 4666 
L 1925 4666 
Q 3281 4666 3915 4102 
Q 4550 3538 4550 2338 
Q 4550 1131 3912 565 
Q 3275 0 1925 0 
L 628 0 
L 628 4666 
z
" transform="scale(0.015625)"/>
        <path id="DejaVuSans-65" d="M 3597 1894 
L 3597 1613 
L 953 1613 
Q 991 1019 1311 708 
Q 1631 397 2203 397 
Q 2534 397 2845 478 
Q 3156 559 3463 722 
L 3463 178 
Q 3153 47 2828 -22 
Q 2503 -91 2169 -91 
Q 1331 -91 842 396 
Q 353 884 353 1716 
Q 353 2575 817 3079 
Q 1281 3584 2069 3584 
Q 2775 3584 3186 3129 
Q 3597 2675 3597 1894 
z
M 3022 2063 
Q 3016 2534 2758 2815 
Q 2500 3097 2075 3097 
Q 1594 3097 1305 2825 
Q 1016 2553 972 2059 
L 3022 2063 
z
" transform="scale(0.015625)"/>
        <path id="DejaVuSans-63" d="M 3122 3366 
L 3122 2828 
Q 2878 2963 2633 3030 
Q 2388 3097 2138 3097 
Q 1578 3097 1268 2742 
Q 959 2388 959 1747 
Q 959 1106 1268 751 
Q 1578 397 2138 397 
Q 2388 397 2633 464 
Q 2878 531 3122 666 
L 3122 134 
Q 2881 22 2623 -34 
Q 2366 -91 2075 -91 
Q 1284 -91 818 406 
Q 353 903 353 1747 
Q 353 2603 823 3093 
Q 1294 3584 2113 3584 
Q 2378 3584 2631 3529 
Q 2884 3475 3122 3366 
z
" transform="scale(0.015625)"/>
       </defs>
       <use xlink:href="#DejaVuSans-32"/>
       <use xlink:href="#DejaVuSans-30" x="63.623047"/>
       <use xlink:href="#DejaVuSans-32" x="127.246094"/>
       <use xlink:href="#DejaVuSans-30" x="190.869141"/>
       <use xlink:href="#DejaVuSans-2d" x="254.492188"/>
       <use xlink:href="#DejaVuSans-44" x="290.576172"/>
       <use xlink:href="#DejaVuSans-65" x="367.578125"/>
       <use xlink:href="#DejaVuSans-63" x="429.101562"/>
       <use xlink:href="#DejaVuSans-2d" x="484.082031"/>
       <use xlink:href="#DejaVuSans-30" x="520.166016"/>
       <use xlink:href="#DejaVuSans-31" x="583.789062"/>
      </g>
     </g>
    </g>
    <g id="xtick_3">
     <g id="line2d_3">
      <g>
       <use xlink:href="#m2b0f352b44" x="122.913832" y="182.359219" style="stroke: #000000; stroke-width: 0.8"/>
      </g>
     </g>
     <g id="text_3">
      <!-- 2021-Jan-01 -->
      <g transform="translate(68.727092 226.624034)rotate(-30)scale(0.1 -0.1)">
       <defs>
        <path id="DejaVuSans-4a" d="M 628 4666 
L 1259 4666 
L 1259 325 
Q 1259 -519 939 -900 
Q 619 -1281 -91 -1281 
L -331 -1281 
L -331 -750 
L -134 -750 
Q 284 -750 456 -515 
Q 628 -281 628 325 
L 628 4666 
z
" transform="scale(0.015625)"/>
        <path id="DejaVuSans-61" d="M 2194 1759 
Q 1497 1759 1228 1600 
Q 959 1441 959 1056 
Q 959 750 1161 570 
Q 1363 391 1709 391 
Q 2188 391 2477 730 
Q 2766 1069 2766 1631 
L 2766 1759 
L 2194 1759 
z
M 3341 1997 
L 3341 0 
L 2766 0 
L 2766 531 
Q 2569 213 2275 61 
Q 1981 -91 1556 -91 
Q 1019 -91 701 211 
Q 384 513 384 1019 
Q 384 1609 779 1909 
Q 1175 2209 1959 2209 
L 2766 2209 
L 2766 2266 
Q 2766 2663 2505 2880 
Q 2244 3097 1772 3097 
Q 1472 3097 1187 3025 
Q 903 2953 641 2809 
L 641 3341 
Q 956 3463 1253 3523 
Q 1550 3584 1831 3584 
Q 2591 3584 2966 3190 
Q 3341 2797 3341 1997 
z
" transform="scale(0.015625)"/>
        <path id="DejaVuSans-6e" d="M 3513 2113 
L 3513 0 
L 2938 0 
L 2938 2094 
Q 2938 2591 2744 2837 
Q 2550 3084 2163 3084 
Q 1697 3084 1428 2787 
Q 1159 2491 1159 1978 
L 1159 0 
L 581 0 
L 581 3500 
L 1159 3500 
L 1159 2956 
Q 1366 3272 1645 3428 
Q 1925 3584 2291 3584 
Q 2894 3584 3203 3211 
Q 3513 2838 3513 2113 
z
" transform="scale(0.015625)"/>
       </defs>
       <use xlink:href="#DejaVuSans-32"/>
       <use xlink:href="#DejaVuSans-30" x="63.623047"/>
       <use xlink:href="#DejaVuSans-32" x="127.246094"/>
       <use xlink:href="#DejaVuSans-31" x="190.869141"/>
       <use xlink:href="#DejaVuSans-2d" x="254.492188"/>
       <use xlink:href="#DejaVuSans-4a" x="296.201172"/>
       <use xlink:href="#DejaVuSans-61" x="325.693359"/>
       <use xlink:href="#DejaVuSans-6e" x="386.972656"/>
       <use xlink:href="#DejaVuSans-2d" x="450.351562"/>
       <use xlink:href="#DejaVuSans-30" x="486.435547"/>
       <use xlink:href="#DejaVuSans-31" x="550.058594"/>
      </g>
     </g>
    </g>
    <g id="xtick_4">
     <g id="line2d_4">
      <g>
       <use xlink:href="#m2b0f352b44" x="150.808208" y="182.359219" style="stroke: #000000; stroke-width: 0.8"/>
      </g>
     </g>
     <g id="text_4">
      <!-- 2021-Feb-01 -->
      <g transform="translate(95.127574 227.486534)rotate(-30)scale(0.1 -0.1)">
       <defs>
        <path id="DejaVuSans-46" d="M 628 4666 
L 3309 4666 
L 3309 4134 
L 1259 4134 
L 1259 2759 
L 3109 2759 
L 3109 2228 
L 1259 2228 
L 1259 0 
L 628 0 
L 628 4666 
z
" transform="scale(0.015625)"/>
        <path id="DejaVuSans-62" d="M 3116 1747 
Q 3116 2381 2855 2742 
Q 2594 3103 2138 3103 
Q 1681 3103 1420 2742 
Q 1159 2381 1159 1747 
Q 1159 1113 1420 752 
Q 1681 391 2138 391 
Q 2594 391 2855 752 
Q 3116 1113 3116 1747 
z
M 1159 2969 
Q 1341 3281 1617 3432 
Q 1894 3584 2278 3584 
Q 2916 3584 3314 3078 
Q 3713 2572 3713 1747 
Q 3713 922 3314 415 
Q 2916 -91 2278 -91 
Q 1894 -91 1617 61 
Q 1341 213 1159 525 
L 1159 0 
L 581 0 
L 581 4863 
L 1159 4863 
L 1159 2969 
z
" transform="scale(0.015625)"/>
       </defs>
       <use xlink:href="#DejaVuSans-32"/>
       <use xlink:href="#DejaVuSans-30" x="63.623047"/>
       <use xlink:href="#DejaVuSans-32" x="127.246094"/>
       <use xlink:href="#DejaVuSans-31" x="190.869141"/>
       <use xlink:href="#DejaVuSans-2d" x="254.492188"/>
       <use xlink:href="#DejaVuSans-46" x="290.576172"/>
       <use xlink:href="#DejaVuSans-65" x="342.595703"/>
       <use xlink:href="#DejaVuSans-62" x="404.119141"/>
       <use xlink:href="#DejaVuSans-2d" x="467.595703"/>
       <use xlink:href="#DejaVuSans-30" x="503.679688"/>
       <use xlink:href="#DejaVuSans-31" x="567.302734"/>
      </g>
     </g>
    </g>
    <g id="xtick_5">
     <g id="line2d_5">
      <g>
       <use xlink:href="#m2b0f352b44" x="176.003129" y="182.359219" style="stroke: #000000; stroke-width: 0.8"/>
      </g>
     </g>
     <g id="text_5">
      <!-- 2021-Mar-01 -->
      <g transform="translate(119.866478 227.749815)rotate(-30)scale(0.1 -0.1)">
       <defs>
        <path id="DejaVuSans-4d" d="M 628 4666 
L 1569 4666 
L 2759 1491 
L 3956 4666 
L 4897 4666 
L 4897 0 
L 4281 0 
L 4281 4097 
L 3078 897 
L 2444 897 
L 1241 4097 
L 1241 0 
L 628 0 
L 628 4666 
z
" transform="scale(0.015625)"/>
        <path id="DejaVuSans-72" d="M 2631 2963 
Q 2534 3019 2420 3045 
Q 2306 3072 2169 3072 
Q 1681 3072 1420 2755 
Q 1159 2438 1159 1844 
L 1159 0 
L 581 0 
L 581 3500 
L 1159 3500 
L 1159 2956 
Q 1341 3275 1631 3429 
Q 1922 3584 2338 3584 
Q 2397 3584 2469 3576 
Q 2541 3569 2628 3553 
L 2631 2963 
z
" transform="scale(0.015625)"/>
       </defs>
       <use xlink:href="#DejaVuSans-32"/>
       <use xlink:href="#DejaVuSans-30" x="63.623047"/>
       <use xlink:href="#DejaVuSans-32" x="127.246094"/>
       <use xlink:href="#DejaVuSans-31" x="190.869141"/>
       <use xlink:href="#DejaVuSans-2d" x="254.492188"/>
       <use xlink:href="#DejaVuSans-4d" x="290.576172"/>
       <use xlink:href="#DejaVuSans-61" x="376.855469"/>
       <use xlink:href="#DejaVuSans-72" x="438.134766"/>
       <use xlink:href="#DejaVuSans-2d" x="472.873047"/>
       <use xlink:href="#DejaVuSans-30" x="508.957031"/>
       <use xlink:href="#DejaVuSans-31" x="572.580078"/>
      </g>
     </g>
    </g>
    <g id="xtick_6">
     <g id="line2d_6">
      <g>
       <use xlink:href="#m2b0f352b44" x="203.897505" y="182.359219" style="stroke: #000000; stroke-width: 0.8"/>
      </g>
     </g>
     <g id="text_6">
      <!-- 2021-Apr-01 -->
      <g transform="translate(149.312934 226.853721)rotate(-30)scale(0.1 -0.1)">
       <defs>
        <path id="DejaVuSans-41" d="M 2188 4044 
L 1331 1722 
L 3047 1722 
L 2188 4044 
z
M 1831 4666 
L 2547 4666 
L 4325 0 
L 3669 0 
L 3244 1197 
L 1141 1197 
L 716 0 
L 50 0 
L 1831 4666 
z
" transform="scale(0.015625)"/>
        <path id="DejaVuSans-70" d="M 1159 525 
L 1159 -1331 
L 581 -1331 
L 581 3500 
L 1159 3500 
L 1159 2969 
Q 1341 3281 1617 3432 
Q 1894 3584 2278 3584 
Q 2916 3584 3314 3078 
Q 3713 2572 3713 1747 
Q 3713 922 3314 415 
Q 2916 -91 2278 -91 
Q 1894 -91 1617 61 
Q 1341 213 1159 525 
z
M 3116 1747 
Q 3116 2381 2855 2742 
Q 2594 3103 2138 3103 
Q 1681 3103 1420 2742 
Q 1159 2381 1159 1747 
Q 1159 1113 1420 752 
Q 1681 391 2138 391 
Q 2594 391 2855 752 
Q 3116 1113 3116 1747 
z
" transform="scale(0.015625)"/>
       </defs>
       <use xlink:href="#DejaVuSans-32"/>
       <use xlink:href="#DejaVuSans-30" x="63.623047"/>
       <use xlink:href="#DejaVuSans-32" x="127.246094"/>
       <use xlink:href="#DejaVuSans-31" x="190.869141"/>
       <use xlink:href="#DejaVuSans-2d" x="254.492188"/>
       <use xlink:href="#DejaVuSans-41" x="288.326172"/>
       <use xlink:href="#DejaVuSans-70" x="356.734375"/>
       <use xlink:href="#DejaVuSans-72" x="420.210938"/>
       <use xlink:href="#DejaVuSans-2d" x="454.949219"/>
       <use xlink:href="#DejaVuSans-30" x="491.033203"/>
       <use xlink:href="#DejaVuSans-31" x="554.65625"/>
      </g>
     </g>
    </g>
    <g id="xtick_7">
     <g id="line2d_7">
      <g>
       <use xlink:href="#m2b0f352b44" x="230.892062" y="182.359219" style="stroke: #000000; stroke-width: 0.8"/>
      </g>
     </g>
     <g id="text_7">
      <!-- 2021-May-01 -->
      <g transform="translate(172.789264 228.884971)rotate(-30)scale(0.1 -0.1)">
       <defs>
        <path id="DejaVuSans-79" d="M 2059 -325 
Q 1816 -950 1584 -1140 
Q 1353 -1331 966 -1331 
L 506 -1331 
L 506 -850 
L 844 -850 
Q 1081 -850 1212 -737 
Q 1344 -625 1503 -206 
L 1606 56 
L 191 3500 
L 800 3500 
L 1894 763 
L 2988 3500 
L 3597 3500 
L 2059 -325 
z
" transform="scale(0.015625)"/>
       </defs>
       <use xlink:href="#DejaVuSans-32"/>
       <use xlink:href="#DejaVuSans-30" x="63.623047"/>
       <use xlink:href="#DejaVuSans-32" x="127.246094"/>
       <use xlink:href="#DejaVuSans-31" x="190.869141"/>
       <use xlink:href="#DejaVuSans-2d" x="254.492188"/>
       <use xlink:href="#DejaVuSans-4d" x="290.576172"/>
       <use xlink:href="#DejaVuSans-61" x="376.855469"/>
       <use xlink:href="#DejaVuSans-79" x="438.134766"/>
       <use xlink:href="#DejaVuSans-2d" x="495.564453"/>
       <use xlink:href="#DejaVuSans-30" x="531.648438"/>
       <use xlink:href="#DejaVuSans-31" x="595.271484"/>
      </g>
     </g>
    </g>
    <g id="xtick_8">
     <g id="line2d_8">
      <g>
       <use xlink:href="#m2b0f352b44" x="258.786439" y="182.359219" style="stroke: #000000; stroke-width: 0.8"/>
      </g>
     </g>
     <g id="text_8">
      <!-- 2021-Jun-01 -->
      <g transform="translate(204.418374 226.728721)rotate(-30)scale(0.1 -0.1)">
       <defs>
        <path id="DejaVuSans-75" d="M 544 1381 
L 544 3500 
L 1119 3500 
L 1119 1403 
Q 1119 906 1312 657 
Q 1506 409 1894 409 
Q 2359 409 2629 706 
Q 2900 1003 2900 1516 
L 2900 3500 
L 3475 3500 
L 3475 0 
L 2900 0 
L 2900 538 
Q 2691 219 2414 64 
Q 2138 -91 1772 -91 
Q 1169 -91 856 284 
Q 544 659 544 1381 
z
M 1991 3584 
L 1991 3584 
z
" transform="scale(0.015625)"/>
       </defs>
       <use xlink:href="#DejaVuSans-32"/>
       <use xlink:href="#DejaVuSans-30" x="63.623047"/>
       <use xlink:href="#DejaVuSans-32" x="127.246094"/>
       <use xlink:href="#DejaVuSans-31" x="190.869141"/>
       <use xlink:href="#DejaVuSans-2d" x="254.492188"/>
       <use xlink:href="#DejaVuSans-4a" x="296.201172"/>
       <use xlink:href="#DejaVuSans-75" x="325.693359"/>
       <use xlink:href="#DejaVuSans-6e" x="389.072266"/>
       <use xlink:href="#DejaVuSans-2d" x="452.451172"/>
       <use xlink:href="#DejaVuSans-30" x="488.535156"/>
       <use xlink:href="#DejaVuSans-31" x="552.158203"/>
      </g>
     </g>
    </g>
    <g id="xtick_9">
     <g id="line2d_9">
      <g>
       <use xlink:href="#m2b0f352b44" x="285.780996" y="182.359219" style="stroke: #000000; stroke-width: 0.8"/>
      </g>
     </g>
     <g id="text_9">
      <!-- 2021-Jul-01 -->
      <g transform="translate(234.495441 224.949034)rotate(-30)scale(0.1 -0.1)">
       <defs>
        <path id="DejaVuSans-6c" d="M 603 4863 
L 1178 4863 
L 1178 0 
L 603 0 
L 603 4863 
z
" transform="scale(0.015625)"/>
       </defs>
       <use xlink:href="#DejaVuSans-32"/>
       <use xlink:href="#DejaVuSans-30" x="63.623047"/>
       <use xlink:href="#DejaVuSans-32" x="127.246094"/>
       <use xlink:href="#DejaVuSans-31" x="190.869141"/>
       <use xlink:href="#DejaVuSans-2d" x="254.492188"/>
       <use xlink:href="#DejaVuSans-4a" x="296.201172"/>
       <use xlink:href="#DejaVuSans-75" x="325.693359"/>
       <use xlink:href="#DejaVuSans-6c" x="389.072266"/>
       <use xlink:href="#DejaVuSans-2d" x="416.855469"/>
       <use xlink:href="#DejaVuSans-30" x="452.939453"/>
       <use xlink:href="#DejaVuSans-31" x="516.5625"/>
      </g>
     </g>
    </g>
    <g id="xtick_10">
     <g id="line2d_10">
      <g>
       <use xlink:href="#m2b0f352b44" x="313.675372" y="182.359219" style="stroke: #000000; stroke-width: 0.8"/>
      </g>
     </g>
     <g id="text_10">
      <!-- 2021-Aug-01 -->
      <g transform="translate(256.610451 228.285752)rotate(-30)scale(0.1 -0.1)">
       <defs>
        <path id="DejaVuSans-67" d="M 2906 1791 
Q 2906 2416 2648 2759 
Q 2391 3103 1925 3103 
Q 1463 3103 1205 2759 
Q 947 2416 947 1791 
Q 947 1169 1205 825 
Q 1463 481 1925 481 
Q 2391 481 2648 825 
Q 2906 1169 2906 1791 
z
M 3481 434 
Q 3481 -459 3084 -895 
Q 2688 -1331 1869 -1331 
Q 1566 -1331 1297 -1286 
Q 1028 -1241 775 -1147 
L 775 -588 
Q 1028 -725 1275 -790 
Q 1522 -856 1778 -856 
Q 2344 -856 2625 -561 
Q 2906 -266 2906 331 
L 2906 616 
Q 2728 306 2450 153 
Q 2172 0 1784 0 
Q 1141 0 747 490 
Q 353 981 353 1791 
Q 353 2603 747 3093 
Q 1141 3584 1784 3584 
Q 2172 3584 2450 3431 
Q 2728 3278 2906 2969 
L 2906 3500 
L 3481 3500 
L 3481 434 
z
" transform="scale(0.015625)"/>
       </defs>
       <use xlink:href="#DejaVuSans-32"/>
       <use xlink:href="#DejaVuSans-30" x="63.623047"/>
       <use xlink:href="#DejaVuSans-32" x="127.246094"/>
       <use xlink:href="#DejaVuSans-31" x="190.869141"/>
       <use xlink:href="#DejaVuSans-2d" x="254.492188"/>
       <use xlink:href="#DejaVuSans-41" x="288.326172"/>
       <use xlink:href="#DejaVuSans-75" x="356.734375"/>
       <use xlink:href="#DejaVuSans-67" x="420.113281"/>
       <use xlink:href="#DejaVuSans-2d" x="483.589844"/>
       <use xlink:href="#DejaVuSans-30" x="519.673828"/>
       <use xlink:href="#DejaVuSans-31" x="583.296875"/>
      </g>
     </g>
    </g>
    <g id="xtick_11">
     <g id="line2d_11">
      <g>
       <use xlink:href="#m2b0f352b44" x="341.569748" y="182.359219" style="stroke: #000000; stroke-width: 0.8"/>
      </g>
     </g>
     <g id="text_11">
      <!-- 2021-Sep-01 -->
      <g transform="translate(284.895891 228.059971)rotate(-30)scale(0.1 -0.1)">
       <defs>
        <path id="DejaVuSans-53" d="M 3425 4513 
L 3425 3897 
Q 3066 4069 2747 4153 
Q 2428 4238 2131 4238 
Q 1616 4238 1336 4038 
Q 1056 3838 1056 3469 
Q 1056 3159 1242 3001 
Q 1428 2844 1947 2747 
L 2328 2669 
Q 3034 2534 3370 2195 
Q 3706 1856 3706 1288 
Q 3706 609 3251 259 
Q 2797 -91 1919 -91 
Q 1588 -91 1214 -16 
Q 841 59 441 206 
L 441 856 
Q 825 641 1194 531 
Q 1563 422 1919 422 
Q 2459 422 2753 634 
Q 3047 847 3047 1241 
Q 3047 1584 2836 1778 
Q 2625 1972 2144 2069 
L 1759 2144 
Q 1053 2284 737 2584 
Q 422 2884 422 3419 
Q 422 4038 858 4394 
Q 1294 4750 2059 4750 
Q 2388 4750 2728 4690 
Q 3069 4631 3425 4513 
z
" transform="scale(0.015625)"/>
       </defs>
       <use xlink:href="#DejaVuSans-32"/>
       <use xlink:href="#DejaVuSans-30" x="63.623047"/>
       <use xlink:href="#DejaVuSans-32" x="127.246094"/>
       <use xlink:href="#DejaVuSans-31" x="190.869141"/>
       <use xlink:href="#DejaVuSans-2d" x="254.492188"/>
       <use xlink:href="#DejaVuSans-53" x="290.576172"/>
       <use xlink:href="#DejaVuSans-65" x="354.052734"/>
       <use xlink:href="#DejaVuSans-70" x="415.576172"/>
       <use xlink:href="#DejaVuSans-2d" x="479.052734"/>
       <use xlink:href="#DejaVuSans-30" x="515.136719"/>
       <use xlink:href="#DejaVuSans-31" x="578.759766"/>
      </g>
     </g>
    </g>
    <g id="xtick_12">
     <g id="line2d_12">
      <g>
       <use xlink:href="#m2b0f352b44" x="368.564306" y="182.359219" style="stroke: #000000; stroke-width: 0.8"/>
      </g>
     </g>
     <g id="text_12">
      <!-- 2021-Oct-01 -->
      <g transform="translate(313.00275 227.417784)rotate(-30)scale(0.1 -0.1)">
       <defs>
        <path id="DejaVuSans-4f" d="M 2522 4238 
Q 1834 4238 1429 3725 
Q 1025 3213 1025 2328 
Q 1025 1447 1429 934 
Q 1834 422 2522 422 
Q 3209 422 3611 934 
Q 4013 1447 4013 2328 
Q 4013 3213 3611 3725 
Q 3209 4238 2522 4238 
z
M 2522 4750 
Q 3503 4750 4090 4092 
Q 4678 3434 4678 2328 
Q 4678 1225 4090 567 
Q 3503 -91 2522 -91 
Q 1538 -91 948 565 
Q 359 1222 359 2328 
Q 359 3434 948 4092 
Q 1538 4750 2522 4750 
z
" transform="scale(0.015625)"/>
        <path id="DejaVuSans-74" d="M 1172 4494 
L 1172 3500 
L 2356 3500 
L 2356 3053 
L 1172 3053 
L 1172 1153 
Q 1172 725 1289 603 
Q 1406 481 1766 481 
L 2356 481 
L 2356 0 
L 1766 0 
Q 1100 0 847 248 
Q 594 497 594 1153 
L 594 3053 
L 172 3053 
L 172 3500 
L 594 3500 
L 594 4494 
L 1172 4494 
z
" transform="scale(0.015625)"/>
       </defs>
       <use xlink:href="#DejaVuSans-32"/>
       <use xlink:href="#DejaVuSans-30" x="63.623047"/>
       <use xlink:href="#DejaVuSans-32" x="127.246094"/>
       <use xlink:href="#DejaVuSans-31" x="190.869141"/>
       <use xlink:href="#DejaVuSans-2d" x="254.492188"/>
       <use xlink:href="#DejaVuSans-4f" x="293.326172"/>
       <use xlink:href="#DejaVuSans-63" x="372.037109"/>
       <use xlink:href="#DejaVuSans-74" x="427.017578"/>
       <use xlink:href="#DejaVuSans-2d" x="466.226562"/>
       <use xlink:href="#DejaVuSans-30" x="502.310547"/>
       <use xlink:href="#DejaVuSans-31" x="565.933594"/>
      </g>
     </g>
    </g>
    <g id="xtick_13">
     <g id="line2d_13">
      <g>
       <use xlink:href="#m2b0f352b44" x="396.458682" y="182.359219" style="stroke: #000000; stroke-width: 0.8"/>
      </g>
     </g>
     <g id="text_13">
      <!-- 2021-Nov-01 -->
      <g transform="translate(339.433002 228.263096)rotate(-30)scale(0.1 -0.1)">
       <use xlink:href="#DejaVuSans-32"/>
       <use xlink:href="#DejaVuSans-30" x="63.623047"/>
       <use xlink:href="#DejaVuSans-32" x="127.246094"/>
       <use xlink:href="#DejaVuSans-31" x="190.869141"/>
       <use xlink:href="#DejaVuSans-2d" x="254.492188"/>
       <use xlink:href="#DejaVuSans-4e" x="290.576172"/>
       <use xlink:href="#DejaVuSans-6f" x="365.380859"/>
       <use xlink:href="#DejaVuSans-76" x="426.5625"/>
       <use xlink:href="#DejaVuSans-2d" x="483.117188"/>
       <use xlink:href="#DejaVuSans-30" x="519.201172"/>
       <use xlink:href="#DejaVuSans-31" x="582.824219"/>
      </g>
     </g>
    </g>
    <g id="xtick_14">
     <g id="line2d_14">
      <g>
       <use xlink:href="#m2b0f352b44" x="423.45324" y="182.359219" style="stroke: #000000; stroke-width: 0.8"/>
      </g>
     </g>
     <g id="text_14">
      <!-- 2021-Dec-01 -->
      <g transform="translate(366.345017 228.310752)rotate(-30)scale(0.1 -0.1)">
       <use xlink:href="#DejaVuSans-32"/>
       <use xlink:href="#DejaVuSans-30" x="63.623047"/>
       <use xlink:href="#DejaVuSans-32" x="127.246094"/>
       <use xlink:href="#DejaVuSans-31" x="190.869141"/>
       <use xlink:href="#DejaVuSans-2d" x="254.492188"/>
       <use xlink:href="#DejaVuSans-44" x="290.576172"/>
       <use xlink:href="#DejaVuSans-65" x="367.578125"/>
       <use xlink:href="#DejaVuSans-63" x="429.101562"/>
       <use xlink:href="#DejaVuSans-2d" x="484.082031"/>
       <use xlink:href="#DejaVuSans-30" x="520.166016"/>
       <use xlink:href="#DejaVuSans-31" x="583.789062"/>
      </g>
     </g>
    </g>
    <g id="xtick_15">
     <g id="line2d_15">
      <g>
       <use xlink:href="#m2b0f352b44" x="451.347616" y="182.359219" style="stroke: #000000; stroke-width: 0.8"/>
      </g>
     </g>
     <g id="text_15">
      <!-- 2022-Jan-01 -->
      <g transform="translate(397.160875 226.624034)rotate(-30)scale(0.1 -0.1)">
       <use xlink:href="#DejaVuSans-32"/>
       <use xlink:href="#DejaVuSans-30" x="63.623047"/>
       <use xlink:href="#DejaVuSans-32" x="127.246094"/>
       <use xlink:href="#DejaVuSans-32" x="190.869141"/>
       <use xlink:href="#DejaVuSans-2d" x="254.492188"/>
       <use xlink:href="#DejaVuSans-4a" x="296.201172"/>
       <use xlink:href="#DejaVuSans-61" x="325.693359"/>
       <use xlink:href="#DejaVuSans-6e" x="386.972656"/>
       <use xlink:href="#DejaVuSans-2d" x="450.351562"/>
       <use xlink:href="#DejaVuSans-30" x="486.435547"/>
       <use xlink:href="#DejaVuSans-31" x="550.058594"/>
      </g>
     </g>
    </g>
    <g id="xtick_16">
     <g id="line2d_16">
      <g>
       <use xlink:href="#m2b0f352b44" x="479.241992" y="182.359219" style="stroke: #000000; stroke-width: 0.8"/>
      </g>
     </g>
     <g id="text_16">
      <!-- 2022-Feb-01 -->
      <g transform="translate(423.561358 227.486534)rotate(-30)scale(0.1 -0.1)">
       <use xlink:href="#DejaVuSans-32"/>
       <use xlink:href="#DejaVuSans-30" x="63.623047"/>
       <use xlink:href="#DejaVuSans-32" x="127.246094"/>
       <use xlink:href="#DejaVuSans-32" x="190.869141"/>
       <use xlink:href="#DejaVuSans-2d" x="254.492188"/>
       <use xlink:href="#DejaVuSans-46" x="290.576172"/>
       <use xlink:href="#DejaVuSans-65" x="342.595703"/>
       <use xlink:href="#DejaVuSans-62" x="404.119141"/>
       <use xlink:href="#DejaVuSans-2d" x="467.595703"/>
       <use xlink:href="#DejaVuSans-30" x="503.679688"/>
       <use xlink:href="#DejaVuSans-31" x="567.302734"/>
      </g>
     </g>
    </g>
   </g>
   <g id="matplotlib.axis_2">
    <g id="ytick_1">
     <g id="line2d_17">
      <path d="M 53.132901 182.359219 
L 499.532901 182.359219 
" clip-path="url(#p408b26e254)" style="fill: none; stroke: #b0b0b0; stroke-width: 0.8; stroke-linecap: square"/>
     </g>
     <g id="line2d_18">
      <defs>
       <path id="m54094c79e0" d="M 0 0 
L -3.5 0 
" style="stroke: #000000; stroke-width: 0.8"/>
      </defs>
      <g>
       <use xlink:href="#m54094c79e0" x="53.132901" y="182.359219" style="stroke: #000000; stroke-width: 0.8"/>
      </g>
     </g>
     <g id="text_17">
      <!-- 0 -->
      <g transform="translate(39.770401 186.158437)scale(0.1 -0.1)">
       <use xlink:href="#DejaVuSans-30"/>
      </g>
     </g>
    </g>
    <g id="ytick_2">
     <g id="line2d_19">
      <path d="M 53.132901 148.087219 
L 499.532901 148.087219 
" clip-path="url(#p408b26e254)" style="fill: none; stroke: #b0b0b0; stroke-width: 0.8; stroke-linecap: square"/>
     </g>
     <g id="line2d_20">
      <g>
       <use xlink:href="#m54094c79e0" x="53.132901" y="148.087219" style="stroke: #000000; stroke-width: 0.8"/>
      </g>
     </g>
     <g id="text_18">
      <!-- 20 -->
      <g transform="translate(33.407901 151.886437)scale(0.1 -0.1)">
       <use xlink:href="#DejaVuSans-32"/>
       <use xlink:href="#DejaVuSans-30" x="63.623047"/>
      </g>
     </g>
    </g>
    <g id="ytick_3">
     <g id="line2d_21">
      <path d="M 53.132901 113.815219 
L 499.532901 113.815219 
" clip-path="url(#p408b26e254)" style="fill: none; stroke: #b0b0b0; stroke-width: 0.8; stroke-linecap: square"/>
     </g>
     <g id="line2d_22">
      <g>
       <use xlink:href="#m54094c79e0" x="53.132901" y="113.815219" style="stroke: #000000; stroke-width: 0.8"/>
      </g>
     </g>
     <g id="text_19">
      <!-- 40 -->
      <g transform="translate(33.407901 117.614437)scale(0.1 -0.1)">
       <defs>
        <path id="DejaVuSans-34" d="M 2419 4116 
L 825 1625 
L 2419 1625 
L 2419 4116 
z
M 2253 4666 
L 3047 4666 
L 3047 1625 
L 3713 1625 
L 3713 1100 
L 3047 1100 
L 3047 0 
L 2419 0 
L 2419 1100 
L 313 1100 
L 313 1709 
L 2253 4666 
z
" transform="scale(0.015625)"/>
       </defs>
       <use xlink:href="#DejaVuSans-34"/>
       <use xlink:href="#DejaVuSans-30" x="63.623047"/>
      </g>
     </g>
    </g>
    <g id="ytick_4">
     <g id="line2d_23">
      <path d="M 53.132901 79.543219 
L 499.532901 79.543219 
" clip-path="url(#p408b26e254)" style="fill: none; stroke: #b0b0b0; stroke-width: 0.8; stroke-linecap: square"/>
     </g>
     <g id="line2d_24">
      <g>
       <use xlink:href="#m54094c79e0" x="53.132901" y="79.543219" style="stroke: #000000; stroke-width: 0.8"/>
      </g>
     </g>
     <g id="text_20">
      <!-- 60 -->
      <g transform="translate(33.407901 83.342437)scale(0.1 -0.1)">
       <defs>
        <path id="DejaVuSans-36" d="M 2113 2584 
Q 1688 2584 1439 2293 
Q 1191 2003 1191 1497 
Q 1191 994 1439 701 
Q 1688 409 2113 409 
Q 2538 409 2786 701 
Q 3034 994 3034 1497 
Q 3034 2003 2786 2293 
Q 2538 2584 2113 2584 
z
M 3366 4563 
L 3366 3988 
Q 3128 4100 2886 4159 
Q 2644 4219 2406 4219 
Q 1781 4219 1451 3797 
Q 1122 3375 1075 2522 
Q 1259 2794 1537 2939 
Q 1816 3084 2150 3084 
Q 2853 3084 3261 2657 
Q 3669 2231 3669 1497 
Q 3669 778 3244 343 
Q 2819 -91 2113 -91 
Q 1303 -91 875 529 
Q 447 1150 447 2328 
Q 447 3434 972 4092 
Q 1497 4750 2381 4750 
Q 2619 4750 2861 4703 
Q 3103 4656 3366 4563 
z
" transform="scale(0.015625)"/>
       </defs>
       <use xlink:href="#DejaVuSans-36"/>
       <use xlink:href="#DejaVuSans-30" x="63.623047"/>
      </g>
     </g>
    </g>
    <g id="ytick_5">
     <g id="line2d_25">
      <path d="M 53.132901 45.271219 
L 499.532901 45.271219 
" clip-path="url(#p408b26e254)" style="fill: none; stroke: #b0b0b0; stroke-width: 0.8; stroke-linecap: square"/>
     </g>
     <g id="line2d_26">
      <g>
       <use xlink:href="#m54094c79e0" x="53.132901" y="45.271219" style="stroke: #000000; stroke-width: 0.8"/>
      </g>
     </g>
     <g id="text_21">
      <!-- 80 -->
      <g transform="translate(33.407901 49.070437)scale(0.1 -0.1)">
       <defs>
        <path id="DejaVuSans-38" d="M 2034 2216 
Q 1584 2216 1326 1975 
Q 1069 1734 1069 1313 
Q 1069 891 1326 650 
Q 1584 409 2034 409 
Q 2484 409 2743 651 
Q 3003 894 3003 1313 
Q 3003 1734 2745 1975 
Q 2488 2216 2034 2216 
z
M 1403 2484 
Q 997 2584 770 2862 
Q 544 3141 544 3541 
Q 544 4100 942 4425 
Q 1341 4750 2034 4750 
Q 2731 4750 3128 4425 
Q 3525 4100 3525 3541 
Q 3525 3141 3298 2862 
Q 3072 2584 2669 2484 
Q 3125 2378 3379 2068 
Q 3634 1759 3634 1313 
Q 3634 634 3220 271 
Q 2806 -91 2034 -91 
Q 1263 -91 848 271 
Q 434 634 434 1313 
Q 434 1759 690 2068 
Q 947 2378 1403 2484 
z
M 1172 3481 
Q 1172 3119 1398 2916 
Q 1625 2713 2034 2713 
Q 2441 2713 2670 2916 
Q 2900 3119 2900 3481 
Q 2900 3844 2670 4047 
Q 2441 4250 2034 4250 
Q 1625 4250 1398 4047 
Q 1172 3844 1172 3481 
z
" transform="scale(0.015625)"/>
       </defs>
       <use xlink:href="#DejaVuSans-38"/>
       <use xlink:href="#DejaVuSans-30" x="63.623047"/>
      </g>
     </g>
    </g>
    <g id="ytick_6">
     <g id="line2d_27">
      <path d="M 53.132901 10.999219 
L 499.532901 10.999219 
" clip-path="url(#p408b26e254)" style="fill: none; stroke: #b0b0b0; stroke-width: 0.8; stroke-linecap: square"/>
     </g>
     <g id="line2d_28">
      <g>
       <use xlink:href="#m54094c79e0" x="53.132901" y="10.999219" style="stroke: #000000; stroke-width: 0.8"/>
      </g>
     </g>
     <g id="text_22">
      <!-- 100 -->
      <g transform="translate(27.045401 14.798438)scale(0.1 -0.1)">
       <use xlink:href="#DejaVuSans-31"/>
       <use xlink:href="#DejaVuSans-30" x="63.623047"/>
       <use xlink:href="#DejaVuSans-30" x="127.246094"/>
      </g>
     </g>
    </g>
    <g id="text_23">
     <!-- Percentage Of Domains -->
     <g transform="translate(20.965713 155.682344)rotate(-90)scale(0.1 -0.1)">
      <defs>
       <path id="DejaVuSans-50" d="M 1259 4147 
L 1259 2394 
L 2053 2394 
Q 2494 2394 2734 2622 
Q 2975 2850 2975 3272 
Q 2975 3691 2734 3919 
Q 2494 4147 2053 4147 
L 1259 4147 
z
M 628 4666 
L 2053 4666 
Q 2838 4666 3239 4311 
Q 3641 3956 3641 3272 
Q 3641 2581 3239 2228 
Q 2838 1875 2053 1875 
L 1259 1875 
L 1259 0 
L 628 0 
L 628 4666 
z
" transform="scale(0.015625)"/>
       <path id="DejaVuSans-20" transform="scale(0.015625)"/>
       <path id="DejaVuSans-66" d="M 2375 4863 
L 2375 4384 
L 1825 4384 
Q 1516 4384 1395 4259 
Q 1275 4134 1275 3809 
L 1275 3500 
L 2222 3500 
L 2222 3053 
L 1275 3053 
L 1275 0 
L 697 0 
L 697 3053 
L 147 3053 
L 147 3500 
L 697 3500 
L 697 3744 
Q 697 4328 969 4595 
Q 1241 4863 1831 4863 
L 2375 4863 
z
" transform="scale(0.015625)"/>
       <path id="DejaVuSans-6d" d="M 3328 2828 
Q 3544 3216 3844 3400 
Q 4144 3584 4550 3584 
Q 5097 3584 5394 3201 
Q 5691 2819 5691 2113 
L 5691 0 
L 5113 0 
L 5113 2094 
Q 5113 2597 4934 2840 
Q 4756 3084 4391 3084 
Q 3944 3084 3684 2787 
Q 3425 2491 3425 1978 
L 3425 0 
L 2847 0 
L 2847 2094 
Q 2847 2600 2669 2842 
Q 2491 3084 2119 3084 
Q 1678 3084 1418 2786 
Q 1159 2488 1159 1978 
L 1159 0 
L 581 0 
L 581 3500 
L 1159 3500 
L 1159 2956 
Q 1356 3278 1631 3431 
Q 1906 3584 2284 3584 
Q 2666 3584 2933 3390 
Q 3200 3197 3328 2828 
z
" transform="scale(0.015625)"/>
       <path id="DejaVuSans-69" d="M 603 3500 
L 1178 3500 
L 1178 0 
L 603 0 
L 603 3500 
z
M 603 4863 
L 1178 4863 
L 1178 4134 
L 603 4134 
L 603 4863 
z
" transform="scale(0.015625)"/>
       <path id="DejaVuSans-73" d="M 2834 3397 
L 2834 2853 
Q 2591 2978 2328 3040 
Q 2066 3103 1784 3103 
Q 1356 3103 1142 2972 
Q 928 2841 928 2578 
Q 928 2378 1081 2264 
Q 1234 2150 1697 2047 
L 1894 2003 
Q 2506 1872 2764 1633 
Q 3022 1394 3022 966 
Q 3022 478 2636 193 
Q 2250 -91 1575 -91 
Q 1294 -91 989 -36 
Q 684 19 347 128 
L 347 722 
Q 666 556 975 473 
Q 1284 391 1588 391 
Q 1994 391 2212 530 
Q 2431 669 2431 922 
Q 2431 1156 2273 1281 
Q 2116 1406 1581 1522 
L 1381 1569 
Q 847 1681 609 1914 
Q 372 2147 372 2553 
Q 372 3047 722 3315 
Q 1072 3584 1716 3584 
Q 2034 3584 2315 3537 
Q 2597 3491 2834 3397 
z
" transform="scale(0.015625)"/>
      </defs>
      <use xlink:href="#DejaVuSans-50"/>
      <use xlink:href="#DejaVuSans-65" x="56.677734"/>
      <use xlink:href="#DejaVuSans-72" x="118.201172"/>
      <use xlink:href="#DejaVuSans-63" x="157.064453"/>
      <use xlink:href="#DejaVuSans-65" x="212.044922"/>
      <use xlink:href="#DejaVuSans-6e" x="273.568359"/>
      <use xlink:href="#DejaVuSans-74" x="336.947266"/>
      <use xlink:href="#DejaVuSans-61" x="376.15625"/>
      <use xlink:href="#DejaVuSans-67" x="437.435547"/>
      <use xlink:href="#DejaVuSans-65" x="500.912109"/>
      <use xlink:href="#DejaVuSans-20" x="562.435547"/>
      <use xlink:href="#DejaVuSans-4f" x="594.222656"/>
      <use xlink:href="#DejaVuSans-66" x="672.933594"/>
      <use xlink:href="#DejaVuSans-20" x="708.138672"/>
      <use xlink:href="#DejaVuSans-44" x="739.925781"/>
      <use xlink:href="#DejaVuSans-6f" x="816.927734"/>
      <use xlink:href="#DejaVuSans-6d" x="878.109375"/>
      <use xlink:href="#DejaVuSans-61" x="975.521484"/>
      <use xlink:href="#DejaVuSans-69" x="1036.800781"/>
      <use xlink:href="#DejaVuSans-6e" x="1064.583984"/>
      <use xlink:href="#DejaVuSans-73" x="1127.962891"/>
     </g>
    </g>
   </g>
   <g id="line2d_29">
    <path d="M 73.42381 86.292232 
L 76.123266 86.119673 
L 78.822722 84.821449 
L 80.622359 84.742453 
L 81.522177 84.834816 
L 82.421996 85.243852 
L 83.321814 84.982185 
L 84.221633 84.599196 
L 86.02127 84.466049 
L 86.921089 84.479415 
L 89.620545 84.350038 
L 90.520363 84.139608 
L 91.420182 84.242938 
L 92.32 84.158972 
L 95.919275 84.46999 
L 96.819093 83.979386 
L 98.61873 83.839899 
L 100.418368 83.998065 
L 101.318186 84.063867 
L 102.218005 83.914098 
L 103.117823 83.895077 
L 104.017642 83.525454 
L 104.917461 83.453825 
L 105.817279 83.840242 
L 107.616916 84.085801 
L 109.416553 83.582174 
L 110.316372 83.499064 
L 112.116009 83.506433 
L 113.915646 83.787292 
L 115.715284 83.27047 
L 116.615102 83.264815 
L 119.314558 83.694586 
L 120.214376 83.778381 
L 122.913832 83.500778 
L 125.613288 84.048445 
L 126.513107 84.103965 
L 127.412925 83.903817 
L 128.312744 83.367803 
L 131.012199 83.333017 
L 131.912018 82.974531 
L 132.811837 83.054728 
L 135.511292 82.72863 
L 140.010385 82.619988 
L 140.910204 82.425151 
L 142.709841 82.379398 
L 150.808208 82.323192 
L 151.708027 82.468334 
L 154.407483 81.803114 
L 155.307301 82.107107 
L 156.20712 82.084145 
L 158.906576 82.359006 
L 160.706213 81.86309 
L 163.405669 82.141036 
L 165.205306 81.943287 
L 167.004943 81.684876 
L 168.80458 81.587029 
L 169.704399 81.818023 
L 170.604217 81.916041 
L 172.403854 81.606565 
L 173.303673 81.297774 
L 174.203492 81.211408 
L 176.003129 81.212608 
L 176.902947 81.230601 
L 178.702584 80.570865 
L 179.602403 80.378427 
L 181.40204 79.816709 
L 183.201677 79.716635 
L 185.001315 79.36449 
L 185.901133 79.324221 
L 186.800952 79.160915 
L 188.600589 79.197243 
L 200.298231 77.450228 
L 202.097868 77.678822 
L 204.797323 77.383055 
L 206.596961 77.448685 
L 209.296416 77.717892 
L 210.196235 77.223861 
L 211.096054 77.251107 
L 211.995872 77.079747 
L 218.294602 76.92261 
L 220.994058 77.139209 
L 221.893877 76.9843 
L 224.593332 76.666598 
L 225.493151 76.929293 
L 227.292788 77.158402 
L 229.092425 76.75245 
L 232.6917 76.737199 
L 233.591518 76.855437 
L 237.190792 76.49541 
L 238.090611 76.433377 
L 239.890248 76.552301 
L 240.790067 76.471591 
L 241.689885 76.612449 
L 242.589704 76.444002 
L 243.489523 76.546989 
L 244.389341 76.355409 
L 245.28916 76.499351 
L 246.188978 76.342728 
L 247.088797 76.302973 
L 249.788253 75.878171 
L 251.58789 76.144122 
L 253.387527 75.897363 
L 254.287346 76.011146 
L 255.187164 75.649577 
L 256.986801 75.556357 
L 258.786439 75.756163 
L 260.586076 75.445487 
L 262.385713 75.105509 
L 263.285531 75.129842 
L 265.085169 75.455769 
L 266.884806 74.871431 
L 269.584262 74.755934 
L 270.48408 74.64455 
L 271.383899 74.726461 
L 273.183536 74.543277 
L 277.682629 74.54619 
L 279.482266 74.126186 
L 282.181722 74.040335 
L 283.981359 74.222662 
L 287.580633 73.837959 
L 288.480452 73.901019 
L 313.675372 74.163886 
L 315.475009 74.407902 
L 319.074284 73.976075 
L 320.873921 74.042391 
L 321.773739 74.105795 
L 324.473195 73.748166 
L 325.373014 73.653233 
L 328.972288 73.883027 
L 329.872107 73.545276 
L 348.768297 73.152176 
L 350.567934 73.111735 
L 354.167209 73.233572 
L 355.067027 72.96368 
L 355.966846 73.302802 
L 356.866664 72.93849 
L 358.666301 73.008577 
L 359.56612 73.200671 
L 360.465939 73.110022 
L 361.365757 72.900962 
L 362.265576 73.016973 
L 366.764669 72.750851 
L 367.664487 72.873202 
L 369.464124 72.457311 
L 373.063399 72.460567 
L 373.963217 73.130413 
L 374.863036 72.275841 
L 376.662673 72.265217 
L 377.562492 72.292292 
L 379.362129 72.686248 
L 380.261948 73.058956 
L 381.161766 72.082547 
L 382.061585 72.038508 
L 382.961403 72.247738 
L 383.861222 72.190161 
L 384.76104 72.280468 
L 386.560678 72.039193 
L 387.460496 72.48233 
L 388.360315 72.421669 
L 391.059771 72.650434 
L 391.959589 72.315425 
L 392.859408 71.853267 
L 395.558863 71.727318 
L 396.458682 71.851725 
L 399.158138 71.600683 
L 400.057956 71.425039 
L 402.757412 71.517059 
L 403.657231 71.620732 
L 404.557049 71.577378 
L 407.256505 71.21735 
L 409.955961 71.394879 
L 412.655417 71.107851 
L 413.555235 71.344671 
L 414.455054 71.164914 
L 417.154509 71.464966 
L 418.954147 70.926724 
L 421.653602 71.238428 
L 422.553421 71.574122 
L 423.45324 71.242026 
L 426.152695 71.329077 
L 429.75197 71.041706 
L 430.651788 70.813626 
L 432.451425 70.672083 
L 435.150881 70.99424 
L 436.950518 70.672083 
L 437.850337 70.713552 
L 440.549793 71.03965 
L 441.449611 71.280582 
L 442.34943 70.905304 
L 443.249248 70.826821 
L 444.149067 70.891252 
L 446.848523 71.624159 
L 447.748341 71.773585 
L 449.547979 71.81197 
L 452.247434 71.831847 
L 454.047071 72.058899 
L 454.94689 72.476846 
L 455.846709 72.216037 
L 457.646346 72.049303 
L 459.445983 72.108765 
L 461.24562 72.006463 
L 463.945076 71.56761 
L 466.644532 71.701614 
L 468.444169 71.322394 
L 472.043443 70.802659 
L 472.943262 70.750394 
L 475.642718 70.165714 
L 477.442355 70.014746 
L 479.241992 70.018002 
L 479.241992 70.018002 
" clip-path="url(#p408b26e254)" style="fill: none; stroke: #008000; stroke-width: 1.5; stroke-linecap: square"/>
   </g>
   <g id="line2d_30">
    <path d="M 73.42381 176.005533 
L 76.123266 176.481057 
L 77.922903 177.320207 
L 79.72254 177.613404 
L 89.620545 177.725644 
L 95.919275 177.82469 
L 102.218005 177.8725 
L 104.017642 177.952354 
L 105.817279 177.891692 
L 112.116009 178.051571 
L 120.214376 178.112233 
L 132.811837 178.204081 
L 142.709841 178.255661 
L 173.303673 178.533949 
L 221.893877 178.633681 
L 236.290974 178.705995 
L 243.489523 178.727929 
L 253.387527 178.730157 
L 256.986801 178.735469 
L 288.480452 178.792874 
L 420.753784 179.358362 
L 454.047071 179.415939 
L 456.746527 179.420395 
L 479.241992 179.491338 
L 479.241992 179.491338 
" clip-path="url(#p408b26e254)" style="fill: none; stroke: #ffa500; stroke-width: 1.5; stroke-linecap: square"/>
   </g>
   <g id="line2d_31">
    <path d="M 73.42381 49.006353 
L 76.123266 48.534427 
L 77.922903 47.496671 
L 79.72254 47.125677 
L 81.522177 47.062788 
L 82.421996 47.417845 
L 83.321814 47.324626 
L 84.221633 46.928099 
L 86.921089 46.708929 
L 94.119637 46.490788 
L 95.019456 46.571841 
L 95.919275 46.818771 
L 96.819093 46.42927 
L 98.61873 46.325254 
L 103.117823 46.301778 
L 104.017642 46.049536 
L 107.616916 46.063587 
L 109.416553 45.627476 
L 112.116009 45.237975 
L 113.015828 45.262993 
L 116.615102 44.919759 
L 118.414739 44.984019 
L 121.114195 45.122307 
L 122.913832 45.001327 
L 124.713469 45.204902 
L 125.613288 45.710586 
L 126.513107 45.979621 
L 127.412925 45.334279 
L 128.312744 45.121621 
L 130.112381 45.117166 
L 131.912018 45.515921 
L 132.811837 45.450461 
L 135.511292 45.670488 
L 139.110567 44.903309 
L 140.010385 44.978365 
L 141.810022 44.754226 
L 142.709841 44.730235 
L 150.808208 43.977108 
L 151.708027 44.032115 
L 154.407483 43.401681 
L 156.20712 43.499528 
L 157.106938 43.280872 
L 158.006757 44.040169 
L 158.906576 43.706359 
L 159.806394 44.237233 
L 161.606031 46.327139 
L 162.50585 44.552706 
L 163.405669 44.81026 
L 164.305487 44.404137 
L 166.105124 44.00127 
L 167.904761 42.911934 
L 168.80458 43.067872 
L 169.704399 42.966598 
L 170.604217 43.092719 
L 171.504036 42.925472 
L 175.10331 44.614739 
L 176.902947 44.75354 
L 178.702584 44.495643 
L 179.602403 44.662034 
L 181.40204 43.950205 
L 182.301859 43.771647 
L 183.201677 43.751256 
L 185.901133 43.528145 
L 186.800952 43.562245 
L 187.70077 44.872464 
L 188.600589 45.072955 
L 200.298231 43.390543 
L 203.897505 43.37135 
L 206.596961 43.334851 
L 209.296416 43.6762 
L 210.196235 43.240431 
L 211.995872 43.101116 
L 220.994058 43.159892 
L 221.893877 43.00721 
L 225.493151 42.854529 
L 227.292788 43.016807 
L 229.092425 42.702532 
L 232.6917 43.377519 
L 233.591518 44.446977 
L 234.491337 43.420188 
L 235.391155 46.182854 
L 238.090611 46.128704 
L 238.99043 46.227065 
L 241.689885 45.972938 
L 242.589704 45.864296 
L 243.489523 46.00978 
L 244.389341 45.806719 
L 245.28916 45.986989 
L 247.088797 45.857784 
L 248.888434 45.588235 
L 249.788253 45.512151 
L 251.58789 45.649753 
L 252.487708 45.907821 
L 254.287346 45.905593 
L 255.187164 45.58515 
L 256.086983 45.467426 
L 257.88662 45.572812 
L 258.786439 45.729778 
L 259.686257 45.642213 
L 260.586076 45.752912 
L 263.285531 45.362211 
L 264.18535 45.420131 
L 265.085169 45.292125 
L 265.984987 45.547108 
L 266.884806 45.231635 
L 274.983173 44.712242 
L 275.882992 44.923187 
L 277.682629 44.98539 
L 279.482266 44.466512 
L 282.181722 44.367123 
L 283.981359 44.568985 
L 288.480452 44.139557 
L 313.675372 45.228379 
L 314.575191 45.41002 
L 316.374828 45.291782 
L 318.174465 45.058047 
L 319.074284 44.937924 
L 320.873921 44.978536 
L 321.773739 45.064901 
L 324.473195 44.883431 
L 327.172651 45.062502 
L 329.872107 44.582694 
L 346.96866 44.70436 
L 349.668116 44.519977 
L 350.567934 44.577039 
L 351.467753 44.483991 
L 354.167209 44.627419 
L 355.067027 44.463942 
L 356.866664 44.565558 
L 357.766483 45.944321 
L 359.56612 44.581152 
L 360.465939 44.622107 
L 361.365757 44.311089 
L 364.965032 44.221467 
L 365.86485 44.359412 
L 366.764669 44.137501 
L 367.664487 44.275617 
L 368.564306 44.06176 
L 369.464124 44.262765 
L 373.063399 44.38563 
L 373.963217 45.325883 
L 374.863036 44.026802 
L 375.762855 43.884231 
L 377.562492 43.950376 
L 378.46231 44.113168 
L 379.362129 44.480564 
L 380.261948 44.34399 
L 381.161766 43.975909 
L 382.061585 44.001441 
L 382.961403 44.386144 
L 383.861222 44.171602 
L 384.76104 44.557676 
L 385.660859 44.584751 
L 386.560678 44.355128 
L 387.460496 44.30749 
L 388.360315 44.628105 
L 390.159952 44.758852 
L 391.059771 44.454688 
L 391.959589 44.320856 
L 392.859408 43.92947 
L 395.558863 43.643127 
L 396.458682 43.768563 
L 397.358501 43.751427 
L 398.258319 43.863325 
L 401.857594 43.482392 
L 404.557049 43.708758 
L 407.256505 45.944835 
L 408.156324 43.330053 
L 409.056142 43.20873 
L 409.955961 43.690765 
L 410.855779 43.293039 
L 411.755598 43.071299 
L 412.655417 43.063245 
L 414.455054 42.91519 
L 417.154509 43.115339 
L 418.054328 42.954432 
L 418.954147 42.928728 
L 419.853965 43.020748 
L 421.653602 43.025375 
L 422.553421 43.381289 
L 423.45324 43.107799 
L 424.353058 43.208216 
L 427.052514 42.863097 
L 428.852151 42.94158 
L 430.651788 42.617709 
L 431.551607 42.330853 
L 432.451425 42.212271 
L 433.351244 42.693793 
L 434.251063 42.333937 
L 435.150881 42.542653 
L 436.950518 42.243802 
L 441.449611 42.547452 
L 444.149067 42.567501 
L 445.048886 42.705617 
L 445.948704 43.082437 
L 447.748341 43.34856 
L 449.547979 43.201361 
L 453.147253 43.59686 
L 454.047071 43.766678 
L 454.94689 44.104943 
L 455.846709 43.747657 
L 461.24562 43.611597 
L 463.045257 43.365181 
L 465.744713 43.561903 
L 466.644532 43.815173 
L 467.54435 43.286527 
L 471.143625 42.721896 
L 472.943262 42.690023 
L 475.642718 42.154694 
L 476.542536 42.144413 
L 477.442355 41.992588 
L 479.241992 42.035085 
L 479.241992 42.035085 
" clip-path="url(#p408b26e254)" style="fill: none; stroke: #000000; stroke-width: 1.5; stroke-linecap: square"/>
   </g>
   <g id="line2d_32">
    <path d="M 73.42381 159.560628 
L 75.223447 159.885526 
L 76.123266 160.060656 
L 77.922903 160.933221 
L 79.72254 161.270286 
L 81.522177 161.32872 
L 82.421996 161.306615 
L 83.321814 161.50265 
L 84.221633 161.437191 
L 86.02127 161.593471 
L 97.718912 161.927795 
L 102.218005 162.086474 
L 104.017642 162.361678 
L 107.616916 162.097612 
L 108.516735 162.426624 
L 112.116009 162.60004 
L 113.015828 162.540064 
L 115.715284 162.707483 
L 122.913832 162.74501 
L 124.713469 162.724961 
L 125.613288 162.390981 
L 126.513107 162.434677 
L 127.412925 162.747924 
L 129.212562 162.849711 
L 130.112381 162.846113 
L 131.912018 162.623002 
L 132.811837 162.644593 
L 135.511292 162.586845 
L 139.110567 163.081219 
L 140.010385 163.032553 
L 150.808208 163.880785 
L 151.708027 163.878214 
L 154.407483 164.075107 
L 156.20712 163.913857 
L 157.106938 164.072022 
L 158.006757 163.353853 
L 158.906576 163.850797 
L 159.806394 163.783109 
L 161.606031 163.322494 
L 162.50585 163.559656 
L 163.405669 163.388467 
L 166.105124 163.779682 
L 167.004943 164.314154 
L 167.904761 164.501793 
L 170.604217 164.443188 
L 172.403854 164.515845 
L 173.303673 164.304558 
L 174.203492 164.348769 
L 175.10331 164.136968 
L 176.003129 164.145707 
L 176.902947 164.033295 
L 183.201677 164.174667 
L 185.901133 164.451413 
L 186.800952 164.359564 
L 187.70077 164.002107 
L 188.600589 163.917284 
L 200.298231 164.464951 
L 201.198049 164.364191 
L 206.596961 164.417313 
L 207.496779 164.403261 
L 210.196235 164.649848 
L 211.995872 164.633398 
L 226.392969 164.756434 
L 227.292788 164.685491 
L 229.092425 164.879471 
L 232.6917 164.711709 
L 233.591518 163.716622 
L 234.491337 164.797732 
L 235.391155 164.989998 
L 240.790067 165.125544 
L 241.689885 165.475461 
L 242.589704 165.505963 
L 243.489523 165.410858 
L 244.389341 165.549488 
L 245.28916 165.529439 
L 246.188978 165.29896 
L 247.088797 165.537664 
L 248.888434 165.613234 
L 249.788253 165.492083 
L 250.688071 165.788707 
L 251.58789 165.693602 
L 252.487708 165.202827 
L 257.88662 165.480601 
L 261.485894 165.242925 
L 262.385713 165.43759 
L 264.18535 165.489341 
L 265.085169 165.601068 
L 265.984987 165.412229 
L 267.784624 165.504421 
L 269.584262 165.591129 
L 270.48408 165.378471 
L 275.882992 165.584617 
L 276.78281 165.361335 
L 277.682629 165.313183 
L 279.482266 165.507505 
L 288.480452 165.948586 
L 319.974102 167.20534 
L 321.773739 167.085217 
L 324.473195 167.246809 
L 328.07247 167.193002 
L 328.972288 167.481229 
L 329.872107 167.418169 
L 346.96866 166.691603 
L 348.768297 166.831946 
L 350.567934 166.788764 
L 355.966846 166.933049 
L 356.866664 166.669497 
L 357.766483 165.324835 
L 359.56612 166.825949 
L 362.265576 167.000393 
L 366.764669 166.840514 
L 370.363943 166.819609 
L 371.263762 166.632655 
L 374.863036 166.759975 
L 375.762855 167.142622 
L 376.662673 167.13611 
L 377.562492 166.85508 
L 379.362129 166.896206 
L 381.161766 166.895692 
L 382.061585 166.793905 
L 382.961403 166.814639 
L 385.660859 166.535494 
L 386.560678 166.725703 
L 387.460496 166.787564 
L 388.360315 166.656645 
L 390.159952 166.692288 
L 391.959589 166.659216 
L 392.859408 166.869474 
L 395.558863 166.926366 
L 398.258319 166.8777 
L 400.957775 166.963722 
L 401.857594 167.47746 
L 402.757412 167.039463 
L 403.657231 166.948643 
L 404.557049 166.999022 
L 407.256505 164.391437 
L 408.156324 167.057628 
L 409.056142 167.321351 
L 409.955961 166.78705 
L 410.855779 167.15753 
L 413.555235 167.648991 
L 414.455054 168.742268 
L 415.354872 167.688918 
L 420.753784 167.653789 
L 421.653602 167.784365 
L 422.553421 167.632369 
L 423.45324 167.722333 
L 424.353058 168.050145 
L 427.052514 168.218934 
L 428.852151 168.06848 
L 429.75197 168.061626 
L 430.651788 168.297931 
L 432.451425 168.449071 
L 435.150881 168.336659 
L 441.449611 168.509561 
L 442.34943 168.28645 
L 443.249248 168.354823 
L 444.149067 168.135139 
L 445.048886 168.075849 
L 445.948704 167.808698 
L 447.748341 167.540006 
L 449.547979 167.603066 
L 454.047071 167.231901 
L 454.94689 167.390237 
L 458.546164 167.409087 
L 460.345802 167.261889 
L 461.24562 167.461009 
L 463.045257 167.422453 
L 467.54435 167.484143 
L 468.444169 167.5556 
L 469.343987 167.501621 
L 471.143625 167.656359 
L 472.043443 167.59724 
L 474.742899 167.701598 
L 479.241992 167.756434 
L 479.241992 167.756434 
" clip-path="url(#p408b26e254)" style="fill: none; stroke: #ff0000; stroke-width: 1.5; stroke-linecap: square"/>
   </g>
   <g id="patch_3">
    <path d="M 53.132901 182.359219 
L 53.132901 10.999219 
" style="fill: none; stroke: #000000; stroke-width: 0.8; stroke-linejoin: miter; stroke-linecap: square"/>
   </g>
   <g id="patch_4">
    <path d="M 499.532901 182.359219 
L 499.532901 10.999219 
" style="fill: none; stroke: #000000; stroke-width: 0.8; stroke-linejoin: miter; stroke-linecap: square"/>
   </g>
   <g id="patch_5">
    <path d="M 53.132901 182.359219 
L 499.532901 182.359219 
" style="fill: none; stroke: #000000; stroke-width: 0.8; stroke-linejoin: miter; stroke-linecap: square"/>
   </g>
   <g id="patch_6">
    <path d="M 53.132901 10.999219 
L 499.532901 10.999219 
" style="fill: none; stroke: #000000; stroke-width: 0.8; stroke-linejoin: miter; stroke-linecap: square"/>
   </g>
   <g id="legend_1">
    <g id="patch_7">
     <path d="M 206.889151 144.671469 
L 345.776651 144.671469 
Q 347.776651 144.671469 347.776651 142.671469 
L 347.776651 84.958969 
Q 347.776651 82.958969 345.776651 82.958969 
L 206.889151 82.958969 
Q 204.889151 82.958969 204.889151 84.958969 
L 204.889151 142.671469 
Q 204.889151 144.671469 206.889151 144.671469 
z
" style="fill: #ffffff; opacity: 0.8; stroke: #cccccc; stroke-linejoin: miter"/>
    </g>
    <g id="line2d_33">
     <path d="M 208.889151 91.057406 
L 218.889151 91.057406 
L 228.889151 91.057406 
" style="fill: none; stroke: #008000; stroke-width: 1.5; stroke-linecap: square"/>
    </g>
    <g id="text_24">
     <!-- HTTP -&gt; HTTPS -->
     <g transform="translate(236.889151 94.557406)scale(0.1 -0.1)">
      <defs>
       <path id="DejaVuSans-48" d="M 628 4666 
L 1259 4666 
L 1259 2753 
L 3553 2753 
L 3553 4666 
L 4184 4666 
L 4184 0 
L 3553 0 
L 3553 2222 
L 1259 2222 
L 1259 0 
L 628 0 
L 628 4666 
z
" transform="scale(0.015625)"/>
       <path id="DejaVuSans-54" d="M -19 4666 
L 3928 4666 
L 3928 4134 
L 2272 4134 
L 2272 0 
L 1638 0 
L 1638 4134 
L -19 4134 
L -19 4666 
z
" transform="scale(0.015625)"/>
       <path id="DejaVuSans-3e" d="M 678 3150 
L 678 3719 
L 4684 2266 
L 4684 1747 
L 678 294 
L 678 863 
L 3897 2003 
L 678 3150 
z
" transform="scale(0.015625)"/>
      </defs>
      <use xlink:href="#DejaVuSans-48"/>
      <use xlink:href="#DejaVuSans-54" x="75.195312"/>
      <use xlink:href="#DejaVuSans-54" x="134.529297"/>
      <use xlink:href="#DejaVuSans-50" x="195.613281"/>
      <use xlink:href="#DejaVuSans-20" x="255.916016"/>
      <use xlink:href="#DejaVuSans-2d" x="287.703125"/>
      <use xlink:href="#DejaVuSans-3e" x="323.787109"/>
      <use xlink:href="#DejaVuSans-20" x="407.576172"/>
      <use xlink:href="#DejaVuSans-48" x="439.363281"/>
      <use xlink:href="#DejaVuSans-54" x="514.558594"/>
      <use xlink:href="#DejaVuSans-54" x="573.892578"/>
      <use xlink:href="#DejaVuSans-50" x="634.976562"/>
      <use xlink:href="#DejaVuSans-53" x="695.279297"/>
     </g>
    </g>
    <g id="line2d_34">
     <path d="M 208.889151 105.735531 
L 218.889151 105.735531 
L 228.889151 105.735531 
" style="fill: none; stroke: #ffa500; stroke-width: 1.5; stroke-linecap: square"/>
    </g>
    <g id="text_25">
     <!-- HTTPS -&gt; HTTP -->
     <g transform="translate(236.889151 109.235531)scale(0.1 -0.1)">
      <use xlink:href="#DejaVuSans-48"/>
      <use xlink:href="#DejaVuSans-54" x="75.195312"/>
      <use xlink:href="#DejaVuSans-54" x="134.529297"/>
      <use xlink:href="#DejaVuSans-50" x="195.613281"/>
      <use xlink:href="#DejaVuSans-53" x="255.916016"/>
      <use xlink:href="#DejaVuSans-20" x="319.392578"/>
      <use xlink:href="#DejaVuSans-2d" x="351.179688"/>
      <use xlink:href="#DejaVuSans-3e" x="387.263672"/>
      <use xlink:href="#DejaVuSans-20" x="471.052734"/>
      <use xlink:href="#DejaVuSans-48" x="502.839844"/>
      <use xlink:href="#DejaVuSans-54" x="578.035156"/>
      <use xlink:href="#DejaVuSans-54" x="637.369141"/>
      <use xlink:href="#DejaVuSans-50" x="698.453125"/>
     </g>
    </g>
    <g id="line2d_35">
     <path d="M 208.889151 120.413656 
L 218.889151 120.413656 
L 228.889151 120.413656 
" style="fill: none; stroke: #000000; stroke-width: 1.5; stroke-linecap: square"/>
    </g>
    <g id="text_26">
     <!-- HTTPS Supported -->
     <g transform="translate(236.889151 123.913656)scale(0.1 -0.1)">
      <defs>
       <path id="DejaVuSans-64" d="M 2906 2969 
L 2906 4863 
L 3481 4863 
L 3481 0 
L 2906 0 
L 2906 525 
Q 2725 213 2448 61 
Q 2172 -91 1784 -91 
Q 1150 -91 751 415 
Q 353 922 353 1747 
Q 353 2572 751 3078 
Q 1150 3584 1784 3584 
Q 2172 3584 2448 3432 
Q 2725 3281 2906 2969 
z
M 947 1747 
Q 947 1113 1208 752 
Q 1469 391 1925 391 
Q 2381 391 2643 752 
Q 2906 1113 2906 1747 
Q 2906 2381 2643 2742 
Q 2381 3103 1925 3103 
Q 1469 3103 1208 2742 
Q 947 2381 947 1747 
z
" transform="scale(0.015625)"/>
      </defs>
      <use xlink:href="#DejaVuSans-48"/>
      <use xlink:href="#DejaVuSans-54" x="75.195312"/>
      <use xlink:href="#DejaVuSans-54" x="134.529297"/>
      <use xlink:href="#DejaVuSans-50" x="195.613281"/>
      <use xlink:href="#DejaVuSans-53" x="255.916016"/>
      <use xlink:href="#DejaVuSans-20" x="319.392578"/>
      <use xlink:href="#DejaVuSans-53" x="351.179688"/>
      <use xlink:href="#DejaVuSans-75" x="414.65625"/>
      <use xlink:href="#DejaVuSans-70" x="478.035156"/>
      <use xlink:href="#DejaVuSans-70" x="541.511719"/>
      <use xlink:href="#DejaVuSans-6f" x="604.988281"/>
      <use xlink:href="#DejaVuSans-72" x="666.169922"/>
      <use xlink:href="#DejaVuSans-74" x="707.283203"/>
      <use xlink:href="#DejaVuSans-65" x="746.492188"/>
      <use xlink:href="#DejaVuSans-64" x="808.015625"/>
     </g>
    </g>
    <g id="line2d_36">
     <path d="M 208.889151 135.091781 
L 218.889151 135.091781 
L 228.889151 135.091781 
" style="fill: none; stroke: #ff0000; stroke-width: 1.5; stroke-linecap: square"/>
    </g>
    <g id="text_27">
     <!-- Only HTTP Supported -->
     <g transform="translate(236.889151 138.591781)scale(0.1 -0.1)">
      <use xlink:href="#DejaVuSans-4f"/>
      <use xlink:href="#DejaVuSans-6e" x="78.710938"/>
      <use xlink:href="#DejaVuSans-6c" x="142.089844"/>
      <use xlink:href="#DejaVuSans-79" x="169.873047"/>
      <use xlink:href="#DejaVuSans-20" x="229.052734"/>
      <use xlink:href="#DejaVuSans-48" x="260.839844"/>
      <use xlink:href="#DejaVuSans-54" x="336.035156"/>
      <use xlink:href="#DejaVuSans-54" x="395.369141"/>
      <use xlink:href="#DejaVuSans-50" x="456.453125"/>
      <use xlink:href="#DejaVuSans-20" x="516.755859"/>
      <use xlink:href="#DejaVuSans-53" x="548.542969"/>
      <use xlink:href="#DejaVuSans-75" x="612.019531"/>
      <use xlink:href="#DejaVuSans-70" x="675.398438"/>
      <use xlink:href="#DejaVuSans-70" x="738.875"/>
      <use xlink:href="#DejaVuSans-6f" x="802.351562"/>
      <use xlink:href="#DejaVuSans-72" x="863.533203"/>
      <use xlink:href="#DejaVuSans-74" x="904.646484"/>
      <use xlink:href="#DejaVuSans-65" x="943.855469"/>
      <use xlink:href="#DejaVuSans-64" x="1005.378906"/>
     </g>
    </g>
   </g>
  </g>
 </g>
 <defs>
  <clipPath id="p408b26e254">
   <rect x="53.132901" y="10.999219" width="446.4" height="171.36"/>
  </clipPath>
 </defs>
</svg>
