<?xml version="1.0" encoding="utf-8" standalone="no"?>
<!DOCTYPE svg PUBLIC "-//W3C//DTD SVG 1.1//EN"
  "http://www.w3.org/Graphics/SVG/1.1/DTD/svg11.dtd">
<svg xmlns:xlink="http://www.w3.org/1999/xlink" width="519.653125pt" height="234.086815pt" viewBox="0 0 519.653125 234.086815" xmlns="http://www.w3.org/2000/svg" version="1.1">
 <metadata>
  <rdf:RDF xmlns:dc="http://purl.org/dc/elements/1.1/" xmlns:cc="http://creativecommons.org/ns#" xmlns:rdf="http://www.w3.org/1999/02/22-rdf-syntax-ns#">
   <cc:Work>
    <dc:type rdf:resource="http://purl.org/dc/dcmitype/StillImage"/>
    <dc:date>2022-02-13T11:02:53.888369</dc:date>
    <dc:format>image/svg+xml</dc:format>
    <dc:creator>
     <cc:Agent>
      <dc:title>Matplotlib v3.5.1, https://matplotlib.org/</dc:title>
     </cc:Agent>
    </dc:creator>
   </cc:Work>
  </rdf:RDF>
 </metadata>
 <defs>
  <style type="text/css">*{stroke-linejoin: round; stroke-linecap: butt}</style>
 </defs>
 <g id="figure_1">
  <g id="patch_1">
   <path d="M 0 234.086815 
L 519.653125 234.086815 
L 519.653125 0 
L 0 0 
z
" style="fill: #ffffff"/>
  </g>
  <g id="axes_1">
   <g id="patch_2">
    <path d="M 66.053125 178.56 
L 512.453125 178.56 
L 512.453125 7.2 
L 66.053125 7.2 
z
" style="fill: #ffffff"/>
   </g>
   <g id="matplotlib.axis_1">
    <g id="xtick_1">
     <g id="line2d_1">
      <defs>
       <path id="m1a1b4d8cdf" d="M 0 0 
L 0 3.5 
" style="stroke: #000000; stroke-width: 0.8"/>
      </defs>
      <g>
       <use xlink:href="#m1a1b4d8cdf" x="80.945123" y="178.56" style="stroke: #000000; stroke-width: 0.8"/>
      </g>
     </g>
     <g id="text_1">
      <!-- 2020-Nov-01 -->
      <g transform="translate(23.919443 224.463877)rotate(-30)scale(0.1 -0.1)">
       <defs>
        <path id="DejaVuSans-32" d="M 1228 531 
L 3431 531 
L 3431 0 
L 469 0 
L 469 531 
Q 828 903 1448 1529 
Q 2069 2156 2228 2338 
Q 2531 2678 2651 2914 
Q 2772 3150 2772 3378 
Q 2772 3750 2511 3984 
Q 2250 4219 1831 4219 
Q 1534 4219 1204 4116 
Q 875 4013 500 3803 
L 500 4441 
Q 881 4594 1212 4672 
Q 1544 4750 1819 4750 
Q 2544 4750 2975 4387 
Q 3406 4025 3406 3419 
Q 3406 3131 3298 2873 
Q 3191 2616 2906 2266 
Q 2828 2175 2409 1742 
Q 1991 1309 1228 531 
z
" transform="scale(0.015625)"/>
        <path id="DejaVuSans-30" d="M 2034 4250 
Q 1547 4250 1301 3770 
Q 1056 3291 1056 2328 
Q 1056 1369 1301 889 
Q 1547 409 2034 409 
Q 2525 409 2770 889 
Q 3016 1369 3016 2328 
Q 3016 3291 2770 3770 
Q 2525 4250 2034 4250 
z
M 2034 4750 
Q 2819 4750 3233 4129 
Q 3647 3509 3647 2328 
Q 3647 1150 3233 529 
Q 2819 -91 2034 -91 
Q 1250 -91 836 529 
Q 422 1150 422 2328 
Q 422 3509 836 4129 
Q 1250 4750 2034 4750 
z
" transform="scale(0.015625)"/>
        <path id="DejaVuSans-2d" d="M 313 2009 
L 1997 2009 
L 1997 1497 
L 313 1497 
L 313 2009 
z
" transform="scale(0.015625)"/>
        <path id="DejaVuSans-4e" d="M 628 4666 
L 1478 4666 
L 3547 763 
L 3547 4666 
L 4159 4666 
L 4159 0 
L 3309 0 
L 1241 3903 
L 1241 0 
L 628 0 
L 628 4666 
z
" transform="scale(0.015625)"/>
        <path id="DejaVuSans-6f" d="M 1959 3097 
Q 1497 3097 1228 2736 
Q 959 2375 959 1747 
Q 959 1119 1226 758 
Q 1494 397 1959 397 
Q 2419 397 2687 759 
Q 2956 1122 2956 1747 
Q 2956 2369 2687 2733 
Q 2419 3097 1959 3097 
z
M 1959 3584 
Q 2709 3584 3137 3096 
Q 3566 2609 3566 1747 
Q 3566 888 3137 398 
Q 2709 -91 1959 -91 
Q 1206 -91 779 398 
Q 353 888 353 1747 
Q 353 2609 779 3096 
Q 1206 3584 1959 3584 
z
" transform="scale(0.015625)"/>
        <path id="DejaVuSans-76" d="M 191 3500 
L 800 3500 
L 1894 563 
L 2988 3500 
L 3597 3500 
L 2284 0 
L 1503 0 
L 191 3500 
z
" transform="scale(0.015625)"/>
        <path id="DejaVuSans-31" d="M 794 531 
L 1825 531 
L 1825 4091 
L 703 3866 
L 703 4441 
L 1819 4666 
L 2450 4666 
L 2450 531 
L 3481 531 
L 3481 0 
L 794 0 
L 794 531 
z
" transform="scale(0.015625)"/>
       </defs>
       <use xlink:href="#DejaVuSans-32"/>
       <use xlink:href="#DejaVuSans-30" x="63.623047"/>
       <use xlink:href="#DejaVuSans-32" x="127.246094"/>
       <use xlink:href="#DejaVuSans-30" x="190.869141"/>
       <use xlink:href="#DejaVuSans-2d" x="254.492188"/>
       <use xlink:href="#DejaVuSans-4e" x="290.576172"/>
       <use xlink:href="#DejaVuSans-6f" x="365.380859"/>
       <use xlink:href="#DejaVuSans-76" x="426.5625"/>
       <use xlink:href="#DejaVuSans-2d" x="483.117188"/>
       <use xlink:href="#DejaVuSans-30" x="519.201172"/>
       <use xlink:href="#DejaVuSans-31" x="582.824219"/>
      </g>
     </g>
    </g>
    <g id="xtick_2">
     <g id="line2d_2">
      <g>
       <use xlink:href="#m1a1b4d8cdf" x="107.93968" y="178.56" style="stroke: #000000; stroke-width: 0.8"/>
      </g>
     </g>
     <g id="text_2">
      <!-- 2020-Dec-01 -->
      <g transform="translate(50.831457 224.511534)rotate(-30)scale(0.1 -0.1)">
       <defs>
        <path id="DejaVuSans-44" d="M 1259 4147 
L 1259 519 
L 2022 519 
Q 2988 519 3436 956 
Q 3884 1394 3884 2338 
Q 3884 3275 3436 3711 
Q 2988 4147 2022 4147 
L 1259 4147 
z
M 628 4666 
L 1925 4666 
Q 3281 4666 3915 4102 
Q 4550 3538 4550 2338 
Q 4550 1131 3912 565 
Q 3275 0 1925 0 
L 628 0 
L 628 4666 
z
" transform="scale(0.015625)"/>
        <path id="DejaVuSans-65" d="M 3597 1894 
L 3597 1613 
L 953 1613 
Q 991 1019 1311 708 
Q 1631 397 2203 397 
Q 2534 397 2845 478 
Q 3156 559 3463 722 
L 3463 178 
Q 3153 47 2828 -22 
Q 2503 -91 2169 -91 
Q 1331 -91 842 396 
Q 353 884 353 1716 
Q 353 2575 817 3079 
Q 1281 3584 2069 3584 
Q 2775 3584 3186 3129 
Q 3597 2675 3597 1894 
z
M 3022 2063 
Q 3016 2534 2758 2815 
Q 2500 3097 2075 3097 
Q 1594 3097 1305 2825 
Q 1016 2553 972 2059 
L 3022 2063 
z
" transform="scale(0.015625)"/>
        <path id="DejaVuSans-63" d="M 3122 3366 
L 3122 2828 
Q 2878 2963 2633 3030 
Q 2388 3097 2138 3097 
Q 1578 3097 1268 2742 
Q 959 2388 959 1747 
Q 959 1106 1268 751 
Q 1578 397 2138 397 
Q 2388 397 2633 464 
Q 2878 531 3122 666 
L 3122 134 
Q 2881 22 2623 -34 
Q 2366 -91 2075 -91 
Q 1284 -91 818 406 
Q 353 903 353 1747 
Q 353 2603 823 3093 
Q 1294 3584 2113 3584 
Q 2378 3584 2631 3529 
Q 2884 3475 3122 3366 
z
" transform="scale(0.015625)"/>
       </defs>
       <use xlink:href="#DejaVuSans-32"/>
       <use xlink:href="#DejaVuSans-30" x="63.623047"/>
       <use xlink:href="#DejaVuSans-32" x="127.246094"/>
       <use xlink:href="#DejaVuSans-30" x="190.869141"/>
       <use xlink:href="#DejaVuSans-2d" x="254.492188"/>
       <use xlink:href="#DejaVuSans-44" x="290.576172"/>
       <use xlink:href="#DejaVuSans-65" x="367.578125"/>
       <use xlink:href="#DejaVuSans-63" x="429.101562"/>
       <use xlink:href="#DejaVuSans-2d" x="484.082031"/>
       <use xlink:href="#DejaVuSans-30" x="520.166016"/>
       <use xlink:href="#DejaVuSans-31" x="583.789062"/>
      </g>
     </g>
    </g>
    <g id="xtick_3">
     <g id="line2d_3">
      <g>
       <use xlink:href="#m1a1b4d8cdf" x="135.834056" y="178.56" style="stroke: #000000; stroke-width: 0.8"/>
      </g>
     </g>
     <g id="text_3">
      <!-- 2021-Jan-01 -->
      <g transform="translate(81.647316 222.824815)rotate(-30)scale(0.1 -0.1)">
       <defs>
        <path id="DejaVuSans-4a" d="M 628 4666 
L 1259 4666 
L 1259 325 
Q 1259 -519 939 -900 
Q 619 -1281 -91 -1281 
L -331 -1281 
L -331 -750 
L -134 -750 
Q 284 -750 456 -515 
Q 628 -281 628 325 
L 628 4666 
z
" transform="scale(0.015625)"/>
        <path id="DejaVuSans-61" d="M 2194 1759 
Q 1497 1759 1228 1600 
Q 959 1441 959 1056 
Q 959 750 1161 570 
Q 1363 391 1709 391 
Q 2188 391 2477 730 
Q 2766 1069 2766 1631 
L 2766 1759 
L 2194 1759 
z
M 3341 1997 
L 3341 0 
L 2766 0 
L 2766 531 
Q 2569 213 2275 61 
Q 1981 -91 1556 -91 
Q 1019 -91 701 211 
Q 384 513 384 1019 
Q 384 1609 779 1909 
Q 1175 2209 1959 2209 
L 2766 2209 
L 2766 2266 
Q 2766 2663 2505 2880 
Q 2244 3097 1772 3097 
Q 1472 3097 1187 3025 
Q 903 2953 641 2809 
L 641 3341 
Q 956 3463 1253 3523 
Q 1550 3584 1831 3584 
Q 2591 3584 2966 3190 
Q 3341 2797 3341 1997 
z
" transform="scale(0.015625)"/>
        <path id="DejaVuSans-6e" d="M 3513 2113 
L 3513 0 
L 2938 0 
L 2938 2094 
Q 2938 2591 2744 2837 
Q 2550 3084 2163 3084 
Q 1697 3084 1428 2787 
Q 1159 2491 1159 1978 
L 1159 0 
L 581 0 
L 581 3500 
L 1159 3500 
L 1159 2956 
Q 1366 3272 1645 3428 
Q 1925 3584 2291 3584 
Q 2894 3584 3203 3211 
Q 3513 2838 3513 2113 
z
" transform="scale(0.015625)"/>
       </defs>
       <use xlink:href="#DejaVuSans-32"/>
       <use xlink:href="#DejaVuSans-30" x="63.623047"/>
       <use xlink:href="#DejaVuSans-32" x="127.246094"/>
       <use xlink:href="#DejaVuSans-31" x="190.869141"/>
       <use xlink:href="#DejaVuSans-2d" x="254.492188"/>
       <use xlink:href="#DejaVuSans-4a" x="296.201172"/>
       <use xlink:href="#DejaVuSans-61" x="325.693359"/>
       <use xlink:href="#DejaVuSans-6e" x="386.972656"/>
       <use xlink:href="#DejaVuSans-2d" x="450.351562"/>
       <use xlink:href="#DejaVuSans-30" x="486.435547"/>
       <use xlink:href="#DejaVuSans-31" x="550.058594"/>
      </g>
     </g>
    </g>
    <g id="xtick_4">
     <g id="line2d_4">
      <g>
       <use xlink:href="#m1a1b4d8cdf" x="163.728432" y="178.56" style="stroke: #000000; stroke-width: 0.8"/>
      </g>
     </g>
     <g id="text_4">
      <!-- 2021-Feb-01 -->
      <g transform="translate(108.047798 223.687315)rotate(-30)scale(0.1 -0.1)">
       <defs>
        <path id="DejaVuSans-46" d="M 628 4666 
L 3309 4666 
L 3309 4134 
L 1259 4134 
L 1259 2759 
L 3109 2759 
L 3109 2228 
L 1259 2228 
L 1259 0 
L 628 0 
L 628 4666 
z
" transform="scale(0.015625)"/>
        <path id="DejaVuSans-62" d="M 3116 1747 
Q 3116 2381 2855 2742 
Q 2594 3103 2138 3103 
Q 1681 3103 1420 2742 
Q 1159 2381 1159 1747 
Q 1159 1113 1420 752 
Q 1681 391 2138 391 
Q 2594 391 2855 752 
Q 3116 1113 3116 1747 
z
M 1159 2969 
Q 1341 3281 1617 3432 
Q 1894 3584 2278 3584 
Q 2916 3584 3314 3078 
Q 3713 2572 3713 1747 
Q 3713 922 3314 415 
Q 2916 -91 2278 -91 
Q 1894 -91 1617 61 
Q 1341 213 1159 525 
L 1159 0 
L 581 0 
L 581 4863 
L 1159 4863 
L 1159 2969 
z
" transform="scale(0.015625)"/>
       </defs>
       <use xlink:href="#DejaVuSans-32"/>
       <use xlink:href="#DejaVuSans-30" x="63.623047"/>
       <use xlink:href="#DejaVuSans-32" x="127.246094"/>
       <use xlink:href="#DejaVuSans-31" x="190.869141"/>
       <use xlink:href="#DejaVuSans-2d" x="254.492188"/>
       <use xlink:href="#DejaVuSans-46" x="290.576172"/>
       <use xlink:href="#DejaVuSans-65" x="342.595703"/>
       <use xlink:href="#DejaVuSans-62" x="404.119141"/>
       <use xlink:href="#DejaVuSans-2d" x="467.595703"/>
       <use xlink:href="#DejaVuSans-30" x="503.679688"/>
       <use xlink:href="#DejaVuSans-31" x="567.302734"/>
      </g>
     </g>
    </g>
    <g id="xtick_5">
     <g id="line2d_5">
      <g>
       <use xlink:href="#m1a1b4d8cdf" x="188.923353" y="178.56" style="stroke: #000000; stroke-width: 0.8"/>
      </g>
     </g>
     <g id="text_5">
      <!-- 2021-Mar-01 -->
      <g transform="translate(132.786702 223.950596)rotate(-30)scale(0.1 -0.1)">
       <defs>
        <path id="DejaVuSans-4d" d="M 628 4666 
L 1569 4666 
L 2759 1491 
L 3956 4666 
L 4897 4666 
L 4897 0 
L 4281 0 
L 4281 4097 
L 3078 897 
L 2444 897 
L 1241 4097 
L 1241 0 
L 628 0 
L 628 4666 
z
" transform="scale(0.015625)"/>
        <path id="DejaVuSans-72" d="M 2631 2963 
Q 2534 3019 2420 3045 
Q 2306 3072 2169 3072 
Q 1681 3072 1420 2755 
Q 1159 2438 1159 1844 
L 1159 0 
L 581 0 
L 581 3500 
L 1159 3500 
L 1159 2956 
Q 1341 3275 1631 3429 
Q 1922 3584 2338 3584 
Q 2397 3584 2469 3576 
Q 2541 3569 2628 3553 
L 2631 2963 
z
" transform="scale(0.015625)"/>
       </defs>
       <use xlink:href="#DejaVuSans-32"/>
       <use xlink:href="#DejaVuSans-30" x="63.623047"/>
       <use xlink:href="#DejaVuSans-32" x="127.246094"/>
       <use xlink:href="#DejaVuSans-31" x="190.869141"/>
       <use xlink:href="#DejaVuSans-2d" x="254.492188"/>
       <use xlink:href="#DejaVuSans-4d" x="290.576172"/>
       <use xlink:href="#DejaVuSans-61" x="376.855469"/>
       <use xlink:href="#DejaVuSans-72" x="438.134766"/>
       <use xlink:href="#DejaVuSans-2d" x="472.873047"/>
       <use xlink:href="#DejaVuSans-30" x="508.957031"/>
       <use xlink:href="#DejaVuSans-31" x="572.580078"/>
      </g>
     </g>
    </g>
    <g id="xtick_6">
     <g id="line2d_6">
      <g>
       <use xlink:href="#m1a1b4d8cdf" x="216.817729" y="178.56" style="stroke: #000000; stroke-width: 0.8"/>
      </g>
     </g>
     <g id="text_6">
      <!-- 2021-Apr-01 -->
      <g transform="translate(162.233158 223.054502)rotate(-30)scale(0.1 -0.1)">
       <defs>
        <path id="DejaVuSans-41" d="M 2188 4044 
L 1331 1722 
L 3047 1722 
L 2188 4044 
z
M 1831 4666 
L 2547 4666 
L 4325 0 
L 3669 0 
L 3244 1197 
L 1141 1197 
L 716 0 
L 50 0 
L 1831 4666 
z
" transform="scale(0.015625)"/>
        <path id="DejaVuSans-70" d="M 1159 525 
L 1159 -1331 
L 581 -1331 
L 581 3500 
L 1159 3500 
L 1159 2969 
Q 1341 3281 1617 3432 
Q 1894 3584 2278 3584 
Q 2916 3584 3314 3078 
Q 3713 2572 3713 1747 
Q 3713 922 3314 415 
Q 2916 -91 2278 -91 
Q 1894 -91 1617 61 
Q 1341 213 1159 525 
z
M 3116 1747 
Q 3116 2381 2855 2742 
Q 2594 3103 2138 3103 
Q 1681 3103 1420 2742 
Q 1159 2381 1159 1747 
Q 1159 1113 1420 752 
Q 1681 391 2138 391 
Q 2594 391 2855 752 
Q 3116 1113 3116 1747 
z
" transform="scale(0.015625)"/>
       </defs>
       <use xlink:href="#DejaVuSans-32"/>
       <use xlink:href="#DejaVuSans-30" x="63.623047"/>
       <use xlink:href="#DejaVuSans-32" x="127.246094"/>
       <use xlink:href="#DejaVuSans-31" x="190.869141"/>
       <use xlink:href="#DejaVuSans-2d" x="254.492188"/>
       <use xlink:href="#DejaVuSans-41" x="288.326172"/>
       <use xlink:href="#DejaVuSans-70" x="356.734375"/>
       <use xlink:href="#DejaVuSans-72" x="420.210938"/>
       <use xlink:href="#DejaVuSans-2d" x="454.949219"/>
       <use xlink:href="#DejaVuSans-30" x="491.033203"/>
       <use xlink:href="#DejaVuSans-31" x="554.65625"/>
      </g>
     </g>
    </g>
    <g id="xtick_7">
     <g id="line2d_7">
      <g>
       <use xlink:href="#m1a1b4d8cdf" x="243.812286" y="178.56" style="stroke: #000000; stroke-width: 0.8"/>
      </g>
     </g>
     <g id="text_7">
      <!-- 2021-May-01 -->
      <g transform="translate(185.709488 225.085752)rotate(-30)scale(0.1 -0.1)">
       <defs>
        <path id="DejaVuSans-79" d="M 2059 -325 
Q 1816 -950 1584 -1140 
Q 1353 -1331 966 -1331 
L 506 -1331 
L 506 -850 
L 844 -850 
Q 1081 -850 1212 -737 
Q 1344 -625 1503 -206 
L 1606 56 
L 191 3500 
L 800 3500 
L 1894 763 
L 2988 3500 
L 3597 3500 
L 2059 -325 
z
" transform="scale(0.015625)"/>
       </defs>
       <use xlink:href="#DejaVuSans-32"/>
       <use xlink:href="#DejaVuSans-30" x="63.623047"/>
       <use xlink:href="#DejaVuSans-32" x="127.246094"/>
       <use xlink:href="#DejaVuSans-31" x="190.869141"/>
       <use xlink:href="#DejaVuSans-2d" x="254.492188"/>
       <use xlink:href="#DejaVuSans-4d" x="290.576172"/>
       <use xlink:href="#DejaVuSans-61" x="376.855469"/>
       <use xlink:href="#DejaVuSans-79" x="438.134766"/>
       <use xlink:href="#DejaVuSans-2d" x="495.564453"/>
       <use xlink:href="#DejaVuSans-30" x="531.648438"/>
       <use xlink:href="#DejaVuSans-31" x="595.271484"/>
      </g>
     </g>
    </g>
    <g id="xtick_8">
     <g id="line2d_8">
      <g>
       <use xlink:href="#m1a1b4d8cdf" x="271.706663" y="178.56" style="stroke: #000000; stroke-width: 0.8"/>
      </g>
     </g>
     <g id="text_8">
      <!-- 2021-Jun-01 -->
      <g transform="translate(217.338598 222.929502)rotate(-30)scale(0.1 -0.1)">
       <defs>
        <path id="DejaVuSans-75" d="M 544 1381 
L 544 3500 
L 1119 3500 
L 1119 1403 
Q 1119 906 1312 657 
Q 1506 409 1894 409 
Q 2359 409 2629 706 
Q 2900 1003 2900 1516 
L 2900 3500 
L 3475 3500 
L 3475 0 
L 2900 0 
L 2900 538 
Q 2691 219 2414 64 
Q 2138 -91 1772 -91 
Q 1169 -91 856 284 
Q 544 659 544 1381 
z
M 1991 3584 
L 1991 3584 
z
" transform="scale(0.015625)"/>
       </defs>
       <use xlink:href="#DejaVuSans-32"/>
       <use xlink:href="#DejaVuSans-30" x="63.623047"/>
       <use xlink:href="#DejaVuSans-32" x="127.246094"/>
       <use xlink:href="#DejaVuSans-31" x="190.869141"/>
       <use xlink:href="#DejaVuSans-2d" x="254.492188"/>
       <use xlink:href="#DejaVuSans-4a" x="296.201172"/>
       <use xlink:href="#DejaVuSans-75" x="325.693359"/>
       <use xlink:href="#DejaVuSans-6e" x="389.072266"/>
       <use xlink:href="#DejaVuSans-2d" x="452.451172"/>
       <use xlink:href="#DejaVuSans-30" x="488.535156"/>
       <use xlink:href="#DejaVuSans-31" x="552.158203"/>
      </g>
     </g>
    </g>
    <g id="xtick_9">
     <g id="line2d_9">
      <g>
       <use xlink:href="#m1a1b4d8cdf" x="298.70122" y="178.56" style="stroke: #000000; stroke-width: 0.8"/>
      </g>
     </g>
     <g id="text_9">
      <!-- 2021-Jul-01 -->
      <g transform="translate(247.415665 221.149815)rotate(-30)scale(0.1 -0.1)">
       <defs>
        <path id="DejaVuSans-6c" d="M 603 4863 
L 1178 4863 
L 1178 0 
L 603 0 
L 603 4863 
z
" transform="scale(0.015625)"/>
       </defs>
       <use xlink:href="#DejaVuSans-32"/>
       <use xlink:href="#DejaVuSans-30" x="63.623047"/>
       <use xlink:href="#DejaVuSans-32" x="127.246094"/>
       <use xlink:href="#DejaVuSans-31" x="190.869141"/>
       <use xlink:href="#DejaVuSans-2d" x="254.492188"/>
       <use xlink:href="#DejaVuSans-4a" x="296.201172"/>
       <use xlink:href="#DejaVuSans-75" x="325.693359"/>
       <use xlink:href="#DejaVuSans-6c" x="389.072266"/>
       <use xlink:href="#DejaVuSans-2d" x="416.855469"/>
       <use xlink:href="#DejaVuSans-30" x="452.939453"/>
       <use xlink:href="#DejaVuSans-31" x="516.5625"/>
      </g>
     </g>
    </g>
    <g id="xtick_10">
     <g id="line2d_10">
      <g>
       <use xlink:href="#m1a1b4d8cdf" x="326.595596" y="178.56" style="stroke: #000000; stroke-width: 0.8"/>
      </g>
     </g>
     <g id="text_10">
      <!-- 2021-Aug-01 -->
      <g transform="translate(269.530675 224.486534)rotate(-30)scale(0.1 -0.1)">
       <defs>
        <path id="DejaVuSans-67" d="M 2906 1791 
Q 2906 2416 2648 2759 
Q 2391 3103 1925 3103 
Q 1463 3103 1205 2759 
Q 947 2416 947 1791 
Q 947 1169 1205 825 
Q 1463 481 1925 481 
Q 2391 481 2648 825 
Q 2906 1169 2906 1791 
z
M 3481 434 
Q 3481 -459 3084 -895 
Q 2688 -1331 1869 -1331 
Q 1566 -1331 1297 -1286 
Q 1028 -1241 775 -1147 
L 775 -588 
Q 1028 -725 1275 -790 
Q 1522 -856 1778 -856 
Q 2344 -856 2625 -561 
Q 2906 -266 2906 331 
L 2906 616 
Q 2728 306 2450 153 
Q 2172 0 1784 0 
Q 1141 0 747 490 
Q 353 981 353 1791 
Q 353 2603 747 3093 
Q 1141 3584 1784 3584 
Q 2172 3584 2450 3431 
Q 2728 3278 2906 2969 
L 2906 3500 
L 3481 3500 
L 3481 434 
z
" transform="scale(0.015625)"/>
       </defs>
       <use xlink:href="#DejaVuSans-32"/>
       <use xlink:href="#DejaVuSans-30" x="63.623047"/>
       <use xlink:href="#DejaVuSans-32" x="127.246094"/>
       <use xlink:href="#DejaVuSans-31" x="190.869141"/>
       <use xlink:href="#DejaVuSans-2d" x="254.492188"/>
       <use xlink:href="#DejaVuSans-41" x="288.326172"/>
       <use xlink:href="#DejaVuSans-75" x="356.734375"/>
       <use xlink:href="#DejaVuSans-67" x="420.113281"/>
       <use xlink:href="#DejaVuSans-2d" x="483.589844"/>
       <use xlink:href="#DejaVuSans-30" x="519.673828"/>
       <use xlink:href="#DejaVuSans-31" x="583.296875"/>
      </g>
     </g>
    </g>
    <g id="xtick_11">
     <g id="line2d_11">
      <g>
       <use xlink:href="#m1a1b4d8cdf" x="354.489972" y="178.56" style="stroke: #000000; stroke-width: 0.8"/>
      </g>
     </g>
     <g id="text_11">
      <!-- 2021-Sep-01 -->
      <g transform="translate(297.816115 224.260752)rotate(-30)scale(0.1 -0.1)">
       <defs>
        <path id="DejaVuSans-53" d="M 3425 4513 
L 3425 3897 
Q 3066 4069 2747 4153 
Q 2428 4238 2131 4238 
Q 1616 4238 1336 4038 
Q 1056 3838 1056 3469 
Q 1056 3159 1242 3001 
Q 1428 2844 1947 2747 
L 2328 2669 
Q 3034 2534 3370 2195 
Q 3706 1856 3706 1288 
Q 3706 609 3251 259 
Q 2797 -91 1919 -91 
Q 1588 -91 1214 -16 
Q 841 59 441 206 
L 441 856 
Q 825 641 1194 531 
Q 1563 422 1919 422 
Q 2459 422 2753 634 
Q 3047 847 3047 1241 
Q 3047 1584 2836 1778 
Q 2625 1972 2144 2069 
L 1759 2144 
Q 1053 2284 737 2584 
Q 422 2884 422 3419 
Q 422 4038 858 4394 
Q 1294 4750 2059 4750 
Q 2388 4750 2728 4690 
Q 3069 4631 3425 4513 
z
" transform="scale(0.015625)"/>
       </defs>
       <use xlink:href="#DejaVuSans-32"/>
       <use xlink:href="#DejaVuSans-30" x="63.623047"/>
       <use xlink:href="#DejaVuSans-32" x="127.246094"/>
       <use xlink:href="#DejaVuSans-31" x="190.869141"/>
       <use xlink:href="#DejaVuSans-2d" x="254.492188"/>
       <use xlink:href="#DejaVuSans-53" x="290.576172"/>
       <use xlink:href="#DejaVuSans-65" x="354.052734"/>
       <use xlink:href="#DejaVuSans-70" x="415.576172"/>
       <use xlink:href="#DejaVuSans-2d" x="479.052734"/>
       <use xlink:href="#DejaVuSans-30" x="515.136719"/>
       <use xlink:href="#DejaVuSans-31" x="578.759766"/>
      </g>
     </g>
    </g>
    <g id="xtick_12">
     <g id="line2d_12">
      <g>
       <use xlink:href="#m1a1b4d8cdf" x="381.48453" y="178.56" style="stroke: #000000; stroke-width: 0.8"/>
      </g>
     </g>
     <g id="text_12">
      <!-- 2021-Oct-01 -->
      <g transform="translate(325.922974 223.618565)rotate(-30)scale(0.1 -0.1)">
       <defs>
        <path id="DejaVuSans-4f" d="M 2522 4238 
Q 1834 4238 1429 3725 
Q 1025 3213 1025 2328 
Q 1025 1447 1429 934 
Q 1834 422 2522 422 
Q 3209 422 3611 934 
Q 4013 1447 4013 2328 
Q 4013 3213 3611 3725 
Q 3209 4238 2522 4238 
z
M 2522 4750 
Q 3503 4750 4090 4092 
Q 4678 3434 4678 2328 
Q 4678 1225 4090 567 
Q 3503 -91 2522 -91 
Q 1538 -91 948 565 
Q 359 1222 359 2328 
Q 359 3434 948 4092 
Q 1538 4750 2522 4750 
z
" transform="scale(0.015625)"/>
        <path id="DejaVuSans-74" d="M 1172 4494 
L 1172 3500 
L 2356 3500 
L 2356 3053 
L 1172 3053 
L 1172 1153 
Q 1172 725 1289 603 
Q 1406 481 1766 481 
L 2356 481 
L 2356 0 
L 1766 0 
Q 1100 0 847 248 
Q 594 497 594 1153 
L 594 3053 
L 172 3053 
L 172 3500 
L 594 3500 
L 594 4494 
L 1172 4494 
z
" transform="scale(0.015625)"/>
       </defs>
       <use xlink:href="#DejaVuSans-32"/>
       <use xlink:href="#DejaVuSans-30" x="63.623047"/>
       <use xlink:href="#DejaVuSans-32" x="127.246094"/>
       <use xlink:href="#DejaVuSans-31" x="190.869141"/>
       <use xlink:href="#DejaVuSans-2d" x="254.492188"/>
       <use xlink:href="#DejaVuSans-4f" x="293.326172"/>
       <use xlink:href="#DejaVuSans-63" x="372.037109"/>
       <use xlink:href="#DejaVuSans-74" x="427.017578"/>
       <use xlink:href="#DejaVuSans-2d" x="466.226562"/>
       <use xlink:href="#DejaVuSans-30" x="502.310547"/>
       <use xlink:href="#DejaVuSans-31" x="565.933594"/>
      </g>
     </g>
    </g>
    <g id="xtick_13">
     <g id="line2d_13">
      <g>
       <use xlink:href="#m1a1b4d8cdf" x="409.378906" y="178.56" style="stroke: #000000; stroke-width: 0.8"/>
      </g>
     </g>
     <g id="text_13">
      <!-- 2021-Nov-01 -->
      <g transform="translate(352.353226 224.463877)rotate(-30)scale(0.1 -0.1)">
       <use xlink:href="#DejaVuSans-32"/>
       <use xlink:href="#DejaVuSans-30" x="63.623047"/>
       <use xlink:href="#DejaVuSans-32" x="127.246094"/>
       <use xlink:href="#DejaVuSans-31" x="190.869141"/>
       <use xlink:href="#DejaVuSans-2d" x="254.492188"/>
       <use xlink:href="#DejaVuSans-4e" x="290.576172"/>
       <use xlink:href="#DejaVuSans-6f" x="365.380859"/>
       <use xlink:href="#DejaVuSans-76" x="426.5625"/>
       <use xlink:href="#DejaVuSans-2d" x="483.117188"/>
       <use xlink:href="#DejaVuSans-30" x="519.201172"/>
       <use xlink:href="#DejaVuSans-31" x="582.824219"/>
      </g>
     </g>
    </g>
    <g id="xtick_14">
     <g id="line2d_14">
      <g>
       <use xlink:href="#m1a1b4d8cdf" x="436.373464" y="178.56" style="stroke: #000000; stroke-width: 0.8"/>
      </g>
     </g>
     <g id="text_14">
      <!-- 2021-Dec-01 -->
      <g transform="translate(379.265241 224.511534)rotate(-30)scale(0.1 -0.1)">
       <use xlink:href="#DejaVuSans-32"/>
       <use xlink:href="#DejaVuSans-30" x="63.623047"/>
       <use xlink:href="#DejaVuSans-32" x="127.246094"/>
       <use xlink:href="#DejaVuSans-31" x="190.869141"/>
       <use xlink:href="#DejaVuSans-2d" x="254.492188"/>
       <use xlink:href="#DejaVuSans-44" x="290.576172"/>
       <use xlink:href="#DejaVuSans-65" x="367.578125"/>
       <use xlink:href="#DejaVuSans-63" x="429.101562"/>
       <use xlink:href="#DejaVuSans-2d" x="484.082031"/>
       <use xlink:href="#DejaVuSans-30" x="520.166016"/>
       <use xlink:href="#DejaVuSans-31" x="583.789062"/>
      </g>
     </g>
    </g>
    <g id="xtick_15">
     <g id="line2d_15">
      <g>
       <use xlink:href="#m1a1b4d8cdf" x="464.26784" y="178.56" style="stroke: #000000; stroke-width: 0.8"/>
      </g>
     </g>
     <g id="text_15">
      <!-- 2022-Jan-01 -->
      <g transform="translate(410.0811 222.824815)rotate(-30)scale(0.1 -0.1)">
       <use xlink:href="#DejaVuSans-32"/>
       <use xlink:href="#DejaVuSans-30" x="63.623047"/>
       <use xlink:href="#DejaVuSans-32" x="127.246094"/>
       <use xlink:href="#DejaVuSans-32" x="190.869141"/>
       <use xlink:href="#DejaVuSans-2d" x="254.492188"/>
       <use xlink:href="#DejaVuSans-4a" x="296.201172"/>
       <use xlink:href="#DejaVuSans-61" x="325.693359"/>
       <use xlink:href="#DejaVuSans-6e" x="386.972656"/>
       <use xlink:href="#DejaVuSans-2d" x="450.351562"/>
       <use xlink:href="#DejaVuSans-30" x="486.435547"/>
       <use xlink:href="#DejaVuSans-31" x="550.058594"/>
      </g>
     </g>
    </g>
    <g id="xtick_16">
     <g id="line2d_16">
      <g>
       <use xlink:href="#m1a1b4d8cdf" x="492.162216" y="178.56" style="stroke: #000000; stroke-width: 0.8"/>
      </g>
     </g>
     <g id="text_16">
      <!-- 2022-Feb-01 -->
      <g transform="translate(436.481582 223.687315)rotate(-30)scale(0.1 -0.1)">
       <use xlink:href="#DejaVuSans-32"/>
       <use xlink:href="#DejaVuSans-30" x="63.623047"/>
       <use xlink:href="#DejaVuSans-32" x="127.246094"/>
       <use xlink:href="#DejaVuSans-32" x="190.869141"/>
       <use xlink:href="#DejaVuSans-2d" x="254.492188"/>
       <use xlink:href="#DejaVuSans-46" x="290.576172"/>
       <use xlink:href="#DejaVuSans-65" x="342.595703"/>
       <use xlink:href="#DejaVuSans-62" x="404.119141"/>
       <use xlink:href="#DejaVuSans-2d" x="467.595703"/>
       <use xlink:href="#DejaVuSans-30" x="503.679688"/>
       <use xlink:href="#DejaVuSans-31" x="567.302734"/>
      </g>
     </g>
    </g>
   </g>
   <g id="matplotlib.axis_2">
    <g id="ytick_1">
     <g id="line2d_17">
      <path d="M 66.053125 175.969952 
L 512.453125 175.969952 
" clip-path="url(#paec0ff3954)" style="fill: none; stroke: #b0b0b0; stroke-width: 0.8; stroke-linecap: square"/>
     </g>
     <g id="line2d_18">
      <defs>
       <path id="m424c28cc96" d="M 0 0 
L -3.5 0 
" style="stroke: #000000; stroke-width: 0.8"/>
      </defs>
      <g>
       <use xlink:href="#m424c28cc96" x="66.053125" y="175.969952" style="stroke: #000000; stroke-width: 0.8"/>
      </g>
     </g>
     <g id="text_17">
      <!-- 0 -->
      <g transform="translate(52.690625 179.769171)scale(0.1 -0.1)">
       <use xlink:href="#DejaVuSans-30"/>
      </g>
     </g>
    </g>
    <g id="ytick_2">
     <g id="line2d_19">
      <path d="M 66.053125 135.829103 
L 512.453125 135.829103 
" clip-path="url(#paec0ff3954)" style="fill: none; stroke: #b0b0b0; stroke-width: 0.8; stroke-linecap: square"/>
     </g>
     <g id="line2d_20">
      <g>
       <use xlink:href="#m424c28cc96" x="66.053125" y="135.829103" style="stroke: #000000; stroke-width: 0.8"/>
      </g>
     </g>
     <g id="text_18">
      <!-- 50000 -->
      <g transform="translate(27.240625 139.628322)scale(0.1 -0.1)">
       <defs>
        <path id="DejaVuSans-35" d="M 691 4666 
L 3169 4666 
L 3169 4134 
L 1269 4134 
L 1269 2991 
Q 1406 3038 1543 3061 
Q 1681 3084 1819 3084 
Q 2600 3084 3056 2656 
Q 3513 2228 3513 1497 
Q 3513 744 3044 326 
Q 2575 -91 1722 -91 
Q 1428 -91 1123 -41 
Q 819 9 494 109 
L 494 744 
Q 775 591 1075 516 
Q 1375 441 1709 441 
Q 2250 441 2565 725 
Q 2881 1009 2881 1497 
Q 2881 1984 2565 2268 
Q 2250 2553 1709 2553 
Q 1456 2553 1204 2497 
Q 953 2441 691 2322 
L 691 4666 
z
" transform="scale(0.015625)"/>
       </defs>
       <use xlink:href="#DejaVuSans-35"/>
       <use xlink:href="#DejaVuSans-30" x="63.623047"/>
       <use xlink:href="#DejaVuSans-30" x="127.246094"/>
       <use xlink:href="#DejaVuSans-30" x="190.869141"/>
       <use xlink:href="#DejaVuSans-30" x="254.492188"/>
      </g>
     </g>
    </g>
    <g id="ytick_3">
     <g id="line2d_21">
      <path d="M 66.053125 95.688254 
L 512.453125 95.688254 
" clip-path="url(#paec0ff3954)" style="fill: none; stroke: #b0b0b0; stroke-width: 0.8; stroke-linecap: square"/>
     </g>
     <g id="line2d_22">
      <g>
       <use xlink:href="#m424c28cc96" x="66.053125" y="95.688254" style="stroke: #000000; stroke-width: 0.8"/>
      </g>
     </g>
     <g id="text_19">
      <!-- 100000 -->
      <g transform="translate(20.878125 99.487473)scale(0.1 -0.1)">
       <use xlink:href="#DejaVuSans-31"/>
       <use xlink:href="#DejaVuSans-30" x="63.623047"/>
       <use xlink:href="#DejaVuSans-30" x="127.246094"/>
       <use xlink:href="#DejaVuSans-30" x="190.869141"/>
       <use xlink:href="#DejaVuSans-30" x="254.492188"/>
       <use xlink:href="#DejaVuSans-30" x="318.115234"/>
      </g>
     </g>
    </g>
    <g id="ytick_4">
     <g id="line2d_23">
      <path d="M 66.053125 55.547405 
L 512.453125 55.547405 
" clip-path="url(#paec0ff3954)" style="fill: none; stroke: #b0b0b0; stroke-width: 0.8; stroke-linecap: square"/>
     </g>
     <g id="line2d_24">
      <g>
       <use xlink:href="#m424c28cc96" x="66.053125" y="55.547405" style="stroke: #000000; stroke-width: 0.8"/>
      </g>
     </g>
     <g id="text_20">
      <!-- 150000 -->
      <g transform="translate(20.878125 59.346624)scale(0.1 -0.1)">
       <use xlink:href="#DejaVuSans-31"/>
       <use xlink:href="#DejaVuSans-35" x="63.623047"/>
       <use xlink:href="#DejaVuSans-30" x="127.246094"/>
       <use xlink:href="#DejaVuSans-30" x="190.869141"/>
       <use xlink:href="#DejaVuSans-30" x="254.492188"/>
       <use xlink:href="#DejaVuSans-30" x="318.115234"/>
      </g>
     </g>
    </g>
    <g id="ytick_5">
     <g id="line2d_25">
      <path d="M 66.053125 15.406556 
L 512.453125 15.406556 
" clip-path="url(#paec0ff3954)" style="fill: none; stroke: #b0b0b0; stroke-width: 0.8; stroke-linecap: square"/>
     </g>
     <g id="line2d_26">
      <g>
       <use xlink:href="#m424c28cc96" x="66.053125" y="15.406556" style="stroke: #000000; stroke-width: 0.8"/>
      </g>
     </g>
     <g id="text_21">
      <!-- 200000 -->
      <g transform="translate(20.878125 19.205774)scale(0.1 -0.1)">
       <use xlink:href="#DejaVuSans-32"/>
       <use xlink:href="#DejaVuSans-30" x="63.623047"/>
       <use xlink:href="#DejaVuSans-30" x="127.246094"/>
       <use xlink:href="#DejaVuSans-30" x="190.869141"/>
       <use xlink:href="#DejaVuSans-30" x="254.492188"/>
       <use xlink:href="#DejaVuSans-30" x="318.115234"/>
      </g>
     </g>
    </g>
    <g id="text_22">
     <!-- Number of Domains -->
     <g transform="translate(14.798438 142.969844)rotate(-90)scale(0.1 -0.1)">
      <defs>
       <path id="DejaVuSans-6d" d="M 3328 2828 
Q 3544 3216 3844 3400 
Q 4144 3584 4550 3584 
Q 5097 3584 5394 3201 
Q 5691 2819 5691 2113 
L 5691 0 
L 5113 0 
L 5113 2094 
Q 5113 2597 4934 2840 
Q 4756 3084 4391 3084 
Q 3944 3084 3684 2787 
Q 3425 2491 3425 1978 
L 3425 0 
L 2847 0 
L 2847 2094 
Q 2847 2600 2669 2842 
Q 2491 3084 2119 3084 
Q 1678 3084 1418 2786 
Q 1159 2488 1159 1978 
L 1159 0 
L 581 0 
L 581 3500 
L 1159 3500 
L 1159 2956 
Q 1356 3278 1631 3431 
Q 1906 3584 2284 3584 
Q 2666 3584 2933 3390 
Q 3200 3197 3328 2828 
z
" transform="scale(0.015625)"/>
       <path id="DejaVuSans-20" transform="scale(0.015625)"/>
       <path id="DejaVuSans-66" d="M 2375 4863 
L 2375 4384 
L 1825 4384 
Q 1516 4384 1395 4259 
Q 1275 4134 1275 3809 
L 1275 3500 
L 2222 3500 
L 2222 3053 
L 1275 3053 
L 1275 0 
L 697 0 
L 697 3053 
L 147 3053 
L 147 3500 
L 697 3500 
L 697 3744 
Q 697 4328 969 4595 
Q 1241 4863 1831 4863 
L 2375 4863 
z
" transform="scale(0.015625)"/>
       <path id="DejaVuSans-69" d="M 603 3500 
L 1178 3500 
L 1178 0 
L 603 0 
L 603 3500 
z
M 603 4863 
L 1178 4863 
L 1178 4134 
L 603 4134 
L 603 4863 
z
" transform="scale(0.015625)"/>
       <path id="DejaVuSans-73" d="M 2834 3397 
L 2834 2853 
Q 2591 2978 2328 3040 
Q 2066 3103 1784 3103 
Q 1356 3103 1142 2972 
Q 928 2841 928 2578 
Q 928 2378 1081 2264 
Q 1234 2150 1697 2047 
L 1894 2003 
Q 2506 1872 2764 1633 
Q 3022 1394 3022 966 
Q 3022 478 2636 193 
Q 2250 -91 1575 -91 
Q 1294 -91 989 -36 
Q 684 19 347 128 
L 347 722 
Q 666 556 975 473 
Q 1284 391 1588 391 
Q 1994 391 2212 530 
Q 2431 669 2431 922 
Q 2431 1156 2273 1281 
Q 2116 1406 1581 1522 
L 1381 1569 
Q 847 1681 609 1914 
Q 372 2147 372 2553 
Q 372 3047 722 3315 
Q 1072 3584 1716 3584 
Q 2034 3584 2315 3537 
Q 2597 3491 2834 3397 
z
" transform="scale(0.015625)"/>
      </defs>
      <use xlink:href="#DejaVuSans-4e"/>
      <use xlink:href="#DejaVuSans-75" x="74.804688"/>
      <use xlink:href="#DejaVuSans-6d" x="138.183594"/>
      <use xlink:href="#DejaVuSans-62" x="235.595703"/>
      <use xlink:href="#DejaVuSans-65" x="299.072266"/>
      <use xlink:href="#DejaVuSans-72" x="360.595703"/>
      <use xlink:href="#DejaVuSans-20" x="401.708984"/>
      <use xlink:href="#DejaVuSans-6f" x="433.496094"/>
      <use xlink:href="#DejaVuSans-66" x="494.677734"/>
      <use xlink:href="#DejaVuSans-20" x="529.882812"/>
      <use xlink:href="#DejaVuSans-44" x="561.669922"/>
      <use xlink:href="#DejaVuSans-6f" x="638.671875"/>
      <use xlink:href="#DejaVuSans-6d" x="699.853516"/>
      <use xlink:href="#DejaVuSans-61" x="797.265625"/>
      <use xlink:href="#DejaVuSans-69" x="858.544922"/>
      <use xlink:href="#DejaVuSans-6e" x="886.328125"/>
      <use xlink:href="#DejaVuSans-73" x="949.707031"/>
     </g>
    </g>
   </g>
   <g id="line2d_27">
    <path d="M 86.344034 58.065039 
L 87.243853 58.141306 
L 89.04349 57.901264 
L 90.843127 56.703461 
L 91.742946 56.10456 
L 92.642764 56.017856 
L 94.442401 56.151123 
L 95.34222 56.570194 
L 96.242039 56.425687 
L 97.141857 55.582729 
L 98.041676 55.353123 
L 98.941494 55.35794 
L 99.841313 55.200588 
L 102.540769 54.913982 
L 103.440587 54.527827 
L 107.039862 54.826475 
L 107.93968 54.95894 
L 108.839499 54.83932 
L 109.739317 54.156926 
L 110.639136 53.910461 
L 112.438773 53.786024 
L 113.338592 54.037306 
L 114.23841 54.147292 
L 115.138229 53.720193 
L 116.937866 53.199968 
L 117.837685 53.112461 
L 118.737503 53.755517 
L 119.637322 53.908052 
L 120.53714 53.932137 
L 121.436959 53.231278 
L 122.336777 51.727602 
L 123.236596 51.136728 
L 125.036233 50.930404 
L 125.936052 51.115052 
L 126.83587 51.132714 
L 127.735689 50.765024 
L 128.635508 50.551475 
L 129.535326 50.520968 
L 130.435145 50.659855 
L 131.334963 50.976165 
L 133.134601 51.285249 
L 134.034419 51.069292 
L 135.834056 50.901503 
L 138.533512 51.625644 
L 139.433331 51.625644 
L 140.333149 51.179278 
L 141.232968 50.239179 
L 143.032605 50.057742 
L 143.932424 50.199038 
L 144.832242 49.841784 
L 145.732061 49.820108 
L 148.431516 49.151362 
L 151.130972 48.95708 
L 152.030791 49.030137 
L 153.830428 48.504291 
L 154.730247 48.041066 
L 155.630065 47.96239 
L 164.628251 47.87408 
L 166.427888 47.152348 
L 167.327707 46.665038 
L 168.227525 47.111404 
L 169.127344 47.086517 
L 170.027162 47.292841 
L 170.926981 47.288024 
L 171.8268 47.870869 
L 173.626437 46.937193 
L 174.526255 47.21015 
L 176.325893 47.293643 
L 177.225711 47.292841 
L 179.925167 46.400108 
L 180.824986 46.331066 
L 181.724804 46.131967 
L 182.624623 46.463531 
L 183.524441 46.515714 
L 184.42426 46.249981 
L 186.223897 45.318714 
L 188.023534 45.343601 
L 188.923353 45.158953 
L 189.823171 45.203108 
L 192.522627 43.813432 
L 194.322264 43.146291 
L 196.121901 43.039516 
L 197.921539 42.44222 
L 198.821357 42.351502 
L 199.721176 41.773474 
L 201.520813 42.05446 
L 213.218455 39.267882 
L 214.118273 39.487051 
L 215.018092 39.451727 
L 215.91791 39.225333 
L 216.817729 38.739628 
L 217.717547 38.465868 
L 218.617366 38.479516 
L 220.417003 38.738826 
L 221.316822 39.254234 
L 222.21664 39.263065 
L 223.116459 38.608769 
L 224.016278 38.336614 
L 224.916096 38.393614 
L 228.515371 38.323769 
L 230.315008 37.833248 
L 231.214826 37.745741 
L 232.114645 37.798727 
L 233.014463 38.041178 
L 233.914282 37.957685 
L 234.814101 37.716037 
L 237.513556 37.120347 
L 239.313194 37.824417 
L 240.213012 38.014685 
L 241.112831 37.500882 
L 242.012649 37.303389 
L 246.511742 37.354769 
L 248.311379 36.531079 
L 250.111017 36.198713 
L 251.010835 36.225206 
L 252.810472 36.583262 
L 253.710291 36.340811 
L 254.610109 36.866656 
L 255.509928 36.494149 
L 258.209384 36.561586 
L 259.109202 36.168206 
L 260.009021 36.120839 
L 260.90884 35.225699 
L 261.808658 34.981642 
L 262.708477 34.536882 
L 263.608295 35.074769 
L 264.508114 35.271459 
L 265.407932 34.82429 
L 267.20757 34.619572 
L 268.107388 34.112994 
L 269.007207 33.954839 
L 270.806844 34.027896 
L 271.706663 34.314501 
L 273.5063 33.400896 
L 274.406118 33.322219 
L 275.305937 32.949712 
L 277.105574 32.873445 
L 278.005393 33.527741 
L 278.905211 32.275346 
L 279.80503 31.759938 
L 281.604667 31.091191 
L 284.304123 31.172276 
L 286.10376 31.326416 
L 287.003579 31.673233 
L 287.903397 31.602586 
L 290.602853 31.763149 
L 292.40249 31.108853 
L 295.101946 30.730726 
L 296.901583 30.842318 
L 300.500857 30.135839 
L 301.400676 30.211304 
L 326.595596 30.16474 
L 327.495415 30.508346 
L 328.395233 30.437698 
L 329.295052 30.155106 
L 330.194871 29.732022 
L 331.994508 29.378782 
L 332.894326 29.357909 
L 333.794145 29.58029 
L 334.693964 29.639698 
L 337.393419 28.949275 
L 338.293238 29.189318 
L 339.193056 29.242304 
L 340.092875 29.463078 
L 340.992694 29.532923 
L 341.892512 30.090078 
L 342.792331 28.792726 
L 358.989065 27.396627 
L 359.888884 27.509022 
L 361.688521 26.969529 
L 363.488158 26.759993 
L 364.387977 26.856332 
L 365.287795 27.130092 
L 366.187614 27.127684 
L 367.087433 26.854726 
L 367.987251 26.751162 
L 369.786888 26.251008 
L 370.686707 26.369824 
L 371.586526 26.365008 
L 372.486344 26.513529 
L 374.285981 25.951557 
L 375.1858 25.829529 
L 377.885256 26.020599 
L 378.785074 25.926669 
L 379.684893 25.615979 
L 380.584711 25.435345 
L 381.48453 24.991388 
L 382.384349 24.813965 
L 384.183986 24.969712 
L 385.983623 24.819585 
L 386.883441 25.28281 
L 387.78326 24.270458 
L 388.683079 24.023993 
L 389.582897 23.987064 
L 391.382534 24.383655 
L 392.282353 24.480796 
L 393.182172 24.024796 
L 394.08199 23.74943 
L 397.681264 24.155655 
L 398.581083 24.06012 
L 399.480902 23.639444 
L 400.38072 24.060923 
L 401.280539 23.902768 
L 403.080176 24.2825 
L 403.979995 22.933768 
L 405.779632 21.931852 
L 406.67945 21.682979 
L 407.579269 21.556937 
L 410.278725 21.852373 
L 412.97818 21.078458 
L 413.877999 20.993359 
L 415.677636 21.270331 
L 416.577455 21.463007 
L 420.176729 20.615232 
L 421.976366 20.897824 
L 425.575641 19.911965 
L 428.275096 20.086176 
L 429.174915 20.470725 
L 430.074734 20.294106 
L 430.974552 19.920796 
L 431.874371 19.133232 
L 432.774189 19.011204 
L 435.473645 19.568359 
L 437.273282 19.053753 
L 439.972738 18.826556 
L 440.872557 18.999162 
L 441.772375 19.024049 
L 442.672194 18.832979 
L 443.572012 18.383401 
L 445.371649 18.269401 
L 446.271468 18.407486 
L 448.071105 18.983105 
L 448.970924 18.619429 
L 450.770561 18.158612 
L 454.369835 18.739049 
L 456.169473 18.171457 
L 457.069291 18.193133 
L 457.96911 18.554401 
L 458.868928 19.299415 
L 460.668565 19.360429 
L 461.568384 19.390936 
L 462.468203 19.200669 
L 465.167658 19.516176 
L 466.067477 19.869415 
L 466.967296 20.054866 
L 467.867114 20.069317 
L 468.766933 19.58281 
L 469.666751 19.588429 
L 470.56657 19.177387 
L 471.466388 19.195852 
L 472.366207 19.428669 
L 474.165844 19.304232 
L 475.965481 18.541556 
L 476.8653 18.421134 
L 478.664937 18.71657 
L 479.564756 18.471711 
L 481.364393 17.570148 
L 482.264211 17.517162 
L 484.063849 16.920669 
L 485.863486 16.772147 
L 486.763304 16.363514 
L 487.663123 15.616894 
L 488.562942 15.219499 
L 491.262397 15.04288 
L 492.162216 15.010767 
L 492.162216 15.010767 
" clip-path="url(#paec0ff3954)" style="fill: none; stroke: #1f77b4; stroke-width: 1.5; stroke-linecap: square"/>
   </g>
   <g id="line2d_28">
    <path d="M 86.344034 127.720651 
L 89.943308 127.442074 
L 91.742946 126.985271 
L 92.642764 126.906595 
L 96.242039 127.166708 
L 97.141857 126.816679 
L 98.041676 126.666553 
L 99.841313 126.644074 
L 106.140043 126.502778 
L 108.839499 126.519637 
L 110.639136 126.147933 
L 111.538954 126.092538 
L 114.23841 126.467454 
L 116.038047 126.205736 
L 116.937866 126.056412 
L 117.837685 126.048384 
L 119.637322 126.271567 
L 120.53714 126.29244 
L 122.336777 125.991384 
L 123.236596 125.843665 
L 127.735689 125.606834 
L 129.535326 125.479989 
L 131.334963 125.679891 
L 133.134601 125.78506 
L 134.034419 125.666243 
L 135.834056 125.623693 
L 139.433331 125.838848 
L 140.333149 125.674271 
L 141.232968 125.337891 
L 143.032605 125.237538 
L 143.932424 125.332271 
L 144.832242 125.075369 
L 145.732061 125.12113 
L 148.431516 124.795186 
L 151.130972 124.631412 
L 152.030791 124.772707 
L 153.830428 124.5712 
L 154.730247 124.168186 
L 155.630065 124.057397 
L 164.628251 124.267735 
L 166.427888 124.020468 
L 167.327707 123.7162 
L 168.227525 123.91289 
L 170.926981 123.825383 
L 171.8268 124.312693 
L 173.626437 123.968285 
L 175.426074 124.074257 
L 178.12553 123.937778 
L 181.724804 123.567679 
L 183.524441 123.781228 
L 184.42426 123.695327 
L 186.223897 123.29151 
L 188.023534 123.293918 
L 189.823171 123.334059 
L 194.322264 122.487087 
L 196.121901 122.414834 
L 198.821357 122.14589 
L 199.721176 121.645735 
L 201.520813 121.674637 
L 214.118273 120.870214 
L 215.018092 120.888679 
L 215.91791 120.773073 
L 216.817729 120.422242 
L 217.717547 120.260073 
L 220.417003 120.297003 
L 221.316822 120.736144 
L 222.21664 120.790735 
L 223.116459 120.432679 
L 224.016278 120.413411 
L 224.916096 120.520186 
L 230.315008 120.25927 
L 233.014463 120.463989 
L 234.814101 120.343566 
L 237.513556 120.090679 
L 240.213012 120.426256 
L 241.112831 120.17658 
L 245.611924 120.194242 
L 246.511742 120.13082 
L 248.311379 119.621031 
L 253.710291 119.425946 
L 254.610109 119.758313 
L 255.509928 119.568848 
L 257.309565 119.681242 
L 258.209384 119.702115 
L 259.109202 119.447622 
L 260.009021 119.48696 
L 260.90884 118.936228 
L 262.708477 118.660059 
L 263.608295 118.968341 
L 264.508114 118.94827 
L 265.407932 118.675312 
L 269.007207 118.274707 
L 272.606481 118.338129 
L 275.305937 118.025833 
L 278.005393 118.188805 
L 278.905211 117.736819 
L 280.704848 117.114636 
L 281.604667 116.982974 
L 284.304123 117.008664 
L 285.203941 117.355481 
L 286.10376 117.562608 
L 287.003579 117.891763 
L 288.803216 117.867679 
L 290.602853 117.850819 
L 295.101946 117.261552 
L 296.901583 117.28965 
L 301.400676 117.113031 
L 326.595596 116.938016 
L 327.495415 117.065664 
L 328.395233 116.845693 
L 329.295052 116.803143 
L 331.094689 116.472383 
L 333.794145 116.433847 
L 335.593782 116.671481 
L 337.393419 116.563904 
L 339.193056 116.867369 
L 340.992694 116.931594 
L 341.892512 117.331397 
L 342.792331 116.708411 
L 359.888884 116.241974 
L 363.488158 115.957777 
L 366.187614 115.987481 
L 369.786888 115.58527 
L 370.686707 115.716932 
L 375.1858 115.345228 
L 378.785074 115.317129 
L 381.48453 114.905284 
L 385.983623 114.765594 
L 386.883441 114.816171 
L 387.78326 114.537594 
L 388.683079 114.462129 
L 392.282353 114.682904 
L 394.08199 114.372213 
L 397.681264 114.369002 
L 399.480902 114.215664 
L 400.38072 114.41396 
L 401.280539 114.337692 
L 403.080176 114.454904 
L 403.979995 114.409143 
L 407.579269 113.797396 
L 411.178543 113.907382 
L 412.078362 113.725946 
L 414.777818 113.733974 
L 417.477273 113.748425 
L 420.176729 113.458608 
L 422.876185 113.467439 
L 426.475459 113.307678 
L 429.174915 113.416861 
L 430.074734 113.411241 
L 430.974552 113.26272 
L 431.874371 112.390861 
L 433.674008 112.423777 
L 435.473645 112.526537 
L 437.273282 112.338678 
L 442.672194 112.134762 
L 444.471831 111.815241 
L 447.171287 111.860199 
L 448.071105 111.903551 
L 450.770561 111.57841 
L 454.369835 111.70365 
L 457.069291 111.530241 
L 460.668565 111.985439 
L 462.468203 111.87465 
L 466.967296 112.124326 
L 467.867114 112.196579 
L 469.666751 111.915593 
L 474.165844 111.965368 
L 475.965481 111.685185 
L 477.765119 111.687593 
L 478.664937 111.771086 
L 480.464574 111.560748 
L 486.763304 110.718593 
L 487.663123 110.312368 
L 490.362579 110.012114 
L 492.162216 109.994452 
L 492.162216 109.994452 
" clip-path="url(#paec0ff3954)" style="fill: none; stroke: #ff7f0e; stroke-width: 1.5; stroke-linecap: square"/>
   </g>
   <g id="line2d_29">
    <path d="M 86.344034 151.353978 
L 89.943308 151.284133 
L 91.742946 151.046499 
L 94.442401 150.97264 
L 95.34222 151.043287 
L 98.041676 150.839372 
L 105.240224 150.79602 
L 108.839499 150.810471 
L 109.739317 150.653118 
L 112.438773 150.672386 
L 113.338592 150.698879 
L 116.937866 150.438766 
L 117.837685 150.431541 
L 119.637322 150.572034 
L 129.535326 150.175442 
L 134.034419 150.213977 
L 140.333149 150.153766 
L 142.132786 149.963499 
L 145.732061 149.875189 
L 148.431516 149.715428 
L 166.427888 149.32847 
L 169.127344 149.233738 
L 170.027162 149.289132 
L 170.926981 149.226513 
L 171.8268 149.290738 
L 173.626437 149.16871 
L 175.426074 149.273879 
L 178.12553 149.172724 
L 179.925167 149.046682 
L 184.42426 149.033837 
L 186.223897 148.855611 
L 191.622809 148.683808 
L 193.422446 148.53047 
L 199.721176 148.216569 
L 201.520813 148.266343 
L 237.513556 147.161667 
L 240.213012 147.330259 
L 242.012649 147.164879 
L 246.511742 147.148019 
L 248.311379 146.818062 
L 257.309565 146.676766 
L 260.009021 146.590864 
L 261.808658 146.508977 
L 266.307751 146.456794 
L 277.105574 146.189456 
L 278.005393 146.260907 
L 279.80503 145.999188 
L 283.404304 145.968681 
L 285.203941 145.972695 
L 296.901583 145.668428 
L 301.400676 145.764766 
L 329.295052 145.434808 
L 331.094689 145.272639 
L 334.693964 145.306357 
L 336.493601 145.345695 
L 339.193056 145.25016 
L 340.092875 145.309569 
L 342.792331 145.161047 
L 359.888884 144.729132 
L 363.488158 144.604695 
L 366.187614 144.602287 
L 380.584711 144.204892 
L 382.384349 144.087681 
L 384.183986 144.09009 
L 385.983623 144.055568 
L 386.883441 144.155118 
L 387.78326 143.991343 
L 402.180357 143.862892 
L 403.979995 143.842019 
L 406.67945 143.544174 
L 410.278725 143.508047 
L 412.97818 143.507244 
L 417.477273 143.42616 
L 421.076548 143.300118 
L 422.876185 143.333836 
L 430.974552 143.165244 
L 431.874371 142.323089 
L 433.674008 142.290977 
L 435.473645 142.343963 
L 447.171287 142.071005 
L 448.970924 142.003568 
L 450.770561 141.885554 
L 454.369835 141.972258 
L 457.069291 141.869498 
L 460.668565 142.117568 
L 462.468203 142.038892 
L 468.766933 142.039695 
L 471.466388 141.90161 
L 474.165844 141.916864 
L 475.965481 141.803667 
L 482.264211 141.615808 
L 492.162216 141.127695 
L 492.162216 141.127695 
" clip-path="url(#paec0ff3954)" style="fill: none; stroke: #2ca02c; stroke-width: 1.5; stroke-linecap: square"/>
   </g>
   <g id="line2d_30">
    <path d="M 190.72299 170.749233 
L 193.422446 170.710698 
L 196.121901 170.692233 
L 201.520813 170.662529 
L 260.009021 170.46343 
L 260.90884 170.367895 
L 263.608295 170.40081 
L 267.20757 170.377529 
L 292.40249 170.251487 
L 301.400676 170.27236 
L 403.979995 170.268346 
L 404.879813 170.085303 
L 420.176729 170.019472 
L 425.575641 170.059613 
L 427.375278 170.022684 
L 429.174915 170.041951 
L 430.074734 170.116613 
L 430.974552 170.028303 
L 433.674008 170.102965 
L 437.273282 170.042754 
L 439.972738 170.149529 
L 440.872557 170.160768 
L 441.772375 170.060416 
L 444.471831 170.156754 
L 446.271468 170.056402 
L 448.970924 170.091726 
L 450.770561 170.046768 
L 453.470017 170.182444 
L 454.369835 170.081289 
L 456.169473 170.146317 
L 458.868928 170.127853 
L 460.668565 170.126247 
L 466.967296 170.351036 
L 467.867114 170.270754 
L 470.56657 170.322937 
L 476.8653 170.280388 
L 477.765119 170.365487 
L 478.664937 170.264332 
L 479.564756 170.279585 
L 480.464574 170.487515 
L 481.364393 170.297247 
L 482.264211 170.250684 
L 483.16403 170.480289 
L 484.063849 170.326951 
L 485.863486 170.305275 
L 486.763304 170.367092 
L 487.663123 170.252289 
L 488.562942 170.367895 
L 489.46276 170.221782 
L 491.262397 170.257106 
L 492.162216 170.314106 
L 492.162216 170.314106 
" clip-path="url(#paec0ff3954)" style="fill: none; stroke: #d62728; stroke-width: 1.5; stroke-linecap: square"/>
   </g>
   <g id="line2d_31">
    <path d="M 86.344034 58.319532 
L 87.243853 58.394997 
L 89.04349 58.158968 
L 91.742946 56.366278 
L 92.642764 56.273954 
L 94.442401 56.406419 
L 95.34222 56.823884 
L 96.242039 56.684996 
L 97.141857 55.843644 
L 98.041676 55.619658 
L 98.941494 55.621264 
L 99.841313 55.464715 
L 102.540769 55.177306 
L 103.440587 54.796771 
L 107.039862 55.090602 
L 107.93968 55.22387 
L 108.839499 55.097024 
L 109.739317 54.422658 
L 110.639136 54.180207 
L 112.438773 54.054165 
L 113.338592 54.303038 
L 114.23841 54.412222 
L 115.138229 53.987531 
L 116.937866 53.464095 
L 117.837685 53.378193 
L 118.737503 54.020447 
L 119.637322 54.170574 
L 120.53714 54.185827 
L 121.436959 53.49701 
L 122.336777 51.994137 
L 123.236596 51.406475 
L 125.036233 51.196137 
L 125.936052 51.379179 
L 126.83587 51.392827 
L 127.735689 51.025137 
L 128.635508 50.805968 
L 129.535326 50.785897 
L 130.435145 50.919968 
L 131.334963 51.231461 
L 133.134601 51.546165 
L 134.034419 51.333418 
L 135.834056 51.164827 
L 138.533512 51.888968 
L 139.433331 51.884954 
L 140.333149 51.436179 
L 141.232968 50.503306 
L 143.032605 50.325883 
L 143.932424 50.455137 
L 144.832242 50.101094 
L 145.732061 50.074601 
L 148.431516 49.411475 
L 151.130972 49.204348 
L 152.030791 49.281418 
L 153.830428 48.763601 
L 154.730247 48.289136 
L 155.630065 48.211263 
L 164.628251 48.143827 
L 166.427888 47.420488 
L 167.327707 46.93077 
L 168.227525 47.38115 
L 169.127344 47.353855 
L 170.027162 47.560981 
L 170.926981 47.556165 
L 171.8268 48.13901 
L 173.626437 47.207742 
L 174.526255 47.47508 
L 175.426074 47.576235 
L 177.225711 47.56339 
L 179.925167 46.673066 
L 180.824986 46.604826 
L 181.724804 46.407333 
L 182.624623 46.732474 
L 183.524441 46.782249 
L 184.42426 46.512502 
L 186.223897 45.581235 
L 188.023534 45.604516 
L 188.923353 45.420671 
L 189.823171 45.464826 
L 192.522627 44.075953 
L 194.322264 43.408009 
L 196.121901 43.299629 
L 197.921539 42.706347 
L 198.821357 42.619643 
L 199.721176 42.040009 
L 201.520813 42.315375 
L 213.218455 39.532812 
L 214.118273 39.745558 
L 215.018092 39.715854 
L 215.91791 39.495079 
L 216.817729 39.002952 
L 217.717547 38.730797 
L 218.617366 38.749262 
L 220.417003 39.007769 
L 221.316822 39.523981 
L 222.21664 39.536826 
L 223.116459 38.884136 
L 224.016278 38.599938 
L 224.916096 38.661755 
L 228.515371 38.592713 
L 230.315008 38.094164 
L 231.214826 38.008262 
L 232.114645 38.061248 
L 233.014463 38.307713 
L 233.914282 38.2186 
L 234.814101 37.973741 
L 237.513556 37.387685 
L 239.313194 38.093361 
L 240.213012 38.283628 
L 241.112831 37.771431 
L 242.012649 37.57153 
L 246.511742 37.619699 
L 248.311379 36.806445 
L 250.111017 36.465248 
L 251.010835 36.495755 
L 252.810472 36.8506 
L 253.710291 36.609755 
L 254.610109 37.1356 
L 255.509928 36.765502 
L 258.209384 36.836149 
L 259.109202 36.443572 
L 260.009021 36.38898 
L 260.90884 35.501868 
L 261.808658 35.264234 
L 262.708477 34.809839 
L 263.608295 35.353346 
L 264.508114 35.550839 
L 265.407932 35.093234 
L 267.20757 34.894938 
L 268.107388 34.39398 
L 269.007207 34.233417 
L 270.806844 34.306473 
L 271.706663 34.593079 
L 273.5063 33.68991 
L 274.406118 33.604811 
L 275.305937 33.244346 
L 277.105574 33.174501 
L 278.005393 33.819966 
L 278.905211 32.570783 
L 279.80503 32.059388 
L 281.604667 31.376191 
L 284.304123 31.456473 
L 286.10376 31.625867 
L 287.003579 31.96867 
L 287.903397 31.908459 
L 290.602853 32.065811 
L 292.40249 31.417938 
L 295.101946 31.031783 
L 296.901583 31.140163 
L 300.500857 30.420839 
L 301.400676 30.505135 
L 326.595596 30.441712 
L 327.495415 30.786923 
L 328.395233 30.713867 
L 329.295052 30.433684 
L 330.194871 30.020233 
L 331.994508 29.658966 
L 332.894326 29.642106 
L 333.794145 29.864487 
L 334.693964 29.92229 
L 337.393419 29.224642 
L 338.293238 29.469501 
L 339.193056 29.527304 
L 340.092875 29.747275 
L 340.992694 29.819529 
L 341.892512 30.370261 
L 342.792331 29.073712 
L 358.989065 27.667979 
L 359.888884 27.780374 
L 361.688521 27.243289 
L 363.488158 27.038571 
L 364.387977 27.135712 
L 365.287795 27.407064 
L 366.187614 27.390205 
L 367.087433 27.130895 
L 367.987251 27.018501 
L 369.786888 26.521557 
L 370.686707 26.640374 
L 371.586526 26.635557 
L 372.486344 26.785684 
L 374.285981 26.234951 
L 375.1858 26.100881 
L 377.885256 26.291951 
L 378.785074 26.198824 
L 379.684893 25.888134 
L 380.584711 25.705092 
L 381.48453 25.267557 
L 382.384349 25.083712 
L 384.183986 25.238655 
L 385.983623 25.092543 
L 386.883441 25.557374 
L 387.78326 24.549838 
L 388.683079 24.299359 
L 389.582897 24.259219 
L 391.382534 24.66143 
L 392.282353 24.757768 
L 393.182172 24.305782 
L 394.08199 24.033627 
L 395.881627 24.329064 
L 396.781446 24.19981 
L 397.681264 24.431021 
L 398.581083 24.330669 
L 399.480902 23.910796 
L 400.38072 24.330669 
L 401.280539 24.171712 
L 403.080176 24.550641 
L 403.979995 23.1995 
L 405.779632 22.203204 
L 406.67945 21.953528 
L 407.579269 21.824275 
L 410.278725 22.118909 
L 412.97818 21.346599 
L 413.877999 21.263908 
L 415.677636 21.537669 
L 416.577455 21.732754 
L 420.176729 20.88819 
L 421.976366 21.169176 
L 425.575641 20.188134 
L 428.275096 20.365556 
L 429.174915 20.751711 
L 430.074734 20.575091 
L 430.974552 20.200176 
L 431.874371 19.412612 
L 432.774189 19.290584 
L 435.473645 19.845331 
L 437.273282 19.33795 
L 439.972738 19.10995 
L 440.872557 19.281753 
L 441.772375 19.306641 
L 442.672194 19.113965 
L 443.572012 18.669204 
L 445.371649 18.547979 
L 446.271468 18.684457 
L 448.071105 19.261683 
L 448.970924 18.894796 
L 450.770561 18.438795 
L 454.369835 19.008796 
L 456.169473 18.446021 
L 457.069291 18.467697 
L 457.96911 18.838598 
L 458.868928 19.578796 
L 460.668565 19.637401 
L 461.568384 19.667105 
L 462.468203 19.482458 
L 465.167658 19.790739 
L 466.067477 20.139965 
L 466.967296 20.330232 
L 467.867114 20.347091 
L 468.766933 19.859782 
L 469.666751 19.874232 
L 470.56657 19.46881 
L 471.466388 19.48326 
L 472.366207 19.713669 
L 474.165844 19.601274 
L 475.965481 18.833781 
L 476.8653 18.711753 
L 478.664937 19.000767 
L 479.564756 18.749486 
L 481.364393 17.847119 
L 482.264211 17.805373 
L 484.063849 17.174359 
L 485.863486 17.024232 
L 486.763304 16.612387 
L 487.663123 15.864161 
L 488.562942 15.457133 
L 492.162216 15.257232 
L 492.162216 15.257232 
" clip-path="url(#paec0ff3954)" style="fill: none; stroke: #9467bd; stroke-width: 1.5; stroke-linecap: square"/>
   </g>
   <g id="patch_3">
    <path d="M 66.053125 178.56 
L 66.053125 7.2 
" style="fill: none; stroke: #000000; stroke-width: 0.8; stroke-linejoin: miter; stroke-linecap: square"/>
   </g>
   <g id="patch_4">
    <path d="M 512.453125 178.56 
L 512.453125 7.2 
" style="fill: none; stroke: #000000; stroke-width: 0.8; stroke-linejoin: miter; stroke-linecap: square"/>
   </g>
   <g id="patch_5">
    <path d="M 66.053125 178.56 
L 512.453125 178.56 
" style="fill: none; stroke: #000000; stroke-width: 0.8; stroke-linejoin: miter; stroke-linecap: square"/>
   </g>
   <g id="patch_6">
    <path d="M 66.053125 7.2 
L 512.453125 7.2 
" style="fill: none; stroke: #000000; stroke-width: 0.8; stroke-linejoin: miter; stroke-linecap: square"/>
   </g>
   <g id="legend_1">
    <g id="patch_7">
     <path d="M 224.289844 131.075312 
L 354.216406 131.075312 
Q 356.216406 131.075312 356.216406 129.075312 
L 356.216406 56.684688 
Q 356.216406 54.684688 354.216406 54.684688 
L 224.289844 54.684688 
Q 222.289844 54.684688 222.289844 56.684688 
L 222.289844 129.075312 
Q 222.289844 131.075312 224.289844 131.075312 
z
" style="fill: #ffffff; opacity: 0.8; stroke: #cccccc; stroke-linejoin: miter"/>
    </g>
    <g id="line2d_32">
     <path d="M 226.289844 62.783125 
L 236.289844 62.783125 
L 246.289844 62.783125 
" style="fill: none; stroke: #1f77b4; stroke-width: 1.5; stroke-linecap: square"/>
    </g>
    <g id="text_23">
     <!-- STS header -->
     <g transform="translate(254.289844 66.283125)scale(0.1 -0.1)">
      <defs>
       <path id="DejaVuSans-54" d="M -19 4666 
L 3928 4666 
L 3928 4134 
L 2272 4134 
L 2272 0 
L 1638 0 
L 1638 4134 
L -19 4134 
L -19 4666 
z
" transform="scale(0.015625)"/>
       <path id="DejaVuSans-68" d="M 3513 2113 
L 3513 0 
L 2938 0 
L 2938 2094 
Q 2938 2591 2744 2837 
Q 2550 3084 2163 3084 
Q 1697 3084 1428 2787 
Q 1159 2491 1159 1978 
L 1159 0 
L 581 0 
L 581 4863 
L 1159 4863 
L 1159 2956 
Q 1366 3272 1645 3428 
Q 1925 3584 2291 3584 
Q 2894 3584 3203 3211 
Q 3513 2838 3513 2113 
z
" transform="scale(0.015625)"/>
       <path id="DejaVuSans-64" d="M 2906 2969 
L 2906 4863 
L 3481 4863 
L 3481 0 
L 2906 0 
L 2906 525 
Q 2725 213 2448 61 
Q 2172 -91 1784 -91 
Q 1150 -91 751 415 
Q 353 922 353 1747 
Q 353 2572 751 3078 
Q 1150 3584 1784 3584 
Q 2172 3584 2448 3432 
Q 2725 3281 2906 2969 
z
M 947 1747 
Q 947 1113 1208 752 
Q 1469 391 1925 391 
Q 2381 391 2643 752 
Q 2906 1113 2906 1747 
Q 2906 2381 2643 2742 
Q 2381 3103 1925 3103 
Q 1469 3103 1208 2742 
Q 947 2381 947 1747 
z
" transform="scale(0.015625)"/>
      </defs>
      <use xlink:href="#DejaVuSans-53"/>
      <use xlink:href="#DejaVuSans-54" x="63.476562"/>
      <use xlink:href="#DejaVuSans-53" x="124.560547"/>
      <use xlink:href="#DejaVuSans-20" x="188.037109"/>
      <use xlink:href="#DejaVuSans-68" x="219.824219"/>
      <use xlink:href="#DejaVuSans-65" x="283.203125"/>
      <use xlink:href="#DejaVuSans-61" x="344.726562"/>
      <use xlink:href="#DejaVuSans-64" x="406.005859"/>
      <use xlink:href="#DejaVuSans-65" x="469.482422"/>
      <use xlink:href="#DejaVuSans-72" x="531.005859"/>
     </g>
    </g>
    <g id="line2d_33">
     <path d="M 226.289844 77.46125 
L 236.289844 77.46125 
L 246.289844 77.46125 
" style="fill: none; stroke: #ff7f0e; stroke-width: 1.5; stroke-linecap: square"/>
    </g>
    <g id="text_24">
     <!-- includeSubdomains -->
     <g transform="translate(254.289844 80.96125)scale(0.1 -0.1)">
      <use xlink:href="#DejaVuSans-69"/>
      <use xlink:href="#DejaVuSans-6e" x="27.783203"/>
      <use xlink:href="#DejaVuSans-63" x="91.162109"/>
      <use xlink:href="#DejaVuSans-6c" x="146.142578"/>
      <use xlink:href="#DejaVuSans-75" x="173.925781"/>
      <use xlink:href="#DejaVuSans-64" x="237.304688"/>
      <use xlink:href="#DejaVuSans-65" x="300.78125"/>
      <use xlink:href="#DejaVuSans-53" x="362.304688"/>
      <use xlink:href="#DejaVuSans-75" x="425.78125"/>
      <use xlink:href="#DejaVuSans-62" x="489.160156"/>
      <use xlink:href="#DejaVuSans-64" x="552.636719"/>
      <use xlink:href="#DejaVuSans-6f" x="616.113281"/>
      <use xlink:href="#DejaVuSans-6d" x="677.294922"/>
      <use xlink:href="#DejaVuSans-61" x="774.707031"/>
      <use xlink:href="#DejaVuSans-69" x="835.986328"/>
      <use xlink:href="#DejaVuSans-6e" x="863.769531"/>
      <use xlink:href="#DejaVuSans-73" x="927.148438"/>
     </g>
    </g>
    <g id="line2d_34">
     <path d="M 226.289844 92.139375 
L 236.289844 92.139375 
L 246.289844 92.139375 
" style="fill: none; stroke: #2ca02c; stroke-width: 1.5; stroke-linecap: square"/>
    </g>
    <g id="text_25">
     <!-- preload -->
     <g transform="translate(254.289844 95.639375)scale(0.1 -0.1)">
      <use xlink:href="#DejaVuSans-70"/>
      <use xlink:href="#DejaVuSans-72" x="63.476562"/>
      <use xlink:href="#DejaVuSans-65" x="102.339844"/>
      <use xlink:href="#DejaVuSans-6c" x="163.863281"/>
      <use xlink:href="#DejaVuSans-6f" x="191.646484"/>
      <use xlink:href="#DejaVuSans-61" x="252.828125"/>
      <use xlink:href="#DejaVuSans-64" x="314.107422"/>
     </g>
    </g>
    <g id="line2d_35">
     <path d="M 226.289844 106.8175 
L 236.289844 106.8175 
L 246.289844 106.8175 
" style="fill: none; stroke: #d62728; stroke-width: 1.5; stroke-linecap: square"/>
    </g>
    <g id="text_26">
     <!-- Preloaded Domains -->
     <g transform="translate(254.289844 110.3175)scale(0.1 -0.1)">
      <defs>
       <path id="DejaVuSans-50" d="M 1259 4147 
L 1259 2394 
L 2053 2394 
Q 2494 2394 2734 2622 
Q 2975 2850 2975 3272 
Q 2975 3691 2734 3919 
Q 2494 4147 2053 4147 
L 1259 4147 
z
M 628 4666 
L 2053 4666 
Q 2838 4666 3239 4311 
Q 3641 3956 3641 3272 
Q 3641 2581 3239 2228 
Q 2838 1875 2053 1875 
L 1259 1875 
L 1259 0 
L 628 0 
L 628 4666 
z
" transform="scale(0.015625)"/>
      </defs>
      <use xlink:href="#DejaVuSans-50"/>
      <use xlink:href="#DejaVuSans-72" x="58.552734"/>
      <use xlink:href="#DejaVuSans-65" x="97.416016"/>
      <use xlink:href="#DejaVuSans-6c" x="158.939453"/>
      <use xlink:href="#DejaVuSans-6f" x="186.722656"/>
      <use xlink:href="#DejaVuSans-61" x="247.904297"/>
      <use xlink:href="#DejaVuSans-64" x="309.183594"/>
      <use xlink:href="#DejaVuSans-65" x="372.660156"/>
      <use xlink:href="#DejaVuSans-64" x="434.183594"/>
      <use xlink:href="#DejaVuSans-20" x="497.660156"/>
      <use xlink:href="#DejaVuSans-44" x="529.447266"/>
      <use xlink:href="#DejaVuSans-6f" x="606.449219"/>
      <use xlink:href="#DejaVuSans-6d" x="667.630859"/>
      <use xlink:href="#DejaVuSans-61" x="765.042969"/>
      <use xlink:href="#DejaVuSans-69" x="826.322266"/>
      <use xlink:href="#DejaVuSans-6e" x="854.105469"/>
      <use xlink:href="#DejaVuSans-73" x="917.484375"/>
     </g>
    </g>
    <g id="line2d_36">
     <path d="M 226.289844 121.495625 
L 236.289844 121.495625 
L 246.289844 121.495625 
" style="fill: none; stroke: #9467bd; stroke-width: 1.5; stroke-linecap: square"/>
    </g>
    <g id="text_27">
     <!-- max-age -->
     <g transform="translate(254.289844 124.995625)scale(0.1 -0.1)">
      <defs>
       <path id="DejaVuSans-78" d="M 3513 3500 
L 2247 1797 
L 3578 0 
L 2900 0 
L 1881 1375 
L 863 0 
L 184 0 
L 1544 1831 
L 300 3500 
L 978 3500 
L 1906 2253 
L 2834 3500 
L 3513 3500 
z
" transform="scale(0.015625)"/>
      </defs>
      <use xlink:href="#DejaVuSans-6d"/>
      <use xlink:href="#DejaVuSans-61" x="97.412109"/>
      <use xlink:href="#DejaVuSans-78" x="158.691406"/>
      <use xlink:href="#DejaVuSans-2d" x="217.871094"/>
      <use xlink:href="#DejaVuSans-61" x="253.955078"/>
      <use xlink:href="#DejaVuSans-67" x="315.234375"/>
      <use xlink:href="#DejaVuSans-65" x="378.710938"/>
     </g>
    </g>
   </g>
  </g>
 </g>
 <defs>
  <clipPath id="paec0ff3954">
   <rect x="66.053125" y="7.2" width="446.4" height="171.36"/>
  </clipPath>
 </defs>
</svg>
