<?xml version="1.0" encoding="utf-8" standalone="no"?>
<!DOCTYPE svg PUBLIC "-//W3C//DTD SVG 1.1//EN"
  "http://www.w3.org/Graphics/SVG/1.1/DTD/svg11.dtd">
<svg xmlns:xlink="http://www.w3.org/1999/xlink" width="507.159131pt" height="234.086815pt" viewBox="0 0 507.159131 234.086815" xmlns="http://www.w3.org/2000/svg" version="1.1">
 <metadata>
  <rdf:RDF xmlns:dc="http://purl.org/dc/elements/1.1/" xmlns:cc="http://creativecommons.org/ns#" xmlns:rdf="http://www.w3.org/1999/02/22-rdf-syntax-ns#">
   <cc:Work>
    <dc:type rdf:resource="http://purl.org/dc/dcmitype/StillImage"/>
    <dc:date>2022-02-06T21:37:00.327090</dc:date>
    <dc:format>image/svg+xml</dc:format>
    <dc:creator>
     <cc:Agent>
      <dc:title>Matplotlib v3.5.1, https://matplotlib.org/</dc:title>
     </cc:Agent>
    </dc:creator>
   </cc:Work>
  </rdf:RDF>
 </metadata>
 <defs>
  <style type="text/css">*{stroke-linejoin: round; stroke-linecap: butt}</style>
 </defs>
 <g id="figure_1">
  <g id="patch_1">
   <path d="M 0 234.086815 
L 507.159131 234.086815 
L 507.159131 0 
L 0 0 
z
" style="fill: #ffffff"/>
  </g>
  <g id="axes_1">
   <g id="patch_2">
    <path d="M 53.559131 178.56 
L 499.959131 178.56 
L 499.959131 7.2 
L 53.559131 7.2 
z
" style="fill: #ffffff"/>
   </g>
   <g id="matplotlib.axis_1">
    <g id="xtick_1">
     <g id="line2d_1">
      <defs>
       <path id="md191561d59" d="M 0 0 
L 0 3.5 
" style="stroke: #000000; stroke-width: 0.8"/>
      </defs>
      <g>
       <use xlink:href="#md191561d59" x="68.024899" y="178.56" style="stroke: #000000; stroke-width: 0.8"/>
      </g>
     </g>
     <g id="text_1">
      <!-- 2020-Nov-01 -->
      <g transform="translate(10.999219 224.463877)rotate(-30)scale(0.1 -0.1)">
       <defs>
        <path id="DejaVuSans-32" d="M 1228 531 
L 3431 531 
L 3431 0 
L 469 0 
L 469 531 
Q 828 903 1448 1529 
Q 2069 2156 2228 2338 
Q 2531 2678 2651 2914 
Q 2772 3150 2772 3378 
Q 2772 3750 2511 3984 
Q 2250 4219 1831 4219 
Q 1534 4219 1204 4116 
Q 875 4013 500 3803 
L 500 4441 
Q 881 4594 1212 4672 
Q 1544 4750 1819 4750 
Q 2544 4750 2975 4387 
Q 3406 4025 3406 3419 
Q 3406 3131 3298 2873 
Q 3191 2616 2906 2266 
Q 2828 2175 2409 1742 
Q 1991 1309 1228 531 
z
" transform="scale(0.015625)"/>
        <path id="DejaVuSans-30" d="M 2034 4250 
Q 1547 4250 1301 3770 
Q 1056 3291 1056 2328 
Q 1056 1369 1301 889 
Q 1547 409 2034 409 
Q 2525 409 2770 889 
Q 3016 1369 3016 2328 
Q 3016 3291 2770 3770 
Q 2525 4250 2034 4250 
z
M 2034 4750 
Q 2819 4750 3233 4129 
Q 3647 3509 3647 2328 
Q 3647 1150 3233 529 
Q 2819 -91 2034 -91 
Q 1250 -91 836 529 
Q 422 1150 422 2328 
Q 422 3509 836 4129 
Q 1250 4750 2034 4750 
z
" transform="scale(0.015625)"/>
        <path id="DejaVuSans-2d" d="M 313 2009 
L 1997 2009 
L 1997 1497 
L 313 1497 
L 313 2009 
z
" transform="scale(0.015625)"/>
        <path id="DejaVuSans-4e" d="M 628 4666 
L 1478 4666 
L 3547 763 
L 3547 4666 
L 4159 4666 
L 4159 0 
L 3309 0 
L 1241 3903 
L 1241 0 
L 628 0 
L 628 4666 
z
" transform="scale(0.015625)"/>
        <path id="DejaVuSans-6f" d="M 1959 3097 
Q 1497 3097 1228 2736 
Q 959 2375 959 1747 
Q 959 1119 1226 758 
Q 1494 397 1959 397 
Q 2419 397 2687 759 
Q 2956 1122 2956 1747 
Q 2956 2369 2687 2733 
Q 2419 3097 1959 3097 
z
M 1959 3584 
Q 2709 3584 3137 3096 
Q 3566 2609 3566 1747 
Q 3566 888 3137 398 
Q 2709 -91 1959 -91 
Q 1206 -91 779 398 
Q 353 888 353 1747 
Q 353 2609 779 3096 
Q 1206 3584 1959 3584 
z
" transform="scale(0.015625)"/>
        <path id="DejaVuSans-76" d="M 191 3500 
L 800 3500 
L 1894 563 
L 2988 3500 
L 3597 3500 
L 2284 0 
L 1503 0 
L 191 3500 
z
" transform="scale(0.015625)"/>
        <path id="DejaVuSans-31" d="M 794 531 
L 1825 531 
L 1825 4091 
L 703 3866 
L 703 4441 
L 1819 4666 
L 2450 4666 
L 2450 531 
L 3481 531 
L 3481 0 
L 794 0 
L 794 531 
z
" transform="scale(0.015625)"/>
       </defs>
       <use xlink:href="#DejaVuSans-32"/>
       <use xlink:href="#DejaVuSans-30" x="63.623047"/>
       <use xlink:href="#DejaVuSans-32" x="127.246094"/>
       <use xlink:href="#DejaVuSans-30" x="190.869141"/>
       <use xlink:href="#DejaVuSans-2d" x="254.492188"/>
       <use xlink:href="#DejaVuSans-4e" x="290.576172"/>
       <use xlink:href="#DejaVuSans-6f" x="365.380859"/>
       <use xlink:href="#DejaVuSans-76" x="426.5625"/>
       <use xlink:href="#DejaVuSans-2d" x="483.117188"/>
       <use xlink:href="#DejaVuSans-30" x="519.201172"/>
       <use xlink:href="#DejaVuSans-31" x="582.824219"/>
      </g>
     </g>
    </g>
    <g id="xtick_2">
     <g id="line2d_2">
      <g>
       <use xlink:href="#md191561d59" x="97.150605" y="178.56" style="stroke: #000000; stroke-width: 0.8"/>
      </g>
     </g>
     <g id="text_2">
      <!-- 2020-Dec-01 -->
      <g transform="translate(40.042383 224.511534)rotate(-30)scale(0.1 -0.1)">
       <defs>
        <path id="DejaVuSans-44" d="M 1259 4147 
L 1259 519 
L 2022 519 
Q 2988 519 3436 956 
Q 3884 1394 3884 2338 
Q 3884 3275 3436 3711 
Q 2988 4147 2022 4147 
L 1259 4147 
z
M 628 4666 
L 1925 4666 
Q 3281 4666 3915 4102 
Q 4550 3538 4550 2338 
Q 4550 1131 3912 565 
Q 3275 0 1925 0 
L 628 0 
L 628 4666 
z
" transform="scale(0.015625)"/>
        <path id="DejaVuSans-65" d="M 3597 1894 
L 3597 1613 
L 953 1613 
Q 991 1019 1311 708 
Q 1631 397 2203 397 
Q 2534 397 2845 478 
Q 3156 559 3463 722 
L 3463 178 
Q 3153 47 2828 -22 
Q 2503 -91 2169 -91 
Q 1331 -91 842 396 
Q 353 884 353 1716 
Q 353 2575 817 3079 
Q 1281 3584 2069 3584 
Q 2775 3584 3186 3129 
Q 3597 2675 3597 1894 
z
M 3022 2063 
Q 3016 2534 2758 2815 
Q 2500 3097 2075 3097 
Q 1594 3097 1305 2825 
Q 1016 2553 972 2059 
L 3022 2063 
z
" transform="scale(0.015625)"/>
        <path id="DejaVuSans-63" d="M 3122 3366 
L 3122 2828 
Q 2878 2963 2633 3030 
Q 2388 3097 2138 3097 
Q 1578 3097 1268 2742 
Q 959 2388 959 1747 
Q 959 1106 1268 751 
Q 1578 397 2138 397 
Q 2388 397 2633 464 
Q 2878 531 3122 666 
L 3122 134 
Q 2881 22 2623 -34 
Q 2366 -91 2075 -91 
Q 1284 -91 818 406 
Q 353 903 353 1747 
Q 353 2603 823 3093 
Q 1294 3584 2113 3584 
Q 2378 3584 2631 3529 
Q 2884 3475 3122 3366 
z
" transform="scale(0.015625)"/>
       </defs>
       <use xlink:href="#DejaVuSans-32"/>
       <use xlink:href="#DejaVuSans-30" x="63.623047"/>
       <use xlink:href="#DejaVuSans-32" x="127.246094"/>
       <use xlink:href="#DejaVuSans-30" x="190.869141"/>
       <use xlink:href="#DejaVuSans-2d" x="254.492188"/>
       <use xlink:href="#DejaVuSans-44" x="290.576172"/>
       <use xlink:href="#DejaVuSans-65" x="367.578125"/>
       <use xlink:href="#DejaVuSans-63" x="429.101562"/>
       <use xlink:href="#DejaVuSans-2d" x="484.082031"/>
       <use xlink:href="#DejaVuSans-30" x="520.166016"/>
       <use xlink:href="#DejaVuSans-31" x="583.789062"/>
      </g>
     </g>
    </g>
    <g id="xtick_3">
     <g id="line2d_3">
      <g>
       <use xlink:href="#md191561d59" x="127.247169" y="178.56" style="stroke: #000000; stroke-width: 0.8"/>
      </g>
     </g>
     <g id="text_3">
      <!-- 2021-Jan-01 -->
      <g transform="translate(73.060429 222.824815)rotate(-30)scale(0.1 -0.1)">
       <defs>
        <path id="DejaVuSans-4a" d="M 628 4666 
L 1259 4666 
L 1259 325 
Q 1259 -519 939 -900 
Q 619 -1281 -91 -1281 
L -331 -1281 
L -331 -750 
L -134 -750 
Q 284 -750 456 -515 
Q 628 -281 628 325 
L 628 4666 
z
" transform="scale(0.015625)"/>
        <path id="DejaVuSans-61" d="M 2194 1759 
Q 1497 1759 1228 1600 
Q 959 1441 959 1056 
Q 959 750 1161 570 
Q 1363 391 1709 391 
Q 2188 391 2477 730 
Q 2766 1069 2766 1631 
L 2766 1759 
L 2194 1759 
z
M 3341 1997 
L 3341 0 
L 2766 0 
L 2766 531 
Q 2569 213 2275 61 
Q 1981 -91 1556 -91 
Q 1019 -91 701 211 
Q 384 513 384 1019 
Q 384 1609 779 1909 
Q 1175 2209 1959 2209 
L 2766 2209 
L 2766 2266 
Q 2766 2663 2505 2880 
Q 2244 3097 1772 3097 
Q 1472 3097 1187 3025 
Q 903 2953 641 2809 
L 641 3341 
Q 956 3463 1253 3523 
Q 1550 3584 1831 3584 
Q 2591 3584 2966 3190 
Q 3341 2797 3341 1997 
z
" transform="scale(0.015625)"/>
        <path id="DejaVuSans-6e" d="M 3513 2113 
L 3513 0 
L 2938 0 
L 2938 2094 
Q 2938 2591 2744 2837 
Q 2550 3084 2163 3084 
Q 1697 3084 1428 2787 
Q 1159 2491 1159 1978 
L 1159 0 
L 581 0 
L 581 3500 
L 1159 3500 
L 1159 2956 
Q 1366 3272 1645 3428 
Q 1925 3584 2291 3584 
Q 2894 3584 3203 3211 
Q 3513 2838 3513 2113 
z
" transform="scale(0.015625)"/>
       </defs>
       <use xlink:href="#DejaVuSans-32"/>
       <use xlink:href="#DejaVuSans-30" x="63.623047"/>
       <use xlink:href="#DejaVuSans-32" x="127.246094"/>
       <use xlink:href="#DejaVuSans-31" x="190.869141"/>
       <use xlink:href="#DejaVuSans-2d" x="254.492188"/>
       <use xlink:href="#DejaVuSans-4a" x="296.201172"/>
       <use xlink:href="#DejaVuSans-61" x="325.693359"/>
       <use xlink:href="#DejaVuSans-6e" x="386.972656"/>
       <use xlink:href="#DejaVuSans-2d" x="450.351562"/>
       <use xlink:href="#DejaVuSans-30" x="486.435547"/>
       <use xlink:href="#DejaVuSans-31" x="550.058594"/>
      </g>
     </g>
    </g>
    <g id="xtick_4">
     <g id="line2d_4">
      <g>
       <use xlink:href="#md191561d59" x="157.343733" y="178.56" style="stroke: #000000; stroke-width: 0.8"/>
      </g>
     </g>
     <g id="text_4">
      <!-- 2021-Feb-01 -->
      <g transform="translate(101.663099 223.687315)rotate(-30)scale(0.1 -0.1)">
       <defs>
        <path id="DejaVuSans-46" d="M 628 4666 
L 3309 4666 
L 3309 4134 
L 1259 4134 
L 1259 2759 
L 3109 2759 
L 3109 2228 
L 1259 2228 
L 1259 0 
L 628 0 
L 628 4666 
z
" transform="scale(0.015625)"/>
        <path id="DejaVuSans-62" d="M 3116 1747 
Q 3116 2381 2855 2742 
Q 2594 3103 2138 3103 
Q 1681 3103 1420 2742 
Q 1159 2381 1159 1747 
Q 1159 1113 1420 752 
Q 1681 391 2138 391 
Q 2594 391 2855 752 
Q 3116 1113 3116 1747 
z
M 1159 2969 
Q 1341 3281 1617 3432 
Q 1894 3584 2278 3584 
Q 2916 3584 3314 3078 
Q 3713 2572 3713 1747 
Q 3713 922 3314 415 
Q 2916 -91 2278 -91 
Q 1894 -91 1617 61 
Q 1341 213 1159 525 
L 1159 0 
L 581 0 
L 581 4863 
L 1159 4863 
L 1159 2969 
z
" transform="scale(0.015625)"/>
       </defs>
       <use xlink:href="#DejaVuSans-32"/>
       <use xlink:href="#DejaVuSans-30" x="63.623047"/>
       <use xlink:href="#DejaVuSans-32" x="127.246094"/>
       <use xlink:href="#DejaVuSans-31" x="190.869141"/>
       <use xlink:href="#DejaVuSans-2d" x="254.492188"/>
       <use xlink:href="#DejaVuSans-46" x="290.576172"/>
       <use xlink:href="#DejaVuSans-65" x="342.595703"/>
       <use xlink:href="#DejaVuSans-62" x="404.119141"/>
       <use xlink:href="#DejaVuSans-2d" x="467.595703"/>
       <use xlink:href="#DejaVuSans-30" x="503.679688"/>
       <use xlink:href="#DejaVuSans-31" x="567.302734"/>
      </g>
     </g>
    </g>
    <g id="xtick_5">
     <g id="line2d_5">
      <g>
       <use xlink:href="#md191561d59" x="184.527726" y="178.56" style="stroke: #000000; stroke-width: 0.8"/>
      </g>
     </g>
     <g id="text_5">
      <!-- 2021-Mar-01 -->
      <g transform="translate(128.391075 223.950596)rotate(-30)scale(0.1 -0.1)">
       <defs>
        <path id="DejaVuSans-4d" d="M 628 4666 
L 1569 4666 
L 2759 1491 
L 3956 4666 
L 4897 4666 
L 4897 0 
L 4281 0 
L 4281 4097 
L 3078 897 
L 2444 897 
L 1241 4097 
L 1241 0 
L 628 0 
L 628 4666 
z
" transform="scale(0.015625)"/>
        <path id="DejaVuSans-72" d="M 2631 2963 
Q 2534 3019 2420 3045 
Q 2306 3072 2169 3072 
Q 1681 3072 1420 2755 
Q 1159 2438 1159 1844 
L 1159 0 
L 581 0 
L 581 3500 
L 1159 3500 
L 1159 2956 
Q 1341 3275 1631 3429 
Q 1922 3584 2338 3584 
Q 2397 3584 2469 3576 
Q 2541 3569 2628 3553 
L 2631 2963 
z
" transform="scale(0.015625)"/>
       </defs>
       <use xlink:href="#DejaVuSans-32"/>
       <use xlink:href="#DejaVuSans-30" x="63.623047"/>
       <use xlink:href="#DejaVuSans-32" x="127.246094"/>
       <use xlink:href="#DejaVuSans-31" x="190.869141"/>
       <use xlink:href="#DejaVuSans-2d" x="254.492188"/>
       <use xlink:href="#DejaVuSans-4d" x="290.576172"/>
       <use xlink:href="#DejaVuSans-61" x="376.855469"/>
       <use xlink:href="#DejaVuSans-72" x="438.134766"/>
       <use xlink:href="#DejaVuSans-2d" x="472.873047"/>
       <use xlink:href="#DejaVuSans-30" x="508.957031"/>
       <use xlink:href="#DejaVuSans-31" x="572.580078"/>
      </g>
     </g>
    </g>
    <g id="xtick_6">
     <g id="line2d_6">
      <g>
       <use xlink:href="#md191561d59" x="214.62429" y="178.56" style="stroke: #000000; stroke-width: 0.8"/>
      </g>
     </g>
     <g id="text_6">
      <!-- 2021-Apr-01 -->
      <g transform="translate(160.039719 223.054502)rotate(-30)scale(0.1 -0.1)">
       <defs>
        <path id="DejaVuSans-41" d="M 2188 4044 
L 1331 1722 
L 3047 1722 
L 2188 4044 
z
M 1831 4666 
L 2547 4666 
L 4325 0 
L 3669 0 
L 3244 1197 
L 1141 1197 
L 716 0 
L 50 0 
L 1831 4666 
z
" transform="scale(0.015625)"/>
        <path id="DejaVuSans-70" d="M 1159 525 
L 1159 -1331 
L 581 -1331 
L 581 3500 
L 1159 3500 
L 1159 2969 
Q 1341 3281 1617 3432 
Q 1894 3584 2278 3584 
Q 2916 3584 3314 3078 
Q 3713 2572 3713 1747 
Q 3713 922 3314 415 
Q 2916 -91 2278 -91 
Q 1894 -91 1617 61 
Q 1341 213 1159 525 
z
M 3116 1747 
Q 3116 2381 2855 2742 
Q 2594 3103 2138 3103 
Q 1681 3103 1420 2742 
Q 1159 2381 1159 1747 
Q 1159 1113 1420 752 
Q 1681 391 2138 391 
Q 2594 391 2855 752 
Q 3116 1113 3116 1747 
z
" transform="scale(0.015625)"/>
       </defs>
       <use xlink:href="#DejaVuSans-32"/>
       <use xlink:href="#DejaVuSans-30" x="63.623047"/>
       <use xlink:href="#DejaVuSans-32" x="127.246094"/>
       <use xlink:href="#DejaVuSans-31" x="190.869141"/>
       <use xlink:href="#DejaVuSans-2d" x="254.492188"/>
       <use xlink:href="#DejaVuSans-41" x="288.326172"/>
       <use xlink:href="#DejaVuSans-70" x="356.734375"/>
       <use xlink:href="#DejaVuSans-72" x="420.210938"/>
       <use xlink:href="#DejaVuSans-2d" x="454.949219"/>
       <use xlink:href="#DejaVuSans-30" x="491.033203"/>
       <use xlink:href="#DejaVuSans-31" x="554.65625"/>
      </g>
     </g>
    </g>
    <g id="xtick_7">
     <g id="line2d_7">
      <g>
       <use xlink:href="#md191561d59" x="243.749996" y="178.56" style="stroke: #000000; stroke-width: 0.8"/>
      </g>
     </g>
     <g id="text_7">
      <!-- 2021-May-01 -->
      <g transform="translate(185.647198 225.085752)rotate(-30)scale(0.1 -0.1)">
       <defs>
        <path id="DejaVuSans-79" d="M 2059 -325 
Q 1816 -950 1584 -1140 
Q 1353 -1331 966 -1331 
L 506 -1331 
L 506 -850 
L 844 -850 
Q 1081 -850 1212 -737 
Q 1344 -625 1503 -206 
L 1606 56 
L 191 3500 
L 800 3500 
L 1894 763 
L 2988 3500 
L 3597 3500 
L 2059 -325 
z
" transform="scale(0.015625)"/>
       </defs>
       <use xlink:href="#DejaVuSans-32"/>
       <use xlink:href="#DejaVuSans-30" x="63.623047"/>
       <use xlink:href="#DejaVuSans-32" x="127.246094"/>
       <use xlink:href="#DejaVuSans-31" x="190.869141"/>
       <use xlink:href="#DejaVuSans-2d" x="254.492188"/>
       <use xlink:href="#DejaVuSans-4d" x="290.576172"/>
       <use xlink:href="#DejaVuSans-61" x="376.855469"/>
       <use xlink:href="#DejaVuSans-79" x="438.134766"/>
       <use xlink:href="#DejaVuSans-2d" x="495.564453"/>
       <use xlink:href="#DejaVuSans-30" x="531.648438"/>
       <use xlink:href="#DejaVuSans-31" x="595.271484"/>
      </g>
     </g>
    </g>
    <g id="xtick_8">
     <g id="line2d_8">
      <g>
       <use xlink:href="#md191561d59" x="273.84656" y="178.56" style="stroke: #000000; stroke-width: 0.8"/>
      </g>
     </g>
     <g id="text_8">
      <!-- 2021-Jun-01 -->
      <g transform="translate(219.478496 222.929502)rotate(-30)scale(0.1 -0.1)">
       <defs>
        <path id="DejaVuSans-75" d="M 544 1381 
L 544 3500 
L 1119 3500 
L 1119 1403 
Q 1119 906 1312 657 
Q 1506 409 1894 409 
Q 2359 409 2629 706 
Q 2900 1003 2900 1516 
L 2900 3500 
L 3475 3500 
L 3475 0 
L 2900 0 
L 2900 538 
Q 2691 219 2414 64 
Q 2138 -91 1772 -91 
Q 1169 -91 856 284 
Q 544 659 544 1381 
z
M 1991 3584 
L 1991 3584 
z
" transform="scale(0.015625)"/>
       </defs>
       <use xlink:href="#DejaVuSans-32"/>
       <use xlink:href="#DejaVuSans-30" x="63.623047"/>
       <use xlink:href="#DejaVuSans-32" x="127.246094"/>
       <use xlink:href="#DejaVuSans-31" x="190.869141"/>
       <use xlink:href="#DejaVuSans-2d" x="254.492188"/>
       <use xlink:href="#DejaVuSans-4a" x="296.201172"/>
       <use xlink:href="#DejaVuSans-75" x="325.693359"/>
       <use xlink:href="#DejaVuSans-6e" x="389.072266"/>
       <use xlink:href="#DejaVuSans-2d" x="452.451172"/>
       <use xlink:href="#DejaVuSans-30" x="488.535156"/>
       <use xlink:href="#DejaVuSans-31" x="552.158203"/>
      </g>
     </g>
    </g>
    <g id="xtick_9">
     <g id="line2d_9">
      <g>
       <use xlink:href="#md191561d59" x="302.972267" y="178.56" style="stroke: #000000; stroke-width: 0.8"/>
      </g>
     </g>
     <g id="text_9">
      <!-- 2021-Jul-01 -->
      <g transform="translate(251.686712 221.149815)rotate(-30)scale(0.1 -0.1)">
       <defs>
        <path id="DejaVuSans-6c" d="M 603 4863 
L 1178 4863 
L 1178 0 
L 603 0 
L 603 4863 
z
" transform="scale(0.015625)"/>
       </defs>
       <use xlink:href="#DejaVuSans-32"/>
       <use xlink:href="#DejaVuSans-30" x="63.623047"/>
       <use xlink:href="#DejaVuSans-32" x="127.246094"/>
       <use xlink:href="#DejaVuSans-31" x="190.869141"/>
       <use xlink:href="#DejaVuSans-2d" x="254.492188"/>
       <use xlink:href="#DejaVuSans-4a" x="296.201172"/>
       <use xlink:href="#DejaVuSans-75" x="325.693359"/>
       <use xlink:href="#DejaVuSans-6c" x="389.072266"/>
       <use xlink:href="#DejaVuSans-2d" x="416.855469"/>
       <use xlink:href="#DejaVuSans-30" x="452.939453"/>
       <use xlink:href="#DejaVuSans-31" x="516.5625"/>
      </g>
     </g>
    </g>
    <g id="xtick_10">
     <g id="line2d_10">
      <g>
       <use xlink:href="#md191561d59" x="333.068831" y="178.56" style="stroke: #000000; stroke-width: 0.8"/>
      </g>
     </g>
     <g id="text_10">
      <!-- 2021-Aug-01 -->
      <g transform="translate(276.003909 224.486534)rotate(-30)scale(0.1 -0.1)">
       <defs>
        <path id="DejaVuSans-67" d="M 2906 1791 
Q 2906 2416 2648 2759 
Q 2391 3103 1925 3103 
Q 1463 3103 1205 2759 
Q 947 2416 947 1791 
Q 947 1169 1205 825 
Q 1463 481 1925 481 
Q 2391 481 2648 825 
Q 2906 1169 2906 1791 
z
M 3481 434 
Q 3481 -459 3084 -895 
Q 2688 -1331 1869 -1331 
Q 1566 -1331 1297 -1286 
Q 1028 -1241 775 -1147 
L 775 -588 
Q 1028 -725 1275 -790 
Q 1522 -856 1778 -856 
Q 2344 -856 2625 -561 
Q 2906 -266 2906 331 
L 2906 616 
Q 2728 306 2450 153 
Q 2172 0 1784 0 
Q 1141 0 747 490 
Q 353 981 353 1791 
Q 353 2603 747 3093 
Q 1141 3584 1784 3584 
Q 2172 3584 2450 3431 
Q 2728 3278 2906 2969 
L 2906 3500 
L 3481 3500 
L 3481 434 
z
" transform="scale(0.015625)"/>
       </defs>
       <use xlink:href="#DejaVuSans-32"/>
       <use xlink:href="#DejaVuSans-30" x="63.623047"/>
       <use xlink:href="#DejaVuSans-32" x="127.246094"/>
       <use xlink:href="#DejaVuSans-31" x="190.869141"/>
       <use xlink:href="#DejaVuSans-2d" x="254.492188"/>
       <use xlink:href="#DejaVuSans-41" x="288.326172"/>
       <use xlink:href="#DejaVuSans-75" x="356.734375"/>
       <use xlink:href="#DejaVuSans-67" x="420.113281"/>
       <use xlink:href="#DejaVuSans-2d" x="483.589844"/>
       <use xlink:href="#DejaVuSans-30" x="519.673828"/>
       <use xlink:href="#DejaVuSans-31" x="583.296875"/>
      </g>
     </g>
    </g>
    <g id="xtick_11">
     <g id="line2d_11">
      <g>
       <use xlink:href="#md191561d59" x="363.165394" y="178.56" style="stroke: #000000; stroke-width: 0.8"/>
      </g>
     </g>
     <g id="text_11">
      <!-- 2021-Sep-01 -->
      <g transform="translate(306.491537 224.260752)rotate(-30)scale(0.1 -0.1)">
       <defs>
        <path id="DejaVuSans-53" d="M 3425 4513 
L 3425 3897 
Q 3066 4069 2747 4153 
Q 2428 4238 2131 4238 
Q 1616 4238 1336 4038 
Q 1056 3838 1056 3469 
Q 1056 3159 1242 3001 
Q 1428 2844 1947 2747 
L 2328 2669 
Q 3034 2534 3370 2195 
Q 3706 1856 3706 1288 
Q 3706 609 3251 259 
Q 2797 -91 1919 -91 
Q 1588 -91 1214 -16 
Q 841 59 441 206 
L 441 856 
Q 825 641 1194 531 
Q 1563 422 1919 422 
Q 2459 422 2753 634 
Q 3047 847 3047 1241 
Q 3047 1584 2836 1778 
Q 2625 1972 2144 2069 
L 1759 2144 
Q 1053 2284 737 2584 
Q 422 2884 422 3419 
Q 422 4038 858 4394 
Q 1294 4750 2059 4750 
Q 2388 4750 2728 4690 
Q 3069 4631 3425 4513 
z
" transform="scale(0.015625)"/>
       </defs>
       <use xlink:href="#DejaVuSans-32"/>
       <use xlink:href="#DejaVuSans-30" x="63.623047"/>
       <use xlink:href="#DejaVuSans-32" x="127.246094"/>
       <use xlink:href="#DejaVuSans-31" x="190.869141"/>
       <use xlink:href="#DejaVuSans-2d" x="254.492188"/>
       <use xlink:href="#DejaVuSans-53" x="290.576172"/>
       <use xlink:href="#DejaVuSans-65" x="354.052734"/>
       <use xlink:href="#DejaVuSans-70" x="415.576172"/>
       <use xlink:href="#DejaVuSans-2d" x="479.052734"/>
       <use xlink:href="#DejaVuSans-30" x="515.136719"/>
       <use xlink:href="#DejaVuSans-31" x="578.759766"/>
      </g>
     </g>
    </g>
    <g id="xtick_12">
     <g id="line2d_12">
      <g>
       <use xlink:href="#md191561d59" x="392.291101" y="178.56" style="stroke: #000000; stroke-width: 0.8"/>
      </g>
     </g>
     <g id="text_12">
      <!-- 2021-Oct-01 -->
      <g transform="translate(336.729546 223.618565)rotate(-30)scale(0.1 -0.1)">
       <defs>
        <path id="DejaVuSans-4f" d="M 2522 4238 
Q 1834 4238 1429 3725 
Q 1025 3213 1025 2328 
Q 1025 1447 1429 934 
Q 1834 422 2522 422 
Q 3209 422 3611 934 
Q 4013 1447 4013 2328 
Q 4013 3213 3611 3725 
Q 3209 4238 2522 4238 
z
M 2522 4750 
Q 3503 4750 4090 4092 
Q 4678 3434 4678 2328 
Q 4678 1225 4090 567 
Q 3503 -91 2522 -91 
Q 1538 -91 948 565 
Q 359 1222 359 2328 
Q 359 3434 948 4092 
Q 1538 4750 2522 4750 
z
" transform="scale(0.015625)"/>
        <path id="DejaVuSans-74" d="M 1172 4494 
L 1172 3500 
L 2356 3500 
L 2356 3053 
L 1172 3053 
L 1172 1153 
Q 1172 725 1289 603 
Q 1406 481 1766 481 
L 2356 481 
L 2356 0 
L 1766 0 
Q 1100 0 847 248 
Q 594 497 594 1153 
L 594 3053 
L 172 3053 
L 172 3500 
L 594 3500 
L 594 4494 
L 1172 4494 
z
" transform="scale(0.015625)"/>
       </defs>
       <use xlink:href="#DejaVuSans-32"/>
       <use xlink:href="#DejaVuSans-30" x="63.623047"/>
       <use xlink:href="#DejaVuSans-32" x="127.246094"/>
       <use xlink:href="#DejaVuSans-31" x="190.869141"/>
       <use xlink:href="#DejaVuSans-2d" x="254.492188"/>
       <use xlink:href="#DejaVuSans-4f" x="293.326172"/>
       <use xlink:href="#DejaVuSans-63" x="372.037109"/>
       <use xlink:href="#DejaVuSans-74" x="427.017578"/>
       <use xlink:href="#DejaVuSans-2d" x="466.226562"/>
       <use xlink:href="#DejaVuSans-30" x="502.310547"/>
       <use xlink:href="#DejaVuSans-31" x="565.933594"/>
      </g>
     </g>
    </g>
    <g id="xtick_13">
     <g id="line2d_13">
      <g>
       <use xlink:href="#md191561d59" x="422.387665" y="178.56" style="stroke: #000000; stroke-width: 0.8"/>
      </g>
     </g>
     <g id="text_13">
      <!-- 2021-Nov-01 -->
      <g transform="translate(365.361985 224.463877)rotate(-30)scale(0.1 -0.1)">
       <use xlink:href="#DejaVuSans-32"/>
       <use xlink:href="#DejaVuSans-30" x="63.623047"/>
       <use xlink:href="#DejaVuSans-32" x="127.246094"/>
       <use xlink:href="#DejaVuSans-31" x="190.869141"/>
       <use xlink:href="#DejaVuSans-2d" x="254.492188"/>
       <use xlink:href="#DejaVuSans-4e" x="290.576172"/>
       <use xlink:href="#DejaVuSans-6f" x="365.380859"/>
       <use xlink:href="#DejaVuSans-76" x="426.5625"/>
       <use xlink:href="#DejaVuSans-2d" x="483.117188"/>
       <use xlink:href="#DejaVuSans-30" x="519.201172"/>
       <use xlink:href="#DejaVuSans-31" x="582.824219"/>
      </g>
     </g>
    </g>
    <g id="xtick_14">
     <g id="line2d_14">
      <g>
       <use xlink:href="#md191561d59" x="451.513372" y="178.56" style="stroke: #000000; stroke-width: 0.8"/>
      </g>
     </g>
     <g id="text_14">
      <!-- 2021-Dec-01 -->
      <g transform="translate(394.405149 224.511534)rotate(-30)scale(0.1 -0.1)">
       <use xlink:href="#DejaVuSans-32"/>
       <use xlink:href="#DejaVuSans-30" x="63.623047"/>
       <use xlink:href="#DejaVuSans-32" x="127.246094"/>
       <use xlink:href="#DejaVuSans-31" x="190.869141"/>
       <use xlink:href="#DejaVuSans-2d" x="254.492188"/>
       <use xlink:href="#DejaVuSans-44" x="290.576172"/>
       <use xlink:href="#DejaVuSans-65" x="367.578125"/>
       <use xlink:href="#DejaVuSans-63" x="429.101562"/>
       <use xlink:href="#DejaVuSans-2d" x="484.082031"/>
       <use xlink:href="#DejaVuSans-30" x="520.166016"/>
       <use xlink:href="#DejaVuSans-31" x="583.789062"/>
      </g>
     </g>
    </g>
    <g id="xtick_15">
     <g id="line2d_15">
      <g>
       <use xlink:href="#md191561d59" x="481.609935" y="178.56" style="stroke: #000000; stroke-width: 0.8"/>
      </g>
     </g>
     <g id="text_15">
      <!-- 2022-Jan-01 -->
      <g transform="translate(427.423195 222.824815)rotate(-30)scale(0.1 -0.1)">
       <use xlink:href="#DejaVuSans-32"/>
       <use xlink:href="#DejaVuSans-30" x="63.623047"/>
       <use xlink:href="#DejaVuSans-32" x="127.246094"/>
       <use xlink:href="#DejaVuSans-32" x="190.869141"/>
       <use xlink:href="#DejaVuSans-2d" x="254.492188"/>
       <use xlink:href="#DejaVuSans-4a" x="296.201172"/>
       <use xlink:href="#DejaVuSans-61" x="325.693359"/>
       <use xlink:href="#DejaVuSans-6e" x="386.972656"/>
       <use xlink:href="#DejaVuSans-2d" x="450.351562"/>
       <use xlink:href="#DejaVuSans-30" x="486.435547"/>
       <use xlink:href="#DejaVuSans-31" x="550.058594"/>
      </g>
     </g>
    </g>
   </g>
   <g id="matplotlib.axis_2">
    <g id="ytick_1">
     <g id="line2d_16">
      <path d="M 53.559131 171.026289 
L 499.959131 171.026289 
" clip-path="url(#p061301c857)" style="fill: none; stroke: #b0b0b0; stroke-width: 0.8; stroke-linecap: square"/>
     </g>
     <g id="line2d_17">
      <defs>
       <path id="ma592c4a994" d="M 0 0 
L -3.5 0 
" style="stroke: #000000; stroke-width: 0.8"/>
      </defs>
      <g>
       <use xlink:href="#ma592c4a994" x="53.559131" y="171.026289" style="stroke: #000000; stroke-width: 0.8"/>
      </g>
     </g>
     <g id="text_16">
      <!-- 0 -->
      <g transform="translate(40.196631 174.825508)scale(0.1 -0.1)">
       <use xlink:href="#DejaVuSans-30"/>
      </g>
     </g>
    </g>
    <g id="ytick_2">
     <g id="line2d_18">
      <path d="M 53.559131 145.488286 
L 499.959131 145.488286 
" clip-path="url(#p061301c857)" style="fill: none; stroke: #b0b0b0; stroke-width: 0.8; stroke-linecap: square"/>
     </g>
     <g id="line2d_19">
      <g>
       <use xlink:href="#ma592c4a994" x="53.559131" y="145.488286" style="stroke: #000000; stroke-width: 0.8"/>
      </g>
     </g>
     <g id="text_17">
      <!-- 200 -->
      <g transform="translate(27.471631 149.287505)scale(0.1 -0.1)">
       <use xlink:href="#DejaVuSans-32"/>
       <use xlink:href="#DejaVuSans-30" x="63.623047"/>
       <use xlink:href="#DejaVuSans-30" x="127.246094"/>
      </g>
     </g>
    </g>
    <g id="ytick_3">
     <g id="line2d_20">
      <path d="M 53.559131 119.950283 
L 499.959131 119.950283 
" clip-path="url(#p061301c857)" style="fill: none; stroke: #b0b0b0; stroke-width: 0.8; stroke-linecap: square"/>
     </g>
     <g id="line2d_21">
      <g>
       <use xlink:href="#ma592c4a994" x="53.559131" y="119.950283" style="stroke: #000000; stroke-width: 0.8"/>
      </g>
     </g>
     <g id="text_18">
      <!-- 400 -->
      <g transform="translate(27.471631 123.749502)scale(0.1 -0.1)">
       <defs>
        <path id="DejaVuSans-34" d="M 2419 4116 
L 825 1625 
L 2419 1625 
L 2419 4116 
z
M 2253 4666 
L 3047 4666 
L 3047 1625 
L 3713 1625 
L 3713 1100 
L 3047 1100 
L 3047 0 
L 2419 0 
L 2419 1100 
L 313 1100 
L 313 1709 
L 2253 4666 
z
" transform="scale(0.015625)"/>
       </defs>
       <use xlink:href="#DejaVuSans-34"/>
       <use xlink:href="#DejaVuSans-30" x="63.623047"/>
       <use xlink:href="#DejaVuSans-30" x="127.246094"/>
      </g>
     </g>
    </g>
    <g id="ytick_4">
     <g id="line2d_22">
      <path d="M 53.559131 94.41228 
L 499.959131 94.41228 
" clip-path="url(#p061301c857)" style="fill: none; stroke: #b0b0b0; stroke-width: 0.8; stroke-linecap: square"/>
     </g>
     <g id="line2d_23">
      <g>
       <use xlink:href="#ma592c4a994" x="53.559131" y="94.41228" style="stroke: #000000; stroke-width: 0.8"/>
      </g>
     </g>
     <g id="text_19">
      <!-- 600 -->
      <g transform="translate(27.471631 98.211499)scale(0.1 -0.1)">
       <defs>
        <path id="DejaVuSans-36" d="M 2113 2584 
Q 1688 2584 1439 2293 
Q 1191 2003 1191 1497 
Q 1191 994 1439 701 
Q 1688 409 2113 409 
Q 2538 409 2786 701 
Q 3034 994 3034 1497 
Q 3034 2003 2786 2293 
Q 2538 2584 2113 2584 
z
M 3366 4563 
L 3366 3988 
Q 3128 4100 2886 4159 
Q 2644 4219 2406 4219 
Q 1781 4219 1451 3797 
Q 1122 3375 1075 2522 
Q 1259 2794 1537 2939 
Q 1816 3084 2150 3084 
Q 2853 3084 3261 2657 
Q 3669 2231 3669 1497 
Q 3669 778 3244 343 
Q 2819 -91 2113 -91 
Q 1303 -91 875 529 
Q 447 1150 447 2328 
Q 447 3434 972 4092 
Q 1497 4750 2381 4750 
Q 2619 4750 2861 4703 
Q 3103 4656 3366 4563 
z
" transform="scale(0.015625)"/>
       </defs>
       <use xlink:href="#DejaVuSans-36"/>
       <use xlink:href="#DejaVuSans-30" x="63.623047"/>
       <use xlink:href="#DejaVuSans-30" x="127.246094"/>
      </g>
     </g>
    </g>
    <g id="ytick_5">
     <g id="line2d_24">
      <path d="M 53.559131 68.874277 
L 499.959131 68.874277 
" clip-path="url(#p061301c857)" style="fill: none; stroke: #b0b0b0; stroke-width: 0.8; stroke-linecap: square"/>
     </g>
     <g id="line2d_25">
      <g>
       <use xlink:href="#ma592c4a994" x="53.559131" y="68.874277" style="stroke: #000000; stroke-width: 0.8"/>
      </g>
     </g>
     <g id="text_20">
      <!-- 800 -->
      <g transform="translate(27.471631 72.673496)scale(0.1 -0.1)">
       <defs>
        <path id="DejaVuSans-38" d="M 2034 2216 
Q 1584 2216 1326 1975 
Q 1069 1734 1069 1313 
Q 1069 891 1326 650 
Q 1584 409 2034 409 
Q 2484 409 2743 651 
Q 3003 894 3003 1313 
Q 3003 1734 2745 1975 
Q 2488 2216 2034 2216 
z
M 1403 2484 
Q 997 2584 770 2862 
Q 544 3141 544 3541 
Q 544 4100 942 4425 
Q 1341 4750 2034 4750 
Q 2731 4750 3128 4425 
Q 3525 4100 3525 3541 
Q 3525 3141 3298 2862 
Q 3072 2584 2669 2484 
Q 3125 2378 3379 2068 
Q 3634 1759 3634 1313 
Q 3634 634 3220 271 
Q 2806 -91 2034 -91 
Q 1263 -91 848 271 
Q 434 634 434 1313 
Q 434 1759 690 2068 
Q 947 2378 1403 2484 
z
M 1172 3481 
Q 1172 3119 1398 2916 
Q 1625 2713 2034 2713 
Q 2441 2713 2670 2916 
Q 2900 3119 2900 3481 
Q 2900 3844 2670 4047 
Q 2441 4250 2034 4250 
Q 1625 4250 1398 4047 
Q 1172 3844 1172 3481 
z
" transform="scale(0.015625)"/>
       </defs>
       <use xlink:href="#DejaVuSans-38"/>
       <use xlink:href="#DejaVuSans-30" x="63.623047"/>
       <use xlink:href="#DejaVuSans-30" x="127.246094"/>
      </g>
     </g>
    </g>
    <g id="ytick_6">
     <g id="line2d_26">
      <path d="M 53.559131 43.336274 
L 499.959131 43.336274 
" clip-path="url(#p061301c857)" style="fill: none; stroke: #b0b0b0; stroke-width: 0.8; stroke-linecap: square"/>
     </g>
     <g id="line2d_27">
      <g>
       <use xlink:href="#ma592c4a994" x="53.559131" y="43.336274" style="stroke: #000000; stroke-width: 0.8"/>
      </g>
     </g>
     <g id="text_21">
      <!-- 1000 -->
      <g transform="translate(21.109131 47.135493)scale(0.1 -0.1)">
       <use xlink:href="#DejaVuSans-31"/>
       <use xlink:href="#DejaVuSans-30" x="63.623047"/>
       <use xlink:href="#DejaVuSans-30" x="127.246094"/>
       <use xlink:href="#DejaVuSans-30" x="190.869141"/>
      </g>
     </g>
    </g>
    <g id="ytick_7">
     <g id="line2d_28">
      <path d="M 53.559131 17.798271 
L 499.959131 17.798271 
" clip-path="url(#p061301c857)" style="fill: none; stroke: #b0b0b0; stroke-width: 0.8; stroke-linecap: square"/>
     </g>
     <g id="line2d_29">
      <g>
       <use xlink:href="#ma592c4a994" x="53.559131" y="17.798271" style="stroke: #000000; stroke-width: 0.8"/>
      </g>
     </g>
     <g id="text_22">
      <!-- 1200 -->
      <g transform="translate(21.109131 21.59749)scale(0.1 -0.1)">
       <use xlink:href="#DejaVuSans-31"/>
       <use xlink:href="#DejaVuSans-32" x="63.623047"/>
       <use xlink:href="#DejaVuSans-30" x="127.246094"/>
       <use xlink:href="#DejaVuSans-30" x="190.869141"/>
      </g>
     </g>
    </g>
    <g id="text_23">
     <!-- Number of Domains -->
     <g transform="translate(15.029443 142.969844)rotate(-90)scale(0.1 -0.1)">
      <defs>
       <path id="DejaVuSans-6d" d="M 3328 2828 
Q 3544 3216 3844 3400 
Q 4144 3584 4550 3584 
Q 5097 3584 5394 3201 
Q 5691 2819 5691 2113 
L 5691 0 
L 5113 0 
L 5113 2094 
Q 5113 2597 4934 2840 
Q 4756 3084 4391 3084 
Q 3944 3084 3684 2787 
Q 3425 2491 3425 1978 
L 3425 0 
L 2847 0 
L 2847 2094 
Q 2847 2600 2669 2842 
Q 2491 3084 2119 3084 
Q 1678 3084 1418 2786 
Q 1159 2488 1159 1978 
L 1159 0 
L 581 0 
L 581 3500 
L 1159 3500 
L 1159 2956 
Q 1356 3278 1631 3431 
Q 1906 3584 2284 3584 
Q 2666 3584 2933 3390 
Q 3200 3197 3328 2828 
z
" transform="scale(0.015625)"/>
       <path id="DejaVuSans-20" transform="scale(0.015625)"/>
       <path id="DejaVuSans-66" d="M 2375 4863 
L 2375 4384 
L 1825 4384 
Q 1516 4384 1395 4259 
Q 1275 4134 1275 3809 
L 1275 3500 
L 2222 3500 
L 2222 3053 
L 1275 3053 
L 1275 0 
L 697 0 
L 697 3053 
L 147 3053 
L 147 3500 
L 697 3500 
L 697 3744 
Q 697 4328 969 4595 
Q 1241 4863 1831 4863 
L 2375 4863 
z
" transform="scale(0.015625)"/>
       <path id="DejaVuSans-69" d="M 603 3500 
L 1178 3500 
L 1178 0 
L 603 0 
L 603 3500 
z
M 603 4863 
L 1178 4863 
L 1178 4134 
L 603 4134 
L 603 4863 
z
" transform="scale(0.015625)"/>
       <path id="DejaVuSans-73" d="M 2834 3397 
L 2834 2853 
Q 2591 2978 2328 3040 
Q 2066 3103 1784 3103 
Q 1356 3103 1142 2972 
Q 928 2841 928 2578 
Q 928 2378 1081 2264 
Q 1234 2150 1697 2047 
L 1894 2003 
Q 2506 1872 2764 1633 
Q 3022 1394 3022 966 
Q 3022 478 2636 193 
Q 2250 -91 1575 -91 
Q 1294 -91 989 -36 
Q 684 19 347 128 
L 347 722 
Q 666 556 975 473 
Q 1284 391 1588 391 
Q 1994 391 2212 530 
Q 2431 669 2431 922 
Q 2431 1156 2273 1281 
Q 2116 1406 1581 1522 
L 1381 1569 
Q 847 1681 609 1914 
Q 372 2147 372 2553 
Q 372 3047 722 3315 
Q 1072 3584 1716 3584 
Q 2034 3584 2315 3537 
Q 2597 3491 2834 3397 
z
" transform="scale(0.015625)"/>
      </defs>
      <use xlink:href="#DejaVuSans-4e"/>
      <use xlink:href="#DejaVuSans-75" x="74.804688"/>
      <use xlink:href="#DejaVuSans-6d" x="138.183594"/>
      <use xlink:href="#DejaVuSans-62" x="235.595703"/>
      <use xlink:href="#DejaVuSans-65" x="299.072266"/>
      <use xlink:href="#DejaVuSans-72" x="360.595703"/>
      <use xlink:href="#DejaVuSans-20" x="401.708984"/>
      <use xlink:href="#DejaVuSans-6f" x="433.496094"/>
      <use xlink:href="#DejaVuSans-66" x="494.677734"/>
      <use xlink:href="#DejaVuSans-20" x="529.882812"/>
      <use xlink:href="#DejaVuSans-44" x="561.669922"/>
      <use xlink:href="#DejaVuSans-6f" x="638.671875"/>
      <use xlink:href="#DejaVuSans-6d" x="699.853516"/>
      <use xlink:href="#DejaVuSans-61" x="797.265625"/>
      <use xlink:href="#DejaVuSans-69" x="858.544922"/>
      <use xlink:href="#DejaVuSans-6e" x="886.328125"/>
      <use xlink:href="#DejaVuSans-73" x="949.707031"/>
     </g>
    </g>
   </g>
   <g id="line2d_30">
    <path d="M 73.85004 134.762325 
L 76.762611 134.379255 
L 77.733467 133.740805 
L 79.675181 133.485425 
L 80.646038 133.485425 
L 81.616895 133.613115 
L 82.587752 133.613115 
L 83.558609 133.102355 
L 84.529466 132.208525 
L 85.500323 132.080835 
L 86.47118 131.825455 
L 87.442036 131.697765 
L 88.412893 131.697765 
L 91.325464 131.825455 
L 93.267178 131.314694 
L 94.238035 131.570075 
L 95.208892 131.697765 
L 96.179748 131.442385 
L 97.150605 131.314694 
L 98.121462 131.314694 
L 99.092319 130.931624 
L 100.063176 130.293174 
L 101.034033 130.037794 
L 102.00489 135.656155 
L 102.975747 149.063607 
L 103.946604 148.169776 
L 104.917461 145.999046 
L 105.888317 146.892876 
L 106.859174 143.956006 
L 107.830031 144.977526 
L 108.800888 147.914396 
L 109.771745 147.148256 
L 110.742602 147.148256 
L 111.713459 145.743666 
L 112.684316 145.871356 
L 113.655173 145.105216 
L 115.596886 145.615976 
L 116.567743 144.211386 
L 117.5386 144.339076 
L 118.509457 145.488286 
L 119.480314 145.615976 
L 120.451171 144.466766 
L 121.422028 146.254426 
L 122.392885 143.317556 
L 123.363742 146.382116 
L 124.334598 144.211386 
L 125.305455 145.360596 
L 127.247169 145.743666 
L 129.188883 145.871356 
L 130.15974 145.615976 
L 131.130597 142.040656 
L 132.101454 145.232906 
L 133.07231 143.062176 
L 134.043167 145.488286 
L 135.014024 145.488286 
L 135.984881 144.849836 
L 136.955738 146.765186 
L 137.926595 145.232906 
L 140.839166 142.679106 
L 143.751736 143.956006 
L 144.722593 146.637496 
L 145.69345 144.594456 
L 146.664307 144.339076 
L 147.635164 146.382116 
L 148.606021 142.551416 
L 157.343733 143.572936 
L 158.31459 145.743666 
L 160.256303 142.168346 
L 161.22716 142.679106 
L 162.198017 141.785276 
L 163.168874 144.466766 
L 164.139731 145.615976 
L 165.110588 140.891446 
L 166.081445 143.956006 
L 167.052302 142.423726 
L 168.023159 141.146826 
L 168.994016 143.700626 
L 169.964872 142.806796 
L 170.935729 141.146826 
L 171.906586 143.445246 
L 172.877443 144.339076 
L 173.8483 143.828316 
L 174.819157 141.529896 
L 175.790014 141.402206 
L 176.760871 142.934486 
L 177.731728 143.700626 
L 178.702584 141.912966 
L 179.673441 141.912966 
L 180.644298 142.296036 
L 181.615155 143.956006 
L 182.586012 140.891446 
L 183.556869 143.317556 
L 184.527726 140.636066 
L 185.498583 143.317556 
L 187.440297 141.657586 
L 188.411153 143.828316 
L 189.38201 140.636066 
L 190.352867 143.956006 
L 191.323724 142.168346 
L 192.294581 140.891446 
L 194.236295 140.636066 
L 195.207152 141.019136 
L 196.178009 142.551416 
L 197.148865 140.508376 
L 198.119722 140.380686 
L 210.740862 127.356304 
L 211.711719 128.888584 
L 212.682576 128.505514 
L 213.653433 126.845544 
L 214.62429 129.910104 
L 215.595146 127.483994 
L 217.53686 129.016274 
L 218.507717 126.590164 
L 219.478574 129.016274 
L 220.449431 125.824024 
L 221.420288 126.590164 
L 222.391145 125.696334 
L 223.362002 127.867064 
L 226.274572 124.930194 
L 227.245429 126.207094 
L 228.216286 127.100924 
L 229.187143 126.334784 
L 230.158 126.462474 
L 231.128857 125.568644 
L 232.099714 124.291744 
L 233.070571 126.334784 
L 234.041427 125.568644 
L 236.953998 125.313264 
L 237.924855 126.334784 
L 238.895712 126.079404 
L 239.866569 124.674814 
L 240.837426 124.930194 
L 241.808283 123.142534 
L 245.69171 123.397914 
L 246.662567 121.993323 
L 247.633424 123.780984 
L 248.604281 120.716423 
L 249.575138 117.141103 
L 250.545995 117.524173 
L 251.516852 115.864203 
L 252.487708 117.651863 
L 253.458565 116.119583 
L 254.429422 116.374963 
L 255.400279 119.822593 
L 256.371136 114.587303 
L 257.341993 116.119583 
L 258.31285 118.290313 
L 259.283707 116.247273 
L 260.254564 116.374963 
L 261.22542 115.353443 
L 262.196277 116.758033 
L 263.167134 116.119583 
L 264.137991 119.822593 
L 265.108848 118.801073 
L 266.079705 117.396483 
L 267.050562 117.651863 
L 268.021419 117.013413 
L 268.992276 112.671952 
L 269.963133 116.502653 
L 270.933989 116.758033 
L 272.875703 115.481133 
L 273.84656 116.247273 
L 274.817417 79.344858 
L 275.788274 79.855618 
L 276.759131 80.238689 
L 278.700845 76.791058 
L 279.671701 75.769538 
L 280.642558 78.706408 
L 281.613415 76.407988 
L 282.584272 75.514158 
L 283.555129 74.875708 
L 284.525986 77.557198 
L 285.496843 74.875708 
L 286.4677 75.641848 
L 287.438557 75.769538 
L 288.409414 76.663368 
L 289.38027 75.131088 
L 290.351127 72.704978 
L 291.321984 75.897228 
L 292.292841 76.024918 
L 293.263698 76.407988 
L 294.234555 77.429508 
L 296.176269 73.598808 
L 299.088839 73.471118 
L 301.030553 75.386468 
L 304.913981 73.088048 
L 305.884838 71.811148 
L 333.068831 57.509866 
L 334.039688 59.042146 
L 335.010544 49.848465 
L 335.981401 50.742295 
L 337.923115 50.742295 
L 338.893972 51.253055 
L 339.864829 49.593085 
L 340.835686 50.614605 
L 341.806543 50.103845 
L 342.7774 49.337705 
L 343.748257 47.550045 
L 344.719113 48.699255 
L 345.68997 47.294665 
L 346.660827 48.699255 
L 347.631684 48.954635 
L 348.602541 48.443875 
L 349.573398 49.465395 
L 350.544255 48.571565 
L 368.019679 48.443875 
L 368.990536 48.316185 
L 370.93225 49.720775 
L 371.903106 50.103845 
L 372.873963 50.869985 
L 373.84482 49.082325 
L 374.815677 49.082325 
L 375.786534 49.720775 
L 376.757391 49.337705 
L 377.728248 49.848465 
L 378.699105 48.188495 
L 380.640818 49.593085 
L 381.611675 49.848465 
L 382.582532 48.954635 
L 383.553389 49.848465 
L 384.524246 50.231535 
L 385.495103 47.933115 
L 388.407674 48.443875 
L 389.378531 48.443875 
L 390.349387 47.166975 
L 391.320244 47.805425 
L 392.291101 48.188495 
L 393.261958 46.911595 
L 394.232815 46.911595 
L 395.203672 46.783905 
L 396.174529 45.251624 
L 397.145386 44.996244 
L 398.116243 44.485484 
L 399.087099 45.507004 
L 400.057956 44.996244 
L 401.028813 43.847034 
L 401.99967 46.400835 
L 402.970527 45.634694 
L 403.941384 44.485484 
L 405.883098 44.230104 
L 406.853955 44.613174 
L 407.824812 43.974724 
L 408.795668 44.230104 
L 409.766525 45.507004 
L 410.737382 45.890075 
L 411.708239 45.251624 
L 412.679096 44.230104 
L 414.62081 44.740864 
L 415.591667 45.890075 
L 416.562524 42.314754 
L 417.53338 43.974724 
L 418.504237 44.996244 
L 419.475094 44.230104 
L 420.445951 45.762385 
L 421.416808 45.251624 
L 422.387665 45.251624 
L 423.358522 47.422355 
L 424.329379 45.890075 
L 425.300236 46.400835 
L 426.271093 42.825514 
L 427.241949 45.507004 
L 428.212806 44.357794 
L 429.183663 45.379314 
L 430.15452 44.740864 
L 431.125377 43.208584 
L 434.037948 43.847034 
L 435.008805 44.740864 
L 435.979661 43.336274 
L 437.921375 42.825514 
L 438.892232 40.910164 
L 439.863089 41.420924 
L 440.833946 41.165544 
L 441.804803 42.953204 
L 442.77566 41.931684 
L 443.746517 43.974724 
L 446.659087 44.357794 
L 447.629944 44.357794 
L 448.600801 43.591654 
L 449.571658 43.974724 
L 451.513372 39.888644 
L 452.484229 40.016334 
L 453.455086 40.271714 
L 454.425942 39.505574 
L 455.396799 39.377884 
L 456.367656 39.505574 
L 458.30937 37.845604 
L 459.280227 35.291803 
L 460.251084 34.397973 
L 461.221941 34.270283 
L 462.192798 34.397973 
L 463.163655 32.482623 
L 464.134511 34.270283 
L 465.105368 19.841311 
L 466.076225 17.925961 
L 467.047082 17.798271 
L 469.959653 18.053651 
L 470.93051 16.521371 
L 471.901367 17.287511 
L 472.872223 16.776751 
L 473.84308 15.244471 
L 475.784794 15.499851 
L 476.755651 15.116781 
L 477.726508 16.649061 
L 478.697365 16.904441 
L 479.668222 14.989091 
L 479.668222 14.989091 
" clip-path="url(#p061301c857)" style="fill: none; stroke: #1f77b4; stroke-width: 1.5; stroke-linecap: square"/>
   </g>
   <g id="line2d_31">
    <path d="M 73.85004 135.528465 
L 76.762611 135.145395 
L 77.733467 134.506945 
L 79.675181 134.251565 
L 80.646038 134.251565 
L 82.587752 134.506945 
L 83.558609 133.996185 
L 84.529466 133.230045 
L 86.47118 132.719285 
L 87.442036 132.591595 
L 91.325464 132.591595 
L 93.267178 132.080835 
L 94.238035 132.336215 
L 95.208892 132.463905 
L 96.179748 132.208525 
L 97.150605 132.080835 
L 98.121462 132.336215 
L 99.092319 131.953145 
L 100.063176 131.314694 
L 101.034033 131.059314 
L 102.00489 136.677675 
L 102.975747 150.085127 
L 103.946604 149.063607 
L 104.917461 147.020566 
L 105.888317 147.914396 
L 106.859174 144.977526 
L 107.830031 145.999046 
L 108.800888 148.935917 
L 109.771745 148.169776 
L 110.742602 148.169776 
L 111.713459 146.765186 
L 112.684316 146.892876 
L 113.655173 146.254426 
L 115.596886 146.765186 
L 116.567743 145.615976 
L 117.5386 145.615976 
L 118.509457 146.765186 
L 119.480314 146.765186 
L 120.451171 145.615976 
L 121.422028 147.403636 
L 122.392885 144.722146 
L 123.363742 147.786706 
L 124.334598 145.360596 
L 125.305455 146.637496 
L 127.247169 147.148256 
L 130.15974 147.020566 
L 131.130597 143.189866 
L 132.101454 146.509806 
L 133.07231 144.339076 
L 134.043167 146.637496 
L 135.014024 146.765186 
L 135.984881 146.126736 
L 136.955738 148.169776 
L 137.926595 146.637496 
L 140.839166 143.828316 
L 143.751736 145.232906 
L 144.722593 147.914396 
L 145.69345 145.999046 
L 146.664307 145.743666 
L 147.635164 147.786706 
L 148.606021 143.956006 
L 157.343733 144.722146 
L 158.31459 147.020566 
L 160.256303 143.445246 
L 161.22716 144.083696 
L 162.198017 143.317556 
L 163.168874 145.871356 
L 164.139731 147.148256 
L 165.110588 142.551416 
L 166.081445 145.360596 
L 167.052302 143.956006 
L 168.023159 142.806796 
L 168.994016 145.105216 
L 169.964872 144.211386 
L 170.935729 142.679106 
L 171.906586 144.722146 
L 172.877443 145.615976 
L 173.8483 145.105216 
L 174.819157 143.062176 
L 175.790014 142.934486 
L 176.760871 144.211386 
L 177.731728 144.977526 
L 178.702584 143.445246 
L 179.673441 143.317556 
L 180.644298 143.700626 
L 181.615155 145.360596 
L 182.586012 142.551416 
L 183.556869 144.849836 
L 184.527726 142.040656 
L 185.498583 144.977526 
L 187.440297 143.062176 
L 188.411153 145.360596 
L 189.38201 142.168346 
L 190.352867 145.615976 
L 191.323724 143.828316 
L 192.294581 142.551416 
L 194.236295 142.168346 
L 195.207152 142.806796 
L 196.178009 144.211386 
L 197.148865 141.912966 
L 198.119722 142.040656 
L 210.740862 136.039225 
L 211.711719 137.316125 
L 212.682576 136.933055 
L 213.653433 135.656155 
L 214.62429 138.593025 
L 215.595146 136.294605 
L 217.53686 137.699195 
L 218.507717 135.145395 
L 219.478574 137.826885 
L 220.449431 134.634635 
L 221.420288 135.400775 
L 222.391145 134.890015 
L 223.362002 137.060745 
L 226.274572 134.379255 
L 227.245429 135.911535 
L 228.216286 136.677675 
L 229.187143 135.911535 
L 230.158 135.911535 
L 231.128857 135.017705 
L 232.099714 133.868495 
L 233.070571 135.528465 
L 234.041427 135.273085 
L 236.953998 135.017705 
L 237.924855 136.166915 
L 238.895712 135.783845 
L 239.866569 133.996185 
L 240.837426 134.634635 
L 241.808283 132.719285 
L 245.69171 133.357735 
L 246.662567 133.996185 
L 247.633424 135.528465 
L 248.604281 132.846975 
L 249.575138 131.953145 
L 250.545995 133.102355 
L 251.516852 131.825455 
L 252.487708 133.357735 
L 253.458565 132.208525 
L 254.429422 132.719285 
L 255.400279 135.783845 
L 256.371136 131.059314 
L 257.341993 133.485425 
L 258.31285 135.273085 
L 259.283707 133.357735 
L 260.254564 132.846975 
L 261.22542 131.953145 
L 262.196277 133.740805 
L 263.167134 131.953145 
L 264.137991 136.549985 
L 265.108848 135.400775 
L 266.079705 133.740805 
L 267.050562 133.868495 
L 268.021419 133.613115 
L 268.992276 130.676244 
L 269.963133 134.123875 
L 270.933989 133.740805 
L 272.875703 132.719285 
L 273.84656 133.485425 
L 274.817417 132.080835 
L 275.788274 132.463905 
L 276.759131 132.208525 
L 277.729988 130.676244 
L 278.700845 130.548554 
L 279.671701 130.676244 
L 280.642558 133.230045 
L 281.613415 131.442385 
L 282.584272 132.208525 
L 283.555129 131.187004 
L 284.525986 131.314694 
L 285.496843 131.059314 
L 286.4677 132.080835 
L 287.438557 131.187004 
L 288.409414 133.740805 
L 289.38027 132.719285 
L 290.351127 130.803934 
L 291.321984 131.187004 
L 292.292841 131.825455 
L 293.263698 131.570075 
L 294.234555 132.208525 
L 296.176269 131.187004 
L 299.088839 130.420864 
L 301.030553 133.102355 
L 304.913981 130.548554 
L 305.884838 130.548554 
L 333.068831 115.864203 
L 334.039688 117.907243 
L 335.010544 109.990462 
L 335.981401 109.096632 
L 336.952258 109.352012 
L 337.923115 109.096632 
L 338.893972 109.352012 
L 339.864829 108.458182 
L 340.835686 108.841252 
L 341.806543 108.841252 
L 342.7774 108.968942 
L 343.748257 108.330492 
L 344.719113 108.330492 
L 345.68997 107.819732 
L 346.660827 108.458182 
L 347.631684 108.202802 
L 348.602541 107.819732 
L 349.573398 108.330492 
L 350.544255 108.458182 
L 368.019679 107.564352 
L 368.990536 108.075112 
L 370.93225 107.819732 
L 371.903106 107.947422 
L 372.873963 108.202802 
L 373.84482 107.947422 
L 374.815677 107.564352 
L 375.786534 107.564352 
L 376.757391 107.819732 
L 377.728248 107.436662 
L 378.699105 107.564352 
L 379.669962 107.308972 
L 380.640818 107.436662 
L 381.611675 106.542832 
L 382.582532 106.925902 
L 383.553389 106.415142 
L 384.524246 107.181282 
L 385.495103 105.776692 
L 388.407674 105.649001 
L 389.378531 105.010551 
L 390.349387 105.138241 
L 391.320244 105.776692 
L 392.291101 105.393621 
L 393.261958 104.882861 
L 395.203672 104.882861 
L 396.174529 104.372101 
L 397.145386 104.116721 
L 398.116243 103.095201 
L 399.087099 103.605961 
L 400.057956 103.350581 
L 401.028813 103.350581 
L 401.99967 103.605961 
L 402.970527 103.222891 
L 403.941384 102.456751 
L 405.883098 103.222891 
L 406.853955 103.222891 
L 407.824812 102.329061 
L 408.795668 102.712131 
L 409.766525 102.456751 
L 410.737382 102.839821 
L 411.708239 102.329061 
L 412.679096 102.073681 
L 413.649953 101.690611 
L 414.62081 102.201371 
L 415.591667 102.201371 
L 416.562524 101.435231 
L 417.53338 100.924471 
L 418.504237 101.052161 
L 419.475094 100.669091 
L 420.445951 100.413711 
L 422.387665 100.413711 
L 423.358522 101.052161 
L 424.329379 100.286021 
L 425.300236 100.924471 
L 426.271093 99.264501 
L 427.241949 100.286021 
L 428.212806 99.009121 
L 429.183663 99.392191 
L 430.15452 99.264501 
L 431.125377 98.753741 
L 434.037948 99.009121 
L 435.008805 99.264501 
L 435.979661 98.753741 
L 436.950518 98.881431 
L 437.921375 98.498361 
L 438.892232 96.58301 
L 439.863089 96.83839 
L 440.833946 96.19994 
L 441.804803 96.58301 
L 442.77566 96.07225 
L 443.746517 96.58301 
L 444.717374 97.221461 
L 445.68823 96.7107 
L 446.659087 97.349151 
L 447.629944 96.58301 
L 448.600801 96.7107 
L 449.571658 96.7107 
L 450.542515 96.19994 
L 451.513372 94.53997 
L 452.484229 94.28459 
L 453.455086 94.1569 
L 454.425942 94.41228 
L 456.367656 94.1569 
L 457.338513 94.28459 
L 459.280227 92.36924 
L 460.251084 92.24155 
L 461.221941 91.85848 
L 462.192798 91.73079 
L 463.163655 91.85848 
L 464.134511 92.36924 
L 465.105368 91.98617 
L 466.076225 90.83696 
L 467.047082 90.96465 
L 469.959653 90.3262 
L 470.93051 90.70927 
L 471.901367 90.96465 
L 472.872223 89.81544 
L 473.84308 89.68775 
L 474.813937 89.30468 
L 475.784794 89.43237 
L 476.755651 89.17699 
L 477.726508 89.68775 
L 478.697365 89.43237 
L 479.668222 89.0493 
L 479.668222 89.0493 
" clip-path="url(#p061301c857)" style="fill: none; stroke: #ff7f0e; stroke-width: 1.5; stroke-linecap: square"/>
   </g>
   <g id="line2d_32">
    <path d="M 73.85004 170.770909 
L 97.150605 170.770909 
L 98.121462 170.515529 
L 102.975747 170.515529 
L 103.946604 170.643219 
L 104.917461 170.515529 
L 112.684316 170.515529 
L 113.655173 170.387839 
L 115.596886 170.387839 
L 116.567743 170.132459 
L 118.509457 170.387839 
L 121.422028 170.387839 
L 122.392885 170.132459 
L 123.363742 170.132459 
L 124.334598 170.387839 
L 125.305455 170.260149 
L 127.247169 170.132459 
L 129.188883 170.387839 
L 130.15974 170.260149 
L 131.130597 170.515529 
L 132.101454 170.387839 
L 134.043167 170.387839 
L 135.014024 170.260149 
L 135.984881 170.260149 
L 136.955738 170.132459 
L 137.926595 170.132459 
L 140.839166 170.387839 
L 148.606021 170.132459 
L 157.343733 170.260149 
L 158.31459 170.132459 
L 161.22716 170.132459 
L 162.198017 170.004769 
L 163.168874 170.132459 
L 165.110588 169.877079 
L 166.081445 170.132459 
L 168.023159 169.877079 
L 168.994016 170.132459 
L 169.964872 170.132459 
L 170.935729 170.004769 
L 171.906586 170.260149 
L 173.8483 170.260149 
L 175.790014 170.004769 
L 176.760871 170.260149 
L 177.731728 170.260149 
L 178.702584 170.132459 
L 182.586012 170.132459 
L 183.556869 170.004769 
L 184.527726 170.132459 
L 186.46944 170.132459 
L 187.440297 170.260149 
L 188.411153 170.132459 
L 189.38201 170.132459 
L 190.352867 170.004769 
L 192.294581 170.004769 
L 194.236295 170.132459 
L 195.207152 170.004769 
L 196.178009 170.004769 
L 197.148865 170.260149 
L 198.119722 170.132459 
L 210.740862 164.897168 
L 211.711719 165.152548 
L 212.682576 165.152548 
L 213.653433 164.897168 
L 214.62429 165.152548 
L 215.595146 164.897168 
L 217.53686 165.152548 
L 218.507717 165.407928 
L 219.478574 165.024858 
L 220.449431 165.152548 
L 221.420288 165.152548 
L 222.391145 165.024858 
L 223.362002 165.024858 
L 226.274572 164.897168 
L 227.245429 164.641788 
L 228.216286 164.514098 
L 229.187143 164.514098 
L 230.158 164.769478 
L 231.128857 164.769478 
L 232.099714 164.641788 
L 233.070571 165.024858 
L 234.041427 164.641788 
L 236.953998 164.897168 
L 237.924855 164.769478 
L 238.895712 164.769478 
L 239.866569 165.024858 
L 240.837426 164.769478 
L 241.808283 164.897168 
L 245.69171 164.258718 
L 246.662567 162.726438 
L 247.633424 162.854128 
L 248.604281 162.471058 
L 249.575138 159.917258 
L 250.545995 159.151118 
L 251.516852 158.768048 
L 252.487708 159.151118 
L 253.458565 158.640358 
L 254.429422 158.384978 
L 255.400279 158.768048 
L 256.371136 158.257288 
L 257.341993 157.874218 
L 258.31285 158.129598 
L 259.283707 157.874218 
L 260.254564 158.512668 
L 261.22542 158.384978 
L 262.196277 158.001908 
L 263.167134 159.406498 
L 264.137991 158.384978 
L 265.108848 158.512668 
L 267.050562 159.023428 
L 268.021419 158.895738 
L 268.992276 159.023428 
L 270.933989 160.044948 
L 271.904846 159.917258 
L 272.875703 160.044948 
L 273.84656 160.044948 
L 274.817417 124.419434 
L 275.788274 124.930194 
L 276.759131 125.568644 
L 277.729988 125.057884 
L 279.671701 122.376393 
L 280.642558 122.887154 
L 281.613415 122.121013 
L 282.584272 120.588733 
L 283.555129 120.971803 
L 284.525986 123.780984 
L 285.496843 121.227183 
L 286.4677 120.844113 
L 287.438557 122.121013 
L 288.409414 120.333353 
L 289.38027 119.822593 
L 290.351127 119.184143 
L 291.321984 121.865633 
L 292.292841 121.737943 
L 293.263698 122.248703 
L 294.234555 122.504083 
L 296.176269 119.822593 
L 299.088839 120.333353 
L 301.030553 119.694903 
L 304.913981 120.205663 
L 305.884838 119.056453 
L 333.068831 119.950283 
L 334.039688 119.439523 
L 335.010544 118.290313 
L 335.981401 119.822593 
L 336.952258 119.694903 
L 337.923115 119.822593 
L 338.893972 120.333353 
L 339.864829 119.311833 
L 340.835686 119.694903 
L 341.806543 119.056453 
L 342.7774 118.673383 
L 343.748257 118.034933 
L 344.719113 118.801073 
L 345.68997 118.418003 
L 346.660827 119.056453 
L 347.631684 119.439523 
L 348.602541 119.311833 
L 349.573398 119.950283 
L 350.544255 119.184143 
L 368.019679 119.567213 
L 368.990536 118.928763 
L 370.93225 120.461043 
L 371.903106 120.971803 
L 372.873963 121.354873 
L 373.84482 119.694903 
L 374.815677 120.077973 
L 375.786534 120.588733 
L 376.757391 120.077973 
L 377.728248 120.971803 
L 378.699105 119.311833 
L 379.669962 120.461043 
L 380.640818 121.227183 
L 381.611675 122.248703 
L 382.582532 120.844113 
L 383.553389 122.376393 
L 384.524246 122.248703 
L 385.495103 121.482563 
L 388.407674 121.865633 
L 389.378531 122.504083 
L 390.349387 121.099493 
L 391.320244 121.354873 
L 392.291101 122.248703 
L 393.261958 121.227183 
L 394.232815 121.354873 
L 395.203672 120.971803 
L 396.174529 120.333353 
L 397.145386 120.333353 
L 399.087099 121.482563 
L 400.057956 121.737943 
L 401.028813 120.716423 
L 401.99967 122.504083 
L 402.970527 122.248703 
L 403.941384 121.610253 
L 404.912241 121.482563 
L 405.883098 120.971803 
L 406.853955 121.482563 
L 407.824812 121.737943 
L 408.795668 121.865633 
L 409.766525 123.397914 
L 410.737382 123.397914 
L 411.708239 123.270224 
L 412.679096 122.248703 
L 413.649953 122.887154 
L 414.62081 122.759463 
L 415.591667 124.036364 
L 416.562524 121.099493 
L 417.53338 123.397914 
L 418.504237 124.291744 
L 419.475094 124.291744 
L 420.445951 126.207094 
L 421.416808 125.440954 
L 422.387665 125.440954 
L 423.358522 127.356304 
L 424.329379 126.590164 
L 425.300236 126.334784 
L 426.271093 124.036364 
L 427.241949 125.568644 
L 428.212806 125.824024 
L 429.183663 126.717854 
L 430.15452 126.207094 
L 431.125377 125.057884 
L 434.037948 125.568644 
L 435.008805 126.079404 
L 435.979661 125.568644 
L 436.950518 125.185574 
L 437.921375 125.057884 
L 438.892232 125.440954 
L 439.863089 125.696334 
L 440.833946 125.824024 
L 441.804803 127.100924 
L 442.77566 126.590164 
L 443.746517 127.611684 
L 444.717374 127.994754 
L 445.68823 128.888584 
L 446.659087 128.633204 
L 447.629944 129.527034 
L 448.600801 128.377824 
L 449.571658 129.016274 
L 450.542515 127.483994 
L 451.513372 127.100924 
L 452.484229 127.356304 
L 453.455086 127.483994 
L 454.425942 126.590164 
L 455.396799 126.845544 
L 456.367656 127.356304 
L 457.338513 126.717854 
L 458.30937 126.845544 
L 459.280227 125.185574 
L 460.251084 124.547124 
L 461.221941 124.802504 
L 462.192798 124.674814 
L 463.163655 122.631773 
L 464.134511 123.525604 
L 465.105368 123.014844 
L 466.076225 123.142534 
L 467.047082 123.142534 
L 469.959653 124.164054 
L 470.93051 121.993323 
L 472.872223 123.270224 
L 473.84308 121.737943 
L 474.813937 121.993323 
L 476.755651 121.482563 
L 477.726508 121.993323 
L 478.697365 123.014844 
L 479.668222 121.610253 
L 479.668222 121.610253 
" clip-path="url(#p061301c857)" style="fill: none; stroke: #2ca02c; stroke-width: 1.5; stroke-linecap: square"/>
   </g>
   <g id="line2d_33">
    <path d="M 73.85004 170.515529 
L 81.616895 170.515529 
L 82.587752 170.387839 
L 83.558609 170.387839 
L 84.529466 170.260149 
L 85.500323 170.387839 
L 88.412893 170.387839 
L 93.267178 170.515529 
L 117.5386 170.515529 
L 118.509457 170.387839 
L 119.480314 170.515529 
L 129.188883 170.515529 
L 130.15974 170.387839 
L 133.07231 170.387839 
L 134.043167 170.515529 
L 148.606021 170.515529 
L 160.256303 170.643219 
L 161.22716 170.515529 
L 173.8483 170.515529 
L 174.819157 170.387839 
L 175.790014 170.515529 
L 177.731728 170.515529 
L 178.702584 170.387839 
L 179.673441 170.515529 
L 181.615155 170.515529 
L 182.586012 170.260149 
L 183.556869 170.515529 
L 184.527726 170.515529 
L 185.498583 170.260149 
L 186.46944 170.387839 
L 194.236295 170.387839 
L 195.207152 170.260149 
L 196.178009 170.387839 
L 197.148865 170.387839 
L 198.119722 170.260149 
L 210.740862 168.472489 
L 212.682576 168.472489 
L 214.62429 168.217109 
L 215.595146 168.344799 
L 216.566003 168.217109 
L 217.53686 168.217109 
L 218.507717 168.089419 
L 219.478574 168.217109 
L 220.449431 168.089419 
L 221.420288 168.089419 
L 222.391145 167.834039 
L 223.362002 167.834039 
L 227.245429 167.706349 
L 228.216286 167.961729 
L 229.187143 167.961729 
L 230.158 167.834039 
L 233.070571 167.834039 
L 234.041427 167.706349 
L 237.924855 167.450969 
L 239.866569 167.706349 
L 240.837426 167.578659 
L 241.808283 167.578659 
L 245.69171 167.834039 
L 246.662567 167.323279 
L 247.633424 167.450969 
L 248.604281 167.450969 
L 249.575138 167.323279 
L 251.516852 167.323279 
L 252.487708 167.195589 
L 253.458565 167.323279 
L 256.371136 167.323279 
L 257.341993 166.812519 
L 259.283707 167.067899 
L 262.196277 167.067899 
L 263.167134 166.812519 
L 264.137991 166.940209 
L 266.079705 166.940209 
L 267.050562 166.812519 
L 268.021419 166.557139 
L 268.992276 165.024858 
L 269.963133 164.897168 
L 270.933989 165.024858 
L 271.904846 165.024858 
L 272.875703 164.769478 
L 273.84656 164.769478 
L 274.817417 164.897168 
L 275.788274 164.514098 
L 276.759131 164.514098 
L 277.729988 164.769478 
L 278.700845 164.641788 
L 279.671701 164.769478 
L 280.642558 164.641788 
L 281.613415 164.897168 
L 282.584272 164.769478 
L 283.555129 164.769478 
L 284.525986 164.514098 
L 286.4677 164.769478 
L 287.438557 164.514098 
L 288.409414 164.641788 
L 289.38027 164.641788 
L 291.321984 164.897168 
L 292.292841 164.514098 
L 294.234555 164.769478 
L 296.176269 164.641788 
L 299.088839 164.769478 
L 305.884838 164.258718 
L 335.010544 163.620268 
L 335.981401 163.875648 
L 336.952258 163.747958 
L 337.923115 163.875648 
L 338.893972 163.620268 
L 340.835686 164.131028 
L 341.806543 164.258718 
L 343.748257 163.237198 
L 344.719113 163.620268 
L 345.68997 163.109508 
L 347.631684 163.364888 
L 348.602541 163.364888 
L 349.573398 163.237198 
L 350.544255 162.981818 
L 370.93225 163.492578 
L 371.903106 163.237198 
L 373.84482 163.492578 
L 374.815677 163.492578 
L 375.786534 163.620268 
L 376.757391 163.492578 
L 377.728248 163.492578 
L 378.699105 163.364888 
L 379.669962 163.109508 
L 380.640818 162.981818 
L 382.582532 163.237198 
L 383.553389 163.109508 
L 384.524246 162.854128 
L 385.495103 162.726438 
L 389.378531 162.981818 
L 390.349387 162.981818 
L 391.320244 162.726438 
L 392.291101 162.598748 
L 393.261958 162.854128 
L 394.232815 162.726438 
L 395.203672 162.981818 
L 396.174529 162.598748 
L 397.145386 162.598748 
L 398.116243 162.471058 
L 399.087099 162.471058 
L 400.057956 161.960298 
L 401.028813 161.832608 
L 401.99967 162.343368 
L 402.970527 162.215678 
L 403.941384 162.471058 
L 404.912241 162.087988 
L 405.883098 162.087988 
L 406.853955 161.960298 
L 407.824812 161.960298 
L 408.795668 161.704918 
L 411.708239 161.704918 
L 412.679096 161.960298 
L 413.649953 161.960298 
L 415.591667 161.704918 
L 416.562524 161.832608 
L 417.53338 161.704918 
L 418.504237 161.704918 
L 419.475094 161.321848 
L 420.445951 161.194158 
L 421.416808 161.449538 
L 422.387665 161.449538 
L 423.358522 161.066468 
L 424.329379 161.066468 
L 425.300236 161.194158 
L 426.271093 161.577228 
L 427.241949 161.704918 
L 428.212806 161.577228 
L 429.183663 161.321848 
L 430.15452 161.321848 
L 431.125377 161.449538 
L 434.037948 161.321848 
L 435.008805 161.449538 
L 435.979661 161.066468 
L 436.950518 161.066468 
L 437.921375 161.321848 
L 438.892232 160.938778 
L 439.863089 160.938778 
L 440.833946 161.194158 
L 441.804803 161.321848 
L 442.77566 161.321848 
L 443.746517 161.832608 
L 444.717374 160.938778 
L 446.659087 160.428018 
L 447.629944 160.300328 
L 448.600801 160.555708 
L 449.571658 160.300328 
L 451.513372 160.300328 
L 452.484229 160.428018 
L 453.455086 160.683398 
L 454.425942 160.555708 
L 457.338513 159.789568 
L 459.280227 159.789568 
L 460.251084 159.661878 
L 461.221941 159.661878 
L 462.192798 160.044948 
L 463.163655 160.044948 
L 464.134511 160.428018 
L 465.105368 146.892876 
L 466.076225 145.999046 
L 467.047082 145.743666 
L 469.959653 145.615976 
L 470.93051 145.871356 
L 471.901367 145.743666 
L 472.872223 145.743666 
L 473.84308 145.871356 
L 475.784794 146.382116 
L 476.755651 146.509806 
L 477.726508 147.020566 
L 478.697365 146.509806 
L 479.668222 146.382116 
L 479.668222 146.382116 
" clip-path="url(#p061301c857)" style="fill: none; stroke: #d62728; stroke-width: 1.5; stroke-linecap: square"/>
   </g>
   <g id="patch_3">
    <path d="M 53.559131 178.56 
L 53.559131 7.2 
" style="fill: none; stroke: #000000; stroke-width: 0.8; stroke-linejoin: miter; stroke-linecap: square"/>
   </g>
   <g id="patch_4">
    <path d="M 499.959131 178.56 
L 499.959131 7.2 
" style="fill: none; stroke: #000000; stroke-width: 0.8; stroke-linejoin: miter; stroke-linecap: square"/>
   </g>
   <g id="patch_5">
    <path d="M 53.559131 178.56 
L 499.959131 178.56 
" style="fill: none; stroke: #000000; stroke-width: 0.8; stroke-linejoin: miter; stroke-linecap: square"/>
   </g>
   <g id="patch_6">
    <path d="M 53.559131 7.2 
L 499.959131 7.2 
" style="fill: none; stroke: #000000; stroke-width: 0.8; stroke-linejoin: miter; stroke-linecap: square"/>
   </g>
   <g id="legend_1">
    <g id="patch_7">
     <path d="M 60.559131 73.9125 
L 221.965381 73.9125 
Q 223.965381 73.9125 223.965381 71.9125 
L 223.965381 14.2 
Q 223.965381 12.2 221.965381 12.2 
L 60.559131 12.2 
Q 58.559131 12.2 58.559131 14.2 
L 58.559131 71.9125 
Q 58.559131 73.9125 60.559131 73.9125 
z
" style="fill: #ffffff; opacity: 0.8; stroke: #cccccc; stroke-linejoin: miter"/>
    </g>
    <g id="line2d_34">
     <path d="M 62.559131 20.298438 
L 72.559131 20.298438 
L 82.559131 20.298438 
" style="fill: none; stroke: #1f77b4; stroke-width: 1.5; stroke-linecap: square"/>
    </g>
    <g id="text_24">
     <!-- COOP header -->
     <g transform="translate(90.559131 23.798438)scale(0.1 -0.1)">
      <defs>
       <path id="DejaVuSans-43" d="M 4122 4306 
L 4122 3641 
Q 3803 3938 3442 4084 
Q 3081 4231 2675 4231 
Q 1875 4231 1450 3742 
Q 1025 3253 1025 2328 
Q 1025 1406 1450 917 
Q 1875 428 2675 428 
Q 3081 428 3442 575 
Q 3803 722 4122 1019 
L 4122 359 
Q 3791 134 3420 21 
Q 3050 -91 2638 -91 
Q 1578 -91 968 557 
Q 359 1206 359 2328 
Q 359 3453 968 4101 
Q 1578 4750 2638 4750 
Q 3056 4750 3426 4639 
Q 3797 4528 4122 4306 
z
" transform="scale(0.015625)"/>
       <path id="DejaVuSans-50" d="M 1259 4147 
L 1259 2394 
L 2053 2394 
Q 2494 2394 2734 2622 
Q 2975 2850 2975 3272 
Q 2975 3691 2734 3919 
Q 2494 4147 2053 4147 
L 1259 4147 
z
M 628 4666 
L 2053 4666 
Q 2838 4666 3239 4311 
Q 3641 3956 3641 3272 
Q 3641 2581 3239 2228 
Q 2838 1875 2053 1875 
L 1259 1875 
L 1259 0 
L 628 0 
L 628 4666 
z
" transform="scale(0.015625)"/>
       <path id="DejaVuSans-68" d="M 3513 2113 
L 3513 0 
L 2938 0 
L 2938 2094 
Q 2938 2591 2744 2837 
Q 2550 3084 2163 3084 
Q 1697 3084 1428 2787 
Q 1159 2491 1159 1978 
L 1159 0 
L 581 0 
L 581 4863 
L 1159 4863 
L 1159 2956 
Q 1366 3272 1645 3428 
Q 1925 3584 2291 3584 
Q 2894 3584 3203 3211 
Q 3513 2838 3513 2113 
z
" transform="scale(0.015625)"/>
       <path id="DejaVuSans-64" d="M 2906 2969 
L 2906 4863 
L 3481 4863 
L 3481 0 
L 2906 0 
L 2906 525 
Q 2725 213 2448 61 
Q 2172 -91 1784 -91 
Q 1150 -91 751 415 
Q 353 922 353 1747 
Q 353 2572 751 3078 
Q 1150 3584 1784 3584 
Q 2172 3584 2448 3432 
Q 2725 3281 2906 2969 
z
M 947 1747 
Q 947 1113 1208 752 
Q 1469 391 1925 391 
Q 2381 391 2643 752 
Q 2906 1113 2906 1747 
Q 2906 2381 2643 2742 
Q 2381 3103 1925 3103 
Q 1469 3103 1208 2742 
Q 947 2381 947 1747 
z
" transform="scale(0.015625)"/>
      </defs>
      <use xlink:href="#DejaVuSans-43"/>
      <use xlink:href="#DejaVuSans-4f" x="69.824219"/>
      <use xlink:href="#DejaVuSans-4f" x="148.535156"/>
      <use xlink:href="#DejaVuSans-50" x="227.246094"/>
      <use xlink:href="#DejaVuSans-20" x="287.548828"/>
      <use xlink:href="#DejaVuSans-68" x="319.335938"/>
      <use xlink:href="#DejaVuSans-65" x="382.714844"/>
      <use xlink:href="#DejaVuSans-61" x="444.238281"/>
      <use xlink:href="#DejaVuSans-64" x="505.517578"/>
      <use xlink:href="#DejaVuSans-65" x="568.994141"/>
      <use xlink:href="#DejaVuSans-72" x="630.517578"/>
     </g>
    </g>
    <g id="line2d_35">
     <path d="M 62.559131 34.976562 
L 72.559131 34.976562 
L 82.559131 34.976562 
" style="fill: none; stroke: #ff7f0e; stroke-width: 1.5; stroke-linecap: square"/>
    </g>
    <g id="text_25">
     <!-- same-origin -->
     <g transform="translate(90.559131 38.476562)scale(0.1 -0.1)">
      <use xlink:href="#DejaVuSans-73"/>
      <use xlink:href="#DejaVuSans-61" x="52.099609"/>
      <use xlink:href="#DejaVuSans-6d" x="113.378906"/>
      <use xlink:href="#DejaVuSans-65" x="210.791016"/>
      <use xlink:href="#DejaVuSans-2d" x="272.314453"/>
      <use xlink:href="#DejaVuSans-6f" x="310.273438"/>
      <use xlink:href="#DejaVuSans-72" x="371.455078"/>
      <use xlink:href="#DejaVuSans-69" x="412.568359"/>
      <use xlink:href="#DejaVuSans-67" x="440.351562"/>
      <use xlink:href="#DejaVuSans-69" x="503.828125"/>
      <use xlink:href="#DejaVuSans-6e" x="531.611328"/>
     </g>
    </g>
    <g id="line2d_36">
     <path d="M 62.559131 49.654687 
L 72.559131 49.654687 
L 82.559131 49.654687 
" style="fill: none; stroke: #2ca02c; stroke-width: 1.5; stroke-linecap: square"/>
    </g>
    <g id="text_26">
     <!-- same-origin-allow-popups -->
     <g transform="translate(90.559131 53.154687)scale(0.1 -0.1)">
      <defs>
       <path id="DejaVuSans-77" d="M 269 3500 
L 844 3500 
L 1563 769 
L 2278 3500 
L 2956 3500 
L 3675 769 
L 4391 3500 
L 4966 3500 
L 4050 0 
L 3372 0 
L 2619 2869 
L 1863 0 
L 1184 0 
L 269 3500 
z
" transform="scale(0.015625)"/>
      </defs>
      <use xlink:href="#DejaVuSans-73"/>
      <use xlink:href="#DejaVuSans-61" x="52.099609"/>
      <use xlink:href="#DejaVuSans-6d" x="113.378906"/>
      <use xlink:href="#DejaVuSans-65" x="210.791016"/>
      <use xlink:href="#DejaVuSans-2d" x="272.314453"/>
      <use xlink:href="#DejaVuSans-6f" x="310.273438"/>
      <use xlink:href="#DejaVuSans-72" x="371.455078"/>
      <use xlink:href="#DejaVuSans-69" x="412.568359"/>
      <use xlink:href="#DejaVuSans-67" x="440.351562"/>
      <use xlink:href="#DejaVuSans-69" x="503.828125"/>
      <use xlink:href="#DejaVuSans-6e" x="531.611328"/>
      <use xlink:href="#DejaVuSans-2d" x="594.990234"/>
      <use xlink:href="#DejaVuSans-61" x="631.074219"/>
      <use xlink:href="#DejaVuSans-6c" x="692.353516"/>
      <use xlink:href="#DejaVuSans-6c" x="720.136719"/>
      <use xlink:href="#DejaVuSans-6f" x="747.919922"/>
      <use xlink:href="#DejaVuSans-77" x="809.101562"/>
      <use xlink:href="#DejaVuSans-2d" x="890.888672"/>
      <use xlink:href="#DejaVuSans-70" x="926.972656"/>
      <use xlink:href="#DejaVuSans-6f" x="990.449219"/>
      <use xlink:href="#DejaVuSans-70" x="1051.630859"/>
      <use xlink:href="#DejaVuSans-75" x="1115.107422"/>
      <use xlink:href="#DejaVuSans-70" x="1178.486328"/>
      <use xlink:href="#DejaVuSans-73" x="1241.962891"/>
     </g>
    </g>
    <g id="line2d_37">
     <path d="M 62.559131 64.332813 
L 72.559131 64.332813 
L 82.559131 64.332813 
" style="fill: none; stroke: #d62728; stroke-width: 1.5; stroke-linecap: square"/>
    </g>
    <g id="text_27">
     <!-- unsafe-none -->
     <g transform="translate(90.559131 67.832813)scale(0.1 -0.1)">
      <use xlink:href="#DejaVuSans-75"/>
      <use xlink:href="#DejaVuSans-6e" x="63.378906"/>
      <use xlink:href="#DejaVuSans-73" x="126.757812"/>
      <use xlink:href="#DejaVuSans-61" x="178.857422"/>
      <use xlink:href="#DejaVuSans-66" x="240.136719"/>
      <use xlink:href="#DejaVuSans-65" x="275.341797"/>
      <use xlink:href="#DejaVuSans-2d" x="336.865234"/>
      <use xlink:href="#DejaVuSans-6e" x="372.949219"/>
      <use xlink:href="#DejaVuSans-6f" x="436.328125"/>
      <use xlink:href="#DejaVuSans-6e" x="497.509766"/>
      <use xlink:href="#DejaVuSans-65" x="560.888672"/>
     </g>
    </g>
   </g>
  </g>
 </g>
 <defs>
  <clipPath id="p061301c857">
   <rect x="53.559131" y="7.2" width="446.4" height="171.36"/>
  </clipPath>
 </defs>
</svg>
