<?xml version="1.0" encoding="utf-8" standalone="no"?>
<!DOCTYPE svg PUBLIC "-//W3C//DTD SVG 1.1//EN"
  "http://www.w3.org/Graphics/SVG/1.1/DTD/svg11.dtd">
<svg xmlns:xlink="http://www.w3.org/1999/xlink" width="506.732901pt" height="234.086815pt" viewBox="0 0 506.732901 234.086815" xmlns="http://www.w3.org/2000/svg" version="1.1">
 <metadata>
  <rdf:RDF xmlns:dc="http://purl.org/dc/elements/1.1/" xmlns:cc="http://creativecommons.org/ns#" xmlns:rdf="http://www.w3.org/1999/02/22-rdf-syntax-ns#">
   <cc:Work>
    <dc:type rdf:resource="http://purl.org/dc/dcmitype/StillImage"/>
    <dc:date>2022-02-13T18:53:39.716682</dc:date>
    <dc:format>image/svg+xml</dc:format>
    <dc:creator>
     <cc:Agent>
      <dc:title>Matplotlib v3.5.1, https://matplotlib.org/</dc:title>
     </cc:Agent>
    </dc:creator>
   </cc:Work>
  </rdf:RDF>
 </metadata>
 <defs>
  <style type="text/css">*{stroke-linejoin: round; stroke-linecap: butt}</style>
 </defs>
 <g id="figure_1">
  <g id="patch_1">
   <path d="M 0 234.086815 
L 506.732901 234.086815 
L 506.732901 0 
L 0 0 
z
" style="fill: #ffffff"/>
  </g>
  <g id="axes_1">
   <g id="patch_2">
    <path d="M 53.132901 178.56 
L 499.532901 178.56 
L 499.532901 7.2 
L 53.132901 7.2 
z
" style="fill: #ffffff"/>
   </g>
   <g id="matplotlib.axis_1">
    <g id="xtick_1">
     <g id="line2d_1">
      <defs>
       <path id="m1cbdc9ae30" d="M 0 0 
L 0 3.5 
" style="stroke: #000000; stroke-width: 0.8"/>
      </defs>
      <g>
       <use xlink:href="#m1cbdc9ae30" x="68.024899" y="178.56" style="stroke: #000000; stroke-width: 0.8"/>
      </g>
     </g>
     <g id="text_1">
      <!-- 2020-Nov-01 -->
      <g transform="translate(10.999219 224.463877)rotate(-30)scale(0.1 -0.1)">
       <defs>
        <path id="DejaVuSans-32" d="M 1228 531 
L 3431 531 
L 3431 0 
L 469 0 
L 469 531 
Q 828 903 1448 1529 
Q 2069 2156 2228 2338 
Q 2531 2678 2651 2914 
Q 2772 3150 2772 3378 
Q 2772 3750 2511 3984 
Q 2250 4219 1831 4219 
Q 1534 4219 1204 4116 
Q 875 4013 500 3803 
L 500 4441 
Q 881 4594 1212 4672 
Q 1544 4750 1819 4750 
Q 2544 4750 2975 4387 
Q 3406 4025 3406 3419 
Q 3406 3131 3298 2873 
Q 3191 2616 2906 2266 
Q 2828 2175 2409 1742 
Q 1991 1309 1228 531 
z
" transform="scale(0.015625)"/>
        <path id="DejaVuSans-30" d="M 2034 4250 
Q 1547 4250 1301 3770 
Q 1056 3291 1056 2328 
Q 1056 1369 1301 889 
Q 1547 409 2034 409 
Q 2525 409 2770 889 
Q 3016 1369 3016 2328 
Q 3016 3291 2770 3770 
Q 2525 4250 2034 4250 
z
M 2034 4750 
Q 2819 4750 3233 4129 
Q 3647 3509 3647 2328 
Q 3647 1150 3233 529 
Q 2819 -91 2034 -91 
Q 1250 -91 836 529 
Q 422 1150 422 2328 
Q 422 3509 836 4129 
Q 1250 4750 2034 4750 
z
" transform="scale(0.015625)"/>
        <path id="DejaVuSans-2d" d="M 313 2009 
L 1997 2009 
L 1997 1497 
L 313 1497 
L 313 2009 
z
" transform="scale(0.015625)"/>
        <path id="DejaVuSans-4e" d="M 628 4666 
L 1478 4666 
L 3547 763 
L 3547 4666 
L 4159 4666 
L 4159 0 
L 3309 0 
L 1241 3903 
L 1241 0 
L 628 0 
L 628 4666 
z
" transform="scale(0.015625)"/>
        <path id="DejaVuSans-6f" d="M 1959 3097 
Q 1497 3097 1228 2736 
Q 959 2375 959 1747 
Q 959 1119 1226 758 
Q 1494 397 1959 397 
Q 2419 397 2687 759 
Q 2956 1122 2956 1747 
Q 2956 2369 2687 2733 
Q 2419 3097 1959 3097 
z
M 1959 3584 
Q 2709 3584 3137 3096 
Q 3566 2609 3566 1747 
Q 3566 888 3137 398 
Q 2709 -91 1959 -91 
Q 1206 -91 779 398 
Q 353 888 353 1747 
Q 353 2609 779 3096 
Q 1206 3584 1959 3584 
z
" transform="scale(0.015625)"/>
        <path id="DejaVuSans-76" d="M 191 3500 
L 800 3500 
L 1894 563 
L 2988 3500 
L 3597 3500 
L 2284 0 
L 1503 0 
L 191 3500 
z
" transform="scale(0.015625)"/>
        <path id="DejaVuSans-31" d="M 794 531 
L 1825 531 
L 1825 4091 
L 703 3866 
L 703 4441 
L 1819 4666 
L 2450 4666 
L 2450 531 
L 3481 531 
L 3481 0 
L 794 0 
L 794 531 
z
" transform="scale(0.015625)"/>
       </defs>
       <use xlink:href="#DejaVuSans-32"/>
       <use xlink:href="#DejaVuSans-30" x="63.623047"/>
       <use xlink:href="#DejaVuSans-32" x="127.246094"/>
       <use xlink:href="#DejaVuSans-30" x="190.869141"/>
       <use xlink:href="#DejaVuSans-2d" x="254.492188"/>
       <use xlink:href="#DejaVuSans-4e" x="290.576172"/>
       <use xlink:href="#DejaVuSans-6f" x="365.380859"/>
       <use xlink:href="#DejaVuSans-76" x="426.5625"/>
       <use xlink:href="#DejaVuSans-2d" x="483.117188"/>
       <use xlink:href="#DejaVuSans-30" x="519.201172"/>
       <use xlink:href="#DejaVuSans-31" x="582.824219"/>
      </g>
     </g>
    </g>
    <g id="xtick_2">
     <g id="line2d_2">
      <g>
       <use xlink:href="#m1cbdc9ae30" x="95.019456" y="178.56" style="stroke: #000000; stroke-width: 0.8"/>
      </g>
     </g>
     <g id="text_2">
      <!-- 2020-Dec-01 -->
      <g transform="translate(37.911233 224.511534)rotate(-30)scale(0.1 -0.1)">
       <defs>
        <path id="DejaVuSans-44" d="M 1259 4147 
L 1259 519 
L 2022 519 
Q 2988 519 3436 956 
Q 3884 1394 3884 2338 
Q 3884 3275 3436 3711 
Q 2988 4147 2022 4147 
L 1259 4147 
z
M 628 4666 
L 1925 4666 
Q 3281 4666 3915 4102 
Q 4550 3538 4550 2338 
Q 4550 1131 3912 565 
Q 3275 0 1925 0 
L 628 0 
L 628 4666 
z
" transform="scale(0.015625)"/>
        <path id="DejaVuSans-65" d="M 3597 1894 
L 3597 1613 
L 953 1613 
Q 991 1019 1311 708 
Q 1631 397 2203 397 
Q 2534 397 2845 478 
Q 3156 559 3463 722 
L 3463 178 
Q 3153 47 2828 -22 
Q 2503 -91 2169 -91 
Q 1331 -91 842 396 
Q 353 884 353 1716 
Q 353 2575 817 3079 
Q 1281 3584 2069 3584 
Q 2775 3584 3186 3129 
Q 3597 2675 3597 1894 
z
M 3022 2063 
Q 3016 2534 2758 2815 
Q 2500 3097 2075 3097 
Q 1594 3097 1305 2825 
Q 1016 2553 972 2059 
L 3022 2063 
z
" transform="scale(0.015625)"/>
        <path id="DejaVuSans-63" d="M 3122 3366 
L 3122 2828 
Q 2878 2963 2633 3030 
Q 2388 3097 2138 3097 
Q 1578 3097 1268 2742 
Q 959 2388 959 1747 
Q 959 1106 1268 751 
Q 1578 397 2138 397 
Q 2388 397 2633 464 
Q 2878 531 3122 666 
L 3122 134 
Q 2881 22 2623 -34 
Q 2366 -91 2075 -91 
Q 1284 -91 818 406 
Q 353 903 353 1747 
Q 353 2603 823 3093 
Q 1294 3584 2113 3584 
Q 2378 3584 2631 3529 
Q 2884 3475 3122 3366 
z
" transform="scale(0.015625)"/>
       </defs>
       <use xlink:href="#DejaVuSans-32"/>
       <use xlink:href="#DejaVuSans-30" x="63.623047"/>
       <use xlink:href="#DejaVuSans-32" x="127.246094"/>
       <use xlink:href="#DejaVuSans-30" x="190.869141"/>
       <use xlink:href="#DejaVuSans-2d" x="254.492188"/>
       <use xlink:href="#DejaVuSans-44" x="290.576172"/>
       <use xlink:href="#DejaVuSans-65" x="367.578125"/>
       <use xlink:href="#DejaVuSans-63" x="429.101562"/>
       <use xlink:href="#DejaVuSans-2d" x="484.082031"/>
       <use xlink:href="#DejaVuSans-30" x="520.166016"/>
       <use xlink:href="#DejaVuSans-31" x="583.789062"/>
      </g>
     </g>
    </g>
    <g id="xtick_3">
     <g id="line2d_3">
      <g>
       <use xlink:href="#m1cbdc9ae30" x="122.913832" y="178.56" style="stroke: #000000; stroke-width: 0.8"/>
      </g>
     </g>
     <g id="text_3">
      <!-- 2021-Jan-01 -->
      <g transform="translate(68.727092 222.824815)rotate(-30)scale(0.1 -0.1)">
       <defs>
        <path id="DejaVuSans-4a" d="M 628 4666 
L 1259 4666 
L 1259 325 
Q 1259 -519 939 -900 
Q 619 -1281 -91 -1281 
L -331 -1281 
L -331 -750 
L -134 -750 
Q 284 -750 456 -515 
Q 628 -281 628 325 
L 628 4666 
z
" transform="scale(0.015625)"/>
        <path id="DejaVuSans-61" d="M 2194 1759 
Q 1497 1759 1228 1600 
Q 959 1441 959 1056 
Q 959 750 1161 570 
Q 1363 391 1709 391 
Q 2188 391 2477 730 
Q 2766 1069 2766 1631 
L 2766 1759 
L 2194 1759 
z
M 3341 1997 
L 3341 0 
L 2766 0 
L 2766 531 
Q 2569 213 2275 61 
Q 1981 -91 1556 -91 
Q 1019 -91 701 211 
Q 384 513 384 1019 
Q 384 1609 779 1909 
Q 1175 2209 1959 2209 
L 2766 2209 
L 2766 2266 
Q 2766 2663 2505 2880 
Q 2244 3097 1772 3097 
Q 1472 3097 1187 3025 
Q 903 2953 641 2809 
L 641 3341 
Q 956 3463 1253 3523 
Q 1550 3584 1831 3584 
Q 2591 3584 2966 3190 
Q 3341 2797 3341 1997 
z
" transform="scale(0.015625)"/>
        <path id="DejaVuSans-6e" d="M 3513 2113 
L 3513 0 
L 2938 0 
L 2938 2094 
Q 2938 2591 2744 2837 
Q 2550 3084 2163 3084 
Q 1697 3084 1428 2787 
Q 1159 2491 1159 1978 
L 1159 0 
L 581 0 
L 581 3500 
L 1159 3500 
L 1159 2956 
Q 1366 3272 1645 3428 
Q 1925 3584 2291 3584 
Q 2894 3584 3203 3211 
Q 3513 2838 3513 2113 
z
" transform="scale(0.015625)"/>
       </defs>
       <use xlink:href="#DejaVuSans-32"/>
       <use xlink:href="#DejaVuSans-30" x="63.623047"/>
       <use xlink:href="#DejaVuSans-32" x="127.246094"/>
       <use xlink:href="#DejaVuSans-31" x="190.869141"/>
       <use xlink:href="#DejaVuSans-2d" x="254.492188"/>
       <use xlink:href="#DejaVuSans-4a" x="296.201172"/>
       <use xlink:href="#DejaVuSans-61" x="325.693359"/>
       <use xlink:href="#DejaVuSans-6e" x="386.972656"/>
       <use xlink:href="#DejaVuSans-2d" x="450.351562"/>
       <use xlink:href="#DejaVuSans-30" x="486.435547"/>
       <use xlink:href="#DejaVuSans-31" x="550.058594"/>
      </g>
     </g>
    </g>
    <g id="xtick_4">
     <g id="line2d_4">
      <g>
       <use xlink:href="#m1cbdc9ae30" x="150.808208" y="178.56" style="stroke: #000000; stroke-width: 0.8"/>
      </g>
     </g>
     <g id="text_4">
      <!-- 2021-Feb-01 -->
      <g transform="translate(95.127574 223.687315)rotate(-30)scale(0.1 -0.1)">
       <defs>
        <path id="DejaVuSans-46" d="M 628 4666 
L 3309 4666 
L 3309 4134 
L 1259 4134 
L 1259 2759 
L 3109 2759 
L 3109 2228 
L 1259 2228 
L 1259 0 
L 628 0 
L 628 4666 
z
" transform="scale(0.015625)"/>
        <path id="DejaVuSans-62" d="M 3116 1747 
Q 3116 2381 2855 2742 
Q 2594 3103 2138 3103 
Q 1681 3103 1420 2742 
Q 1159 2381 1159 1747 
Q 1159 1113 1420 752 
Q 1681 391 2138 391 
Q 2594 391 2855 752 
Q 3116 1113 3116 1747 
z
M 1159 2969 
Q 1341 3281 1617 3432 
Q 1894 3584 2278 3584 
Q 2916 3584 3314 3078 
Q 3713 2572 3713 1747 
Q 3713 922 3314 415 
Q 2916 -91 2278 -91 
Q 1894 -91 1617 61 
Q 1341 213 1159 525 
L 1159 0 
L 581 0 
L 581 4863 
L 1159 4863 
L 1159 2969 
z
" transform="scale(0.015625)"/>
       </defs>
       <use xlink:href="#DejaVuSans-32"/>
       <use xlink:href="#DejaVuSans-30" x="63.623047"/>
       <use xlink:href="#DejaVuSans-32" x="127.246094"/>
       <use xlink:href="#DejaVuSans-31" x="190.869141"/>
       <use xlink:href="#DejaVuSans-2d" x="254.492188"/>
       <use xlink:href="#DejaVuSans-46" x="290.576172"/>
       <use xlink:href="#DejaVuSans-65" x="342.595703"/>
       <use xlink:href="#DejaVuSans-62" x="404.119141"/>
       <use xlink:href="#DejaVuSans-2d" x="467.595703"/>
       <use xlink:href="#DejaVuSans-30" x="503.679688"/>
       <use xlink:href="#DejaVuSans-31" x="567.302734"/>
      </g>
     </g>
    </g>
    <g id="xtick_5">
     <g id="line2d_5">
      <g>
       <use xlink:href="#m1cbdc9ae30" x="176.003129" y="178.56" style="stroke: #000000; stroke-width: 0.8"/>
      </g>
     </g>
     <g id="text_5">
      <!-- 2021-Mar-01 -->
      <g transform="translate(119.866478 223.950596)rotate(-30)scale(0.1 -0.1)">
       <defs>
        <path id="DejaVuSans-4d" d="M 628 4666 
L 1569 4666 
L 2759 1491 
L 3956 4666 
L 4897 4666 
L 4897 0 
L 4281 0 
L 4281 4097 
L 3078 897 
L 2444 897 
L 1241 4097 
L 1241 0 
L 628 0 
L 628 4666 
z
" transform="scale(0.015625)"/>
        <path id="DejaVuSans-72" d="M 2631 2963 
Q 2534 3019 2420 3045 
Q 2306 3072 2169 3072 
Q 1681 3072 1420 2755 
Q 1159 2438 1159 1844 
L 1159 0 
L 581 0 
L 581 3500 
L 1159 3500 
L 1159 2956 
Q 1341 3275 1631 3429 
Q 1922 3584 2338 3584 
Q 2397 3584 2469 3576 
Q 2541 3569 2628 3553 
L 2631 2963 
z
" transform="scale(0.015625)"/>
       </defs>
       <use xlink:href="#DejaVuSans-32"/>
       <use xlink:href="#DejaVuSans-30" x="63.623047"/>
       <use xlink:href="#DejaVuSans-32" x="127.246094"/>
       <use xlink:href="#DejaVuSans-31" x="190.869141"/>
       <use xlink:href="#DejaVuSans-2d" x="254.492188"/>
       <use xlink:href="#DejaVuSans-4d" x="290.576172"/>
       <use xlink:href="#DejaVuSans-61" x="376.855469"/>
       <use xlink:href="#DejaVuSans-72" x="438.134766"/>
       <use xlink:href="#DejaVuSans-2d" x="472.873047"/>
       <use xlink:href="#DejaVuSans-30" x="508.957031"/>
       <use xlink:href="#DejaVuSans-31" x="572.580078"/>
      </g>
     </g>
    </g>
    <g id="xtick_6">
     <g id="line2d_6">
      <g>
       <use xlink:href="#m1cbdc9ae30" x="203.897505" y="178.56" style="stroke: #000000; stroke-width: 0.8"/>
      </g>
     </g>
     <g id="text_6">
      <!-- 2021-Apr-01 -->
      <g transform="translate(149.312934 223.054502)rotate(-30)scale(0.1 -0.1)">
       <defs>
        <path id="DejaVuSans-41" d="M 2188 4044 
L 1331 1722 
L 3047 1722 
L 2188 4044 
z
M 1831 4666 
L 2547 4666 
L 4325 0 
L 3669 0 
L 3244 1197 
L 1141 1197 
L 716 0 
L 50 0 
L 1831 4666 
z
" transform="scale(0.015625)"/>
        <path id="DejaVuSans-70" d="M 1159 525 
L 1159 -1331 
L 581 -1331 
L 581 3500 
L 1159 3500 
L 1159 2969 
Q 1341 3281 1617 3432 
Q 1894 3584 2278 3584 
Q 2916 3584 3314 3078 
Q 3713 2572 3713 1747 
Q 3713 922 3314 415 
Q 2916 -91 2278 -91 
Q 1894 -91 1617 61 
Q 1341 213 1159 525 
z
M 3116 1747 
Q 3116 2381 2855 2742 
Q 2594 3103 2138 3103 
Q 1681 3103 1420 2742 
Q 1159 2381 1159 1747 
Q 1159 1113 1420 752 
Q 1681 391 2138 391 
Q 2594 391 2855 752 
Q 3116 1113 3116 1747 
z
" transform="scale(0.015625)"/>
       </defs>
       <use xlink:href="#DejaVuSans-32"/>
       <use xlink:href="#DejaVuSans-30" x="63.623047"/>
       <use xlink:href="#DejaVuSans-32" x="127.246094"/>
       <use xlink:href="#DejaVuSans-31" x="190.869141"/>
       <use xlink:href="#DejaVuSans-2d" x="254.492188"/>
       <use xlink:href="#DejaVuSans-41" x="288.326172"/>
       <use xlink:href="#DejaVuSans-70" x="356.734375"/>
       <use xlink:href="#DejaVuSans-72" x="420.210938"/>
       <use xlink:href="#DejaVuSans-2d" x="454.949219"/>
       <use xlink:href="#DejaVuSans-30" x="491.033203"/>
       <use xlink:href="#DejaVuSans-31" x="554.65625"/>
      </g>
     </g>
    </g>
    <g id="xtick_7">
     <g id="line2d_7">
      <g>
       <use xlink:href="#m1cbdc9ae30" x="230.892062" y="178.56" style="stroke: #000000; stroke-width: 0.8"/>
      </g>
     </g>
     <g id="text_7">
      <!-- 2021-May-01 -->
      <g transform="translate(172.789264 225.085752)rotate(-30)scale(0.1 -0.1)">
       <defs>
        <path id="DejaVuSans-79" d="M 2059 -325 
Q 1816 -950 1584 -1140 
Q 1353 -1331 966 -1331 
L 506 -1331 
L 506 -850 
L 844 -850 
Q 1081 -850 1212 -737 
Q 1344 -625 1503 -206 
L 1606 56 
L 191 3500 
L 800 3500 
L 1894 763 
L 2988 3500 
L 3597 3500 
L 2059 -325 
z
" transform="scale(0.015625)"/>
       </defs>
       <use xlink:href="#DejaVuSans-32"/>
       <use xlink:href="#DejaVuSans-30" x="63.623047"/>
       <use xlink:href="#DejaVuSans-32" x="127.246094"/>
       <use xlink:href="#DejaVuSans-31" x="190.869141"/>
       <use xlink:href="#DejaVuSans-2d" x="254.492188"/>
       <use xlink:href="#DejaVuSans-4d" x="290.576172"/>
       <use xlink:href="#DejaVuSans-61" x="376.855469"/>
       <use xlink:href="#DejaVuSans-79" x="438.134766"/>
       <use xlink:href="#DejaVuSans-2d" x="495.564453"/>
       <use xlink:href="#DejaVuSans-30" x="531.648438"/>
       <use xlink:href="#DejaVuSans-31" x="595.271484"/>
      </g>
     </g>
    </g>
    <g id="xtick_8">
     <g id="line2d_8">
      <g>
       <use xlink:href="#m1cbdc9ae30" x="258.786439" y="178.56" style="stroke: #000000; stroke-width: 0.8"/>
      </g>
     </g>
     <g id="text_8">
      <!-- 2021-Jun-01 -->
      <g transform="translate(204.418374 222.929502)rotate(-30)scale(0.1 -0.1)">
       <defs>
        <path id="DejaVuSans-75" d="M 544 1381 
L 544 3500 
L 1119 3500 
L 1119 1403 
Q 1119 906 1312 657 
Q 1506 409 1894 409 
Q 2359 409 2629 706 
Q 2900 1003 2900 1516 
L 2900 3500 
L 3475 3500 
L 3475 0 
L 2900 0 
L 2900 538 
Q 2691 219 2414 64 
Q 2138 -91 1772 -91 
Q 1169 -91 856 284 
Q 544 659 544 1381 
z
M 1991 3584 
L 1991 3584 
z
" transform="scale(0.015625)"/>
       </defs>
       <use xlink:href="#DejaVuSans-32"/>
       <use xlink:href="#DejaVuSans-30" x="63.623047"/>
       <use xlink:href="#DejaVuSans-32" x="127.246094"/>
       <use xlink:href="#DejaVuSans-31" x="190.869141"/>
       <use xlink:href="#DejaVuSans-2d" x="254.492188"/>
       <use xlink:href="#DejaVuSans-4a" x="296.201172"/>
       <use xlink:href="#DejaVuSans-75" x="325.693359"/>
       <use xlink:href="#DejaVuSans-6e" x="389.072266"/>
       <use xlink:href="#DejaVuSans-2d" x="452.451172"/>
       <use xlink:href="#DejaVuSans-30" x="488.535156"/>
       <use xlink:href="#DejaVuSans-31" x="552.158203"/>
      </g>
     </g>
    </g>
    <g id="xtick_9">
     <g id="line2d_9">
      <g>
       <use xlink:href="#m1cbdc9ae30" x="285.780996" y="178.56" style="stroke: #000000; stroke-width: 0.8"/>
      </g>
     </g>
     <g id="text_9">
      <!-- 2021-Jul-01 -->
      <g transform="translate(234.495441 221.149815)rotate(-30)scale(0.1 -0.1)">
       <defs>
        <path id="DejaVuSans-6c" d="M 603 4863 
L 1178 4863 
L 1178 0 
L 603 0 
L 603 4863 
z
" transform="scale(0.015625)"/>
       </defs>
       <use xlink:href="#DejaVuSans-32"/>
       <use xlink:href="#DejaVuSans-30" x="63.623047"/>
       <use xlink:href="#DejaVuSans-32" x="127.246094"/>
       <use xlink:href="#DejaVuSans-31" x="190.869141"/>
       <use xlink:href="#DejaVuSans-2d" x="254.492188"/>
       <use xlink:href="#DejaVuSans-4a" x="296.201172"/>
       <use xlink:href="#DejaVuSans-75" x="325.693359"/>
       <use xlink:href="#DejaVuSans-6c" x="389.072266"/>
       <use xlink:href="#DejaVuSans-2d" x="416.855469"/>
       <use xlink:href="#DejaVuSans-30" x="452.939453"/>
       <use xlink:href="#DejaVuSans-31" x="516.5625"/>
      </g>
     </g>
    </g>
    <g id="xtick_10">
     <g id="line2d_10">
      <g>
       <use xlink:href="#m1cbdc9ae30" x="313.675372" y="178.56" style="stroke: #000000; stroke-width: 0.8"/>
      </g>
     </g>
     <g id="text_10">
      <!-- 2021-Aug-01 -->
      <g transform="translate(256.610451 224.486534)rotate(-30)scale(0.1 -0.1)">
       <defs>
        <path id="DejaVuSans-67" d="M 2906 1791 
Q 2906 2416 2648 2759 
Q 2391 3103 1925 3103 
Q 1463 3103 1205 2759 
Q 947 2416 947 1791 
Q 947 1169 1205 825 
Q 1463 481 1925 481 
Q 2391 481 2648 825 
Q 2906 1169 2906 1791 
z
M 3481 434 
Q 3481 -459 3084 -895 
Q 2688 -1331 1869 -1331 
Q 1566 -1331 1297 -1286 
Q 1028 -1241 775 -1147 
L 775 -588 
Q 1028 -725 1275 -790 
Q 1522 -856 1778 -856 
Q 2344 -856 2625 -561 
Q 2906 -266 2906 331 
L 2906 616 
Q 2728 306 2450 153 
Q 2172 0 1784 0 
Q 1141 0 747 490 
Q 353 981 353 1791 
Q 353 2603 747 3093 
Q 1141 3584 1784 3584 
Q 2172 3584 2450 3431 
Q 2728 3278 2906 2969 
L 2906 3500 
L 3481 3500 
L 3481 434 
z
" transform="scale(0.015625)"/>
       </defs>
       <use xlink:href="#DejaVuSans-32"/>
       <use xlink:href="#DejaVuSans-30" x="63.623047"/>
       <use xlink:href="#DejaVuSans-32" x="127.246094"/>
       <use xlink:href="#DejaVuSans-31" x="190.869141"/>
       <use xlink:href="#DejaVuSans-2d" x="254.492188"/>
       <use xlink:href="#DejaVuSans-41" x="288.326172"/>
       <use xlink:href="#DejaVuSans-75" x="356.734375"/>
       <use xlink:href="#DejaVuSans-67" x="420.113281"/>
       <use xlink:href="#DejaVuSans-2d" x="483.589844"/>
       <use xlink:href="#DejaVuSans-30" x="519.673828"/>
       <use xlink:href="#DejaVuSans-31" x="583.296875"/>
      </g>
     </g>
    </g>
    <g id="xtick_11">
     <g id="line2d_11">
      <g>
       <use xlink:href="#m1cbdc9ae30" x="341.569748" y="178.56" style="stroke: #000000; stroke-width: 0.8"/>
      </g>
     </g>
     <g id="text_11">
      <!-- 2021-Sep-01 -->
      <g transform="translate(284.895891 224.260752)rotate(-30)scale(0.1 -0.1)">
       <defs>
        <path id="DejaVuSans-53" d="M 3425 4513 
L 3425 3897 
Q 3066 4069 2747 4153 
Q 2428 4238 2131 4238 
Q 1616 4238 1336 4038 
Q 1056 3838 1056 3469 
Q 1056 3159 1242 3001 
Q 1428 2844 1947 2747 
L 2328 2669 
Q 3034 2534 3370 2195 
Q 3706 1856 3706 1288 
Q 3706 609 3251 259 
Q 2797 -91 1919 -91 
Q 1588 -91 1214 -16 
Q 841 59 441 206 
L 441 856 
Q 825 641 1194 531 
Q 1563 422 1919 422 
Q 2459 422 2753 634 
Q 3047 847 3047 1241 
Q 3047 1584 2836 1778 
Q 2625 1972 2144 2069 
L 1759 2144 
Q 1053 2284 737 2584 
Q 422 2884 422 3419 
Q 422 4038 858 4394 
Q 1294 4750 2059 4750 
Q 2388 4750 2728 4690 
Q 3069 4631 3425 4513 
z
" transform="scale(0.015625)"/>
       </defs>
       <use xlink:href="#DejaVuSans-32"/>
       <use xlink:href="#DejaVuSans-30" x="63.623047"/>
       <use xlink:href="#DejaVuSans-32" x="127.246094"/>
       <use xlink:href="#DejaVuSans-31" x="190.869141"/>
       <use xlink:href="#DejaVuSans-2d" x="254.492188"/>
       <use xlink:href="#DejaVuSans-53" x="290.576172"/>
       <use xlink:href="#DejaVuSans-65" x="354.052734"/>
       <use xlink:href="#DejaVuSans-70" x="415.576172"/>
       <use xlink:href="#DejaVuSans-2d" x="479.052734"/>
       <use xlink:href="#DejaVuSans-30" x="515.136719"/>
       <use xlink:href="#DejaVuSans-31" x="578.759766"/>
      </g>
     </g>
    </g>
    <g id="xtick_12">
     <g id="line2d_12">
      <g>
       <use xlink:href="#m1cbdc9ae30" x="368.564306" y="178.56" style="stroke: #000000; stroke-width: 0.8"/>
      </g>
     </g>
     <g id="text_12">
      <!-- 2021-Oct-01 -->
      <g transform="translate(313.00275 223.618565)rotate(-30)scale(0.1 -0.1)">
       <defs>
        <path id="DejaVuSans-4f" d="M 2522 4238 
Q 1834 4238 1429 3725 
Q 1025 3213 1025 2328 
Q 1025 1447 1429 934 
Q 1834 422 2522 422 
Q 3209 422 3611 934 
Q 4013 1447 4013 2328 
Q 4013 3213 3611 3725 
Q 3209 4238 2522 4238 
z
M 2522 4750 
Q 3503 4750 4090 4092 
Q 4678 3434 4678 2328 
Q 4678 1225 4090 567 
Q 3503 -91 2522 -91 
Q 1538 -91 948 565 
Q 359 1222 359 2328 
Q 359 3434 948 4092 
Q 1538 4750 2522 4750 
z
" transform="scale(0.015625)"/>
        <path id="DejaVuSans-74" d="M 1172 4494 
L 1172 3500 
L 2356 3500 
L 2356 3053 
L 1172 3053 
L 1172 1153 
Q 1172 725 1289 603 
Q 1406 481 1766 481 
L 2356 481 
L 2356 0 
L 1766 0 
Q 1100 0 847 248 
Q 594 497 594 1153 
L 594 3053 
L 172 3053 
L 172 3500 
L 594 3500 
L 594 4494 
L 1172 4494 
z
" transform="scale(0.015625)"/>
       </defs>
       <use xlink:href="#DejaVuSans-32"/>
       <use xlink:href="#DejaVuSans-30" x="63.623047"/>
       <use xlink:href="#DejaVuSans-32" x="127.246094"/>
       <use xlink:href="#DejaVuSans-31" x="190.869141"/>
       <use xlink:href="#DejaVuSans-2d" x="254.492188"/>
       <use xlink:href="#DejaVuSans-4f" x="293.326172"/>
       <use xlink:href="#DejaVuSans-63" x="372.037109"/>
       <use xlink:href="#DejaVuSans-74" x="427.017578"/>
       <use xlink:href="#DejaVuSans-2d" x="466.226562"/>
       <use xlink:href="#DejaVuSans-30" x="502.310547"/>
       <use xlink:href="#DejaVuSans-31" x="565.933594"/>
      </g>
     </g>
    </g>
    <g id="xtick_13">
     <g id="line2d_13">
      <g>
       <use xlink:href="#m1cbdc9ae30" x="396.458682" y="178.56" style="stroke: #000000; stroke-width: 0.8"/>
      </g>
     </g>
     <g id="text_13">
      <!-- 2021-Nov-01 -->
      <g transform="translate(339.433002 224.463877)rotate(-30)scale(0.1 -0.1)">
       <use xlink:href="#DejaVuSans-32"/>
       <use xlink:href="#DejaVuSans-30" x="63.623047"/>
       <use xlink:href="#DejaVuSans-32" x="127.246094"/>
       <use xlink:href="#DejaVuSans-31" x="190.869141"/>
       <use xlink:href="#DejaVuSans-2d" x="254.492188"/>
       <use xlink:href="#DejaVuSans-4e" x="290.576172"/>
       <use xlink:href="#DejaVuSans-6f" x="365.380859"/>
       <use xlink:href="#DejaVuSans-76" x="426.5625"/>
       <use xlink:href="#DejaVuSans-2d" x="483.117188"/>
       <use xlink:href="#DejaVuSans-30" x="519.201172"/>
       <use xlink:href="#DejaVuSans-31" x="582.824219"/>
      </g>
     </g>
    </g>
    <g id="xtick_14">
     <g id="line2d_14">
      <g>
       <use xlink:href="#m1cbdc9ae30" x="423.45324" y="178.56" style="stroke: #000000; stroke-width: 0.8"/>
      </g>
     </g>
     <g id="text_14">
      <!-- 2021-Dec-01 -->
      <g transform="translate(366.345017 224.511534)rotate(-30)scale(0.1 -0.1)">
       <use xlink:href="#DejaVuSans-32"/>
       <use xlink:href="#DejaVuSans-30" x="63.623047"/>
       <use xlink:href="#DejaVuSans-32" x="127.246094"/>
       <use xlink:href="#DejaVuSans-31" x="190.869141"/>
       <use xlink:href="#DejaVuSans-2d" x="254.492188"/>
       <use xlink:href="#DejaVuSans-44" x="290.576172"/>
       <use xlink:href="#DejaVuSans-65" x="367.578125"/>
       <use xlink:href="#DejaVuSans-63" x="429.101562"/>
       <use xlink:href="#DejaVuSans-2d" x="484.082031"/>
       <use xlink:href="#DejaVuSans-30" x="520.166016"/>
       <use xlink:href="#DejaVuSans-31" x="583.789062"/>
      </g>
     </g>
    </g>
    <g id="xtick_15">
     <g id="line2d_15">
      <g>
       <use xlink:href="#m1cbdc9ae30" x="451.347616" y="178.56" style="stroke: #000000; stroke-width: 0.8"/>
      </g>
     </g>
     <g id="text_15">
      <!-- 2022-Jan-01 -->
      <g transform="translate(397.160875 222.824815)rotate(-30)scale(0.1 -0.1)">
       <use xlink:href="#DejaVuSans-32"/>
       <use xlink:href="#DejaVuSans-30" x="63.623047"/>
       <use xlink:href="#DejaVuSans-32" x="127.246094"/>
       <use xlink:href="#DejaVuSans-32" x="190.869141"/>
       <use xlink:href="#DejaVuSans-2d" x="254.492188"/>
       <use xlink:href="#DejaVuSans-4a" x="296.201172"/>
       <use xlink:href="#DejaVuSans-61" x="325.693359"/>
       <use xlink:href="#DejaVuSans-6e" x="386.972656"/>
       <use xlink:href="#DejaVuSans-2d" x="450.351562"/>
       <use xlink:href="#DejaVuSans-30" x="486.435547"/>
       <use xlink:href="#DejaVuSans-31" x="550.058594"/>
      </g>
     </g>
    </g>
    <g id="xtick_16">
     <g id="line2d_16">
      <g>
       <use xlink:href="#m1cbdc9ae30" x="479.241992" y="178.56" style="stroke: #000000; stroke-width: 0.8"/>
      </g>
     </g>
     <g id="text_16">
      <!-- 2022-Feb-01 -->
      <g transform="translate(423.561358 223.687315)rotate(-30)scale(0.1 -0.1)">
       <use xlink:href="#DejaVuSans-32"/>
       <use xlink:href="#DejaVuSans-30" x="63.623047"/>
       <use xlink:href="#DejaVuSans-32" x="127.246094"/>
       <use xlink:href="#DejaVuSans-32" x="190.869141"/>
       <use xlink:href="#DejaVuSans-2d" x="254.492188"/>
       <use xlink:href="#DejaVuSans-46" x="290.576172"/>
       <use xlink:href="#DejaVuSans-65" x="342.595703"/>
       <use xlink:href="#DejaVuSans-62" x="404.119141"/>
       <use xlink:href="#DejaVuSans-2d" x="467.595703"/>
       <use xlink:href="#DejaVuSans-30" x="503.679688"/>
       <use xlink:href="#DejaVuSans-31" x="567.302734"/>
      </g>
     </g>
    </g>
   </g>
   <g id="matplotlib.axis_2">
    <g id="ytick_1">
     <g id="line2d_17">
      <path d="M 53.132901 174.410671 
L 499.532901 174.410671 
" clip-path="url(#pa070beb26e)" style="fill: none; stroke: #b0b0b0; stroke-width: 0.8; stroke-linecap: square"/>
     </g>
     <g id="line2d_18">
      <defs>
       <path id="me4c63bf823" d="M 0 0 
L -3.5 0 
" style="stroke: #000000; stroke-width: 0.8"/>
      </defs>
      <g>
       <use xlink:href="#me4c63bf823" x="53.132901" y="174.410671" style="stroke: #000000; stroke-width: 0.8"/>
      </g>
     </g>
     <g id="text_17">
      <!-- 0 -->
      <g transform="translate(39.770401 178.20989)scale(0.1 -0.1)">
       <use xlink:href="#DejaVuSans-30"/>
      </g>
     </g>
    </g>
    <g id="ytick_2">
     <g id="line2d_19">
      <path d="M 53.132901 150.14559 
L 499.532901 150.14559 
" clip-path="url(#pa070beb26e)" style="fill: none; stroke: #b0b0b0; stroke-width: 0.8; stroke-linecap: square"/>
     </g>
     <g id="line2d_20">
      <g>
       <use xlink:href="#me4c63bf823" x="53.132901" y="150.14559" style="stroke: #000000; stroke-width: 0.8"/>
      </g>
     </g>
     <g id="text_18">
      <!-- 100 -->
      <g transform="translate(27.045401 153.944809)scale(0.1 -0.1)">
       <use xlink:href="#DejaVuSans-31"/>
       <use xlink:href="#DejaVuSans-30" x="63.623047"/>
       <use xlink:href="#DejaVuSans-30" x="127.246094"/>
      </g>
     </g>
    </g>
    <g id="ytick_3">
     <g id="line2d_21">
      <path d="M 53.132901 125.88051 
L 499.532901 125.88051 
" clip-path="url(#pa070beb26e)" style="fill: none; stroke: #b0b0b0; stroke-width: 0.8; stroke-linecap: square"/>
     </g>
     <g id="line2d_22">
      <g>
       <use xlink:href="#me4c63bf823" x="53.132901" y="125.88051" style="stroke: #000000; stroke-width: 0.8"/>
      </g>
     </g>
     <g id="text_19">
      <!-- 200 -->
      <g transform="translate(27.045401 129.679729)scale(0.1 -0.1)">
       <use xlink:href="#DejaVuSans-32"/>
       <use xlink:href="#DejaVuSans-30" x="63.623047"/>
       <use xlink:href="#DejaVuSans-30" x="127.246094"/>
      </g>
     </g>
    </g>
    <g id="ytick_4">
     <g id="line2d_23">
      <path d="M 53.132901 101.615429 
L 499.532901 101.615429 
" clip-path="url(#pa070beb26e)" style="fill: none; stroke: #b0b0b0; stroke-width: 0.8; stroke-linecap: square"/>
     </g>
     <g id="line2d_24">
      <g>
       <use xlink:href="#me4c63bf823" x="53.132901" y="101.615429" style="stroke: #000000; stroke-width: 0.8"/>
      </g>
     </g>
     <g id="text_20">
      <!-- 300 -->
      <g transform="translate(27.045401 105.414648)scale(0.1 -0.1)">
       <defs>
        <path id="DejaVuSans-33" d="M 2597 2516 
Q 3050 2419 3304 2112 
Q 3559 1806 3559 1356 
Q 3559 666 3084 287 
Q 2609 -91 1734 -91 
Q 1441 -91 1130 -33 
Q 819 25 488 141 
L 488 750 
Q 750 597 1062 519 
Q 1375 441 1716 441 
Q 2309 441 2620 675 
Q 2931 909 2931 1356 
Q 2931 1769 2642 2001 
Q 2353 2234 1838 2234 
L 1294 2234 
L 1294 2753 
L 1863 2753 
Q 2328 2753 2575 2939 
Q 2822 3125 2822 3475 
Q 2822 3834 2567 4026 
Q 2313 4219 1838 4219 
Q 1578 4219 1281 4162 
Q 984 4106 628 3988 
L 628 4550 
Q 988 4650 1302 4700 
Q 1616 4750 1894 4750 
Q 2613 4750 3031 4423 
Q 3450 4097 3450 3541 
Q 3450 3153 3228 2886 
Q 3006 2619 2597 2516 
z
" transform="scale(0.015625)"/>
       </defs>
       <use xlink:href="#DejaVuSans-33"/>
       <use xlink:href="#DejaVuSans-30" x="63.623047"/>
       <use xlink:href="#DejaVuSans-30" x="127.246094"/>
      </g>
     </g>
    </g>
    <g id="ytick_5">
     <g id="line2d_25">
      <path d="M 53.132901 77.350348 
L 499.532901 77.350348 
" clip-path="url(#pa070beb26e)" style="fill: none; stroke: #b0b0b0; stroke-width: 0.8; stroke-linecap: square"/>
     </g>
     <g id="line2d_26">
      <g>
       <use xlink:href="#me4c63bf823" x="53.132901" y="77.350348" style="stroke: #000000; stroke-width: 0.8"/>
      </g>
     </g>
     <g id="text_21">
      <!-- 400 -->
      <g transform="translate(27.045401 81.149567)scale(0.1 -0.1)">
       <defs>
        <path id="DejaVuSans-34" d="M 2419 4116 
L 825 1625 
L 2419 1625 
L 2419 4116 
z
M 2253 4666 
L 3047 4666 
L 3047 1625 
L 3713 1625 
L 3713 1100 
L 3047 1100 
L 3047 0 
L 2419 0 
L 2419 1100 
L 313 1100 
L 313 1709 
L 2253 4666 
z
" transform="scale(0.015625)"/>
       </defs>
       <use xlink:href="#DejaVuSans-34"/>
       <use xlink:href="#DejaVuSans-30" x="63.623047"/>
       <use xlink:href="#DejaVuSans-30" x="127.246094"/>
      </g>
     </g>
    </g>
    <g id="ytick_6">
     <g id="line2d_27">
      <path d="M 53.132901 53.085268 
L 499.532901 53.085268 
" clip-path="url(#pa070beb26e)" style="fill: none; stroke: #b0b0b0; stroke-width: 0.8; stroke-linecap: square"/>
     </g>
     <g id="line2d_28">
      <g>
       <use xlink:href="#me4c63bf823" x="53.132901" y="53.085268" style="stroke: #000000; stroke-width: 0.8"/>
      </g>
     </g>
     <g id="text_22">
      <!-- 500 -->
      <g transform="translate(27.045401 56.884486)scale(0.1 -0.1)">
       <defs>
        <path id="DejaVuSans-35" d="M 691 4666 
L 3169 4666 
L 3169 4134 
L 1269 4134 
L 1269 2991 
Q 1406 3038 1543 3061 
Q 1681 3084 1819 3084 
Q 2600 3084 3056 2656 
Q 3513 2228 3513 1497 
Q 3513 744 3044 326 
Q 2575 -91 1722 -91 
Q 1428 -91 1123 -41 
Q 819 9 494 109 
L 494 744 
Q 775 591 1075 516 
Q 1375 441 1709 441 
Q 2250 441 2565 725 
Q 2881 1009 2881 1497 
Q 2881 1984 2565 2268 
Q 2250 2553 1709 2553 
Q 1456 2553 1204 2497 
Q 953 2441 691 2322 
L 691 4666 
z
" transform="scale(0.015625)"/>
       </defs>
       <use xlink:href="#DejaVuSans-35"/>
       <use xlink:href="#DejaVuSans-30" x="63.623047"/>
       <use xlink:href="#DejaVuSans-30" x="127.246094"/>
      </g>
     </g>
    </g>
    <g id="ytick_7">
     <g id="line2d_29">
      <path d="M 53.132901 28.820187 
L 499.532901 28.820187 
" clip-path="url(#pa070beb26e)" style="fill: none; stroke: #b0b0b0; stroke-width: 0.8; stroke-linecap: square"/>
     </g>
     <g id="line2d_30">
      <g>
       <use xlink:href="#me4c63bf823" x="53.132901" y="28.820187" style="stroke: #000000; stroke-width: 0.8"/>
      </g>
     </g>
     <g id="text_23">
      <!-- 600 -->
      <g transform="translate(27.045401 32.619406)scale(0.1 -0.1)">
       <defs>
        <path id="DejaVuSans-36" d="M 2113 2584 
Q 1688 2584 1439 2293 
Q 1191 2003 1191 1497 
Q 1191 994 1439 701 
Q 1688 409 2113 409 
Q 2538 409 2786 701 
Q 3034 994 3034 1497 
Q 3034 2003 2786 2293 
Q 2538 2584 2113 2584 
z
M 3366 4563 
L 3366 3988 
Q 3128 4100 2886 4159 
Q 2644 4219 2406 4219 
Q 1781 4219 1451 3797 
Q 1122 3375 1075 2522 
Q 1259 2794 1537 2939 
Q 1816 3084 2150 3084 
Q 2853 3084 3261 2657 
Q 3669 2231 3669 1497 
Q 3669 778 3244 343 
Q 2819 -91 2113 -91 
Q 1303 -91 875 529 
Q 447 1150 447 2328 
Q 447 3434 972 4092 
Q 1497 4750 2381 4750 
Q 2619 4750 2861 4703 
Q 3103 4656 3366 4563 
z
" transform="scale(0.015625)"/>
       </defs>
       <use xlink:href="#DejaVuSans-36"/>
       <use xlink:href="#DejaVuSans-30" x="63.623047"/>
       <use xlink:href="#DejaVuSans-30" x="127.246094"/>
      </g>
     </g>
    </g>
    <g id="text_24">
     <!-- Number of Domains -->
     <g transform="translate(20.965713 142.969844)rotate(-90)scale(0.1 -0.1)">
      <defs>
       <path id="DejaVuSans-6d" d="M 3328 2828 
Q 3544 3216 3844 3400 
Q 4144 3584 4550 3584 
Q 5097 3584 5394 3201 
Q 5691 2819 5691 2113 
L 5691 0 
L 5113 0 
L 5113 2094 
Q 5113 2597 4934 2840 
Q 4756 3084 4391 3084 
Q 3944 3084 3684 2787 
Q 3425 2491 3425 1978 
L 3425 0 
L 2847 0 
L 2847 2094 
Q 2847 2600 2669 2842 
Q 2491 3084 2119 3084 
Q 1678 3084 1418 2786 
Q 1159 2488 1159 1978 
L 1159 0 
L 581 0 
L 581 3500 
L 1159 3500 
L 1159 2956 
Q 1356 3278 1631 3431 
Q 1906 3584 2284 3584 
Q 2666 3584 2933 3390 
Q 3200 3197 3328 2828 
z
" transform="scale(0.015625)"/>
       <path id="DejaVuSans-20" transform="scale(0.015625)"/>
       <path id="DejaVuSans-66" d="M 2375 4863 
L 2375 4384 
L 1825 4384 
Q 1516 4384 1395 4259 
Q 1275 4134 1275 3809 
L 1275 3500 
L 2222 3500 
L 2222 3053 
L 1275 3053 
L 1275 0 
L 697 0 
L 697 3053 
L 147 3053 
L 147 3500 
L 697 3500 
L 697 3744 
Q 697 4328 969 4595 
Q 1241 4863 1831 4863 
L 2375 4863 
z
" transform="scale(0.015625)"/>
       <path id="DejaVuSans-69" d="M 603 3500 
L 1178 3500 
L 1178 0 
L 603 0 
L 603 3500 
z
M 603 4863 
L 1178 4863 
L 1178 4134 
L 603 4134 
L 603 4863 
z
" transform="scale(0.015625)"/>
       <path id="DejaVuSans-73" d="M 2834 3397 
L 2834 2853 
Q 2591 2978 2328 3040 
Q 2066 3103 1784 3103 
Q 1356 3103 1142 2972 
Q 928 2841 928 2578 
Q 928 2378 1081 2264 
Q 1234 2150 1697 2047 
L 1894 2003 
Q 2506 1872 2764 1633 
Q 3022 1394 3022 966 
Q 3022 478 2636 193 
Q 2250 -91 1575 -91 
Q 1294 -91 989 -36 
Q 684 19 347 128 
L 347 722 
Q 666 556 975 473 
Q 1284 391 1588 391 
Q 1994 391 2212 530 
Q 2431 669 2431 922 
Q 2431 1156 2273 1281 
Q 2116 1406 1581 1522 
L 1381 1569 
Q 847 1681 609 1914 
Q 372 2147 372 2553 
Q 372 3047 722 3315 
Q 1072 3584 1716 3584 
Q 2034 3584 2315 3537 
Q 2597 3491 2834 3397 
z
" transform="scale(0.015625)"/>
      </defs>
      <use xlink:href="#DejaVuSans-4e"/>
      <use xlink:href="#DejaVuSans-75" x="74.804688"/>
      <use xlink:href="#DejaVuSans-6d" x="138.183594"/>
      <use xlink:href="#DejaVuSans-62" x="235.595703"/>
      <use xlink:href="#DejaVuSans-65" x="299.072266"/>
      <use xlink:href="#DejaVuSans-72" x="360.595703"/>
      <use xlink:href="#DejaVuSans-20" x="401.708984"/>
      <use xlink:href="#DejaVuSans-6f" x="433.496094"/>
      <use xlink:href="#DejaVuSans-66" x="494.677734"/>
      <use xlink:href="#DejaVuSans-20" x="529.882812"/>
      <use xlink:href="#DejaVuSans-44" x="561.669922"/>
      <use xlink:href="#DejaVuSans-6f" x="638.671875"/>
      <use xlink:href="#DejaVuSans-6d" x="699.853516"/>
      <use xlink:href="#DejaVuSans-61" x="797.265625"/>
      <use xlink:href="#DejaVuSans-69" x="858.544922"/>
      <use xlink:href="#DejaVuSans-6e" x="886.328125"/>
      <use xlink:href="#DejaVuSans-73" x="949.707031"/>
     </g>
    </g>
   </g>
   <g id="line2d_31">
    <path d="M 73.42381 159.12367 
L 74.323629 158.638369 
L 75.223447 157.910416 
L 76.123266 156.211861 
L 77.023084 153.0574 
L 77.922903 152.572099 
L 78.822722 152.329448 
L 79.72254 152.572099 
L 81.522177 152.572099 
L 82.421996 152.329448 
L 83.321814 151.844146 
L 84.221633 151.844146 
L 85.121452 151.601495 
L 86.02127 151.844146 
L 86.921089 151.358845 
L 91.420182 152.086797 
L 92.32 152.086797 
L 93.219819 151.601495 
L 94.119637 151.844146 
L 95.019456 152.814749 
L 95.919275 152.086797 
L 96.819093 151.116194 
L 97.718912 151.358845 
L 98.61873 151.116194 
L 99.518549 150.630892 
L 100.418368 151.358845 
L 101.318186 150.630892 
L 102.218005 151.116194 
L 103.117823 150.873543 
L 104.017642 150.873543 
L 105.817279 151.358845 
L 106.717098 151.116194 
L 107.616916 150.630892 
L 108.516735 151.358845 
L 110.316372 151.358845 
L 112.116009 151.116194 
L 113.015828 150.873543 
L 114.815465 151.358845 
L 115.715284 152.086797 
L 116.615102 151.358845 
L 119.314558 151.358845 
L 120.214376 151.844146 
L 121.114195 151.601495 
L 124.713469 152.086797 
L 125.613288 151.358845 
L 126.513107 151.116194 
L 127.412925 151.844146 
L 128.312744 151.844146 
L 129.212562 151.358845 
L 131.012199 151.358845 
L 131.912018 150.388241 
L 132.811837 150.388241 
L 135.511292 150.873543 
L 138.210748 151.116194 
L 139.110567 149.90294 
L 140.010385 150.388241 
L 140.910204 149.660289 
L 141.810022 149.90294 
L 142.709841 150.630892 
L 150.808208 149.660289 
L 151.708027 148.932336 
L 153.507664 148.447035 
L 154.407483 148.932336 
L 155.307301 148.447035 
L 156.20712 148.204384 
L 157.106938 148.204384 
L 158.006757 148.447035 
L 158.906576 148.204384 
L 159.806394 148.689686 
L 160.706213 148.689686 
L 161.606031 148.204384 
L 162.50585 148.689686 
L 163.405669 147.961733 
L 164.305487 148.932336 
L 165.205306 147.961733 
L 166.105124 148.204384 
L 167.004943 147.476432 
L 167.904761 147.961733 
L 168.80458 148.204384 
L 169.704399 147.719082 
L 170.604217 146.748479 
L 171.504036 147.476432 
L 172.403854 147.719082 
L 173.303673 147.233781 
L 174.203492 146.263178 
L 175.10331 146.748479 
L 176.003129 146.263178 
L 176.902947 146.020527 
L 177.802766 146.505828 
L 178.702584 146.020527 
L 180.502222 145.535225 
L 181.40204 145.535225 
L 182.301859 145.777876 
L 183.201677 145.535225 
L 185.001315 146.020527 
L 185.901133 145.535225 
L 186.800952 146.020527 
L 187.70077 145.292574 
L 188.600589 144.807273 
L 200.298231 138.983653 
L 202.097868 139.468955 
L 202.997686 98.94627 
L 203.897505 101.372778 
L 204.797323 96.762413 
L 205.697142 98.94627 
L 206.596961 100.159524 
L 207.496779 97.005064 
L 208.396598 100.402175 
L 209.296416 94.578556 
L 210.196235 95.79181 
L 211.096054 95.063857 
L 211.995872 99.431572 
L 214.695328 94.578556 
L 215.595146 97.490365 
L 216.494965 98.218318 
L 217.394784 97.733016 
L 218.294602 98.218318 
L 219.194421 94.578556 
L 220.094239 93.122651 
L 220.994058 97.005064 
L 221.893877 96.03446 
L 224.593332 95.79181 
L 225.493151 97.247715 
L 226.392969 97.005064 
L 227.292788 94.093254 
L 228.192607 95.063857 
L 229.092425 93.365302 
L 232.6917 93.365302 
L 233.591518 94.578556 
L 234.491337 96.277111 
L 235.391155 92.637349 
L 236.290974 91.666746 
L 237.190792 92.88 
L 238.090611 90.696143 
L 238.99043 92.637349 
L 239.890248 89.96819 
L 240.790067 90.938794 
L 241.689885 96.762413 
L 242.589704 87.299031 
L 244.389341 95.063857 
L 245.28916 90.696143 
L 246.188978 91.424095 
L 247.088797 87.784333 
L 247.988616 89.482889 
L 248.888434 87.784333 
L 249.788253 95.549159 
L 250.688071 93.365302 
L 251.58789 89.72554 
L 252.487708 91.909397 
L 253.387527 89.72554 
L 254.287346 84.629873 
L 255.187164 90.938794 
L 256.086983 89.72554 
L 256.986801 89.72554 
L 257.88662 88.026984 
L 258.786439 90.210841 
L 259.686257 86.81373 
L 260.586076 88.269635 
L 261.485894 87.541682 
L 262.385713 85.843127 
L 264.18535 84.387222 
L 265.085169 89.96819 
L 265.984987 86.328428 
L 266.884806 87.541682 
L 267.784624 85.357825 
L 268.684443 87.056381 
L 269.584262 85.600476 
L 270.48408 87.784333 
L 271.383899 86.328428 
L 272.283717 89.72554 
L 273.183536 87.299031 
L 274.083354 83.173968 
L 274.983173 84.872523 
L 275.882992 85.357825 
L 276.78281 86.085777 
L 277.682629 86.328428 
L 279.482266 82.688666 
L 282.181722 83.416619 
L 283.981359 86.571079 
L 287.580633 81.960714 
L 288.480452 81.960714 
L 313.675372 56.239728 
L 314.575191 61.092744 
L 315.475009 45.320442 
L 316.374828 44.349839 
L 317.274647 43.864537 
L 318.174465 44.83514 
L 319.074284 43.864537 
L 319.974102 43.136585 
L 320.873921 43.621886 
L 321.773739 43.136585 
L 322.673558 43.379235 
L 323.573377 42.408632 
L 324.473195 42.165981 
L 325.373014 40.467426 
L 326.272832 41.438029 
L 327.172651 40.224775 
L 328.07247 40.467426 
L 328.972288 39.739473 
L 329.872107 40.710076 
L 346.068841 42.408632 
L 346.96866 41.68068 
L 348.768297 42.408632 
L 349.668116 42.651283 
L 350.567934 41.195378 
L 351.467753 41.438029 
L 352.367571 39.254172 
L 353.26739 39.254172 
L 354.167209 39.496822 
L 355.067027 39.496822 
L 356.866664 38.526219 
L 357.766483 39.011521 
L 358.666301 37.312965 
L 359.56612 38.040918 
L 360.465939 38.040918 
L 361.365757 38.526219 
L 362.265576 37.798267 
L 364.965032 38.040918 
L 365.86485 37.555616 
L 366.764669 38.040918 
L 367.664487 37.798267 
L 368.564306 37.312965 
L 369.464124 37.555616 
L 370.363943 36.827664 
L 371.263762 35.371759 
L 372.16358 36.099711 
L 373.063399 36.099711 
L 373.963217 34.886457 
L 374.863036 36.827664 
L 375.762855 36.342362 
L 376.662673 36.585013 
L 377.562492 36.585013 
L 378.46231 37.070314 
L 379.362129 36.342362 
L 380.261948 35.85706 
L 381.161766 37.070314 
L 382.061585 36.585013 
L 382.961403 36.827664 
L 384.76104 36.827664 
L 385.660859 37.070314 
L 386.560678 34.643806 
L 387.460496 34.643806 
L 388.360315 35.61441 
L 389.260133 36.342362 
L 390.159952 36.099711 
L 391.059771 35.129108 
L 391.959589 35.129108 
L 392.859408 34.401155 
L 393.759226 34.643806 
L 394.659045 33.915854 
L 395.558863 33.673203 
L 397.358501 34.643806 
L 398.258319 34.401155 
L 399.158138 32.945251 
L 400.057956 32.217298 
L 400.957775 33.187901 
L 401.857594 33.187901 
L 402.757412 32.7026 
L 403.657231 32.7026 
L 404.557049 33.187901 
L 407.256505 32.945251 
L 408.156324 32.7026 
L 409.056142 33.673203 
L 409.955961 33.673203 
L 410.855779 32.459949 
L 411.755598 32.7026 
L 412.655417 33.187901 
L 413.555235 31.974647 
L 414.455054 31.004044 
L 415.354872 32.217298 
L 416.254691 31.489346 
L 417.154509 31.489346 
L 418.054328 30.033441 
L 418.954147 30.518743 
L 419.853965 30.518743 
L 420.753784 31.246695 
L 422.553421 29.79079 
L 423.45324 30.276092 
L 424.353058 28.820187 
L 427.052514 28.092234 
L 427.952333 27.606933 
L 428.852151 28.334885 
L 429.75197 27.121631 
L 430.651788 26.151028 
L 431.551607 26.393679 
L 432.451425 24.695123 
L 433.351244 25.665726 
L 434.251063 25.908377 
L 435.150881 28.577536 
L 436.0507 28.820187 
L 436.950518 27.121631 
L 437.850337 28.092234 
L 440.549793 28.577536 
L 441.449611 27.121631 
L 442.34943 27.121631 
L 443.249248 26.87898 
L 444.149067 26.393679 
L 445.048886 26.393679 
L 445.948704 27.849584 
L 446.848523 27.606933 
L 447.748341 29.062838 
L 448.64816 30.033441 
L 449.547979 27.121631 
L 452.247434 28.092234 
L 453.147253 29.79079 
L 454.047071 28.820187 
L 454.94689 31.246695 
L 455.846709 31.489346 
L 456.746527 29.79079 
L 457.646346 28.334885 
L 459.445983 26.87898 
L 460.345802 27.364282 
L 461.24562 25.908377 
L 462.145439 24.937774 
L 463.045257 26.393679 
L 463.945076 24.695123 
L 464.844894 24.937774 
L 465.744713 22.753917 
L 466.644532 22.511266 
L 467.54435 22.025964 
L 468.444169 20.570059 
L 469.343987 20.084758 
L 470.243806 18.386202 
L 472.043443 18.871504 
L 472.943262 18.143551 
L 473.84308 17.900901 
L 475.642718 16.444996 
L 476.542536 14.989091 
L 477.442355 15.474393 
L 478.342173 14.989091 
L 479.241992 16.202345 
L 479.241992 16.202345 
" clip-path="url(#pa070beb26e)" style="fill: none; stroke: #1f77b4; stroke-width: 1.5; stroke-linecap: square"/>
   </g>
   <g id="line2d_32">
    <path d="M 73.42381 170.528258 
L 74.323629 170.285607 
L 75.223447 170.528258 
L 76.123266 170.528258 
L 77.023084 170.285607 
L 77.922903 170.285607 
L 78.822722 170.042957 
L 79.72254 170.770909 
L 80.622359 170.528258 
L 81.522177 170.770909 
L 82.421996 170.770909 
L 83.321814 170.285607 
L 84.221633 170.285607 
L 85.121452 170.042957 
L 86.02127 170.042957 
L 86.921089 169.800306 
L 90.520363 170.042957 
L 91.420182 170.042957 
L 92.32 170.285607 
L 93.219819 170.042957 
L 94.119637 170.042957 
L 95.019456 170.528258 
L 95.919275 169.800306 
L 96.819093 169.315004 
L 97.718912 169.315004 
L 98.61873 169.557655 
L 99.518549 169.557655 
L 100.418368 169.800306 
L 101.318186 169.557655 
L 104.017642 169.557655 
L 104.917461 169.315004 
L 107.616916 169.315004 
L 108.516735 169.557655 
L 109.416553 169.315004 
L 113.015828 169.315004 
L 113.915646 169.072353 
L 114.815465 169.315004 
L 115.715284 169.800306 
L 116.615102 169.557655 
L 120.214376 169.557655 
L 121.114195 169.800306 
L 124.713469 169.800306 
L 125.613288 169.315004 
L 126.513107 169.315004 
L 127.412925 169.072353 
L 128.312744 169.315004 
L 129.212562 169.072353 
L 131.012199 169.072353 
L 131.912018 168.829703 
L 132.811837 168.829703 
L 135.511292 169.072353 
L 138.210748 169.557655 
L 140.010385 168.587052 
L 141.810022 168.587052 
L 142.709841 168.829703 
L 154.407483 168.829703 
L 155.307301 168.10175 
L 156.20712 168.10175 
L 157.106938 168.344401 
L 159.806394 168.344401 
L 160.706213 168.587052 
L 161.606031 168.344401 
L 162.50585 168.587052 
L 163.405669 168.344401 
L 164.305487 168.587052 
L 167.004943 167.859099 
L 167.904761 167.859099 
L 168.80458 168.344401 
L 169.704399 168.10175 
L 170.604217 167.616449 
L 171.504036 167.859099 
L 173.303673 167.859099 
L 174.203492 167.373798 
L 175.10331 167.859099 
L 176.003129 168.10175 
L 176.902947 167.616449 
L 179.602403 166.888496 
L 181.40204 166.888496 
L 183.201677 167.373798 
L 185.901133 167.373798 
L 186.800952 167.616449 
L 187.70077 167.131147 
L 188.600589 167.131147 
L 200.298231 165.675242 
L 202.097868 165.675242 
L 202.997686 165.917893 
L 203.897505 165.432591 
L 208.396598 166.645845 
L 209.296416 165.917893 
L 210.196235 164.94729 
L 211.096054 164.461988 
L 211.995872 164.461988 
L 215.595146 164.219337 
L 216.494965 164.219337 
L 217.394784 164.704639 
L 218.294602 164.94729 
L 219.194421 164.94729 
L 220.094239 164.704639 
L 220.994058 164.94729 
L 221.893877 164.461988 
L 224.593332 164.461988 
L 225.493151 164.704639 
L 226.392969 164.704639 
L 227.292788 164.94729 
L 228.192607 164.704639 
L 232.6917 164.704639 
L 234.491337 164.219337 
L 235.391155 164.219337 
L 236.290974 164.94729 
L 237.190792 164.461988 
L 238.090611 165.189941 
L 238.99043 165.189941 
L 239.890248 165.432591 
L 240.790067 165.189941 
L 241.689885 165.675242 
L 242.589704 164.94729 
L 243.489523 164.704639 
L 244.389341 165.189941 
L 245.28916 165.432591 
L 246.188978 165.432591 
L 247.088797 164.704639 
L 247.988616 164.94729 
L 248.888434 165.675242 
L 250.688071 165.675242 
L 251.58789 164.704639 
L 252.487708 165.432591 
L 254.287346 165.432591 
L 256.086983 164.94729 
L 256.986801 164.94729 
L 259.686257 165.675242 
L 262.385713 165.675242 
L 263.285531 165.917893 
L 264.18535 165.917893 
L 265.085169 165.432591 
L 265.984987 166.160544 
L 266.884806 165.432591 
L 267.784624 165.675242 
L 270.48408 165.675242 
L 271.383899 165.917893 
L 272.283717 164.704639 
L 273.183536 164.704639 
L 274.983173 164.219337 
L 275.882992 164.219337 
L 276.78281 164.461988 
L 279.482266 163.734036 
L 282.181722 163.976686 
L 283.981359 163.491385 
L 287.580633 163.734036 
L 288.480452 163.248734 
L 313.675372 163.734036 
L 314.575191 163.248734 
L 315.475009 163.734036 
L 316.374828 163.491385 
L 317.274647 163.491385 
L 318.174465 163.734036 
L 319.074284 163.006083 
L 319.974102 162.763432 
L 320.873921 163.006083 
L 321.773739 163.006083 
L 322.673558 162.520782 
L 323.573377 161.792829 
L 324.473195 161.307528 
L 325.373014 161.307528 
L 327.172651 161.792829 
L 328.07247 161.550178 
L 328.972288 161.064877 
L 329.872107 161.550178 
L 346.068841 162.520782 
L 346.96866 162.278131 
L 348.768297 163.248734 
L 349.668116 163.248734 
L 350.567934 163.491385 
L 351.467753 163.006083 
L 352.367571 163.006083 
L 353.26739 162.763432 
L 355.067027 162.763432 
L 356.866664 162.278131 
L 357.766483 162.520782 
L 359.56612 162.03548 
L 360.465939 162.03548 
L 361.365757 162.520782 
L 362.265576 161.792829 
L 364.965032 162.520782 
L 365.86485 163.006083 
L 366.764669 162.520782 
L 367.664487 162.763432 
L 368.564306 162.763432 
L 369.464124 162.03548 
L 370.363943 162.520782 
L 373.063399 161.792829 
L 373.963217 160.822226 
L 374.863036 162.278131 
L 375.762855 161.792829 
L 376.662673 162.278131 
L 377.562492 162.03548 
L 378.46231 162.278131 
L 379.362129 161.792829 
L 380.261948 162.03548 
L 381.161766 161.550178 
L 382.061585 161.792829 
L 383.861222 161.307528 
L 384.76104 161.550178 
L 385.660859 161.064877 
L 386.560678 160.336924 
L 387.460496 160.336924 
L 388.360315 160.579575 
L 389.260133 160.336924 
L 390.159952 160.336924 
L 391.059771 160.094274 
L 391.959589 160.822226 
L 392.859408 160.336924 
L 393.759226 161.064877 
L 394.659045 160.336924 
L 397.358501 161.792829 
L 398.258319 161.064877 
L 399.158138 160.579575 
L 400.057956 160.579575 
L 400.957775 161.307528 
L 401.857594 160.579575 
L 402.757412 160.579575 
L 403.657231 160.822226 
L 404.557049 160.336924 
L 409.056142 160.336924 
L 409.955961 159.851623 
L 410.855779 160.336924 
L 411.755598 159.608972 
L 412.655417 159.851623 
L 413.555235 159.608972 
L 414.455054 159.608972 
L 415.354872 159.851623 
L 416.254691 159.608972 
L 417.154509 160.336924 
L 418.054328 159.608972 
L 418.954147 159.851623 
L 419.853965 159.12367 
L 420.753784 159.608972 
L 421.653602 159.12367 
L 422.553421 159.12367 
L 423.45324 159.366321 
L 424.353058 159.12367 
L 426.152695 159.366321 
L 427.052514 159.366321 
L 427.952333 160.094274 
L 429.75197 159.608972 
L 430.651788 159.12367 
L 431.551607 159.12367 
L 432.451425 158.638369 
L 433.351244 158.88102 
L 434.251063 158.153067 
L 435.150881 158.88102 
L 436.0507 159.366321 
L 436.950518 159.366321 
L 437.850337 158.88102 
L 440.549793 159.851623 
L 441.449611 159.608972 
L 442.34943 158.638369 
L 443.249248 158.395718 
L 444.149067 158.395718 
L 445.048886 158.638369 
L 445.948704 159.12367 
L 446.848523 159.12367 
L 447.748341 158.395718 
L 448.64816 159.12367 
L 449.547979 159.12367 
L 453.147253 159.366321 
L 454.047071 158.88102 
L 455.846709 158.88102 
L 456.746527 158.638369 
L 457.646346 159.608972 
L 459.445983 159.12367 
L 460.345802 159.608972 
L 462.145439 159.608972 
L 463.045257 159.851623 
L 463.945076 159.366321 
L 464.844894 160.094274 
L 465.744713 159.851623 
L 466.644532 158.638369 
L 467.54435 158.638369 
L 468.444169 158.153067 
L 469.343987 158.395718 
L 470.243806 158.153067 
L 471.143625 158.395718 
L 472.043443 158.88102 
L 473.84308 157.910416 
L 474.742899 157.910416 
L 475.642718 158.395718 
L 476.542536 157.425115 
L 477.442355 157.910416 
L 479.241992 157.910416 
L 479.241992 157.910416 
" clip-path="url(#pa070beb26e)" style="fill: none; stroke: #ff7f0e; stroke-width: 1.5; stroke-linecap: square"/>
   </g>
   <g id="line2d_33">
    <path d="M 73.42381 168.10175 
L 74.323629 168.344401 
L 75.223447 168.344401 
L 76.123266 167.859099 
L 77.023084 168.344401 
L 78.822722 168.344401 
L 79.72254 168.10175 
L 81.522177 168.10175 
L 82.421996 167.859099 
L 83.321814 168.10175 
L 86.02127 168.10175 
L 86.921089 167.859099 
L 89.620545 168.10175 
L 90.520363 168.344401 
L 91.420182 168.10175 
L 92.32 168.10175 
L 93.219819 168.344401 
L 98.61873 168.344401 
L 99.518549 168.10175 
L 100.418368 168.344401 
L 101.318186 167.859099 
L 104.917461 167.859099 
L 105.817279 168.10175 
L 106.717098 168.10175 
L 107.616916 167.859099 
L 109.416553 168.344401 
L 110.316372 168.344401 
L 112.116009 168.10175 
L 113.015828 168.10175 
L 113.915646 168.344401 
L 114.815465 168.344401 
L 115.715284 168.587052 
L 117.514921 168.10175 
L 118.414739 168.344401 
L 119.314558 168.344401 
L 120.214376 168.587052 
L 121.114195 168.344401 
L 122.913832 168.587052 
L 124.713469 169.072353 
L 125.613288 168.829703 
L 126.513107 168.829703 
L 127.412925 169.072353 
L 129.212562 168.587052 
L 130.112381 168.829703 
L 131.012199 168.829703 
L 131.912018 168.344401 
L 132.811837 168.587052 
L 135.511292 168.829703 
L 139.110567 168.587052 
L 140.010385 168.829703 
L 140.910204 168.10175 
L 141.810022 168.10175 
L 142.709841 168.587052 
L 150.808208 167.616449 
L 153.507664 166.888496 
L 154.407483 167.131147 
L 155.307301 167.131147 
L 156.20712 167.373798 
L 157.106938 167.131147 
L 158.006757 167.373798 
L 158.906576 167.131147 
L 160.706213 167.131147 
L 161.606031 166.645845 
L 162.50585 166.888496 
L 163.405669 166.888496 
L 164.305487 167.131147 
L 165.205306 167.131147 
L 167.004943 166.645845 
L 168.80458 166.645845 
L 169.704399 166.403195 
L 170.604217 165.917893 
L 171.504036 166.160544 
L 174.203492 166.160544 
L 176.003129 165.675242 
L 177.802766 166.160544 
L 180.502222 166.160544 
L 181.40204 165.917893 
L 182.301859 165.917893 
L 183.201677 165.432591 
L 185.001315 166.160544 
L 185.901133 165.432591 
L 186.800952 165.675242 
L 188.600589 165.189941 
L 202.097868 165.189941 
L 202.997686 124.909907 
L 203.897505 128.307018 
L 204.797323 123.211351 
L 205.697142 125.152557 
L 206.596961 126.365811 
L 207.496779 122.9687 
L 208.396598 126.608462 
L 209.296416 121.270144 
L 210.196235 123.211351 
L 211.096054 122.726049 
L 211.995872 127.336415 
L 214.695328 122.483398 
L 215.595146 125.637859 
L 216.494965 126.851113 
L 217.394784 126.123161 
L 218.294602 126.365811 
L 219.194421 122.9687 
L 220.094239 121.755446 
L 220.994058 124.909907 
L 221.893877 124.424605 
L 224.593332 124.667256 
L 225.493151 125.88051 
L 226.392969 125.637859 
L 227.292788 122.726049 
L 228.192607 124.181954 
L 229.092425 121.998097 
L 232.6917 122.9687 
L 234.491337 127.336415 
L 235.391155 123.454002 
L 236.290974 121.755446 
L 237.190792 123.211351 
L 238.090611 120.784843 
L 238.99043 123.454002 
L 239.890248 120.784843 
L 240.790067 121.998097 
L 241.689885 127.821716 
L 242.589704 119.328938 
L 243.489523 123.696653 
L 244.389341 127.093764 
L 245.28916 122.483398 
L 246.188978 122.9687 
L 247.088797 120.542192 
L 247.988616 122.483398 
L 248.888434 120.299541 
L 249.788253 127.579065 
L 250.688071 125.395208 
L 251.58789 122.483398 
L 252.487708 123.939303 
L 253.387527 122.240748 
L 254.287346 117.387732 
L 255.187164 123.939303 
L 256.086983 122.9687 
L 256.986801 122.726049 
L 257.88662 121.512795 
L 258.786439 122.726049 
L 259.686257 119.328938 
L 260.586076 120.784843 
L 261.485894 120.784843 
L 262.385713 118.843636 
L 263.285531 117.630382 
L 264.18535 117.145081 
L 265.085169 123.211351 
L 265.984987 119.571589 
L 266.884806 121.270144 
L 267.784624 119.086287 
L 268.684443 120.542192 
L 269.584262 119.571589 
L 270.48408 121.755446 
L 271.383899 119.571589 
L 272.283717 124.181954 
L 273.183536 122.483398 
L 274.083354 119.328938 
L 274.983173 120.784843 
L 275.882992 121.512795 
L 276.78281 121.998097 
L 277.682629 121.998097 
L 279.482266 119.086287 
L 282.181722 119.81424 
L 283.981359 124.181954 
L 287.580633 120.05689 
L 288.480452 120.05689 
L 313.675372 95.063857 
L 314.575191 99.188921 
L 315.475009 83.659269 
L 316.374828 83.173968 
L 317.274647 82.931317 
L 318.174465 82.931317 
L 319.074284 83.659269 
L 319.974102 82.688666 
L 320.873921 82.688666 
L 322.673558 83.173968 
L 323.573377 82.688666 
L 324.473195 82.688666 
L 325.373014 82.203364 
L 326.272832 82.688666 
L 327.172651 81.718063 
L 328.07247 81.960714 
L 328.972288 81.718063 
L 329.872107 82.446015 
L 346.068841 81.475412 
L 346.96866 81.960714 
L 348.768297 81.475412 
L 349.668116 82.446015 
L 350.567934 82.203364 
L 351.467753 82.688666 
L 352.367571 81.475412 
L 353.26739 81.718063 
L 355.067027 81.718063 
L 355.966846 81.960714 
L 356.866664 81.232761 
L 357.766483 81.960714 
L 358.666301 80.504809 
L 359.56612 81.475412 
L 362.265576 82.203364 
L 366.764669 81.475412 
L 367.664487 81.475412 
L 368.564306 81.232761 
L 369.464124 81.718063 
L 370.363943 80.99011 
L 371.263762 80.019507 
L 372.16358 80.99011 
L 373.963217 80.99011 
L 374.863036 81.718063 
L 375.762855 81.232761 
L 378.46231 81.960714 
L 379.362129 81.232761 
L 380.261948 80.99011 
L 381.161766 82.203364 
L 382.061585 81.960714 
L 382.961403 81.960714 
L 383.861222 82.446015 
L 384.76104 81.718063 
L 385.660859 82.688666 
L 386.560678 81.718063 
L 387.460496 81.475412 
L 388.360315 81.475412 
L 389.260133 82.203364 
L 390.159952 81.718063 
L 391.059771 81.475412 
L 391.959589 80.74746 
L 393.759226 80.262158 
L 394.659045 80.74746 
L 395.558863 80.019507 
L 397.358501 80.019507 
L 398.258319 80.262158 
L 399.158138 79.291555 
L 400.057956 79.048904 
L 400.957775 79.776856 
L 402.757412 79.776856 
L 403.657231 79.291555 
L 404.557049 80.504809 
L 407.256505 80.504809 
L 408.156324 79.776856 
L 409.056142 79.776856 
L 409.955961 80.99011 
L 410.855779 80.019507 
L 412.655417 80.504809 
L 414.455054 79.048904 
L 415.354872 79.534206 
L 416.254691 79.776856 
L 417.154509 80.504809 
L 419.853965 79.776856 
L 420.753784 80.019507 
L 421.653602 80.504809 
L 422.553421 79.048904 
L 423.45324 79.534206 
L 424.353058 78.563602 
L 426.152695 77.592999 
L 427.052514 78.078301 
L 427.952333 77.83565 
L 428.852151 78.320952 
L 429.75197 77.107698 
L 430.651788 77.350348 
L 431.551607 77.107698 
L 432.451425 76.137094 
L 434.251063 77.592999 
L 435.150881 79.534206 
L 436.950518 79.048904 
L 437.850337 80.504809 
L 440.549793 80.019507 
L 441.449611 80.019507 
L 442.34943 80.99011 
L 443.249248 81.232761 
L 444.149067 81.232761 
L 445.048886 80.019507 
L 445.948704 80.504809 
L 446.848523 80.019507 
L 447.748341 81.475412 
L 448.64816 82.688666 
L 449.547979 80.504809 
L 452.247434 81.718063 
L 453.147253 82.446015 
L 454.047071 81.475412 
L 455.846709 81.960714 
L 456.746527 81.718063 
L 457.646346 80.74746 
L 458.546164 81.718063 
L 459.445983 81.718063 
L 460.345802 81.960714 
L 461.24562 81.718063 
L 462.145439 80.504809 
L 463.045257 81.232761 
L 463.945076 81.718063 
L 464.844894 81.475412 
L 465.744713 80.504809 
L 466.644532 81.718063 
L 467.54435 80.99011 
L 468.444169 80.74746 
L 469.343987 80.99011 
L 470.243806 79.776856 
L 471.143625 79.291555 
L 472.043443 80.262158 
L 472.943262 79.776856 
L 473.84308 80.504809 
L 474.742899 80.262158 
L 475.642718 79.534206 
L 476.542536 79.776856 
L 478.342173 79.291555 
L 479.241992 79.534206 
L 479.241992 79.534206 
" clip-path="url(#pa070beb26e)" style="fill: none; stroke: #2ca02c; stroke-width: 1.5; stroke-linecap: square"/>
   </g>
   <g id="line2d_34">
    <path d="M 73.42381 169.315004 
L 74.323629 168.829703 
L 75.223447 167.859099 
L 76.123266 166.645845 
L 77.023084 163.248734 
L 77.922903 162.763432 
L 78.822722 162.763432 
L 79.72254 162.520782 
L 80.622359 162.763432 
L 81.522177 162.520782 
L 82.421996 162.520782 
L 83.321814 162.278131 
L 85.121452 162.278131 
L 86.02127 162.520782 
L 90.520363 162.520782 
L 91.420182 162.763432 
L 92.32 162.520782 
L 93.219819 162.03548 
L 94.119637 162.278131 
L 95.019456 162.763432 
L 95.919275 162.763432 
L 96.819093 162.278131 
L 97.718912 162.520782 
L 98.61873 162.03548 
L 99.518549 161.792829 
L 100.418368 162.03548 
L 101.318186 162.03548 
L 102.218005 162.520782 
L 103.117823 162.278131 
L 104.017642 162.278131 
L 104.917461 162.763432 
L 105.817279 162.763432 
L 107.616916 162.278131 
L 108.516735 162.520782 
L 112.116009 162.520782 
L 113.015828 162.278131 
L 113.915646 162.520782 
L 115.715284 162.520782 
L 116.615102 162.278131 
L 117.514921 162.520782 
L 118.414739 162.278131 
L 119.314558 162.278131 
L 120.214376 162.520782 
L 121.114195 162.278131 
L 122.913832 162.278131 
L 124.713469 162.03548 
L 125.613288 162.03548 
L 126.513107 161.792829 
L 127.412925 162.520782 
L 129.212562 162.520782 
L 130.112381 162.278131 
L 131.012199 162.278131 
L 132.811837 161.792829 
L 138.210748 161.792829 
L 139.110567 161.064877 
L 140.010385 161.792829 
L 140.910204 161.792829 
L 141.810022 162.03548 
L 150.808208 162.03548 
L 151.708027 161.550178 
L 153.507664 161.550178 
L 155.307301 162.03548 
L 156.20712 161.550178 
L 158.906576 161.550178 
L 159.806394 162.03548 
L 160.706213 161.792829 
L 161.606031 162.03548 
L 162.50585 162.03548 
L 163.405669 161.550178 
L 164.305487 162.03548 
L 165.205306 161.307528 
L 166.105124 162.03548 
L 167.004943 161.792829 
L 167.904761 162.278131 
L 168.80458 162.03548 
L 170.604217 162.03548 
L 172.403854 162.520782 
L 174.203492 161.550178 
L 175.10331 161.792829 
L 176.003129 161.307528 
L 176.902947 161.307528 
L 177.802766 161.792829 
L 178.702584 161.550178 
L 179.602403 161.550178 
L 180.502222 161.307528 
L 181.40204 161.550178 
L 183.201677 161.550178 
L 185.001315 161.307528 
L 185.901133 161.550178 
L 187.70077 161.550178 
L 188.600589 161.307528 
L 200.298231 156.939813 
L 202.097868 157.425115 
L 203.897505 156.454511 
L 204.797323 156.697162 
L 205.697142 156.697162 
L 206.596961 156.454511 
L 207.496779 156.454511 
L 208.396598 155.96921 
L 211.096054 156.697162 
L 211.995872 156.454511 
L 214.695328 156.697162 
L 215.595146 156.454511 
L 216.494965 155.96921 
L 217.394784 155.726559 
L 218.294602 155.726559 
L 219.194421 155.483908 
L 220.094239 155.483908 
L 220.994058 155.96921 
L 221.893877 155.96921 
L 224.593332 155.483908 
L 226.392969 155.483908 
L 228.192607 154.998607 
L 229.092425 155.483908 
L 232.6917 154.513305 
L 233.591518 153.785353 
L 234.491337 153.542702 
L 235.391155 153.785353 
L 236.290974 153.785353 
L 237.190792 154.028003 
L 238.090611 153.542702 
L 238.99043 152.814749 
L 239.890248 152.572099 
L 240.790067 152.572099 
L 241.689885 152.086797 
L 243.489523 151.601495 
L 245.28916 151.601495 
L 246.188978 151.844146 
L 247.988616 150.873543 
L 248.888434 150.630892 
L 249.788253 151.116194 
L 250.688071 151.116194 
L 251.58789 151.358845 
L 252.487708 151.358845 
L 253.387527 150.873543 
L 254.287346 150.630892 
L 256.086983 150.630892 
L 256.986801 150.873543 
L 257.88662 150.14559 
L 258.786439 150.873543 
L 259.686257 150.630892 
L 260.586076 150.630892 
L 261.485894 149.90294 
L 263.285531 150.388241 
L 264.18535 150.14559 
L 265.085169 150.14559 
L 265.984987 149.417638 
L 266.884806 149.660289 
L 267.784624 149.417638 
L 268.684443 149.660289 
L 269.584262 149.174987 
L 270.48408 149.174987 
L 271.383899 149.660289 
L 272.283717 149.660289 
L 274.083354 148.204384 
L 274.983173 148.689686 
L 275.882992 148.447035 
L 276.78281 148.447035 
L 277.682629 148.932336 
L 279.482266 148.689686 
L 282.181722 148.447035 
L 283.981359 147.719082 
L 287.580633 146.99113 
L 288.480452 147.476432 
L 313.675372 146.263178 
L 314.575191 147.476432 
L 315.475009 146.748479 
L 317.274647 146.263178 
L 318.174465 146.99113 
L 319.074284 146.020527 
L 319.974102 146.505828 
L 320.873921 146.748479 
L 321.773739 146.020527 
L 322.673558 146.505828 
L 324.473195 146.99113 
L 325.373014 145.777876 
L 326.272832 146.020527 
L 327.172651 145.535225 
L 328.07247 145.777876 
L 328.972288 145.777876 
L 329.872107 145.535225 
L 346.068841 147.233781 
L 346.96866 146.263178 
L 348.768297 146.505828 
L 349.668116 145.777876 
L 350.567934 144.321971 
L 351.467753 144.564622 
L 352.367571 143.594019 
L 353.26739 143.594019 
L 354.167209 143.836669 
L 355.067027 143.836669 
L 355.966846 143.351368 
L 356.866664 143.836669 
L 357.766483 143.351368 
L 359.56612 143.351368 
L 362.265576 142.623415 
L 364.965032 142.623415 
L 365.86485 141.895463 
L 366.764669 142.866066 
L 367.664487 142.380765 
L 368.564306 142.138114 
L 369.464124 142.623415 
L 370.363943 142.138114 
L 371.263762 141.895463 
L 372.16358 141.895463 
L 373.063399 142.138114 
L 374.863036 141.652812 
L 375.762855 142.138114 
L 376.662673 141.652812 
L 378.46231 141.652812 
L 379.362129 142.138114 
L 380.261948 141.652812 
L 381.161766 142.138114 
L 382.061585 141.652812 
L 382.961403 142.138114 
L 383.861222 141.895463 
L 384.76104 142.380765 
L 385.660859 142.138114 
L 386.560678 141.410161 
L 387.460496 141.652812 
L 388.360315 142.380765 
L 390.159952 142.866066 
L 391.059771 142.380765 
L 392.859408 142.380765 
L 393.759226 142.138114 
L 394.659045 141.652812 
L 397.358501 141.652812 
L 398.258319 141.895463 
L 399.158138 141.895463 
L 400.957775 140.92486 
L 401.857594 141.652812 
L 402.757412 141.167511 
L 403.657231 141.410161 
L 404.557049 141.167511 
L 407.256505 140.92486 
L 408.156324 141.410161 
L 409.056142 142.380765 
L 410.855779 140.92486 
L 411.755598 141.652812 
L 412.655417 141.652812 
L 414.455054 141.167511 
L 415.354872 141.652812 
L 416.254691 140.92486 
L 417.154509 139.468955 
L 418.054328 138.983653 
L 418.954147 139.468955 
L 419.853965 140.439558 
L 420.753784 140.439558 
L 421.653602 139.711606 
L 422.553421 140.439558 
L 424.353058 139.954257 
L 426.152695 140.196907 
L 427.052514 139.468955 
L 427.952333 138.498352 
L 428.852151 138.983653 
L 429.75197 139.226304 
L 430.651788 138.498352 
L 431.551607 138.983653 
L 432.451425 138.741003 
L 433.351244 138.741003 
L 434.251063 138.983653 
L 436.0507 138.983653 
L 436.950518 137.527749 
L 440.549793 137.527749 
L 441.449611 136.314494 
L 442.34943 136.314494 
L 443.249248 136.071844 
L 444.149067 135.586542 
L 445.048886 136.557145 
L 445.948704 137.042447 
L 446.848523 137.285098 
L 447.748341 138.01305 
L 448.64816 137.042447 
L 449.547979 136.314494 
L 452.247434 135.829193 
L 453.147253 136.799796 
L 454.047071 137.285098 
L 454.94689 139.468955 
L 455.846709 139.468955 
L 456.746527 138.255701 
L 458.546164 135.343891 
L 459.445983 134.85859 
L 460.345802 134.615939 
L 461.24562 133.402685 
L 462.145439 133.645336 
L 463.045257 134.130637 
L 463.945076 132.432082 
L 464.844894 132.189431 
L 465.744713 131.218828 
L 466.644532 130.976177 
L 467.54435 131.218828 
L 468.444169 130.490875 
L 469.343987 129.520272 
L 470.243806 129.277621 
L 471.143625 129.762923 
L 472.043443 128.549669 
L 472.943262 128.792319 
L 475.642718 127.336415 
L 476.542536 126.608462 
L 477.442355 126.851113 
L 478.342173 126.608462 
L 479.241992 127.579065 
L 479.241992 127.579065 
" clip-path="url(#pa070beb26e)" style="fill: none; stroke: #d62728; stroke-width: 1.5; stroke-linecap: square"/>
   </g>
   <g id="patch_3">
    <path d="M 53.132901 178.56 
L 53.132901 7.2 
" style="fill: none; stroke: #000000; stroke-width: 0.8; stroke-linejoin: miter; stroke-linecap: square"/>
   </g>
   <g id="patch_4">
    <path d="M 499.532901 178.56 
L 499.532901 7.2 
" style="fill: none; stroke: #000000; stroke-width: 0.8; stroke-linejoin: miter; stroke-linecap: square"/>
   </g>
   <g id="patch_5">
    <path d="M 53.132901 178.56 
L 499.532901 178.56 
" style="fill: none; stroke: #000000; stroke-width: 0.8; stroke-linejoin: miter; stroke-linecap: square"/>
   </g>
   <g id="patch_6">
    <path d="M 53.132901 7.2 
L 499.532901 7.2 
" style="fill: none; stroke: #000000; stroke-width: 0.8; stroke-linejoin: miter; stroke-linecap: square"/>
   </g>
   <g id="legend_1">
    <g id="patch_7">
     <path d="M 60.132901 73.9125 
L 158.375088 73.9125 
Q 160.375088 73.9125 160.375088 71.9125 
L 160.375088 14.2 
Q 160.375088 12.2 158.375088 12.2 
L 60.132901 12.2 
Q 58.132901 12.2 58.132901 14.2 
L 58.132901 71.9125 
Q 58.132901 73.9125 60.132901 73.9125 
z
" style="fill: #ffffff; opacity: 0.8; stroke: #cccccc; stroke-linejoin: miter"/>
    </g>
    <g id="line2d_35">
     <path d="M 62.132901 20.298438 
L 72.132901 20.298438 
L 82.132901 20.298438 
" style="fill: none; stroke: #1f77b4; stroke-width: 1.5; stroke-linecap: square"/>
    </g>
    <g id="text_25">
     <!-- CORP header -->
     <g transform="translate(90.132901 23.798438)scale(0.1 -0.1)">
      <defs>
       <path id="DejaVuSans-43" d="M 4122 4306 
L 4122 3641 
Q 3803 3938 3442 4084 
Q 3081 4231 2675 4231 
Q 1875 4231 1450 3742 
Q 1025 3253 1025 2328 
Q 1025 1406 1450 917 
Q 1875 428 2675 428 
Q 3081 428 3442 575 
Q 3803 722 4122 1019 
L 4122 359 
Q 3791 134 3420 21 
Q 3050 -91 2638 -91 
Q 1578 -91 968 557 
Q 359 1206 359 2328 
Q 359 3453 968 4101 
Q 1578 4750 2638 4750 
Q 3056 4750 3426 4639 
Q 3797 4528 4122 4306 
z
" transform="scale(0.015625)"/>
       <path id="DejaVuSans-52" d="M 2841 2188 
Q 3044 2119 3236 1894 
Q 3428 1669 3622 1275 
L 4263 0 
L 3584 0 
L 2988 1197 
Q 2756 1666 2539 1819 
Q 2322 1972 1947 1972 
L 1259 1972 
L 1259 0 
L 628 0 
L 628 4666 
L 2053 4666 
Q 2853 4666 3247 4331 
Q 3641 3997 3641 3322 
Q 3641 2881 3436 2590 
Q 3231 2300 2841 2188 
z
M 1259 4147 
L 1259 2491 
L 2053 2491 
Q 2509 2491 2742 2702 
Q 2975 2913 2975 3322 
Q 2975 3731 2742 3939 
Q 2509 4147 2053 4147 
L 1259 4147 
z
" transform="scale(0.015625)"/>
       <path id="DejaVuSans-50" d="M 1259 4147 
L 1259 2394 
L 2053 2394 
Q 2494 2394 2734 2622 
Q 2975 2850 2975 3272 
Q 2975 3691 2734 3919 
Q 2494 4147 2053 4147 
L 1259 4147 
z
M 628 4666 
L 2053 4666 
Q 2838 4666 3239 4311 
Q 3641 3956 3641 3272 
Q 3641 2581 3239 2228 
Q 2838 1875 2053 1875 
L 1259 1875 
L 1259 0 
L 628 0 
L 628 4666 
z
" transform="scale(0.015625)"/>
       <path id="DejaVuSans-68" d="M 3513 2113 
L 3513 0 
L 2938 0 
L 2938 2094 
Q 2938 2591 2744 2837 
Q 2550 3084 2163 3084 
Q 1697 3084 1428 2787 
Q 1159 2491 1159 1978 
L 1159 0 
L 581 0 
L 581 4863 
L 1159 4863 
L 1159 2956 
Q 1366 3272 1645 3428 
Q 1925 3584 2291 3584 
Q 2894 3584 3203 3211 
Q 3513 2838 3513 2113 
z
" transform="scale(0.015625)"/>
       <path id="DejaVuSans-64" d="M 2906 2969 
L 2906 4863 
L 3481 4863 
L 3481 0 
L 2906 0 
L 2906 525 
Q 2725 213 2448 61 
Q 2172 -91 1784 -91 
Q 1150 -91 751 415 
Q 353 922 353 1747 
Q 353 2572 751 3078 
Q 1150 3584 1784 3584 
Q 2172 3584 2448 3432 
Q 2725 3281 2906 2969 
z
M 947 1747 
Q 947 1113 1208 752 
Q 1469 391 1925 391 
Q 2381 391 2643 752 
Q 2906 1113 2906 1747 
Q 2906 2381 2643 2742 
Q 2381 3103 1925 3103 
Q 1469 3103 1208 2742 
Q 947 2381 947 1747 
z
" transform="scale(0.015625)"/>
      </defs>
      <use xlink:href="#DejaVuSans-43"/>
      <use xlink:href="#DejaVuSans-4f" x="69.824219"/>
      <use xlink:href="#DejaVuSans-52" x="148.535156"/>
      <use xlink:href="#DejaVuSans-50" x="218.017578"/>
      <use xlink:href="#DejaVuSans-20" x="278.320312"/>
      <use xlink:href="#DejaVuSans-68" x="310.107422"/>
      <use xlink:href="#DejaVuSans-65" x="373.486328"/>
      <use xlink:href="#DejaVuSans-61" x="435.009766"/>
      <use xlink:href="#DejaVuSans-64" x="496.289062"/>
      <use xlink:href="#DejaVuSans-65" x="559.765625"/>
      <use xlink:href="#DejaVuSans-72" x="621.289062"/>
     </g>
    </g>
    <g id="line2d_36">
     <path d="M 62.132901 34.976562 
L 72.132901 34.976562 
L 82.132901 34.976562 
" style="fill: none; stroke: #ff7f0e; stroke-width: 1.5; stroke-linecap: square"/>
    </g>
    <g id="text_26">
     <!-- same-site -->
     <g transform="translate(90.132901 38.476562)scale(0.1 -0.1)">
      <use xlink:href="#DejaVuSans-73"/>
      <use xlink:href="#DejaVuSans-61" x="52.099609"/>
      <use xlink:href="#DejaVuSans-6d" x="113.378906"/>
      <use xlink:href="#DejaVuSans-65" x="210.791016"/>
      <use xlink:href="#DejaVuSans-2d" x="272.314453"/>
      <use xlink:href="#DejaVuSans-73" x="308.398438"/>
      <use xlink:href="#DejaVuSans-69" x="360.498047"/>
      <use xlink:href="#DejaVuSans-74" x="388.28125"/>
      <use xlink:href="#DejaVuSans-65" x="427.490234"/>
     </g>
    </g>
    <g id="line2d_37">
     <path d="M 62.132901 49.654687 
L 72.132901 49.654687 
L 82.132901 49.654687 
" style="fill: none; stroke: #2ca02c; stroke-width: 1.5; stroke-linecap: square"/>
    </g>
    <g id="text_27">
     <!-- same-origin -->
     <g transform="translate(90.132901 53.154687)scale(0.1 -0.1)">
      <use xlink:href="#DejaVuSans-73"/>
      <use xlink:href="#DejaVuSans-61" x="52.099609"/>
      <use xlink:href="#DejaVuSans-6d" x="113.378906"/>
      <use xlink:href="#DejaVuSans-65" x="210.791016"/>
      <use xlink:href="#DejaVuSans-2d" x="272.314453"/>
      <use xlink:href="#DejaVuSans-6f" x="310.273438"/>
      <use xlink:href="#DejaVuSans-72" x="371.455078"/>
      <use xlink:href="#DejaVuSans-69" x="412.568359"/>
      <use xlink:href="#DejaVuSans-67" x="440.351562"/>
      <use xlink:href="#DejaVuSans-69" x="503.828125"/>
      <use xlink:href="#DejaVuSans-6e" x="531.611328"/>
     </g>
    </g>
    <g id="line2d_38">
     <path d="M 62.132901 64.332813 
L 72.132901 64.332813 
L 82.132901 64.332813 
" style="fill: none; stroke: #d62728; stroke-width: 1.5; stroke-linecap: square"/>
    </g>
    <g id="text_28">
     <!-- cross-origin -->
     <g transform="translate(90.132901 67.832813)scale(0.1 -0.1)">
      <use xlink:href="#DejaVuSans-63"/>
      <use xlink:href="#DejaVuSans-72" x="54.980469"/>
      <use xlink:href="#DejaVuSans-6f" x="93.84375"/>
      <use xlink:href="#DejaVuSans-73" x="155.025391"/>
      <use xlink:href="#DejaVuSans-73" x="207.125"/>
      <use xlink:href="#DejaVuSans-2d" x="259.224609"/>
      <use xlink:href="#DejaVuSans-6f" x="297.183594"/>
      <use xlink:href="#DejaVuSans-72" x="358.365234"/>
      <use xlink:href="#DejaVuSans-69" x="399.478516"/>
      <use xlink:href="#DejaVuSans-67" x="427.261719"/>
      <use xlink:href="#DejaVuSans-69" x="490.738281"/>
      <use xlink:href="#DejaVuSans-6e" x="518.521484"/>
     </g>
    </g>
   </g>
  </g>
 </g>
 <defs>
  <clipPath id="pa070beb26e">
   <rect x="53.132901" y="7.2" width="446.4" height="171.36"/>
  </clipPath>
 </defs>
</svg>
