<?xml version="1.0" encoding="utf-8" standalone="no"?>
<!DOCTYPE svg PUBLIC "-//W3C//DTD SVG 1.1//EN"
  "http://www.w3.org/Graphics/SVG/1.1/DTD/svg11.dtd">
<svg xmlns:xlink="http://www.w3.org/1999/xlink" width="519.653125pt" height="234.086815pt" viewBox="0 0 519.653125 234.086815" xmlns="http://www.w3.org/2000/svg" version="1.1">
 <metadata>
  <rdf:RDF xmlns:dc="http://purl.org/dc/elements/1.1/" xmlns:cc="http://creativecommons.org/ns#" xmlns:rdf="http://www.w3.org/1999/02/22-rdf-syntax-ns#">
   <cc:Work>
    <dc:type rdf:resource="http://purl.org/dc/dcmitype/StillImage"/>
    <dc:date>2022-02-14T20:36:28.446415</dc:date>
    <dc:format>image/svg+xml</dc:format>
    <dc:creator>
     <cc:Agent>
      <dc:title>Matplotlib v3.5.1, https://matplotlib.org/</dc:title>
     </cc:Agent>
    </dc:creator>
   </cc:Work>
  </rdf:RDF>
 </metadata>
 <defs>
  <style type="text/css">*{stroke-linejoin: round; stroke-linecap: butt}</style>
 </defs>
 <g id="figure_1">
  <g id="patch_1">
   <path d="M 0 234.086815 
L 519.653125 234.086815 
L 519.653125 0 
L 0 0 
z
" style="fill: #ffffff"/>
  </g>
  <g id="axes_1">
   <g id="patch_2">
    <path d="M 66.053125 178.56 
L 512.453125 178.56 
L 512.453125 7.2 
L 66.053125 7.2 
z
" style="fill: #ffffff"/>
   </g>
   <g id="matplotlib.axis_1">
    <g id="xtick_1">
     <g id="line2d_1">
      <defs>
       <path id="m5e8725b6c5" d="M 0 0 
L 0 3.5 
" style="stroke: #000000; stroke-width: 0.8"/>
      </defs>
      <g>
       <use xlink:href="#m5e8725b6c5" x="80.945123" y="178.56" style="stroke: #000000; stroke-width: 0.8"/>
      </g>
     </g>
     <g id="text_1">
      <!-- 2020-Nov-01 -->
      <g transform="translate(23.919443 224.463877)rotate(-30)scale(0.1 -0.1)">
       <defs>
        <path id="DejaVuSans-32" d="M 1228 531 
L 3431 531 
L 3431 0 
L 469 0 
L 469 531 
Q 828 903 1448 1529 
Q 2069 2156 2228 2338 
Q 2531 2678 2651 2914 
Q 2772 3150 2772 3378 
Q 2772 3750 2511 3984 
Q 2250 4219 1831 4219 
Q 1534 4219 1204 4116 
Q 875 4013 500 3803 
L 500 4441 
Q 881 4594 1212 4672 
Q 1544 4750 1819 4750 
Q 2544 4750 2975 4387 
Q 3406 4025 3406 3419 
Q 3406 3131 3298 2873 
Q 3191 2616 2906 2266 
Q 2828 2175 2409 1742 
Q 1991 1309 1228 531 
z
" transform="scale(0.015625)"/>
        <path id="DejaVuSans-30" d="M 2034 4250 
Q 1547 4250 1301 3770 
Q 1056 3291 1056 2328 
Q 1056 1369 1301 889 
Q 1547 409 2034 409 
Q 2525 409 2770 889 
Q 3016 1369 3016 2328 
Q 3016 3291 2770 3770 
Q 2525 4250 2034 4250 
z
M 2034 4750 
Q 2819 4750 3233 4129 
Q 3647 3509 3647 2328 
Q 3647 1150 3233 529 
Q 2819 -91 2034 -91 
Q 1250 -91 836 529 
Q 422 1150 422 2328 
Q 422 3509 836 4129 
Q 1250 4750 2034 4750 
z
" transform="scale(0.015625)"/>
        <path id="DejaVuSans-2d" d="M 313 2009 
L 1997 2009 
L 1997 1497 
L 313 1497 
L 313 2009 
z
" transform="scale(0.015625)"/>
        <path id="DejaVuSans-4e" d="M 628 4666 
L 1478 4666 
L 3547 763 
L 3547 4666 
L 4159 4666 
L 4159 0 
L 3309 0 
L 1241 3903 
L 1241 0 
L 628 0 
L 628 4666 
z
" transform="scale(0.015625)"/>
        <path id="DejaVuSans-6f" d="M 1959 3097 
Q 1497 3097 1228 2736 
Q 959 2375 959 1747 
Q 959 1119 1226 758 
Q 1494 397 1959 397 
Q 2419 397 2687 759 
Q 2956 1122 2956 1747 
Q 2956 2369 2687 2733 
Q 2419 3097 1959 3097 
z
M 1959 3584 
Q 2709 3584 3137 3096 
Q 3566 2609 3566 1747 
Q 3566 888 3137 398 
Q 2709 -91 1959 -91 
Q 1206 -91 779 398 
Q 353 888 353 1747 
Q 353 2609 779 3096 
Q 1206 3584 1959 3584 
z
" transform="scale(0.015625)"/>
        <path id="DejaVuSans-76" d="M 191 3500 
L 800 3500 
L 1894 563 
L 2988 3500 
L 3597 3500 
L 2284 0 
L 1503 0 
L 191 3500 
z
" transform="scale(0.015625)"/>
        <path id="DejaVuSans-31" d="M 794 531 
L 1825 531 
L 1825 4091 
L 703 3866 
L 703 4441 
L 1819 4666 
L 2450 4666 
L 2450 531 
L 3481 531 
L 3481 0 
L 794 0 
L 794 531 
z
" transform="scale(0.015625)"/>
       </defs>
       <use xlink:href="#DejaVuSans-32"/>
       <use xlink:href="#DejaVuSans-30" x="63.623047"/>
       <use xlink:href="#DejaVuSans-32" x="127.246094"/>
       <use xlink:href="#DejaVuSans-30" x="190.869141"/>
       <use xlink:href="#DejaVuSans-2d" x="254.492188"/>
       <use xlink:href="#DejaVuSans-4e" x="290.576172"/>
       <use xlink:href="#DejaVuSans-6f" x="365.380859"/>
       <use xlink:href="#DejaVuSans-76" x="426.5625"/>
       <use xlink:href="#DejaVuSans-2d" x="483.117188"/>
       <use xlink:href="#DejaVuSans-30" x="519.201172"/>
       <use xlink:href="#DejaVuSans-31" x="582.824219"/>
      </g>
     </g>
    </g>
    <g id="xtick_2">
     <g id="line2d_2">
      <g>
       <use xlink:href="#m5e8725b6c5" x="107.93968" y="178.56" style="stroke: #000000; stroke-width: 0.8"/>
      </g>
     </g>
     <g id="text_2">
      <!-- 2020-Dec-01 -->
      <g transform="translate(50.831457 224.511534)rotate(-30)scale(0.1 -0.1)">
       <defs>
        <path id="DejaVuSans-44" d="M 1259 4147 
L 1259 519 
L 2022 519 
Q 2988 519 3436 956 
Q 3884 1394 3884 2338 
Q 3884 3275 3436 3711 
Q 2988 4147 2022 4147 
L 1259 4147 
z
M 628 4666 
L 1925 4666 
Q 3281 4666 3915 4102 
Q 4550 3538 4550 2338 
Q 4550 1131 3912 565 
Q 3275 0 1925 0 
L 628 0 
L 628 4666 
z
" transform="scale(0.015625)"/>
        <path id="DejaVuSans-65" d="M 3597 1894 
L 3597 1613 
L 953 1613 
Q 991 1019 1311 708 
Q 1631 397 2203 397 
Q 2534 397 2845 478 
Q 3156 559 3463 722 
L 3463 178 
Q 3153 47 2828 -22 
Q 2503 -91 2169 -91 
Q 1331 -91 842 396 
Q 353 884 353 1716 
Q 353 2575 817 3079 
Q 1281 3584 2069 3584 
Q 2775 3584 3186 3129 
Q 3597 2675 3597 1894 
z
M 3022 2063 
Q 3016 2534 2758 2815 
Q 2500 3097 2075 3097 
Q 1594 3097 1305 2825 
Q 1016 2553 972 2059 
L 3022 2063 
z
" transform="scale(0.015625)"/>
        <path id="DejaVuSans-63" d="M 3122 3366 
L 3122 2828 
Q 2878 2963 2633 3030 
Q 2388 3097 2138 3097 
Q 1578 3097 1268 2742 
Q 959 2388 959 1747 
Q 959 1106 1268 751 
Q 1578 397 2138 397 
Q 2388 397 2633 464 
Q 2878 531 3122 666 
L 3122 134 
Q 2881 22 2623 -34 
Q 2366 -91 2075 -91 
Q 1284 -91 818 406 
Q 353 903 353 1747 
Q 353 2603 823 3093 
Q 1294 3584 2113 3584 
Q 2378 3584 2631 3529 
Q 2884 3475 3122 3366 
z
" transform="scale(0.015625)"/>
       </defs>
       <use xlink:href="#DejaVuSans-32"/>
       <use xlink:href="#DejaVuSans-30" x="63.623047"/>
       <use xlink:href="#DejaVuSans-32" x="127.246094"/>
       <use xlink:href="#DejaVuSans-30" x="190.869141"/>
       <use xlink:href="#DejaVuSans-2d" x="254.492188"/>
       <use xlink:href="#DejaVuSans-44" x="290.576172"/>
       <use xlink:href="#DejaVuSans-65" x="367.578125"/>
       <use xlink:href="#DejaVuSans-63" x="429.101562"/>
       <use xlink:href="#DejaVuSans-2d" x="484.082031"/>
       <use xlink:href="#DejaVuSans-30" x="520.166016"/>
       <use xlink:href="#DejaVuSans-31" x="583.789062"/>
      </g>
     </g>
    </g>
    <g id="xtick_3">
     <g id="line2d_3">
      <g>
       <use xlink:href="#m5e8725b6c5" x="135.834056" y="178.56" style="stroke: #000000; stroke-width: 0.8"/>
      </g>
     </g>
     <g id="text_3">
      <!-- 2021-Jan-01 -->
      <g transform="translate(81.647316 222.824815)rotate(-30)scale(0.1 -0.1)">
       <defs>
        <path id="DejaVuSans-4a" d="M 628 4666 
L 1259 4666 
L 1259 325 
Q 1259 -519 939 -900 
Q 619 -1281 -91 -1281 
L -331 -1281 
L -331 -750 
L -134 -750 
Q 284 -750 456 -515 
Q 628 -281 628 325 
L 628 4666 
z
" transform="scale(0.015625)"/>
        <path id="DejaVuSans-61" d="M 2194 1759 
Q 1497 1759 1228 1600 
Q 959 1441 959 1056 
Q 959 750 1161 570 
Q 1363 391 1709 391 
Q 2188 391 2477 730 
Q 2766 1069 2766 1631 
L 2766 1759 
L 2194 1759 
z
M 3341 1997 
L 3341 0 
L 2766 0 
L 2766 531 
Q 2569 213 2275 61 
Q 1981 -91 1556 -91 
Q 1019 -91 701 211 
Q 384 513 384 1019 
Q 384 1609 779 1909 
Q 1175 2209 1959 2209 
L 2766 2209 
L 2766 2266 
Q 2766 2663 2505 2880 
Q 2244 3097 1772 3097 
Q 1472 3097 1187 3025 
Q 903 2953 641 2809 
L 641 3341 
Q 956 3463 1253 3523 
Q 1550 3584 1831 3584 
Q 2591 3584 2966 3190 
Q 3341 2797 3341 1997 
z
" transform="scale(0.015625)"/>
        <path id="DejaVuSans-6e" d="M 3513 2113 
L 3513 0 
L 2938 0 
L 2938 2094 
Q 2938 2591 2744 2837 
Q 2550 3084 2163 3084 
Q 1697 3084 1428 2787 
Q 1159 2491 1159 1978 
L 1159 0 
L 581 0 
L 581 3500 
L 1159 3500 
L 1159 2956 
Q 1366 3272 1645 3428 
Q 1925 3584 2291 3584 
Q 2894 3584 3203 3211 
Q 3513 2838 3513 2113 
z
" transform="scale(0.015625)"/>
       </defs>
       <use xlink:href="#DejaVuSans-32"/>
       <use xlink:href="#DejaVuSans-30" x="63.623047"/>
       <use xlink:href="#DejaVuSans-32" x="127.246094"/>
       <use xlink:href="#DejaVuSans-31" x="190.869141"/>
       <use xlink:href="#DejaVuSans-2d" x="254.492188"/>
       <use xlink:href="#DejaVuSans-4a" x="296.201172"/>
       <use xlink:href="#DejaVuSans-61" x="325.693359"/>
       <use xlink:href="#DejaVuSans-6e" x="386.972656"/>
       <use xlink:href="#DejaVuSans-2d" x="450.351562"/>
       <use xlink:href="#DejaVuSans-30" x="486.435547"/>
       <use xlink:href="#DejaVuSans-31" x="550.058594"/>
      </g>
     </g>
    </g>
    <g id="xtick_4">
     <g id="line2d_4">
      <g>
       <use xlink:href="#m5e8725b6c5" x="163.728432" y="178.56" style="stroke: #000000; stroke-width: 0.8"/>
      </g>
     </g>
     <g id="text_4">
      <!-- 2021-Feb-01 -->
      <g transform="translate(108.047798 223.687315)rotate(-30)scale(0.1 -0.1)">
       <defs>
        <path id="DejaVuSans-46" d="M 628 4666 
L 3309 4666 
L 3309 4134 
L 1259 4134 
L 1259 2759 
L 3109 2759 
L 3109 2228 
L 1259 2228 
L 1259 0 
L 628 0 
L 628 4666 
z
" transform="scale(0.015625)"/>
        <path id="DejaVuSans-62" d="M 3116 1747 
Q 3116 2381 2855 2742 
Q 2594 3103 2138 3103 
Q 1681 3103 1420 2742 
Q 1159 2381 1159 1747 
Q 1159 1113 1420 752 
Q 1681 391 2138 391 
Q 2594 391 2855 752 
Q 3116 1113 3116 1747 
z
M 1159 2969 
Q 1341 3281 1617 3432 
Q 1894 3584 2278 3584 
Q 2916 3584 3314 3078 
Q 3713 2572 3713 1747 
Q 3713 922 3314 415 
Q 2916 -91 2278 -91 
Q 1894 -91 1617 61 
Q 1341 213 1159 525 
L 1159 0 
L 581 0 
L 581 4863 
L 1159 4863 
L 1159 2969 
z
" transform="scale(0.015625)"/>
       </defs>
       <use xlink:href="#DejaVuSans-32"/>
       <use xlink:href="#DejaVuSans-30" x="63.623047"/>
       <use xlink:href="#DejaVuSans-32" x="127.246094"/>
       <use xlink:href="#DejaVuSans-31" x="190.869141"/>
       <use xlink:href="#DejaVuSans-2d" x="254.492188"/>
       <use xlink:href="#DejaVuSans-46" x="290.576172"/>
       <use xlink:href="#DejaVuSans-65" x="342.595703"/>
       <use xlink:href="#DejaVuSans-62" x="404.119141"/>
       <use xlink:href="#DejaVuSans-2d" x="467.595703"/>
       <use xlink:href="#DejaVuSans-30" x="503.679688"/>
       <use xlink:href="#DejaVuSans-31" x="567.302734"/>
      </g>
     </g>
    </g>
    <g id="xtick_5">
     <g id="line2d_5">
      <g>
       <use xlink:href="#m5e8725b6c5" x="188.923353" y="178.56" style="stroke: #000000; stroke-width: 0.8"/>
      </g>
     </g>
     <g id="text_5">
      <!-- 2021-Mar-01 -->
      <g transform="translate(132.786702 223.950596)rotate(-30)scale(0.1 -0.1)">
       <defs>
        <path id="DejaVuSans-4d" d="M 628 4666 
L 1569 4666 
L 2759 1491 
L 3956 4666 
L 4897 4666 
L 4897 0 
L 4281 0 
L 4281 4097 
L 3078 897 
L 2444 897 
L 1241 4097 
L 1241 0 
L 628 0 
L 628 4666 
z
" transform="scale(0.015625)"/>
        <path id="DejaVuSans-72" d="M 2631 2963 
Q 2534 3019 2420 3045 
Q 2306 3072 2169 3072 
Q 1681 3072 1420 2755 
Q 1159 2438 1159 1844 
L 1159 0 
L 581 0 
L 581 3500 
L 1159 3500 
L 1159 2956 
Q 1341 3275 1631 3429 
Q 1922 3584 2338 3584 
Q 2397 3584 2469 3576 
Q 2541 3569 2628 3553 
L 2631 2963 
z
" transform="scale(0.015625)"/>
       </defs>
       <use xlink:href="#DejaVuSans-32"/>
       <use xlink:href="#DejaVuSans-30" x="63.623047"/>
       <use xlink:href="#DejaVuSans-32" x="127.246094"/>
       <use xlink:href="#DejaVuSans-31" x="190.869141"/>
       <use xlink:href="#DejaVuSans-2d" x="254.492188"/>
       <use xlink:href="#DejaVuSans-4d" x="290.576172"/>
       <use xlink:href="#DejaVuSans-61" x="376.855469"/>
       <use xlink:href="#DejaVuSans-72" x="438.134766"/>
       <use xlink:href="#DejaVuSans-2d" x="472.873047"/>
       <use xlink:href="#DejaVuSans-30" x="508.957031"/>
       <use xlink:href="#DejaVuSans-31" x="572.580078"/>
      </g>
     </g>
    </g>
    <g id="xtick_6">
     <g id="line2d_6">
      <g>
       <use xlink:href="#m5e8725b6c5" x="216.817729" y="178.56" style="stroke: #000000; stroke-width: 0.8"/>
      </g>
     </g>
     <g id="text_6">
      <!-- 2021-Apr-01 -->
      <g transform="translate(162.233158 223.054502)rotate(-30)scale(0.1 -0.1)">
       <defs>
        <path id="DejaVuSans-41" d="M 2188 4044 
L 1331 1722 
L 3047 1722 
L 2188 4044 
z
M 1831 4666 
L 2547 4666 
L 4325 0 
L 3669 0 
L 3244 1197 
L 1141 1197 
L 716 0 
L 50 0 
L 1831 4666 
z
" transform="scale(0.015625)"/>
        <path id="DejaVuSans-70" d="M 1159 525 
L 1159 -1331 
L 581 -1331 
L 581 3500 
L 1159 3500 
L 1159 2969 
Q 1341 3281 1617 3432 
Q 1894 3584 2278 3584 
Q 2916 3584 3314 3078 
Q 3713 2572 3713 1747 
Q 3713 922 3314 415 
Q 2916 -91 2278 -91 
Q 1894 -91 1617 61 
Q 1341 213 1159 525 
z
M 3116 1747 
Q 3116 2381 2855 2742 
Q 2594 3103 2138 3103 
Q 1681 3103 1420 2742 
Q 1159 2381 1159 1747 
Q 1159 1113 1420 752 
Q 1681 391 2138 391 
Q 2594 391 2855 752 
Q 3116 1113 3116 1747 
z
" transform="scale(0.015625)"/>
       </defs>
       <use xlink:href="#DejaVuSans-32"/>
       <use xlink:href="#DejaVuSans-30" x="63.623047"/>
       <use xlink:href="#DejaVuSans-32" x="127.246094"/>
       <use xlink:href="#DejaVuSans-31" x="190.869141"/>
       <use xlink:href="#DejaVuSans-2d" x="254.492188"/>
       <use xlink:href="#DejaVuSans-41" x="288.326172"/>
       <use xlink:href="#DejaVuSans-70" x="356.734375"/>
       <use xlink:href="#DejaVuSans-72" x="420.210938"/>
       <use xlink:href="#DejaVuSans-2d" x="454.949219"/>
       <use xlink:href="#DejaVuSans-30" x="491.033203"/>
       <use xlink:href="#DejaVuSans-31" x="554.65625"/>
      </g>
     </g>
    </g>
    <g id="xtick_7">
     <g id="line2d_7">
      <g>
       <use xlink:href="#m5e8725b6c5" x="243.812286" y="178.56" style="stroke: #000000; stroke-width: 0.8"/>
      </g>
     </g>
     <g id="text_7">
      <!-- 2021-May-01 -->
      <g transform="translate(185.709488 225.085752)rotate(-30)scale(0.1 -0.1)">
       <defs>
        <path id="DejaVuSans-79" d="M 2059 -325 
Q 1816 -950 1584 -1140 
Q 1353 -1331 966 -1331 
L 506 -1331 
L 506 -850 
L 844 -850 
Q 1081 -850 1212 -737 
Q 1344 -625 1503 -206 
L 1606 56 
L 191 3500 
L 800 3500 
L 1894 763 
L 2988 3500 
L 3597 3500 
L 2059 -325 
z
" transform="scale(0.015625)"/>
       </defs>
       <use xlink:href="#DejaVuSans-32"/>
       <use xlink:href="#DejaVuSans-30" x="63.623047"/>
       <use xlink:href="#DejaVuSans-32" x="127.246094"/>
       <use xlink:href="#DejaVuSans-31" x="190.869141"/>
       <use xlink:href="#DejaVuSans-2d" x="254.492188"/>
       <use xlink:href="#DejaVuSans-4d" x="290.576172"/>
       <use xlink:href="#DejaVuSans-61" x="376.855469"/>
       <use xlink:href="#DejaVuSans-79" x="438.134766"/>
       <use xlink:href="#DejaVuSans-2d" x="495.564453"/>
       <use xlink:href="#DejaVuSans-30" x="531.648438"/>
       <use xlink:href="#DejaVuSans-31" x="595.271484"/>
      </g>
     </g>
    </g>
    <g id="xtick_8">
     <g id="line2d_8">
      <g>
       <use xlink:href="#m5e8725b6c5" x="271.706663" y="178.56" style="stroke: #000000; stroke-width: 0.8"/>
      </g>
     </g>
     <g id="text_8">
      <!-- 2021-Jun-01 -->
      <g transform="translate(217.338598 222.929502)rotate(-30)scale(0.1 -0.1)">
       <defs>
        <path id="DejaVuSans-75" d="M 544 1381 
L 544 3500 
L 1119 3500 
L 1119 1403 
Q 1119 906 1312 657 
Q 1506 409 1894 409 
Q 2359 409 2629 706 
Q 2900 1003 2900 1516 
L 2900 3500 
L 3475 3500 
L 3475 0 
L 2900 0 
L 2900 538 
Q 2691 219 2414 64 
Q 2138 -91 1772 -91 
Q 1169 -91 856 284 
Q 544 659 544 1381 
z
M 1991 3584 
L 1991 3584 
z
" transform="scale(0.015625)"/>
       </defs>
       <use xlink:href="#DejaVuSans-32"/>
       <use xlink:href="#DejaVuSans-30" x="63.623047"/>
       <use xlink:href="#DejaVuSans-32" x="127.246094"/>
       <use xlink:href="#DejaVuSans-31" x="190.869141"/>
       <use xlink:href="#DejaVuSans-2d" x="254.492188"/>
       <use xlink:href="#DejaVuSans-4a" x="296.201172"/>
       <use xlink:href="#DejaVuSans-75" x="325.693359"/>
       <use xlink:href="#DejaVuSans-6e" x="389.072266"/>
       <use xlink:href="#DejaVuSans-2d" x="452.451172"/>
       <use xlink:href="#DejaVuSans-30" x="488.535156"/>
       <use xlink:href="#DejaVuSans-31" x="552.158203"/>
      </g>
     </g>
    </g>
    <g id="xtick_9">
     <g id="line2d_9">
      <g>
       <use xlink:href="#m5e8725b6c5" x="298.70122" y="178.56" style="stroke: #000000; stroke-width: 0.8"/>
      </g>
     </g>
     <g id="text_9">
      <!-- 2021-Jul-01 -->
      <g transform="translate(247.415665 221.149815)rotate(-30)scale(0.1 -0.1)">
       <defs>
        <path id="DejaVuSans-6c" d="M 603 4863 
L 1178 4863 
L 1178 0 
L 603 0 
L 603 4863 
z
" transform="scale(0.015625)"/>
       </defs>
       <use xlink:href="#DejaVuSans-32"/>
       <use xlink:href="#DejaVuSans-30" x="63.623047"/>
       <use xlink:href="#DejaVuSans-32" x="127.246094"/>
       <use xlink:href="#DejaVuSans-31" x="190.869141"/>
       <use xlink:href="#DejaVuSans-2d" x="254.492188"/>
       <use xlink:href="#DejaVuSans-4a" x="296.201172"/>
       <use xlink:href="#DejaVuSans-75" x="325.693359"/>
       <use xlink:href="#DejaVuSans-6c" x="389.072266"/>
       <use xlink:href="#DejaVuSans-2d" x="416.855469"/>
       <use xlink:href="#DejaVuSans-30" x="452.939453"/>
       <use xlink:href="#DejaVuSans-31" x="516.5625"/>
      </g>
     </g>
    </g>
    <g id="xtick_10">
     <g id="line2d_10">
      <g>
       <use xlink:href="#m5e8725b6c5" x="326.595596" y="178.56" style="stroke: #000000; stroke-width: 0.8"/>
      </g>
     </g>
     <g id="text_10">
      <!-- 2021-Aug-01 -->
      <g transform="translate(269.530675 224.486534)rotate(-30)scale(0.1 -0.1)">
       <defs>
        <path id="DejaVuSans-67" d="M 2906 1791 
Q 2906 2416 2648 2759 
Q 2391 3103 1925 3103 
Q 1463 3103 1205 2759 
Q 947 2416 947 1791 
Q 947 1169 1205 825 
Q 1463 481 1925 481 
Q 2391 481 2648 825 
Q 2906 1169 2906 1791 
z
M 3481 434 
Q 3481 -459 3084 -895 
Q 2688 -1331 1869 -1331 
Q 1566 -1331 1297 -1286 
Q 1028 -1241 775 -1147 
L 775 -588 
Q 1028 -725 1275 -790 
Q 1522 -856 1778 -856 
Q 2344 -856 2625 -561 
Q 2906 -266 2906 331 
L 2906 616 
Q 2728 306 2450 153 
Q 2172 0 1784 0 
Q 1141 0 747 490 
Q 353 981 353 1791 
Q 353 2603 747 3093 
Q 1141 3584 1784 3584 
Q 2172 3584 2450 3431 
Q 2728 3278 2906 2969 
L 2906 3500 
L 3481 3500 
L 3481 434 
z
" transform="scale(0.015625)"/>
       </defs>
       <use xlink:href="#DejaVuSans-32"/>
       <use xlink:href="#DejaVuSans-30" x="63.623047"/>
       <use xlink:href="#DejaVuSans-32" x="127.246094"/>
       <use xlink:href="#DejaVuSans-31" x="190.869141"/>
       <use xlink:href="#DejaVuSans-2d" x="254.492188"/>
       <use xlink:href="#DejaVuSans-41" x="288.326172"/>
       <use xlink:href="#DejaVuSans-75" x="356.734375"/>
       <use xlink:href="#DejaVuSans-67" x="420.113281"/>
       <use xlink:href="#DejaVuSans-2d" x="483.589844"/>
       <use xlink:href="#DejaVuSans-30" x="519.673828"/>
       <use xlink:href="#DejaVuSans-31" x="583.296875"/>
      </g>
     </g>
    </g>
    <g id="xtick_11">
     <g id="line2d_11">
      <g>
       <use xlink:href="#m5e8725b6c5" x="354.489972" y="178.56" style="stroke: #000000; stroke-width: 0.8"/>
      </g>
     </g>
     <g id="text_11">
      <!-- 2021-Sep-01 -->
      <g transform="translate(297.816115 224.260752)rotate(-30)scale(0.1 -0.1)">
       <defs>
        <path id="DejaVuSans-53" d="M 3425 4513 
L 3425 3897 
Q 3066 4069 2747 4153 
Q 2428 4238 2131 4238 
Q 1616 4238 1336 4038 
Q 1056 3838 1056 3469 
Q 1056 3159 1242 3001 
Q 1428 2844 1947 2747 
L 2328 2669 
Q 3034 2534 3370 2195 
Q 3706 1856 3706 1288 
Q 3706 609 3251 259 
Q 2797 -91 1919 -91 
Q 1588 -91 1214 -16 
Q 841 59 441 206 
L 441 856 
Q 825 641 1194 531 
Q 1563 422 1919 422 
Q 2459 422 2753 634 
Q 3047 847 3047 1241 
Q 3047 1584 2836 1778 
Q 2625 1972 2144 2069 
L 1759 2144 
Q 1053 2284 737 2584 
Q 422 2884 422 3419 
Q 422 4038 858 4394 
Q 1294 4750 2059 4750 
Q 2388 4750 2728 4690 
Q 3069 4631 3425 4513 
z
" transform="scale(0.015625)"/>
       </defs>
       <use xlink:href="#DejaVuSans-32"/>
       <use xlink:href="#DejaVuSans-30" x="63.623047"/>
       <use xlink:href="#DejaVuSans-32" x="127.246094"/>
       <use xlink:href="#DejaVuSans-31" x="190.869141"/>
       <use xlink:href="#DejaVuSans-2d" x="254.492188"/>
       <use xlink:href="#DejaVuSans-53" x="290.576172"/>
       <use xlink:href="#DejaVuSans-65" x="354.052734"/>
       <use xlink:href="#DejaVuSans-70" x="415.576172"/>
       <use xlink:href="#DejaVuSans-2d" x="479.052734"/>
       <use xlink:href="#DejaVuSans-30" x="515.136719"/>
       <use xlink:href="#DejaVuSans-31" x="578.759766"/>
      </g>
     </g>
    </g>
    <g id="xtick_12">
     <g id="line2d_12">
      <g>
       <use xlink:href="#m5e8725b6c5" x="381.48453" y="178.56" style="stroke: #000000; stroke-width: 0.8"/>
      </g>
     </g>
     <g id="text_12">
      <!-- 2021-Oct-01 -->
      <g transform="translate(325.922974 223.618565)rotate(-30)scale(0.1 -0.1)">
       <defs>
        <path id="DejaVuSans-4f" d="M 2522 4238 
Q 1834 4238 1429 3725 
Q 1025 3213 1025 2328 
Q 1025 1447 1429 934 
Q 1834 422 2522 422 
Q 3209 422 3611 934 
Q 4013 1447 4013 2328 
Q 4013 3213 3611 3725 
Q 3209 4238 2522 4238 
z
M 2522 4750 
Q 3503 4750 4090 4092 
Q 4678 3434 4678 2328 
Q 4678 1225 4090 567 
Q 3503 -91 2522 -91 
Q 1538 -91 948 565 
Q 359 1222 359 2328 
Q 359 3434 948 4092 
Q 1538 4750 2522 4750 
z
" transform="scale(0.015625)"/>
        <path id="DejaVuSans-74" d="M 1172 4494 
L 1172 3500 
L 2356 3500 
L 2356 3053 
L 1172 3053 
L 1172 1153 
Q 1172 725 1289 603 
Q 1406 481 1766 481 
L 2356 481 
L 2356 0 
L 1766 0 
Q 1100 0 847 248 
Q 594 497 594 1153 
L 594 3053 
L 172 3053 
L 172 3500 
L 594 3500 
L 594 4494 
L 1172 4494 
z
" transform="scale(0.015625)"/>
       </defs>
       <use xlink:href="#DejaVuSans-32"/>
       <use xlink:href="#DejaVuSans-30" x="63.623047"/>
       <use xlink:href="#DejaVuSans-32" x="127.246094"/>
       <use xlink:href="#DejaVuSans-31" x="190.869141"/>
       <use xlink:href="#DejaVuSans-2d" x="254.492188"/>
       <use xlink:href="#DejaVuSans-4f" x="293.326172"/>
       <use xlink:href="#DejaVuSans-63" x="372.037109"/>
       <use xlink:href="#DejaVuSans-74" x="427.017578"/>
       <use xlink:href="#DejaVuSans-2d" x="466.226562"/>
       <use xlink:href="#DejaVuSans-30" x="502.310547"/>
       <use xlink:href="#DejaVuSans-31" x="565.933594"/>
      </g>
     </g>
    </g>
    <g id="xtick_13">
     <g id="line2d_13">
      <g>
       <use xlink:href="#m5e8725b6c5" x="409.378906" y="178.56" style="stroke: #000000; stroke-width: 0.8"/>
      </g>
     </g>
     <g id="text_13">
      <!-- 2021-Nov-01 -->
      <g transform="translate(352.353226 224.463877)rotate(-30)scale(0.1 -0.1)">
       <use xlink:href="#DejaVuSans-32"/>
       <use xlink:href="#DejaVuSans-30" x="63.623047"/>
       <use xlink:href="#DejaVuSans-32" x="127.246094"/>
       <use xlink:href="#DejaVuSans-31" x="190.869141"/>
       <use xlink:href="#DejaVuSans-2d" x="254.492188"/>
       <use xlink:href="#DejaVuSans-4e" x="290.576172"/>
       <use xlink:href="#DejaVuSans-6f" x="365.380859"/>
       <use xlink:href="#DejaVuSans-76" x="426.5625"/>
       <use xlink:href="#DejaVuSans-2d" x="483.117188"/>
       <use xlink:href="#DejaVuSans-30" x="519.201172"/>
       <use xlink:href="#DejaVuSans-31" x="582.824219"/>
      </g>
     </g>
    </g>
    <g id="xtick_14">
     <g id="line2d_14">
      <g>
       <use xlink:href="#m5e8725b6c5" x="436.373464" y="178.56" style="stroke: #000000; stroke-width: 0.8"/>
      </g>
     </g>
     <g id="text_14">
      <!-- 2021-Dec-01 -->
      <g transform="translate(379.265241 224.511534)rotate(-30)scale(0.1 -0.1)">
       <use xlink:href="#DejaVuSans-32"/>
       <use xlink:href="#DejaVuSans-30" x="63.623047"/>
       <use xlink:href="#DejaVuSans-32" x="127.246094"/>
       <use xlink:href="#DejaVuSans-31" x="190.869141"/>
       <use xlink:href="#DejaVuSans-2d" x="254.492188"/>
       <use xlink:href="#DejaVuSans-44" x="290.576172"/>
       <use xlink:href="#DejaVuSans-65" x="367.578125"/>
       <use xlink:href="#DejaVuSans-63" x="429.101562"/>
       <use xlink:href="#DejaVuSans-2d" x="484.082031"/>
       <use xlink:href="#DejaVuSans-30" x="520.166016"/>
       <use xlink:href="#DejaVuSans-31" x="583.789062"/>
      </g>
     </g>
    </g>
    <g id="xtick_15">
     <g id="line2d_15">
      <g>
       <use xlink:href="#m5e8725b6c5" x="464.26784" y="178.56" style="stroke: #000000; stroke-width: 0.8"/>
      </g>
     </g>
     <g id="text_15">
      <!-- 2022-Jan-01 -->
      <g transform="translate(410.0811 222.824815)rotate(-30)scale(0.1 -0.1)">
       <use xlink:href="#DejaVuSans-32"/>
       <use xlink:href="#DejaVuSans-30" x="63.623047"/>
       <use xlink:href="#DejaVuSans-32" x="127.246094"/>
       <use xlink:href="#DejaVuSans-32" x="190.869141"/>
       <use xlink:href="#DejaVuSans-2d" x="254.492188"/>
       <use xlink:href="#DejaVuSans-4a" x="296.201172"/>
       <use xlink:href="#DejaVuSans-61" x="325.693359"/>
       <use xlink:href="#DejaVuSans-6e" x="386.972656"/>
       <use xlink:href="#DejaVuSans-2d" x="450.351562"/>
       <use xlink:href="#DejaVuSans-30" x="486.435547"/>
       <use xlink:href="#DejaVuSans-31" x="550.058594"/>
      </g>
     </g>
    </g>
    <g id="xtick_16">
     <g id="line2d_16">
      <g>
       <use xlink:href="#m5e8725b6c5" x="492.162216" y="178.56" style="stroke: #000000; stroke-width: 0.8"/>
      </g>
     </g>
     <g id="text_16">
      <!-- 2022-Feb-01 -->
      <g transform="translate(436.481582 223.687315)rotate(-30)scale(0.1 -0.1)">
       <use xlink:href="#DejaVuSans-32"/>
       <use xlink:href="#DejaVuSans-30" x="63.623047"/>
       <use xlink:href="#DejaVuSans-32" x="127.246094"/>
       <use xlink:href="#DejaVuSans-32" x="190.869141"/>
       <use xlink:href="#DejaVuSans-2d" x="254.492188"/>
       <use xlink:href="#DejaVuSans-46" x="290.576172"/>
       <use xlink:href="#DejaVuSans-65" x="342.595703"/>
       <use xlink:href="#DejaVuSans-62" x="404.119141"/>
       <use xlink:href="#DejaVuSans-2d" x="467.595703"/>
       <use xlink:href="#DejaVuSans-30" x="503.679688"/>
       <use xlink:href="#DejaVuSans-31" x="567.302734"/>
      </g>
     </g>
    </g>
   </g>
   <g id="matplotlib.axis_2">
    <g id="ytick_1">
     <g id="line2d_17">
      <path d="M 66.053125 171.341338 
L 512.453125 171.341338 
" clip-path="url(#pe4aa85c0e3)" style="fill: none; stroke: #b0b0b0; stroke-width: 0.8; stroke-linecap: square"/>
     </g>
     <g id="line2d_18">
      <defs>
       <path id="m88b18e3a67" d="M 0 0 
L -3.5 0 
" style="stroke: #000000; stroke-width: 0.8"/>
      </defs>
      <g>
       <use xlink:href="#m88b18e3a67" x="66.053125" y="171.341338" style="stroke: #000000; stroke-width: 0.8"/>
      </g>
     </g>
     <g id="text_17">
      <!-- 160000 -->
      <g transform="translate(20.878125 175.140557)scale(0.1 -0.1)">
       <defs>
        <path id="DejaVuSans-36" d="M 2113 2584 
Q 1688 2584 1439 2293 
Q 1191 2003 1191 1497 
Q 1191 994 1439 701 
Q 1688 409 2113 409 
Q 2538 409 2786 701 
Q 3034 994 3034 1497 
Q 3034 2003 2786 2293 
Q 2538 2584 2113 2584 
z
M 3366 4563 
L 3366 3988 
Q 3128 4100 2886 4159 
Q 2644 4219 2406 4219 
Q 1781 4219 1451 3797 
Q 1122 3375 1075 2522 
Q 1259 2794 1537 2939 
Q 1816 3084 2150 3084 
Q 2853 3084 3261 2657 
Q 3669 2231 3669 1497 
Q 3669 778 3244 343 
Q 2819 -91 2113 -91 
Q 1303 -91 875 529 
Q 447 1150 447 2328 
Q 447 3434 972 4092 
Q 1497 4750 2381 4750 
Q 2619 4750 2861 4703 
Q 3103 4656 3366 4563 
z
" transform="scale(0.015625)"/>
       </defs>
       <use xlink:href="#DejaVuSans-31"/>
       <use xlink:href="#DejaVuSans-36" x="63.623047"/>
       <use xlink:href="#DejaVuSans-30" x="127.246094"/>
       <use xlink:href="#DejaVuSans-30" x="190.869141"/>
       <use xlink:href="#DejaVuSans-30" x="254.492188"/>
       <use xlink:href="#DejaVuSans-30" x="318.115234"/>
      </g>
     </g>
    </g>
    <g id="ytick_2">
     <g id="line2d_19">
      <path d="M 66.053125 137.183902 
L 512.453125 137.183902 
" clip-path="url(#pe4aa85c0e3)" style="fill: none; stroke: #b0b0b0; stroke-width: 0.8; stroke-linecap: square"/>
     </g>
     <g id="line2d_20">
      <g>
       <use xlink:href="#m88b18e3a67" x="66.053125" y="137.183902" style="stroke: #000000; stroke-width: 0.8"/>
      </g>
     </g>
     <g id="text_18">
      <!-- 170000 -->
      <g transform="translate(20.878125 140.983121)scale(0.1 -0.1)">
       <defs>
        <path id="DejaVuSans-37" d="M 525 4666 
L 3525 4666 
L 3525 4397 
L 1831 0 
L 1172 0 
L 2766 4134 
L 525 4134 
L 525 4666 
z
" transform="scale(0.015625)"/>
       </defs>
       <use xlink:href="#DejaVuSans-31"/>
       <use xlink:href="#DejaVuSans-37" x="63.623047"/>
       <use xlink:href="#DejaVuSans-30" x="127.246094"/>
       <use xlink:href="#DejaVuSans-30" x="190.869141"/>
       <use xlink:href="#DejaVuSans-30" x="254.492188"/>
       <use xlink:href="#DejaVuSans-30" x="318.115234"/>
      </g>
     </g>
    </g>
    <g id="ytick_3">
     <g id="line2d_21">
      <path d="M 66.053125 103.026466 
L 512.453125 103.026466 
" clip-path="url(#pe4aa85c0e3)" style="fill: none; stroke: #b0b0b0; stroke-width: 0.8; stroke-linecap: square"/>
     </g>
     <g id="line2d_22">
      <g>
       <use xlink:href="#m88b18e3a67" x="66.053125" y="103.026466" style="stroke: #000000; stroke-width: 0.8"/>
      </g>
     </g>
     <g id="text_19">
      <!-- 180000 -->
      <g transform="translate(20.878125 106.825685)scale(0.1 -0.1)">
       <defs>
        <path id="DejaVuSans-38" d="M 2034 2216 
Q 1584 2216 1326 1975 
Q 1069 1734 1069 1313 
Q 1069 891 1326 650 
Q 1584 409 2034 409 
Q 2484 409 2743 651 
Q 3003 894 3003 1313 
Q 3003 1734 2745 1975 
Q 2488 2216 2034 2216 
z
M 1403 2484 
Q 997 2584 770 2862 
Q 544 3141 544 3541 
Q 544 4100 942 4425 
Q 1341 4750 2034 4750 
Q 2731 4750 3128 4425 
Q 3525 4100 3525 3541 
Q 3525 3141 3298 2862 
Q 3072 2584 2669 2484 
Q 3125 2378 3379 2068 
Q 3634 1759 3634 1313 
Q 3634 634 3220 271 
Q 2806 -91 2034 -91 
Q 1263 -91 848 271 
Q 434 634 434 1313 
Q 434 1759 690 2068 
Q 947 2378 1403 2484 
z
M 1172 3481 
Q 1172 3119 1398 2916 
Q 1625 2713 2034 2713 
Q 2441 2713 2670 2916 
Q 2900 3119 2900 3481 
Q 2900 3844 2670 4047 
Q 2441 4250 2034 4250 
Q 1625 4250 1398 4047 
Q 1172 3844 1172 3481 
z
" transform="scale(0.015625)"/>
       </defs>
       <use xlink:href="#DejaVuSans-31"/>
       <use xlink:href="#DejaVuSans-38" x="63.623047"/>
       <use xlink:href="#DejaVuSans-30" x="127.246094"/>
       <use xlink:href="#DejaVuSans-30" x="190.869141"/>
       <use xlink:href="#DejaVuSans-30" x="254.492188"/>
       <use xlink:href="#DejaVuSans-30" x="318.115234"/>
      </g>
     </g>
    </g>
    <g id="ytick_4">
     <g id="line2d_23">
      <path d="M 66.053125 68.86903 
L 512.453125 68.86903 
" clip-path="url(#pe4aa85c0e3)" style="fill: none; stroke: #b0b0b0; stroke-width: 0.8; stroke-linecap: square"/>
     </g>
     <g id="line2d_24">
      <g>
       <use xlink:href="#m88b18e3a67" x="66.053125" y="68.86903" style="stroke: #000000; stroke-width: 0.8"/>
      </g>
     </g>
     <g id="text_20">
      <!-- 190000 -->
      <g transform="translate(20.878125 72.668249)scale(0.1 -0.1)">
       <defs>
        <path id="DejaVuSans-39" d="M 703 97 
L 703 672 
Q 941 559 1184 500 
Q 1428 441 1663 441 
Q 2288 441 2617 861 
Q 2947 1281 2994 2138 
Q 2813 1869 2534 1725 
Q 2256 1581 1919 1581 
Q 1219 1581 811 2004 
Q 403 2428 403 3163 
Q 403 3881 828 4315 
Q 1253 4750 1959 4750 
Q 2769 4750 3195 4129 
Q 3622 3509 3622 2328 
Q 3622 1225 3098 567 
Q 2575 -91 1691 -91 
Q 1453 -91 1209 -44 
Q 966 3 703 97 
z
M 1959 2075 
Q 2384 2075 2632 2365 
Q 2881 2656 2881 3163 
Q 2881 3666 2632 3958 
Q 2384 4250 1959 4250 
Q 1534 4250 1286 3958 
Q 1038 3666 1038 3163 
Q 1038 2656 1286 2365 
Q 1534 2075 1959 2075 
z
" transform="scale(0.015625)"/>
       </defs>
       <use xlink:href="#DejaVuSans-31"/>
       <use xlink:href="#DejaVuSans-39" x="63.623047"/>
       <use xlink:href="#DejaVuSans-30" x="127.246094"/>
       <use xlink:href="#DejaVuSans-30" x="190.869141"/>
       <use xlink:href="#DejaVuSans-30" x="254.492188"/>
       <use xlink:href="#DejaVuSans-30" x="318.115234"/>
      </g>
     </g>
    </g>
    <g id="ytick_5">
     <g id="line2d_25">
      <path d="M 66.053125 34.711594 
L 512.453125 34.711594 
" clip-path="url(#pe4aa85c0e3)" style="fill: none; stroke: #b0b0b0; stroke-width: 0.8; stroke-linecap: square"/>
     </g>
     <g id="line2d_26">
      <g>
       <use xlink:href="#m88b18e3a67" x="66.053125" y="34.711594" style="stroke: #000000; stroke-width: 0.8"/>
      </g>
     </g>
     <g id="text_21">
      <!-- 200000 -->
      <g transform="translate(20.878125 38.510813)scale(0.1 -0.1)">
       <use xlink:href="#DejaVuSans-32"/>
       <use xlink:href="#DejaVuSans-30" x="63.623047"/>
       <use xlink:href="#DejaVuSans-30" x="127.246094"/>
       <use xlink:href="#DejaVuSans-30" x="190.869141"/>
       <use xlink:href="#DejaVuSans-30" x="254.492188"/>
       <use xlink:href="#DejaVuSans-30" x="318.115234"/>
      </g>
     </g>
    </g>
    <g id="text_22">
     <!-- Number of Domains -->
     <g transform="translate(14.798438 142.969844)rotate(-90)scale(0.1 -0.1)">
      <defs>
       <path id="DejaVuSans-6d" d="M 3328 2828 
Q 3544 3216 3844 3400 
Q 4144 3584 4550 3584 
Q 5097 3584 5394 3201 
Q 5691 2819 5691 2113 
L 5691 0 
L 5113 0 
L 5113 2094 
Q 5113 2597 4934 2840 
Q 4756 3084 4391 3084 
Q 3944 3084 3684 2787 
Q 3425 2491 3425 1978 
L 3425 0 
L 2847 0 
L 2847 2094 
Q 2847 2600 2669 2842 
Q 2491 3084 2119 3084 
Q 1678 3084 1418 2786 
Q 1159 2488 1159 1978 
L 1159 0 
L 581 0 
L 581 3500 
L 1159 3500 
L 1159 2956 
Q 1356 3278 1631 3431 
Q 1906 3584 2284 3584 
Q 2666 3584 2933 3390 
Q 3200 3197 3328 2828 
z
" transform="scale(0.015625)"/>
       <path id="DejaVuSans-20" transform="scale(0.015625)"/>
       <path id="DejaVuSans-66" d="M 2375 4863 
L 2375 4384 
L 1825 4384 
Q 1516 4384 1395 4259 
Q 1275 4134 1275 3809 
L 1275 3500 
L 2222 3500 
L 2222 3053 
L 1275 3053 
L 1275 0 
L 697 0 
L 697 3053 
L 147 3053 
L 147 3500 
L 697 3500 
L 697 3744 
Q 697 4328 969 4595 
Q 1241 4863 1831 4863 
L 2375 4863 
z
" transform="scale(0.015625)"/>
       <path id="DejaVuSans-69" d="M 603 3500 
L 1178 3500 
L 1178 0 
L 603 0 
L 603 3500 
z
M 603 4863 
L 1178 4863 
L 1178 4134 
L 603 4134 
L 603 4863 
z
" transform="scale(0.015625)"/>
       <path id="DejaVuSans-73" d="M 2834 3397 
L 2834 2853 
Q 2591 2978 2328 3040 
Q 2066 3103 1784 3103 
Q 1356 3103 1142 2972 
Q 928 2841 928 2578 
Q 928 2378 1081 2264 
Q 1234 2150 1697 2047 
L 1894 2003 
Q 2506 1872 2764 1633 
Q 3022 1394 3022 966 
Q 3022 478 2636 193 
Q 2250 -91 1575 -91 
Q 1294 -91 989 -36 
Q 684 19 347 128 
L 347 722 
Q 666 556 975 473 
Q 1284 391 1588 391 
Q 1994 391 2212 530 
Q 2431 669 2431 922 
Q 2431 1156 2273 1281 
Q 2116 1406 1581 1522 
L 1381 1569 
Q 847 1681 609 1914 
Q 372 2147 372 2553 
Q 372 3047 722 3315 
Q 1072 3584 1716 3584 
Q 2034 3584 2315 3537 
Q 2597 3491 2834 3397 
z
" transform="scale(0.015625)"/>
      </defs>
      <use xlink:href="#DejaVuSans-4e"/>
      <use xlink:href="#DejaVuSans-75" x="74.804688"/>
      <use xlink:href="#DejaVuSans-6d" x="138.183594"/>
      <use xlink:href="#DejaVuSans-62" x="235.595703"/>
      <use xlink:href="#DejaVuSans-65" x="299.072266"/>
      <use xlink:href="#DejaVuSans-72" x="360.595703"/>
      <use xlink:href="#DejaVuSans-20" x="401.708984"/>
      <use xlink:href="#DejaVuSans-6f" x="433.496094"/>
      <use xlink:href="#DejaVuSans-66" x="494.677734"/>
      <use xlink:href="#DejaVuSans-20" x="529.882812"/>
      <use xlink:href="#DejaVuSans-44" x="561.669922"/>
      <use xlink:href="#DejaVuSans-6f" x="638.671875"/>
      <use xlink:href="#DejaVuSans-6d" x="699.853516"/>
      <use xlink:href="#DejaVuSans-61" x="797.265625"/>
      <use xlink:href="#DejaVuSans-69" x="858.544922"/>
      <use xlink:href="#DejaVuSans-6e" x="886.328125"/>
      <use xlink:href="#DejaVuSans-73" x="949.707031"/>
     </g>
    </g>
   </g>
   <g id="line2d_27">
    <path d="M 86.344034 170.33711 
L 87.243853 170.770909 
L 88.143671 170.046771 
L 89.04349 170.40884 
L 89.943308 168.161281 
L 90.843127 165.326214 
L 91.742946 163.399734 
L 92.642764 162.651687 
L 95.34222 165.189584 
L 96.242039 166.508061 
L 97.141857 162.040268 
L 98.041676 160.755949 
L 98.941494 161.312715 
L 99.841313 161.049703 
L 102.540769 159.929339 
L 103.440587 159.164212 
L 104.340406 159.724394 
L 105.240224 159.645832 
L 106.140043 160.20943 
L 107.039862 160.243587 
L 107.93968 160.728623 
L 108.839499 160.872084 
L 109.739317 158.00286 
L 110.639136 157.022541 
L 111.538954 157.066946 
L 112.438773 157.722769 
L 113.338592 159.099313 
L 114.23841 159.608259 
L 115.138229 157.808162 
L 116.038047 156.588742 
L 116.937866 155.710896 
L 117.837685 155.663075 
L 118.737503 158.884121 
L 119.637322 159.375988 
L 120.53714 159.533113 
L 121.436959 157.787668 
L 122.336777 155.304422 
L 123.236596 154.72033 
L 125.036233 154.440239 
L 125.936052 155.270265 
L 126.83587 155.260017 
L 127.735689 154.07817 
L 128.635508 153.323291 
L 129.535326 153.442842 
L 130.435145 154.180642 
L 131.334963 154.5837 
L 132.234782 156.090043 
L 133.134601 156.359887 
L 135.834056 154.949185 
L 137.633693 157.166002 
L 138.533512 158.016523 
L 139.433331 157.982365 
L 140.333149 156.472606 
L 141.232968 153.005627 
L 142.132786 153.142256 
L 143.032605 153.087604 
L 143.932424 153.760506 
L 144.832242 151.362654 
L 145.732061 151.73497 
L 148.431516 149.337118 
L 151.130972 148.571991 
L 152.030791 149.446422 
L 152.930609 148.346552 
L 153.830428 146.925603 
L 154.730247 144.725864 
L 155.630065 144.411616 
L 163.728432 144.633639 
L 164.628251 145.248473 
L 166.427888 142.276776 
L 167.327707 139.967733 
L 168.227525 142.269945 
L 169.127344 142.198214 
L 170.027162 142.874531 
L 170.926981 142.795969 
L 171.8268 145.501238 
L 172.726618 144.333054 
L 173.626437 142.263113 
L 175.426074 143.526938 
L 177.225711 143.714804 
L 178.12553 142.70716 
L 179.025348 141.129086 
L 179.925167 140.842164 
L 180.824986 140.121442 
L 181.724804 139.95407 
L 182.624623 142.058168 
L 183.524441 142.713991 
L 184.42426 142.471473 
L 185.324078 140.555241 
L 186.223897 139.779867 
L 187.123716 137.990018 
L 188.923353 138.57411 
L 189.823171 138.457975 
L 190.72299 137.019947 
L 192.522627 133.351438 
L 193.422446 131.971478 
L 194.322264 130.892103 
L 195.222083 130.202122 
L 196.121901 130.004009 
L 197.921539 128.425936 
L 198.821357 128.439599 
L 199.721176 125.659183 
L 200.620994 126.540445 
L 201.520813 126.923009 
L 213.218455 116.836318 
L 215.018092 117.642433 
L 215.91791 116.908048 
L 216.817729 114.568264 
L 217.717547 113.328349 
L 218.617366 113.492305 
L 219.517185 114.315499 
L 220.417003 114.629747 
L 221.316822 117.072004 
L 222.21664 117.273533 
L 223.116459 114.793703 
L 224.016278 114.400893 
L 224.916096 114.745883 
L 227.615552 105.045171 
L 230.315008 102.319407 
L 231.214826 102.138373 
L 233.014463 102.906915 
L 233.914282 103.579817 
L 234.814101 102.510689 
L 237.513556 100.949694 
L 238.413375 102.326239 
L 239.313194 103.429524 
L 240.213012 103.842829 
L 241.112831 102.080305 
L 242.012649 100.700345 
L 245.611924 99.62097 
L 246.511742 100.276793 
L 247.411561 99.064204 
L 248.311379 97.551029 
L 249.211198 96.792734 
L 250.111017 97.106983 
L 251.010835 97.083072 
L 251.910654 97.612513 
L 252.810472 98.008739 
L 253.710291 97.315343 
L 254.610109 101.004346 
L 255.509928 100.136747 
L 256.409747 100.573962 
L 257.309565 100.355355 
L 258.209384 101.076077 
L 259.109202 96.826892 
L 260.009021 99.822499 
L 260.90884 95.983203 
L 261.808658 94.025982 
L 262.708477 90.224259 
L 263.608295 95.330796 
L 264.508114 95.617718 
L 265.407932 90.579497 
L 266.307751 89.978326 
L 268.107388 87.51899 
L 269.007207 86.818763 
L 269.907025 86.64456 
L 270.806844 87.276473 
L 271.706663 88.27387 
L 273.5063 83.812909 
L 274.406118 83.744594 
L 275.305937 82.473937 
L 276.205756 82.900905 
L 277.105574 82.764275 
L 278.005393 85.093812 
L 278.905211 80.472311 
L 279.80503 78.723451 
L 280.704848 77.558682 
L 281.604667 76.697915 
L 282.504486 76.390498 
L 283.404304 75.925957 
L 285.203941 77.739717 
L 286.10376 77.4323 
L 287.003579 78.521922 
L 287.903397 78.053965 
L 288.803216 77.913919 
L 289.703034 78.754192 
L 290.602853 79.034283 
L 292.40249 75.447753 
L 295.101946 74.016556 
L 296.901583 74.658716 
L 300.500857 71.950031 
L 301.400676 72.79372 
L 326.595596 70.566655 
L 327.495415 71.475243 
L 328.395233 71.406928 
L 329.295052 70.747689 
L 330.194871 68.691412 
L 331.094689 67.284125 
L 331.994508 67.458328 
L 332.894326 67.277294 
L 333.794145 67.78624 
L 334.693964 68.728985 
L 335.593782 68.343006 
L 337.393419 68.13123 
L 338.293238 68.411321 
L 339.193056 69.220852 
L 340.092875 69.675146 
L 340.992694 69.418965 
L 341.892512 72.636596 
L 342.792331 65.630905 
L 359.888884 59.851467 
L 361.688521 57.340896 
L 362.58834 56.514286 
L 363.488158 56.493791 
L 364.387977 56.85586 
L 365.287795 57.638065 
L 366.187614 57.600492 
L 367.087433 56.080486 
L 367.987251 54.960122 
L 368.88707 55.728665 
L 369.786888 54.133513 
L 370.686707 54.717605 
L 371.586526 55.096752 
L 372.486344 55.834553 
L 374.285981 53.313734 
L 375.1858 54.444345 
L 377.885256 52.678406 
L 378.785074 52.705732 
L 379.684893 50.823657 
L 380.584711 47.090249 
L 381.48453 44.279092 
L 382.384349 44.115137 
L 383.284167 43.589112 
L 384.183986 44.162957 
L 385.083804 44.31325 
L 385.983623 43.609606 
L 386.883441 44.791454 
L 387.78326 40.771124 
L 388.683079 40.036739 
L 389.582897 40.258762 
L 390.482716 41.064878 
L 391.382534 42.803491 
L 392.282353 43.452482 
L 393.182172 42.356029 
L 394.08199 40.118717 
L 394.981809 40.033323 
L 395.881627 40.825775 
L 396.781446 40.590089 
L 397.681264 41.157103 
L 398.581083 40.695977 
L 399.480902 39.865952 
L 400.38072 45.495097 
L 401.280539 44.829027 
L 402.180357 45.307231 
L 403.080176 46.12701 
L 403.979995 45.676131 
L 405.779632 37.143604 
L 406.67945 36.067645 
L 407.579269 35.278608 
L 408.479088 35.954925 
L 409.378906 36.265758 
L 410.278725 36.887423 
L 411.178543 35.825127 
L 412.078362 34.37002 
L 412.97818 33.1506 
L 413.877999 33.399949 
L 414.777818 33.939636 
L 416.577455 35.302518 
L 417.477273 34.923371 
L 420.176729 32.607496 
L 421.076548 32.682643 
L 421.976366 33.557073 
L 422.876185 33.874737 
L 423.776003 33.232577 
L 424.675822 31.719403 
L 425.575641 31.9141 
L 426.475459 34.223143 
L 427.375278 33.130105 
L 428.275096 34.288042 
L 429.174915 34.892629 
L 430.074734 36.252095 
L 430.974552 34.80382 
L 431.874371 29.038044 
L 432.774189 29.598226 
L 434.573826 31.049917 
L 435.473645 32.122461 
L 436.373464 30.657107 
L 437.273282 29.680204 
L 439.072919 31.104569 
L 439.972738 31.357334 
L 440.872557 30.243802 
L 441.772375 30.537556 
L 442.672194 29.769013 
L 443.572012 24.249172 
L 444.471831 23.617259 
L 445.371649 23.938339 
L 446.271468 24.65223 
L 448.071105 26.773406 
L 448.970924 24.976725 
L 449.870742 24.153531 
L 450.770561 23.617259 
L 454.369835 28.921909 
L 455.269654 25.769178 
L 456.169473 25.434435 
L 457.069291 25.608638 
L 457.96911 28.057726 
L 458.868928 29.495754 
L 459.768747 31.330008 
L 460.668565 32.238596 
L 461.568384 31.811628 
L 462.468203 31.86628 
L 465.167658 31.917516 
L 466.067477 33.475095 
L 466.967296 33.908895 
L 467.867114 35.97542 
L 469.666751 32.21127 
L 471.466388 32.242012 
L 473.266026 31.996078 
L 474.165844 31.446144 
L 475.065663 29.543574 
L 475.965481 26.571877 
L 476.8653 27.029587 
L 477.765119 27.801545 
L 478.664937 28.358311 
L 479.564756 27.722983 
L 480.464574 26.619698 
L 481.364393 24.419959 
L 482.264211 23.876856 
L 483.16403 22.397839 
L 484.063849 21.557566 
L 484.963667 21.646375 
L 485.863486 21.34579 
L 486.763304 19.795042 
L 487.663123 17.26056 
L 488.562942 16.840424 
L 489.46276 15.385317 
L 490.362579 15.255519 
L 491.262397 15.313587 
L 492.162216 14.989091 
L 492.162216 14.989091 
" clip-path="url(#pe4aa85c0e3)" style="fill: none; stroke: #1f77b4; stroke-width: 1.5; stroke-linecap: square"/>
   </g>
   <g id="line2d_28">
    <path d="M 86.344034 170.33711 
L 87.243853 170.770909 
L 88.143671 170.046771 
L 89.04349 170.40884 
L 89.943308 168.161281 
L 90.843127 165.326214 
L 91.742946 163.399734 
L 92.642764 162.651687 
L 95.34222 165.189584 
L 96.242039 166.508061 
L 97.141857 162.040268 
L 98.041676 160.755949 
L 98.941494 161.312715 
L 99.841313 161.049703 
L 102.540769 159.929339 
L 103.440587 159.164212 
L 104.340406 159.724394 
L 105.240224 159.645832 
L 106.140043 160.20943 
L 107.039862 160.243587 
L 107.93968 160.728623 
L 108.839499 160.872084 
L 109.739317 158.00286 
L 110.639136 157.022541 
L 111.538954 157.066946 
L 112.438773 157.722769 
L 113.338592 159.099313 
L 114.23841 159.608259 
L 115.138229 157.808162 
L 116.038047 156.588742 
L 116.937866 155.710896 
L 117.837685 155.663075 
L 118.737503 158.884121 
L 119.637322 159.375988 
L 120.53714 159.533113 
L 121.436959 157.787668 
L 122.336777 155.304422 
L 123.236596 154.72033 
L 125.036233 154.440239 
L 125.936052 155.270265 
L 126.83587 155.260017 
L 127.735689 154.07817 
L 128.635508 153.323291 
L 129.535326 153.442842 
L 130.435145 154.180642 
L 131.334963 154.5837 
L 132.234782 156.090043 
L 133.134601 156.359887 
L 135.834056 154.949185 
L 137.633693 157.166002 
L 138.533512 158.016523 
L 139.433331 157.982365 
L 140.333149 156.472606 
L 141.232968 153.005627 
L 142.132786 153.142256 
L 143.032605 153.087604 
L 143.932424 153.760506 
L 144.832242 151.362654 
L 145.732061 151.73497 
L 148.431516 149.337118 
L 151.130972 148.571991 
L 152.030791 149.446422 
L 152.930609 148.346552 
L 153.830428 146.925603 
L 154.730247 144.725864 
L 155.630065 144.411616 
L 163.728432 144.633639 
L 164.628251 145.248473 
L 166.427888 142.276776 
L 167.327707 139.967733 
L 168.227525 142.269945 
L 169.127344 142.198214 
L 170.027162 142.874531 
L 170.926981 142.795969 
L 171.8268 145.501238 
L 172.726618 144.333054 
L 173.626437 142.263113 
L 175.426074 143.526938 
L 177.225711 143.714804 
L 178.12553 142.70716 
L 179.025348 141.129086 
L 179.925167 140.842164 
L 180.824986 140.121442 
L 181.724804 139.95407 
L 182.624623 142.058168 
L 183.524441 142.713991 
L 184.42426 142.471473 
L 185.324078 140.555241 
L 186.223897 139.779867 
L 187.123716 137.990018 
L 188.923353 138.57411 
L 189.823171 138.457975 
L 190.72299 137.019947 
L 192.522627 133.351438 
L 193.422446 131.971478 
L 194.322264 130.892103 
L 195.222083 130.202122 
L 196.121901 130.004009 
L 197.921539 128.425936 
L 198.821357 128.439599 
L 199.721176 125.659183 
L 200.620994 126.540445 
L 201.520813 126.923009 
L 213.218455 116.836318 
L 215.018092 117.642433 
L 215.91791 116.908048 
L 216.817729 114.568264 
L 217.717547 113.328349 
L 218.617366 113.492305 
L 219.517185 114.315499 
L 220.417003 114.629747 
L 221.316822 117.072004 
L 222.21664 117.273533 
L 223.116459 114.793703 
L 224.016278 114.400893 
L 224.916096 114.745883 
L 227.615552 105.045171 
L 230.315008 102.319407 
L 231.214826 102.138373 
L 233.014463 102.906915 
L 233.914282 103.579817 
L 234.814101 102.510689 
L 237.513556 100.949694 
L 238.413375 102.326239 
L 239.313194 103.429524 
L 240.213012 103.842829 
L 241.112831 102.080305 
L 242.012649 100.700345 
L 245.611924 99.62097 
L 246.511742 100.276793 
L 247.411561 99.064204 
L 248.311379 97.551029 
L 249.211198 96.792734 
L 250.111017 97.106983 
L 251.010835 97.083072 
L 251.910654 97.612513 
L 252.810472 98.008739 
L 253.710291 97.315343 
L 254.610109 101.004346 
L 255.509928 100.136747 
L 256.409747 100.573962 
L 257.309565 100.355355 
L 258.209384 101.076077 
L 259.109202 96.826892 
L 260.009021 99.822499 
L 260.90884 95.983203 
L 261.808658 94.025982 
L 262.708477 90.224259 
L 263.608295 95.330796 
L 264.508114 95.617718 
L 265.407932 90.579497 
L 266.307751 89.978326 
L 268.107388 87.51899 
L 269.007207 86.818763 
L 269.907025 86.64456 
L 270.806844 87.276473 
L 271.706663 88.27387 
L 273.5063 83.812909 
L 274.406118 83.744594 
L 275.305937 82.473937 
L 276.205756 82.900905 
L 277.105574 82.764275 
L 278.005393 85.093812 
L 278.905211 80.472311 
L 279.80503 78.723451 
L 280.704848 77.558682 
L 281.604667 76.697915 
L 282.504486 76.390498 
L 283.404304 75.925957 
L 285.203941 77.739717 
L 286.10376 77.4323 
L 287.003579 78.521922 
L 287.903397 78.053965 
L 288.803216 77.913919 
L 289.703034 78.754192 
L 290.602853 79.034283 
L 292.40249 75.447753 
L 295.101946 74.016556 
L 296.901583 74.658716 
L 300.500857 71.950031 
L 301.400676 72.79372 
L 326.595596 70.566655 
L 327.495415 71.475243 
L 328.395233 71.406928 
L 329.295052 70.747689 
L 330.194871 68.691412 
L 331.094689 67.284125 
L 331.994508 67.458328 
L 332.894326 67.277294 
L 333.794145 67.78624 
L 334.693964 68.728985 
L 335.593782 68.343006 
L 337.393419 68.13123 
L 338.293238 68.411321 
L 339.193056 69.220852 
L 340.092875 69.675146 
L 340.992694 69.418965 
L 341.892512 72.636596 
L 342.792331 65.630905 
L 359.888884 59.851467 
L 361.688521 57.340896 
L 362.58834 56.514286 
L 363.488158 56.493791 
L 364.387977 56.85586 
L 365.287795 57.638065 
L 366.187614 57.600492 
L 367.087433 56.080486 
L 367.987251 54.960122 
L 368.88707 55.728665 
L 369.786888 54.133513 
L 370.686707 54.717605 
L 371.586526 55.096752 
L 372.486344 55.834553 
L 374.285981 53.313734 
L 375.1858 54.444345 
L 377.885256 52.678406 
L 378.785074 52.705732 
L 379.684893 50.823657 
L 380.584711 47.090249 
L 381.48453 44.279092 
L 382.384349 44.115137 
L 383.284167 43.589112 
L 384.183986 44.162957 
L 385.083804 44.31325 
L 385.983623 43.609606 
L 386.883441 44.791454 
L 387.78326 40.771124 
L 388.683079 40.036739 
L 389.582897 40.258762 
L 390.482716 41.064878 
L 391.382534 42.803491 
L 392.282353 43.452482 
L 393.182172 42.356029 
L 394.08199 40.118717 
L 394.981809 40.033323 
L 395.881627 40.825775 
L 396.781446 40.590089 
L 397.681264 41.157103 
L 398.581083 40.695977 
L 399.480902 39.865952 
L 400.38072 45.495097 
L 401.280539 44.829027 
L 402.180357 45.307231 
L 403.080176 46.12701 
L 403.979995 45.676131 
L 405.779632 37.143604 
L 406.67945 36.067645 
L 407.579269 35.278608 
L 408.479088 35.954925 
L 409.378906 36.265758 
L 410.278725 36.887423 
L 411.178543 35.825127 
L 412.078362 34.37002 
L 412.97818 33.1506 
L 413.877999 33.399949 
L 414.777818 33.939636 
L 416.577455 35.302518 
L 417.477273 34.923371 
L 420.176729 32.607496 
L 421.076548 32.682643 
L 421.976366 33.557073 
L 422.876185 33.874737 
L 423.776003 33.232577 
L 424.675822 31.719403 
L 425.575641 31.9141 
L 426.475459 34.223143 
L 427.375278 33.130105 
L 428.275096 34.288042 
L 429.174915 34.892629 
L 430.074734 36.252095 
L 430.974552 34.80382 
L 431.874371 29.038044 
L 432.774189 29.598226 
L 434.573826 31.049917 
L 435.473645 32.122461 
L 436.373464 30.657107 
L 437.273282 29.680204 
L 439.072919 31.104569 
L 439.972738 31.357334 
L 440.872557 30.243802 
L 441.772375 30.537556 
L 442.672194 29.769013 
L 443.572012 24.249172 
L 444.471831 23.617259 
L 445.371649 23.938339 
L 446.271468 24.65223 
L 448.071105 26.773406 
L 448.970924 24.976725 
L 449.870742 24.153531 
L 450.770561 23.617259 
L 454.369835 28.921909 
L 455.269654 25.769178 
L 456.169473 25.434435 
L 457.069291 25.608638 
L 457.96911 28.057726 
L 458.868928 29.495754 
L 459.768747 31.330008 
L 460.668565 32.238596 
L 461.568384 31.811628 
L 462.468203 31.86628 
L 465.167658 31.917516 
L 466.067477 33.475095 
L 466.967296 33.908895 
L 467.867114 35.97542 
L 469.666751 32.21127 
L 471.466388 32.242012 
L 473.266026 31.996078 
L 474.165844 31.446144 
L 475.065663 29.543574 
L 475.965481 26.571877 
L 476.8653 27.029587 
L 477.765119 27.801545 
L 478.664937 28.358311 
L 479.564756 27.722983 
L 480.464574 26.619698 
L 481.364393 24.419959 
L 482.264211 23.876856 
L 483.16403 22.397839 
L 484.063849 21.557566 
L 484.963667 21.646375 
L 485.863486 21.34579 
L 486.763304 19.795042 
L 487.663123 17.26056 
L 488.562942 16.840424 
L 489.46276 15.385317 
L 490.362579 15.255519 
L 491.262397 15.313587 
L 492.162216 14.989091 
L 492.162216 14.989091 
" clip-path="url(#pe4aa85c0e3)" style="fill: none; stroke: #ff7f0e; stroke-width: 1.5; stroke-linecap: square"/>
   </g>
   <g id="patch_3">
    <path d="M 66.053125 178.56 
L 66.053125 7.2 
" style="fill: none; stroke: #000000; stroke-width: 0.8; stroke-linejoin: miter; stroke-linecap: square"/>
   </g>
   <g id="patch_4">
    <path d="M 512.453125 178.56 
L 512.453125 7.2 
" style="fill: none; stroke: #000000; stroke-width: 0.8; stroke-linejoin: miter; stroke-linecap: square"/>
   </g>
   <g id="patch_5">
    <path d="M 66.053125 178.56 
L 512.453125 178.56 
" style="fill: none; stroke: #000000; stroke-width: 0.8; stroke-linejoin: miter; stroke-linecap: square"/>
   </g>
   <g id="patch_6">
    <path d="M 66.053125 7.2 
L 512.453125 7.2 
" style="fill: none; stroke: #000000; stroke-width: 0.8; stroke-linejoin: miter; stroke-linecap: square"/>
   </g>
   <g id="legend_1">
    <g id="patch_7">
     <path d="M 73.053125 44.55625 
L 170.55 44.55625 
Q 172.55 44.55625 172.55 42.55625 
L 172.55 14.2 
Q 172.55 12.2 170.55 12.2 
L 73.053125 12.2 
Q 71.053125 12.2 71.053125 14.2 
L 71.053125 42.55625 
Q 71.053125 44.55625 73.053125 44.55625 
z
" style="fill: #ffffff; opacity: 0.8; stroke: #cccccc; stroke-linejoin: miter"/>
    </g>
    <g id="line2d_29">
     <path d="M 75.053125 20.298438 
L 85.053125 20.298438 
L 95.053125 20.298438 
" style="fill: none; stroke: #1f77b4; stroke-width: 1.5; stroke-linecap: square"/>
    </g>
    <g id="text_23">
     <!-- XCTO header -->
     <g transform="translate(103.053125 23.798438)scale(0.1 -0.1)">
      <defs>
       <path id="DejaVuSans-58" d="M 403 4666 
L 1081 4666 
L 2241 2931 
L 3406 4666 
L 4084 4666 
L 2584 2425 
L 4184 0 
L 3506 0 
L 2194 1984 
L 872 0 
L 191 0 
L 1856 2491 
L 403 4666 
z
" transform="scale(0.015625)"/>
       <path id="DejaVuSans-43" d="M 4122 4306 
L 4122 3641 
Q 3803 3938 3442 4084 
Q 3081 4231 2675 4231 
Q 1875 4231 1450 3742 
Q 1025 3253 1025 2328 
Q 1025 1406 1450 917 
Q 1875 428 2675 428 
Q 3081 428 3442 575 
Q 3803 722 4122 1019 
L 4122 359 
Q 3791 134 3420 21 
Q 3050 -91 2638 -91 
Q 1578 -91 968 557 
Q 359 1206 359 2328 
Q 359 3453 968 4101 
Q 1578 4750 2638 4750 
Q 3056 4750 3426 4639 
Q 3797 4528 4122 4306 
z
" transform="scale(0.015625)"/>
       <path id="DejaVuSans-54" d="M -19 4666 
L 3928 4666 
L 3928 4134 
L 2272 4134 
L 2272 0 
L 1638 0 
L 1638 4134 
L -19 4134 
L -19 4666 
z
" transform="scale(0.015625)"/>
       <path id="DejaVuSans-68" d="M 3513 2113 
L 3513 0 
L 2938 0 
L 2938 2094 
Q 2938 2591 2744 2837 
Q 2550 3084 2163 3084 
Q 1697 3084 1428 2787 
Q 1159 2491 1159 1978 
L 1159 0 
L 581 0 
L 581 4863 
L 1159 4863 
L 1159 2956 
Q 1366 3272 1645 3428 
Q 1925 3584 2291 3584 
Q 2894 3584 3203 3211 
Q 3513 2838 3513 2113 
z
" transform="scale(0.015625)"/>
       <path id="DejaVuSans-64" d="M 2906 2969 
L 2906 4863 
L 3481 4863 
L 3481 0 
L 2906 0 
L 2906 525 
Q 2725 213 2448 61 
Q 2172 -91 1784 -91 
Q 1150 -91 751 415 
Q 353 922 353 1747 
Q 353 2572 751 3078 
Q 1150 3584 1784 3584 
Q 2172 3584 2448 3432 
Q 2725 3281 2906 2969 
z
M 947 1747 
Q 947 1113 1208 752 
Q 1469 391 1925 391 
Q 2381 391 2643 752 
Q 2906 1113 2906 1747 
Q 2906 2381 2643 2742 
Q 2381 3103 1925 3103 
Q 1469 3103 1208 2742 
Q 947 2381 947 1747 
z
" transform="scale(0.015625)"/>
      </defs>
      <use xlink:href="#DejaVuSans-58"/>
      <use xlink:href="#DejaVuSans-43" x="61.255859"/>
      <use xlink:href="#DejaVuSans-54" x="131.080078"/>
      <use xlink:href="#DejaVuSans-4f" x="192.164062"/>
      <use xlink:href="#DejaVuSans-20" x="270.875"/>
      <use xlink:href="#DejaVuSans-68" x="302.662109"/>
      <use xlink:href="#DejaVuSans-65" x="366.041016"/>
      <use xlink:href="#DejaVuSans-61" x="427.564453"/>
      <use xlink:href="#DejaVuSans-64" x="488.84375"/>
      <use xlink:href="#DejaVuSans-65" x="552.320312"/>
      <use xlink:href="#DejaVuSans-72" x="613.84375"/>
     </g>
    </g>
    <g id="line2d_30">
     <path d="M 75.053125 34.976562 
L 85.053125 34.976562 
L 95.053125 34.976562 
" style="fill: none; stroke: #ff7f0e; stroke-width: 1.5; stroke-linecap: square"/>
    </g>
    <g id="text_24">
     <!-- nosniff -->
     <g transform="translate(103.053125 38.476562)scale(0.1 -0.1)">
      <use xlink:href="#DejaVuSans-6e"/>
      <use xlink:href="#DejaVuSans-6f" x="63.378906"/>
      <use xlink:href="#DejaVuSans-73" x="124.560547"/>
      <use xlink:href="#DejaVuSans-6e" x="176.660156"/>
      <use xlink:href="#DejaVuSans-69" x="240.039062"/>
      <use xlink:href="#DejaVuSans-66" x="267.822266"/>
      <use xlink:href="#DejaVuSans-66" x="303.027344"/>
     </g>
    </g>
   </g>
  </g>
 </g>
 <defs>
  <clipPath id="pe4aa85c0e3">
   <rect x="66.053125" y="7.2" width="446.4" height="171.36"/>
  </clipPath>
 </defs>
</svg>
