<?xml version="1.0" encoding="utf-8" standalone="no"?>
<!DOCTYPE svg PUBLIC "-//W3C//DTD SVG 1.1//EN"
  "http://www.w3.org/Graphics/SVG/1.1/DTD/svg11.dtd">
<svg xmlns:xlink="http://www.w3.org/1999/xlink" width="519.653125pt" height="234.086815pt" viewBox="0 0 519.653125 234.086815" xmlns="http://www.w3.org/2000/svg" version="1.1">
 <metadata>
  <rdf:RDF xmlns:dc="http://purl.org/dc/elements/1.1/" xmlns:cc="http://creativecommons.org/ns#" xmlns:rdf="http://www.w3.org/1999/02/22-rdf-syntax-ns#">
   <cc:Work>
    <dc:type rdf:resource="http://purl.org/dc/dcmitype/StillImage"/>
    <dc:date>2022-02-13T18:53:40.484708</dc:date>
    <dc:format>image/svg+xml</dc:format>
    <dc:creator>
     <cc:Agent>
      <dc:title>Matplotlib v3.5.1, https://matplotlib.org/</dc:title>
     </cc:Agent>
    </dc:creator>
   </cc:Work>
  </rdf:RDF>
 </metadata>
 <defs>
  <style type="text/css">*{stroke-linejoin: round; stroke-linecap: butt}</style>
 </defs>
 <g id="figure_1">
  <g id="patch_1">
   <path d="M 0 234.086815 
L 519.653125 234.086815 
L 519.653125 0 
L 0 0 
z
" style="fill: #ffffff"/>
  </g>
  <g id="axes_1">
   <g id="patch_2">
    <path d="M 66.053125 178.56 
L 512.453125 178.56 
L 512.453125 7.2 
L 66.053125 7.2 
z
" style="fill: #ffffff"/>
   </g>
   <g id="matplotlib.axis_1">
    <g id="xtick_1">
     <g id="line2d_1">
      <defs>
       <path id="ma8ba570dd9" d="M 0 0 
L 0 3.5 
" style="stroke: #000000; stroke-width: 0.8"/>
      </defs>
      <g>
       <use xlink:href="#ma8ba570dd9" x="80.945123" y="178.56" style="stroke: #000000; stroke-width: 0.8"/>
      </g>
     </g>
     <g id="text_1">
      <!-- 2020-Nov-01 -->
      <g transform="translate(23.919443 224.463877)rotate(-30)scale(0.1 -0.1)">
       <defs>
        <path id="DejaVuSans-32" d="M 1228 531 
L 3431 531 
L 3431 0 
L 469 0 
L 469 531 
Q 828 903 1448 1529 
Q 2069 2156 2228 2338 
Q 2531 2678 2651 2914 
Q 2772 3150 2772 3378 
Q 2772 3750 2511 3984 
Q 2250 4219 1831 4219 
Q 1534 4219 1204 4116 
Q 875 4013 500 3803 
L 500 4441 
Q 881 4594 1212 4672 
Q 1544 4750 1819 4750 
Q 2544 4750 2975 4387 
Q 3406 4025 3406 3419 
Q 3406 3131 3298 2873 
Q 3191 2616 2906 2266 
Q 2828 2175 2409 1742 
Q 1991 1309 1228 531 
z
" transform="scale(0.015625)"/>
        <path id="DejaVuSans-30" d="M 2034 4250 
Q 1547 4250 1301 3770 
Q 1056 3291 1056 2328 
Q 1056 1369 1301 889 
Q 1547 409 2034 409 
Q 2525 409 2770 889 
Q 3016 1369 3016 2328 
Q 3016 3291 2770 3770 
Q 2525 4250 2034 4250 
z
M 2034 4750 
Q 2819 4750 3233 4129 
Q 3647 3509 3647 2328 
Q 3647 1150 3233 529 
Q 2819 -91 2034 -91 
Q 1250 -91 836 529 
Q 422 1150 422 2328 
Q 422 3509 836 4129 
Q 1250 4750 2034 4750 
z
" transform="scale(0.015625)"/>
        <path id="DejaVuSans-2d" d="M 313 2009 
L 1997 2009 
L 1997 1497 
L 313 1497 
L 313 2009 
z
" transform="scale(0.015625)"/>
        <path id="DejaVuSans-4e" d="M 628 4666 
L 1478 4666 
L 3547 763 
L 3547 4666 
L 4159 4666 
L 4159 0 
L 3309 0 
L 1241 3903 
L 1241 0 
L 628 0 
L 628 4666 
z
" transform="scale(0.015625)"/>
        <path id="DejaVuSans-6f" d="M 1959 3097 
Q 1497 3097 1228 2736 
Q 959 2375 959 1747 
Q 959 1119 1226 758 
Q 1494 397 1959 397 
Q 2419 397 2687 759 
Q 2956 1122 2956 1747 
Q 2956 2369 2687 2733 
Q 2419 3097 1959 3097 
z
M 1959 3584 
Q 2709 3584 3137 3096 
Q 3566 2609 3566 1747 
Q 3566 888 3137 398 
Q 2709 -91 1959 -91 
Q 1206 -91 779 398 
Q 353 888 353 1747 
Q 353 2609 779 3096 
Q 1206 3584 1959 3584 
z
" transform="scale(0.015625)"/>
        <path id="DejaVuSans-76" d="M 191 3500 
L 800 3500 
L 1894 563 
L 2988 3500 
L 3597 3500 
L 2284 0 
L 1503 0 
L 191 3500 
z
" transform="scale(0.015625)"/>
        <path id="DejaVuSans-31" d="M 794 531 
L 1825 531 
L 1825 4091 
L 703 3866 
L 703 4441 
L 1819 4666 
L 2450 4666 
L 2450 531 
L 3481 531 
L 3481 0 
L 794 0 
L 794 531 
z
" transform="scale(0.015625)"/>
       </defs>
       <use xlink:href="#DejaVuSans-32"/>
       <use xlink:href="#DejaVuSans-30" x="63.623047"/>
       <use xlink:href="#DejaVuSans-32" x="127.246094"/>
       <use xlink:href="#DejaVuSans-30" x="190.869141"/>
       <use xlink:href="#DejaVuSans-2d" x="254.492188"/>
       <use xlink:href="#DejaVuSans-4e" x="290.576172"/>
       <use xlink:href="#DejaVuSans-6f" x="365.380859"/>
       <use xlink:href="#DejaVuSans-76" x="426.5625"/>
       <use xlink:href="#DejaVuSans-2d" x="483.117188"/>
       <use xlink:href="#DejaVuSans-30" x="519.201172"/>
       <use xlink:href="#DejaVuSans-31" x="582.824219"/>
      </g>
     </g>
    </g>
    <g id="xtick_2">
     <g id="line2d_2">
      <g>
       <use xlink:href="#ma8ba570dd9" x="107.93968" y="178.56" style="stroke: #000000; stroke-width: 0.8"/>
      </g>
     </g>
     <g id="text_2">
      <!-- 2020-Dec-01 -->
      <g transform="translate(50.831457 224.511534)rotate(-30)scale(0.1 -0.1)">
       <defs>
        <path id="DejaVuSans-44" d="M 1259 4147 
L 1259 519 
L 2022 519 
Q 2988 519 3436 956 
Q 3884 1394 3884 2338 
Q 3884 3275 3436 3711 
Q 2988 4147 2022 4147 
L 1259 4147 
z
M 628 4666 
L 1925 4666 
Q 3281 4666 3915 4102 
Q 4550 3538 4550 2338 
Q 4550 1131 3912 565 
Q 3275 0 1925 0 
L 628 0 
L 628 4666 
z
" transform="scale(0.015625)"/>
        <path id="DejaVuSans-65" d="M 3597 1894 
L 3597 1613 
L 953 1613 
Q 991 1019 1311 708 
Q 1631 397 2203 397 
Q 2534 397 2845 478 
Q 3156 559 3463 722 
L 3463 178 
Q 3153 47 2828 -22 
Q 2503 -91 2169 -91 
Q 1331 -91 842 396 
Q 353 884 353 1716 
Q 353 2575 817 3079 
Q 1281 3584 2069 3584 
Q 2775 3584 3186 3129 
Q 3597 2675 3597 1894 
z
M 3022 2063 
Q 3016 2534 2758 2815 
Q 2500 3097 2075 3097 
Q 1594 3097 1305 2825 
Q 1016 2553 972 2059 
L 3022 2063 
z
" transform="scale(0.015625)"/>
        <path id="DejaVuSans-63" d="M 3122 3366 
L 3122 2828 
Q 2878 2963 2633 3030 
Q 2388 3097 2138 3097 
Q 1578 3097 1268 2742 
Q 959 2388 959 1747 
Q 959 1106 1268 751 
Q 1578 397 2138 397 
Q 2388 397 2633 464 
Q 2878 531 3122 666 
L 3122 134 
Q 2881 22 2623 -34 
Q 2366 -91 2075 -91 
Q 1284 -91 818 406 
Q 353 903 353 1747 
Q 353 2603 823 3093 
Q 1294 3584 2113 3584 
Q 2378 3584 2631 3529 
Q 2884 3475 3122 3366 
z
" transform="scale(0.015625)"/>
       </defs>
       <use xlink:href="#DejaVuSans-32"/>
       <use xlink:href="#DejaVuSans-30" x="63.623047"/>
       <use xlink:href="#DejaVuSans-32" x="127.246094"/>
       <use xlink:href="#DejaVuSans-30" x="190.869141"/>
       <use xlink:href="#DejaVuSans-2d" x="254.492188"/>
       <use xlink:href="#DejaVuSans-44" x="290.576172"/>
       <use xlink:href="#DejaVuSans-65" x="367.578125"/>
       <use xlink:href="#DejaVuSans-63" x="429.101562"/>
       <use xlink:href="#DejaVuSans-2d" x="484.082031"/>
       <use xlink:href="#DejaVuSans-30" x="520.166016"/>
       <use xlink:href="#DejaVuSans-31" x="583.789062"/>
      </g>
     </g>
    </g>
    <g id="xtick_3">
     <g id="line2d_3">
      <g>
       <use xlink:href="#ma8ba570dd9" x="135.834056" y="178.56" style="stroke: #000000; stroke-width: 0.8"/>
      </g>
     </g>
     <g id="text_3">
      <!-- 2021-Jan-01 -->
      <g transform="translate(81.647316 222.824815)rotate(-30)scale(0.1 -0.1)">
       <defs>
        <path id="DejaVuSans-4a" d="M 628 4666 
L 1259 4666 
L 1259 325 
Q 1259 -519 939 -900 
Q 619 -1281 -91 -1281 
L -331 -1281 
L -331 -750 
L -134 -750 
Q 284 -750 456 -515 
Q 628 -281 628 325 
L 628 4666 
z
" transform="scale(0.015625)"/>
        <path id="DejaVuSans-61" d="M 2194 1759 
Q 1497 1759 1228 1600 
Q 959 1441 959 1056 
Q 959 750 1161 570 
Q 1363 391 1709 391 
Q 2188 391 2477 730 
Q 2766 1069 2766 1631 
L 2766 1759 
L 2194 1759 
z
M 3341 1997 
L 3341 0 
L 2766 0 
L 2766 531 
Q 2569 213 2275 61 
Q 1981 -91 1556 -91 
Q 1019 -91 701 211 
Q 384 513 384 1019 
Q 384 1609 779 1909 
Q 1175 2209 1959 2209 
L 2766 2209 
L 2766 2266 
Q 2766 2663 2505 2880 
Q 2244 3097 1772 3097 
Q 1472 3097 1187 3025 
Q 903 2953 641 2809 
L 641 3341 
Q 956 3463 1253 3523 
Q 1550 3584 1831 3584 
Q 2591 3584 2966 3190 
Q 3341 2797 3341 1997 
z
" transform="scale(0.015625)"/>
        <path id="DejaVuSans-6e" d="M 3513 2113 
L 3513 0 
L 2938 0 
L 2938 2094 
Q 2938 2591 2744 2837 
Q 2550 3084 2163 3084 
Q 1697 3084 1428 2787 
Q 1159 2491 1159 1978 
L 1159 0 
L 581 0 
L 581 3500 
L 1159 3500 
L 1159 2956 
Q 1366 3272 1645 3428 
Q 1925 3584 2291 3584 
Q 2894 3584 3203 3211 
Q 3513 2838 3513 2113 
z
" transform="scale(0.015625)"/>
       </defs>
       <use xlink:href="#DejaVuSans-32"/>
       <use xlink:href="#DejaVuSans-30" x="63.623047"/>
       <use xlink:href="#DejaVuSans-32" x="127.246094"/>
       <use xlink:href="#DejaVuSans-31" x="190.869141"/>
       <use xlink:href="#DejaVuSans-2d" x="254.492188"/>
       <use xlink:href="#DejaVuSans-4a" x="296.201172"/>
       <use xlink:href="#DejaVuSans-61" x="325.693359"/>
       <use xlink:href="#DejaVuSans-6e" x="386.972656"/>
       <use xlink:href="#DejaVuSans-2d" x="450.351562"/>
       <use xlink:href="#DejaVuSans-30" x="486.435547"/>
       <use xlink:href="#DejaVuSans-31" x="550.058594"/>
      </g>
     </g>
    </g>
    <g id="xtick_4">
     <g id="line2d_4">
      <g>
       <use xlink:href="#ma8ba570dd9" x="163.728432" y="178.56" style="stroke: #000000; stroke-width: 0.8"/>
      </g>
     </g>
     <g id="text_4">
      <!-- 2021-Feb-01 -->
      <g transform="translate(108.047798 223.687315)rotate(-30)scale(0.1 -0.1)">
       <defs>
        <path id="DejaVuSans-46" d="M 628 4666 
L 3309 4666 
L 3309 4134 
L 1259 4134 
L 1259 2759 
L 3109 2759 
L 3109 2228 
L 1259 2228 
L 1259 0 
L 628 0 
L 628 4666 
z
" transform="scale(0.015625)"/>
        <path id="DejaVuSans-62" d="M 3116 1747 
Q 3116 2381 2855 2742 
Q 2594 3103 2138 3103 
Q 1681 3103 1420 2742 
Q 1159 2381 1159 1747 
Q 1159 1113 1420 752 
Q 1681 391 2138 391 
Q 2594 391 2855 752 
Q 3116 1113 3116 1747 
z
M 1159 2969 
Q 1341 3281 1617 3432 
Q 1894 3584 2278 3584 
Q 2916 3584 3314 3078 
Q 3713 2572 3713 1747 
Q 3713 922 3314 415 
Q 2916 -91 2278 -91 
Q 1894 -91 1617 61 
Q 1341 213 1159 525 
L 1159 0 
L 581 0 
L 581 4863 
L 1159 4863 
L 1159 2969 
z
" transform="scale(0.015625)"/>
       </defs>
       <use xlink:href="#DejaVuSans-32"/>
       <use xlink:href="#DejaVuSans-30" x="63.623047"/>
       <use xlink:href="#DejaVuSans-32" x="127.246094"/>
       <use xlink:href="#DejaVuSans-31" x="190.869141"/>
       <use xlink:href="#DejaVuSans-2d" x="254.492188"/>
       <use xlink:href="#DejaVuSans-46" x="290.576172"/>
       <use xlink:href="#DejaVuSans-65" x="342.595703"/>
       <use xlink:href="#DejaVuSans-62" x="404.119141"/>
       <use xlink:href="#DejaVuSans-2d" x="467.595703"/>
       <use xlink:href="#DejaVuSans-30" x="503.679688"/>
       <use xlink:href="#DejaVuSans-31" x="567.302734"/>
      </g>
     </g>
    </g>
    <g id="xtick_5">
     <g id="line2d_5">
      <g>
       <use xlink:href="#ma8ba570dd9" x="188.923353" y="178.56" style="stroke: #000000; stroke-width: 0.8"/>
      </g>
     </g>
     <g id="text_5">
      <!-- 2021-Mar-01 -->
      <g transform="translate(132.786702 223.950596)rotate(-30)scale(0.1 -0.1)">
       <defs>
        <path id="DejaVuSans-4d" d="M 628 4666 
L 1569 4666 
L 2759 1491 
L 3956 4666 
L 4897 4666 
L 4897 0 
L 4281 0 
L 4281 4097 
L 3078 897 
L 2444 897 
L 1241 4097 
L 1241 0 
L 628 0 
L 628 4666 
z
" transform="scale(0.015625)"/>
        <path id="DejaVuSans-72" d="M 2631 2963 
Q 2534 3019 2420 3045 
Q 2306 3072 2169 3072 
Q 1681 3072 1420 2755 
Q 1159 2438 1159 1844 
L 1159 0 
L 581 0 
L 581 3500 
L 1159 3500 
L 1159 2956 
Q 1341 3275 1631 3429 
Q 1922 3584 2338 3584 
Q 2397 3584 2469 3576 
Q 2541 3569 2628 3553 
L 2631 2963 
z
" transform="scale(0.015625)"/>
       </defs>
       <use xlink:href="#DejaVuSans-32"/>
       <use xlink:href="#DejaVuSans-30" x="63.623047"/>
       <use xlink:href="#DejaVuSans-32" x="127.246094"/>
       <use xlink:href="#DejaVuSans-31" x="190.869141"/>
       <use xlink:href="#DejaVuSans-2d" x="254.492188"/>
       <use xlink:href="#DejaVuSans-4d" x="290.576172"/>
       <use xlink:href="#DejaVuSans-61" x="376.855469"/>
       <use xlink:href="#DejaVuSans-72" x="438.134766"/>
       <use xlink:href="#DejaVuSans-2d" x="472.873047"/>
       <use xlink:href="#DejaVuSans-30" x="508.957031"/>
       <use xlink:href="#DejaVuSans-31" x="572.580078"/>
      </g>
     </g>
    </g>
    <g id="xtick_6">
     <g id="line2d_6">
      <g>
       <use xlink:href="#ma8ba570dd9" x="216.817729" y="178.56" style="stroke: #000000; stroke-width: 0.8"/>
      </g>
     </g>
     <g id="text_6">
      <!-- 2021-Apr-01 -->
      <g transform="translate(162.233158 223.054502)rotate(-30)scale(0.1 -0.1)">
       <defs>
        <path id="DejaVuSans-41" d="M 2188 4044 
L 1331 1722 
L 3047 1722 
L 2188 4044 
z
M 1831 4666 
L 2547 4666 
L 4325 0 
L 3669 0 
L 3244 1197 
L 1141 1197 
L 716 0 
L 50 0 
L 1831 4666 
z
" transform="scale(0.015625)"/>
        <path id="DejaVuSans-70" d="M 1159 525 
L 1159 -1331 
L 581 -1331 
L 581 3500 
L 1159 3500 
L 1159 2969 
Q 1341 3281 1617 3432 
Q 1894 3584 2278 3584 
Q 2916 3584 3314 3078 
Q 3713 2572 3713 1747 
Q 3713 922 3314 415 
Q 2916 -91 2278 -91 
Q 1894 -91 1617 61 
Q 1341 213 1159 525 
z
M 3116 1747 
Q 3116 2381 2855 2742 
Q 2594 3103 2138 3103 
Q 1681 3103 1420 2742 
Q 1159 2381 1159 1747 
Q 1159 1113 1420 752 
Q 1681 391 2138 391 
Q 2594 391 2855 752 
Q 3116 1113 3116 1747 
z
" transform="scale(0.015625)"/>
       </defs>
       <use xlink:href="#DejaVuSans-32"/>
       <use xlink:href="#DejaVuSans-30" x="63.623047"/>
       <use xlink:href="#DejaVuSans-32" x="127.246094"/>
       <use xlink:href="#DejaVuSans-31" x="190.869141"/>
       <use xlink:href="#DejaVuSans-2d" x="254.492188"/>
       <use xlink:href="#DejaVuSans-41" x="288.326172"/>
       <use xlink:href="#DejaVuSans-70" x="356.734375"/>
       <use xlink:href="#DejaVuSans-72" x="420.210938"/>
       <use xlink:href="#DejaVuSans-2d" x="454.949219"/>
       <use xlink:href="#DejaVuSans-30" x="491.033203"/>
       <use xlink:href="#DejaVuSans-31" x="554.65625"/>
      </g>
     </g>
    </g>
    <g id="xtick_7">
     <g id="line2d_7">
      <g>
       <use xlink:href="#ma8ba570dd9" x="243.812286" y="178.56" style="stroke: #000000; stroke-width: 0.8"/>
      </g>
     </g>
     <g id="text_7">
      <!-- 2021-May-01 -->
      <g transform="translate(185.709488 225.085752)rotate(-30)scale(0.1 -0.1)">
       <defs>
        <path id="DejaVuSans-79" d="M 2059 -325 
Q 1816 -950 1584 -1140 
Q 1353 -1331 966 -1331 
L 506 -1331 
L 506 -850 
L 844 -850 
Q 1081 -850 1212 -737 
Q 1344 -625 1503 -206 
L 1606 56 
L 191 3500 
L 800 3500 
L 1894 763 
L 2988 3500 
L 3597 3500 
L 2059 -325 
z
" transform="scale(0.015625)"/>
       </defs>
       <use xlink:href="#DejaVuSans-32"/>
       <use xlink:href="#DejaVuSans-30" x="63.623047"/>
       <use xlink:href="#DejaVuSans-32" x="127.246094"/>
       <use xlink:href="#DejaVuSans-31" x="190.869141"/>
       <use xlink:href="#DejaVuSans-2d" x="254.492188"/>
       <use xlink:href="#DejaVuSans-4d" x="290.576172"/>
       <use xlink:href="#DejaVuSans-61" x="376.855469"/>
       <use xlink:href="#DejaVuSans-79" x="438.134766"/>
       <use xlink:href="#DejaVuSans-2d" x="495.564453"/>
       <use xlink:href="#DejaVuSans-30" x="531.648438"/>
       <use xlink:href="#DejaVuSans-31" x="595.271484"/>
      </g>
     </g>
    </g>
    <g id="xtick_8">
     <g id="line2d_8">
      <g>
       <use xlink:href="#ma8ba570dd9" x="271.706663" y="178.56" style="stroke: #000000; stroke-width: 0.8"/>
      </g>
     </g>
     <g id="text_8">
      <!-- 2021-Jun-01 -->
      <g transform="translate(217.338598 222.929502)rotate(-30)scale(0.1 -0.1)">
       <defs>
        <path id="DejaVuSans-75" d="M 544 1381 
L 544 3500 
L 1119 3500 
L 1119 1403 
Q 1119 906 1312 657 
Q 1506 409 1894 409 
Q 2359 409 2629 706 
Q 2900 1003 2900 1516 
L 2900 3500 
L 3475 3500 
L 3475 0 
L 2900 0 
L 2900 538 
Q 2691 219 2414 64 
Q 2138 -91 1772 -91 
Q 1169 -91 856 284 
Q 544 659 544 1381 
z
M 1991 3584 
L 1991 3584 
z
" transform="scale(0.015625)"/>
       </defs>
       <use xlink:href="#DejaVuSans-32"/>
       <use xlink:href="#DejaVuSans-30" x="63.623047"/>
       <use xlink:href="#DejaVuSans-32" x="127.246094"/>
       <use xlink:href="#DejaVuSans-31" x="190.869141"/>
       <use xlink:href="#DejaVuSans-2d" x="254.492188"/>
       <use xlink:href="#DejaVuSans-4a" x="296.201172"/>
       <use xlink:href="#DejaVuSans-75" x="325.693359"/>
       <use xlink:href="#DejaVuSans-6e" x="389.072266"/>
       <use xlink:href="#DejaVuSans-2d" x="452.451172"/>
       <use xlink:href="#DejaVuSans-30" x="488.535156"/>
       <use xlink:href="#DejaVuSans-31" x="552.158203"/>
      </g>
     </g>
    </g>
    <g id="xtick_9">
     <g id="line2d_9">
      <g>
       <use xlink:href="#ma8ba570dd9" x="298.70122" y="178.56" style="stroke: #000000; stroke-width: 0.8"/>
      </g>
     </g>
     <g id="text_9">
      <!-- 2021-Jul-01 -->
      <g transform="translate(247.415665 221.149815)rotate(-30)scale(0.1 -0.1)">
       <defs>
        <path id="DejaVuSans-6c" d="M 603 4863 
L 1178 4863 
L 1178 0 
L 603 0 
L 603 4863 
z
" transform="scale(0.015625)"/>
       </defs>
       <use xlink:href="#DejaVuSans-32"/>
       <use xlink:href="#DejaVuSans-30" x="63.623047"/>
       <use xlink:href="#DejaVuSans-32" x="127.246094"/>
       <use xlink:href="#DejaVuSans-31" x="190.869141"/>
       <use xlink:href="#DejaVuSans-2d" x="254.492188"/>
       <use xlink:href="#DejaVuSans-4a" x="296.201172"/>
       <use xlink:href="#DejaVuSans-75" x="325.693359"/>
       <use xlink:href="#DejaVuSans-6c" x="389.072266"/>
       <use xlink:href="#DejaVuSans-2d" x="416.855469"/>
       <use xlink:href="#DejaVuSans-30" x="452.939453"/>
       <use xlink:href="#DejaVuSans-31" x="516.5625"/>
      </g>
     </g>
    </g>
    <g id="xtick_10">
     <g id="line2d_10">
      <g>
       <use xlink:href="#ma8ba570dd9" x="326.595596" y="178.56" style="stroke: #000000; stroke-width: 0.8"/>
      </g>
     </g>
     <g id="text_10">
      <!-- 2021-Aug-01 -->
      <g transform="translate(269.530675 224.486534)rotate(-30)scale(0.1 -0.1)">
       <defs>
        <path id="DejaVuSans-67" d="M 2906 1791 
Q 2906 2416 2648 2759 
Q 2391 3103 1925 3103 
Q 1463 3103 1205 2759 
Q 947 2416 947 1791 
Q 947 1169 1205 825 
Q 1463 481 1925 481 
Q 2391 481 2648 825 
Q 2906 1169 2906 1791 
z
M 3481 434 
Q 3481 -459 3084 -895 
Q 2688 -1331 1869 -1331 
Q 1566 -1331 1297 -1286 
Q 1028 -1241 775 -1147 
L 775 -588 
Q 1028 -725 1275 -790 
Q 1522 -856 1778 -856 
Q 2344 -856 2625 -561 
Q 2906 -266 2906 331 
L 2906 616 
Q 2728 306 2450 153 
Q 2172 0 1784 0 
Q 1141 0 747 490 
Q 353 981 353 1791 
Q 353 2603 747 3093 
Q 1141 3584 1784 3584 
Q 2172 3584 2450 3431 
Q 2728 3278 2906 2969 
L 2906 3500 
L 3481 3500 
L 3481 434 
z
" transform="scale(0.015625)"/>
       </defs>
       <use xlink:href="#DejaVuSans-32"/>
       <use xlink:href="#DejaVuSans-30" x="63.623047"/>
       <use xlink:href="#DejaVuSans-32" x="127.246094"/>
       <use xlink:href="#DejaVuSans-31" x="190.869141"/>
       <use xlink:href="#DejaVuSans-2d" x="254.492188"/>
       <use xlink:href="#DejaVuSans-41" x="288.326172"/>
       <use xlink:href="#DejaVuSans-75" x="356.734375"/>
       <use xlink:href="#DejaVuSans-67" x="420.113281"/>
       <use xlink:href="#DejaVuSans-2d" x="483.589844"/>
       <use xlink:href="#DejaVuSans-30" x="519.673828"/>
       <use xlink:href="#DejaVuSans-31" x="583.296875"/>
      </g>
     </g>
    </g>
    <g id="xtick_11">
     <g id="line2d_11">
      <g>
       <use xlink:href="#ma8ba570dd9" x="354.489972" y="178.56" style="stroke: #000000; stroke-width: 0.8"/>
      </g>
     </g>
     <g id="text_11">
      <!-- 2021-Sep-01 -->
      <g transform="translate(297.816115 224.260752)rotate(-30)scale(0.1 -0.1)">
       <defs>
        <path id="DejaVuSans-53" d="M 3425 4513 
L 3425 3897 
Q 3066 4069 2747 4153 
Q 2428 4238 2131 4238 
Q 1616 4238 1336 4038 
Q 1056 3838 1056 3469 
Q 1056 3159 1242 3001 
Q 1428 2844 1947 2747 
L 2328 2669 
Q 3034 2534 3370 2195 
Q 3706 1856 3706 1288 
Q 3706 609 3251 259 
Q 2797 -91 1919 -91 
Q 1588 -91 1214 -16 
Q 841 59 441 206 
L 441 856 
Q 825 641 1194 531 
Q 1563 422 1919 422 
Q 2459 422 2753 634 
Q 3047 847 3047 1241 
Q 3047 1584 2836 1778 
Q 2625 1972 2144 2069 
L 1759 2144 
Q 1053 2284 737 2584 
Q 422 2884 422 3419 
Q 422 4038 858 4394 
Q 1294 4750 2059 4750 
Q 2388 4750 2728 4690 
Q 3069 4631 3425 4513 
z
" transform="scale(0.015625)"/>
       </defs>
       <use xlink:href="#DejaVuSans-32"/>
       <use xlink:href="#DejaVuSans-30" x="63.623047"/>
       <use xlink:href="#DejaVuSans-32" x="127.246094"/>
       <use xlink:href="#DejaVuSans-31" x="190.869141"/>
       <use xlink:href="#DejaVuSans-2d" x="254.492188"/>
       <use xlink:href="#DejaVuSans-53" x="290.576172"/>
       <use xlink:href="#DejaVuSans-65" x="354.052734"/>
       <use xlink:href="#DejaVuSans-70" x="415.576172"/>
       <use xlink:href="#DejaVuSans-2d" x="479.052734"/>
       <use xlink:href="#DejaVuSans-30" x="515.136719"/>
       <use xlink:href="#DejaVuSans-31" x="578.759766"/>
      </g>
     </g>
    </g>
    <g id="xtick_12">
     <g id="line2d_12">
      <g>
       <use xlink:href="#ma8ba570dd9" x="381.48453" y="178.56" style="stroke: #000000; stroke-width: 0.8"/>
      </g>
     </g>
     <g id="text_12">
      <!-- 2021-Oct-01 -->
      <g transform="translate(325.922974 223.618565)rotate(-30)scale(0.1 -0.1)">
       <defs>
        <path id="DejaVuSans-4f" d="M 2522 4238 
Q 1834 4238 1429 3725 
Q 1025 3213 1025 2328 
Q 1025 1447 1429 934 
Q 1834 422 2522 422 
Q 3209 422 3611 934 
Q 4013 1447 4013 2328 
Q 4013 3213 3611 3725 
Q 3209 4238 2522 4238 
z
M 2522 4750 
Q 3503 4750 4090 4092 
Q 4678 3434 4678 2328 
Q 4678 1225 4090 567 
Q 3503 -91 2522 -91 
Q 1538 -91 948 565 
Q 359 1222 359 2328 
Q 359 3434 948 4092 
Q 1538 4750 2522 4750 
z
" transform="scale(0.015625)"/>
        <path id="DejaVuSans-74" d="M 1172 4494 
L 1172 3500 
L 2356 3500 
L 2356 3053 
L 1172 3053 
L 1172 1153 
Q 1172 725 1289 603 
Q 1406 481 1766 481 
L 2356 481 
L 2356 0 
L 1766 0 
Q 1100 0 847 248 
Q 594 497 594 1153 
L 594 3053 
L 172 3053 
L 172 3500 
L 594 3500 
L 594 4494 
L 1172 4494 
z
" transform="scale(0.015625)"/>
       </defs>
       <use xlink:href="#DejaVuSans-32"/>
       <use xlink:href="#DejaVuSans-30" x="63.623047"/>
       <use xlink:href="#DejaVuSans-32" x="127.246094"/>
       <use xlink:href="#DejaVuSans-31" x="190.869141"/>
       <use xlink:href="#DejaVuSans-2d" x="254.492188"/>
       <use xlink:href="#DejaVuSans-4f" x="293.326172"/>
       <use xlink:href="#DejaVuSans-63" x="372.037109"/>
       <use xlink:href="#DejaVuSans-74" x="427.017578"/>
       <use xlink:href="#DejaVuSans-2d" x="466.226562"/>
       <use xlink:href="#DejaVuSans-30" x="502.310547"/>
       <use xlink:href="#DejaVuSans-31" x="565.933594"/>
      </g>
     </g>
    </g>
    <g id="xtick_13">
     <g id="line2d_13">
      <g>
       <use xlink:href="#ma8ba570dd9" x="409.378906" y="178.56" style="stroke: #000000; stroke-width: 0.8"/>
      </g>
     </g>
     <g id="text_13">
      <!-- 2021-Nov-01 -->
      <g transform="translate(352.353226 224.463877)rotate(-30)scale(0.1 -0.1)">
       <use xlink:href="#DejaVuSans-32"/>
       <use xlink:href="#DejaVuSans-30" x="63.623047"/>
       <use xlink:href="#DejaVuSans-32" x="127.246094"/>
       <use xlink:href="#DejaVuSans-31" x="190.869141"/>
       <use xlink:href="#DejaVuSans-2d" x="254.492188"/>
       <use xlink:href="#DejaVuSans-4e" x="290.576172"/>
       <use xlink:href="#DejaVuSans-6f" x="365.380859"/>
       <use xlink:href="#DejaVuSans-76" x="426.5625"/>
       <use xlink:href="#DejaVuSans-2d" x="483.117188"/>
       <use xlink:href="#DejaVuSans-30" x="519.201172"/>
       <use xlink:href="#DejaVuSans-31" x="582.824219"/>
      </g>
     </g>
    </g>
    <g id="xtick_14">
     <g id="line2d_14">
      <g>
       <use xlink:href="#ma8ba570dd9" x="436.373464" y="178.56" style="stroke: #000000; stroke-width: 0.8"/>
      </g>
     </g>
     <g id="text_14">
      <!-- 2021-Dec-01 -->
      <g transform="translate(379.265241 224.511534)rotate(-30)scale(0.1 -0.1)">
       <use xlink:href="#DejaVuSans-32"/>
       <use xlink:href="#DejaVuSans-30" x="63.623047"/>
       <use xlink:href="#DejaVuSans-32" x="127.246094"/>
       <use xlink:href="#DejaVuSans-31" x="190.869141"/>
       <use xlink:href="#DejaVuSans-2d" x="254.492188"/>
       <use xlink:href="#DejaVuSans-44" x="290.576172"/>
       <use xlink:href="#DejaVuSans-65" x="367.578125"/>
       <use xlink:href="#DejaVuSans-63" x="429.101562"/>
       <use xlink:href="#DejaVuSans-2d" x="484.082031"/>
       <use xlink:href="#DejaVuSans-30" x="520.166016"/>
       <use xlink:href="#DejaVuSans-31" x="583.789062"/>
      </g>
     </g>
    </g>
    <g id="xtick_15">
     <g id="line2d_15">
      <g>
       <use xlink:href="#ma8ba570dd9" x="464.26784" y="178.56" style="stroke: #000000; stroke-width: 0.8"/>
      </g>
     </g>
     <g id="text_15">
      <!-- 2022-Jan-01 -->
      <g transform="translate(410.0811 222.824815)rotate(-30)scale(0.1 -0.1)">
       <use xlink:href="#DejaVuSans-32"/>
       <use xlink:href="#DejaVuSans-30" x="63.623047"/>
       <use xlink:href="#DejaVuSans-32" x="127.246094"/>
       <use xlink:href="#DejaVuSans-32" x="190.869141"/>
       <use xlink:href="#DejaVuSans-2d" x="254.492188"/>
       <use xlink:href="#DejaVuSans-4a" x="296.201172"/>
       <use xlink:href="#DejaVuSans-61" x="325.693359"/>
       <use xlink:href="#DejaVuSans-6e" x="386.972656"/>
       <use xlink:href="#DejaVuSans-2d" x="450.351562"/>
       <use xlink:href="#DejaVuSans-30" x="486.435547"/>
       <use xlink:href="#DejaVuSans-31" x="550.058594"/>
      </g>
     </g>
    </g>
    <g id="xtick_16">
     <g id="line2d_16">
      <g>
       <use xlink:href="#ma8ba570dd9" x="492.162216" y="178.56" style="stroke: #000000; stroke-width: 0.8"/>
      </g>
     </g>
     <g id="text_16">
      <!-- 2022-Feb-01 -->
      <g transform="translate(436.481582 223.687315)rotate(-30)scale(0.1 -0.1)">
       <use xlink:href="#DejaVuSans-32"/>
       <use xlink:href="#DejaVuSans-30" x="63.623047"/>
       <use xlink:href="#DejaVuSans-32" x="127.246094"/>
       <use xlink:href="#DejaVuSans-32" x="190.869141"/>
       <use xlink:href="#DejaVuSans-2d" x="254.492188"/>
       <use xlink:href="#DejaVuSans-46" x="290.576172"/>
       <use xlink:href="#DejaVuSans-65" x="342.595703"/>
       <use xlink:href="#DejaVuSans-62" x="404.119141"/>
       <use xlink:href="#DejaVuSans-2d" x="467.595703"/>
       <use xlink:href="#DejaVuSans-30" x="503.679688"/>
       <use xlink:href="#DejaVuSans-31" x="567.302734"/>
      </g>
     </g>
    </g>
   </g>
   <g id="matplotlib.axis_2">
    <g id="ytick_1">
     <g id="line2d_17">
      <path d="M 66.053125 172.772613 
L 512.453125 172.772613 
" clip-path="url(#p86c23888df)" style="fill: none; stroke: #b0b0b0; stroke-width: 0.8; stroke-linecap: square"/>
     </g>
     <g id="line2d_18">
      <defs>
       <path id="ma3ce3349b3" d="M 0 0 
L -3.5 0 
" style="stroke: #000000; stroke-width: 0.8"/>
      </defs>
      <g>
       <use xlink:href="#ma3ce3349b3" x="66.053125" y="172.772613" style="stroke: #000000; stroke-width: 0.8"/>
      </g>
     </g>
     <g id="text_17">
      <!-- 0 -->
      <g transform="translate(52.690625 176.571832)scale(0.1 -0.1)">
       <use xlink:href="#DejaVuSans-30"/>
      </g>
     </g>
    </g>
    <g id="ytick_2">
     <g id="line2d_19">
      <path d="M 66.053125 134.775194 
L 512.453125 134.775194 
" clip-path="url(#p86c23888df)" style="fill: none; stroke: #b0b0b0; stroke-width: 0.8; stroke-linecap: square"/>
     </g>
     <g id="line2d_20">
      <g>
       <use xlink:href="#ma3ce3349b3" x="66.053125" y="134.775194" style="stroke: #000000; stroke-width: 0.8"/>
      </g>
     </g>
     <g id="text_18">
      <!-- 50000 -->
      <g transform="translate(27.240625 138.574413)scale(0.1 -0.1)">
       <defs>
        <path id="DejaVuSans-35" d="M 691 4666 
L 3169 4666 
L 3169 4134 
L 1269 4134 
L 1269 2991 
Q 1406 3038 1543 3061 
Q 1681 3084 1819 3084 
Q 2600 3084 3056 2656 
Q 3513 2228 3513 1497 
Q 3513 744 3044 326 
Q 2575 -91 1722 -91 
Q 1428 -91 1123 -41 
Q 819 9 494 109 
L 494 744 
Q 775 591 1075 516 
Q 1375 441 1709 441 
Q 2250 441 2565 725 
Q 2881 1009 2881 1497 
Q 2881 1984 2565 2268 
Q 2250 2553 1709 2553 
Q 1456 2553 1204 2497 
Q 953 2441 691 2322 
L 691 4666 
z
" transform="scale(0.015625)"/>
       </defs>
       <use xlink:href="#DejaVuSans-35"/>
       <use xlink:href="#DejaVuSans-30" x="63.623047"/>
       <use xlink:href="#DejaVuSans-30" x="127.246094"/>
       <use xlink:href="#DejaVuSans-30" x="190.869141"/>
       <use xlink:href="#DejaVuSans-30" x="254.492188"/>
      </g>
     </g>
    </g>
    <g id="ytick_3">
     <g id="line2d_21">
      <path d="M 66.053125 96.777775 
L 512.453125 96.777775 
" clip-path="url(#p86c23888df)" style="fill: none; stroke: #b0b0b0; stroke-width: 0.8; stroke-linecap: square"/>
     </g>
     <g id="line2d_22">
      <g>
       <use xlink:href="#ma3ce3349b3" x="66.053125" y="96.777775" style="stroke: #000000; stroke-width: 0.8"/>
      </g>
     </g>
     <g id="text_19">
      <!-- 100000 -->
      <g transform="translate(20.878125 100.576994)scale(0.1 -0.1)">
       <use xlink:href="#DejaVuSans-31"/>
       <use xlink:href="#DejaVuSans-30" x="63.623047"/>
       <use xlink:href="#DejaVuSans-30" x="127.246094"/>
       <use xlink:href="#DejaVuSans-30" x="190.869141"/>
       <use xlink:href="#DejaVuSans-30" x="254.492188"/>
       <use xlink:href="#DejaVuSans-30" x="318.115234"/>
      </g>
     </g>
    </g>
    <g id="ytick_4">
     <g id="line2d_23">
      <path d="M 66.053125 58.780356 
L 512.453125 58.780356 
" clip-path="url(#p86c23888df)" style="fill: none; stroke: #b0b0b0; stroke-width: 0.8; stroke-linecap: square"/>
     </g>
     <g id="line2d_24">
      <g>
       <use xlink:href="#ma3ce3349b3" x="66.053125" y="58.780356" style="stroke: #000000; stroke-width: 0.8"/>
      </g>
     </g>
     <g id="text_20">
      <!-- 150000 -->
      <g transform="translate(20.878125 62.579575)scale(0.1 -0.1)">
       <use xlink:href="#DejaVuSans-31"/>
       <use xlink:href="#DejaVuSans-35" x="63.623047"/>
       <use xlink:href="#DejaVuSans-30" x="127.246094"/>
       <use xlink:href="#DejaVuSans-30" x="190.869141"/>
       <use xlink:href="#DejaVuSans-30" x="254.492188"/>
       <use xlink:href="#DejaVuSans-30" x="318.115234"/>
      </g>
     </g>
    </g>
    <g id="ytick_5">
     <g id="line2d_25">
      <path d="M 66.053125 20.782937 
L 512.453125 20.782937 
" clip-path="url(#p86c23888df)" style="fill: none; stroke: #b0b0b0; stroke-width: 0.8; stroke-linecap: square"/>
     </g>
     <g id="line2d_26">
      <g>
       <use xlink:href="#ma3ce3349b3" x="66.053125" y="20.782937" style="stroke: #000000; stroke-width: 0.8"/>
      </g>
     </g>
     <g id="text_21">
      <!-- 200000 -->
      <g transform="translate(20.878125 24.582156)scale(0.1 -0.1)">
       <use xlink:href="#DejaVuSans-32"/>
       <use xlink:href="#DejaVuSans-30" x="63.623047"/>
       <use xlink:href="#DejaVuSans-30" x="127.246094"/>
       <use xlink:href="#DejaVuSans-30" x="190.869141"/>
       <use xlink:href="#DejaVuSans-30" x="254.492188"/>
       <use xlink:href="#DejaVuSans-30" x="318.115234"/>
      </g>
     </g>
    </g>
    <g id="text_22">
     <!-- Number of Domains -->
     <g transform="translate(14.798438 142.969844)rotate(-90)scale(0.1 -0.1)">
      <defs>
       <path id="DejaVuSans-6d" d="M 3328 2828 
Q 3544 3216 3844 3400 
Q 4144 3584 4550 3584 
Q 5097 3584 5394 3201 
Q 5691 2819 5691 2113 
L 5691 0 
L 5113 0 
L 5113 2094 
Q 5113 2597 4934 2840 
Q 4756 3084 4391 3084 
Q 3944 3084 3684 2787 
Q 3425 2491 3425 1978 
L 3425 0 
L 2847 0 
L 2847 2094 
Q 2847 2600 2669 2842 
Q 2491 3084 2119 3084 
Q 1678 3084 1418 2786 
Q 1159 2488 1159 1978 
L 1159 0 
L 581 0 
L 581 3500 
L 1159 3500 
L 1159 2956 
Q 1356 3278 1631 3431 
Q 1906 3584 2284 3584 
Q 2666 3584 2933 3390 
Q 3200 3197 3328 2828 
z
" transform="scale(0.015625)"/>
       <path id="DejaVuSans-20" transform="scale(0.015625)"/>
       <path id="DejaVuSans-66" d="M 2375 4863 
L 2375 4384 
L 1825 4384 
Q 1516 4384 1395 4259 
Q 1275 4134 1275 3809 
L 1275 3500 
L 2222 3500 
L 2222 3053 
L 1275 3053 
L 1275 0 
L 697 0 
L 697 3053 
L 147 3053 
L 147 3500 
L 697 3500 
L 697 3744 
Q 697 4328 969 4595 
Q 1241 4863 1831 4863 
L 2375 4863 
z
" transform="scale(0.015625)"/>
       <path id="DejaVuSans-69" d="M 603 3500 
L 1178 3500 
L 1178 0 
L 603 0 
L 603 3500 
z
M 603 4863 
L 1178 4863 
L 1178 4134 
L 603 4134 
L 603 4863 
z
" transform="scale(0.015625)"/>
       <path id="DejaVuSans-73" d="M 2834 3397 
L 2834 2853 
Q 2591 2978 2328 3040 
Q 2066 3103 1784 3103 
Q 1356 3103 1142 2972 
Q 928 2841 928 2578 
Q 928 2378 1081 2264 
Q 1234 2150 1697 2047 
L 1894 2003 
Q 2506 1872 2764 1633 
Q 3022 1394 3022 966 
Q 3022 478 2636 193 
Q 2250 -91 1575 -91 
Q 1294 -91 989 -36 
Q 684 19 347 128 
L 347 722 
Q 666 556 975 473 
Q 1284 391 1588 391 
Q 1994 391 2212 530 
Q 2431 669 2431 922 
Q 2431 1156 2273 1281 
Q 2116 1406 1581 1522 
L 1381 1569 
Q 847 1681 609 1914 
Q 372 2147 372 2553 
Q 372 3047 722 3315 
Q 1072 3584 1716 3584 
Q 2034 3584 2315 3537 
Q 2597 3491 2834 3397 
z
" transform="scale(0.015625)"/>
      </defs>
      <use xlink:href="#DejaVuSans-4e"/>
      <use xlink:href="#DejaVuSans-75" x="74.804688"/>
      <use xlink:href="#DejaVuSans-6d" x="138.183594"/>
      <use xlink:href="#DejaVuSans-62" x="235.595703"/>
      <use xlink:href="#DejaVuSans-65" x="299.072266"/>
      <use xlink:href="#DejaVuSans-72" x="360.595703"/>
      <use xlink:href="#DejaVuSans-20" x="401.708984"/>
      <use xlink:href="#DejaVuSans-6f" x="433.496094"/>
      <use xlink:href="#DejaVuSans-66" x="494.677734"/>
      <use xlink:href="#DejaVuSans-20" x="529.882812"/>
      <use xlink:href="#DejaVuSans-44" x="561.669922"/>
      <use xlink:href="#DejaVuSans-6f" x="638.671875"/>
      <use xlink:href="#DejaVuSans-6d" x="699.853516"/>
      <use xlink:href="#DejaVuSans-61" x="797.265625"/>
      <use xlink:href="#DejaVuSans-69" x="858.544922"/>
      <use xlink:href="#DejaVuSans-6e" x="886.328125"/>
      <use xlink:href="#DejaVuSans-73" x="949.707031"/>
     </g>
    </g>
   </g>
   <g id="line2d_27">
    <path d="M 86.344034 42.473384 
L 89.04349 42.754565 
L 89.943308 42.375351 
L 90.843127 41.486971 
L 91.742946 41.032522 
L 92.642764 40.960327 
L 94.442401 41.050761 
L 95.34222 41.35474 
L 98.041676 40.408604 
L 98.941494 40.350848 
L 99.841313 40.646468 
L 103.440587 39.785447 
L 104.340406 39.940476 
L 105.240224 39.889559 
L 106.140043 40.109185 
L 107.93968 40.349328 
L 108.839499 40.227737 
L 109.739317 39.754289 
L 110.639136 39.543023 
L 112.438773 39.502746 
L 114.23841 39.682854 
L 116.038047 39.15013 
L 116.937866 38.903906 
L 117.837685 38.976861 
L 118.737503 39.74061 
L 119.637322 39.774047 
L 120.53714 39.925277 
L 121.436959 39.547583 
L 122.336777 38.894027 
L 123.236596 38.789154 
L 126.83587 39.107573 
L 127.735689 38.911506 
L 128.635508 38.577889 
L 129.535326 38.663003 
L 132.234782 39.467028 
L 133.134601 39.486027 
L 134.034419 39.302119 
L 135.834056 39.14329 
L 138.533512 40.125143 
L 139.433331 40.17302 
L 140.333149 39.803685 
L 141.232968 39.15165 
L 143.032605 38.800553 
L 143.932424 39.070335 
L 144.832242 38.663763 
L 145.732061 38.694921 
L 148.431516 38.074043 
L 151.130972 35.769119 
L 152.030791 34.854142 
L 152.930609 38.170556 
L 154.730247 37.480523 
L 155.630065 37.309535 
L 163.728432 34.774347 
L 164.628251 35.61485 
L 166.427888 33.575148 
L 167.327707 31.578764 
L 168.227525 32.006615 
L 169.127344 25.60557 
L 170.027162 30.430482 
L 170.926981 22.851517 
L 171.8268 23.703419 
L 172.726618 25.226356 
L 173.626437 26.094977 
L 174.526255 33.320566 
L 175.426074 25.230155 
L 176.325893 25.696004 
L 177.225711 24.485406 
L 178.12553 24.487686 
L 179.025348 26.275084 
L 179.925167 33.964242 
L 181.724804 33.866969 
L 182.624623 34.28114 
L 183.524441 29.893199 
L 184.42426 24.220944 
L 185.324078 26.651259 
L 186.223897 27.040352 
L 188.023534 29.226724 
L 188.923353 29.824043 
L 189.823171 32.039293 
L 190.72299 31.49441 
L 191.622809 31.660838 
L 192.522627 32.192802 
L 193.422446 31.701116 
L 194.322264 31.766471 
L 195.222083 32.404068 
L 196.121901 32.291596 
L 197.921539 31.097717 
L 198.821357 29.815684 
L 199.721176 30.621229 
L 200.620994 32.744525 
L 201.520813 32.921593 
L 213.218455 30.415283 
L 215.018092 30.553594 
L 215.91791 30.283052 
L 216.817729 29.540582 
L 217.717547 29.384033 
L 218.617366 29.536023 
L 220.417003 29.594539 
L 221.316822 30.362847 
L 224.016278 29.42507 
L 224.916096 29.477507 
L 227.615552 29.27916 
L 228.515371 29.42735 
L 229.415189 29.016978 
L 232.114645 29.044336 
L 233.914282 29.744249 
L 234.814101 29.449389 
L 237.513556 28.908305 
L 238.413375 29.178087 
L 239.313194 28.667402 
L 240.213012 29.273081 
L 242.012649 28.564809 
L 245.611924 28.413579 
L 246.511742 28.562529 
L 249.211198 27.743305 
L 250.111017 27.707587 
L 253.710291 28.10808 
L 255.509928 27.630072 
L 256.409747 27.734945 
L 257.309565 27.554837 
L 258.209384 27.598914 
L 259.109202 27.844378 
L 260.009021 27.441605 
L 260.90884 26.582863 
L 264.508114 26.311562 
L 265.407932 26.49091 
L 266.307751 26.33816 
L 268.107388 25.762119 
L 269.007207 25.575172 
L 269.907025 25.632168 
L 270.806844 25.884471 
L 271.706663 25.909549 
L 272.606481 25.734761 
L 273.5063 25.293231 
L 274.406118 25.322109 
L 275.305937 25.092605 
L 276.205756 25.252954 
L 277.105574 25.227115 
L 278.005393 25.678525 
L 278.905211 24.672353 
L 280.704848 24.098592 
L 281.604667 23.954962 
L 283.404304 23.918484 
L 284.304123 24.381293 
L 285.203941 24.667034 
L 286.10376 24.508204 
L 287.003579 24.996851 
L 288.803216 25.060687 
L 290.602853 25.297791 
L 292.40249 24.646515 
L 295.101946 24.367614 
L 296.901583 24.509724 
L 301.400676 23.921524 
L 326.595596 24.829662 
L 327.495415 25.01889 
L 328.395233 25.067526 
L 330.194871 24.152548 
L 331.094689 24.12519 
L 334.693964 24.563681 
L 335.593782 24.522643 
L 336.493601 24.210305 
L 337.393419 24.043876 
L 338.293238 23.748256 
L 340.992694 24.028677 
L 341.892512 23.928364 
L 342.792331 23.654782 
L 358.989065 23.073422 
L 359.888884 23.163096 
L 361.688521 22.823399 
L 364.387977 22.726885 
L 365.287795 22.986028 
L 366.187614 22.964749 
L 367.087433 22.689648 
L 367.987251 22.66305 
L 368.88707 22.778562 
L 369.786888 22.650131 
L 370.686707 22.723846 
L 371.586526 22.588575 
L 372.486344 22.912313 
L 373.386163 22.563496 
L 374.285981 22.06345 
L 375.1858 22.028493 
L 377.885256 22.337032 
L 379.684893 22.264077 
L 380.584711 22.235959 
L 381.48453 21.903101 
L 383.284167 21.754151 
L 385.083804 22.041412 
L 385.983623 21.618121 
L 386.883441 22.045972 
L 387.78326 21.315661 
L 388.683079 21.101356 
L 389.582897 21.048159 
L 390.482716 21.355178 
L 392.282353 21.48513 
L 393.182172 21.324021 
L 394.08199 20.932647 
L 394.981809 21.028401 
L 398.581083 20.770778 
L 400.38072 20.512396 
L 401.280539 21.685756 
L 403.979995 21.892462 
L 404.879813 21.374177 
L 405.779632 20.472118 
L 407.579269 20.035148 
L 410.278725 19.86644 
L 411.178543 19.935595 
L 412.078362 19.463667 
L 412.97818 19.307118 
L 413.877999 19.293439 
L 416.577455 19.785885 
L 417.477273 19.736488 
L 420.176729 19.311677 
L 421.976366 19.525983 
L 422.876185 19.607297 
L 423.776003 19.302558 
L 424.675822 18.754635 
L 426.475459 18.814671 
L 427.375278 18.98414 
L 428.275096 18.97426 
L 429.174915 19.311677 
L 430.974552 18.495493 
L 431.874371 17.865496 
L 433.674008 17.984047 
L 434.573826 18.232551 
L 435.473645 18.330584 
L 436.373464 18.040284 
L 439.972738 17.844977 
L 441.772375 18.121598 
L 445.371649 17.438405 
L 446.271468 17.455123 
L 447.171287 17.863216 
L 448.071105 18.031924 
L 448.970924 17.635991 
L 449.870742 17.401927 
L 450.770561 17.385968 
L 453.470017 18.010646 
L 454.369835 17.905013 
L 455.269654 17.65499 
L 456.169473 17.537198 
L 457.069291 17.551637 
L 457.96911 17.831298 
L 458.868928 17.954409 
L 459.768747 18.544889 
L 460.668565 18.842789 
L 462.468203 18.571488 
L 465.167658 19.003898 
L 466.067477 19.395272 
L 466.967296 19.494825 
L 469.666751 18.770594 
L 472.366207 18.759955 
L 473.266026 18.869387 
L 475.965481 17.900453 
L 477.765119 17.691467 
L 478.664937 17.898173 
L 480.464574 17.518959 
L 481.364393 17.124546 
L 482.264211 16.962677 
L 484.063849 16.360038 
L 484.963667 16.452751 
L 486.763304 16.000582 
L 487.663123 15.507376 
L 488.562942 15.436701 
L 490.362579 14.989091 
L 491.262397 15.109163 
L 492.162216 15.066606 
L 492.162216 15.066606 
" clip-path="url(#p86c23888df)" style="fill: none; stroke: #1f77b4; stroke-width: 1.5; stroke-linecap: square"/>
   </g>
   <g id="line2d_28">
    <path d="M 86.344034 170.730632 
L 99.841313 170.734432 
L 121.436959 170.699474 
L 134.034419 170.702514 
L 278.905211 170.539885 
L 283.404304 170.531525 
L 292.40249 170.533045 
L 301.400676 170.533805 
L 479.564756 170.422853 
L 484.063849 170.396255 
L 492.162216 170.353697 
L 492.162216 170.353697 
" clip-path="url(#p86c23888df)" style="fill: none; stroke: #ff7f0e; stroke-width: 1.5; stroke-linecap: square"/>
   </g>
   <g id="line2d_29">
    <path d="M 86.344034 154.509534 
L 89.943308 154.405421 
L 91.742946 154.038366 
L 93.542583 154.058124 
L 95.34222 154.141719 
L 98.941494 153.895495 
L 102.540769 153.82634 
L 104.340406 153.734386 
L 106.140043 153.805062 
L 108.839499 153.729827 
L 109.739317 153.588476 
L 112.438773 153.600635 
L 113.338592 153.736666 
L 115.138229 153.651552 
L 116.937866 153.506402 
L 117.837685 153.545159 
L 118.737503 153.766304 
L 120.53714 153.870417 
L 122.336777 153.558838 
L 125.036233 153.583917 
L 126.83587 153.748825 
L 129.535326 153.647752 
L 133.134601 154.111321 
L 135.834056 154.086242 
L 139.433331 154.434299 
L 140.333149 154.352984 
L 141.232968 154.107521 
L 143.932424 154.198715 
L 145.732061 154.102201 
L 148.431516 154.000368 
L 152.930609 154.037606 
L 154.730247 153.889416 
L 155.630065 153.82786 
L 164.628251 153.608235 
L 167.327707 153.340733 
L 169.127344 153.506402 
L 172.726618 153.597596 
L 173.626437 153.396969 
L 174.526255 153.604435 
L 178.12553 153.67967 
L 179.925167 153.585436 
L 182.624623 153.719947 
L 183.524441 153.789103 
L 186.223897 153.570237 
L 188.023534 153.52768 
L 189.823171 153.643952 
L 193.422446 153.247259 
L 196.121901 153.358972 
L 198.821357 153.09603 
L 201.520813 153.222181 
L 213.218455 152.732014 
L 215.018092 152.904523 
L 216.817729 152.734294 
L 218.617366 152.773812 
L 222.21664 152.879444 
L 224.016278 152.728975 
L 229.415189 152.678058 
L 232.114645 152.65298 
L 233.914282 152.812569 
L 237.513556 152.587624 
L 239.313194 152.827008 
L 240.213012 152.887804 
L 242.012649 152.681098 
L 253.710291 152.697057 
L 255.509928 152.6431 
L 257.309565 152.640821 
L 260.009021 152.766972 
L 261.808658 152.587624 
L 264.508114 152.605863 
L 266.307751 152.64766 
L 268.107388 152.49795 
L 270.806844 152.518469 
L 271.706663 152.587624 
L 276.205756 152.221329 
L 278.005393 152.375599 
L 279.80503 152.108097 
L 283.404304 152.117976 
L 284.304123 152.244888 
L 287.903397 151.955347 
L 289.703034 152.06478 
L 290.602853 152.157493 
L 292.40249 151.855034 
L 295.101946 151.825396 
L 296.901583 151.962947 
L 301.400676 151.722043 
L 329.295052 151.873273 
L 331.094689 151.664287 
L 333.794145 151.738002 
L 334.693964 151.801838 
L 337.393419 151.4667 
L 339.193056 151.463661 
L 340.992694 151.563214 
L 342.792331 151.294192 
L 365.287795 151.389946 
L 366.187614 151.446942 
L 369.786888 151.162721 
L 371.586526 151.266074 
L 372.486344 151.415784 
L 375.1858 151.114844 
L 379.684893 151.149042 
L 381.48453 150.978814 
L 383.284167 150.973494 
L 385.083804 151.079887 
L 388.683079 150.753869 
L 392.282353 150.843543 
L 394.08199 150.59048 
L 396.781446 150.700672 
L 397.681264 150.807065 
L 400.38072 150.611758 
L 403.080176 150.779707 
L 403.979995 150.844303 
L 406.67945 150.554002 
L 408.479088 150.601119 
L 410.278725 150.721191 
L 413.877999 150.412652 
L 415.677636 150.550203 
L 417.477273 150.558562 
L 420.176729 150.319938 
L 422.876185 150.503846 
L 426.475459 150.241664 
L 427.375278 150.252303 
L 429.174915 150.455209 
L 430.974552 150.260662 
L 433.674008 150.408092 
L 435.473645 150.538803 
L 437.273282 150.313859 
L 440.872557 150.386814 
L 441.772375 150.484847 
L 442.672194 150.461289 
L 444.471831 150.276621 
L 446.271468 150.340457 
L 448.071105 150.563122 
L 449.870742 150.2941 
L 450.770561 150.314619 
L 454.369835 150.539563 
L 457.069291 150.409612 
L 461.568384 150.794906 
L 462.468203 150.73107 
L 467.867114 151.151322 
L 469.666751 150.947656 
L 473.266026 151.121684 
L 474.165844 151.091286 
L 475.065663 150.914978 
L 477.765119 150.867861 
L 479.564756 150.940056 
L 484.963667 150.554762 
L 485.863486 150.551723 
L 488.562942 150.175548 
L 492.162216 150.188467 
L 492.162216 150.188467 
" clip-path="url(#p86c23888df)" style="fill: none; stroke: #2ca02c; stroke-width: 1.5; stroke-linecap: square"/>
   </g>
   <g id="line2d_30">
    <path d="M 86.344034 62.778445 
L 88.143671 62.99047 
L 89.04349 63.010989 
L 89.943308 62.744247 
L 90.843127 62.071693 
L 91.742946 61.81939 
L 94.442401 61.766953 
L 95.34222 62.027616 
L 98.041676 61.310224 
L 98.941494 61.273747 
L 99.841313 61.571647 
L 103.440587 60.898332 
L 104.340406 61.047282 
L 105.240224 60.92721 
L 106.140043 61.145316 
L 108.839499 61.310984 
L 109.739317 60.984207 
L 110.639136 60.779021 
L 113.338592 60.728864 
L 114.23841 60.79118 
L 116.038047 60.421845 
L 116.937866 60.229578 
L 117.837685 60.285054 
L 118.737503 60.810938 
L 120.53714 60.902132 
L 121.436959 60.684027 
L 122.336777 60.173342 
L 123.236596 60.111786 
L 126.83587 60.1931 
L 129.535326 59.842764 
L 132.234782 60.304053 
L 133.134601 60.228058 
L 134.034419 60.035791 
L 135.834056 59.90052 
L 138.533512 60.516078 
L 139.433331 60.557116 
L 140.333149 60.261496 
L 141.232968 59.848084 
L 143.032605 59.491668 
L 143.932424 59.692294 
L 144.832242 59.385275 
L 145.732061 59.427832 
L 148.431516 58.927026 
L 151.130972 56.579546 
L 152.030791 55.555135 
L 152.930609 58.986302 
L 163.728432 56.052142 
L 164.628251 56.865286 
L 166.427888 55.095367 
L 167.327707 53.110381 
L 168.227525 53.387763 
L 169.127344 46.956319 
L 170.027162 51.733355 
L 170.926981 44.111073 
L 171.8268 44.8885 
L 172.726618 46.479072 
L 173.626437 47.543 
L 174.526255 54.561883 
L 175.426074 46.429675 
L 176.325893 46.835488 
L 177.225711 45.541296 
L 178.12553 45.646928 
L 179.025348 47.53464 
L 179.925167 55.238997 
L 181.724804 55.109046 
L 182.624623 55.401626 
L 183.524441 50.946808 
L 184.42426 45.368027 
L 185.324078 47.868258 
L 186.223897 48.332586 
L 188.023534 50.515158 
L 188.923353 51.085119 
L 189.823171 53.227413 
L 190.72299 52.788163 
L 191.622809 53.092143 
L 192.522627 53.682623 
L 193.422446 53.291249 
L 194.322264 53.353565 
L 195.222083 53.992682 
L 196.121901 53.806494 
L 197.921539 52.820081 
L 198.821357 51.623162 
L 199.721176 52.414269 
L 200.620994 54.500327 
L 201.520813 54.616599 
L 213.218455 52.597416 
L 215.018092 52.576138 
L 215.91791 52.406669 
L 216.817729 51.737155 
L 217.717547 51.595044 
L 218.617366 51.688518 
L 220.417003 51.66268 
L 221.316822 52.295717 
L 224.016278 51.585925 
L 224.916096 51.632282 
L 227.615552 51.459774 
L 228.515371 51.580605 
L 229.415189 51.231029 
L 232.114645 51.297905 
L 233.914282 51.835948 
L 234.814101 51.603404 
L 237.513556 51.237869 
L 238.413375 51.335142 
L 239.313194 50.742382 
L 240.213012 51.297145 
L 242.012649 50.797099 
L 245.611924 50.671707 
L 246.511742 50.797099 
L 249.211198 50.142023 
L 250.111017 50.066788 
L 252.810472 50.33505 
L 253.710291 50.33277 
L 255.509928 49.917838 
L 256.409747 50.04323 
L 257.309565 49.835004 
L 259.109202 49.856282 
L 260.009021 49.59334 
L 260.90884 48.882029 
L 264.508114 48.628206 
L 265.407932 48.746758 
L 267.20757 48.41542 
L 269.007207 48.065844 
L 271.706663 48.27863 
L 272.606481 48.188956 
L 273.5063 47.894856 
L 274.406118 48.012648 
L 275.305937 47.849259 
L 276.205756 48.007328 
L 277.105574 47.913094 
L 278.005393 48.27939 
L 278.905211 47.482204 
L 281.604667 46.880325 
L 283.404304 46.814209 
L 285.203941 47.54376 
L 286.10376 47.529321 
L 287.003579 48.071164 
L 288.803216 48.097002 
L 290.602853 48.165397 
L 292.40249 47.803662 
L 295.101946 47.583277 
L 296.901583 47.548319 
L 301.400676 47.210902 
L 328.395233 48.166157 
L 330.194871 47.470805 
L 336.493601 47.778584 
L 337.393419 47.652432 
L 338.293238 47.404689 
L 340.992694 47.53616 
L 341.892512 47.556679 
L 342.792331 47.435847 
L 367.987251 46.580145 
L 368.88707 46.680458 
L 371.586526 46.460833 
L 372.486344 46.642461 
L 373.386163 46.431955 
L 374.285981 46.06186 
L 375.1858 46.080099 
L 377.885256 46.318723 
L 378.785074 46.143175 
L 380.584711 46.377999 
L 381.48453 46.089978 
L 384.183986 46.045141 
L 385.083804 46.138615 
L 385.983623 45.802718 
L 386.883441 46.311883 
L 387.78326 45.671247 
L 389.582897 45.393106 
L 390.482716 45.663647 
L 391.382534 45.653008 
L 393.182172 45.808037 
L 394.08199 45.512418 
L 394.981809 45.577013 
L 400.38072 45.081527 
L 401.280539 46.240448 
L 403.979995 46.264006 
L 404.879813 45.857434 
L 405.779632 45.076207 
L 407.579269 44.73727 
L 410.278725 44.366415 
L 411.178543 44.525245 
L 412.078362 44.229625 
L 412.97818 44.111073 
L 413.877999 44.104993 
L 414.777818 44.256223 
L 416.577455 44.346657 
L 417.477273 44.357296 
L 421.076548 44.117912 
L 422.876185 44.260023 
L 423.776003 44.039638 
L 424.675822 43.599627 
L 426.475459 43.70602 
L 427.375278 43.864849 
L 428.275096 43.71514 
L 429.174915 43.991761 
L 430.074734 43.753897 
L 430.974552 43.389122 
L 431.874371 42.743926 
L 433.674008 42.734046 
L 434.573826 42.917194 
L 435.473645 42.937712 
L 436.373464 42.784203 
L 437.273282 42.798642 
L 439.972738 42.721127 
L 441.772375 42.82448 
L 444.471831 42.37763 
L 446.271468 42.322914 
L 447.171287 42.556978 
L 448.071105 42.639813 
L 449.870742 42.307715 
L 450.770561 42.257559 
L 453.470017 42.650452 
L 456.169473 42.298596 
L 457.069291 42.306195 
L 457.96911 42.504542 
L 458.868928 42.541019 
L 459.768747 43.012947 
L 460.668565 43.179376 
L 462.468203 42.97799 
L 465.167658 43.161897 
L 466.067477 43.41496 
L 466.967296 43.433959 
L 467.867114 43.246251 
L 468.766933 43.224213 
L 469.666751 42.949872 
L 472.366207 42.775083 
L 473.266026 42.878436 
L 474.165844 42.577497 
L 475.065663 42.444506 
L 475.965481 42.151166 
L 477.765119 41.952059 
L 478.664937 42.08733 
L 480.464574 41.759792 
L 481.364393 41.50673 
L 483.16403 41.121436 
L 484.063849 40.929929 
L 484.963667 41.048481 
L 487.663123 40.390365 
L 488.562942 40.418484 
L 490.362579 40.002032 
L 492.162216 40.069667 
L 492.162216 40.069667 
" clip-path="url(#p86c23888df)" style="fill: none; stroke: #d62728; stroke-width: 1.5; stroke-linecap: square"/>
   </g>
   <g id="patch_3">
    <path d="M 66.053125 178.56 
L 66.053125 7.2 
" style="fill: none; stroke: #000000; stroke-width: 0.8; stroke-linejoin: miter; stroke-linecap: square"/>
   </g>
   <g id="patch_4">
    <path d="M 512.453125 178.56 
L 512.453125 7.2 
" style="fill: none; stroke: #000000; stroke-width: 0.8; stroke-linejoin: miter; stroke-linecap: square"/>
   </g>
   <g id="patch_5">
    <path d="M 66.053125 178.56 
L 512.453125 178.56 
" style="fill: none; stroke: #000000; stroke-width: 0.8; stroke-linejoin: miter; stroke-linecap: square"/>
   </g>
   <g id="patch_6">
    <path d="M 66.053125 7.2 
L 512.453125 7.2 
" style="fill: none; stroke: #000000; stroke-width: 0.8; stroke-linejoin: miter; stroke-linecap: square"/>
   </g>
   <g id="legend_1">
    <g id="patch_7">
     <path d="M 414.570312 123.73625 
L 505.453125 123.73625 
Q 507.453125 123.73625 507.453125 121.73625 
L 507.453125 64.02375 
Q 507.453125 62.02375 505.453125 62.02375 
L 414.570312 62.02375 
Q 412.570312 62.02375 412.570312 64.02375 
L 412.570312 121.73625 
Q 412.570312 123.73625 414.570312 123.73625 
z
" style="fill: #ffffff; opacity: 0.8; stroke: #cccccc; stroke-linejoin: miter"/>
    </g>
    <g id="line2d_31">
     <path d="M 416.570312 70.122187 
L 426.570312 70.122187 
L 436.570312 70.122187 
" style="fill: none; stroke: #1f77b4; stroke-width: 1.5; stroke-linecap: square"/>
    </g>
    <g id="text_23">
     <!-- XFO header -->
     <g transform="translate(444.570312 73.622187)scale(0.1 -0.1)">
      <defs>
       <path id="DejaVuSans-58" d="M 403 4666 
L 1081 4666 
L 2241 2931 
L 3406 4666 
L 4084 4666 
L 2584 2425 
L 4184 0 
L 3506 0 
L 2194 1984 
L 872 0 
L 191 0 
L 1856 2491 
L 403 4666 
z
" transform="scale(0.015625)"/>
       <path id="DejaVuSans-68" d="M 3513 2113 
L 3513 0 
L 2938 0 
L 2938 2094 
Q 2938 2591 2744 2837 
Q 2550 3084 2163 3084 
Q 1697 3084 1428 2787 
Q 1159 2491 1159 1978 
L 1159 0 
L 581 0 
L 581 4863 
L 1159 4863 
L 1159 2956 
Q 1366 3272 1645 3428 
Q 1925 3584 2291 3584 
Q 2894 3584 3203 3211 
Q 3513 2838 3513 2113 
z
" transform="scale(0.015625)"/>
       <path id="DejaVuSans-64" d="M 2906 2969 
L 2906 4863 
L 3481 4863 
L 3481 0 
L 2906 0 
L 2906 525 
Q 2725 213 2448 61 
Q 2172 -91 1784 -91 
Q 1150 -91 751 415 
Q 353 922 353 1747 
Q 353 2572 751 3078 
Q 1150 3584 1784 3584 
Q 2172 3584 2448 3432 
Q 2725 3281 2906 2969 
z
M 947 1747 
Q 947 1113 1208 752 
Q 1469 391 1925 391 
Q 2381 391 2643 752 
Q 2906 1113 2906 1747 
Q 2906 2381 2643 2742 
Q 2381 3103 1925 3103 
Q 1469 3103 1208 2742 
Q 947 2381 947 1747 
z
" transform="scale(0.015625)"/>
      </defs>
      <use xlink:href="#DejaVuSans-58"/>
      <use xlink:href="#DejaVuSans-46" x="68.505859"/>
      <use xlink:href="#DejaVuSans-4f" x="126.025391"/>
      <use xlink:href="#DejaVuSans-20" x="204.736328"/>
      <use xlink:href="#DejaVuSans-68" x="236.523438"/>
      <use xlink:href="#DejaVuSans-65" x="299.902344"/>
      <use xlink:href="#DejaVuSans-61" x="361.425781"/>
      <use xlink:href="#DejaVuSans-64" x="422.705078"/>
      <use xlink:href="#DejaVuSans-65" x="486.181641"/>
      <use xlink:href="#DejaVuSans-72" x="547.705078"/>
     </g>
    </g>
    <g id="line2d_32">
     <path d="M 416.570312 84.800312 
L 426.570312 84.800312 
L 436.570312 84.800312 
" style="fill: none; stroke: #ff7f0e; stroke-width: 1.5; stroke-linecap: square"/>
    </g>
    <g id="text_24">
     <!-- allow-from -->
     <g transform="translate(444.570312 88.300312)scale(0.1 -0.1)">
      <defs>
       <path id="DejaVuSans-77" d="M 269 3500 
L 844 3500 
L 1563 769 
L 2278 3500 
L 2956 3500 
L 3675 769 
L 4391 3500 
L 4966 3500 
L 4050 0 
L 3372 0 
L 2619 2869 
L 1863 0 
L 1184 0 
L 269 3500 
z
" transform="scale(0.015625)"/>
      </defs>
      <use xlink:href="#DejaVuSans-61"/>
      <use xlink:href="#DejaVuSans-6c" x="61.279297"/>
      <use xlink:href="#DejaVuSans-6c" x="89.0625"/>
      <use xlink:href="#DejaVuSans-6f" x="116.845703"/>
      <use xlink:href="#DejaVuSans-77" x="178.027344"/>
      <use xlink:href="#DejaVuSans-2d" x="259.814453"/>
      <use xlink:href="#DejaVuSans-66" x="295.898438"/>
      <use xlink:href="#DejaVuSans-72" x="331.103516"/>
      <use xlink:href="#DejaVuSans-6f" x="369.966797"/>
      <use xlink:href="#DejaVuSans-6d" x="431.148438"/>
     </g>
    </g>
    <g id="line2d_33">
     <path d="M 416.570312 99.478438 
L 426.570312 99.478438 
L 436.570312 99.478438 
" style="fill: none; stroke: #2ca02c; stroke-width: 1.5; stroke-linecap: square"/>
    </g>
    <g id="text_25">
     <!-- deny -->
     <g transform="translate(444.570312 102.978438)scale(0.1 -0.1)">
      <use xlink:href="#DejaVuSans-64"/>
      <use xlink:href="#DejaVuSans-65" x="63.476562"/>
      <use xlink:href="#DejaVuSans-6e" x="125"/>
      <use xlink:href="#DejaVuSans-79" x="188.378906"/>
     </g>
    </g>
    <g id="line2d_34">
     <path d="M 416.570312 114.156563 
L 426.570312 114.156563 
L 436.570312 114.156563 
" style="fill: none; stroke: #d62728; stroke-width: 1.5; stroke-linecap: square"/>
    </g>
    <g id="text_26">
     <!-- sameorigin -->
     <g transform="translate(444.570312 117.656563)scale(0.1 -0.1)">
      <use xlink:href="#DejaVuSans-73"/>
      <use xlink:href="#DejaVuSans-61" x="52.099609"/>
      <use xlink:href="#DejaVuSans-6d" x="113.378906"/>
      <use xlink:href="#DejaVuSans-65" x="210.791016"/>
      <use xlink:href="#DejaVuSans-6f" x="272.314453"/>
      <use xlink:href="#DejaVuSans-72" x="333.496094"/>
      <use xlink:href="#DejaVuSans-69" x="374.609375"/>
      <use xlink:href="#DejaVuSans-67" x="402.392578"/>
      <use xlink:href="#DejaVuSans-69" x="465.869141"/>
      <use xlink:href="#DejaVuSans-6e" x="493.652344"/>
     </g>
    </g>
   </g>
  </g>
 </g>
 <defs>
  <clipPath id="p86c23888df">
   <rect x="66.053125" y="7.2" width="446.4" height="171.36"/>
  </clipPath>
 </defs>
</svg>
