<?xml version="1.0" encoding="utf-8" standalone="no"?>
<!DOCTYPE svg PUBLIC "-//W3C//DTD SVG 1.1//EN"
  "http://www.w3.org/Graphics/SVG/1.1/DTD/svg11.dtd">
<svg xmlns:xlink="http://www.w3.org/1999/xlink" width="519.653125pt" height="234.086815pt" viewBox="0 0 519.653125 234.086815" xmlns="http://www.w3.org/2000/svg" version="1.1">
 <metadata>
  <rdf:RDF xmlns:dc="http://purl.org/dc/elements/1.1/" xmlns:cc="http://creativecommons.org/ns#" xmlns:rdf="http://www.w3.org/1999/02/22-rdf-syntax-ns#">
   <cc:Work>
    <dc:type rdf:resource="http://purl.org/dc/dcmitype/StillImage"/>
    <dc:date>2022-02-14T19:25:46.021818</dc:date>
    <dc:format>image/svg+xml</dc:format>
    <dc:creator>
     <cc:Agent>
      <dc:title>Matplotlib v3.5.1, https://matplotlib.org/</dc:title>
     </cc:Agent>
    </dc:creator>
   </cc:Work>
  </rdf:RDF>
 </metadata>
 <defs>
  <style type="text/css">*{stroke-linejoin: round; stroke-linecap: butt}</style>
 </defs>
 <g id="figure_1">
  <g id="patch_1">
   <path d="M 0 234.086815 
L 519.653125 234.086815 
L 519.653125 0 
L 0 0 
z
" style="fill: #ffffff"/>
  </g>
  <g id="axes_1">
   <g id="patch_2">
    <path d="M 66.053125 178.56 
L 512.453125 178.56 
L 512.453125 7.2 
L 66.053125 7.2 
z
" style="fill: #ffffff"/>
   </g>
   <g id="matplotlib.axis_1">
    <g id="xtick_1">
     <g id="line2d_1">
      <defs>
       <path id="m33ae3cfea2" d="M 0 0 
L 0 3.5 
" style="stroke: #000000; stroke-width: 0.8"/>
      </defs>
      <g>
       <use xlink:href="#m33ae3cfea2" x="80.945123" y="178.56" style="stroke: #000000; stroke-width: 0.8"/>
      </g>
     </g>
     <g id="text_1">
      <!-- 2020-Nov-01 -->
      <g transform="translate(23.919443 224.463877)rotate(-30)scale(0.1 -0.1)">
       <defs>
        <path id="DejaVuSans-32" d="M 1228 531 
L 3431 531 
L 3431 0 
L 469 0 
L 469 531 
Q 828 903 1448 1529 
Q 2069 2156 2228 2338 
Q 2531 2678 2651 2914 
Q 2772 3150 2772 3378 
Q 2772 3750 2511 3984 
Q 2250 4219 1831 4219 
Q 1534 4219 1204 4116 
Q 875 4013 500 3803 
L 500 4441 
Q 881 4594 1212 4672 
Q 1544 4750 1819 4750 
Q 2544 4750 2975 4387 
Q 3406 4025 3406 3419 
Q 3406 3131 3298 2873 
Q 3191 2616 2906 2266 
Q 2828 2175 2409 1742 
Q 1991 1309 1228 531 
z
" transform="scale(0.015625)"/>
        <path id="DejaVuSans-30" d="M 2034 4250 
Q 1547 4250 1301 3770 
Q 1056 3291 1056 2328 
Q 1056 1369 1301 889 
Q 1547 409 2034 409 
Q 2525 409 2770 889 
Q 3016 1369 3016 2328 
Q 3016 3291 2770 3770 
Q 2525 4250 2034 4250 
z
M 2034 4750 
Q 2819 4750 3233 4129 
Q 3647 3509 3647 2328 
Q 3647 1150 3233 529 
Q 2819 -91 2034 -91 
Q 1250 -91 836 529 
Q 422 1150 422 2328 
Q 422 3509 836 4129 
Q 1250 4750 2034 4750 
z
" transform="scale(0.015625)"/>
        <path id="DejaVuSans-2d" d="M 313 2009 
L 1997 2009 
L 1997 1497 
L 313 1497 
L 313 2009 
z
" transform="scale(0.015625)"/>
        <path id="DejaVuSans-4e" d="M 628 4666 
L 1478 4666 
L 3547 763 
L 3547 4666 
L 4159 4666 
L 4159 0 
L 3309 0 
L 1241 3903 
L 1241 0 
L 628 0 
L 628 4666 
z
" transform="scale(0.015625)"/>
        <path id="DejaVuSans-6f" d="M 1959 3097 
Q 1497 3097 1228 2736 
Q 959 2375 959 1747 
Q 959 1119 1226 758 
Q 1494 397 1959 397 
Q 2419 397 2687 759 
Q 2956 1122 2956 1747 
Q 2956 2369 2687 2733 
Q 2419 3097 1959 3097 
z
M 1959 3584 
Q 2709 3584 3137 3096 
Q 3566 2609 3566 1747 
Q 3566 888 3137 398 
Q 2709 -91 1959 -91 
Q 1206 -91 779 398 
Q 353 888 353 1747 
Q 353 2609 779 3096 
Q 1206 3584 1959 3584 
z
" transform="scale(0.015625)"/>
        <path id="DejaVuSans-76" d="M 191 3500 
L 800 3500 
L 1894 563 
L 2988 3500 
L 3597 3500 
L 2284 0 
L 1503 0 
L 191 3500 
z
" transform="scale(0.015625)"/>
        <path id="DejaVuSans-31" d="M 794 531 
L 1825 531 
L 1825 4091 
L 703 3866 
L 703 4441 
L 1819 4666 
L 2450 4666 
L 2450 531 
L 3481 531 
L 3481 0 
L 794 0 
L 794 531 
z
" transform="scale(0.015625)"/>
       </defs>
       <use xlink:href="#DejaVuSans-32"/>
       <use xlink:href="#DejaVuSans-30" x="63.623047"/>
       <use xlink:href="#DejaVuSans-32" x="127.246094"/>
       <use xlink:href="#DejaVuSans-30" x="190.869141"/>
       <use xlink:href="#DejaVuSans-2d" x="254.492188"/>
       <use xlink:href="#DejaVuSans-4e" x="290.576172"/>
       <use xlink:href="#DejaVuSans-6f" x="365.380859"/>
       <use xlink:href="#DejaVuSans-76" x="426.5625"/>
       <use xlink:href="#DejaVuSans-2d" x="483.117188"/>
       <use xlink:href="#DejaVuSans-30" x="519.201172"/>
       <use xlink:href="#DejaVuSans-31" x="582.824219"/>
      </g>
     </g>
    </g>
    <g id="xtick_2">
     <g id="line2d_2">
      <g>
       <use xlink:href="#m33ae3cfea2" x="107.93968" y="178.56" style="stroke: #000000; stroke-width: 0.8"/>
      </g>
     </g>
     <g id="text_2">
      <!-- 2020-Dec-01 -->
      <g transform="translate(50.831457 224.511534)rotate(-30)scale(0.1 -0.1)">
       <defs>
        <path id="DejaVuSans-44" d="M 1259 4147 
L 1259 519 
L 2022 519 
Q 2988 519 3436 956 
Q 3884 1394 3884 2338 
Q 3884 3275 3436 3711 
Q 2988 4147 2022 4147 
L 1259 4147 
z
M 628 4666 
L 1925 4666 
Q 3281 4666 3915 4102 
Q 4550 3538 4550 2338 
Q 4550 1131 3912 565 
Q 3275 0 1925 0 
L 628 0 
L 628 4666 
z
" transform="scale(0.015625)"/>
        <path id="DejaVuSans-65" d="M 3597 1894 
L 3597 1613 
L 953 1613 
Q 991 1019 1311 708 
Q 1631 397 2203 397 
Q 2534 397 2845 478 
Q 3156 559 3463 722 
L 3463 178 
Q 3153 47 2828 -22 
Q 2503 -91 2169 -91 
Q 1331 -91 842 396 
Q 353 884 353 1716 
Q 353 2575 817 3079 
Q 1281 3584 2069 3584 
Q 2775 3584 3186 3129 
Q 3597 2675 3597 1894 
z
M 3022 2063 
Q 3016 2534 2758 2815 
Q 2500 3097 2075 3097 
Q 1594 3097 1305 2825 
Q 1016 2553 972 2059 
L 3022 2063 
z
" transform="scale(0.015625)"/>
        <path id="DejaVuSans-63" d="M 3122 3366 
L 3122 2828 
Q 2878 2963 2633 3030 
Q 2388 3097 2138 3097 
Q 1578 3097 1268 2742 
Q 959 2388 959 1747 
Q 959 1106 1268 751 
Q 1578 397 2138 397 
Q 2388 397 2633 464 
Q 2878 531 3122 666 
L 3122 134 
Q 2881 22 2623 -34 
Q 2366 -91 2075 -91 
Q 1284 -91 818 406 
Q 353 903 353 1747 
Q 353 2603 823 3093 
Q 1294 3584 2113 3584 
Q 2378 3584 2631 3529 
Q 2884 3475 3122 3366 
z
" transform="scale(0.015625)"/>
       </defs>
       <use xlink:href="#DejaVuSans-32"/>
       <use xlink:href="#DejaVuSans-30" x="63.623047"/>
       <use xlink:href="#DejaVuSans-32" x="127.246094"/>
       <use xlink:href="#DejaVuSans-30" x="190.869141"/>
       <use xlink:href="#DejaVuSans-2d" x="254.492188"/>
       <use xlink:href="#DejaVuSans-44" x="290.576172"/>
       <use xlink:href="#DejaVuSans-65" x="367.578125"/>
       <use xlink:href="#DejaVuSans-63" x="429.101562"/>
       <use xlink:href="#DejaVuSans-2d" x="484.082031"/>
       <use xlink:href="#DejaVuSans-30" x="520.166016"/>
       <use xlink:href="#DejaVuSans-31" x="583.789062"/>
      </g>
     </g>
    </g>
    <g id="xtick_3">
     <g id="line2d_3">
      <g>
       <use xlink:href="#m33ae3cfea2" x="135.834056" y="178.56" style="stroke: #000000; stroke-width: 0.8"/>
      </g>
     </g>
     <g id="text_3">
      <!-- 2021-Jan-01 -->
      <g transform="translate(81.647316 222.824815)rotate(-30)scale(0.1 -0.1)">
       <defs>
        <path id="DejaVuSans-4a" d="M 628 4666 
L 1259 4666 
L 1259 325 
Q 1259 -519 939 -900 
Q 619 -1281 -91 -1281 
L -331 -1281 
L -331 -750 
L -134 -750 
Q 284 -750 456 -515 
Q 628 -281 628 325 
L 628 4666 
z
" transform="scale(0.015625)"/>
        <path id="DejaVuSans-61" d="M 2194 1759 
Q 1497 1759 1228 1600 
Q 959 1441 959 1056 
Q 959 750 1161 570 
Q 1363 391 1709 391 
Q 2188 391 2477 730 
Q 2766 1069 2766 1631 
L 2766 1759 
L 2194 1759 
z
M 3341 1997 
L 3341 0 
L 2766 0 
L 2766 531 
Q 2569 213 2275 61 
Q 1981 -91 1556 -91 
Q 1019 -91 701 211 
Q 384 513 384 1019 
Q 384 1609 779 1909 
Q 1175 2209 1959 2209 
L 2766 2209 
L 2766 2266 
Q 2766 2663 2505 2880 
Q 2244 3097 1772 3097 
Q 1472 3097 1187 3025 
Q 903 2953 641 2809 
L 641 3341 
Q 956 3463 1253 3523 
Q 1550 3584 1831 3584 
Q 2591 3584 2966 3190 
Q 3341 2797 3341 1997 
z
" transform="scale(0.015625)"/>
        <path id="DejaVuSans-6e" d="M 3513 2113 
L 3513 0 
L 2938 0 
L 2938 2094 
Q 2938 2591 2744 2837 
Q 2550 3084 2163 3084 
Q 1697 3084 1428 2787 
Q 1159 2491 1159 1978 
L 1159 0 
L 581 0 
L 581 3500 
L 1159 3500 
L 1159 2956 
Q 1366 3272 1645 3428 
Q 1925 3584 2291 3584 
Q 2894 3584 3203 3211 
Q 3513 2838 3513 2113 
z
" transform="scale(0.015625)"/>
       </defs>
       <use xlink:href="#DejaVuSans-32"/>
       <use xlink:href="#DejaVuSans-30" x="63.623047"/>
       <use xlink:href="#DejaVuSans-32" x="127.246094"/>
       <use xlink:href="#DejaVuSans-31" x="190.869141"/>
       <use xlink:href="#DejaVuSans-2d" x="254.492188"/>
       <use xlink:href="#DejaVuSans-4a" x="296.201172"/>
       <use xlink:href="#DejaVuSans-61" x="325.693359"/>
       <use xlink:href="#DejaVuSans-6e" x="386.972656"/>
       <use xlink:href="#DejaVuSans-2d" x="450.351562"/>
       <use xlink:href="#DejaVuSans-30" x="486.435547"/>
       <use xlink:href="#DejaVuSans-31" x="550.058594"/>
      </g>
     </g>
    </g>
    <g id="xtick_4">
     <g id="line2d_4">
      <g>
       <use xlink:href="#m33ae3cfea2" x="163.728432" y="178.56" style="stroke: #000000; stroke-width: 0.8"/>
      </g>
     </g>
     <g id="text_4">
      <!-- 2021-Feb-01 -->
      <g transform="translate(108.047798 223.687315)rotate(-30)scale(0.1 -0.1)">
       <defs>
        <path id="DejaVuSans-46" d="M 628 4666 
L 3309 4666 
L 3309 4134 
L 1259 4134 
L 1259 2759 
L 3109 2759 
L 3109 2228 
L 1259 2228 
L 1259 0 
L 628 0 
L 628 4666 
z
" transform="scale(0.015625)"/>
        <path id="DejaVuSans-62" d="M 3116 1747 
Q 3116 2381 2855 2742 
Q 2594 3103 2138 3103 
Q 1681 3103 1420 2742 
Q 1159 2381 1159 1747 
Q 1159 1113 1420 752 
Q 1681 391 2138 391 
Q 2594 391 2855 752 
Q 3116 1113 3116 1747 
z
M 1159 2969 
Q 1341 3281 1617 3432 
Q 1894 3584 2278 3584 
Q 2916 3584 3314 3078 
Q 3713 2572 3713 1747 
Q 3713 922 3314 415 
Q 2916 -91 2278 -91 
Q 1894 -91 1617 61 
Q 1341 213 1159 525 
L 1159 0 
L 581 0 
L 581 4863 
L 1159 4863 
L 1159 2969 
z
" transform="scale(0.015625)"/>
       </defs>
       <use xlink:href="#DejaVuSans-32"/>
       <use xlink:href="#DejaVuSans-30" x="63.623047"/>
       <use xlink:href="#DejaVuSans-32" x="127.246094"/>
       <use xlink:href="#DejaVuSans-31" x="190.869141"/>
       <use xlink:href="#DejaVuSans-2d" x="254.492188"/>
       <use xlink:href="#DejaVuSans-46" x="290.576172"/>
       <use xlink:href="#DejaVuSans-65" x="342.595703"/>
       <use xlink:href="#DejaVuSans-62" x="404.119141"/>
       <use xlink:href="#DejaVuSans-2d" x="467.595703"/>
       <use xlink:href="#DejaVuSans-30" x="503.679688"/>
       <use xlink:href="#DejaVuSans-31" x="567.302734"/>
      </g>
     </g>
    </g>
    <g id="xtick_5">
     <g id="line2d_5">
      <g>
       <use xlink:href="#m33ae3cfea2" x="188.923353" y="178.56" style="stroke: #000000; stroke-width: 0.8"/>
      </g>
     </g>
     <g id="text_5">
      <!-- 2021-Mar-01 -->
      <g transform="translate(132.786702 223.950596)rotate(-30)scale(0.1 -0.1)">
       <defs>
        <path id="DejaVuSans-4d" d="M 628 4666 
L 1569 4666 
L 2759 1491 
L 3956 4666 
L 4897 4666 
L 4897 0 
L 4281 0 
L 4281 4097 
L 3078 897 
L 2444 897 
L 1241 4097 
L 1241 0 
L 628 0 
L 628 4666 
z
" transform="scale(0.015625)"/>
        <path id="DejaVuSans-72" d="M 2631 2963 
Q 2534 3019 2420 3045 
Q 2306 3072 2169 3072 
Q 1681 3072 1420 2755 
Q 1159 2438 1159 1844 
L 1159 0 
L 581 0 
L 581 3500 
L 1159 3500 
L 1159 2956 
Q 1341 3275 1631 3429 
Q 1922 3584 2338 3584 
Q 2397 3584 2469 3576 
Q 2541 3569 2628 3553 
L 2631 2963 
z
" transform="scale(0.015625)"/>
       </defs>
       <use xlink:href="#DejaVuSans-32"/>
       <use xlink:href="#DejaVuSans-30" x="63.623047"/>
       <use xlink:href="#DejaVuSans-32" x="127.246094"/>
       <use xlink:href="#DejaVuSans-31" x="190.869141"/>
       <use xlink:href="#DejaVuSans-2d" x="254.492188"/>
       <use xlink:href="#DejaVuSans-4d" x="290.576172"/>
       <use xlink:href="#DejaVuSans-61" x="376.855469"/>
       <use xlink:href="#DejaVuSans-72" x="438.134766"/>
       <use xlink:href="#DejaVuSans-2d" x="472.873047"/>
       <use xlink:href="#DejaVuSans-30" x="508.957031"/>
       <use xlink:href="#DejaVuSans-31" x="572.580078"/>
      </g>
     </g>
    </g>
    <g id="xtick_6">
     <g id="line2d_6">
      <g>
       <use xlink:href="#m33ae3cfea2" x="216.817729" y="178.56" style="stroke: #000000; stroke-width: 0.8"/>
      </g>
     </g>
     <g id="text_6">
      <!-- 2021-Apr-01 -->
      <g transform="translate(162.233158 223.054502)rotate(-30)scale(0.1 -0.1)">
       <defs>
        <path id="DejaVuSans-41" d="M 2188 4044 
L 1331 1722 
L 3047 1722 
L 2188 4044 
z
M 1831 4666 
L 2547 4666 
L 4325 0 
L 3669 0 
L 3244 1197 
L 1141 1197 
L 716 0 
L 50 0 
L 1831 4666 
z
" transform="scale(0.015625)"/>
        <path id="DejaVuSans-70" d="M 1159 525 
L 1159 -1331 
L 581 -1331 
L 581 3500 
L 1159 3500 
L 1159 2969 
Q 1341 3281 1617 3432 
Q 1894 3584 2278 3584 
Q 2916 3584 3314 3078 
Q 3713 2572 3713 1747 
Q 3713 922 3314 415 
Q 2916 -91 2278 -91 
Q 1894 -91 1617 61 
Q 1341 213 1159 525 
z
M 3116 1747 
Q 3116 2381 2855 2742 
Q 2594 3103 2138 3103 
Q 1681 3103 1420 2742 
Q 1159 2381 1159 1747 
Q 1159 1113 1420 752 
Q 1681 391 2138 391 
Q 2594 391 2855 752 
Q 3116 1113 3116 1747 
z
" transform="scale(0.015625)"/>
       </defs>
       <use xlink:href="#DejaVuSans-32"/>
       <use xlink:href="#DejaVuSans-30" x="63.623047"/>
       <use xlink:href="#DejaVuSans-32" x="127.246094"/>
       <use xlink:href="#DejaVuSans-31" x="190.869141"/>
       <use xlink:href="#DejaVuSans-2d" x="254.492188"/>
       <use xlink:href="#DejaVuSans-41" x="288.326172"/>
       <use xlink:href="#DejaVuSans-70" x="356.734375"/>
       <use xlink:href="#DejaVuSans-72" x="420.210938"/>
       <use xlink:href="#DejaVuSans-2d" x="454.949219"/>
       <use xlink:href="#DejaVuSans-30" x="491.033203"/>
       <use xlink:href="#DejaVuSans-31" x="554.65625"/>
      </g>
     </g>
    </g>
    <g id="xtick_7">
     <g id="line2d_7">
      <g>
       <use xlink:href="#m33ae3cfea2" x="243.812286" y="178.56" style="stroke: #000000; stroke-width: 0.8"/>
      </g>
     </g>
     <g id="text_7">
      <!-- 2021-May-01 -->
      <g transform="translate(185.709488 225.085752)rotate(-30)scale(0.1 -0.1)">
       <defs>
        <path id="DejaVuSans-79" d="M 2059 -325 
Q 1816 -950 1584 -1140 
Q 1353 -1331 966 -1331 
L 506 -1331 
L 506 -850 
L 844 -850 
Q 1081 -850 1212 -737 
Q 1344 -625 1503 -206 
L 1606 56 
L 191 3500 
L 800 3500 
L 1894 763 
L 2988 3500 
L 3597 3500 
L 2059 -325 
z
" transform="scale(0.015625)"/>
       </defs>
       <use xlink:href="#DejaVuSans-32"/>
       <use xlink:href="#DejaVuSans-30" x="63.623047"/>
       <use xlink:href="#DejaVuSans-32" x="127.246094"/>
       <use xlink:href="#DejaVuSans-31" x="190.869141"/>
       <use xlink:href="#DejaVuSans-2d" x="254.492188"/>
       <use xlink:href="#DejaVuSans-4d" x="290.576172"/>
       <use xlink:href="#DejaVuSans-61" x="376.855469"/>
       <use xlink:href="#DejaVuSans-79" x="438.134766"/>
       <use xlink:href="#DejaVuSans-2d" x="495.564453"/>
       <use xlink:href="#DejaVuSans-30" x="531.648438"/>
       <use xlink:href="#DejaVuSans-31" x="595.271484"/>
      </g>
     </g>
    </g>
    <g id="xtick_8">
     <g id="line2d_8">
      <g>
       <use xlink:href="#m33ae3cfea2" x="271.706663" y="178.56" style="stroke: #000000; stroke-width: 0.8"/>
      </g>
     </g>
     <g id="text_8">
      <!-- 2021-Jun-01 -->
      <g transform="translate(217.338598 222.929502)rotate(-30)scale(0.1 -0.1)">
       <defs>
        <path id="DejaVuSans-75" d="M 544 1381 
L 544 3500 
L 1119 3500 
L 1119 1403 
Q 1119 906 1312 657 
Q 1506 409 1894 409 
Q 2359 409 2629 706 
Q 2900 1003 2900 1516 
L 2900 3500 
L 3475 3500 
L 3475 0 
L 2900 0 
L 2900 538 
Q 2691 219 2414 64 
Q 2138 -91 1772 -91 
Q 1169 -91 856 284 
Q 544 659 544 1381 
z
M 1991 3584 
L 1991 3584 
z
" transform="scale(0.015625)"/>
       </defs>
       <use xlink:href="#DejaVuSans-32"/>
       <use xlink:href="#DejaVuSans-30" x="63.623047"/>
       <use xlink:href="#DejaVuSans-32" x="127.246094"/>
       <use xlink:href="#DejaVuSans-31" x="190.869141"/>
       <use xlink:href="#DejaVuSans-2d" x="254.492188"/>
       <use xlink:href="#DejaVuSans-4a" x="296.201172"/>
       <use xlink:href="#DejaVuSans-75" x="325.693359"/>
       <use xlink:href="#DejaVuSans-6e" x="389.072266"/>
       <use xlink:href="#DejaVuSans-2d" x="452.451172"/>
       <use xlink:href="#DejaVuSans-30" x="488.535156"/>
       <use xlink:href="#DejaVuSans-31" x="552.158203"/>
      </g>
     </g>
    </g>
    <g id="xtick_9">
     <g id="line2d_9">
      <g>
       <use xlink:href="#m33ae3cfea2" x="298.70122" y="178.56" style="stroke: #000000; stroke-width: 0.8"/>
      </g>
     </g>
     <g id="text_9">
      <!-- 2021-Jul-01 -->
      <g transform="translate(247.415665 221.149815)rotate(-30)scale(0.1 -0.1)">
       <defs>
        <path id="DejaVuSans-6c" d="M 603 4863 
L 1178 4863 
L 1178 0 
L 603 0 
L 603 4863 
z
" transform="scale(0.015625)"/>
       </defs>
       <use xlink:href="#DejaVuSans-32"/>
       <use xlink:href="#DejaVuSans-30" x="63.623047"/>
       <use xlink:href="#DejaVuSans-32" x="127.246094"/>
       <use xlink:href="#DejaVuSans-31" x="190.869141"/>
       <use xlink:href="#DejaVuSans-2d" x="254.492188"/>
       <use xlink:href="#DejaVuSans-4a" x="296.201172"/>
       <use xlink:href="#DejaVuSans-75" x="325.693359"/>
       <use xlink:href="#DejaVuSans-6c" x="389.072266"/>
       <use xlink:href="#DejaVuSans-2d" x="416.855469"/>
       <use xlink:href="#DejaVuSans-30" x="452.939453"/>
       <use xlink:href="#DejaVuSans-31" x="516.5625"/>
      </g>
     </g>
    </g>
    <g id="xtick_10">
     <g id="line2d_10">
      <g>
       <use xlink:href="#m33ae3cfea2" x="326.595596" y="178.56" style="stroke: #000000; stroke-width: 0.8"/>
      </g>
     </g>
     <g id="text_10">
      <!-- 2021-Aug-01 -->
      <g transform="translate(269.530675 224.486534)rotate(-30)scale(0.1 -0.1)">
       <defs>
        <path id="DejaVuSans-67" d="M 2906 1791 
Q 2906 2416 2648 2759 
Q 2391 3103 1925 3103 
Q 1463 3103 1205 2759 
Q 947 2416 947 1791 
Q 947 1169 1205 825 
Q 1463 481 1925 481 
Q 2391 481 2648 825 
Q 2906 1169 2906 1791 
z
M 3481 434 
Q 3481 -459 3084 -895 
Q 2688 -1331 1869 -1331 
Q 1566 -1331 1297 -1286 
Q 1028 -1241 775 -1147 
L 775 -588 
Q 1028 -725 1275 -790 
Q 1522 -856 1778 -856 
Q 2344 -856 2625 -561 
Q 2906 -266 2906 331 
L 2906 616 
Q 2728 306 2450 153 
Q 2172 0 1784 0 
Q 1141 0 747 490 
Q 353 981 353 1791 
Q 353 2603 747 3093 
Q 1141 3584 1784 3584 
Q 2172 3584 2450 3431 
Q 2728 3278 2906 2969 
L 2906 3500 
L 3481 3500 
L 3481 434 
z
" transform="scale(0.015625)"/>
       </defs>
       <use xlink:href="#DejaVuSans-32"/>
       <use xlink:href="#DejaVuSans-30" x="63.623047"/>
       <use xlink:href="#DejaVuSans-32" x="127.246094"/>
       <use xlink:href="#DejaVuSans-31" x="190.869141"/>
       <use xlink:href="#DejaVuSans-2d" x="254.492188"/>
       <use xlink:href="#DejaVuSans-41" x="288.326172"/>
       <use xlink:href="#DejaVuSans-75" x="356.734375"/>
       <use xlink:href="#DejaVuSans-67" x="420.113281"/>
       <use xlink:href="#DejaVuSans-2d" x="483.589844"/>
       <use xlink:href="#DejaVuSans-30" x="519.673828"/>
       <use xlink:href="#DejaVuSans-31" x="583.296875"/>
      </g>
     </g>
    </g>
    <g id="xtick_11">
     <g id="line2d_11">
      <g>
       <use xlink:href="#m33ae3cfea2" x="354.489972" y="178.56" style="stroke: #000000; stroke-width: 0.8"/>
      </g>
     </g>
     <g id="text_11">
      <!-- 2021-Sep-01 -->
      <g transform="translate(297.816115 224.260752)rotate(-30)scale(0.1 -0.1)">
       <defs>
        <path id="DejaVuSans-53" d="M 3425 4513 
L 3425 3897 
Q 3066 4069 2747 4153 
Q 2428 4238 2131 4238 
Q 1616 4238 1336 4038 
Q 1056 3838 1056 3469 
Q 1056 3159 1242 3001 
Q 1428 2844 1947 2747 
L 2328 2669 
Q 3034 2534 3370 2195 
Q 3706 1856 3706 1288 
Q 3706 609 3251 259 
Q 2797 -91 1919 -91 
Q 1588 -91 1214 -16 
Q 841 59 441 206 
L 441 856 
Q 825 641 1194 531 
Q 1563 422 1919 422 
Q 2459 422 2753 634 
Q 3047 847 3047 1241 
Q 3047 1584 2836 1778 
Q 2625 1972 2144 2069 
L 1759 2144 
Q 1053 2284 737 2584 
Q 422 2884 422 3419 
Q 422 4038 858 4394 
Q 1294 4750 2059 4750 
Q 2388 4750 2728 4690 
Q 3069 4631 3425 4513 
z
" transform="scale(0.015625)"/>
       </defs>
       <use xlink:href="#DejaVuSans-32"/>
       <use xlink:href="#DejaVuSans-30" x="63.623047"/>
       <use xlink:href="#DejaVuSans-32" x="127.246094"/>
       <use xlink:href="#DejaVuSans-31" x="190.869141"/>
       <use xlink:href="#DejaVuSans-2d" x="254.492188"/>
       <use xlink:href="#DejaVuSans-53" x="290.576172"/>
       <use xlink:href="#DejaVuSans-65" x="354.052734"/>
       <use xlink:href="#DejaVuSans-70" x="415.576172"/>
       <use xlink:href="#DejaVuSans-2d" x="479.052734"/>
       <use xlink:href="#DejaVuSans-30" x="515.136719"/>
       <use xlink:href="#DejaVuSans-31" x="578.759766"/>
      </g>
     </g>
    </g>
    <g id="xtick_12">
     <g id="line2d_12">
      <g>
       <use xlink:href="#m33ae3cfea2" x="381.48453" y="178.56" style="stroke: #000000; stroke-width: 0.8"/>
      </g>
     </g>
     <g id="text_12">
      <!-- 2021-Oct-01 -->
      <g transform="translate(325.922974 223.618565)rotate(-30)scale(0.1 -0.1)">
       <defs>
        <path id="DejaVuSans-4f" d="M 2522 4238 
Q 1834 4238 1429 3725 
Q 1025 3213 1025 2328 
Q 1025 1447 1429 934 
Q 1834 422 2522 422 
Q 3209 422 3611 934 
Q 4013 1447 4013 2328 
Q 4013 3213 3611 3725 
Q 3209 4238 2522 4238 
z
M 2522 4750 
Q 3503 4750 4090 4092 
Q 4678 3434 4678 2328 
Q 4678 1225 4090 567 
Q 3503 -91 2522 -91 
Q 1538 -91 948 565 
Q 359 1222 359 2328 
Q 359 3434 948 4092 
Q 1538 4750 2522 4750 
z
" transform="scale(0.015625)"/>
        <path id="DejaVuSans-74" d="M 1172 4494 
L 1172 3500 
L 2356 3500 
L 2356 3053 
L 1172 3053 
L 1172 1153 
Q 1172 725 1289 603 
Q 1406 481 1766 481 
L 2356 481 
L 2356 0 
L 1766 0 
Q 1100 0 847 248 
Q 594 497 594 1153 
L 594 3053 
L 172 3053 
L 172 3500 
L 594 3500 
L 594 4494 
L 1172 4494 
z
" transform="scale(0.015625)"/>
       </defs>
       <use xlink:href="#DejaVuSans-32"/>
       <use xlink:href="#DejaVuSans-30" x="63.623047"/>
       <use xlink:href="#DejaVuSans-32" x="127.246094"/>
       <use xlink:href="#DejaVuSans-31" x="190.869141"/>
       <use xlink:href="#DejaVuSans-2d" x="254.492188"/>
       <use xlink:href="#DejaVuSans-4f" x="293.326172"/>
       <use xlink:href="#DejaVuSans-63" x="372.037109"/>
       <use xlink:href="#DejaVuSans-74" x="427.017578"/>
       <use xlink:href="#DejaVuSans-2d" x="466.226562"/>
       <use xlink:href="#DejaVuSans-30" x="502.310547"/>
       <use xlink:href="#DejaVuSans-31" x="565.933594"/>
      </g>
     </g>
    </g>
    <g id="xtick_13">
     <g id="line2d_13">
      <g>
       <use xlink:href="#m33ae3cfea2" x="409.378906" y="178.56" style="stroke: #000000; stroke-width: 0.8"/>
      </g>
     </g>
     <g id="text_13">
      <!-- 2021-Nov-01 -->
      <g transform="translate(352.353226 224.463877)rotate(-30)scale(0.1 -0.1)">
       <use xlink:href="#DejaVuSans-32"/>
       <use xlink:href="#DejaVuSans-30" x="63.623047"/>
       <use xlink:href="#DejaVuSans-32" x="127.246094"/>
       <use xlink:href="#DejaVuSans-31" x="190.869141"/>
       <use xlink:href="#DejaVuSans-2d" x="254.492188"/>
       <use xlink:href="#DejaVuSans-4e" x="290.576172"/>
       <use xlink:href="#DejaVuSans-6f" x="365.380859"/>
       <use xlink:href="#DejaVuSans-76" x="426.5625"/>
       <use xlink:href="#DejaVuSans-2d" x="483.117188"/>
       <use xlink:href="#DejaVuSans-30" x="519.201172"/>
       <use xlink:href="#DejaVuSans-31" x="582.824219"/>
      </g>
     </g>
    </g>
    <g id="xtick_14">
     <g id="line2d_14">
      <g>
       <use xlink:href="#m33ae3cfea2" x="436.373464" y="178.56" style="stroke: #000000; stroke-width: 0.8"/>
      </g>
     </g>
     <g id="text_14">
      <!-- 2021-Dec-01 -->
      <g transform="translate(379.265241 224.511534)rotate(-30)scale(0.1 -0.1)">
       <use xlink:href="#DejaVuSans-32"/>
       <use xlink:href="#DejaVuSans-30" x="63.623047"/>
       <use xlink:href="#DejaVuSans-32" x="127.246094"/>
       <use xlink:href="#DejaVuSans-31" x="190.869141"/>
       <use xlink:href="#DejaVuSans-2d" x="254.492188"/>
       <use xlink:href="#DejaVuSans-44" x="290.576172"/>
       <use xlink:href="#DejaVuSans-65" x="367.578125"/>
       <use xlink:href="#DejaVuSans-63" x="429.101562"/>
       <use xlink:href="#DejaVuSans-2d" x="484.082031"/>
       <use xlink:href="#DejaVuSans-30" x="520.166016"/>
       <use xlink:href="#DejaVuSans-31" x="583.789062"/>
      </g>
     </g>
    </g>
    <g id="xtick_15">
     <g id="line2d_15">
      <g>
       <use xlink:href="#m33ae3cfea2" x="464.26784" y="178.56" style="stroke: #000000; stroke-width: 0.8"/>
      </g>
     </g>
     <g id="text_15">
      <!-- 2022-Jan-01 -->
      <g transform="translate(410.0811 222.824815)rotate(-30)scale(0.1 -0.1)">
       <use xlink:href="#DejaVuSans-32"/>
       <use xlink:href="#DejaVuSans-30" x="63.623047"/>
       <use xlink:href="#DejaVuSans-32" x="127.246094"/>
       <use xlink:href="#DejaVuSans-32" x="190.869141"/>
       <use xlink:href="#DejaVuSans-2d" x="254.492188"/>
       <use xlink:href="#DejaVuSans-4a" x="296.201172"/>
       <use xlink:href="#DejaVuSans-61" x="325.693359"/>
       <use xlink:href="#DejaVuSans-6e" x="386.972656"/>
       <use xlink:href="#DejaVuSans-2d" x="450.351562"/>
       <use xlink:href="#DejaVuSans-30" x="486.435547"/>
       <use xlink:href="#DejaVuSans-31" x="550.058594"/>
      </g>
     </g>
    </g>
    <g id="xtick_16">
     <g id="line2d_16">
      <g>
       <use xlink:href="#m33ae3cfea2" x="492.162216" y="178.56" style="stroke: #000000; stroke-width: 0.8"/>
      </g>
     </g>
     <g id="text_16">
      <!-- 2022-Feb-01 -->
      <g transform="translate(436.481582 223.687315)rotate(-30)scale(0.1 -0.1)">
       <use xlink:href="#DejaVuSans-32"/>
       <use xlink:href="#DejaVuSans-30" x="63.623047"/>
       <use xlink:href="#DejaVuSans-32" x="127.246094"/>
       <use xlink:href="#DejaVuSans-32" x="190.869141"/>
       <use xlink:href="#DejaVuSans-2d" x="254.492188"/>
       <use xlink:href="#DejaVuSans-46" x="290.576172"/>
       <use xlink:href="#DejaVuSans-65" x="342.595703"/>
       <use xlink:href="#DejaVuSans-62" x="404.119141"/>
       <use xlink:href="#DejaVuSans-2d" x="467.595703"/>
       <use xlink:href="#DejaVuSans-30" x="503.679688"/>
       <use xlink:href="#DejaVuSans-31" x="567.302734"/>
      </g>
     </g>
    </g>
   </g>
   <g id="matplotlib.axis_2">
    <g id="ytick_1">
     <g id="line2d_17">
      <path d="M 66.053125 170.813471 
L 512.453125 170.813471 
" clip-path="url(#pd90382e822)" style="fill: none; stroke: #b0b0b0; stroke-width: 0.8; stroke-linecap: square"/>
     </g>
     <g id="line2d_18">
      <defs>
       <path id="m3771394a98" d="M 0 0 
L -3.5 0 
" style="stroke: #000000; stroke-width: 0.8"/>
      </defs>
      <g>
       <use xlink:href="#m3771394a98" x="66.053125" y="170.813471" style="stroke: #000000; stroke-width: 0.8"/>
      </g>
     </g>
     <g id="text_17">
      <!-- 0 -->
      <g transform="translate(52.690625 174.61269)scale(0.1 -0.1)">
       <use xlink:href="#DejaVuSans-30"/>
      </g>
     </g>
    </g>
    <g id="ytick_2">
     <g id="line2d_19">
      <path d="M 66.053125 144.212066 
L 512.453125 144.212066 
" clip-path="url(#pd90382e822)" style="fill: none; stroke: #b0b0b0; stroke-width: 0.8; stroke-linecap: square"/>
     </g>
     <g id="line2d_20">
      <g>
       <use xlink:href="#m3771394a98" x="66.053125" y="144.212066" style="stroke: #000000; stroke-width: 0.8"/>
      </g>
     </g>
     <g id="text_18">
      <!-- 20000 -->
      <g transform="translate(27.240625 148.011285)scale(0.1 -0.1)">
       <use xlink:href="#DejaVuSans-32"/>
       <use xlink:href="#DejaVuSans-30" x="63.623047"/>
       <use xlink:href="#DejaVuSans-30" x="127.246094"/>
       <use xlink:href="#DejaVuSans-30" x="190.869141"/>
       <use xlink:href="#DejaVuSans-30" x="254.492188"/>
      </g>
     </g>
    </g>
    <g id="ytick_3">
     <g id="line2d_21">
      <path d="M 66.053125 117.610661 
L 512.453125 117.610661 
" clip-path="url(#pd90382e822)" style="fill: none; stroke: #b0b0b0; stroke-width: 0.8; stroke-linecap: square"/>
     </g>
     <g id="line2d_22">
      <g>
       <use xlink:href="#m3771394a98" x="66.053125" y="117.610661" style="stroke: #000000; stroke-width: 0.8"/>
      </g>
     </g>
     <g id="text_19">
      <!-- 40000 -->
      <g transform="translate(27.240625 121.40988)scale(0.1 -0.1)">
       <defs>
        <path id="DejaVuSans-34" d="M 2419 4116 
L 825 1625 
L 2419 1625 
L 2419 4116 
z
M 2253 4666 
L 3047 4666 
L 3047 1625 
L 3713 1625 
L 3713 1100 
L 3047 1100 
L 3047 0 
L 2419 0 
L 2419 1100 
L 313 1100 
L 313 1709 
L 2253 4666 
z
" transform="scale(0.015625)"/>
       </defs>
       <use xlink:href="#DejaVuSans-34"/>
       <use xlink:href="#DejaVuSans-30" x="63.623047"/>
       <use xlink:href="#DejaVuSans-30" x="127.246094"/>
       <use xlink:href="#DejaVuSans-30" x="190.869141"/>
       <use xlink:href="#DejaVuSans-30" x="254.492188"/>
      </g>
     </g>
    </g>
    <g id="ytick_4">
     <g id="line2d_23">
      <path d="M 66.053125 91.009256 
L 512.453125 91.009256 
" clip-path="url(#pd90382e822)" style="fill: none; stroke: #b0b0b0; stroke-width: 0.8; stroke-linecap: square"/>
     </g>
     <g id="line2d_24">
      <g>
       <use xlink:href="#m3771394a98" x="66.053125" y="91.009256" style="stroke: #000000; stroke-width: 0.8"/>
      </g>
     </g>
     <g id="text_20">
      <!-- 60000 -->
      <g transform="translate(27.240625 94.808475)scale(0.1 -0.1)">
       <defs>
        <path id="DejaVuSans-36" d="M 2113 2584 
Q 1688 2584 1439 2293 
Q 1191 2003 1191 1497 
Q 1191 994 1439 701 
Q 1688 409 2113 409 
Q 2538 409 2786 701 
Q 3034 994 3034 1497 
Q 3034 2003 2786 2293 
Q 2538 2584 2113 2584 
z
M 3366 4563 
L 3366 3988 
Q 3128 4100 2886 4159 
Q 2644 4219 2406 4219 
Q 1781 4219 1451 3797 
Q 1122 3375 1075 2522 
Q 1259 2794 1537 2939 
Q 1816 3084 2150 3084 
Q 2853 3084 3261 2657 
Q 3669 2231 3669 1497 
Q 3669 778 3244 343 
Q 2819 -91 2113 -91 
Q 1303 -91 875 529 
Q 447 1150 447 2328 
Q 447 3434 972 4092 
Q 1497 4750 2381 4750 
Q 2619 4750 2861 4703 
Q 3103 4656 3366 4563 
z
" transform="scale(0.015625)"/>
       </defs>
       <use xlink:href="#DejaVuSans-36"/>
       <use xlink:href="#DejaVuSans-30" x="63.623047"/>
       <use xlink:href="#DejaVuSans-30" x="127.246094"/>
       <use xlink:href="#DejaVuSans-30" x="190.869141"/>
       <use xlink:href="#DejaVuSans-30" x="254.492188"/>
      </g>
     </g>
    </g>
    <g id="ytick_5">
     <g id="line2d_25">
      <path d="M 66.053125 64.407851 
L 512.453125 64.407851 
" clip-path="url(#pd90382e822)" style="fill: none; stroke: #b0b0b0; stroke-width: 0.8; stroke-linecap: square"/>
     </g>
     <g id="line2d_26">
      <g>
       <use xlink:href="#m3771394a98" x="66.053125" y="64.407851" style="stroke: #000000; stroke-width: 0.8"/>
      </g>
     </g>
     <g id="text_21">
      <!-- 80000 -->
      <g transform="translate(27.240625 68.20707)scale(0.1 -0.1)">
       <defs>
        <path id="DejaVuSans-38" d="M 2034 2216 
Q 1584 2216 1326 1975 
Q 1069 1734 1069 1313 
Q 1069 891 1326 650 
Q 1584 409 2034 409 
Q 2484 409 2743 651 
Q 3003 894 3003 1313 
Q 3003 1734 2745 1975 
Q 2488 2216 2034 2216 
z
M 1403 2484 
Q 997 2584 770 2862 
Q 544 3141 544 3541 
Q 544 4100 942 4425 
Q 1341 4750 2034 4750 
Q 2731 4750 3128 4425 
Q 3525 4100 3525 3541 
Q 3525 3141 3298 2862 
Q 3072 2584 2669 2484 
Q 3125 2378 3379 2068 
Q 3634 1759 3634 1313 
Q 3634 634 3220 271 
Q 2806 -91 2034 -91 
Q 1263 -91 848 271 
Q 434 634 434 1313 
Q 434 1759 690 2068 
Q 947 2378 1403 2484 
z
M 1172 3481 
Q 1172 3119 1398 2916 
Q 1625 2713 2034 2713 
Q 2441 2713 2670 2916 
Q 2900 3119 2900 3481 
Q 2900 3844 2670 4047 
Q 2441 4250 2034 4250 
Q 1625 4250 1398 4047 
Q 1172 3844 1172 3481 
z
" transform="scale(0.015625)"/>
       </defs>
       <use xlink:href="#DejaVuSans-38"/>
       <use xlink:href="#DejaVuSans-30" x="63.623047"/>
       <use xlink:href="#DejaVuSans-30" x="127.246094"/>
       <use xlink:href="#DejaVuSans-30" x="190.869141"/>
       <use xlink:href="#DejaVuSans-30" x="254.492188"/>
      </g>
     </g>
    </g>
    <g id="ytick_6">
     <g id="line2d_27">
      <path d="M 66.053125 37.806446 
L 512.453125 37.806446 
" clip-path="url(#pd90382e822)" style="fill: none; stroke: #b0b0b0; stroke-width: 0.8; stroke-linecap: square"/>
     </g>
     <g id="line2d_28">
      <g>
       <use xlink:href="#m3771394a98" x="66.053125" y="37.806446" style="stroke: #000000; stroke-width: 0.8"/>
      </g>
     </g>
     <g id="text_22">
      <!-- 100000 -->
      <g transform="translate(20.878125 41.605665)scale(0.1 -0.1)">
       <use xlink:href="#DejaVuSans-31"/>
       <use xlink:href="#DejaVuSans-30" x="63.623047"/>
       <use xlink:href="#DejaVuSans-30" x="127.246094"/>
       <use xlink:href="#DejaVuSans-30" x="190.869141"/>
       <use xlink:href="#DejaVuSans-30" x="254.492188"/>
       <use xlink:href="#DejaVuSans-30" x="318.115234"/>
      </g>
     </g>
    </g>
    <g id="ytick_7">
     <g id="line2d_29">
      <path d="M 66.053125 11.205041 
L 512.453125 11.205041 
" clip-path="url(#pd90382e822)" style="fill: none; stroke: #b0b0b0; stroke-width: 0.8; stroke-linecap: square"/>
     </g>
     <g id="line2d_30">
      <g>
       <use xlink:href="#m3771394a98" x="66.053125" y="11.205041" style="stroke: #000000; stroke-width: 0.8"/>
      </g>
     </g>
     <g id="text_23">
      <!-- 120000 -->
      <g transform="translate(20.878125 15.00426)scale(0.1 -0.1)">
       <use xlink:href="#DejaVuSans-31"/>
       <use xlink:href="#DejaVuSans-32" x="63.623047"/>
       <use xlink:href="#DejaVuSans-30" x="127.246094"/>
       <use xlink:href="#DejaVuSans-30" x="190.869141"/>
       <use xlink:href="#DejaVuSans-30" x="254.492188"/>
       <use xlink:href="#DejaVuSans-30" x="318.115234"/>
      </g>
     </g>
    </g>
    <g id="text_24">
     <!-- Number of Domains -->
     <g transform="translate(14.798438 142.969844)rotate(-90)scale(0.1 -0.1)">
      <defs>
       <path id="DejaVuSans-6d" d="M 3328 2828 
Q 3544 3216 3844 3400 
Q 4144 3584 4550 3584 
Q 5097 3584 5394 3201 
Q 5691 2819 5691 2113 
L 5691 0 
L 5113 0 
L 5113 2094 
Q 5113 2597 4934 2840 
Q 4756 3084 4391 3084 
Q 3944 3084 3684 2787 
Q 3425 2491 3425 1978 
L 3425 0 
L 2847 0 
L 2847 2094 
Q 2847 2600 2669 2842 
Q 2491 3084 2119 3084 
Q 1678 3084 1418 2786 
Q 1159 2488 1159 1978 
L 1159 0 
L 581 0 
L 581 3500 
L 1159 3500 
L 1159 2956 
Q 1356 3278 1631 3431 
Q 1906 3584 2284 3584 
Q 2666 3584 2933 3390 
Q 3200 3197 3328 2828 
z
" transform="scale(0.015625)"/>
       <path id="DejaVuSans-20" transform="scale(0.015625)"/>
       <path id="DejaVuSans-66" d="M 2375 4863 
L 2375 4384 
L 1825 4384 
Q 1516 4384 1395 4259 
Q 1275 4134 1275 3809 
L 1275 3500 
L 2222 3500 
L 2222 3053 
L 1275 3053 
L 1275 0 
L 697 0 
L 697 3053 
L 147 3053 
L 147 3500 
L 697 3500 
L 697 3744 
Q 697 4328 969 4595 
Q 1241 4863 1831 4863 
L 2375 4863 
z
" transform="scale(0.015625)"/>
       <path id="DejaVuSans-69" d="M 603 3500 
L 1178 3500 
L 1178 0 
L 603 0 
L 603 3500 
z
M 603 4863 
L 1178 4863 
L 1178 4134 
L 603 4134 
L 603 4863 
z
" transform="scale(0.015625)"/>
       <path id="DejaVuSans-73" d="M 2834 3397 
L 2834 2853 
Q 2591 2978 2328 3040 
Q 2066 3103 1784 3103 
Q 1356 3103 1142 2972 
Q 928 2841 928 2578 
Q 928 2378 1081 2264 
Q 1234 2150 1697 2047 
L 1894 2003 
Q 2506 1872 2764 1633 
Q 3022 1394 3022 966 
Q 3022 478 2636 193 
Q 2250 -91 1575 -91 
Q 1294 -91 989 -36 
Q 684 19 347 128 
L 347 722 
Q 666 556 975 473 
Q 1284 391 1588 391 
Q 1994 391 2212 530 
Q 2431 669 2431 922 
Q 2431 1156 2273 1281 
Q 2116 1406 1581 1522 
L 1381 1569 
Q 847 1681 609 1914 
Q 372 2147 372 2553 
Q 372 3047 722 3315 
Q 1072 3584 1716 3584 
Q 2034 3584 2315 3537 
Q 2597 3491 2834 3397 
z
" transform="scale(0.015625)"/>
      </defs>
      <use xlink:href="#DejaVuSans-4e"/>
      <use xlink:href="#DejaVuSans-75" x="74.804688"/>
      <use xlink:href="#DejaVuSans-6d" x="138.183594"/>
      <use xlink:href="#DejaVuSans-62" x="235.595703"/>
      <use xlink:href="#DejaVuSans-65" x="299.072266"/>
      <use xlink:href="#DejaVuSans-72" x="360.595703"/>
      <use xlink:href="#DejaVuSans-20" x="401.708984"/>
      <use xlink:href="#DejaVuSans-6f" x="433.496094"/>
      <use xlink:href="#DejaVuSans-66" x="494.677734"/>
      <use xlink:href="#DejaVuSans-20" x="529.882812"/>
      <use xlink:href="#DejaVuSans-44" x="561.669922"/>
      <use xlink:href="#DejaVuSans-6f" x="638.671875"/>
      <use xlink:href="#DejaVuSans-6d" x="699.853516"/>
      <use xlink:href="#DejaVuSans-61" x="797.265625"/>
      <use xlink:href="#DejaVuSans-69" x="858.544922"/>
      <use xlink:href="#DejaVuSans-6e" x="886.328125"/>
      <use xlink:href="#DejaVuSans-73" x="949.707031"/>
     </g>
    </g>
   </g>
   <g id="line2d_31">
    <path d="M 86.344034 159.295063 
L 95.34222 159.216589 
L 96.242039 159.22989 
L 98.041676 159.04767 
L 102.540769 159.05698 
L 105.240224 159.05299 
L 108.839499 159.103533 
L 112.438773 158.908013 
L 115.138229 158.86811 
L 116.937866 158.85348 
L 120.53714 158.989147 
L 125.036233 158.778996 
L 126.83587 158.881411 
L 129.535326 158.848159 
L 134.034419 158.927964 
L 137.633693 158.889392 
L 139.433331 158.929294 
L 176.325893 158.86013 
L 178.12553 158.85747 
L 180.824986 158.606087 
L 185.324078 158.48771 
L 188.923353 158.356033 
L 189.823171 158.395935 
L 191.622809 158.229677 
L 194.322264 158.147212 
L 201.520813 157.958342 
L 214.118273 157.656416 
L 215.018092 157.693658 
L 216.817729 157.53937 
L 219.517185 157.483507 
L 221.316822 157.5407 
L 229.415189 157.443605 
L 230.315008 157.260055 
L 231.214826 156.954139 
L 234.814101 156.9701 
L 239.313194 156.902267 
L 241.112831 156.855714 
L 242.012649 156.798521 
L 259.109202 156.612311 
L 260.90884 156.467334 
L 269.007207 156.339647 
L 285.203941 156.02974 
L 288.803216 155.882103 
L 290.602853 155.924665 
L 292.40249 155.787668 
L 296.901583 155.794318 
L 301.400676 155.695893 
L 327.495415 155.779687 
L 328.395233 155.925995 
L 330.194871 155.683922 
L 331.094689 155.844861 
L 333.794145 155.936636 
L 334.693964 156.532507 
L 335.593782 156.613641 
L 336.493601 157.036604 
L 338.293238 157.306608 
L 339.193056 157.886519 
L 342.792331 157.890509 
L 387.78326 157.946372 
L 390.482716 157.942382 
L 414.777818 157.837306 
L 422.876185 157.813365 
L 430.074734 157.805384 
L 442.672194 157.849277 
L 444.471831 157.867898 
L 448.970924 157.878538 
L 453.470017 158.084699 
L 454.369835 157.959672 
L 469.666751 157.91046 
L 474.165844 157.877208 
L 478.664937 157.873218 
L 484.063849 157.71893 
L 486.763304 157.749521 
L 489.46276 157.688338 
L 492.162216 157.681688 
L 492.162216 157.681688 
" clip-path="url(#pd90382e822)" style="fill: none; stroke: #1f77b4; stroke-width: 1.5; stroke-linecap: square"/>
   </g>
   <g id="line2d_32">
    <path d="M 86.344034 130.335443 
L 88.143671 130.340764 
L 89.04349 130.473771 
L 90.843127 129.877899 
L 91.742946 129.545382 
L 92.642764 129.445626 
L 94.442401 129.575973 
L 96.242039 129.807405 
L 97.141857 129.220844 
L 98.941494 129.071877 
L 99.841313 129.002713 
L 102.540769 128.920249 
L 103.440587 128.736699 
L 107.93968 128.829804 
L 108.839499 128.671525 
L 109.739317 128.353639 
L 110.639136 128.268514 
L 112.438773 128.349648 
L 115.138229 128.291125 
L 116.038047 128.051713 
L 117.837685 127.977229 
L 118.737503 128.350979 
L 120.53714 128.550489 
L 121.436959 127.904075 
L 122.336777 125.943551 
L 123.236596 125.295807 
L 125.036233 125.15881 
L 126.83587 125.491327 
L 128.635508 125.037774 
L 130.435145 125.237284 
L 132.234782 125.620344 
L 133.134601 125.831825 
L 135.834056 125.640295 
L 138.533512 126.194935 
L 139.433331 126.346563 
L 140.333149 126.125771 
L 141.232968 125.564481 
L 142.132786 125.657586 
L 143.032605 125.556501 
L 143.932424 125.654926 
L 144.832242 125.443445 
L 145.732061 125.525909 
L 148.431516 125.363641 
L 151.130972 125.386252 
L 152.030791 125.525909 
L 153.830428 125.226644 
L 154.730247 125.032453 
L 155.630065 124.997871 
L 163.728432 124.870185 
L 166.427888 124.366088 
L 167.327707 124.056182 
L 168.227525 124.354117 
L 169.127344 124.316875 
L 171.8268 124.733187 
L 173.626437 124.114705 
L 174.526255 124.331506 
L 177.225711 124.415301 
L 179.025348 123.83938 
L 181.724804 123.743615 
L 183.524441 124.010959 
L 184.42426 123.880612 
L 186.223897 123.480261 
L 187.123716 123.723664 
L 188.023534 123.679772 
L 188.923353 123.492232 
L 189.823171 123.655831 
L 192.522627 122.994786 
L 194.322264 122.750053 
L 196.121901 122.980155 
L 197.921539 122.546552 
L 201.520813 122.813896 
L 213.218455 121.547669 
L 215.018092 121.873536 
L 217.717547 121.489146 
L 219.517185 121.615503 
L 221.316822 121.910778 
L 222.21664 121.998563 
L 223.116459 121.458554 
L 224.916096 121.413332 
L 228.515371 121.453234 
L 230.315008 121.292296 
L 232.114645 121.346829 
L 233.014463 121.510427 
L 233.914282 121.499787 
L 237.513556 120.98638 
L 239.313194 121.471855 
L 240.213012 121.830974 
L 242.012649 121.390721 
L 245.611924 121.38274 
L 246.511742 121.499787 
L 250.111017 121.102096 
L 251.910654 121.293626 
L 252.810472 121.56097 
L 253.710291 121.487816 
L 254.610109 121.876197 
L 256.409747 121.696637 
L 257.309565 121.604862 
L 258.209384 121.807033 
L 259.109202 121.584911 
L 260.009021 121.708608 
L 262.708477 120.79884 
L 263.608295 121.255054 
L 264.508114 121.430623 
L 265.407932 121.119387 
L 266.307751 121.036922 
L 268.107388 120.691104 
L 269.907025 120.635241 
L 271.706663 120.842732 
L 272.606481 120.333315 
L 274.406118 119.939614 
L 276.205756 119.817248 
L 277.105574 120.002128 
L 278.005393 120.526175 
L 278.905211 119.768035 
L 279.80503 119.516652 
L 282.504486 119.388965 
L 283.404304 119.415567 
L 284.304123 119.611087 
L 285.203941 119.359704 
L 286.10376 119.241327 
L 288.803216 119.412906 
L 290.602853 119.761385 
L 292.40249 119.334432 
L 295.101946 119.373004 
L 296.901583 119.600446 
L 301.400676 119.335762 
L 327.495415 119.907693 
L 328.395233 120.117844 
L 330.194871 119.740104 
L 331.094689 119.567195 
L 332.894326 119.510002 
L 334.693964 119.871781 
L 337.393419 119.212066 
L 338.293238 119.498031 
L 340.992694 119.813258 
L 341.892512 120.23223 
L 342.792331 119.311821 
L 358.989065 119.064428 
L 359.888884 119.218716 
L 361.688521 118.836986 
L 364.387977 118.934081 
L 366.187614 119.206746 
L 367.987251 118.840976 
L 368.88707 118.844966 
L 369.786888 118.71595 
L 371.586526 118.899499 
L 372.486344 119.060438 
L 375.1858 118.697329 
L 378.785074 118.785113 
L 382.384349 118.102787 
L 385.083804 118.34353 
L 385.983623 118.128059 
L 386.883441 118.15466 
L 387.78326 117.883326 
L 388.683079 117.730368 
L 389.582897 117.760959 
L 391.382534 118.142689 
L 392.282353 117.95914 
L 393.182172 117.58273 
L 394.981809 117.614651 
L 396.781446 117.739678 
L 397.681264 117.932538 
L 399.480902 117.608001 
L 400.38072 117.691796 
L 401.280539 117.5947 
L 402.180357 117.811502 
L 403.979995 118.065545 
L 405.779632 117.437752 
L 406.67945 117.334007 
L 409.378906 117.461693 
L 410.278725 117.618642 
L 412.97818 117.02011 
L 414.777818 117.133166 
L 416.577455 117.443072 
L 417.477273 117.377899 
L 420.176729 117.004149 
L 421.976366 117.223611 
L 422.876185 116.954937 
L 423.776003 116.82592 
L 425.575641 116.323153 
L 427.375278 116.309853 
L 428.275096 116.543945 
L 429.174915 116.976218 
L 430.074734 116.887103 
L 430.974552 116.63971 
L 431.874371 116.64636 
L 433.674008 116.913704 
L 434.573826 117.01612 
L 435.473645 117.266173 
L 437.273282 116.932325 
L 439.972738 116.938976 
L 441.772375 117.258193 
L 442.672194 117.19967 
L 443.572012 116.964247 
L 445.371649 116.933655 
L 448.071105 117.472334 
L 448.970924 117.179718 
L 449.870742 117.0108 
L 450.770561 117.01745 
L 454.369835 117.525537 
L 456.169473 117.20632 
L 457.069291 117.243562 
L 458.868928 117.685145 
L 461.568384 118.037614 
L 462.468203 117.916577 
L 466.967296 118.761172 
L 467.867114 118.666737 
L 469.666751 118.269046 
L 474.165844 118.476537 
L 475.065663 118.203873 
L 477.765119 117.95781 
L 479.564756 118.170621 
L 482.264211 117.657214 
L 483.16403 117.601351 
L 484.063849 117.421791 
L 485.863486 117.384549 
L 488.562942 116.680942 
L 490.362579 116.516013 
L 491.262397 116.664981 
L 492.162216 116.607788 
L 492.162216 116.607788 
" clip-path="url(#pd90382e822)" style="fill: none; stroke: #ff7f0e; stroke-width: 1.5; stroke-linecap: square"/>
   </g>
   <g id="line2d_33">
    <path d="M 86.344034 138.257342 
L 87.243853 138.396999 
L 89.04349 138.201479 
L 90.843127 137.894233 
L 92.642764 137.716003 
L 95.34222 137.834379 
L 96.242039 137.693392 
L 99.841313 137.608267 
L 105.240224 137.419398 
L 107.039862 137.581666 
L 108.839499 137.692062 
L 111.538954 137.427378 
L 114.23841 137.730634 
L 115.138229 137.798468 
L 117.837685 137.513832 
L 118.737503 137.729304 
L 122.336777 137.545754 
L 125.036233 137.430038 
L 126.83587 137.382156 
L 129.535326 137.247818 
L 132.234782 137.479251 
L 134.034419 137.404767 
L 137.633693 137.46462 
L 138.533512 137.544424 
L 140.333149 137.383486 
L 141.232968 137.175995 
L 143.932424 137.157374 
L 144.832242 137.164024 
L 145.732061 137.017716 
L 148.431516 136.902 
L 152.930609 136.848797 
L 155.630065 136.682539 
L 164.628251 136.856778 
L 167.327707 136.723771 
L 168.227525 137.08023 
L 170.027162 137.011066 
L 172.726618 136.963183 
L 173.626437 136.832837 
L 176.325893 136.927272 
L 183.524441 136.945892 
L 185.324078 137.025697 
L 186.223897 136.646627 
L 192.522627 136.290168 
L 200.620994 135.911098 
L 201.520813 135.895137 
L 213.218455 135.216801 
L 214.118273 135.303256 
L 215.91791 135.235422 
L 216.817729 135.432273 
L 217.717547 135.262024 
L 223.116459 135.271334 
L 224.016278 135.142317 
L 224.916096 135.176899 
L 233.014463 135.039902 
L 233.914282 135.101085 
L 234.814101 134.949457 
L 238.413375 135.057193 
L 239.313194 135.256703 
L 240.213012 135.049212 
L 242.012649 134.933496 
L 249.211198 134.974728 
L 250.111017 134.849702 
L 251.010835 135.055863 
L 251.910654 135.135667 
L 252.810472 135.042562 
L 253.710291 134.795169 
L 254.610109 134.840391 
L 255.509928 134.733986 
L 256.409747 134.832411 
L 258.209384 134.728665 
L 259.109202 134.773888 
L 262.708477 134.543786 
L 266.307751 134.553096 
L 267.20757 134.831081 
L 269.007207 134.453341 
L 272.606481 134.513194 
L 273.5063 134.352256 
L 274.406118 134.494573 
L 276.205756 134.414769 
L 277.105574 134.43339 
L 279.80503 134.095552 
L 280.704848 134.170036 
L 281.604667 134.035699 
L 284.304123 134.041019 
L 287.003579 133.857469 
L 288.803216 133.946584 
L 290.602853 133.858799 
L 292.40249 133.814907 
L 295.101946 133.250957 
L 296.901583 133.090019 
L 301.400676 132.91711 
L 328.395233 132.676367 
L 331.994508 132.575282 
L 333.794145 132.690998 
L 336.493601 132.499468 
L 341.892512 132.439614 
L 342.792331 132.451585 
L 363.488158 131.302404 
L 366.187614 131.387529 
L 367.087433 131.311715 
L 367.987251 131.448712 
L 369.786888 131.298414 
L 370.686707 131.390189 
L 373.386163 131.21595 
L 375.1858 131.117525 
L 377.885256 131.271813 
L 379.684893 131.198659 
L 380.584711 131.255852 
L 382.384349 131.121515 
L 385.983623 131.203979 
L 386.883441 131.3995 
L 388.683079 131.041711 
L 390.482716 131.016439 
L 391.382534 131.03373 
L 392.282353 131.202649 
L 394.08199 130.894073 
L 395.881627 131.02176 
L 396.781446 130.944616 
L 397.681264 131.016439 
L 399.480902 130.891413 
L 402.180357 130.983188 
L 404.879813 130.991168 
L 405.779632 130.886092 
L 407.579269 130.900723 
L 409.378906 130.882102 
L 410.278725 130.981857 
L 413.877999 130.852841 
L 417.477273 130.896733 
L 423.776003 130.721164 
L 424.675822 130.916684 
L 425.575641 130.686582 
L 429.174915 130.689242 
L 444.471831 130.46579 
L 446.271468 130.504362 
L 449.870742 130.65067 
L 450.770561 130.347414 
L 457.96911 130.521653 
L 458.868928 130.572196 
L 460.668565 130.826239 
L 466.067477 130.892743 
L 467.867114 131.077623 
L 469.666751 131.069642 
L 473.266026 131.057671 
L 475.965481 130.922004 
L 477.765119 130.854171 
L 478.664937 130.904713 
L 479.564756 130.779687 
L 482.264211 130.701213 
L 484.063849 130.524313 
L 484.963667 130.327463 
L 485.863486 130.392636 
L 486.763304 130.218397 
L 487.663123 129.768833 
L 492.162216 129.50947 
L 492.162216 129.50947 
" clip-path="url(#pd90382e822)" style="fill: none; stroke: #2ca02c; stroke-width: 1.5; stroke-linecap: square"/>
   </g>
   <g id="line2d_34">
    <path d="M 86.344034 62.165353 
L 87.243853 62.165353 
L 89.943308 61.381941 
L 91.742946 60.349807 
L 92.642764 60.328526 
L 93.542583 60.454882 
L 94.442401 60.367098 
L 95.34222 60.778089 
L 96.242039 60.60917 
L 97.141857 59.930835 
L 98.041676 59.787187 
L 98.941494 59.804478 
L 99.841313 59.667481 
L 102.540769 59.418758 
L 103.440587 59.013086 
L 107.93968 59.313682 
L 108.839499 59.193976 
L 109.739317 58.587464 
L 112.438773 58.167162 
L 113.338592 58.390613 
L 114.23841 58.487708 
L 115.138229 57.886517 
L 116.038047 57.820013 
L 116.937866 57.495476 
L 117.837685 57.439613 
L 118.737503 57.890507 
L 119.637322 58.072727 
L 120.53714 57.964991 
L 121.436959 57.669715 
L 122.336777 57.225472 
L 123.236596 56.962118 
L 126.83587 56.793199 
L 128.635508 56.351616 
L 131.334963 56.468662 
L 133.134601 56.579058 
L 134.034419 56.395508 
L 135.834056 56.25452 
L 138.533512 56.665512 
L 139.433331 56.61497 
L 140.333149 56.185357 
L 141.232968 55.440517 
L 142.132786 55.163863 
L 143.032605 55.175834 
L 143.932424 55.358053 
L 144.832242 54.951052 
L 145.732061 54.952382 
L 148.431516 54.134389 
L 153.830428 53.361618 
L 154.730247 52.785697 
L 163.728432 52.65535 
L 164.628251 52.783037 
L 166.427888 52.184506 
L 167.327707 51.624546 
L 170.027162 51.922482 
L 170.926981 51.752233 
L 171.8268 52.586187 
L 173.626437 51.865289 
L 175.426074 52.149924 
L 178.12553 51.722971 
L 179.925167 51.375823 
L 180.824986 51.381143 
L 181.724804 51.092518 
L 182.624623 51.399764 
L 183.524441 51.357202 
L 184.42426 51.043305 
L 185.324078 50.608372 
L 187.123716 50.212011 
L 188.923353 50.258564 
L 189.823171 50.160139 
L 194.322264 48.267449 
L 195.222083 48.179664 
L 198.821357 47.404233 
L 199.721176 46.59156 
L 201.520813 46.877525 
L 213.218455 44.612416 
L 214.118273 44.629706 
L 215.018092 44.427536 
L 215.91791 44.355712 
L 216.817729 43.648115 
L 217.717547 43.348849 
L 218.617366 43.37545 
L 219.517185 43.559 
L 220.417003 43.402052 
L 221.316822 44.138911 
L 222.21664 44.148221 
L 223.116459 43.642794 
L 224.016278 43.37678 
L 224.916096 43.487176 
L 227.615552 43.352839 
L 228.515371 43.424663 
L 229.415189 43.077515 
L 230.315008 43.048253 
L 231.214826 43.273035 
L 232.114645 43.219832 
L 233.014463 43.383431 
L 233.914282 43.170619 
L 234.814101 43.086825 
L 237.513556 42.586719 
L 238.413375 42.850072 
L 240.213012 43.062884 
L 241.112831 42.635931 
L 246.511742 42.435091 
L 248.311379 41.498721 
L 251.910654 41.087729 
L 252.810472 41.234037 
L 253.710291 41.148913 
L 254.610109 41.66631 
L 255.509928 41.315171 
L 256.409747 41.253988 
L 258.209384 41.389655 
L 259.109202 40.856297 
L 260.009021 40.846987 
L 260.90884 39.739038 
L 261.808658 39.633963 
L 262.708477 39.325386 
L 263.608295 39.825493 
L 264.508114 39.893326 
L 265.407932 39.445093 
L 267.20757 39.220311 
L 268.107388 38.765427 
L 270.806844 38.756116 
L 271.706663 38.974248 
L 272.606481 38.82395 
L 273.5063 38.468821 
L 274.406118 38.402318 
L 275.305937 38.017927 
L 276.205756 38.0698 
L 277.105574 37.763884 
L 278.005393 38.402318 
L 278.905211 37.259787 
L 279.80503 36.843475 
L 280.704848 36.255584 
L 281.604667 35.872524 
L 284.304123 35.833952 
L 287.003579 37.324961 
L 287.903397 37.175993 
L 289.703034 37.112149 
L 290.602853 37.054956 
L 292.40249 36.606723 
L 295.101946 36.485686 
L 296.901583 36.594752 
L 300.500857 36.012181 
L 301.400676 36.106616 
L 326.595596 35.595869 
L 327.495415 35.949668 
L 328.395233 35.629121 
L 329.295052 35.469513 
L 331.994508 34.636889 
L 332.894326 34.517182 
L 333.794145 34.590336 
L 334.693964 34.050328 
L 335.593782 33.929291 
L 336.493601 33.302828 
L 337.393419 33.016863 
L 338.293238 32.999572 
L 339.193056 32.463554 
L 340.092875 32.687006 
L 340.992694 32.706957 
L 341.892512 33.242975 
L 342.792331 32.01 
L 358.989065 30.822247 
L 359.888884 30.900721 
L 363.488158 30.155882 
L 364.387977 30.205095 
L 365.287795 30.379334 
L 367.087433 30.11066 
L 367.987251 29.948391 
L 369.786888 29.419023 
L 371.586526 29.395082 
L 372.486344 29.585282 
L 373.386163 29.270055 
L 375.1858 28.956159 
L 378.785074 28.894975 
L 379.684893 28.531866 
L 380.584711 28.440091 
L 381.48453 27.974567 
L 382.384349 27.828259 
L 383.284167 27.886782 
L 385.983623 27.737814 
L 386.883441 28.272503 
L 387.78326 27.151253 
L 389.582897 26.979674 
L 392.282353 27.369385 
L 394.08199 26.950413 
L 394.981809 26.981004 
L 395.881627 27.219087 
L 396.781446 26.966374 
L 397.681264 27.108691 
L 398.581083 27.09406 
L 399.480902 26.711 
L 400.38072 27.268299 
L 401.280539 27.128642 
L 402.180357 27.159234 
L 403.080176 27.389336 
L 403.979995 24.995209 
L 405.779632 24.036229 
L 407.579269 23.445678 
L 409.378906 23.598636 
L 410.278725 23.67179 
L 413.877999 22.957542 
L 416.577455 23.230206 
L 420.176729 22.457435 
L 422.876185 22.614384 
L 423.776003 22.436154 
L 424.675822 22.123588 
L 425.575641 22.120928 
L 426.475459 22.253935 
L 428.275096 22.252605 
L 429.174915 22.405563 
L 430.074734 22.212702 
L 430.974552 21.898806 
L 431.874371 20.65918 
L 432.774189 20.310702 
L 434.573826 20.64588 
L 435.473645 20.547454 
L 437.273282 20.048678 
L 439.972738 19.70286 
L 440.872557 19.794635 
L 441.772375 19.752072 
L 442.672194 19.597784 
L 443.572012 19.091028 
L 446.271468 18.971321 
L 448.071105 19.412905 
L 449.870742 18.914128 
L 450.770561 18.798412 
L 453.470017 18.928759 
L 454.369835 19.124279 
L 455.269654 18.660085 
L 457.069291 18.484516 
L 457.96911 18.705307 
L 458.868928 19.661628 
L 459.768747 19.468768 
L 460.668565 19.13625 
L 461.568384 19.222705 
L 462.468203 19.112309 
L 465.167658 19.158861 
L 466.067477 19.435516 
L 467.867114 19.496699 
L 468.766933 19.048465 
L 469.666751 19.197433 
L 470.56657 18.512447 
L 471.466388 18.531068 
L 472.366207 18.699987 
L 474.165844 18.57496 
L 475.965481 17.834111 
L 476.8653 17.800859 
L 478.664937 18.094805 
L 479.564756 17.791549 
L 480.464574 17.226269 
L 481.364393 16.824588 
L 482.264211 16.86715 
L 483.16403 16.426897 
L 484.063849 16.30187 
L 484.963667 16.30187 
L 486.763304 15.938761 
L 488.562942 15.051604 
L 489.46276 15.143379 
L 490.362579 15.032983 
L 492.162216 14.989091 
L 492.162216 14.989091 
" clip-path="url(#pd90382e822)" style="fill: none; stroke: #d62728; stroke-width: 1.5; stroke-linecap: square"/>
   </g>
   <g id="line2d_35">
    <path d="M 86.344034 170.765589 
L 125.036233 170.761599 
L 196.121901 170.765589 
L 341.892512 170.765589 
L 359.888884 170.768249 
L 396.781446 170.766919 
L 466.067477 170.758938 
L 492.162216 170.766919 
L 492.162216 170.766919 
" clip-path="url(#pd90382e822)" style="fill: none; stroke: #9467bd; stroke-width: 1.5; stroke-linecap: square"/>
   </g>
   <g id="line2d_36">
    <path d="M 86.344034 169.144233 
L 155.630065 169.136253 
L 492.162216 169.064429 
L 492.162216 169.064429 
" clip-path="url(#pd90382e822)" style="fill: none; stroke: #8c564b; stroke-width: 1.5; stroke-linecap: square"/>
   </g>
   <g id="patch_3">
    <path d="M 66.053125 178.56 
L 66.053125 7.2 
" style="fill: none; stroke: #000000; stroke-width: 0.8; stroke-linejoin: miter; stroke-linecap: square"/>
   </g>
   <g id="patch_4">
    <path d="M 512.453125 178.56 
L 512.453125 7.2 
" style="fill: none; stroke: #000000; stroke-width: 0.8; stroke-linejoin: miter; stroke-linecap: square"/>
   </g>
   <g id="patch_5">
    <path d="M 66.053125 178.56 
L 512.453125 178.56 
" style="fill: none; stroke: #000000; stroke-width: 0.8; stroke-linejoin: miter; stroke-linecap: square"/>
   </g>
   <g id="patch_6">
    <path d="M 66.053125 7.2 
L 512.453125 7.2 
" style="fill: none; stroke: #000000; stroke-width: 0.8; stroke-linejoin: miter; stroke-linecap: square"/>
   </g>
   <g id="legend_1">
    <g id="patch_7">
     <path d="M 277.508125 99.261188 
L 479.558125 99.261188 
Q 481.558125 99.261188 481.558125 97.261188 
L 481.558125 54.226812 
Q 481.558125 52.226812 479.558125 52.226812 
L 277.508125 52.226812 
Q 275.508125 52.226812 275.508125 54.226812 
L 275.508125 97.261188 
Q 275.508125 99.261188 277.508125 99.261188 
z
" style="fill: #ffffff; opacity: 0.8; stroke: #cccccc; stroke-linejoin: miter"/>
    </g>
    <g id="line2d_37">
     <path d="M 279.508125 60.32525 
L 289.508125 60.32525 
L 299.508125 60.32525 
" style="fill: none; stroke: #1f77b4; stroke-width: 1.5; stroke-linecap: square"/>
    </g>
    <g id="text_25">
     <!-- 0 -->
     <g transform="translate(307.508125 63.82525)scale(0.1 -0.1)">
      <use xlink:href="#DejaVuSans-30"/>
     </g>
    </g>
    <g id="line2d_38">
     <path d="M 279.508125 75.003375 
L 289.508125 75.003375 
L 299.508125 75.003375 
" style="fill: none; stroke: #ff7f0e; stroke-width: 1.5; stroke-linecap: square"/>
    </g>
    <g id="text_26">
     <!-- Up to 6 Months -->
     <g transform="translate(307.508125 78.503375)scale(0.1 -0.1)">
      <defs>
       <path id="DejaVuSans-55" d="M 556 4666 
L 1191 4666 
L 1191 1831 
Q 1191 1081 1462 751 
Q 1734 422 2344 422 
Q 2950 422 3222 751 
Q 3494 1081 3494 1831 
L 3494 4666 
L 4128 4666 
L 4128 1753 
Q 4128 841 3676 375 
Q 3225 -91 2344 -91 
Q 1459 -91 1007 375 
Q 556 841 556 1753 
L 556 4666 
z
" transform="scale(0.015625)"/>
       <path id="DejaVuSans-68" d="M 3513 2113 
L 3513 0 
L 2938 0 
L 2938 2094 
Q 2938 2591 2744 2837 
Q 2550 3084 2163 3084 
Q 1697 3084 1428 2787 
Q 1159 2491 1159 1978 
L 1159 0 
L 581 0 
L 581 4863 
L 1159 4863 
L 1159 2956 
Q 1366 3272 1645 3428 
Q 1925 3584 2291 3584 
Q 2894 3584 3203 3211 
Q 3513 2838 3513 2113 
z
" transform="scale(0.015625)"/>
      </defs>
      <use xlink:href="#DejaVuSans-55"/>
      <use xlink:href="#DejaVuSans-70" x="73.193359"/>
      <use xlink:href="#DejaVuSans-20" x="136.669922"/>
      <use xlink:href="#DejaVuSans-74" x="168.457031"/>
      <use xlink:href="#DejaVuSans-6f" x="207.666016"/>
      <use xlink:href="#DejaVuSans-20" x="268.847656"/>
      <use xlink:href="#DejaVuSans-36" x="300.634766"/>
      <use xlink:href="#DejaVuSans-20" x="364.257812"/>
      <use xlink:href="#DejaVuSans-4d" x="396.044922"/>
      <use xlink:href="#DejaVuSans-6f" x="482.324219"/>
      <use xlink:href="#DejaVuSans-6e" x="543.505859"/>
      <use xlink:href="#DejaVuSans-74" x="606.884766"/>
      <use xlink:href="#DejaVuSans-68" x="646.09375"/>
      <use xlink:href="#DejaVuSans-73" x="709.472656"/>
     </g>
    </g>
    <g id="line2d_39">
     <path d="M 279.508125 89.6815 
L 289.508125 89.6815 
L 299.508125 89.6815 
" style="fill: none; stroke: #2ca02c; stroke-width: 1.5; stroke-linecap: square"/>
    </g>
    <g id="text_27">
     <!-- 6-12 Months -->
     <g transform="translate(307.508125 93.1815)scale(0.1 -0.1)">
      <use xlink:href="#DejaVuSans-36"/>
      <use xlink:href="#DejaVuSans-2d" x="63.623047"/>
      <use xlink:href="#DejaVuSans-31" x="99.707031"/>
      <use xlink:href="#DejaVuSans-32" x="163.330078"/>
      <use xlink:href="#DejaVuSans-20" x="226.953125"/>
      <use xlink:href="#DejaVuSans-4d" x="258.740234"/>
      <use xlink:href="#DejaVuSans-6f" x="345.019531"/>
      <use xlink:href="#DejaVuSans-6e" x="406.201172"/>
      <use xlink:href="#DejaVuSans-74" x="469.580078"/>
      <use xlink:href="#DejaVuSans-68" x="508.789062"/>
      <use xlink:href="#DejaVuSans-73" x="572.167969"/>
     </g>
    </g>
    <g id="line2d_40">
     <path d="M 403.662812 60.32525 
L 413.662812 60.32525 
L 423.662812 60.32525 
" style="fill: none; stroke: #d62728; stroke-width: 1.5; stroke-linecap: square"/>
    </g>
    <g id="text_28">
     <!-- 1-3 Years -->
     <g transform="translate(431.662812 63.82525)scale(0.1 -0.1)">
      <defs>
       <path id="DejaVuSans-33" d="M 2597 2516 
Q 3050 2419 3304 2112 
Q 3559 1806 3559 1356 
Q 3559 666 3084 287 
Q 2609 -91 1734 -91 
Q 1441 -91 1130 -33 
Q 819 25 488 141 
L 488 750 
Q 750 597 1062 519 
Q 1375 441 1716 441 
Q 2309 441 2620 675 
Q 2931 909 2931 1356 
Q 2931 1769 2642 2001 
Q 2353 2234 1838 2234 
L 1294 2234 
L 1294 2753 
L 1863 2753 
Q 2328 2753 2575 2939 
Q 2822 3125 2822 3475 
Q 2822 3834 2567 4026 
Q 2313 4219 1838 4219 
Q 1578 4219 1281 4162 
Q 984 4106 628 3988 
L 628 4550 
Q 988 4650 1302 4700 
Q 1616 4750 1894 4750 
Q 2613 4750 3031 4423 
Q 3450 4097 3450 3541 
Q 3450 3153 3228 2886 
Q 3006 2619 2597 2516 
z
" transform="scale(0.015625)"/>
       <path id="DejaVuSans-59" d="M -13 4666 
L 666 4666 
L 1959 2747 
L 3244 4666 
L 3922 4666 
L 2272 2222 
L 2272 0 
L 1638 0 
L 1638 2222 
L -13 4666 
z
" transform="scale(0.015625)"/>
      </defs>
      <use xlink:href="#DejaVuSans-31"/>
      <use xlink:href="#DejaVuSans-2d" x="63.623047"/>
      <use xlink:href="#DejaVuSans-33" x="99.707031"/>
      <use xlink:href="#DejaVuSans-20" x="163.330078"/>
      <use xlink:href="#DejaVuSans-59" x="195.117188"/>
      <use xlink:href="#DejaVuSans-65" x="242.951172"/>
      <use xlink:href="#DejaVuSans-61" x="304.474609"/>
      <use xlink:href="#DejaVuSans-72" x="365.753906"/>
      <use xlink:href="#DejaVuSans-73" x="406.867188"/>
     </g>
    </g>
    <g id="line2d_41">
     <path d="M 403.662812 75.003375 
L 413.662812 75.003375 
L 423.662812 75.003375 
" style="fill: none; stroke: #9467bd; stroke-width: 1.5; stroke-linecap: square"/>
    </g>
    <g id="text_29">
     <!-- 3-5 Years -->
     <g transform="translate(431.662812 78.503375)scale(0.1 -0.1)">
      <defs>
       <path id="DejaVuSans-35" d="M 691 4666 
L 3169 4666 
L 3169 4134 
L 1269 4134 
L 1269 2991 
Q 1406 3038 1543 3061 
Q 1681 3084 1819 3084 
Q 2600 3084 3056 2656 
Q 3513 2228 3513 1497 
Q 3513 744 3044 326 
Q 2575 -91 1722 -91 
Q 1428 -91 1123 -41 
Q 819 9 494 109 
L 494 744 
Q 775 591 1075 516 
Q 1375 441 1709 441 
Q 2250 441 2565 725 
Q 2881 1009 2881 1497 
Q 2881 1984 2565 2268 
Q 2250 2553 1709 2553 
Q 1456 2553 1204 2497 
Q 953 2441 691 2322 
L 691 4666 
z
" transform="scale(0.015625)"/>
      </defs>
      <use xlink:href="#DejaVuSans-33"/>
      <use xlink:href="#DejaVuSans-2d" x="63.623047"/>
      <use xlink:href="#DejaVuSans-35" x="99.707031"/>
      <use xlink:href="#DejaVuSans-20" x="163.330078"/>
      <use xlink:href="#DejaVuSans-59" x="195.117188"/>
      <use xlink:href="#DejaVuSans-65" x="242.951172"/>
      <use xlink:href="#DejaVuSans-61" x="304.474609"/>
      <use xlink:href="#DejaVuSans-72" x="365.753906"/>
      <use xlink:href="#DejaVuSans-73" x="406.867188"/>
     </g>
    </g>
    <g id="line2d_42">
     <path d="M 403.662812 89.6815 
L 413.662812 89.6815 
L 423.662812 89.6815 
" style="fill: none; stroke: #8c564b; stroke-width: 1.5; stroke-linecap: square"/>
    </g>
    <g id="text_30">
     <!-- 5+ Years -->
     <g transform="translate(431.662812 93.1815)scale(0.1 -0.1)">
      <defs>
       <path id="DejaVuSans-2b" d="M 2944 4013 
L 2944 2272 
L 4684 2272 
L 4684 1741 
L 2944 1741 
L 2944 0 
L 2419 0 
L 2419 1741 
L 678 1741 
L 678 2272 
L 2419 2272 
L 2419 4013 
L 2944 4013 
z
" transform="scale(0.015625)"/>
      </defs>
      <use xlink:href="#DejaVuSans-35"/>
      <use xlink:href="#DejaVuSans-2b" x="63.623047"/>
      <use xlink:href="#DejaVuSans-20" x="147.412109"/>
      <use xlink:href="#DejaVuSans-59" x="179.199219"/>
      <use xlink:href="#DejaVuSans-65" x="227.033203"/>
      <use xlink:href="#DejaVuSans-61" x="288.556641"/>
      <use xlink:href="#DejaVuSans-72" x="349.835938"/>
      <use xlink:href="#DejaVuSans-73" x="390.949219"/>
     </g>
    </g>
   </g>
  </g>
 </g>
 <defs>
  <clipPath id="pd90382e822">
   <rect x="66.053125" y="7.2" width="446.4" height="171.36"/>
  </clipPath>
 </defs>
</svg>
