<?xml version="1.0" encoding="utf-8" standalone="no"?>
<!DOCTYPE svg PUBLIC "-//W3C//DTD SVG 1.1//EN"
  "http://www.w3.org/Graphics/SVG/1.1/DTD/svg11.dtd">
<svg xmlns:xlink="http://www.w3.org/1999/xlink" width="506.732901pt" height="234.111938pt" viewBox="0 0 506.732901 234.111938" xmlns="http://www.w3.org/2000/svg" version="1.1">
 <metadata>
  <rdf:RDF xmlns:dc="http://purl.org/dc/elements/1.1/" xmlns:cc="http://creativecommons.org/ns#" xmlns:rdf="http://www.w3.org/1999/02/22-rdf-syntax-ns#">
   <cc:Work>
    <dc:type rdf:resource="http://purl.org/dc/dcmitype/StillImage"/>
    <dc:date>2022-02-13T18:53:38.912132</dc:date>
    <dc:format>image/svg+xml</dc:format>
    <dc:creator>
     <cc:Agent>
      <dc:title>Matplotlib v3.5.1, https://matplotlib.org/</dc:title>
     </cc:Agent>
    </dc:creator>
   </cc:Work>
  </rdf:RDF>
 </metadata>
 <defs>
  <style type="text/css">*{stroke-linejoin: round; stroke-linecap: butt}</style>
 </defs>
 <g id="figure_1">
  <g id="patch_1">
   <path d="M 0 234.111938 
L 506.732901 234.111938 
L 506.732901 0 
L 0 0 
z
" style="fill: #ffffff"/>
  </g>
  <g id="axes_1">
   <g id="patch_2">
    <path d="M 53.132901 178.585123 
L 499.532901 178.585123 
L 499.532901 7.225123 
L 53.132901 7.225123 
z
" style="fill: #ffffff"/>
   </g>
   <g id="matplotlib.axis_1">
    <g id="xtick_1">
     <g id="line2d_1">
      <defs>
       <path id="m708e13a245" d="M 0 0 
L 0 3.5 
" style="stroke: #000000; stroke-width: 0.8"/>
      </defs>
      <g>
       <use xlink:href="#m708e13a245" x="68.024899" y="178.585123" style="stroke: #000000; stroke-width: 0.8"/>
      </g>
     </g>
     <g id="text_1">
      <!-- 2020-Nov-01 -->
      <g transform="translate(10.999219 224.489001)rotate(-30)scale(0.1 -0.1)">
       <defs>
        <path id="DejaVuSans-32" d="M 1228 531 
L 3431 531 
L 3431 0 
L 469 0 
L 469 531 
Q 828 903 1448 1529 
Q 2069 2156 2228 2338 
Q 2531 2678 2651 2914 
Q 2772 3150 2772 3378 
Q 2772 3750 2511 3984 
Q 2250 4219 1831 4219 
Q 1534 4219 1204 4116 
Q 875 4013 500 3803 
L 500 4441 
Q 881 4594 1212 4672 
Q 1544 4750 1819 4750 
Q 2544 4750 2975 4387 
Q 3406 4025 3406 3419 
Q 3406 3131 3298 2873 
Q 3191 2616 2906 2266 
Q 2828 2175 2409 1742 
Q 1991 1309 1228 531 
z
" transform="scale(0.015625)"/>
        <path id="DejaVuSans-30" d="M 2034 4250 
Q 1547 4250 1301 3770 
Q 1056 3291 1056 2328 
Q 1056 1369 1301 889 
Q 1547 409 2034 409 
Q 2525 409 2770 889 
Q 3016 1369 3016 2328 
Q 3016 3291 2770 3770 
Q 2525 4250 2034 4250 
z
M 2034 4750 
Q 2819 4750 3233 4129 
Q 3647 3509 3647 2328 
Q 3647 1150 3233 529 
Q 2819 -91 2034 -91 
Q 1250 -91 836 529 
Q 422 1150 422 2328 
Q 422 3509 836 4129 
Q 1250 4750 2034 4750 
z
" transform="scale(0.015625)"/>
        <path id="DejaVuSans-2d" d="M 313 2009 
L 1997 2009 
L 1997 1497 
L 313 1497 
L 313 2009 
z
" transform="scale(0.015625)"/>
        <path id="DejaVuSans-4e" d="M 628 4666 
L 1478 4666 
L 3547 763 
L 3547 4666 
L 4159 4666 
L 4159 0 
L 3309 0 
L 1241 3903 
L 1241 0 
L 628 0 
L 628 4666 
z
" transform="scale(0.015625)"/>
        <path id="DejaVuSans-6f" d="M 1959 3097 
Q 1497 3097 1228 2736 
Q 959 2375 959 1747 
Q 959 1119 1226 758 
Q 1494 397 1959 397 
Q 2419 397 2687 759 
Q 2956 1122 2956 1747 
Q 2956 2369 2687 2733 
Q 2419 3097 1959 3097 
z
M 1959 3584 
Q 2709 3584 3137 3096 
Q 3566 2609 3566 1747 
Q 3566 888 3137 398 
Q 2709 -91 1959 -91 
Q 1206 -91 779 398 
Q 353 888 353 1747 
Q 353 2609 779 3096 
Q 1206 3584 1959 3584 
z
" transform="scale(0.015625)"/>
        <path id="DejaVuSans-76" d="M 191 3500 
L 800 3500 
L 1894 563 
L 2988 3500 
L 3597 3500 
L 2284 0 
L 1503 0 
L 191 3500 
z
" transform="scale(0.015625)"/>
        <path id="DejaVuSans-31" d="M 794 531 
L 1825 531 
L 1825 4091 
L 703 3866 
L 703 4441 
L 1819 4666 
L 2450 4666 
L 2450 531 
L 3481 531 
L 3481 0 
L 794 0 
L 794 531 
z
" transform="scale(0.015625)"/>
       </defs>
       <use xlink:href="#DejaVuSans-32"/>
       <use xlink:href="#DejaVuSans-30" x="63.623047"/>
       <use xlink:href="#DejaVuSans-32" x="127.246094"/>
       <use xlink:href="#DejaVuSans-30" x="190.869141"/>
       <use xlink:href="#DejaVuSans-2d" x="254.492188"/>
       <use xlink:href="#DejaVuSans-4e" x="290.576172"/>
       <use xlink:href="#DejaVuSans-6f" x="365.380859"/>
       <use xlink:href="#DejaVuSans-76" x="426.5625"/>
       <use xlink:href="#DejaVuSans-2d" x="483.117188"/>
       <use xlink:href="#DejaVuSans-30" x="519.201172"/>
       <use xlink:href="#DejaVuSans-31" x="582.824219"/>
      </g>
     </g>
    </g>
    <g id="xtick_2">
     <g id="line2d_2">
      <g>
       <use xlink:href="#m708e13a245" x="95.019456" y="178.585123" style="stroke: #000000; stroke-width: 0.8"/>
      </g>
     </g>
     <g id="text_2">
      <!-- 2020-Dec-01 -->
      <g transform="translate(37.911233 224.536657)rotate(-30)scale(0.1 -0.1)">
       <defs>
        <path id="DejaVuSans-44" d="M 1259 4147 
L 1259 519 
L 2022 519 
Q 2988 519 3436 956 
Q 3884 1394 3884 2338 
Q 3884 3275 3436 3711 
Q 2988 4147 2022 4147 
L 1259 4147 
z
M 628 4666 
L 1925 4666 
Q 3281 4666 3915 4102 
Q 4550 3538 4550 2338 
Q 4550 1131 3912 565 
Q 3275 0 1925 0 
L 628 0 
L 628 4666 
z
" transform="scale(0.015625)"/>
        <path id="DejaVuSans-65" d="M 3597 1894 
L 3597 1613 
L 953 1613 
Q 991 1019 1311 708 
Q 1631 397 2203 397 
Q 2534 397 2845 478 
Q 3156 559 3463 722 
L 3463 178 
Q 3153 47 2828 -22 
Q 2503 -91 2169 -91 
Q 1331 -91 842 396 
Q 353 884 353 1716 
Q 353 2575 817 3079 
Q 1281 3584 2069 3584 
Q 2775 3584 3186 3129 
Q 3597 2675 3597 1894 
z
M 3022 2063 
Q 3016 2534 2758 2815 
Q 2500 3097 2075 3097 
Q 1594 3097 1305 2825 
Q 1016 2553 972 2059 
L 3022 2063 
z
" transform="scale(0.015625)"/>
        <path id="DejaVuSans-63" d="M 3122 3366 
L 3122 2828 
Q 2878 2963 2633 3030 
Q 2388 3097 2138 3097 
Q 1578 3097 1268 2742 
Q 959 2388 959 1747 
Q 959 1106 1268 751 
Q 1578 397 2138 397 
Q 2388 397 2633 464 
Q 2878 531 3122 666 
L 3122 134 
Q 2881 22 2623 -34 
Q 2366 -91 2075 -91 
Q 1284 -91 818 406 
Q 353 903 353 1747 
Q 353 2603 823 3093 
Q 1294 3584 2113 3584 
Q 2378 3584 2631 3529 
Q 2884 3475 3122 3366 
z
" transform="scale(0.015625)"/>
       </defs>
       <use xlink:href="#DejaVuSans-32"/>
       <use xlink:href="#DejaVuSans-30" x="63.623047"/>
       <use xlink:href="#DejaVuSans-32" x="127.246094"/>
       <use xlink:href="#DejaVuSans-30" x="190.869141"/>
       <use xlink:href="#DejaVuSans-2d" x="254.492188"/>
       <use xlink:href="#DejaVuSans-44" x="290.576172"/>
       <use xlink:href="#DejaVuSans-65" x="367.578125"/>
       <use xlink:href="#DejaVuSans-63" x="429.101562"/>
       <use xlink:href="#DejaVuSans-2d" x="484.082031"/>
       <use xlink:href="#DejaVuSans-30" x="520.166016"/>
       <use xlink:href="#DejaVuSans-31" x="583.789062"/>
      </g>
     </g>
    </g>
    <g id="xtick_3">
     <g id="line2d_3">
      <g>
       <use xlink:href="#m708e13a245" x="122.913832" y="178.585123" style="stroke: #000000; stroke-width: 0.8"/>
      </g>
     </g>
     <g id="text_3">
      <!-- 2021-Jan-01 -->
      <g transform="translate(68.727092 222.849938)rotate(-30)scale(0.1 -0.1)">
       <defs>
        <path id="DejaVuSans-4a" d="M 628 4666 
L 1259 4666 
L 1259 325 
Q 1259 -519 939 -900 
Q 619 -1281 -91 -1281 
L -331 -1281 
L -331 -750 
L -134 -750 
Q 284 -750 456 -515 
Q 628 -281 628 325 
L 628 4666 
z
" transform="scale(0.015625)"/>
        <path id="DejaVuSans-61" d="M 2194 1759 
Q 1497 1759 1228 1600 
Q 959 1441 959 1056 
Q 959 750 1161 570 
Q 1363 391 1709 391 
Q 2188 391 2477 730 
Q 2766 1069 2766 1631 
L 2766 1759 
L 2194 1759 
z
M 3341 1997 
L 3341 0 
L 2766 0 
L 2766 531 
Q 2569 213 2275 61 
Q 1981 -91 1556 -91 
Q 1019 -91 701 211 
Q 384 513 384 1019 
Q 384 1609 779 1909 
Q 1175 2209 1959 2209 
L 2766 2209 
L 2766 2266 
Q 2766 2663 2505 2880 
Q 2244 3097 1772 3097 
Q 1472 3097 1187 3025 
Q 903 2953 641 2809 
L 641 3341 
Q 956 3463 1253 3523 
Q 1550 3584 1831 3584 
Q 2591 3584 2966 3190 
Q 3341 2797 3341 1997 
z
" transform="scale(0.015625)"/>
        <path id="DejaVuSans-6e" d="M 3513 2113 
L 3513 0 
L 2938 0 
L 2938 2094 
Q 2938 2591 2744 2837 
Q 2550 3084 2163 3084 
Q 1697 3084 1428 2787 
Q 1159 2491 1159 1978 
L 1159 0 
L 581 0 
L 581 3500 
L 1159 3500 
L 1159 2956 
Q 1366 3272 1645 3428 
Q 1925 3584 2291 3584 
Q 2894 3584 3203 3211 
Q 3513 2838 3513 2113 
z
" transform="scale(0.015625)"/>
       </defs>
       <use xlink:href="#DejaVuSans-32"/>
       <use xlink:href="#DejaVuSans-30" x="63.623047"/>
       <use xlink:href="#DejaVuSans-32" x="127.246094"/>
       <use xlink:href="#DejaVuSans-31" x="190.869141"/>
       <use xlink:href="#DejaVuSans-2d" x="254.492188"/>
       <use xlink:href="#DejaVuSans-4a" x="296.201172"/>
       <use xlink:href="#DejaVuSans-61" x="325.693359"/>
       <use xlink:href="#DejaVuSans-6e" x="386.972656"/>
       <use xlink:href="#DejaVuSans-2d" x="450.351562"/>
       <use xlink:href="#DejaVuSans-30" x="486.435547"/>
       <use xlink:href="#DejaVuSans-31" x="550.058594"/>
      </g>
     </g>
    </g>
    <g id="xtick_4">
     <g id="line2d_4">
      <g>
       <use xlink:href="#m708e13a245" x="150.808208" y="178.585123" style="stroke: #000000; stroke-width: 0.8"/>
      </g>
     </g>
     <g id="text_4">
      <!-- 2021-Feb-01 -->
      <g transform="translate(95.127574 223.712438)rotate(-30)scale(0.1 -0.1)">
       <defs>
        <path id="DejaVuSans-46" d="M 628 4666 
L 3309 4666 
L 3309 4134 
L 1259 4134 
L 1259 2759 
L 3109 2759 
L 3109 2228 
L 1259 2228 
L 1259 0 
L 628 0 
L 628 4666 
z
" transform="scale(0.015625)"/>
        <path id="DejaVuSans-62" d="M 3116 1747 
Q 3116 2381 2855 2742 
Q 2594 3103 2138 3103 
Q 1681 3103 1420 2742 
Q 1159 2381 1159 1747 
Q 1159 1113 1420 752 
Q 1681 391 2138 391 
Q 2594 391 2855 752 
Q 3116 1113 3116 1747 
z
M 1159 2969 
Q 1341 3281 1617 3432 
Q 1894 3584 2278 3584 
Q 2916 3584 3314 3078 
Q 3713 2572 3713 1747 
Q 3713 922 3314 415 
Q 2916 -91 2278 -91 
Q 1894 -91 1617 61 
Q 1341 213 1159 525 
L 1159 0 
L 581 0 
L 581 4863 
L 1159 4863 
L 1159 2969 
z
" transform="scale(0.015625)"/>
       </defs>
       <use xlink:href="#DejaVuSans-32"/>
       <use xlink:href="#DejaVuSans-30" x="63.623047"/>
       <use xlink:href="#DejaVuSans-32" x="127.246094"/>
       <use xlink:href="#DejaVuSans-31" x="190.869141"/>
       <use xlink:href="#DejaVuSans-2d" x="254.492188"/>
       <use xlink:href="#DejaVuSans-46" x="290.576172"/>
       <use xlink:href="#DejaVuSans-65" x="342.595703"/>
       <use xlink:href="#DejaVuSans-62" x="404.119141"/>
       <use xlink:href="#DejaVuSans-2d" x="467.595703"/>
       <use xlink:href="#DejaVuSans-30" x="503.679688"/>
       <use xlink:href="#DejaVuSans-31" x="567.302734"/>
      </g>
     </g>
    </g>
    <g id="xtick_5">
     <g id="line2d_5">
      <g>
       <use xlink:href="#m708e13a245" x="176.003129" y="178.585123" style="stroke: #000000; stroke-width: 0.8"/>
      </g>
     </g>
     <g id="text_5">
      <!-- 2021-Mar-01 -->
      <g transform="translate(119.866478 223.975719)rotate(-30)scale(0.1 -0.1)">
       <defs>
        <path id="DejaVuSans-4d" d="M 628 4666 
L 1569 4666 
L 2759 1491 
L 3956 4666 
L 4897 4666 
L 4897 0 
L 4281 0 
L 4281 4097 
L 3078 897 
L 2444 897 
L 1241 4097 
L 1241 0 
L 628 0 
L 628 4666 
z
" transform="scale(0.015625)"/>
        <path id="DejaVuSans-72" d="M 2631 2963 
Q 2534 3019 2420 3045 
Q 2306 3072 2169 3072 
Q 1681 3072 1420 2755 
Q 1159 2438 1159 1844 
L 1159 0 
L 581 0 
L 581 3500 
L 1159 3500 
L 1159 2956 
Q 1341 3275 1631 3429 
Q 1922 3584 2338 3584 
Q 2397 3584 2469 3576 
Q 2541 3569 2628 3553 
L 2631 2963 
z
" transform="scale(0.015625)"/>
       </defs>
       <use xlink:href="#DejaVuSans-32"/>
       <use xlink:href="#DejaVuSans-30" x="63.623047"/>
       <use xlink:href="#DejaVuSans-32" x="127.246094"/>
       <use xlink:href="#DejaVuSans-31" x="190.869141"/>
       <use xlink:href="#DejaVuSans-2d" x="254.492188"/>
       <use xlink:href="#DejaVuSans-4d" x="290.576172"/>
       <use xlink:href="#DejaVuSans-61" x="376.855469"/>
       <use xlink:href="#DejaVuSans-72" x="438.134766"/>
       <use xlink:href="#DejaVuSans-2d" x="472.873047"/>
       <use xlink:href="#DejaVuSans-30" x="508.957031"/>
       <use xlink:href="#DejaVuSans-31" x="572.580078"/>
      </g>
     </g>
    </g>
    <g id="xtick_6">
     <g id="line2d_6">
      <g>
       <use xlink:href="#m708e13a245" x="203.897505" y="178.585123" style="stroke: #000000; stroke-width: 0.8"/>
      </g>
     </g>
     <g id="text_6">
      <!-- 2021-Apr-01 -->
      <g transform="translate(149.312934 223.079626)rotate(-30)scale(0.1 -0.1)">
       <defs>
        <path id="DejaVuSans-41" d="M 2188 4044 
L 1331 1722 
L 3047 1722 
L 2188 4044 
z
M 1831 4666 
L 2547 4666 
L 4325 0 
L 3669 0 
L 3244 1197 
L 1141 1197 
L 716 0 
L 50 0 
L 1831 4666 
z
" transform="scale(0.015625)"/>
        <path id="DejaVuSans-70" d="M 1159 525 
L 1159 -1331 
L 581 -1331 
L 581 3500 
L 1159 3500 
L 1159 2969 
Q 1341 3281 1617 3432 
Q 1894 3584 2278 3584 
Q 2916 3584 3314 3078 
Q 3713 2572 3713 1747 
Q 3713 922 3314 415 
Q 2916 -91 2278 -91 
Q 1894 -91 1617 61 
Q 1341 213 1159 525 
z
M 3116 1747 
Q 3116 2381 2855 2742 
Q 2594 3103 2138 3103 
Q 1681 3103 1420 2742 
Q 1159 2381 1159 1747 
Q 1159 1113 1420 752 
Q 1681 391 2138 391 
Q 2594 391 2855 752 
Q 3116 1113 3116 1747 
z
" transform="scale(0.015625)"/>
       </defs>
       <use xlink:href="#DejaVuSans-32"/>
       <use xlink:href="#DejaVuSans-30" x="63.623047"/>
       <use xlink:href="#DejaVuSans-32" x="127.246094"/>
       <use xlink:href="#DejaVuSans-31" x="190.869141"/>
       <use xlink:href="#DejaVuSans-2d" x="254.492188"/>
       <use xlink:href="#DejaVuSans-41" x="288.326172"/>
       <use xlink:href="#DejaVuSans-70" x="356.734375"/>
       <use xlink:href="#DejaVuSans-72" x="420.210938"/>
       <use xlink:href="#DejaVuSans-2d" x="454.949219"/>
       <use xlink:href="#DejaVuSans-30" x="491.033203"/>
       <use xlink:href="#DejaVuSans-31" x="554.65625"/>
      </g>
     </g>
    </g>
    <g id="xtick_7">
     <g id="line2d_7">
      <g>
       <use xlink:href="#m708e13a245" x="230.892062" y="178.585123" style="stroke: #000000; stroke-width: 0.8"/>
      </g>
     </g>
     <g id="text_7">
      <!-- 2021-May-01 -->
      <g transform="translate(172.789264 225.110876)rotate(-30)scale(0.1 -0.1)">
       <defs>
        <path id="DejaVuSans-79" d="M 2059 -325 
Q 1816 -950 1584 -1140 
Q 1353 -1331 966 -1331 
L 506 -1331 
L 506 -850 
L 844 -850 
Q 1081 -850 1212 -737 
Q 1344 -625 1503 -206 
L 1606 56 
L 191 3500 
L 800 3500 
L 1894 763 
L 2988 3500 
L 3597 3500 
L 2059 -325 
z
" transform="scale(0.015625)"/>
       </defs>
       <use xlink:href="#DejaVuSans-32"/>
       <use xlink:href="#DejaVuSans-30" x="63.623047"/>
       <use xlink:href="#DejaVuSans-32" x="127.246094"/>
       <use xlink:href="#DejaVuSans-31" x="190.869141"/>
       <use xlink:href="#DejaVuSans-2d" x="254.492188"/>
       <use xlink:href="#DejaVuSans-4d" x="290.576172"/>
       <use xlink:href="#DejaVuSans-61" x="376.855469"/>
       <use xlink:href="#DejaVuSans-79" x="438.134766"/>
       <use xlink:href="#DejaVuSans-2d" x="495.564453"/>
       <use xlink:href="#DejaVuSans-30" x="531.648438"/>
       <use xlink:href="#DejaVuSans-31" x="595.271484"/>
      </g>
     </g>
    </g>
    <g id="xtick_8">
     <g id="line2d_8">
      <g>
       <use xlink:href="#m708e13a245" x="258.786439" y="178.585123" style="stroke: #000000; stroke-width: 0.8"/>
      </g>
     </g>
     <g id="text_8">
      <!-- 2021-Jun-01 -->
      <g transform="translate(204.418374 222.954626)rotate(-30)scale(0.1 -0.1)">
       <defs>
        <path id="DejaVuSans-75" d="M 544 1381 
L 544 3500 
L 1119 3500 
L 1119 1403 
Q 1119 906 1312 657 
Q 1506 409 1894 409 
Q 2359 409 2629 706 
Q 2900 1003 2900 1516 
L 2900 3500 
L 3475 3500 
L 3475 0 
L 2900 0 
L 2900 538 
Q 2691 219 2414 64 
Q 2138 -91 1772 -91 
Q 1169 -91 856 284 
Q 544 659 544 1381 
z
M 1991 3584 
L 1991 3584 
z
" transform="scale(0.015625)"/>
       </defs>
       <use xlink:href="#DejaVuSans-32"/>
       <use xlink:href="#DejaVuSans-30" x="63.623047"/>
       <use xlink:href="#DejaVuSans-32" x="127.246094"/>
       <use xlink:href="#DejaVuSans-31" x="190.869141"/>
       <use xlink:href="#DejaVuSans-2d" x="254.492188"/>
       <use xlink:href="#DejaVuSans-4a" x="296.201172"/>
       <use xlink:href="#DejaVuSans-75" x="325.693359"/>
       <use xlink:href="#DejaVuSans-6e" x="389.072266"/>
       <use xlink:href="#DejaVuSans-2d" x="452.451172"/>
       <use xlink:href="#DejaVuSans-30" x="488.535156"/>
       <use xlink:href="#DejaVuSans-31" x="552.158203"/>
      </g>
     </g>
    </g>
    <g id="xtick_9">
     <g id="line2d_9">
      <g>
       <use xlink:href="#m708e13a245" x="285.780996" y="178.585123" style="stroke: #000000; stroke-width: 0.8"/>
      </g>
     </g>
     <g id="text_9">
      <!-- 2021-Jul-01 -->
      <g transform="translate(234.495441 221.174938)rotate(-30)scale(0.1 -0.1)">
       <defs>
        <path id="DejaVuSans-6c" d="M 603 4863 
L 1178 4863 
L 1178 0 
L 603 0 
L 603 4863 
z
" transform="scale(0.015625)"/>
       </defs>
       <use xlink:href="#DejaVuSans-32"/>
       <use xlink:href="#DejaVuSans-30" x="63.623047"/>
       <use xlink:href="#DejaVuSans-32" x="127.246094"/>
       <use xlink:href="#DejaVuSans-31" x="190.869141"/>
       <use xlink:href="#DejaVuSans-2d" x="254.492188"/>
       <use xlink:href="#DejaVuSans-4a" x="296.201172"/>
       <use xlink:href="#DejaVuSans-75" x="325.693359"/>
       <use xlink:href="#DejaVuSans-6c" x="389.072266"/>
       <use xlink:href="#DejaVuSans-2d" x="416.855469"/>
       <use xlink:href="#DejaVuSans-30" x="452.939453"/>
       <use xlink:href="#DejaVuSans-31" x="516.5625"/>
      </g>
     </g>
    </g>
    <g id="xtick_10">
     <g id="line2d_10">
      <g>
       <use xlink:href="#m708e13a245" x="313.675372" y="178.585123" style="stroke: #000000; stroke-width: 0.8"/>
      </g>
     </g>
     <g id="text_10">
      <!-- 2021-Aug-01 -->
      <g transform="translate(256.610451 224.511657)rotate(-30)scale(0.1 -0.1)">
       <defs>
        <path id="DejaVuSans-67" d="M 2906 1791 
Q 2906 2416 2648 2759 
Q 2391 3103 1925 3103 
Q 1463 3103 1205 2759 
Q 947 2416 947 1791 
Q 947 1169 1205 825 
Q 1463 481 1925 481 
Q 2391 481 2648 825 
Q 2906 1169 2906 1791 
z
M 3481 434 
Q 3481 -459 3084 -895 
Q 2688 -1331 1869 -1331 
Q 1566 -1331 1297 -1286 
Q 1028 -1241 775 -1147 
L 775 -588 
Q 1028 -725 1275 -790 
Q 1522 -856 1778 -856 
Q 2344 -856 2625 -561 
Q 2906 -266 2906 331 
L 2906 616 
Q 2728 306 2450 153 
Q 2172 0 1784 0 
Q 1141 0 747 490 
Q 353 981 353 1791 
Q 353 2603 747 3093 
Q 1141 3584 1784 3584 
Q 2172 3584 2450 3431 
Q 2728 3278 2906 2969 
L 2906 3500 
L 3481 3500 
L 3481 434 
z
" transform="scale(0.015625)"/>
       </defs>
       <use xlink:href="#DejaVuSans-32"/>
       <use xlink:href="#DejaVuSans-30" x="63.623047"/>
       <use xlink:href="#DejaVuSans-32" x="127.246094"/>
       <use xlink:href="#DejaVuSans-31" x="190.869141"/>
       <use xlink:href="#DejaVuSans-2d" x="254.492188"/>
       <use xlink:href="#DejaVuSans-41" x="288.326172"/>
       <use xlink:href="#DejaVuSans-75" x="356.734375"/>
       <use xlink:href="#DejaVuSans-67" x="420.113281"/>
       <use xlink:href="#DejaVuSans-2d" x="483.589844"/>
       <use xlink:href="#DejaVuSans-30" x="519.673828"/>
       <use xlink:href="#DejaVuSans-31" x="583.296875"/>
      </g>
     </g>
    </g>
    <g id="xtick_11">
     <g id="line2d_11">
      <g>
       <use xlink:href="#m708e13a245" x="341.569748" y="178.585123" style="stroke: #000000; stroke-width: 0.8"/>
      </g>
     </g>
     <g id="text_11">
      <!-- 2021-Sep-01 -->
      <g transform="translate(284.895891 224.285876)rotate(-30)scale(0.1 -0.1)">
       <defs>
        <path id="DejaVuSans-53" d="M 3425 4513 
L 3425 3897 
Q 3066 4069 2747 4153 
Q 2428 4238 2131 4238 
Q 1616 4238 1336 4038 
Q 1056 3838 1056 3469 
Q 1056 3159 1242 3001 
Q 1428 2844 1947 2747 
L 2328 2669 
Q 3034 2534 3370 2195 
Q 3706 1856 3706 1288 
Q 3706 609 3251 259 
Q 2797 -91 1919 -91 
Q 1588 -91 1214 -16 
Q 841 59 441 206 
L 441 856 
Q 825 641 1194 531 
Q 1563 422 1919 422 
Q 2459 422 2753 634 
Q 3047 847 3047 1241 
Q 3047 1584 2836 1778 
Q 2625 1972 2144 2069 
L 1759 2144 
Q 1053 2284 737 2584 
Q 422 2884 422 3419 
Q 422 4038 858 4394 
Q 1294 4750 2059 4750 
Q 2388 4750 2728 4690 
Q 3069 4631 3425 4513 
z
" transform="scale(0.015625)"/>
       </defs>
       <use xlink:href="#DejaVuSans-32"/>
       <use xlink:href="#DejaVuSans-30" x="63.623047"/>
       <use xlink:href="#DejaVuSans-32" x="127.246094"/>
       <use xlink:href="#DejaVuSans-31" x="190.869141"/>
       <use xlink:href="#DejaVuSans-2d" x="254.492188"/>
       <use xlink:href="#DejaVuSans-53" x="290.576172"/>
       <use xlink:href="#DejaVuSans-65" x="354.052734"/>
       <use xlink:href="#DejaVuSans-70" x="415.576172"/>
       <use xlink:href="#DejaVuSans-2d" x="479.052734"/>
       <use xlink:href="#DejaVuSans-30" x="515.136719"/>
       <use xlink:href="#DejaVuSans-31" x="578.759766"/>
      </g>
     </g>
    </g>
    <g id="xtick_12">
     <g id="line2d_12">
      <g>
       <use xlink:href="#m708e13a245" x="368.564306" y="178.585123" style="stroke: #000000; stroke-width: 0.8"/>
      </g>
     </g>
     <g id="text_12">
      <!-- 2021-Oct-01 -->
      <g transform="translate(313.00275 223.643688)rotate(-30)scale(0.1 -0.1)">
       <defs>
        <path id="DejaVuSans-4f" d="M 2522 4238 
Q 1834 4238 1429 3725 
Q 1025 3213 1025 2328 
Q 1025 1447 1429 934 
Q 1834 422 2522 422 
Q 3209 422 3611 934 
Q 4013 1447 4013 2328 
Q 4013 3213 3611 3725 
Q 3209 4238 2522 4238 
z
M 2522 4750 
Q 3503 4750 4090 4092 
Q 4678 3434 4678 2328 
Q 4678 1225 4090 567 
Q 3503 -91 2522 -91 
Q 1538 -91 948 565 
Q 359 1222 359 2328 
Q 359 3434 948 4092 
Q 1538 4750 2522 4750 
z
" transform="scale(0.015625)"/>
        <path id="DejaVuSans-74" d="M 1172 4494 
L 1172 3500 
L 2356 3500 
L 2356 3053 
L 1172 3053 
L 1172 1153 
Q 1172 725 1289 603 
Q 1406 481 1766 481 
L 2356 481 
L 2356 0 
L 1766 0 
Q 1100 0 847 248 
Q 594 497 594 1153 
L 594 3053 
L 172 3053 
L 172 3500 
L 594 3500 
L 594 4494 
L 1172 4494 
z
" transform="scale(0.015625)"/>
       </defs>
       <use xlink:href="#DejaVuSans-32"/>
       <use xlink:href="#DejaVuSans-30" x="63.623047"/>
       <use xlink:href="#DejaVuSans-32" x="127.246094"/>
       <use xlink:href="#DejaVuSans-31" x="190.869141"/>
       <use xlink:href="#DejaVuSans-2d" x="254.492188"/>
       <use xlink:href="#DejaVuSans-4f" x="293.326172"/>
       <use xlink:href="#DejaVuSans-63" x="372.037109"/>
       <use xlink:href="#DejaVuSans-74" x="427.017578"/>
       <use xlink:href="#DejaVuSans-2d" x="466.226562"/>
       <use xlink:href="#DejaVuSans-30" x="502.310547"/>
       <use xlink:href="#DejaVuSans-31" x="565.933594"/>
      </g>
     </g>
    </g>
    <g id="xtick_13">
     <g id="line2d_13">
      <g>
       <use xlink:href="#m708e13a245" x="396.458682" y="178.585123" style="stroke: #000000; stroke-width: 0.8"/>
      </g>
     </g>
     <g id="text_13">
      <!-- 2021-Nov-01 -->
      <g transform="translate(339.433002 224.489001)rotate(-30)scale(0.1 -0.1)">
       <use xlink:href="#DejaVuSans-32"/>
       <use xlink:href="#DejaVuSans-30" x="63.623047"/>
       <use xlink:href="#DejaVuSans-32" x="127.246094"/>
       <use xlink:href="#DejaVuSans-31" x="190.869141"/>
       <use xlink:href="#DejaVuSans-2d" x="254.492188"/>
       <use xlink:href="#DejaVuSans-4e" x="290.576172"/>
       <use xlink:href="#DejaVuSans-6f" x="365.380859"/>
       <use xlink:href="#DejaVuSans-76" x="426.5625"/>
       <use xlink:href="#DejaVuSans-2d" x="483.117188"/>
       <use xlink:href="#DejaVuSans-30" x="519.201172"/>
       <use xlink:href="#DejaVuSans-31" x="582.824219"/>
      </g>
     </g>
    </g>
    <g id="xtick_14">
     <g id="line2d_14">
      <g>
       <use xlink:href="#m708e13a245" x="423.45324" y="178.585123" style="stroke: #000000; stroke-width: 0.8"/>
      </g>
     </g>
     <g id="text_14">
      <!-- 2021-Dec-01 -->
      <g transform="translate(366.345017 224.536657)rotate(-30)scale(0.1 -0.1)">
       <use xlink:href="#DejaVuSans-32"/>
       <use xlink:href="#DejaVuSans-30" x="63.623047"/>
       <use xlink:href="#DejaVuSans-32" x="127.246094"/>
       <use xlink:href="#DejaVuSans-31" x="190.869141"/>
       <use xlink:href="#DejaVuSans-2d" x="254.492188"/>
       <use xlink:href="#DejaVuSans-44" x="290.576172"/>
       <use xlink:href="#DejaVuSans-65" x="367.578125"/>
       <use xlink:href="#DejaVuSans-63" x="429.101562"/>
       <use xlink:href="#DejaVuSans-2d" x="484.082031"/>
       <use xlink:href="#DejaVuSans-30" x="520.166016"/>
       <use xlink:href="#DejaVuSans-31" x="583.789062"/>
      </g>
     </g>
    </g>
    <g id="xtick_15">
     <g id="line2d_15">
      <g>
       <use xlink:href="#m708e13a245" x="451.347616" y="178.585123" style="stroke: #000000; stroke-width: 0.8"/>
      </g>
     </g>
     <g id="text_15">
      <!-- 2022-Jan-01 -->
      <g transform="translate(397.160875 222.849938)rotate(-30)scale(0.1 -0.1)">
       <use xlink:href="#DejaVuSans-32"/>
       <use xlink:href="#DejaVuSans-30" x="63.623047"/>
       <use xlink:href="#DejaVuSans-32" x="127.246094"/>
       <use xlink:href="#DejaVuSans-32" x="190.869141"/>
       <use xlink:href="#DejaVuSans-2d" x="254.492188"/>
       <use xlink:href="#DejaVuSans-4a" x="296.201172"/>
       <use xlink:href="#DejaVuSans-61" x="325.693359"/>
       <use xlink:href="#DejaVuSans-6e" x="386.972656"/>
       <use xlink:href="#DejaVuSans-2d" x="450.351562"/>
       <use xlink:href="#DejaVuSans-30" x="486.435547"/>
       <use xlink:href="#DejaVuSans-31" x="550.058594"/>
      </g>
     </g>
    </g>
    <g id="xtick_16">
     <g id="line2d_16">
      <g>
       <use xlink:href="#m708e13a245" x="479.241992" y="178.585123" style="stroke: #000000; stroke-width: 0.8"/>
      </g>
     </g>
     <g id="text_16">
      <!-- 2022-Feb-01 -->
      <g transform="translate(423.561358 223.712438)rotate(-30)scale(0.1 -0.1)">
       <use xlink:href="#DejaVuSans-32"/>
       <use xlink:href="#DejaVuSans-30" x="63.623047"/>
       <use xlink:href="#DejaVuSans-32" x="127.246094"/>
       <use xlink:href="#DejaVuSans-32" x="190.869141"/>
       <use xlink:href="#DejaVuSans-2d" x="254.492188"/>
       <use xlink:href="#DejaVuSans-46" x="290.576172"/>
       <use xlink:href="#DejaVuSans-65" x="342.595703"/>
       <use xlink:href="#DejaVuSans-62" x="404.119141"/>
       <use xlink:href="#DejaVuSans-2d" x="467.595703"/>
       <use xlink:href="#DejaVuSans-30" x="503.679688"/>
       <use xlink:href="#DejaVuSans-31" x="567.302734"/>
      </g>
     </g>
    </g>
   </g>
   <g id="matplotlib.axis_2">
    <g id="ytick_1">
     <g id="line2d_17">
      <path d="M 53.132901 171.599031 
L 499.532901 171.599031 
" clip-path="url(#pbdd8c86617)" style="fill: none; stroke: #b0b0b0; stroke-width: 0.8; stroke-linecap: square"/>
     </g>
     <g id="line2d_18">
      <defs>
       <path id="mc70f1ec174" d="M 0 0 
L -3.5 0 
" style="stroke: #000000; stroke-width: 0.8"/>
      </defs>
      <g>
       <use xlink:href="#mc70f1ec174" x="53.132901" y="171.599031" style="stroke: #000000; stroke-width: 0.8"/>
      </g>
     </g>
     <g id="text_17">
      <!-- 0 -->
      <g transform="translate(39.770401 175.39825)scale(0.1 -0.1)">
       <use xlink:href="#DejaVuSans-30"/>
      </g>
     </g>
    </g>
    <g id="ytick_2">
     <g id="line2d_19">
      <path d="M 53.132901 131.449078 
L 499.532901 131.449078 
" clip-path="url(#pbdd8c86617)" style="fill: none; stroke: #b0b0b0; stroke-width: 0.8; stroke-linecap: square"/>
     </g>
     <g id="line2d_20">
      <g>
       <use xlink:href="#mc70f1ec174" x="53.132901" y="131.449078" style="stroke: #000000; stroke-width: 0.8"/>
      </g>
     </g>
     <g id="text_18">
      <!-- 100 -->
      <g transform="translate(27.045401 135.248297)scale(0.1 -0.1)">
       <use xlink:href="#DejaVuSans-31"/>
       <use xlink:href="#DejaVuSans-30" x="63.623047"/>
       <use xlink:href="#DejaVuSans-30" x="127.246094"/>
      </g>
     </g>
    </g>
    <g id="ytick_3">
     <g id="line2d_21">
      <path d="M 53.132901 91.299125 
L 499.532901 91.299125 
" clip-path="url(#pbdd8c86617)" style="fill: none; stroke: #b0b0b0; stroke-width: 0.8; stroke-linecap: square"/>
     </g>
     <g id="line2d_22">
      <g>
       <use xlink:href="#mc70f1ec174" x="53.132901" y="91.299125" style="stroke: #000000; stroke-width: 0.8"/>
      </g>
     </g>
     <g id="text_19">
      <!-- 200 -->
      <g transform="translate(27.045401 95.098344)scale(0.1 -0.1)">
       <use xlink:href="#DejaVuSans-32"/>
       <use xlink:href="#DejaVuSans-30" x="63.623047"/>
       <use xlink:href="#DejaVuSans-30" x="127.246094"/>
      </g>
     </g>
    </g>
    <g id="ytick_4">
     <g id="line2d_23">
      <path d="M 53.132901 51.149172 
L 499.532901 51.149172 
" clip-path="url(#pbdd8c86617)" style="fill: none; stroke: #b0b0b0; stroke-width: 0.8; stroke-linecap: square"/>
     </g>
     <g id="line2d_24">
      <g>
       <use xlink:href="#mc70f1ec174" x="53.132901" y="51.149172" style="stroke: #000000; stroke-width: 0.8"/>
      </g>
     </g>
     <g id="text_20">
      <!-- 300 -->
      <g transform="translate(27.045401 54.948391)scale(0.1 -0.1)">
       <defs>
        <path id="DejaVuSans-33" d="M 2597 2516 
Q 3050 2419 3304 2112 
Q 3559 1806 3559 1356 
Q 3559 666 3084 287 
Q 2609 -91 1734 -91 
Q 1441 -91 1130 -33 
Q 819 25 488 141 
L 488 750 
Q 750 597 1062 519 
Q 1375 441 1716 441 
Q 2309 441 2620 675 
Q 2931 909 2931 1356 
Q 2931 1769 2642 2001 
Q 2353 2234 1838 2234 
L 1294 2234 
L 1294 2753 
L 1863 2753 
Q 2328 2753 2575 2939 
Q 2822 3125 2822 3475 
Q 2822 3834 2567 4026 
Q 2313 4219 1838 4219 
Q 1578 4219 1281 4162 
Q 984 4106 628 3988 
L 628 4550 
Q 988 4650 1302 4700 
Q 1616 4750 1894 4750 
Q 2613 4750 3031 4423 
Q 3450 4097 3450 3541 
Q 3450 3153 3228 2886 
Q 3006 2619 2597 2516 
z
" transform="scale(0.015625)"/>
       </defs>
       <use xlink:href="#DejaVuSans-33"/>
       <use xlink:href="#DejaVuSans-30" x="63.623047"/>
       <use xlink:href="#DejaVuSans-30" x="127.246094"/>
      </g>
     </g>
    </g>
    <g id="ytick_5">
     <g id="line2d_25">
      <path d="M 53.132901 10.999219 
L 499.532901 10.999219 
" clip-path="url(#pbdd8c86617)" style="fill: none; stroke: #b0b0b0; stroke-width: 0.8; stroke-linecap: square"/>
     </g>
     <g id="line2d_26">
      <g>
       <use xlink:href="#mc70f1ec174" x="53.132901" y="10.999219" style="stroke: #000000; stroke-width: 0.8"/>
      </g>
     </g>
     <g id="text_21">
      <!-- 400 -->
      <g transform="translate(27.045401 14.798438)scale(0.1 -0.1)">
       <defs>
        <path id="DejaVuSans-34" d="M 2419 4116 
L 825 1625 
L 2419 1625 
L 2419 4116 
z
M 2253 4666 
L 3047 4666 
L 3047 1625 
L 3713 1625 
L 3713 1100 
L 3047 1100 
L 3047 0 
L 2419 0 
L 2419 1100 
L 313 1100 
L 313 1709 
L 2253 4666 
z
" transform="scale(0.015625)"/>
       </defs>
       <use xlink:href="#DejaVuSans-34"/>
       <use xlink:href="#DejaVuSans-30" x="63.623047"/>
       <use xlink:href="#DejaVuSans-30" x="127.246094"/>
      </g>
     </g>
    </g>
    <g id="text_22">
     <!-- Number of Domains -->
     <g transform="translate(20.965713 142.994967)rotate(-90)scale(0.1 -0.1)">
      <defs>
       <path id="DejaVuSans-6d" d="M 3328 2828 
Q 3544 3216 3844 3400 
Q 4144 3584 4550 3584 
Q 5097 3584 5394 3201 
Q 5691 2819 5691 2113 
L 5691 0 
L 5113 0 
L 5113 2094 
Q 5113 2597 4934 2840 
Q 4756 3084 4391 3084 
Q 3944 3084 3684 2787 
Q 3425 2491 3425 1978 
L 3425 0 
L 2847 0 
L 2847 2094 
Q 2847 2600 2669 2842 
Q 2491 3084 2119 3084 
Q 1678 3084 1418 2786 
Q 1159 2488 1159 1978 
L 1159 0 
L 581 0 
L 581 3500 
L 1159 3500 
L 1159 2956 
Q 1356 3278 1631 3431 
Q 1906 3584 2284 3584 
Q 2666 3584 2933 3390 
Q 3200 3197 3328 2828 
z
" transform="scale(0.015625)"/>
       <path id="DejaVuSans-20" transform="scale(0.015625)"/>
       <path id="DejaVuSans-66" d="M 2375 4863 
L 2375 4384 
L 1825 4384 
Q 1516 4384 1395 4259 
Q 1275 4134 1275 3809 
L 1275 3500 
L 2222 3500 
L 2222 3053 
L 1275 3053 
L 1275 0 
L 697 0 
L 697 3053 
L 147 3053 
L 147 3500 
L 697 3500 
L 697 3744 
Q 697 4328 969 4595 
Q 1241 4863 1831 4863 
L 2375 4863 
z
" transform="scale(0.015625)"/>
       <path id="DejaVuSans-69" d="M 603 3500 
L 1178 3500 
L 1178 0 
L 603 0 
L 603 3500 
z
M 603 4863 
L 1178 4863 
L 1178 4134 
L 603 4134 
L 603 4863 
z
" transform="scale(0.015625)"/>
       <path id="DejaVuSans-73" d="M 2834 3397 
L 2834 2853 
Q 2591 2978 2328 3040 
Q 2066 3103 1784 3103 
Q 1356 3103 1142 2972 
Q 928 2841 928 2578 
Q 928 2378 1081 2264 
Q 1234 2150 1697 2047 
L 1894 2003 
Q 2506 1872 2764 1633 
Q 3022 1394 3022 966 
Q 3022 478 2636 193 
Q 2250 -91 1575 -91 
Q 1294 -91 989 -36 
Q 684 19 347 128 
L 347 722 
Q 666 556 975 473 
Q 1284 391 1588 391 
Q 1994 391 2212 530 
Q 2431 669 2431 922 
Q 2431 1156 2273 1281 
Q 2116 1406 1581 1522 
L 1381 1569 
Q 847 1681 609 1914 
Q 372 2147 372 2553 
Q 372 3047 722 3315 
Q 1072 3584 1716 3584 
Q 2034 3584 2315 3537 
Q 2597 3491 2834 3397 
z
" transform="scale(0.015625)"/>
      </defs>
      <use xlink:href="#DejaVuSans-4e"/>
      <use xlink:href="#DejaVuSans-75" x="74.804688"/>
      <use xlink:href="#DejaVuSans-6d" x="138.183594"/>
      <use xlink:href="#DejaVuSans-62" x="235.595703"/>
      <use xlink:href="#DejaVuSans-65" x="299.072266"/>
      <use xlink:href="#DejaVuSans-72" x="360.595703"/>
      <use xlink:href="#DejaVuSans-20" x="401.708984"/>
      <use xlink:href="#DejaVuSans-6f" x="433.496094"/>
      <use xlink:href="#DejaVuSans-66" x="494.677734"/>
      <use xlink:href="#DejaVuSans-20" x="529.882812"/>
      <use xlink:href="#DejaVuSans-44" x="561.669922"/>
      <use xlink:href="#DejaVuSans-6f" x="638.671875"/>
      <use xlink:href="#DejaVuSans-6d" x="699.853516"/>
      <use xlink:href="#DejaVuSans-61" x="797.265625"/>
      <use xlink:href="#DejaVuSans-69" x="858.544922"/>
      <use xlink:href="#DejaVuSans-6e" x="886.328125"/>
      <use xlink:href="#DejaVuSans-73" x="949.707031"/>
     </g>
    </g>
   </g>
   <g id="line2d_27">
    <path d="M 73.42381 166.781037 
L 74.323629 166.781037 
L 75.223447 167.182536 
L 76.123266 166.781037 
L 77.023084 167.182536 
L 80.622359 167.182536 
L 82.421996 166.379537 
L 83.321814 166.379537 
L 84.221633 166.781037 
L 86.921089 166.781037 
L 89.620545 167.182536 
L 95.019456 167.182536 
L 95.919275 166.379537 
L 99.518549 166.379537 
L 100.418368 166.781037 
L 101.318186 166.379537 
L 102.218005 166.781037 
L 103.117823 165.978038 
L 104.017642 165.978038 
L 104.917461 165.576538 
L 105.817279 165.576538 
L 106.717098 165.978038 
L 109.416553 165.978038 
L 110.316372 165.576538 
L 114.815465 165.576538 
L 115.715284 165.175039 
L 124.713469 165.175039 
L 125.613288 164.773539 
L 126.513107 165.175039 
L 128.312744 165.175039 
L 129.212562 165.576538 
L 130.112381 165.576538 
L 131.912018 164.773539 
L 132.811837 165.175039 
L 139.110567 165.175039 
L 140.010385 164.37204 
L 142.709841 164.37204 
L 151.708027 163.97054 
L 153.507664 163.569041 
L 154.407483 163.97054 
L 155.307301 163.569041 
L 156.20712 163.97054 
L 157.106938 163.569041 
L 158.906576 163.569041 
L 159.806394 162.766042 
L 160.706213 163.167541 
L 161.606031 163.167541 
L 162.50585 163.569041 
L 163.405669 163.569041 
L 164.305487 163.97054 
L 165.205306 163.97054 
L 167.004943 163.167541 
L 167.904761 163.167541 
L 168.80458 163.97054 
L 169.704399 163.569041 
L 170.604217 162.766042 
L 171.504036 163.569041 
L 172.403854 163.569041 
L 173.303673 162.766042 
L 174.203492 162.364542 
L 175.10331 163.167541 
L 176.003129 162.766042 
L 176.902947 163.167541 
L 178.702584 163.167541 
L 179.602403 162.766042 
L 182.301859 162.766042 
L 183.201677 161.561543 
L 187.70077 161.561543 
L 188.600589 161.160043 
L 200.298231 94.511121 
L 201.198049 96.117119 
L 202.097868 96.117119 
L 202.997686 94.109622 
L 203.897505 94.109622 
L 204.797323 92.905123 
L 205.697142 92.503624 
L 206.596961 93.708122 
L 207.496779 93.708122 
L 208.396598 93.306623 
L 209.296416 68.413652 
L 210.196235 58.777663 
L 211.096054 58.376163 
L 211.995872 58.777663 
L 215.595146 57.171665 
L 216.494965 57.171665 
L 217.394784 58.376163 
L 218.294602 57.171665 
L 219.194421 58.376163 
L 220.094239 58.376163 
L 220.994058 59.580662 
L 221.893877 58.376163 
L 225.493151 58.376163 
L 226.392969 59.179163 
L 227.292788 58.376163 
L 228.192607 59.179163 
L 229.092425 57.974664 
L 232.6917 57.573164 
L 233.591518 55.565667 
L 234.491337 56.368666 
L 235.391155 55.565667 
L 236.290974 54.361168 
L 237.190792 53.959669 
L 238.090611 55.565667 
L 238.99043 56.770165 
L 239.890248 55.565667 
L 240.790067 56.770165 
L 241.689885 57.171665 
L 242.589704 57.171665 
L 243.489523 56.770165 
L 244.389341 57.171665 
L 245.28916 57.171665 
L 246.188978 57.573164 
L 247.088797 56.368666 
L 247.988616 57.974664 
L 248.888434 59.179163 
L 249.788253 58.376163 
L 250.688071 59.179163 
L 251.58789 57.974664 
L 252.487708 59.580662 
L 253.387527 59.179163 
L 254.287346 58.376163 
L 255.187164 60.383661 
L 256.086983 59.580662 
L 256.986801 59.179163 
L 257.88662 58.376163 
L 258.786439 58.376163 
L 259.686257 60.383661 
L 260.586076 57.171665 
L 261.485894 56.770165 
L 262.385713 57.573164 
L 263.285531 58.777663 
L 264.18535 58.777663 
L 265.085169 56.770165 
L 265.984987 58.376163 
L 266.884806 58.376163 
L 267.784624 57.171665 
L 269.584262 57.974664 
L 270.48408 57.573164 
L 271.383899 58.777663 
L 272.283717 57.573164 
L 273.183536 57.171665 
L 274.083354 57.573164 
L 274.983173 58.777663 
L 275.882992 57.171665 
L 276.78281 55.967166 
L 277.682629 57.573164 
L 279.482266 56.770165 
L 282.181722 56.770165 
L 283.981359 53.959669 
L 288.480452 54.361168 
L 313.675372 56.770165 
L 314.575191 56.368666 
L 315.475009 58.777663 
L 316.374828 57.171665 
L 317.274647 57.974664 
L 318.174465 55.565667 
L 319.074284 54.762668 
L 319.974102 54.762668 
L 320.873921 54.361168 
L 321.773739 53.558169 
L 322.673558 51.952171 
L 323.573377 52.35367 
L 324.473195 51.952171 
L 325.373014 49.944673 
L 326.272832 51.550671 
L 327.172651 51.952171 
L 328.07247 52.75517 
L 328.972288 51.952171 
L 329.872107 52.35367 
L 346.068841 49.543174 
L 346.96866 47.937176 
L 348.768297 49.543174 
L 349.668116 49.944673 
L 350.567934 48.740175 
L 351.467753 49.141674 
L 353.26739 47.535676 
L 354.167209 48.740175 
L 355.067027 47.937176 
L 355.966846 46.732677 
L 356.866664 45.929678 
L 357.766483 44.32368 
L 358.666301 44.725179 
L 359.56612 42.717682 
L 360.465939 44.32368 
L 361.365757 45.528178 
L 362.265576 43.119181 
L 364.965032 43.520681 
L 365.86485 42.717682 
L 366.764669 42.717682 
L 367.664487 44.32368 
L 368.564306 42.717682 
L 369.464124 43.119181 
L 370.363943 41.513183 
L 371.263762 41.914683 
L 372.16358 41.914683 
L 373.063399 43.520681 
L 373.963217 41.111684 
L 374.863036 41.914683 
L 375.762855 41.111684 
L 377.562492 41.914683 
L 378.46231 41.513183 
L 379.362129 39.907185 
L 380.261948 39.505685 
L 381.161766 37.899687 
L 382.061585 38.702686 
L 382.961403 38.301187 
L 383.861222 37.096688 
L 384.76104 37.899687 
L 385.660859 37.899687 
L 386.560678 35.89219 
L 387.460496 36.695189 
L 388.360315 36.695189 
L 389.260133 37.096688 
L 390.159952 37.096688 
L 391.059771 35.089191 
L 391.959589 36.293689 
L 392.859408 34.687691 
L 393.759226 34.687691 
L 394.659045 33.483193 
L 395.558863 34.687691 
L 396.458682 35.089191 
L 397.358501 37.096688 
L 398.258319 35.89219 
L 399.158138 35.49069 
L 400.057956 35.49069 
L 400.957775 37.096688 
L 401.857594 35.49069 
L 402.757412 37.096688 
L 403.657231 36.695189 
L 404.557049 34.286192 
L 407.256505 35.089191 
L 408.156324 35.089191 
L 409.056142 34.687691 
L 409.955961 33.483193 
L 411.755598 34.286192 
L 412.655417 34.286192 
L 413.555235 33.884692 
L 414.455054 33.884692 
L 415.354872 33.483193 
L 416.254691 35.089191 
L 417.154509 35.089191 
L 418.054328 35.49069 
L 418.954147 35.089191 
L 419.853965 33.884692 
L 420.753784 34.286192 
L 421.653602 33.884692 
L 422.553421 32.278694 
L 423.45324 34.286192 
L 424.353058 34.286192 
L 426.152695 33.483193 
L 427.052514 33.483193 
L 427.952333 35.089191 
L 429.75197 33.483193 
L 430.651788 31.074195 
L 431.551607 32.278694 
L 432.451425 29.066698 
L 433.351244 30.672696 
L 434.251063 31.074195 
L 435.150881 33.884692 
L 436.0507 34.687691 
L 436.950518 31.877194 
L 437.850337 30.672696 
L 440.549793 34.286192 
L 441.449611 32.278694 
L 442.34943 32.680193 
L 443.249248 32.278694 
L 444.149067 31.475695 
L 445.048886 32.278694 
L 445.948704 33.483193 
L 446.848523 32.680193 
L 447.748341 31.475695 
L 448.64816 31.877194 
L 449.547979 29.869697 
L 452.247434 31.877194 
L 453.147253 33.081693 
L 454.047071 33.081693 
L 454.94689 33.483193 
L 455.846709 31.475695 
L 456.746527 28.665198 
L 457.646346 31.475695 
L 458.546164 32.680193 
L 459.445983 31.475695 
L 460.345802 33.884692 
L 461.24562 29.066698 
L 462.145439 29.869697 
L 463.045257 30.271196 
L 463.945076 29.066698 
L 464.844894 29.066698 
L 465.744713 30.271196 
L 466.644532 28.263699 
L 467.54435 27.0592 
L 468.444169 25.051702 
L 469.343987 23.445704 
L 471.143625 23.445704 
L 472.043443 22.642705 
L 472.943262 19.832208 
L 473.84308 18.22621 
L 474.742899 17.423211 
L 475.642718 19.029209 
L 476.542536 15.415714 
L 477.442355 15.817213 
L 479.241992 15.014214 
L 479.241992 15.014214 
" clip-path="url(#pbdd8c86617)" style="fill: none; stroke: #1f77b4; stroke-width: 1.5; stroke-linecap: square"/>
   </g>
   <g id="line2d_28">
    <path d="M 73.42381 170.394533 
L 101.318186 170.394533 
L 102.218005 170.796032 
L 103.117823 169.993033 
L 104.017642 169.993033 
L 104.917461 169.591534 
L 105.817279 169.591534 
L 106.717098 169.993033 
L 109.416553 169.993033 
L 110.316372 169.591534 
L 151.708027 169.591534 
L 153.507664 169.190034 
L 154.407483 169.591534 
L 155.307301 169.190034 
L 158.906576 169.190034 
L 159.806394 168.387035 
L 160.706213 168.788535 
L 161.606031 168.788535 
L 162.50585 169.190034 
L 166.105124 169.190034 
L 167.004943 168.788535 
L 167.904761 168.788535 
L 168.80458 169.591534 
L 169.704399 169.591534 
L 170.604217 168.788535 
L 171.504036 169.591534 
L 172.403854 169.591534 
L 173.303673 168.788535 
L 174.203492 168.788535 
L 175.10331 169.190034 
L 176.902947 169.190034 
L 177.802766 168.788535 
L 182.301859 168.788535 
L 183.201677 167.985536 
L 186.800952 167.985536 
L 187.70077 168.387035 
L 188.600589 168.387035 
L 200.298231 165.978038 
L 201.198049 166.379537 
L 202.097868 166.379537 
L 202.997686 165.978038 
L 203.897505 165.978038 
L 204.797323 165.175039 
L 205.697142 165.576538 
L 206.596961 165.175039 
L 207.496779 165.978038 
L 208.396598 165.175039 
L 209.296416 165.175039 
L 210.196235 163.97054 
L 211.096054 163.167541 
L 214.695328 161.561543 
L 215.595146 161.561543 
L 216.494965 161.963043 
L 217.394784 161.963043 
L 218.294602 161.160043 
L 219.194421 162.364542 
L 220.094239 162.364542 
L 220.994058 161.963043 
L 221.893877 162.364542 
L 224.593332 162.766042 
L 225.493151 162.364542 
L 226.392969 163.167541 
L 227.292788 162.364542 
L 228.192607 162.766042 
L 229.092425 161.561543 
L 232.6917 160.357044 
L 234.491337 161.160043 
L 235.391155 160.758544 
L 236.290974 159.554045 
L 237.190792 160.357044 
L 238.99043 161.160043 
L 242.589704 161.160043 
L 243.489523 160.357044 
L 246.188978 160.357044 
L 247.088797 159.955545 
L 247.988616 159.955545 
L 248.888434 160.758544 
L 249.788253 160.758544 
L 250.688071 161.160043 
L 251.58789 160.758544 
L 252.487708 161.160043 
L 253.387527 161.160043 
L 254.287346 160.758544 
L 255.187164 160.758544 
L 256.986801 159.955545 
L 257.88662 159.955545 
L 258.786439 159.152546 
L 259.686257 159.955545 
L 261.485894 159.152546 
L 263.285531 159.152546 
L 264.18535 159.554045 
L 265.085169 159.152546 
L 266.884806 159.152546 
L 267.784624 159.554045 
L 268.684443 159.152546 
L 269.584262 159.152546 
L 270.48408 158.751046 
L 271.383899 159.152546 
L 272.283717 159.152546 
L 273.183536 159.554045 
L 274.983173 159.554045 
L 276.78281 157.948047 
L 277.682629 159.152546 
L 279.482266 159.152546 
L 282.181722 158.349547 
L 283.981359 157.546548 
L 287.580633 156.743549 
L 288.480452 157.145048 
L 313.675372 157.546548 
L 314.575191 156.342049 
L 315.475009 157.948047 
L 316.374828 157.145048 
L 317.274647 157.546548 
L 318.174465 155.94055 
L 320.873921 155.94055 
L 321.773739 155.53905 
L 322.673558 155.53905 
L 323.573377 154.736051 
L 324.473195 154.334551 
L 325.373014 153.531552 
L 326.272832 154.736051 
L 328.07247 154.736051 
L 328.972288 155.137551 
L 329.872107 155.94055 
L 346.068841 154.334551 
L 346.96866 153.933052 
L 348.768297 154.334551 
L 349.668116 154.334551 
L 350.567934 154.736051 
L 351.467753 154.334551 
L 353.26739 154.334551 
L 354.167209 154.736051 
L 355.067027 154.334551 
L 356.866664 154.334551 
L 357.766483 153.933052 
L 358.666301 153.130053 
L 359.56612 152.728553 
L 360.465939 152.728553 
L 361.365757 153.933052 
L 362.265576 153.531552 
L 366.764669 153.531552 
L 367.664487 154.736051 
L 368.564306 153.933052 
L 369.464124 154.334551 
L 370.363943 153.933052 
L 371.263762 153.933052 
L 372.16358 153.531552 
L 373.063399 154.334551 
L 373.963217 152.728553 
L 374.863036 153.531552 
L 376.662673 153.531552 
L 377.562492 153.130053 
L 378.46231 153.130053 
L 379.362129 152.728553 
L 380.261948 151.925554 
L 381.161766 151.524055 
L 382.061585 151.925554 
L 384.76104 151.925554 
L 386.560678 151.122555 
L 387.460496 151.524055 
L 388.360315 151.524055 
L 389.260133 151.925554 
L 390.159952 151.925554 
L 391.059771 151.122555 
L 391.959589 152.327054 
L 392.859408 151.524055 
L 394.659045 151.524055 
L 395.558863 151.925554 
L 396.458682 151.925554 
L 397.358501 153.130053 
L 400.057956 153.130053 
L 400.957775 153.933052 
L 401.857594 153.130053 
L 402.757412 153.531552 
L 403.657231 154.334551 
L 404.557049 152.327054 
L 407.256505 152.327054 
L 408.156324 152.728553 
L 409.955961 151.925554 
L 411.755598 152.728553 
L 412.655417 152.327054 
L 416.254691 152.327054 
L 417.154509 153.130053 
L 418.054328 152.327054 
L 418.954147 152.327054 
L 419.853965 151.122555 
L 420.753784 151.925554 
L 421.653602 151.925554 
L 422.553421 151.122555 
L 423.45324 151.122555 
L 424.353058 151.524055 
L 426.152695 151.925554 
L 427.952333 152.728553 
L 428.852151 153.933052 
L 430.651788 151.524055 
L 431.551607 151.524055 
L 432.451425 151.122555 
L 433.351244 151.925554 
L 434.251063 150.721056 
L 435.150881 151.524055 
L 436.950518 151.524055 
L 437.850337 149.918057 
L 441.449611 149.918057 
L 442.34943 150.319556 
L 444.149067 149.516557 
L 445.948704 150.319556 
L 446.848523 149.516557 
L 448.64816 149.516557 
L 449.547979 149.918057 
L 452.247434 150.319556 
L 454.047071 150.319556 
L 454.94689 150.721056 
L 456.746527 148.312058 
L 457.646346 149.516557 
L 458.546164 150.319556 
L 459.445983 149.918057 
L 460.345802 150.721056 
L 461.24562 149.115058 
L 462.145439 150.319556 
L 463.945076 150.319556 
L 464.844894 150.721056 
L 465.744713 151.524055 
L 466.644532 150.319556 
L 468.444169 148.713558 
L 469.343987 148.312058 
L 470.243806 149.115058 
L 471.143625 147.910559 
L 472.043443 147.10756 
L 473.84308 146.304561 
L 475.642718 147.910559 
L 476.542536 147.10756 
L 477.442355 146.70606 
L 478.342173 147.509059 
L 479.241992 147.509059 
L 479.241992 147.509059 
" clip-path="url(#pbdd8c86617)" style="fill: none; stroke: #ff7f0e; stroke-width: 1.5; stroke-linecap: square"/>
   </g>
   <g id="line2d_29">
    <path d="M 73.42381 167.985536 
L 74.323629 167.985536 
L 75.223447 168.387035 
L 76.123266 167.985536 
L 77.023084 168.387035 
L 80.622359 168.387035 
L 82.421996 167.584036 
L 83.321814 167.584036 
L 84.221633 167.985536 
L 86.921089 167.985536 
L 89.620545 168.387035 
L 95.019456 168.387035 
L 95.919275 167.584036 
L 99.518549 167.584036 
L 100.418368 167.985536 
L 101.318186 167.584036 
L 114.815465 167.584036 
L 115.715284 167.182536 
L 124.713469 167.182536 
L 125.613288 166.781037 
L 126.513107 167.182536 
L 128.312744 167.182536 
L 129.212562 167.584036 
L 130.112381 167.584036 
L 131.912018 166.781037 
L 132.811837 167.182536 
L 139.110567 167.182536 
L 140.010385 166.379537 
L 142.709841 166.379537 
L 151.708027 165.978038 
L 155.307301 165.978038 
L 156.20712 166.379537 
L 157.106938 165.978038 
L 163.405669 165.978038 
L 164.305487 166.379537 
L 165.205306 166.379537 
L 166.105124 165.978038 
L 168.80458 165.978038 
L 169.704399 165.576538 
L 173.303673 165.576538 
L 174.203492 165.175039 
L 175.10331 165.576538 
L 176.003129 165.175039 
L 177.802766 165.978038 
L 178.702584 165.978038 
L 179.602403 165.576538 
L 182.301859 165.576538 
L 183.201677 165.175039 
L 186.800952 165.175039 
L 188.600589 164.37204 
L 200.298231 100.132115 
L 201.198049 101.336613 
L 202.097868 101.336613 
L 202.997686 99.730615 
L 203.897505 99.730615 
L 204.797323 99.329116 
L 205.697142 98.526117 
L 206.596961 100.132115 
L 207.496779 99.329116 
L 208.396598 99.730615 
L 209.296416 74.837644 
L 210.196235 66.406154 
L 211.096054 66.807654 
L 211.995872 67.610653 
L 214.695328 67.610653 
L 216.494965 66.807654 
L 217.394784 68.012152 
L 218.294602 67.610653 
L 220.094239 67.610653 
L 220.994058 69.216651 
L 221.893877 67.610653 
L 224.593332 67.209153 
L 225.493151 67.610653 
L 227.292788 67.610653 
L 228.192607 68.012152 
L 229.092425 68.012152 
L 232.6917 68.815151 
L 233.591518 66.406154 
L 234.491337 66.807654 
L 235.391155 66.406154 
L 236.290974 66.406154 
L 237.190792 65.201655 
L 238.090611 66.406154 
L 238.99043 67.209153 
L 239.890248 66.004655 
L 240.790067 67.209153 
L 241.689885 67.610653 
L 242.589704 67.610653 
L 244.389341 68.413652 
L 245.28916 68.413652 
L 246.188978 68.815151 
L 247.088797 68.012152 
L 247.988616 69.61815 
L 248.888434 70.01965 
L 249.788253 69.216651 
L 250.688071 69.61815 
L 251.58789 68.815151 
L 252.487708 70.01965 
L 254.287346 69.216651 
L 255.187164 71.224148 
L 256.086983 70.822649 
L 256.986801 70.822649 
L 257.88662 70.01965 
L 258.786439 70.822649 
L 259.686257 72.027148 
L 260.586076 69.216651 
L 261.485894 69.216651 
L 262.385713 70.01965 
L 263.285531 71.224148 
L 264.18535 70.822649 
L 265.085169 69.216651 
L 265.984987 70.822649 
L 266.884806 70.822649 
L 267.784624 69.216651 
L 268.684443 70.01965 
L 269.584262 70.421149 
L 270.48408 70.421149 
L 271.383899 71.224148 
L 272.283717 70.01965 
L 273.183536 69.216651 
L 274.083354 69.61815 
L 274.983173 70.822649 
L 275.882992 70.01965 
L 276.78281 69.61815 
L 277.682629 70.01965 
L 279.482266 69.216651 
L 282.181722 70.01965 
L 283.981359 68.012152 
L 287.580633 69.216651 
L 288.480452 68.815151 
L 313.675372 70.822649 
L 315.475009 72.428647 
L 316.374828 71.625648 
L 317.274647 72.027148 
L 319.074284 70.421149 
L 319.974102 70.421149 
L 321.773739 69.61815 
L 322.673558 68.012152 
L 323.573377 69.216651 
L 324.473195 69.216651 
L 325.373014 68.012152 
L 327.172651 68.815151 
L 328.07247 69.61815 
L 328.972288 68.413652 
L 329.872107 68.012152 
L 346.068841 66.807654 
L 346.96866 65.603155 
L 348.768297 66.807654 
L 349.668116 67.209153 
L 350.567934 65.603155 
L 351.467753 66.406154 
L 353.26739 64.800156 
L 354.167209 65.603155 
L 355.067027 65.201655 
L 355.966846 63.997157 
L 356.866664 63.194158 
L 357.766483 61.989659 
L 358.666301 63.194158 
L 359.56612 61.58816 
L 360.465939 63.194158 
L 361.365757 63.194158 
L 362.265576 61.18666 
L 364.965032 61.58816 
L 365.86485 60.785161 
L 366.764669 60.785161 
L 367.664487 61.18666 
L 368.564306 60.383661 
L 369.464124 60.383661 
L 370.363943 59.179163 
L 372.16358 59.982162 
L 373.063399 60.785161 
L 373.963217 59.982162 
L 374.863036 59.982162 
L 375.762855 59.179163 
L 376.662673 59.580662 
L 377.562492 60.383661 
L 378.46231 59.982162 
L 379.362129 58.777663 
L 380.261948 59.179163 
L 381.161766 57.974664 
L 382.061585 58.376163 
L 382.961403 57.974664 
L 383.861222 56.770165 
L 384.76104 57.573164 
L 385.660859 57.974664 
L 386.560678 56.368666 
L 387.460496 56.770165 
L 390.159952 56.770165 
L 391.059771 55.565667 
L 391.959589 55.565667 
L 392.859408 54.762668 
L 393.759226 54.762668 
L 394.659045 53.558169 
L 395.558863 54.361168 
L 396.458682 54.762668 
L 397.358501 55.565667 
L 398.258319 54.361168 
L 399.158138 53.959669 
L 400.057956 53.959669 
L 400.957775 54.762668 
L 401.857594 53.959669 
L 402.757412 55.164167 
L 403.657231 53.959669 
L 404.557049 53.558169 
L 407.256505 54.361168 
L 408.156324 53.959669 
L 409.056142 53.959669 
L 409.955961 53.15667 
L 411.755598 53.15667 
L 412.655417 53.558169 
L 413.555235 53.15667 
L 414.455054 53.15667 
L 415.354872 52.75517 
L 416.254691 54.361168 
L 417.154509 53.558169 
L 418.054328 54.762668 
L 418.954147 54.361168 
L 419.853965 54.361168 
L 421.653602 53.558169 
L 422.553421 52.75517 
L 423.45324 54.762668 
L 424.353058 54.361168 
L 426.152695 53.15667 
L 427.052514 52.75517 
L 427.952333 53.959669 
L 428.852151 51.952171 
L 429.75197 52.35367 
L 430.651788 51.149172 
L 431.551607 52.35367 
L 432.451425 49.543174 
L 433.351244 50.346173 
L 434.251063 51.952171 
L 435.150881 53.959669 
L 436.0507 54.762668 
L 436.950518 51.952171 
L 437.850337 52.35367 
L 440.549793 55.967166 
L 441.449611 53.959669 
L 443.249248 53.959669 
L 444.149067 53.558169 
L 445.048886 53.959669 
L 445.948704 54.762668 
L 446.848523 54.762668 
L 447.748341 53.558169 
L 448.64816 53.959669 
L 449.547979 51.550671 
L 452.247434 53.15667 
L 453.147253 54.361168 
L 454.94689 54.361168 
L 455.846709 53.558169 
L 456.746527 51.952171 
L 457.646346 53.558169 
L 458.546164 53.959669 
L 459.445983 53.15667 
L 460.345802 54.762668 
L 461.24562 51.550671 
L 462.145439 51.149172 
L 463.045257 51.550671 
L 463.945076 50.346173 
L 464.844894 49.944673 
L 465.744713 50.346173 
L 466.644532 49.543174 
L 467.54435 49.141674 
L 469.343987 46.732677 
L 470.243806 45.929678 
L 471.143625 47.134177 
L 472.043443 47.134177 
L 472.943262 44.725179 
L 473.84308 43.520681 
L 474.742899 41.914683 
L 475.642718 42.717682 
L 476.542536 39.907185 
L 477.442355 40.710184 
L 478.342173 39.505685 
L 479.241992 39.104186 
L 479.241992 39.104186 
" clip-path="url(#pbdd8c86617)" style="fill: none; stroke: #2ca02c; stroke-width: 1.5; stroke-linecap: square"/>
   </g>
   <g id="patch_3">
    <path d="M 53.132901 178.585123 
L 53.132901 7.225123 
" style="fill: none; stroke: #000000; stroke-width: 0.8; stroke-linejoin: miter; stroke-linecap: square"/>
   </g>
   <g id="patch_4">
    <path d="M 499.532901 178.585123 
L 499.532901 7.225123 
" style="fill: none; stroke: #000000; stroke-width: 0.8; stroke-linejoin: miter; stroke-linecap: square"/>
   </g>
   <g id="patch_5">
    <path d="M 53.132901 178.585123 
L 499.532901 178.585123 
" style="fill: none; stroke: #000000; stroke-width: 0.8; stroke-linejoin: miter; stroke-linecap: square"/>
   </g>
   <g id="patch_6">
    <path d="M 53.132901 7.225123 
L 499.532901 7.225123 
" style="fill: none; stroke: #000000; stroke-width: 0.8; stroke-linejoin: miter; stroke-linecap: square"/>
   </g>
   <g id="legend_1">
    <g id="patch_7">
     <path d="M 60.132901 59.259498 
L 157.745401 59.259498 
Q 159.745401 59.259498 159.745401 57.259498 
L 159.745401 14.225123 
Q 159.745401 12.225123 157.745401 12.225123 
L 60.132901 12.225123 
Q 58.132901 12.225123 58.132901 14.225123 
L 58.132901 57.259498 
Q 58.132901 59.259498 60.132901 59.259498 
z
" style="fill: #ffffff; opacity: 0.8; stroke: #cccccc; stroke-linejoin: miter"/>
    </g>
    <g id="line2d_30">
     <path d="M 62.132901 20.323561 
L 72.132901 20.323561 
L 82.132901 20.323561 
" style="fill: none; stroke: #1f77b4; stroke-width: 1.5; stroke-linecap: square"/>
    </g>
    <g id="text_23">
     <!-- COEP header -->
     <g transform="translate(90.132901 23.823561)scale(0.1 -0.1)">
      <defs>
       <path id="DejaVuSans-43" d="M 4122 4306 
L 4122 3641 
Q 3803 3938 3442 4084 
Q 3081 4231 2675 4231 
Q 1875 4231 1450 3742 
Q 1025 3253 1025 2328 
Q 1025 1406 1450 917 
Q 1875 428 2675 428 
Q 3081 428 3442 575 
Q 3803 722 4122 1019 
L 4122 359 
Q 3791 134 3420 21 
Q 3050 -91 2638 -91 
Q 1578 -91 968 557 
Q 359 1206 359 2328 
Q 359 3453 968 4101 
Q 1578 4750 2638 4750 
Q 3056 4750 3426 4639 
Q 3797 4528 4122 4306 
z
" transform="scale(0.015625)"/>
       <path id="DejaVuSans-45" d="M 628 4666 
L 3578 4666 
L 3578 4134 
L 1259 4134 
L 1259 2753 
L 3481 2753 
L 3481 2222 
L 1259 2222 
L 1259 531 
L 3634 531 
L 3634 0 
L 628 0 
L 628 4666 
z
" transform="scale(0.015625)"/>
       <path id="DejaVuSans-50" d="M 1259 4147 
L 1259 2394 
L 2053 2394 
Q 2494 2394 2734 2622 
Q 2975 2850 2975 3272 
Q 2975 3691 2734 3919 
Q 2494 4147 2053 4147 
L 1259 4147 
z
M 628 4666 
L 2053 4666 
Q 2838 4666 3239 4311 
Q 3641 3956 3641 3272 
Q 3641 2581 3239 2228 
Q 2838 1875 2053 1875 
L 1259 1875 
L 1259 0 
L 628 0 
L 628 4666 
z
" transform="scale(0.015625)"/>
       <path id="DejaVuSans-68" d="M 3513 2113 
L 3513 0 
L 2938 0 
L 2938 2094 
Q 2938 2591 2744 2837 
Q 2550 3084 2163 3084 
Q 1697 3084 1428 2787 
Q 1159 2491 1159 1978 
L 1159 0 
L 581 0 
L 581 4863 
L 1159 4863 
L 1159 2956 
Q 1366 3272 1645 3428 
Q 1925 3584 2291 3584 
Q 2894 3584 3203 3211 
Q 3513 2838 3513 2113 
z
" transform="scale(0.015625)"/>
       <path id="DejaVuSans-64" d="M 2906 2969 
L 2906 4863 
L 3481 4863 
L 3481 0 
L 2906 0 
L 2906 525 
Q 2725 213 2448 61 
Q 2172 -91 1784 -91 
Q 1150 -91 751 415 
Q 353 922 353 1747 
Q 353 2572 751 3078 
Q 1150 3584 1784 3584 
Q 2172 3584 2448 3432 
Q 2725 3281 2906 2969 
z
M 947 1747 
Q 947 1113 1208 752 
Q 1469 391 1925 391 
Q 2381 391 2643 752 
Q 2906 1113 2906 1747 
Q 2906 2381 2643 2742 
Q 2381 3103 1925 3103 
Q 1469 3103 1208 2742 
Q 947 2381 947 1747 
z
" transform="scale(0.015625)"/>
      </defs>
      <use xlink:href="#DejaVuSans-43"/>
      <use xlink:href="#DejaVuSans-4f" x="69.824219"/>
      <use xlink:href="#DejaVuSans-45" x="148.535156"/>
      <use xlink:href="#DejaVuSans-50" x="211.71875"/>
      <use xlink:href="#DejaVuSans-20" x="272.021484"/>
      <use xlink:href="#DejaVuSans-68" x="303.808594"/>
      <use xlink:href="#DejaVuSans-65" x="367.1875"/>
      <use xlink:href="#DejaVuSans-61" x="428.710938"/>
      <use xlink:href="#DejaVuSans-64" x="489.990234"/>
      <use xlink:href="#DejaVuSans-65" x="553.466797"/>
      <use xlink:href="#DejaVuSans-72" x="614.990234"/>
     </g>
    </g>
    <g id="line2d_31">
     <path d="M 62.132901 35.001686 
L 72.132901 35.001686 
L 82.132901 35.001686 
" style="fill: none; stroke: #ff7f0e; stroke-width: 1.5; stroke-linecap: square"/>
    </g>
    <g id="text_24">
     <!-- require-corp -->
     <g transform="translate(90.132901 38.501686)scale(0.1 -0.1)">
      <defs>
       <path id="DejaVuSans-71" d="M 947 1747 
Q 947 1113 1208 752 
Q 1469 391 1925 391 
Q 2381 391 2643 752 
Q 2906 1113 2906 1747 
Q 2906 2381 2643 2742 
Q 2381 3103 1925 3103 
Q 1469 3103 1208 2742 
Q 947 2381 947 1747 
z
M 2906 525 
Q 2725 213 2448 61 
Q 2172 -91 1784 -91 
Q 1150 -91 751 415 
Q 353 922 353 1747 
Q 353 2572 751 3078 
Q 1150 3584 1784 3584 
Q 2172 3584 2448 3432 
Q 2725 3281 2906 2969 
L 2906 3500 
L 3481 3500 
L 3481 -1331 
L 2906 -1331 
L 2906 525 
z
" transform="scale(0.015625)"/>
      </defs>
      <use xlink:href="#DejaVuSans-72"/>
      <use xlink:href="#DejaVuSans-65" x="38.863281"/>
      <use xlink:href="#DejaVuSans-71" x="100.386719"/>
      <use xlink:href="#DejaVuSans-75" x="163.863281"/>
      <use xlink:href="#DejaVuSans-69" x="227.242188"/>
      <use xlink:href="#DejaVuSans-72" x="255.025391"/>
      <use xlink:href="#DejaVuSans-65" x="293.888672"/>
      <use xlink:href="#DejaVuSans-2d" x="355.412109"/>
      <use xlink:href="#DejaVuSans-63" x="391.496094"/>
      <use xlink:href="#DejaVuSans-6f" x="446.476562"/>
      <use xlink:href="#DejaVuSans-72" x="507.658203"/>
      <use xlink:href="#DejaVuSans-70" x="548.771484"/>
     </g>
    </g>
    <g id="line2d_32">
     <path d="M 62.132901 49.679811 
L 72.132901 49.679811 
L 82.132901 49.679811 
" style="fill: none; stroke: #2ca02c; stroke-width: 1.5; stroke-linecap: square"/>
    </g>
    <g id="text_25">
     <!-- unsafe-none -->
     <g transform="translate(90.132901 53.179811)scale(0.1 -0.1)">
      <use xlink:href="#DejaVuSans-75"/>
      <use xlink:href="#DejaVuSans-6e" x="63.378906"/>
      <use xlink:href="#DejaVuSans-73" x="126.757812"/>
      <use xlink:href="#DejaVuSans-61" x="178.857422"/>
      <use xlink:href="#DejaVuSans-66" x="240.136719"/>
      <use xlink:href="#DejaVuSans-65" x="275.341797"/>
      <use xlink:href="#DejaVuSans-2d" x="336.865234"/>
      <use xlink:href="#DejaVuSans-6e" x="372.949219"/>
      <use xlink:href="#DejaVuSans-6f" x="436.328125"/>
      <use xlink:href="#DejaVuSans-6e" x="497.509766"/>
      <use xlink:href="#DejaVuSans-65" x="560.888672"/>
     </g>
    </g>
   </g>
  </g>
 </g>
 <defs>
  <clipPath id="pbdd8c86617">
   <rect x="53.132901" y="7.225123" width="446.4" height="171.36"/>
  </clipPath>
 </defs>
</svg>
