<?xml version="1.0" encoding="utf-8" standalone="no"?>
<!DOCTYPE svg PUBLIC "-//W3C//DTD SVG 1.1//EN"
  "http://www.w3.org/Graphics/SVG/1.1/DTD/svg11.dtd">
<svg xmlns:xlink="http://www.w3.org/1999/xlink" width="506.928125pt" height="234.086815pt" viewBox="0 0 506.928125 234.086815" xmlns="http://www.w3.org/2000/svg" version="1.1">
 <metadata>
  <rdf:RDF xmlns:dc="http://purl.org/dc/elements/1.1/" xmlns:cc="http://creativecommons.org/ns#" xmlns:rdf="http://www.w3.org/1999/02/22-rdf-syntax-ns#">
   <cc:Work>
    <dc:type rdf:resource="http://purl.org/dc/dcmitype/StillImage"/>
    <dc:date>2022-02-13T18:53:39.311672</dc:date>
    <dc:format>image/svg+xml</dc:format>
    <dc:creator>
     <cc:Agent>
      <dc:title>Matplotlib v3.5.1, https://matplotlib.org/</dc:title>
     </cc:Agent>
    </dc:creator>
   </cc:Work>
  </rdf:RDF>
 </metadata>
 <defs>
  <style type="text/css">*{stroke-linejoin: round; stroke-linecap: butt}</style>
 </defs>
 <g id="figure_1">
  <g id="patch_1">
   <path d="M 0 234.086815 
L 506.928125 234.086815 
L 506.928125 0 
L 0 0 
z
" style="fill: #ffffff"/>
  </g>
  <g id="axes_1">
   <g id="patch_2">
    <path d="M 53.328125 178.56 
L 499.728125 178.56 
L 499.728125 7.2 
L 53.328125 7.2 
z
" style="fill: #ffffff"/>
   </g>
   <g id="matplotlib.axis_1">
    <g id="xtick_1">
     <g id="line2d_1">
      <defs>
       <path id="m2b80ef52fb" d="M 0 0 
L 0 3.5 
" style="stroke: #000000; stroke-width: 0.8"/>
      </defs>
      <g>
       <use xlink:href="#m2b80ef52fb" x="68.220123" y="178.56" style="stroke: #000000; stroke-width: 0.8"/>
      </g>
     </g>
     <g id="text_1">
      <!-- 2020-Nov-01 -->
      <g transform="translate(11.194443 224.463877)rotate(-30)scale(0.1 -0.1)">
       <defs>
        <path id="DejaVuSans-32" d="M 1228 531 
L 3431 531 
L 3431 0 
L 469 0 
L 469 531 
Q 828 903 1448 1529 
Q 2069 2156 2228 2338 
Q 2531 2678 2651 2914 
Q 2772 3150 2772 3378 
Q 2772 3750 2511 3984 
Q 2250 4219 1831 4219 
Q 1534 4219 1204 4116 
Q 875 4013 500 3803 
L 500 4441 
Q 881 4594 1212 4672 
Q 1544 4750 1819 4750 
Q 2544 4750 2975 4387 
Q 3406 4025 3406 3419 
Q 3406 3131 3298 2873 
Q 3191 2616 2906 2266 
Q 2828 2175 2409 1742 
Q 1991 1309 1228 531 
z
" transform="scale(0.015625)"/>
        <path id="DejaVuSans-30" d="M 2034 4250 
Q 1547 4250 1301 3770 
Q 1056 3291 1056 2328 
Q 1056 1369 1301 889 
Q 1547 409 2034 409 
Q 2525 409 2770 889 
Q 3016 1369 3016 2328 
Q 3016 3291 2770 3770 
Q 2525 4250 2034 4250 
z
M 2034 4750 
Q 2819 4750 3233 4129 
Q 3647 3509 3647 2328 
Q 3647 1150 3233 529 
Q 2819 -91 2034 -91 
Q 1250 -91 836 529 
Q 422 1150 422 2328 
Q 422 3509 836 4129 
Q 1250 4750 2034 4750 
z
" transform="scale(0.015625)"/>
        <path id="DejaVuSans-2d" d="M 313 2009 
L 1997 2009 
L 1997 1497 
L 313 1497 
L 313 2009 
z
" transform="scale(0.015625)"/>
        <path id="DejaVuSans-4e" d="M 628 4666 
L 1478 4666 
L 3547 763 
L 3547 4666 
L 4159 4666 
L 4159 0 
L 3309 0 
L 1241 3903 
L 1241 0 
L 628 0 
L 628 4666 
z
" transform="scale(0.015625)"/>
        <path id="DejaVuSans-6f" d="M 1959 3097 
Q 1497 3097 1228 2736 
Q 959 2375 959 1747 
Q 959 1119 1226 758 
Q 1494 397 1959 397 
Q 2419 397 2687 759 
Q 2956 1122 2956 1747 
Q 2956 2369 2687 2733 
Q 2419 3097 1959 3097 
z
M 1959 3584 
Q 2709 3584 3137 3096 
Q 3566 2609 3566 1747 
Q 3566 888 3137 398 
Q 2709 -91 1959 -91 
Q 1206 -91 779 398 
Q 353 888 353 1747 
Q 353 2609 779 3096 
Q 1206 3584 1959 3584 
z
" transform="scale(0.015625)"/>
        <path id="DejaVuSans-76" d="M 191 3500 
L 800 3500 
L 1894 563 
L 2988 3500 
L 3597 3500 
L 2284 0 
L 1503 0 
L 191 3500 
z
" transform="scale(0.015625)"/>
        <path id="DejaVuSans-31" d="M 794 531 
L 1825 531 
L 1825 4091 
L 703 3866 
L 703 4441 
L 1819 4666 
L 2450 4666 
L 2450 531 
L 3481 531 
L 3481 0 
L 794 0 
L 794 531 
z
" transform="scale(0.015625)"/>
       </defs>
       <use xlink:href="#DejaVuSans-32"/>
       <use xlink:href="#DejaVuSans-30" x="63.623047"/>
       <use xlink:href="#DejaVuSans-32" x="127.246094"/>
       <use xlink:href="#DejaVuSans-30" x="190.869141"/>
       <use xlink:href="#DejaVuSans-2d" x="254.492188"/>
       <use xlink:href="#DejaVuSans-4e" x="290.576172"/>
       <use xlink:href="#DejaVuSans-6f" x="365.380859"/>
       <use xlink:href="#DejaVuSans-76" x="426.5625"/>
       <use xlink:href="#DejaVuSans-2d" x="483.117188"/>
       <use xlink:href="#DejaVuSans-30" x="519.201172"/>
       <use xlink:href="#DejaVuSans-31" x="582.824219"/>
      </g>
     </g>
    </g>
    <g id="xtick_2">
     <g id="line2d_2">
      <g>
       <use xlink:href="#m2b80ef52fb" x="95.21468" y="178.56" style="stroke: #000000; stroke-width: 0.8"/>
      </g>
     </g>
     <g id="text_2">
      <!-- 2020-Dec-01 -->
      <g transform="translate(38.106457 224.511534)rotate(-30)scale(0.1 -0.1)">
       <defs>
        <path id="DejaVuSans-44" d="M 1259 4147 
L 1259 519 
L 2022 519 
Q 2988 519 3436 956 
Q 3884 1394 3884 2338 
Q 3884 3275 3436 3711 
Q 2988 4147 2022 4147 
L 1259 4147 
z
M 628 4666 
L 1925 4666 
Q 3281 4666 3915 4102 
Q 4550 3538 4550 2338 
Q 4550 1131 3912 565 
Q 3275 0 1925 0 
L 628 0 
L 628 4666 
z
" transform="scale(0.015625)"/>
        <path id="DejaVuSans-65" d="M 3597 1894 
L 3597 1613 
L 953 1613 
Q 991 1019 1311 708 
Q 1631 397 2203 397 
Q 2534 397 2845 478 
Q 3156 559 3463 722 
L 3463 178 
Q 3153 47 2828 -22 
Q 2503 -91 2169 -91 
Q 1331 -91 842 396 
Q 353 884 353 1716 
Q 353 2575 817 3079 
Q 1281 3584 2069 3584 
Q 2775 3584 3186 3129 
Q 3597 2675 3597 1894 
z
M 3022 2063 
Q 3016 2534 2758 2815 
Q 2500 3097 2075 3097 
Q 1594 3097 1305 2825 
Q 1016 2553 972 2059 
L 3022 2063 
z
" transform="scale(0.015625)"/>
        <path id="DejaVuSans-63" d="M 3122 3366 
L 3122 2828 
Q 2878 2963 2633 3030 
Q 2388 3097 2138 3097 
Q 1578 3097 1268 2742 
Q 959 2388 959 1747 
Q 959 1106 1268 751 
Q 1578 397 2138 397 
Q 2388 397 2633 464 
Q 2878 531 3122 666 
L 3122 134 
Q 2881 22 2623 -34 
Q 2366 -91 2075 -91 
Q 1284 -91 818 406 
Q 353 903 353 1747 
Q 353 2603 823 3093 
Q 1294 3584 2113 3584 
Q 2378 3584 2631 3529 
Q 2884 3475 3122 3366 
z
" transform="scale(0.015625)"/>
       </defs>
       <use xlink:href="#DejaVuSans-32"/>
       <use xlink:href="#DejaVuSans-30" x="63.623047"/>
       <use xlink:href="#DejaVuSans-32" x="127.246094"/>
       <use xlink:href="#DejaVuSans-30" x="190.869141"/>
       <use xlink:href="#DejaVuSans-2d" x="254.492188"/>
       <use xlink:href="#DejaVuSans-44" x="290.576172"/>
       <use xlink:href="#DejaVuSans-65" x="367.578125"/>
       <use xlink:href="#DejaVuSans-63" x="429.101562"/>
       <use xlink:href="#DejaVuSans-2d" x="484.082031"/>
       <use xlink:href="#DejaVuSans-30" x="520.166016"/>
       <use xlink:href="#DejaVuSans-31" x="583.789062"/>
      </g>
     </g>
    </g>
    <g id="xtick_3">
     <g id="line2d_3">
      <g>
       <use xlink:href="#m2b80ef52fb" x="123.109056" y="178.56" style="stroke: #000000; stroke-width: 0.8"/>
      </g>
     </g>
     <g id="text_3">
      <!-- 2021-Jan-01 -->
      <g transform="translate(68.922316 222.824815)rotate(-30)scale(0.1 -0.1)">
       <defs>
        <path id="DejaVuSans-4a" d="M 628 4666 
L 1259 4666 
L 1259 325 
Q 1259 -519 939 -900 
Q 619 -1281 -91 -1281 
L -331 -1281 
L -331 -750 
L -134 -750 
Q 284 -750 456 -515 
Q 628 -281 628 325 
L 628 4666 
z
" transform="scale(0.015625)"/>
        <path id="DejaVuSans-61" d="M 2194 1759 
Q 1497 1759 1228 1600 
Q 959 1441 959 1056 
Q 959 750 1161 570 
Q 1363 391 1709 391 
Q 2188 391 2477 730 
Q 2766 1069 2766 1631 
L 2766 1759 
L 2194 1759 
z
M 3341 1997 
L 3341 0 
L 2766 0 
L 2766 531 
Q 2569 213 2275 61 
Q 1981 -91 1556 -91 
Q 1019 -91 701 211 
Q 384 513 384 1019 
Q 384 1609 779 1909 
Q 1175 2209 1959 2209 
L 2766 2209 
L 2766 2266 
Q 2766 2663 2505 2880 
Q 2244 3097 1772 3097 
Q 1472 3097 1187 3025 
Q 903 2953 641 2809 
L 641 3341 
Q 956 3463 1253 3523 
Q 1550 3584 1831 3584 
Q 2591 3584 2966 3190 
Q 3341 2797 3341 1997 
z
" transform="scale(0.015625)"/>
        <path id="DejaVuSans-6e" d="M 3513 2113 
L 3513 0 
L 2938 0 
L 2938 2094 
Q 2938 2591 2744 2837 
Q 2550 3084 2163 3084 
Q 1697 3084 1428 2787 
Q 1159 2491 1159 1978 
L 1159 0 
L 581 0 
L 581 3500 
L 1159 3500 
L 1159 2956 
Q 1366 3272 1645 3428 
Q 1925 3584 2291 3584 
Q 2894 3584 3203 3211 
Q 3513 2838 3513 2113 
z
" transform="scale(0.015625)"/>
       </defs>
       <use xlink:href="#DejaVuSans-32"/>
       <use xlink:href="#DejaVuSans-30" x="63.623047"/>
       <use xlink:href="#DejaVuSans-32" x="127.246094"/>
       <use xlink:href="#DejaVuSans-31" x="190.869141"/>
       <use xlink:href="#DejaVuSans-2d" x="254.492188"/>
       <use xlink:href="#DejaVuSans-4a" x="296.201172"/>
       <use xlink:href="#DejaVuSans-61" x="325.693359"/>
       <use xlink:href="#DejaVuSans-6e" x="386.972656"/>
       <use xlink:href="#DejaVuSans-2d" x="450.351562"/>
       <use xlink:href="#DejaVuSans-30" x="486.435547"/>
       <use xlink:href="#DejaVuSans-31" x="550.058594"/>
      </g>
     </g>
    </g>
    <g id="xtick_4">
     <g id="line2d_4">
      <g>
       <use xlink:href="#m2b80ef52fb" x="151.003432" y="178.56" style="stroke: #000000; stroke-width: 0.8"/>
      </g>
     </g>
     <g id="text_4">
      <!-- 2021-Feb-01 -->
      <g transform="translate(95.322798 223.687315)rotate(-30)scale(0.1 -0.1)">
       <defs>
        <path id="DejaVuSans-46" d="M 628 4666 
L 3309 4666 
L 3309 4134 
L 1259 4134 
L 1259 2759 
L 3109 2759 
L 3109 2228 
L 1259 2228 
L 1259 0 
L 628 0 
L 628 4666 
z
" transform="scale(0.015625)"/>
        <path id="DejaVuSans-62" d="M 3116 1747 
Q 3116 2381 2855 2742 
Q 2594 3103 2138 3103 
Q 1681 3103 1420 2742 
Q 1159 2381 1159 1747 
Q 1159 1113 1420 752 
Q 1681 391 2138 391 
Q 2594 391 2855 752 
Q 3116 1113 3116 1747 
z
M 1159 2969 
Q 1341 3281 1617 3432 
Q 1894 3584 2278 3584 
Q 2916 3584 3314 3078 
Q 3713 2572 3713 1747 
Q 3713 922 3314 415 
Q 2916 -91 2278 -91 
Q 1894 -91 1617 61 
Q 1341 213 1159 525 
L 1159 0 
L 581 0 
L 581 4863 
L 1159 4863 
L 1159 2969 
z
" transform="scale(0.015625)"/>
       </defs>
       <use xlink:href="#DejaVuSans-32"/>
       <use xlink:href="#DejaVuSans-30" x="63.623047"/>
       <use xlink:href="#DejaVuSans-32" x="127.246094"/>
       <use xlink:href="#DejaVuSans-31" x="190.869141"/>
       <use xlink:href="#DejaVuSans-2d" x="254.492188"/>
       <use xlink:href="#DejaVuSans-46" x="290.576172"/>
       <use xlink:href="#DejaVuSans-65" x="342.595703"/>
       <use xlink:href="#DejaVuSans-62" x="404.119141"/>
       <use xlink:href="#DejaVuSans-2d" x="467.595703"/>
       <use xlink:href="#DejaVuSans-30" x="503.679688"/>
       <use xlink:href="#DejaVuSans-31" x="567.302734"/>
      </g>
     </g>
    </g>
    <g id="xtick_5">
     <g id="line2d_5">
      <g>
       <use xlink:href="#m2b80ef52fb" x="176.198353" y="178.56" style="stroke: #000000; stroke-width: 0.8"/>
      </g>
     </g>
     <g id="text_5">
      <!-- 2021-Mar-01 -->
      <g transform="translate(120.061702 223.950596)rotate(-30)scale(0.1 -0.1)">
       <defs>
        <path id="DejaVuSans-4d" d="M 628 4666 
L 1569 4666 
L 2759 1491 
L 3956 4666 
L 4897 4666 
L 4897 0 
L 4281 0 
L 4281 4097 
L 3078 897 
L 2444 897 
L 1241 4097 
L 1241 0 
L 628 0 
L 628 4666 
z
" transform="scale(0.015625)"/>
        <path id="DejaVuSans-72" d="M 2631 2963 
Q 2534 3019 2420 3045 
Q 2306 3072 2169 3072 
Q 1681 3072 1420 2755 
Q 1159 2438 1159 1844 
L 1159 0 
L 581 0 
L 581 3500 
L 1159 3500 
L 1159 2956 
Q 1341 3275 1631 3429 
Q 1922 3584 2338 3584 
Q 2397 3584 2469 3576 
Q 2541 3569 2628 3553 
L 2631 2963 
z
" transform="scale(0.015625)"/>
       </defs>
       <use xlink:href="#DejaVuSans-32"/>
       <use xlink:href="#DejaVuSans-30" x="63.623047"/>
       <use xlink:href="#DejaVuSans-32" x="127.246094"/>
       <use xlink:href="#DejaVuSans-31" x="190.869141"/>
       <use xlink:href="#DejaVuSans-2d" x="254.492188"/>
       <use xlink:href="#DejaVuSans-4d" x="290.576172"/>
       <use xlink:href="#DejaVuSans-61" x="376.855469"/>
       <use xlink:href="#DejaVuSans-72" x="438.134766"/>
       <use xlink:href="#DejaVuSans-2d" x="472.873047"/>
       <use xlink:href="#DejaVuSans-30" x="508.957031"/>
       <use xlink:href="#DejaVuSans-31" x="572.580078"/>
      </g>
     </g>
    </g>
    <g id="xtick_6">
     <g id="line2d_6">
      <g>
       <use xlink:href="#m2b80ef52fb" x="204.092729" y="178.56" style="stroke: #000000; stroke-width: 0.8"/>
      </g>
     </g>
     <g id="text_6">
      <!-- 2021-Apr-01 -->
      <g transform="translate(149.508158 223.054502)rotate(-30)scale(0.1 -0.1)">
       <defs>
        <path id="DejaVuSans-41" d="M 2188 4044 
L 1331 1722 
L 3047 1722 
L 2188 4044 
z
M 1831 4666 
L 2547 4666 
L 4325 0 
L 3669 0 
L 3244 1197 
L 1141 1197 
L 716 0 
L 50 0 
L 1831 4666 
z
" transform="scale(0.015625)"/>
        <path id="DejaVuSans-70" d="M 1159 525 
L 1159 -1331 
L 581 -1331 
L 581 3500 
L 1159 3500 
L 1159 2969 
Q 1341 3281 1617 3432 
Q 1894 3584 2278 3584 
Q 2916 3584 3314 3078 
Q 3713 2572 3713 1747 
Q 3713 922 3314 415 
Q 2916 -91 2278 -91 
Q 1894 -91 1617 61 
Q 1341 213 1159 525 
z
M 3116 1747 
Q 3116 2381 2855 2742 
Q 2594 3103 2138 3103 
Q 1681 3103 1420 2742 
Q 1159 2381 1159 1747 
Q 1159 1113 1420 752 
Q 1681 391 2138 391 
Q 2594 391 2855 752 
Q 3116 1113 3116 1747 
z
" transform="scale(0.015625)"/>
       </defs>
       <use xlink:href="#DejaVuSans-32"/>
       <use xlink:href="#DejaVuSans-30" x="63.623047"/>
       <use xlink:href="#DejaVuSans-32" x="127.246094"/>
       <use xlink:href="#DejaVuSans-31" x="190.869141"/>
       <use xlink:href="#DejaVuSans-2d" x="254.492188"/>
       <use xlink:href="#DejaVuSans-41" x="288.326172"/>
       <use xlink:href="#DejaVuSans-70" x="356.734375"/>
       <use xlink:href="#DejaVuSans-72" x="420.210938"/>
       <use xlink:href="#DejaVuSans-2d" x="454.949219"/>
       <use xlink:href="#DejaVuSans-30" x="491.033203"/>
       <use xlink:href="#DejaVuSans-31" x="554.65625"/>
      </g>
     </g>
    </g>
    <g id="xtick_7">
     <g id="line2d_7">
      <g>
       <use xlink:href="#m2b80ef52fb" x="231.087286" y="178.56" style="stroke: #000000; stroke-width: 0.8"/>
      </g>
     </g>
     <g id="text_7">
      <!-- 2021-May-01 -->
      <g transform="translate(172.984488 225.085752)rotate(-30)scale(0.1 -0.1)">
       <defs>
        <path id="DejaVuSans-79" d="M 2059 -325 
Q 1816 -950 1584 -1140 
Q 1353 -1331 966 -1331 
L 506 -1331 
L 506 -850 
L 844 -850 
Q 1081 -850 1212 -737 
Q 1344 -625 1503 -206 
L 1606 56 
L 191 3500 
L 800 3500 
L 1894 763 
L 2988 3500 
L 3597 3500 
L 2059 -325 
z
" transform="scale(0.015625)"/>
       </defs>
       <use xlink:href="#DejaVuSans-32"/>
       <use xlink:href="#DejaVuSans-30" x="63.623047"/>
       <use xlink:href="#DejaVuSans-32" x="127.246094"/>
       <use xlink:href="#DejaVuSans-31" x="190.869141"/>
       <use xlink:href="#DejaVuSans-2d" x="254.492188"/>
       <use xlink:href="#DejaVuSans-4d" x="290.576172"/>
       <use xlink:href="#DejaVuSans-61" x="376.855469"/>
       <use xlink:href="#DejaVuSans-79" x="438.134766"/>
       <use xlink:href="#DejaVuSans-2d" x="495.564453"/>
       <use xlink:href="#DejaVuSans-30" x="531.648438"/>
       <use xlink:href="#DejaVuSans-31" x="595.271484"/>
      </g>
     </g>
    </g>
    <g id="xtick_8">
     <g id="line2d_8">
      <g>
       <use xlink:href="#m2b80ef52fb" x="258.981663" y="178.56" style="stroke: #000000; stroke-width: 0.8"/>
      </g>
     </g>
     <g id="text_8">
      <!-- 2021-Jun-01 -->
      <g transform="translate(204.613598 222.929502)rotate(-30)scale(0.1 -0.1)">
       <defs>
        <path id="DejaVuSans-75" d="M 544 1381 
L 544 3500 
L 1119 3500 
L 1119 1403 
Q 1119 906 1312 657 
Q 1506 409 1894 409 
Q 2359 409 2629 706 
Q 2900 1003 2900 1516 
L 2900 3500 
L 3475 3500 
L 3475 0 
L 2900 0 
L 2900 538 
Q 2691 219 2414 64 
Q 2138 -91 1772 -91 
Q 1169 -91 856 284 
Q 544 659 544 1381 
z
M 1991 3584 
L 1991 3584 
z
" transform="scale(0.015625)"/>
       </defs>
       <use xlink:href="#DejaVuSans-32"/>
       <use xlink:href="#DejaVuSans-30" x="63.623047"/>
       <use xlink:href="#DejaVuSans-32" x="127.246094"/>
       <use xlink:href="#DejaVuSans-31" x="190.869141"/>
       <use xlink:href="#DejaVuSans-2d" x="254.492188"/>
       <use xlink:href="#DejaVuSans-4a" x="296.201172"/>
       <use xlink:href="#DejaVuSans-75" x="325.693359"/>
       <use xlink:href="#DejaVuSans-6e" x="389.072266"/>
       <use xlink:href="#DejaVuSans-2d" x="452.451172"/>
       <use xlink:href="#DejaVuSans-30" x="488.535156"/>
       <use xlink:href="#DejaVuSans-31" x="552.158203"/>
      </g>
     </g>
    </g>
    <g id="xtick_9">
     <g id="line2d_9">
      <g>
       <use xlink:href="#m2b80ef52fb" x="285.97622" y="178.56" style="stroke: #000000; stroke-width: 0.8"/>
      </g>
     </g>
     <g id="text_9">
      <!-- 2021-Jul-01 -->
      <g transform="translate(234.690665 221.149815)rotate(-30)scale(0.1 -0.1)">
       <defs>
        <path id="DejaVuSans-6c" d="M 603 4863 
L 1178 4863 
L 1178 0 
L 603 0 
L 603 4863 
z
" transform="scale(0.015625)"/>
       </defs>
       <use xlink:href="#DejaVuSans-32"/>
       <use xlink:href="#DejaVuSans-30" x="63.623047"/>
       <use xlink:href="#DejaVuSans-32" x="127.246094"/>
       <use xlink:href="#DejaVuSans-31" x="190.869141"/>
       <use xlink:href="#DejaVuSans-2d" x="254.492188"/>
       <use xlink:href="#DejaVuSans-4a" x="296.201172"/>
       <use xlink:href="#DejaVuSans-75" x="325.693359"/>
       <use xlink:href="#DejaVuSans-6c" x="389.072266"/>
       <use xlink:href="#DejaVuSans-2d" x="416.855469"/>
       <use xlink:href="#DejaVuSans-30" x="452.939453"/>
       <use xlink:href="#DejaVuSans-31" x="516.5625"/>
      </g>
     </g>
    </g>
    <g id="xtick_10">
     <g id="line2d_10">
      <g>
       <use xlink:href="#m2b80ef52fb" x="313.870596" y="178.56" style="stroke: #000000; stroke-width: 0.8"/>
      </g>
     </g>
     <g id="text_10">
      <!-- 2021-Aug-01 -->
      <g transform="translate(256.805675 224.486534)rotate(-30)scale(0.1 -0.1)">
       <defs>
        <path id="DejaVuSans-67" d="M 2906 1791 
Q 2906 2416 2648 2759 
Q 2391 3103 1925 3103 
Q 1463 3103 1205 2759 
Q 947 2416 947 1791 
Q 947 1169 1205 825 
Q 1463 481 1925 481 
Q 2391 481 2648 825 
Q 2906 1169 2906 1791 
z
M 3481 434 
Q 3481 -459 3084 -895 
Q 2688 -1331 1869 -1331 
Q 1566 -1331 1297 -1286 
Q 1028 -1241 775 -1147 
L 775 -588 
Q 1028 -725 1275 -790 
Q 1522 -856 1778 -856 
Q 2344 -856 2625 -561 
Q 2906 -266 2906 331 
L 2906 616 
Q 2728 306 2450 153 
Q 2172 0 1784 0 
Q 1141 0 747 490 
Q 353 981 353 1791 
Q 353 2603 747 3093 
Q 1141 3584 1784 3584 
Q 2172 3584 2450 3431 
Q 2728 3278 2906 2969 
L 2906 3500 
L 3481 3500 
L 3481 434 
z
" transform="scale(0.015625)"/>
       </defs>
       <use xlink:href="#DejaVuSans-32"/>
       <use xlink:href="#DejaVuSans-30" x="63.623047"/>
       <use xlink:href="#DejaVuSans-32" x="127.246094"/>
       <use xlink:href="#DejaVuSans-31" x="190.869141"/>
       <use xlink:href="#DejaVuSans-2d" x="254.492188"/>
       <use xlink:href="#DejaVuSans-41" x="288.326172"/>
       <use xlink:href="#DejaVuSans-75" x="356.734375"/>
       <use xlink:href="#DejaVuSans-67" x="420.113281"/>
       <use xlink:href="#DejaVuSans-2d" x="483.589844"/>
       <use xlink:href="#DejaVuSans-30" x="519.673828"/>
       <use xlink:href="#DejaVuSans-31" x="583.296875"/>
      </g>
     </g>
    </g>
    <g id="xtick_11">
     <g id="line2d_11">
      <g>
       <use xlink:href="#m2b80ef52fb" x="341.764972" y="178.56" style="stroke: #000000; stroke-width: 0.8"/>
      </g>
     </g>
     <g id="text_11">
      <!-- 2021-Sep-01 -->
      <g transform="translate(285.091115 224.260752)rotate(-30)scale(0.1 -0.1)">
       <defs>
        <path id="DejaVuSans-53" d="M 3425 4513 
L 3425 3897 
Q 3066 4069 2747 4153 
Q 2428 4238 2131 4238 
Q 1616 4238 1336 4038 
Q 1056 3838 1056 3469 
Q 1056 3159 1242 3001 
Q 1428 2844 1947 2747 
L 2328 2669 
Q 3034 2534 3370 2195 
Q 3706 1856 3706 1288 
Q 3706 609 3251 259 
Q 2797 -91 1919 -91 
Q 1588 -91 1214 -16 
Q 841 59 441 206 
L 441 856 
Q 825 641 1194 531 
Q 1563 422 1919 422 
Q 2459 422 2753 634 
Q 3047 847 3047 1241 
Q 3047 1584 2836 1778 
Q 2625 1972 2144 2069 
L 1759 2144 
Q 1053 2284 737 2584 
Q 422 2884 422 3419 
Q 422 4038 858 4394 
Q 1294 4750 2059 4750 
Q 2388 4750 2728 4690 
Q 3069 4631 3425 4513 
z
" transform="scale(0.015625)"/>
       </defs>
       <use xlink:href="#DejaVuSans-32"/>
       <use xlink:href="#DejaVuSans-30" x="63.623047"/>
       <use xlink:href="#DejaVuSans-32" x="127.246094"/>
       <use xlink:href="#DejaVuSans-31" x="190.869141"/>
       <use xlink:href="#DejaVuSans-2d" x="254.492188"/>
       <use xlink:href="#DejaVuSans-53" x="290.576172"/>
       <use xlink:href="#DejaVuSans-65" x="354.052734"/>
       <use xlink:href="#DejaVuSans-70" x="415.576172"/>
       <use xlink:href="#DejaVuSans-2d" x="479.052734"/>
       <use xlink:href="#DejaVuSans-30" x="515.136719"/>
       <use xlink:href="#DejaVuSans-31" x="578.759766"/>
      </g>
     </g>
    </g>
    <g id="xtick_12">
     <g id="line2d_12">
      <g>
       <use xlink:href="#m2b80ef52fb" x="368.75953" y="178.56" style="stroke: #000000; stroke-width: 0.8"/>
      </g>
     </g>
     <g id="text_12">
      <!-- 2021-Oct-01 -->
      <g transform="translate(313.197974 223.618565)rotate(-30)scale(0.1 -0.1)">
       <defs>
        <path id="DejaVuSans-4f" d="M 2522 4238 
Q 1834 4238 1429 3725 
Q 1025 3213 1025 2328 
Q 1025 1447 1429 934 
Q 1834 422 2522 422 
Q 3209 422 3611 934 
Q 4013 1447 4013 2328 
Q 4013 3213 3611 3725 
Q 3209 4238 2522 4238 
z
M 2522 4750 
Q 3503 4750 4090 4092 
Q 4678 3434 4678 2328 
Q 4678 1225 4090 567 
Q 3503 -91 2522 -91 
Q 1538 -91 948 565 
Q 359 1222 359 2328 
Q 359 3434 948 4092 
Q 1538 4750 2522 4750 
z
" transform="scale(0.015625)"/>
        <path id="DejaVuSans-74" d="M 1172 4494 
L 1172 3500 
L 2356 3500 
L 2356 3053 
L 1172 3053 
L 1172 1153 
Q 1172 725 1289 603 
Q 1406 481 1766 481 
L 2356 481 
L 2356 0 
L 1766 0 
Q 1100 0 847 248 
Q 594 497 594 1153 
L 594 3053 
L 172 3053 
L 172 3500 
L 594 3500 
L 594 4494 
L 1172 4494 
z
" transform="scale(0.015625)"/>
       </defs>
       <use xlink:href="#DejaVuSans-32"/>
       <use xlink:href="#DejaVuSans-30" x="63.623047"/>
       <use xlink:href="#DejaVuSans-32" x="127.246094"/>
       <use xlink:href="#DejaVuSans-31" x="190.869141"/>
       <use xlink:href="#DejaVuSans-2d" x="254.492188"/>
       <use xlink:href="#DejaVuSans-4f" x="293.326172"/>
       <use xlink:href="#DejaVuSans-63" x="372.037109"/>
       <use xlink:href="#DejaVuSans-74" x="427.017578"/>
       <use xlink:href="#DejaVuSans-2d" x="466.226562"/>
       <use xlink:href="#DejaVuSans-30" x="502.310547"/>
       <use xlink:href="#DejaVuSans-31" x="565.933594"/>
      </g>
     </g>
    </g>
    <g id="xtick_13">
     <g id="line2d_13">
      <g>
       <use xlink:href="#m2b80ef52fb" x="396.653906" y="178.56" style="stroke: #000000; stroke-width: 0.8"/>
      </g>
     </g>
     <g id="text_13">
      <!-- 2021-Nov-01 -->
      <g transform="translate(339.628226 224.463877)rotate(-30)scale(0.1 -0.1)">
       <use xlink:href="#DejaVuSans-32"/>
       <use xlink:href="#DejaVuSans-30" x="63.623047"/>
       <use xlink:href="#DejaVuSans-32" x="127.246094"/>
       <use xlink:href="#DejaVuSans-31" x="190.869141"/>
       <use xlink:href="#DejaVuSans-2d" x="254.492188"/>
       <use xlink:href="#DejaVuSans-4e" x="290.576172"/>
       <use xlink:href="#DejaVuSans-6f" x="365.380859"/>
       <use xlink:href="#DejaVuSans-76" x="426.5625"/>
       <use xlink:href="#DejaVuSans-2d" x="483.117188"/>
       <use xlink:href="#DejaVuSans-30" x="519.201172"/>
       <use xlink:href="#DejaVuSans-31" x="582.824219"/>
      </g>
     </g>
    </g>
    <g id="xtick_14">
     <g id="line2d_14">
      <g>
       <use xlink:href="#m2b80ef52fb" x="423.648464" y="178.56" style="stroke: #000000; stroke-width: 0.8"/>
      </g>
     </g>
     <g id="text_14">
      <!-- 2021-Dec-01 -->
      <g transform="translate(366.540241 224.511534)rotate(-30)scale(0.1 -0.1)">
       <use xlink:href="#DejaVuSans-32"/>
       <use xlink:href="#DejaVuSans-30" x="63.623047"/>
       <use xlink:href="#DejaVuSans-32" x="127.246094"/>
       <use xlink:href="#DejaVuSans-31" x="190.869141"/>
       <use xlink:href="#DejaVuSans-2d" x="254.492188"/>
       <use xlink:href="#DejaVuSans-44" x="290.576172"/>
       <use xlink:href="#DejaVuSans-65" x="367.578125"/>
       <use xlink:href="#DejaVuSans-63" x="429.101562"/>
       <use xlink:href="#DejaVuSans-2d" x="484.082031"/>
       <use xlink:href="#DejaVuSans-30" x="520.166016"/>
       <use xlink:href="#DejaVuSans-31" x="583.789062"/>
      </g>
     </g>
    </g>
    <g id="xtick_15">
     <g id="line2d_15">
      <g>
       <use xlink:href="#m2b80ef52fb" x="451.54284" y="178.56" style="stroke: #000000; stroke-width: 0.8"/>
      </g>
     </g>
     <g id="text_15">
      <!-- 2022-Jan-01 -->
      <g transform="translate(397.3561 222.824815)rotate(-30)scale(0.1 -0.1)">
       <use xlink:href="#DejaVuSans-32"/>
       <use xlink:href="#DejaVuSans-30" x="63.623047"/>
       <use xlink:href="#DejaVuSans-32" x="127.246094"/>
       <use xlink:href="#DejaVuSans-32" x="190.869141"/>
       <use xlink:href="#DejaVuSans-2d" x="254.492188"/>
       <use xlink:href="#DejaVuSans-4a" x="296.201172"/>
       <use xlink:href="#DejaVuSans-61" x="325.693359"/>
       <use xlink:href="#DejaVuSans-6e" x="386.972656"/>
       <use xlink:href="#DejaVuSans-2d" x="450.351562"/>
       <use xlink:href="#DejaVuSans-30" x="486.435547"/>
       <use xlink:href="#DejaVuSans-31" x="550.058594"/>
      </g>
     </g>
    </g>
    <g id="xtick_16">
     <g id="line2d_16">
      <g>
       <use xlink:href="#m2b80ef52fb" x="479.437216" y="178.56" style="stroke: #000000; stroke-width: 0.8"/>
      </g>
     </g>
     <g id="text_16">
      <!-- 2022-Feb-01 -->
      <g transform="translate(423.756582 223.687315)rotate(-30)scale(0.1 -0.1)">
       <use xlink:href="#DejaVuSans-32"/>
       <use xlink:href="#DejaVuSans-30" x="63.623047"/>
       <use xlink:href="#DejaVuSans-32" x="127.246094"/>
       <use xlink:href="#DejaVuSans-32" x="190.869141"/>
       <use xlink:href="#DejaVuSans-2d" x="254.492188"/>
       <use xlink:href="#DejaVuSans-46" x="290.576172"/>
       <use xlink:href="#DejaVuSans-65" x="342.595703"/>
       <use xlink:href="#DejaVuSans-62" x="404.119141"/>
       <use xlink:href="#DejaVuSans-2d" x="467.595703"/>
       <use xlink:href="#DejaVuSans-30" x="503.679688"/>
       <use xlink:href="#DejaVuSans-31" x="567.302734"/>
      </g>
     </g>
    </g>
   </g>
   <g id="matplotlib.axis_2">
    <g id="ytick_1">
     <g id="line2d_17">
      <path d="M 53.328125 170.971788 
L 499.728125 170.971788 
" clip-path="url(#pc35f036afc)" style="fill: none; stroke: #b0b0b0; stroke-width: 0.8; stroke-linecap: square"/>
     </g>
     <g id="line2d_18">
      <defs>
       <path id="mf2f3f7e36f" d="M 0 0 
L -3.5 0 
" style="stroke: #000000; stroke-width: 0.8"/>
      </defs>
      <g>
       <use xlink:href="#mf2f3f7e36f" x="53.328125" y="170.971788" style="stroke: #000000; stroke-width: 0.8"/>
      </g>
     </g>
     <g id="text_17">
      <!-- 0 -->
      <g transform="translate(39.965625 174.771007)scale(0.1 -0.1)">
       <use xlink:href="#DejaVuSans-30"/>
      </g>
     </g>
    </g>
    <g id="ytick_2">
     <g id="line2d_19">
      <path d="M 53.328125 145.861889 
L 499.728125 145.861889 
" clip-path="url(#pc35f036afc)" style="fill: none; stroke: #b0b0b0; stroke-width: 0.8; stroke-linecap: square"/>
     </g>
     <g id="line2d_20">
      <g>
       <use xlink:href="#mf2f3f7e36f" x="53.328125" y="145.861889" style="stroke: #000000; stroke-width: 0.8"/>
      </g>
     </g>
     <g id="text_18">
      <!-- 250 -->
      <g transform="translate(27.240625 149.661107)scale(0.1 -0.1)">
       <defs>
        <path id="DejaVuSans-35" d="M 691 4666 
L 3169 4666 
L 3169 4134 
L 1269 4134 
L 1269 2991 
Q 1406 3038 1543 3061 
Q 1681 3084 1819 3084 
Q 2600 3084 3056 2656 
Q 3513 2228 3513 1497 
Q 3513 744 3044 326 
Q 2575 -91 1722 -91 
Q 1428 -91 1123 -41 
Q 819 9 494 109 
L 494 744 
Q 775 591 1075 516 
Q 1375 441 1709 441 
Q 2250 441 2565 725 
Q 2881 1009 2881 1497 
Q 2881 1984 2565 2268 
Q 2250 2553 1709 2553 
Q 1456 2553 1204 2497 
Q 953 2441 691 2322 
L 691 4666 
z
" transform="scale(0.015625)"/>
       </defs>
       <use xlink:href="#DejaVuSans-32"/>
       <use xlink:href="#DejaVuSans-35" x="63.623047"/>
       <use xlink:href="#DejaVuSans-30" x="127.246094"/>
      </g>
     </g>
    </g>
    <g id="ytick_3">
     <g id="line2d_21">
      <path d="M 53.328125 120.751989 
L 499.728125 120.751989 
" clip-path="url(#pc35f036afc)" style="fill: none; stroke: #b0b0b0; stroke-width: 0.8; stroke-linecap: square"/>
     </g>
     <g id="line2d_22">
      <g>
       <use xlink:href="#mf2f3f7e36f" x="53.328125" y="120.751989" style="stroke: #000000; stroke-width: 0.8"/>
      </g>
     </g>
     <g id="text_19">
      <!-- 500 -->
      <g transform="translate(27.240625 124.551207)scale(0.1 -0.1)">
       <use xlink:href="#DejaVuSans-35"/>
       <use xlink:href="#DejaVuSans-30" x="63.623047"/>
       <use xlink:href="#DejaVuSans-30" x="127.246094"/>
      </g>
     </g>
    </g>
    <g id="ytick_4">
     <g id="line2d_23">
      <path d="M 53.328125 95.642089 
L 499.728125 95.642089 
" clip-path="url(#pc35f036afc)" style="fill: none; stroke: #b0b0b0; stroke-width: 0.8; stroke-linecap: square"/>
     </g>
     <g id="line2d_24">
      <g>
       <use xlink:href="#mf2f3f7e36f" x="53.328125" y="95.642089" style="stroke: #000000; stroke-width: 0.8"/>
      </g>
     </g>
     <g id="text_20">
      <!-- 750 -->
      <g transform="translate(27.240625 99.441308)scale(0.1 -0.1)">
       <defs>
        <path id="DejaVuSans-37" d="M 525 4666 
L 3525 4666 
L 3525 4397 
L 1831 0 
L 1172 0 
L 2766 4134 
L 525 4134 
L 525 4666 
z
" transform="scale(0.015625)"/>
       </defs>
       <use xlink:href="#DejaVuSans-37"/>
       <use xlink:href="#DejaVuSans-35" x="63.623047"/>
       <use xlink:href="#DejaVuSans-30" x="127.246094"/>
      </g>
     </g>
    </g>
    <g id="ytick_5">
     <g id="line2d_25">
      <path d="M 53.328125 70.532189 
L 499.728125 70.532189 
" clip-path="url(#pc35f036afc)" style="fill: none; stroke: #b0b0b0; stroke-width: 0.8; stroke-linecap: square"/>
     </g>
     <g id="line2d_26">
      <g>
       <use xlink:href="#mf2f3f7e36f" x="53.328125" y="70.532189" style="stroke: #000000; stroke-width: 0.8"/>
      </g>
     </g>
     <g id="text_21">
      <!-- 1000 -->
      <g transform="translate(20.878125 74.331408)scale(0.1 -0.1)">
       <use xlink:href="#DejaVuSans-31"/>
       <use xlink:href="#DejaVuSans-30" x="63.623047"/>
       <use xlink:href="#DejaVuSans-30" x="127.246094"/>
       <use xlink:href="#DejaVuSans-30" x="190.869141"/>
      </g>
     </g>
    </g>
    <g id="ytick_6">
     <g id="line2d_27">
      <path d="M 53.328125 45.422289 
L 499.728125 45.422289 
" clip-path="url(#pc35f036afc)" style="fill: none; stroke: #b0b0b0; stroke-width: 0.8; stroke-linecap: square"/>
     </g>
     <g id="line2d_28">
      <g>
       <use xlink:href="#mf2f3f7e36f" x="53.328125" y="45.422289" style="stroke: #000000; stroke-width: 0.8"/>
      </g>
     </g>
     <g id="text_22">
      <!-- 1250 -->
      <g transform="translate(20.878125 49.221508)scale(0.1 -0.1)">
       <use xlink:href="#DejaVuSans-31"/>
       <use xlink:href="#DejaVuSans-32" x="63.623047"/>
       <use xlink:href="#DejaVuSans-35" x="127.246094"/>
       <use xlink:href="#DejaVuSans-30" x="190.869141"/>
      </g>
     </g>
    </g>
    <g id="ytick_7">
     <g id="line2d_29">
      <path d="M 53.328125 20.31239 
L 499.728125 20.31239 
" clip-path="url(#pc35f036afc)" style="fill: none; stroke: #b0b0b0; stroke-width: 0.8; stroke-linecap: square"/>
     </g>
     <g id="line2d_30">
      <g>
       <use xlink:href="#mf2f3f7e36f" x="53.328125" y="20.31239" style="stroke: #000000; stroke-width: 0.8"/>
      </g>
     </g>
     <g id="text_23">
      <!-- 1500 -->
      <g transform="translate(20.878125 24.111608)scale(0.1 -0.1)">
       <use xlink:href="#DejaVuSans-31"/>
       <use xlink:href="#DejaVuSans-35" x="63.623047"/>
       <use xlink:href="#DejaVuSans-30" x="127.246094"/>
       <use xlink:href="#DejaVuSans-30" x="190.869141"/>
      </g>
     </g>
    </g>
    <g id="text_24">
     <!-- Number of Domains -->
     <g transform="translate(14.798438 142.969844)rotate(-90)scale(0.1 -0.1)">
      <defs>
       <path id="DejaVuSans-6d" d="M 3328 2828 
Q 3544 3216 3844 3400 
Q 4144 3584 4550 3584 
Q 5097 3584 5394 3201 
Q 5691 2819 5691 2113 
L 5691 0 
L 5113 0 
L 5113 2094 
Q 5113 2597 4934 2840 
Q 4756 3084 4391 3084 
Q 3944 3084 3684 2787 
Q 3425 2491 3425 1978 
L 3425 0 
L 2847 0 
L 2847 2094 
Q 2847 2600 2669 2842 
Q 2491 3084 2119 3084 
Q 1678 3084 1418 2786 
Q 1159 2488 1159 1978 
L 1159 0 
L 581 0 
L 581 3500 
L 1159 3500 
L 1159 2956 
Q 1356 3278 1631 3431 
Q 1906 3584 2284 3584 
Q 2666 3584 2933 3390 
Q 3200 3197 3328 2828 
z
" transform="scale(0.015625)"/>
       <path id="DejaVuSans-20" transform="scale(0.015625)"/>
       <path id="DejaVuSans-66" d="M 2375 4863 
L 2375 4384 
L 1825 4384 
Q 1516 4384 1395 4259 
Q 1275 4134 1275 3809 
L 1275 3500 
L 2222 3500 
L 2222 3053 
L 1275 3053 
L 1275 0 
L 697 0 
L 697 3053 
L 147 3053 
L 147 3500 
L 697 3500 
L 697 3744 
Q 697 4328 969 4595 
Q 1241 4863 1831 4863 
L 2375 4863 
z
" transform="scale(0.015625)"/>
       <path id="DejaVuSans-69" d="M 603 3500 
L 1178 3500 
L 1178 0 
L 603 0 
L 603 3500 
z
M 603 4863 
L 1178 4863 
L 1178 4134 
L 603 4134 
L 603 4863 
z
" transform="scale(0.015625)"/>
       <path id="DejaVuSans-73" d="M 2834 3397 
L 2834 2853 
Q 2591 2978 2328 3040 
Q 2066 3103 1784 3103 
Q 1356 3103 1142 2972 
Q 928 2841 928 2578 
Q 928 2378 1081 2264 
Q 1234 2150 1697 2047 
L 1894 2003 
Q 2506 1872 2764 1633 
Q 3022 1394 3022 966 
Q 3022 478 2636 193 
Q 2250 -91 1575 -91 
Q 1294 -91 989 -36 
Q 684 19 347 128 
L 347 722 
Q 666 556 975 473 
Q 1284 391 1588 391 
Q 1994 391 2212 530 
Q 2431 669 2431 922 
Q 2431 1156 2273 1281 
Q 2116 1406 1581 1522 
L 1381 1569 
Q 847 1681 609 1914 
Q 372 2147 372 2553 
Q 372 3047 722 3315 
Q 1072 3584 1716 3584 
Q 2034 3584 2315 3537 
Q 2597 3491 2834 3397 
z
" transform="scale(0.015625)"/>
      </defs>
      <use xlink:href="#DejaVuSans-4e"/>
      <use xlink:href="#DejaVuSans-75" x="74.804688"/>
      <use xlink:href="#DejaVuSans-6d" x="138.183594"/>
      <use xlink:href="#DejaVuSans-62" x="235.595703"/>
      <use xlink:href="#DejaVuSans-65" x="299.072266"/>
      <use xlink:href="#DejaVuSans-72" x="360.595703"/>
      <use xlink:href="#DejaVuSans-20" x="401.708984"/>
      <use xlink:href="#DejaVuSans-6f" x="433.496094"/>
      <use xlink:href="#DejaVuSans-66" x="494.677734"/>
      <use xlink:href="#DejaVuSans-20" x="529.882812"/>
      <use xlink:href="#DejaVuSans-44" x="561.669922"/>
      <use xlink:href="#DejaVuSans-6f" x="638.671875"/>
      <use xlink:href="#DejaVuSans-6d" x="699.853516"/>
      <use xlink:href="#DejaVuSans-61" x="797.265625"/>
      <use xlink:href="#DejaVuSans-69" x="858.544922"/>
      <use xlink:href="#DejaVuSans-6e" x="886.328125"/>
      <use xlink:href="#DejaVuSans-73" x="949.707031"/>
     </g>
    </g>
   </g>
   <g id="line2d_31">
    <path d="M 73.619034 142.446942 
L 76.31849 142.145623 
L 77.218308 141.643425 
L 79.917764 141.442546 
L 81.717401 141.542986 
L 82.61722 141.141227 
L 83.517039 140.43815 
L 87.116313 140.036392 
L 89.815769 140.136831 
L 91.615406 139.735073 
L 93.415043 140.036392 
L 95.21468 139.735073 
L 96.114499 139.735073 
L 97.014317 139.433754 
L 97.914136 138.931556 
L 98.813954 138.730677 
L 99.713773 143.150019 
L 100.613592 153.696177 
L 101.51341 152.9931 
L 102.413229 151.285627 
L 103.313047 151.988704 
L 104.212866 149.678593 
L 105.112685 150.48211 
L 106.012503 152.792221 
L 106.912322 152.189583 
L 107.81214 152.189583 
L 108.711959 151.084748 
L 109.611777 151.185187 
L 110.511596 150.58255 
L 112.311233 150.984308 
L 113.211052 149.879472 
L 114.11087 149.979912 
L 115.010689 150.883868 
L 115.910508 150.984308 
L 116.810326 150.080352 
L 117.710145 151.486506 
L 118.609963 149.176395 
L 119.509782 151.586946 
L 120.409601 149.879472 
L 121.309419 150.783429 
L 123.109056 151.084748 
L 124.908693 151.185187 
L 125.808512 150.984308 
L 126.708331 148.171999 
L 127.608149 150.682989 
L 128.507968 148.975516 
L 129.407786 150.883868 
L 130.307605 150.883868 
L 131.207424 150.38167 
L 132.107242 151.888264 
L 133.007061 150.682989 
L 135.706516 148.674197 
L 138.405972 149.678593 
L 139.305791 151.787825 
L 140.205609 150.180791 
L 141.105428 149.979912 
L 142.005247 151.586946 
L 142.905065 148.573758 
L 151.003432 149.377274 
L 151.903251 151.084748 
L 153.702888 148.272439 
L 154.602707 148.674197 
L 155.502525 147.97112 
L 156.402344 150.080352 
L 157.302162 150.984308 
L 158.201981 147.268043 
L 159.1018 149.678593 
L 160.001618 148.473318 
L 160.901437 147.468922 
L 161.801255 149.477714 
L 162.701074 148.774637 
L 163.600893 147.468922 
L 164.500711 149.276835 
L 165.40053 149.979912 
L 166.300348 149.578154 
L 167.200167 147.770241 
L 168.099986 147.669801 
L 168.999804 148.875076 
L 169.899623 149.477714 
L 170.799441 148.07156 
L 171.69926 148.07156 
L 172.599078 148.372878 
L 173.498897 149.678593 
L 174.398716 147.268043 
L 175.298534 149.176395 
L 176.198353 147.067164 
L 177.098171 149.176395 
L 178.897809 147.87068 
L 179.797627 149.578154 
L 180.697446 147.067164 
L 181.597264 149.678593 
L 182.497083 148.272439 
L 183.396901 147.268043 
L 185.196539 147.067164 
L 186.096357 147.368483 
L 186.996176 148.573758 
L 187.895994 146.966724 
L 188.795813 146.866285 
L 200.493455 136.621445 
L 201.393273 137.826721 
L 202.293092 137.525402 
L 203.19291 136.219687 
L 204.092729 138.630237 
L 204.992547 136.721885 
L 206.792185 137.92716 
L 207.692003 136.018808 
L 208.591822 137.92716 
L 209.49164 135.41617 
L 210.391459 136.018808 
L 211.291278 135.315731 
L 212.191096 137.023204 
L 214.890552 134.713093 
L 215.790371 135.717489 
L 216.690189 136.420566 
L 217.590008 135.817929 
L 218.489826 135.918368 
L 219.389645 135.215291 
L 220.289463 134.210895 
L 221.189282 135.817929 
L 222.089101 135.215291 
L 224.788556 135.014412 
L 225.688375 135.817929 
L 226.588194 135.617049 
L 227.488012 134.512214 
L 228.387831 134.713093 
L 229.287649 133.306939 
L 232.886924 133.507818 
L 233.786742 132.402982 
L 234.686561 133.809137 
L 235.586379 131.398586 
L 236.486198 128.586277 
L 237.386017 128.887596 
L 238.285835 127.581881 
L 239.185654 128.988036 
L 240.085472 127.782761 
L 240.985291 127.98364 
L 241.885109 130.695509 
L 242.784928 126.577485 
L 243.684747 127.782761 
L 244.584565 129.490234 
L 245.484384 127.8832 
L 246.384202 127.98364 
L 247.284021 127.180123 
L 248.18384 128.284959 
L 249.083658 127.782761 
L 249.983477 130.695509 
L 250.883295 129.891992 
L 251.783114 128.787157 
L 252.682932 128.988036 
L 253.582751 128.485838 
L 254.48257 125.070892 
L 255.382388 128.084079 
L 256.282207 128.284959 
L 258.081844 127.280563 
L 258.981663 127.8832 
L 259.881481 98.856156 
L 261.681118 99.559233 
L 263.480756 96.847364 
L 264.380574 96.043847 
L 265.280393 98.353958 
L 266.180211 96.546045 
L 267.08003 95.842968 
L 267.979848 95.34077 
L 268.879667 97.450002 
L 269.779486 95.34077 
L 270.679304 95.943408 
L 271.579123 96.043847 
L 272.478941 96.746925 
L 273.37876 95.541649 
L 274.278579 93.633297 
L 275.178397 96.144287 
L 276.078216 96.244727 
L 276.978034 96.546045 
L 277.877853 97.349562 
L 279.67749 94.336374 
L 282.376946 94.235935 
L 284.176583 95.742529 
L 287.775857 93.934616 
L 288.675676 92.93022 
L 313.870596 81.680985 
L 314.770415 82.88626 
L 315.670233 75.654609 
L 316.570052 76.357686 
L 318.369689 76.357686 
L 319.269508 76.759444 
L 320.169326 75.45373 
L 321.069145 76.257246 
L 321.968964 75.855488 
L 322.868782 75.25285 
L 323.768601 73.846696 
L 324.668419 74.750652 
L 325.568238 73.645817 
L 326.468056 74.750652 
L 327.367875 74.951532 
L 328.267694 74.549773 
L 329.167512 75.35329 
L 330.067331 74.650213 
L 347.163884 74.449334 
L 348.963521 75.554169 
L 349.86334 75.855488 
L 350.763158 76.458126 
L 351.662977 75.051971 
L 352.562795 75.051971 
L 353.462614 75.554169 
L 354.362433 75.25285 
L 355.262251 75.654609 
L 356.16207 74.348894 
L 357.961707 75.45373 
L 358.861526 75.654609 
L 359.761344 74.951532 
L 360.661163 75.654609 
L 361.560981 75.955928 
L 362.4608 74.148015 
L 365.160256 74.549773 
L 366.060074 74.549773 
L 366.959893 73.545377 
L 367.859711 74.047575 
L 368.75953 74.348894 
L 369.659349 73.344498 
L 371.458986 73.244058 
L 372.358804 72.038783 
L 373.258623 71.837904 
L 374.158441 71.436146 
L 375.05826 72.239662 
L 375.958079 71.837904 
L 376.857897 70.933948 
L 377.757716 72.94274 
L 378.657534 72.340102 
L 379.557353 71.436146 
L 381.35699 71.235266 
L 382.256809 71.536585 
L 383.156627 71.034387 
L 384.056446 71.235266 
L 384.956264 72.239662 
L 385.856083 72.540981 
L 386.755902 72.038783 
L 387.65572 71.235266 
L 389.455357 71.637025 
L 390.355176 72.540981 
L 391.254995 69.728672 
L 392.154813 71.034387 
L 393.054632 71.837904 
L 393.95445 71.235266 
L 394.854269 72.440542 
L 395.754088 72.038783 
L 396.653906 72.038783 
L 397.553725 73.746256 
L 398.453543 72.540981 
L 399.353362 72.94274 
L 400.25318 70.130431 
L 401.152999 72.239662 
L 402.052818 71.335706 
L 402.952636 72.139223 
L 403.852455 71.637025 
L 404.752273 70.43175 
L 407.451729 70.933948 
L 408.351548 71.637025 
L 409.251366 70.532189 
L 411.051003 70.130431 
L 411.950822 68.623837 
L 412.850641 69.025595 
L 413.750459 68.824716 
L 414.650278 70.23087 
L 415.550096 69.427354 
L 416.449915 71.034387 
L 420.049189 71.335706 
L 420.949008 70.733068 
L 421.848826 71.034387 
L 423.648464 67.82032 
L 424.548282 67.92076 
L 427.247738 67.418562 
L 428.147557 67.519001 
L 429.947194 66.213286 
L 430.847012 64.204494 
L 431.746831 63.501417 
L 432.646649 63.400978 
L 433.546468 63.501417 
L 434.446287 61.994823 
L 435.346105 63.400978 
L 436.245924 52.051303 
L 437.145742 50.544709 
L 438.045561 50.444269 
L 440.745017 50.645149 
L 441.644835 49.439873 
L 442.544654 50.042511 
L 443.444473 49.640753 
L 444.344291 48.435477 
L 446.143928 48.636357 
L 447.043747 48.335038 
L 447.943565 49.540313 
L 448.843384 49.741192 
L 449.743203 48.234598 
L 452.442658 49.439873 
L 453.342477 50.745588 
L 454.242296 50.34383 
L 455.142114 19.709752 
L 456.041933 20.11151 
L 456.941751 18.203158 
L 457.84157 17.198762 
L 458.741388 17.8014 
L 459.641207 17.399641 
L 460.541026 17.500081 
L 462.340663 16.495685 
L 463.240481 15.692168 
L 464.1403 15.792608 
L 465.040119 15.591729 
L 465.939937 16.294806 
L 466.839756 16.294806 
L 467.739574 14.989091 
L 468.639393 15.089531 
L 469.539211 20.714148 
L 470.43903 23.225138 
L 471.338849 22.522061 
L 473.138486 21.618104 
L 474.038304 20.714148 
L 474.938123 22.82338 
L 475.837942 23.426017 
L 476.73776 21.417225 
L 477.637579 23.024259 
L 478.537397 22.321182 
L 479.437216 22.120302 
L 479.437216 22.120302 
" clip-path="url(#pc35f036afc)" style="fill: none; stroke: #1f77b4; stroke-width: 1.5; stroke-linecap: square"/>
   </g>
   <g id="line2d_32">
    <path d="M 73.619034 143.04958 
L 76.31849 142.748261 
L 77.218308 142.246063 
L 79.917764 142.045184 
L 81.717401 142.246063 
L 82.61722 141.844305 
L 83.517039 141.241667 
L 86.216494 140.739469 
L 89.815769 140.739469 
L 91.615406 140.337711 
L 93.415043 140.639029 
L 95.21468 140.337711 
L 96.114499 140.53859 
L 97.014317 140.237271 
L 97.914136 139.735073 
L 98.813954 139.534194 
L 99.713773 143.953536 
L 100.613592 154.499694 
L 101.51341 153.696177 
L 102.413229 152.089144 
L 103.313047 152.792221 
L 104.212866 150.48211 
L 105.112685 151.285627 
L 106.012503 153.595738 
L 106.912322 152.9931 
L 107.81214 152.9931 
L 108.711959 151.888264 
L 109.611777 151.988704 
L 110.511596 151.486506 
L 112.311233 151.888264 
L 113.211052 150.984308 
L 114.11087 150.984308 
L 115.010689 151.888264 
L 115.910508 151.888264 
L 116.810326 150.984308 
L 117.710145 152.390462 
L 118.609963 150.281231 
L 119.509782 152.691781 
L 120.409601 150.783429 
L 121.309419 151.787825 
L 123.109056 152.189583 
L 125.808512 152.089144 
L 126.708331 149.075956 
L 127.608149 151.687385 
L 128.507968 149.979912 
L 129.407786 151.787825 
L 130.307605 151.888264 
L 131.207424 151.386066 
L 132.107242 152.9931 
L 133.007061 151.787825 
L 135.706516 149.578154 
L 138.405972 150.682989 
L 139.305791 152.792221 
L 140.205609 151.285627 
L 141.105428 151.084748 
L 142.005247 152.691781 
L 142.905065 149.678593 
L 151.003432 150.281231 
L 151.903251 152.089144 
L 153.702888 149.276835 
L 154.602707 149.779033 
L 155.502525 149.176395 
L 156.402344 151.185187 
L 157.302162 152.189583 
L 158.201981 148.573758 
L 159.1018 150.783429 
L 160.001618 149.678593 
L 160.901437 148.774637 
L 161.801255 150.58255 
L 162.701074 149.879472 
L 163.600893 148.674197 
L 164.500711 150.281231 
L 165.40053 150.984308 
L 166.300348 150.58255 
L 167.200167 148.975516 
L 168.099986 148.875076 
L 168.999804 149.879472 
L 169.899623 150.48211 
L 170.799441 149.276835 
L 171.69926 149.176395 
L 172.599078 149.477714 
L 173.498897 150.783429 
L 174.398716 148.573758 
L 175.298534 150.38167 
L 176.198353 148.171999 
L 177.098171 150.48211 
L 178.897809 148.975516 
L 179.797627 150.783429 
L 180.697446 148.272439 
L 181.597264 150.984308 
L 182.497083 149.578154 
L 183.396901 148.573758 
L 185.196539 148.272439 
L 186.096357 148.774637 
L 186.996176 149.879472 
L 187.895994 148.07156 
L 188.795813 148.171999 
L 200.493455 143.451338 
L 201.393273 144.455734 
L 202.293092 144.154415 
L 203.19291 143.150019 
L 204.092729 145.46013 
L 204.992547 143.652217 
L 206.792185 144.757053 
L 207.692003 142.748261 
L 208.591822 144.857493 
L 209.49164 142.346503 
L 210.391459 142.94914 
L 211.291278 142.547382 
L 212.191096 144.254855 
L 214.890552 142.145623 
L 215.790371 143.350899 
L 216.690189 143.953536 
L 217.590008 143.350899 
L 218.489826 143.350899 
L 219.389645 142.647821 
L 220.289463 141.743865 
L 221.189282 143.04958 
L 222.089101 142.848701 
L 224.788556 142.647821 
L 225.688375 143.551778 
L 226.588194 143.250459 
L 227.488012 141.844305 
L 228.387831 142.346503 
L 229.287649 140.839909 
L 232.886924 141.342107 
L 233.786742 141.844305 
L 234.686561 143.04958 
L 235.586379 140.940348 
L 236.486198 140.237271 
L 237.386017 141.141227 
L 238.285835 140.136831 
L 239.185654 141.342107 
L 240.085472 140.43815 
L 240.985291 140.839909 
L 241.885109 143.250459 
L 242.784928 139.534194 
L 243.684747 141.442546 
L 244.584565 142.848701 
L 245.484384 141.342107 
L 246.384202 140.940348 
L 247.284021 140.237271 
L 248.18384 141.643425 
L 249.083658 140.237271 
L 249.983477 143.853097 
L 250.883295 142.94914 
L 251.783114 141.643425 
L 252.682932 141.743865 
L 253.582751 141.542986 
L 254.48257 139.232875 
L 255.382388 141.944744 
L 257.182025 141.241667 
L 258.081844 140.839909 
L 258.981663 141.442546 
L 259.881481 140.337711 
L 260.7813 140.639029 
L 261.681118 140.43815 
L 262.580937 139.232875 
L 263.480756 139.132435 
L 264.380574 139.232875 
L 265.280393 141.241667 
L 266.180211 139.835513 
L 267.08003 140.43815 
L 267.979848 139.634633 
L 268.879667 139.735073 
L 269.779486 139.534194 
L 270.679304 140.337711 
L 271.579123 139.634633 
L 272.478941 141.643425 
L 273.37876 140.839909 
L 274.278579 139.333315 
L 275.178397 139.634633 
L 276.078216 140.136831 
L 276.978034 139.935952 
L 277.877853 140.43815 
L 279.67749 139.634633 
L 282.376946 139.031996 
L 284.176583 141.141227 
L 287.775857 139.132435 
L 288.675676 139.132435 
L 313.870596 127.581881 
L 314.770415 129.188915 
L 315.670233 122.96166 
L 316.570052 122.258583 
L 317.469871 122.459462 
L 318.369689 122.258583 
L 319.269508 122.459462 
L 320.169326 121.756385 
L 321.069145 122.057704 
L 322.868782 122.158143 
L 323.768601 121.655945 
L 324.668419 121.655945 
L 325.568238 121.254187 
L 326.468056 121.756385 
L 328.267694 121.254187 
L 329.167512 121.655945 
L 330.067331 121.756385 
L 346.264065 121.053308 
L 347.163884 121.455066 
L 348.963521 121.254187 
L 350.763158 121.555506 
L 353.462614 121.053308 
L 354.362433 121.254187 
L 355.262251 120.952868 
L 356.16207 121.053308 
L 357.061888 120.852428 
L 357.961707 120.952868 
L 358.861526 120.249791 
L 359.761344 120.55111 
L 360.661163 120.149351 
L 361.560981 120.751989 
L 362.4608 119.647153 
L 365.160256 119.546714 
L 366.060074 119.044516 
L 366.959893 119.144955 
L 367.859711 119.647153 
L 369.659349 118.944076 
L 371.458986 118.944076 
L 372.358804 118.542318 
L 373.258623 118.341438 
L 374.158441 117.537922 
L 375.05826 117.93968 
L 375.958079 117.738801 
L 376.857897 117.738801 
L 377.757716 117.93968 
L 378.657534 117.638361 
L 379.557353 117.035724 
L 381.35699 117.638361 
L 382.256809 117.638361 
L 383.156627 116.935284 
L 384.056446 117.236603 
L 384.956264 117.035724 
L 385.856083 117.337042 
L 386.755902 116.935284 
L 388.555539 116.433086 
L 389.455357 116.834844 
L 390.355176 116.834844 
L 391.254995 116.232207 
L 392.154813 115.830448 
L 393.054632 115.930888 
L 394.854269 115.42869 
L 396.653906 115.42869 
L 397.553725 115.930888 
L 398.453543 115.32825 
L 399.353362 115.830448 
L 400.25318 114.524734 
L 401.152999 115.32825 
L 402.052818 114.323854 
L 402.952636 114.625173 
L 403.852455 114.524734 
L 404.752273 114.122975 
L 407.451729 114.323854 
L 408.351548 114.524734 
L 409.251366 114.122975 
L 410.151185 114.223415 
L 411.051003 113.922096 
L 411.950822 112.415502 
L 412.850641 112.616381 
L 413.750459 112.114183 
L 414.650278 112.415502 
L 415.550096 112.013744 
L 417.349734 112.9177 
L 418.249552 112.515942 
L 419.149371 113.01814 
L 420.049189 112.415502 
L 421.848826 112.515942 
L 422.748645 112.114183 
L 423.648464 110.808468 
L 424.548282 110.607589 
L 426.347919 110.708029 
L 428.147557 110.50715 
L 429.047375 110.607589 
L 430.847012 109.100995 
L 431.746831 109.000556 
L 432.646649 108.699237 
L 433.546468 108.598797 
L 434.446287 108.699237 
L 435.346105 109.100995 
L 436.245924 108.799676 
L 437.145742 107.89572 
L 438.045561 107.99616 
L 440.745017 107.493962 
L 442.544654 107.99616 
L 443.444473 107.092203 
L 444.344291 106.991764 
L 445.24411 106.690445 
L 446.143928 106.790884 
L 447.043747 106.590005 
L 447.943565 106.991764 
L 449.743203 106.489566 
L 453.342477 106.690445 
L 454.242296 106.489566 
L 455.142114 77.161203 
L 456.041933 77.161203 
L 456.941751 76.558565 
L 457.84157 76.156807 
L 458.741388 76.156807 
L 460.541026 75.855488 
L 461.440844 75.152411 
L 463.240481 74.248454 
L 464.1403 74.650213 
L 465.040119 73.846696 
L 465.939937 73.746256 
L 466.839756 73.444938 
L 467.739574 72.239662 
L 470.43903 70.733068 
L 471.338849 71.034387 
L 472.238667 70.532189 
L 473.138486 70.23087 
L 474.038304 69.226474 
L 474.938123 72.038783 
L 475.837942 72.440542 
L 476.73776 71.536585 
L 477.637579 72.641421 
L 478.537397 72.340102 
L 479.437216 71.536585 
L 479.437216 71.536585 
" clip-path="url(#pc35f036afc)" style="fill: none; stroke: #ff7f0e; stroke-width: 1.5; stroke-linecap: square"/>
   </g>
   <g id="line2d_33">
    <path d="M 73.619034 170.770909 
L 95.21468 170.770909 
L 96.114499 170.57003 
L 112.311233 170.46959 
L 113.211052 170.268711 
L 115.910508 170.46959 
L 117.710145 170.46959 
L 118.609963 170.268711 
L 119.509782 170.268711 
L 120.409601 170.46959 
L 123.109056 170.268711 
L 124.908693 170.46959 
L 125.808512 170.369151 
L 126.708331 170.57003 
L 128.507968 170.46959 
L 131.207424 170.369151 
L 133.007061 170.268711 
L 135.706516 170.46959 
L 142.905065 170.268711 
L 151.003432 170.369151 
L 151.903251 170.268711 
L 157.302162 170.168271 
L 158.201981 170.067832 
L 159.1018 170.268711 
L 160.901437 170.067832 
L 161.801255 170.268711 
L 188.795813 170.268711 
L 200.493455 166.150688 
L 201.393273 166.351567 
L 202.293092 166.351567 
L 203.19291 166.150688 
L 204.092729 166.351567 
L 204.992547 166.150688 
L 207.692003 166.552446 
L 208.591822 166.251127 
L 210.391459 166.351567 
L 212.191096 166.251127 
L 214.890552 166.150688 
L 216.690189 165.849369 
L 217.590008 165.849369 
L 218.489826 166.050248 
L 220.289463 165.949808 
L 221.189282 166.251127 
L 222.089101 165.949808 
L 224.788556 166.150688 
L 226.588194 166.050248 
L 227.488012 166.251127 
L 228.387831 166.050248 
L 229.287649 166.150688 
L 232.886924 165.64849 
L 233.786742 164.443214 
L 234.686561 164.543654 
L 235.586379 164.242335 
L 236.486198 162.233543 
L 237.386017 161.630906 
L 238.285835 161.329587 
L 239.185654 161.630906 
L 240.085472 161.229147 
L 240.985291 161.028268 
L 241.885109 161.329587 
L 243.684747 160.62651 
L 244.584565 160.827389 
L 245.484384 160.62651 
L 246.384202 161.128708 
L 247.284021 161.028268 
L 248.18384 160.726949 
L 249.083658 161.831785 
L 249.983477 161.028268 
L 251.783114 161.329587 
L 252.682932 161.530466 
L 253.582751 161.430026 
L 254.48257 161.530466 
L 256.282207 162.333983 
L 257.182025 162.233543 
L 258.981663 162.333983 
L 259.881481 134.311335 
L 261.681118 135.215291 
L 262.580937 134.813533 
L 264.380574 132.704301 
L 265.280393 133.106059 
L 266.180211 132.503422 
L 267.08003 131.298147 
L 267.979848 131.599465 
L 268.879667 133.809137 
L 269.779486 131.800345 
L 270.679304 131.499026 
L 271.579123 132.503422 
L 272.478941 131.097267 
L 274.278579 130.193311 
L 275.178397 132.302543 
L 276.078216 132.202103 
L 276.978034 132.603861 
L 277.877853 132.804741 
L 279.67749 130.695509 
L 282.376946 131.097267 
L 284.176583 130.595069 
L 287.775857 130.996828 
L 288.675676 130.092871 
L 313.870596 130.795949 
L 314.770415 130.39419 
L 315.670233 129.490234 
L 316.570052 130.695509 
L 317.469871 130.595069 
L 318.369689 130.695509 
L 319.269508 131.097267 
L 320.169326 130.293751 
L 321.069145 130.595069 
L 321.968964 130.092871 
L 322.868782 129.791553 
L 323.768601 129.289355 
L 324.668419 129.891992 
L 325.568238 129.590673 
L 326.468056 130.092871 
L 327.367875 130.39419 
L 328.267694 130.293751 
L 329.167512 130.795949 
L 330.067331 130.193311 
L 346.264065 130.49463 
L 347.163884 129.992432 
L 348.963521 131.197707 
L 350.763158 131.900784 
L 351.662977 130.595069 
L 353.462614 131.298147 
L 354.362433 130.896388 
L 355.262251 131.599465 
L 356.16207 130.293751 
L 357.061888 131.197707 
L 357.961707 131.800345 
L 358.861526 132.603861 
L 359.761344 131.499026 
L 360.661163 132.704301 
L 361.560981 132.603861 
L 362.4608 132.001224 
L 365.160256 132.302543 
L 366.060074 132.804741 
L 366.959893 131.699905 
L 367.859711 131.900784 
L 368.75953 132.603861 
L 369.659349 131.800345 
L 370.559167 131.900784 
L 371.458986 131.599465 
L 372.358804 131.097267 
L 373.258623 131.097267 
L 375.05826 132.001224 
L 375.958079 132.202103 
L 376.857897 131.398586 
L 377.757716 132.804741 
L 378.657534 132.603861 
L 379.557353 132.101663 
L 380.457172 132.001224 
L 381.35699 131.599465 
L 382.256809 132.001224 
L 384.056446 132.302543 
L 384.956264 133.507818 
L 386.755902 133.407378 
L 387.65572 132.603861 
L 388.555539 133.106059 
L 389.455357 133.00562 
L 390.355176 134.010016 
L 391.254995 131.699905 
L 392.154813 133.507818 
L 393.054632 134.210895 
L 393.95445 134.210895 
L 394.854269 135.717489 
L 395.754088 135.114851 
L 396.653906 135.114851 
L 397.553725 136.621445 
L 398.453543 136.018808 
L 399.353362 135.817929 
L 400.25318 134.010016 
L 401.152999 135.215291 
L 402.052818 135.41617 
L 402.952636 136.119247 
L 403.852455 135.717489 
L 404.752273 134.813533 
L 407.451729 135.215291 
L 408.351548 135.617049 
L 410.151185 134.913972 
L 411.051003 134.813533 
L 412.850641 135.315731 
L 413.750459 135.41617 
L 414.650278 136.420566 
L 415.550096 136.018808 
L 416.449915 136.822325 
L 417.349734 137.123643 
L 418.249552 137.826721 
L 419.149371 137.625841 
L 420.049189 138.328919 
L 420.949008 137.424962 
L 421.848826 137.92716 
L 422.748645 136.721885 
L 423.648464 136.420566 
L 424.548282 136.621445 
L 426.347919 136.018808 
L 427.247738 136.219687 
L 428.147557 136.621445 
L 429.047375 136.119247 
L 429.947194 136.219687 
L 430.847012 134.913972 
L 431.746831 134.411774 
L 432.646649 134.612653 
L 433.546468 134.512214 
L 434.446287 132.90518 
L 435.346105 133.608257 
L 436.245924 133.206499 
L 438.045561 133.306939 
L 440.745017 134.110455 
L 441.644835 132.402982 
L 443.444473 133.407378 
L 444.344291 132.202103 
L 445.24411 132.402982 
L 447.043747 132.001224 
L 447.943565 132.402982 
L 448.843384 133.206499 
L 449.743203 132.101663 
L 452.442658 133.106059 
L 453.342477 134.210895 
L 454.242296 133.608257 
L 455.142114 132.503422 
L 456.041933 133.206499 
L 457.84157 131.398586 
L 458.741388 131.900784 
L 459.641207 132.101663 
L 460.541026 131.699905 
L 462.340663 132.402982 
L 463.240481 131.800345 
L 464.1403 131.499026 
L 465.040119 131.900784 
L 465.939937 132.704301 
L 466.839756 132.603861 
L 468.639393 133.206499 
L 469.539211 139.031996 
L 470.43903 142.246063 
L 471.338849 141.342107 
L 472.238667 141.241667 
L 473.138486 141.743865 
L 474.038304 141.944744 
L 474.938123 141.342107 
L 475.837942 141.241667 
L 476.73776 140.43815 
L 477.637579 141.141227 
L 478.537397 140.639029 
L 479.437216 140.940348 
L 479.437216 140.940348 
" clip-path="url(#pc35f036afc)" style="fill: none; stroke: #2ca02c; stroke-width: 1.5; stroke-linecap: square"/>
   </g>
   <g id="line2d_34">
    <path d="M 73.619034 170.57003 
L 82.61722 170.46959 
L 83.517039 170.369151 
L 85.316676 170.46959 
L 142.905065 170.57003 
L 153.702888 170.670469 
L 155.502525 170.57003 
L 173.498897 170.57003 
L 174.398716 170.369151 
L 175.298534 170.57003 
L 176.198353 170.57003 
L 177.098171 170.369151 
L 178.897809 170.46959 
L 188.795813 170.369151 
L 201.393273 168.962996 
L 203.19291 168.862557 
L 204.092729 168.762117 
L 204.992547 168.862557 
L 207.692003 168.661678 
L 208.591822 168.762117 
L 212.191096 168.460798 
L 215.790371 168.360359 
L 216.690189 168.561238 
L 221.189282 168.460798 
L 224.788556 168.15948 
L 226.588194 168.259919 
L 227.488012 168.360359 
L 229.287649 168.259919 
L 232.886924 168.460798 
L 233.786742 168.05904 
L 235.586379 168.15948 
L 237.386017 168.05904 
L 242.784928 168.05904 
L 243.684747 167.657282 
L 246.384202 167.858161 
L 248.18384 167.858161 
L 249.083658 167.657282 
L 250.883295 167.757721 
L 252.682932 167.657282 
L 253.582751 167.456402 
L 254.48257 166.251127 
L 255.382388 166.150688 
L 257.182025 166.251127 
L 258.081844 166.050248 
L 259.881481 166.150688 
L 260.7813 165.849369 
L 261.681118 165.849369 
L 262.580937 166.050248 
L 263.480756 165.949808 
L 264.380574 166.050248 
L 265.280393 165.949808 
L 266.180211 166.150688 
L 268.879667 165.849369 
L 270.679304 166.050248 
L 271.579123 165.849369 
L 275.178397 166.150688 
L 276.078216 165.849369 
L 277.877853 166.050248 
L 279.67749 165.949808 
L 282.376946 166.050248 
L 288.675676 165.64849 
L 315.670233 165.146292 
L 316.570052 165.347171 
L 317.469871 165.246731 
L 318.369689 165.347171 
L 319.269508 165.146292 
L 321.968964 165.64849 
L 323.768601 164.844973 
L 324.668419 165.146292 
L 325.568238 164.744533 
L 328.267694 164.945412 
L 330.067331 164.644094 
L 348.963521 165.045852 
L 349.86334 164.844973 
L 353.462614 165.146292 
L 357.961707 164.644094 
L 359.761344 164.844973 
L 362.4608 164.443214 
L 366.060074 164.644094 
L 366.959893 164.644094 
L 368.75953 164.342775 
L 369.659349 164.543654 
L 370.559167 164.443214 
L 371.458986 164.644094 
L 372.358804 164.342775 
L 375.05826 164.242335 
L 375.958079 163.840577 
L 376.857897 163.740137 
L 377.757716 164.141896 
L 378.657534 164.041456 
L 379.557353 164.242335 
L 380.457172 163.941016 
L 383.156627 163.840577 
L 384.056446 163.639698 
L 386.755902 163.639698 
L 387.65572 163.840577 
L 389.455357 163.740137 
L 390.355176 163.639698 
L 391.254995 163.740137 
L 394.854269 163.237939 
L 395.754088 163.438818 
L 396.653906 163.438818 
L 397.553725 163.1375 
L 399.353362 163.237939 
L 400.25318 163.539258 
L 401.152999 163.639698 
L 403.852455 163.338379 
L 404.752273 163.438818 
L 407.451729 163.338379 
L 408.351548 163.438818 
L 409.251366 163.1375 
L 410.151185 163.1375 
L 411.051003 163.338379 
L 411.950822 163.03706 
L 412.850641 163.03706 
L 414.650278 163.338379 
L 415.550096 163.338379 
L 416.449915 163.740137 
L 417.349734 163.03706 
L 420.049189 162.534862 
L 420.949008 162.735741 
L 421.848826 162.534862 
L 424.548282 162.635302 
L 426.347919 162.735741 
L 429.047375 162.133104 
L 432.646649 162.032664 
L 433.546468 162.333983 
L 434.446287 162.333983 
L 435.346105 162.635302 
L 436.245924 151.988704 
L 437.145742 151.285627 
L 438.045561 151.084748 
L 440.745017 150.984308 
L 441.644835 151.185187 
L 443.444473 151.084748 
L 445.24411 151.386066 
L 447.943565 152.089144 
L 448.843384 151.687385 
L 449.743203 151.586946 
L 452.442658 151.586946 
L 453.342477 151.787825 
L 454.242296 152.189583 
L 456.041933 151.687385 
L 456.941751 151.285627 
L 457.84157 151.586946 
L 458.741388 151.687385 
L 459.641207 151.285627 
L 460.541026 151.888264 
L 461.440844 151.787825 
L 462.340663 151.285627 
L 463.240481 151.586946 
L 464.1403 151.586946 
L 465.040119 151.787825 
L 465.939937 151.787825 
L 466.839756 152.189583 
L 467.739574 151.787825 
L 469.539211 152.290023 
L 471.338849 152.089144 
L 472.238667 152.290023 
L 473.138486 151.586946 
L 474.938123 151.386066 
L 475.837942 151.687385 
L 477.637579 151.185187 
L 478.537397 151.285627 
L 479.437216 151.586946 
L 479.437216 151.586946 
" clip-path="url(#pc35f036afc)" style="fill: none; stroke: #d62728; stroke-width: 1.5; stroke-linecap: square"/>
   </g>
   <g id="patch_3">
    <path d="M 53.328125 178.56 
L 53.328125 7.2 
" style="fill: none; stroke: #000000; stroke-width: 0.8; stroke-linejoin: miter; stroke-linecap: square"/>
   </g>
   <g id="patch_4">
    <path d="M 499.728125 178.56 
L 499.728125 7.2 
" style="fill: none; stroke: #000000; stroke-width: 0.8; stroke-linejoin: miter; stroke-linecap: square"/>
   </g>
   <g id="patch_5">
    <path d="M 53.328125 178.56 
L 499.728125 178.56 
" style="fill: none; stroke: #000000; stroke-width: 0.8; stroke-linejoin: miter; stroke-linecap: square"/>
   </g>
   <g id="patch_6">
    <path d="M 53.328125 7.2 
L 499.728125 7.2 
" style="fill: none; stroke: #000000; stroke-width: 0.8; stroke-linejoin: miter; stroke-linecap: square"/>
   </g>
   <g id="legend_1">
    <g id="patch_7">
     <path d="M 60.328125 73.9125 
L 221.734375 73.9125 
Q 223.734375 73.9125 223.734375 71.9125 
L 223.734375 14.2 
Q 223.734375 12.2 221.734375 12.2 
L 60.328125 12.2 
Q 58.328125 12.2 58.328125 14.2 
L 58.328125 71.9125 
Q 58.328125 73.9125 60.328125 73.9125 
z
" style="fill: #ffffff; opacity: 0.8; stroke: #cccccc; stroke-linejoin: miter"/>
    </g>
    <g id="line2d_35">
     <path d="M 62.328125 20.298438 
L 72.328125 20.298438 
L 82.328125 20.298438 
" style="fill: none; stroke: #1f77b4; stroke-width: 1.5; stroke-linecap: square"/>
    </g>
    <g id="text_25">
     <!-- COOP header -->
     <g transform="translate(90.328125 23.798438)scale(0.1 -0.1)">
      <defs>
       <path id="DejaVuSans-43" d="M 4122 4306 
L 4122 3641 
Q 3803 3938 3442 4084 
Q 3081 4231 2675 4231 
Q 1875 4231 1450 3742 
Q 1025 3253 1025 2328 
Q 1025 1406 1450 917 
Q 1875 428 2675 428 
Q 3081 428 3442 575 
Q 3803 722 4122 1019 
L 4122 359 
Q 3791 134 3420 21 
Q 3050 -91 2638 -91 
Q 1578 -91 968 557 
Q 359 1206 359 2328 
Q 359 3453 968 4101 
Q 1578 4750 2638 4750 
Q 3056 4750 3426 4639 
Q 3797 4528 4122 4306 
z
" transform="scale(0.015625)"/>
       <path id="DejaVuSans-50" d="M 1259 4147 
L 1259 2394 
L 2053 2394 
Q 2494 2394 2734 2622 
Q 2975 2850 2975 3272 
Q 2975 3691 2734 3919 
Q 2494 4147 2053 4147 
L 1259 4147 
z
M 628 4666 
L 2053 4666 
Q 2838 4666 3239 4311 
Q 3641 3956 3641 3272 
Q 3641 2581 3239 2228 
Q 2838 1875 2053 1875 
L 1259 1875 
L 1259 0 
L 628 0 
L 628 4666 
z
" transform="scale(0.015625)"/>
       <path id="DejaVuSans-68" d="M 3513 2113 
L 3513 0 
L 2938 0 
L 2938 2094 
Q 2938 2591 2744 2837 
Q 2550 3084 2163 3084 
Q 1697 3084 1428 2787 
Q 1159 2491 1159 1978 
L 1159 0 
L 581 0 
L 581 4863 
L 1159 4863 
L 1159 2956 
Q 1366 3272 1645 3428 
Q 1925 3584 2291 3584 
Q 2894 3584 3203 3211 
Q 3513 2838 3513 2113 
z
" transform="scale(0.015625)"/>
       <path id="DejaVuSans-64" d="M 2906 2969 
L 2906 4863 
L 3481 4863 
L 3481 0 
L 2906 0 
L 2906 525 
Q 2725 213 2448 61 
Q 2172 -91 1784 -91 
Q 1150 -91 751 415 
Q 353 922 353 1747 
Q 353 2572 751 3078 
Q 1150 3584 1784 3584 
Q 2172 3584 2448 3432 
Q 2725 3281 2906 2969 
z
M 947 1747 
Q 947 1113 1208 752 
Q 1469 391 1925 391 
Q 2381 391 2643 752 
Q 2906 1113 2906 1747 
Q 2906 2381 2643 2742 
Q 2381 3103 1925 3103 
Q 1469 3103 1208 2742 
Q 947 2381 947 1747 
z
" transform="scale(0.015625)"/>
      </defs>
      <use xlink:href="#DejaVuSans-43"/>
      <use xlink:href="#DejaVuSans-4f" x="69.824219"/>
      <use xlink:href="#DejaVuSans-4f" x="148.535156"/>
      <use xlink:href="#DejaVuSans-50" x="227.246094"/>
      <use xlink:href="#DejaVuSans-20" x="287.548828"/>
      <use xlink:href="#DejaVuSans-68" x="319.335938"/>
      <use xlink:href="#DejaVuSans-65" x="382.714844"/>
      <use xlink:href="#DejaVuSans-61" x="444.238281"/>
      <use xlink:href="#DejaVuSans-64" x="505.517578"/>
      <use xlink:href="#DejaVuSans-65" x="568.994141"/>
      <use xlink:href="#DejaVuSans-72" x="630.517578"/>
     </g>
    </g>
    <g id="line2d_36">
     <path d="M 62.328125 34.976562 
L 72.328125 34.976562 
L 82.328125 34.976562 
" style="fill: none; stroke: #ff7f0e; stroke-width: 1.5; stroke-linecap: square"/>
    </g>
    <g id="text_26">
     <!-- same-origin -->
     <g transform="translate(90.328125 38.476562)scale(0.1 -0.1)">
      <use xlink:href="#DejaVuSans-73"/>
      <use xlink:href="#DejaVuSans-61" x="52.099609"/>
      <use xlink:href="#DejaVuSans-6d" x="113.378906"/>
      <use xlink:href="#DejaVuSans-65" x="210.791016"/>
      <use xlink:href="#DejaVuSans-2d" x="272.314453"/>
      <use xlink:href="#DejaVuSans-6f" x="310.273438"/>
      <use xlink:href="#DejaVuSans-72" x="371.455078"/>
      <use xlink:href="#DejaVuSans-69" x="412.568359"/>
      <use xlink:href="#DejaVuSans-67" x="440.351562"/>
      <use xlink:href="#DejaVuSans-69" x="503.828125"/>
      <use xlink:href="#DejaVuSans-6e" x="531.611328"/>
     </g>
    </g>
    <g id="line2d_37">
     <path d="M 62.328125 49.654687 
L 72.328125 49.654687 
L 82.328125 49.654687 
" style="fill: none; stroke: #2ca02c; stroke-width: 1.5; stroke-linecap: square"/>
    </g>
    <g id="text_27">
     <!-- same-origin-allow-popups -->
     <g transform="translate(90.328125 53.154687)scale(0.1 -0.1)">
      <defs>
       <path id="DejaVuSans-77" d="M 269 3500 
L 844 3500 
L 1563 769 
L 2278 3500 
L 2956 3500 
L 3675 769 
L 4391 3500 
L 4966 3500 
L 4050 0 
L 3372 0 
L 2619 2869 
L 1863 0 
L 1184 0 
L 269 3500 
z
" transform="scale(0.015625)"/>
      </defs>
      <use xlink:href="#DejaVuSans-73"/>
      <use xlink:href="#DejaVuSans-61" x="52.099609"/>
      <use xlink:href="#DejaVuSans-6d" x="113.378906"/>
      <use xlink:href="#DejaVuSans-65" x="210.791016"/>
      <use xlink:href="#DejaVuSans-2d" x="272.314453"/>
      <use xlink:href="#DejaVuSans-6f" x="310.273438"/>
      <use xlink:href="#DejaVuSans-72" x="371.455078"/>
      <use xlink:href="#DejaVuSans-69" x="412.568359"/>
      <use xlink:href="#DejaVuSans-67" x="440.351562"/>
      <use xlink:href="#DejaVuSans-69" x="503.828125"/>
      <use xlink:href="#DejaVuSans-6e" x="531.611328"/>
      <use xlink:href="#DejaVuSans-2d" x="594.990234"/>
      <use xlink:href="#DejaVuSans-61" x="631.074219"/>
      <use xlink:href="#DejaVuSans-6c" x="692.353516"/>
      <use xlink:href="#DejaVuSans-6c" x="720.136719"/>
      <use xlink:href="#DejaVuSans-6f" x="747.919922"/>
      <use xlink:href="#DejaVuSans-77" x="809.101562"/>
      <use xlink:href="#DejaVuSans-2d" x="890.888672"/>
      <use xlink:href="#DejaVuSans-70" x="926.972656"/>
      <use xlink:href="#DejaVuSans-6f" x="990.449219"/>
      <use xlink:href="#DejaVuSans-70" x="1051.630859"/>
      <use xlink:href="#DejaVuSans-75" x="1115.107422"/>
      <use xlink:href="#DejaVuSans-70" x="1178.486328"/>
      <use xlink:href="#DejaVuSans-73" x="1241.962891"/>
     </g>
    </g>
    <g id="line2d_38">
     <path d="M 62.328125 64.332813 
L 72.328125 64.332813 
L 82.328125 64.332813 
" style="fill: none; stroke: #d62728; stroke-width: 1.5; stroke-linecap: square"/>
    </g>
    <g id="text_28">
     <!-- unsafe-none -->
     <g transform="translate(90.328125 67.832813)scale(0.1 -0.1)">
      <use xlink:href="#DejaVuSans-75"/>
      <use xlink:href="#DejaVuSans-6e" x="63.378906"/>
      <use xlink:href="#DejaVuSans-73" x="126.757812"/>
      <use xlink:href="#DejaVuSans-61" x="178.857422"/>
      <use xlink:href="#DejaVuSans-66" x="240.136719"/>
      <use xlink:href="#DejaVuSans-65" x="275.341797"/>
      <use xlink:href="#DejaVuSans-2d" x="336.865234"/>
      <use xlink:href="#DejaVuSans-6e" x="372.949219"/>
      <use xlink:href="#DejaVuSans-6f" x="436.328125"/>
      <use xlink:href="#DejaVuSans-6e" x="497.509766"/>
      <use xlink:href="#DejaVuSans-65" x="560.888672"/>
     </g>
    </g>
   </g>
  </g>
 </g>
 <defs>
  <clipPath id="pc35f036afc">
   <rect x="53.328125" y="7.2" width="446.4" height="171.36"/>
  </clipPath>
 </defs>
</svg>
