<?xml version="1.0" encoding="utf-8" standalone="no"?>
<!DOCTYPE svg PUBLIC "-//W3C//DTD SVG 1.1//EN"
  "http://www.w3.org/Graphics/SVG/1.1/DTD/svg11.dtd">
<svg xmlns:xlink="http://www.w3.org/1999/xlink" width="519.653125pt" height="234.086815pt" viewBox="0 0 519.653125 234.086815" xmlns="http://www.w3.org/2000/svg" version="1.1">
 <metadata>
  <rdf:RDF xmlns:dc="http://purl.org/dc/elements/1.1/" xmlns:cc="http://creativecommons.org/ns#" xmlns:rdf="http://www.w3.org/1999/02/22-rdf-syntax-ns#">
   <cc:Work>
    <dc:type rdf:resource="http://purl.org/dc/dcmitype/StillImage"/>
    <dc:date>2022-02-06T21:37:01.318585</dc:date>
    <dc:format>image/svg+xml</dc:format>
    <dc:creator>
     <cc:Agent>
      <dc:title>Matplotlib v3.5.1, https://matplotlib.org/</dc:title>
     </cc:Agent>
    </dc:creator>
   </cc:Work>
  </rdf:RDF>
 </metadata>
 <defs>
  <style type="text/css">*{stroke-linejoin: round; stroke-linecap: butt}</style>
 </defs>
 <g id="figure_1">
  <g id="patch_1">
   <path d="M 0 234.086815 
L 519.653125 234.086815 
L 519.653125 0 
L 0 0 
z
" style="fill: #ffffff"/>
  </g>
  <g id="axes_1">
   <g id="patch_2">
    <path d="M 66.053125 178.56 
L 512.453125 178.56 
L 512.453125 7.2 
L 66.053125 7.2 
z
" style="fill: #ffffff"/>
   </g>
   <g id="matplotlib.axis_1">
    <g id="xtick_1">
     <g id="line2d_1">
      <defs>
       <path id="mfb25688d71" d="M 0 0 
L 0 3.5 
" style="stroke: #000000; stroke-width: 0.8"/>
      </defs>
      <g>
       <use xlink:href="#mfb25688d71" x="80.518893" y="178.56" style="stroke: #000000; stroke-width: 0.8"/>
      </g>
     </g>
     <g id="text_1">
      <!-- 2020-Nov-01 -->
      <g transform="translate(23.493213 224.463877)rotate(-30)scale(0.1 -0.1)">
       <defs>
        <path id="DejaVuSans-32" d="M 1228 531 
L 3431 531 
L 3431 0 
L 469 0 
L 469 531 
Q 828 903 1448 1529 
Q 2069 2156 2228 2338 
Q 2531 2678 2651 2914 
Q 2772 3150 2772 3378 
Q 2772 3750 2511 3984 
Q 2250 4219 1831 4219 
Q 1534 4219 1204 4116 
Q 875 4013 500 3803 
L 500 4441 
Q 881 4594 1212 4672 
Q 1544 4750 1819 4750 
Q 2544 4750 2975 4387 
Q 3406 4025 3406 3419 
Q 3406 3131 3298 2873 
Q 3191 2616 2906 2266 
Q 2828 2175 2409 1742 
Q 1991 1309 1228 531 
z
" transform="scale(0.015625)"/>
        <path id="DejaVuSans-30" d="M 2034 4250 
Q 1547 4250 1301 3770 
Q 1056 3291 1056 2328 
Q 1056 1369 1301 889 
Q 1547 409 2034 409 
Q 2525 409 2770 889 
Q 3016 1369 3016 2328 
Q 3016 3291 2770 3770 
Q 2525 4250 2034 4250 
z
M 2034 4750 
Q 2819 4750 3233 4129 
Q 3647 3509 3647 2328 
Q 3647 1150 3233 529 
Q 2819 -91 2034 -91 
Q 1250 -91 836 529 
Q 422 1150 422 2328 
Q 422 3509 836 4129 
Q 1250 4750 2034 4750 
z
" transform="scale(0.015625)"/>
        <path id="DejaVuSans-2d" d="M 313 2009 
L 1997 2009 
L 1997 1497 
L 313 1497 
L 313 2009 
z
" transform="scale(0.015625)"/>
        <path id="DejaVuSans-4e" d="M 628 4666 
L 1478 4666 
L 3547 763 
L 3547 4666 
L 4159 4666 
L 4159 0 
L 3309 0 
L 1241 3903 
L 1241 0 
L 628 0 
L 628 4666 
z
" transform="scale(0.015625)"/>
        <path id="DejaVuSans-6f" d="M 1959 3097 
Q 1497 3097 1228 2736 
Q 959 2375 959 1747 
Q 959 1119 1226 758 
Q 1494 397 1959 397 
Q 2419 397 2687 759 
Q 2956 1122 2956 1747 
Q 2956 2369 2687 2733 
Q 2419 3097 1959 3097 
z
M 1959 3584 
Q 2709 3584 3137 3096 
Q 3566 2609 3566 1747 
Q 3566 888 3137 398 
Q 2709 -91 1959 -91 
Q 1206 -91 779 398 
Q 353 888 353 1747 
Q 353 2609 779 3096 
Q 1206 3584 1959 3584 
z
" transform="scale(0.015625)"/>
        <path id="DejaVuSans-76" d="M 191 3500 
L 800 3500 
L 1894 563 
L 2988 3500 
L 3597 3500 
L 2284 0 
L 1503 0 
L 191 3500 
z
" transform="scale(0.015625)"/>
        <path id="DejaVuSans-31" d="M 794 531 
L 1825 531 
L 1825 4091 
L 703 3866 
L 703 4441 
L 1819 4666 
L 2450 4666 
L 2450 531 
L 3481 531 
L 3481 0 
L 794 0 
L 794 531 
z
" transform="scale(0.015625)"/>
       </defs>
       <use xlink:href="#DejaVuSans-32"/>
       <use xlink:href="#DejaVuSans-30" x="63.623047"/>
       <use xlink:href="#DejaVuSans-32" x="127.246094"/>
       <use xlink:href="#DejaVuSans-30" x="190.869141"/>
       <use xlink:href="#DejaVuSans-2d" x="254.492188"/>
       <use xlink:href="#DejaVuSans-4e" x="290.576172"/>
       <use xlink:href="#DejaVuSans-6f" x="365.380859"/>
       <use xlink:href="#DejaVuSans-76" x="426.5625"/>
       <use xlink:href="#DejaVuSans-2d" x="483.117188"/>
       <use xlink:href="#DejaVuSans-30" x="519.201172"/>
       <use xlink:href="#DejaVuSans-31" x="582.824219"/>
      </g>
     </g>
    </g>
    <g id="xtick_2">
     <g id="line2d_2">
      <g>
       <use xlink:href="#mfb25688d71" x="109.6446" y="178.56" style="stroke: #000000; stroke-width: 0.8"/>
      </g>
     </g>
     <g id="text_2">
      <!-- 2020-Dec-01 -->
      <g transform="translate(52.536377 224.511534)rotate(-30)scale(0.1 -0.1)">
       <defs>
        <path id="DejaVuSans-44" d="M 1259 4147 
L 1259 519 
L 2022 519 
Q 2988 519 3436 956 
Q 3884 1394 3884 2338 
Q 3884 3275 3436 3711 
Q 2988 4147 2022 4147 
L 1259 4147 
z
M 628 4666 
L 1925 4666 
Q 3281 4666 3915 4102 
Q 4550 3538 4550 2338 
Q 4550 1131 3912 565 
Q 3275 0 1925 0 
L 628 0 
L 628 4666 
z
" transform="scale(0.015625)"/>
        <path id="DejaVuSans-65" d="M 3597 1894 
L 3597 1613 
L 953 1613 
Q 991 1019 1311 708 
Q 1631 397 2203 397 
Q 2534 397 2845 478 
Q 3156 559 3463 722 
L 3463 178 
Q 3153 47 2828 -22 
Q 2503 -91 2169 -91 
Q 1331 -91 842 396 
Q 353 884 353 1716 
Q 353 2575 817 3079 
Q 1281 3584 2069 3584 
Q 2775 3584 3186 3129 
Q 3597 2675 3597 1894 
z
M 3022 2063 
Q 3016 2534 2758 2815 
Q 2500 3097 2075 3097 
Q 1594 3097 1305 2825 
Q 1016 2553 972 2059 
L 3022 2063 
z
" transform="scale(0.015625)"/>
        <path id="DejaVuSans-63" d="M 3122 3366 
L 3122 2828 
Q 2878 2963 2633 3030 
Q 2388 3097 2138 3097 
Q 1578 3097 1268 2742 
Q 959 2388 959 1747 
Q 959 1106 1268 751 
Q 1578 397 2138 397 
Q 2388 397 2633 464 
Q 2878 531 3122 666 
L 3122 134 
Q 2881 22 2623 -34 
Q 2366 -91 2075 -91 
Q 1284 -91 818 406 
Q 353 903 353 1747 
Q 353 2603 823 3093 
Q 1294 3584 2113 3584 
Q 2378 3584 2631 3529 
Q 2884 3475 3122 3366 
z
" transform="scale(0.015625)"/>
       </defs>
       <use xlink:href="#DejaVuSans-32"/>
       <use xlink:href="#DejaVuSans-30" x="63.623047"/>
       <use xlink:href="#DejaVuSans-32" x="127.246094"/>
       <use xlink:href="#DejaVuSans-30" x="190.869141"/>
       <use xlink:href="#DejaVuSans-2d" x="254.492188"/>
       <use xlink:href="#DejaVuSans-44" x="290.576172"/>
       <use xlink:href="#DejaVuSans-65" x="367.578125"/>
       <use xlink:href="#DejaVuSans-63" x="429.101562"/>
       <use xlink:href="#DejaVuSans-2d" x="484.082031"/>
       <use xlink:href="#DejaVuSans-30" x="520.166016"/>
       <use xlink:href="#DejaVuSans-31" x="583.789062"/>
      </g>
     </g>
    </g>
    <g id="xtick_3">
     <g id="line2d_3">
      <g>
       <use xlink:href="#mfb25688d71" x="139.741163" y="178.56" style="stroke: #000000; stroke-width: 0.8"/>
      </g>
     </g>
     <g id="text_3">
      <!-- 2021-Jan-01 -->
      <g transform="translate(85.554423 222.824815)rotate(-30)scale(0.1 -0.1)">
       <defs>
        <path id="DejaVuSans-4a" d="M 628 4666 
L 1259 4666 
L 1259 325 
Q 1259 -519 939 -900 
Q 619 -1281 -91 -1281 
L -331 -1281 
L -331 -750 
L -134 -750 
Q 284 -750 456 -515 
Q 628 -281 628 325 
L 628 4666 
z
" transform="scale(0.015625)"/>
        <path id="DejaVuSans-61" d="M 2194 1759 
Q 1497 1759 1228 1600 
Q 959 1441 959 1056 
Q 959 750 1161 570 
Q 1363 391 1709 391 
Q 2188 391 2477 730 
Q 2766 1069 2766 1631 
L 2766 1759 
L 2194 1759 
z
M 3341 1997 
L 3341 0 
L 2766 0 
L 2766 531 
Q 2569 213 2275 61 
Q 1981 -91 1556 -91 
Q 1019 -91 701 211 
Q 384 513 384 1019 
Q 384 1609 779 1909 
Q 1175 2209 1959 2209 
L 2766 2209 
L 2766 2266 
Q 2766 2663 2505 2880 
Q 2244 3097 1772 3097 
Q 1472 3097 1187 3025 
Q 903 2953 641 2809 
L 641 3341 
Q 956 3463 1253 3523 
Q 1550 3584 1831 3584 
Q 2591 3584 2966 3190 
Q 3341 2797 3341 1997 
z
" transform="scale(0.015625)"/>
        <path id="DejaVuSans-6e" d="M 3513 2113 
L 3513 0 
L 2938 0 
L 2938 2094 
Q 2938 2591 2744 2837 
Q 2550 3084 2163 3084 
Q 1697 3084 1428 2787 
Q 1159 2491 1159 1978 
L 1159 0 
L 581 0 
L 581 3500 
L 1159 3500 
L 1159 2956 
Q 1366 3272 1645 3428 
Q 1925 3584 2291 3584 
Q 2894 3584 3203 3211 
Q 3513 2838 3513 2113 
z
" transform="scale(0.015625)"/>
       </defs>
       <use xlink:href="#DejaVuSans-32"/>
       <use xlink:href="#DejaVuSans-30" x="63.623047"/>
       <use xlink:href="#DejaVuSans-32" x="127.246094"/>
       <use xlink:href="#DejaVuSans-31" x="190.869141"/>
       <use xlink:href="#DejaVuSans-2d" x="254.492188"/>
       <use xlink:href="#DejaVuSans-4a" x="296.201172"/>
       <use xlink:href="#DejaVuSans-61" x="325.693359"/>
       <use xlink:href="#DejaVuSans-6e" x="386.972656"/>
       <use xlink:href="#DejaVuSans-2d" x="450.351562"/>
       <use xlink:href="#DejaVuSans-30" x="486.435547"/>
       <use xlink:href="#DejaVuSans-31" x="550.058594"/>
      </g>
     </g>
    </g>
    <g id="xtick_4">
     <g id="line2d_4">
      <g>
       <use xlink:href="#mfb25688d71" x="169.837727" y="178.56" style="stroke: #000000; stroke-width: 0.8"/>
      </g>
     </g>
     <g id="text_4">
      <!-- 2021-Feb-01 -->
      <g transform="translate(114.157093 223.687315)rotate(-30)scale(0.1 -0.1)">
       <defs>
        <path id="DejaVuSans-46" d="M 628 4666 
L 3309 4666 
L 3309 4134 
L 1259 4134 
L 1259 2759 
L 3109 2759 
L 3109 2228 
L 1259 2228 
L 1259 0 
L 628 0 
L 628 4666 
z
" transform="scale(0.015625)"/>
        <path id="DejaVuSans-62" d="M 3116 1747 
Q 3116 2381 2855 2742 
Q 2594 3103 2138 3103 
Q 1681 3103 1420 2742 
Q 1159 2381 1159 1747 
Q 1159 1113 1420 752 
Q 1681 391 2138 391 
Q 2594 391 2855 752 
Q 3116 1113 3116 1747 
z
M 1159 2969 
Q 1341 3281 1617 3432 
Q 1894 3584 2278 3584 
Q 2916 3584 3314 3078 
Q 3713 2572 3713 1747 
Q 3713 922 3314 415 
Q 2916 -91 2278 -91 
Q 1894 -91 1617 61 
Q 1341 213 1159 525 
L 1159 0 
L 581 0 
L 581 4863 
L 1159 4863 
L 1159 2969 
z
" transform="scale(0.015625)"/>
       </defs>
       <use xlink:href="#DejaVuSans-32"/>
       <use xlink:href="#DejaVuSans-30" x="63.623047"/>
       <use xlink:href="#DejaVuSans-32" x="127.246094"/>
       <use xlink:href="#DejaVuSans-31" x="190.869141"/>
       <use xlink:href="#DejaVuSans-2d" x="254.492188"/>
       <use xlink:href="#DejaVuSans-46" x="290.576172"/>
       <use xlink:href="#DejaVuSans-65" x="342.595703"/>
       <use xlink:href="#DejaVuSans-62" x="404.119141"/>
       <use xlink:href="#DejaVuSans-2d" x="467.595703"/>
       <use xlink:href="#DejaVuSans-30" x="503.679688"/>
       <use xlink:href="#DejaVuSans-31" x="567.302734"/>
      </g>
     </g>
    </g>
    <g id="xtick_5">
     <g id="line2d_5">
      <g>
       <use xlink:href="#mfb25688d71" x="197.02172" y="178.56" style="stroke: #000000; stroke-width: 0.8"/>
      </g>
     </g>
     <g id="text_5">
      <!-- 2021-Mar-01 -->
      <g transform="translate(140.885069 223.950596)rotate(-30)scale(0.1 -0.1)">
       <defs>
        <path id="DejaVuSans-4d" d="M 628 4666 
L 1569 4666 
L 2759 1491 
L 3956 4666 
L 4897 4666 
L 4897 0 
L 4281 0 
L 4281 4097 
L 3078 897 
L 2444 897 
L 1241 4097 
L 1241 0 
L 628 0 
L 628 4666 
z
" transform="scale(0.015625)"/>
        <path id="DejaVuSans-72" d="M 2631 2963 
Q 2534 3019 2420 3045 
Q 2306 3072 2169 3072 
Q 1681 3072 1420 2755 
Q 1159 2438 1159 1844 
L 1159 0 
L 581 0 
L 581 3500 
L 1159 3500 
L 1159 2956 
Q 1341 3275 1631 3429 
Q 1922 3584 2338 3584 
Q 2397 3584 2469 3576 
Q 2541 3569 2628 3553 
L 2631 2963 
z
" transform="scale(0.015625)"/>
       </defs>
       <use xlink:href="#DejaVuSans-32"/>
       <use xlink:href="#DejaVuSans-30" x="63.623047"/>
       <use xlink:href="#DejaVuSans-32" x="127.246094"/>
       <use xlink:href="#DejaVuSans-31" x="190.869141"/>
       <use xlink:href="#DejaVuSans-2d" x="254.492188"/>
       <use xlink:href="#DejaVuSans-4d" x="290.576172"/>
       <use xlink:href="#DejaVuSans-61" x="376.855469"/>
       <use xlink:href="#DejaVuSans-72" x="438.134766"/>
       <use xlink:href="#DejaVuSans-2d" x="472.873047"/>
       <use xlink:href="#DejaVuSans-30" x="508.957031"/>
       <use xlink:href="#DejaVuSans-31" x="572.580078"/>
      </g>
     </g>
    </g>
    <g id="xtick_6">
     <g id="line2d_6">
      <g>
       <use xlink:href="#mfb25688d71" x="227.118284" y="178.56" style="stroke: #000000; stroke-width: 0.8"/>
      </g>
     </g>
     <g id="text_6">
      <!-- 2021-Apr-01 -->
      <g transform="translate(172.533713 223.054502)rotate(-30)scale(0.1 -0.1)">
       <defs>
        <path id="DejaVuSans-41" d="M 2188 4044 
L 1331 1722 
L 3047 1722 
L 2188 4044 
z
M 1831 4666 
L 2547 4666 
L 4325 0 
L 3669 0 
L 3244 1197 
L 1141 1197 
L 716 0 
L 50 0 
L 1831 4666 
z
" transform="scale(0.015625)"/>
        <path id="DejaVuSans-70" d="M 1159 525 
L 1159 -1331 
L 581 -1331 
L 581 3500 
L 1159 3500 
L 1159 2969 
Q 1341 3281 1617 3432 
Q 1894 3584 2278 3584 
Q 2916 3584 3314 3078 
Q 3713 2572 3713 1747 
Q 3713 922 3314 415 
Q 2916 -91 2278 -91 
Q 1894 -91 1617 61 
Q 1341 213 1159 525 
z
M 3116 1747 
Q 3116 2381 2855 2742 
Q 2594 3103 2138 3103 
Q 1681 3103 1420 2742 
Q 1159 2381 1159 1747 
Q 1159 1113 1420 752 
Q 1681 391 2138 391 
Q 2594 391 2855 752 
Q 3116 1113 3116 1747 
z
" transform="scale(0.015625)"/>
       </defs>
       <use xlink:href="#DejaVuSans-32"/>
       <use xlink:href="#DejaVuSans-30" x="63.623047"/>
       <use xlink:href="#DejaVuSans-32" x="127.246094"/>
       <use xlink:href="#DejaVuSans-31" x="190.869141"/>
       <use xlink:href="#DejaVuSans-2d" x="254.492188"/>
       <use xlink:href="#DejaVuSans-41" x="288.326172"/>
       <use xlink:href="#DejaVuSans-70" x="356.734375"/>
       <use xlink:href="#DejaVuSans-72" x="420.210938"/>
       <use xlink:href="#DejaVuSans-2d" x="454.949219"/>
       <use xlink:href="#DejaVuSans-30" x="491.033203"/>
       <use xlink:href="#DejaVuSans-31" x="554.65625"/>
      </g>
     </g>
    </g>
    <g id="xtick_7">
     <g id="line2d_7">
      <g>
       <use xlink:href="#mfb25688d71" x="256.243991" y="178.56" style="stroke: #000000; stroke-width: 0.8"/>
      </g>
     </g>
     <g id="text_7">
      <!-- 2021-May-01 -->
      <g transform="translate(198.141192 225.085752)rotate(-30)scale(0.1 -0.1)">
       <defs>
        <path id="DejaVuSans-79" d="M 2059 -325 
Q 1816 -950 1584 -1140 
Q 1353 -1331 966 -1331 
L 506 -1331 
L 506 -850 
L 844 -850 
Q 1081 -850 1212 -737 
Q 1344 -625 1503 -206 
L 1606 56 
L 191 3500 
L 800 3500 
L 1894 763 
L 2988 3500 
L 3597 3500 
L 2059 -325 
z
" transform="scale(0.015625)"/>
       </defs>
       <use xlink:href="#DejaVuSans-32"/>
       <use xlink:href="#DejaVuSans-30" x="63.623047"/>
       <use xlink:href="#DejaVuSans-32" x="127.246094"/>
       <use xlink:href="#DejaVuSans-31" x="190.869141"/>
       <use xlink:href="#DejaVuSans-2d" x="254.492188"/>
       <use xlink:href="#DejaVuSans-4d" x="290.576172"/>
       <use xlink:href="#DejaVuSans-61" x="376.855469"/>
       <use xlink:href="#DejaVuSans-79" x="438.134766"/>
       <use xlink:href="#DejaVuSans-2d" x="495.564453"/>
       <use xlink:href="#DejaVuSans-30" x="531.648438"/>
       <use xlink:href="#DejaVuSans-31" x="595.271484"/>
      </g>
     </g>
    </g>
    <g id="xtick_8">
     <g id="line2d_8">
      <g>
       <use xlink:href="#mfb25688d71" x="286.340554" y="178.56" style="stroke: #000000; stroke-width: 0.8"/>
      </g>
     </g>
     <g id="text_8">
      <!-- 2021-Jun-01 -->
      <g transform="translate(231.97249 222.929502)rotate(-30)scale(0.1 -0.1)">
       <defs>
        <path id="DejaVuSans-75" d="M 544 1381 
L 544 3500 
L 1119 3500 
L 1119 1403 
Q 1119 906 1312 657 
Q 1506 409 1894 409 
Q 2359 409 2629 706 
Q 2900 1003 2900 1516 
L 2900 3500 
L 3475 3500 
L 3475 0 
L 2900 0 
L 2900 538 
Q 2691 219 2414 64 
Q 2138 -91 1772 -91 
Q 1169 -91 856 284 
Q 544 659 544 1381 
z
M 1991 3584 
L 1991 3584 
z
" transform="scale(0.015625)"/>
       </defs>
       <use xlink:href="#DejaVuSans-32"/>
       <use xlink:href="#DejaVuSans-30" x="63.623047"/>
       <use xlink:href="#DejaVuSans-32" x="127.246094"/>
       <use xlink:href="#DejaVuSans-31" x="190.869141"/>
       <use xlink:href="#DejaVuSans-2d" x="254.492188"/>
       <use xlink:href="#DejaVuSans-4a" x="296.201172"/>
       <use xlink:href="#DejaVuSans-75" x="325.693359"/>
       <use xlink:href="#DejaVuSans-6e" x="389.072266"/>
       <use xlink:href="#DejaVuSans-2d" x="452.451172"/>
       <use xlink:href="#DejaVuSans-30" x="488.535156"/>
       <use xlink:href="#DejaVuSans-31" x="552.158203"/>
      </g>
     </g>
    </g>
    <g id="xtick_9">
     <g id="line2d_9">
      <g>
       <use xlink:href="#mfb25688d71" x="315.466261" y="178.56" style="stroke: #000000; stroke-width: 0.8"/>
      </g>
     </g>
     <g id="text_9">
      <!-- 2021-Jul-01 -->
      <g transform="translate(264.180706 221.149815)rotate(-30)scale(0.1 -0.1)">
       <defs>
        <path id="DejaVuSans-6c" d="M 603 4863 
L 1178 4863 
L 1178 0 
L 603 0 
L 603 4863 
z
" transform="scale(0.015625)"/>
       </defs>
       <use xlink:href="#DejaVuSans-32"/>
       <use xlink:href="#DejaVuSans-30" x="63.623047"/>
       <use xlink:href="#DejaVuSans-32" x="127.246094"/>
       <use xlink:href="#DejaVuSans-31" x="190.869141"/>
       <use xlink:href="#DejaVuSans-2d" x="254.492188"/>
       <use xlink:href="#DejaVuSans-4a" x="296.201172"/>
       <use xlink:href="#DejaVuSans-75" x="325.693359"/>
       <use xlink:href="#DejaVuSans-6c" x="389.072266"/>
       <use xlink:href="#DejaVuSans-2d" x="416.855469"/>
       <use xlink:href="#DejaVuSans-30" x="452.939453"/>
       <use xlink:href="#DejaVuSans-31" x="516.5625"/>
      </g>
     </g>
    </g>
    <g id="xtick_10">
     <g id="line2d_10">
      <g>
       <use xlink:href="#mfb25688d71" x="345.562825" y="178.56" style="stroke: #000000; stroke-width: 0.8"/>
      </g>
     </g>
     <g id="text_10">
      <!-- 2021-Aug-01 -->
      <g transform="translate(288.497903 224.486534)rotate(-30)scale(0.1 -0.1)">
       <defs>
        <path id="DejaVuSans-67" d="M 2906 1791 
Q 2906 2416 2648 2759 
Q 2391 3103 1925 3103 
Q 1463 3103 1205 2759 
Q 947 2416 947 1791 
Q 947 1169 1205 825 
Q 1463 481 1925 481 
Q 2391 481 2648 825 
Q 2906 1169 2906 1791 
z
M 3481 434 
Q 3481 -459 3084 -895 
Q 2688 -1331 1869 -1331 
Q 1566 -1331 1297 -1286 
Q 1028 -1241 775 -1147 
L 775 -588 
Q 1028 -725 1275 -790 
Q 1522 -856 1778 -856 
Q 2344 -856 2625 -561 
Q 2906 -266 2906 331 
L 2906 616 
Q 2728 306 2450 153 
Q 2172 0 1784 0 
Q 1141 0 747 490 
Q 353 981 353 1791 
Q 353 2603 747 3093 
Q 1141 3584 1784 3584 
Q 2172 3584 2450 3431 
Q 2728 3278 2906 2969 
L 2906 3500 
L 3481 3500 
L 3481 434 
z
" transform="scale(0.015625)"/>
       </defs>
       <use xlink:href="#DejaVuSans-32"/>
       <use xlink:href="#DejaVuSans-30" x="63.623047"/>
       <use xlink:href="#DejaVuSans-32" x="127.246094"/>
       <use xlink:href="#DejaVuSans-31" x="190.869141"/>
       <use xlink:href="#DejaVuSans-2d" x="254.492188"/>
       <use xlink:href="#DejaVuSans-41" x="288.326172"/>
       <use xlink:href="#DejaVuSans-75" x="356.734375"/>
       <use xlink:href="#DejaVuSans-67" x="420.113281"/>
       <use xlink:href="#DejaVuSans-2d" x="483.589844"/>
       <use xlink:href="#DejaVuSans-30" x="519.673828"/>
       <use xlink:href="#DejaVuSans-31" x="583.296875"/>
      </g>
     </g>
    </g>
    <g id="xtick_11">
     <g id="line2d_11">
      <g>
       <use xlink:href="#mfb25688d71" x="375.659389" y="178.56" style="stroke: #000000; stroke-width: 0.8"/>
      </g>
     </g>
     <g id="text_11">
      <!-- 2021-Sep-01 -->
      <g transform="translate(318.985532 224.260752)rotate(-30)scale(0.1 -0.1)">
       <defs>
        <path id="DejaVuSans-53" d="M 3425 4513 
L 3425 3897 
Q 3066 4069 2747 4153 
Q 2428 4238 2131 4238 
Q 1616 4238 1336 4038 
Q 1056 3838 1056 3469 
Q 1056 3159 1242 3001 
Q 1428 2844 1947 2747 
L 2328 2669 
Q 3034 2534 3370 2195 
Q 3706 1856 3706 1288 
Q 3706 609 3251 259 
Q 2797 -91 1919 -91 
Q 1588 -91 1214 -16 
Q 841 59 441 206 
L 441 856 
Q 825 641 1194 531 
Q 1563 422 1919 422 
Q 2459 422 2753 634 
Q 3047 847 3047 1241 
Q 3047 1584 2836 1778 
Q 2625 1972 2144 2069 
L 1759 2144 
Q 1053 2284 737 2584 
Q 422 2884 422 3419 
Q 422 4038 858 4394 
Q 1294 4750 2059 4750 
Q 2388 4750 2728 4690 
Q 3069 4631 3425 4513 
z
" transform="scale(0.015625)"/>
       </defs>
       <use xlink:href="#DejaVuSans-32"/>
       <use xlink:href="#DejaVuSans-30" x="63.623047"/>
       <use xlink:href="#DejaVuSans-32" x="127.246094"/>
       <use xlink:href="#DejaVuSans-31" x="190.869141"/>
       <use xlink:href="#DejaVuSans-2d" x="254.492188"/>
       <use xlink:href="#DejaVuSans-53" x="290.576172"/>
       <use xlink:href="#DejaVuSans-65" x="354.052734"/>
       <use xlink:href="#DejaVuSans-70" x="415.576172"/>
       <use xlink:href="#DejaVuSans-2d" x="479.052734"/>
       <use xlink:href="#DejaVuSans-30" x="515.136719"/>
       <use xlink:href="#DejaVuSans-31" x="578.759766"/>
      </g>
     </g>
    </g>
    <g id="xtick_12">
     <g id="line2d_12">
      <g>
       <use xlink:href="#mfb25688d71" x="404.785095" y="178.56" style="stroke: #000000; stroke-width: 0.8"/>
      </g>
     </g>
     <g id="text_12">
      <!-- 2021-Oct-01 -->
      <g transform="translate(349.22354 223.618565)rotate(-30)scale(0.1 -0.1)">
       <defs>
        <path id="DejaVuSans-4f" d="M 2522 4238 
Q 1834 4238 1429 3725 
Q 1025 3213 1025 2328 
Q 1025 1447 1429 934 
Q 1834 422 2522 422 
Q 3209 422 3611 934 
Q 4013 1447 4013 2328 
Q 4013 3213 3611 3725 
Q 3209 4238 2522 4238 
z
M 2522 4750 
Q 3503 4750 4090 4092 
Q 4678 3434 4678 2328 
Q 4678 1225 4090 567 
Q 3503 -91 2522 -91 
Q 1538 -91 948 565 
Q 359 1222 359 2328 
Q 359 3434 948 4092 
Q 1538 4750 2522 4750 
z
" transform="scale(0.015625)"/>
        <path id="DejaVuSans-74" d="M 1172 4494 
L 1172 3500 
L 2356 3500 
L 2356 3053 
L 1172 3053 
L 1172 1153 
Q 1172 725 1289 603 
Q 1406 481 1766 481 
L 2356 481 
L 2356 0 
L 1766 0 
Q 1100 0 847 248 
Q 594 497 594 1153 
L 594 3053 
L 172 3053 
L 172 3500 
L 594 3500 
L 594 4494 
L 1172 4494 
z
" transform="scale(0.015625)"/>
       </defs>
       <use xlink:href="#DejaVuSans-32"/>
       <use xlink:href="#DejaVuSans-30" x="63.623047"/>
       <use xlink:href="#DejaVuSans-32" x="127.246094"/>
       <use xlink:href="#DejaVuSans-31" x="190.869141"/>
       <use xlink:href="#DejaVuSans-2d" x="254.492188"/>
       <use xlink:href="#DejaVuSans-4f" x="293.326172"/>
       <use xlink:href="#DejaVuSans-63" x="372.037109"/>
       <use xlink:href="#DejaVuSans-74" x="427.017578"/>
       <use xlink:href="#DejaVuSans-2d" x="466.226562"/>
       <use xlink:href="#DejaVuSans-30" x="502.310547"/>
       <use xlink:href="#DejaVuSans-31" x="565.933594"/>
      </g>
     </g>
    </g>
    <g id="xtick_13">
     <g id="line2d_13">
      <g>
       <use xlink:href="#mfb25688d71" x="434.881659" y="178.56" style="stroke: #000000; stroke-width: 0.8"/>
      </g>
     </g>
     <g id="text_13">
      <!-- 2021-Nov-01 -->
      <g transform="translate(377.855979 224.463877)rotate(-30)scale(0.1 -0.1)">
       <use xlink:href="#DejaVuSans-32"/>
       <use xlink:href="#DejaVuSans-30" x="63.623047"/>
       <use xlink:href="#DejaVuSans-32" x="127.246094"/>
       <use xlink:href="#DejaVuSans-31" x="190.869141"/>
       <use xlink:href="#DejaVuSans-2d" x="254.492188"/>
       <use xlink:href="#DejaVuSans-4e" x="290.576172"/>
       <use xlink:href="#DejaVuSans-6f" x="365.380859"/>
       <use xlink:href="#DejaVuSans-76" x="426.5625"/>
       <use xlink:href="#DejaVuSans-2d" x="483.117188"/>
       <use xlink:href="#DejaVuSans-30" x="519.201172"/>
       <use xlink:href="#DejaVuSans-31" x="582.824219"/>
      </g>
     </g>
    </g>
    <g id="xtick_14">
     <g id="line2d_14">
      <g>
       <use xlink:href="#mfb25688d71" x="464.007366" y="178.56" style="stroke: #000000; stroke-width: 0.8"/>
      </g>
     </g>
     <g id="text_14">
      <!-- 2021-Dec-01 -->
      <g transform="translate(406.899143 224.511534)rotate(-30)scale(0.1 -0.1)">
       <use xlink:href="#DejaVuSans-32"/>
       <use xlink:href="#DejaVuSans-30" x="63.623047"/>
       <use xlink:href="#DejaVuSans-32" x="127.246094"/>
       <use xlink:href="#DejaVuSans-31" x="190.869141"/>
       <use xlink:href="#DejaVuSans-2d" x="254.492188"/>
       <use xlink:href="#DejaVuSans-44" x="290.576172"/>
       <use xlink:href="#DejaVuSans-65" x="367.578125"/>
       <use xlink:href="#DejaVuSans-63" x="429.101562"/>
       <use xlink:href="#DejaVuSans-2d" x="484.082031"/>
       <use xlink:href="#DejaVuSans-30" x="520.166016"/>
       <use xlink:href="#DejaVuSans-31" x="583.789062"/>
      </g>
     </g>
    </g>
    <g id="xtick_15">
     <g id="line2d_15">
      <g>
       <use xlink:href="#mfb25688d71" x="494.10393" y="178.56" style="stroke: #000000; stroke-width: 0.8"/>
      </g>
     </g>
     <g id="text_15">
      <!-- 2022-Jan-01 -->
      <g transform="translate(439.917189 222.824815)rotate(-30)scale(0.1 -0.1)">
       <use xlink:href="#DejaVuSans-32"/>
       <use xlink:href="#DejaVuSans-30" x="63.623047"/>
       <use xlink:href="#DejaVuSans-32" x="127.246094"/>
       <use xlink:href="#DejaVuSans-32" x="190.869141"/>
       <use xlink:href="#DejaVuSans-2d" x="254.492188"/>
       <use xlink:href="#DejaVuSans-4a" x="296.201172"/>
       <use xlink:href="#DejaVuSans-61" x="325.693359"/>
       <use xlink:href="#DejaVuSans-6e" x="386.972656"/>
       <use xlink:href="#DejaVuSans-2d" x="450.351562"/>
       <use xlink:href="#DejaVuSans-30" x="486.435547"/>
       <use xlink:href="#DejaVuSans-31" x="550.058594"/>
      </g>
     </g>
    </g>
   </g>
   <g id="matplotlib.axis_2">
    <g id="ytick_1">
     <g id="line2d_16">
      <path d="M 66.053125 172.803893 
L 512.453125 172.803893 
" clip-path="url(#p808689f46b)" style="fill: none; stroke: #b0b0b0; stroke-width: 0.8; stroke-linecap: square"/>
     </g>
     <g id="line2d_17">
      <defs>
       <path id="mb35c9fd6a8" d="M 0 0 
L -3.5 0 
" style="stroke: #000000; stroke-width: 0.8"/>
      </defs>
      <g>
       <use xlink:href="#mb35c9fd6a8" x="66.053125" y="172.803893" style="stroke: #000000; stroke-width: 0.8"/>
      </g>
     </g>
     <g id="text_16">
      <!-- 0 -->
      <g transform="translate(52.690625 176.603112)scale(0.1 -0.1)">
       <use xlink:href="#DejaVuSans-30"/>
      </g>
     </g>
    </g>
    <g id="ytick_2">
     <g id="line2d_18">
      <path d="M 66.053125 134.212705 
L 512.453125 134.212705 
" clip-path="url(#p808689f46b)" style="fill: none; stroke: #b0b0b0; stroke-width: 0.8; stroke-linecap: square"/>
     </g>
     <g id="line2d_19">
      <g>
       <use xlink:href="#mb35c9fd6a8" x="66.053125" y="134.212705" style="stroke: #000000; stroke-width: 0.8"/>
      </g>
     </g>
     <g id="text_17">
      <!-- 50000 -->
      <g transform="translate(27.240625 138.011924)scale(0.1 -0.1)">
       <defs>
        <path id="DejaVuSans-35" d="M 691 4666 
L 3169 4666 
L 3169 4134 
L 1269 4134 
L 1269 2991 
Q 1406 3038 1543 3061 
Q 1681 3084 1819 3084 
Q 2600 3084 3056 2656 
Q 3513 2228 3513 1497 
Q 3513 744 3044 326 
Q 2575 -91 1722 -91 
Q 1428 -91 1123 -41 
Q 819 9 494 109 
L 494 744 
Q 775 591 1075 516 
Q 1375 441 1709 441 
Q 2250 441 2565 725 
Q 2881 1009 2881 1497 
Q 2881 1984 2565 2268 
Q 2250 2553 1709 2553 
Q 1456 2553 1204 2497 
Q 953 2441 691 2322 
L 691 4666 
z
" transform="scale(0.015625)"/>
       </defs>
       <use xlink:href="#DejaVuSans-35"/>
       <use xlink:href="#DejaVuSans-30" x="63.623047"/>
       <use xlink:href="#DejaVuSans-30" x="127.246094"/>
       <use xlink:href="#DejaVuSans-30" x="190.869141"/>
       <use xlink:href="#DejaVuSans-30" x="254.492188"/>
      </g>
     </g>
    </g>
    <g id="ytick_3">
     <g id="line2d_20">
      <path d="M 66.053125 95.621518 
L 512.453125 95.621518 
" clip-path="url(#p808689f46b)" style="fill: none; stroke: #b0b0b0; stroke-width: 0.8; stroke-linecap: square"/>
     </g>
     <g id="line2d_21">
      <g>
       <use xlink:href="#mb35c9fd6a8" x="66.053125" y="95.621518" style="stroke: #000000; stroke-width: 0.8"/>
      </g>
     </g>
     <g id="text_18">
      <!-- 100000 -->
      <g transform="translate(20.878125 99.420737)scale(0.1 -0.1)">
       <use xlink:href="#DejaVuSans-31"/>
       <use xlink:href="#DejaVuSans-30" x="63.623047"/>
       <use xlink:href="#DejaVuSans-30" x="127.246094"/>
       <use xlink:href="#DejaVuSans-30" x="190.869141"/>
       <use xlink:href="#DejaVuSans-30" x="254.492188"/>
       <use xlink:href="#DejaVuSans-30" x="318.115234"/>
      </g>
     </g>
    </g>
    <g id="ytick_4">
     <g id="line2d_22">
      <path d="M 66.053125 57.030331 
L 512.453125 57.030331 
" clip-path="url(#p808689f46b)" style="fill: none; stroke: #b0b0b0; stroke-width: 0.8; stroke-linecap: square"/>
     </g>
     <g id="line2d_23">
      <g>
       <use xlink:href="#mb35c9fd6a8" x="66.053125" y="57.030331" style="stroke: #000000; stroke-width: 0.8"/>
      </g>
     </g>
     <g id="text_19">
      <!-- 150000 -->
      <g transform="translate(20.878125 60.829549)scale(0.1 -0.1)">
       <use xlink:href="#DejaVuSans-31"/>
       <use xlink:href="#DejaVuSans-35" x="63.623047"/>
       <use xlink:href="#DejaVuSans-30" x="127.246094"/>
       <use xlink:href="#DejaVuSans-30" x="190.869141"/>
       <use xlink:href="#DejaVuSans-30" x="254.492188"/>
       <use xlink:href="#DejaVuSans-30" x="318.115234"/>
      </g>
     </g>
    </g>
    <g id="ytick_5">
     <g id="line2d_24">
      <path d="M 66.053125 18.439143 
L 512.453125 18.439143 
" clip-path="url(#p808689f46b)" style="fill: none; stroke: #b0b0b0; stroke-width: 0.8; stroke-linecap: square"/>
     </g>
     <g id="line2d_25">
      <g>
       <use xlink:href="#mb35c9fd6a8" x="66.053125" y="18.439143" style="stroke: #000000; stroke-width: 0.8"/>
      </g>
     </g>
     <g id="text_20">
      <!-- 200000 -->
      <g transform="translate(20.878125 22.238362)scale(0.1 -0.1)">
       <use xlink:href="#DejaVuSans-32"/>
       <use xlink:href="#DejaVuSans-30" x="63.623047"/>
       <use xlink:href="#DejaVuSans-30" x="127.246094"/>
       <use xlink:href="#DejaVuSans-30" x="190.869141"/>
       <use xlink:href="#DejaVuSans-30" x="254.492188"/>
       <use xlink:href="#DejaVuSans-30" x="318.115234"/>
      </g>
     </g>
    </g>
    <g id="text_21">
     <!-- Number of Domains -->
     <g transform="translate(14.798438 142.969844)rotate(-90)scale(0.1 -0.1)">
      <defs>
       <path id="DejaVuSans-6d" d="M 3328 2828 
Q 3544 3216 3844 3400 
Q 4144 3584 4550 3584 
Q 5097 3584 5394 3201 
Q 5691 2819 5691 2113 
L 5691 0 
L 5113 0 
L 5113 2094 
Q 5113 2597 4934 2840 
Q 4756 3084 4391 3084 
Q 3944 3084 3684 2787 
Q 3425 2491 3425 1978 
L 3425 0 
L 2847 0 
L 2847 2094 
Q 2847 2600 2669 2842 
Q 2491 3084 2119 3084 
Q 1678 3084 1418 2786 
Q 1159 2488 1159 1978 
L 1159 0 
L 581 0 
L 581 3500 
L 1159 3500 
L 1159 2956 
Q 1356 3278 1631 3431 
Q 1906 3584 2284 3584 
Q 2666 3584 2933 3390 
Q 3200 3197 3328 2828 
z
" transform="scale(0.015625)"/>
       <path id="DejaVuSans-20" transform="scale(0.015625)"/>
       <path id="DejaVuSans-66" d="M 2375 4863 
L 2375 4384 
L 1825 4384 
Q 1516 4384 1395 4259 
Q 1275 4134 1275 3809 
L 1275 3500 
L 2222 3500 
L 2222 3053 
L 1275 3053 
L 1275 0 
L 697 0 
L 697 3053 
L 147 3053 
L 147 3500 
L 697 3500 
L 697 3744 
Q 697 4328 969 4595 
Q 1241 4863 1831 4863 
L 2375 4863 
z
" transform="scale(0.015625)"/>
       <path id="DejaVuSans-69" d="M 603 3500 
L 1178 3500 
L 1178 0 
L 603 0 
L 603 3500 
z
M 603 4863 
L 1178 4863 
L 1178 4134 
L 603 4134 
L 603 4863 
z
" transform="scale(0.015625)"/>
       <path id="DejaVuSans-73" d="M 2834 3397 
L 2834 2853 
Q 2591 2978 2328 3040 
Q 2066 3103 1784 3103 
Q 1356 3103 1142 2972 
Q 928 2841 928 2578 
Q 928 2378 1081 2264 
Q 1234 2150 1697 2047 
L 1894 2003 
Q 2506 1872 2764 1633 
Q 3022 1394 3022 966 
Q 3022 478 2636 193 
Q 2250 -91 1575 -91 
Q 1294 -91 989 -36 
Q 684 19 347 128 
L 347 722 
Q 666 556 975 473 
Q 1284 391 1588 391 
Q 1994 391 2212 530 
Q 2431 669 2431 922 
Q 2431 1156 2273 1281 
Q 2116 1406 1581 1522 
L 1381 1569 
Q 847 1681 609 1914 
Q 372 2147 372 2553 
Q 372 3047 722 3315 
Q 1072 3584 1716 3584 
Q 2034 3584 2315 3537 
Q 2597 3491 2834 3397 
z
" transform="scale(0.015625)"/>
      </defs>
      <use xlink:href="#DejaVuSans-4e"/>
      <use xlink:href="#DejaVuSans-75" x="74.804688"/>
      <use xlink:href="#DejaVuSans-6d" x="138.183594"/>
      <use xlink:href="#DejaVuSans-62" x="235.595703"/>
      <use xlink:href="#DejaVuSans-65" x="299.072266"/>
      <use xlink:href="#DejaVuSans-72" x="360.595703"/>
      <use xlink:href="#DejaVuSans-20" x="401.708984"/>
      <use xlink:href="#DejaVuSans-6f" x="433.496094"/>
      <use xlink:href="#DejaVuSans-66" x="494.677734"/>
      <use xlink:href="#DejaVuSans-20" x="529.882812"/>
      <use xlink:href="#DejaVuSans-44" x="561.669922"/>
      <use xlink:href="#DejaVuSans-6f" x="638.671875"/>
      <use xlink:href="#DejaVuSans-6d" x="699.853516"/>
      <use xlink:href="#DejaVuSans-61" x="797.265625"/>
      <use xlink:href="#DejaVuSans-69" x="858.544922"/>
      <use xlink:href="#DejaVuSans-6e" x="886.328125"/>
      <use xlink:href="#DejaVuSans-73" x="949.707031"/>
     </g>
    </g>
   </g>
   <g id="line2d_26">
    <path d="M 86.344034 40.468537 
L 89.256605 40.754111 
L 90.227462 40.368971 
L 91.198319 39.466709 
L 92.169175 39.005159 
L 93.140032 38.931835 
L 95.081746 39.023682 
L 96.052603 39.332412 
L 98.965174 38.371491 
L 99.936031 38.312833 
L 100.906888 38.613072 
L 104.790315 37.738596 
L 105.761172 37.896048 
L 106.732029 37.844336 
L 107.702886 38.067393 
L 109.6446 38.311289 
L 110.615456 38.187797 
L 111.586313 37.706951 
L 112.55717 37.492384 
L 114.498884 37.451477 
L 116.440598 37.6344 
L 118.382312 37.093351 
L 119.353168 36.84328 
L 120.324025 36.917375 
L 121.294882 37.693058 
L 122.265739 37.727019 
L 123.236596 37.880611 
L 124.207453 37.497015 
L 125.17831 36.833247 
L 126.149167 36.726735 
L 130.032594 37.050129 
L 131.003451 36.850999 
L 131.974308 36.512168 
L 132.945165 36.598612 
L 135.857736 37.415202 
L 136.828593 37.434497 
L 137.799449 37.247716 
L 139.741163 37.086405 
L 142.653734 38.083601 
L 143.624591 38.132226 
L 144.595448 37.75712 
L 145.566305 37.094895 
L 147.508018 36.738312 
L 148.478875 37.01231 
L 149.449732 36.599384 
L 150.420589 36.631029 
L 153.33316 36.000449 
L 156.24573 33.659507 
L 157.216587 32.730232 
L 158.187444 36.09847 
L 160.129158 35.397654 
L 161.100015 35.223994 
L 169.837727 32.64919 
L 170.808584 33.502827 
L 172.750298 31.431252 
L 173.721155 29.403671 
L 174.692011 29.838208 
L 175.662868 23.337137 
L 176.633725 28.237446 
L 177.604582 20.540047 
L 178.575439 21.405262 
L 179.546296 22.951997 
L 180.517153 23.834191 
L 181.48801 31.172691 
L 182.458867 22.955856 
L 183.429724 23.428984 
L 184.40058 22.199468 
L 185.371437 22.201784 
L 186.342294 24.017113 
L 187.313151 31.826426 
L 189.254865 31.727633 
L 190.225722 32.148276 
L 191.196579 27.691766 
L 192.167436 21.930874 
L 193.138292 24.399166 
L 194.109149 24.79434 
L 196.050863 27.014877 
L 197.02172 27.62153 
L 197.992577 29.871396 
L 198.963434 29.317999 
L 199.934291 29.487028 
L 200.905148 30.027305 
L 201.876005 29.527935 
L 202.846861 29.594312 
L 203.817718 30.241872 
L 204.788575 30.127642 
L 206.730289 28.915107 
L 207.701146 27.61304 
L 208.672003 28.431173 
L 209.64286 30.587649 
L 210.613717 30.767484 
L 223.234856 28.222009 
L 225.17657 28.362481 
L 226.147427 28.087712 
L 227.118284 27.33364 
L 228.089141 27.174644 
L 229.059998 27.329009 
L 231.001711 27.388439 
L 231.972568 28.168753 
L 234.885139 27.216323 
L 235.855996 27.269579 
L 238.768566 27.068133 
L 239.739423 27.218638 
L 240.71028 26.801853 
L 243.622851 26.829639 
L 245.564565 27.540489 
L 246.535422 27.241021 
L 249.447992 26.691483 
L 250.418849 26.96548 
L 251.389706 26.446814 
L 252.360563 27.061958 
L 254.302277 26.342618 
L 258.185704 26.189025 
L 259.156561 26.340303 
L 262.069132 25.508277 
L 263.039989 25.472001 
L 266.923416 25.878752 
L 268.86513 25.393275 
L 269.835987 25.499787 
L 270.806844 25.316864 
L 271.777701 25.36163 
L 272.748558 25.610929 
L 273.719415 25.201863 
L 274.690272 24.329702 
L 278.573699 24.054161 
L 279.544556 24.236311 
L 280.515413 24.081175 
L 282.457127 23.496132 
L 283.427984 23.306264 
L 284.398841 23.36415 
L 285.369697 23.620396 
L 286.340554 23.645866 
L 287.311411 23.468347 
L 288.282268 23.019917 
L 289.253125 23.049246 
L 290.223982 22.816156 
L 291.194839 22.97901 
L 292.165696 22.952768 
L 293.136553 23.411232 
L 294.107409 22.389337 
L 296.049123 21.80661 
L 297.01998 21.660735 
L 298.961694 21.623688 
L 299.932551 22.093729 
L 300.903408 22.383934 
L 301.874265 22.222623 
L 302.845122 22.718906 
L 304.786835 22.783739 
L 306.728549 23.024548 
L 308.670263 22.363095 
L 311.582834 22.079836 
L 313.524547 22.224167 
L 318.378832 21.626775 
L 345.562825 22.549105 
L 346.533682 22.741289 
L 347.504539 22.790685 
L 349.446252 21.86141 
L 350.417109 21.833624 
L 354.300537 22.278966 
L 355.271394 22.237288 
L 356.242251 21.920068 
L 357.213108 21.751039 
L 358.183964 21.450799 
L 361.096535 21.735602 
L 362.067392 21.633722 
L 363.038249 21.355865 
L 380.513673 20.76542 
L 381.48453 20.856495 
L 383.426244 20.51149 
L 386.338814 20.413468 
L 387.309671 20.67666 
L 388.280528 20.655049 
L 389.251385 20.375649 
L 390.222242 20.348635 
L 391.193099 20.465952 
L 392.163956 20.335514 
L 393.134813 20.410381 
L 394.10567 20.272996 
L 395.076526 20.601793 
L 396.047383 20.247526 
L 397.01824 19.739666 
L 397.989097 19.704162 
L 400.901668 20.017523 
L 401.872525 19.924132 
L 403.814239 19.91487 
L 404.785095 19.576811 
L 406.726809 19.425534 
L 408.668523 19.717283 
L 409.63938 19.287377 
L 410.610237 19.721914 
L 411.581094 18.980192 
L 412.551951 18.762537 
L 413.522807 18.70851 
L 414.493664 19.020326 
L 416.435378 19.152308 
L 417.406235 18.988682 
L 418.377092 18.591192 
L 419.347949 18.688442 
L 423.231376 18.426794 
L 425.17309 18.164374 
L 426.143947 19.35607 
L 429.056518 19.566006 
L 430.027375 19.039622 
L 430.998232 18.123467 
L 432.939945 17.679668 
L 435.852516 17.508324 
L 436.823373 17.57856 
L 437.79423 17.099257 
L 438.765087 16.940261 
L 439.735944 16.926369 
L 442.648514 17.42651 
L 443.619371 17.376342 
L 446.531942 16.944892 
L 448.473656 17.162547 
L 449.444513 17.245132 
L 450.415369 16.93563 
L 451.386226 16.379145 
L 453.32794 16.44012 
L 454.298797 16.612236 
L 455.269654 16.602203 
L 456.240511 16.944892 
L 458.182225 16.115954 
L 459.153082 15.476112 
L 461.094795 15.596516 
L 462.065652 15.848903 
L 463.036509 15.948468 
L 464.007366 15.653631 
L 467.890794 15.455272 
L 469.832507 15.736216 
L 473.715935 15.042347 
L 474.686792 15.059327 
L 475.657649 15.473796 
L 476.628506 15.645141 
L 477.599362 15.243021 
L 478.570219 15.005299 
L 479.541076 14.989091 
L 482.453647 15.62353 
L 483.424504 15.516247 
L 484.395361 15.262317 
L 485.366218 15.142684 
L 486.337075 15.157348 
L 487.307931 15.44138 
L 488.278788 15.566415 
L 489.249645 16.166122 
L 490.220502 16.468677 
L 492.162216 16.193136 
L 492.162216 16.193136 
" clip-path="url(#p808689f46b)" style="fill: none; stroke: #1f77b4; stroke-width: 1.5; stroke-linecap: square"/>
   </g>
   <g id="line2d_27">
    <path d="M 86.344034 170.730002 
L 100.906888 170.733862 
L 123.236596 170.696814 
L 161.100015 170.690639 
L 187.313151 170.683693 
L 192.167436 170.706848 
L 195.080006 170.718425 
L 202.846861 170.704532 
L 204.788575 170.6698 
L 210.613717 170.625806 
L 294.107409 170.536275 
L 298.961694 170.527785 
L 308.670263 170.529328 
L 318.378832 170.5301 
L 492.162216 170.401977 
L 492.162216 170.401977 
" clip-path="url(#p808689f46b)" style="fill: none; stroke: #ff7f0e; stroke-width: 1.5; stroke-linecap: square"/>
   </g>
   <g id="line2d_28">
    <path d="M 86.344034 154.255425 
L 90.227462 154.149685 
L 92.169175 153.776894 
L 94.110889 153.796961 
L 96.052603 153.881862 
L 99.936031 153.631791 
L 103.819458 153.561555 
L 105.761172 153.468164 
L 107.702886 153.539944 
L 110.615456 153.463533 
L 111.586313 153.319974 
L 114.498884 153.332323 
L 115.469741 153.47048 
L 117.411455 153.384035 
L 119.353168 153.236617 
L 120.324025 153.27598 
L 121.294882 153.500581 
L 123.236596 153.606321 
L 125.17831 153.289873 
L 128.090881 153.315343 
L 130.032594 153.482829 
L 132.945165 153.380176 
L 136.828593 153.850989 
L 139.741163 153.825519 
L 143.624591 154.179014 
L 144.595448 154.096429 
L 145.566305 153.84713 
L 148.478875 153.939749 
L 150.420589 153.841727 
L 153.33316 153.738303 
L 158.187444 153.776122 
L 160.129158 153.625616 
L 161.100015 153.563099 
L 170.808584 153.340042 
L 173.721155 153.06836 
L 175.662868 153.236617 
L 179.546296 153.329236 
L 180.517153 153.125475 
L 181.48801 153.336182 
L 185.371437 153.412593 
L 187.313151 153.316887 
L 189.254865 153.324605 
L 191.196579 153.523736 
L 194.109149 153.30145 
L 196.050863 153.258228 
L 197.992577 153.376317 
L 201.876005 152.973425 
L 204.788575 153.086883 
L 207.701146 152.819832 
L 210.613717 152.947955 
L 223.234856 152.450129 
L 225.17657 152.625333 
L 227.118284 152.452444 
L 229.059998 152.492579 
L 232.943425 152.599863 
L 234.885139 152.447041 
L 240.71028 152.395329 
L 243.622851 152.369859 
L 245.564565 152.531942 
L 249.447992 152.303482 
L 251.389706 152.546607 
L 252.360563 152.608353 
L 254.302277 152.398417 
L 266.923416 152.414625 
L 268.86513 152.359825 
L 270.806844 152.35751 
L 273.719415 152.485633 
L 275.661128 152.303482 
L 278.573699 152.322006 
L 280.515413 152.364456 
L 281.48627 152.231703 
L 285.369697 152.233246 
L 286.340554 152.303482 
L 291.194839 151.931463 
L 293.136553 152.088143 
L 295.078266 151.816461 
L 298.961694 151.826495 
L 299.932551 151.95539 
L 303.815978 151.661325 
L 305.757692 151.772468 
L 306.728549 151.86663 
L 308.670263 151.559444 
L 311.582834 151.529343 
L 313.524547 151.669043 
L 318.378832 151.424375 
L 348.475396 151.577968 
L 350.417109 151.365716 
L 353.32968 151.440583 
L 354.300537 151.505416 
L 357.213108 151.165042 
L 359.154821 151.161955 
L 361.096535 151.263064 
L 363.038249 150.989838 
L 387.309671 151.087088 
L 388.280528 151.144975 
L 392.163956 150.856313 
L 394.10567 150.961281 
L 395.076526 151.11333 
L 397.989097 150.807688 
L 402.843382 150.84242 
L 404.785095 150.669531 
L 406.726809 150.664129 
L 408.668523 150.772184 
L 412.551951 150.441072 
L 416.435378 150.532147 
L 418.377092 150.275129 
L 421.289663 150.387044 
L 422.26052 150.495099 
L 425.17309 150.296741 
L 428.085661 150.467314 
L 429.056518 150.532919 
L 431.969088 150.238082 
L 433.910802 150.285935 
L 435.852516 150.407883 
L 439.735944 150.094523 
L 441.677657 150.234223 
L 443.619371 150.242713 
L 446.531942 150.00036 
L 449.444513 150.187142 
L 453.32794 149.920862 
L 454.298797 149.931668 
L 456.240511 150.137745 
L 458.182225 149.940158 
L 461.094795 150.089892 
L 463.036509 150.222645 
L 464.978223 149.994186 
L 467.890794 149.998817 
L 470.803364 150.143919 
L 472.745078 149.956366 
L 474.686792 150.021199 
L 476.628506 150.247344 
L 478.570219 149.974118 
L 479.541076 149.994957 
L 483.424504 150.223417 
L 486.337075 150.091435 
L 491.191359 150.48275 
L 492.162216 150.417917 
L 492.162216 150.417917 
" clip-path="url(#p808689f46b)" style="fill: none; stroke: #2ca02c; stroke-width: 1.5; stroke-linecap: square"/>
   </g>
   <g id="line2d_29">
    <path d="M 86.344034 61.090895 
L 88.285748 61.306234 
L 89.256605 61.327073 
L 90.227462 61.056163 
L 91.198319 60.373099 
L 92.169175 60.116854 
L 95.081746 60.063598 
L 96.052603 60.328333 
L 98.965174 59.599732 
L 99.936031 59.562684 
L 100.906888 59.865239 
L 104.790315 59.181403 
L 105.761172 59.332681 
L 106.732029 59.210733 
L 107.702886 59.432246 
L 110.615456 59.600504 
L 111.586313 59.268619 
L 112.55717 59.060227 
L 115.469741 59.009287 
L 116.440598 59.072576 
L 118.382312 58.69747 
L 119.353168 58.502198 
L 120.324025 58.558542 
L 121.294882 59.092644 
L 123.236596 59.185262 
L 124.207453 58.963749 
L 125.17831 58.445083 
L 126.149167 58.382566 
L 130.032594 58.465151 
L 132.945165 58.10934 
L 135.857736 58.577837 
L 136.828593 58.500655 
L 137.799449 58.305383 
L 139.741163 58.167999 
L 142.653734 58.793176 
L 143.624591 58.834854 
L 144.595448 58.534615 
L 145.566305 58.114743 
L 147.508018 57.752758 
L 148.478875 57.956519 
L 149.449732 57.644702 
L 150.420589 57.687924 
L 153.33316 57.179292 
L 156.24573 54.795129 
L 157.216587 53.754711 
L 158.187444 57.239495 
L 169.837727 54.259483 
L 170.808584 55.085335 
L 172.750298 53.287757 
L 173.721155 51.271754 
L 174.692011 51.553469 
L 175.662868 45.021525 
L 176.633725 49.873209 
L 177.604582 42.131817 
L 178.575439 42.921392 
L 179.546296 44.536819 
L 180.517153 45.617373 
L 181.48801 52.745937 
L 182.458867 44.486651 
L 183.429724 44.898805 
L 184.40058 43.584389 
L 185.371437 43.691672 
L 186.342294 45.608883 
L 187.313151 53.433632 
L 189.254865 53.30165 
L 190.225722 53.598802 
L 191.196579 49.074371 
L 192.167436 43.408413 
L 193.138292 45.947713 
L 194.109149 46.419298 
L 196.050863 48.635975 
L 197.02172 49.214843 
L 197.992577 51.390614 
L 198.963434 50.9445 
L 199.934291 51.25323 
L 200.905148 51.852937 
L 201.876005 51.455448 
L 202.846861 51.518737 
L 203.817718 52.167841 
L 204.788575 51.978744 
L 206.730289 50.976917 
L 207.701146 49.761294 
L 208.672003 50.564763 
L 209.64286 52.683419 
L 210.613717 52.801508 
L 223.234856 50.750772 
L 225.17657 50.729161 
L 226.147427 50.557045 
L 227.118284 49.877068 
L 228.089141 49.732737 
L 229.059998 49.827671 
L 231.001711 49.801429 
L 231.972568 50.444358 
L 234.885139 49.723475 
L 235.855996 49.770556 
L 238.768566 49.595352 
L 239.739423 49.718072 
L 240.71028 49.363033 
L 243.622851 49.430954 
L 245.564565 49.977405 
L 246.535422 49.741227 
L 249.447992 49.36998 
L 250.418849 49.468773 
L 251.389706 48.866751 
L 252.360563 49.430182 
L 254.302277 48.922322 
L 258.185704 48.794971 
L 259.156561 48.922322 
L 262.069132 48.25701 
L 263.039989 48.180599 
L 265.95256 48.453053 
L 266.923416 48.450738 
L 268.86513 48.029322 
L 269.835987 48.156673 
L 270.806844 47.945193 
L 272.748558 47.966804 
L 273.719415 47.699753 
L 274.690272 46.977326 
L 278.573699 46.719537 
L 279.544556 46.839942 
L 281.48627 46.503426 
L 283.427984 46.148387 
L 286.340554 46.364498 
L 287.311411 46.273423 
L 288.282268 45.974727 
L 289.253125 46.09436 
L 290.223982 45.928418 
L 291.194839 46.088957 
L 292.165696 45.993251 
L 293.136553 46.36527 
L 294.107409 45.555627 
L 297.01998 44.944342 
L 298.961694 44.877194 
L 300.903408 45.618145 
L 301.874265 45.60348 
L 302.845122 46.15379 
L 304.786835 46.180032 
L 306.728549 46.249496 
L 308.670263 45.882108 
L 311.582834 45.658279 
L 313.524547 45.622776 
L 318.378832 45.280086 
L 347.504539 46.250268 
L 349.446252 45.544049 
L 356.242251 45.856638 
L 357.213108 45.728515 
L 358.183964 45.476901 
L 361.096535 45.610426 
L 362.067392 45.631266 
L 363.038249 45.508546 
L 390.222242 44.639472 
L 391.193099 44.741353 
L 394.10567 44.518296 
L 395.076526 44.702762 
L 396.047383 44.488966 
L 397.01824 44.113088 
L 397.989097 44.131612 
L 400.901668 44.373965 
L 401.872525 44.195673 
L 403.814239 44.434167 
L 404.785095 44.141646 
L 407.697666 44.096108 
L 408.668523 44.191042 
L 409.63938 43.849896 
L 410.610237 44.367018 
L 411.581094 43.716371 
L 413.522807 43.433883 
L 414.493664 43.708653 
L 415.464521 43.697847 
L 417.406235 43.855299 
L 418.377092 43.55506 
L 419.347949 43.620665 
L 425.17309 43.117436 
L 426.143947 44.294467 
L 429.056518 44.318393 
L 430.027375 43.905468 
L 430.998232 43.112033 
L 432.939945 42.767799 
L 435.852516 42.391149 
L 436.823373 42.552461 
L 437.79423 42.252221 
L 438.765087 42.131817 
L 439.735944 42.125642 
L 440.706801 42.279235 
L 441.677657 42.269201 
L 443.619371 42.381888 
L 447.502799 42.138763 
L 449.444513 42.283094 
L 450.415369 42.059265 
L 451.386226 41.612379 
L 453.32794 41.720435 
L 454.298797 41.881746 
L 455.269654 41.729697 
L 456.240511 42.01064 
L 457.211368 41.76906 
L 458.182225 41.398584 
L 459.153082 40.743306 
L 461.094795 40.733272 
L 462.065652 40.919282 
L 463.036509 40.940121 
L 464.007366 40.784212 
L 464.978223 40.798877 
L 466.919937 40.674613 
L 469.832507 40.825119 
L 472.745078 40.371287 
L 474.686792 40.315715 
L 475.657649 40.553437 
L 476.628506 40.637566 
L 478.570219 40.300279 
L 479.541076 40.249339 
L 482.453647 40.648371 
L 485.366218 40.291017 
L 486.337075 40.298735 
L 487.307931 40.500181 
L 488.278788 40.537229 
L 489.249645 41.016531 
L 490.220502 41.185561 
L 492.162216 40.981027 
L 492.162216 40.981027 
" clip-path="url(#p808689f46b)" style="fill: none; stroke: #d62728; stroke-width: 1.5; stroke-linecap: square"/>
   </g>
   <g id="patch_3">
    <path d="M 66.053125 178.56 
L 66.053125 7.2 
" style="fill: none; stroke: #000000; stroke-width: 0.8; stroke-linejoin: miter; stroke-linecap: square"/>
   </g>
   <g id="patch_4">
    <path d="M 512.453125 178.56 
L 512.453125 7.2 
" style="fill: none; stroke: #000000; stroke-width: 0.8; stroke-linejoin: miter; stroke-linecap: square"/>
   </g>
   <g id="patch_5">
    <path d="M 66.053125 178.56 
L 512.453125 178.56 
" style="fill: none; stroke: #000000; stroke-width: 0.8; stroke-linejoin: miter; stroke-linecap: square"/>
   </g>
   <g id="patch_6">
    <path d="M 66.053125 7.2 
L 512.453125 7.2 
" style="fill: none; stroke: #000000; stroke-width: 0.8; stroke-linejoin: miter; stroke-linecap: square"/>
   </g>
   <g id="legend_1">
    <g id="patch_7">
     <path d="M 414.570312 123.73625 
L 505.453125 123.73625 
Q 507.453125 123.73625 507.453125 121.73625 
L 507.453125 64.02375 
Q 507.453125 62.02375 505.453125 62.02375 
L 414.570312 62.02375 
Q 412.570312 62.02375 412.570312 64.02375 
L 412.570312 121.73625 
Q 412.570312 123.73625 414.570312 123.73625 
z
" style="fill: #ffffff; opacity: 0.8; stroke: #cccccc; stroke-linejoin: miter"/>
    </g>
    <g id="line2d_30">
     <path d="M 416.570312 70.122187 
L 426.570312 70.122187 
L 436.570312 70.122187 
" style="fill: none; stroke: #1f77b4; stroke-width: 1.5; stroke-linecap: square"/>
    </g>
    <g id="text_22">
     <!-- XFO header -->
     <g transform="translate(444.570312 73.622187)scale(0.1 -0.1)">
      <defs>
       <path id="DejaVuSans-58" d="M 403 4666 
L 1081 4666 
L 2241 2931 
L 3406 4666 
L 4084 4666 
L 2584 2425 
L 4184 0 
L 3506 0 
L 2194 1984 
L 872 0 
L 191 0 
L 1856 2491 
L 403 4666 
z
" transform="scale(0.015625)"/>
       <path id="DejaVuSans-68" d="M 3513 2113 
L 3513 0 
L 2938 0 
L 2938 2094 
Q 2938 2591 2744 2837 
Q 2550 3084 2163 3084 
Q 1697 3084 1428 2787 
Q 1159 2491 1159 1978 
L 1159 0 
L 581 0 
L 581 4863 
L 1159 4863 
L 1159 2956 
Q 1366 3272 1645 3428 
Q 1925 3584 2291 3584 
Q 2894 3584 3203 3211 
Q 3513 2838 3513 2113 
z
" transform="scale(0.015625)"/>
       <path id="DejaVuSans-64" d="M 2906 2969 
L 2906 4863 
L 3481 4863 
L 3481 0 
L 2906 0 
L 2906 525 
Q 2725 213 2448 61 
Q 2172 -91 1784 -91 
Q 1150 -91 751 415 
Q 353 922 353 1747 
Q 353 2572 751 3078 
Q 1150 3584 1784 3584 
Q 2172 3584 2448 3432 
Q 2725 3281 2906 2969 
z
M 947 1747 
Q 947 1113 1208 752 
Q 1469 391 1925 391 
Q 2381 391 2643 752 
Q 2906 1113 2906 1747 
Q 2906 2381 2643 2742 
Q 2381 3103 1925 3103 
Q 1469 3103 1208 2742 
Q 947 2381 947 1747 
z
" transform="scale(0.015625)"/>
      </defs>
      <use xlink:href="#DejaVuSans-58"/>
      <use xlink:href="#DejaVuSans-46" x="68.505859"/>
      <use xlink:href="#DejaVuSans-4f" x="126.025391"/>
      <use xlink:href="#DejaVuSans-20" x="204.736328"/>
      <use xlink:href="#DejaVuSans-68" x="236.523438"/>
      <use xlink:href="#DejaVuSans-65" x="299.902344"/>
      <use xlink:href="#DejaVuSans-61" x="361.425781"/>
      <use xlink:href="#DejaVuSans-64" x="422.705078"/>
      <use xlink:href="#DejaVuSans-65" x="486.181641"/>
      <use xlink:href="#DejaVuSans-72" x="547.705078"/>
     </g>
    </g>
    <g id="line2d_31">
     <path d="M 416.570312 84.800312 
L 426.570312 84.800312 
L 436.570312 84.800312 
" style="fill: none; stroke: #ff7f0e; stroke-width: 1.5; stroke-linecap: square"/>
    </g>
    <g id="text_23">
     <!-- allow-from -->
     <g transform="translate(444.570312 88.300312)scale(0.1 -0.1)">
      <defs>
       <path id="DejaVuSans-77" d="M 269 3500 
L 844 3500 
L 1563 769 
L 2278 3500 
L 2956 3500 
L 3675 769 
L 4391 3500 
L 4966 3500 
L 4050 0 
L 3372 0 
L 2619 2869 
L 1863 0 
L 1184 0 
L 269 3500 
z
" transform="scale(0.015625)"/>
      </defs>
      <use xlink:href="#DejaVuSans-61"/>
      <use xlink:href="#DejaVuSans-6c" x="61.279297"/>
      <use xlink:href="#DejaVuSans-6c" x="89.0625"/>
      <use xlink:href="#DejaVuSans-6f" x="116.845703"/>
      <use xlink:href="#DejaVuSans-77" x="178.027344"/>
      <use xlink:href="#DejaVuSans-2d" x="259.814453"/>
      <use xlink:href="#DejaVuSans-66" x="295.898438"/>
      <use xlink:href="#DejaVuSans-72" x="331.103516"/>
      <use xlink:href="#DejaVuSans-6f" x="369.966797"/>
      <use xlink:href="#DejaVuSans-6d" x="431.148438"/>
     </g>
    </g>
    <g id="line2d_32">
     <path d="M 416.570312 99.478438 
L 426.570312 99.478438 
L 436.570312 99.478438 
" style="fill: none; stroke: #2ca02c; stroke-width: 1.5; stroke-linecap: square"/>
    </g>
    <g id="text_24">
     <!-- deny -->
     <g transform="translate(444.570312 102.978438)scale(0.1 -0.1)">
      <use xlink:href="#DejaVuSans-64"/>
      <use xlink:href="#DejaVuSans-65" x="63.476562"/>
      <use xlink:href="#DejaVuSans-6e" x="125"/>
      <use xlink:href="#DejaVuSans-79" x="188.378906"/>
     </g>
    </g>
    <g id="line2d_33">
     <path d="M 416.570312 114.156563 
L 426.570312 114.156563 
L 436.570312 114.156563 
" style="fill: none; stroke: #d62728; stroke-width: 1.5; stroke-linecap: square"/>
    </g>
    <g id="text_25">
     <!-- sameorigin -->
     <g transform="translate(444.570312 117.656563)scale(0.1 -0.1)">
      <use xlink:href="#DejaVuSans-73"/>
      <use xlink:href="#DejaVuSans-61" x="52.099609"/>
      <use xlink:href="#DejaVuSans-6d" x="113.378906"/>
      <use xlink:href="#DejaVuSans-65" x="210.791016"/>
      <use xlink:href="#DejaVuSans-6f" x="272.314453"/>
      <use xlink:href="#DejaVuSans-72" x="333.496094"/>
      <use xlink:href="#DejaVuSans-69" x="374.609375"/>
      <use xlink:href="#DejaVuSans-67" x="402.392578"/>
      <use xlink:href="#DejaVuSans-69" x="465.869141"/>
      <use xlink:href="#DejaVuSans-6e" x="493.652344"/>
     </g>
    </g>
   </g>
  </g>
 </g>
 <defs>
  <clipPath id="p808689f46b">
   <rect x="66.053125" y="7.2" width="446.4" height="171.36"/>
  </clipPath>
 </defs>
</svg>
