<?xml version="1.0" encoding="utf-8" standalone="no"?>
<!DOCTYPE svg PUBLIC "-//W3C//DTD SVG 1.1//EN"
  "http://www.w3.org/Graphics/SVG/1.1/DTD/svg11.dtd">
<svg xmlns:xlink="http://www.w3.org/1999/xlink" width="507.159131pt" height="234.086815pt" viewBox="0 0 507.159131 234.086815" xmlns="http://www.w3.org/2000/svg" version="1.1">
 <metadata>
  <rdf:RDF xmlns:dc="http://purl.org/dc/elements/1.1/" xmlns:cc="http://creativecommons.org/ns#" xmlns:rdf="http://www.w3.org/1999/02/22-rdf-syntax-ns#">
   <cc:Work>
    <dc:type rdf:resource="http://purl.org/dc/dcmitype/StillImage"/>
    <dc:date>2022-02-06T21:37:00.661370</dc:date>
    <dc:format>image/svg+xml</dc:format>
    <dc:creator>
     <cc:Agent>
      <dc:title>Matplotlib v3.5.1, https://matplotlib.org/</dc:title>
     </cc:Agent>
    </dc:creator>
   </cc:Work>
  </rdf:RDF>
 </metadata>
 <defs>
  <style type="text/css">*{stroke-linejoin: round; stroke-linecap: butt}</style>
 </defs>
 <g id="figure_1">
  <g id="patch_1">
   <path d="M 0 234.086815 
L 507.159131 234.086815 
L 507.159131 0 
L 0 0 
z
" style="fill: #ffffff"/>
  </g>
  <g id="axes_1">
   <g id="patch_2">
    <path d="M 53.559131 178.56 
L 499.959131 178.56 
L 499.959131 7.2 
L 53.559131 7.2 
z
" style="fill: #ffffff"/>
   </g>
   <g id="matplotlib.axis_1">
    <g id="xtick_1">
     <g id="line2d_1">
      <defs>
       <path id="mdfe07606d9" d="M 0 0 
L 0 3.5 
" style="stroke: #000000; stroke-width: 0.8"/>
      </defs>
      <g>
       <use xlink:href="#mdfe07606d9" x="68.024899" y="178.56" style="stroke: #000000; stroke-width: 0.8"/>
      </g>
     </g>
     <g id="text_1">
      <!-- 2020-Nov-01 -->
      <g transform="translate(10.999219 224.463877)rotate(-30)scale(0.1 -0.1)">
       <defs>
        <path id="DejaVuSans-32" d="M 1228 531 
L 3431 531 
L 3431 0 
L 469 0 
L 469 531 
Q 828 903 1448 1529 
Q 2069 2156 2228 2338 
Q 2531 2678 2651 2914 
Q 2772 3150 2772 3378 
Q 2772 3750 2511 3984 
Q 2250 4219 1831 4219 
Q 1534 4219 1204 4116 
Q 875 4013 500 3803 
L 500 4441 
Q 881 4594 1212 4672 
Q 1544 4750 1819 4750 
Q 2544 4750 2975 4387 
Q 3406 4025 3406 3419 
Q 3406 3131 3298 2873 
Q 3191 2616 2906 2266 
Q 2828 2175 2409 1742 
Q 1991 1309 1228 531 
z
" transform="scale(0.015625)"/>
        <path id="DejaVuSans-30" d="M 2034 4250 
Q 1547 4250 1301 3770 
Q 1056 3291 1056 2328 
Q 1056 1369 1301 889 
Q 1547 409 2034 409 
Q 2525 409 2770 889 
Q 3016 1369 3016 2328 
Q 3016 3291 2770 3770 
Q 2525 4250 2034 4250 
z
M 2034 4750 
Q 2819 4750 3233 4129 
Q 3647 3509 3647 2328 
Q 3647 1150 3233 529 
Q 2819 -91 2034 -91 
Q 1250 -91 836 529 
Q 422 1150 422 2328 
Q 422 3509 836 4129 
Q 1250 4750 2034 4750 
z
" transform="scale(0.015625)"/>
        <path id="DejaVuSans-2d" d="M 313 2009 
L 1997 2009 
L 1997 1497 
L 313 1497 
L 313 2009 
z
" transform="scale(0.015625)"/>
        <path id="DejaVuSans-4e" d="M 628 4666 
L 1478 4666 
L 3547 763 
L 3547 4666 
L 4159 4666 
L 4159 0 
L 3309 0 
L 1241 3903 
L 1241 0 
L 628 0 
L 628 4666 
z
" transform="scale(0.015625)"/>
        <path id="DejaVuSans-6f" d="M 1959 3097 
Q 1497 3097 1228 2736 
Q 959 2375 959 1747 
Q 959 1119 1226 758 
Q 1494 397 1959 397 
Q 2419 397 2687 759 
Q 2956 1122 2956 1747 
Q 2956 2369 2687 2733 
Q 2419 3097 1959 3097 
z
M 1959 3584 
Q 2709 3584 3137 3096 
Q 3566 2609 3566 1747 
Q 3566 888 3137 398 
Q 2709 -91 1959 -91 
Q 1206 -91 779 398 
Q 353 888 353 1747 
Q 353 2609 779 3096 
Q 1206 3584 1959 3584 
z
" transform="scale(0.015625)"/>
        <path id="DejaVuSans-76" d="M 191 3500 
L 800 3500 
L 1894 563 
L 2988 3500 
L 3597 3500 
L 2284 0 
L 1503 0 
L 191 3500 
z
" transform="scale(0.015625)"/>
        <path id="DejaVuSans-31" d="M 794 531 
L 1825 531 
L 1825 4091 
L 703 3866 
L 703 4441 
L 1819 4666 
L 2450 4666 
L 2450 531 
L 3481 531 
L 3481 0 
L 794 0 
L 794 531 
z
" transform="scale(0.015625)"/>
       </defs>
       <use xlink:href="#DejaVuSans-32"/>
       <use xlink:href="#DejaVuSans-30" x="63.623047"/>
       <use xlink:href="#DejaVuSans-32" x="127.246094"/>
       <use xlink:href="#DejaVuSans-30" x="190.869141"/>
       <use xlink:href="#DejaVuSans-2d" x="254.492188"/>
       <use xlink:href="#DejaVuSans-4e" x="290.576172"/>
       <use xlink:href="#DejaVuSans-6f" x="365.380859"/>
       <use xlink:href="#DejaVuSans-76" x="426.5625"/>
       <use xlink:href="#DejaVuSans-2d" x="483.117188"/>
       <use xlink:href="#DejaVuSans-30" x="519.201172"/>
       <use xlink:href="#DejaVuSans-31" x="582.824219"/>
      </g>
     </g>
    </g>
    <g id="xtick_2">
     <g id="line2d_2">
      <g>
       <use xlink:href="#mdfe07606d9" x="97.150605" y="178.56" style="stroke: #000000; stroke-width: 0.8"/>
      </g>
     </g>
     <g id="text_2">
      <!-- 2020-Dec-01 -->
      <g transform="translate(40.042383 224.511534)rotate(-30)scale(0.1 -0.1)">
       <defs>
        <path id="DejaVuSans-44" d="M 1259 4147 
L 1259 519 
L 2022 519 
Q 2988 519 3436 956 
Q 3884 1394 3884 2338 
Q 3884 3275 3436 3711 
Q 2988 4147 2022 4147 
L 1259 4147 
z
M 628 4666 
L 1925 4666 
Q 3281 4666 3915 4102 
Q 4550 3538 4550 2338 
Q 4550 1131 3912 565 
Q 3275 0 1925 0 
L 628 0 
L 628 4666 
z
" transform="scale(0.015625)"/>
        <path id="DejaVuSans-65" d="M 3597 1894 
L 3597 1613 
L 953 1613 
Q 991 1019 1311 708 
Q 1631 397 2203 397 
Q 2534 397 2845 478 
Q 3156 559 3463 722 
L 3463 178 
Q 3153 47 2828 -22 
Q 2503 -91 2169 -91 
Q 1331 -91 842 396 
Q 353 884 353 1716 
Q 353 2575 817 3079 
Q 1281 3584 2069 3584 
Q 2775 3584 3186 3129 
Q 3597 2675 3597 1894 
z
M 3022 2063 
Q 3016 2534 2758 2815 
Q 2500 3097 2075 3097 
Q 1594 3097 1305 2825 
Q 1016 2553 972 2059 
L 3022 2063 
z
" transform="scale(0.015625)"/>
        <path id="DejaVuSans-63" d="M 3122 3366 
L 3122 2828 
Q 2878 2963 2633 3030 
Q 2388 3097 2138 3097 
Q 1578 3097 1268 2742 
Q 959 2388 959 1747 
Q 959 1106 1268 751 
Q 1578 397 2138 397 
Q 2388 397 2633 464 
Q 2878 531 3122 666 
L 3122 134 
Q 2881 22 2623 -34 
Q 2366 -91 2075 -91 
Q 1284 -91 818 406 
Q 353 903 353 1747 
Q 353 2603 823 3093 
Q 1294 3584 2113 3584 
Q 2378 3584 2631 3529 
Q 2884 3475 3122 3366 
z
" transform="scale(0.015625)"/>
       </defs>
       <use xlink:href="#DejaVuSans-32"/>
       <use xlink:href="#DejaVuSans-30" x="63.623047"/>
       <use xlink:href="#DejaVuSans-32" x="127.246094"/>
       <use xlink:href="#DejaVuSans-30" x="190.869141"/>
       <use xlink:href="#DejaVuSans-2d" x="254.492188"/>
       <use xlink:href="#DejaVuSans-44" x="290.576172"/>
       <use xlink:href="#DejaVuSans-65" x="367.578125"/>
       <use xlink:href="#DejaVuSans-63" x="429.101562"/>
       <use xlink:href="#DejaVuSans-2d" x="484.082031"/>
       <use xlink:href="#DejaVuSans-30" x="520.166016"/>
       <use xlink:href="#DejaVuSans-31" x="583.789062"/>
      </g>
     </g>
    </g>
    <g id="xtick_3">
     <g id="line2d_3">
      <g>
       <use xlink:href="#mdfe07606d9" x="127.247169" y="178.56" style="stroke: #000000; stroke-width: 0.8"/>
      </g>
     </g>
     <g id="text_3">
      <!-- 2021-Jan-01 -->
      <g transform="translate(73.060429 222.824815)rotate(-30)scale(0.1 -0.1)">
       <defs>
        <path id="DejaVuSans-4a" d="M 628 4666 
L 1259 4666 
L 1259 325 
Q 1259 -519 939 -900 
Q 619 -1281 -91 -1281 
L -331 -1281 
L -331 -750 
L -134 -750 
Q 284 -750 456 -515 
Q 628 -281 628 325 
L 628 4666 
z
" transform="scale(0.015625)"/>
        <path id="DejaVuSans-61" d="M 2194 1759 
Q 1497 1759 1228 1600 
Q 959 1441 959 1056 
Q 959 750 1161 570 
Q 1363 391 1709 391 
Q 2188 391 2477 730 
Q 2766 1069 2766 1631 
L 2766 1759 
L 2194 1759 
z
M 3341 1997 
L 3341 0 
L 2766 0 
L 2766 531 
Q 2569 213 2275 61 
Q 1981 -91 1556 -91 
Q 1019 -91 701 211 
Q 384 513 384 1019 
Q 384 1609 779 1909 
Q 1175 2209 1959 2209 
L 2766 2209 
L 2766 2266 
Q 2766 2663 2505 2880 
Q 2244 3097 1772 3097 
Q 1472 3097 1187 3025 
Q 903 2953 641 2809 
L 641 3341 
Q 956 3463 1253 3523 
Q 1550 3584 1831 3584 
Q 2591 3584 2966 3190 
Q 3341 2797 3341 1997 
z
" transform="scale(0.015625)"/>
        <path id="DejaVuSans-6e" d="M 3513 2113 
L 3513 0 
L 2938 0 
L 2938 2094 
Q 2938 2591 2744 2837 
Q 2550 3084 2163 3084 
Q 1697 3084 1428 2787 
Q 1159 2491 1159 1978 
L 1159 0 
L 581 0 
L 581 3500 
L 1159 3500 
L 1159 2956 
Q 1366 3272 1645 3428 
Q 1925 3584 2291 3584 
Q 2894 3584 3203 3211 
Q 3513 2838 3513 2113 
z
" transform="scale(0.015625)"/>
       </defs>
       <use xlink:href="#DejaVuSans-32"/>
       <use xlink:href="#DejaVuSans-30" x="63.623047"/>
       <use xlink:href="#DejaVuSans-32" x="127.246094"/>
       <use xlink:href="#DejaVuSans-31" x="190.869141"/>
       <use xlink:href="#DejaVuSans-2d" x="254.492188"/>
       <use xlink:href="#DejaVuSans-4a" x="296.201172"/>
       <use xlink:href="#DejaVuSans-61" x="325.693359"/>
       <use xlink:href="#DejaVuSans-6e" x="386.972656"/>
       <use xlink:href="#DejaVuSans-2d" x="450.351562"/>
       <use xlink:href="#DejaVuSans-30" x="486.435547"/>
       <use xlink:href="#DejaVuSans-31" x="550.058594"/>
      </g>
     </g>
    </g>
    <g id="xtick_4">
     <g id="line2d_4">
      <g>
       <use xlink:href="#mdfe07606d9" x="157.343733" y="178.56" style="stroke: #000000; stroke-width: 0.8"/>
      </g>
     </g>
     <g id="text_4">
      <!-- 2021-Feb-01 -->
      <g transform="translate(101.663099 223.687315)rotate(-30)scale(0.1 -0.1)">
       <defs>
        <path id="DejaVuSans-46" d="M 628 4666 
L 3309 4666 
L 3309 4134 
L 1259 4134 
L 1259 2759 
L 3109 2759 
L 3109 2228 
L 1259 2228 
L 1259 0 
L 628 0 
L 628 4666 
z
" transform="scale(0.015625)"/>
        <path id="DejaVuSans-62" d="M 3116 1747 
Q 3116 2381 2855 2742 
Q 2594 3103 2138 3103 
Q 1681 3103 1420 2742 
Q 1159 2381 1159 1747 
Q 1159 1113 1420 752 
Q 1681 391 2138 391 
Q 2594 391 2855 752 
Q 3116 1113 3116 1747 
z
M 1159 2969 
Q 1341 3281 1617 3432 
Q 1894 3584 2278 3584 
Q 2916 3584 3314 3078 
Q 3713 2572 3713 1747 
Q 3713 922 3314 415 
Q 2916 -91 2278 -91 
Q 1894 -91 1617 61 
Q 1341 213 1159 525 
L 1159 0 
L 581 0 
L 581 4863 
L 1159 4863 
L 1159 2969 
z
" transform="scale(0.015625)"/>
       </defs>
       <use xlink:href="#DejaVuSans-32"/>
       <use xlink:href="#DejaVuSans-30" x="63.623047"/>
       <use xlink:href="#DejaVuSans-32" x="127.246094"/>
       <use xlink:href="#DejaVuSans-31" x="190.869141"/>
       <use xlink:href="#DejaVuSans-2d" x="254.492188"/>
       <use xlink:href="#DejaVuSans-46" x="290.576172"/>
       <use xlink:href="#DejaVuSans-65" x="342.595703"/>
       <use xlink:href="#DejaVuSans-62" x="404.119141"/>
       <use xlink:href="#DejaVuSans-2d" x="467.595703"/>
       <use xlink:href="#DejaVuSans-30" x="503.679688"/>
       <use xlink:href="#DejaVuSans-31" x="567.302734"/>
      </g>
     </g>
    </g>
    <g id="xtick_5">
     <g id="line2d_5">
      <g>
       <use xlink:href="#mdfe07606d9" x="184.527726" y="178.56" style="stroke: #000000; stroke-width: 0.8"/>
      </g>
     </g>
     <g id="text_5">
      <!-- 2021-Mar-01 -->
      <g transform="translate(128.391075 223.950596)rotate(-30)scale(0.1 -0.1)">
       <defs>
        <path id="DejaVuSans-4d" d="M 628 4666 
L 1569 4666 
L 2759 1491 
L 3956 4666 
L 4897 4666 
L 4897 0 
L 4281 0 
L 4281 4097 
L 3078 897 
L 2444 897 
L 1241 4097 
L 1241 0 
L 628 0 
L 628 4666 
z
" transform="scale(0.015625)"/>
        <path id="DejaVuSans-72" d="M 2631 2963 
Q 2534 3019 2420 3045 
Q 2306 3072 2169 3072 
Q 1681 3072 1420 2755 
Q 1159 2438 1159 1844 
L 1159 0 
L 581 0 
L 581 3500 
L 1159 3500 
L 1159 2956 
Q 1341 3275 1631 3429 
Q 1922 3584 2338 3584 
Q 2397 3584 2469 3576 
Q 2541 3569 2628 3553 
L 2631 2963 
z
" transform="scale(0.015625)"/>
       </defs>
       <use xlink:href="#DejaVuSans-32"/>
       <use xlink:href="#DejaVuSans-30" x="63.623047"/>
       <use xlink:href="#DejaVuSans-32" x="127.246094"/>
       <use xlink:href="#DejaVuSans-31" x="190.869141"/>
       <use xlink:href="#DejaVuSans-2d" x="254.492188"/>
       <use xlink:href="#DejaVuSans-4d" x="290.576172"/>
       <use xlink:href="#DejaVuSans-61" x="376.855469"/>
       <use xlink:href="#DejaVuSans-72" x="438.134766"/>
       <use xlink:href="#DejaVuSans-2d" x="472.873047"/>
       <use xlink:href="#DejaVuSans-30" x="508.957031"/>
       <use xlink:href="#DejaVuSans-31" x="572.580078"/>
      </g>
     </g>
    </g>
    <g id="xtick_6">
     <g id="line2d_6">
      <g>
       <use xlink:href="#mdfe07606d9" x="214.62429" y="178.56" style="stroke: #000000; stroke-width: 0.8"/>
      </g>
     </g>
     <g id="text_6">
      <!-- 2021-Apr-01 -->
      <g transform="translate(160.039719 223.054502)rotate(-30)scale(0.1 -0.1)">
       <defs>
        <path id="DejaVuSans-41" d="M 2188 4044 
L 1331 1722 
L 3047 1722 
L 2188 4044 
z
M 1831 4666 
L 2547 4666 
L 4325 0 
L 3669 0 
L 3244 1197 
L 1141 1197 
L 716 0 
L 50 0 
L 1831 4666 
z
" transform="scale(0.015625)"/>
        <path id="DejaVuSans-70" d="M 1159 525 
L 1159 -1331 
L 581 -1331 
L 581 3500 
L 1159 3500 
L 1159 2969 
Q 1341 3281 1617 3432 
Q 1894 3584 2278 3584 
Q 2916 3584 3314 3078 
Q 3713 2572 3713 1747 
Q 3713 922 3314 415 
Q 2916 -91 2278 -91 
Q 1894 -91 1617 61 
Q 1341 213 1159 525 
z
M 3116 1747 
Q 3116 2381 2855 2742 
Q 2594 3103 2138 3103 
Q 1681 3103 1420 2742 
Q 1159 2381 1159 1747 
Q 1159 1113 1420 752 
Q 1681 391 2138 391 
Q 2594 391 2855 752 
Q 3116 1113 3116 1747 
z
" transform="scale(0.015625)"/>
       </defs>
       <use xlink:href="#DejaVuSans-32"/>
       <use xlink:href="#DejaVuSans-30" x="63.623047"/>
       <use xlink:href="#DejaVuSans-32" x="127.246094"/>
       <use xlink:href="#DejaVuSans-31" x="190.869141"/>
       <use xlink:href="#DejaVuSans-2d" x="254.492188"/>
       <use xlink:href="#DejaVuSans-41" x="288.326172"/>
       <use xlink:href="#DejaVuSans-70" x="356.734375"/>
       <use xlink:href="#DejaVuSans-72" x="420.210938"/>
       <use xlink:href="#DejaVuSans-2d" x="454.949219"/>
       <use xlink:href="#DejaVuSans-30" x="491.033203"/>
       <use xlink:href="#DejaVuSans-31" x="554.65625"/>
      </g>
     </g>
    </g>
    <g id="xtick_7">
     <g id="line2d_7">
      <g>
       <use xlink:href="#mdfe07606d9" x="243.749996" y="178.56" style="stroke: #000000; stroke-width: 0.8"/>
      </g>
     </g>
     <g id="text_7">
      <!-- 2021-May-01 -->
      <g transform="translate(185.647198 225.085752)rotate(-30)scale(0.1 -0.1)">
       <defs>
        <path id="DejaVuSans-79" d="M 2059 -325 
Q 1816 -950 1584 -1140 
Q 1353 -1331 966 -1331 
L 506 -1331 
L 506 -850 
L 844 -850 
Q 1081 -850 1212 -737 
Q 1344 -625 1503 -206 
L 1606 56 
L 191 3500 
L 800 3500 
L 1894 763 
L 2988 3500 
L 3597 3500 
L 2059 -325 
z
" transform="scale(0.015625)"/>
       </defs>
       <use xlink:href="#DejaVuSans-32"/>
       <use xlink:href="#DejaVuSans-30" x="63.623047"/>
       <use xlink:href="#DejaVuSans-32" x="127.246094"/>
       <use xlink:href="#DejaVuSans-31" x="190.869141"/>
       <use xlink:href="#DejaVuSans-2d" x="254.492188"/>
       <use xlink:href="#DejaVuSans-4d" x="290.576172"/>
       <use xlink:href="#DejaVuSans-61" x="376.855469"/>
       <use xlink:href="#DejaVuSans-79" x="438.134766"/>
       <use xlink:href="#DejaVuSans-2d" x="495.564453"/>
       <use xlink:href="#DejaVuSans-30" x="531.648438"/>
       <use xlink:href="#DejaVuSans-31" x="595.271484"/>
      </g>
     </g>
    </g>
    <g id="xtick_8">
     <g id="line2d_8">
      <g>
       <use xlink:href="#mdfe07606d9" x="273.84656" y="178.56" style="stroke: #000000; stroke-width: 0.8"/>
      </g>
     </g>
     <g id="text_8">
      <!-- 2021-Jun-01 -->
      <g transform="translate(219.478496 222.929502)rotate(-30)scale(0.1 -0.1)">
       <defs>
        <path id="DejaVuSans-75" d="M 544 1381 
L 544 3500 
L 1119 3500 
L 1119 1403 
Q 1119 906 1312 657 
Q 1506 409 1894 409 
Q 2359 409 2629 706 
Q 2900 1003 2900 1516 
L 2900 3500 
L 3475 3500 
L 3475 0 
L 2900 0 
L 2900 538 
Q 2691 219 2414 64 
Q 2138 -91 1772 -91 
Q 1169 -91 856 284 
Q 544 659 544 1381 
z
M 1991 3584 
L 1991 3584 
z
" transform="scale(0.015625)"/>
       </defs>
       <use xlink:href="#DejaVuSans-32"/>
       <use xlink:href="#DejaVuSans-30" x="63.623047"/>
       <use xlink:href="#DejaVuSans-32" x="127.246094"/>
       <use xlink:href="#DejaVuSans-31" x="190.869141"/>
       <use xlink:href="#DejaVuSans-2d" x="254.492188"/>
       <use xlink:href="#DejaVuSans-4a" x="296.201172"/>
       <use xlink:href="#DejaVuSans-75" x="325.693359"/>
       <use xlink:href="#DejaVuSans-6e" x="389.072266"/>
       <use xlink:href="#DejaVuSans-2d" x="452.451172"/>
       <use xlink:href="#DejaVuSans-30" x="488.535156"/>
       <use xlink:href="#DejaVuSans-31" x="552.158203"/>
      </g>
     </g>
    </g>
    <g id="xtick_9">
     <g id="line2d_9">
      <g>
       <use xlink:href="#mdfe07606d9" x="302.972267" y="178.56" style="stroke: #000000; stroke-width: 0.8"/>
      </g>
     </g>
     <g id="text_9">
      <!-- 2021-Jul-01 -->
      <g transform="translate(251.686712 221.149815)rotate(-30)scale(0.1 -0.1)">
       <defs>
        <path id="DejaVuSans-6c" d="M 603 4863 
L 1178 4863 
L 1178 0 
L 603 0 
L 603 4863 
z
" transform="scale(0.015625)"/>
       </defs>
       <use xlink:href="#DejaVuSans-32"/>
       <use xlink:href="#DejaVuSans-30" x="63.623047"/>
       <use xlink:href="#DejaVuSans-32" x="127.246094"/>
       <use xlink:href="#DejaVuSans-31" x="190.869141"/>
       <use xlink:href="#DejaVuSans-2d" x="254.492188"/>
       <use xlink:href="#DejaVuSans-4a" x="296.201172"/>
       <use xlink:href="#DejaVuSans-75" x="325.693359"/>
       <use xlink:href="#DejaVuSans-6c" x="389.072266"/>
       <use xlink:href="#DejaVuSans-2d" x="416.855469"/>
       <use xlink:href="#DejaVuSans-30" x="452.939453"/>
       <use xlink:href="#DejaVuSans-31" x="516.5625"/>
      </g>
     </g>
    </g>
    <g id="xtick_10">
     <g id="line2d_10">
      <g>
       <use xlink:href="#mdfe07606d9" x="333.068831" y="178.56" style="stroke: #000000; stroke-width: 0.8"/>
      </g>
     </g>
     <g id="text_10">
      <!-- 2021-Aug-01 -->
      <g transform="translate(276.003909 224.486534)rotate(-30)scale(0.1 -0.1)">
       <defs>
        <path id="DejaVuSans-67" d="M 2906 1791 
Q 2906 2416 2648 2759 
Q 2391 3103 1925 3103 
Q 1463 3103 1205 2759 
Q 947 2416 947 1791 
Q 947 1169 1205 825 
Q 1463 481 1925 481 
Q 2391 481 2648 825 
Q 2906 1169 2906 1791 
z
M 3481 434 
Q 3481 -459 3084 -895 
Q 2688 -1331 1869 -1331 
Q 1566 -1331 1297 -1286 
Q 1028 -1241 775 -1147 
L 775 -588 
Q 1028 -725 1275 -790 
Q 1522 -856 1778 -856 
Q 2344 -856 2625 -561 
Q 2906 -266 2906 331 
L 2906 616 
Q 2728 306 2450 153 
Q 2172 0 1784 0 
Q 1141 0 747 490 
Q 353 981 353 1791 
Q 353 2603 747 3093 
Q 1141 3584 1784 3584 
Q 2172 3584 2450 3431 
Q 2728 3278 2906 2969 
L 2906 3500 
L 3481 3500 
L 3481 434 
z
" transform="scale(0.015625)"/>
       </defs>
       <use xlink:href="#DejaVuSans-32"/>
       <use xlink:href="#DejaVuSans-30" x="63.623047"/>
       <use xlink:href="#DejaVuSans-32" x="127.246094"/>
       <use xlink:href="#DejaVuSans-31" x="190.869141"/>
       <use xlink:href="#DejaVuSans-2d" x="254.492188"/>
       <use xlink:href="#DejaVuSans-41" x="288.326172"/>
       <use xlink:href="#DejaVuSans-75" x="356.734375"/>
       <use xlink:href="#DejaVuSans-67" x="420.113281"/>
       <use xlink:href="#DejaVuSans-2d" x="483.589844"/>
       <use xlink:href="#DejaVuSans-30" x="519.673828"/>
       <use xlink:href="#DejaVuSans-31" x="583.296875"/>
      </g>
     </g>
    </g>
    <g id="xtick_11">
     <g id="line2d_11">
      <g>
       <use xlink:href="#mdfe07606d9" x="363.165394" y="178.56" style="stroke: #000000; stroke-width: 0.8"/>
      </g>
     </g>
     <g id="text_11">
      <!-- 2021-Sep-01 -->
      <g transform="translate(306.491537 224.260752)rotate(-30)scale(0.1 -0.1)">
       <defs>
        <path id="DejaVuSans-53" d="M 3425 4513 
L 3425 3897 
Q 3066 4069 2747 4153 
Q 2428 4238 2131 4238 
Q 1616 4238 1336 4038 
Q 1056 3838 1056 3469 
Q 1056 3159 1242 3001 
Q 1428 2844 1947 2747 
L 2328 2669 
Q 3034 2534 3370 2195 
Q 3706 1856 3706 1288 
Q 3706 609 3251 259 
Q 2797 -91 1919 -91 
Q 1588 -91 1214 -16 
Q 841 59 441 206 
L 441 856 
Q 825 641 1194 531 
Q 1563 422 1919 422 
Q 2459 422 2753 634 
Q 3047 847 3047 1241 
Q 3047 1584 2836 1778 
Q 2625 1972 2144 2069 
L 1759 2144 
Q 1053 2284 737 2584 
Q 422 2884 422 3419 
Q 422 4038 858 4394 
Q 1294 4750 2059 4750 
Q 2388 4750 2728 4690 
Q 3069 4631 3425 4513 
z
" transform="scale(0.015625)"/>
       </defs>
       <use xlink:href="#DejaVuSans-32"/>
       <use xlink:href="#DejaVuSans-30" x="63.623047"/>
       <use xlink:href="#DejaVuSans-32" x="127.246094"/>
       <use xlink:href="#DejaVuSans-31" x="190.869141"/>
       <use xlink:href="#DejaVuSans-2d" x="254.492188"/>
       <use xlink:href="#DejaVuSans-53" x="290.576172"/>
       <use xlink:href="#DejaVuSans-65" x="354.052734"/>
       <use xlink:href="#DejaVuSans-70" x="415.576172"/>
       <use xlink:href="#DejaVuSans-2d" x="479.052734"/>
       <use xlink:href="#DejaVuSans-30" x="515.136719"/>
       <use xlink:href="#DejaVuSans-31" x="578.759766"/>
      </g>
     </g>
    </g>
    <g id="xtick_12">
     <g id="line2d_12">
      <g>
       <use xlink:href="#mdfe07606d9" x="392.291101" y="178.56" style="stroke: #000000; stroke-width: 0.8"/>
      </g>
     </g>
     <g id="text_12">
      <!-- 2021-Oct-01 -->
      <g transform="translate(336.729546 223.618565)rotate(-30)scale(0.1 -0.1)">
       <defs>
        <path id="DejaVuSans-4f" d="M 2522 4238 
Q 1834 4238 1429 3725 
Q 1025 3213 1025 2328 
Q 1025 1447 1429 934 
Q 1834 422 2522 422 
Q 3209 422 3611 934 
Q 4013 1447 4013 2328 
Q 4013 3213 3611 3725 
Q 3209 4238 2522 4238 
z
M 2522 4750 
Q 3503 4750 4090 4092 
Q 4678 3434 4678 2328 
Q 4678 1225 4090 567 
Q 3503 -91 2522 -91 
Q 1538 -91 948 565 
Q 359 1222 359 2328 
Q 359 3434 948 4092 
Q 1538 4750 2522 4750 
z
" transform="scale(0.015625)"/>
        <path id="DejaVuSans-74" d="M 1172 4494 
L 1172 3500 
L 2356 3500 
L 2356 3053 
L 1172 3053 
L 1172 1153 
Q 1172 725 1289 603 
Q 1406 481 1766 481 
L 2356 481 
L 2356 0 
L 1766 0 
Q 1100 0 847 248 
Q 594 497 594 1153 
L 594 3053 
L 172 3053 
L 172 3500 
L 594 3500 
L 594 4494 
L 1172 4494 
z
" transform="scale(0.015625)"/>
       </defs>
       <use xlink:href="#DejaVuSans-32"/>
       <use xlink:href="#DejaVuSans-30" x="63.623047"/>
       <use xlink:href="#DejaVuSans-32" x="127.246094"/>
       <use xlink:href="#DejaVuSans-31" x="190.869141"/>
       <use xlink:href="#DejaVuSans-2d" x="254.492188"/>
       <use xlink:href="#DejaVuSans-4f" x="293.326172"/>
       <use xlink:href="#DejaVuSans-63" x="372.037109"/>
       <use xlink:href="#DejaVuSans-74" x="427.017578"/>
       <use xlink:href="#DejaVuSans-2d" x="466.226562"/>
       <use xlink:href="#DejaVuSans-30" x="502.310547"/>
       <use xlink:href="#DejaVuSans-31" x="565.933594"/>
      </g>
     </g>
    </g>
    <g id="xtick_13">
     <g id="line2d_13">
      <g>
       <use xlink:href="#mdfe07606d9" x="422.387665" y="178.56" style="stroke: #000000; stroke-width: 0.8"/>
      </g>
     </g>
     <g id="text_13">
      <!-- 2021-Nov-01 -->
      <g transform="translate(365.361985 224.463877)rotate(-30)scale(0.1 -0.1)">
       <use xlink:href="#DejaVuSans-32"/>
       <use xlink:href="#DejaVuSans-30" x="63.623047"/>
       <use xlink:href="#DejaVuSans-32" x="127.246094"/>
       <use xlink:href="#DejaVuSans-31" x="190.869141"/>
       <use xlink:href="#DejaVuSans-2d" x="254.492188"/>
       <use xlink:href="#DejaVuSans-4e" x="290.576172"/>
       <use xlink:href="#DejaVuSans-6f" x="365.380859"/>
       <use xlink:href="#DejaVuSans-76" x="426.5625"/>
       <use xlink:href="#DejaVuSans-2d" x="483.117188"/>
       <use xlink:href="#DejaVuSans-30" x="519.201172"/>
       <use xlink:href="#DejaVuSans-31" x="582.824219"/>
      </g>
     </g>
    </g>
    <g id="xtick_14">
     <g id="line2d_14">
      <g>
       <use xlink:href="#mdfe07606d9" x="451.513372" y="178.56" style="stroke: #000000; stroke-width: 0.8"/>
      </g>
     </g>
     <g id="text_14">
      <!-- 2021-Dec-01 -->
      <g transform="translate(394.405149 224.511534)rotate(-30)scale(0.1 -0.1)">
       <use xlink:href="#DejaVuSans-32"/>
       <use xlink:href="#DejaVuSans-30" x="63.623047"/>
       <use xlink:href="#DejaVuSans-32" x="127.246094"/>
       <use xlink:href="#DejaVuSans-31" x="190.869141"/>
       <use xlink:href="#DejaVuSans-2d" x="254.492188"/>
       <use xlink:href="#DejaVuSans-44" x="290.576172"/>
       <use xlink:href="#DejaVuSans-65" x="367.578125"/>
       <use xlink:href="#DejaVuSans-63" x="429.101562"/>
       <use xlink:href="#DejaVuSans-2d" x="484.082031"/>
       <use xlink:href="#DejaVuSans-30" x="520.166016"/>
       <use xlink:href="#DejaVuSans-31" x="583.789062"/>
      </g>
     </g>
    </g>
    <g id="xtick_15">
     <g id="line2d_15">
      <g>
       <use xlink:href="#mdfe07606d9" x="481.609935" y="178.56" style="stroke: #000000; stroke-width: 0.8"/>
      </g>
     </g>
     <g id="text_15">
      <!-- 2022-Jan-01 -->
      <g transform="translate(427.423195 222.824815)rotate(-30)scale(0.1 -0.1)">
       <use xlink:href="#DejaVuSans-32"/>
       <use xlink:href="#DejaVuSans-30" x="63.623047"/>
       <use xlink:href="#DejaVuSans-32" x="127.246094"/>
       <use xlink:href="#DejaVuSans-32" x="190.869141"/>
       <use xlink:href="#DejaVuSans-2d" x="254.492188"/>
       <use xlink:href="#DejaVuSans-4a" x="296.201172"/>
       <use xlink:href="#DejaVuSans-61" x="325.693359"/>
       <use xlink:href="#DejaVuSans-6e" x="386.972656"/>
       <use xlink:href="#DejaVuSans-2d" x="450.351562"/>
       <use xlink:href="#DejaVuSans-30" x="486.435547"/>
       <use xlink:href="#DejaVuSans-31" x="550.058594"/>
      </g>
     </g>
    </g>
   </g>
   <g id="matplotlib.axis_2">
    <g id="ytick_1">
     <g id="line2d_16">
      <path d="M 53.559131 174.652516 
L 499.959131 174.652516 
" clip-path="url(#pce41cdaf0d)" style="fill: none; stroke: #b0b0b0; stroke-width: 0.8; stroke-linecap: square"/>
     </g>
     <g id="line2d_17">
      <defs>
       <path id="m276f71bd8d" d="M 0 0 
L -3.5 0 
" style="stroke: #000000; stroke-width: 0.8"/>
      </defs>
      <g>
       <use xlink:href="#m276f71bd8d" x="53.559131" y="174.652516" style="stroke: #000000; stroke-width: 0.8"/>
      </g>
     </g>
     <g id="text_16">
      <!-- 0 -->
      <g transform="translate(40.196631 178.451735)scale(0.1 -0.1)">
       <use xlink:href="#DejaVuSans-30"/>
      </g>
     </g>
    </g>
    <g id="ytick_2">
     <g id="line2d_18">
      <path d="M 53.559131 148.775137 
L 499.959131 148.775137 
" clip-path="url(#pce41cdaf0d)" style="fill: none; stroke: #b0b0b0; stroke-width: 0.8; stroke-linecap: square"/>
     </g>
     <g id="line2d_19">
      <g>
       <use xlink:href="#m276f71bd8d" x="53.559131" y="148.775137" style="stroke: #000000; stroke-width: 0.8"/>
      </g>
     </g>
     <g id="text_17">
      <!-- 100 -->
      <g transform="translate(27.471631 152.574356)scale(0.1 -0.1)">
       <use xlink:href="#DejaVuSans-31"/>
       <use xlink:href="#DejaVuSans-30" x="63.623047"/>
       <use xlink:href="#DejaVuSans-30" x="127.246094"/>
      </g>
     </g>
    </g>
    <g id="ytick_3">
     <g id="line2d_20">
      <path d="M 53.559131 122.897759 
L 499.959131 122.897759 
" clip-path="url(#pce41cdaf0d)" style="fill: none; stroke: #b0b0b0; stroke-width: 0.8; stroke-linecap: square"/>
     </g>
     <g id="line2d_21">
      <g>
       <use xlink:href="#m276f71bd8d" x="53.559131" y="122.897759" style="stroke: #000000; stroke-width: 0.8"/>
      </g>
     </g>
     <g id="text_18">
      <!-- 200 -->
      <g transform="translate(27.471631 126.696978)scale(0.1 -0.1)">
       <use xlink:href="#DejaVuSans-32"/>
       <use xlink:href="#DejaVuSans-30" x="63.623047"/>
       <use xlink:href="#DejaVuSans-30" x="127.246094"/>
      </g>
     </g>
    </g>
    <g id="ytick_4">
     <g id="line2d_22">
      <path d="M 53.559131 97.020381 
L 499.959131 97.020381 
" clip-path="url(#pce41cdaf0d)" style="fill: none; stroke: #b0b0b0; stroke-width: 0.8; stroke-linecap: square"/>
     </g>
     <g id="line2d_23">
      <g>
       <use xlink:href="#m276f71bd8d" x="53.559131" y="97.020381" style="stroke: #000000; stroke-width: 0.8"/>
      </g>
     </g>
     <g id="text_19">
      <!-- 300 -->
      <g transform="translate(27.471631 100.819599)scale(0.1 -0.1)">
       <defs>
        <path id="DejaVuSans-33" d="M 2597 2516 
Q 3050 2419 3304 2112 
Q 3559 1806 3559 1356 
Q 3559 666 3084 287 
Q 2609 -91 1734 -91 
Q 1441 -91 1130 -33 
Q 819 25 488 141 
L 488 750 
Q 750 597 1062 519 
Q 1375 441 1716 441 
Q 2309 441 2620 675 
Q 2931 909 2931 1356 
Q 2931 1769 2642 2001 
Q 2353 2234 1838 2234 
L 1294 2234 
L 1294 2753 
L 1863 2753 
Q 2328 2753 2575 2939 
Q 2822 3125 2822 3475 
Q 2822 3834 2567 4026 
Q 2313 4219 1838 4219 
Q 1578 4219 1281 4162 
Q 984 4106 628 3988 
L 628 4550 
Q 988 4650 1302 4700 
Q 1616 4750 1894 4750 
Q 2613 4750 3031 4423 
Q 3450 4097 3450 3541 
Q 3450 3153 3228 2886 
Q 3006 2619 2597 2516 
z
" transform="scale(0.015625)"/>
       </defs>
       <use xlink:href="#DejaVuSans-33"/>
       <use xlink:href="#DejaVuSans-30" x="63.623047"/>
       <use xlink:href="#DejaVuSans-30" x="127.246094"/>
      </g>
     </g>
    </g>
    <g id="ytick_5">
     <g id="line2d_24">
      <path d="M 53.559131 71.143002 
L 499.959131 71.143002 
" clip-path="url(#pce41cdaf0d)" style="fill: none; stroke: #b0b0b0; stroke-width: 0.8; stroke-linecap: square"/>
     </g>
     <g id="line2d_25">
      <g>
       <use xlink:href="#m276f71bd8d" x="53.559131" y="71.143002" style="stroke: #000000; stroke-width: 0.8"/>
      </g>
     </g>
     <g id="text_20">
      <!-- 400 -->
      <g transform="translate(27.471631 74.942221)scale(0.1 -0.1)">
       <defs>
        <path id="DejaVuSans-34" d="M 2419 4116 
L 825 1625 
L 2419 1625 
L 2419 4116 
z
M 2253 4666 
L 3047 4666 
L 3047 1625 
L 3713 1625 
L 3713 1100 
L 3047 1100 
L 3047 0 
L 2419 0 
L 2419 1100 
L 313 1100 
L 313 1709 
L 2253 4666 
z
" transform="scale(0.015625)"/>
       </defs>
       <use xlink:href="#DejaVuSans-34"/>
       <use xlink:href="#DejaVuSans-30" x="63.623047"/>
       <use xlink:href="#DejaVuSans-30" x="127.246094"/>
      </g>
     </g>
    </g>
    <g id="ytick_6">
     <g id="line2d_26">
      <path d="M 53.559131 45.265624 
L 499.959131 45.265624 
" clip-path="url(#pce41cdaf0d)" style="fill: none; stroke: #b0b0b0; stroke-width: 0.8; stroke-linecap: square"/>
     </g>
     <g id="line2d_27">
      <g>
       <use xlink:href="#m276f71bd8d" x="53.559131" y="45.265624" style="stroke: #000000; stroke-width: 0.8"/>
      </g>
     </g>
     <g id="text_21">
      <!-- 500 -->
      <g transform="translate(27.471631 49.064842)scale(0.1 -0.1)">
       <defs>
        <path id="DejaVuSans-35" d="M 691 4666 
L 3169 4666 
L 3169 4134 
L 1269 4134 
L 1269 2991 
Q 1406 3038 1543 3061 
Q 1681 3084 1819 3084 
Q 2600 3084 3056 2656 
Q 3513 2228 3513 1497 
Q 3513 744 3044 326 
Q 2575 -91 1722 -91 
Q 1428 -91 1123 -41 
Q 819 9 494 109 
L 494 744 
Q 775 591 1075 516 
Q 1375 441 1709 441 
Q 2250 441 2565 725 
Q 2881 1009 2881 1497 
Q 2881 1984 2565 2268 
Q 2250 2553 1709 2553 
Q 1456 2553 1204 2497 
Q 953 2441 691 2322 
L 691 4666 
z
" transform="scale(0.015625)"/>
       </defs>
       <use xlink:href="#DejaVuSans-35"/>
       <use xlink:href="#DejaVuSans-30" x="63.623047"/>
       <use xlink:href="#DejaVuSans-30" x="127.246094"/>
      </g>
     </g>
    </g>
    <g id="ytick_7">
     <g id="line2d_28">
      <path d="M 53.559131 19.388245 
L 499.959131 19.388245 
" clip-path="url(#pce41cdaf0d)" style="fill: none; stroke: #b0b0b0; stroke-width: 0.8; stroke-linecap: square"/>
     </g>
     <g id="line2d_29">
      <g>
       <use xlink:href="#m276f71bd8d" x="53.559131" y="19.388245" style="stroke: #000000; stroke-width: 0.8"/>
      </g>
     </g>
     <g id="text_22">
      <!-- 600 -->
      <g transform="translate(27.471631 23.187464)scale(0.1 -0.1)">
       <defs>
        <path id="DejaVuSans-36" d="M 2113 2584 
Q 1688 2584 1439 2293 
Q 1191 2003 1191 1497 
Q 1191 994 1439 701 
Q 1688 409 2113 409 
Q 2538 409 2786 701 
Q 3034 994 3034 1497 
Q 3034 2003 2786 2293 
Q 2538 2584 2113 2584 
z
M 3366 4563 
L 3366 3988 
Q 3128 4100 2886 4159 
Q 2644 4219 2406 4219 
Q 1781 4219 1451 3797 
Q 1122 3375 1075 2522 
Q 1259 2794 1537 2939 
Q 1816 3084 2150 3084 
Q 2853 3084 3261 2657 
Q 3669 2231 3669 1497 
Q 3669 778 3244 343 
Q 2819 -91 2113 -91 
Q 1303 -91 875 529 
Q 447 1150 447 2328 
Q 447 3434 972 4092 
Q 1497 4750 2381 4750 
Q 2619 4750 2861 4703 
Q 3103 4656 3366 4563 
z
" transform="scale(0.015625)"/>
       </defs>
       <use xlink:href="#DejaVuSans-36"/>
       <use xlink:href="#DejaVuSans-30" x="63.623047"/>
       <use xlink:href="#DejaVuSans-30" x="127.246094"/>
      </g>
     </g>
    </g>
    <g id="text_23">
     <!-- Number of Domains -->
     <g transform="translate(21.391943 142.969844)rotate(-90)scale(0.1 -0.1)">
      <defs>
       <path id="DejaVuSans-6d" d="M 3328 2828 
Q 3544 3216 3844 3400 
Q 4144 3584 4550 3584 
Q 5097 3584 5394 3201 
Q 5691 2819 5691 2113 
L 5691 0 
L 5113 0 
L 5113 2094 
Q 5113 2597 4934 2840 
Q 4756 3084 4391 3084 
Q 3944 3084 3684 2787 
Q 3425 2491 3425 1978 
L 3425 0 
L 2847 0 
L 2847 2094 
Q 2847 2600 2669 2842 
Q 2491 3084 2119 3084 
Q 1678 3084 1418 2786 
Q 1159 2488 1159 1978 
L 1159 0 
L 581 0 
L 581 3500 
L 1159 3500 
L 1159 2956 
Q 1356 3278 1631 3431 
Q 1906 3584 2284 3584 
Q 2666 3584 2933 3390 
Q 3200 3197 3328 2828 
z
" transform="scale(0.015625)"/>
       <path id="DejaVuSans-20" transform="scale(0.015625)"/>
       <path id="DejaVuSans-66" d="M 2375 4863 
L 2375 4384 
L 1825 4384 
Q 1516 4384 1395 4259 
Q 1275 4134 1275 3809 
L 1275 3500 
L 2222 3500 
L 2222 3053 
L 1275 3053 
L 1275 0 
L 697 0 
L 697 3053 
L 147 3053 
L 147 3500 
L 697 3500 
L 697 3744 
Q 697 4328 969 4595 
Q 1241 4863 1831 4863 
L 2375 4863 
z
" transform="scale(0.015625)"/>
       <path id="DejaVuSans-69" d="M 603 3500 
L 1178 3500 
L 1178 0 
L 603 0 
L 603 3500 
z
M 603 4863 
L 1178 4863 
L 1178 4134 
L 603 4134 
L 603 4863 
z
" transform="scale(0.015625)"/>
       <path id="DejaVuSans-73" d="M 2834 3397 
L 2834 2853 
Q 2591 2978 2328 3040 
Q 2066 3103 1784 3103 
Q 1356 3103 1142 2972 
Q 928 2841 928 2578 
Q 928 2378 1081 2264 
Q 1234 2150 1697 2047 
L 1894 2003 
Q 2506 1872 2764 1633 
Q 3022 1394 3022 966 
Q 3022 478 2636 193 
Q 2250 -91 1575 -91 
Q 1294 -91 989 -36 
Q 684 19 347 128 
L 347 722 
Q 666 556 975 473 
Q 1284 391 1588 391 
Q 1994 391 2212 530 
Q 2431 669 2431 922 
Q 2431 1156 2273 1281 
Q 2116 1406 1581 1522 
L 1381 1569 
Q 847 1681 609 1914 
Q 372 2147 372 2553 
Q 372 3047 722 3315 
Q 1072 3584 1716 3584 
Q 2034 3584 2315 3537 
Q 2597 3491 2834 3397 
z
" transform="scale(0.015625)"/>
      </defs>
      <use xlink:href="#DejaVuSans-4e"/>
      <use xlink:href="#DejaVuSans-75" x="74.804688"/>
      <use xlink:href="#DejaVuSans-6d" x="138.183594"/>
      <use xlink:href="#DejaVuSans-62" x="235.595703"/>
      <use xlink:href="#DejaVuSans-65" x="299.072266"/>
      <use xlink:href="#DejaVuSans-72" x="360.595703"/>
      <use xlink:href="#DejaVuSans-20" x="401.708984"/>
      <use xlink:href="#DejaVuSans-6f" x="433.496094"/>
      <use xlink:href="#DejaVuSans-66" x="494.677734"/>
      <use xlink:href="#DejaVuSans-20" x="529.882812"/>
      <use xlink:href="#DejaVuSans-44" x="561.669922"/>
      <use xlink:href="#DejaVuSans-6f" x="638.671875"/>
      <use xlink:href="#DejaVuSans-6d" x="699.853516"/>
      <use xlink:href="#DejaVuSans-61" x="797.265625"/>
      <use xlink:href="#DejaVuSans-69" x="858.544922"/>
      <use xlink:href="#DejaVuSans-6e" x="886.328125"/>
      <use xlink:href="#DejaVuSans-73" x="949.707031"/>
     </g>
    </g>
   </g>
   <g id="line2d_30">
    <path d="M 73.85004 158.349767 
L 74.820897 157.83222 
L 75.791754 157.055899 
L 76.762611 155.244482 
L 77.733467 151.880423 
L 78.704324 151.362875 
L 79.675181 151.104101 
L 80.646038 151.362875 
L 82.587752 151.362875 
L 83.558609 151.104101 
L 84.529466 150.586554 
L 85.500323 150.586554 
L 86.47118 150.32778 
L 87.442036 150.586554 
L 88.412893 150.069006 
L 93.267178 150.845328 
L 94.238035 150.845328 
L 95.208892 150.32778 
L 96.179748 150.586554 
L 97.150605 151.621649 
L 98.121462 150.845328 
L 99.092319 149.810233 
L 100.063176 150.069006 
L 101.034033 149.810233 
L 102.00489 149.292685 
L 102.975747 150.069006 
L 103.946604 149.292685 
L 104.917461 149.810233 
L 105.888317 149.551459 
L 106.859174 149.551459 
L 108.800888 150.069006 
L 109.771745 149.810233 
L 110.742602 149.292685 
L 111.713459 150.069006 
L 113.655173 150.069006 
L 115.596886 149.810233 
L 116.567743 149.551459 
L 118.509457 150.069006 
L 119.480314 150.845328 
L 120.451171 150.069006 
L 123.363742 150.069006 
L 124.334598 150.586554 
L 125.305455 150.32778 
L 129.188883 150.845328 
L 130.15974 150.069006 
L 131.130597 149.810233 
L 132.101454 150.586554 
L 133.07231 150.586554 
L 134.043167 150.069006 
L 135.984881 150.069006 
L 136.955738 149.033911 
L 137.926595 149.033911 
L 140.839166 149.551459 
L 143.751736 149.810233 
L 144.722593 148.516364 
L 145.69345 149.033911 
L 146.664307 148.25759 
L 147.635164 148.516364 
L 148.606021 149.292685 
L 157.343733 148.25759 
L 158.31459 147.481268 
L 160.256303 146.963721 
L 161.22716 147.481268 
L 162.198017 146.963721 
L 163.168874 146.704947 
L 164.139731 146.704947 
L 165.110588 146.963721 
L 166.081445 146.704947 
L 167.052302 147.222495 
L 168.023159 147.222495 
L 168.994016 146.704947 
L 169.964872 147.222495 
L 170.935729 146.446173 
L 171.906586 147.481268 
L 172.877443 146.446173 
L 173.8483 146.704947 
L 174.819157 145.928626 
L 175.790014 146.446173 
L 176.760871 146.704947 
L 177.731728 146.1874 
L 178.702584 145.152304 
L 179.673441 145.928626 
L 180.644298 146.1874 
L 181.615155 145.669852 
L 182.586012 144.634757 
L 183.556869 145.152304 
L 184.527726 144.634757 
L 185.498583 144.375983 
L 186.46944 144.893531 
L 187.440297 144.375983 
L 189.38201 143.858436 
L 190.352867 143.858436 
L 191.323724 144.117209 
L 192.294581 143.858436 
L 194.236295 144.375983 
L 195.207152 143.858436 
L 196.178009 144.375983 
L 197.148865 143.599662 
L 198.119722 143.082114 
L 210.740862 136.871543 
L 212.682576 137.389091 
L 213.653433 94.173869 
L 214.62429 96.761607 
L 215.595146 91.844905 
L 216.566003 94.173869 
L 217.53686 95.467738 
L 218.507717 92.103679 
L 219.478574 95.726512 
L 220.449431 89.515941 
L 221.420288 90.80981 
L 222.391145 90.033488 
L 223.362002 94.691416 
L 226.274572 89.515941 
L 227.245429 92.621226 
L 228.216286 93.397548 
L 229.187143 92.88 
L 230.158 93.397548 
L 231.128857 89.515941 
L 232.099714 87.963298 
L 233.070571 92.103679 
L 234.041427 91.068584 
L 236.953998 90.80981 
L 237.924855 92.362452 
L 238.895712 92.103679 
L 239.866569 88.998393 
L 240.837426 90.033488 
L 241.808283 88.222072 
L 245.69171 88.222072 
L 246.662567 89.515941 
L 247.633424 91.327357 
L 248.604281 87.445751 
L 249.575138 86.410655 
L 250.545995 87.704524 
L 251.516852 85.37556 
L 252.487708 87.445751 
L 253.458565 84.599239 
L 254.429422 85.634334 
L 255.400279 91.844905 
L 256.371136 81.752727 
L 258.31285 90.033488 
L 259.283707 85.37556 
L 260.254564 86.151882 
L 261.22542 82.270275 
L 262.196277 84.081691 
L 263.167134 82.270275 
L 264.137991 90.551036 
L 265.108848 88.222072 
L 266.079705 84.340465 
L 267.050562 86.669429 
L 268.021419 84.340465 
L 268.992276 78.906216 
L 269.963133 85.634334 
L 270.933989 84.340465 
L 271.904846 84.340465 
L 272.875703 82.529049 
L 273.84656 84.858013 
L 274.817417 81.23518 
L 275.788274 82.787822 
L 276.759131 82.011501 
L 277.729988 80.200085 
L 279.671701 78.647442 
L 280.642558 84.599239 
L 281.613415 80.717632 
L 282.584272 82.011501 
L 283.555129 79.682537 
L 284.525986 81.493953 
L 285.496843 79.941311 
L 286.4677 82.270275 
L 287.438557 80.717632 
L 288.409414 84.340465 
L 289.38027 81.752727 
L 290.351127 77.353573 
L 291.321984 79.164989 
L 292.292841 79.682537 
L 293.263698 80.458858 
L 294.234555 80.717632 
L 296.176269 76.836025 
L 299.088839 77.612347 
L 301.030553 80.976406 
L 304.913981 76.059704 
L 305.884838 76.059704 
L 333.068831 48.629683 
L 334.039688 53.805159 
L 335.010544 36.984863 
L 335.981401 35.949767 
L 336.952258 35.43222 
L 337.923115 36.467315 
L 338.893972 35.43222 
L 339.864829 34.655899 
L 340.835686 35.173446 
L 341.806543 34.655899 
L 342.7774 34.914672 
L 343.748257 33.879577 
L 344.719113 33.620803 
L 345.68997 31.809387 
L 346.660827 32.844482 
L 347.631684 31.550613 
L 348.602541 31.809387 
L 349.573398 31.033066 
L 350.544255 32.068161 
L 368.019679 33.879577 
L 368.990536 33.103256 
L 370.93225 33.879577 
L 371.903106 34.138351 
L 372.873963 32.585708 
L 373.84482 32.844482 
L 374.815677 30.515518 
L 375.786534 30.515518 
L 376.757391 30.774292 
L 377.728248 30.774292 
L 379.669962 29.739197 
L 380.640818 30.256744 
L 381.611675 28.445328 
L 382.582532 29.221649 
L 383.553389 29.221649 
L 384.524246 29.739197 
L 385.495103 28.962875 
L 388.407674 29.221649 
L 389.378531 28.704101 
L 390.349387 29.221649 
L 391.320244 28.962875 
L 392.291101 28.445328 
L 393.261958 28.704101 
L 394.232815 27.92778 
L 395.203672 26.375137 
L 396.174529 27.151459 
L 397.145386 27.151459 
L 398.116243 25.85759 
L 399.087099 27.92778 
L 400.057956 27.410233 
L 401.028813 27.669006 
L 401.99967 27.669006 
L 402.970527 28.186554 
L 403.941384 27.410233 
L 404.912241 26.892685 
L 405.883098 28.186554 
L 406.853955 27.669006 
L 407.824812 27.92778 
L 409.766525 27.92778 
L 410.737382 28.186554 
L 411.708239 25.598816 
L 412.679096 25.598816 
L 413.649953 26.633911 
L 414.62081 27.410233 
L 415.591667 27.151459 
L 416.562524 26.116364 
L 417.53338 26.116364 
L 418.504237 25.340042 
L 419.475094 25.598816 
L 420.445951 24.822495 
L 421.416808 24.563721 
L 423.358522 25.598816 
L 424.329379 25.340042 
L 425.300236 23.7874 
L 426.271093 23.011078 
L 427.241949 24.046173 
L 428.212806 24.046173 
L 429.183663 23.528626 
L 430.15452 23.528626 
L 431.125377 24.046173 
L 434.037948 23.7874 
L 435.008805 23.528626 
L 435.979661 24.563721 
L 436.950518 24.563721 
L 437.921375 23.269852 
L 438.892232 23.528626 
L 439.863089 24.046173 
L 440.833946 22.752304 
L 441.804803 21.717209 
L 442.77566 23.011078 
L 443.746517 22.234757 
L 444.717374 22.234757 
L 445.68823 20.682114 
L 446.659087 21.199662 
L 447.629944 21.199662 
L 448.600801 21.975983 
L 450.542515 20.42334 
L 451.513372 20.940888 
L 452.484229 19.388245 
L 455.396799 18.611924 
L 456.367656 18.094376 
L 457.338513 18.870698 
L 458.30937 17.576829 
L 459.280227 16.541734 
L 460.251084 16.800507 
L 461.221941 14.989091 
L 462.192798 16.024186 
L 463.163655 16.28296 
L 464.134511 19.129471 
L 465.105368 19.388245 
L 466.076225 17.576829 
L 467.047082 18.611924 
L 469.959653 19.129471 
L 470.93051 17.576829 
L 471.901367 17.576829 
L 472.872223 17.318055 
L 473.84308 16.800507 
L 474.813937 16.800507 
L 475.784794 18.35315 
L 476.755651 18.094376 
L 477.726508 19.647019 
L 478.697365 20.682114 
L 479.668222 17.576829 
L 479.668222 17.576829 
" clip-path="url(#pce41cdaf0d)" style="fill: none; stroke: #1f77b4; stroke-width: 1.5; stroke-linecap: square"/>
   </g>
   <g id="line2d_31">
    <path d="M 73.85004 170.512135 
L 74.820897 170.253362 
L 75.791754 170.512135 
L 76.762611 170.512135 
L 77.733467 170.253362 
L 78.704324 170.253362 
L 79.675181 169.994588 
L 80.646038 170.770909 
L 81.616895 170.512135 
L 82.587752 170.770909 
L 83.558609 170.770909 
L 84.529466 170.253362 
L 85.500323 170.253362 
L 86.47118 169.994588 
L 87.442036 169.994588 
L 88.412893 169.735814 
L 92.296321 169.994588 
L 93.267178 169.994588 
L 94.238035 170.253362 
L 95.208892 169.994588 
L 96.179748 169.994588 
L 97.150605 170.512135 
L 98.121462 169.735814 
L 99.092319 169.218266 
L 100.063176 169.218266 
L 101.034033 169.47704 
L 102.00489 169.47704 
L 102.975747 169.735814 
L 103.946604 169.47704 
L 106.859174 169.47704 
L 107.830031 169.218266 
L 110.742602 169.218266 
L 111.713459 169.47704 
L 112.684316 169.218266 
L 116.567743 169.218266 
L 117.5386 168.959493 
L 118.509457 169.218266 
L 119.480314 169.735814 
L 120.451171 169.47704 
L 124.334598 169.47704 
L 125.305455 169.735814 
L 129.188883 169.735814 
L 130.15974 169.218266 
L 131.130597 169.218266 
L 132.101454 168.959493 
L 133.07231 169.218266 
L 134.043167 168.959493 
L 135.984881 168.959493 
L 136.955738 168.700719 
L 137.926595 168.700719 
L 140.839166 168.959493 
L 143.751736 169.47704 
L 145.69345 168.441945 
L 147.635164 168.441945 
L 148.606021 168.700719 
L 161.22716 168.700719 
L 162.198017 167.924397 
L 163.168874 167.924397 
L 164.139731 168.183171 
L 167.052302 168.183171 
L 168.023159 168.441945 
L 168.994016 168.183171 
L 169.964872 168.441945 
L 170.935729 168.183171 
L 171.906586 168.441945 
L 174.819157 167.665624 
L 175.790014 167.665624 
L 176.760871 168.183171 
L 177.731728 167.924397 
L 178.702584 167.40685 
L 179.673441 167.665624 
L 181.615155 167.665624 
L 182.586012 167.148076 
L 183.556869 167.665624 
L 184.527726 167.924397 
L 185.498583 167.40685 
L 188.411153 166.630529 
L 190.352867 166.630529 
L 192.294581 167.148076 
L 195.207152 167.148076 
L 196.178009 167.40685 
L 197.148865 166.889302 
L 198.119722 166.889302 
L 210.740862 165.33666 
L 212.682576 165.33666 
L 213.653433 165.595433 
L 214.62429 165.077886 
L 219.478574 166.371755 
L 220.449431 165.595433 
L 221.420288 164.560338 
L 222.391145 164.042791 
L 223.362002 164.042791 
L 227.245429 163.784017 
L 228.216286 163.784017 
L 229.187143 164.301564 
L 230.158 164.560338 
L 231.128857 164.560338 
L 232.099714 164.301564 
L 233.070571 164.560338 
L 234.041427 164.042791 
L 236.953998 164.042791 
L 237.924855 164.301564 
L 238.895712 164.301564 
L 239.866569 164.560338 
L 240.837426 164.301564 
L 245.69171 164.301564 
L 247.633424 163.784017 
L 248.604281 163.784017 
L 249.575138 164.560338 
L 250.545995 164.042791 
L 251.516852 164.819112 
L 252.487708 164.819112 
L 253.458565 165.077886 
L 254.429422 164.819112 
L 255.400279 165.33666 
L 256.371136 164.560338 
L 257.341993 164.301564 
L 258.31285 164.819112 
L 259.283707 165.077886 
L 260.254564 165.077886 
L 261.22542 164.301564 
L 262.196277 164.560338 
L 263.167134 165.33666 
L 265.108848 165.33666 
L 266.079705 164.301564 
L 267.050562 165.077886 
L 268.992276 165.077886 
L 270.933989 164.560338 
L 271.904846 164.560338 
L 274.817417 165.33666 
L 277.729988 165.33666 
L 278.700845 165.595433 
L 279.671701 165.595433 
L 280.642558 165.077886 
L 281.613415 165.854207 
L 282.584272 165.077886 
L 283.555129 165.33666 
L 286.4677 165.33666 
L 287.438557 165.595433 
L 288.409414 164.301564 
L 289.38027 164.301564 
L 291.321984 163.784017 
L 292.292841 163.784017 
L 293.263698 164.042791 
L 296.176269 163.266469 
L 299.088839 163.525243 
L 301.030553 163.007696 
L 304.913981 163.266469 
L 305.884838 162.748922 
L 333.068831 163.266469 
L 334.039688 162.748922 
L 335.010544 163.266469 
L 335.981401 163.007696 
L 336.952258 163.007696 
L 337.923115 163.266469 
L 338.893972 162.490148 
L 339.864829 162.231374 
L 340.835686 162.490148 
L 341.806543 162.490148 
L 342.7774 161.9726 
L 343.748257 161.196279 
L 344.719113 160.678732 
L 345.68997 160.678732 
L 347.631684 161.196279 
L 348.602541 160.937505 
L 349.573398 160.419958 
L 350.544255 160.937505 
L 368.019679 161.9726 
L 368.990536 161.713827 
L 370.93225 162.748922 
L 371.903106 162.748922 
L 372.873963 163.007696 
L 373.84482 162.490148 
L 374.815677 162.490148 
L 375.786534 162.231374 
L 377.728248 162.231374 
L 379.669962 161.713827 
L 380.640818 161.9726 
L 382.582532 161.455053 
L 383.553389 161.455053 
L 384.524246 161.9726 
L 385.495103 161.196279 
L 388.407674 161.9726 
L 389.378531 162.490148 
L 390.349387 161.9726 
L 391.320244 162.231374 
L 392.291101 162.231374 
L 393.261958 161.455053 
L 394.232815 161.9726 
L 397.145386 161.196279 
L 398.116243 160.161184 
L 399.087099 161.713827 
L 400.057956 161.196279 
L 401.028813 161.713827 
L 401.99967 161.455053 
L 402.970527 161.713827 
L 403.941384 161.196279 
L 404.912241 161.455053 
L 405.883098 160.937505 
L 406.853955 161.196279 
L 408.795668 160.678732 
L 409.766525 160.937505 
L 410.737382 160.419958 
L 411.708239 159.643636 
L 412.679096 159.643636 
L 413.649953 159.90241 
L 414.62081 159.643636 
L 415.591667 159.643636 
L 416.562524 159.384863 
L 417.53338 160.161184 
L 418.504237 159.643636 
L 419.475094 160.419958 
L 420.445951 159.643636 
L 423.358522 161.196279 
L 424.329379 160.419958 
L 425.300236 159.90241 
L 426.271093 159.90241 
L 427.241949 160.678732 
L 428.212806 159.90241 
L 429.183663 159.90241 
L 430.15452 160.161184 
L 431.125377 159.643636 
L 435.979661 159.643636 
L 436.950518 159.126089 
L 437.921375 159.643636 
L 438.892232 158.867315 
L 439.863089 159.126089 
L 440.833946 158.867315 
L 441.804803 158.867315 
L 442.77566 159.126089 
L 443.746517 158.867315 
L 444.717374 159.643636 
L 445.68823 158.867315 
L 446.659087 159.126089 
L 447.629944 158.349767 
L 448.600801 158.867315 
L 449.571658 158.349767 
L 450.542515 158.349767 
L 451.513372 158.608541 
L 452.484229 158.349767 
L 453.455086 158.867315 
L 454.425942 158.608541 
L 455.396799 158.608541 
L 456.367656 159.384863 
L 458.30937 158.867315 
L 459.280227 158.349767 
L 460.251084 158.349767 
L 461.221941 157.83222 
L 462.192798 158.090994 
L 463.163655 157.314672 
L 464.134511 158.090994 
L 465.105368 158.608541 
L 466.076225 158.608541 
L 467.047082 158.090994 
L 469.959653 159.126089 
L 470.93051 158.867315 
L 471.901367 157.83222 
L 472.872223 157.573446 
L 473.84308 157.573446 
L 474.813937 157.83222 
L 475.784794 158.349767 
L 476.755651 158.349767 
L 477.726508 157.573446 
L 478.697365 158.349767 
L 479.668222 158.349767 
L 479.668222 158.349767 
" clip-path="url(#pce41cdaf0d)" style="fill: none; stroke: #ff7f0e; stroke-width: 1.5; stroke-linecap: square"/>
   </g>
   <g id="line2d_32">
    <path d="M 73.85004 167.924397 
L 74.820897 168.183171 
L 75.791754 168.183171 
L 76.762611 167.665624 
L 77.733467 168.183171 
L 79.675181 168.183171 
L 80.646038 167.924397 
L 82.587752 167.924397 
L 83.558609 167.665624 
L 84.529466 167.924397 
L 87.442036 167.924397 
L 88.412893 167.665624 
L 91.325464 167.924397 
L 92.296321 168.183171 
L 93.267178 167.924397 
L 94.238035 167.924397 
L 95.208892 168.183171 
L 101.034033 168.183171 
L 102.00489 167.924397 
L 102.975747 168.183171 
L 103.946604 167.665624 
L 107.830031 167.665624 
L 108.800888 167.924397 
L 109.771745 167.924397 
L 110.742602 167.665624 
L 112.684316 168.183171 
L 113.655173 168.183171 
L 115.596886 167.924397 
L 116.567743 167.924397 
L 117.5386 168.183171 
L 118.509457 168.183171 
L 119.480314 168.441945 
L 121.422028 167.924397 
L 122.392885 168.183171 
L 123.363742 168.183171 
L 124.334598 168.441945 
L 125.305455 168.183171 
L 127.247169 168.441945 
L 129.188883 168.959493 
L 130.15974 168.700719 
L 131.130597 168.700719 
L 132.101454 168.959493 
L 134.043167 168.441945 
L 135.014024 168.700719 
L 135.984881 168.700719 
L 136.955738 168.183171 
L 137.926595 168.441945 
L 140.839166 168.700719 
L 144.722593 168.441945 
L 145.69345 168.700719 
L 146.664307 167.924397 
L 147.635164 167.924397 
L 148.606021 168.441945 
L 157.343733 167.40685 
L 160.256303 166.630529 
L 161.22716 166.889302 
L 162.198017 166.889302 
L 163.168874 167.148076 
L 164.139731 166.889302 
L 165.110588 167.148076 
L 166.081445 166.889302 
L 168.023159 166.889302 
L 168.994016 166.371755 
L 169.964872 166.630529 
L 170.935729 166.630529 
L 171.906586 166.889302 
L 172.877443 166.889302 
L 174.819157 166.371755 
L 176.760871 166.371755 
L 177.731728 166.112981 
L 178.702584 165.595433 
L 179.673441 165.854207 
L 182.586012 165.854207 
L 184.527726 165.33666 
L 186.46944 165.854207 
L 189.38201 165.854207 
L 190.352867 165.595433 
L 191.323724 165.595433 
L 192.294581 165.077886 
L 194.236295 165.854207 
L 195.207152 165.077886 
L 196.178009 165.33666 
L 198.119722 164.819112 
L 212.682576 164.819112 
L 213.653433 121.862664 
L 214.62429 125.485497 
L 215.595146 120.051247 
L 216.566003 122.121438 
L 217.53686 123.415307 
L 218.507717 119.792474 
L 219.478574 123.67408 
L 220.449431 117.981057 
L 221.420288 120.051247 
L 222.391145 119.5337 
L 223.362002 124.450402 
L 226.274572 119.274926 
L 227.245429 122.638985 
L 228.216286 123.932854 
L 229.187143 123.156533 
L 230.158 123.415307 
L 231.128857 119.792474 
L 232.099714 118.498605 
L 233.070571 121.862664 
L 234.041427 121.345116 
L 236.953998 121.60389 
L 237.924855 122.897759 
L 238.895712 122.638985 
L 239.866569 119.5337 
L 240.837426 121.086342 
L 241.808283 118.757378 
L 245.69171 119.792474 
L 247.633424 124.450402 
L 248.604281 120.310021 
L 249.575138 118.498605 
L 250.545995 120.051247 
L 251.516852 117.46351 
L 252.487708 120.310021 
L 253.458565 117.46351 
L 254.429422 118.757378 
L 255.400279 124.967949 
L 256.371136 115.910867 
L 257.341993 120.568795 
L 258.31285 124.191628 
L 259.283707 119.274926 
L 260.254564 119.792474 
L 261.22542 117.204736 
L 262.196277 119.274926 
L 263.167134 116.945962 
L 264.137991 124.709175 
L 265.108848 122.380211 
L 266.079705 119.274926 
L 267.050562 120.827569 
L 268.021419 119.016152 
L 268.992276 113.840677 
L 269.963133 120.827569 
L 270.933989 119.792474 
L 271.904846 119.5337 
L 272.875703 118.239831 
L 273.84656 119.5337 
L 274.817417 115.910867 
L 275.788274 117.46351 
L 276.759131 117.46351 
L 277.729988 115.393319 
L 278.700845 114.09945 
L 279.671701 113.581903 
L 280.642558 120.051247 
L 281.613415 116.169641 
L 282.584272 117.981057 
L 283.555129 115.652093 
L 284.525986 117.204736 
L 285.496843 116.169641 
L 286.4677 118.498605 
L 287.438557 116.169641 
L 288.409414 121.086342 
L 289.38027 119.274926 
L 290.351127 115.910867 
L 291.321984 117.46351 
L 292.292841 118.239831 
L 293.263698 118.757378 
L 294.234555 118.757378 
L 296.176269 115.652093 
L 299.088839 116.428414 
L 301.030553 121.086342 
L 304.913981 116.687188 
L 305.884838 116.687188 
L 333.068831 90.033488 
L 334.039688 94.432643 
L 335.010544 77.871121 
L 335.981401 77.353573 
L 336.952258 77.094799 
L 337.923115 77.094799 
L 338.893972 77.871121 
L 339.864829 76.836025 
L 340.835686 76.836025 
L 342.7774 77.353573 
L 343.748257 76.836025 
L 344.719113 76.836025 
L 345.68997 76.318478 
L 346.660827 76.836025 
L 347.631684 75.80093 
L 348.602541 76.059704 
L 349.573398 75.80093 
L 350.544255 76.577252 
L 368.019679 75.542156 
L 368.990536 76.059704 
L 370.93225 75.542156 
L 371.903106 76.577252 
L 372.873963 76.318478 
L 373.84482 76.836025 
L 374.815677 75.542156 
L 375.786534 75.80093 
L 377.728248 75.80093 
L 378.699105 76.059704 
L 379.669962 75.283383 
L 380.640818 76.059704 
L 381.611675 74.507061 
L 382.582532 75.542156 
L 385.495103 76.318478 
L 390.349387 75.542156 
L 391.320244 75.542156 
L 392.291101 75.283383 
L 393.261958 75.80093 
L 394.232815 75.024609 
L 395.203672 73.989514 
L 396.174529 75.024609 
L 398.116243 75.024609 
L 399.087099 75.80093 
L 400.057956 75.283383 
L 402.970527 76.059704 
L 403.941384 75.283383 
L 404.912241 75.024609 
L 405.883098 76.318478 
L 406.853955 76.059704 
L 407.824812 76.059704 
L 408.795668 76.577252 
L 409.766525 75.80093 
L 410.737382 76.836025 
L 411.708239 75.80093 
L 412.679096 75.542156 
L 413.649953 75.542156 
L 414.62081 76.318478 
L 415.591667 75.80093 
L 416.562524 75.542156 
L 417.53338 74.765835 
L 419.475094 74.248288 
L 420.445951 74.765835 
L 421.416808 73.989514 
L 423.358522 73.989514 
L 424.329379 74.248288 
L 425.300236 73.213192 
L 426.271093 72.954419 
L 427.241949 73.73074 
L 429.183663 73.73074 
L 430.15452 73.213192 
L 431.125377 74.507061 
L 434.037948 74.507061 
L 435.008805 73.73074 
L 435.979661 73.73074 
L 436.950518 75.024609 
L 437.921375 73.989514 
L 439.863089 74.507061 
L 441.804803 72.954419 
L 442.77566 73.471966 
L 443.746517 73.73074 
L 444.717374 74.507061 
L 447.629944 73.73074 
L 448.600801 73.989514 
L 449.571658 74.507061 
L 450.542515 72.954419 
L 451.513372 73.471966 
L 452.484229 72.436871 
L 453.455086 72.178097 
L 454.425942 71.401776 
L 455.396799 71.919323 
L 456.367656 71.66055 
L 457.338513 72.178097 
L 458.30937 70.884228 
L 459.280227 71.143002 
L 460.251084 70.884228 
L 461.221941 69.849133 
L 463.163655 71.401776 
L 464.134511 73.471966 
L 466.076225 72.954419 
L 467.047082 74.507061 
L 469.959653 73.989514 
L 470.93051 73.989514 
L 471.901367 75.024609 
L 472.872223 75.283383 
L 473.84308 75.283383 
L 474.813937 73.989514 
L 475.784794 74.507061 
L 476.755651 73.989514 
L 477.726508 75.542156 
L 478.697365 76.836025 
L 479.668222 74.507061 
L 479.668222 74.507061 
" clip-path="url(#pce41cdaf0d)" style="fill: none; stroke: #2ca02c; stroke-width: 1.5; stroke-linecap: square"/>
   </g>
   <g id="line2d_33">
    <path d="M 73.85004 169.218266 
L 74.820897 168.700719 
L 75.791754 167.665624 
L 76.762611 166.371755 
L 77.733467 162.748922 
L 78.704324 162.231374 
L 79.675181 162.231374 
L 80.646038 161.9726 
L 81.616895 162.231374 
L 82.587752 161.9726 
L 83.558609 161.9726 
L 84.529466 161.713827 
L 86.47118 161.713827 
L 87.442036 161.9726 
L 92.296321 161.9726 
L 93.267178 162.231374 
L 94.238035 161.9726 
L 95.208892 161.455053 
L 96.179748 161.713827 
L 97.150605 162.231374 
L 98.121462 162.231374 
L 99.092319 161.713827 
L 100.063176 161.9726 
L 101.034033 161.455053 
L 102.00489 161.196279 
L 102.975747 161.455053 
L 103.946604 161.455053 
L 104.917461 161.9726 
L 105.888317 161.713827 
L 106.859174 161.713827 
L 107.830031 162.231374 
L 108.800888 162.231374 
L 110.742602 161.713827 
L 111.713459 161.9726 
L 115.596886 161.9726 
L 116.567743 161.713827 
L 117.5386 161.9726 
L 119.480314 161.9726 
L 120.451171 161.713827 
L 121.422028 161.9726 
L 122.392885 161.713827 
L 123.363742 161.713827 
L 124.334598 161.9726 
L 125.305455 161.713827 
L 127.247169 161.713827 
L 129.188883 161.455053 
L 130.15974 161.455053 
L 131.130597 161.196279 
L 132.101454 161.9726 
L 134.043167 161.9726 
L 135.014024 161.713827 
L 135.984881 161.713827 
L 137.926595 161.196279 
L 143.751736 161.196279 
L 144.722593 160.419958 
L 145.69345 161.196279 
L 146.664307 161.196279 
L 147.635164 161.455053 
L 157.343733 161.455053 
L 158.31459 160.937505 
L 160.256303 160.937505 
L 162.198017 161.455053 
L 163.168874 160.937505 
L 166.081445 160.937505 
L 167.052302 161.455053 
L 168.023159 161.196279 
L 168.994016 161.455053 
L 169.964872 161.455053 
L 170.935729 160.937505 
L 171.906586 161.455053 
L 172.877443 160.678732 
L 173.8483 161.455053 
L 174.819157 161.196279 
L 175.790014 161.713827 
L 176.760871 161.455053 
L 178.702584 161.455053 
L 180.644298 161.9726 
L 182.586012 160.937505 
L 183.556869 161.196279 
L 184.527726 160.678732 
L 185.498583 160.678732 
L 186.46944 161.196279 
L 187.440297 160.937505 
L 188.411153 160.937505 
L 189.38201 160.678732 
L 190.352867 160.937505 
L 192.294581 160.937505 
L 194.236295 160.678732 
L 195.207152 160.937505 
L 197.148865 160.937505 
L 198.119722 160.678732 
L 210.740862 156.020803 
L 212.682576 156.538351 
L 214.62429 155.503256 
L 215.595146 155.76203 
L 216.566003 155.76203 
L 217.53686 155.503256 
L 218.507717 155.503256 
L 219.478574 154.985708 
L 222.391145 155.76203 
L 223.362002 155.503256 
L 226.274572 155.76203 
L 227.245429 155.503256 
L 228.216286 154.985708 
L 229.187143 154.726934 
L 230.158 154.726934 
L 231.128857 154.468161 
L 232.099714 154.468161 
L 233.070571 154.985708 
L 234.041427 154.985708 
L 236.953998 154.468161 
L 238.895712 154.468161 
L 240.837426 153.950613 
L 241.808283 154.468161 
L 245.69171 153.433066 
L 246.662567 152.656744 
L 247.633424 152.39797 
L 248.604281 152.656744 
L 249.575138 152.656744 
L 250.545995 152.915518 
L 251.516852 152.39797 
L 252.487708 151.621649 
L 253.458565 151.362875 
L 254.429422 151.362875 
L 255.400279 150.845328 
L 257.341993 150.32778 
L 259.283707 150.32778 
L 260.254564 150.586554 
L 262.196277 149.551459 
L 263.167134 149.292685 
L 264.137991 149.810233 
L 265.108848 149.810233 
L 266.079705 150.069006 
L 267.050562 150.069006 
L 268.021419 149.551459 
L 268.992276 149.292685 
L 270.933989 149.292685 
L 271.904846 149.551459 
L 272.875703 148.775137 
L 273.84656 149.551459 
L 274.817417 149.292685 
L 275.788274 149.292685 
L 276.759131 148.516364 
L 278.700845 149.033911 
L 279.671701 148.775137 
L 280.642558 148.775137 
L 281.613415 147.998816 
L 282.584272 148.25759 
L 283.555129 147.998816 
L 284.525986 148.25759 
L 285.496843 147.740042 
L 286.4677 147.740042 
L 287.438557 148.25759 
L 288.409414 148.25759 
L 290.351127 146.704947 
L 291.321984 147.222495 
L 292.292841 146.963721 
L 293.263698 146.963721 
L 294.234555 147.481268 
L 296.176269 147.222495 
L 299.088839 146.963721 
L 301.030553 146.1874 
L 304.913981 145.411078 
L 305.884838 145.928626 
L 333.068831 144.634757 
L 334.039688 145.928626 
L 335.010544 145.152304 
L 336.952258 144.634757 
L 337.923115 145.411078 
L 338.893972 144.375983 
L 339.864829 144.893531 
L 340.835686 145.152304 
L 341.806543 144.375983 
L 342.7774 144.893531 
L 344.719113 145.411078 
L 345.68997 144.117209 
L 346.660827 144.375983 
L 347.631684 143.858436 
L 348.602541 144.117209 
L 349.573398 144.117209 
L 350.544255 143.858436 
L 368.019679 145.669852 
L 368.990536 144.634757 
L 370.93225 144.893531 
L 371.903106 144.117209 
L 372.873963 142.564567 
L 373.84482 142.82334 
L 374.815677 141.788245 
L 375.786534 141.788245 
L 376.757391 142.047019 
L 377.728248 142.047019 
L 378.699105 141.529471 
L 379.669962 142.047019 
L 380.640818 141.529471 
L 382.582532 141.529471 
L 385.495103 140.75315 
L 388.407674 140.75315 
L 389.378531 139.976829 
L 390.349387 141.011924 
L 391.320244 140.494376 
L 392.291101 140.235603 
L 393.261958 140.75315 
L 394.232815 140.235603 
L 395.203672 139.976829 
L 396.174529 139.976829 
L 397.145386 140.235603 
L 399.087099 139.718055 
L 400.057956 140.235603 
L 401.028813 139.718055 
L 402.970527 139.718055 
L 403.941384 140.235603 
L 404.912241 139.718055 
L 405.883098 140.235603 
L 406.853955 139.718055 
L 407.824812 140.235603 
L 408.795668 139.976829 
L 409.766525 140.494376 
L 410.737382 140.235603 
L 411.708239 139.459281 
L 412.679096 139.718055 
L 413.649953 140.494376 
L 415.591667 141.011924 
L 416.562524 140.494376 
L 418.504237 140.494376 
L 419.475094 140.235603 
L 420.445951 139.718055 
L 423.358522 139.718055 
L 424.329379 139.976829 
L 425.300236 139.976829 
L 427.241949 138.941734 
L 428.212806 139.718055 
L 429.183663 139.200507 
L 430.15452 139.459281 
L 431.125377 139.200507 
L 434.037948 138.941734 
L 435.008805 139.459281 
L 435.979661 140.494376 
L 437.921375 138.941734 
L 438.892232 139.718055 
L 439.863089 139.718055 
L 441.804803 139.200507 
L 442.77566 139.718055 
L 443.746517 138.941734 
L 444.717374 137.389091 
L 445.68823 136.871543 
L 446.659087 137.389091 
L 447.629944 138.424186 
L 448.600801 138.424186 
L 449.571658 137.647865 
L 450.542515 138.424186 
L 452.484229 137.906638 
L 453.455086 137.389091 
L 454.425942 138.165412 
L 455.396799 137.389091 
L 456.367656 136.353996 
L 457.338513 136.871543 
L 458.30937 137.130317 
L 459.280227 136.353996 
L 460.251084 136.871543 
L 461.221941 136.61277 
L 462.192798 136.61277 
L 463.163655 136.871543 
L 465.105368 136.871543 
L 466.076225 135.318901 
L 469.959653 135.318901 
L 470.93051 134.025032 
L 471.901367 134.025032 
L 472.872223 133.766258 
L 473.84308 133.24871 
L 474.813937 134.283805 
L 475.784794 134.801353 
L 476.755651 135.060127 
L 477.726508 135.836448 
L 478.697365 134.801353 
L 479.668222 134.025032 
L 479.668222 134.025032 
" clip-path="url(#pce41cdaf0d)" style="fill: none; stroke: #d62728; stroke-width: 1.5; stroke-linecap: square"/>
   </g>
   <g id="patch_3">
    <path d="M 53.559131 178.56 
L 53.559131 7.2 
" style="fill: none; stroke: #000000; stroke-width: 0.8; stroke-linejoin: miter; stroke-linecap: square"/>
   </g>
   <g id="patch_4">
    <path d="M 499.959131 178.56 
L 499.959131 7.2 
" style="fill: none; stroke: #000000; stroke-width: 0.8; stroke-linejoin: miter; stroke-linecap: square"/>
   </g>
   <g id="patch_5">
    <path d="M 53.559131 178.56 
L 499.959131 178.56 
" style="fill: none; stroke: #000000; stroke-width: 0.8; stroke-linejoin: miter; stroke-linecap: square"/>
   </g>
   <g id="patch_6">
    <path d="M 53.559131 7.2 
L 499.959131 7.2 
" style="fill: none; stroke: #000000; stroke-width: 0.8; stroke-linejoin: miter; stroke-linecap: square"/>
   </g>
   <g id="legend_1">
    <g id="patch_7">
     <path d="M 60.559131 73.9125 
L 158.801318 73.9125 
Q 160.801318 73.9125 160.801318 71.9125 
L 160.801318 14.2 
Q 160.801318 12.2 158.801318 12.2 
L 60.559131 12.2 
Q 58.559131 12.2 58.559131 14.2 
L 58.559131 71.9125 
Q 58.559131 73.9125 60.559131 73.9125 
z
" style="fill: #ffffff; opacity: 0.8; stroke: #cccccc; stroke-linejoin: miter"/>
    </g>
    <g id="line2d_34">
     <path d="M 62.559131 20.298438 
L 72.559131 20.298438 
L 82.559131 20.298438 
" style="fill: none; stroke: #1f77b4; stroke-width: 1.5; stroke-linecap: square"/>
    </g>
    <g id="text_24">
     <!-- CORP header -->
     <g transform="translate(90.559131 23.798438)scale(0.1 -0.1)">
      <defs>
       <path id="DejaVuSans-43" d="M 4122 4306 
L 4122 3641 
Q 3803 3938 3442 4084 
Q 3081 4231 2675 4231 
Q 1875 4231 1450 3742 
Q 1025 3253 1025 2328 
Q 1025 1406 1450 917 
Q 1875 428 2675 428 
Q 3081 428 3442 575 
Q 3803 722 4122 1019 
L 4122 359 
Q 3791 134 3420 21 
Q 3050 -91 2638 -91 
Q 1578 -91 968 557 
Q 359 1206 359 2328 
Q 359 3453 968 4101 
Q 1578 4750 2638 4750 
Q 3056 4750 3426 4639 
Q 3797 4528 4122 4306 
z
" transform="scale(0.015625)"/>
       <path id="DejaVuSans-52" d="M 2841 2188 
Q 3044 2119 3236 1894 
Q 3428 1669 3622 1275 
L 4263 0 
L 3584 0 
L 2988 1197 
Q 2756 1666 2539 1819 
Q 2322 1972 1947 1972 
L 1259 1972 
L 1259 0 
L 628 0 
L 628 4666 
L 2053 4666 
Q 2853 4666 3247 4331 
Q 3641 3997 3641 3322 
Q 3641 2881 3436 2590 
Q 3231 2300 2841 2188 
z
M 1259 4147 
L 1259 2491 
L 2053 2491 
Q 2509 2491 2742 2702 
Q 2975 2913 2975 3322 
Q 2975 3731 2742 3939 
Q 2509 4147 2053 4147 
L 1259 4147 
z
" transform="scale(0.015625)"/>
       <path id="DejaVuSans-50" d="M 1259 4147 
L 1259 2394 
L 2053 2394 
Q 2494 2394 2734 2622 
Q 2975 2850 2975 3272 
Q 2975 3691 2734 3919 
Q 2494 4147 2053 4147 
L 1259 4147 
z
M 628 4666 
L 2053 4666 
Q 2838 4666 3239 4311 
Q 3641 3956 3641 3272 
Q 3641 2581 3239 2228 
Q 2838 1875 2053 1875 
L 1259 1875 
L 1259 0 
L 628 0 
L 628 4666 
z
" transform="scale(0.015625)"/>
       <path id="DejaVuSans-68" d="M 3513 2113 
L 3513 0 
L 2938 0 
L 2938 2094 
Q 2938 2591 2744 2837 
Q 2550 3084 2163 3084 
Q 1697 3084 1428 2787 
Q 1159 2491 1159 1978 
L 1159 0 
L 581 0 
L 581 4863 
L 1159 4863 
L 1159 2956 
Q 1366 3272 1645 3428 
Q 1925 3584 2291 3584 
Q 2894 3584 3203 3211 
Q 3513 2838 3513 2113 
z
" transform="scale(0.015625)"/>
       <path id="DejaVuSans-64" d="M 2906 2969 
L 2906 4863 
L 3481 4863 
L 3481 0 
L 2906 0 
L 2906 525 
Q 2725 213 2448 61 
Q 2172 -91 1784 -91 
Q 1150 -91 751 415 
Q 353 922 353 1747 
Q 353 2572 751 3078 
Q 1150 3584 1784 3584 
Q 2172 3584 2448 3432 
Q 2725 3281 2906 2969 
z
M 947 1747 
Q 947 1113 1208 752 
Q 1469 391 1925 391 
Q 2381 391 2643 752 
Q 2906 1113 2906 1747 
Q 2906 2381 2643 2742 
Q 2381 3103 1925 3103 
Q 1469 3103 1208 2742 
Q 947 2381 947 1747 
z
" transform="scale(0.015625)"/>
      </defs>
      <use xlink:href="#DejaVuSans-43"/>
      <use xlink:href="#DejaVuSans-4f" x="69.824219"/>
      <use xlink:href="#DejaVuSans-52" x="148.535156"/>
      <use xlink:href="#DejaVuSans-50" x="218.017578"/>
      <use xlink:href="#DejaVuSans-20" x="278.320312"/>
      <use xlink:href="#DejaVuSans-68" x="310.107422"/>
      <use xlink:href="#DejaVuSans-65" x="373.486328"/>
      <use xlink:href="#DejaVuSans-61" x="435.009766"/>
      <use xlink:href="#DejaVuSans-64" x="496.289062"/>
      <use xlink:href="#DejaVuSans-65" x="559.765625"/>
      <use xlink:href="#DejaVuSans-72" x="621.289062"/>
     </g>
    </g>
    <g id="line2d_35">
     <path d="M 62.559131 34.976562 
L 72.559131 34.976562 
L 82.559131 34.976562 
" style="fill: none; stroke: #ff7f0e; stroke-width: 1.5; stroke-linecap: square"/>
    </g>
    <g id="text_25">
     <!-- same-site -->
     <g transform="translate(90.559131 38.476562)scale(0.1 -0.1)">
      <use xlink:href="#DejaVuSans-73"/>
      <use xlink:href="#DejaVuSans-61" x="52.099609"/>
      <use xlink:href="#DejaVuSans-6d" x="113.378906"/>
      <use xlink:href="#DejaVuSans-65" x="210.791016"/>
      <use xlink:href="#DejaVuSans-2d" x="272.314453"/>
      <use xlink:href="#DejaVuSans-73" x="308.398438"/>
      <use xlink:href="#DejaVuSans-69" x="360.498047"/>
      <use xlink:href="#DejaVuSans-74" x="388.28125"/>
      <use xlink:href="#DejaVuSans-65" x="427.490234"/>
     </g>
    </g>
    <g id="line2d_36">
     <path d="M 62.559131 49.654687 
L 72.559131 49.654687 
L 82.559131 49.654687 
" style="fill: none; stroke: #2ca02c; stroke-width: 1.5; stroke-linecap: square"/>
    </g>
    <g id="text_26">
     <!-- same-origin -->
     <g transform="translate(90.559131 53.154687)scale(0.1 -0.1)">
      <use xlink:href="#DejaVuSans-73"/>
      <use xlink:href="#DejaVuSans-61" x="52.099609"/>
      <use xlink:href="#DejaVuSans-6d" x="113.378906"/>
      <use xlink:href="#DejaVuSans-65" x="210.791016"/>
      <use xlink:href="#DejaVuSans-2d" x="272.314453"/>
      <use xlink:href="#DejaVuSans-6f" x="310.273438"/>
      <use xlink:href="#DejaVuSans-72" x="371.455078"/>
      <use xlink:href="#DejaVuSans-69" x="412.568359"/>
      <use xlink:href="#DejaVuSans-67" x="440.351562"/>
      <use xlink:href="#DejaVuSans-69" x="503.828125"/>
      <use xlink:href="#DejaVuSans-6e" x="531.611328"/>
     </g>
    </g>
    <g id="line2d_37">
     <path d="M 62.559131 64.332813 
L 72.559131 64.332813 
L 82.559131 64.332813 
" style="fill: none; stroke: #d62728; stroke-width: 1.5; stroke-linecap: square"/>
    </g>
    <g id="text_27">
     <!-- cross-origin -->
     <g transform="translate(90.559131 67.832813)scale(0.1 -0.1)">
      <use xlink:href="#DejaVuSans-63"/>
      <use xlink:href="#DejaVuSans-72" x="54.980469"/>
      <use xlink:href="#DejaVuSans-6f" x="93.84375"/>
      <use xlink:href="#DejaVuSans-73" x="155.025391"/>
      <use xlink:href="#DejaVuSans-73" x="207.125"/>
      <use xlink:href="#DejaVuSans-2d" x="259.224609"/>
      <use xlink:href="#DejaVuSans-6f" x="297.183594"/>
      <use xlink:href="#DejaVuSans-72" x="358.365234"/>
      <use xlink:href="#DejaVuSans-69" x="399.478516"/>
      <use xlink:href="#DejaVuSans-67" x="427.261719"/>
      <use xlink:href="#DejaVuSans-69" x="490.738281"/>
      <use xlink:href="#DejaVuSans-6e" x="518.521484"/>
     </g>
    </g>
   </g>
  </g>
 </g>
 <defs>
  <clipPath id="pce41cdaf0d">
   <rect x="53.559131" y="7.2" width="446.4" height="171.36"/>
  </clipPath>
 </defs>
</svg>
