<?xml version="1.0" encoding="utf-8" standalone="no"?>
<!DOCTYPE svg PUBLIC "-//W3C//DTD SVG 1.1//EN"
  "http://www.w3.org/Graphics/SVG/1.1/DTD/svg11.dtd">
<svg xmlns:xlink="http://www.w3.org/1999/xlink" width="506.732901pt" height="252.30369pt" viewBox="0 0 506.732901 252.30369" xmlns="http://www.w3.org/2000/svg" version="1.1">
 <metadata>
  <rdf:RDF xmlns:dc="http://purl.org/dc/elements/1.1/" xmlns:cc="http://creativecommons.org/ns#" xmlns:rdf="http://www.w3.org/1999/02/22-rdf-syntax-ns#">
   <cc:Work>
    <dc:type rdf:resource="http://purl.org/dc/dcmitype/StillImage"/>
    <dc:date>2022-02-13T18:44:43.450454</dc:date>
    <dc:format>image/svg+xml</dc:format>
    <dc:creator>
     <cc:Agent>
      <dc:title>Matplotlib v3.5.1, https://matplotlib.org/</dc:title>
     </cc:Agent>
    </dc:creator>
   </cc:Work>
  </rdf:RDF>
 </metadata>
 <defs>
  <style type="text/css">*{stroke-linejoin: round; stroke-linecap: butt}</style>
 </defs>
 <g id="figure_1">
  <g id="patch_1">
   <path d="M 0 252.30369 
L 506.732901 252.30369 
L 506.732901 -0 
L 0 -0 
z
" style="fill: #ffffff"/>
  </g>
  <g id="axes_1">
   <g id="patch_2">
    <path d="M 53.132901 196.776875 
L 499.532901 196.776875 
L 499.532901 25.416875 
L 53.132901 25.416875 
z
" style="fill: #ffffff"/>
   </g>
   <g id="matplotlib.axis_1">
    <g id="xtick_1">
     <g id="line2d_1">
      <defs>
       <path id="m8b9d1ae9fa" d="M 0 0 
L 0 3.5 
" style="stroke: #000000; stroke-width: 0.8"/>
      </defs>
      <g>
       <use xlink:href="#m8b9d1ae9fa" x="68.024899" y="196.776875" style="stroke: #000000; stroke-width: 0.8"/>
      </g>
     </g>
     <g id="text_1">
      <!-- 2020-Nov-01 -->
      <g transform="translate(10.999219 242.680752)rotate(-30)scale(0.1 -0.1)">
       <defs>
        <path id="DejaVuSans-32" d="M 1228 531 
L 3431 531 
L 3431 0 
L 469 0 
L 469 531 
Q 828 903 1448 1529 
Q 2069 2156 2228 2338 
Q 2531 2678 2651 2914 
Q 2772 3150 2772 3378 
Q 2772 3750 2511 3984 
Q 2250 4219 1831 4219 
Q 1534 4219 1204 4116 
Q 875 4013 500 3803 
L 500 4441 
Q 881 4594 1212 4672 
Q 1544 4750 1819 4750 
Q 2544 4750 2975 4387 
Q 3406 4025 3406 3419 
Q 3406 3131 3298 2873 
Q 3191 2616 2906 2266 
Q 2828 2175 2409 1742 
Q 1991 1309 1228 531 
z
" transform="scale(0.015625)"/>
        <path id="DejaVuSans-30" d="M 2034 4250 
Q 1547 4250 1301 3770 
Q 1056 3291 1056 2328 
Q 1056 1369 1301 889 
Q 1547 409 2034 409 
Q 2525 409 2770 889 
Q 3016 1369 3016 2328 
Q 3016 3291 2770 3770 
Q 2525 4250 2034 4250 
z
M 2034 4750 
Q 2819 4750 3233 4129 
Q 3647 3509 3647 2328 
Q 3647 1150 3233 529 
Q 2819 -91 2034 -91 
Q 1250 -91 836 529 
Q 422 1150 422 2328 
Q 422 3509 836 4129 
Q 1250 4750 2034 4750 
z
" transform="scale(0.015625)"/>
        <path id="DejaVuSans-2d" d="M 313 2009 
L 1997 2009 
L 1997 1497 
L 313 1497 
L 313 2009 
z
" transform="scale(0.015625)"/>
        <path id="DejaVuSans-4e" d="M 628 4666 
L 1478 4666 
L 3547 763 
L 3547 4666 
L 4159 4666 
L 4159 0 
L 3309 0 
L 1241 3903 
L 1241 0 
L 628 0 
L 628 4666 
z
" transform="scale(0.015625)"/>
        <path id="DejaVuSans-6f" d="M 1959 3097 
Q 1497 3097 1228 2736 
Q 959 2375 959 1747 
Q 959 1119 1226 758 
Q 1494 397 1959 397 
Q 2419 397 2687 759 
Q 2956 1122 2956 1747 
Q 2956 2369 2687 2733 
Q 2419 3097 1959 3097 
z
M 1959 3584 
Q 2709 3584 3137 3096 
Q 3566 2609 3566 1747 
Q 3566 888 3137 398 
Q 2709 -91 1959 -91 
Q 1206 -91 779 398 
Q 353 888 353 1747 
Q 353 2609 779 3096 
Q 1206 3584 1959 3584 
z
" transform="scale(0.015625)"/>
        <path id="DejaVuSans-76" d="M 191 3500 
L 800 3500 
L 1894 563 
L 2988 3500 
L 3597 3500 
L 2284 0 
L 1503 0 
L 191 3500 
z
" transform="scale(0.015625)"/>
        <path id="DejaVuSans-31" d="M 794 531 
L 1825 531 
L 1825 4091 
L 703 3866 
L 703 4441 
L 1819 4666 
L 2450 4666 
L 2450 531 
L 3481 531 
L 3481 0 
L 794 0 
L 794 531 
z
" transform="scale(0.015625)"/>
       </defs>
       <use xlink:href="#DejaVuSans-32"/>
       <use xlink:href="#DejaVuSans-30" x="63.623047"/>
       <use xlink:href="#DejaVuSans-32" x="127.246094"/>
       <use xlink:href="#DejaVuSans-30" x="190.869141"/>
       <use xlink:href="#DejaVuSans-2d" x="254.492188"/>
       <use xlink:href="#DejaVuSans-4e" x="290.576172"/>
       <use xlink:href="#DejaVuSans-6f" x="365.380859"/>
       <use xlink:href="#DejaVuSans-76" x="426.5625"/>
       <use xlink:href="#DejaVuSans-2d" x="483.117188"/>
       <use xlink:href="#DejaVuSans-30" x="519.201172"/>
       <use xlink:href="#DejaVuSans-31" x="582.824219"/>
      </g>
     </g>
    </g>
    <g id="xtick_2">
     <g id="line2d_2">
      <g>
       <use xlink:href="#m8b9d1ae9fa" x="95.019456" y="196.776875" style="stroke: #000000; stroke-width: 0.8"/>
      </g>
     </g>
     <g id="text_2">
      <!-- 2020-Dec-01 -->
      <g transform="translate(37.911233 242.728409)rotate(-30)scale(0.1 -0.1)">
       <defs>
        <path id="DejaVuSans-44" d="M 1259 4147 
L 1259 519 
L 2022 519 
Q 2988 519 3436 956 
Q 3884 1394 3884 2338 
Q 3884 3275 3436 3711 
Q 2988 4147 2022 4147 
L 1259 4147 
z
M 628 4666 
L 1925 4666 
Q 3281 4666 3915 4102 
Q 4550 3538 4550 2338 
Q 4550 1131 3912 565 
Q 3275 0 1925 0 
L 628 0 
L 628 4666 
z
" transform="scale(0.015625)"/>
        <path id="DejaVuSans-65" d="M 3597 1894 
L 3597 1613 
L 953 1613 
Q 991 1019 1311 708 
Q 1631 397 2203 397 
Q 2534 397 2845 478 
Q 3156 559 3463 722 
L 3463 178 
Q 3153 47 2828 -22 
Q 2503 -91 2169 -91 
Q 1331 -91 842 396 
Q 353 884 353 1716 
Q 353 2575 817 3079 
Q 1281 3584 2069 3584 
Q 2775 3584 3186 3129 
Q 3597 2675 3597 1894 
z
M 3022 2063 
Q 3016 2534 2758 2815 
Q 2500 3097 2075 3097 
Q 1594 3097 1305 2825 
Q 1016 2553 972 2059 
L 3022 2063 
z
" transform="scale(0.015625)"/>
        <path id="DejaVuSans-63" d="M 3122 3366 
L 3122 2828 
Q 2878 2963 2633 3030 
Q 2388 3097 2138 3097 
Q 1578 3097 1268 2742 
Q 959 2388 959 1747 
Q 959 1106 1268 751 
Q 1578 397 2138 397 
Q 2388 397 2633 464 
Q 2878 531 3122 666 
L 3122 134 
Q 2881 22 2623 -34 
Q 2366 -91 2075 -91 
Q 1284 -91 818 406 
Q 353 903 353 1747 
Q 353 2603 823 3093 
Q 1294 3584 2113 3584 
Q 2378 3584 2631 3529 
Q 2884 3475 3122 3366 
z
" transform="scale(0.015625)"/>
       </defs>
       <use xlink:href="#DejaVuSans-32"/>
       <use xlink:href="#DejaVuSans-30" x="63.623047"/>
       <use xlink:href="#DejaVuSans-32" x="127.246094"/>
       <use xlink:href="#DejaVuSans-30" x="190.869141"/>
       <use xlink:href="#DejaVuSans-2d" x="254.492188"/>
       <use xlink:href="#DejaVuSans-44" x="290.576172"/>
       <use xlink:href="#DejaVuSans-65" x="367.578125"/>
       <use xlink:href="#DejaVuSans-63" x="429.101562"/>
       <use xlink:href="#DejaVuSans-2d" x="484.082031"/>
       <use xlink:href="#DejaVuSans-30" x="520.166016"/>
       <use xlink:href="#DejaVuSans-31" x="583.789062"/>
      </g>
     </g>
    </g>
    <g id="xtick_3">
     <g id="line2d_3">
      <g>
       <use xlink:href="#m8b9d1ae9fa" x="122.913832" y="196.776875" style="stroke: #000000; stroke-width: 0.8"/>
      </g>
     </g>
     <g id="text_3">
      <!-- 2021-Jan-01 -->
      <g transform="translate(68.727092 241.04169)rotate(-30)scale(0.1 -0.1)">
       <defs>
        <path id="DejaVuSans-4a" d="M 628 4666 
L 1259 4666 
L 1259 325 
Q 1259 -519 939 -900 
Q 619 -1281 -91 -1281 
L -331 -1281 
L -331 -750 
L -134 -750 
Q 284 -750 456 -515 
Q 628 -281 628 325 
L 628 4666 
z
" transform="scale(0.015625)"/>
        <path id="DejaVuSans-61" d="M 2194 1759 
Q 1497 1759 1228 1600 
Q 959 1441 959 1056 
Q 959 750 1161 570 
Q 1363 391 1709 391 
Q 2188 391 2477 730 
Q 2766 1069 2766 1631 
L 2766 1759 
L 2194 1759 
z
M 3341 1997 
L 3341 0 
L 2766 0 
L 2766 531 
Q 2569 213 2275 61 
Q 1981 -91 1556 -91 
Q 1019 -91 701 211 
Q 384 513 384 1019 
Q 384 1609 779 1909 
Q 1175 2209 1959 2209 
L 2766 2209 
L 2766 2266 
Q 2766 2663 2505 2880 
Q 2244 3097 1772 3097 
Q 1472 3097 1187 3025 
Q 903 2953 641 2809 
L 641 3341 
Q 956 3463 1253 3523 
Q 1550 3584 1831 3584 
Q 2591 3584 2966 3190 
Q 3341 2797 3341 1997 
z
" transform="scale(0.015625)"/>
        <path id="DejaVuSans-6e" d="M 3513 2113 
L 3513 0 
L 2938 0 
L 2938 2094 
Q 2938 2591 2744 2837 
Q 2550 3084 2163 3084 
Q 1697 3084 1428 2787 
Q 1159 2491 1159 1978 
L 1159 0 
L 581 0 
L 581 3500 
L 1159 3500 
L 1159 2956 
Q 1366 3272 1645 3428 
Q 1925 3584 2291 3584 
Q 2894 3584 3203 3211 
Q 3513 2838 3513 2113 
z
" transform="scale(0.015625)"/>
       </defs>
       <use xlink:href="#DejaVuSans-32"/>
       <use xlink:href="#DejaVuSans-30" x="63.623047"/>
       <use xlink:href="#DejaVuSans-32" x="127.246094"/>
       <use xlink:href="#DejaVuSans-31" x="190.869141"/>
       <use xlink:href="#DejaVuSans-2d" x="254.492188"/>
       <use xlink:href="#DejaVuSans-4a" x="296.201172"/>
       <use xlink:href="#DejaVuSans-61" x="325.693359"/>
       <use xlink:href="#DejaVuSans-6e" x="386.972656"/>
       <use xlink:href="#DejaVuSans-2d" x="450.351562"/>
       <use xlink:href="#DejaVuSans-30" x="486.435547"/>
       <use xlink:href="#DejaVuSans-31" x="550.058594"/>
      </g>
     </g>
    </g>
    <g id="xtick_4">
     <g id="line2d_4">
      <g>
       <use xlink:href="#m8b9d1ae9fa" x="150.808208" y="196.776875" style="stroke: #000000; stroke-width: 0.8"/>
      </g>
     </g>
     <g id="text_4">
      <!-- 2021-Feb-01 -->
      <g transform="translate(95.127574 241.90419)rotate(-30)scale(0.1 -0.1)">
       <defs>
        <path id="DejaVuSans-46" d="M 628 4666 
L 3309 4666 
L 3309 4134 
L 1259 4134 
L 1259 2759 
L 3109 2759 
L 3109 2228 
L 1259 2228 
L 1259 0 
L 628 0 
L 628 4666 
z
" transform="scale(0.015625)"/>
        <path id="DejaVuSans-62" d="M 3116 1747 
Q 3116 2381 2855 2742 
Q 2594 3103 2138 3103 
Q 1681 3103 1420 2742 
Q 1159 2381 1159 1747 
Q 1159 1113 1420 752 
Q 1681 391 2138 391 
Q 2594 391 2855 752 
Q 3116 1113 3116 1747 
z
M 1159 2969 
Q 1341 3281 1617 3432 
Q 1894 3584 2278 3584 
Q 2916 3584 3314 3078 
Q 3713 2572 3713 1747 
Q 3713 922 3314 415 
Q 2916 -91 2278 -91 
Q 1894 -91 1617 61 
Q 1341 213 1159 525 
L 1159 0 
L 581 0 
L 581 4863 
L 1159 4863 
L 1159 2969 
z
" transform="scale(0.015625)"/>
       </defs>
       <use xlink:href="#DejaVuSans-32"/>
       <use xlink:href="#DejaVuSans-30" x="63.623047"/>
       <use xlink:href="#DejaVuSans-32" x="127.246094"/>
       <use xlink:href="#DejaVuSans-31" x="190.869141"/>
       <use xlink:href="#DejaVuSans-2d" x="254.492188"/>
       <use xlink:href="#DejaVuSans-46" x="290.576172"/>
       <use xlink:href="#DejaVuSans-65" x="342.595703"/>
       <use xlink:href="#DejaVuSans-62" x="404.119141"/>
       <use xlink:href="#DejaVuSans-2d" x="467.595703"/>
       <use xlink:href="#DejaVuSans-30" x="503.679688"/>
       <use xlink:href="#DejaVuSans-31" x="567.302734"/>
      </g>
     </g>
    </g>
    <g id="xtick_5">
     <g id="line2d_5">
      <g>
       <use xlink:href="#m8b9d1ae9fa" x="176.003129" y="196.776875" style="stroke: #000000; stroke-width: 0.8"/>
      </g>
     </g>
     <g id="text_5">
      <!-- 2021-Mar-01 -->
      <g transform="translate(119.866478 242.167471)rotate(-30)scale(0.1 -0.1)">
       <defs>
        <path id="DejaVuSans-4d" d="M 628 4666 
L 1569 4666 
L 2759 1491 
L 3956 4666 
L 4897 4666 
L 4897 0 
L 4281 0 
L 4281 4097 
L 3078 897 
L 2444 897 
L 1241 4097 
L 1241 0 
L 628 0 
L 628 4666 
z
" transform="scale(0.015625)"/>
        <path id="DejaVuSans-72" d="M 2631 2963 
Q 2534 3019 2420 3045 
Q 2306 3072 2169 3072 
Q 1681 3072 1420 2755 
Q 1159 2438 1159 1844 
L 1159 0 
L 581 0 
L 581 3500 
L 1159 3500 
L 1159 2956 
Q 1341 3275 1631 3429 
Q 1922 3584 2338 3584 
Q 2397 3584 2469 3576 
Q 2541 3569 2628 3553 
L 2631 2963 
z
" transform="scale(0.015625)"/>
       </defs>
       <use xlink:href="#DejaVuSans-32"/>
       <use xlink:href="#DejaVuSans-30" x="63.623047"/>
       <use xlink:href="#DejaVuSans-32" x="127.246094"/>
       <use xlink:href="#DejaVuSans-31" x="190.869141"/>
       <use xlink:href="#DejaVuSans-2d" x="254.492188"/>
       <use xlink:href="#DejaVuSans-4d" x="290.576172"/>
       <use xlink:href="#DejaVuSans-61" x="376.855469"/>
       <use xlink:href="#DejaVuSans-72" x="438.134766"/>
       <use xlink:href="#DejaVuSans-2d" x="472.873047"/>
       <use xlink:href="#DejaVuSans-30" x="508.957031"/>
       <use xlink:href="#DejaVuSans-31" x="572.580078"/>
      </g>
     </g>
    </g>
    <g id="xtick_6">
     <g id="line2d_6">
      <g>
       <use xlink:href="#m8b9d1ae9fa" x="203.897505" y="196.776875" style="stroke: #000000; stroke-width: 0.8"/>
      </g>
     </g>
     <g id="text_6">
      <!-- 2021-Apr-01 -->
      <g transform="translate(149.312934 241.271377)rotate(-30)scale(0.1 -0.1)">
       <defs>
        <path id="DejaVuSans-41" d="M 2188 4044 
L 1331 1722 
L 3047 1722 
L 2188 4044 
z
M 1831 4666 
L 2547 4666 
L 4325 0 
L 3669 0 
L 3244 1197 
L 1141 1197 
L 716 0 
L 50 0 
L 1831 4666 
z
" transform="scale(0.015625)"/>
        <path id="DejaVuSans-70" d="M 1159 525 
L 1159 -1331 
L 581 -1331 
L 581 3500 
L 1159 3500 
L 1159 2969 
Q 1341 3281 1617 3432 
Q 1894 3584 2278 3584 
Q 2916 3584 3314 3078 
Q 3713 2572 3713 1747 
Q 3713 922 3314 415 
Q 2916 -91 2278 -91 
Q 1894 -91 1617 61 
Q 1341 213 1159 525 
z
M 3116 1747 
Q 3116 2381 2855 2742 
Q 2594 3103 2138 3103 
Q 1681 3103 1420 2742 
Q 1159 2381 1159 1747 
Q 1159 1113 1420 752 
Q 1681 391 2138 391 
Q 2594 391 2855 752 
Q 3116 1113 3116 1747 
z
" transform="scale(0.015625)"/>
       </defs>
       <use xlink:href="#DejaVuSans-32"/>
       <use xlink:href="#DejaVuSans-30" x="63.623047"/>
       <use xlink:href="#DejaVuSans-32" x="127.246094"/>
       <use xlink:href="#DejaVuSans-31" x="190.869141"/>
       <use xlink:href="#DejaVuSans-2d" x="254.492188"/>
       <use xlink:href="#DejaVuSans-41" x="288.326172"/>
       <use xlink:href="#DejaVuSans-70" x="356.734375"/>
       <use xlink:href="#DejaVuSans-72" x="420.210938"/>
       <use xlink:href="#DejaVuSans-2d" x="454.949219"/>
       <use xlink:href="#DejaVuSans-30" x="491.033203"/>
       <use xlink:href="#DejaVuSans-31" x="554.65625"/>
      </g>
     </g>
    </g>
    <g id="xtick_7">
     <g id="line2d_7">
      <g>
       <use xlink:href="#m8b9d1ae9fa" x="230.892062" y="196.776875" style="stroke: #000000; stroke-width: 0.8"/>
      </g>
     </g>
     <g id="text_7">
      <!-- 2021-May-01 -->
      <g transform="translate(172.789264 243.302627)rotate(-30)scale(0.1 -0.1)">
       <defs>
        <path id="DejaVuSans-79" d="M 2059 -325 
Q 1816 -950 1584 -1140 
Q 1353 -1331 966 -1331 
L 506 -1331 
L 506 -850 
L 844 -850 
Q 1081 -850 1212 -737 
Q 1344 -625 1503 -206 
L 1606 56 
L 191 3500 
L 800 3500 
L 1894 763 
L 2988 3500 
L 3597 3500 
L 2059 -325 
z
" transform="scale(0.015625)"/>
       </defs>
       <use xlink:href="#DejaVuSans-32"/>
       <use xlink:href="#DejaVuSans-30" x="63.623047"/>
       <use xlink:href="#DejaVuSans-32" x="127.246094"/>
       <use xlink:href="#DejaVuSans-31" x="190.869141"/>
       <use xlink:href="#DejaVuSans-2d" x="254.492188"/>
       <use xlink:href="#DejaVuSans-4d" x="290.576172"/>
       <use xlink:href="#DejaVuSans-61" x="376.855469"/>
       <use xlink:href="#DejaVuSans-79" x="438.134766"/>
       <use xlink:href="#DejaVuSans-2d" x="495.564453"/>
       <use xlink:href="#DejaVuSans-30" x="531.648438"/>
       <use xlink:href="#DejaVuSans-31" x="595.271484"/>
      </g>
     </g>
    </g>
    <g id="xtick_8">
     <g id="line2d_8">
      <g>
       <use xlink:href="#m8b9d1ae9fa" x="258.786439" y="196.776875" style="stroke: #000000; stroke-width: 0.8"/>
      </g>
     </g>
     <g id="text_8">
      <!-- 2021-Jun-01 -->
      <g transform="translate(204.418374 241.146377)rotate(-30)scale(0.1 -0.1)">
       <defs>
        <path id="DejaVuSans-75" d="M 544 1381 
L 544 3500 
L 1119 3500 
L 1119 1403 
Q 1119 906 1312 657 
Q 1506 409 1894 409 
Q 2359 409 2629 706 
Q 2900 1003 2900 1516 
L 2900 3500 
L 3475 3500 
L 3475 0 
L 2900 0 
L 2900 538 
Q 2691 219 2414 64 
Q 2138 -91 1772 -91 
Q 1169 -91 856 284 
Q 544 659 544 1381 
z
M 1991 3584 
L 1991 3584 
z
" transform="scale(0.015625)"/>
       </defs>
       <use xlink:href="#DejaVuSans-32"/>
       <use xlink:href="#DejaVuSans-30" x="63.623047"/>
       <use xlink:href="#DejaVuSans-32" x="127.246094"/>
       <use xlink:href="#DejaVuSans-31" x="190.869141"/>
       <use xlink:href="#DejaVuSans-2d" x="254.492188"/>
       <use xlink:href="#DejaVuSans-4a" x="296.201172"/>
       <use xlink:href="#DejaVuSans-75" x="325.693359"/>
       <use xlink:href="#DejaVuSans-6e" x="389.072266"/>
       <use xlink:href="#DejaVuSans-2d" x="452.451172"/>
       <use xlink:href="#DejaVuSans-30" x="488.535156"/>
       <use xlink:href="#DejaVuSans-31" x="552.158203"/>
      </g>
     </g>
    </g>
    <g id="xtick_9">
     <g id="line2d_9">
      <g>
       <use xlink:href="#m8b9d1ae9fa" x="285.780996" y="196.776875" style="stroke: #000000; stroke-width: 0.8"/>
      </g>
     </g>
     <g id="text_9">
      <!-- 2021-Jul-01 -->
      <g transform="translate(234.495441 239.36669)rotate(-30)scale(0.1 -0.1)">
       <defs>
        <path id="DejaVuSans-6c" d="M 603 4863 
L 1178 4863 
L 1178 0 
L 603 0 
L 603 4863 
z
" transform="scale(0.015625)"/>
       </defs>
       <use xlink:href="#DejaVuSans-32"/>
       <use xlink:href="#DejaVuSans-30" x="63.623047"/>
       <use xlink:href="#DejaVuSans-32" x="127.246094"/>
       <use xlink:href="#DejaVuSans-31" x="190.869141"/>
       <use xlink:href="#DejaVuSans-2d" x="254.492188"/>
       <use xlink:href="#DejaVuSans-4a" x="296.201172"/>
       <use xlink:href="#DejaVuSans-75" x="325.693359"/>
       <use xlink:href="#DejaVuSans-6c" x="389.072266"/>
       <use xlink:href="#DejaVuSans-2d" x="416.855469"/>
       <use xlink:href="#DejaVuSans-30" x="452.939453"/>
       <use xlink:href="#DejaVuSans-31" x="516.5625"/>
      </g>
     </g>
    </g>
    <g id="xtick_10">
     <g id="line2d_10">
      <g>
       <use xlink:href="#m8b9d1ae9fa" x="313.675372" y="196.776875" style="stroke: #000000; stroke-width: 0.8"/>
      </g>
     </g>
     <g id="text_10">
      <!-- 2021-Aug-01 -->
      <g transform="translate(256.610451 242.703409)rotate(-30)scale(0.1 -0.1)">
       <defs>
        <path id="DejaVuSans-67" d="M 2906 1791 
Q 2906 2416 2648 2759 
Q 2391 3103 1925 3103 
Q 1463 3103 1205 2759 
Q 947 2416 947 1791 
Q 947 1169 1205 825 
Q 1463 481 1925 481 
Q 2391 481 2648 825 
Q 2906 1169 2906 1791 
z
M 3481 434 
Q 3481 -459 3084 -895 
Q 2688 -1331 1869 -1331 
Q 1566 -1331 1297 -1286 
Q 1028 -1241 775 -1147 
L 775 -588 
Q 1028 -725 1275 -790 
Q 1522 -856 1778 -856 
Q 2344 -856 2625 -561 
Q 2906 -266 2906 331 
L 2906 616 
Q 2728 306 2450 153 
Q 2172 0 1784 0 
Q 1141 0 747 490 
Q 353 981 353 1791 
Q 353 2603 747 3093 
Q 1141 3584 1784 3584 
Q 2172 3584 2450 3431 
Q 2728 3278 2906 2969 
L 2906 3500 
L 3481 3500 
L 3481 434 
z
" transform="scale(0.015625)"/>
       </defs>
       <use xlink:href="#DejaVuSans-32"/>
       <use xlink:href="#DejaVuSans-30" x="63.623047"/>
       <use xlink:href="#DejaVuSans-32" x="127.246094"/>
       <use xlink:href="#DejaVuSans-31" x="190.869141"/>
       <use xlink:href="#DejaVuSans-2d" x="254.492188"/>
       <use xlink:href="#DejaVuSans-41" x="288.326172"/>
       <use xlink:href="#DejaVuSans-75" x="356.734375"/>
       <use xlink:href="#DejaVuSans-67" x="420.113281"/>
       <use xlink:href="#DejaVuSans-2d" x="483.589844"/>
       <use xlink:href="#DejaVuSans-30" x="519.673828"/>
       <use xlink:href="#DejaVuSans-31" x="583.296875"/>
      </g>
     </g>
    </g>
    <g id="xtick_11">
     <g id="line2d_11">
      <g>
       <use xlink:href="#m8b9d1ae9fa" x="341.569748" y="196.776875" style="stroke: #000000; stroke-width: 0.8"/>
      </g>
     </g>
     <g id="text_11">
      <!-- 2021-Sep-01 -->
      <g transform="translate(284.895891 242.477627)rotate(-30)scale(0.1 -0.1)">
       <defs>
        <path id="DejaVuSans-53" d="M 3425 4513 
L 3425 3897 
Q 3066 4069 2747 4153 
Q 2428 4238 2131 4238 
Q 1616 4238 1336 4038 
Q 1056 3838 1056 3469 
Q 1056 3159 1242 3001 
Q 1428 2844 1947 2747 
L 2328 2669 
Q 3034 2534 3370 2195 
Q 3706 1856 3706 1288 
Q 3706 609 3251 259 
Q 2797 -91 1919 -91 
Q 1588 -91 1214 -16 
Q 841 59 441 206 
L 441 856 
Q 825 641 1194 531 
Q 1563 422 1919 422 
Q 2459 422 2753 634 
Q 3047 847 3047 1241 
Q 3047 1584 2836 1778 
Q 2625 1972 2144 2069 
L 1759 2144 
Q 1053 2284 737 2584 
Q 422 2884 422 3419 
Q 422 4038 858 4394 
Q 1294 4750 2059 4750 
Q 2388 4750 2728 4690 
Q 3069 4631 3425 4513 
z
" transform="scale(0.015625)"/>
       </defs>
       <use xlink:href="#DejaVuSans-32"/>
       <use xlink:href="#DejaVuSans-30" x="63.623047"/>
       <use xlink:href="#DejaVuSans-32" x="127.246094"/>
       <use xlink:href="#DejaVuSans-31" x="190.869141"/>
       <use xlink:href="#DejaVuSans-2d" x="254.492188"/>
       <use xlink:href="#DejaVuSans-53" x="290.576172"/>
       <use xlink:href="#DejaVuSans-65" x="354.052734"/>
       <use xlink:href="#DejaVuSans-70" x="415.576172"/>
       <use xlink:href="#DejaVuSans-2d" x="479.052734"/>
       <use xlink:href="#DejaVuSans-30" x="515.136719"/>
       <use xlink:href="#DejaVuSans-31" x="578.759766"/>
      </g>
     </g>
    </g>
    <g id="xtick_12">
     <g id="line2d_12">
      <g>
       <use xlink:href="#m8b9d1ae9fa" x="368.564306" y="196.776875" style="stroke: #000000; stroke-width: 0.8"/>
      </g>
     </g>
     <g id="text_12">
      <!-- 2021-Oct-01 -->
      <g transform="translate(313.00275 241.83544)rotate(-30)scale(0.1 -0.1)">
       <defs>
        <path id="DejaVuSans-4f" d="M 2522 4238 
Q 1834 4238 1429 3725 
Q 1025 3213 1025 2328 
Q 1025 1447 1429 934 
Q 1834 422 2522 422 
Q 3209 422 3611 934 
Q 4013 1447 4013 2328 
Q 4013 3213 3611 3725 
Q 3209 4238 2522 4238 
z
M 2522 4750 
Q 3503 4750 4090 4092 
Q 4678 3434 4678 2328 
Q 4678 1225 4090 567 
Q 3503 -91 2522 -91 
Q 1538 -91 948 565 
Q 359 1222 359 2328 
Q 359 3434 948 4092 
Q 1538 4750 2522 4750 
z
" transform="scale(0.015625)"/>
        <path id="DejaVuSans-74" d="M 1172 4494 
L 1172 3500 
L 2356 3500 
L 2356 3053 
L 1172 3053 
L 1172 1153 
Q 1172 725 1289 603 
Q 1406 481 1766 481 
L 2356 481 
L 2356 0 
L 1766 0 
Q 1100 0 847 248 
Q 594 497 594 1153 
L 594 3053 
L 172 3053 
L 172 3500 
L 594 3500 
L 594 4494 
L 1172 4494 
z
" transform="scale(0.015625)"/>
       </defs>
       <use xlink:href="#DejaVuSans-32"/>
       <use xlink:href="#DejaVuSans-30" x="63.623047"/>
       <use xlink:href="#DejaVuSans-32" x="127.246094"/>
       <use xlink:href="#DejaVuSans-31" x="190.869141"/>
       <use xlink:href="#DejaVuSans-2d" x="254.492188"/>
       <use xlink:href="#DejaVuSans-4f" x="293.326172"/>
       <use xlink:href="#DejaVuSans-63" x="372.037109"/>
       <use xlink:href="#DejaVuSans-74" x="427.017578"/>
       <use xlink:href="#DejaVuSans-2d" x="466.226562"/>
       <use xlink:href="#DejaVuSans-30" x="502.310547"/>
       <use xlink:href="#DejaVuSans-31" x="565.933594"/>
      </g>
     </g>
    </g>
    <g id="xtick_13">
     <g id="line2d_13">
      <g>
       <use xlink:href="#m8b9d1ae9fa" x="396.458682" y="196.776875" style="stroke: #000000; stroke-width: 0.8"/>
      </g>
     </g>
     <g id="text_13">
      <!-- 2021-Nov-01 -->
      <g transform="translate(339.433002 242.680752)rotate(-30)scale(0.1 -0.1)">
       <use xlink:href="#DejaVuSans-32"/>
       <use xlink:href="#DejaVuSans-30" x="63.623047"/>
       <use xlink:href="#DejaVuSans-32" x="127.246094"/>
       <use xlink:href="#DejaVuSans-31" x="190.869141"/>
       <use xlink:href="#DejaVuSans-2d" x="254.492188"/>
       <use xlink:href="#DejaVuSans-4e" x="290.576172"/>
       <use xlink:href="#DejaVuSans-6f" x="365.380859"/>
       <use xlink:href="#DejaVuSans-76" x="426.5625"/>
       <use xlink:href="#DejaVuSans-2d" x="483.117188"/>
       <use xlink:href="#DejaVuSans-30" x="519.201172"/>
       <use xlink:href="#DejaVuSans-31" x="582.824219"/>
      </g>
     </g>
    </g>
    <g id="xtick_14">
     <g id="line2d_14">
      <g>
       <use xlink:href="#m8b9d1ae9fa" x="423.45324" y="196.776875" style="stroke: #000000; stroke-width: 0.8"/>
      </g>
     </g>
     <g id="text_14">
      <!-- 2021-Dec-01 -->
      <g transform="translate(366.345017 242.728409)rotate(-30)scale(0.1 -0.1)">
       <use xlink:href="#DejaVuSans-32"/>
       <use xlink:href="#DejaVuSans-30" x="63.623047"/>
       <use xlink:href="#DejaVuSans-32" x="127.246094"/>
       <use xlink:href="#DejaVuSans-31" x="190.869141"/>
       <use xlink:href="#DejaVuSans-2d" x="254.492188"/>
       <use xlink:href="#DejaVuSans-44" x="290.576172"/>
       <use xlink:href="#DejaVuSans-65" x="367.578125"/>
       <use xlink:href="#DejaVuSans-63" x="429.101562"/>
       <use xlink:href="#DejaVuSans-2d" x="484.082031"/>
       <use xlink:href="#DejaVuSans-30" x="520.166016"/>
       <use xlink:href="#DejaVuSans-31" x="583.789062"/>
      </g>
     </g>
    </g>
    <g id="xtick_15">
     <g id="line2d_15">
      <g>
       <use xlink:href="#m8b9d1ae9fa" x="451.347616" y="196.776875" style="stroke: #000000; stroke-width: 0.8"/>
      </g>
     </g>
     <g id="text_15">
      <!-- 2022-Jan-01 -->
      <g transform="translate(397.160875 241.04169)rotate(-30)scale(0.1 -0.1)">
       <use xlink:href="#DejaVuSans-32"/>
       <use xlink:href="#DejaVuSans-30" x="63.623047"/>
       <use xlink:href="#DejaVuSans-32" x="127.246094"/>
       <use xlink:href="#DejaVuSans-32" x="190.869141"/>
       <use xlink:href="#DejaVuSans-2d" x="254.492188"/>
       <use xlink:href="#DejaVuSans-4a" x="296.201172"/>
       <use xlink:href="#DejaVuSans-61" x="325.693359"/>
       <use xlink:href="#DejaVuSans-6e" x="386.972656"/>
       <use xlink:href="#DejaVuSans-2d" x="450.351562"/>
       <use xlink:href="#DejaVuSans-30" x="486.435547"/>
       <use xlink:href="#DejaVuSans-31" x="550.058594"/>
      </g>
     </g>
    </g>
    <g id="xtick_16">
     <g id="line2d_16">
      <g>
       <use xlink:href="#m8b9d1ae9fa" x="479.241992" y="196.776875" style="stroke: #000000; stroke-width: 0.8"/>
      </g>
     </g>
     <g id="text_16">
      <!-- 2022-Feb-01 -->
      <g transform="translate(423.561358 241.90419)rotate(-30)scale(0.1 -0.1)">
       <use xlink:href="#DejaVuSans-32"/>
       <use xlink:href="#DejaVuSans-30" x="63.623047"/>
       <use xlink:href="#DejaVuSans-32" x="127.246094"/>
       <use xlink:href="#DejaVuSans-32" x="190.869141"/>
       <use xlink:href="#DejaVuSans-2d" x="254.492188"/>
       <use xlink:href="#DejaVuSans-46" x="290.576172"/>
       <use xlink:href="#DejaVuSans-65" x="342.595703"/>
       <use xlink:href="#DejaVuSans-62" x="404.119141"/>
       <use xlink:href="#DejaVuSans-2d" x="467.595703"/>
       <use xlink:href="#DejaVuSans-30" x="503.679688"/>
       <use xlink:href="#DejaVuSans-31" x="567.302734"/>
      </g>
     </g>
    </g>
   </g>
   <g id="matplotlib.axis_2">
    <g id="ytick_1">
     <g id="line2d_17">
      <path d="M 53.132901 196.776875 
L 499.532901 196.776875 
" clip-path="url(#p5d39fb7250)" style="fill: none; stroke: #b0b0b0; stroke-width: 0.8; stroke-linecap: square"/>
     </g>
     <g id="line2d_18">
      <defs>
       <path id="m5827dc6039" d="M 0 0 
L -3.5 0 
" style="stroke: #000000; stroke-width: 0.8"/>
      </defs>
      <g>
       <use xlink:href="#m5827dc6039" x="53.132901" y="196.776875" style="stroke: #000000; stroke-width: 0.8"/>
      </g>
     </g>
     <g id="text_17">
      <!-- 0 -->
      <g transform="translate(39.770401 200.576094)scale(0.1 -0.1)">
       <use xlink:href="#DejaVuSans-30"/>
      </g>
     </g>
    </g>
    <g id="ytick_2">
     <g id="line2d_19">
      <path d="M 53.132901 175.356875 
L 499.532901 175.356875 
" clip-path="url(#p5d39fb7250)" style="fill: none; stroke: #b0b0b0; stroke-width: 0.8; stroke-linecap: square"/>
     </g>
     <g id="line2d_20">
      <g>
       <use xlink:href="#m5827dc6039" x="53.132901" y="175.356875" style="stroke: #000000; stroke-width: 0.8"/>
      </g>
     </g>
     <g id="text_18">
      <!-- 3 -->
      <g transform="translate(39.770401 179.156094)scale(0.1 -0.1)">
       <defs>
        <path id="DejaVuSans-33" d="M 2597 2516 
Q 3050 2419 3304 2112 
Q 3559 1806 3559 1356 
Q 3559 666 3084 287 
Q 2609 -91 1734 -91 
Q 1441 -91 1130 -33 
Q 819 25 488 141 
L 488 750 
Q 750 597 1062 519 
Q 1375 441 1716 441 
Q 2309 441 2620 675 
Q 2931 909 2931 1356 
Q 2931 1769 2642 2001 
Q 2353 2234 1838 2234 
L 1294 2234 
L 1294 2753 
L 1863 2753 
Q 2328 2753 2575 2939 
Q 2822 3125 2822 3475 
Q 2822 3834 2567 4026 
Q 2313 4219 1838 4219 
Q 1578 4219 1281 4162 
Q 984 4106 628 3988 
L 628 4550 
Q 988 4650 1302 4700 
Q 1616 4750 1894 4750 
Q 2613 4750 3031 4423 
Q 3450 4097 3450 3541 
Q 3450 3153 3228 2886 
Q 3006 2619 2597 2516 
z
" transform="scale(0.015625)"/>
       </defs>
       <use xlink:href="#DejaVuSans-33"/>
      </g>
     </g>
    </g>
    <g id="ytick_3">
     <g id="line2d_21">
      <path d="M 53.132901 153.936875 
L 499.532901 153.936875 
" clip-path="url(#p5d39fb7250)" style="fill: none; stroke: #b0b0b0; stroke-width: 0.8; stroke-linecap: square"/>
     </g>
     <g id="line2d_22">
      <g>
       <use xlink:href="#m5827dc6039" x="53.132901" y="153.936875" style="stroke: #000000; stroke-width: 0.8"/>
      </g>
     </g>
     <g id="text_19">
      <!-- 6 -->
      <g transform="translate(39.770401 157.736094)scale(0.1 -0.1)">
       <defs>
        <path id="DejaVuSans-36" d="M 2113 2584 
Q 1688 2584 1439 2293 
Q 1191 2003 1191 1497 
Q 1191 994 1439 701 
Q 1688 409 2113 409 
Q 2538 409 2786 701 
Q 3034 994 3034 1497 
Q 3034 2003 2786 2293 
Q 2538 2584 2113 2584 
z
M 3366 4563 
L 3366 3988 
Q 3128 4100 2886 4159 
Q 2644 4219 2406 4219 
Q 1781 4219 1451 3797 
Q 1122 3375 1075 2522 
Q 1259 2794 1537 2939 
Q 1816 3084 2150 3084 
Q 2853 3084 3261 2657 
Q 3669 2231 3669 1497 
Q 3669 778 3244 343 
Q 2819 -91 2113 -91 
Q 1303 -91 875 529 
Q 447 1150 447 2328 
Q 447 3434 972 4092 
Q 1497 4750 2381 4750 
Q 2619 4750 2861 4703 
Q 3103 4656 3366 4563 
z
" transform="scale(0.015625)"/>
       </defs>
       <use xlink:href="#DejaVuSans-36"/>
      </g>
     </g>
    </g>
    <g id="ytick_4">
     <g id="line2d_23">
      <path d="M 53.132901 132.516875 
L 499.532901 132.516875 
" clip-path="url(#p5d39fb7250)" style="fill: none; stroke: #b0b0b0; stroke-width: 0.8; stroke-linecap: square"/>
     </g>
     <g id="line2d_24">
      <g>
       <use xlink:href="#m5827dc6039" x="53.132901" y="132.516875" style="stroke: #000000; stroke-width: 0.8"/>
      </g>
     </g>
     <g id="text_20">
      <!-- 9 -->
      <g transform="translate(39.770401 136.316094)scale(0.1 -0.1)">
       <defs>
        <path id="DejaVuSans-39" d="M 703 97 
L 703 672 
Q 941 559 1184 500 
Q 1428 441 1663 441 
Q 2288 441 2617 861 
Q 2947 1281 2994 2138 
Q 2813 1869 2534 1725 
Q 2256 1581 1919 1581 
Q 1219 1581 811 2004 
Q 403 2428 403 3163 
Q 403 3881 828 4315 
Q 1253 4750 1959 4750 
Q 2769 4750 3195 4129 
Q 3622 3509 3622 2328 
Q 3622 1225 3098 567 
Q 2575 -91 1691 -91 
Q 1453 -91 1209 -44 
Q 966 3 703 97 
z
M 1959 2075 
Q 2384 2075 2632 2365 
Q 2881 2656 2881 3163 
Q 2881 3666 2632 3958 
Q 2384 4250 1959 4250 
Q 1534 4250 1286 3958 
Q 1038 3666 1038 3163 
Q 1038 2656 1286 2365 
Q 1534 2075 1959 2075 
z
" transform="scale(0.015625)"/>
       </defs>
       <use xlink:href="#DejaVuSans-39"/>
      </g>
     </g>
    </g>
    <g id="ytick_5">
     <g id="line2d_25">
      <path d="M 53.132901 111.096875 
L 499.532901 111.096875 
" clip-path="url(#p5d39fb7250)" style="fill: none; stroke: #b0b0b0; stroke-width: 0.8; stroke-linecap: square"/>
     </g>
     <g id="line2d_26">
      <g>
       <use xlink:href="#m5827dc6039" x="53.132901" y="111.096875" style="stroke: #000000; stroke-width: 0.8"/>
      </g>
     </g>
     <g id="text_21">
      <!-- 12 -->
      <g transform="translate(33.407901 114.896094)scale(0.1 -0.1)">
       <use xlink:href="#DejaVuSans-31"/>
       <use xlink:href="#DejaVuSans-32" x="63.623047"/>
      </g>
     </g>
    </g>
    <g id="ytick_6">
     <g id="line2d_27">
      <path d="M 53.132901 89.676875 
L 499.532901 89.676875 
" clip-path="url(#p5d39fb7250)" style="fill: none; stroke: #b0b0b0; stroke-width: 0.8; stroke-linecap: square"/>
     </g>
     <g id="line2d_28">
      <g>
       <use xlink:href="#m5827dc6039" x="53.132901" y="89.676875" style="stroke: #000000; stroke-width: 0.8"/>
      </g>
     </g>
     <g id="text_22">
      <!-- 15 -->
      <g transform="translate(33.407901 93.476094)scale(0.1 -0.1)">
       <defs>
        <path id="DejaVuSans-35" d="M 691 4666 
L 3169 4666 
L 3169 4134 
L 1269 4134 
L 1269 2991 
Q 1406 3038 1543 3061 
Q 1681 3084 1819 3084 
Q 2600 3084 3056 2656 
Q 3513 2228 3513 1497 
Q 3513 744 3044 326 
Q 2575 -91 1722 -91 
Q 1428 -91 1123 -41 
Q 819 9 494 109 
L 494 744 
Q 775 591 1075 516 
Q 1375 441 1709 441 
Q 2250 441 2565 725 
Q 2881 1009 2881 1497 
Q 2881 1984 2565 2268 
Q 2250 2553 1709 2553 
Q 1456 2553 1204 2497 
Q 953 2441 691 2322 
L 691 4666 
z
" transform="scale(0.015625)"/>
       </defs>
       <use xlink:href="#DejaVuSans-31"/>
       <use xlink:href="#DejaVuSans-35" x="63.623047"/>
      </g>
     </g>
    </g>
    <g id="ytick_7">
     <g id="line2d_29">
      <path d="M 53.132901 68.256875 
L 499.532901 68.256875 
" clip-path="url(#p5d39fb7250)" style="fill: none; stroke: #b0b0b0; stroke-width: 0.8; stroke-linecap: square"/>
     </g>
     <g id="line2d_30">
      <g>
       <use xlink:href="#m5827dc6039" x="53.132901" y="68.256875" style="stroke: #000000; stroke-width: 0.8"/>
      </g>
     </g>
     <g id="text_23">
      <!-- 18 -->
      <g transform="translate(33.407901 72.056094)scale(0.1 -0.1)">
       <defs>
        <path id="DejaVuSans-38" d="M 2034 2216 
Q 1584 2216 1326 1975 
Q 1069 1734 1069 1313 
Q 1069 891 1326 650 
Q 1584 409 2034 409 
Q 2484 409 2743 651 
Q 3003 894 3003 1313 
Q 3003 1734 2745 1975 
Q 2488 2216 2034 2216 
z
M 1403 2484 
Q 997 2584 770 2862 
Q 544 3141 544 3541 
Q 544 4100 942 4425 
Q 1341 4750 2034 4750 
Q 2731 4750 3128 4425 
Q 3525 4100 3525 3541 
Q 3525 3141 3298 2862 
Q 3072 2584 2669 2484 
Q 3125 2378 3379 2068 
Q 3634 1759 3634 1313 
Q 3634 634 3220 271 
Q 2806 -91 2034 -91 
Q 1263 -91 848 271 
Q 434 634 434 1313 
Q 434 1759 690 2068 
Q 947 2378 1403 2484 
z
M 1172 3481 
Q 1172 3119 1398 2916 
Q 1625 2713 2034 2713 
Q 2441 2713 2670 2916 
Q 2900 3119 2900 3481 
Q 2900 3844 2670 4047 
Q 2441 4250 2034 4250 
Q 1625 4250 1398 4047 
Q 1172 3844 1172 3481 
z
" transform="scale(0.015625)"/>
       </defs>
       <use xlink:href="#DejaVuSans-31"/>
       <use xlink:href="#DejaVuSans-38" x="63.623047"/>
      </g>
     </g>
    </g>
    <g id="ytick_8">
     <g id="line2d_31">
      <path d="M 53.132901 46.836875 
L 499.532901 46.836875 
" clip-path="url(#p5d39fb7250)" style="fill: none; stroke: #b0b0b0; stroke-width: 0.8; stroke-linecap: square"/>
     </g>
     <g id="line2d_32">
      <g>
       <use xlink:href="#m5827dc6039" x="53.132901" y="46.836875" style="stroke: #000000; stroke-width: 0.8"/>
      </g>
     </g>
     <g id="text_24">
      <!-- 21 -->
      <g transform="translate(33.407901 50.636094)scale(0.1 -0.1)">
       <use xlink:href="#DejaVuSans-32"/>
       <use xlink:href="#DejaVuSans-31" x="63.623047"/>
      </g>
     </g>
    </g>
    <g id="ytick_9">
     <g id="line2d_33">
      <path d="M 53.132901 25.416875 
L 499.532901 25.416875 
" clip-path="url(#p5d39fb7250)" style="fill: none; stroke: #b0b0b0; stroke-width: 0.8; stroke-linecap: square"/>
     </g>
     <g id="line2d_34">
      <g>
       <use xlink:href="#m5827dc6039" x="53.132901" y="25.416875" style="stroke: #000000; stroke-width: 0.8"/>
      </g>
     </g>
     <g id="text_25">
      <!-- 24 -->
      <g transform="translate(33.407901 29.216094)scale(0.1 -0.1)">
       <defs>
        <path id="DejaVuSans-34" d="M 2419 4116 
L 825 1625 
L 2419 1625 
L 2419 4116 
z
M 2253 4666 
L 3047 4666 
L 3047 1625 
L 3713 1625 
L 3713 1100 
L 3047 1100 
L 3047 0 
L 2419 0 
L 2419 1100 
L 313 1100 
L 313 1709 
L 2253 4666 
z
" transform="scale(0.015625)"/>
       </defs>
       <use xlink:href="#DejaVuSans-32"/>
       <use xlink:href="#DejaVuSans-34" x="63.623047"/>
      </g>
     </g>
    </g>
    <g id="text_26">
     <!-- Percentage Of Domains Using security.txt -->
     <g transform="translate(27.328213 214.99375)rotate(-90)scale(0.1 -0.1)">
      <defs>
       <path id="DejaVuSans-50" d="M 1259 4147 
L 1259 2394 
L 2053 2394 
Q 2494 2394 2734 2622 
Q 2975 2850 2975 3272 
Q 2975 3691 2734 3919 
Q 2494 4147 2053 4147 
L 1259 4147 
z
M 628 4666 
L 2053 4666 
Q 2838 4666 3239 4311 
Q 3641 3956 3641 3272 
Q 3641 2581 3239 2228 
Q 2838 1875 2053 1875 
L 1259 1875 
L 1259 0 
L 628 0 
L 628 4666 
z
" transform="scale(0.015625)"/>
       <path id="DejaVuSans-20" transform="scale(0.015625)"/>
       <path id="DejaVuSans-66" d="M 2375 4863 
L 2375 4384 
L 1825 4384 
Q 1516 4384 1395 4259 
Q 1275 4134 1275 3809 
L 1275 3500 
L 2222 3500 
L 2222 3053 
L 1275 3053 
L 1275 0 
L 697 0 
L 697 3053 
L 147 3053 
L 147 3500 
L 697 3500 
L 697 3744 
Q 697 4328 969 4595 
Q 1241 4863 1831 4863 
L 2375 4863 
z
" transform="scale(0.015625)"/>
       <path id="DejaVuSans-6d" d="M 3328 2828 
Q 3544 3216 3844 3400 
Q 4144 3584 4550 3584 
Q 5097 3584 5394 3201 
Q 5691 2819 5691 2113 
L 5691 0 
L 5113 0 
L 5113 2094 
Q 5113 2597 4934 2840 
Q 4756 3084 4391 3084 
Q 3944 3084 3684 2787 
Q 3425 2491 3425 1978 
L 3425 0 
L 2847 0 
L 2847 2094 
Q 2847 2600 2669 2842 
Q 2491 3084 2119 3084 
Q 1678 3084 1418 2786 
Q 1159 2488 1159 1978 
L 1159 0 
L 581 0 
L 581 3500 
L 1159 3500 
L 1159 2956 
Q 1356 3278 1631 3431 
Q 1906 3584 2284 3584 
Q 2666 3584 2933 3390 
Q 3200 3197 3328 2828 
z
" transform="scale(0.015625)"/>
       <path id="DejaVuSans-69" d="M 603 3500 
L 1178 3500 
L 1178 0 
L 603 0 
L 603 3500 
z
M 603 4863 
L 1178 4863 
L 1178 4134 
L 603 4134 
L 603 4863 
z
" transform="scale(0.015625)"/>
       <path id="DejaVuSans-73" d="M 2834 3397 
L 2834 2853 
Q 2591 2978 2328 3040 
Q 2066 3103 1784 3103 
Q 1356 3103 1142 2972 
Q 928 2841 928 2578 
Q 928 2378 1081 2264 
Q 1234 2150 1697 2047 
L 1894 2003 
Q 2506 1872 2764 1633 
Q 3022 1394 3022 966 
Q 3022 478 2636 193 
Q 2250 -91 1575 -91 
Q 1294 -91 989 -36 
Q 684 19 347 128 
L 347 722 
Q 666 556 975 473 
Q 1284 391 1588 391 
Q 1994 391 2212 530 
Q 2431 669 2431 922 
Q 2431 1156 2273 1281 
Q 2116 1406 1581 1522 
L 1381 1569 
Q 847 1681 609 1914 
Q 372 2147 372 2553 
Q 372 3047 722 3315 
Q 1072 3584 1716 3584 
Q 2034 3584 2315 3537 
Q 2597 3491 2834 3397 
z
" transform="scale(0.015625)"/>
       <path id="DejaVuSans-55" d="M 556 4666 
L 1191 4666 
L 1191 1831 
Q 1191 1081 1462 751 
Q 1734 422 2344 422 
Q 2950 422 3222 751 
Q 3494 1081 3494 1831 
L 3494 4666 
L 4128 4666 
L 4128 1753 
Q 4128 841 3676 375 
Q 3225 -91 2344 -91 
Q 1459 -91 1007 375 
Q 556 841 556 1753 
L 556 4666 
z
" transform="scale(0.015625)"/>
       <path id="DejaVuSans-2e" d="M 684 794 
L 1344 794 
L 1344 0 
L 684 0 
L 684 794 
z
" transform="scale(0.015625)"/>
       <path id="DejaVuSans-78" d="M 3513 3500 
L 2247 1797 
L 3578 0 
L 2900 0 
L 1881 1375 
L 863 0 
L 184 0 
L 1544 1831 
L 300 3500 
L 978 3500 
L 1906 2253 
L 2834 3500 
L 3513 3500 
z
" transform="scale(0.015625)"/>
      </defs>
      <use xlink:href="#DejaVuSans-50"/>
      <use xlink:href="#DejaVuSans-65" x="56.677734"/>
      <use xlink:href="#DejaVuSans-72" x="118.201172"/>
      <use xlink:href="#DejaVuSans-63" x="157.064453"/>
      <use xlink:href="#DejaVuSans-65" x="212.044922"/>
      <use xlink:href="#DejaVuSans-6e" x="273.568359"/>
      <use xlink:href="#DejaVuSans-74" x="336.947266"/>
      <use xlink:href="#DejaVuSans-61" x="376.15625"/>
      <use xlink:href="#DejaVuSans-67" x="437.435547"/>
      <use xlink:href="#DejaVuSans-65" x="500.912109"/>
      <use xlink:href="#DejaVuSans-20" x="562.435547"/>
      <use xlink:href="#DejaVuSans-4f" x="594.222656"/>
      <use xlink:href="#DejaVuSans-66" x="672.933594"/>
      <use xlink:href="#DejaVuSans-20" x="708.138672"/>
      <use xlink:href="#DejaVuSans-44" x="739.925781"/>
      <use xlink:href="#DejaVuSans-6f" x="816.927734"/>
      <use xlink:href="#DejaVuSans-6d" x="878.109375"/>
      <use xlink:href="#DejaVuSans-61" x="975.521484"/>
      <use xlink:href="#DejaVuSans-69" x="1036.800781"/>
      <use xlink:href="#DejaVuSans-6e" x="1064.583984"/>
      <use xlink:href="#DejaVuSans-73" x="1127.962891"/>
      <use xlink:href="#DejaVuSans-20" x="1180.0625"/>
      <use xlink:href="#DejaVuSans-55" x="1211.849609"/>
      <use xlink:href="#DejaVuSans-73" x="1285.042969"/>
      <use xlink:href="#DejaVuSans-69" x="1337.142578"/>
      <use xlink:href="#DejaVuSans-6e" x="1364.925781"/>
      <use xlink:href="#DejaVuSans-67" x="1428.304688"/>
      <use xlink:href="#DejaVuSans-20" x="1491.78125"/>
      <use xlink:href="#DejaVuSans-73" x="1523.568359"/>
      <use xlink:href="#DejaVuSans-65" x="1575.667969"/>
      <use xlink:href="#DejaVuSans-63" x="1637.191406"/>
      <use xlink:href="#DejaVuSans-75" x="1692.171875"/>
      <use xlink:href="#DejaVuSans-72" x="1755.550781"/>
      <use xlink:href="#DejaVuSans-69" x="1796.664062"/>
      <use xlink:href="#DejaVuSans-74" x="1824.447266"/>
      <use xlink:href="#DejaVuSans-79" x="1863.65625"/>
      <use xlink:href="#DejaVuSans-2e" x="1908.585938"/>
      <use xlink:href="#DejaVuSans-74" x="1940.373047"/>
      <use xlink:href="#DejaVuSans-78" x="1979.582031"/>
      <use xlink:href="#DejaVuSans-74" x="2038.761719"/>
     </g>
    </g>
   </g>
   <g id="line2d_35">
    <path d="M 73.42381 92.28907 
L 74.323629 109.703704 
L 76.123266 109.703704 
L 77.023084 100.996387 
L 78.822722 100.996387 
L 79.72254 92.28907 
L 81.522177 92.28907 
L 82.421996 100.996387 
L 83.321814 92.28907 
L 84.221633 100.996387 
L 85.121452 135.825655 
L 86.02127 109.703704 
L 86.921089 100.996387 
L 89.620545 100.996387 
L 90.520363 92.28907 
L 91.420182 109.703704 
L 92.32 100.996387 
L 93.219819 100.996387 
L 94.119637 92.28907 
L 95.019456 109.703704 
L 95.919275 109.703704 
L 96.819093 92.28907 
L 97.718912 92.28907 
L 98.61873 100.996387 
L 99.518549 100.996387 
L 100.418368 92.28907 
L 103.117823 92.28907 
L 104.017642 100.996387 
L 104.917461 92.28907 
L 105.817279 100.996387 
L 106.717098 92.28907 
L 107.616916 109.703704 
L 108.516735 92.28907 
L 109.416553 92.28907 
L 110.316372 100.996387 
L 112.116009 92.28907 
L 113.015828 100.996387 
L 114.815465 83.581753 
L 115.715284 118.411021 
L 116.615102 92.28907 
L 119.314558 92.28907 
L 120.214376 109.703704 
L 121.114195 83.581753 
L 122.913832 92.28907 
L 124.713469 109.703704 
L 125.613288 83.581753 
L 126.513107 109.703704 
L 127.412925 92.28907 
L 129.212562 109.703704 
L 131.012199 92.28907 
L 131.912018 100.996387 
L 132.811837 100.996387 
L 135.511292 109.703704 
L 138.210748 92.28907 
L 139.110567 100.996387 
L 140.010385 92.28907 
L 140.910204 100.996387 
L 142.709841 83.581753 
L 150.808208 100.996387 
L 153.507664 100.996387 
L 154.407483 83.581753 
L 155.307301 92.28907 
L 156.20712 118.411021 
L 157.106938 109.703704 
L 158.006757 92.28907 
L 158.906576 92.28907 
L 159.806394 100.996387 
L 160.706213 100.996387 
L 161.606031 109.703704 
L 162.50585 74.874436 
L 163.405669 100.996387 
L 165.205306 83.581753 
L 167.904761 83.581753 
L 168.80458 92.28907 
L 169.704399 83.581753 
L 170.604217 100.996387 
L 172.403854 83.581753 
L 174.203492 83.581753 
L 175.10331 100.996387 
L 176.902947 83.581753 
L 177.802766 92.28907 
L 178.702584 92.28907 
L 179.602403 100.996387 
L 180.502222 83.581753 
L 182.301859 83.581753 
L 183.201677 92.28907 
L 185.001315 100.996387 
L 185.901133 92.28907 
L 186.800952 100.996387 
L 187.70077 74.874436 
L 200.298231 74.874436 
L 202.097868 109.703704 
L 202.997686 100.996387 
L 203.897505 109.703704 
L 205.697142 92.28907 
L 206.596961 109.703704 
L 207.496779 92.28907 
L 208.396598 118.411021 
L 210.196235 83.581753 
L 211.096054 83.581753 
L 211.995872 92.28907 
L 214.695328 109.703704 
L 215.595146 83.581753 
L 216.494965 83.581753 
L 218.294602 100.996387 
L 219.194421 83.581753 
L 220.094239 100.996387 
L 220.994058 100.996387 
L 221.893877 92.28907 
L 224.593332 118.411021 
L 225.493151 100.996387 
L 226.392969 118.411021 
L 227.292788 92.28907 
L 228.192607 92.28907 
L 229.092425 100.996387 
L 232.6917 109.703704 
L 234.491337 74.874436 
L 235.391155 100.996387 
L 236.290974 83.581753 
L 237.190792 109.703704 
L 238.090611 83.581753 
L 239.890248 118.411021 
L 240.790067 83.581753 
L 241.689885 92.28907 
L 243.489523 92.28907 
L 244.389341 109.703704 
L 245.28916 74.874436 
L 246.188978 83.581753 
L 247.088797 100.996387 
L 247.988616 109.703704 
L 248.888434 109.703704 
L 249.788253 83.581753 
L 251.58789 100.996387 
L 252.487708 100.996387 
L 253.387527 92.28907 
L 254.287346 92.28907 
L 255.187164 100.996387 
L 256.086983 92.28907 
L 256.986801 66.167119 
L 257.88662 74.874436 
L 258.786439 100.996387 
L 259.686257 100.996387 
L 260.586076 92.28907 
L 263.285531 92.28907 
L 264.18535 100.996387 
L 265.085169 100.996387 
L 265.984987 118.411021 
L 268.684443 92.28907 
L 269.584262 92.28907 
L 270.48408 83.581753 
L 271.383899 109.703704 
L 272.283717 83.581753 
L 273.183536 100.996387 
L 274.083354 100.996387 
L 274.983173 83.581753 
L 275.882992 100.996387 
L 276.78281 100.996387 
L 277.682629 92.28907 
L 279.482266 92.28907 
L 282.181722 83.581753 
L 283.981359 83.581753 
L 287.580633 100.996387 
L 288.480452 83.581753 
L 313.675372 74.874436 
L 314.575191 74.874436 
L 315.475009 92.28907 
L 316.374828 83.581753 
L 317.274647 92.28907 
L 318.174465 74.874436 
L 319.074284 83.581753 
L 319.974102 74.874436 
L 320.873921 74.874436 
L 321.773739 83.581753 
L 322.673558 83.581753 
L 323.573377 74.874436 
L 324.473195 109.703704 
L 326.272832 74.874436 
L 327.172651 83.581753 
L 328.07247 66.167119 
L 328.972288 92.28907 
L 329.872107 83.581753 
L 346.068841 100.996387 
L 348.768297 74.874436 
L 349.668116 83.581753 
L 351.467753 83.581753 
L 352.367571 92.28907 
L 353.26739 74.874436 
L 354.167209 66.167119 
L 355.067027 74.874436 
L 355.966846 66.167119 
L 356.866664 83.581753 
L 357.766483 74.874436 
L 358.666301 83.581753 
L 359.56612 100.996387 
L 360.465939 92.28907 
L 361.365757 92.28907 
L 362.265576 66.167119 
L 364.965032 74.874436 
L 365.86485 109.703704 
L 366.764669 92.28907 
L 367.664487 83.581753 
L 368.564306 100.996387 
L 369.464124 66.167119 
L 370.363943 66.167119 
L 371.263762 83.581753 
L 372.16358 66.167119 
L 373.063399 83.581753 
L 373.963217 92.28907 
L 374.863036 109.703704 
L 375.762855 66.167119 
L 377.562492 83.581753 
L 378.46231 66.167119 
L 379.362129 83.581753 
L 381.161766 83.581753 
L 382.961403 48.752485 
L 383.861222 66.167119 
L 384.76104 66.167119 
L 385.660859 48.752485 
L 386.560678 66.167119 
L 387.460496 74.874436 
L 388.360315 66.167119 
L 389.260133 66.167119 
L 390.159952 57.459802 
L 391.059771 66.167119 
L 391.959589 83.581753 
L 392.859408 57.459802 
L 393.759226 83.581753 
L 394.659045 83.581753 
L 395.558863 57.459802 
L 396.458682 83.581753 
L 397.358501 83.581753 
L 398.258319 57.459802 
L 399.158138 83.581753 
L 400.057956 57.459802 
L 400.957775 66.167119 
L 401.857594 57.459802 
L 402.757412 74.874436 
L 404.557049 57.459802 
L 407.256505 48.752485 
L 409.056142 83.581753 
L 409.955961 48.752485 
L 410.855779 57.459802 
L 411.755598 74.874436 
L 413.555235 74.874436 
L 414.455054 66.167119 
L 415.354872 40.045168 
L 416.254691 66.167119 
L 417.154509 57.459802 
L 418.054328 40.045168 
L 418.954147 74.874436 
L 419.853965 83.581753 
L 420.753784 66.167119 
L 421.653602 74.874436 
L 422.553421 74.874436 
L 423.45324 66.167119 
L 424.353058 66.167119 
L 426.152695 83.581753 
L 427.052514 66.167119 
L 427.952333 66.167119 
L 428.852151 57.459802 
L 429.75197 66.167119 
L 430.651788 83.581753 
L 431.551607 66.167119 
L 432.451425 74.874436 
L 433.351244 48.752485 
L 434.251063 83.581753 
L 435.150881 57.459802 
L 436.0507 66.167119 
L 436.950518 57.459802 
L 437.850337 66.167119 
L 440.549793 57.459802 
L 441.449611 92.28907 
L 442.34943 74.874436 
L 443.249248 48.752485 
L 444.149067 83.581753 
L 445.048886 48.752485 
L 445.948704 48.752485 
L 446.848523 74.874436 
L 447.748341 66.167119 
L 448.64816 92.28907 
L 449.547979 83.581753 
L 452.247434 74.874436 
L 453.147253 92.28907 
L 454.047071 40.045168 
L 454.94689 57.459802 
L 455.846709 57.459802 
L 456.746527 66.167119 
L 457.646346 66.167119 
L 458.546164 83.581753 
L 459.445983 57.459802 
L 460.345802 57.459802 
L 461.24562 74.874436 
L 462.145439 74.874436 
L 463.045257 92.28907 
L 463.945076 74.874436 
L 464.844894 83.581753 
L 465.744713 57.459802 
L 466.644532 48.752485 
L 467.54435 48.752485 
L 468.444169 83.581753 
L 469.343987 66.167119 
L 472.043443 66.167119 
L 472.943262 48.752485 
L 473.84308 57.459802 
L 475.642718 66.167119 
L 476.542536 66.167119 
L 477.442355 31.337851 
L 478.342173 48.752485 
L 479.241992 57.459802 
L 479.241992 57.459802 
" clip-path="url(#p5d39fb7250)" style="fill: none; stroke: #1f77b4; stroke-width: 1.5; stroke-linecap: square"/>
   </g>
   <g id="line2d_36">
    <path d="M 73.42381 136.793135 
L 74.323629 135.825655 
L 75.223447 140.663054 
L 76.123266 140.663054 
L 77.023084 137.760615 
L 77.922903 135.825655 
L 78.822722 138.728095 
L 79.72254 137.760615 
L 80.622359 138.728095 
L 82.421996 138.728095 
L 83.321814 136.793135 
L 84.221633 137.760615 
L 85.121452 137.760615 
L 86.02127 133.890696 
L 86.921089 136.793135 
L 89.620545 134.858176 
L 90.520363 136.793135 
L 92.32 136.793135 
L 93.219819 135.825655 
L 94.119637 137.760615 
L 95.019456 136.793135 
L 96.819093 138.728095 
L 97.718912 136.793135 
L 98.61873 136.793135 
L 99.518549 134.858176 
L 100.418368 135.825655 
L 101.318186 137.760615 
L 102.218005 137.760615 
L 103.117823 139.695574 
L 104.017642 137.760615 
L 104.917461 136.793135 
L 105.817279 134.858176 
L 106.717098 139.695574 
L 107.616916 136.793135 
L 108.516735 135.825655 
L 109.416553 139.695574 
L 110.316372 139.695574 
L 112.116009 134.858176 
L 113.015828 139.695574 
L 113.915646 136.793135 
L 114.815465 137.760615 
L 115.715284 135.825655 
L 116.615102 135.825655 
L 117.514921 141.630534 
L 118.414739 138.728095 
L 119.314558 137.760615 
L 120.214376 138.728095 
L 121.114195 138.728095 
L 122.913832 135.825655 
L 124.713469 140.663054 
L 126.513107 138.728095 
L 127.412925 138.728095 
L 128.312744 137.760615 
L 129.212562 137.760615 
L 130.112381 138.728095 
L 131.012199 137.760615 
L 131.912018 138.728095 
L 132.811837 137.760615 
L 135.511292 138.728095 
L 138.210748 137.760615 
L 139.110567 136.793135 
L 140.010385 137.760615 
L 140.910204 135.825655 
L 141.810022 136.793135 
L 142.709841 135.825655 
L 150.808208 133.890696 
L 151.708027 136.793135 
L 153.507664 138.728095 
L 154.407483 135.825655 
L 155.307301 138.728095 
L 156.20712 135.825655 
L 157.106938 140.663054 
L 158.006757 138.728095 
L 158.906576 135.825655 
L 159.806394 136.793135 
L 160.706213 135.825655 
L 161.606031 137.760615 
L 162.50585 134.858176 
L 163.405669 139.695574 
L 164.305487 133.890696 
L 166.105124 135.825655 
L 167.904761 131.955737 
L 168.80458 130.988257 
L 169.704399 135.825655 
L 170.604217 132.923216 
L 171.504036 137.760615 
L 172.403854 134.858176 
L 173.303673 139.695574 
L 174.203492 133.890696 
L 175.10331 135.825655 
L 176.003129 134.858176 
L 176.902947 137.760615 
L 178.702584 133.890696 
L 179.602403 132.923216 
L 180.502222 132.923216 
L 181.40204 133.890696 
L 182.301859 131.955737 
L 183.201677 135.825655 
L 185.001315 135.825655 
L 185.901133 133.890696 
L 187.70077 131.955737 
L 188.600589 133.890696 
L 200.298231 134.858176 
L 201.198049 132.923216 
L 202.097868 131.955737 
L 202.997686 134.858176 
L 203.897505 132.923216 
L 204.797323 130.020777 
L 205.697142 130.020777 
L 206.596961 132.923216 
L 207.496779 132.923216 
L 208.396598 137.760615 
L 209.296416 133.890696 
L 210.196235 133.890696 
L 211.096054 132.923216 
L 211.995872 135.825655 
L 215.595146 131.955737 
L 216.494965 133.890696 
L 217.394784 130.020777 
L 218.294602 134.858176 
L 219.194421 135.825655 
L 220.094239 131.955737 
L 220.994058 134.858176 
L 221.893877 131.955737 
L 224.593332 133.890696 
L 225.493151 133.890696 
L 226.392969 132.923216 
L 227.292788 133.890696 
L 228.192607 136.793135 
L 229.092425 135.825655 
L 232.6917 133.890696 
L 233.591518 136.793135 
L 234.491337 130.988257 
L 235.391155 135.825655 
L 236.290974 133.890696 
L 238.090611 135.825655 
L 238.99043 135.825655 
L 239.890248 136.793135 
L 240.790067 134.858176 
L 241.689885 139.695574 
L 244.389341 133.890696 
L 245.28916 134.858176 
L 246.188978 132.923216 
L 247.988616 134.858176 
L 250.688071 134.858176 
L 251.58789 135.825655 
L 252.487708 131.955737 
L 253.387527 132.923216 
L 254.287346 137.760615 
L 255.187164 131.955737 
L 256.086983 132.923216 
L 256.986801 135.825655 
L 257.88662 133.890696 
L 258.786439 132.923216 
L 259.686257 130.988257 
L 260.586076 135.825655 
L 261.485894 135.825655 
L 262.385713 130.988257 
L 263.285531 130.020777 
L 264.18535 133.890696 
L 265.085169 133.890696 
L 267.784624 130.988257 
L 269.584262 132.923216 
L 270.48408 132.923216 
L 271.383899 130.988257 
L 272.283717 136.793135 
L 273.183536 133.890696 
L 274.083354 134.858176 
L 274.983173 132.923216 
L 275.882992 135.825655 
L 276.78281 131.955737 
L 277.682629 133.890696 
L 279.482266 135.825655 
L 282.181722 133.890696 
L 283.981359 132.923216 
L 287.580633 135.825655 
L 288.480452 131.955737 
L 313.675372 132.923216 
L 314.575191 133.890696 
L 316.374828 128.085818 
L 317.274647 130.988257 
L 319.074284 127.118338 
L 319.974102 130.020777 
L 320.873921 130.020777 
L 321.773739 128.085818 
L 322.673558 130.020777 
L 323.573377 127.118338 
L 324.473195 130.988257 
L 325.373014 129.053298 
L 326.272832 130.020777 
L 328.07247 128.085818 
L 328.972288 128.085818 
L 329.872107 130.020777 
L 346.068841 128.085818 
L 346.96866 126.150859 
L 348.768297 129.053298 
L 349.668116 127.118338 
L 350.567934 130.988257 
L 351.467753 129.053298 
L 352.367571 128.085818 
L 354.167209 130.020777 
L 355.067027 129.053298 
L 356.866664 130.988257 
L 357.766483 127.118338 
L 358.666301 130.988257 
L 359.56612 129.053298 
L 360.465939 128.085818 
L 361.365757 130.020777 
L 362.265576 126.150859 
L 364.965032 127.118338 
L 365.86485 130.020777 
L 366.764669 124.215899 
L 367.664487 130.988257 
L 368.564306 128.085818 
L 369.464124 128.085818 
L 370.363943 127.118338 
L 371.263762 124.215899 
L 372.16358 125.183379 
L 373.063399 125.183379 
L 373.963217 121.31346 
L 374.863036 122.28094 
L 375.762855 124.215899 
L 376.662673 125.183379 
L 377.562492 122.28094 
L 378.46231 123.24842 
L 379.362129 123.24842 
L 380.261948 119.378501 
L 381.161766 120.345981 
L 382.061585 127.118338 
L 382.961403 122.28094 
L 383.861222 128.085818 
L 384.76104 124.215899 
L 385.660859 124.215899 
L 386.560678 123.24842 
L 387.460496 126.150859 
L 388.360315 119.378501 
L 389.260133 125.183379 
L 392.859408 121.31346 
L 393.759226 123.24842 
L 394.659045 124.215899 
L 395.558863 124.215899 
L 396.458682 126.150859 
L 397.358501 123.24842 
L 398.258319 122.28094 
L 399.158138 122.28094 
L 400.057956 124.215899 
L 400.957775 123.24842 
L 401.857594 121.31346 
L 402.757412 124.215899 
L 403.657231 119.378501 
L 404.557049 120.345981 
L 407.256505 119.378501 
L 408.156324 119.378501 
L 409.056142 118.411021 
L 409.955961 118.411021 
L 410.855779 116.476062 
L 411.755598 119.378501 
L 412.655417 121.31346 
L 413.555235 121.31346 
L 414.455054 124.215899 
L 415.354872 126.150859 
L 416.254691 124.215899 
L 417.154509 120.345981 
L 418.054328 122.28094 
L 418.954147 123.24842 
L 419.853965 119.378501 
L 420.753784 118.411021 
L 421.653602 116.476062 
L 422.553421 120.345981 
L 423.45324 120.345981 
L 424.353058 119.378501 
L 427.052514 122.28094 
L 427.952333 121.31346 
L 429.75197 123.24842 
L 430.651788 121.31346 
L 431.551607 123.24842 
L 432.451425 122.28094 
L 433.351244 122.28094 
L 434.251063 120.345981 
L 435.150881 122.28094 
L 436.0507 120.345981 
L 436.950518 124.215899 
L 437.850337 119.378501 
L 440.549793 118.411021 
L 442.34943 122.28094 
L 443.249248 122.28094 
L 444.149067 121.31346 
L 445.048886 121.31346 
L 445.948704 120.345981 
L 446.848523 118.411021 
L 447.748341 124.215899 
L 448.64816 118.411021 
L 449.547979 121.31346 
L 452.247434 117.443542 
L 453.147253 116.476062 
L 454.047071 119.378501 
L 454.94689 116.476062 
L 455.846709 119.378501 
L 456.746527 115.508582 
L 458.546164 117.443542 
L 459.445983 116.476062 
L 460.345802 116.476062 
L 461.24562 122.28094 
L 462.145439 123.24842 
L 463.045257 116.476062 
L 463.945076 120.345981 
L 464.844894 121.31346 
L 465.744713 121.31346 
L 466.644532 117.443542 
L 467.54435 119.378501 
L 468.444169 118.411021 
L 469.343987 121.31346 
L 470.243806 121.31346 
L 471.143625 116.476062 
L 472.043443 121.31346 
L 472.943262 120.345981 
L 473.84308 125.183379 
L 475.642718 119.378501 
L 476.542536 119.378501 
L 477.442355 117.443542 
L 478.342173 118.411021 
L 479.241992 120.345981 
L 479.241992 120.345981 
" clip-path="url(#p5d39fb7250)" style="fill: none; stroke: #ff7f0e; stroke-width: 1.5; stroke-linecap: square"/>
   </g>
   <g id="line2d_37">
    <path d="M 73.42381 173.073623 
L 74.323629 173.363867 
L 75.223447 173.073623 
L 76.123266 172.589883 
L 77.023084 172.686631 
L 77.922903 173.073623 
L 78.822722 172.686631 
L 80.622359 172.686631 
L 81.522177 172.299639 
L 84.221633 172.976875 
L 85.121452 172.589883 
L 86.02127 172.396387 
L 86.921089 172.396387 
L 89.620545 172.783379 
L 91.420182 172.299639 
L 92.32 172.686631 
L 93.219819 172.493135 
L 94.119637 172.009395 
L 95.019456 172.589883 
L 95.919275 172.106143 
L 96.819093 172.299639 
L 97.718912 171.719151 
L 98.61873 171.912647 
L 99.518549 171.041916 
L 100.418368 171.622403 
L 101.318186 171.33216 
L 102.218005 171.719151 
L 103.117823 170.945168 
L 104.017642 171.235412 
L 104.917461 171.33216 
L 105.817279 171.041916 
L 106.717098 170.945168 
L 107.616916 171.235412 
L 109.416553 171.041916 
L 110.316372 170.654924 
L 113.015828 169.88094 
L 113.915646 170.171184 
L 114.815465 170.654924 
L 115.715284 170.36468 
L 116.615102 169.784192 
L 117.514921 169.977688 
L 118.414739 169.687444 
L 119.314558 169.106956 
L 120.214376 169.3972 
L 124.713469 168.042729 
L 126.513107 168.332973 
L 128.312744 167.752485 
L 130.112381 167.655737 
L 131.012199 167.171997 
L 131.912018 167.268745 
L 135.511292 166.494761 
L 138.210748 165.527282 
L 139.110567 165.720777 
L 140.010385 165.527282 
L 140.910204 165.624029 
L 141.810022 165.333786 
L 142.709841 165.624029 
L 151.708027 164.850046 
L 153.507664 164.17281 
L 154.407483 164.366306 
L 155.307301 164.269558 
L 156.20712 163.979314 
L 157.106938 164.366306 
L 158.006757 163.68907 
L 158.906576 164.17281 
L 159.806394 163.979314 
L 160.706213 163.302078 
L 161.606031 163.398826 
L 162.50585 163.785818 
L 163.405669 163.592322 
L 165.205306 163.882566 
L 166.105124 163.68907 
L 167.004943 163.302078 
L 167.904761 163.592322 
L 168.80458 163.108582 
L 170.604217 162.818338 
L 171.504036 163.398826 
L 175.10331 163.398826 
L 176.003129 163.108582 
L 176.902947 163.20533 
L 177.802766 162.915086 
L 178.702584 163.108582 
L 179.602403 163.011834 
L 180.502222 163.20533 
L 181.40204 163.011834 
L 182.301859 163.398826 
L 185.901133 162.915086 
L 186.800952 162.72159 
L 188.600589 163.011834 
L 200.298231 163.108582 
L 201.198049 162.431347 
L 202.097868 163.20533 
L 202.997686 162.528095 
L 203.897505 162.624842 
L 204.797323 162.334599 
L 205.697142 162.528095 
L 206.596961 163.011834 
L 208.396598 162.334599 
L 209.296416 163.011834 
L 210.196235 161.947607 
L 211.096054 162.334599 
L 211.995872 163.108582 
L 214.695328 162.624842 
L 215.595146 163.011834 
L 217.394784 162.72159 
L 219.194421 162.141103 
L 220.094239 162.915086 
L 220.994058 162.72159 
L 221.893877 162.334599 
L 224.593332 161.947607 
L 225.493151 162.528095 
L 226.392969 162.141103 
L 228.192607 162.141103 
L 229.092425 161.560615 
L 232.6917 162.237851 
L 233.591518 162.72159 
L 234.491337 162.334599 
L 236.290974 162.044355 
L 240.790067 162.044355 
L 241.689885 161.850859 
L 242.589704 161.173623 
L 243.489523 161.657363 
L 244.389341 162.431347 
L 245.28916 161.657363 
L 246.188978 161.367119 
L 247.088797 162.044355 
L 247.988616 161.463867 
L 248.888434 161.947607 
L 249.788253 161.560615 
L 250.688071 162.141103 
L 251.58789 161.947607 
L 252.487708 161.367119 
L 253.387527 162.044355 
L 254.287346 161.560615 
L 255.187164 161.367119 
L 256.086983 161.754111 
L 256.986801 161.754111 
L 257.88662 161.463867 
L 258.786439 161.657363 
L 259.686257 162.044355 
L 260.586076 162.141103 
L 261.485894 161.367119 
L 262.385713 161.076875 
L 263.285531 161.367119 
L 264.18535 161.270371 
L 265.085169 161.560615 
L 265.984987 161.463867 
L 266.884806 162.044355 
L 267.784624 161.560615 
L 268.684443 161.463867 
L 270.48408 161.657363 
L 271.383899 161.173623 
L 272.283717 160.883379 
L 273.183536 160.883379 
L 274.083354 160.399639 
L 274.983173 160.883379 
L 276.78281 161.173623 
L 277.682629 160.689883 
L 282.181722 160.496387 
L 288.480452 160.399639 
L 313.675372 159.335412 
L 314.575191 159.43216 
L 316.374828 159.045168 
L 317.274647 159.625655 
L 318.174465 159.335412 
L 319.074284 159.625655 
L 319.974102 159.528908 
L 320.873921 159.141916 
L 321.773739 159.819151 
L 322.673558 159.141916 
L 323.573377 159.722403 
L 325.373014 159.238664 
L 326.272832 159.722403 
L 327.172651 159.238664 
L 328.07247 159.722403 
L 329.872107 160.109395 
L 346.96866 159.819151 
L 348.768297 159.43216 
L 349.668116 159.43216 
L 351.467753 160.109395 
L 352.367571 159.141916 
L 353.26739 159.43216 
L 354.167209 159.915899 
L 355.067027 158.94842 
L 355.966846 159.625655 
L 356.866664 159.335412 
L 357.766483 159.43216 
L 358.666301 159.722403 
L 359.56612 158.851672 
L 360.465939 159.238664 
L 361.365757 158.561428 
L 362.265576 158.851672 
L 364.965032 158.94842 
L 366.764669 158.851672 
L 367.664487 158.367932 
L 368.564306 158.754924 
L 369.464124 158.754924 
L 370.363943 159.045168 
L 371.263762 158.754924 
L 372.16358 158.658176 
L 373.063399 157.884192 
L 373.963217 157.400452 
L 374.863036 158.367932 
L 375.762855 158.367932 
L 376.662673 157.690696 
L 377.562492 158.077688 
L 378.46231 157.787444 
L 379.362129 157.206956 
L 380.261948 157.787444 
L 382.061585 157.110208 
L 382.961403 157.690696 
L 383.861222 157.690696 
L 384.76104 157.206956 
L 385.660859 156.336225 
L 386.560678 156.336225 
L 388.360315 156.819964 
L 391.059771 156.723216 
L 391.959589 156.239477 
L 392.859408 156.432973 
L 393.759226 156.916712 
L 394.659045 155.852485 
L 395.558863 155.658989 
L 397.358501 156.336225 
L 398.258319 155.852485 
L 399.158138 155.949233 
L 400.057956 156.529721 
L 400.957775 156.336225 
L 402.757412 156.626468 
L 403.657231 156.626468 
L 404.557049 156.336225 
L 407.256505 156.916712 
L 408.156324 156.432973 
L 409.056142 156.916712 
L 411.755598 156.336225 
L 412.655417 156.432973 
L 413.555235 156.142729 
L 414.455054 156.529721 
L 415.354872 156.529721 
L 416.254691 155.949233 
L 417.154509 156.336225 
L 418.054328 155.658989 
L 418.954147 156.626468 
L 419.853965 156.045981 
L 420.753784 156.045981 
L 421.653602 156.723216 
L 423.45324 155.465493 
L 424.353058 155.852485 
L 426.152695 155.658989 
L 427.952333 155.175249 
L 428.852151 154.594761 
L 429.75197 154.885005 
L 431.551607 154.788257 
L 432.451425 154.691509 
L 433.351244 154.981753 
L 434.251063 154.401265 
L 435.150881 154.788257 
L 436.0507 154.788257 
L 436.950518 154.594761 
L 437.850337 154.691509 
L 440.549793 155.271997 
L 441.449611 154.788257 
L 442.34943 153.820777 
L 443.249248 154.498013 
L 444.149067 154.401265 
L 445.048886 154.981753 
L 445.948704 154.981753 
L 446.848523 155.271997 
L 449.547979 154.304517 
L 452.247434 154.014273 
L 453.147253 154.498013 
L 454.047071 154.788257 
L 454.94689 154.498013 
L 455.846709 154.498013 
L 456.746527 154.885005 
L 458.546164 154.885005 
L 459.445983 155.175249 
L 460.345802 155.078501 
L 461.24562 154.788257 
L 462.145439 154.981753 
L 463.045257 154.788257 
L 463.945076 155.078501 
L 464.844894 154.594761 
L 465.744713 155.175249 
L 467.54435 154.691509 
L 470.243806 154.788257 
L 471.143625 154.111021 
L 472.043443 154.401265 
L 472.943262 153.917525 
L 473.84308 154.401265 
L 475.642718 153.820777 
L 476.542536 153.820777 
L 477.442355 154.014273 
L 478.342173 154.014273 
L 479.241992 153.820777 
L 479.241992 153.820777 
" clip-path="url(#p5d39fb7250)" style="fill: none; stroke: #2ca02c; stroke-width: 1.5; stroke-linecap: square"/>
   </g>
   <g id="line2d_38">
    <path d="M 73.42381 190.739802 
L 77.023084 190.614029 
L 79.72254 190.643054 
L 86.921089 190.57533 
L 91.420182 190.555981 
L 93.219819 190.555981 
L 95.019456 190.536631 
L 96.819093 190.497932 
L 97.718912 190.459233 
L 99.518549 190.526956 
L 103.117823 190.488257 
L 104.917461 190.439883 
L 108.516735 190.381834 
L 110.316372 190.304436 
L 138.210748 190.83655 
L 142.709841 190.778501 
L 151.708027 190.643054 
L 154.407483 190.720452 
L 156.20712 190.662403 
L 160.706213 190.672078 
L 162.50585 190.759151 
L 163.405669 190.643054 
L 166.105124 190.749477 
L 211.995872 190.681753 
L 220.994058 190.57533 
L 221.893877 190.672078 
L 226.392969 190.614029 
L 236.290974 190.439883 
L 238.090611 190.488257 
L 239.890248 190.488257 
L 241.689885 190.546306 
L 242.589704 190.459233 
L 245.28916 190.526956 
L 249.788253 190.37216 
L 258.786439 190.391509 
L 260.586076 190.149639 
L 262.385713 190.13029 
L 288.480452 190.207688 
L 313.675372 189.878745 
L 314.575191 190.033542 
L 316.374828 189.936794 
L 329.872107 189.859395 
L 346.068841 189.791672 
L 346.96866 189.665899 
L 350.567934 189.685249 
L 355.966846 189.607851 
L 357.766483 189.588501 
L 359.56612 189.520777 
L 361.365757 189.433704 
L 362.265576 189.38533 
L 365.86485 189.365981 
L 366.764669 189.240208 
L 368.564306 189.240208 
L 370.363943 189.104761 
L 371.263762 189.124111 
L 372.16358 188.969314 
L 373.963217 188.94029 
L 374.863036 189.037038 
L 375.762855 188.949964 
L 377.562492 188.959639 
L 382.961403 188.862891 
L 385.660859 188.891916 
L 386.560678 188.746794 
L 388.360315 188.756468 
L 389.260133 188.911265 
L 391.059771 188.785493 
L 393.759226 188.795168 
L 394.659045 188.90159 
L 400.057956 188.766143 
L 400.957775 188.785493 
L 401.857594 188.688745 
L 402.757412 188.756468 
L 404.557049 188.688745 
L 418.954147 188.408176 
L 421.653602 188.398501 
L 424.353058 188.379151 
L 427.052514 188.398501 
L 430.651788 188.263054 
L 437.850337 188.301753 
L 440.549793 188.224355 
L 442.34943 188.311428 
L 443.249248 188.282403 
L 444.149067 188.388826 
L 445.048886 188.282403 
L 449.547979 188.379151 
L 457.646346 188.359802 
L 461.24562 188.466225 
L 462.145439 188.340452 
L 463.045257 188.379151 
L 464.844894 188.234029 
L 466.644532 188.253379 
L 468.444169 188.417851 
L 470.243806 188.330777 
L 471.143625 188.272729 
L 472.043443 188.359802 
L 472.943262 188.19533 
L 477.442355 188.050208 
L 479.241992 188.050208 
L 479.241992 188.050208 
" clip-path="url(#p5d39fb7250)" style="fill: none; stroke: #d62728; stroke-width: 1.5; stroke-linecap: square"/>
   </g>
   <g id="line2d_39">
    <path d="M 73.42381 195.135062 
L 78.822722 195.099265 
L 85.121452 195.061534 
L 92.32 195.050891 
L 122.913832 194.99381 
L 142.709841 195.016062 
L 188.600589 194.919314 
L 247.988616 194.75968 
L 254.287346 194.761615 
L 287.580633 194.64455 
L 288.480452 194.657127 
L 328.07247 194.563282 
L 329.872107 194.559412 
L 365.86485 194.479111 
L 382.061585 194.336891 
L 408.156324 194.258525 
L 421.653602 194.191769 
L 426.152695 194.192737 
L 435.150881 194.192737 
L 437.850337 194.133721 
L 473.84308 194.059225 
L 475.642718 193.842509 
L 476.542536 194.039875 
L 479.241992 194.024395 
L 479.241992 194.024395 
" clip-path="url(#p5d39fb7250)" style="fill: none; stroke: #9467bd; stroke-width: 1.5; stroke-linecap: square"/>
   </g>
   <g id="patch_3">
    <path d="M 53.132901 196.776875 
L 53.132901 25.416875 
" style="fill: none; stroke: #000000; stroke-width: 0.8; stroke-linejoin: miter; stroke-linecap: square"/>
   </g>
   <g id="patch_4">
    <path d="M 499.532901 196.776875 
L 499.532901 25.416875 
" style="fill: none; stroke: #000000; stroke-width: 0.8; stroke-linejoin: miter; stroke-linecap: square"/>
   </g>
   <g id="patch_5">
    <path d="M 53.132901 196.776875 
L 499.532901 196.776875 
" style="fill: none; stroke: #000000; stroke-width: 0.8; stroke-linejoin: miter; stroke-linecap: square"/>
   </g>
   <g id="patch_6">
    <path d="M 53.132901 25.416875 
L 499.532901 25.416875 
" style="fill: none; stroke: #000000; stroke-width: 0.8; stroke-linejoin: miter; stroke-linecap: square"/>
   </g>
   <g id="legend_1">
    <g id="patch_7">
     <path d="M 60.132901 62.773125 
L 387.714151 62.773125 
Q 389.714151 62.773125 389.714151 60.773125 
L 389.714151 32.416875 
Q 389.714151 30.416875 387.714151 30.416875 
L 60.132901 30.416875 
Q 58.132901 30.416875 58.132901 32.416875 
L 58.132901 60.773125 
Q 58.132901 62.773125 60.132901 62.773125 
z
" style="fill: #ffffff; opacity: 0.8; stroke: #cccccc; stroke-linejoin: miter"/>
    </g>
    <g id="line2d_40">
     <path d="M 62.132901 38.515313 
L 72.132901 38.515313 
L 82.132901 38.515313 
" style="fill: none; stroke: #1f77b4; stroke-width: 1.5; stroke-linecap: square"/>
    </g>
    <g id="text_27">
     <!-- Rank 1-100 -->
     <g transform="translate(90.132901 42.015313)scale(0.1 -0.1)">
      <defs>
       <path id="DejaVuSans-52" d="M 2841 2188 
Q 3044 2119 3236 1894 
Q 3428 1669 3622 1275 
L 4263 0 
L 3584 0 
L 2988 1197 
Q 2756 1666 2539 1819 
Q 2322 1972 1947 1972 
L 1259 1972 
L 1259 0 
L 628 0 
L 628 4666 
L 2053 4666 
Q 2853 4666 3247 4331 
Q 3641 3997 3641 3322 
Q 3641 2881 3436 2590 
Q 3231 2300 2841 2188 
z
M 1259 4147 
L 1259 2491 
L 2053 2491 
Q 2509 2491 2742 2702 
Q 2975 2913 2975 3322 
Q 2975 3731 2742 3939 
Q 2509 4147 2053 4147 
L 1259 4147 
z
" transform="scale(0.015625)"/>
       <path id="DejaVuSans-6b" d="M 581 4863 
L 1159 4863 
L 1159 1991 
L 2875 3500 
L 3609 3500 
L 1753 1863 
L 3688 0 
L 2938 0 
L 1159 1709 
L 1159 0 
L 581 0 
L 581 4863 
z
" transform="scale(0.015625)"/>
      </defs>
      <use xlink:href="#DejaVuSans-52"/>
      <use xlink:href="#DejaVuSans-61" x="67.232422"/>
      <use xlink:href="#DejaVuSans-6e" x="128.511719"/>
      <use xlink:href="#DejaVuSans-6b" x="191.890625"/>
      <use xlink:href="#DejaVuSans-20" x="249.800781"/>
      <use xlink:href="#DejaVuSans-31" x="281.587891"/>
      <use xlink:href="#DejaVuSans-2d" x="345.210938"/>
      <use xlink:href="#DejaVuSans-31" x="381.294922"/>
      <use xlink:href="#DejaVuSans-30" x="444.917969"/>
      <use xlink:href="#DejaVuSans-30" x="508.541016"/>
     </g>
    </g>
    <g id="line2d_41">
     <path d="M 62.132901 53.193438 
L 72.132901 53.193438 
L 82.132901 53.193438 
" style="fill: none; stroke: #ff7f0e; stroke-width: 1.5; stroke-linecap: square"/>
    </g>
    <g id="text_28">
     <!-- Rank 101-1k -->
     <g transform="translate(90.132901 56.693438)scale(0.1 -0.1)">
      <use xlink:href="#DejaVuSans-52"/>
      <use xlink:href="#DejaVuSans-61" x="67.232422"/>
      <use xlink:href="#DejaVuSans-6e" x="128.511719"/>
      <use xlink:href="#DejaVuSans-6b" x="191.890625"/>
      <use xlink:href="#DejaVuSans-20" x="249.800781"/>
      <use xlink:href="#DejaVuSans-31" x="281.587891"/>
      <use xlink:href="#DejaVuSans-30" x="345.210938"/>
      <use xlink:href="#DejaVuSans-31" x="408.833984"/>
      <use xlink:href="#DejaVuSans-2d" x="472.457031"/>
      <use xlink:href="#DejaVuSans-31" x="508.541016"/>
      <use xlink:href="#DejaVuSans-6b" x="572.164062"/>
     </g>
    </g>
    <g id="line2d_42">
     <path d="M 173.139151 38.515313 
L 183.139151 38.515313 
L 193.139151 38.515313 
" style="fill: none; stroke: #2ca02c; stroke-width: 1.5; stroke-linecap: square"/>
    </g>
    <g id="text_29">
     <!-- Rank 1k-10k -->
     <g transform="translate(201.139151 42.015313)scale(0.1 -0.1)">
      <use xlink:href="#DejaVuSans-52"/>
      <use xlink:href="#DejaVuSans-61" x="67.232422"/>
      <use xlink:href="#DejaVuSans-6e" x="128.511719"/>
      <use xlink:href="#DejaVuSans-6b" x="191.890625"/>
      <use xlink:href="#DejaVuSans-20" x="249.800781"/>
      <use xlink:href="#DejaVuSans-31" x="281.587891"/>
      <use xlink:href="#DejaVuSans-6b" x="345.210938"/>
      <use xlink:href="#DejaVuSans-2d" x="403.121094"/>
      <use xlink:href="#DejaVuSans-31" x="439.205078"/>
      <use xlink:href="#DejaVuSans-30" x="502.828125"/>
      <use xlink:href="#DejaVuSans-6b" x="566.451172"/>
     </g>
    </g>
    <g id="line2d_43">
     <path d="M 173.139151 53.193438 
L 183.139151 53.193438 
L 193.139151 53.193438 
" style="fill: none; stroke: #d62728; stroke-width: 1.5; stroke-linecap: square"/>
    </g>
    <g id="text_30">
     <!-- Rank 10k-100k -->
     <g transform="translate(201.139151 56.693438)scale(0.1 -0.1)">
      <use xlink:href="#DejaVuSans-52"/>
      <use xlink:href="#DejaVuSans-61" x="67.232422"/>
      <use xlink:href="#DejaVuSans-6e" x="128.511719"/>
      <use xlink:href="#DejaVuSans-6b" x="191.890625"/>
      <use xlink:href="#DejaVuSans-20" x="249.800781"/>
      <use xlink:href="#DejaVuSans-31" x="281.587891"/>
      <use xlink:href="#DejaVuSans-30" x="345.210938"/>
      <use xlink:href="#DejaVuSans-6b" x="408.833984"/>
      <use xlink:href="#DejaVuSans-2d" x="466.744141"/>
      <use xlink:href="#DejaVuSans-31" x="502.828125"/>
      <use xlink:href="#DejaVuSans-30" x="566.451172"/>
      <use xlink:href="#DejaVuSans-30" x="630.074219"/>
      <use xlink:href="#DejaVuSans-6b" x="693.697266"/>
     </g>
    </g>
    <g id="line2d_44">
     <path d="M 296.298526 38.515313 
L 306.298526 38.515313 
L 316.298526 38.515313 
" style="fill: none; stroke: #9467bd; stroke-width: 1.5; stroke-linecap: square"/>
    </g>
    <g id="text_31">
     <!-- Rank 100k+ -->
     <g transform="translate(324.298526 42.015313)scale(0.1 -0.1)">
      <defs>
       <path id="DejaVuSans-2b" d="M 2944 4013 
L 2944 2272 
L 4684 2272 
L 4684 1741 
L 2944 1741 
L 2944 0 
L 2419 0 
L 2419 1741 
L 678 1741 
L 678 2272 
L 2419 2272 
L 2419 4013 
L 2944 4013 
z
" transform="scale(0.015625)"/>
      </defs>
      <use xlink:href="#DejaVuSans-52"/>
      <use xlink:href="#DejaVuSans-61" x="67.232422"/>
      <use xlink:href="#DejaVuSans-6e" x="128.511719"/>
      <use xlink:href="#DejaVuSans-6b" x="191.890625"/>
      <use xlink:href="#DejaVuSans-20" x="249.800781"/>
      <use xlink:href="#DejaVuSans-31" x="281.587891"/>
      <use xlink:href="#DejaVuSans-30" x="345.210938"/>
      <use xlink:href="#DejaVuSans-30" x="408.833984"/>
      <use xlink:href="#DejaVuSans-6b" x="472.457031"/>
      <use xlink:href="#DejaVuSans-2b" x="530.367188"/>
     </g>
    </g>
   </g>
  </g>
 </g>
 <defs>
  <clipPath id="p5d39fb7250">
   <rect x="53.132901" y="25.416875" width="446.4" height="171.36"/>
  </clipPath>
 </defs>
</svg>
