<?xml version="1.0" encoding="utf-8" standalone="no"?>
<!DOCTYPE svg PUBLIC "-//W3C//DTD SVG 1.1//EN"
  "http://www.w3.org/Graphics/SVG/1.1/DTD/svg11.dtd">
<svg xmlns:xlink="http://www.w3.org/1999/xlink" width="507.159131pt" height="236.590408pt" viewBox="0 0 507.159131 236.590408" xmlns="http://www.w3.org/2000/svg" version="1.1">
 <metadata>
  <rdf:RDF xmlns:dc="http://purl.org/dc/elements/1.1/" xmlns:cc="http://creativecommons.org/ns#" xmlns:rdf="http://www.w3.org/1999/02/22-rdf-syntax-ns#">
   <cc:Work>
    <dc:type rdf:resource="http://purl.org/dc/dcmitype/StillImage"/>
    <dc:date>2022-01-27T23:08:21.239172</dc:date>
    <dc:format>image/svg+xml</dc:format>
    <dc:creator>
     <cc:Agent>
      <dc:title>Matplotlib v3.5.1, https://matplotlib.org/</dc:title>
     </cc:Agent>
    </dc:creator>
   </cc:Work>
  </rdf:RDF>
 </metadata>
 <defs>
  <style type="text/css">*{stroke-linejoin: round; stroke-linecap: butt}</style>
 </defs>
 <g id="figure_1">
  <g id="patch_1">
   <path d="M 0 236.590408 
L 507.159131 236.590408 
L 507.159131 0 
L 0 0 
z
" style="fill: #ffffff"/>
  </g>
  <g id="axes_1">
   <g id="patch_2">
    <path d="M 53.559131 181.063594 
L 499.959131 181.063594 
L 499.959131 9.703594 
L 53.559131 9.703594 
z
" style="fill: #ffffff"/>
   </g>
   <g id="matplotlib.axis_1">
    <g id="xtick_1">
     <g id="line2d_1">
      <defs>
       <path id="m478ac31acf" d="M 0 0 
L 0 3.5 
" style="stroke: #000000; stroke-width: 0.8"/>
      </defs>
      <g>
       <use xlink:href="#m478ac31acf" x="68.024899" y="181.063594" style="stroke: #000000; stroke-width: 0.8"/>
      </g>
     </g>
     <g id="text_1">
      <!-- 2020-Nov-01 -->
      <g transform="translate(10.999219 226.967471)rotate(-30)scale(0.1 -0.1)">
       <defs>
        <path id="DejaVuSans-32" d="M 1228 531 
L 3431 531 
L 3431 0 
L 469 0 
L 469 531 
Q 828 903 1448 1529 
Q 2069 2156 2228 2338 
Q 2531 2678 2651 2914 
Q 2772 3150 2772 3378 
Q 2772 3750 2511 3984 
Q 2250 4219 1831 4219 
Q 1534 4219 1204 4116 
Q 875 4013 500 3803 
L 500 4441 
Q 881 4594 1212 4672 
Q 1544 4750 1819 4750 
Q 2544 4750 2975 4387 
Q 3406 4025 3406 3419 
Q 3406 3131 3298 2873 
Q 3191 2616 2906 2266 
Q 2828 2175 2409 1742 
Q 1991 1309 1228 531 
z
" transform="scale(0.015625)"/>
        <path id="DejaVuSans-30" d="M 2034 4250 
Q 1547 4250 1301 3770 
Q 1056 3291 1056 2328 
Q 1056 1369 1301 889 
Q 1547 409 2034 409 
Q 2525 409 2770 889 
Q 3016 1369 3016 2328 
Q 3016 3291 2770 3770 
Q 2525 4250 2034 4250 
z
M 2034 4750 
Q 2819 4750 3233 4129 
Q 3647 3509 3647 2328 
Q 3647 1150 3233 529 
Q 2819 -91 2034 -91 
Q 1250 -91 836 529 
Q 422 1150 422 2328 
Q 422 3509 836 4129 
Q 1250 4750 2034 4750 
z
" transform="scale(0.015625)"/>
        <path id="DejaVuSans-2d" d="M 313 2009 
L 1997 2009 
L 1997 1497 
L 313 1497 
L 313 2009 
z
" transform="scale(0.015625)"/>
        <path id="DejaVuSans-4e" d="M 628 4666 
L 1478 4666 
L 3547 763 
L 3547 4666 
L 4159 4666 
L 4159 0 
L 3309 0 
L 1241 3903 
L 1241 0 
L 628 0 
L 628 4666 
z
" transform="scale(0.015625)"/>
        <path id="DejaVuSans-6f" d="M 1959 3097 
Q 1497 3097 1228 2736 
Q 959 2375 959 1747 
Q 959 1119 1226 758 
Q 1494 397 1959 397 
Q 2419 397 2687 759 
Q 2956 1122 2956 1747 
Q 2956 2369 2687 2733 
Q 2419 3097 1959 3097 
z
M 1959 3584 
Q 2709 3584 3137 3096 
Q 3566 2609 3566 1747 
Q 3566 888 3137 398 
Q 2709 -91 1959 -91 
Q 1206 -91 779 398 
Q 353 888 353 1747 
Q 353 2609 779 3096 
Q 1206 3584 1959 3584 
z
" transform="scale(0.015625)"/>
        <path id="DejaVuSans-76" d="M 191 3500 
L 800 3500 
L 1894 563 
L 2988 3500 
L 3597 3500 
L 2284 0 
L 1503 0 
L 191 3500 
z
" transform="scale(0.015625)"/>
        <path id="DejaVuSans-31" d="M 794 531 
L 1825 531 
L 1825 4091 
L 703 3866 
L 703 4441 
L 1819 4666 
L 2450 4666 
L 2450 531 
L 3481 531 
L 3481 0 
L 794 0 
L 794 531 
z
" transform="scale(0.015625)"/>
       </defs>
       <use xlink:href="#DejaVuSans-32"/>
       <use xlink:href="#DejaVuSans-30" x="63.623047"/>
       <use xlink:href="#DejaVuSans-32" x="127.246094"/>
       <use xlink:href="#DejaVuSans-30" x="190.869141"/>
       <use xlink:href="#DejaVuSans-2d" x="254.492188"/>
       <use xlink:href="#DejaVuSans-4e" x="290.576172"/>
       <use xlink:href="#DejaVuSans-6f" x="365.380859"/>
       <use xlink:href="#DejaVuSans-76" x="426.5625"/>
       <use xlink:href="#DejaVuSans-2d" x="483.117188"/>
       <use xlink:href="#DejaVuSans-30" x="519.201172"/>
       <use xlink:href="#DejaVuSans-31" x="582.824219"/>
      </g>
     </g>
    </g>
    <g id="xtick_2">
     <g id="line2d_2">
      <g>
       <use xlink:href="#m478ac31acf" x="97.150605" y="181.063594" style="stroke: #000000; stroke-width: 0.8"/>
      </g>
     </g>
     <g id="text_2">
      <!-- 2020-Dec-01 -->
      <g transform="translate(40.042383 227.015127)rotate(-30)scale(0.1 -0.1)">
       <defs>
        <path id="DejaVuSans-44" d="M 1259 4147 
L 1259 519 
L 2022 519 
Q 2988 519 3436 956 
Q 3884 1394 3884 2338 
Q 3884 3275 3436 3711 
Q 2988 4147 2022 4147 
L 1259 4147 
z
M 628 4666 
L 1925 4666 
Q 3281 4666 3915 4102 
Q 4550 3538 4550 2338 
Q 4550 1131 3912 565 
Q 3275 0 1925 0 
L 628 0 
L 628 4666 
z
" transform="scale(0.015625)"/>
        <path id="DejaVuSans-65" d="M 3597 1894 
L 3597 1613 
L 953 1613 
Q 991 1019 1311 708 
Q 1631 397 2203 397 
Q 2534 397 2845 478 
Q 3156 559 3463 722 
L 3463 178 
Q 3153 47 2828 -22 
Q 2503 -91 2169 -91 
Q 1331 -91 842 396 
Q 353 884 353 1716 
Q 353 2575 817 3079 
Q 1281 3584 2069 3584 
Q 2775 3584 3186 3129 
Q 3597 2675 3597 1894 
z
M 3022 2063 
Q 3016 2534 2758 2815 
Q 2500 3097 2075 3097 
Q 1594 3097 1305 2825 
Q 1016 2553 972 2059 
L 3022 2063 
z
" transform="scale(0.015625)"/>
        <path id="DejaVuSans-63" d="M 3122 3366 
L 3122 2828 
Q 2878 2963 2633 3030 
Q 2388 3097 2138 3097 
Q 1578 3097 1268 2742 
Q 959 2388 959 1747 
Q 959 1106 1268 751 
Q 1578 397 2138 397 
Q 2388 397 2633 464 
Q 2878 531 3122 666 
L 3122 134 
Q 2881 22 2623 -34 
Q 2366 -91 2075 -91 
Q 1284 -91 818 406 
Q 353 903 353 1747 
Q 353 2603 823 3093 
Q 1294 3584 2113 3584 
Q 2378 3584 2631 3529 
Q 2884 3475 3122 3366 
z
" transform="scale(0.015625)"/>
       </defs>
       <use xlink:href="#DejaVuSans-32"/>
       <use xlink:href="#DejaVuSans-30" x="63.623047"/>
       <use xlink:href="#DejaVuSans-32" x="127.246094"/>
       <use xlink:href="#DejaVuSans-30" x="190.869141"/>
       <use xlink:href="#DejaVuSans-2d" x="254.492188"/>
       <use xlink:href="#DejaVuSans-44" x="290.576172"/>
       <use xlink:href="#DejaVuSans-65" x="367.578125"/>
       <use xlink:href="#DejaVuSans-63" x="429.101562"/>
       <use xlink:href="#DejaVuSans-2d" x="484.082031"/>
       <use xlink:href="#DejaVuSans-30" x="520.166016"/>
       <use xlink:href="#DejaVuSans-31" x="583.789062"/>
      </g>
     </g>
    </g>
    <g id="xtick_3">
     <g id="line2d_3">
      <g>
       <use xlink:href="#m478ac31acf" x="127.247169" y="181.063594" style="stroke: #000000; stroke-width: 0.8"/>
      </g>
     </g>
     <g id="text_3">
      <!-- 2021-Jan-01 -->
      <g transform="translate(73.060429 225.328409)rotate(-30)scale(0.1 -0.1)">
       <defs>
        <path id="DejaVuSans-4a" d="M 628 4666 
L 1259 4666 
L 1259 325 
Q 1259 -519 939 -900 
Q 619 -1281 -91 -1281 
L -331 -1281 
L -331 -750 
L -134 -750 
Q 284 -750 456 -515 
Q 628 -281 628 325 
L 628 4666 
z
" transform="scale(0.015625)"/>
        <path id="DejaVuSans-61" d="M 2194 1759 
Q 1497 1759 1228 1600 
Q 959 1441 959 1056 
Q 959 750 1161 570 
Q 1363 391 1709 391 
Q 2188 391 2477 730 
Q 2766 1069 2766 1631 
L 2766 1759 
L 2194 1759 
z
M 3341 1997 
L 3341 0 
L 2766 0 
L 2766 531 
Q 2569 213 2275 61 
Q 1981 -91 1556 -91 
Q 1019 -91 701 211 
Q 384 513 384 1019 
Q 384 1609 779 1909 
Q 1175 2209 1959 2209 
L 2766 2209 
L 2766 2266 
Q 2766 2663 2505 2880 
Q 2244 3097 1772 3097 
Q 1472 3097 1187 3025 
Q 903 2953 641 2809 
L 641 3341 
Q 956 3463 1253 3523 
Q 1550 3584 1831 3584 
Q 2591 3584 2966 3190 
Q 3341 2797 3341 1997 
z
" transform="scale(0.015625)"/>
        <path id="DejaVuSans-6e" d="M 3513 2113 
L 3513 0 
L 2938 0 
L 2938 2094 
Q 2938 2591 2744 2837 
Q 2550 3084 2163 3084 
Q 1697 3084 1428 2787 
Q 1159 2491 1159 1978 
L 1159 0 
L 581 0 
L 581 3500 
L 1159 3500 
L 1159 2956 
Q 1366 3272 1645 3428 
Q 1925 3584 2291 3584 
Q 2894 3584 3203 3211 
Q 3513 2838 3513 2113 
z
" transform="scale(0.015625)"/>
       </defs>
       <use xlink:href="#DejaVuSans-32"/>
       <use xlink:href="#DejaVuSans-30" x="63.623047"/>
       <use xlink:href="#DejaVuSans-32" x="127.246094"/>
       <use xlink:href="#DejaVuSans-31" x="190.869141"/>
       <use xlink:href="#DejaVuSans-2d" x="254.492188"/>
       <use xlink:href="#DejaVuSans-4a" x="296.201172"/>
       <use xlink:href="#DejaVuSans-61" x="325.693359"/>
       <use xlink:href="#DejaVuSans-6e" x="386.972656"/>
       <use xlink:href="#DejaVuSans-2d" x="450.351562"/>
       <use xlink:href="#DejaVuSans-30" x="486.435547"/>
       <use xlink:href="#DejaVuSans-31" x="550.058594"/>
      </g>
     </g>
    </g>
    <g id="xtick_4">
     <g id="line2d_4">
      <g>
       <use xlink:href="#m478ac31acf" x="157.343733" y="181.063594" style="stroke: #000000; stroke-width: 0.8"/>
      </g>
     </g>
     <g id="text_4">
      <!-- 2021-Feb-01 -->
      <g transform="translate(101.663099 226.190909)rotate(-30)scale(0.1 -0.1)">
       <defs>
        <path id="DejaVuSans-46" d="M 628 4666 
L 3309 4666 
L 3309 4134 
L 1259 4134 
L 1259 2759 
L 3109 2759 
L 3109 2228 
L 1259 2228 
L 1259 0 
L 628 0 
L 628 4666 
z
" transform="scale(0.015625)"/>
        <path id="DejaVuSans-62" d="M 3116 1747 
Q 3116 2381 2855 2742 
Q 2594 3103 2138 3103 
Q 1681 3103 1420 2742 
Q 1159 2381 1159 1747 
Q 1159 1113 1420 752 
Q 1681 391 2138 391 
Q 2594 391 2855 752 
Q 3116 1113 3116 1747 
z
M 1159 2969 
Q 1341 3281 1617 3432 
Q 1894 3584 2278 3584 
Q 2916 3584 3314 3078 
Q 3713 2572 3713 1747 
Q 3713 922 3314 415 
Q 2916 -91 2278 -91 
Q 1894 -91 1617 61 
Q 1341 213 1159 525 
L 1159 0 
L 581 0 
L 581 4863 
L 1159 4863 
L 1159 2969 
z
" transform="scale(0.015625)"/>
       </defs>
       <use xlink:href="#DejaVuSans-32"/>
       <use xlink:href="#DejaVuSans-30" x="63.623047"/>
       <use xlink:href="#DejaVuSans-32" x="127.246094"/>
       <use xlink:href="#DejaVuSans-31" x="190.869141"/>
       <use xlink:href="#DejaVuSans-2d" x="254.492188"/>
       <use xlink:href="#DejaVuSans-46" x="290.576172"/>
       <use xlink:href="#DejaVuSans-65" x="342.595703"/>
       <use xlink:href="#DejaVuSans-62" x="404.119141"/>
       <use xlink:href="#DejaVuSans-2d" x="467.595703"/>
       <use xlink:href="#DejaVuSans-30" x="503.679688"/>
       <use xlink:href="#DejaVuSans-31" x="567.302734"/>
      </g>
     </g>
    </g>
    <g id="xtick_5">
     <g id="line2d_5">
      <g>
       <use xlink:href="#m478ac31acf" x="184.527726" y="181.063594" style="stroke: #000000; stroke-width: 0.8"/>
      </g>
     </g>
     <g id="text_5">
      <!-- 2021-Mar-01 -->
      <g transform="translate(128.391075 226.45419)rotate(-30)scale(0.1 -0.1)">
       <defs>
        <path id="DejaVuSans-4d" d="M 628 4666 
L 1569 4666 
L 2759 1491 
L 3956 4666 
L 4897 4666 
L 4897 0 
L 4281 0 
L 4281 4097 
L 3078 897 
L 2444 897 
L 1241 4097 
L 1241 0 
L 628 0 
L 628 4666 
z
" transform="scale(0.015625)"/>
        <path id="DejaVuSans-72" d="M 2631 2963 
Q 2534 3019 2420 3045 
Q 2306 3072 2169 3072 
Q 1681 3072 1420 2755 
Q 1159 2438 1159 1844 
L 1159 0 
L 581 0 
L 581 3500 
L 1159 3500 
L 1159 2956 
Q 1341 3275 1631 3429 
Q 1922 3584 2338 3584 
Q 2397 3584 2469 3576 
Q 2541 3569 2628 3553 
L 2631 2963 
z
" transform="scale(0.015625)"/>
       </defs>
       <use xlink:href="#DejaVuSans-32"/>
       <use xlink:href="#DejaVuSans-30" x="63.623047"/>
       <use xlink:href="#DejaVuSans-32" x="127.246094"/>
       <use xlink:href="#DejaVuSans-31" x="190.869141"/>
       <use xlink:href="#DejaVuSans-2d" x="254.492188"/>
       <use xlink:href="#DejaVuSans-4d" x="290.576172"/>
       <use xlink:href="#DejaVuSans-61" x="376.855469"/>
       <use xlink:href="#DejaVuSans-72" x="438.134766"/>
       <use xlink:href="#DejaVuSans-2d" x="472.873047"/>
       <use xlink:href="#DejaVuSans-30" x="508.957031"/>
       <use xlink:href="#DejaVuSans-31" x="572.580078"/>
      </g>
     </g>
    </g>
    <g id="xtick_6">
     <g id="line2d_6">
      <g>
       <use xlink:href="#m478ac31acf" x="214.62429" y="181.063594" style="stroke: #000000; stroke-width: 0.8"/>
      </g>
     </g>
     <g id="text_6">
      <!-- 2021-Apr-01 -->
      <g transform="translate(160.039719 225.558096)rotate(-30)scale(0.1 -0.1)">
       <defs>
        <path id="DejaVuSans-41" d="M 2188 4044 
L 1331 1722 
L 3047 1722 
L 2188 4044 
z
M 1831 4666 
L 2547 4666 
L 4325 0 
L 3669 0 
L 3244 1197 
L 1141 1197 
L 716 0 
L 50 0 
L 1831 4666 
z
" transform="scale(0.015625)"/>
        <path id="DejaVuSans-70" d="M 1159 525 
L 1159 -1331 
L 581 -1331 
L 581 3500 
L 1159 3500 
L 1159 2969 
Q 1341 3281 1617 3432 
Q 1894 3584 2278 3584 
Q 2916 3584 3314 3078 
Q 3713 2572 3713 1747 
Q 3713 922 3314 415 
Q 2916 -91 2278 -91 
Q 1894 -91 1617 61 
Q 1341 213 1159 525 
z
M 3116 1747 
Q 3116 2381 2855 2742 
Q 2594 3103 2138 3103 
Q 1681 3103 1420 2742 
Q 1159 2381 1159 1747 
Q 1159 1113 1420 752 
Q 1681 391 2138 391 
Q 2594 391 2855 752 
Q 3116 1113 3116 1747 
z
" transform="scale(0.015625)"/>
       </defs>
       <use xlink:href="#DejaVuSans-32"/>
       <use xlink:href="#DejaVuSans-30" x="63.623047"/>
       <use xlink:href="#DejaVuSans-32" x="127.246094"/>
       <use xlink:href="#DejaVuSans-31" x="190.869141"/>
       <use xlink:href="#DejaVuSans-2d" x="254.492188"/>
       <use xlink:href="#DejaVuSans-41" x="288.326172"/>
       <use xlink:href="#DejaVuSans-70" x="356.734375"/>
       <use xlink:href="#DejaVuSans-72" x="420.210938"/>
       <use xlink:href="#DejaVuSans-2d" x="454.949219"/>
       <use xlink:href="#DejaVuSans-30" x="491.033203"/>
       <use xlink:href="#DejaVuSans-31" x="554.65625"/>
      </g>
     </g>
    </g>
    <g id="xtick_7">
     <g id="line2d_7">
      <g>
       <use xlink:href="#m478ac31acf" x="243.749996" y="181.063594" style="stroke: #000000; stroke-width: 0.8"/>
      </g>
     </g>
     <g id="text_7">
      <!-- 2021-May-01 -->
      <g transform="translate(185.647198 227.589346)rotate(-30)scale(0.1 -0.1)">
       <defs>
        <path id="DejaVuSans-79" d="M 2059 -325 
Q 1816 -950 1584 -1140 
Q 1353 -1331 966 -1331 
L 506 -1331 
L 506 -850 
L 844 -850 
Q 1081 -850 1212 -737 
Q 1344 -625 1503 -206 
L 1606 56 
L 191 3500 
L 800 3500 
L 1894 763 
L 2988 3500 
L 3597 3500 
L 2059 -325 
z
" transform="scale(0.015625)"/>
       </defs>
       <use xlink:href="#DejaVuSans-32"/>
       <use xlink:href="#DejaVuSans-30" x="63.623047"/>
       <use xlink:href="#DejaVuSans-32" x="127.246094"/>
       <use xlink:href="#DejaVuSans-31" x="190.869141"/>
       <use xlink:href="#DejaVuSans-2d" x="254.492188"/>
       <use xlink:href="#DejaVuSans-4d" x="290.576172"/>
       <use xlink:href="#DejaVuSans-61" x="376.855469"/>
       <use xlink:href="#DejaVuSans-79" x="438.134766"/>
       <use xlink:href="#DejaVuSans-2d" x="495.564453"/>
       <use xlink:href="#DejaVuSans-30" x="531.648438"/>
       <use xlink:href="#DejaVuSans-31" x="595.271484"/>
      </g>
     </g>
    </g>
    <g id="xtick_8">
     <g id="line2d_8">
      <g>
       <use xlink:href="#m478ac31acf" x="273.84656" y="181.063594" style="stroke: #000000; stroke-width: 0.8"/>
      </g>
     </g>
     <g id="text_8">
      <!-- 2021-Jun-01 -->
      <g transform="translate(219.478496 225.433096)rotate(-30)scale(0.1 -0.1)">
       <defs>
        <path id="DejaVuSans-75" d="M 544 1381 
L 544 3500 
L 1119 3500 
L 1119 1403 
Q 1119 906 1312 657 
Q 1506 409 1894 409 
Q 2359 409 2629 706 
Q 2900 1003 2900 1516 
L 2900 3500 
L 3475 3500 
L 3475 0 
L 2900 0 
L 2900 538 
Q 2691 219 2414 64 
Q 2138 -91 1772 -91 
Q 1169 -91 856 284 
Q 544 659 544 1381 
z
M 1991 3584 
L 1991 3584 
z
" transform="scale(0.015625)"/>
       </defs>
       <use xlink:href="#DejaVuSans-32"/>
       <use xlink:href="#DejaVuSans-30" x="63.623047"/>
       <use xlink:href="#DejaVuSans-32" x="127.246094"/>
       <use xlink:href="#DejaVuSans-31" x="190.869141"/>
       <use xlink:href="#DejaVuSans-2d" x="254.492188"/>
       <use xlink:href="#DejaVuSans-4a" x="296.201172"/>
       <use xlink:href="#DejaVuSans-75" x="325.693359"/>
       <use xlink:href="#DejaVuSans-6e" x="389.072266"/>
       <use xlink:href="#DejaVuSans-2d" x="452.451172"/>
       <use xlink:href="#DejaVuSans-30" x="488.535156"/>
       <use xlink:href="#DejaVuSans-31" x="552.158203"/>
      </g>
     </g>
    </g>
    <g id="xtick_9">
     <g id="line2d_9">
      <g>
       <use xlink:href="#m478ac31acf" x="302.972267" y="181.063594" style="stroke: #000000; stroke-width: 0.8"/>
      </g>
     </g>
     <g id="text_9">
      <!-- 2021-Jul-01 -->
      <g transform="translate(251.686712 223.653409)rotate(-30)scale(0.1 -0.1)">
       <defs>
        <path id="DejaVuSans-6c" d="M 603 4863 
L 1178 4863 
L 1178 0 
L 603 0 
L 603 4863 
z
" transform="scale(0.015625)"/>
       </defs>
       <use xlink:href="#DejaVuSans-32"/>
       <use xlink:href="#DejaVuSans-30" x="63.623047"/>
       <use xlink:href="#DejaVuSans-32" x="127.246094"/>
       <use xlink:href="#DejaVuSans-31" x="190.869141"/>
       <use xlink:href="#DejaVuSans-2d" x="254.492188"/>
       <use xlink:href="#DejaVuSans-4a" x="296.201172"/>
       <use xlink:href="#DejaVuSans-75" x="325.693359"/>
       <use xlink:href="#DejaVuSans-6c" x="389.072266"/>
       <use xlink:href="#DejaVuSans-2d" x="416.855469"/>
       <use xlink:href="#DejaVuSans-30" x="452.939453"/>
       <use xlink:href="#DejaVuSans-31" x="516.5625"/>
      </g>
     </g>
    </g>
    <g id="xtick_10">
     <g id="line2d_10">
      <g>
       <use xlink:href="#m478ac31acf" x="333.068831" y="181.063594" style="stroke: #000000; stroke-width: 0.8"/>
      </g>
     </g>
     <g id="text_10">
      <!-- 2021-Aug-01 -->
      <g transform="translate(276.003909 226.990127)rotate(-30)scale(0.1 -0.1)">
       <defs>
        <path id="DejaVuSans-67" d="M 2906 1791 
Q 2906 2416 2648 2759 
Q 2391 3103 1925 3103 
Q 1463 3103 1205 2759 
Q 947 2416 947 1791 
Q 947 1169 1205 825 
Q 1463 481 1925 481 
Q 2391 481 2648 825 
Q 2906 1169 2906 1791 
z
M 3481 434 
Q 3481 -459 3084 -895 
Q 2688 -1331 1869 -1331 
Q 1566 -1331 1297 -1286 
Q 1028 -1241 775 -1147 
L 775 -588 
Q 1028 -725 1275 -790 
Q 1522 -856 1778 -856 
Q 2344 -856 2625 -561 
Q 2906 -266 2906 331 
L 2906 616 
Q 2728 306 2450 153 
Q 2172 0 1784 0 
Q 1141 0 747 490 
Q 353 981 353 1791 
Q 353 2603 747 3093 
Q 1141 3584 1784 3584 
Q 2172 3584 2450 3431 
Q 2728 3278 2906 2969 
L 2906 3500 
L 3481 3500 
L 3481 434 
z
" transform="scale(0.015625)"/>
       </defs>
       <use xlink:href="#DejaVuSans-32"/>
       <use xlink:href="#DejaVuSans-30" x="63.623047"/>
       <use xlink:href="#DejaVuSans-32" x="127.246094"/>
       <use xlink:href="#DejaVuSans-31" x="190.869141"/>
       <use xlink:href="#DejaVuSans-2d" x="254.492188"/>
       <use xlink:href="#DejaVuSans-41" x="288.326172"/>
       <use xlink:href="#DejaVuSans-75" x="356.734375"/>
       <use xlink:href="#DejaVuSans-67" x="420.113281"/>
       <use xlink:href="#DejaVuSans-2d" x="483.589844"/>
       <use xlink:href="#DejaVuSans-30" x="519.673828"/>
       <use xlink:href="#DejaVuSans-31" x="583.296875"/>
      </g>
     </g>
    </g>
    <g id="xtick_11">
     <g id="line2d_11">
      <g>
       <use xlink:href="#m478ac31acf" x="363.165394" y="181.063594" style="stroke: #000000; stroke-width: 0.8"/>
      </g>
     </g>
     <g id="text_11">
      <!-- 2021-Sep-01 -->
      <g transform="translate(306.491537 226.764346)rotate(-30)scale(0.1 -0.1)">
       <defs>
        <path id="DejaVuSans-53" d="M 3425 4513 
L 3425 3897 
Q 3066 4069 2747 4153 
Q 2428 4238 2131 4238 
Q 1616 4238 1336 4038 
Q 1056 3838 1056 3469 
Q 1056 3159 1242 3001 
Q 1428 2844 1947 2747 
L 2328 2669 
Q 3034 2534 3370 2195 
Q 3706 1856 3706 1288 
Q 3706 609 3251 259 
Q 2797 -91 1919 -91 
Q 1588 -91 1214 -16 
Q 841 59 441 206 
L 441 856 
Q 825 641 1194 531 
Q 1563 422 1919 422 
Q 2459 422 2753 634 
Q 3047 847 3047 1241 
Q 3047 1584 2836 1778 
Q 2625 1972 2144 2069 
L 1759 2144 
Q 1053 2284 737 2584 
Q 422 2884 422 3419 
Q 422 4038 858 4394 
Q 1294 4750 2059 4750 
Q 2388 4750 2728 4690 
Q 3069 4631 3425 4513 
z
" transform="scale(0.015625)"/>
       </defs>
       <use xlink:href="#DejaVuSans-32"/>
       <use xlink:href="#DejaVuSans-30" x="63.623047"/>
       <use xlink:href="#DejaVuSans-32" x="127.246094"/>
       <use xlink:href="#DejaVuSans-31" x="190.869141"/>
       <use xlink:href="#DejaVuSans-2d" x="254.492188"/>
       <use xlink:href="#DejaVuSans-53" x="290.576172"/>
       <use xlink:href="#DejaVuSans-65" x="354.052734"/>
       <use xlink:href="#DejaVuSans-70" x="415.576172"/>
       <use xlink:href="#DejaVuSans-2d" x="479.052734"/>
       <use xlink:href="#DejaVuSans-30" x="515.136719"/>
       <use xlink:href="#DejaVuSans-31" x="578.759766"/>
      </g>
     </g>
    </g>
    <g id="xtick_12">
     <g id="line2d_12">
      <g>
       <use xlink:href="#m478ac31acf" x="392.291101" y="181.063594" style="stroke: #000000; stroke-width: 0.8"/>
      </g>
     </g>
     <g id="text_12">
      <!-- 2021-Oct-01 -->
      <g transform="translate(336.729546 226.122159)rotate(-30)scale(0.1 -0.1)">
       <defs>
        <path id="DejaVuSans-4f" d="M 2522 4238 
Q 1834 4238 1429 3725 
Q 1025 3213 1025 2328 
Q 1025 1447 1429 934 
Q 1834 422 2522 422 
Q 3209 422 3611 934 
Q 4013 1447 4013 2328 
Q 4013 3213 3611 3725 
Q 3209 4238 2522 4238 
z
M 2522 4750 
Q 3503 4750 4090 4092 
Q 4678 3434 4678 2328 
Q 4678 1225 4090 567 
Q 3503 -91 2522 -91 
Q 1538 -91 948 565 
Q 359 1222 359 2328 
Q 359 3434 948 4092 
Q 1538 4750 2522 4750 
z
" transform="scale(0.015625)"/>
        <path id="DejaVuSans-74" d="M 1172 4494 
L 1172 3500 
L 2356 3500 
L 2356 3053 
L 1172 3053 
L 1172 1153 
Q 1172 725 1289 603 
Q 1406 481 1766 481 
L 2356 481 
L 2356 0 
L 1766 0 
Q 1100 0 847 248 
Q 594 497 594 1153 
L 594 3053 
L 172 3053 
L 172 3500 
L 594 3500 
L 594 4494 
L 1172 4494 
z
" transform="scale(0.015625)"/>
       </defs>
       <use xlink:href="#DejaVuSans-32"/>
       <use xlink:href="#DejaVuSans-30" x="63.623047"/>
       <use xlink:href="#DejaVuSans-32" x="127.246094"/>
       <use xlink:href="#DejaVuSans-31" x="190.869141"/>
       <use xlink:href="#DejaVuSans-2d" x="254.492188"/>
       <use xlink:href="#DejaVuSans-4f" x="293.326172"/>
       <use xlink:href="#DejaVuSans-63" x="372.037109"/>
       <use xlink:href="#DejaVuSans-74" x="427.017578"/>
       <use xlink:href="#DejaVuSans-2d" x="466.226562"/>
       <use xlink:href="#DejaVuSans-30" x="502.310547"/>
       <use xlink:href="#DejaVuSans-31" x="565.933594"/>
      </g>
     </g>
    </g>
    <g id="xtick_13">
     <g id="line2d_13">
      <g>
       <use xlink:href="#m478ac31acf" x="422.387665" y="181.063594" style="stroke: #000000; stroke-width: 0.8"/>
      </g>
     </g>
     <g id="text_13">
      <!-- 2021-Nov-01 -->
      <g transform="translate(365.361985 226.967471)rotate(-30)scale(0.1 -0.1)">
       <use xlink:href="#DejaVuSans-32"/>
       <use xlink:href="#DejaVuSans-30" x="63.623047"/>
       <use xlink:href="#DejaVuSans-32" x="127.246094"/>
       <use xlink:href="#DejaVuSans-31" x="190.869141"/>
       <use xlink:href="#DejaVuSans-2d" x="254.492188"/>
       <use xlink:href="#DejaVuSans-4e" x="290.576172"/>
       <use xlink:href="#DejaVuSans-6f" x="365.380859"/>
       <use xlink:href="#DejaVuSans-76" x="426.5625"/>
       <use xlink:href="#DejaVuSans-2d" x="483.117188"/>
       <use xlink:href="#DejaVuSans-30" x="519.201172"/>
       <use xlink:href="#DejaVuSans-31" x="582.824219"/>
      </g>
     </g>
    </g>
    <g id="xtick_14">
     <g id="line2d_14">
      <g>
       <use xlink:href="#m478ac31acf" x="451.513372" y="181.063594" style="stroke: #000000; stroke-width: 0.8"/>
      </g>
     </g>
     <g id="text_14">
      <!-- 2021-Dec-01 -->
      <g transform="translate(394.405149 227.015127)rotate(-30)scale(0.1 -0.1)">
       <use xlink:href="#DejaVuSans-32"/>
       <use xlink:href="#DejaVuSans-30" x="63.623047"/>
       <use xlink:href="#DejaVuSans-32" x="127.246094"/>
       <use xlink:href="#DejaVuSans-31" x="190.869141"/>
       <use xlink:href="#DejaVuSans-2d" x="254.492188"/>
       <use xlink:href="#DejaVuSans-44" x="290.576172"/>
       <use xlink:href="#DejaVuSans-65" x="367.578125"/>
       <use xlink:href="#DejaVuSans-63" x="429.101562"/>
       <use xlink:href="#DejaVuSans-2d" x="484.082031"/>
       <use xlink:href="#DejaVuSans-30" x="520.166016"/>
       <use xlink:href="#DejaVuSans-31" x="583.789062"/>
      </g>
     </g>
    </g>
    <g id="xtick_15">
     <g id="line2d_15">
      <g>
       <use xlink:href="#m478ac31acf" x="481.609935" y="181.063594" style="stroke: #000000; stroke-width: 0.8"/>
      </g>
     </g>
     <g id="text_15">
      <!-- 2022-Jan-01 -->
      <g transform="translate(427.423195 225.328409)rotate(-30)scale(0.1 -0.1)">
       <use xlink:href="#DejaVuSans-32"/>
       <use xlink:href="#DejaVuSans-30" x="63.623047"/>
       <use xlink:href="#DejaVuSans-32" x="127.246094"/>
       <use xlink:href="#DejaVuSans-32" x="190.869141"/>
       <use xlink:href="#DejaVuSans-2d" x="254.492188"/>
       <use xlink:href="#DejaVuSans-4a" x="296.201172"/>
       <use xlink:href="#DejaVuSans-61" x="325.693359"/>
       <use xlink:href="#DejaVuSans-6e" x="386.972656"/>
       <use xlink:href="#DejaVuSans-2d" x="450.351562"/>
       <use xlink:href="#DejaVuSans-30" x="486.435547"/>
       <use xlink:href="#DejaVuSans-31" x="550.058594"/>
      </g>
     </g>
    </g>
   </g>
   <g id="matplotlib.axis_2">
    <g id="ytick_1">
     <g id="line2d_16">
      <path d="M 53.559131 179.239998 
L 499.959131 179.239998 
" clip-path="url(#p9f42969566)" style="fill: none; stroke: #b0b0b0; stroke-width: 0.8; stroke-linecap: square"/>
     </g>
     <g id="line2d_17">
      <defs>
       <path id="m21a914eabb" d="M 0 0 
L -3.5 0 
" style="stroke: #000000; stroke-width: 0.8"/>
      </defs>
      <g>
       <use xlink:href="#m21a914eabb" x="53.559131" y="179.239998" style="stroke: #000000; stroke-width: 0.8"/>
      </g>
     </g>
     <g id="text_16">
      <!-- 0 -->
      <g transform="translate(40.196631 183.039216)scale(0.1 -0.1)">
       <use xlink:href="#DejaVuSans-30"/>
      </g>
     </g>
    </g>
    <g id="ytick_2">
     <g id="line2d_18">
      <path d="M 53.559131 146.651352 
L 499.959131 146.651352 
" clip-path="url(#p9f42969566)" style="fill: none; stroke: #b0b0b0; stroke-width: 0.8; stroke-linecap: square"/>
     </g>
     <g id="line2d_19">
      <g>
       <use xlink:href="#m21a914eabb" x="53.559131" y="146.651352" style="stroke: #000000; stroke-width: 0.8"/>
      </g>
     </g>
     <g id="text_17">
      <!-- 20 -->
      <g transform="translate(33.834131 150.450571)scale(0.1 -0.1)">
       <use xlink:href="#DejaVuSans-32"/>
       <use xlink:href="#DejaVuSans-30" x="63.623047"/>
      </g>
     </g>
    </g>
    <g id="ytick_3">
     <g id="line2d_20">
      <path d="M 53.559131 114.062707 
L 499.959131 114.062707 
" clip-path="url(#p9f42969566)" style="fill: none; stroke: #b0b0b0; stroke-width: 0.8; stroke-linecap: square"/>
     </g>
     <g id="line2d_21">
      <g>
       <use xlink:href="#m21a914eabb" x="53.559131" y="114.062707" style="stroke: #000000; stroke-width: 0.8"/>
      </g>
     </g>
     <g id="text_18">
      <!-- 40 -->
      <g transform="translate(33.834131 117.861926)scale(0.1 -0.1)">
       <defs>
        <path id="DejaVuSans-34" d="M 2419 4116 
L 825 1625 
L 2419 1625 
L 2419 4116 
z
M 2253 4666 
L 3047 4666 
L 3047 1625 
L 3713 1625 
L 3713 1100 
L 3047 1100 
L 3047 0 
L 2419 0 
L 2419 1100 
L 313 1100 
L 313 1709 
L 2253 4666 
z
" transform="scale(0.015625)"/>
       </defs>
       <use xlink:href="#DejaVuSans-34"/>
       <use xlink:href="#DejaVuSans-30" x="63.623047"/>
      </g>
     </g>
    </g>
    <g id="ytick_4">
     <g id="line2d_22">
      <path d="M 53.559131 81.474062 
L 499.959131 81.474062 
" clip-path="url(#p9f42969566)" style="fill: none; stroke: #b0b0b0; stroke-width: 0.8; stroke-linecap: square"/>
     </g>
     <g id="line2d_23">
      <g>
       <use xlink:href="#m21a914eabb" x="53.559131" y="81.474062" style="stroke: #000000; stroke-width: 0.8"/>
      </g>
     </g>
     <g id="text_19">
      <!-- 60 -->
      <g transform="translate(33.834131 85.27328)scale(0.1 -0.1)">
       <defs>
        <path id="DejaVuSans-36" d="M 2113 2584 
Q 1688 2584 1439 2293 
Q 1191 2003 1191 1497 
Q 1191 994 1439 701 
Q 1688 409 2113 409 
Q 2538 409 2786 701 
Q 3034 994 3034 1497 
Q 3034 2003 2786 2293 
Q 2538 2584 2113 2584 
z
M 3366 4563 
L 3366 3988 
Q 3128 4100 2886 4159 
Q 2644 4219 2406 4219 
Q 1781 4219 1451 3797 
Q 1122 3375 1075 2522 
Q 1259 2794 1537 2939 
Q 1816 3084 2150 3084 
Q 2853 3084 3261 2657 
Q 3669 2231 3669 1497 
Q 3669 778 3244 343 
Q 2819 -91 2113 -91 
Q 1303 -91 875 529 
Q 447 1150 447 2328 
Q 447 3434 972 4092 
Q 1497 4750 2381 4750 
Q 2619 4750 2861 4703 
Q 3103 4656 3366 4563 
z
" transform="scale(0.015625)"/>
       </defs>
       <use xlink:href="#DejaVuSans-36"/>
       <use xlink:href="#DejaVuSans-30" x="63.623047"/>
      </g>
     </g>
    </g>
    <g id="ytick_5">
     <g id="line2d_24">
      <path d="M 53.559131 48.885416 
L 499.959131 48.885416 
" clip-path="url(#p9f42969566)" style="fill: none; stroke: #b0b0b0; stroke-width: 0.8; stroke-linecap: square"/>
     </g>
     <g id="line2d_25">
      <g>
       <use xlink:href="#m21a914eabb" x="53.559131" y="48.885416" style="stroke: #000000; stroke-width: 0.8"/>
      </g>
     </g>
     <g id="text_20">
      <!-- 80 -->
      <g transform="translate(33.834131 52.684635)scale(0.1 -0.1)">
       <defs>
        <path id="DejaVuSans-38" d="M 2034 2216 
Q 1584 2216 1326 1975 
Q 1069 1734 1069 1313 
Q 1069 891 1326 650 
Q 1584 409 2034 409 
Q 2484 409 2743 651 
Q 3003 894 3003 1313 
Q 3003 1734 2745 1975 
Q 2488 2216 2034 2216 
z
M 1403 2484 
Q 997 2584 770 2862 
Q 544 3141 544 3541 
Q 544 4100 942 4425 
Q 1341 4750 2034 4750 
Q 2731 4750 3128 4425 
Q 3525 4100 3525 3541 
Q 3525 3141 3298 2862 
Q 3072 2584 2669 2484 
Q 3125 2378 3379 2068 
Q 3634 1759 3634 1313 
Q 3634 634 3220 271 
Q 2806 -91 2034 -91 
Q 1263 -91 848 271 
Q 434 634 434 1313 
Q 434 1759 690 2068 
Q 947 2378 1403 2484 
z
M 1172 3481 
Q 1172 3119 1398 2916 
Q 1625 2713 2034 2713 
Q 2441 2713 2670 2916 
Q 2900 3119 2900 3481 
Q 2900 3844 2670 4047 
Q 2441 4250 2034 4250 
Q 1625 4250 1398 4047 
Q 1172 3844 1172 3481 
z
" transform="scale(0.015625)"/>
       </defs>
       <use xlink:href="#DejaVuSans-38"/>
       <use xlink:href="#DejaVuSans-30" x="63.623047"/>
      </g>
     </g>
    </g>
    <g id="ytick_6">
     <g id="line2d_26">
      <path d="M 53.559131 16.296771 
L 499.959131 16.296771 
" clip-path="url(#p9f42969566)" style="fill: none; stroke: #b0b0b0; stroke-width: 0.8; stroke-linecap: square"/>
     </g>
     <g id="line2d_27">
      <g>
       <use xlink:href="#m21a914eabb" x="53.559131" y="16.296771" style="stroke: #000000; stroke-width: 0.8"/>
      </g>
     </g>
     <g id="text_21">
      <!-- 100 -->
      <g transform="translate(27.471631 20.09599)scale(0.1 -0.1)">
       <use xlink:href="#DejaVuSans-31"/>
       <use xlink:href="#DejaVuSans-30" x="63.623047"/>
       <use xlink:href="#DejaVuSans-30" x="127.246094"/>
      </g>
     </g>
    </g>
    <g id="text_22">
     <!-- Percentage of contact type present -->
     <g transform="translate(21.391943 183.567187)rotate(-90)scale(0.1 -0.1)">
      <defs>
       <path id="DejaVuSans-50" d="M 1259 4147 
L 1259 2394 
L 2053 2394 
Q 2494 2394 2734 2622 
Q 2975 2850 2975 3272 
Q 2975 3691 2734 3919 
Q 2494 4147 2053 4147 
L 1259 4147 
z
M 628 4666 
L 2053 4666 
Q 2838 4666 3239 4311 
Q 3641 3956 3641 3272 
Q 3641 2581 3239 2228 
Q 2838 1875 2053 1875 
L 1259 1875 
L 1259 0 
L 628 0 
L 628 4666 
z
" transform="scale(0.015625)"/>
       <path id="DejaVuSans-20" transform="scale(0.015625)"/>
       <path id="DejaVuSans-66" d="M 2375 4863 
L 2375 4384 
L 1825 4384 
Q 1516 4384 1395 4259 
Q 1275 4134 1275 3809 
L 1275 3500 
L 2222 3500 
L 2222 3053 
L 1275 3053 
L 1275 0 
L 697 0 
L 697 3053 
L 147 3053 
L 147 3500 
L 697 3500 
L 697 3744 
Q 697 4328 969 4595 
Q 1241 4863 1831 4863 
L 2375 4863 
z
" transform="scale(0.015625)"/>
       <path id="DejaVuSans-73" d="M 2834 3397 
L 2834 2853 
Q 2591 2978 2328 3040 
Q 2066 3103 1784 3103 
Q 1356 3103 1142 2972 
Q 928 2841 928 2578 
Q 928 2378 1081 2264 
Q 1234 2150 1697 2047 
L 1894 2003 
Q 2506 1872 2764 1633 
Q 3022 1394 3022 966 
Q 3022 478 2636 193 
Q 2250 -91 1575 -91 
Q 1294 -91 989 -36 
Q 684 19 347 128 
L 347 722 
Q 666 556 975 473 
Q 1284 391 1588 391 
Q 1994 391 2212 530 
Q 2431 669 2431 922 
Q 2431 1156 2273 1281 
Q 2116 1406 1581 1522 
L 1381 1569 
Q 847 1681 609 1914 
Q 372 2147 372 2553 
Q 372 3047 722 3315 
Q 1072 3584 1716 3584 
Q 2034 3584 2315 3537 
Q 2597 3491 2834 3397 
z
" transform="scale(0.015625)"/>
      </defs>
      <use xlink:href="#DejaVuSans-50"/>
      <use xlink:href="#DejaVuSans-65" x="56.677734"/>
      <use xlink:href="#DejaVuSans-72" x="118.201172"/>
      <use xlink:href="#DejaVuSans-63" x="157.064453"/>
      <use xlink:href="#DejaVuSans-65" x="212.044922"/>
      <use xlink:href="#DejaVuSans-6e" x="273.568359"/>
      <use xlink:href="#DejaVuSans-74" x="336.947266"/>
      <use xlink:href="#DejaVuSans-61" x="376.15625"/>
      <use xlink:href="#DejaVuSans-67" x="437.435547"/>
      <use xlink:href="#DejaVuSans-65" x="500.912109"/>
      <use xlink:href="#DejaVuSans-20" x="562.435547"/>
      <use xlink:href="#DejaVuSans-6f" x="594.222656"/>
      <use xlink:href="#DejaVuSans-66" x="655.404297"/>
      <use xlink:href="#DejaVuSans-20" x="690.609375"/>
      <use xlink:href="#DejaVuSans-63" x="722.396484"/>
      <use xlink:href="#DejaVuSans-6f" x="777.376953"/>
      <use xlink:href="#DejaVuSans-6e" x="838.558594"/>
      <use xlink:href="#DejaVuSans-74" x="901.9375"/>
      <use xlink:href="#DejaVuSans-61" x="941.146484"/>
      <use xlink:href="#DejaVuSans-63" x="1002.425781"/>
      <use xlink:href="#DejaVuSans-74" x="1057.40625"/>
      <use xlink:href="#DejaVuSans-20" x="1096.615234"/>
      <use xlink:href="#DejaVuSans-74" x="1128.402344"/>
      <use xlink:href="#DejaVuSans-79" x="1167.611328"/>
      <use xlink:href="#DejaVuSans-70" x="1226.791016"/>
      <use xlink:href="#DejaVuSans-65" x="1290.267578"/>
      <use xlink:href="#DejaVuSans-20" x="1351.791016"/>
      <use xlink:href="#DejaVuSans-70" x="1383.578125"/>
      <use xlink:href="#DejaVuSans-72" x="1447.054688"/>
      <use xlink:href="#DejaVuSans-65" x="1485.917969"/>
      <use xlink:href="#DejaVuSans-73" x="1547.441406"/>
      <use xlink:href="#DejaVuSans-65" x="1599.541016"/>
      <use xlink:href="#DejaVuSans-6e" x="1661.064453"/>
      <use xlink:href="#DejaVuSans-74" x="1724.443359"/>
     </g>
    </g>
   </g>
   <g id="line2d_28">
    <path d="M 73.85004 17.637868 
L 74.820897 17.648997 
L 75.791754 17.983554 
L 82.587752 17.922951 
L 83.558609 17.58486 
L 84.529466 17.900543 
L 86.47118 17.878744 
L 87.442036 18.184144 
L 88.412893 18.169682 
L 92.296321 17.851573 
L 97.150605 17.851573 
L 98.121462 18.131029 
L 99.092319 18.127594 
L 100.063176 17.828192 
L 116.567743 17.808304 
L 117.5386 18.097249 
L 118.509457 17.797169 
L 123.363742 17.805505 
L 124.334598 17.501527 
L 125.305455 17.492685 
L 127.247169 17.794411 
L 140.839166 17.751621 
L 143.751736 18.608023 
L 145.69345 18.616248 
L 146.664307 18.033289 
L 147.635164 18.319116 
L 148.606021 18.301345 
L 158.31459 17.70388 
L 160.256303 17.991155 
L 161.22716 17.982391 
L 162.198017 17.706315 
L 163.168874 17.994096 
L 168.023159 17.979489 
L 168.994016 18.259942 
L 170.935729 18.259942 
L 171.906586 18.540396 
L 173.8483 18.509922 
L 174.819157 18.786566 
L 177.731728 18.8252 
L 178.702584 18.548146 
L 179.673441 18.548146 
L 180.644298 18.246519 
L 181.615155 18.259942 
L 182.586012 18.532699 
L 185.498583 18.52887 
L 190.352867 18.45496 
L 192.294581 18.494993 
L 194.236295 18.197775 
L 198.119722 18.182065 
L 216.566003 18.136453 
L 217.53686 18.38914 
L 236.953998 18.286917 
L 237.924855 18.043483 
L 245.69171 18.024957 
L 254.429422 17.947426 
L 265.108848 17.935568 
L 266.079705 18.180508 
L 268.021419 18.175079 
L 268.992276 17.942662 
L 269.963133 18.166995 
L 270.933989 18.164315 
L 271.904846 18.400773 
L 277.729988 18.365162 
L 290.351127 18.538081 
L 291.321984 18.30566 
L 294.234555 18.291994 
L 296.176269 18.460692 
L 299.088839 18.257318 
L 305.884838 18.239141 
L 342.7774 18.061499 
L 343.748257 17.857904 
L 350.544255 17.856036 
L 368.019679 18.032261 
L 368.990536 17.835786 
L 370.93225 17.835786 
L 371.903106 18.022052 
L 376.757391 18.024084 
L 377.728248 17.817828 
L 379.669962 18.178333 
L 384.524246 18.146297 
L 385.495103 17.961344 
L 388.407674 18.322054 
L 390.349387 18.315212 
L 391.320244 18.148399 
L 397.145386 17.894254 
L 398.116243 17.724532 
L 399.087099 17.903002 
L 400.057956 17.887323 
L 401.028813 17.707535 
L 401.99967 17.882165 
L 409.766525 17.850255 
L 410.737382 17.683522 
L 435.979661 17.635114 
L 457.338513 17.564812 
L 458.30937 17.87415 
L 459.280227 17.712301 
L 460.251084 17.848611 
L 461.221941 17.698768 
L 463.163655 17.692098 
L 464.134511 17.851573 
L 472.872223 17.838334 
L 479.668222 17.832522 
L 479.668222 17.832522 
" clip-path="url(#p9f42969566)" style="fill: none; stroke: #1f77b4; stroke-width: 1.5; stroke-linecap: square"/>
   </g>
   <g id="line2d_29">
    <path d="M 73.85004 161.135195 
L 74.820897 160.984947 
L 75.791754 160.348029 
L 77.733467 160.109011 
L 78.704324 160.338583 
L 79.675181 160.0893 
L 80.646038 160.488594 
L 81.616895 159.764712 
L 82.587752 160.051075 
L 83.558609 160.562711 
L 85.500323 160.10772 
L 86.47118 159.939926 
L 87.442036 160.680827 
L 88.412893 160.198739 
L 92.296321 160.271416 
L 93.267178 160.688587 
L 94.238035 160.546702 
L 95.208892 160.582376 
L 96.179748 159.338535 
L 98.121462 159.980292 
L 99.092319 159.711221 
L 100.063176 159.637805 
L 101.034033 159.368872 
L 102.00489 158.834023 
L 102.975747 159.287766 
L 103.946604 158.490673 
L 104.917461 158.303158 
L 105.888317 159.892379 
L 106.859174 158.985459 
L 109.771745 158.721221 
L 110.742602 159.213456 
L 111.713459 159.13859 
L 112.684316 159.361526 
L 113.655173 159.361526 
L 115.596886 159.590072 
L 116.567743 159.287766 
L 117.5386 159.434743 
L 118.509457 159.734823 
L 119.480314 160.369734 
L 121.422028 159.662715 
L 122.392885 160.070206 
L 123.363742 159.928208 
L 124.334598 159.963904 
L 125.305455 159.806402 
L 129.188883 159.770678 
L 130.15974 160.01802 
L 131.130597 159.615448 
L 132.101454 160.313743 
L 133.07231 159.68681 
L 134.043167 159.462468 
L 135.984881 159.71013 
L 136.955738 159.454034 
L 137.926595 159.340736 
L 140.839166 159.163064 
L 143.751736 159.883267 
L 144.722593 159.016547 
L 145.69345 159.524447 
L 146.664307 159.270046 
L 147.635164 159.59436 
L 148.606021 159.194258 
L 157.343733 159.921986 
L 158.31459 159.821893 
L 160.256303 159.754586 
L 161.22716 159.293499 
L 162.198017 159.506389 
L 163.168874 159.437869 
L 165.110588 159.754586 
L 166.081445 159.403431 
L 168.023159 159.608284 
L 168.994016 159.32783 
L 169.964872 159.574436 
L 171.906586 159.608284 
L 172.877443 158.941609 
L 173.8483 159.32164 
L 174.819157 159.32164 
L 175.790014 159.079225 
L 176.760871 159.287766 
L 177.731728 159.012563 
L 178.702584 159.259049 
L 180.644298 159.185447 
L 184.527726 158.628376 
L 185.498583 159.430119 
L 186.46944 158.596852 
L 187.440297 159.04268 
L 189.38201 159.654167 
L 191.323724 159.389046 
L 192.294581 159.730775 
L 194.236295 159.415238 
L 195.207152 159.588553 
L 196.178009 159.481101 
L 197.148865 159.210431 
L 198.119722 160.117735 
L 210.740862 159.368872 
L 211.711719 159.169195 
L 212.682576 159.569853 
L 218.507717 159.624039 
L 220.449431 160.039681 
L 221.420288 159.841994 
L 222.391145 160.537394 
L 223.362002 160.161202 
L 228.216286 160.683281 
L 229.187143 161.079143 
L 230.158 160.525232 
L 231.128857 160.883739 
L 232.099714 160.574674 
L 233.070571 160.774762 
L 234.041427 160.689538 
L 236.953998 160.831144 
L 237.924855 161.273822 
L 238.895712 160.912023 
L 239.866569 161.107212 
L 240.837426 161.024292 
L 241.808283 160.172173 
L 245.69171 161.217489 
L 246.662567 161.189401 
L 247.633424 160.866577 
L 248.604281 161.376592 
L 249.575138 161.028696 
L 250.545995 160.843182 
L 251.516852 161.161625 
L 252.487708 161.108687 
L 253.458565 161.266579 
L 254.429422 161.554409 
L 255.400279 161.421745 
L 258.31285 161.396071 
L 259.283707 160.926494 
L 260.254564 161.213233 
L 261.22542 161.187295 
L 262.196277 160.77154 
L 263.167134 160.691705 
L 264.137991 161.056478 
L 265.108848 160.745005 
L 266.079705 160.638097 
L 267.050562 160.718393 
L 268.021419 160.456917 
L 268.992276 160.429813 
L 269.963133 160.77154 
L 270.933989 160.331113 
L 271.904846 160.537762 
L 273.84656 160.412036 
L 274.817417 160.002035 
L 275.788274 160.260815 
L 277.729988 160.39466 
L 278.700845 160.110878 
L 279.671701 160.358164 
L 280.642558 160.056611 
L 281.613415 160.4656 
L 282.584272 160.097017 
L 285.496843 160.351327 
L 286.4677 160.04332 
L 287.438557 160.682575 
L 288.409414 160.482317 
L 289.38027 160.482317 
L 290.351127 160.861257 
L 291.321984 160.490366 
L 293.263698 160.523546 
L 294.234555 160.174532 
L 296.176269 160.197496 
L 299.088839 160.505883 
L 301.030553 160.573995 
L 304.913981 160.488594 
L 305.884838 160.247939 
L 333.068831 159.82293 
L 334.039688 160.213087 
L 335.010544 160.213087 
L 335.981401 159.975774 
L 336.952258 160.353853 
L 337.923115 160.538333 
L 338.893972 159.766295 
L 339.864829 160.233254 
L 341.806543 160.499554 
L 342.7774 159.827989 
L 343.748257 160.311263 
L 344.719113 160.483943 
L 346.660827 160.506405 
L 347.631684 160.657037 
L 349.573398 160.595719 
L 350.544255 160.723722 
L 368.990536 159.232801 
L 370.93225 160.387062 
L 372.873963 159.448544 
L 373.84482 159.68681 
L 374.815677 159.617555 
L 375.786534 160.047627 
L 376.757391 159.66378 
L 377.728248 159.466257 
L 378.699105 159.959012 
L 379.669962 159.671758 
L 380.640818 159.626461 
L 381.611675 160.036653 
L 382.582532 159.801156 
L 383.553389 159.828662 
L 384.524246 159.265118 
L 385.495103 159.819976 
L 388.407674 159.3554 
L 389.378531 158.872094 
L 390.349387 159.422578 
L 391.320244 159.612745 
L 392.291101 159.577575 
L 393.261958 159.28036 
L 394.232815 159.324714 
L 395.203672 159.232588 
L 396.174529 159.408092 
L 397.145386 159.360214 
L 398.116243 159.786754 
L 399.087099 159.608284 
L 400.057956 159.623188 
L 401.028813 159.312958 
L 401.99967 159.510656 
L 402.970527 160.432095 
L 403.941384 159.728996 
L 404.912241 160.23582 
L 405.883098 159.568433 
L 406.853955 159.604133 
L 407.824812 159.846117 
L 408.795668 159.825485 
L 409.766525 160.08036 
L 410.737382 159.825485 
L 411.708239 159.90775 
L 412.679096 159.562532 
L 413.649953 160.090321 
L 414.62081 159.957803 
L 415.591667 159.693729 
L 416.562524 159.776377 
L 417.53338 159.666206 
L 418.504237 159.776377 
L 419.475094 159.562532 
L 420.445951 159.959804 
L 422.387665 159.700403 
L 423.358522 159.870313 
L 424.329379 159.80175 
L 425.300236 159.990746 
L 426.271093 160.060222 
L 427.241949 160.000097 
L 428.212806 159.680007 
L 429.183663 160.170362 
L 430.15452 159.979972 
L 431.125377 159.484187 
L 434.037948 159.766701 
L 435.008805 159.182896 
L 435.979661 159.33215 
L 437.921375 158.851541 
L 438.892232 158.954555 
L 439.863089 158.40033 
L 440.833946 158.933505 
L 442.77566 158.913076 
L 443.746517 158.141771 
L 444.717374 158.953241 
L 445.68823 158.308555 
L 446.659087 158.608103 
L 447.629944 158.530957 
L 449.571658 158.791589 
L 450.542515 158.449022 
L 451.513372 158.630578 
L 452.484229 159.093703 
L 453.455086 158.691492 
L 454.425942 158.730791 
L 455.396799 159.031218 
L 457.338513 159.268357 
L 458.30937 158.734074 
L 460.251084 158.445338 
L 461.221941 158.83315 
L 462.192798 158.504582 
L 463.163655 158.310087 
L 464.134511 158.716614 
L 465.105368 157.966426 
L 466.076225 158.428895 
L 467.047082 158.180354 
L 469.959653 158.175094 
L 470.93051 157.742708 
L 471.901367 158.468198 
L 472.872223 157.966426 
L 473.84308 157.637676 
L 474.813937 157.698872 
L 475.784794 157.524501 
L 476.755651 158.481905 
L 477.726508 157.658113 
L 478.697365 157.81227 
L 479.668222 157.585902 
L 479.668222 157.585902 
" clip-path="url(#p9f42969566)" style="fill: none; stroke: #ff7f0e; stroke-width: 1.5; stroke-linecap: square"/>
   </g>
   <g id="line2d_30">
    <path d="M 73.85004 161.470469 
L 74.820897 160.984947 
L 75.791754 161.697456 
L 76.762611 161.877195 
L 78.704324 161.642129 
L 79.675181 162.361416 
L 80.646038 161.458495 
L 81.616895 162.036828 
L 82.587752 161.677255 
L 84.529466 161.919261 
L 85.500323 162.020948 
L 86.47118 161.521899 
L 87.442036 161.939076 
L 88.412893 161.759498 
L 91.325464 162.169755 
L 92.296321 161.826218 
L 94.238035 161.481367 
L 95.208892 161.515257 
L 96.179748 161.826218 
L 97.150605 161.515257 
L 98.121462 161.50884 
L 99.092319 161.847181 
L 102.00489 161.575124 
L 102.975747 161.403912 
L 103.946604 161.847181 
L 104.917461 161.944348 
L 105.888317 160.496992 
L 106.859174 161.101605 
L 108.800888 160.392087 
L 109.771745 161.436941 
L 110.742602 160.730618 
L 111.713459 160.661424 
L 112.684316 161.16866 
L 113.655173 160.867471 
L 115.596886 160.496992 
L 116.567743 160.799298 
L 117.5386 160.334982 
L 118.509457 160.635062 
L 120.451171 160.070206 
L 121.422028 160.867471 
L 122.392885 160.369734 
L 123.363742 160.833448 
L 124.334598 160.265093 
L 125.305455 160.703337 
L 129.188883 160.669262 
L 130.15974 160.905188 
L 133.07231 160.575592 
L 134.043167 160.348029 
L 135.014024 159.569374 
L 135.984881 160.293111 
L 136.955738 160.035974 
L 137.926595 160.782712 
L 140.839166 160.035974 
L 143.751736 160.46108 
L 144.722593 160.172173 
L 145.69345 160.684185 
L 146.664307 160.427724 
L 147.635164 160.46108 
L 148.606021 160.626096 
L 157.343733 161.041871 
L 158.31459 160.666158 
L 160.256303 160.884175 
L 161.22716 161.260055 
L 162.198017 160.915932 
L 163.168874 161.418082 
L 164.139731 161.324774 
L 165.110588 161.448969 
L 166.081445 161.103708 
L 167.052302 161.791845 
L 168.023159 161.571455 
L 168.994016 161.851908 
L 170.935729 161.851908 
L 171.906586 161.571455 
L 173.8483 161.258147 
L 174.819157 160.70486 
L 176.760871 161.227566 
L 177.731728 161.260055 
L 178.702584 161.510424 
L 179.673441 161.510424 
L 180.644298 161.692265 
L 181.615155 161.291002 
L 182.586012 161.073085 
L 183.556869 161.47975 
L 184.527726 161.135195 
L 185.498583 161.104193 
L 186.46944 161.349272 
L 187.440297 161.226174 
L 188.411153 160.983817 
L 189.38201 161.014294 
L 190.352867 161.434943 
L 191.323724 161.043292 
L 192.294581 160.829886 
L 195.207152 160.6803 
L 196.178009 160.563781 
L 197.148865 161.37579 
L 198.119722 160.925718 
L 211.711719 161.017821 
L 212.682576 161.164729 
L 213.653433 160.610418 
L 214.62429 160.670224 
L 215.595146 161.048569 
L 216.566003 160.58037 
L 217.53686 160.93177 
L 218.507717 160.670224 
L 220.449431 161.596463 
L 221.420288 161.393835 
L 222.391145 161.049795 
L 223.362002 161.45031 
L 227.245429 161.534356 
L 228.216286 161.191684 
L 229.187143 161.583611 
L 232.099714 162.088079 
L 234.041427 161.942947 
L 236.953998 161.328681 
L 237.924855 161.273822 
L 238.895712 160.912023 
L 239.866569 160.855368 
L 240.837426 161.024292 
L 241.808283 160.667441 
L 246.662567 160.945474 
L 248.604281 160.893797 
L 249.575138 160.309829 
L 250.545995 160.604262 
L 251.516852 160.685878 
L 252.487708 160.392977 
L 254.429422 160.611177 
L 255.400279 160.249492 
L 256.371136 160.483943 
L 257.341993 160.926494 
L 258.31285 160.456917 
L 259.283707 160.691705 
L 260.254564 160.276777 
L 261.22542 160.483943 
L 263.167134 160.691705 
L 264.137991 160.348029 
L 265.108848 160.276777 
L 266.079705 161.344499 
L 267.050562 160.952844 
L 268.021419 160.691705 
L 268.992276 161.135195 
L 270.933989 161.264885 
L 271.904846 160.77154 
L 272.875703 161.186629 
L 273.84656 160.412036 
L 274.817417 160.697383 
L 275.788274 160.492268 
L 276.759131 160.749986 
L 277.729988 160.624481 
L 278.700845 160.802292 
L 280.642558 160.749986 
L 281.613415 160.697383 
L 282.584272 160.32491 
L 283.555129 161.339192 
L 284.525986 161.008588 
L 285.496843 161.03405 
L 287.438557 160.456264 
L 289.38027 160.482317 
L 291.321984 161.159996 
L 293.263698 161.184126 
L 294.234555 161.50468 
L 296.176269 161.279456 
L 299.088839 161.595076 
L 301.030553 161.452395 
L 304.913981 161.350728 
L 305.884838 161.542852 
L 333.068831 162.225041 
L 334.039688 162.034812 
L 335.010544 162.034812 
L 335.981401 162.383802 
L 336.952258 162.363017 
L 337.923115 162.726826 
L 338.893972 162.548252 
L 339.864829 162.609097 
L 340.835686 162.349541 
L 341.806543 162.472232 
L 342.7774 162.769202 
L 343.748257 162.848104 
L 344.719113 162.633074 
L 345.68997 163.004358 
L 347.631684 162.613138 
L 348.602541 162.965283 
L 349.573398 163.120465 
L 350.544255 162.672803 
L 368.990536 162.695585 
L 370.93225 162.887962 
L 372.873963 162.522945 
L 373.84482 162.945675 
L 375.786534 162.542635 
L 376.757391 162.926483 
L 377.728248 162.508371 
L 378.699105 162.983481 
L 379.669962 162.870412 
L 381.611675 162.508371 
L 382.582532 162.850386 
L 383.553389 162.815022 
L 385.495103 163.149123 
L 388.407674 162.853617 
L 389.378531 162.908976 
L 390.349387 162.541987 
L 391.320244 162.945675 
L 392.291101 163.218764 
L 393.261958 163.090836 
L 394.232815 163.126723 
L 395.203672 163.378268 
L 396.174529 162.981408 
L 400.057956 163.334477 
L 401.028813 163.368904 
L 401.99967 163.033752 
L 403.941384 163.068717 
L 404.912241 162.875289 
L 405.883098 163.050126 
L 407.824812 162.443512 
L 409.766525 162.151672 
L 410.737382 162.078956 
L 411.708239 162.842109 
L 412.679096 162.842109 
L 414.62081 162.389792 
L 415.591667 162.634318 
L 416.562524 162.360044 
L 417.53338 162.756805 
L 420.445951 162.689743 
L 421.416808 162.36617 
L 422.387665 162.758774 
L 423.358522 162.418955 
L 424.329379 162.337173 
L 426.271093 162.775942 
L 427.241949 162.724331 
L 428.212806 162.911658 
L 429.183663 162.724331 
L 430.15452 162.707055 
L 431.125377 162.523542 
L 435.979661 162.343421 
L 437.921375 162.633271 
L 438.892232 162.417924 
L 442.77566 162.027685 
L 443.746517 162.361416 
L 444.717374 162.199122 
L 445.68823 162.172822 
L 447.629944 161.581126 
L 448.600801 161.741661 
L 450.542515 161.672429 
L 451.513372 161.367766 
L 453.455086 161.581126 
L 455.396799 161.418082 
L 457.338513 161.804438 
L 458.30937 161.25788 
L 461.221941 161.014034 
L 462.192798 160.980453 
L 463.163655 161.255778 
L 464.134511 160.893337 
L 465.105368 160.895396 
L 466.076225 160.432927 
L 467.047082 160.486154 
L 469.959653 161.427763 
L 470.93051 161.325589 
L 471.901367 161.083906 
L 472.872223 161.203709 
L 473.84308 160.878024 
L 474.813937 160.776176 
L 476.755651 161.447346 
L 477.726508 161.203709 
L 478.697365 161.666177 
L 479.668222 161.578856 
L 479.668222 161.578856 
" clip-path="url(#p9f42969566)" style="fill: none; stroke: #2ca02c; stroke-width: 1.5; stroke-linecap: square"/>
   </g>
   <g id="line2d_31">
    <path d="M 73.85004 171.193418 
L 77.733467 170.993883 
L 78.704324 171.092836 
L 79.675181 171.449883 
L 80.646038 171.157496 
L 82.587752 171.109098 
L 83.558609 170.545398 
L 84.529466 170.579629 
L 85.500323 170.311602 
L 86.47118 170.380948 
L 87.442036 170.117693 
L 88.412893 170.499748 
L 95.208892 170.533108 
L 96.179748 170.222147 
L 97.150605 170.222147 
L 98.121462 170.374419 
L 102.975747 170.473108 
L 103.946604 170.085884 
L 106.859174 170.170801 
L 108.800888 170.120041 
L 109.771745 170.187596 
L 110.742602 170.440456 
L 111.713459 170.407561 
L 113.655173 170.505518 
L 117.5386 170.537689 
L 118.509457 170.237609 
L 119.480314 170.254158 
L 120.451171 170.553686 
L 121.422028 170.505518 
L 122.392885 169.95463 
L 124.334598 169.90314 
L 125.305455 169.971667 
L 127.247169 169.95463 
L 129.188883 170.553686 
L 130.15974 170.664038 
L 132.101454 170.664038 
L 135.014024 170.725847 
L 135.984881 170.786771 
L 136.955738 170.510896 
L 140.839166 170.801866 
L 144.722593 170.572805 
L 145.69345 170.541961 
L 146.664307 170.84683 
L 147.635164 170.861711 
L 148.606021 170.648966 
L 157.343733 171.400805 
L 158.31459 171.078765 
L 160.256303 170.768079 
L 162.198017 170.782737 
L 163.168874 170.753371 
L 164.139731 170.42457 
L 167.052302 170.515922 
L 168.023159 170.826406 
L 168.994016 170.545953 
L 169.964872 170.530963 
L 170.935729 170.2655 
L 172.877443 170.342074 
L 173.8483 170.387394 
L 174.819157 170.664038 
L 175.790014 170.402399 
L 176.760871 170.649453 
L 179.673441 170.2345 
L 180.644298 170.326864 
L 181.615155 169.985047 
L 182.586012 170.575778 
L 183.556869 170.500828 
L 184.527726 170.605399 
L 185.498583 170.590614 
L 186.46944 170.432256 
L 188.411153 170.520628 
L 190.352867 170.607244 
L 191.323724 170.417352 
L 194.236295 170.549692 
L 195.207152 170.778959 
L 197.148865 170.849233 
L 198.119722 170.621513 
L 210.740862 170.496702 
L 211.711719 170.260954 
L 212.682576 170.202363 
L 214.62429 170.34743 
L 215.595146 170.144283 
L 216.566003 170.304401 
L 217.53686 170.608976 
L 218.507717 170.34743 
L 221.420288 170.446236 
L 222.391145 170.785396 
L 223.362002 170.731886 
L 227.245429 170.772082 
L 228.216286 170.597143 
L 229.187143 170.664038 
L 231.128857 170.439052 
L 232.099714 170.411804 
L 233.070571 170.50644 
L 234.041427 170.466131 
L 236.953998 170.533108 
L 237.924855 170.25691 
L 239.866569 170.173605 
L 240.837426 170.50644 
L 241.808283 170.572805 
L 246.662567 169.970772 
L 249.575138 170.134347 
L 251.516852 170.200811 
L 252.487708 170.412912 
L 254.429422 170.043491 
L 255.400279 170.330871 
L 256.371136 169.86197 
L 257.341993 170.083246 
L 258.31285 170.083246 
L 259.283707 169.848457 
L 260.254564 170.343672 
L 261.22542 170.330871 
L 262.196277 170.590214 
L 265.108848 170.577786 
L 266.079705 170.763182 
L 267.050562 170.799773 
L 268.021419 170.318034 
L 268.992276 170.070032 
L 270.933989 170.13572 
L 271.904846 170.823992 
L 272.875703 171.37058 
L 273.84656 171.569346 
L 274.817417 171.359386 
L 275.788274 171.37058 
L 276.759131 171.612868 
L 279.671701 171.780508 
L 280.642558 171.381743 
L 281.613415 171.127604 
L 282.584272 171.491648 
L 283.555129 171.207585 
L 286.4677 171.469914 
L 287.438557 171.545456 
L 288.409414 171.330132 
L 291.321984 171.427651 
L 292.292841 171.448996 
L 293.263698 171.31303 
L 294.234555 171.480796 
L 296.176269 171.017099 
L 301.030553 171.334396 
L 305.884838 171.686338 
L 336.952258 171.002424 
L 337.923115 171.082889 
L 338.893972 171.291547 
L 340.835686 171.291547 
L 341.806543 171.152017 
L 342.7774 171.200681 
L 343.748257 171.434334 
L 344.719113 171.229599 
L 346.660827 171.629476 
L 347.631684 172.002423 
L 348.602541 171.985004 
L 349.573398 171.471548 
L 350.544255 171.443671 
L 372.873963 172.322596 
L 373.84482 172.147175 
L 374.815677 172.122053 
L 375.786534 171.946897 
L 376.757391 172.13882 
L 377.728248 172.014977 
L 379.669962 172.466376 
L 381.611675 172.395241 
L 382.582532 172.569807 
L 384.524246 172.581705 
L 390.349387 172.634191 
L 392.291101 172.867916 
L 393.261958 172.889204 
L 394.232815 172.54122 
L 395.203672 172.570861 
L 396.174529 172.808028 
L 397.145386 172.495071 
L 398.116243 172.636603 
L 399.087099 172.279663 
L 401.99967 172.546114 
L 402.970527 172.209006 
L 403.941384 172.384781 
L 404.912241 172.729307 
L 406.853955 172.866954 
L 407.824812 172.659931 
L 408.795668 172.652931 
L 409.766525 172.508233 
L 410.737382 172.652931 
L 411.708239 172.680842 
L 412.679096 172.508233 
L 413.649953 172.571807 
L 414.62081 172.291459 
L 415.591667 172.49394 
L 416.562524 172.177976 
L 417.53338 172.200301 
L 418.504237 172.350221 
L 425.300236 172.317021 
L 426.271093 172.450696 
L 427.241949 172.769943 
L 428.212806 172.266436 
L 429.183663 172.429413 
L 431.125377 172.485874 
L 434.037948 171.750268 
L 435.008805 171.946506 
L 435.979661 171.879113 
L 436.950518 172.039012 
L 437.921375 172.33423 
L 439.863089 172.184047 
L 441.804803 171.84842 
L 443.746517 171.774471 
L 444.717374 171.612177 
L 445.68823 171.672476 
L 446.659087 171.604572 
L 447.629944 171.855378 
L 448.600801 171.534308 
L 452.484229 171.503821 
L 456.367656 171.572081 
L 457.338513 171.473248 
L 460.251084 171.63598 
L 461.221941 171.762679 
L 464.134511 171.465989 
L 467.047082 171.553996 
L 469.959653 171.650437 
L 470.93051 172.074234 
L 471.901367 172.008334 
L 472.872223 172.148807 
L 473.84308 171.98779 
L 479.668222 172.021966 
L 479.668222 172.021966 
" clip-path="url(#p9f42969566)" style="fill: none; stroke: #d62728; stroke-width: 1.5; stroke-linecap: square"/>
   </g>
   <g id="line2d_32">
    <path d="M 73.85004 171.193418 
L 75.791754 171.14344 
L 80.646038 171.480796 
L 82.587752 171.434334 
L 86.47118 171.646527 
L 88.412893 171.748355 
L 92.296321 171.465989 
L 94.238035 171.451124 
L 98.121462 171.597257 
L 99.092319 171.306432 
L 102.975747 171.077721 
L 103.946604 171.001295 
L 104.917461 171.350754 
L 105.888317 171.380027 
L 106.859174 171.682334 
L 107.830031 171.350754 
L 108.800888 171.640034 
L 110.742602 171.654186 
L 111.713459 171.930395 
L 112.684316 171.710274 
L 113.655173 171.710274 
L 115.596886 172.286947 
L 119.480314 172.350854 
L 120.451171 171.751798 
L 121.422028 172.61384 
L 122.392885 172.350854 
L 123.363742 172.299823 
L 124.334598 171.710274 
L 125.305455 172.662473 
L 127.247169 172.94991 
L 130.15974 172.142652 
L 131.130597 172.401139 
L 132.101454 172.142652 
L 133.07231 172.426008 
L 134.043167 172.155509 
L 135.014024 172.487395 
L 135.984881 172.244224 
L 136.955738 172.256716 
L 137.926595 171.741725 
L 140.839166 171.965746 
L 143.751736 171.150617 
L 144.722593 171.150617 
L 145.69345 171.411764 
L 146.664307 170.84683 
L 147.635164 170.861711 
L 148.606021 170.648966 
L 158.31459 170.797343 
L 160.256303 171.050477 
L 161.22716 171.373773 
L 163.168874 171.319146 
L 165.110588 170.768079 
L 167.052302 171.360187 
L 169.964872 171.373773 
L 170.935729 171.106859 
L 171.906586 171.387312 
L 172.877443 171.176254 
L 174.819157 171.770614 
L 176.760871 171.757911 
L 177.731728 171.935646 
L 178.702584 171.641609 
L 179.673441 172.204452 
L 180.644298 171.998076 
L 181.615155 172.228671 
L 182.586012 171.973233 
L 183.556869 171.910371 
L 184.527726 171.998076 
L 185.498583 171.148639 
L 186.46944 171.533223 
L 187.440297 171.324832 
L 188.411153 171.610549 
L 189.38201 171.35126 
L 192.294581 171.54622 
L 195.207152 171.324832 
L 196.178009 171.390573 
L 197.148865 171.119903 
L 198.119722 171.160168 
L 210.740862 171.026599 
L 211.711719 171.317312 
L 212.682576 171.265615 
L 213.653433 170.581179 
L 214.62429 171.132068 
L 215.595146 170.923916 
L 216.566003 171.092836 
L 217.53686 171.132068 
L 218.507717 171.393614 
L 219.478574 171.393614 
L 220.449431 171.715549 
L 221.420288 171.222156 
L 222.391145 171.297796 
L 223.362002 171.505351 
L 226.274572 171.505351 
L 227.245429 171.285289 
L 230.158 171.504561 
L 231.128857 171.193418 
L 232.099714 171.420741 
L 233.070571 171.255031 
L 234.041427 171.218177 
L 237.924855 171.255031 
L 238.895712 171.456885 
L 239.866569 171.180982 
L 240.837426 171.255031 
L 241.808283 171.563341 
L 245.69171 171.586604 
L 246.662567 171.434334 
L 248.604281 171.998076 
L 249.575138 171.572081 
L 250.545995 171.833487 
L 251.516852 171.390178 
L 253.458565 171.43575 
L 254.429422 171.694146 
L 255.400279 172.206477 
L 256.371136 172.206477 
L 257.341993 171.961554 
L 259.283707 172.431131 
L 260.254564 172.216583 
L 261.22542 172.440928 
L 262.196277 172.226659 
L 263.167134 172.431131 
L 265.108848 172.450696 
L 266.079705 172.175985 
L 268.021419 172.196342 
L 268.992276 171.951051 
L 269.963133 172.226659 
L 270.933989 171.769821 
L 271.904846 171.525325 
L 272.875703 171.602034 
L 273.84656 171.80179 
L 274.817417 171.591169 
L 275.788274 171.833487 
L 276.759131 171.612868 
L 277.729988 171.885719 
L 281.613415 171.822952 
L 282.584272 171.947434 
L 284.525986 171.947434 
L 286.4677 171.926978 
L 287.438557 171.771766 
L 288.409414 172.008121 
L 289.38027 171.782124 
L 290.351127 171.843675 
L 291.321984 171.650861 
L 292.292841 171.226396 
L 293.263698 171.533223 
L 294.234555 171.259105 
L 296.176269 171.449883 
L 299.088839 171.615649 
L 301.030553 171.334396 
L 304.913981 171.69633 
L 305.884838 171.902157 
L 333.068831 172.434015 
L 334.039688 172.155509 
L 335.010544 172.155509 
L 335.981401 172.015914 
L 338.893972 172.086392 
L 339.864829 172.112469 
L 340.835686 171.887681 
L 341.806543 172.138356 
L 343.748257 172.2149 
L 344.719113 172.401853 
L 347.631684 172.393643 
L 348.602541 172.769328 
L 349.573398 172.248393 
L 350.544255 172.418212 
L 368.019679 172.49087 
L 368.990536 172.699183 
L 375.786534 172.714592 
L 376.757391 172.906515 
L 377.728248 172.775505 
L 378.699105 173.002032 
L 379.669962 172.842688 
L 380.640818 172.82788 
L 381.611675 172.965638 
L 382.582532 172.760384 
L 384.524246 172.95161 
L 388.407674 172.980032 
L 389.378531 172.817686 
L 390.349387 173.00118 
L 393.261958 172.889204 
L 394.232815 172.903317 
L 396.174529 172.629362 
L 397.145386 173.027565 
L 399.087099 172.993543 
L 401.028813 173.067906 
L 401.99967 172.898423 
L 402.970527 173.263655 
L 403.941384 172.912105 
L 404.912241 172.729307 
L 405.883098 172.798866 
L 406.853955 173.039198 
L 415.591667 172.839892 
L 416.562524 172.866954 
L 417.53338 172.7154 
L 421.416808 173.274503 
L 422.387665 173.123255 
L 424.329379 173.154981 
L 426.271093 172.790161 
L 427.241949 172.940207 
L 428.212806 172.776696 
L 429.183663 172.940207 
L 431.125377 172.992433 
L 435.008805 172.775312 
L 437.921375 172.663076 
L 438.892232 172.808028 
L 439.863089 172.676323 
L 440.833946 173.01704 
L 441.804803 172.998221 
L 443.746517 172.585941 
L 445.68823 172.799554 
L 449.571658 172.477532 
L 451.513372 172.799554 
L 459.280227 172.791472 
L 460.251084 172.567084 
L 461.221941 172.697344 
L 462.192798 173.050321 
L 463.163655 173.038543 
L 464.134511 172.70983 
L 467.047082 172.783756 
L 469.959653 172.579771 
L 470.93051 172.385789 
L 471.901367 172.623795 
L 478.697365 172.611276 
L 479.668222 172.636266 
L 479.668222 172.636266 
" clip-path="url(#p9f42969566)" style="fill: none; stroke: #9467bd; stroke-width: 1.5; stroke-linecap: square"/>
   </g>
   <g id="patch_3">
    <path d="M 53.559131 181.063594 
L 53.559131 9.703594 
" style="fill: none; stroke: #000000; stroke-width: 0.8; stroke-linejoin: miter; stroke-linecap: square"/>
   </g>
   <g id="patch_4">
    <path d="M 499.959131 181.063594 
L 499.959131 9.703594 
" style="fill: none; stroke: #000000; stroke-width: 0.8; stroke-linejoin: miter; stroke-linecap: square"/>
   </g>
   <g id="patch_5">
    <path d="M 53.559131 181.063594 
L 499.959131 181.063594 
" style="fill: none; stroke: #000000; stroke-width: 0.8; stroke-linejoin: miter; stroke-linecap: square"/>
   </g>
   <g id="patch_6">
    <path d="M 53.559131 9.703594 
L 499.959131 9.703594 
" style="fill: none; stroke: #000000; stroke-width: 0.8; stroke-linejoin: miter; stroke-linecap: square"/>
   </g>
   <g id="legend_1">
    <g id="patch_7">
     <path d="M 254.50835 133.578906 
L 299.009912 133.578906 
Q 301.009912 133.578906 301.009912 131.578906 
L 301.009912 59.188281 
Q 301.009912 57.188281 299.009912 57.188281 
L 254.50835 57.188281 
Q 252.50835 57.188281 252.50835 59.188281 
L 252.50835 131.578906 
Q 252.50835 133.578906 254.50835 133.578906 
z
" style="fill: #ffffff; opacity: 0.8; stroke: #cccccc; stroke-linejoin: miter"/>
    </g>
    <g id="line2d_33">
     <path d="M 256.50835 65.286719 
L 266.50835 65.286719 
L 276.50835 65.286719 
" style="fill: none; stroke: #1f77b4; stroke-width: 1.5; stroke-linecap: square"/>
    </g>
    <g id="text_23">
     <!-- en -->
     <g transform="translate(284.50835 68.786719)scale(0.1 -0.1)">
      <use xlink:href="#DejaVuSans-65"/>
      <use xlink:href="#DejaVuSans-6e" x="61.523438"/>
     </g>
    </g>
    <g id="line2d_34">
     <path d="M 256.50835 79.964844 
L 266.50835 79.964844 
L 276.50835 79.964844 
" style="fill: none; stroke: #ff7f0e; stroke-width: 1.5; stroke-linecap: square"/>
    </g>
    <g id="text_24">
     <!-- de -->
     <g transform="translate(284.50835 83.464844)scale(0.1 -0.1)">
      <defs>
       <path id="DejaVuSans-64" d="M 2906 2969 
L 2906 4863 
L 3481 4863 
L 3481 0 
L 2906 0 
L 2906 525 
Q 2725 213 2448 61 
Q 2172 -91 1784 -91 
Q 1150 -91 751 415 
Q 353 922 353 1747 
Q 353 2572 751 3078 
Q 1150 3584 1784 3584 
Q 2172 3584 2448 3432 
Q 2725 3281 2906 2969 
z
M 947 1747 
Q 947 1113 1208 752 
Q 1469 391 1925 391 
Q 2381 391 2643 752 
Q 2906 1113 2906 1747 
Q 2906 2381 2643 2742 
Q 2381 3103 1925 3103 
Q 1469 3103 1208 2742 
Q 947 2381 947 1747 
z
" transform="scale(0.015625)"/>
      </defs>
      <use xlink:href="#DejaVuSans-64"/>
      <use xlink:href="#DejaVuSans-65" x="63.476562"/>
     </g>
    </g>
    <g id="line2d_35">
     <path d="M 256.50835 94.642969 
L 266.50835 94.642969 
L 276.50835 94.642969 
" style="fill: none; stroke: #2ca02c; stroke-width: 1.5; stroke-linecap: square"/>
    </g>
    <g id="text_25">
     <!-- fr -->
     <g transform="translate(284.50835 98.142969)scale(0.1 -0.1)">
      <use xlink:href="#DejaVuSans-66"/>
      <use xlink:href="#DejaVuSans-72" x="35.205078"/>
     </g>
    </g>
    <g id="line2d_36">
     <path d="M 256.50835 109.321094 
L 266.50835 109.321094 
L 276.50835 109.321094 
" style="fill: none; stroke: #d62728; stroke-width: 1.5; stroke-linecap: square"/>
    </g>
    <g id="text_26">
     <!-- cs -->
     <g transform="translate(284.50835 112.821094)scale(0.1 -0.1)">
      <use xlink:href="#DejaVuSans-63"/>
      <use xlink:href="#DejaVuSans-73" x="54.980469"/>
     </g>
    </g>
    <g id="line2d_37">
     <path d="M 256.50835 123.999219 
L 266.50835 123.999219 
L 276.50835 123.999219 
" style="fill: none; stroke: #9467bd; stroke-width: 1.5; stroke-linecap: square"/>
    </g>
    <g id="text_27">
     <!-- nl -->
     <g transform="translate(284.50835 127.499219)scale(0.1 -0.1)">
      <use xlink:href="#DejaVuSans-6e"/>
      <use xlink:href="#DejaVuSans-6c" x="63.378906"/>
     </g>
    </g>
   </g>
  </g>
 </g>
 <defs>
  <clipPath id="p9f42969566">
   <rect x="53.559131" y="9.703594" width="446.4" height="171.36"/>
  </clipPath>
 </defs>
</svg>
