<?xml version="1.0" encoding="utf-8" standalone="no"?>
<!DOCTYPE svg PUBLIC "-//W3C//DTD SVG 1.1//EN"
  "http://www.w3.org/Graphics/SVG/1.1/DTD/svg11.dtd">
<svg xmlns:xlink="http://www.w3.org/1999/xlink" width="506.928125pt" height="234.086815pt" viewBox="0 0 506.928125 234.086815" xmlns="http://www.w3.org/2000/svg" version="1.1">
 <metadata>
  <rdf:RDF xmlns:dc="http://purl.org/dc/elements/1.1/" xmlns:cc="http://creativecommons.org/ns#" xmlns:rdf="http://www.w3.org/1999/02/22-rdf-syntax-ns#">
   <cc:Work>
    <dc:type rdf:resource="http://purl.org/dc/dcmitype/StillImage"/>
    <dc:date>2022-02-14T19:24:59.317992</dc:date>
    <dc:format>image/svg+xml</dc:format>
    <dc:creator>
     <cc:Agent>
      <dc:title>Matplotlib v3.5.1, https://matplotlib.org/</dc:title>
     </cc:Agent>
    </dc:creator>
   </cc:Work>
  </rdf:RDF>
 </metadata>
 <defs>
  <style type="text/css">*{stroke-linejoin: round; stroke-linecap: butt}</style>
 </defs>
 <g id="figure_1">
  <g id="patch_1">
   <path d="M 0 234.086815 
L 506.928125 234.086815 
L 506.928125 0 
L 0 0 
z
" style="fill: #ffffff"/>
  </g>
  <g id="axes_1">
   <g id="patch_2">
    <path d="M 53.328125 178.56 
L 499.728125 178.56 
L 499.728125 7.2 
L 53.328125 7.2 
z
" style="fill: #ffffff"/>
   </g>
   <g id="matplotlib.axis_1">
    <g id="xtick_1">
     <g id="line2d_1">
      <defs>
       <path id="m4bda8115f7" d="M 0 0 
L 0 3.5 
" style="stroke: #000000; stroke-width: 0.8"/>
      </defs>
      <g>
       <use xlink:href="#m4bda8115f7" x="68.220123" y="178.56" style="stroke: #000000; stroke-width: 0.8"/>
      </g>
     </g>
     <g id="text_1">
      <!-- 2020-Nov-01 -->
      <g transform="translate(11.194443 224.463877)rotate(-30)scale(0.1 -0.1)">
       <defs>
        <path id="DejaVuSans-32" d="M 1228 531 
L 3431 531 
L 3431 0 
L 469 0 
L 469 531 
Q 828 903 1448 1529 
Q 2069 2156 2228 2338 
Q 2531 2678 2651 2914 
Q 2772 3150 2772 3378 
Q 2772 3750 2511 3984 
Q 2250 4219 1831 4219 
Q 1534 4219 1204 4116 
Q 875 4013 500 3803 
L 500 4441 
Q 881 4594 1212 4672 
Q 1544 4750 1819 4750 
Q 2544 4750 2975 4387 
Q 3406 4025 3406 3419 
Q 3406 3131 3298 2873 
Q 3191 2616 2906 2266 
Q 2828 2175 2409 1742 
Q 1991 1309 1228 531 
z
" transform="scale(0.015625)"/>
        <path id="DejaVuSans-30" d="M 2034 4250 
Q 1547 4250 1301 3770 
Q 1056 3291 1056 2328 
Q 1056 1369 1301 889 
Q 1547 409 2034 409 
Q 2525 409 2770 889 
Q 3016 1369 3016 2328 
Q 3016 3291 2770 3770 
Q 2525 4250 2034 4250 
z
M 2034 4750 
Q 2819 4750 3233 4129 
Q 3647 3509 3647 2328 
Q 3647 1150 3233 529 
Q 2819 -91 2034 -91 
Q 1250 -91 836 529 
Q 422 1150 422 2328 
Q 422 3509 836 4129 
Q 1250 4750 2034 4750 
z
" transform="scale(0.015625)"/>
        <path id="DejaVuSans-2d" d="M 313 2009 
L 1997 2009 
L 1997 1497 
L 313 1497 
L 313 2009 
z
" transform="scale(0.015625)"/>
        <path id="DejaVuSans-4e" d="M 628 4666 
L 1478 4666 
L 3547 763 
L 3547 4666 
L 4159 4666 
L 4159 0 
L 3309 0 
L 1241 3903 
L 1241 0 
L 628 0 
L 628 4666 
z
" transform="scale(0.015625)"/>
        <path id="DejaVuSans-6f" d="M 1959 3097 
Q 1497 3097 1228 2736 
Q 959 2375 959 1747 
Q 959 1119 1226 758 
Q 1494 397 1959 397 
Q 2419 397 2687 759 
Q 2956 1122 2956 1747 
Q 2956 2369 2687 2733 
Q 2419 3097 1959 3097 
z
M 1959 3584 
Q 2709 3584 3137 3096 
Q 3566 2609 3566 1747 
Q 3566 888 3137 398 
Q 2709 -91 1959 -91 
Q 1206 -91 779 398 
Q 353 888 353 1747 
Q 353 2609 779 3096 
Q 1206 3584 1959 3584 
z
" transform="scale(0.015625)"/>
        <path id="DejaVuSans-76" d="M 191 3500 
L 800 3500 
L 1894 563 
L 2988 3500 
L 3597 3500 
L 2284 0 
L 1503 0 
L 191 3500 
z
" transform="scale(0.015625)"/>
        <path id="DejaVuSans-31" d="M 794 531 
L 1825 531 
L 1825 4091 
L 703 3866 
L 703 4441 
L 1819 4666 
L 2450 4666 
L 2450 531 
L 3481 531 
L 3481 0 
L 794 0 
L 794 531 
z
" transform="scale(0.015625)"/>
       </defs>
       <use xlink:href="#DejaVuSans-32"/>
       <use xlink:href="#DejaVuSans-30" x="63.623047"/>
       <use xlink:href="#DejaVuSans-32" x="127.246094"/>
       <use xlink:href="#DejaVuSans-30" x="190.869141"/>
       <use xlink:href="#DejaVuSans-2d" x="254.492188"/>
       <use xlink:href="#DejaVuSans-4e" x="290.576172"/>
       <use xlink:href="#DejaVuSans-6f" x="365.380859"/>
       <use xlink:href="#DejaVuSans-76" x="426.5625"/>
       <use xlink:href="#DejaVuSans-2d" x="483.117188"/>
       <use xlink:href="#DejaVuSans-30" x="519.201172"/>
       <use xlink:href="#DejaVuSans-31" x="582.824219"/>
      </g>
     </g>
    </g>
    <g id="xtick_2">
     <g id="line2d_2">
      <g>
       <use xlink:href="#m4bda8115f7" x="95.21468" y="178.56" style="stroke: #000000; stroke-width: 0.8"/>
      </g>
     </g>
     <g id="text_2">
      <!-- 2020-Dec-01 -->
      <g transform="translate(38.106457 224.511534)rotate(-30)scale(0.1 -0.1)">
       <defs>
        <path id="DejaVuSans-44" d="M 1259 4147 
L 1259 519 
L 2022 519 
Q 2988 519 3436 956 
Q 3884 1394 3884 2338 
Q 3884 3275 3436 3711 
Q 2988 4147 2022 4147 
L 1259 4147 
z
M 628 4666 
L 1925 4666 
Q 3281 4666 3915 4102 
Q 4550 3538 4550 2338 
Q 4550 1131 3912 565 
Q 3275 0 1925 0 
L 628 0 
L 628 4666 
z
" transform="scale(0.015625)"/>
        <path id="DejaVuSans-65" d="M 3597 1894 
L 3597 1613 
L 953 1613 
Q 991 1019 1311 708 
Q 1631 397 2203 397 
Q 2534 397 2845 478 
Q 3156 559 3463 722 
L 3463 178 
Q 3153 47 2828 -22 
Q 2503 -91 2169 -91 
Q 1331 -91 842 396 
Q 353 884 353 1716 
Q 353 2575 817 3079 
Q 1281 3584 2069 3584 
Q 2775 3584 3186 3129 
Q 3597 2675 3597 1894 
z
M 3022 2063 
Q 3016 2534 2758 2815 
Q 2500 3097 2075 3097 
Q 1594 3097 1305 2825 
Q 1016 2553 972 2059 
L 3022 2063 
z
" transform="scale(0.015625)"/>
        <path id="DejaVuSans-63" d="M 3122 3366 
L 3122 2828 
Q 2878 2963 2633 3030 
Q 2388 3097 2138 3097 
Q 1578 3097 1268 2742 
Q 959 2388 959 1747 
Q 959 1106 1268 751 
Q 1578 397 2138 397 
Q 2388 397 2633 464 
Q 2878 531 3122 666 
L 3122 134 
Q 2881 22 2623 -34 
Q 2366 -91 2075 -91 
Q 1284 -91 818 406 
Q 353 903 353 1747 
Q 353 2603 823 3093 
Q 1294 3584 2113 3584 
Q 2378 3584 2631 3529 
Q 2884 3475 3122 3366 
z
" transform="scale(0.015625)"/>
       </defs>
       <use xlink:href="#DejaVuSans-32"/>
       <use xlink:href="#DejaVuSans-30" x="63.623047"/>
       <use xlink:href="#DejaVuSans-32" x="127.246094"/>
       <use xlink:href="#DejaVuSans-30" x="190.869141"/>
       <use xlink:href="#DejaVuSans-2d" x="254.492188"/>
       <use xlink:href="#DejaVuSans-44" x="290.576172"/>
       <use xlink:href="#DejaVuSans-65" x="367.578125"/>
       <use xlink:href="#DejaVuSans-63" x="429.101562"/>
       <use xlink:href="#DejaVuSans-2d" x="484.082031"/>
       <use xlink:href="#DejaVuSans-30" x="520.166016"/>
       <use xlink:href="#DejaVuSans-31" x="583.789062"/>
      </g>
     </g>
    </g>
    <g id="xtick_3">
     <g id="line2d_3">
      <g>
       <use xlink:href="#m4bda8115f7" x="123.109056" y="178.56" style="stroke: #000000; stroke-width: 0.8"/>
      </g>
     </g>
     <g id="text_3">
      <!-- 2021-Jan-01 -->
      <g transform="translate(68.922316 222.824815)rotate(-30)scale(0.1 -0.1)">
       <defs>
        <path id="DejaVuSans-4a" d="M 628 4666 
L 1259 4666 
L 1259 325 
Q 1259 -519 939 -900 
Q 619 -1281 -91 -1281 
L -331 -1281 
L -331 -750 
L -134 -750 
Q 284 -750 456 -515 
Q 628 -281 628 325 
L 628 4666 
z
" transform="scale(0.015625)"/>
        <path id="DejaVuSans-61" d="M 2194 1759 
Q 1497 1759 1228 1600 
Q 959 1441 959 1056 
Q 959 750 1161 570 
Q 1363 391 1709 391 
Q 2188 391 2477 730 
Q 2766 1069 2766 1631 
L 2766 1759 
L 2194 1759 
z
M 3341 1997 
L 3341 0 
L 2766 0 
L 2766 531 
Q 2569 213 2275 61 
Q 1981 -91 1556 -91 
Q 1019 -91 701 211 
Q 384 513 384 1019 
Q 384 1609 779 1909 
Q 1175 2209 1959 2209 
L 2766 2209 
L 2766 2266 
Q 2766 2663 2505 2880 
Q 2244 3097 1772 3097 
Q 1472 3097 1187 3025 
Q 903 2953 641 2809 
L 641 3341 
Q 956 3463 1253 3523 
Q 1550 3584 1831 3584 
Q 2591 3584 2966 3190 
Q 3341 2797 3341 1997 
z
" transform="scale(0.015625)"/>
        <path id="DejaVuSans-6e" d="M 3513 2113 
L 3513 0 
L 2938 0 
L 2938 2094 
Q 2938 2591 2744 2837 
Q 2550 3084 2163 3084 
Q 1697 3084 1428 2787 
Q 1159 2491 1159 1978 
L 1159 0 
L 581 0 
L 581 3500 
L 1159 3500 
L 1159 2956 
Q 1366 3272 1645 3428 
Q 1925 3584 2291 3584 
Q 2894 3584 3203 3211 
Q 3513 2838 3513 2113 
z
" transform="scale(0.015625)"/>
       </defs>
       <use xlink:href="#DejaVuSans-32"/>
       <use xlink:href="#DejaVuSans-30" x="63.623047"/>
       <use xlink:href="#DejaVuSans-32" x="127.246094"/>
       <use xlink:href="#DejaVuSans-31" x="190.869141"/>
       <use xlink:href="#DejaVuSans-2d" x="254.492188"/>
       <use xlink:href="#DejaVuSans-4a" x="296.201172"/>
       <use xlink:href="#DejaVuSans-61" x="325.693359"/>
       <use xlink:href="#DejaVuSans-6e" x="386.972656"/>
       <use xlink:href="#DejaVuSans-2d" x="450.351562"/>
       <use xlink:href="#DejaVuSans-30" x="486.435547"/>
       <use xlink:href="#DejaVuSans-31" x="550.058594"/>
      </g>
     </g>
    </g>
    <g id="xtick_4">
     <g id="line2d_4">
      <g>
       <use xlink:href="#m4bda8115f7" x="151.003432" y="178.56" style="stroke: #000000; stroke-width: 0.8"/>
      </g>
     </g>
     <g id="text_4">
      <!-- 2021-Feb-01 -->
      <g transform="translate(95.322798 223.687315)rotate(-30)scale(0.1 -0.1)">
       <defs>
        <path id="DejaVuSans-46" d="M 628 4666 
L 3309 4666 
L 3309 4134 
L 1259 4134 
L 1259 2759 
L 3109 2759 
L 3109 2228 
L 1259 2228 
L 1259 0 
L 628 0 
L 628 4666 
z
" transform="scale(0.015625)"/>
        <path id="DejaVuSans-62" d="M 3116 1747 
Q 3116 2381 2855 2742 
Q 2594 3103 2138 3103 
Q 1681 3103 1420 2742 
Q 1159 2381 1159 1747 
Q 1159 1113 1420 752 
Q 1681 391 2138 391 
Q 2594 391 2855 752 
Q 3116 1113 3116 1747 
z
M 1159 2969 
Q 1341 3281 1617 3432 
Q 1894 3584 2278 3584 
Q 2916 3584 3314 3078 
Q 3713 2572 3713 1747 
Q 3713 922 3314 415 
Q 2916 -91 2278 -91 
Q 1894 -91 1617 61 
Q 1341 213 1159 525 
L 1159 0 
L 581 0 
L 581 4863 
L 1159 4863 
L 1159 2969 
z
" transform="scale(0.015625)"/>
       </defs>
       <use xlink:href="#DejaVuSans-32"/>
       <use xlink:href="#DejaVuSans-30" x="63.623047"/>
       <use xlink:href="#DejaVuSans-32" x="127.246094"/>
       <use xlink:href="#DejaVuSans-31" x="190.869141"/>
       <use xlink:href="#DejaVuSans-2d" x="254.492188"/>
       <use xlink:href="#DejaVuSans-46" x="290.576172"/>
       <use xlink:href="#DejaVuSans-65" x="342.595703"/>
       <use xlink:href="#DejaVuSans-62" x="404.119141"/>
       <use xlink:href="#DejaVuSans-2d" x="467.595703"/>
       <use xlink:href="#DejaVuSans-30" x="503.679688"/>
       <use xlink:href="#DejaVuSans-31" x="567.302734"/>
      </g>
     </g>
    </g>
    <g id="xtick_5">
     <g id="line2d_5">
      <g>
       <use xlink:href="#m4bda8115f7" x="176.198353" y="178.56" style="stroke: #000000; stroke-width: 0.8"/>
      </g>
     </g>
     <g id="text_5">
      <!-- 2021-Mar-01 -->
      <g transform="translate(120.061702 223.950596)rotate(-30)scale(0.1 -0.1)">
       <defs>
        <path id="DejaVuSans-4d" d="M 628 4666 
L 1569 4666 
L 2759 1491 
L 3956 4666 
L 4897 4666 
L 4897 0 
L 4281 0 
L 4281 4097 
L 3078 897 
L 2444 897 
L 1241 4097 
L 1241 0 
L 628 0 
L 628 4666 
z
" transform="scale(0.015625)"/>
        <path id="DejaVuSans-72" d="M 2631 2963 
Q 2534 3019 2420 3045 
Q 2306 3072 2169 3072 
Q 1681 3072 1420 2755 
Q 1159 2438 1159 1844 
L 1159 0 
L 581 0 
L 581 3500 
L 1159 3500 
L 1159 2956 
Q 1341 3275 1631 3429 
Q 1922 3584 2338 3584 
Q 2397 3584 2469 3576 
Q 2541 3569 2628 3553 
L 2631 2963 
z
" transform="scale(0.015625)"/>
       </defs>
       <use xlink:href="#DejaVuSans-32"/>
       <use xlink:href="#DejaVuSans-30" x="63.623047"/>
       <use xlink:href="#DejaVuSans-32" x="127.246094"/>
       <use xlink:href="#DejaVuSans-31" x="190.869141"/>
       <use xlink:href="#DejaVuSans-2d" x="254.492188"/>
       <use xlink:href="#DejaVuSans-4d" x="290.576172"/>
       <use xlink:href="#DejaVuSans-61" x="376.855469"/>
       <use xlink:href="#DejaVuSans-72" x="438.134766"/>
       <use xlink:href="#DejaVuSans-2d" x="472.873047"/>
       <use xlink:href="#DejaVuSans-30" x="508.957031"/>
       <use xlink:href="#DejaVuSans-31" x="572.580078"/>
      </g>
     </g>
    </g>
    <g id="xtick_6">
     <g id="line2d_6">
      <g>
       <use xlink:href="#m4bda8115f7" x="204.092729" y="178.56" style="stroke: #000000; stroke-width: 0.8"/>
      </g>
     </g>
     <g id="text_6">
      <!-- 2021-Apr-01 -->
      <g transform="translate(149.508158 223.054502)rotate(-30)scale(0.1 -0.1)">
       <defs>
        <path id="DejaVuSans-41" d="M 2188 4044 
L 1331 1722 
L 3047 1722 
L 2188 4044 
z
M 1831 4666 
L 2547 4666 
L 4325 0 
L 3669 0 
L 3244 1197 
L 1141 1197 
L 716 0 
L 50 0 
L 1831 4666 
z
" transform="scale(0.015625)"/>
        <path id="DejaVuSans-70" d="M 1159 525 
L 1159 -1331 
L 581 -1331 
L 581 3500 
L 1159 3500 
L 1159 2969 
Q 1341 3281 1617 3432 
Q 1894 3584 2278 3584 
Q 2916 3584 3314 3078 
Q 3713 2572 3713 1747 
Q 3713 922 3314 415 
Q 2916 -91 2278 -91 
Q 1894 -91 1617 61 
Q 1341 213 1159 525 
z
M 3116 1747 
Q 3116 2381 2855 2742 
Q 2594 3103 2138 3103 
Q 1681 3103 1420 2742 
Q 1159 2381 1159 1747 
Q 1159 1113 1420 752 
Q 1681 391 2138 391 
Q 2594 391 2855 752 
Q 3116 1113 3116 1747 
z
" transform="scale(0.015625)"/>
       </defs>
       <use xlink:href="#DejaVuSans-32"/>
       <use xlink:href="#DejaVuSans-30" x="63.623047"/>
       <use xlink:href="#DejaVuSans-32" x="127.246094"/>
       <use xlink:href="#DejaVuSans-31" x="190.869141"/>
       <use xlink:href="#DejaVuSans-2d" x="254.492188"/>
       <use xlink:href="#DejaVuSans-41" x="288.326172"/>
       <use xlink:href="#DejaVuSans-70" x="356.734375"/>
       <use xlink:href="#DejaVuSans-72" x="420.210938"/>
       <use xlink:href="#DejaVuSans-2d" x="454.949219"/>
       <use xlink:href="#DejaVuSans-30" x="491.033203"/>
       <use xlink:href="#DejaVuSans-31" x="554.65625"/>
      </g>
     </g>
    </g>
    <g id="xtick_7">
     <g id="line2d_7">
      <g>
       <use xlink:href="#m4bda8115f7" x="231.087286" y="178.56" style="stroke: #000000; stroke-width: 0.8"/>
      </g>
     </g>
     <g id="text_7">
      <!-- 2021-May-01 -->
      <g transform="translate(172.984488 225.085752)rotate(-30)scale(0.1 -0.1)">
       <defs>
        <path id="DejaVuSans-79" d="M 2059 -325 
Q 1816 -950 1584 -1140 
Q 1353 -1331 966 -1331 
L 506 -1331 
L 506 -850 
L 844 -850 
Q 1081 -850 1212 -737 
Q 1344 -625 1503 -206 
L 1606 56 
L 191 3500 
L 800 3500 
L 1894 763 
L 2988 3500 
L 3597 3500 
L 2059 -325 
z
" transform="scale(0.015625)"/>
       </defs>
       <use xlink:href="#DejaVuSans-32"/>
       <use xlink:href="#DejaVuSans-30" x="63.623047"/>
       <use xlink:href="#DejaVuSans-32" x="127.246094"/>
       <use xlink:href="#DejaVuSans-31" x="190.869141"/>
       <use xlink:href="#DejaVuSans-2d" x="254.492188"/>
       <use xlink:href="#DejaVuSans-4d" x="290.576172"/>
       <use xlink:href="#DejaVuSans-61" x="376.855469"/>
       <use xlink:href="#DejaVuSans-79" x="438.134766"/>
       <use xlink:href="#DejaVuSans-2d" x="495.564453"/>
       <use xlink:href="#DejaVuSans-30" x="531.648438"/>
       <use xlink:href="#DejaVuSans-31" x="595.271484"/>
      </g>
     </g>
    </g>
    <g id="xtick_8">
     <g id="line2d_8">
      <g>
       <use xlink:href="#m4bda8115f7" x="258.981663" y="178.56" style="stroke: #000000; stroke-width: 0.8"/>
      </g>
     </g>
     <g id="text_8">
      <!-- 2021-Jun-01 -->
      <g transform="translate(204.613598 222.929502)rotate(-30)scale(0.1 -0.1)">
       <defs>
        <path id="DejaVuSans-75" d="M 544 1381 
L 544 3500 
L 1119 3500 
L 1119 1403 
Q 1119 906 1312 657 
Q 1506 409 1894 409 
Q 2359 409 2629 706 
Q 2900 1003 2900 1516 
L 2900 3500 
L 3475 3500 
L 3475 0 
L 2900 0 
L 2900 538 
Q 2691 219 2414 64 
Q 2138 -91 1772 -91 
Q 1169 -91 856 284 
Q 544 659 544 1381 
z
M 1991 3584 
L 1991 3584 
z
" transform="scale(0.015625)"/>
       </defs>
       <use xlink:href="#DejaVuSans-32"/>
       <use xlink:href="#DejaVuSans-30" x="63.623047"/>
       <use xlink:href="#DejaVuSans-32" x="127.246094"/>
       <use xlink:href="#DejaVuSans-31" x="190.869141"/>
       <use xlink:href="#DejaVuSans-2d" x="254.492188"/>
       <use xlink:href="#DejaVuSans-4a" x="296.201172"/>
       <use xlink:href="#DejaVuSans-75" x="325.693359"/>
       <use xlink:href="#DejaVuSans-6e" x="389.072266"/>
       <use xlink:href="#DejaVuSans-2d" x="452.451172"/>
       <use xlink:href="#DejaVuSans-30" x="488.535156"/>
       <use xlink:href="#DejaVuSans-31" x="552.158203"/>
      </g>
     </g>
    </g>
    <g id="xtick_9">
     <g id="line2d_9">
      <g>
       <use xlink:href="#m4bda8115f7" x="285.97622" y="178.56" style="stroke: #000000; stroke-width: 0.8"/>
      </g>
     </g>
     <g id="text_9">
      <!-- 2021-Jul-01 -->
      <g transform="translate(234.690665 221.149815)rotate(-30)scale(0.1 -0.1)">
       <defs>
        <path id="DejaVuSans-6c" d="M 603 4863 
L 1178 4863 
L 1178 0 
L 603 0 
L 603 4863 
z
" transform="scale(0.015625)"/>
       </defs>
       <use xlink:href="#DejaVuSans-32"/>
       <use xlink:href="#DejaVuSans-30" x="63.623047"/>
       <use xlink:href="#DejaVuSans-32" x="127.246094"/>
       <use xlink:href="#DejaVuSans-31" x="190.869141"/>
       <use xlink:href="#DejaVuSans-2d" x="254.492188"/>
       <use xlink:href="#DejaVuSans-4a" x="296.201172"/>
       <use xlink:href="#DejaVuSans-75" x="325.693359"/>
       <use xlink:href="#DejaVuSans-6c" x="389.072266"/>
       <use xlink:href="#DejaVuSans-2d" x="416.855469"/>
       <use xlink:href="#DejaVuSans-30" x="452.939453"/>
       <use xlink:href="#DejaVuSans-31" x="516.5625"/>
      </g>
     </g>
    </g>
    <g id="xtick_10">
     <g id="line2d_10">
      <g>
       <use xlink:href="#m4bda8115f7" x="313.870596" y="178.56" style="stroke: #000000; stroke-width: 0.8"/>
      </g>
     </g>
     <g id="text_10">
      <!-- 2021-Aug-01 -->
      <g transform="translate(256.805675 224.486534)rotate(-30)scale(0.1 -0.1)">
       <defs>
        <path id="DejaVuSans-67" d="M 2906 1791 
Q 2906 2416 2648 2759 
Q 2391 3103 1925 3103 
Q 1463 3103 1205 2759 
Q 947 2416 947 1791 
Q 947 1169 1205 825 
Q 1463 481 1925 481 
Q 2391 481 2648 825 
Q 2906 1169 2906 1791 
z
M 3481 434 
Q 3481 -459 3084 -895 
Q 2688 -1331 1869 -1331 
Q 1566 -1331 1297 -1286 
Q 1028 -1241 775 -1147 
L 775 -588 
Q 1028 -725 1275 -790 
Q 1522 -856 1778 -856 
Q 2344 -856 2625 -561 
Q 2906 -266 2906 331 
L 2906 616 
Q 2728 306 2450 153 
Q 2172 0 1784 0 
Q 1141 0 747 490 
Q 353 981 353 1791 
Q 353 2603 747 3093 
Q 1141 3584 1784 3584 
Q 2172 3584 2450 3431 
Q 2728 3278 2906 2969 
L 2906 3500 
L 3481 3500 
L 3481 434 
z
" transform="scale(0.015625)"/>
       </defs>
       <use xlink:href="#DejaVuSans-32"/>
       <use xlink:href="#DejaVuSans-30" x="63.623047"/>
       <use xlink:href="#DejaVuSans-32" x="127.246094"/>
       <use xlink:href="#DejaVuSans-31" x="190.869141"/>
       <use xlink:href="#DejaVuSans-2d" x="254.492188"/>
       <use xlink:href="#DejaVuSans-41" x="288.326172"/>
       <use xlink:href="#DejaVuSans-75" x="356.734375"/>
       <use xlink:href="#DejaVuSans-67" x="420.113281"/>
       <use xlink:href="#DejaVuSans-2d" x="483.589844"/>
       <use xlink:href="#DejaVuSans-30" x="519.673828"/>
       <use xlink:href="#DejaVuSans-31" x="583.296875"/>
      </g>
     </g>
    </g>
    <g id="xtick_11">
     <g id="line2d_11">
      <g>
       <use xlink:href="#m4bda8115f7" x="341.764972" y="178.56" style="stroke: #000000; stroke-width: 0.8"/>
      </g>
     </g>
     <g id="text_11">
      <!-- 2021-Sep-01 -->
      <g transform="translate(285.091115 224.260752)rotate(-30)scale(0.1 -0.1)">
       <defs>
        <path id="DejaVuSans-53" d="M 3425 4513 
L 3425 3897 
Q 3066 4069 2747 4153 
Q 2428 4238 2131 4238 
Q 1616 4238 1336 4038 
Q 1056 3838 1056 3469 
Q 1056 3159 1242 3001 
Q 1428 2844 1947 2747 
L 2328 2669 
Q 3034 2534 3370 2195 
Q 3706 1856 3706 1288 
Q 3706 609 3251 259 
Q 2797 -91 1919 -91 
Q 1588 -91 1214 -16 
Q 841 59 441 206 
L 441 856 
Q 825 641 1194 531 
Q 1563 422 1919 422 
Q 2459 422 2753 634 
Q 3047 847 3047 1241 
Q 3047 1584 2836 1778 
Q 2625 1972 2144 2069 
L 1759 2144 
Q 1053 2284 737 2584 
Q 422 2884 422 3419 
Q 422 4038 858 4394 
Q 1294 4750 2059 4750 
Q 2388 4750 2728 4690 
Q 3069 4631 3425 4513 
z
" transform="scale(0.015625)"/>
       </defs>
       <use xlink:href="#DejaVuSans-32"/>
       <use xlink:href="#DejaVuSans-30" x="63.623047"/>
       <use xlink:href="#DejaVuSans-32" x="127.246094"/>
       <use xlink:href="#DejaVuSans-31" x="190.869141"/>
       <use xlink:href="#DejaVuSans-2d" x="254.492188"/>
       <use xlink:href="#DejaVuSans-53" x="290.576172"/>
       <use xlink:href="#DejaVuSans-65" x="354.052734"/>
       <use xlink:href="#DejaVuSans-70" x="415.576172"/>
       <use xlink:href="#DejaVuSans-2d" x="479.052734"/>
       <use xlink:href="#DejaVuSans-30" x="515.136719"/>
       <use xlink:href="#DejaVuSans-31" x="578.759766"/>
      </g>
     </g>
    </g>
    <g id="xtick_12">
     <g id="line2d_12">
      <g>
       <use xlink:href="#m4bda8115f7" x="368.75953" y="178.56" style="stroke: #000000; stroke-width: 0.8"/>
      </g>
     </g>
     <g id="text_12">
      <!-- 2021-Oct-01 -->
      <g transform="translate(313.197974 223.618565)rotate(-30)scale(0.1 -0.1)">
       <defs>
        <path id="DejaVuSans-4f" d="M 2522 4238 
Q 1834 4238 1429 3725 
Q 1025 3213 1025 2328 
Q 1025 1447 1429 934 
Q 1834 422 2522 422 
Q 3209 422 3611 934 
Q 4013 1447 4013 2328 
Q 4013 3213 3611 3725 
Q 3209 4238 2522 4238 
z
M 2522 4750 
Q 3503 4750 4090 4092 
Q 4678 3434 4678 2328 
Q 4678 1225 4090 567 
Q 3503 -91 2522 -91 
Q 1538 -91 948 565 
Q 359 1222 359 2328 
Q 359 3434 948 4092 
Q 1538 4750 2522 4750 
z
" transform="scale(0.015625)"/>
        <path id="DejaVuSans-74" d="M 1172 4494 
L 1172 3500 
L 2356 3500 
L 2356 3053 
L 1172 3053 
L 1172 1153 
Q 1172 725 1289 603 
Q 1406 481 1766 481 
L 2356 481 
L 2356 0 
L 1766 0 
Q 1100 0 847 248 
Q 594 497 594 1153 
L 594 3053 
L 172 3053 
L 172 3500 
L 594 3500 
L 594 4494 
L 1172 4494 
z
" transform="scale(0.015625)"/>
       </defs>
       <use xlink:href="#DejaVuSans-32"/>
       <use xlink:href="#DejaVuSans-30" x="63.623047"/>
       <use xlink:href="#DejaVuSans-32" x="127.246094"/>
       <use xlink:href="#DejaVuSans-31" x="190.869141"/>
       <use xlink:href="#DejaVuSans-2d" x="254.492188"/>
       <use xlink:href="#DejaVuSans-4f" x="293.326172"/>
       <use xlink:href="#DejaVuSans-63" x="372.037109"/>
       <use xlink:href="#DejaVuSans-74" x="427.017578"/>
       <use xlink:href="#DejaVuSans-2d" x="466.226562"/>
       <use xlink:href="#DejaVuSans-30" x="502.310547"/>
       <use xlink:href="#DejaVuSans-31" x="565.933594"/>
      </g>
     </g>
    </g>
    <g id="xtick_13">
     <g id="line2d_13">
      <g>
       <use xlink:href="#m4bda8115f7" x="396.653906" y="178.56" style="stroke: #000000; stroke-width: 0.8"/>
      </g>
     </g>
     <g id="text_13">
      <!-- 2021-Nov-01 -->
      <g transform="translate(339.628226 224.463877)rotate(-30)scale(0.1 -0.1)">
       <use xlink:href="#DejaVuSans-32"/>
       <use xlink:href="#DejaVuSans-30" x="63.623047"/>
       <use xlink:href="#DejaVuSans-32" x="127.246094"/>
       <use xlink:href="#DejaVuSans-31" x="190.869141"/>
       <use xlink:href="#DejaVuSans-2d" x="254.492188"/>
       <use xlink:href="#DejaVuSans-4e" x="290.576172"/>
       <use xlink:href="#DejaVuSans-6f" x="365.380859"/>
       <use xlink:href="#DejaVuSans-76" x="426.5625"/>
       <use xlink:href="#DejaVuSans-2d" x="483.117188"/>
       <use xlink:href="#DejaVuSans-30" x="519.201172"/>
       <use xlink:href="#DejaVuSans-31" x="582.824219"/>
      </g>
     </g>
    </g>
    <g id="xtick_14">
     <g id="line2d_14">
      <g>
       <use xlink:href="#m4bda8115f7" x="423.648464" y="178.56" style="stroke: #000000; stroke-width: 0.8"/>
      </g>
     </g>
     <g id="text_14">
      <!-- 2021-Dec-01 -->
      <g transform="translate(366.540241 224.511534)rotate(-30)scale(0.1 -0.1)">
       <use xlink:href="#DejaVuSans-32"/>
       <use xlink:href="#DejaVuSans-30" x="63.623047"/>
       <use xlink:href="#DejaVuSans-32" x="127.246094"/>
       <use xlink:href="#DejaVuSans-31" x="190.869141"/>
       <use xlink:href="#DejaVuSans-2d" x="254.492188"/>
       <use xlink:href="#DejaVuSans-44" x="290.576172"/>
       <use xlink:href="#DejaVuSans-65" x="367.578125"/>
       <use xlink:href="#DejaVuSans-63" x="429.101562"/>
       <use xlink:href="#DejaVuSans-2d" x="484.082031"/>
       <use xlink:href="#DejaVuSans-30" x="520.166016"/>
       <use xlink:href="#DejaVuSans-31" x="583.789062"/>
      </g>
     </g>
    </g>
    <g id="xtick_15">
     <g id="line2d_15">
      <g>
       <use xlink:href="#m4bda8115f7" x="451.54284" y="178.56" style="stroke: #000000; stroke-width: 0.8"/>
      </g>
     </g>
     <g id="text_15">
      <!-- 2022-Jan-01 -->
      <g transform="translate(397.3561 222.824815)rotate(-30)scale(0.1 -0.1)">
       <use xlink:href="#DejaVuSans-32"/>
       <use xlink:href="#DejaVuSans-30" x="63.623047"/>
       <use xlink:href="#DejaVuSans-32" x="127.246094"/>
       <use xlink:href="#DejaVuSans-32" x="190.869141"/>
       <use xlink:href="#DejaVuSans-2d" x="254.492188"/>
       <use xlink:href="#DejaVuSans-4a" x="296.201172"/>
       <use xlink:href="#DejaVuSans-61" x="325.693359"/>
       <use xlink:href="#DejaVuSans-6e" x="386.972656"/>
       <use xlink:href="#DejaVuSans-2d" x="450.351562"/>
       <use xlink:href="#DejaVuSans-30" x="486.435547"/>
       <use xlink:href="#DejaVuSans-31" x="550.058594"/>
      </g>
     </g>
    </g>
    <g id="xtick_16">
     <g id="line2d_16">
      <g>
       <use xlink:href="#m4bda8115f7" x="479.437216" y="178.56" style="stroke: #000000; stroke-width: 0.8"/>
      </g>
     </g>
     <g id="text_16">
      <!-- 2022-Feb-01 -->
      <g transform="translate(423.756582 223.687315)rotate(-30)scale(0.1 -0.1)">
       <use xlink:href="#DejaVuSans-32"/>
       <use xlink:href="#DejaVuSans-30" x="63.623047"/>
       <use xlink:href="#DejaVuSans-32" x="127.246094"/>
       <use xlink:href="#DejaVuSans-32" x="190.869141"/>
       <use xlink:href="#DejaVuSans-2d" x="254.492188"/>
       <use xlink:href="#DejaVuSans-46" x="290.576172"/>
       <use xlink:href="#DejaVuSans-65" x="342.595703"/>
       <use xlink:href="#DejaVuSans-62" x="404.119141"/>
       <use xlink:href="#DejaVuSans-2d" x="467.595703"/>
       <use xlink:href="#DejaVuSans-30" x="503.679688"/>
       <use xlink:href="#DejaVuSans-31" x="567.302734"/>
      </g>
     </g>
    </g>
   </g>
   <g id="matplotlib.axis_2">
    <g id="ytick_1">
     <g id="line2d_17">
      <path d="M 53.328125 176.735985 
L 499.728125 176.735985 
" clip-path="url(#pcb6ffd7041)" style="fill: none; stroke: #b0b0b0; stroke-width: 0.8; stroke-linecap: square"/>
     </g>
     <g id="line2d_18">
      <defs>
       <path id="mf6de061102" d="M 0 0 
L -3.5 0 
" style="stroke: #000000; stroke-width: 0.8"/>
      </defs>
      <g>
       <use xlink:href="#mf6de061102" x="53.328125" y="176.735985" style="stroke: #000000; stroke-width: 0.8"/>
      </g>
     </g>
     <g id="text_17">
      <!-- 0 -->
      <g transform="translate(39.965625 180.535204)scale(0.1 -0.1)">
       <use xlink:href="#DejaVuSans-30"/>
      </g>
     </g>
    </g>
    <g id="ytick_2">
     <g id="line2d_19">
      <path d="M 53.328125 136.157236 
L 499.728125 136.157236 
" clip-path="url(#pcb6ffd7041)" style="fill: none; stroke: #b0b0b0; stroke-width: 0.8; stroke-linecap: square"/>
     </g>
     <g id="line2d_20">
      <g>
       <use xlink:href="#mf6de061102" x="53.328125" y="136.157236" style="stroke: #000000; stroke-width: 0.8"/>
      </g>
     </g>
     <g id="text_18">
      <!-- 1000 -->
      <g transform="translate(20.878125 139.956455)scale(0.1 -0.1)">
       <use xlink:href="#DejaVuSans-31"/>
       <use xlink:href="#DejaVuSans-30" x="63.623047"/>
       <use xlink:href="#DejaVuSans-30" x="127.246094"/>
       <use xlink:href="#DejaVuSans-30" x="190.869141"/>
      </g>
     </g>
    </g>
    <g id="ytick_3">
     <g id="line2d_21">
      <path d="M 53.328125 95.578487 
L 499.728125 95.578487 
" clip-path="url(#pcb6ffd7041)" style="fill: none; stroke: #b0b0b0; stroke-width: 0.8; stroke-linecap: square"/>
     </g>
     <g id="line2d_22">
      <g>
       <use xlink:href="#mf6de061102" x="53.328125" y="95.578487" style="stroke: #000000; stroke-width: 0.8"/>
      </g>
     </g>
     <g id="text_19">
      <!-- 2000 -->
      <g transform="translate(20.878125 99.377706)scale(0.1 -0.1)">
       <use xlink:href="#DejaVuSans-32"/>
       <use xlink:href="#DejaVuSans-30" x="63.623047"/>
       <use xlink:href="#DejaVuSans-30" x="127.246094"/>
       <use xlink:href="#DejaVuSans-30" x="190.869141"/>
      </g>
     </g>
    </g>
    <g id="ytick_4">
     <g id="line2d_23">
      <path d="M 53.328125 54.999738 
L 499.728125 54.999738 
" clip-path="url(#pcb6ffd7041)" style="fill: none; stroke: #b0b0b0; stroke-width: 0.8; stroke-linecap: square"/>
     </g>
     <g id="line2d_24">
      <g>
       <use xlink:href="#mf6de061102" x="53.328125" y="54.999738" style="stroke: #000000; stroke-width: 0.8"/>
      </g>
     </g>
     <g id="text_20">
      <!-- 3000 -->
      <g transform="translate(20.878125 58.798956)scale(0.1 -0.1)">
       <defs>
        <path id="DejaVuSans-33" d="M 2597 2516 
Q 3050 2419 3304 2112 
Q 3559 1806 3559 1356 
Q 3559 666 3084 287 
Q 2609 -91 1734 -91 
Q 1441 -91 1130 -33 
Q 819 25 488 141 
L 488 750 
Q 750 597 1062 519 
Q 1375 441 1716 441 
Q 2309 441 2620 675 
Q 2931 909 2931 1356 
Q 2931 1769 2642 2001 
Q 2353 2234 1838 2234 
L 1294 2234 
L 1294 2753 
L 1863 2753 
Q 2328 2753 2575 2939 
Q 2822 3125 2822 3475 
Q 2822 3834 2567 4026 
Q 2313 4219 1838 4219 
Q 1578 4219 1281 4162 
Q 984 4106 628 3988 
L 628 4550 
Q 988 4650 1302 4700 
Q 1616 4750 1894 4750 
Q 2613 4750 3031 4423 
Q 3450 4097 3450 3541 
Q 3450 3153 3228 2886 
Q 3006 2619 2597 2516 
z
" transform="scale(0.015625)"/>
       </defs>
       <use xlink:href="#DejaVuSans-33"/>
       <use xlink:href="#DejaVuSans-30" x="63.623047"/>
       <use xlink:href="#DejaVuSans-30" x="127.246094"/>
       <use xlink:href="#DejaVuSans-30" x="190.869141"/>
      </g>
     </g>
    </g>
    <g id="ytick_5">
     <g id="line2d_25">
      <path d="M 53.328125 14.420988 
L 499.728125 14.420988 
" clip-path="url(#pcb6ffd7041)" style="fill: none; stroke: #b0b0b0; stroke-width: 0.8; stroke-linecap: square"/>
     </g>
     <g id="line2d_26">
      <g>
       <use xlink:href="#mf6de061102" x="53.328125" y="14.420988" style="stroke: #000000; stroke-width: 0.8"/>
      </g>
     </g>
     <g id="text_21">
      <!-- 4000 -->
      <g transform="translate(20.878125 18.220207)scale(0.1 -0.1)">
       <defs>
        <path id="DejaVuSans-34" d="M 2419 4116 
L 825 1625 
L 2419 1625 
L 2419 4116 
z
M 2253 4666 
L 3047 4666 
L 3047 1625 
L 3713 1625 
L 3713 1100 
L 3047 1100 
L 3047 0 
L 2419 0 
L 2419 1100 
L 313 1100 
L 313 1709 
L 2253 4666 
z
" transform="scale(0.015625)"/>
       </defs>
       <use xlink:href="#DejaVuSans-34"/>
       <use xlink:href="#DejaVuSans-30" x="63.623047"/>
       <use xlink:href="#DejaVuSans-30" x="127.246094"/>
       <use xlink:href="#DejaVuSans-30" x="190.869141"/>
      </g>
     </g>
    </g>
    <g id="text_22">
     <!-- Number of security.txt files -->
     <g transform="translate(14.798438 160.491719)rotate(-90)scale(0.1 -0.1)">
      <defs>
       <path id="DejaVuSans-6d" d="M 3328 2828 
Q 3544 3216 3844 3400 
Q 4144 3584 4550 3584 
Q 5097 3584 5394 3201 
Q 5691 2819 5691 2113 
L 5691 0 
L 5113 0 
L 5113 2094 
Q 5113 2597 4934 2840 
Q 4756 3084 4391 3084 
Q 3944 3084 3684 2787 
Q 3425 2491 3425 1978 
L 3425 0 
L 2847 0 
L 2847 2094 
Q 2847 2600 2669 2842 
Q 2491 3084 2119 3084 
Q 1678 3084 1418 2786 
Q 1159 2488 1159 1978 
L 1159 0 
L 581 0 
L 581 3500 
L 1159 3500 
L 1159 2956 
Q 1356 3278 1631 3431 
Q 1906 3584 2284 3584 
Q 2666 3584 2933 3390 
Q 3200 3197 3328 2828 
z
" transform="scale(0.015625)"/>
       <path id="DejaVuSans-20" transform="scale(0.015625)"/>
       <path id="DejaVuSans-66" d="M 2375 4863 
L 2375 4384 
L 1825 4384 
Q 1516 4384 1395 4259 
Q 1275 4134 1275 3809 
L 1275 3500 
L 2222 3500 
L 2222 3053 
L 1275 3053 
L 1275 0 
L 697 0 
L 697 3053 
L 147 3053 
L 147 3500 
L 697 3500 
L 697 3744 
Q 697 4328 969 4595 
Q 1241 4863 1831 4863 
L 2375 4863 
z
" transform="scale(0.015625)"/>
       <path id="DejaVuSans-73" d="M 2834 3397 
L 2834 2853 
Q 2591 2978 2328 3040 
Q 2066 3103 1784 3103 
Q 1356 3103 1142 2972 
Q 928 2841 928 2578 
Q 928 2378 1081 2264 
Q 1234 2150 1697 2047 
L 1894 2003 
Q 2506 1872 2764 1633 
Q 3022 1394 3022 966 
Q 3022 478 2636 193 
Q 2250 -91 1575 -91 
Q 1294 -91 989 -36 
Q 684 19 347 128 
L 347 722 
Q 666 556 975 473 
Q 1284 391 1588 391 
Q 1994 391 2212 530 
Q 2431 669 2431 922 
Q 2431 1156 2273 1281 
Q 2116 1406 1581 1522 
L 1381 1569 
Q 847 1681 609 1914 
Q 372 2147 372 2553 
Q 372 3047 722 3315 
Q 1072 3584 1716 3584 
Q 2034 3584 2315 3537 
Q 2597 3491 2834 3397 
z
" transform="scale(0.015625)"/>
       <path id="DejaVuSans-69" d="M 603 3500 
L 1178 3500 
L 1178 0 
L 603 0 
L 603 3500 
z
M 603 4863 
L 1178 4863 
L 1178 4134 
L 603 4134 
L 603 4863 
z
" transform="scale(0.015625)"/>
       <path id="DejaVuSans-2e" d="M 684 794 
L 1344 794 
L 1344 0 
L 684 0 
L 684 794 
z
" transform="scale(0.015625)"/>
       <path id="DejaVuSans-78" d="M 3513 3500 
L 2247 1797 
L 3578 0 
L 2900 0 
L 1881 1375 
L 863 0 
L 184 0 
L 1544 1831 
L 300 3500 
L 978 3500 
L 1906 2253 
L 2834 3500 
L 3513 3500 
z
" transform="scale(0.015625)"/>
      </defs>
      <use xlink:href="#DejaVuSans-4e"/>
      <use xlink:href="#DejaVuSans-75" x="74.804688"/>
      <use xlink:href="#DejaVuSans-6d" x="138.183594"/>
      <use xlink:href="#DejaVuSans-62" x="235.595703"/>
      <use xlink:href="#DejaVuSans-65" x="299.072266"/>
      <use xlink:href="#DejaVuSans-72" x="360.595703"/>
      <use xlink:href="#DejaVuSans-20" x="401.708984"/>
      <use xlink:href="#DejaVuSans-6f" x="433.496094"/>
      <use xlink:href="#DejaVuSans-66" x="494.677734"/>
      <use xlink:href="#DejaVuSans-20" x="529.882812"/>
      <use xlink:href="#DejaVuSans-73" x="561.669922"/>
      <use xlink:href="#DejaVuSans-65" x="613.769531"/>
      <use xlink:href="#DejaVuSans-63" x="675.292969"/>
      <use xlink:href="#DejaVuSans-75" x="730.273438"/>
      <use xlink:href="#DejaVuSans-72" x="793.652344"/>
      <use xlink:href="#DejaVuSans-69" x="834.765625"/>
      <use xlink:href="#DejaVuSans-74" x="862.548828"/>
      <use xlink:href="#DejaVuSans-79" x="901.757812"/>
      <use xlink:href="#DejaVuSans-2e" x="946.6875"/>
      <use xlink:href="#DejaVuSans-74" x="978.474609"/>
      <use xlink:href="#DejaVuSans-78" x="1017.683594"/>
      <use xlink:href="#DejaVuSans-74" x="1076.863281"/>
      <use xlink:href="#DejaVuSans-20" x="1116.072266"/>
      <use xlink:href="#DejaVuSans-66" x="1147.859375"/>
      <use xlink:href="#DejaVuSans-69" x="1183.064453"/>
      <use xlink:href="#DejaVuSans-6c" x="1210.847656"/>
      <use xlink:href="#DejaVuSans-65" x="1238.630859"/>
      <use xlink:href="#DejaVuSans-73" x="1300.154297"/>
     </g>
    </g>
   </g>
   <g id="line2d_27">
    <path d="M 73.619034 86.001902 
L 74.518853 86.204796 
L 75.418671 86.570004 
L 76.31849 86.042481 
L 77.218308 84.987433 
L 78.118127 84.581646 
L 79.017946 84.500488 
L 79.917764 84.216437 
L 80.817583 84.419331 
L 81.717401 84.013543 
L 82.61722 83.81065 
L 83.517039 83.81065 
L 84.416857 84.175858 
L 85.316676 83.445441 
L 86.216494 83.526598 
L 87.116313 83.323705 
L 89.815769 82.83676 
L 90.715587 82.999075 
L 91.615406 82.958496 
L 92.515224 83.039653 
L 93.415043 82.755602 
L 94.314862 82.674445 
L 95.21468 83.16139 
L 96.114499 83.16139 
L 97.014317 82.83676 
L 97.914136 81.86287 
L 98.813954 83.039653 
L 99.713773 82.755602 
L 100.613592 81.944027 
L 101.51341 81.497661 
L 102.413229 82.065763 
L 103.313047 81.86287 
L 106.012503 81.903448 
L 107.81214 82.309236 
L 110.511596 81.53824 
L 112.311233 80.077405 
L 113.211052 80.56435 
L 114.11087 79.996247 
L 115.910508 80.56435 
L 116.810326 79.91509 
L 117.710145 80.483192 
L 118.609963 80.117983 
L 119.509782 80.158562 
L 120.409601 80.686086 
L 121.309419 80.686086 
L 123.109056 80.442613 
L 124.908693 81.010716 
L 127.608149 80.726665 
L 128.507968 80.23972 
L 129.407786 80.402035 
L 130.307605 80.442613 
L 131.207424 79.346987 
L 132.107242 79.91509 
L 133.007061 79.59046 
L 135.706516 79.103515 
L 138.405972 78.9412 
L 139.305791 79.26583 
L 140.205609 79.103515 
L 141.105428 78.697727 
L 142.005247 78.9412 
L 142.905065 79.428145 
L 151.003432 77.96731 
L 154.602707 78.089046 
L 155.502525 77.804995 
L 156.402344 77.804995 
L 157.302162 78.860042 
L 158.201981 78.251361 
L 159.1018 78.373097 
L 160.001618 77.64268 
L 160.901437 77.358628 
L 161.801255 77.845573 
L 162.701074 77.561522 
L 163.600893 77.480365 
L 164.500711 77.277471 
L 165.40053 77.277471 
L 166.300348 77.115156 
L 168.099986 76.952841 
L 168.999804 76.181845 
L 169.899623 76.952841 
L 170.799441 76.912262 
L 171.69926 76.99342 
L 172.599078 76.181845 
L 173.498897 76.34416 
L 174.398716 75.613742 
L 175.298534 76.384738 
L 176.198353 75.857215 
L 177.098171 75.978951 
L 177.99799 75.897793 
L 178.897809 75.167376 
L 179.797627 75.005061 
L 180.697446 74.477537 
L 181.597264 74.152907 
L 182.497083 74.680431 
L 183.396901 74.72101 
L 186.996176 73.219596 
L 187.895994 72.77323 
L 188.795813 73.219596 
L 200.493455 72.570336 
L 201.393273 72.408021 
L 202.293092 72.732651 
L 203.19291 72.408021 
L 204.092729 72.610915 
L 204.992547 72.042812 
L 205.892366 72.367442 
L 206.792185 72.4486 
L 207.692003 70.866029 
L 208.591822 70.906607 
L 209.49164 70.744292 
L 210.391459 69.932717 
L 211.291278 70.297926 
L 212.191096 70.013875 
L 214.890552 70.095032 
L 215.790371 70.663135 
L 216.690189 69.973296 
L 217.590008 69.810981 
L 218.489826 69.810981 
L 219.389645 70.297926 
L 220.289463 70.054454 
L 221.189282 70.216769 
L 222.089101 70.17619 
L 224.788556 69.364615 
L 225.688375 69.770402 
L 226.588194 69.2023 
L 227.488012 68.22841 
L 228.387831 67.944359 
L 229.287649 67.25452 
L 232.886924 67.213941 
L 233.786742 67.092205 
L 234.686561 66.240051 
L 235.586379 66.442945 
L 236.486198 65.550212 
L 237.386017 65.834264 
L 238.285835 65.671949 
L 239.185654 65.185004 
L 240.085472 65.063267 
L 241.885109 63.561854 
L 242.784928 63.03433 
L 243.684747 63.764747 
L 244.584565 64.048799 
L 245.484384 63.68359 
L 246.384202 63.115487 
L 247.284021 63.35896 
L 248.18384 63.115487 
L 249.083658 63.643011 
L 249.983477 63.399539 
L 250.883295 63.724169 
L 251.783114 64.211114 
L 252.682932 63.35896 
L 253.582751 63.845905 
L 254.48257 63.399539 
L 255.382388 62.547385 
L 256.282207 62.303912 
L 257.182025 62.547385 
L 258.081844 62.141597 
L 258.981663 62.466227 
L 259.881481 60.843078 
L 260.7813 61.127129 
L 261.681118 60.964814 
L 262.580937 60.559026 
L 265.280393 60.883656 
L 266.180211 60.315554 
L 267.08003 59.990924 
L 267.979848 59.990924 
L 268.879667 59.422821 
L 269.779486 59.13877 
L 270.679304 59.301085 
L 271.579123 58.895298 
L 272.478941 58.286616 
L 273.37876 58.692404 
L 274.278579 58.205459 
L 275.178397 57.961986 
L 276.078216 57.961986 
L 276.978034 57.434463 
L 277.877853 57.921408 
L 279.67749 57.231569 
L 284.176583 56.460573 
L 287.775857 54.837423 
L 288.675676 54.796844 
L 313.870596 48.060772 
L 314.770415 49.521606 
L 315.670233 48.304244 
L 317.469871 47.979614 
L 318.369689 47.005724 
L 319.269508 47.12746 
L 320.169326 46.883988 
L 321.069145 47.289775 
L 322.868782 45.950677 
L 323.768601 45.707204 
L 324.668419 49.237555 
L 325.568238 49.318713 
L 326.468056 49.034661 
L 327.367875 48.953504 
L 329.167512 49.115819 
L 330.067331 48.872346 
L 346.264065 48.831768 
L 347.163884 48.182508 
L 348.963521 47.533248 
L 349.86334 46.80283 
L 350.763158 47.046303 
L 352.562795 47.249197 
L 353.462614 47.573827 
L 354.362433 47.573827 
L 355.262251 46.15357 
L 356.16207 45.991255 
L 357.061888 45.423153 
L 357.961707 45.747783 
L 358.861526 46.194149 
L 360.661163 44.165212 
L 361.560981 44.043475 
L 362.4608 43.394215 
L 365.160256 42.988428 
L 366.060074 43.069585 
L 366.959893 41.487014 
L 367.859711 42.136274 
L 368.75953 41.243542 
L 369.659349 40.594282 
L 370.559167 41.121805 
L 371.458986 40.188494 
L 372.358804 37.794348 
L 373.258623 36.7393 
L 374.158441 36.049462 
L 375.05826 36.292934 
L 375.958079 36.008883 
L 376.857897 35.846568 
L 377.757716 35.359623 
L 378.657534 35.237887 
L 379.557353 34.994414 
L 380.457172 35.968304 
L 381.35699 34.913257 
L 382.256809 34.750942 
L 383.156627 34.872678 
L 384.056446 35.319044 
L 384.956264 34.548048 
L 385.856083 33.939367 
L 386.755902 33.817631 
L 387.65572 33.452422 
L 388.555539 32.397374 
L 389.455357 33.493001 
L 390.355176 33.858209 
L 391.254995 33.046634 
L 392.154813 33.411843 
L 393.054632 32.965477 
L 393.95445 33.330686 
L 394.854269 32.478532 
L 396.653906 31.991587 
L 397.553725 32.032166 
L 398.453543 30.652488 
L 399.353362 30.855382 
L 400.25318 31.342327 
L 401.152999 31.261169 
L 402.052818 30.774224 
L 402.952636 31.869851 
L 403.852455 31.991587 
L 407.451729 29.110496 
L 408.351548 29.191653 
L 409.251366 29.394547 
L 410.151185 29.475704 
L 411.051003 28.055448 
L 411.950822 28.217763 
L 412.850641 27.406188 
L 414.650278 28.217763 
L 415.550096 27.690239 
L 416.449915 26.513456 
L 417.349734 26.959822 
L 418.249552 26.432298 
L 419.149371 26.919243 
L 420.949008 25.580144 
L 421.848826 26.148247 
L 422.748645 27.122137 
L 423.648464 26.107668 
L 424.548282 26.269983 
L 426.347919 26.269983 
L 427.247738 25.214936 
L 428.147557 24.930884 
L 429.047375 24.119309 
L 429.947194 24.241046 
L 431.746831 23.551207 
L 432.646649 23.632364 
L 433.546468 23.023683 
L 434.446287 23.104841 
L 435.346105 23.875837 
L 436.245924 21.035325 
L 437.145742 21.481691 
L 438.045561 20.791852 
L 440.745017 21.481691 
L 441.644835 21.968636 
L 442.544654 21.603427 
L 443.444473 21.684585 
L 444.344291 21.278797 
L 445.24411 21.319376 
L 446.143928 21.8469 
L 447.043747 22.901947 
L 447.943565 22.942526 
L 448.843384 23.267156 
L 449.743203 23.104841 
L 452.442658 22.739632 
L 453.342477 23.429471 
L 454.242296 23.064262 
L 455.142114 23.510628 
L 456.041933 22.942526 
L 456.941751 22.780211 
L 457.84157 23.064262 
L 458.741388 23.632364 
L 459.641207 22.536738 
L 460.541026 22.49616 
L 461.440844 21.644006 
L 462.340663 21.116482 
L 463.240481 20.994746 
L 464.1403 19.331017 
L 465.939937 19.493332 
L 466.839756 19.046966 
L 467.739574 18.884651 
L 468.639393 19.89912 
L 469.539211 18.844072 
L 470.43903 18.722336 
L 471.338849 17.991918 
L 472.238667 18.519442 
L 473.138486 16.815135 
L 474.038304 17.667288 
L 474.938123 17.30208 
L 475.837942 15.313721 
L 476.73776 15.435457 
L 478.537397 14.989091 
L 479.437216 15.232563 
L 479.437216 15.232563 
" clip-path="url(#pcb6ffd7041)" style="fill: none; stroke: #1f77b4; stroke-width: 1.5; stroke-linecap: square"/>
   </g>
   <g id="line2d_28">
    <path d="M 73.619034 131.855889 
L 74.518853 132.180519 
L 76.31849 131.937046 
L 77.218308 131.328365 
L 78.118127 131.247207 
L 79.017946 130.922577 
L 79.917764 130.719684 
L 80.817583 131.125471 
L 83.517039 130.435632 
L 84.416857 130.557369 
L 85.316676 130.151581 
L 86.216494 130.19216 
L 87.116313 129.826951 
L 94.314862 129.826951 
L 95.21468 130.070424 
L 96.114499 129.948687 
L 97.014317 129.502321 
L 97.914136 129.21827 
L 98.813954 129.624057 
L 99.713773 129.502321 
L 100.613592 129.21827 
L 101.51341 129.177691 
L 102.413229 129.380585 
L 104.212866 128.89364 
L 105.112685 129.137112 
L 106.912322 129.096534 
L 107.81214 129.380585 
L 108.711959 129.137112 
L 109.611777 128.690746 
L 112.311233 128.934219 
L 113.211052 128.731325 
L 114.11087 128.650167 
L 115.910508 128.812482 
L 116.810326 128.366116 
L 117.710145 128.731325 
L 118.609963 128.366116 
L 119.509782 128.406695 
L 120.409601 128.56901 
L 121.309419 128.284959 
L 123.109056 128.000907 
L 124.908693 128.528431 
L 125.808512 128.000907 
L 126.708331 127.798014 
L 127.608149 128.163222 
L 128.507968 127.798014 
L 129.407786 127.716856 
L 130.307605 127.757435 
L 131.207424 127.067596 
L 132.107242 127.513962 
L 133.007061 127.027017 
L 135.706516 127.067596 
L 138.405972 126.540072 
L 140.205609 126.702387 
L 142.905065 126.864702 
L 151.003432 125.687919 
L 151.903251 125.931391 
L 153.702888 125.809655 
L 154.602707 125.525604 
L 155.502525 125.525604 
L 157.302162 126.012549 
L 158.201981 125.64734 
L 159.1018 126.174864 
L 160.001618 125.64734 
L 160.901437 125.32271 
L 161.801255 125.525604 
L 163.600893 125.485025 
L 164.500711 125.403867 
L 165.40053 125.566182 
L 166.300348 125.160395 
L 168.999804 125.079237 
L 169.899623 125.64734 
L 171.69926 125.485025 
L 172.599078 124.876344 
L 173.498897 125.119816 
L 174.398716 124.99808 
L 175.298534 125.64734 
L 176.198353 125.160395 
L 177.098171 125.444446 
L 177.99799 124.835765 
L 178.897809 124.551714 
L 179.797627 124.511135 
L 180.697446 124.308241 
L 181.597264 123.821296 
L 182.497083 124.714029 
L 183.396901 124.511135 
L 185.196539 123.902454 
L 186.096357 124.064769 
L 187.895994 123.618403 
L 188.795813 123.740139 
L 200.493455 123.334351 
L 201.393273 122.847406 
L 202.293092 123.0503 
L 203.19291 122.603934 
L 204.092729 122.644513 
L 204.992547 122.522776 
L 206.792185 123.009721 
L 207.692003 122.766249 
L 208.591822 122.847406 
L 209.49164 122.72567 
L 211.291278 122.157568 
L 212.191096 122.238725 
L 214.890552 122.238725 
L 215.790371 122.482198 
L 216.690189 121.914095 
L 217.590008 121.670623 
L 218.489826 121.630044 
L 219.389645 121.75178 
L 220.289463 122.035831 
L 221.189282 121.832938 
L 222.089101 121.914095 
L 224.788556 121.143099 
L 225.688375 121.386571 
L 226.588194 121.467729 
L 227.488012 121.224256 
L 228.387831 120.859048 
L 229.287649 120.737311 
L 232.886924 120.940205 
L 233.786742 120.737311 
L 234.686561 120.290945 
L 235.586379 120.169209 
L 236.486198 119.844579 
L 237.386017 119.885158 
L 238.285835 119.682264 
L 239.185654 119.682264 
L 240.985291 119.195319 
L 241.885109 119.276476 
L 242.784928 119.073583 
L 243.684747 119.114161 
L 244.584565 119.438791 
L 245.484384 119.276476 
L 246.384202 118.992425 
L 247.284021 119.195319 
L 248.18384 119.114161 
L 249.083658 119.276476 
L 249.983477 119.033004 
L 250.883295 118.951846 
L 251.783114 119.357634 
L 252.682932 119.15474 
L 253.582751 119.398213 
L 254.48257 119.073583 
L 255.382388 119.15474 
L 257.182025 118.911268 
L 258.081844 118.464901 
L 258.981663 118.627216 
L 259.881481 118.951846 
L 260.7813 118.748953 
L 262.580937 118.059114 
L 263.480756 118.262008 
L 264.380574 118.627216 
L 265.280393 118.667795 
L 266.180211 118.343165 
L 267.08003 117.85622 
L 267.979848 117.937378 
L 268.879667 117.653326 
L 270.679304 117.734484 
L 271.579123 117.20696 
L 273.37876 117.369275 
L 274.278579 116.963488 
L 275.178397 117.044645 
L 276.978034 116.598279 
L 277.877853 116.5577 
L 279.67749 115.90844 
L 282.376946 115.949019 
L 284.176583 116.23307 
L 287.775857 115.58381 
L 288.675676 115.664968 
L 313.870596 111.728829 
L 314.770415 112.459246 
L 315.670233 112.053459 
L 316.570052 111.809987 
L 317.469871 111.850565 
L 318.369689 111.120148 
L 319.269508 111.160727 
L 320.169326 111.079569 
L 321.069145 111.36362 
L 321.968964 110.957833 
L 322.868782 110.71436 
L 323.768601 110.836097 
L 325.568238 110.349152 
L 326.468056 110.430309 
L 327.367875 110.633203 
L 328.267694 110.470888 
L 330.067331 110.349152 
L 346.264065 110.754939 
L 347.163884 110.470888 
L 349.86334 109.862207 
L 350.763158 110.267994 
L 351.662977 110.308573 
L 352.562795 110.146258 
L 353.462614 110.186837 
L 354.362433 109.902785 
L 355.262251 109.456419 
L 356.16207 109.496998 
L 357.061888 108.888317 
L 357.961707 109.010053 
L 358.861526 109.496998 
L 359.761344 109.253525 
L 360.661163 108.482529 
L 361.560981 108.239057 
L 362.4608 108.157899 
L 365.160256 107.549218 
L 366.060074 107.670954 
L 366.959893 107.062273 
L 367.859711 107.549218 
L 368.75953 106.981115 
L 370.559167 106.697064 
L 371.458986 106.778222 
L 372.358804 106.331855 
L 373.258623 106.088383 
L 375.05826 105.926068 
L 375.958079 105.398544 
L 376.857897 105.682595 
L 378.657534 105.236229 
L 379.557353 105.357965 
L 380.457172 105.682595 
L 381.35699 104.911599 
L 382.256809 104.302918 
L 384.056446 105.114493 
L 384.956264 104.627548 
L 385.856083 104.465233 
L 386.755902 104.424654 
L 387.65572 104.262339 
L 388.555539 103.937709 
L 389.455357 104.911599 
L 390.355176 104.668127 
L 391.254995 104.22176 
L 392.154813 104.140603 
L 393.95445 104.262339 
L 394.854269 103.653658 
L 395.754088 103.491343 
L 397.553725 103.856552 
L 398.453543 103.085555 
L 399.353362 102.92324 
L 401.152999 103.24787 
L 402.052818 102.720347 
L 402.952636 103.369607 
L 403.852455 103.24787 
L 404.752273 102.963819 
L 407.451729 102.27398 
L 408.351548 102.192823 
L 409.251366 102.476874 
L 410.151185 102.355138 
L 411.051003 101.381248 
L 411.950822 101.421827 
L 412.850641 101.178354 
L 413.750459 101.178354 
L 414.650278 101.340669 
L 415.550096 101.30009 
L 416.449915 100.366779 
L 417.349734 100.731988 
L 418.249552 100.3262 
L 419.149371 100.65083 
L 420.949008 99.636362 
L 422.748645 100.285622 
L 423.648464 99.636362 
L 424.548282 99.67694 
L 426.347919 99.920413 
L 427.247738 99.35231 
L 428.147557 99.67694 
L 429.047375 98.946523 
L 429.947194 98.540736 
L 431.746831 98.134948 
L 432.646649 98.256684 
L 433.546468 97.850897 
L 435.346105 98.053791 
L 436.245924 97.485688 
L 437.145742 97.648003 
L 438.045561 97.323373 
L 441.644835 98.053791 
L 442.544654 97.242216 
L 443.444473 97.729161 
L 444.344291 97.526267 
L 446.143928 97.445109 
L 447.043747 98.175527 
L 452.442658 96.998743 
L 453.342477 97.363952 
L 454.242296 97.161058 
L 455.142114 97.323373 
L 456.041933 96.917586 
L 457.84157 96.877007 
L 458.741388 97.323373 
L 459.641207 96.877007 
L 460.541026 96.958164 
L 461.440844 97.201637 
L 462.340663 96.511798 
L 463.240481 96.755271 
L 464.1403 96.511798 
L 465.040119 96.836428 
L 466.839756 96.390062 
L 467.739574 96.390062 
L 468.639393 97.039322 
L 469.539211 96.024853 
L 470.43903 95.862538 
L 471.338849 95.578487 
L 472.238667 95.862538 
L 473.138486 95.294436 
L 474.038304 95.497329 
L 475.837942 94.604597 
L 476.73776 94.766912 
L 478.537397 94.442282 
L 479.437216 94.807491 
L 479.437216 94.807491 
" clip-path="url(#pcb6ffd7041)" style="fill: none; stroke: #ff7f0e; stroke-width: 1.5; stroke-linecap: square"/>
   </g>
   <g id="line2d_29">
    <path d="M 73.619034 160.342171 
L 74.518853 160.585643 
L 75.418671 160.179856 
L 76.31849 160.220434 
L 77.218308 159.855226 
L 78.118127 160.058119 
L 79.017946 160.058119 
L 79.917764 159.327702 
L 80.817583 159.530596 
L 81.717401 159.368281 
L 82.61722 159.530596 
L 83.517039 159.084229 
L 84.416857 159.733489 
L 85.316676 159.287123 
L 86.216494 159.408859 
L 87.116313 159.084229 
L 89.815769 158.313233 
L 90.715587 158.272654 
L 91.615406 159.003072 
L 92.515224 159.003072 
L 93.415043 158.840757 
L 94.314862 158.962493 
L 95.21468 158.962493 
L 96.114499 158.353812 
L 97.914136 157.582816 
L 98.813954 157.339343 
L 99.713773 157.623394 
L 100.613592 157.542237 
L 101.51341 156.771241 
L 102.413229 157.298764 
L 103.313047 157.258186 
L 104.212866 157.542237 
L 105.112685 157.014713 
L 106.012503 156.811819 
L 106.912322 157.014713 
L 107.81214 157.623394 
L 109.611777 157.055292 
L 110.511596 157.095871 
L 112.311233 157.663973 
L 113.211052 157.177028 
L 114.11087 156.892977 
L 115.010689 157.542237 
L 115.910508 157.177028 
L 117.710145 157.420501 
L 118.609963 157.055292 
L 119.509782 157.217607 
L 120.409601 157.055292 
L 121.309419 157.379922 
L 123.109056 157.258186 
L 124.908693 157.582816 
L 125.808512 157.420501 
L 127.608149 158.313233 
L 128.507968 158.272654 
L 129.407786 158.029182 
L 130.307605 158.353812 
L 131.207424 158.434969 
L 132.107242 158.029182 
L 133.007061 158.150918 
L 135.706516 158.637863 
L 139.305791 158.150918 
L 140.205609 158.516127 
L 141.105428 158.475548 
L 142.005247 158.556706 
L 142.905065 158.881336 
L 151.903251 159.084229 
L 153.702888 159.652332 
L 154.602707 159.246544 
L 155.502525 159.571174 
L 156.402344 159.368281 
L 157.302162 159.733489 
L 158.201981 159.936383 
L 160.001618 160.707379 
L 160.901437 160.342171 
L 162.701074 161.032009 
L 163.600893 160.707379 
L 164.500711 160.707379 
L 165.40053 160.829116 
L 166.300348 161.397218 
L 167.200167 161.194324 
L 168.999804 161.275482 
L 169.899623 161.316061 
L 170.799441 160.910273 
L 172.599078 161.194324 
L 173.498897 161.194324 
L 174.398716 160.950852 
L 175.298534 160.950852 
L 176.198353 160.707379 
L 177.99799 160.585643 
L 178.897809 160.139277 
L 179.797627 159.936383 
L 180.697446 160.423328 
L 181.597264 160.382749 
L 182.497083 160.179856 
L 183.396901 160.220434 
L 185.196539 160.179856 
L 186.096357 159.936383 
L 186.996176 159.490017 
L 187.895994 159.611753 
L 188.795813 159.449438 
L 200.493455 158.353812 
L 201.393273 158.597284 
L 202.293092 158.475548 
L 203.19291 158.556706 
L 204.092729 159.043651 
L 206.792185 159.246544 
L 208.591822 159.165387 
L 209.49164 158.840757 
L 210.391459 159.043651 
L 212.191096 158.719021 
L 214.890552 158.759599 
L 216.690189 159.895804 
L 217.590008 159.327702 
L 218.489826 159.976962 
L 220.289463 159.368281 
L 221.189282 158.881336 
L 222.089101 159.165387 
L 224.788556 159.774068 
L 226.588194 159.814647 
L 227.488012 159.733489 
L 228.387831 159.976962 
L 232.886924 159.976962 
L 233.786742 160.139277 
L 234.686561 160.423328 
L 235.586379 160.342171 
L 236.486198 160.707379 
L 237.386017 160.626222 
L 238.285835 160.747958 
L 239.185654 160.504486 
L 240.985291 160.869694 
L 241.885109 161.113167 
L 242.784928 160.950852 
L 243.684747 161.356639 
L 244.584565 161.397218 
L 245.484384 160.910273 
L 246.384202 161.113167 
L 248.18384 161.194324 
L 249.083658 161.234903 
L 249.983477 161.072588 
L 251.783114 161.113167 
L 252.682932 160.950852 
L 253.582751 160.950852 
L 254.48257 161.072588 
L 255.382388 161.316061 
L 256.282207 161.234903 
L 257.182025 161.275482 
L 258.081844 161.113167 
L 258.981663 161.437797 
L 259.881481 161.194324 
L 260.7813 161.316061 
L 261.681118 161.113167 
L 262.580937 161.356639 
L 263.480756 161.478376 
L 264.380574 161.478376 
L 265.280393 162.208793 
L 266.180211 162.127636 
L 267.08003 162.452266 
L 267.979848 162.208793 
L 268.879667 162.289951 
L 269.779486 162.533423 
L 270.679304 162.289951 
L 272.478941 162.046478 
L 273.37876 162.208793 
L 274.278579 162.208793 
L 275.178397 162.087057 
L 276.978034 162.533423 
L 277.877853 162.289951 
L 279.67749 162.817474 
L 282.376946 163.101525 
L 284.176583 162.655159 
L 288.675676 163.710207 
L 313.870596 163.304419 
L 314.770415 163.060947 
L 315.670233 163.344998 
L 316.570052 163.182683 
L 317.469871 163.629049 
L 318.369689 163.58847 
L 319.269508 163.994258 
L 320.169326 163.629049 
L 321.968964 163.831943 
L 323.768601 163.466734 
L 325.568238 163.791364 
L 326.468056 163.426155 
L 327.367875 163.953679 
L 328.267694 163.710207 
L 329.167512 164.075415 
L 330.067331 163.872522 
L 346.264065 163.9131 
L 347.163884 163.750785 
L 348.963521 163.547892 
L 350.763158 163.629049 
L 351.662977 163.629049 
L 352.562795 163.750785 
L 353.462614 163.507313 
L 354.362433 163.142104 
L 355.262251 163.629049 
L 356.16207 163.629049 
L 357.061888 163.304419 
L 357.961707 163.507313 
L 358.861526 163.547892 
L 359.761344 163.9131 
L 361.560981 163.466734 
L 362.4608 163.669628 
L 365.160256 163.58847 
L 366.959893 163.994258 
L 368.75953 164.075415 
L 369.659349 163.58847 
L 371.458986 163.791364 
L 372.358804 163.426155 
L 374.158441 163.750785 
L 375.05826 163.58847 
L 377.757716 163.385577 
L 378.657534 163.182683 
L 379.557353 163.26384 
L 380.457172 162.858053 
L 381.35699 163.101525 
L 382.256809 163.142104 
L 383.156627 162.898632 
L 384.056446 163.101525 
L 384.956264 162.776895 
L 388.555539 162.411687 
L 389.455357 162.858053 
L 390.355176 163.020368 
L 392.154813 163.060947 
L 393.054632 162.858053 
L 393.95445 162.858053 
L 394.854269 162.736317 
L 395.754088 163.344998 
L 396.653906 163.101525 
L 399.353362 163.507313 
L 400.25318 163.223262 
L 401.152999 163.304419 
L 402.052818 163.101525 
L 402.952636 163.385577 
L 403.852455 163.060947 
L 404.752273 163.547892 
L 407.451729 164.075415 
L 408.351548 163.547892 
L 409.251366 163.223262 
L 410.151185 163.629049 
L 411.051003 163.344998 
L 412.850641 163.669628 
L 413.750459 163.629049 
L 414.650278 163.26384 
L 415.550096 163.58847 
L 417.349734 163.426155 
L 418.249552 163.223262 
L 419.149371 163.142104 
L 420.049189 163.26384 
L 420.949008 162.898632 
L 421.848826 163.020368 
L 422.748645 162.614581 
L 423.648464 162.411687 
L 424.548282 162.533423 
L 426.347919 162.93921 
L 427.247738 163.9131 
L 429.947194 163.507313 
L 430.847012 163.710207 
L 431.746831 163.750785 
L 432.646649 164.23773 
L 434.446287 164.278309 
L 435.346105 164.23773 
L 436.245924 164.684097 
L 438.045561 164.805833 
L 440.745017 163.872522 
L 442.544654 164.115994 
L 443.444473 164.643518 
L 444.344291 164.400045 
L 445.24411 163.9131 
L 446.143928 164.115994 
L 447.943565 164.034837 
L 448.843384 164.115994 
L 449.743203 163.629049 
L 452.442658 163.669628 
L 454.242296 164.075415 
L 455.142114 164.602939 
L 456.041933 164.440624 
L 457.84157 164.56236 
L 458.741388 164.156573 
L 459.641207 164.400045 
L 460.541026 164.278309 
L 462.340663 164.602939 
L 463.240481 164.400045 
L 464.1403 164.521782 
L 465.040119 164.359467 
L 465.939937 164.359467 
L 466.839756 164.197152 
L 467.739574 164.724675 
L 468.639393 164.400045 
L 469.539211 164.765254 
L 470.43903 164.765254 
L 471.338849 164.359467 
L 472.238667 164.846412 
L 474.038304 164.197152 
L 474.938123 164.115994 
L 475.837942 156.730662 
L 476.73776 164.643518 
L 477.637579 164.440624 
L 478.537397 164.440624 
L 479.437216 164.318888 
L 479.437216 164.318888 
" clip-path="url(#pcb6ffd7041)" style="fill: none; stroke: #2ca02c; stroke-width: 1.5; stroke-linecap: square"/>
   </g>
   <g id="line2d_30">
    <path d="M 73.619034 170.486858 
L 75.418671 170.08107 
L 76.31849 170.446279 
L 77.218308 170.162228 
L 79.017946 170.365122 
L 79.917764 170.162228 
L 80.817583 170.324543 
L 82.61722 170.283964 
L 83.517039 170.121649 
L 84.416857 170.4057 
L 86.216494 170.486858 
L 87.116313 170.202807 
L 89.815769 170.324543 
L 90.715587 170.08107 
L 91.615406 170.365122 
L 92.515224 170.4057 
L 93.415043 170.324543 
L 94.314862 170.4057 
L 95.21468 170.608594 
L 96.114499 170.121649 
L 97.014317 170.243385 
L 98.813954 170.08107 
L 100.613592 170.08107 
L 101.51341 169.715862 
L 102.413229 169.999913 
L 103.313047 169.959334 
L 104.212866 170.243385 
L 105.112685 169.878177 
L 106.912322 169.837598 
L 107.81214 170.324543 
L 108.711959 170.08107 
L 110.511596 169.918755 
L 112.311233 170.283964 
L 113.211052 169.999913 
L 114.11087 170.040492 
L 115.010689 170.446279 
L 115.910508 170.121649 
L 117.710145 170.202807 
L 120.409601 170.121649 
L 121.309419 170.283964 
L 123.109056 170.121649 
L 126.708331 170.08107 
L 128.507968 170.4057 
L 129.407786 170.121649 
L 130.307605 170.4057 
L 132.107242 169.959334 
L 135.706516 170.283964 
L 138.405972 169.797019 
L 139.305791 169.75644 
L 140.205609 169.999913 
L 141.105428 169.959334 
L 142.005247 169.797019 
L 142.905065 169.878177 
L 151.903251 169.918755 
L 153.702888 170.202807 
L 154.602707 169.918755 
L 155.502525 170.202807 
L 156.402344 169.75644 
L 157.302162 170.121649 
L 159.1018 170.08107 
L 160.001618 170.324543 
L 160.901437 170.243385 
L 162.701074 170.283964 
L 164.500711 170.121649 
L 165.40053 170.162228 
L 166.300348 170.568015 
L 167.200167 170.283964 
L 168.099986 170.446279 
L 168.999804 170.324543 
L 169.899623 170.324543 
L 170.799441 170.202807 
L 171.69926 170.527437 
L 172.599078 170.202807 
L 173.498897 170.365122 
L 174.398716 170.121649 
L 175.298534 170.324543 
L 176.198353 170.283964 
L 177.098171 170.446279 
L 177.99799 170.770909 
L 178.897809 170.689752 
L 179.797627 170.486858 
L 180.697446 170.568015 
L 181.597264 170.770909 
L 182.497083 170.608594 
L 186.096357 170.73033 
L 186.996176 170.4057 
L 187.895994 170.527437 
L 188.795813 170.527437 
L 200.493455 170.162228 
L 202.293092 170.324543 
L 203.19291 170.243385 
L 204.092729 170.283964 
L 204.992547 170.121649 
L 206.792185 170.162228 
L 207.692003 170.283964 
L 208.591822 170.283964 
L 209.49164 170.040492 
L 210.391459 170.121649 
L 211.291278 169.918755 
L 212.191096 170.162228 
L 214.890552 170.040492 
L 215.790371 170.324543 
L 216.690189 170.73033 
L 217.590008 170.162228 
L 218.489826 170.73033 
L 219.389645 170.446279 
L 220.289463 170.283964 
L 221.189282 169.918755 
L 225.688375 169.959334 
L 226.588194 170.040492 
L 232.886924 169.715862 
L 234.686561 170.08107 
L 235.586379 169.837598 
L 236.486198 169.999913 
L 237.386017 169.837598 
L 238.285835 170.162228 
L 239.185654 169.594125 
L 240.085472 169.75644 
L 242.784928 169.837598 
L 243.684747 170.08107 
L 244.584565 170.08107 
L 245.484384 169.634704 
L 249.083658 169.918755 
L 250.883295 169.715862 
L 251.783114 169.797019 
L 252.682932 169.553547 
L 255.382388 169.75644 
L 256.282207 169.43181 
L 257.182025 169.553547 
L 258.081844 169.350653 
L 258.981663 169.675283 
L 262.580937 169.43181 
L 263.480756 169.512968 
L 264.380574 169.391232 
L 265.280393 169.918755 
L 266.180211 169.634704 
L 267.08003 169.918755 
L 267.979848 169.553547 
L 268.879667 169.553547 
L 269.779486 169.878177 
L 270.679304 169.512968 
L 271.579123 169.634704 
L 272.478941 169.43181 
L 273.37876 169.512968 
L 276.078216 169.310074 
L 276.978034 169.715862 
L 277.877853 169.391232 
L 279.67749 169.472389 
L 282.376946 169.472389 
L 284.176583 169.147759 
L 288.675676 169.75644 
L 313.870596 167.402873 
L 314.770415 166.956507 
L 315.670233 167.402873 
L 316.570052 167.118822 
L 317.469871 167.646345 
L 318.369689 167.402873 
L 319.269508 167.930397 
L 320.169326 167.524609 
L 321.968964 167.768082 
L 323.768601 167.402873 
L 325.568238 167.565188 
L 326.468056 167.240558 
L 327.367875 167.686924 
L 328.267694 167.443452 
L 329.167512 167.849239 
L 330.067331 167.646345 
L 347.163884 167.524609 
L 348.963521 167.1594 
L 352.562795 167.402873 
L 353.462614 167.199979 
L 354.362433 166.83477 
L 355.262251 167.362294 
L 358.861526 167.362294 
L 359.761344 167.524609 
L 362.4608 167.281137 
L 368.75953 167.646345 
L 369.659349 167.1594 
L 370.559167 167.240558 
L 371.458986 167.565188 
L 372.358804 167.118822 
L 373.258623 167.199979 
L 374.158441 167.48403 
L 376.857897 167.199979 
L 377.757716 167.037664 
L 378.657534 167.118822 
L 379.557353 167.362294 
L 380.457172 166.997085 
L 382.256809 167.240558 
L 383.156627 166.956507 
L 384.056446 167.1594 
L 384.956264 166.753613 
L 385.856083 166.753613 
L 386.755902 166.469562 
L 387.65572 166.672455 
L 388.555539 166.51014 
L 389.455357 166.875349 
L 391.254995 166.915928 
L 392.154813 166.753613 
L 393.054632 166.713034 
L 394.854269 166.794192 
L 395.754088 167.281137 
L 396.653906 167.078243 
L 397.553725 167.118822 
L 398.453543 167.281137 
L 399.353362 167.037664 
L 400.25318 167.118822 
L 401.152999 166.956507 
L 402.052818 166.997085 
L 402.952636 167.281137 
L 403.852455 166.915928 
L 404.752273 167.402873 
L 407.451729 167.80866 
L 408.351548 167.1594 
L 409.251366 167.037664 
L 410.151185 167.48403 
L 411.950822 167.1594 
L 412.850641 167.281137 
L 414.650278 167.1594 
L 415.550096 167.605767 
L 416.449915 167.524609 
L 418.249552 167.118822 
L 419.149371 167.037664 
L 420.049189 167.1594 
L 420.949008 166.997085 
L 421.848826 167.078243 
L 422.748645 166.956507 
L 423.648464 166.550719 
L 426.347919 166.915928 
L 427.247738 167.321715 
L 429.047375 167.037664 
L 430.847012 166.875349 
L 431.746831 167.078243 
L 432.646649 167.443452 
L 433.546468 167.565188 
L 434.446287 167.443452 
L 437.145742 167.646345 
L 440.745017 166.956507 
L 442.544654 167.199979 
L 443.444473 167.80866 
L 444.344291 167.565188 
L 445.24411 167.037664 
L 446.143928 167.1594 
L 447.043747 167.118822 
L 447.943565 167.240558 
L 448.843384 167.078243 
L 449.743203 166.631877 
L 452.442658 166.672455 
L 454.242296 167.078243 
L 455.142114 167.443452 
L 456.041933 167.240558 
L 456.941751 167.524609 
L 457.84157 167.605767 
L 458.741388 167.199979 
L 459.641207 167.402873 
L 460.541026 167.199979 
L 461.440844 167.524609 
L 462.340663 167.727503 
L 463.240481 167.48403 
L 464.1403 167.402873 
L 465.040119 167.443452 
L 465.939937 167.362294 
L 466.839756 167.078243 
L 467.739574 167.48403 
L 468.639393 167.1594 
L 469.539211 167.524609 
L 470.43903 167.402873 
L 471.338849 167.037664 
L 472.238667 167.565188 
L 474.038304 166.915928 
L 474.938123 166.83477 
L 475.837942 159.530596 
L 476.73776 167.524609 
L 477.637579 167.362294 
L 478.537397 167.402873 
L 479.437216 167.281137 
L 479.437216 167.281137 
" clip-path="url(#pcb6ffd7041)" style="fill: none; stroke: #d62728; stroke-width: 1.5; stroke-linecap: square"/>
   </g>
   <g id="patch_3">
    <path d="M 53.328125 178.56 
L 53.328125 7.2 
" style="fill: none; stroke: #000000; stroke-width: 0.8; stroke-linejoin: miter; stroke-linecap: square"/>
   </g>
   <g id="patch_4">
    <path d="M 499.728125 178.56 
L 499.728125 7.2 
" style="fill: none; stroke: #000000; stroke-width: 0.8; stroke-linejoin: miter; stroke-linecap: square"/>
   </g>
   <g id="patch_5">
    <path d="M 53.328125 178.56 
L 499.728125 178.56 
" style="fill: none; stroke: #000000; stroke-width: 0.8; stroke-linejoin: miter; stroke-linecap: square"/>
   </g>
   <g id="patch_6">
    <path d="M 53.328125 7.2 
L 499.728125 7.2 
" style="fill: none; stroke: #000000; stroke-width: 0.8; stroke-linejoin: miter; stroke-linecap: square"/>
   </g>
   <g id="legend_1">
    <g id="patch_7">
     <path d="M 59.628125 67.24125 
L 202.444062 67.24125 
Q 204.244062 67.24125 204.244062 65.44125 
L 204.244062 13.5 
Q 204.244062 11.7 202.444062 11.7 
L 59.628125 11.7 
Q 57.828125 11.7 57.828125 13.5 
L 57.828125 65.44125 
Q 57.828125 67.24125 59.628125 67.24125 
z
" style="fill: #ffffff; opacity: 0.8; stroke: #cccccc; stroke-linejoin: miter"/>
    </g>
    <g id="line2d_31">
     <path d="M 61.428125 18.988594 
L 70.428125 18.988594 
L 79.428125 18.988594 
" style="fill: none; stroke: #1f77b4; stroke-width: 1.5; stroke-linecap: square"/>
    </g>
    <g id="text_23">
     <!-- Unique Domains (Valid) -->
     <g transform="translate(86.628125 22.138594)scale(0.09 -0.09)">
      <defs>
       <path id="DejaVuSans-55" d="M 556 4666 
L 1191 4666 
L 1191 1831 
Q 1191 1081 1462 751 
Q 1734 422 2344 422 
Q 2950 422 3222 751 
Q 3494 1081 3494 1831 
L 3494 4666 
L 4128 4666 
L 4128 1753 
Q 4128 841 3676 375 
Q 3225 -91 2344 -91 
Q 1459 -91 1007 375 
Q 556 841 556 1753 
L 556 4666 
z
" transform="scale(0.015625)"/>
       <path id="DejaVuSans-71" d="M 947 1747 
Q 947 1113 1208 752 
Q 1469 391 1925 391 
Q 2381 391 2643 752 
Q 2906 1113 2906 1747 
Q 2906 2381 2643 2742 
Q 2381 3103 1925 3103 
Q 1469 3103 1208 2742 
Q 947 2381 947 1747 
z
M 2906 525 
Q 2725 213 2448 61 
Q 2172 -91 1784 -91 
Q 1150 -91 751 415 
Q 353 922 353 1747 
Q 353 2572 751 3078 
Q 1150 3584 1784 3584 
Q 2172 3584 2448 3432 
Q 2725 3281 2906 2969 
L 2906 3500 
L 3481 3500 
L 3481 -1331 
L 2906 -1331 
L 2906 525 
z
" transform="scale(0.015625)"/>
       <path id="DejaVuSans-28" d="M 1984 4856 
Q 1566 4138 1362 3434 
Q 1159 2731 1159 2009 
Q 1159 1288 1364 580 
Q 1569 -128 1984 -844 
L 1484 -844 
Q 1016 -109 783 600 
Q 550 1309 550 2009 
Q 550 2706 781 3412 
Q 1013 4119 1484 4856 
L 1984 4856 
z
" transform="scale(0.015625)"/>
       <path id="DejaVuSans-56" d="M 1831 0 
L 50 4666 
L 709 4666 
L 2188 738 
L 3669 4666 
L 4325 4666 
L 2547 0 
L 1831 0 
z
" transform="scale(0.015625)"/>
       <path id="DejaVuSans-64" d="M 2906 2969 
L 2906 4863 
L 3481 4863 
L 3481 0 
L 2906 0 
L 2906 525 
Q 2725 213 2448 61 
Q 2172 -91 1784 -91 
Q 1150 -91 751 415 
Q 353 922 353 1747 
Q 353 2572 751 3078 
Q 1150 3584 1784 3584 
Q 2172 3584 2448 3432 
Q 2725 3281 2906 2969 
z
M 947 1747 
Q 947 1113 1208 752 
Q 1469 391 1925 391 
Q 2381 391 2643 752 
Q 2906 1113 2906 1747 
Q 2906 2381 2643 2742 
Q 2381 3103 1925 3103 
Q 1469 3103 1208 2742 
Q 947 2381 947 1747 
z
" transform="scale(0.015625)"/>
       <path id="DejaVuSans-29" d="M 513 4856 
L 1013 4856 
Q 1481 4119 1714 3412 
Q 1947 2706 1947 2009 
Q 1947 1309 1714 600 
Q 1481 -109 1013 -844 
L 513 -844 
Q 928 -128 1133 580 
Q 1338 1288 1338 2009 
Q 1338 2731 1133 3434 
Q 928 4138 513 4856 
z
" transform="scale(0.015625)"/>
      </defs>
      <use xlink:href="#DejaVuSans-55"/>
      <use xlink:href="#DejaVuSans-6e" x="73.193359"/>
      <use xlink:href="#DejaVuSans-69" x="136.572266"/>
      <use xlink:href="#DejaVuSans-71" x="164.355469"/>
      <use xlink:href="#DejaVuSans-75" x="227.832031"/>
      <use xlink:href="#DejaVuSans-65" x="291.210938"/>
      <use xlink:href="#DejaVuSans-20" x="352.734375"/>
      <use xlink:href="#DejaVuSans-44" x="384.521484"/>
      <use xlink:href="#DejaVuSans-6f" x="461.523438"/>
      <use xlink:href="#DejaVuSans-6d" x="522.705078"/>
      <use xlink:href="#DejaVuSans-61" x="620.117188"/>
      <use xlink:href="#DejaVuSans-69" x="681.396484"/>
      <use xlink:href="#DejaVuSans-6e" x="709.179688"/>
      <use xlink:href="#DejaVuSans-73" x="772.558594"/>
      <use xlink:href="#DejaVuSans-20" x="824.658203"/>
      <use xlink:href="#DejaVuSans-28" x="856.445312"/>
      <use xlink:href="#DejaVuSans-56" x="895.458984"/>
      <use xlink:href="#DejaVuSans-61" x="956.117188"/>
      <use xlink:href="#DejaVuSans-6c" x="1017.396484"/>
      <use xlink:href="#DejaVuSans-69" x="1045.179688"/>
      <use xlink:href="#DejaVuSans-64" x="1072.962891"/>
      <use xlink:href="#DejaVuSans-29" x="1136.439453"/>
     </g>
    </g>
    <g id="line2d_32">
     <path d="M 61.428125 32.198906 
L 70.428125 32.198906 
L 79.428125 32.198906 
" style="fill: none; stroke: #ff7f0e; stroke-width: 1.5; stroke-linecap: square"/>
    </g>
    <g id="text_24">
     <!-- Unique Files (Valid) -->
     <g transform="translate(86.628125 35.348906)scale(0.09 -0.09)">
      <use xlink:href="#DejaVuSans-55"/>
      <use xlink:href="#DejaVuSans-6e" x="73.193359"/>
      <use xlink:href="#DejaVuSans-69" x="136.572266"/>
      <use xlink:href="#DejaVuSans-71" x="164.355469"/>
      <use xlink:href="#DejaVuSans-75" x="227.832031"/>
      <use xlink:href="#DejaVuSans-65" x="291.210938"/>
      <use xlink:href="#DejaVuSans-20" x="352.734375"/>
      <use xlink:href="#DejaVuSans-46" x="384.521484"/>
      <use xlink:href="#DejaVuSans-69" x="434.791016"/>
      <use xlink:href="#DejaVuSans-6c" x="462.574219"/>
      <use xlink:href="#DejaVuSans-65" x="490.357422"/>
      <use xlink:href="#DejaVuSans-73" x="551.880859"/>
      <use xlink:href="#DejaVuSans-20" x="603.980469"/>
      <use xlink:href="#DejaVuSans-28" x="635.767578"/>
      <use xlink:href="#DejaVuSans-56" x="674.78125"/>
      <use xlink:href="#DejaVuSans-61" x="735.439453"/>
      <use xlink:href="#DejaVuSans-6c" x="796.71875"/>
      <use xlink:href="#DejaVuSans-69" x="824.501953"/>
      <use xlink:href="#DejaVuSans-64" x="852.285156"/>
      <use xlink:href="#DejaVuSans-29" x="915.761719"/>
     </g>
    </g>
    <g id="line2d_33">
     <path d="M 61.428125 45.409219 
L 70.428125 45.409219 
L 79.428125 45.409219 
" style="fill: none; stroke: #2ca02c; stroke-width: 1.5; stroke-linecap: square"/>
    </g>
    <g id="text_25">
     <!-- Unique Domains (Invalid) -->
     <g transform="translate(86.628125 48.559219)scale(0.09 -0.09)">
      <defs>
       <path id="DejaVuSans-49" d="M 628 4666 
L 1259 4666 
L 1259 0 
L 628 0 
L 628 4666 
z
" transform="scale(0.015625)"/>
      </defs>
      <use xlink:href="#DejaVuSans-55"/>
      <use xlink:href="#DejaVuSans-6e" x="73.193359"/>
      <use xlink:href="#DejaVuSans-69" x="136.572266"/>
      <use xlink:href="#DejaVuSans-71" x="164.355469"/>
      <use xlink:href="#DejaVuSans-75" x="227.832031"/>
      <use xlink:href="#DejaVuSans-65" x="291.210938"/>
      <use xlink:href="#DejaVuSans-20" x="352.734375"/>
      <use xlink:href="#DejaVuSans-44" x="384.521484"/>
      <use xlink:href="#DejaVuSans-6f" x="461.523438"/>
      <use xlink:href="#DejaVuSans-6d" x="522.705078"/>
      <use xlink:href="#DejaVuSans-61" x="620.117188"/>
      <use xlink:href="#DejaVuSans-69" x="681.396484"/>
      <use xlink:href="#DejaVuSans-6e" x="709.179688"/>
      <use xlink:href="#DejaVuSans-73" x="772.558594"/>
      <use xlink:href="#DejaVuSans-20" x="824.658203"/>
      <use xlink:href="#DejaVuSans-28" x="856.445312"/>
      <use xlink:href="#DejaVuSans-49" x="895.458984"/>
      <use xlink:href="#DejaVuSans-6e" x="924.951172"/>
      <use xlink:href="#DejaVuSans-76" x="988.330078"/>
      <use xlink:href="#DejaVuSans-61" x="1047.509766"/>
      <use xlink:href="#DejaVuSans-6c" x="1108.789062"/>
      <use xlink:href="#DejaVuSans-69" x="1136.572266"/>
      <use xlink:href="#DejaVuSans-64" x="1164.355469"/>
      <use xlink:href="#DejaVuSans-29" x="1227.832031"/>
     </g>
    </g>
    <g id="line2d_34">
     <path d="M 61.428125 58.619531 
L 70.428125 58.619531 
L 79.428125 58.619531 
" style="fill: none; stroke: #d62728; stroke-width: 1.5; stroke-linecap: square"/>
    </g>
    <g id="text_26">
     <!-- Unique Files (Invalid) -->
     <g transform="translate(86.628125 61.769531)scale(0.09 -0.09)">
      <use xlink:href="#DejaVuSans-55"/>
      <use xlink:href="#DejaVuSans-6e" x="73.193359"/>
      <use xlink:href="#DejaVuSans-69" x="136.572266"/>
      <use xlink:href="#DejaVuSans-71" x="164.355469"/>
      <use xlink:href="#DejaVuSans-75" x="227.832031"/>
      <use xlink:href="#DejaVuSans-65" x="291.210938"/>
      <use xlink:href="#DejaVuSans-20" x="352.734375"/>
      <use xlink:href="#DejaVuSans-46" x="384.521484"/>
      <use xlink:href="#DejaVuSans-69" x="434.791016"/>
      <use xlink:href="#DejaVuSans-6c" x="462.574219"/>
      <use xlink:href="#DejaVuSans-65" x="490.357422"/>
      <use xlink:href="#DejaVuSans-73" x="551.880859"/>
      <use xlink:href="#DejaVuSans-20" x="603.980469"/>
      <use xlink:href="#DejaVuSans-28" x="635.767578"/>
      <use xlink:href="#DejaVuSans-49" x="674.78125"/>
      <use xlink:href="#DejaVuSans-6e" x="704.273438"/>
      <use xlink:href="#DejaVuSans-76" x="767.652344"/>
      <use xlink:href="#DejaVuSans-61" x="826.832031"/>
      <use xlink:href="#DejaVuSans-6c" x="888.111328"/>
      <use xlink:href="#DejaVuSans-69" x="915.894531"/>
      <use xlink:href="#DejaVuSans-64" x="943.677734"/>
      <use xlink:href="#DejaVuSans-29" x="1007.154297"/>
     </g>
    </g>
   </g>
  </g>
 </g>
 <defs>
  <clipPath id="pcb6ffd7041">
   <rect x="53.328125" y="7.2" width="446.4" height="171.36"/>
  </clipPath>
 </defs>
</svg>
