<?xml version="1.0" encoding="utf-8" standalone="no"?>
<!DOCTYPE svg PUBLIC "-//W3C//DTD SVG 1.1//EN"
  "http://www.w3.org/Graphics/SVG/1.1/DTD/svg11.dtd">
<svg xmlns:xlink="http://www.w3.org/1999/xlink" width="506.732901pt" height="254.060721pt" viewBox="0 0 506.732901 254.060721" xmlns="http://www.w3.org/2000/svg" version="1.1">
 <metadata>
  <rdf:RDF xmlns:dc="http://purl.org/dc/elements/1.1/" xmlns:cc="http://creativecommons.org/ns#" xmlns:rdf="http://www.w3.org/1999/02/22-rdf-syntax-ns#">
   <cc:Work>
    <dc:type rdf:resource="http://purl.org/dc/dcmitype/StillImage"/>
    <dc:date>2022-02-13T18:47:37.400815</dc:date>
    <dc:format>image/svg+xml</dc:format>
    <dc:creator>
     <cc:Agent>
      <dc:title>Matplotlib v3.5.1, https://matplotlib.org/</dc:title>
     </cc:Agent>
    </dc:creator>
   </cc:Work>
  </rdf:RDF>
 </metadata>
 <defs>
  <style type="text/css">*{stroke-linejoin: round; stroke-linecap: butt}</style>
 </defs>
 <g id="figure_1">
  <g id="patch_1">
   <path d="M 0 254.060721 
L 506.732901 254.060721 
L 506.732901 0 
L 0 0 
z
" style="fill: #ffffff"/>
  </g>
  <g id="axes_1">
   <g id="patch_2">
    <path d="M 53.132901 198.533906 
L 499.532901 198.533906 
L 499.532901 27.173906 
L 53.132901 27.173906 
z
" style="fill: #ffffff"/>
   </g>
   <g id="matplotlib.axis_1">
    <g id="xtick_1">
     <g id="line2d_1">
      <defs>
       <path id="m78fd531928" d="M 0 0 
L 0 3.5 
" style="stroke: #000000; stroke-width: 0.8"/>
      </defs>
      <g>
       <use xlink:href="#m78fd531928" x="68.024899" y="198.533906" style="stroke: #000000; stroke-width: 0.8"/>
      </g>
     </g>
     <g id="text_1">
      <!-- 2020-Nov-01 -->
      <g transform="translate(10.999219 244.437784)rotate(-30)scale(0.1 -0.1)">
       <defs>
        <path id="DejaVuSans-32" d="M 1228 531 
L 3431 531 
L 3431 0 
L 469 0 
L 469 531 
Q 828 903 1448 1529 
Q 2069 2156 2228 2338 
Q 2531 2678 2651 2914 
Q 2772 3150 2772 3378 
Q 2772 3750 2511 3984 
Q 2250 4219 1831 4219 
Q 1534 4219 1204 4116 
Q 875 4013 500 3803 
L 500 4441 
Q 881 4594 1212 4672 
Q 1544 4750 1819 4750 
Q 2544 4750 2975 4387 
Q 3406 4025 3406 3419 
Q 3406 3131 3298 2873 
Q 3191 2616 2906 2266 
Q 2828 2175 2409 1742 
Q 1991 1309 1228 531 
z
" transform="scale(0.015625)"/>
        <path id="DejaVuSans-30" d="M 2034 4250 
Q 1547 4250 1301 3770 
Q 1056 3291 1056 2328 
Q 1056 1369 1301 889 
Q 1547 409 2034 409 
Q 2525 409 2770 889 
Q 3016 1369 3016 2328 
Q 3016 3291 2770 3770 
Q 2525 4250 2034 4250 
z
M 2034 4750 
Q 2819 4750 3233 4129 
Q 3647 3509 3647 2328 
Q 3647 1150 3233 529 
Q 2819 -91 2034 -91 
Q 1250 -91 836 529 
Q 422 1150 422 2328 
Q 422 3509 836 4129 
Q 1250 4750 2034 4750 
z
" transform="scale(0.015625)"/>
        <path id="DejaVuSans-2d" d="M 313 2009 
L 1997 2009 
L 1997 1497 
L 313 1497 
L 313 2009 
z
" transform="scale(0.015625)"/>
        <path id="DejaVuSans-4e" d="M 628 4666 
L 1478 4666 
L 3547 763 
L 3547 4666 
L 4159 4666 
L 4159 0 
L 3309 0 
L 1241 3903 
L 1241 0 
L 628 0 
L 628 4666 
z
" transform="scale(0.015625)"/>
        <path id="DejaVuSans-6f" d="M 1959 3097 
Q 1497 3097 1228 2736 
Q 959 2375 959 1747 
Q 959 1119 1226 758 
Q 1494 397 1959 397 
Q 2419 397 2687 759 
Q 2956 1122 2956 1747 
Q 2956 2369 2687 2733 
Q 2419 3097 1959 3097 
z
M 1959 3584 
Q 2709 3584 3137 3096 
Q 3566 2609 3566 1747 
Q 3566 888 3137 398 
Q 2709 -91 1959 -91 
Q 1206 -91 779 398 
Q 353 888 353 1747 
Q 353 2609 779 3096 
Q 1206 3584 1959 3584 
z
" transform="scale(0.015625)"/>
        <path id="DejaVuSans-76" d="M 191 3500 
L 800 3500 
L 1894 563 
L 2988 3500 
L 3597 3500 
L 2284 0 
L 1503 0 
L 191 3500 
z
" transform="scale(0.015625)"/>
        <path id="DejaVuSans-31" d="M 794 531 
L 1825 531 
L 1825 4091 
L 703 3866 
L 703 4441 
L 1819 4666 
L 2450 4666 
L 2450 531 
L 3481 531 
L 3481 0 
L 794 0 
L 794 531 
z
" transform="scale(0.015625)"/>
       </defs>
       <use xlink:href="#DejaVuSans-32"/>
       <use xlink:href="#DejaVuSans-30" x="63.623047"/>
       <use xlink:href="#DejaVuSans-32" x="127.246094"/>
       <use xlink:href="#DejaVuSans-30" x="190.869141"/>
       <use xlink:href="#DejaVuSans-2d" x="254.492188"/>
       <use xlink:href="#DejaVuSans-4e" x="290.576172"/>
       <use xlink:href="#DejaVuSans-6f" x="365.380859"/>
       <use xlink:href="#DejaVuSans-76" x="426.5625"/>
       <use xlink:href="#DejaVuSans-2d" x="483.117188"/>
       <use xlink:href="#DejaVuSans-30" x="519.201172"/>
       <use xlink:href="#DejaVuSans-31" x="582.824219"/>
      </g>
     </g>
    </g>
    <g id="xtick_2">
     <g id="line2d_2">
      <g>
       <use xlink:href="#m78fd531928" x="95.019456" y="198.533906" style="stroke: #000000; stroke-width: 0.8"/>
      </g>
     </g>
     <g id="text_2">
      <!-- 2020-Dec-01 -->
      <g transform="translate(37.911233 244.48544)rotate(-30)scale(0.1 -0.1)">
       <defs>
        <path id="DejaVuSans-44" d="M 1259 4147 
L 1259 519 
L 2022 519 
Q 2988 519 3436 956 
Q 3884 1394 3884 2338 
Q 3884 3275 3436 3711 
Q 2988 4147 2022 4147 
L 1259 4147 
z
M 628 4666 
L 1925 4666 
Q 3281 4666 3915 4102 
Q 4550 3538 4550 2338 
Q 4550 1131 3912 565 
Q 3275 0 1925 0 
L 628 0 
L 628 4666 
z
" transform="scale(0.015625)"/>
        <path id="DejaVuSans-65" d="M 3597 1894 
L 3597 1613 
L 953 1613 
Q 991 1019 1311 708 
Q 1631 397 2203 397 
Q 2534 397 2845 478 
Q 3156 559 3463 722 
L 3463 178 
Q 3153 47 2828 -22 
Q 2503 -91 2169 -91 
Q 1331 -91 842 396 
Q 353 884 353 1716 
Q 353 2575 817 3079 
Q 1281 3584 2069 3584 
Q 2775 3584 3186 3129 
Q 3597 2675 3597 1894 
z
M 3022 2063 
Q 3016 2534 2758 2815 
Q 2500 3097 2075 3097 
Q 1594 3097 1305 2825 
Q 1016 2553 972 2059 
L 3022 2063 
z
" transform="scale(0.015625)"/>
        <path id="DejaVuSans-63" d="M 3122 3366 
L 3122 2828 
Q 2878 2963 2633 3030 
Q 2388 3097 2138 3097 
Q 1578 3097 1268 2742 
Q 959 2388 959 1747 
Q 959 1106 1268 751 
Q 1578 397 2138 397 
Q 2388 397 2633 464 
Q 2878 531 3122 666 
L 3122 134 
Q 2881 22 2623 -34 
Q 2366 -91 2075 -91 
Q 1284 -91 818 406 
Q 353 903 353 1747 
Q 353 2603 823 3093 
Q 1294 3584 2113 3584 
Q 2378 3584 2631 3529 
Q 2884 3475 3122 3366 
z
" transform="scale(0.015625)"/>
       </defs>
       <use xlink:href="#DejaVuSans-32"/>
       <use xlink:href="#DejaVuSans-30" x="63.623047"/>
       <use xlink:href="#DejaVuSans-32" x="127.246094"/>
       <use xlink:href="#DejaVuSans-30" x="190.869141"/>
       <use xlink:href="#DejaVuSans-2d" x="254.492188"/>
       <use xlink:href="#DejaVuSans-44" x="290.576172"/>
       <use xlink:href="#DejaVuSans-65" x="367.578125"/>
       <use xlink:href="#DejaVuSans-63" x="429.101562"/>
       <use xlink:href="#DejaVuSans-2d" x="484.082031"/>
       <use xlink:href="#DejaVuSans-30" x="520.166016"/>
       <use xlink:href="#DejaVuSans-31" x="583.789062"/>
      </g>
     </g>
    </g>
    <g id="xtick_3">
     <g id="line2d_3">
      <g>
       <use xlink:href="#m78fd531928" x="122.913832" y="198.533906" style="stroke: #000000; stroke-width: 0.8"/>
      </g>
     </g>
     <g id="text_3">
      <!-- 2021-Jan-01 -->
      <g transform="translate(68.727092 242.798721)rotate(-30)scale(0.1 -0.1)">
       <defs>
        <path id="DejaVuSans-4a" d="M 628 4666 
L 1259 4666 
L 1259 325 
Q 1259 -519 939 -900 
Q 619 -1281 -91 -1281 
L -331 -1281 
L -331 -750 
L -134 -750 
Q 284 -750 456 -515 
Q 628 -281 628 325 
L 628 4666 
z
" transform="scale(0.015625)"/>
        <path id="DejaVuSans-61" d="M 2194 1759 
Q 1497 1759 1228 1600 
Q 959 1441 959 1056 
Q 959 750 1161 570 
Q 1363 391 1709 391 
Q 2188 391 2477 730 
Q 2766 1069 2766 1631 
L 2766 1759 
L 2194 1759 
z
M 3341 1997 
L 3341 0 
L 2766 0 
L 2766 531 
Q 2569 213 2275 61 
Q 1981 -91 1556 -91 
Q 1019 -91 701 211 
Q 384 513 384 1019 
Q 384 1609 779 1909 
Q 1175 2209 1959 2209 
L 2766 2209 
L 2766 2266 
Q 2766 2663 2505 2880 
Q 2244 3097 1772 3097 
Q 1472 3097 1187 3025 
Q 903 2953 641 2809 
L 641 3341 
Q 956 3463 1253 3523 
Q 1550 3584 1831 3584 
Q 2591 3584 2966 3190 
Q 3341 2797 3341 1997 
z
" transform="scale(0.015625)"/>
        <path id="DejaVuSans-6e" d="M 3513 2113 
L 3513 0 
L 2938 0 
L 2938 2094 
Q 2938 2591 2744 2837 
Q 2550 3084 2163 3084 
Q 1697 3084 1428 2787 
Q 1159 2491 1159 1978 
L 1159 0 
L 581 0 
L 581 3500 
L 1159 3500 
L 1159 2956 
Q 1366 3272 1645 3428 
Q 1925 3584 2291 3584 
Q 2894 3584 3203 3211 
Q 3513 2838 3513 2113 
z
" transform="scale(0.015625)"/>
       </defs>
       <use xlink:href="#DejaVuSans-32"/>
       <use xlink:href="#DejaVuSans-30" x="63.623047"/>
       <use xlink:href="#DejaVuSans-32" x="127.246094"/>
       <use xlink:href="#DejaVuSans-31" x="190.869141"/>
       <use xlink:href="#DejaVuSans-2d" x="254.492188"/>
       <use xlink:href="#DejaVuSans-4a" x="296.201172"/>
       <use xlink:href="#DejaVuSans-61" x="325.693359"/>
       <use xlink:href="#DejaVuSans-6e" x="386.972656"/>
       <use xlink:href="#DejaVuSans-2d" x="450.351562"/>
       <use xlink:href="#DejaVuSans-30" x="486.435547"/>
       <use xlink:href="#DejaVuSans-31" x="550.058594"/>
      </g>
     </g>
    </g>
    <g id="xtick_4">
     <g id="line2d_4">
      <g>
       <use xlink:href="#m78fd531928" x="150.808208" y="198.533906" style="stroke: #000000; stroke-width: 0.8"/>
      </g>
     </g>
     <g id="text_4">
      <!-- 2021-Feb-01 -->
      <g transform="translate(95.127574 243.661221)rotate(-30)scale(0.1 -0.1)">
       <defs>
        <path id="DejaVuSans-46" d="M 628 4666 
L 3309 4666 
L 3309 4134 
L 1259 4134 
L 1259 2759 
L 3109 2759 
L 3109 2228 
L 1259 2228 
L 1259 0 
L 628 0 
L 628 4666 
z
" transform="scale(0.015625)"/>
        <path id="DejaVuSans-62" d="M 3116 1747 
Q 3116 2381 2855 2742 
Q 2594 3103 2138 3103 
Q 1681 3103 1420 2742 
Q 1159 2381 1159 1747 
Q 1159 1113 1420 752 
Q 1681 391 2138 391 
Q 2594 391 2855 752 
Q 3116 1113 3116 1747 
z
M 1159 2969 
Q 1341 3281 1617 3432 
Q 1894 3584 2278 3584 
Q 2916 3584 3314 3078 
Q 3713 2572 3713 1747 
Q 3713 922 3314 415 
Q 2916 -91 2278 -91 
Q 1894 -91 1617 61 
Q 1341 213 1159 525 
L 1159 0 
L 581 0 
L 581 4863 
L 1159 4863 
L 1159 2969 
z
" transform="scale(0.015625)"/>
       </defs>
       <use xlink:href="#DejaVuSans-32"/>
       <use xlink:href="#DejaVuSans-30" x="63.623047"/>
       <use xlink:href="#DejaVuSans-32" x="127.246094"/>
       <use xlink:href="#DejaVuSans-31" x="190.869141"/>
       <use xlink:href="#DejaVuSans-2d" x="254.492188"/>
       <use xlink:href="#DejaVuSans-46" x="290.576172"/>
       <use xlink:href="#DejaVuSans-65" x="342.595703"/>
       <use xlink:href="#DejaVuSans-62" x="404.119141"/>
       <use xlink:href="#DejaVuSans-2d" x="467.595703"/>
       <use xlink:href="#DejaVuSans-30" x="503.679688"/>
       <use xlink:href="#DejaVuSans-31" x="567.302734"/>
      </g>
     </g>
    </g>
    <g id="xtick_5">
     <g id="line2d_5">
      <g>
       <use xlink:href="#m78fd531928" x="176.003129" y="198.533906" style="stroke: #000000; stroke-width: 0.8"/>
      </g>
     </g>
     <g id="text_5">
      <!-- 2021-Mar-01 -->
      <g transform="translate(119.866478 243.924502)rotate(-30)scale(0.1 -0.1)">
       <defs>
        <path id="DejaVuSans-4d" d="M 628 4666 
L 1569 4666 
L 2759 1491 
L 3956 4666 
L 4897 4666 
L 4897 0 
L 4281 0 
L 4281 4097 
L 3078 897 
L 2444 897 
L 1241 4097 
L 1241 0 
L 628 0 
L 628 4666 
z
" transform="scale(0.015625)"/>
        <path id="DejaVuSans-72" d="M 2631 2963 
Q 2534 3019 2420 3045 
Q 2306 3072 2169 3072 
Q 1681 3072 1420 2755 
Q 1159 2438 1159 1844 
L 1159 0 
L 581 0 
L 581 3500 
L 1159 3500 
L 1159 2956 
Q 1341 3275 1631 3429 
Q 1922 3584 2338 3584 
Q 2397 3584 2469 3576 
Q 2541 3569 2628 3553 
L 2631 2963 
z
" transform="scale(0.015625)"/>
       </defs>
       <use xlink:href="#DejaVuSans-32"/>
       <use xlink:href="#DejaVuSans-30" x="63.623047"/>
       <use xlink:href="#DejaVuSans-32" x="127.246094"/>
       <use xlink:href="#DejaVuSans-31" x="190.869141"/>
       <use xlink:href="#DejaVuSans-2d" x="254.492188"/>
       <use xlink:href="#DejaVuSans-4d" x="290.576172"/>
       <use xlink:href="#DejaVuSans-61" x="376.855469"/>
       <use xlink:href="#DejaVuSans-72" x="438.134766"/>
       <use xlink:href="#DejaVuSans-2d" x="472.873047"/>
       <use xlink:href="#DejaVuSans-30" x="508.957031"/>
       <use xlink:href="#DejaVuSans-31" x="572.580078"/>
      </g>
     </g>
    </g>
    <g id="xtick_6">
     <g id="line2d_6">
      <g>
       <use xlink:href="#m78fd531928" x="203.897505" y="198.533906" style="stroke: #000000; stroke-width: 0.8"/>
      </g>
     </g>
     <g id="text_6">
      <!-- 2021-Apr-01 -->
      <g transform="translate(149.312934 243.028409)rotate(-30)scale(0.1 -0.1)">
       <defs>
        <path id="DejaVuSans-41" d="M 2188 4044 
L 1331 1722 
L 3047 1722 
L 2188 4044 
z
M 1831 4666 
L 2547 4666 
L 4325 0 
L 3669 0 
L 3244 1197 
L 1141 1197 
L 716 0 
L 50 0 
L 1831 4666 
z
" transform="scale(0.015625)"/>
        <path id="DejaVuSans-70" d="M 1159 525 
L 1159 -1331 
L 581 -1331 
L 581 3500 
L 1159 3500 
L 1159 2969 
Q 1341 3281 1617 3432 
Q 1894 3584 2278 3584 
Q 2916 3584 3314 3078 
Q 3713 2572 3713 1747 
Q 3713 922 3314 415 
Q 2916 -91 2278 -91 
Q 1894 -91 1617 61 
Q 1341 213 1159 525 
z
M 3116 1747 
Q 3116 2381 2855 2742 
Q 2594 3103 2138 3103 
Q 1681 3103 1420 2742 
Q 1159 2381 1159 1747 
Q 1159 1113 1420 752 
Q 1681 391 2138 391 
Q 2594 391 2855 752 
Q 3116 1113 3116 1747 
z
" transform="scale(0.015625)"/>
       </defs>
       <use xlink:href="#DejaVuSans-32"/>
       <use xlink:href="#DejaVuSans-30" x="63.623047"/>
       <use xlink:href="#DejaVuSans-32" x="127.246094"/>
       <use xlink:href="#DejaVuSans-31" x="190.869141"/>
       <use xlink:href="#DejaVuSans-2d" x="254.492188"/>
       <use xlink:href="#DejaVuSans-41" x="288.326172"/>
       <use xlink:href="#DejaVuSans-70" x="356.734375"/>
       <use xlink:href="#DejaVuSans-72" x="420.210938"/>
       <use xlink:href="#DejaVuSans-2d" x="454.949219"/>
       <use xlink:href="#DejaVuSans-30" x="491.033203"/>
       <use xlink:href="#DejaVuSans-31" x="554.65625"/>
      </g>
     </g>
    </g>
    <g id="xtick_7">
     <g id="line2d_7">
      <g>
       <use xlink:href="#m78fd531928" x="230.892062" y="198.533906" style="stroke: #000000; stroke-width: 0.8"/>
      </g>
     </g>
     <g id="text_7">
      <!-- 2021-May-01 -->
      <g transform="translate(172.789264 245.059659)rotate(-30)scale(0.1 -0.1)">
       <defs>
        <path id="DejaVuSans-79" d="M 2059 -325 
Q 1816 -950 1584 -1140 
Q 1353 -1331 966 -1331 
L 506 -1331 
L 506 -850 
L 844 -850 
Q 1081 -850 1212 -737 
Q 1344 -625 1503 -206 
L 1606 56 
L 191 3500 
L 800 3500 
L 1894 763 
L 2988 3500 
L 3597 3500 
L 2059 -325 
z
" transform="scale(0.015625)"/>
       </defs>
       <use xlink:href="#DejaVuSans-32"/>
       <use xlink:href="#DejaVuSans-30" x="63.623047"/>
       <use xlink:href="#DejaVuSans-32" x="127.246094"/>
       <use xlink:href="#DejaVuSans-31" x="190.869141"/>
       <use xlink:href="#DejaVuSans-2d" x="254.492188"/>
       <use xlink:href="#DejaVuSans-4d" x="290.576172"/>
       <use xlink:href="#DejaVuSans-61" x="376.855469"/>
       <use xlink:href="#DejaVuSans-79" x="438.134766"/>
       <use xlink:href="#DejaVuSans-2d" x="495.564453"/>
       <use xlink:href="#DejaVuSans-30" x="531.648438"/>
       <use xlink:href="#DejaVuSans-31" x="595.271484"/>
      </g>
     </g>
    </g>
    <g id="xtick_8">
     <g id="line2d_8">
      <g>
       <use xlink:href="#m78fd531928" x="258.786439" y="198.533906" style="stroke: #000000; stroke-width: 0.8"/>
      </g>
     </g>
     <g id="text_8">
      <!-- 2021-Jun-01 -->
      <g transform="translate(204.418374 242.903409)rotate(-30)scale(0.1 -0.1)">
       <defs>
        <path id="DejaVuSans-75" d="M 544 1381 
L 544 3500 
L 1119 3500 
L 1119 1403 
Q 1119 906 1312 657 
Q 1506 409 1894 409 
Q 2359 409 2629 706 
Q 2900 1003 2900 1516 
L 2900 3500 
L 3475 3500 
L 3475 0 
L 2900 0 
L 2900 538 
Q 2691 219 2414 64 
Q 2138 -91 1772 -91 
Q 1169 -91 856 284 
Q 544 659 544 1381 
z
M 1991 3584 
L 1991 3584 
z
" transform="scale(0.015625)"/>
       </defs>
       <use xlink:href="#DejaVuSans-32"/>
       <use xlink:href="#DejaVuSans-30" x="63.623047"/>
       <use xlink:href="#DejaVuSans-32" x="127.246094"/>
       <use xlink:href="#DejaVuSans-31" x="190.869141"/>
       <use xlink:href="#DejaVuSans-2d" x="254.492188"/>
       <use xlink:href="#DejaVuSans-4a" x="296.201172"/>
       <use xlink:href="#DejaVuSans-75" x="325.693359"/>
       <use xlink:href="#DejaVuSans-6e" x="389.072266"/>
       <use xlink:href="#DejaVuSans-2d" x="452.451172"/>
       <use xlink:href="#DejaVuSans-30" x="488.535156"/>
       <use xlink:href="#DejaVuSans-31" x="552.158203"/>
      </g>
     </g>
    </g>
    <g id="xtick_9">
     <g id="line2d_9">
      <g>
       <use xlink:href="#m78fd531928" x="285.780996" y="198.533906" style="stroke: #000000; stroke-width: 0.8"/>
      </g>
     </g>
     <g id="text_9">
      <!-- 2021-Jul-01 -->
      <g transform="translate(234.495441 241.123721)rotate(-30)scale(0.1 -0.1)">
       <defs>
        <path id="DejaVuSans-6c" d="M 603 4863 
L 1178 4863 
L 1178 0 
L 603 0 
L 603 4863 
z
" transform="scale(0.015625)"/>
       </defs>
       <use xlink:href="#DejaVuSans-32"/>
       <use xlink:href="#DejaVuSans-30" x="63.623047"/>
       <use xlink:href="#DejaVuSans-32" x="127.246094"/>
       <use xlink:href="#DejaVuSans-31" x="190.869141"/>
       <use xlink:href="#DejaVuSans-2d" x="254.492188"/>
       <use xlink:href="#DejaVuSans-4a" x="296.201172"/>
       <use xlink:href="#DejaVuSans-75" x="325.693359"/>
       <use xlink:href="#DejaVuSans-6c" x="389.072266"/>
       <use xlink:href="#DejaVuSans-2d" x="416.855469"/>
       <use xlink:href="#DejaVuSans-30" x="452.939453"/>
       <use xlink:href="#DejaVuSans-31" x="516.5625"/>
      </g>
     </g>
    </g>
    <g id="xtick_10">
     <g id="line2d_10">
      <g>
       <use xlink:href="#m78fd531928" x="313.675372" y="198.533906" style="stroke: #000000; stroke-width: 0.8"/>
      </g>
     </g>
     <g id="text_10">
      <!-- 2021-Aug-01 -->
      <g transform="translate(256.610451 244.46044)rotate(-30)scale(0.1 -0.1)">
       <defs>
        <path id="DejaVuSans-67" d="M 2906 1791 
Q 2906 2416 2648 2759 
Q 2391 3103 1925 3103 
Q 1463 3103 1205 2759 
Q 947 2416 947 1791 
Q 947 1169 1205 825 
Q 1463 481 1925 481 
Q 2391 481 2648 825 
Q 2906 1169 2906 1791 
z
M 3481 434 
Q 3481 -459 3084 -895 
Q 2688 -1331 1869 -1331 
Q 1566 -1331 1297 -1286 
Q 1028 -1241 775 -1147 
L 775 -588 
Q 1028 -725 1275 -790 
Q 1522 -856 1778 -856 
Q 2344 -856 2625 -561 
Q 2906 -266 2906 331 
L 2906 616 
Q 2728 306 2450 153 
Q 2172 0 1784 0 
Q 1141 0 747 490 
Q 353 981 353 1791 
Q 353 2603 747 3093 
Q 1141 3584 1784 3584 
Q 2172 3584 2450 3431 
Q 2728 3278 2906 2969 
L 2906 3500 
L 3481 3500 
L 3481 434 
z
" transform="scale(0.015625)"/>
       </defs>
       <use xlink:href="#DejaVuSans-32"/>
       <use xlink:href="#DejaVuSans-30" x="63.623047"/>
       <use xlink:href="#DejaVuSans-32" x="127.246094"/>
       <use xlink:href="#DejaVuSans-31" x="190.869141"/>
       <use xlink:href="#DejaVuSans-2d" x="254.492188"/>
       <use xlink:href="#DejaVuSans-41" x="288.326172"/>
       <use xlink:href="#DejaVuSans-75" x="356.734375"/>
       <use xlink:href="#DejaVuSans-67" x="420.113281"/>
       <use xlink:href="#DejaVuSans-2d" x="483.589844"/>
       <use xlink:href="#DejaVuSans-30" x="519.673828"/>
       <use xlink:href="#DejaVuSans-31" x="583.296875"/>
      </g>
     </g>
    </g>
    <g id="xtick_11">
     <g id="line2d_11">
      <g>
       <use xlink:href="#m78fd531928" x="341.569748" y="198.533906" style="stroke: #000000; stroke-width: 0.8"/>
      </g>
     </g>
     <g id="text_11">
      <!-- 2021-Sep-01 -->
      <g transform="translate(284.895891 244.234659)rotate(-30)scale(0.1 -0.1)">
       <defs>
        <path id="DejaVuSans-53" d="M 3425 4513 
L 3425 3897 
Q 3066 4069 2747 4153 
Q 2428 4238 2131 4238 
Q 1616 4238 1336 4038 
Q 1056 3838 1056 3469 
Q 1056 3159 1242 3001 
Q 1428 2844 1947 2747 
L 2328 2669 
Q 3034 2534 3370 2195 
Q 3706 1856 3706 1288 
Q 3706 609 3251 259 
Q 2797 -91 1919 -91 
Q 1588 -91 1214 -16 
Q 841 59 441 206 
L 441 856 
Q 825 641 1194 531 
Q 1563 422 1919 422 
Q 2459 422 2753 634 
Q 3047 847 3047 1241 
Q 3047 1584 2836 1778 
Q 2625 1972 2144 2069 
L 1759 2144 
Q 1053 2284 737 2584 
Q 422 2884 422 3419 
Q 422 4038 858 4394 
Q 1294 4750 2059 4750 
Q 2388 4750 2728 4690 
Q 3069 4631 3425 4513 
z
" transform="scale(0.015625)"/>
       </defs>
       <use xlink:href="#DejaVuSans-32"/>
       <use xlink:href="#DejaVuSans-30" x="63.623047"/>
       <use xlink:href="#DejaVuSans-32" x="127.246094"/>
       <use xlink:href="#DejaVuSans-31" x="190.869141"/>
       <use xlink:href="#DejaVuSans-2d" x="254.492188"/>
       <use xlink:href="#DejaVuSans-53" x="290.576172"/>
       <use xlink:href="#DejaVuSans-65" x="354.052734"/>
       <use xlink:href="#DejaVuSans-70" x="415.576172"/>
       <use xlink:href="#DejaVuSans-2d" x="479.052734"/>
       <use xlink:href="#DejaVuSans-30" x="515.136719"/>
       <use xlink:href="#DejaVuSans-31" x="578.759766"/>
      </g>
     </g>
    </g>
    <g id="xtick_12">
     <g id="line2d_12">
      <g>
       <use xlink:href="#m78fd531928" x="368.564306" y="198.533906" style="stroke: #000000; stroke-width: 0.8"/>
      </g>
     </g>
     <g id="text_12">
      <!-- 2021-Oct-01 -->
      <g transform="translate(313.00275 243.592471)rotate(-30)scale(0.1 -0.1)">
       <defs>
        <path id="DejaVuSans-4f" d="M 2522 4238 
Q 1834 4238 1429 3725 
Q 1025 3213 1025 2328 
Q 1025 1447 1429 934 
Q 1834 422 2522 422 
Q 3209 422 3611 934 
Q 4013 1447 4013 2328 
Q 4013 3213 3611 3725 
Q 3209 4238 2522 4238 
z
M 2522 4750 
Q 3503 4750 4090 4092 
Q 4678 3434 4678 2328 
Q 4678 1225 4090 567 
Q 3503 -91 2522 -91 
Q 1538 -91 948 565 
Q 359 1222 359 2328 
Q 359 3434 948 4092 
Q 1538 4750 2522 4750 
z
" transform="scale(0.015625)"/>
        <path id="DejaVuSans-74" d="M 1172 4494 
L 1172 3500 
L 2356 3500 
L 2356 3053 
L 1172 3053 
L 1172 1153 
Q 1172 725 1289 603 
Q 1406 481 1766 481 
L 2356 481 
L 2356 0 
L 1766 0 
Q 1100 0 847 248 
Q 594 497 594 1153 
L 594 3053 
L 172 3053 
L 172 3500 
L 594 3500 
L 594 4494 
L 1172 4494 
z
" transform="scale(0.015625)"/>
       </defs>
       <use xlink:href="#DejaVuSans-32"/>
       <use xlink:href="#DejaVuSans-30" x="63.623047"/>
       <use xlink:href="#DejaVuSans-32" x="127.246094"/>
       <use xlink:href="#DejaVuSans-31" x="190.869141"/>
       <use xlink:href="#DejaVuSans-2d" x="254.492188"/>
       <use xlink:href="#DejaVuSans-4f" x="293.326172"/>
       <use xlink:href="#DejaVuSans-63" x="372.037109"/>
       <use xlink:href="#DejaVuSans-74" x="427.017578"/>
       <use xlink:href="#DejaVuSans-2d" x="466.226562"/>
       <use xlink:href="#DejaVuSans-30" x="502.310547"/>
       <use xlink:href="#DejaVuSans-31" x="565.933594"/>
      </g>
     </g>
    </g>
    <g id="xtick_13">
     <g id="line2d_13">
      <g>
       <use xlink:href="#m78fd531928" x="396.458682" y="198.533906" style="stroke: #000000; stroke-width: 0.8"/>
      </g>
     </g>
     <g id="text_13">
      <!-- 2021-Nov-01 -->
      <g transform="translate(339.433002 244.437784)rotate(-30)scale(0.1 -0.1)">
       <use xlink:href="#DejaVuSans-32"/>
       <use xlink:href="#DejaVuSans-30" x="63.623047"/>
       <use xlink:href="#DejaVuSans-32" x="127.246094"/>
       <use xlink:href="#DejaVuSans-31" x="190.869141"/>
       <use xlink:href="#DejaVuSans-2d" x="254.492188"/>
       <use xlink:href="#DejaVuSans-4e" x="290.576172"/>
       <use xlink:href="#DejaVuSans-6f" x="365.380859"/>
       <use xlink:href="#DejaVuSans-76" x="426.5625"/>
       <use xlink:href="#DejaVuSans-2d" x="483.117188"/>
       <use xlink:href="#DejaVuSans-30" x="519.201172"/>
       <use xlink:href="#DejaVuSans-31" x="582.824219"/>
      </g>
     </g>
    </g>
    <g id="xtick_14">
     <g id="line2d_14">
      <g>
       <use xlink:href="#m78fd531928" x="423.45324" y="198.533906" style="stroke: #000000; stroke-width: 0.8"/>
      </g>
     </g>
     <g id="text_14">
      <!-- 2021-Dec-01 -->
      <g transform="translate(366.345017 244.48544)rotate(-30)scale(0.1 -0.1)">
       <use xlink:href="#DejaVuSans-32"/>
       <use xlink:href="#DejaVuSans-30" x="63.623047"/>
       <use xlink:href="#DejaVuSans-32" x="127.246094"/>
       <use xlink:href="#DejaVuSans-31" x="190.869141"/>
       <use xlink:href="#DejaVuSans-2d" x="254.492188"/>
       <use xlink:href="#DejaVuSans-44" x="290.576172"/>
       <use xlink:href="#DejaVuSans-65" x="367.578125"/>
       <use xlink:href="#DejaVuSans-63" x="429.101562"/>
       <use xlink:href="#DejaVuSans-2d" x="484.082031"/>
       <use xlink:href="#DejaVuSans-30" x="520.166016"/>
       <use xlink:href="#DejaVuSans-31" x="583.789062"/>
      </g>
     </g>
    </g>
    <g id="xtick_15">
     <g id="line2d_15">
      <g>
       <use xlink:href="#m78fd531928" x="451.347616" y="198.533906" style="stroke: #000000; stroke-width: 0.8"/>
      </g>
     </g>
     <g id="text_15">
      <!-- 2022-Jan-01 -->
      <g transform="translate(397.160875 242.798721)rotate(-30)scale(0.1 -0.1)">
       <use xlink:href="#DejaVuSans-32"/>
       <use xlink:href="#DejaVuSans-30" x="63.623047"/>
       <use xlink:href="#DejaVuSans-32" x="127.246094"/>
       <use xlink:href="#DejaVuSans-32" x="190.869141"/>
       <use xlink:href="#DejaVuSans-2d" x="254.492188"/>
       <use xlink:href="#DejaVuSans-4a" x="296.201172"/>
       <use xlink:href="#DejaVuSans-61" x="325.693359"/>
       <use xlink:href="#DejaVuSans-6e" x="386.972656"/>
       <use xlink:href="#DejaVuSans-2d" x="450.351562"/>
       <use xlink:href="#DejaVuSans-30" x="486.435547"/>
       <use xlink:href="#DejaVuSans-31" x="550.058594"/>
      </g>
     </g>
    </g>
    <g id="xtick_16">
     <g id="line2d_16">
      <g>
       <use xlink:href="#m78fd531928" x="479.241992" y="198.533906" style="stroke: #000000; stroke-width: 0.8"/>
      </g>
     </g>
     <g id="text_16">
      <!-- 2022-Feb-01 -->
      <g transform="translate(423.561358 243.661221)rotate(-30)scale(0.1 -0.1)">
       <use xlink:href="#DejaVuSans-32"/>
       <use xlink:href="#DejaVuSans-30" x="63.623047"/>
       <use xlink:href="#DejaVuSans-32" x="127.246094"/>
       <use xlink:href="#DejaVuSans-32" x="190.869141"/>
       <use xlink:href="#DejaVuSans-2d" x="254.492188"/>
       <use xlink:href="#DejaVuSans-46" x="290.576172"/>
       <use xlink:href="#DejaVuSans-65" x="342.595703"/>
       <use xlink:href="#DejaVuSans-62" x="404.119141"/>
       <use xlink:href="#DejaVuSans-2d" x="467.595703"/>
       <use xlink:href="#DejaVuSans-30" x="503.679688"/>
       <use xlink:href="#DejaVuSans-31" x="567.302734"/>
      </g>
     </g>
    </g>
   </g>
   <g id="matplotlib.axis_2">
    <g id="ytick_1">
     <g id="line2d_17">
      <path d="M 53.132901 190.744815 
L 499.532901 190.744815 
" clip-path="url(#p5caec5a3f6)" style="fill: none; stroke: #b0b0b0; stroke-width: 0.8; stroke-linecap: square"/>
     </g>
     <g id="line2d_18">
      <defs>
       <path id="m86060d8af5" d="M 0 0 
L -3.5 0 
" style="stroke: #000000; stroke-width: 0.8"/>
      </defs>
      <g>
       <use xlink:href="#m86060d8af5" x="53.132901" y="190.744815" style="stroke: #000000; stroke-width: 0.8"/>
      </g>
     </g>
     <g id="text_17">
      <!-- 0 -->
      <g transform="translate(39.770401 194.544034)scale(0.1 -0.1)">
       <use xlink:href="#DejaVuSans-30"/>
      </g>
     </g>
    </g>
    <g id="ytick_2">
     <g id="line2d_19">
      <path d="M 53.132901 159.588452 
L 499.532901 159.588452 
" clip-path="url(#p5caec5a3f6)" style="fill: none; stroke: #b0b0b0; stroke-width: 0.8; stroke-linecap: square"/>
     </g>
     <g id="line2d_20">
      <g>
       <use xlink:href="#m86060d8af5" x="53.132901" y="159.588452" style="stroke: #000000; stroke-width: 0.8"/>
      </g>
     </g>
     <g id="text_18">
      <!-- 20 -->
      <g transform="translate(33.407901 163.38767)scale(0.1 -0.1)">
       <use xlink:href="#DejaVuSans-32"/>
       <use xlink:href="#DejaVuSans-30" x="63.623047"/>
      </g>
     </g>
    </g>
    <g id="ytick_3">
     <g id="line2d_21">
      <path d="M 53.132901 128.432088 
L 499.532901 128.432088 
" clip-path="url(#p5caec5a3f6)" style="fill: none; stroke: #b0b0b0; stroke-width: 0.8; stroke-linecap: square"/>
     </g>
     <g id="line2d_22">
      <g>
       <use xlink:href="#m86060d8af5" x="53.132901" y="128.432088" style="stroke: #000000; stroke-width: 0.8"/>
      </g>
     </g>
     <g id="text_19">
      <!-- 40 -->
      <g transform="translate(33.407901 132.231307)scale(0.1 -0.1)">
       <defs>
        <path id="DejaVuSans-34" d="M 2419 4116 
L 825 1625 
L 2419 1625 
L 2419 4116 
z
M 2253 4666 
L 3047 4666 
L 3047 1625 
L 3713 1625 
L 3713 1100 
L 3047 1100 
L 3047 0 
L 2419 0 
L 2419 1100 
L 313 1100 
L 313 1709 
L 2253 4666 
z
" transform="scale(0.015625)"/>
       </defs>
       <use xlink:href="#DejaVuSans-34"/>
       <use xlink:href="#DejaVuSans-30" x="63.623047"/>
      </g>
     </g>
    </g>
    <g id="ytick_4">
     <g id="line2d_23">
      <path d="M 53.132901 97.275724 
L 499.532901 97.275724 
" clip-path="url(#p5caec5a3f6)" style="fill: none; stroke: #b0b0b0; stroke-width: 0.8; stroke-linecap: square"/>
     </g>
     <g id="line2d_24">
      <g>
       <use xlink:href="#m86060d8af5" x="53.132901" y="97.275724" style="stroke: #000000; stroke-width: 0.8"/>
      </g>
     </g>
     <g id="text_20">
      <!-- 60 -->
      <g transform="translate(33.407901 101.074943)scale(0.1 -0.1)">
       <defs>
        <path id="DejaVuSans-36" d="M 2113 2584 
Q 1688 2584 1439 2293 
Q 1191 2003 1191 1497 
Q 1191 994 1439 701 
Q 1688 409 2113 409 
Q 2538 409 2786 701 
Q 3034 994 3034 1497 
Q 3034 2003 2786 2293 
Q 2538 2584 2113 2584 
z
M 3366 4563 
L 3366 3988 
Q 3128 4100 2886 4159 
Q 2644 4219 2406 4219 
Q 1781 4219 1451 3797 
Q 1122 3375 1075 2522 
Q 1259 2794 1537 2939 
Q 1816 3084 2150 3084 
Q 2853 3084 3261 2657 
Q 3669 2231 3669 1497 
Q 3669 778 3244 343 
Q 2819 -91 2113 -91 
Q 1303 -91 875 529 
Q 447 1150 447 2328 
Q 447 3434 972 4092 
Q 1497 4750 2381 4750 
Q 2619 4750 2861 4703 
Q 3103 4656 3366 4563 
z
" transform="scale(0.015625)"/>
       </defs>
       <use xlink:href="#DejaVuSans-36"/>
       <use xlink:href="#DejaVuSans-30" x="63.623047"/>
      </g>
     </g>
    </g>
    <g id="ytick_5">
     <g id="line2d_25">
      <path d="M 53.132901 66.119361 
L 499.532901 66.119361 
" clip-path="url(#p5caec5a3f6)" style="fill: none; stroke: #b0b0b0; stroke-width: 0.8; stroke-linecap: square"/>
     </g>
     <g id="line2d_26">
      <g>
       <use xlink:href="#m86060d8af5" x="53.132901" y="66.119361" style="stroke: #000000; stroke-width: 0.8"/>
      </g>
     </g>
     <g id="text_21">
      <!-- 80 -->
      <g transform="translate(33.407901 69.91858)scale(0.1 -0.1)">
       <defs>
        <path id="DejaVuSans-38" d="M 2034 2216 
Q 1584 2216 1326 1975 
Q 1069 1734 1069 1313 
Q 1069 891 1326 650 
Q 1584 409 2034 409 
Q 2484 409 2743 651 
Q 3003 894 3003 1313 
Q 3003 1734 2745 1975 
Q 2488 2216 2034 2216 
z
M 1403 2484 
Q 997 2584 770 2862 
Q 544 3141 544 3541 
Q 544 4100 942 4425 
Q 1341 4750 2034 4750 
Q 2731 4750 3128 4425 
Q 3525 4100 3525 3541 
Q 3525 3141 3298 2862 
Q 3072 2584 2669 2484 
Q 3125 2378 3379 2068 
Q 3634 1759 3634 1313 
Q 3634 634 3220 271 
Q 2806 -91 2034 -91 
Q 1263 -91 848 271 
Q 434 634 434 1313 
Q 434 1759 690 2068 
Q 947 2378 1403 2484 
z
M 1172 3481 
Q 1172 3119 1398 2916 
Q 1625 2713 2034 2713 
Q 2441 2713 2670 2916 
Q 2900 3119 2900 3481 
Q 2900 3844 2670 4047 
Q 2441 4250 2034 4250 
Q 1625 4250 1398 4047 
Q 1172 3844 1172 3481 
z
" transform="scale(0.015625)"/>
       </defs>
       <use xlink:href="#DejaVuSans-38"/>
       <use xlink:href="#DejaVuSans-30" x="63.623047"/>
      </g>
     </g>
    </g>
    <g id="ytick_6">
     <g id="line2d_27">
      <path d="M 53.132901 34.962997 
L 499.532901 34.962997 
" clip-path="url(#p5caec5a3f6)" style="fill: none; stroke: #b0b0b0; stroke-width: 0.8; stroke-linecap: square"/>
     </g>
     <g id="line2d_28">
      <g>
       <use xlink:href="#m86060d8af5" x="53.132901" y="34.962997" style="stroke: #000000; stroke-width: 0.8"/>
      </g>
     </g>
     <g id="text_22">
      <!-- 100 -->
      <g transform="translate(27.045401 38.762216)scale(0.1 -0.1)">
       <use xlink:href="#DejaVuSans-31"/>
       <use xlink:href="#DejaVuSans-30" x="63.623047"/>
       <use xlink:href="#DejaVuSans-30" x="127.246094"/>
      </g>
     </g>
    </g>
    <g id="text_23">
     <!-- Percentage of security.txt files expire time -->
     <g transform="translate(20.965713 218.507812)rotate(-90)scale(0.1 -0.1)">
      <defs>
       <path id="DejaVuSans-50" d="M 1259 4147 
L 1259 2394 
L 2053 2394 
Q 2494 2394 2734 2622 
Q 2975 2850 2975 3272 
Q 2975 3691 2734 3919 
Q 2494 4147 2053 4147 
L 1259 4147 
z
M 628 4666 
L 2053 4666 
Q 2838 4666 3239 4311 
Q 3641 3956 3641 3272 
Q 3641 2581 3239 2228 
Q 2838 1875 2053 1875 
L 1259 1875 
L 1259 0 
L 628 0 
L 628 4666 
z
" transform="scale(0.015625)"/>
       <path id="DejaVuSans-20" transform="scale(0.015625)"/>
       <path id="DejaVuSans-66" d="M 2375 4863 
L 2375 4384 
L 1825 4384 
Q 1516 4384 1395 4259 
Q 1275 4134 1275 3809 
L 1275 3500 
L 2222 3500 
L 2222 3053 
L 1275 3053 
L 1275 0 
L 697 0 
L 697 3053 
L 147 3053 
L 147 3500 
L 697 3500 
L 697 3744 
Q 697 4328 969 4595 
Q 1241 4863 1831 4863 
L 2375 4863 
z
" transform="scale(0.015625)"/>
       <path id="DejaVuSans-73" d="M 2834 3397 
L 2834 2853 
Q 2591 2978 2328 3040 
Q 2066 3103 1784 3103 
Q 1356 3103 1142 2972 
Q 928 2841 928 2578 
Q 928 2378 1081 2264 
Q 1234 2150 1697 2047 
L 1894 2003 
Q 2506 1872 2764 1633 
Q 3022 1394 3022 966 
Q 3022 478 2636 193 
Q 2250 -91 1575 -91 
Q 1294 -91 989 -36 
Q 684 19 347 128 
L 347 722 
Q 666 556 975 473 
Q 1284 391 1588 391 
Q 1994 391 2212 530 
Q 2431 669 2431 922 
Q 2431 1156 2273 1281 
Q 2116 1406 1581 1522 
L 1381 1569 
Q 847 1681 609 1914 
Q 372 2147 372 2553 
Q 372 3047 722 3315 
Q 1072 3584 1716 3584 
Q 2034 3584 2315 3537 
Q 2597 3491 2834 3397 
z
" transform="scale(0.015625)"/>
       <path id="DejaVuSans-69" d="M 603 3500 
L 1178 3500 
L 1178 0 
L 603 0 
L 603 3500 
z
M 603 4863 
L 1178 4863 
L 1178 4134 
L 603 4134 
L 603 4863 
z
" transform="scale(0.015625)"/>
       <path id="DejaVuSans-2e" d="M 684 794 
L 1344 794 
L 1344 0 
L 684 0 
L 684 794 
z
" transform="scale(0.015625)"/>
       <path id="DejaVuSans-78" d="M 3513 3500 
L 2247 1797 
L 3578 0 
L 2900 0 
L 1881 1375 
L 863 0 
L 184 0 
L 1544 1831 
L 300 3500 
L 978 3500 
L 1906 2253 
L 2834 3500 
L 3513 3500 
z
" transform="scale(0.015625)"/>
       <path id="DejaVuSans-6d" d="M 3328 2828 
Q 3544 3216 3844 3400 
Q 4144 3584 4550 3584 
Q 5097 3584 5394 3201 
Q 5691 2819 5691 2113 
L 5691 0 
L 5113 0 
L 5113 2094 
Q 5113 2597 4934 2840 
Q 4756 3084 4391 3084 
Q 3944 3084 3684 2787 
Q 3425 2491 3425 1978 
L 3425 0 
L 2847 0 
L 2847 2094 
Q 2847 2600 2669 2842 
Q 2491 3084 2119 3084 
Q 1678 3084 1418 2786 
Q 1159 2488 1159 1978 
L 1159 0 
L 581 0 
L 581 3500 
L 1159 3500 
L 1159 2956 
Q 1356 3278 1631 3431 
Q 1906 3584 2284 3584 
Q 2666 3584 2933 3390 
Q 3200 3197 3328 2828 
z
" transform="scale(0.015625)"/>
      </defs>
      <use xlink:href="#DejaVuSans-50"/>
      <use xlink:href="#DejaVuSans-65" x="56.677734"/>
      <use xlink:href="#DejaVuSans-72" x="118.201172"/>
      <use xlink:href="#DejaVuSans-63" x="157.064453"/>
      <use xlink:href="#DejaVuSans-65" x="212.044922"/>
      <use xlink:href="#DejaVuSans-6e" x="273.568359"/>
      <use xlink:href="#DejaVuSans-74" x="336.947266"/>
      <use xlink:href="#DejaVuSans-61" x="376.15625"/>
      <use xlink:href="#DejaVuSans-67" x="437.435547"/>
      <use xlink:href="#DejaVuSans-65" x="500.912109"/>
      <use xlink:href="#DejaVuSans-20" x="562.435547"/>
      <use xlink:href="#DejaVuSans-6f" x="594.222656"/>
      <use xlink:href="#DejaVuSans-66" x="655.404297"/>
      <use xlink:href="#DejaVuSans-20" x="690.609375"/>
      <use xlink:href="#DejaVuSans-73" x="722.396484"/>
      <use xlink:href="#DejaVuSans-65" x="774.496094"/>
      <use xlink:href="#DejaVuSans-63" x="836.019531"/>
      <use xlink:href="#DejaVuSans-75" x="891"/>
      <use xlink:href="#DejaVuSans-72" x="954.378906"/>
      <use xlink:href="#DejaVuSans-69" x="995.492188"/>
      <use xlink:href="#DejaVuSans-74" x="1023.275391"/>
      <use xlink:href="#DejaVuSans-79" x="1062.484375"/>
      <use xlink:href="#DejaVuSans-2e" x="1107.414062"/>
      <use xlink:href="#DejaVuSans-74" x="1139.201172"/>
      <use xlink:href="#DejaVuSans-78" x="1178.410156"/>
      <use xlink:href="#DejaVuSans-74" x="1237.589844"/>
      <use xlink:href="#DejaVuSans-20" x="1276.798828"/>
      <use xlink:href="#DejaVuSans-66" x="1308.585938"/>
      <use xlink:href="#DejaVuSans-69" x="1343.791016"/>
      <use xlink:href="#DejaVuSans-6c" x="1371.574219"/>
      <use xlink:href="#DejaVuSans-65" x="1399.357422"/>
      <use xlink:href="#DejaVuSans-73" x="1460.880859"/>
      <use xlink:href="#DejaVuSans-20" x="1512.980469"/>
      <use xlink:href="#DejaVuSans-65" x="1544.767578"/>
      <use xlink:href="#DejaVuSans-78" x="1604.541016"/>
      <use xlink:href="#DejaVuSans-70" x="1663.720703"/>
      <use xlink:href="#DejaVuSans-69" x="1727.197266"/>
      <use xlink:href="#DejaVuSans-72" x="1754.980469"/>
      <use xlink:href="#DejaVuSans-65" x="1793.84375"/>
      <use xlink:href="#DejaVuSans-20" x="1855.367188"/>
      <use xlink:href="#DejaVuSans-74" x="1887.154297"/>
      <use xlink:href="#DejaVuSans-69" x="1926.363281"/>
      <use xlink:href="#DejaVuSans-6d" x="1954.146484"/>
      <use xlink:href="#DejaVuSans-65" x="2051.558594"/>
     </g>
    </g>
   </g>
   <g id="line2d_29">
    <path d="M 73.42381 190.744815 
L 214.695328 190.744815 
L 215.595146 188.821583 
L 218.294602 188.933399 
L 220.094239 188.912088 
L 237.190792 189.341376 
L 238.090611 190.744815 
L 238.99043 189.366215 
L 243.489523 189.498561 
L 247.088797 189.508452 
L 250.688071 189.555641 
L 254.287346 189.537204 
L 262.385713 189.632088 
L 265.085169 189.662997 
L 265.984987 188.581179 
L 266.884806 188.639656 
L 268.684443 188.610818 
L 270.48408 188.581179 
L 271.383899 187.608269 
L 276.78281 187.805536 
L 277.682629 187.768093 
L 279.482266 187.895148 
L 282.181722 187.929481 
L 283.981359 188.901244 
L 287.580633 185.246634 
L 288.480452 185.246634 
L 315.475009 187.105053 
L 318.174465 187.204319 
L 329.872107 187.565595 
L 346.068841 186.434646 
L 346.96866 187.093679 
L 348.768297 185.393532 
L 359.56612 185.683312 
L 360.465939 185.876634 
L 362.265576 186.008206 
L 368.564306 186.192749 
L 369.464124 186.763171 
L 371.263762 186.775852 
L 372.16358 187.293952 
L 373.963217 187.379159 
L 382.061585 187.574836 
L 382.961403 187.100796 
L 383.861222 187.079361 
L 384.76104 187.611273 
L 386.560678 186.75041 
L 387.460496 187.142924 
L 388.360315 187.234239 
L 389.260133 187.184088 
L 391.059771 186.344199 
L 396.458682 186.465095 
L 400.057956 186.44145 
L 400.957775 186.986005 
L 402.757412 186.924553 
L 404.557049 186.986005 
L 409.955961 187.06493 
L 410.855779 186.719445 
L 411.755598 186.75041 
L 412.655417 186.373387 
L 415.354872 186.362207 
L 416.254691 185.630766 
L 417.154509 185.669217 
L 418.054328 185.306049 
L 421.653602 185.292452 
L 426.152695 185.386227 
L 427.052514 186.315001 
L 428.852151 186.27261 
L 429.75197 186.356595 
L 430.651788 186.759699 
L 433.351244 186.859101 
L 434.251063 187.188153 
L 435.150881 187.204319 
L 436.0507 186.928334 
L 437.850337 187.642965 
L 440.549793 187.601236 
L 441.449611 187.228296 
L 443.249248 187.290673 
L 445.948704 187.343466 
L 446.848523 187.267543 
L 447.748341 186.978661 
L 448.64816 187.343466 
L 449.547979 187.027679 
L 452.247434 173.027141 
L 453.147253 172.692845 
L 454.047071 172.7315 
L 454.94689 173.39866 
L 456.746527 173.109138 
L 457.646346 173.507996 
L 458.546164 173.615279 
L 459.445983 173.292081 
L 460.345802 173.400036 
L 461.24562 173.255796 
L 462.145439 173.611988 
L 463.045257 173.721235 
L 463.945076 174.031381 
L 464.844894 174.17906 
L 465.744713 173.894945 
L 466.644532 174.313467 
L 467.54435 173.920379 
L 468.444169 174.726927 
L 469.343987 174.575844 
L 470.243806 175.320873 
L 472.043443 175.748137 
L 472.943262 175.894019 
L 473.84308 176.253483 
L 475.642718 176.825147 
L 477.442355 176.85156 
L 478.342173 176.609603 
L 479.241992 174.988257 
L 479.241992 174.988257 
" clip-path="url(#p5caec5a3f6)" style="fill: none; stroke: #ff0000; stroke-width: 1.5; stroke-linecap: square"/>
   </g>
   <g id="line2d_30">
    <path d="M 73.42381 34.962997 
L 75.223447 34.962997 
L 76.123266 52.272088 
L 77.023084 52.272088 
L 77.922903 66.119361 
L 78.822722 77.448948 
L 81.522177 77.448948 
L 82.421996 81.697543 
L 83.321814 77.448948 
L 84.221633 77.448948 
L 85.121452 81.697543 
L 86.02127 81.697543 
L 86.921089 77.448948 
L 89.620545 73.908452 
L 90.520363 82.895864 
L 91.420182 86.89027 
L 93.219819 86.89027 
L 94.119637 94.879081 
L 95.019456 82.895864 
L 95.919275 82.895864 
L 96.819093 86.89027 
L 97.718912 83.644815 
L 98.61873 78.235724 
L 99.518549 80.781179 
L 100.418368 75.958212 
L 101.318186 75.958212 
L 102.218005 81.697543 
L 103.117823 81.697543 
L 104.017642 79.472088 
L 104.917461 73.908452 
L 105.817279 79.472088 
L 109.416553 79.472088 
L 110.316372 84.529939 
L 112.116009 84.529939 
L 113.915646 89.147977 
L 114.815465 89.147977 
L 115.715284 91.610931 
L 116.615102 89.147977 
L 119.314558 89.147977 
L 120.214376 95.9211 
L 121.114195 89.147977 
L 122.913832 67.417543 
L 124.713469 72.350634 
L 125.613288 72.350634 
L 126.513107 73.908452 
L 127.412925 73.908452 
L 128.312744 75.601732 
L 129.212562 70.912648 
L 131.012199 70.912648 
L 131.912018 69.581179 
L 132.811837 69.581179 
L 135.511292 72.350634 
L 138.210748 70.912648 
L 139.110567 73.908452 
L 140.010385 72.350634 
L 140.910204 73.908452 
L 141.810022 73.908452 
L 142.709841 70.912648 
L 150.808208 66.119361 
L 151.708027 67.193718 
L 153.507664 63.286964 
L 154.407483 64.172088 
L 155.307301 62.453906 
L 156.20712 63.286964 
L 158.006757 61.668452 
L 160.706213 61.668452 
L 161.606031 60.926634 
L 162.50585 61.668452 
L 163.405669 60.926634 
L 164.305487 61.668452 
L 165.205306 60.224914 
L 166.105124 59.560126 
L 167.004943 58.33027 
L 167.904761 58.929431 
L 174.203492 58.929431 
L 175.10331 59.560126 
L 176.003129 58.929431 
L 176.902947 62.224815 
L 177.802766 60.926634 
L 179.602403 62.224815 
L 180.502222 65.359449 
L 181.40204 63.945661 
L 182.301859 66.119361 
L 183.201677 65.359449 
L 185.001315 64.793558 
L 185.901133 64.793558 
L 186.800952 63.575984 
L 187.70077 63.575984 
L 188.600589 62.453906 
L 200.298231 75.601732 
L 201.198049 77.448948 
L 202.097868 77.448948 
L 202.997686 78.49027 
L 204.797323 75.021179 
L 205.697142 75.601732 
L 206.596961 75.601732 
L 207.496779 73.908452 
L 208.396598 76.072088 
L 209.296416 80.057734 
L 210.196235 78.901459 
L 211.096054 82.289119 
L 211.995872 81.495229 
L 214.695328 83.762121 
L 215.595146 84.967038 
L 216.494965 86.89027 
L 217.394784 85.099674 
L 218.294602 85.682659 
L 219.194421 86.89027 
L 220.994058 85.682659 
L 221.893877 86.89027 
L 224.593332 85.159361 
L 225.493151 84.068135 
L 226.392969 86.300187 
L 227.292788 85.159361 
L 228.192607 84.607752 
L 229.092425 85.797064 
L 232.6917 83.644815 
L 234.491337 86.89027 
L 235.391155 85.48683 
L 236.290974 87.843064 
L 237.190792 89.697149 
L 238.090611 88.29371 
L 238.99043 90.107004 
L 239.890248 90.884675 
L 240.790067 90.323478 
L 241.689885 91.496721 
L 242.589704 91.956345 
L 243.489523 91.044452 
L 244.389341 90.689826 
L 247.088797 90.599361 
L 247.988616 91.720714 
L 248.888434 91.720714 
L 249.788253 90.854184 
L 251.58789 88.512997 
L 252.487708 88.887473 
L 254.287346 90.513103 
L 255.187164 88.097881 
L 256.086983 90.430766 
L 256.986801 90.013715 
L 257.88662 89.944815 
L 258.786439 89.602889 
L 260.586076 88.019124 
L 261.485894 88.019124 
L 262.385713 88.373906 
L 263.285531 88.342781 
L 264.18535 89.053906 
L 265.085169 89.053906 
L 265.984987 90.135724 
L 266.884806 89.697149 
L 267.784624 90.135724 
L 269.584262 90.82958 
L 270.48408 92.299361 
L 271.383899 91.420837 
L 272.283717 91.704719 
L 274.083354 91.610931 
L 274.983173 90.884675 
L 275.882992 91.520727 
L 276.78281 90.809309 
L 277.682629 92.512968 
L 279.482266 92.906234 
L 282.181722 92.208123 
L 283.981359 95.800867 
L 287.580633 97.275724 
L 288.480452 96.359361 
L 313.675372 99.933613 
L 314.575191 100.242997 
L 315.475009 99.02281 
L 316.374828 99.02281 
L 317.274647 99.150876 
L 318.174465 99.400022 
L 319.974102 99.694255 
L 320.873921 100.518242 
L 321.773739 100.045179 
L 322.673558 100.949182 
L 323.573377 100.095913 
L 324.473195 99.984973 
L 325.373014 98.752966 
L 326.272832 99.147781 
L 327.172651 97.938626 
L 328.07247 98.840061 
L 328.972288 99.979376 
L 329.872107 99.819101 
L 346.068841 102.694222 
L 346.96866 101.900497 
L 348.768297 104.529687 
L 349.668116 103.080522 
L 350.567934 103.00563 
L 351.467753 103.9351 
L 352.367571 104.592749 
L 353.26739 104.329995 
L 354.167209 104.977297 
L 355.067027 104.518717 
L 355.966846 105.15041 
L 356.866664 105.516357 
L 358.666301 106.645211 
L 360.465939 108.526634 
L 361.365757 108.052412 
L 362.265576 108.117297 
L 364.965032 107.141906 
L 365.86485 106.622634 
L 366.764669 106.862298 
L 367.664487 107.490926 
L 368.564306 107.796055 
L 369.464124 106.632588 
L 370.363943 106.362997 
L 372.16358 105.4592 
L 373.063399 105.903641 
L 373.963217 106.603401 
L 374.863036 105.424312 
L 375.762855 106.898944 
L 376.662673 106.422547 
L 377.562492 107.597465 
L 378.46231 106.461643 
L 379.362129 106.284793 
L 380.261948 106.717047 
L 381.161766 107.569272 
L 382.061585 107.872511 
L 382.961403 109.66539 
L 383.861222 108.73027 
L 384.76104 109.720364 
L 385.660859 110.198534 
L 387.460496 109.702251 
L 388.360315 110.440385 
L 389.260133 109.73827 
L 390.159952 110.628452 
L 391.059771 111.09366 
L 391.959589 112.199361 
L 392.859408 114.15934 
L 393.759226 113.504805 
L 394.659045 114.152088 
L 395.558863 113.284243 
L 396.458682 110.714046 
L 397.358501 110.493576 
L 398.258319 110.748747 
L 399.158138 111.792722 
L 400.057956 110.271887 
L 400.957775 111.392147 
L 401.857594 110.943775 
L 402.757412 110.943775 
L 403.657231 110.556855 
L 404.557049 110.556855 
L 407.256505 110.368026 
L 408.156324 109.539399 
L 409.056142 110.368026 
L 409.955961 111.831716 
L 410.855779 111.847564 
L 411.755598 112.853906 
L 412.655417 112.456504 
L 413.555235 113.445483 
L 414.455054 112.458521 
L 415.354872 113.053116 
L 416.254691 114.42746 
L 417.154509 115.001275 
L 418.054328 115.767531 
L 418.954147 115.782136 
L 419.853965 115.580088 
L 420.753784 115.796888 
L 422.553421 115.379048 
L 423.45324 114.57631 
L 424.353058 114.200169 
L 426.152695 113.810797 
L 427.052514 112.484755 
L 428.852151 112.853906 
L 429.75197 115.413701 
L 431.551607 113.925799 
L 432.451425 114.814547 
L 433.351244 114.09027 
L 434.251063 113.920905 
L 435.150881 116.040353 
L 436.0507 114.762147 
L 436.950518 114.226433 
L 437.850337 114.921806 
L 440.549793 114.251053 
L 443.249248 115.789927 
L 444.149067 115.245294 
L 445.048886 116.433138 
L 446.848523 116.678906 
L 447.748341 116.448871 
L 448.64816 115.574986 
L 449.547979 117.415847 
L 452.247434 109.845245 
L 453.147253 110.848132 
L 454.047071 111.352797 
L 455.846709 110.054444 
L 456.746527 109.751333 
L 457.646346 109.764288 
L 458.546164 109.29872 
L 459.445983 109.945117 
L 461.24562 109.129393 
L 462.145439 108.887974 
L 463.045257 108.838911 
L 463.945076 109.069733 
L 464.844894 108.553181 
L 465.744713 109.038841 
L 466.644532 108.588076 
L 467.54435 109.115143 
L 468.444169 108.456839 
L 469.343987 108.967134 
L 470.243806 107.764005 
L 471.143625 106.792357 
L 472.943262 107.701589 
L 473.84308 107.117754 
L 475.642718 107.226806 
L 476.542536 107.52297 
L 477.442355 107.089683 
L 478.342173 106.228026 
L 479.241992 106.313448 
L 479.241992 106.313448 
" clip-path="url(#p5caec5a3f6)" style="fill: none; stroke: #008000; stroke-width: 1.5; stroke-linecap: square"/>
   </g>
   <g id="line2d_31">
    <path d="M 73.42381 190.744815 
L 75.223447 190.744815 
L 76.123266 173.435724 
L 77.023084 173.435724 
L 77.922903 159.588452 
L 78.822722 148.258865 
L 81.522177 148.258865 
L 82.421996 144.01027 
L 83.321814 148.258865 
L 84.221633 148.258865 
L 85.121452 144.01027 
L 86.02127 144.01027 
L 86.921089 148.258865 
L 89.620545 151.799361 
L 90.520363 142.811948 
L 91.420182 138.817543 
L 93.219819 138.817543 
L 94.119637 130.828731 
L 95.019456 142.811948 
L 95.919275 142.811948 
L 96.819093 138.817543 
L 97.718912 142.062997 
L 98.61873 147.472088 
L 99.518549 144.926634 
L 100.418368 149.7496 
L 101.318186 149.7496 
L 102.218005 144.01027 
L 103.117823 144.01027 
L 104.017642 146.235724 
L 104.917461 151.799361 
L 105.817279 146.235724 
L 109.416553 146.235724 
L 110.316372 141.177873 
L 112.116009 141.177873 
L 113.915646 136.559835 
L 114.815465 136.559835 
L 115.715284 134.096881 
L 116.615102 136.559835 
L 119.314558 136.559835 
L 120.214376 129.786713 
L 121.114195 136.559835 
L 122.913832 158.29027 
L 124.713469 153.357179 
L 125.613288 153.357179 
L 126.513107 151.799361 
L 127.412925 151.799361 
L 128.312744 150.10608 
L 129.212562 154.795165 
L 131.012199 154.795165 
L 131.912018 156.126634 
L 132.811837 156.126634 
L 135.511292 153.357179 
L 138.210748 154.795165 
L 139.110567 151.799361 
L 140.010385 153.357179 
L 140.910204 151.799361 
L 141.810022 151.799361 
L 142.709841 154.795165 
L 150.808208 159.588452 
L 151.708027 158.514094 
L 153.507664 162.420848 
L 154.407483 161.535724 
L 155.307301 163.253906 
L 156.20712 162.420848 
L 158.006757 164.039361 
L 160.706213 164.039361 
L 161.606031 164.781179 
L 162.50585 164.039361 
L 163.405669 164.781179 
L 164.305487 164.039361 
L 165.205306 165.482899 
L 166.105124 166.147686 
L 167.004943 167.377543 
L 167.904761 166.778382 
L 174.203492 166.778382 
L 175.10331 166.147686 
L 176.003129 166.778382 
L 176.902947 163.482997 
L 177.802766 164.781179 
L 179.602403 163.482997 
L 180.502222 160.348363 
L 181.40204 161.762151 
L 182.301859 159.588452 
L 183.201677 160.348363 
L 185.001315 160.914254 
L 185.901133 160.914254 
L 186.800952 162.131828 
L 187.70077 162.131828 
L 188.600589 163.253906 
L 200.298231 150.10608 
L 201.198049 148.258865 
L 202.097868 148.258865 
L 202.997686 147.217543 
L 204.797323 150.686634 
L 205.697142 150.10608 
L 206.596961 150.10608 
L 207.496779 151.799361 
L 208.396598 149.635724 
L 209.296416 145.650078 
L 210.196235 146.806354 
L 211.096054 143.418693 
L 211.995872 144.212584 
L 214.695328 141.945692 
L 215.595146 142.664007 
L 216.494965 140.672088 
L 217.394784 142.398734 
L 218.294602 141.83657 
L 219.194421 140.672088 
L 220.994058 141.83657 
L 221.893877 140.608138 
L 224.593332 142.279361 
L 225.493151 143.332958 
L 226.392969 141.177873 
L 227.292788 142.279361 
L 228.192607 142.811948 
L 229.092425 141.550557 
L 232.6917 143.685724 
L 234.491337 140.259967 
L 235.391155 141.624422 
L 236.290974 139.29394 
L 237.190792 137.414103 
L 238.090611 137.414103 
L 238.99043 136.979409 
L 239.890248 136.154606 
L 240.790067 136.671788 
L 241.689885 135.467396 
L 242.589704 135.017986 
L 243.489523 135.909615 
L 244.389341 136.284505 
L 247.088797 136.344815 
L 247.988616 135.19471 
L 248.888434 135.19471 
L 249.788253 136.042803 
L 251.58789 138.411861 
L 252.487708 138.018661 
L 254.287346 136.402321 
L 255.187164 138.817543 
L 256.086983 136.457212 
L 256.986801 136.86539 
L 257.88662 136.908452 
L 258.786439 137.267475 
L 260.586076 138.817543 
L 261.485894 138.817543 
L 262.385713 138.446634 
L 263.285531 138.454415 
L 264.18535 137.735724 
L 265.984987 137.735724 
L 266.884806 138.115823 
L 269.584262 137.026947 
L 270.48408 135.572088 
L 271.383899 137.423522 
L 272.283717 137.098096 
L 274.083354 137.131592 
L 274.983173 137.818941 
L 275.882992 137.163808 
L 276.78281 137.837783 
L 277.682629 136.171567 
L 279.482266 135.651245 
L 282.181722 136.315023 
L 283.981359 131.750517 
L 287.580633 133.93027 
L 288.480452 134.846634 
L 314.575191 129.173906 
L 315.475009 130.324764 
L 316.374828 130.324764 
L 317.274647 130.162997 
L 318.174465 129.848286 
L 319.974102 129.57022 
L 320.873921 128.714046 
L 321.773739 129.124452 
L 322.673558 128.15998 
L 323.573377 128.969267 
L 324.473195 129.1094 
L 325.373014 130.312213 
L 326.272832 129.902989 
L 327.172651 131.083693 
L 328.07247 130.126786 
L 328.972288 128.947069 
L 329.872107 129.067932 
L 346.068841 127.323759 
L 346.96866 127.458452 
L 348.768297 126.529409 
L 349.668116 127.958227 
L 350.567934 128.073969 
L 351.467753 127.123996 
L 352.367571 126.425807 
L 353.26739 126.66852 
L 354.167209 125.981588 
L 355.067027 126.362662 
L 355.966846 125.693067 
L 356.866664 125.271298 
L 357.766483 124.621598 
L 358.666301 124.142444 
L 359.56612 123.258107 
L 360.465939 122.049361 
L 361.365757 122.456895 
L 362.265576 122.327125 
L 364.965032 123.239361 
L 365.86485 123.758634 
L 366.764669 123.534599 
L 367.664487 122.813727 
L 368.564306 122.463824 
L 369.464124 123.056869 
L 370.363943 123.339221 
L 371.263762 123.768556 
L 372.16358 123.699476 
L 373.063399 123.159473 
L 373.963217 122.470068 
L 374.863036 123.638801 
L 375.762855 122.143648 
L 376.662673 122.620045 
L 377.562492 121.455356 
L 378.46231 122.560676 
L 379.362129 122.707575 
L 380.261948 122.295229 
L 381.161766 121.355274 
L 382.061585 121.00528 
L 382.961403 119.686442 
L 383.861222 120.642997 
L 384.76104 119.120991 
L 385.660859 119.049774 
L 386.560678 119.73316 
L 387.460496 119.607453 
L 388.360315 118.778004 
L 389.260133 119.53027 
L 390.159952 119.085179 
L 391.059771 119.014769 
L 391.959589 117.872088 
L 392.859408 115.899919 
L 393.759226 116.542334 
L 394.659045 115.882997 
L 395.558863 116.726935 
L 396.458682 119.273487 
L 397.358501 119.505747 
L 398.258319 119.169385 
L 399.158138 118.159826 
L 400.057956 119.73929 
L 400.957775 118.074477 
L 401.857594 118.5843 
L 402.757412 118.5843 
L 403.657231 118.909768 
L 404.557049 118.909768 
L 407.256505 119.068606 
L 408.156324 119.897233 
L 409.056142 119.068606 
L 409.955961 117.555982 
L 410.855779 117.885619 
L 411.755598 116.848312 
L 412.655417 117.622737 
L 413.555235 116.600558 
L 414.455054 117.59853 
L 416.254691 116.394402 
L 417.154509 115.782136 
L 418.054328 115.379048 
L 418.954147 115.391705 
L 419.853965 115.580088 
L 420.753784 115.40449 
L 422.553421 115.767531 
L 423.45324 116.490091 
L 424.353058 116.892694 
L 426.152695 117.255604 
L 427.052514 117.652872 
L 428.852151 117.326112 
L 429.75197 114.682331 
L 430.651788 115.027606 
L 431.551607 115.712288 
L 432.451425 114.814547 
L 433.351244 115.503257 
L 434.251063 115.34357 
L 435.150881 113.207956 
L 436.0507 114.762147 
L 436.950518 114.912697 
L 437.850337 113.887856 
L 440.549793 114.600339 
L 441.449611 114.43634 
L 442.34943 113.713629 
L 443.249248 113.372028 
L 444.149067 113.878787 
L 445.048886 112.683467 
L 445.948704 112.513771 
L 446.848523 112.506179 
L 448.64816 113.534176 
L 449.547979 112.009102 
L 452.247434 133.580243 
L 454.047071 132.368331 
L 454.94689 132.368331 
L 455.846709 133.108836 
L 456.746527 133.592157 
L 457.646346 133.180344 
L 458.546164 133.538629 
L 459.445983 133.21543 
L 460.345802 133.571282 
L 461.24562 134.067439 
L 463.045257 133.892482 
L 463.945076 133.351514 
L 464.844894 133.720387 
L 465.744713 133.518841 
L 466.644532 133.551085 
L 468.444169 133.268862 
L 469.343987 132.909649 
L 470.243806 133.36775 
L 471.143625 134.069329 
L 472.943262 132.857019 
L 473.84308 133.08139 
L 476.542536 132.104511 
L 477.442355 132.511384 
L 478.342173 133.614999 
L 479.241992 135.150922 
L 479.241992 135.150922 
" clip-path="url(#p5caec5a3f6)" style="fill: none; stroke: #ffa500; stroke-width: 1.5; stroke-linecap: square"/>
   </g>
   <g id="patch_3">
    <path d="M 53.132901 198.533906 
L 53.132901 27.173906 
" style="fill: none; stroke: #000000; stroke-width: 0.8; stroke-linejoin: miter; stroke-linecap: square"/>
   </g>
   <g id="patch_4">
    <path d="M 499.532901 198.533906 
L 499.532901 27.173906 
" style="fill: none; stroke: #000000; stroke-width: 0.8; stroke-linejoin: miter; stroke-linecap: square"/>
   </g>
   <g id="patch_5">
    <path d="M 53.132901 198.533906 
L 499.532901 198.533906 
" style="fill: none; stroke: #000000; stroke-width: 0.8; stroke-linejoin: miter; stroke-linecap: square"/>
   </g>
   <g id="patch_6">
    <path d="M 53.132901 27.173906 
L 499.532901 27.173906 
" style="fill: none; stroke: #000000; stroke-width: 0.8; stroke-linejoin: miter; stroke-linecap: square"/>
   </g>
   <g id="legend_1">
    <g id="patch_7">
     <path d="M 359.971963 79.208281 
L 492.532901 79.208281 
Q 494.532901 79.208281 494.532901 77.208281 
L 494.532901 34.173906 
Q 494.532901 32.173906 492.532901 32.173906 
L 359.971963 32.173906 
Q 357.971963 32.173906 357.971963 34.173906 
L 357.971963 77.208281 
Q 357.971963 79.208281 359.971963 79.208281 
z
" style="fill: #ffffff; opacity: 0.8; stroke: #cccccc; stroke-linejoin: miter"/>
    </g>
    <g id="line2d_32">
     <path d="M 361.971963 40.272344 
L 371.971963 40.272344 
L 381.971963 40.272344 
" style="fill: none; stroke: #ff0000; stroke-width: 1.5; stroke-linecap: square"/>
    </g>
    <g id="text_24">
     <!-- Expired -->
     <g transform="translate(389.971963 43.772344)scale(0.1 -0.1)">
      <defs>
       <path id="DejaVuSans-45" d="M 628 4666 
L 3578 4666 
L 3578 4134 
L 1259 4134 
L 1259 2753 
L 3481 2753 
L 3481 2222 
L 1259 2222 
L 1259 531 
L 3634 531 
L 3634 0 
L 628 0 
L 628 4666 
z
" transform="scale(0.015625)"/>
       <path id="DejaVuSans-64" d="M 2906 2969 
L 2906 4863 
L 3481 4863 
L 3481 0 
L 2906 0 
L 2906 525 
Q 2725 213 2448 61 
Q 2172 -91 1784 -91 
Q 1150 -91 751 415 
Q 353 922 353 1747 
Q 353 2572 751 3078 
Q 1150 3584 1784 3584 
Q 2172 3584 2448 3432 
Q 2725 3281 2906 2969 
z
M 947 1747 
Q 947 1113 1208 752 
Q 1469 391 1925 391 
Q 2381 391 2643 752 
Q 2906 1113 2906 1747 
Q 2906 2381 2643 2742 
Q 2381 3103 1925 3103 
Q 1469 3103 1208 2742 
Q 947 2381 947 1747 
z
" transform="scale(0.015625)"/>
      </defs>
      <use xlink:href="#DejaVuSans-45"/>
      <use xlink:href="#DejaVuSans-78" x="63.183594"/>
      <use xlink:href="#DejaVuSans-70" x="122.363281"/>
      <use xlink:href="#DejaVuSans-69" x="185.839844"/>
      <use xlink:href="#DejaVuSans-72" x="213.623047"/>
      <use xlink:href="#DejaVuSans-65" x="252.486328"/>
      <use xlink:href="#DejaVuSans-64" x="314.009766"/>
     </g>
    </g>
    <g id="line2d_33">
     <path d="M 361.971963 54.950469 
L 371.971963 54.950469 
L 381.971963 54.950469 
" style="fill: none; stroke: #008000; stroke-width: 1.5; stroke-linecap: square"/>
    </g>
    <g id="text_25">
     <!-- Up To A Year -->
     <g transform="translate(389.971963 58.450469)scale(0.1 -0.1)">
      <defs>
       <path id="DejaVuSans-55" d="M 556 4666 
L 1191 4666 
L 1191 1831 
Q 1191 1081 1462 751 
Q 1734 422 2344 422 
Q 2950 422 3222 751 
Q 3494 1081 3494 1831 
L 3494 4666 
L 4128 4666 
L 4128 1753 
Q 4128 841 3676 375 
Q 3225 -91 2344 -91 
Q 1459 -91 1007 375 
Q 556 841 556 1753 
L 556 4666 
z
" transform="scale(0.015625)"/>
       <path id="DejaVuSans-54" d="M -19 4666 
L 3928 4666 
L 3928 4134 
L 2272 4134 
L 2272 0 
L 1638 0 
L 1638 4134 
L -19 4134 
L -19 4666 
z
" transform="scale(0.015625)"/>
       <path id="DejaVuSans-59" d="M -13 4666 
L 666 4666 
L 1959 2747 
L 3244 4666 
L 3922 4666 
L 2272 2222 
L 2272 0 
L 1638 0 
L 1638 2222 
L -13 4666 
z
" transform="scale(0.015625)"/>
      </defs>
      <use xlink:href="#DejaVuSans-55"/>
      <use xlink:href="#DejaVuSans-70" x="73.193359"/>
      <use xlink:href="#DejaVuSans-20" x="136.669922"/>
      <use xlink:href="#DejaVuSans-54" x="168.457031"/>
      <use xlink:href="#DejaVuSans-6f" x="212.541016"/>
      <use xlink:href="#DejaVuSans-20" x="273.722656"/>
      <use xlink:href="#DejaVuSans-41" x="305.509766"/>
      <use xlink:href="#DejaVuSans-20" x="373.917969"/>
      <use xlink:href="#DejaVuSans-59" x="405.705078"/>
      <use xlink:href="#DejaVuSans-65" x="453.539062"/>
      <use xlink:href="#DejaVuSans-61" x="515.0625"/>
      <use xlink:href="#DejaVuSans-72" x="576.341797"/>
     </g>
    </g>
    <g id="line2d_34">
     <path d="M 361.971963 69.628594 
L 371.971963 69.628594 
L 381.971963 69.628594 
" style="fill: none; stroke: #ffa500; stroke-width: 1.5; stroke-linecap: square"/>
    </g>
    <g id="text_26">
     <!-- Greater Than A Year -->
     <g transform="translate(389.971963 73.128594)scale(0.1 -0.1)">
      <defs>
       <path id="DejaVuSans-47" d="M 3809 666 
L 3809 1919 
L 2778 1919 
L 2778 2438 
L 4434 2438 
L 4434 434 
Q 4069 175 3628 42 
Q 3188 -91 2688 -91 
Q 1594 -91 976 548 
Q 359 1188 359 2328 
Q 359 3472 976 4111 
Q 1594 4750 2688 4750 
Q 3144 4750 3555 4637 
Q 3966 4525 4313 4306 
L 4313 3634 
Q 3963 3931 3569 4081 
Q 3175 4231 2741 4231 
Q 1884 4231 1454 3753 
Q 1025 3275 1025 2328 
Q 1025 1384 1454 906 
Q 1884 428 2741 428 
Q 3075 428 3337 486 
Q 3600 544 3809 666 
z
" transform="scale(0.015625)"/>
       <path id="DejaVuSans-68" d="M 3513 2113 
L 3513 0 
L 2938 0 
L 2938 2094 
Q 2938 2591 2744 2837 
Q 2550 3084 2163 3084 
Q 1697 3084 1428 2787 
Q 1159 2491 1159 1978 
L 1159 0 
L 581 0 
L 581 4863 
L 1159 4863 
L 1159 2956 
Q 1366 3272 1645 3428 
Q 1925 3584 2291 3584 
Q 2894 3584 3203 3211 
Q 3513 2838 3513 2113 
z
" transform="scale(0.015625)"/>
      </defs>
      <use xlink:href="#DejaVuSans-47"/>
      <use xlink:href="#DejaVuSans-72" x="77.490234"/>
      <use xlink:href="#DejaVuSans-65" x="116.353516"/>
      <use xlink:href="#DejaVuSans-61" x="177.876953"/>
      <use xlink:href="#DejaVuSans-74" x="239.15625"/>
      <use xlink:href="#DejaVuSans-65" x="278.365234"/>
      <use xlink:href="#DejaVuSans-72" x="339.888672"/>
      <use xlink:href="#DejaVuSans-20" x="381.001953"/>
      <use xlink:href="#DejaVuSans-54" x="412.789062"/>
      <use xlink:href="#DejaVuSans-68" x="473.873047"/>
      <use xlink:href="#DejaVuSans-61" x="537.251953"/>
      <use xlink:href="#DejaVuSans-6e" x="598.53125"/>
      <use xlink:href="#DejaVuSans-20" x="661.910156"/>
      <use xlink:href="#DejaVuSans-41" x="693.697266"/>
      <use xlink:href="#DejaVuSans-20" x="762.105469"/>
      <use xlink:href="#DejaVuSans-59" x="793.892578"/>
      <use xlink:href="#DejaVuSans-65" x="841.726562"/>
      <use xlink:href="#DejaVuSans-61" x="903.25"/>
      <use xlink:href="#DejaVuSans-72" x="964.529297"/>
     </g>
    </g>
   </g>
  </g>
 </g>
 <defs>
  <clipPath id="p5caec5a3f6">
   <rect x="53.132901" y="27.173906" width="446.4" height="171.36"/>
  </clipPath>
 </defs>
</svg>
