<?xml version="1.0" encoding="utf-8" standalone="no"?>
<!DOCTYPE svg PUBLIC "-//W3C//DTD SVG 1.1//EN"
  "http://www.w3.org/Graphics/SVG/1.1/DTD/svg11.dtd">
<svg xmlns:xlink="http://www.w3.org/1999/xlink" width="507.159131pt" height="252.30369pt" viewBox="0 0 507.159131 252.30369" xmlns="http://www.w3.org/2000/svg" version="1.1">
 <metadata>
  <rdf:RDF xmlns:dc="http://purl.org/dc/elements/1.1/" xmlns:cc="http://creativecommons.org/ns#" xmlns:rdf="http://www.w3.org/1999/02/22-rdf-syntax-ns#">
   <cc:Work>
    <dc:type rdf:resource="http://purl.org/dc/dcmitype/StillImage"/>
    <dc:date>2022-01-25T19:28:04.638873</dc:date>
    <dc:format>image/svg+xml</dc:format>
    <dc:creator>
     <cc:Agent>
      <dc:title>Matplotlib v3.5.1, https://matplotlib.org/</dc:title>
     </cc:Agent>
    </dc:creator>
   </cc:Work>
  </rdf:RDF>
 </metadata>
 <defs>
  <style type="text/css">*{stroke-linejoin: round; stroke-linecap: butt}</style>
 </defs>
 <g id="figure_1">
  <g id="patch_1">
   <path d="M 0 252.30369 
L 507.159131 252.30369 
L 507.159131 -0 
L 0 -0 
z
" style="fill: #ffffff"/>
  </g>
  <g id="axes_1">
   <g id="patch_2">
    <path d="M 53.559131 196.776875 
L 499.959131 196.776875 
L 499.959131 25.416875 
L 53.559131 25.416875 
z
" style="fill: #ffffff"/>
   </g>
   <g id="matplotlib.axis_1">
    <g id="xtick_1">
     <g id="line2d_1">
      <defs>
       <path id="mba75f83381" d="M 0 0 
L 0 3.5 
" style="stroke: #000000; stroke-width: 0.8"/>
      </defs>
      <g>
       <use xlink:href="#mba75f83381" x="68.024899" y="196.776875" style="stroke: #000000; stroke-width: 0.8"/>
      </g>
     </g>
     <g id="text_1">
      <!-- 2020-Nov-01 -->
      <g transform="translate(10.999219 242.680752)rotate(-30)scale(0.1 -0.1)">
       <defs>
        <path id="DejaVuSans-32" d="M 1228 531 
L 3431 531 
L 3431 0 
L 469 0 
L 469 531 
Q 828 903 1448 1529 
Q 2069 2156 2228 2338 
Q 2531 2678 2651 2914 
Q 2772 3150 2772 3378 
Q 2772 3750 2511 3984 
Q 2250 4219 1831 4219 
Q 1534 4219 1204 4116 
Q 875 4013 500 3803 
L 500 4441 
Q 881 4594 1212 4672 
Q 1544 4750 1819 4750 
Q 2544 4750 2975 4387 
Q 3406 4025 3406 3419 
Q 3406 3131 3298 2873 
Q 3191 2616 2906 2266 
Q 2828 2175 2409 1742 
Q 1991 1309 1228 531 
z
" transform="scale(0.015625)"/>
        <path id="DejaVuSans-30" d="M 2034 4250 
Q 1547 4250 1301 3770 
Q 1056 3291 1056 2328 
Q 1056 1369 1301 889 
Q 1547 409 2034 409 
Q 2525 409 2770 889 
Q 3016 1369 3016 2328 
Q 3016 3291 2770 3770 
Q 2525 4250 2034 4250 
z
M 2034 4750 
Q 2819 4750 3233 4129 
Q 3647 3509 3647 2328 
Q 3647 1150 3233 529 
Q 2819 -91 2034 -91 
Q 1250 -91 836 529 
Q 422 1150 422 2328 
Q 422 3509 836 4129 
Q 1250 4750 2034 4750 
z
" transform="scale(0.015625)"/>
        <path id="DejaVuSans-2d" d="M 313 2009 
L 1997 2009 
L 1997 1497 
L 313 1497 
L 313 2009 
z
" transform="scale(0.015625)"/>
        <path id="DejaVuSans-4e" d="M 628 4666 
L 1478 4666 
L 3547 763 
L 3547 4666 
L 4159 4666 
L 4159 0 
L 3309 0 
L 1241 3903 
L 1241 0 
L 628 0 
L 628 4666 
z
" transform="scale(0.015625)"/>
        <path id="DejaVuSans-6f" d="M 1959 3097 
Q 1497 3097 1228 2736 
Q 959 2375 959 1747 
Q 959 1119 1226 758 
Q 1494 397 1959 397 
Q 2419 397 2687 759 
Q 2956 1122 2956 1747 
Q 2956 2369 2687 2733 
Q 2419 3097 1959 3097 
z
M 1959 3584 
Q 2709 3584 3137 3096 
Q 3566 2609 3566 1747 
Q 3566 888 3137 398 
Q 2709 -91 1959 -91 
Q 1206 -91 779 398 
Q 353 888 353 1747 
Q 353 2609 779 3096 
Q 1206 3584 1959 3584 
z
" transform="scale(0.015625)"/>
        <path id="DejaVuSans-76" d="M 191 3500 
L 800 3500 
L 1894 563 
L 2988 3500 
L 3597 3500 
L 2284 0 
L 1503 0 
L 191 3500 
z
" transform="scale(0.015625)"/>
        <path id="DejaVuSans-31" d="M 794 531 
L 1825 531 
L 1825 4091 
L 703 3866 
L 703 4441 
L 1819 4666 
L 2450 4666 
L 2450 531 
L 3481 531 
L 3481 0 
L 794 0 
L 794 531 
z
" transform="scale(0.015625)"/>
       </defs>
       <use xlink:href="#DejaVuSans-32"/>
       <use xlink:href="#DejaVuSans-30" x="63.623047"/>
       <use xlink:href="#DejaVuSans-32" x="127.246094"/>
       <use xlink:href="#DejaVuSans-30" x="190.869141"/>
       <use xlink:href="#DejaVuSans-2d" x="254.492188"/>
       <use xlink:href="#DejaVuSans-4e" x="290.576172"/>
       <use xlink:href="#DejaVuSans-6f" x="365.380859"/>
       <use xlink:href="#DejaVuSans-76" x="426.5625"/>
       <use xlink:href="#DejaVuSans-2d" x="483.117188"/>
       <use xlink:href="#DejaVuSans-30" x="519.201172"/>
       <use xlink:href="#DejaVuSans-31" x="582.824219"/>
      </g>
     </g>
    </g>
    <g id="xtick_2">
     <g id="line2d_2">
      <g>
       <use xlink:href="#mba75f83381" x="97.150605" y="196.776875" style="stroke: #000000; stroke-width: 0.8"/>
      </g>
     </g>
     <g id="text_2">
      <!-- 2020-Dec-01 -->
      <g transform="translate(40.042383 242.728409)rotate(-30)scale(0.1 -0.1)">
       <defs>
        <path id="DejaVuSans-44" d="M 1259 4147 
L 1259 519 
L 2022 519 
Q 2988 519 3436 956 
Q 3884 1394 3884 2338 
Q 3884 3275 3436 3711 
Q 2988 4147 2022 4147 
L 1259 4147 
z
M 628 4666 
L 1925 4666 
Q 3281 4666 3915 4102 
Q 4550 3538 4550 2338 
Q 4550 1131 3912 565 
Q 3275 0 1925 0 
L 628 0 
L 628 4666 
z
" transform="scale(0.015625)"/>
        <path id="DejaVuSans-65" d="M 3597 1894 
L 3597 1613 
L 953 1613 
Q 991 1019 1311 708 
Q 1631 397 2203 397 
Q 2534 397 2845 478 
Q 3156 559 3463 722 
L 3463 178 
Q 3153 47 2828 -22 
Q 2503 -91 2169 -91 
Q 1331 -91 842 396 
Q 353 884 353 1716 
Q 353 2575 817 3079 
Q 1281 3584 2069 3584 
Q 2775 3584 3186 3129 
Q 3597 2675 3597 1894 
z
M 3022 2063 
Q 3016 2534 2758 2815 
Q 2500 3097 2075 3097 
Q 1594 3097 1305 2825 
Q 1016 2553 972 2059 
L 3022 2063 
z
" transform="scale(0.015625)"/>
        <path id="DejaVuSans-63" d="M 3122 3366 
L 3122 2828 
Q 2878 2963 2633 3030 
Q 2388 3097 2138 3097 
Q 1578 3097 1268 2742 
Q 959 2388 959 1747 
Q 959 1106 1268 751 
Q 1578 397 2138 397 
Q 2388 397 2633 464 
Q 2878 531 3122 666 
L 3122 134 
Q 2881 22 2623 -34 
Q 2366 -91 2075 -91 
Q 1284 -91 818 406 
Q 353 903 353 1747 
Q 353 2603 823 3093 
Q 1294 3584 2113 3584 
Q 2378 3584 2631 3529 
Q 2884 3475 3122 3366 
z
" transform="scale(0.015625)"/>
       </defs>
       <use xlink:href="#DejaVuSans-32"/>
       <use xlink:href="#DejaVuSans-30" x="63.623047"/>
       <use xlink:href="#DejaVuSans-32" x="127.246094"/>
       <use xlink:href="#DejaVuSans-30" x="190.869141"/>
       <use xlink:href="#DejaVuSans-2d" x="254.492188"/>
       <use xlink:href="#DejaVuSans-44" x="290.576172"/>
       <use xlink:href="#DejaVuSans-65" x="367.578125"/>
       <use xlink:href="#DejaVuSans-63" x="429.101562"/>
       <use xlink:href="#DejaVuSans-2d" x="484.082031"/>
       <use xlink:href="#DejaVuSans-30" x="520.166016"/>
       <use xlink:href="#DejaVuSans-31" x="583.789062"/>
      </g>
     </g>
    </g>
    <g id="xtick_3">
     <g id="line2d_3">
      <g>
       <use xlink:href="#mba75f83381" x="127.247169" y="196.776875" style="stroke: #000000; stroke-width: 0.8"/>
      </g>
     </g>
     <g id="text_3">
      <!-- 2021-Jan-01 -->
      <g transform="translate(73.060429 241.04169)rotate(-30)scale(0.1 -0.1)">
       <defs>
        <path id="DejaVuSans-4a" d="M 628 4666 
L 1259 4666 
L 1259 325 
Q 1259 -519 939 -900 
Q 619 -1281 -91 -1281 
L -331 -1281 
L -331 -750 
L -134 -750 
Q 284 -750 456 -515 
Q 628 -281 628 325 
L 628 4666 
z
" transform="scale(0.015625)"/>
        <path id="DejaVuSans-61" d="M 2194 1759 
Q 1497 1759 1228 1600 
Q 959 1441 959 1056 
Q 959 750 1161 570 
Q 1363 391 1709 391 
Q 2188 391 2477 730 
Q 2766 1069 2766 1631 
L 2766 1759 
L 2194 1759 
z
M 3341 1997 
L 3341 0 
L 2766 0 
L 2766 531 
Q 2569 213 2275 61 
Q 1981 -91 1556 -91 
Q 1019 -91 701 211 
Q 384 513 384 1019 
Q 384 1609 779 1909 
Q 1175 2209 1959 2209 
L 2766 2209 
L 2766 2266 
Q 2766 2663 2505 2880 
Q 2244 3097 1772 3097 
Q 1472 3097 1187 3025 
Q 903 2953 641 2809 
L 641 3341 
Q 956 3463 1253 3523 
Q 1550 3584 1831 3584 
Q 2591 3584 2966 3190 
Q 3341 2797 3341 1997 
z
" transform="scale(0.015625)"/>
        <path id="DejaVuSans-6e" d="M 3513 2113 
L 3513 0 
L 2938 0 
L 2938 2094 
Q 2938 2591 2744 2837 
Q 2550 3084 2163 3084 
Q 1697 3084 1428 2787 
Q 1159 2491 1159 1978 
L 1159 0 
L 581 0 
L 581 3500 
L 1159 3500 
L 1159 2956 
Q 1366 3272 1645 3428 
Q 1925 3584 2291 3584 
Q 2894 3584 3203 3211 
Q 3513 2838 3513 2113 
z
" transform="scale(0.015625)"/>
       </defs>
       <use xlink:href="#DejaVuSans-32"/>
       <use xlink:href="#DejaVuSans-30" x="63.623047"/>
       <use xlink:href="#DejaVuSans-32" x="127.246094"/>
       <use xlink:href="#DejaVuSans-31" x="190.869141"/>
       <use xlink:href="#DejaVuSans-2d" x="254.492188"/>
       <use xlink:href="#DejaVuSans-4a" x="296.201172"/>
       <use xlink:href="#DejaVuSans-61" x="325.693359"/>
       <use xlink:href="#DejaVuSans-6e" x="386.972656"/>
       <use xlink:href="#DejaVuSans-2d" x="450.351562"/>
       <use xlink:href="#DejaVuSans-30" x="486.435547"/>
       <use xlink:href="#DejaVuSans-31" x="550.058594"/>
      </g>
     </g>
    </g>
    <g id="xtick_4">
     <g id="line2d_4">
      <g>
       <use xlink:href="#mba75f83381" x="157.343733" y="196.776875" style="stroke: #000000; stroke-width: 0.8"/>
      </g>
     </g>
     <g id="text_4">
      <!-- 2021-Feb-01 -->
      <g transform="translate(101.663099 241.90419)rotate(-30)scale(0.1 -0.1)">
       <defs>
        <path id="DejaVuSans-46" d="M 628 4666 
L 3309 4666 
L 3309 4134 
L 1259 4134 
L 1259 2759 
L 3109 2759 
L 3109 2228 
L 1259 2228 
L 1259 0 
L 628 0 
L 628 4666 
z
" transform="scale(0.015625)"/>
        <path id="DejaVuSans-62" d="M 3116 1747 
Q 3116 2381 2855 2742 
Q 2594 3103 2138 3103 
Q 1681 3103 1420 2742 
Q 1159 2381 1159 1747 
Q 1159 1113 1420 752 
Q 1681 391 2138 391 
Q 2594 391 2855 752 
Q 3116 1113 3116 1747 
z
M 1159 2969 
Q 1341 3281 1617 3432 
Q 1894 3584 2278 3584 
Q 2916 3584 3314 3078 
Q 3713 2572 3713 1747 
Q 3713 922 3314 415 
Q 2916 -91 2278 -91 
Q 1894 -91 1617 61 
Q 1341 213 1159 525 
L 1159 0 
L 581 0 
L 581 4863 
L 1159 4863 
L 1159 2969 
z
" transform="scale(0.015625)"/>
       </defs>
       <use xlink:href="#DejaVuSans-32"/>
       <use xlink:href="#DejaVuSans-30" x="63.623047"/>
       <use xlink:href="#DejaVuSans-32" x="127.246094"/>
       <use xlink:href="#DejaVuSans-31" x="190.869141"/>
       <use xlink:href="#DejaVuSans-2d" x="254.492188"/>
       <use xlink:href="#DejaVuSans-46" x="290.576172"/>
       <use xlink:href="#DejaVuSans-65" x="342.595703"/>
       <use xlink:href="#DejaVuSans-62" x="404.119141"/>
       <use xlink:href="#DejaVuSans-2d" x="467.595703"/>
       <use xlink:href="#DejaVuSans-30" x="503.679688"/>
       <use xlink:href="#DejaVuSans-31" x="567.302734"/>
      </g>
     </g>
    </g>
    <g id="xtick_5">
     <g id="line2d_5">
      <g>
       <use xlink:href="#mba75f83381" x="184.527726" y="196.776875" style="stroke: #000000; stroke-width: 0.8"/>
      </g>
     </g>
     <g id="text_5">
      <!-- 2021-Mar-01 -->
      <g transform="translate(128.391075 242.167471)rotate(-30)scale(0.1 -0.1)">
       <defs>
        <path id="DejaVuSans-4d" d="M 628 4666 
L 1569 4666 
L 2759 1491 
L 3956 4666 
L 4897 4666 
L 4897 0 
L 4281 0 
L 4281 4097 
L 3078 897 
L 2444 897 
L 1241 4097 
L 1241 0 
L 628 0 
L 628 4666 
z
" transform="scale(0.015625)"/>
        <path id="DejaVuSans-72" d="M 2631 2963 
Q 2534 3019 2420 3045 
Q 2306 3072 2169 3072 
Q 1681 3072 1420 2755 
Q 1159 2438 1159 1844 
L 1159 0 
L 581 0 
L 581 3500 
L 1159 3500 
L 1159 2956 
Q 1341 3275 1631 3429 
Q 1922 3584 2338 3584 
Q 2397 3584 2469 3576 
Q 2541 3569 2628 3553 
L 2631 2963 
z
" transform="scale(0.015625)"/>
       </defs>
       <use xlink:href="#DejaVuSans-32"/>
       <use xlink:href="#DejaVuSans-30" x="63.623047"/>
       <use xlink:href="#DejaVuSans-32" x="127.246094"/>
       <use xlink:href="#DejaVuSans-31" x="190.869141"/>
       <use xlink:href="#DejaVuSans-2d" x="254.492188"/>
       <use xlink:href="#DejaVuSans-4d" x="290.576172"/>
       <use xlink:href="#DejaVuSans-61" x="376.855469"/>
       <use xlink:href="#DejaVuSans-72" x="438.134766"/>
       <use xlink:href="#DejaVuSans-2d" x="472.873047"/>
       <use xlink:href="#DejaVuSans-30" x="508.957031"/>
       <use xlink:href="#DejaVuSans-31" x="572.580078"/>
      </g>
     </g>
    </g>
    <g id="xtick_6">
     <g id="line2d_6">
      <g>
       <use xlink:href="#mba75f83381" x="214.62429" y="196.776875" style="stroke: #000000; stroke-width: 0.8"/>
      </g>
     </g>
     <g id="text_6">
      <!-- 2021-Apr-01 -->
      <g transform="translate(160.039719 241.271377)rotate(-30)scale(0.1 -0.1)">
       <defs>
        <path id="DejaVuSans-41" d="M 2188 4044 
L 1331 1722 
L 3047 1722 
L 2188 4044 
z
M 1831 4666 
L 2547 4666 
L 4325 0 
L 3669 0 
L 3244 1197 
L 1141 1197 
L 716 0 
L 50 0 
L 1831 4666 
z
" transform="scale(0.015625)"/>
        <path id="DejaVuSans-70" d="M 1159 525 
L 1159 -1331 
L 581 -1331 
L 581 3500 
L 1159 3500 
L 1159 2969 
Q 1341 3281 1617 3432 
Q 1894 3584 2278 3584 
Q 2916 3584 3314 3078 
Q 3713 2572 3713 1747 
Q 3713 922 3314 415 
Q 2916 -91 2278 -91 
Q 1894 -91 1617 61 
Q 1341 213 1159 525 
z
M 3116 1747 
Q 3116 2381 2855 2742 
Q 2594 3103 2138 3103 
Q 1681 3103 1420 2742 
Q 1159 2381 1159 1747 
Q 1159 1113 1420 752 
Q 1681 391 2138 391 
Q 2594 391 2855 752 
Q 3116 1113 3116 1747 
z
" transform="scale(0.015625)"/>
       </defs>
       <use xlink:href="#DejaVuSans-32"/>
       <use xlink:href="#DejaVuSans-30" x="63.623047"/>
       <use xlink:href="#DejaVuSans-32" x="127.246094"/>
       <use xlink:href="#DejaVuSans-31" x="190.869141"/>
       <use xlink:href="#DejaVuSans-2d" x="254.492188"/>
       <use xlink:href="#DejaVuSans-41" x="288.326172"/>
       <use xlink:href="#DejaVuSans-70" x="356.734375"/>
       <use xlink:href="#DejaVuSans-72" x="420.210938"/>
       <use xlink:href="#DejaVuSans-2d" x="454.949219"/>
       <use xlink:href="#DejaVuSans-30" x="491.033203"/>
       <use xlink:href="#DejaVuSans-31" x="554.65625"/>
      </g>
     </g>
    </g>
    <g id="xtick_7">
     <g id="line2d_7">
      <g>
       <use xlink:href="#mba75f83381" x="243.749996" y="196.776875" style="stroke: #000000; stroke-width: 0.8"/>
      </g>
     </g>
     <g id="text_7">
      <!-- 2021-May-01 -->
      <g transform="translate(185.647198 243.302627)rotate(-30)scale(0.1 -0.1)">
       <defs>
        <path id="DejaVuSans-79" d="M 2059 -325 
Q 1816 -950 1584 -1140 
Q 1353 -1331 966 -1331 
L 506 -1331 
L 506 -850 
L 844 -850 
Q 1081 -850 1212 -737 
Q 1344 -625 1503 -206 
L 1606 56 
L 191 3500 
L 800 3500 
L 1894 763 
L 2988 3500 
L 3597 3500 
L 2059 -325 
z
" transform="scale(0.015625)"/>
       </defs>
       <use xlink:href="#DejaVuSans-32"/>
       <use xlink:href="#DejaVuSans-30" x="63.623047"/>
       <use xlink:href="#DejaVuSans-32" x="127.246094"/>
       <use xlink:href="#DejaVuSans-31" x="190.869141"/>
       <use xlink:href="#DejaVuSans-2d" x="254.492188"/>
       <use xlink:href="#DejaVuSans-4d" x="290.576172"/>
       <use xlink:href="#DejaVuSans-61" x="376.855469"/>
       <use xlink:href="#DejaVuSans-79" x="438.134766"/>
       <use xlink:href="#DejaVuSans-2d" x="495.564453"/>
       <use xlink:href="#DejaVuSans-30" x="531.648438"/>
       <use xlink:href="#DejaVuSans-31" x="595.271484"/>
      </g>
     </g>
    </g>
    <g id="xtick_8">
     <g id="line2d_8">
      <g>
       <use xlink:href="#mba75f83381" x="273.84656" y="196.776875" style="stroke: #000000; stroke-width: 0.8"/>
      </g>
     </g>
     <g id="text_8">
      <!-- 2021-Jun-01 -->
      <g transform="translate(219.478496 241.146377)rotate(-30)scale(0.1 -0.1)">
       <defs>
        <path id="DejaVuSans-75" d="M 544 1381 
L 544 3500 
L 1119 3500 
L 1119 1403 
Q 1119 906 1312 657 
Q 1506 409 1894 409 
Q 2359 409 2629 706 
Q 2900 1003 2900 1516 
L 2900 3500 
L 3475 3500 
L 3475 0 
L 2900 0 
L 2900 538 
Q 2691 219 2414 64 
Q 2138 -91 1772 -91 
Q 1169 -91 856 284 
Q 544 659 544 1381 
z
M 1991 3584 
L 1991 3584 
z
" transform="scale(0.015625)"/>
       </defs>
       <use xlink:href="#DejaVuSans-32"/>
       <use xlink:href="#DejaVuSans-30" x="63.623047"/>
       <use xlink:href="#DejaVuSans-32" x="127.246094"/>
       <use xlink:href="#DejaVuSans-31" x="190.869141"/>
       <use xlink:href="#DejaVuSans-2d" x="254.492188"/>
       <use xlink:href="#DejaVuSans-4a" x="296.201172"/>
       <use xlink:href="#DejaVuSans-75" x="325.693359"/>
       <use xlink:href="#DejaVuSans-6e" x="389.072266"/>
       <use xlink:href="#DejaVuSans-2d" x="452.451172"/>
       <use xlink:href="#DejaVuSans-30" x="488.535156"/>
       <use xlink:href="#DejaVuSans-31" x="552.158203"/>
      </g>
     </g>
    </g>
    <g id="xtick_9">
     <g id="line2d_9">
      <g>
       <use xlink:href="#mba75f83381" x="302.972267" y="196.776875" style="stroke: #000000; stroke-width: 0.8"/>
      </g>
     </g>
     <g id="text_9">
      <!-- 2021-Jul-01 -->
      <g transform="translate(251.686712 239.36669)rotate(-30)scale(0.1 -0.1)">
       <defs>
        <path id="DejaVuSans-6c" d="M 603 4863 
L 1178 4863 
L 1178 0 
L 603 0 
L 603 4863 
z
" transform="scale(0.015625)"/>
       </defs>
       <use xlink:href="#DejaVuSans-32"/>
       <use xlink:href="#DejaVuSans-30" x="63.623047"/>
       <use xlink:href="#DejaVuSans-32" x="127.246094"/>
       <use xlink:href="#DejaVuSans-31" x="190.869141"/>
       <use xlink:href="#DejaVuSans-2d" x="254.492188"/>
       <use xlink:href="#DejaVuSans-4a" x="296.201172"/>
       <use xlink:href="#DejaVuSans-75" x="325.693359"/>
       <use xlink:href="#DejaVuSans-6c" x="389.072266"/>
       <use xlink:href="#DejaVuSans-2d" x="416.855469"/>
       <use xlink:href="#DejaVuSans-30" x="452.939453"/>
       <use xlink:href="#DejaVuSans-31" x="516.5625"/>
      </g>
     </g>
    </g>
    <g id="xtick_10">
     <g id="line2d_10">
      <g>
       <use xlink:href="#mba75f83381" x="333.068831" y="196.776875" style="stroke: #000000; stroke-width: 0.8"/>
      </g>
     </g>
     <g id="text_10">
      <!-- 2021-Aug-01 -->
      <g transform="translate(276.003909 242.703409)rotate(-30)scale(0.1 -0.1)">
       <defs>
        <path id="DejaVuSans-67" d="M 2906 1791 
Q 2906 2416 2648 2759 
Q 2391 3103 1925 3103 
Q 1463 3103 1205 2759 
Q 947 2416 947 1791 
Q 947 1169 1205 825 
Q 1463 481 1925 481 
Q 2391 481 2648 825 
Q 2906 1169 2906 1791 
z
M 3481 434 
Q 3481 -459 3084 -895 
Q 2688 -1331 1869 -1331 
Q 1566 -1331 1297 -1286 
Q 1028 -1241 775 -1147 
L 775 -588 
Q 1028 -725 1275 -790 
Q 1522 -856 1778 -856 
Q 2344 -856 2625 -561 
Q 2906 -266 2906 331 
L 2906 616 
Q 2728 306 2450 153 
Q 2172 0 1784 0 
Q 1141 0 747 490 
Q 353 981 353 1791 
Q 353 2603 747 3093 
Q 1141 3584 1784 3584 
Q 2172 3584 2450 3431 
Q 2728 3278 2906 2969 
L 2906 3500 
L 3481 3500 
L 3481 434 
z
" transform="scale(0.015625)"/>
       </defs>
       <use xlink:href="#DejaVuSans-32"/>
       <use xlink:href="#DejaVuSans-30" x="63.623047"/>
       <use xlink:href="#DejaVuSans-32" x="127.246094"/>
       <use xlink:href="#DejaVuSans-31" x="190.869141"/>
       <use xlink:href="#DejaVuSans-2d" x="254.492188"/>
       <use xlink:href="#DejaVuSans-41" x="288.326172"/>
       <use xlink:href="#DejaVuSans-75" x="356.734375"/>
       <use xlink:href="#DejaVuSans-67" x="420.113281"/>
       <use xlink:href="#DejaVuSans-2d" x="483.589844"/>
       <use xlink:href="#DejaVuSans-30" x="519.673828"/>
       <use xlink:href="#DejaVuSans-31" x="583.296875"/>
      </g>
     </g>
    </g>
    <g id="xtick_11">
     <g id="line2d_11">
      <g>
       <use xlink:href="#mba75f83381" x="363.165394" y="196.776875" style="stroke: #000000; stroke-width: 0.8"/>
      </g>
     </g>
     <g id="text_11">
      <!-- 2021-Sep-01 -->
      <g transform="translate(306.491537 242.477627)rotate(-30)scale(0.1 -0.1)">
       <defs>
        <path id="DejaVuSans-53" d="M 3425 4513 
L 3425 3897 
Q 3066 4069 2747 4153 
Q 2428 4238 2131 4238 
Q 1616 4238 1336 4038 
Q 1056 3838 1056 3469 
Q 1056 3159 1242 3001 
Q 1428 2844 1947 2747 
L 2328 2669 
Q 3034 2534 3370 2195 
Q 3706 1856 3706 1288 
Q 3706 609 3251 259 
Q 2797 -91 1919 -91 
Q 1588 -91 1214 -16 
Q 841 59 441 206 
L 441 856 
Q 825 641 1194 531 
Q 1563 422 1919 422 
Q 2459 422 2753 634 
Q 3047 847 3047 1241 
Q 3047 1584 2836 1778 
Q 2625 1972 2144 2069 
L 1759 2144 
Q 1053 2284 737 2584 
Q 422 2884 422 3419 
Q 422 4038 858 4394 
Q 1294 4750 2059 4750 
Q 2388 4750 2728 4690 
Q 3069 4631 3425 4513 
z
" transform="scale(0.015625)"/>
       </defs>
       <use xlink:href="#DejaVuSans-32"/>
       <use xlink:href="#DejaVuSans-30" x="63.623047"/>
       <use xlink:href="#DejaVuSans-32" x="127.246094"/>
       <use xlink:href="#DejaVuSans-31" x="190.869141"/>
       <use xlink:href="#DejaVuSans-2d" x="254.492188"/>
       <use xlink:href="#DejaVuSans-53" x="290.576172"/>
       <use xlink:href="#DejaVuSans-65" x="354.052734"/>
       <use xlink:href="#DejaVuSans-70" x="415.576172"/>
       <use xlink:href="#DejaVuSans-2d" x="479.052734"/>
       <use xlink:href="#DejaVuSans-30" x="515.136719"/>
       <use xlink:href="#DejaVuSans-31" x="578.759766"/>
      </g>
     </g>
    </g>
    <g id="xtick_12">
     <g id="line2d_12">
      <g>
       <use xlink:href="#mba75f83381" x="392.291101" y="196.776875" style="stroke: #000000; stroke-width: 0.8"/>
      </g>
     </g>
     <g id="text_12">
      <!-- 2021-Oct-01 -->
      <g transform="translate(336.729546 241.83544)rotate(-30)scale(0.1 -0.1)">
       <defs>
        <path id="DejaVuSans-4f" d="M 2522 4238 
Q 1834 4238 1429 3725 
Q 1025 3213 1025 2328 
Q 1025 1447 1429 934 
Q 1834 422 2522 422 
Q 3209 422 3611 934 
Q 4013 1447 4013 2328 
Q 4013 3213 3611 3725 
Q 3209 4238 2522 4238 
z
M 2522 4750 
Q 3503 4750 4090 4092 
Q 4678 3434 4678 2328 
Q 4678 1225 4090 567 
Q 3503 -91 2522 -91 
Q 1538 -91 948 565 
Q 359 1222 359 2328 
Q 359 3434 948 4092 
Q 1538 4750 2522 4750 
z
" transform="scale(0.015625)"/>
        <path id="DejaVuSans-74" d="M 1172 4494 
L 1172 3500 
L 2356 3500 
L 2356 3053 
L 1172 3053 
L 1172 1153 
Q 1172 725 1289 603 
Q 1406 481 1766 481 
L 2356 481 
L 2356 0 
L 1766 0 
Q 1100 0 847 248 
Q 594 497 594 1153 
L 594 3053 
L 172 3053 
L 172 3500 
L 594 3500 
L 594 4494 
L 1172 4494 
z
" transform="scale(0.015625)"/>
       </defs>
       <use xlink:href="#DejaVuSans-32"/>
       <use xlink:href="#DejaVuSans-30" x="63.623047"/>
       <use xlink:href="#DejaVuSans-32" x="127.246094"/>
       <use xlink:href="#DejaVuSans-31" x="190.869141"/>
       <use xlink:href="#DejaVuSans-2d" x="254.492188"/>
       <use xlink:href="#DejaVuSans-4f" x="293.326172"/>
       <use xlink:href="#DejaVuSans-63" x="372.037109"/>
       <use xlink:href="#DejaVuSans-74" x="427.017578"/>
       <use xlink:href="#DejaVuSans-2d" x="466.226562"/>
       <use xlink:href="#DejaVuSans-30" x="502.310547"/>
       <use xlink:href="#DejaVuSans-31" x="565.933594"/>
      </g>
     </g>
    </g>
    <g id="xtick_13">
     <g id="line2d_13">
      <g>
       <use xlink:href="#mba75f83381" x="422.387665" y="196.776875" style="stroke: #000000; stroke-width: 0.8"/>
      </g>
     </g>
     <g id="text_13">
      <!-- 2021-Nov-01 -->
      <g transform="translate(365.361985 242.680752)rotate(-30)scale(0.1 -0.1)">
       <use xlink:href="#DejaVuSans-32"/>
       <use xlink:href="#DejaVuSans-30" x="63.623047"/>
       <use xlink:href="#DejaVuSans-32" x="127.246094"/>
       <use xlink:href="#DejaVuSans-31" x="190.869141"/>
       <use xlink:href="#DejaVuSans-2d" x="254.492188"/>
       <use xlink:href="#DejaVuSans-4e" x="290.576172"/>
       <use xlink:href="#DejaVuSans-6f" x="365.380859"/>
       <use xlink:href="#DejaVuSans-76" x="426.5625"/>
       <use xlink:href="#DejaVuSans-2d" x="483.117188"/>
       <use xlink:href="#DejaVuSans-30" x="519.201172"/>
       <use xlink:href="#DejaVuSans-31" x="582.824219"/>
      </g>
     </g>
    </g>
    <g id="xtick_14">
     <g id="line2d_14">
      <g>
       <use xlink:href="#mba75f83381" x="451.513372" y="196.776875" style="stroke: #000000; stroke-width: 0.8"/>
      </g>
     </g>
     <g id="text_14">
      <!-- 2021-Dec-01 -->
      <g transform="translate(394.405149 242.728409)rotate(-30)scale(0.1 -0.1)">
       <use xlink:href="#DejaVuSans-32"/>
       <use xlink:href="#DejaVuSans-30" x="63.623047"/>
       <use xlink:href="#DejaVuSans-32" x="127.246094"/>
       <use xlink:href="#DejaVuSans-31" x="190.869141"/>
       <use xlink:href="#DejaVuSans-2d" x="254.492188"/>
       <use xlink:href="#DejaVuSans-44" x="290.576172"/>
       <use xlink:href="#DejaVuSans-65" x="367.578125"/>
       <use xlink:href="#DejaVuSans-63" x="429.101562"/>
       <use xlink:href="#DejaVuSans-2d" x="484.082031"/>
       <use xlink:href="#DejaVuSans-30" x="520.166016"/>
       <use xlink:href="#DejaVuSans-31" x="583.789062"/>
      </g>
     </g>
    </g>
    <g id="xtick_15">
     <g id="line2d_15">
      <g>
       <use xlink:href="#mba75f83381" x="481.609935" y="196.776875" style="stroke: #000000; stroke-width: 0.8"/>
      </g>
     </g>
     <g id="text_15">
      <!-- 2022-Jan-01 -->
      <g transform="translate(427.423195 241.04169)rotate(-30)scale(0.1 -0.1)">
       <use xlink:href="#DejaVuSans-32"/>
       <use xlink:href="#DejaVuSans-30" x="63.623047"/>
       <use xlink:href="#DejaVuSans-32" x="127.246094"/>
       <use xlink:href="#DejaVuSans-32" x="190.869141"/>
       <use xlink:href="#DejaVuSans-2d" x="254.492188"/>
       <use xlink:href="#DejaVuSans-4a" x="296.201172"/>
       <use xlink:href="#DejaVuSans-61" x="325.693359"/>
       <use xlink:href="#DejaVuSans-6e" x="386.972656"/>
       <use xlink:href="#DejaVuSans-2d" x="450.351562"/>
       <use xlink:href="#DejaVuSans-30" x="486.435547"/>
       <use xlink:href="#DejaVuSans-31" x="550.058594"/>
      </g>
     </g>
    </g>
   </g>
   <g id="matplotlib.axis_2">
    <g id="ytick_1">
     <g id="line2d_16">
      <path d="M 53.559131 196.776875 
L 499.959131 196.776875 
" clip-path="url(#pe0190ee44b)" style="fill: none; stroke: #b0b0b0; stroke-width: 0.8; stroke-linecap: square"/>
     </g>
     <g id="line2d_17">
      <defs>
       <path id="m729fa99f54" d="M 0 0 
L -3.5 0 
" style="stroke: #000000; stroke-width: 0.8"/>
      </defs>
      <g>
       <use xlink:href="#m729fa99f54" x="53.559131" y="196.776875" style="stroke: #000000; stroke-width: 0.8"/>
      </g>
     </g>
     <g id="text_16">
      <!-- 0 -->
      <g transform="translate(40.196631 200.576094)scale(0.1 -0.1)">
       <use xlink:href="#DejaVuSans-30"/>
      </g>
     </g>
    </g>
    <g id="ytick_2">
     <g id="line2d_18">
      <path d="M 53.559131 175.356875 
L 499.959131 175.356875 
" clip-path="url(#pe0190ee44b)" style="fill: none; stroke: #b0b0b0; stroke-width: 0.8; stroke-linecap: square"/>
     </g>
     <g id="line2d_19">
      <g>
       <use xlink:href="#m729fa99f54" x="53.559131" y="175.356875" style="stroke: #000000; stroke-width: 0.8"/>
      </g>
     </g>
     <g id="text_17">
      <!-- 3 -->
      <g transform="translate(40.196631 179.156094)scale(0.1 -0.1)">
       <defs>
        <path id="DejaVuSans-33" d="M 2597 2516 
Q 3050 2419 3304 2112 
Q 3559 1806 3559 1356 
Q 3559 666 3084 287 
Q 2609 -91 1734 -91 
Q 1441 -91 1130 -33 
Q 819 25 488 141 
L 488 750 
Q 750 597 1062 519 
Q 1375 441 1716 441 
Q 2309 441 2620 675 
Q 2931 909 2931 1356 
Q 2931 1769 2642 2001 
Q 2353 2234 1838 2234 
L 1294 2234 
L 1294 2753 
L 1863 2753 
Q 2328 2753 2575 2939 
Q 2822 3125 2822 3475 
Q 2822 3834 2567 4026 
Q 2313 4219 1838 4219 
Q 1578 4219 1281 4162 
Q 984 4106 628 3988 
L 628 4550 
Q 988 4650 1302 4700 
Q 1616 4750 1894 4750 
Q 2613 4750 3031 4423 
Q 3450 4097 3450 3541 
Q 3450 3153 3228 2886 
Q 3006 2619 2597 2516 
z
" transform="scale(0.015625)"/>
       </defs>
       <use xlink:href="#DejaVuSans-33"/>
      </g>
     </g>
    </g>
    <g id="ytick_3">
     <g id="line2d_20">
      <path d="M 53.559131 153.936875 
L 499.959131 153.936875 
" clip-path="url(#pe0190ee44b)" style="fill: none; stroke: #b0b0b0; stroke-width: 0.8; stroke-linecap: square"/>
     </g>
     <g id="line2d_21">
      <g>
       <use xlink:href="#m729fa99f54" x="53.559131" y="153.936875" style="stroke: #000000; stroke-width: 0.8"/>
      </g>
     </g>
     <g id="text_18">
      <!-- 6 -->
      <g transform="translate(40.196631 157.736094)scale(0.1 -0.1)">
       <defs>
        <path id="DejaVuSans-36" d="M 2113 2584 
Q 1688 2584 1439 2293 
Q 1191 2003 1191 1497 
Q 1191 994 1439 701 
Q 1688 409 2113 409 
Q 2538 409 2786 701 
Q 3034 994 3034 1497 
Q 3034 2003 2786 2293 
Q 2538 2584 2113 2584 
z
M 3366 4563 
L 3366 3988 
Q 3128 4100 2886 4159 
Q 2644 4219 2406 4219 
Q 1781 4219 1451 3797 
Q 1122 3375 1075 2522 
Q 1259 2794 1537 2939 
Q 1816 3084 2150 3084 
Q 2853 3084 3261 2657 
Q 3669 2231 3669 1497 
Q 3669 778 3244 343 
Q 2819 -91 2113 -91 
Q 1303 -91 875 529 
Q 447 1150 447 2328 
Q 447 3434 972 4092 
Q 1497 4750 2381 4750 
Q 2619 4750 2861 4703 
Q 3103 4656 3366 4563 
z
" transform="scale(0.015625)"/>
       </defs>
       <use xlink:href="#DejaVuSans-36"/>
      </g>
     </g>
    </g>
    <g id="ytick_4">
     <g id="line2d_22">
      <path d="M 53.559131 132.516875 
L 499.959131 132.516875 
" clip-path="url(#pe0190ee44b)" style="fill: none; stroke: #b0b0b0; stroke-width: 0.8; stroke-linecap: square"/>
     </g>
     <g id="line2d_23">
      <g>
       <use xlink:href="#m729fa99f54" x="53.559131" y="132.516875" style="stroke: #000000; stroke-width: 0.8"/>
      </g>
     </g>
     <g id="text_19">
      <!-- 9 -->
      <g transform="translate(40.196631 136.316094)scale(0.1 -0.1)">
       <defs>
        <path id="DejaVuSans-39" d="M 703 97 
L 703 672 
Q 941 559 1184 500 
Q 1428 441 1663 441 
Q 2288 441 2617 861 
Q 2947 1281 2994 2138 
Q 2813 1869 2534 1725 
Q 2256 1581 1919 1581 
Q 1219 1581 811 2004 
Q 403 2428 403 3163 
Q 403 3881 828 4315 
Q 1253 4750 1959 4750 
Q 2769 4750 3195 4129 
Q 3622 3509 3622 2328 
Q 3622 1225 3098 567 
Q 2575 -91 1691 -91 
Q 1453 -91 1209 -44 
Q 966 3 703 97 
z
M 1959 2075 
Q 2384 2075 2632 2365 
Q 2881 2656 2881 3163 
Q 2881 3666 2632 3958 
Q 2384 4250 1959 4250 
Q 1534 4250 1286 3958 
Q 1038 3666 1038 3163 
Q 1038 2656 1286 2365 
Q 1534 2075 1959 2075 
z
" transform="scale(0.015625)"/>
       </defs>
       <use xlink:href="#DejaVuSans-39"/>
      </g>
     </g>
    </g>
    <g id="ytick_5">
     <g id="line2d_24">
      <path d="M 53.559131 111.096875 
L 499.959131 111.096875 
" clip-path="url(#pe0190ee44b)" style="fill: none; stroke: #b0b0b0; stroke-width: 0.8; stroke-linecap: square"/>
     </g>
     <g id="line2d_25">
      <g>
       <use xlink:href="#m729fa99f54" x="53.559131" y="111.096875" style="stroke: #000000; stroke-width: 0.8"/>
      </g>
     </g>
     <g id="text_20">
      <!-- 12 -->
      <g transform="translate(33.834131 114.896094)scale(0.1 -0.1)">
       <use xlink:href="#DejaVuSans-31"/>
       <use xlink:href="#DejaVuSans-32" x="63.623047"/>
      </g>
     </g>
    </g>
    <g id="ytick_6">
     <g id="line2d_26">
      <path d="M 53.559131 89.676875 
L 499.959131 89.676875 
" clip-path="url(#pe0190ee44b)" style="fill: none; stroke: #b0b0b0; stroke-width: 0.8; stroke-linecap: square"/>
     </g>
     <g id="line2d_27">
      <g>
       <use xlink:href="#m729fa99f54" x="53.559131" y="89.676875" style="stroke: #000000; stroke-width: 0.8"/>
      </g>
     </g>
     <g id="text_21">
      <!-- 15 -->
      <g transform="translate(33.834131 93.476094)scale(0.1 -0.1)">
       <defs>
        <path id="DejaVuSans-35" d="M 691 4666 
L 3169 4666 
L 3169 4134 
L 1269 4134 
L 1269 2991 
Q 1406 3038 1543 3061 
Q 1681 3084 1819 3084 
Q 2600 3084 3056 2656 
Q 3513 2228 3513 1497 
Q 3513 744 3044 326 
Q 2575 -91 1722 -91 
Q 1428 -91 1123 -41 
Q 819 9 494 109 
L 494 744 
Q 775 591 1075 516 
Q 1375 441 1709 441 
Q 2250 441 2565 725 
Q 2881 1009 2881 1497 
Q 2881 1984 2565 2268 
Q 2250 2553 1709 2553 
Q 1456 2553 1204 2497 
Q 953 2441 691 2322 
L 691 4666 
z
" transform="scale(0.015625)"/>
       </defs>
       <use xlink:href="#DejaVuSans-31"/>
       <use xlink:href="#DejaVuSans-35" x="63.623047"/>
      </g>
     </g>
    </g>
    <g id="ytick_7">
     <g id="line2d_28">
      <path d="M 53.559131 68.256875 
L 499.959131 68.256875 
" clip-path="url(#pe0190ee44b)" style="fill: none; stroke: #b0b0b0; stroke-width: 0.8; stroke-linecap: square"/>
     </g>
     <g id="line2d_29">
      <g>
       <use xlink:href="#m729fa99f54" x="53.559131" y="68.256875" style="stroke: #000000; stroke-width: 0.8"/>
      </g>
     </g>
     <g id="text_22">
      <!-- 18 -->
      <g transform="translate(33.834131 72.056094)scale(0.1 -0.1)">
       <defs>
        <path id="DejaVuSans-38" d="M 2034 2216 
Q 1584 2216 1326 1975 
Q 1069 1734 1069 1313 
Q 1069 891 1326 650 
Q 1584 409 2034 409 
Q 2484 409 2743 651 
Q 3003 894 3003 1313 
Q 3003 1734 2745 1975 
Q 2488 2216 2034 2216 
z
M 1403 2484 
Q 997 2584 770 2862 
Q 544 3141 544 3541 
Q 544 4100 942 4425 
Q 1341 4750 2034 4750 
Q 2731 4750 3128 4425 
Q 3525 4100 3525 3541 
Q 3525 3141 3298 2862 
Q 3072 2584 2669 2484 
Q 3125 2378 3379 2068 
Q 3634 1759 3634 1313 
Q 3634 634 3220 271 
Q 2806 -91 2034 -91 
Q 1263 -91 848 271 
Q 434 634 434 1313 
Q 434 1759 690 2068 
Q 947 2378 1403 2484 
z
M 1172 3481 
Q 1172 3119 1398 2916 
Q 1625 2713 2034 2713 
Q 2441 2713 2670 2916 
Q 2900 3119 2900 3481 
Q 2900 3844 2670 4047 
Q 2441 4250 2034 4250 
Q 1625 4250 1398 4047 
Q 1172 3844 1172 3481 
z
" transform="scale(0.015625)"/>
       </defs>
       <use xlink:href="#DejaVuSans-31"/>
       <use xlink:href="#DejaVuSans-38" x="63.623047"/>
      </g>
     </g>
    </g>
    <g id="ytick_8">
     <g id="line2d_30">
      <path d="M 53.559131 46.836875 
L 499.959131 46.836875 
" clip-path="url(#pe0190ee44b)" style="fill: none; stroke: #b0b0b0; stroke-width: 0.8; stroke-linecap: square"/>
     </g>
     <g id="line2d_31">
      <g>
       <use xlink:href="#m729fa99f54" x="53.559131" y="46.836875" style="stroke: #000000; stroke-width: 0.8"/>
      </g>
     </g>
     <g id="text_23">
      <!-- 21 -->
      <g transform="translate(33.834131 50.636094)scale(0.1 -0.1)">
       <use xlink:href="#DejaVuSans-32"/>
       <use xlink:href="#DejaVuSans-31" x="63.623047"/>
      </g>
     </g>
    </g>
    <g id="ytick_9">
     <g id="line2d_32">
      <path d="M 53.559131 25.416875 
L 499.959131 25.416875 
" clip-path="url(#pe0190ee44b)" style="fill: none; stroke: #b0b0b0; stroke-width: 0.8; stroke-linecap: square"/>
     </g>
     <g id="line2d_33">
      <g>
       <use xlink:href="#m729fa99f54" x="53.559131" y="25.416875" style="stroke: #000000; stroke-width: 0.8"/>
      </g>
     </g>
     <g id="text_24">
      <!-- 24 -->
      <g transform="translate(33.834131 29.216094)scale(0.1 -0.1)">
       <defs>
        <path id="DejaVuSans-34" d="M 2419 4116 
L 825 1625 
L 2419 1625 
L 2419 4116 
z
M 2253 4666 
L 3047 4666 
L 3047 1625 
L 3713 1625 
L 3713 1100 
L 3047 1100 
L 3047 0 
L 2419 0 
L 2419 1100 
L 313 1100 
L 313 1709 
L 2253 4666 
z
" transform="scale(0.015625)"/>
       </defs>
       <use xlink:href="#DejaVuSans-32"/>
       <use xlink:href="#DejaVuSans-34" x="63.623047"/>
      </g>
     </g>
    </g>
    <g id="text_25">
     <!-- Percentage Of Domains Using security.txt -->
     <g transform="translate(27.754443 214.99375)rotate(-90)scale(0.1 -0.1)">
      <defs>
       <path id="DejaVuSans-50" d="M 1259 4147 
L 1259 2394 
L 2053 2394 
Q 2494 2394 2734 2622 
Q 2975 2850 2975 3272 
Q 2975 3691 2734 3919 
Q 2494 4147 2053 4147 
L 1259 4147 
z
M 628 4666 
L 2053 4666 
Q 2838 4666 3239 4311 
Q 3641 3956 3641 3272 
Q 3641 2581 3239 2228 
Q 2838 1875 2053 1875 
L 1259 1875 
L 1259 0 
L 628 0 
L 628 4666 
z
" transform="scale(0.015625)"/>
       <path id="DejaVuSans-20" transform="scale(0.015625)"/>
       <path id="DejaVuSans-66" d="M 2375 4863 
L 2375 4384 
L 1825 4384 
Q 1516 4384 1395 4259 
Q 1275 4134 1275 3809 
L 1275 3500 
L 2222 3500 
L 2222 3053 
L 1275 3053 
L 1275 0 
L 697 0 
L 697 3053 
L 147 3053 
L 147 3500 
L 697 3500 
L 697 3744 
Q 697 4328 969 4595 
Q 1241 4863 1831 4863 
L 2375 4863 
z
" transform="scale(0.015625)"/>
       <path id="DejaVuSans-6d" d="M 3328 2828 
Q 3544 3216 3844 3400 
Q 4144 3584 4550 3584 
Q 5097 3584 5394 3201 
Q 5691 2819 5691 2113 
L 5691 0 
L 5113 0 
L 5113 2094 
Q 5113 2597 4934 2840 
Q 4756 3084 4391 3084 
Q 3944 3084 3684 2787 
Q 3425 2491 3425 1978 
L 3425 0 
L 2847 0 
L 2847 2094 
Q 2847 2600 2669 2842 
Q 2491 3084 2119 3084 
Q 1678 3084 1418 2786 
Q 1159 2488 1159 1978 
L 1159 0 
L 581 0 
L 581 3500 
L 1159 3500 
L 1159 2956 
Q 1356 3278 1631 3431 
Q 1906 3584 2284 3584 
Q 2666 3584 2933 3390 
Q 3200 3197 3328 2828 
z
" transform="scale(0.015625)"/>
       <path id="DejaVuSans-69" d="M 603 3500 
L 1178 3500 
L 1178 0 
L 603 0 
L 603 3500 
z
M 603 4863 
L 1178 4863 
L 1178 4134 
L 603 4134 
L 603 4863 
z
" transform="scale(0.015625)"/>
       <path id="DejaVuSans-73" d="M 2834 3397 
L 2834 2853 
Q 2591 2978 2328 3040 
Q 2066 3103 1784 3103 
Q 1356 3103 1142 2972 
Q 928 2841 928 2578 
Q 928 2378 1081 2264 
Q 1234 2150 1697 2047 
L 1894 2003 
Q 2506 1872 2764 1633 
Q 3022 1394 3022 966 
Q 3022 478 2636 193 
Q 2250 -91 1575 -91 
Q 1294 -91 989 -36 
Q 684 19 347 128 
L 347 722 
Q 666 556 975 473 
Q 1284 391 1588 391 
Q 1994 391 2212 530 
Q 2431 669 2431 922 
Q 2431 1156 2273 1281 
Q 2116 1406 1581 1522 
L 1381 1569 
Q 847 1681 609 1914 
Q 372 2147 372 2553 
Q 372 3047 722 3315 
Q 1072 3584 1716 3584 
Q 2034 3584 2315 3537 
Q 2597 3491 2834 3397 
z
" transform="scale(0.015625)"/>
       <path id="DejaVuSans-55" d="M 556 4666 
L 1191 4666 
L 1191 1831 
Q 1191 1081 1462 751 
Q 1734 422 2344 422 
Q 2950 422 3222 751 
Q 3494 1081 3494 1831 
L 3494 4666 
L 4128 4666 
L 4128 1753 
Q 4128 841 3676 375 
Q 3225 -91 2344 -91 
Q 1459 -91 1007 375 
Q 556 841 556 1753 
L 556 4666 
z
" transform="scale(0.015625)"/>
       <path id="DejaVuSans-2e" d="M 684 794 
L 1344 794 
L 1344 0 
L 684 0 
L 684 794 
z
" transform="scale(0.015625)"/>
       <path id="DejaVuSans-78" d="M 3513 3500 
L 2247 1797 
L 3578 0 
L 2900 0 
L 1881 1375 
L 863 0 
L 184 0 
L 1544 1831 
L 300 3500 
L 978 3500 
L 1906 2253 
L 2834 3500 
L 3513 3500 
z
" transform="scale(0.015625)"/>
      </defs>
      <use xlink:href="#DejaVuSans-50"/>
      <use xlink:href="#DejaVuSans-65" x="56.677734"/>
      <use xlink:href="#DejaVuSans-72" x="118.201172"/>
      <use xlink:href="#DejaVuSans-63" x="157.064453"/>
      <use xlink:href="#DejaVuSans-65" x="212.044922"/>
      <use xlink:href="#DejaVuSans-6e" x="273.568359"/>
      <use xlink:href="#DejaVuSans-74" x="336.947266"/>
      <use xlink:href="#DejaVuSans-61" x="376.15625"/>
      <use xlink:href="#DejaVuSans-67" x="437.435547"/>
      <use xlink:href="#DejaVuSans-65" x="500.912109"/>
      <use xlink:href="#DejaVuSans-20" x="562.435547"/>
      <use xlink:href="#DejaVuSans-4f" x="594.222656"/>
      <use xlink:href="#DejaVuSans-66" x="672.933594"/>
      <use xlink:href="#DejaVuSans-20" x="708.138672"/>
      <use xlink:href="#DejaVuSans-44" x="739.925781"/>
      <use xlink:href="#DejaVuSans-6f" x="816.927734"/>
      <use xlink:href="#DejaVuSans-6d" x="878.109375"/>
      <use xlink:href="#DejaVuSans-61" x="975.521484"/>
      <use xlink:href="#DejaVuSans-69" x="1036.800781"/>
      <use xlink:href="#DejaVuSans-6e" x="1064.583984"/>
      <use xlink:href="#DejaVuSans-73" x="1127.962891"/>
      <use xlink:href="#DejaVuSans-20" x="1180.0625"/>
      <use xlink:href="#DejaVuSans-55" x="1211.849609"/>
      <use xlink:href="#DejaVuSans-73" x="1285.042969"/>
      <use xlink:href="#DejaVuSans-69" x="1337.142578"/>
      <use xlink:href="#DejaVuSans-6e" x="1364.925781"/>
      <use xlink:href="#DejaVuSans-67" x="1428.304688"/>
      <use xlink:href="#DejaVuSans-20" x="1491.78125"/>
      <use xlink:href="#DejaVuSans-73" x="1523.568359"/>
      <use xlink:href="#DejaVuSans-65" x="1575.667969"/>
      <use xlink:href="#DejaVuSans-63" x="1637.191406"/>
      <use xlink:href="#DejaVuSans-75" x="1692.171875"/>
      <use xlink:href="#DejaVuSans-72" x="1755.550781"/>
      <use xlink:href="#DejaVuSans-69" x="1796.664062"/>
      <use xlink:href="#DejaVuSans-74" x="1824.447266"/>
      <use xlink:href="#DejaVuSans-79" x="1863.65625"/>
      <use xlink:href="#DejaVuSans-2e" x="1908.585938"/>
      <use xlink:href="#DejaVuSans-74" x="1940.373047"/>
      <use xlink:href="#DejaVuSans-78" x="1979.582031"/>
      <use xlink:href="#DejaVuSans-74" x="2038.761719"/>
     </g>
    </g>
   </g>
   <g id="line2d_34">
    <path d="M 73.85004 92.28907 
L 74.820897 109.703704 
L 76.762611 109.703704 
L 77.733467 100.996387 
L 79.675181 100.996387 
L 80.646038 92.28907 
L 82.587752 92.28907 
L 83.558609 100.996387 
L 84.529466 92.28907 
L 85.500323 100.996387 
L 86.47118 135.825655 
L 87.442036 109.703704 
L 88.412893 100.996387 
L 91.325464 100.996387 
L 92.296321 92.28907 
L 93.267178 109.703704 
L 94.238035 100.996387 
L 95.208892 100.996387 
L 96.179748 92.28907 
L 97.150605 109.703704 
L 98.121462 109.703704 
L 99.092319 92.28907 
L 100.063176 92.28907 
L 101.034033 100.996387 
L 102.00489 100.996387 
L 102.975747 92.28907 
L 105.888317 92.28907 
L 106.859174 100.996387 
L 107.830031 92.28907 
L 108.800888 100.996387 
L 109.771745 92.28907 
L 110.742602 109.703704 
L 111.713459 92.28907 
L 112.684316 92.28907 
L 113.655173 100.996387 
L 115.596886 92.28907 
L 116.567743 100.996387 
L 118.509457 83.581753 
L 119.480314 118.411021 
L 120.451171 92.28907 
L 123.363742 92.28907 
L 124.334598 109.703704 
L 125.305455 83.581753 
L 127.247169 92.28907 
L 129.188883 109.703704 
L 130.15974 83.581753 
L 131.130597 109.703704 
L 132.101454 92.28907 
L 134.043167 109.703704 
L 135.984881 92.28907 
L 136.955738 100.996387 
L 137.926595 100.996387 
L 140.839166 109.703704 
L 143.751736 92.28907 
L 144.722593 100.996387 
L 145.69345 92.28907 
L 146.664307 100.996387 
L 148.606021 83.581753 
L 157.343733 100.996387 
L 160.256303 100.996387 
L 161.22716 83.581753 
L 162.198017 92.28907 
L 163.168874 118.411021 
L 164.139731 109.703704 
L 165.110588 92.28907 
L 166.081445 92.28907 
L 167.052302 100.996387 
L 168.023159 100.996387 
L 168.994016 109.703704 
L 169.964872 74.874436 
L 170.935729 100.996387 
L 172.877443 83.581753 
L 175.790014 83.581753 
L 176.760871 92.28907 
L 177.731728 83.581753 
L 178.702584 100.996387 
L 180.644298 83.581753 
L 182.586012 83.581753 
L 183.556869 100.996387 
L 185.498583 83.581753 
L 186.46944 92.28907 
L 187.440297 92.28907 
L 188.411153 100.996387 
L 189.38201 83.581753 
L 191.323724 83.581753 
L 192.294581 92.28907 
L 194.236295 100.996387 
L 195.207152 92.28907 
L 196.178009 100.996387 
L 197.148865 74.874436 
L 210.740862 74.874436 
L 212.682576 109.703704 
L 213.653433 100.996387 
L 214.62429 109.703704 
L 216.566003 92.28907 
L 217.53686 109.703704 
L 218.507717 92.28907 
L 219.478574 118.411021 
L 221.420288 83.581753 
L 222.391145 83.581753 
L 223.362002 92.28907 
L 226.274572 109.703704 
L 227.245429 83.581753 
L 228.216286 83.581753 
L 230.158 100.996387 
L 231.128857 83.581753 
L 232.099714 100.996387 
L 233.070571 100.996387 
L 234.041427 92.28907 
L 236.953998 118.411021 
L 237.924855 100.996387 
L 238.895712 118.411021 
L 239.866569 92.28907 
L 240.837426 92.28907 
L 241.808283 100.996387 
L 245.69171 109.703704 
L 247.633424 74.874436 
L 248.604281 100.996387 
L 249.575138 83.581753 
L 250.545995 109.703704 
L 251.516852 83.581753 
L 253.458565 118.411021 
L 254.429422 83.581753 
L 255.400279 92.28907 
L 257.341993 92.28907 
L 258.31285 109.703704 
L 259.283707 74.874436 
L 260.254564 83.581753 
L 261.22542 100.996387 
L 262.196277 109.703704 
L 263.167134 109.703704 
L 264.137991 83.581753 
L 266.079705 100.996387 
L 267.050562 100.996387 
L 268.021419 92.28907 
L 268.992276 92.28907 
L 269.963133 100.996387 
L 270.933989 92.28907 
L 271.904846 66.167119 
L 272.875703 74.874436 
L 273.84656 100.996387 
L 274.817417 100.996387 
L 275.788274 92.28907 
L 278.700845 92.28907 
L 279.671701 100.996387 
L 280.642558 100.996387 
L 281.613415 118.411021 
L 284.525986 92.28907 
L 285.496843 92.28907 
L 286.4677 83.581753 
L 287.438557 109.703704 
L 288.409414 83.581753 
L 289.38027 100.996387 
L 290.351127 100.996387 
L 291.321984 83.581753 
L 292.292841 100.996387 
L 293.263698 100.996387 
L 296.176269 74.874436 
L 299.088839 83.581753 
L 301.030553 83.581753 
L 304.913981 100.996387 
L 305.884838 83.581753 
L 333.068831 74.874436 
L 334.039688 74.874436 
L 335.010544 92.28907 
L 335.981401 83.581753 
L 336.952258 92.28907 
L 337.923115 74.874436 
L 338.893972 83.581753 
L 339.864829 74.874436 
L 340.835686 74.874436 
L 341.806543 83.581753 
L 342.7774 83.581753 
L 343.748257 74.874436 
L 344.719113 109.703704 
L 346.660827 74.874436 
L 347.631684 83.581753 
L 348.602541 66.167119 
L 349.573398 92.28907 
L 350.544255 83.581753 
L 368.019679 100.996387 
L 370.93225 74.874436 
L 371.903106 83.581753 
L 373.84482 83.581753 
L 374.815677 92.28907 
L 375.786534 74.874436 
L 376.757391 66.167119 
L 377.728248 74.874436 
L 378.699105 66.167119 
L 379.669962 83.581753 
L 380.640818 74.874436 
L 381.611675 83.581753 
L 382.582532 100.996387 
L 383.553389 92.28907 
L 384.524246 92.28907 
L 385.495103 66.167119 
L 388.407674 74.874436 
L 389.378531 109.703704 
L 390.349387 92.28907 
L 391.320244 83.581753 
L 392.291101 100.996387 
L 393.261958 66.167119 
L 394.232815 66.167119 
L 395.203672 83.581753 
L 396.174529 66.167119 
L 397.145386 83.581753 
L 398.116243 92.28907 
L 399.087099 109.703704 
L 400.057956 66.167119 
L 401.99967 83.581753 
L 402.970527 66.167119 
L 403.941384 83.581753 
L 405.883098 83.581753 
L 407.824812 48.752485 
L 408.795668 66.167119 
L 409.766525 66.167119 
L 410.737382 48.752485 
L 411.708239 66.167119 
L 412.679096 74.874436 
L 413.649953 66.167119 
L 414.62081 66.167119 
L 415.591667 57.459802 
L 416.562524 66.167119 
L 417.53338 83.581753 
L 418.504237 57.459802 
L 419.475094 83.581753 
L 420.445951 83.581753 
L 421.416808 57.459802 
L 422.387665 83.581753 
L 423.358522 83.581753 
L 424.329379 57.459802 
L 425.300236 83.581753 
L 426.271093 57.459802 
L 427.241949 66.167119 
L 428.212806 57.459802 
L 429.183663 74.874436 
L 431.125377 57.459802 
L 434.037948 48.752485 
L 435.979661 83.581753 
L 436.950518 48.752485 
L 437.921375 57.459802 
L 438.892232 74.874436 
L 440.833946 74.874436 
L 441.804803 66.167119 
L 442.77566 40.045168 
L 443.746517 66.167119 
L 444.717374 57.459802 
L 445.68823 40.045168 
L 446.659087 74.874436 
L 447.629944 83.581753 
L 448.600801 66.167119 
L 449.571658 74.874436 
L 450.542515 74.874436 
L 451.513372 66.167119 
L 452.484229 66.167119 
L 453.455086 57.459802 
L 454.425942 83.581753 
L 455.396799 66.167119 
L 456.367656 66.167119 
L 457.338513 57.459802 
L 458.30937 66.167119 
L 459.280227 83.581753 
L 460.251084 66.167119 
L 461.221941 74.874436 
L 462.192798 48.752485 
L 463.163655 83.581753 
L 464.134511 57.459802 
L 465.105368 66.167119 
L 466.076225 57.459802 
L 467.047082 66.167119 
L 469.959653 57.459802 
L 470.93051 92.28907 
L 471.901367 74.874436 
L 472.872223 48.752485 
L 473.84308 83.581753 
L 474.813937 48.752485 
L 475.784794 48.752485 
L 476.755651 74.874436 
L 477.726508 66.167119 
L 478.697365 92.28907 
L 479.668222 83.581753 
L 479.668222 83.581753 
" clip-path="url(#pe0190ee44b)" style="fill: none; stroke: #1f77b4; stroke-width: 1.5; stroke-linecap: square"/>
   </g>
   <g id="line2d_35">
    <path d="M 73.85004 136.793135 
L 74.820897 135.825655 
L 75.791754 140.663054 
L 76.762611 140.663054 
L 77.733467 137.760615 
L 78.704324 135.825655 
L 79.675181 138.728095 
L 80.646038 137.760615 
L 81.616895 138.728095 
L 83.558609 138.728095 
L 84.529466 136.793135 
L 85.500323 137.760615 
L 86.47118 137.760615 
L 87.442036 133.890696 
L 88.412893 136.793135 
L 91.325464 134.858176 
L 92.296321 136.793135 
L 94.238035 136.793135 
L 95.208892 135.825655 
L 96.179748 137.760615 
L 97.150605 136.793135 
L 99.092319 138.728095 
L 100.063176 136.793135 
L 101.034033 136.793135 
L 102.00489 134.858176 
L 102.975747 135.825655 
L 103.946604 137.760615 
L 104.917461 137.760615 
L 105.888317 139.695574 
L 106.859174 137.760615 
L 107.830031 136.793135 
L 108.800888 134.858176 
L 109.771745 139.695574 
L 110.742602 136.793135 
L 111.713459 135.825655 
L 112.684316 139.695574 
L 113.655173 139.695574 
L 115.596886 134.858176 
L 116.567743 139.695574 
L 117.5386 136.793135 
L 118.509457 137.760615 
L 119.480314 135.825655 
L 120.451171 135.825655 
L 121.422028 141.630534 
L 122.392885 138.728095 
L 123.363742 137.760615 
L 124.334598 138.728095 
L 125.305455 138.728095 
L 127.247169 135.825655 
L 129.188883 140.663054 
L 131.130597 138.728095 
L 132.101454 138.728095 
L 133.07231 137.760615 
L 134.043167 137.760615 
L 135.014024 138.728095 
L 135.984881 137.760615 
L 136.955738 138.728095 
L 137.926595 137.760615 
L 140.839166 138.728095 
L 143.751736 137.760615 
L 144.722593 136.793135 
L 145.69345 137.760615 
L 146.664307 135.825655 
L 147.635164 136.793135 
L 148.606021 135.825655 
L 157.343733 133.890696 
L 158.31459 136.793135 
L 160.256303 138.728095 
L 161.22716 135.825655 
L 162.198017 138.728095 
L 163.168874 135.825655 
L 164.139731 140.663054 
L 165.110588 138.728095 
L 166.081445 135.825655 
L 167.052302 136.793135 
L 168.023159 135.825655 
L 168.994016 137.760615 
L 169.964872 134.858176 
L 170.935729 139.695574 
L 171.906586 133.890696 
L 173.8483 135.825655 
L 175.790014 131.955737 
L 176.760871 130.988257 
L 177.731728 135.825655 
L 178.702584 132.923216 
L 179.673441 137.760615 
L 180.644298 134.858176 
L 181.615155 139.695574 
L 182.586012 133.890696 
L 183.556869 135.825655 
L 184.527726 134.858176 
L 185.498583 137.760615 
L 187.440297 133.890696 
L 188.411153 132.923216 
L 189.38201 132.923216 
L 190.352867 133.890696 
L 191.323724 131.955737 
L 192.294581 135.825655 
L 194.236295 135.825655 
L 195.207152 133.890696 
L 197.148865 131.955737 
L 198.119722 133.890696 
L 210.740862 134.858176 
L 211.711719 132.923216 
L 212.682576 131.955737 
L 213.653433 134.858176 
L 214.62429 132.923216 
L 215.595146 130.020777 
L 216.566003 130.020777 
L 217.53686 132.923216 
L 218.507717 132.923216 
L 219.478574 137.760615 
L 220.449431 133.890696 
L 221.420288 133.890696 
L 222.391145 132.923216 
L 223.362002 135.825655 
L 227.245429 131.955737 
L 228.216286 133.890696 
L 229.187143 130.020777 
L 230.158 134.858176 
L 231.128857 135.825655 
L 232.099714 131.955737 
L 233.070571 134.858176 
L 234.041427 131.955737 
L 236.953998 133.890696 
L 237.924855 133.890696 
L 238.895712 132.923216 
L 239.866569 133.890696 
L 240.837426 136.793135 
L 241.808283 135.825655 
L 245.69171 133.890696 
L 246.662567 136.793135 
L 247.633424 130.988257 
L 248.604281 135.825655 
L 249.575138 133.890696 
L 251.516852 135.825655 
L 252.487708 135.825655 
L 253.458565 136.793135 
L 254.429422 134.858176 
L 255.400279 139.695574 
L 258.31285 133.890696 
L 259.283707 134.858176 
L 260.254564 132.923216 
L 262.196277 134.858176 
L 265.108848 134.858176 
L 266.079705 135.825655 
L 267.050562 131.955737 
L 268.021419 132.923216 
L 268.992276 137.760615 
L 269.963133 131.955737 
L 270.933989 132.923216 
L 271.904846 135.825655 
L 272.875703 133.890696 
L 273.84656 132.923216 
L 274.817417 130.988257 
L 275.788274 135.825655 
L 276.759131 135.825655 
L 277.729988 130.988257 
L 278.700845 130.020777 
L 279.671701 133.890696 
L 280.642558 133.890696 
L 283.555129 130.988257 
L 285.496843 132.923216 
L 286.4677 132.923216 
L 287.438557 130.988257 
L 288.409414 136.793135 
L 289.38027 133.890696 
L 290.351127 134.858176 
L 291.321984 132.923216 
L 292.292841 135.825655 
L 293.263698 131.955737 
L 294.234555 133.890696 
L 296.176269 135.825655 
L 299.088839 133.890696 
L 301.030553 132.923216 
L 304.913981 135.825655 
L 305.884838 131.955737 
L 333.068831 132.923216 
L 334.039688 133.890696 
L 335.981401 128.085818 
L 336.952258 130.988257 
L 338.893972 127.118338 
L 339.864829 130.020777 
L 340.835686 130.020777 
L 341.806543 128.085818 
L 342.7774 130.020777 
L 343.748257 127.118338 
L 344.719113 130.988257 
L 345.68997 129.053298 
L 346.660827 130.020777 
L 348.602541 128.085818 
L 349.573398 128.085818 
L 350.544255 130.020777 
L 368.019679 128.085818 
L 368.990536 126.150859 
L 370.93225 129.053298 
L 371.903106 127.118338 
L 372.873963 130.988257 
L 373.84482 129.053298 
L 374.815677 128.085818 
L 376.757391 130.020777 
L 377.728248 129.053298 
L 379.669962 130.988257 
L 380.640818 127.118338 
L 381.611675 130.988257 
L 382.582532 129.053298 
L 383.553389 128.085818 
L 384.524246 130.020777 
L 385.495103 126.150859 
L 388.407674 127.118338 
L 389.378531 130.020777 
L 390.349387 124.215899 
L 391.320244 130.988257 
L 392.291101 128.085818 
L 393.261958 128.085818 
L 394.232815 127.118338 
L 395.203672 124.215899 
L 396.174529 125.183379 
L 397.145386 125.183379 
L 398.116243 121.31346 
L 399.087099 122.28094 
L 400.057956 124.215899 
L 401.028813 125.183379 
L 401.99967 122.28094 
L 402.970527 123.24842 
L 403.941384 123.24842 
L 404.912241 119.378501 
L 405.883098 120.345981 
L 406.853955 127.118338 
L 407.824812 122.28094 
L 408.795668 128.085818 
L 409.766525 124.215899 
L 410.737382 124.215899 
L 411.708239 123.24842 
L 412.679096 126.150859 
L 413.649953 119.378501 
L 414.62081 125.183379 
L 418.504237 121.31346 
L 419.475094 123.24842 
L 420.445951 124.215899 
L 421.416808 124.215899 
L 422.387665 126.150859 
L 423.358522 123.24842 
L 424.329379 122.28094 
L 425.300236 122.28094 
L 426.271093 124.215899 
L 427.241949 123.24842 
L 428.212806 121.31346 
L 429.183663 124.215899 
L 430.15452 119.378501 
L 431.125377 120.345981 
L 434.037948 119.378501 
L 435.008805 119.378501 
L 435.979661 118.411021 
L 436.950518 118.411021 
L 437.921375 116.476062 
L 438.892232 119.378501 
L 439.863089 121.31346 
L 440.833946 121.31346 
L 441.804803 124.215899 
L 442.77566 126.150859 
L 443.746517 124.215899 
L 444.717374 120.345981 
L 445.68823 122.28094 
L 446.659087 123.24842 
L 447.629944 119.378501 
L 448.600801 118.411021 
L 449.571658 116.476062 
L 450.542515 120.345981 
L 451.513372 120.345981 
L 452.484229 119.378501 
L 453.455086 119.378501 
L 454.425942 121.31346 
L 455.396799 122.28094 
L 456.367656 121.31346 
L 458.30937 123.24842 
L 459.280227 121.31346 
L 460.251084 123.24842 
L 461.221941 122.28094 
L 462.192798 122.28094 
L 463.163655 120.345981 
L 464.134511 122.28094 
L 465.105368 120.345981 
L 466.076225 124.215899 
L 467.047082 119.378501 
L 469.959653 118.411021 
L 471.901367 122.28094 
L 472.872223 122.28094 
L 473.84308 121.31346 
L 474.813937 121.31346 
L 475.784794 120.345981 
L 476.755651 118.411021 
L 477.726508 124.215899 
L 478.697365 118.411021 
L 479.668222 121.31346 
L 479.668222 121.31346 
" clip-path="url(#pe0190ee44b)" style="fill: none; stroke: #ff7f0e; stroke-width: 1.5; stroke-linecap: square"/>
   </g>
   <g id="line2d_36">
    <path d="M 73.85004 173.073623 
L 74.820897 173.363867 
L 75.791754 173.073623 
L 76.762611 172.589883 
L 77.733467 172.686631 
L 78.704324 173.073623 
L 79.675181 172.686631 
L 81.616895 172.686631 
L 82.587752 172.299639 
L 85.500323 172.976875 
L 86.47118 172.589883 
L 87.442036 172.396387 
L 88.412893 172.396387 
L 91.325464 172.783379 
L 93.267178 172.299639 
L 94.238035 172.686631 
L 95.208892 172.493135 
L 96.179748 172.009395 
L 97.150605 172.589883 
L 98.121462 172.106143 
L 99.092319 172.299639 
L 100.063176 171.719151 
L 101.034033 171.912647 
L 102.00489 171.041916 
L 102.975747 171.622403 
L 103.946604 171.33216 
L 104.917461 171.719151 
L 105.888317 170.945168 
L 106.859174 171.235412 
L 107.830031 171.33216 
L 108.800888 171.041916 
L 109.771745 170.945168 
L 110.742602 171.235412 
L 112.684316 171.041916 
L 113.655173 170.654924 
L 116.567743 169.88094 
L 117.5386 170.171184 
L 118.509457 170.654924 
L 119.480314 170.36468 
L 120.451171 169.784192 
L 121.422028 169.977688 
L 122.392885 169.687444 
L 123.363742 169.106956 
L 124.334598 169.3972 
L 129.188883 168.042729 
L 131.130597 168.332973 
L 133.07231 167.752485 
L 135.014024 167.655737 
L 135.984881 167.171997 
L 136.955738 167.268745 
L 140.839166 166.494761 
L 143.751736 165.527282 
L 144.722593 165.720777 
L 145.69345 165.527282 
L 146.664307 165.624029 
L 147.635164 165.333786 
L 148.606021 165.624029 
L 158.31459 164.850046 
L 160.256303 164.17281 
L 161.22716 164.366306 
L 162.198017 164.269558 
L 163.168874 163.979314 
L 164.139731 164.366306 
L 165.110588 163.68907 
L 166.081445 164.17281 
L 167.052302 163.979314 
L 168.023159 163.302078 
L 168.994016 163.398826 
L 169.964872 163.785818 
L 170.935729 163.592322 
L 172.877443 163.882566 
L 173.8483 163.68907 
L 174.819157 163.302078 
L 175.790014 163.592322 
L 176.760871 163.108582 
L 178.702584 162.818338 
L 179.673441 163.398826 
L 183.556869 163.398826 
L 184.527726 163.108582 
L 185.498583 163.20533 
L 186.46944 162.915086 
L 187.440297 163.108582 
L 188.411153 163.011834 
L 189.38201 163.20533 
L 190.352867 163.011834 
L 191.323724 163.398826 
L 195.207152 162.915086 
L 196.178009 162.72159 
L 198.119722 163.011834 
L 210.740862 163.108582 
L 211.711719 162.431347 
L 212.682576 163.20533 
L 213.653433 162.528095 
L 214.62429 162.624842 
L 215.595146 162.334599 
L 216.566003 162.528095 
L 217.53686 163.011834 
L 219.478574 162.334599 
L 220.449431 163.011834 
L 221.420288 161.947607 
L 222.391145 162.334599 
L 223.362002 163.108582 
L 226.274572 162.624842 
L 227.245429 163.011834 
L 229.187143 162.72159 
L 231.128857 162.141103 
L 232.099714 162.915086 
L 233.070571 162.72159 
L 234.041427 162.334599 
L 236.953998 161.947607 
L 237.924855 162.528095 
L 238.895712 162.141103 
L 240.837426 162.141103 
L 241.808283 161.560615 
L 245.69171 162.237851 
L 246.662567 162.72159 
L 247.633424 162.334599 
L 249.575138 162.044355 
L 254.429422 162.044355 
L 255.400279 161.850859 
L 256.371136 161.173623 
L 257.341993 161.657363 
L 258.31285 162.431347 
L 259.283707 161.657363 
L 260.254564 161.367119 
L 261.22542 162.044355 
L 262.196277 161.463867 
L 263.167134 161.947607 
L 264.137991 161.560615 
L 265.108848 162.141103 
L 266.079705 161.947607 
L 267.050562 161.367119 
L 268.021419 162.044355 
L 268.992276 161.560615 
L 269.963133 161.367119 
L 270.933989 161.754111 
L 271.904846 161.754111 
L 272.875703 161.463867 
L 273.84656 161.657363 
L 274.817417 162.044355 
L 275.788274 162.141103 
L 276.759131 161.367119 
L 277.729988 161.076875 
L 278.700845 161.367119 
L 279.671701 161.270371 
L 280.642558 161.560615 
L 281.613415 161.463867 
L 282.584272 162.044355 
L 283.555129 161.560615 
L 284.525986 161.463867 
L 286.4677 161.657363 
L 287.438557 161.173623 
L 288.409414 160.883379 
L 289.38027 160.883379 
L 290.351127 160.399639 
L 291.321984 160.883379 
L 293.263698 161.173623 
L 294.234555 160.689883 
L 296.176269 159.045168 
L 299.088839 160.496387 
L 305.884838 160.399639 
L 333.068831 159.335412 
L 334.039688 159.43216 
L 335.981401 159.045168 
L 336.952258 159.625655 
L 337.923115 159.335412 
L 338.893972 159.625655 
L 339.864829 159.528908 
L 340.835686 159.141916 
L 341.806543 159.819151 
L 342.7774 159.141916 
L 343.748257 159.722403 
L 345.68997 159.238664 
L 346.660827 159.722403 
L 347.631684 159.238664 
L 348.602541 159.722403 
L 350.544255 160.109395 
L 368.990536 159.819151 
L 370.93225 159.43216 
L 371.903106 159.43216 
L 373.84482 160.109395 
L 374.815677 159.141916 
L 375.786534 159.43216 
L 376.757391 159.915899 
L 377.728248 158.94842 
L 378.699105 159.625655 
L 379.669962 159.335412 
L 380.640818 159.43216 
L 381.611675 159.722403 
L 382.582532 158.851672 
L 383.553389 159.238664 
L 384.524246 158.561428 
L 385.495103 158.851672 
L 388.407674 158.94842 
L 390.349387 158.851672 
L 391.320244 158.367932 
L 392.291101 158.754924 
L 393.261958 158.754924 
L 394.232815 159.045168 
L 395.203672 158.754924 
L 396.174529 158.658176 
L 397.145386 157.884192 
L 398.116243 157.400452 
L 399.087099 158.367932 
L 400.057956 158.367932 
L 401.028813 157.690696 
L 401.99967 158.077688 
L 402.970527 157.787444 
L 403.941384 157.206956 
L 404.912241 157.787444 
L 406.853955 157.110208 
L 407.824812 157.690696 
L 408.795668 157.690696 
L 409.766525 157.206956 
L 410.737382 156.336225 
L 411.708239 156.336225 
L 413.649953 156.819964 
L 416.562524 156.723216 
L 417.53338 156.239477 
L 418.504237 156.432973 
L 419.475094 156.916712 
L 420.445951 155.852485 
L 421.416808 155.658989 
L 423.358522 156.336225 
L 424.329379 155.852485 
L 425.300236 155.949233 
L 426.271093 156.529721 
L 427.241949 156.336225 
L 429.183663 156.626468 
L 430.15452 156.626468 
L 431.125377 156.336225 
L 434.037948 156.916712 
L 435.008805 156.432973 
L 435.979661 156.916712 
L 438.892232 156.336225 
L 439.863089 156.432973 
L 440.833946 156.142729 
L 441.804803 156.529721 
L 442.77566 156.529721 
L 443.746517 155.949233 
L 444.717374 156.336225 
L 445.68823 155.658989 
L 446.659087 156.626468 
L 447.629944 156.045981 
L 448.600801 156.045981 
L 449.571658 156.723216 
L 451.513372 155.465493 
L 452.484229 155.852485 
L 453.455086 155.852485 
L 456.367656 155.175249 
L 457.338513 154.594761 
L 458.30937 154.885005 
L 460.251084 154.788257 
L 461.221941 154.691509 
L 462.192798 154.981753 
L 463.163655 154.401265 
L 464.134511 154.788257 
L 465.105368 154.788257 
L 466.076225 154.594761 
L 467.047082 154.691509 
L 469.959653 155.271997 
L 470.93051 154.788257 
L 471.901367 153.820777 
L 472.872223 154.498013 
L 473.84308 154.401265 
L 474.813937 154.981753 
L 475.784794 154.981753 
L 476.755651 155.271997 
L 479.668222 154.304517 
L 479.668222 154.304517 
" clip-path="url(#pe0190ee44b)" style="fill: none; stroke: #2ca02c; stroke-width: 1.5; stroke-linecap: square"/>
   </g>
   <g id="line2d_37">
    <path d="M 73.85004 190.739802 
L 77.733467 190.614029 
L 80.646038 190.643054 
L 88.412893 190.57533 
L 93.267178 190.555981 
L 95.208892 190.555981 
L 97.150605 190.536631 
L 99.092319 190.497932 
L 100.063176 190.459233 
L 102.00489 190.526956 
L 105.888317 190.488257 
L 107.830031 190.439883 
L 111.713459 190.381834 
L 113.655173 190.304436 
L 143.751736 190.83655 
L 148.606021 190.778501 
L 158.31459 190.643054 
L 161.22716 190.720452 
L 163.168874 190.662403 
L 168.023159 190.672078 
L 169.964872 190.759151 
L 170.935729 190.643054 
L 173.8483 190.749477 
L 223.362002 190.681753 
L 233.070571 190.57533 
L 234.041427 190.672078 
L 238.895712 190.614029 
L 249.575138 190.439883 
L 251.516852 190.488257 
L 253.458565 190.488257 
L 255.400279 190.546306 
L 256.371136 190.459233 
L 259.283707 190.526956 
L 264.137991 190.37216 
L 273.84656 190.391509 
L 275.788274 190.149639 
L 277.729988 190.13029 
L 294.234555 190.081916 
L 296.176269 189.18216 
L 299.088839 190.159314 
L 301.030553 190.13029 
L 305.884838 190.207688 
L 333.068831 189.878745 
L 334.039688 190.033542 
L 335.981401 189.936794 
L 350.544255 189.859395 
L 368.019679 189.791672 
L 368.990536 189.665899 
L 372.873963 189.685249 
L 378.699105 189.607851 
L 380.640818 189.588501 
L 382.582532 189.520777 
L 384.524246 189.433704 
L 385.495103 189.38533 
L 389.378531 189.365981 
L 390.349387 189.240208 
L 392.291101 189.240208 
L 394.232815 189.104761 
L 395.203672 189.124111 
L 396.174529 188.969314 
L 398.116243 188.94029 
L 399.087099 189.037038 
L 400.057956 188.949964 
L 401.99967 188.959639 
L 407.824812 188.862891 
L 410.737382 188.891916 
L 411.708239 188.746794 
L 413.649953 188.756468 
L 414.62081 188.911265 
L 416.562524 188.785493 
L 419.475094 188.795168 
L 420.445951 188.90159 
L 426.271093 188.766143 
L 427.241949 188.785493 
L 428.212806 188.688745 
L 429.183663 188.756468 
L 431.125377 188.688745 
L 446.659087 188.408176 
L 449.571658 188.398501 
L 453.455086 188.311428 
L 454.425942 188.446875 
L 459.280227 188.263054 
L 467.047082 188.301753 
L 469.959653 188.224355 
L 471.901367 188.311428 
L 472.872223 188.282403 
L 473.84308 188.388826 
L 474.813937 188.282403 
L 479.668222 188.379151 
L 479.668222 188.379151 
" clip-path="url(#pe0190ee44b)" style="fill: none; stroke: #d62728; stroke-width: 1.5; stroke-linecap: square"/>
   </g>
   <g id="line2d_38">
    <path d="M 73.85004 195.135062 
L 79.675181 195.099265 
L 86.47118 195.061534 
L 94.238035 195.050891 
L 127.247169 194.99381 
L 148.606021 195.016062 
L 198.119722 194.919314 
L 262.196277 194.75968 
L 268.992276 194.761615 
L 294.234555 194.704534 
L 296.176269 194.438477 
L 299.088839 194.690021 
L 343.748257 194.478143 
L 345.68997 194.569086 
L 350.544255 194.559412 
L 389.378531 194.479111 
L 406.853955 194.336891 
L 435.008805 194.258525 
L 449.571658 194.191769 
L 454.425942 194.192737 
L 464.134511 194.192737 
L 467.047082 194.133721 
L 479.668222 194.15307 
L 479.668222 194.15307 
" clip-path="url(#pe0190ee44b)" style="fill: none; stroke: #9467bd; stroke-width: 1.5; stroke-linecap: square"/>
   </g>
   <g id="patch_3">
    <path d="M 53.559131 196.776875 
L 53.559131 25.416875 
" style="fill: none; stroke: #000000; stroke-width: 0.8; stroke-linejoin: miter; stroke-linecap: square"/>
   </g>
   <g id="patch_4">
    <path d="M 499.959131 196.776875 
L 499.959131 25.416875 
" style="fill: none; stroke: #000000; stroke-width: 0.8; stroke-linejoin: miter; stroke-linecap: square"/>
   </g>
   <g id="patch_5">
    <path d="M 53.559131 196.776875 
L 499.959131 196.776875 
" style="fill: none; stroke: #000000; stroke-width: 0.8; stroke-linejoin: miter; stroke-linecap: square"/>
   </g>
   <g id="patch_6">
    <path d="M 53.559131 25.416875 
L 499.959131 25.416875 
" style="fill: none; stroke: #000000; stroke-width: 0.8; stroke-linejoin: miter; stroke-linecap: square"/>
   </g>
   <g id="legend_1">
    <g id="patch_7">
     <path d="M 60.559131 62.773125 
L 388.140381 62.773125 
Q 390.140381 62.773125 390.140381 60.773125 
L 390.140381 32.416875 
Q 390.140381 30.416875 388.140381 30.416875 
L 60.559131 30.416875 
Q 58.559131 30.416875 58.559131 32.416875 
L 58.559131 60.773125 
Q 58.559131 62.773125 60.559131 62.773125 
z
" style="fill: #ffffff; opacity: 0.8; stroke: #cccccc; stroke-linejoin: miter"/>
    </g>
    <g id="line2d_39">
     <path d="M 62.559131 38.515313 
L 72.559131 38.515313 
L 82.559131 38.515313 
" style="fill: none; stroke: #1f77b4; stroke-width: 1.5; stroke-linecap: square"/>
    </g>
    <g id="text_26">
     <!-- Rank 1-100 -->
     <g transform="translate(90.559131 42.015313)scale(0.1 -0.1)">
      <defs>
       <path id="DejaVuSans-52" d="M 2841 2188 
Q 3044 2119 3236 1894 
Q 3428 1669 3622 1275 
L 4263 0 
L 3584 0 
L 2988 1197 
Q 2756 1666 2539 1819 
Q 2322 1972 1947 1972 
L 1259 1972 
L 1259 0 
L 628 0 
L 628 4666 
L 2053 4666 
Q 2853 4666 3247 4331 
Q 3641 3997 3641 3322 
Q 3641 2881 3436 2590 
Q 3231 2300 2841 2188 
z
M 1259 4147 
L 1259 2491 
L 2053 2491 
Q 2509 2491 2742 2702 
Q 2975 2913 2975 3322 
Q 2975 3731 2742 3939 
Q 2509 4147 2053 4147 
L 1259 4147 
z
" transform="scale(0.015625)"/>
       <path id="DejaVuSans-6b" d="M 581 4863 
L 1159 4863 
L 1159 1991 
L 2875 3500 
L 3609 3500 
L 1753 1863 
L 3688 0 
L 2938 0 
L 1159 1709 
L 1159 0 
L 581 0 
L 581 4863 
z
" transform="scale(0.015625)"/>
      </defs>
      <use xlink:href="#DejaVuSans-52"/>
      <use xlink:href="#DejaVuSans-61" x="67.232422"/>
      <use xlink:href="#DejaVuSans-6e" x="128.511719"/>
      <use xlink:href="#DejaVuSans-6b" x="191.890625"/>
      <use xlink:href="#DejaVuSans-20" x="249.800781"/>
      <use xlink:href="#DejaVuSans-31" x="281.587891"/>
      <use xlink:href="#DejaVuSans-2d" x="345.210938"/>
      <use xlink:href="#DejaVuSans-31" x="381.294922"/>
      <use xlink:href="#DejaVuSans-30" x="444.917969"/>
      <use xlink:href="#DejaVuSans-30" x="508.541016"/>
     </g>
    </g>
    <g id="line2d_40">
     <path d="M 62.559131 53.193438 
L 72.559131 53.193438 
L 82.559131 53.193438 
" style="fill: none; stroke: #ff7f0e; stroke-width: 1.5; stroke-linecap: square"/>
    </g>
    <g id="text_27">
     <!-- Rank 101-1k -->
     <g transform="translate(90.559131 56.693438)scale(0.1 -0.1)">
      <use xlink:href="#DejaVuSans-52"/>
      <use xlink:href="#DejaVuSans-61" x="67.232422"/>
      <use xlink:href="#DejaVuSans-6e" x="128.511719"/>
      <use xlink:href="#DejaVuSans-6b" x="191.890625"/>
      <use xlink:href="#DejaVuSans-20" x="249.800781"/>
      <use xlink:href="#DejaVuSans-31" x="281.587891"/>
      <use xlink:href="#DejaVuSans-30" x="345.210938"/>
      <use xlink:href="#DejaVuSans-31" x="408.833984"/>
      <use xlink:href="#DejaVuSans-2d" x="472.457031"/>
      <use xlink:href="#DejaVuSans-31" x="508.541016"/>
      <use xlink:href="#DejaVuSans-6b" x="572.164062"/>
     </g>
    </g>
    <g id="line2d_41">
     <path d="M 173.565381 38.515313 
L 183.565381 38.515313 
L 193.565381 38.515313 
" style="fill: none; stroke: #2ca02c; stroke-width: 1.5; stroke-linecap: square"/>
    </g>
    <g id="text_28">
     <!-- Rank 1k-10k -->
     <g transform="translate(201.565381 42.015313)scale(0.1 -0.1)">
      <use xlink:href="#DejaVuSans-52"/>
      <use xlink:href="#DejaVuSans-61" x="67.232422"/>
      <use xlink:href="#DejaVuSans-6e" x="128.511719"/>
      <use xlink:href="#DejaVuSans-6b" x="191.890625"/>
      <use xlink:href="#DejaVuSans-20" x="249.800781"/>
      <use xlink:href="#DejaVuSans-31" x="281.587891"/>
      <use xlink:href="#DejaVuSans-6b" x="345.210938"/>
      <use xlink:href="#DejaVuSans-2d" x="403.121094"/>
      <use xlink:href="#DejaVuSans-31" x="439.205078"/>
      <use xlink:href="#DejaVuSans-30" x="502.828125"/>
      <use xlink:href="#DejaVuSans-6b" x="566.451172"/>
     </g>
    </g>
    <g id="line2d_42">
     <path d="M 173.565381 53.193438 
L 183.565381 53.193438 
L 193.565381 53.193438 
" style="fill: none; stroke: #d62728; stroke-width: 1.5; stroke-linecap: square"/>
    </g>
    <g id="text_29">
     <!-- Rank 10k-100k -->
     <g transform="translate(201.565381 56.693438)scale(0.1 -0.1)">
      <use xlink:href="#DejaVuSans-52"/>
      <use xlink:href="#DejaVuSans-61" x="67.232422"/>
      <use xlink:href="#DejaVuSans-6e" x="128.511719"/>
      <use xlink:href="#DejaVuSans-6b" x="191.890625"/>
      <use xlink:href="#DejaVuSans-20" x="249.800781"/>
      <use xlink:href="#DejaVuSans-31" x="281.587891"/>
      <use xlink:href="#DejaVuSans-30" x="345.210938"/>
      <use xlink:href="#DejaVuSans-6b" x="408.833984"/>
      <use xlink:href="#DejaVuSans-2d" x="466.744141"/>
      <use xlink:href="#DejaVuSans-31" x="502.828125"/>
      <use xlink:href="#DejaVuSans-30" x="566.451172"/>
      <use xlink:href="#DejaVuSans-30" x="630.074219"/>
      <use xlink:href="#DejaVuSans-6b" x="693.697266"/>
     </g>
    </g>
    <g id="line2d_43">
     <path d="M 296.724756 38.515313 
L 306.724756 38.515313 
L 316.724756 38.515313 
" style="fill: none; stroke: #9467bd; stroke-width: 1.5; stroke-linecap: square"/>
    </g>
    <g id="text_30">
     <!-- Rank 100k+ -->
     <g transform="translate(324.724756 42.015313)scale(0.1 -0.1)">
      <defs>
       <path id="DejaVuSans-2b" d="M 2944 4013 
L 2944 2272 
L 4684 2272 
L 4684 1741 
L 2944 1741 
L 2944 0 
L 2419 0 
L 2419 1741 
L 678 1741 
L 678 2272 
L 2419 2272 
L 2419 4013 
L 2944 4013 
z
" transform="scale(0.015625)"/>
      </defs>
      <use xlink:href="#DejaVuSans-52"/>
      <use xlink:href="#DejaVuSans-61" x="67.232422"/>
      <use xlink:href="#DejaVuSans-6e" x="128.511719"/>
      <use xlink:href="#DejaVuSans-6b" x="191.890625"/>
      <use xlink:href="#DejaVuSans-20" x="249.800781"/>
      <use xlink:href="#DejaVuSans-31" x="281.587891"/>
      <use xlink:href="#DejaVuSans-30" x="345.210938"/>
      <use xlink:href="#DejaVuSans-30" x="408.833984"/>
      <use xlink:href="#DejaVuSans-6b" x="472.457031"/>
      <use xlink:href="#DejaVuSans-2b" x="530.367188"/>
     </g>
    </g>
   </g>
  </g>
 </g>
 <defs>
  <clipPath id="pe0190ee44b">
   <rect x="53.559131" y="25.416875" width="446.4" height="171.36"/>
  </clipPath>
 </defs>
</svg>
