<?xml version="1.0" encoding="utf-8" standalone="no"?>
<!DOCTYPE svg PUBLIC "-//W3C//DTD SVG 1.1//EN"
  "http://www.w3.org/Graphics/SVG/1.1/DTD/svg11.dtd">
<svg xmlns:xlink="http://www.w3.org/1999/xlink" width="506.732901pt" height="252.30369pt" viewBox="0 0 506.732901 252.30369" xmlns="http://www.w3.org/2000/svg" version="1.1">
 <metadata>
  <rdf:RDF xmlns:dc="http://purl.org/dc/elements/1.1/" xmlns:cc="http://creativecommons.org/ns#" xmlns:rdf="http://www.w3.org/1999/02/22-rdf-syntax-ns#">
   <cc:Work>
    <dc:type rdf:resource="http://purl.org/dc/dcmitype/StillImage"/>
    <dc:date>2022-02-14T19:24:50.887737</dc:date>
    <dc:format>image/svg+xml</dc:format>
    <dc:creator>
     <cc:Agent>
      <dc:title>Matplotlib v3.5.1, https://matplotlib.org/</dc:title>
     </cc:Agent>
    </dc:creator>
   </cc:Work>
  </rdf:RDF>
 </metadata>
 <defs>
  <style type="text/css">*{stroke-linejoin: round; stroke-linecap: butt}</style>
 </defs>
 <g id="figure_1">
  <g id="patch_1">
   <path d="M 0 252.30369 
L 506.732901 252.30369 
L 506.732901 -0 
L 0 -0 
z
" style="fill: #ffffff"/>
  </g>
  <g id="axes_1">
   <g id="patch_2">
    <path d="M 53.132901 196.776875 
L 499.532901 196.776875 
L 499.532901 25.416875 
L 53.132901 25.416875 
z
" style="fill: #ffffff"/>
   </g>
   <g id="matplotlib.axis_1">
    <g id="xtick_1">
     <g id="line2d_1">
      <defs>
       <path id="m68946d4725" d="M 0 0 
L 0 3.5 
" style="stroke: #000000; stroke-width: 0.8"/>
      </defs>
      <g>
       <use xlink:href="#m68946d4725" x="68.024899" y="196.776875" style="stroke: #000000; stroke-width: 0.8"/>
      </g>
     </g>
     <g id="text_1">
      <!-- 2020-Nov-01 -->
      <g transform="translate(10.999219 242.680752)rotate(-30)scale(0.1 -0.1)">
       <defs>
        <path id="DejaVuSans-32" d="M 1228 531 
L 3431 531 
L 3431 0 
L 469 0 
L 469 531 
Q 828 903 1448 1529 
Q 2069 2156 2228 2338 
Q 2531 2678 2651 2914 
Q 2772 3150 2772 3378 
Q 2772 3750 2511 3984 
Q 2250 4219 1831 4219 
Q 1534 4219 1204 4116 
Q 875 4013 500 3803 
L 500 4441 
Q 881 4594 1212 4672 
Q 1544 4750 1819 4750 
Q 2544 4750 2975 4387 
Q 3406 4025 3406 3419 
Q 3406 3131 3298 2873 
Q 3191 2616 2906 2266 
Q 2828 2175 2409 1742 
Q 1991 1309 1228 531 
z
" transform="scale(0.015625)"/>
        <path id="DejaVuSans-30" d="M 2034 4250 
Q 1547 4250 1301 3770 
Q 1056 3291 1056 2328 
Q 1056 1369 1301 889 
Q 1547 409 2034 409 
Q 2525 409 2770 889 
Q 3016 1369 3016 2328 
Q 3016 3291 2770 3770 
Q 2525 4250 2034 4250 
z
M 2034 4750 
Q 2819 4750 3233 4129 
Q 3647 3509 3647 2328 
Q 3647 1150 3233 529 
Q 2819 -91 2034 -91 
Q 1250 -91 836 529 
Q 422 1150 422 2328 
Q 422 3509 836 4129 
Q 1250 4750 2034 4750 
z
" transform="scale(0.015625)"/>
        <path id="DejaVuSans-2d" d="M 313 2009 
L 1997 2009 
L 1997 1497 
L 313 1497 
L 313 2009 
z
" transform="scale(0.015625)"/>
        <path id="DejaVuSans-4e" d="M 628 4666 
L 1478 4666 
L 3547 763 
L 3547 4666 
L 4159 4666 
L 4159 0 
L 3309 0 
L 1241 3903 
L 1241 0 
L 628 0 
L 628 4666 
z
" transform="scale(0.015625)"/>
        <path id="DejaVuSans-6f" d="M 1959 3097 
Q 1497 3097 1228 2736 
Q 959 2375 959 1747 
Q 959 1119 1226 758 
Q 1494 397 1959 397 
Q 2419 397 2687 759 
Q 2956 1122 2956 1747 
Q 2956 2369 2687 2733 
Q 2419 3097 1959 3097 
z
M 1959 3584 
Q 2709 3584 3137 3096 
Q 3566 2609 3566 1747 
Q 3566 888 3137 398 
Q 2709 -91 1959 -91 
Q 1206 -91 779 398 
Q 353 888 353 1747 
Q 353 2609 779 3096 
Q 1206 3584 1959 3584 
z
" transform="scale(0.015625)"/>
        <path id="DejaVuSans-76" d="M 191 3500 
L 800 3500 
L 1894 563 
L 2988 3500 
L 3597 3500 
L 2284 0 
L 1503 0 
L 191 3500 
z
" transform="scale(0.015625)"/>
        <path id="DejaVuSans-31" d="M 794 531 
L 1825 531 
L 1825 4091 
L 703 3866 
L 703 4441 
L 1819 4666 
L 2450 4666 
L 2450 531 
L 3481 531 
L 3481 0 
L 794 0 
L 794 531 
z
" transform="scale(0.015625)"/>
       </defs>
       <use xlink:href="#DejaVuSans-32"/>
       <use xlink:href="#DejaVuSans-30" x="63.623047"/>
       <use xlink:href="#DejaVuSans-32" x="127.246094"/>
       <use xlink:href="#DejaVuSans-30" x="190.869141"/>
       <use xlink:href="#DejaVuSans-2d" x="254.492188"/>
       <use xlink:href="#DejaVuSans-4e" x="290.576172"/>
       <use xlink:href="#DejaVuSans-6f" x="365.380859"/>
       <use xlink:href="#DejaVuSans-76" x="426.5625"/>
       <use xlink:href="#DejaVuSans-2d" x="483.117188"/>
       <use xlink:href="#DejaVuSans-30" x="519.201172"/>
       <use xlink:href="#DejaVuSans-31" x="582.824219"/>
      </g>
     </g>
    </g>
    <g id="xtick_2">
     <g id="line2d_2">
      <g>
       <use xlink:href="#m68946d4725" x="95.019456" y="196.776875" style="stroke: #000000; stroke-width: 0.8"/>
      </g>
     </g>
     <g id="text_2">
      <!-- 2020-Dec-01 -->
      <g transform="translate(37.911233 242.728409)rotate(-30)scale(0.1 -0.1)">
       <defs>
        <path id="DejaVuSans-44" d="M 1259 4147 
L 1259 519 
L 2022 519 
Q 2988 519 3436 956 
Q 3884 1394 3884 2338 
Q 3884 3275 3436 3711 
Q 2988 4147 2022 4147 
L 1259 4147 
z
M 628 4666 
L 1925 4666 
Q 3281 4666 3915 4102 
Q 4550 3538 4550 2338 
Q 4550 1131 3912 565 
Q 3275 0 1925 0 
L 628 0 
L 628 4666 
z
" transform="scale(0.015625)"/>
        <path id="DejaVuSans-65" d="M 3597 1894 
L 3597 1613 
L 953 1613 
Q 991 1019 1311 708 
Q 1631 397 2203 397 
Q 2534 397 2845 478 
Q 3156 559 3463 722 
L 3463 178 
Q 3153 47 2828 -22 
Q 2503 -91 2169 -91 
Q 1331 -91 842 396 
Q 353 884 353 1716 
Q 353 2575 817 3079 
Q 1281 3584 2069 3584 
Q 2775 3584 3186 3129 
Q 3597 2675 3597 1894 
z
M 3022 2063 
Q 3016 2534 2758 2815 
Q 2500 3097 2075 3097 
Q 1594 3097 1305 2825 
Q 1016 2553 972 2059 
L 3022 2063 
z
" transform="scale(0.015625)"/>
        <path id="DejaVuSans-63" d="M 3122 3366 
L 3122 2828 
Q 2878 2963 2633 3030 
Q 2388 3097 2138 3097 
Q 1578 3097 1268 2742 
Q 959 2388 959 1747 
Q 959 1106 1268 751 
Q 1578 397 2138 397 
Q 2388 397 2633 464 
Q 2878 531 3122 666 
L 3122 134 
Q 2881 22 2623 -34 
Q 2366 -91 2075 -91 
Q 1284 -91 818 406 
Q 353 903 353 1747 
Q 353 2603 823 3093 
Q 1294 3584 2113 3584 
Q 2378 3584 2631 3529 
Q 2884 3475 3122 3366 
z
" transform="scale(0.015625)"/>
       </defs>
       <use xlink:href="#DejaVuSans-32"/>
       <use xlink:href="#DejaVuSans-30" x="63.623047"/>
       <use xlink:href="#DejaVuSans-32" x="127.246094"/>
       <use xlink:href="#DejaVuSans-30" x="190.869141"/>
       <use xlink:href="#DejaVuSans-2d" x="254.492188"/>
       <use xlink:href="#DejaVuSans-44" x="290.576172"/>
       <use xlink:href="#DejaVuSans-65" x="367.578125"/>
       <use xlink:href="#DejaVuSans-63" x="429.101562"/>
       <use xlink:href="#DejaVuSans-2d" x="484.082031"/>
       <use xlink:href="#DejaVuSans-30" x="520.166016"/>
       <use xlink:href="#DejaVuSans-31" x="583.789062"/>
      </g>
     </g>
    </g>
    <g id="xtick_3">
     <g id="line2d_3">
      <g>
       <use xlink:href="#m68946d4725" x="122.913832" y="196.776875" style="stroke: #000000; stroke-width: 0.8"/>
      </g>
     </g>
     <g id="text_3">
      <!-- 2021-Jan-01 -->
      <g transform="translate(68.727092 241.04169)rotate(-30)scale(0.1 -0.1)">
       <defs>
        <path id="DejaVuSans-4a" d="M 628 4666 
L 1259 4666 
L 1259 325 
Q 1259 -519 939 -900 
Q 619 -1281 -91 -1281 
L -331 -1281 
L -331 -750 
L -134 -750 
Q 284 -750 456 -515 
Q 628 -281 628 325 
L 628 4666 
z
" transform="scale(0.015625)"/>
        <path id="DejaVuSans-61" d="M 2194 1759 
Q 1497 1759 1228 1600 
Q 959 1441 959 1056 
Q 959 750 1161 570 
Q 1363 391 1709 391 
Q 2188 391 2477 730 
Q 2766 1069 2766 1631 
L 2766 1759 
L 2194 1759 
z
M 3341 1997 
L 3341 0 
L 2766 0 
L 2766 531 
Q 2569 213 2275 61 
Q 1981 -91 1556 -91 
Q 1019 -91 701 211 
Q 384 513 384 1019 
Q 384 1609 779 1909 
Q 1175 2209 1959 2209 
L 2766 2209 
L 2766 2266 
Q 2766 2663 2505 2880 
Q 2244 3097 1772 3097 
Q 1472 3097 1187 3025 
Q 903 2953 641 2809 
L 641 3341 
Q 956 3463 1253 3523 
Q 1550 3584 1831 3584 
Q 2591 3584 2966 3190 
Q 3341 2797 3341 1997 
z
" transform="scale(0.015625)"/>
        <path id="DejaVuSans-6e" d="M 3513 2113 
L 3513 0 
L 2938 0 
L 2938 2094 
Q 2938 2591 2744 2837 
Q 2550 3084 2163 3084 
Q 1697 3084 1428 2787 
Q 1159 2491 1159 1978 
L 1159 0 
L 581 0 
L 581 3500 
L 1159 3500 
L 1159 2956 
Q 1366 3272 1645 3428 
Q 1925 3584 2291 3584 
Q 2894 3584 3203 3211 
Q 3513 2838 3513 2113 
z
" transform="scale(0.015625)"/>
       </defs>
       <use xlink:href="#DejaVuSans-32"/>
       <use xlink:href="#DejaVuSans-30" x="63.623047"/>
       <use xlink:href="#DejaVuSans-32" x="127.246094"/>
       <use xlink:href="#DejaVuSans-31" x="190.869141"/>
       <use xlink:href="#DejaVuSans-2d" x="254.492188"/>
       <use xlink:href="#DejaVuSans-4a" x="296.201172"/>
       <use xlink:href="#DejaVuSans-61" x="325.693359"/>
       <use xlink:href="#DejaVuSans-6e" x="386.972656"/>
       <use xlink:href="#DejaVuSans-2d" x="450.351562"/>
       <use xlink:href="#DejaVuSans-30" x="486.435547"/>
       <use xlink:href="#DejaVuSans-31" x="550.058594"/>
      </g>
     </g>
    </g>
    <g id="xtick_4">
     <g id="line2d_4">
      <g>
       <use xlink:href="#m68946d4725" x="150.808208" y="196.776875" style="stroke: #000000; stroke-width: 0.8"/>
      </g>
     </g>
     <g id="text_4">
      <!-- 2021-Feb-01 -->
      <g transform="translate(95.127574 241.90419)rotate(-30)scale(0.1 -0.1)">
       <defs>
        <path id="DejaVuSans-46" d="M 628 4666 
L 3309 4666 
L 3309 4134 
L 1259 4134 
L 1259 2759 
L 3109 2759 
L 3109 2228 
L 1259 2228 
L 1259 0 
L 628 0 
L 628 4666 
z
" transform="scale(0.015625)"/>
        <path id="DejaVuSans-62" d="M 3116 1747 
Q 3116 2381 2855 2742 
Q 2594 3103 2138 3103 
Q 1681 3103 1420 2742 
Q 1159 2381 1159 1747 
Q 1159 1113 1420 752 
Q 1681 391 2138 391 
Q 2594 391 2855 752 
Q 3116 1113 3116 1747 
z
M 1159 2969 
Q 1341 3281 1617 3432 
Q 1894 3584 2278 3584 
Q 2916 3584 3314 3078 
Q 3713 2572 3713 1747 
Q 3713 922 3314 415 
Q 2916 -91 2278 -91 
Q 1894 -91 1617 61 
Q 1341 213 1159 525 
L 1159 0 
L 581 0 
L 581 4863 
L 1159 4863 
L 1159 2969 
z
" transform="scale(0.015625)"/>
       </defs>
       <use xlink:href="#DejaVuSans-32"/>
       <use xlink:href="#DejaVuSans-30" x="63.623047"/>
       <use xlink:href="#DejaVuSans-32" x="127.246094"/>
       <use xlink:href="#DejaVuSans-31" x="190.869141"/>
       <use xlink:href="#DejaVuSans-2d" x="254.492188"/>
       <use xlink:href="#DejaVuSans-46" x="290.576172"/>
       <use xlink:href="#DejaVuSans-65" x="342.595703"/>
       <use xlink:href="#DejaVuSans-62" x="404.119141"/>
       <use xlink:href="#DejaVuSans-2d" x="467.595703"/>
       <use xlink:href="#DejaVuSans-30" x="503.679688"/>
       <use xlink:href="#DejaVuSans-31" x="567.302734"/>
      </g>
     </g>
    </g>
    <g id="xtick_5">
     <g id="line2d_5">
      <g>
       <use xlink:href="#m68946d4725" x="176.003129" y="196.776875" style="stroke: #000000; stroke-width: 0.8"/>
      </g>
     </g>
     <g id="text_5">
      <!-- 2021-Mar-01 -->
      <g transform="translate(119.866478 242.167471)rotate(-30)scale(0.1 -0.1)">
       <defs>
        <path id="DejaVuSans-4d" d="M 628 4666 
L 1569 4666 
L 2759 1491 
L 3956 4666 
L 4897 4666 
L 4897 0 
L 4281 0 
L 4281 4097 
L 3078 897 
L 2444 897 
L 1241 4097 
L 1241 0 
L 628 0 
L 628 4666 
z
" transform="scale(0.015625)"/>
        <path id="DejaVuSans-72" d="M 2631 2963 
Q 2534 3019 2420 3045 
Q 2306 3072 2169 3072 
Q 1681 3072 1420 2755 
Q 1159 2438 1159 1844 
L 1159 0 
L 581 0 
L 581 3500 
L 1159 3500 
L 1159 2956 
Q 1341 3275 1631 3429 
Q 1922 3584 2338 3584 
Q 2397 3584 2469 3576 
Q 2541 3569 2628 3553 
L 2631 2963 
z
" transform="scale(0.015625)"/>
       </defs>
       <use xlink:href="#DejaVuSans-32"/>
       <use xlink:href="#DejaVuSans-30" x="63.623047"/>
       <use xlink:href="#DejaVuSans-32" x="127.246094"/>
       <use xlink:href="#DejaVuSans-31" x="190.869141"/>
       <use xlink:href="#DejaVuSans-2d" x="254.492188"/>
       <use xlink:href="#DejaVuSans-4d" x="290.576172"/>
       <use xlink:href="#DejaVuSans-61" x="376.855469"/>
       <use xlink:href="#DejaVuSans-72" x="438.134766"/>
       <use xlink:href="#DejaVuSans-2d" x="472.873047"/>
       <use xlink:href="#DejaVuSans-30" x="508.957031"/>
       <use xlink:href="#DejaVuSans-31" x="572.580078"/>
      </g>
     </g>
    </g>
    <g id="xtick_6">
     <g id="line2d_6">
      <g>
       <use xlink:href="#m68946d4725" x="203.897505" y="196.776875" style="stroke: #000000; stroke-width: 0.8"/>
      </g>
     </g>
     <g id="text_6">
      <!-- 2021-Apr-01 -->
      <g transform="translate(149.312934 241.271377)rotate(-30)scale(0.1 -0.1)">
       <defs>
        <path id="DejaVuSans-41" d="M 2188 4044 
L 1331 1722 
L 3047 1722 
L 2188 4044 
z
M 1831 4666 
L 2547 4666 
L 4325 0 
L 3669 0 
L 3244 1197 
L 1141 1197 
L 716 0 
L 50 0 
L 1831 4666 
z
" transform="scale(0.015625)"/>
        <path id="DejaVuSans-70" d="M 1159 525 
L 1159 -1331 
L 581 -1331 
L 581 3500 
L 1159 3500 
L 1159 2969 
Q 1341 3281 1617 3432 
Q 1894 3584 2278 3584 
Q 2916 3584 3314 3078 
Q 3713 2572 3713 1747 
Q 3713 922 3314 415 
Q 2916 -91 2278 -91 
Q 1894 -91 1617 61 
Q 1341 213 1159 525 
z
M 3116 1747 
Q 3116 2381 2855 2742 
Q 2594 3103 2138 3103 
Q 1681 3103 1420 2742 
Q 1159 2381 1159 1747 
Q 1159 1113 1420 752 
Q 1681 391 2138 391 
Q 2594 391 2855 752 
Q 3116 1113 3116 1747 
z
" transform="scale(0.015625)"/>
       </defs>
       <use xlink:href="#DejaVuSans-32"/>
       <use xlink:href="#DejaVuSans-30" x="63.623047"/>
       <use xlink:href="#DejaVuSans-32" x="127.246094"/>
       <use xlink:href="#DejaVuSans-31" x="190.869141"/>
       <use xlink:href="#DejaVuSans-2d" x="254.492188"/>
       <use xlink:href="#DejaVuSans-41" x="288.326172"/>
       <use xlink:href="#DejaVuSans-70" x="356.734375"/>
       <use xlink:href="#DejaVuSans-72" x="420.210938"/>
       <use xlink:href="#DejaVuSans-2d" x="454.949219"/>
       <use xlink:href="#DejaVuSans-30" x="491.033203"/>
       <use xlink:href="#DejaVuSans-31" x="554.65625"/>
      </g>
     </g>
    </g>
    <g id="xtick_7">
     <g id="line2d_7">
      <g>
       <use xlink:href="#m68946d4725" x="230.892062" y="196.776875" style="stroke: #000000; stroke-width: 0.8"/>
      </g>
     </g>
     <g id="text_7">
      <!-- 2021-May-01 -->
      <g transform="translate(172.789264 243.302627)rotate(-30)scale(0.1 -0.1)">
       <defs>
        <path id="DejaVuSans-79" d="M 2059 -325 
Q 1816 -950 1584 -1140 
Q 1353 -1331 966 -1331 
L 506 -1331 
L 506 -850 
L 844 -850 
Q 1081 -850 1212 -737 
Q 1344 -625 1503 -206 
L 1606 56 
L 191 3500 
L 800 3500 
L 1894 763 
L 2988 3500 
L 3597 3500 
L 2059 -325 
z
" transform="scale(0.015625)"/>
       </defs>
       <use xlink:href="#DejaVuSans-32"/>
       <use xlink:href="#DejaVuSans-30" x="63.623047"/>
       <use xlink:href="#DejaVuSans-32" x="127.246094"/>
       <use xlink:href="#DejaVuSans-31" x="190.869141"/>
       <use xlink:href="#DejaVuSans-2d" x="254.492188"/>
       <use xlink:href="#DejaVuSans-4d" x="290.576172"/>
       <use xlink:href="#DejaVuSans-61" x="376.855469"/>
       <use xlink:href="#DejaVuSans-79" x="438.134766"/>
       <use xlink:href="#DejaVuSans-2d" x="495.564453"/>
       <use xlink:href="#DejaVuSans-30" x="531.648438"/>
       <use xlink:href="#DejaVuSans-31" x="595.271484"/>
      </g>
     </g>
    </g>
    <g id="xtick_8">
     <g id="line2d_8">
      <g>
       <use xlink:href="#m68946d4725" x="258.786439" y="196.776875" style="stroke: #000000; stroke-width: 0.8"/>
      </g>
     </g>
     <g id="text_8">
      <!-- 2021-Jun-01 -->
      <g transform="translate(204.418374 241.146377)rotate(-30)scale(0.1 -0.1)">
       <defs>
        <path id="DejaVuSans-75" d="M 544 1381 
L 544 3500 
L 1119 3500 
L 1119 1403 
Q 1119 906 1312 657 
Q 1506 409 1894 409 
Q 2359 409 2629 706 
Q 2900 1003 2900 1516 
L 2900 3500 
L 3475 3500 
L 3475 0 
L 2900 0 
L 2900 538 
Q 2691 219 2414 64 
Q 2138 -91 1772 -91 
Q 1169 -91 856 284 
Q 544 659 544 1381 
z
M 1991 3584 
L 1991 3584 
z
" transform="scale(0.015625)"/>
       </defs>
       <use xlink:href="#DejaVuSans-32"/>
       <use xlink:href="#DejaVuSans-30" x="63.623047"/>
       <use xlink:href="#DejaVuSans-32" x="127.246094"/>
       <use xlink:href="#DejaVuSans-31" x="190.869141"/>
       <use xlink:href="#DejaVuSans-2d" x="254.492188"/>
       <use xlink:href="#DejaVuSans-4a" x="296.201172"/>
       <use xlink:href="#DejaVuSans-75" x="325.693359"/>
       <use xlink:href="#DejaVuSans-6e" x="389.072266"/>
       <use xlink:href="#DejaVuSans-2d" x="452.451172"/>
       <use xlink:href="#DejaVuSans-30" x="488.535156"/>
       <use xlink:href="#DejaVuSans-31" x="552.158203"/>
      </g>
     </g>
    </g>
    <g id="xtick_9">
     <g id="line2d_9">
      <g>
       <use xlink:href="#m68946d4725" x="285.780996" y="196.776875" style="stroke: #000000; stroke-width: 0.8"/>
      </g>
     </g>
     <g id="text_9">
      <!-- 2021-Jul-01 -->
      <g transform="translate(234.495441 239.36669)rotate(-30)scale(0.1 -0.1)">
       <defs>
        <path id="DejaVuSans-6c" d="M 603 4863 
L 1178 4863 
L 1178 0 
L 603 0 
L 603 4863 
z
" transform="scale(0.015625)"/>
       </defs>
       <use xlink:href="#DejaVuSans-32"/>
       <use xlink:href="#DejaVuSans-30" x="63.623047"/>
       <use xlink:href="#DejaVuSans-32" x="127.246094"/>
       <use xlink:href="#DejaVuSans-31" x="190.869141"/>
       <use xlink:href="#DejaVuSans-2d" x="254.492188"/>
       <use xlink:href="#DejaVuSans-4a" x="296.201172"/>
       <use xlink:href="#DejaVuSans-75" x="325.693359"/>
       <use xlink:href="#DejaVuSans-6c" x="389.072266"/>
       <use xlink:href="#DejaVuSans-2d" x="416.855469"/>
       <use xlink:href="#DejaVuSans-30" x="452.939453"/>
       <use xlink:href="#DejaVuSans-31" x="516.5625"/>
      </g>
     </g>
    </g>
    <g id="xtick_10">
     <g id="line2d_10">
      <g>
       <use xlink:href="#m68946d4725" x="313.675372" y="196.776875" style="stroke: #000000; stroke-width: 0.8"/>
      </g>
     </g>
     <g id="text_10">
      <!-- 2021-Aug-01 -->
      <g transform="translate(256.610451 242.703409)rotate(-30)scale(0.1 -0.1)">
       <defs>
        <path id="DejaVuSans-67" d="M 2906 1791 
Q 2906 2416 2648 2759 
Q 2391 3103 1925 3103 
Q 1463 3103 1205 2759 
Q 947 2416 947 1791 
Q 947 1169 1205 825 
Q 1463 481 1925 481 
Q 2391 481 2648 825 
Q 2906 1169 2906 1791 
z
M 3481 434 
Q 3481 -459 3084 -895 
Q 2688 -1331 1869 -1331 
Q 1566 -1331 1297 -1286 
Q 1028 -1241 775 -1147 
L 775 -588 
Q 1028 -725 1275 -790 
Q 1522 -856 1778 -856 
Q 2344 -856 2625 -561 
Q 2906 -266 2906 331 
L 2906 616 
Q 2728 306 2450 153 
Q 2172 0 1784 0 
Q 1141 0 747 490 
Q 353 981 353 1791 
Q 353 2603 747 3093 
Q 1141 3584 1784 3584 
Q 2172 3584 2450 3431 
Q 2728 3278 2906 2969 
L 2906 3500 
L 3481 3500 
L 3481 434 
z
" transform="scale(0.015625)"/>
       </defs>
       <use xlink:href="#DejaVuSans-32"/>
       <use xlink:href="#DejaVuSans-30" x="63.623047"/>
       <use xlink:href="#DejaVuSans-32" x="127.246094"/>
       <use xlink:href="#DejaVuSans-31" x="190.869141"/>
       <use xlink:href="#DejaVuSans-2d" x="254.492188"/>
       <use xlink:href="#DejaVuSans-41" x="288.326172"/>
       <use xlink:href="#DejaVuSans-75" x="356.734375"/>
       <use xlink:href="#DejaVuSans-67" x="420.113281"/>
       <use xlink:href="#DejaVuSans-2d" x="483.589844"/>
       <use xlink:href="#DejaVuSans-30" x="519.673828"/>
       <use xlink:href="#DejaVuSans-31" x="583.296875"/>
      </g>
     </g>
    </g>
    <g id="xtick_11">
     <g id="line2d_11">
      <g>
       <use xlink:href="#m68946d4725" x="341.569748" y="196.776875" style="stroke: #000000; stroke-width: 0.8"/>
      </g>
     </g>
     <g id="text_11">
      <!-- 2021-Sep-01 -->
      <g transform="translate(284.895891 242.477627)rotate(-30)scale(0.1 -0.1)">
       <defs>
        <path id="DejaVuSans-53" d="M 3425 4513 
L 3425 3897 
Q 3066 4069 2747 4153 
Q 2428 4238 2131 4238 
Q 1616 4238 1336 4038 
Q 1056 3838 1056 3469 
Q 1056 3159 1242 3001 
Q 1428 2844 1947 2747 
L 2328 2669 
Q 3034 2534 3370 2195 
Q 3706 1856 3706 1288 
Q 3706 609 3251 259 
Q 2797 -91 1919 -91 
Q 1588 -91 1214 -16 
Q 841 59 441 206 
L 441 856 
Q 825 641 1194 531 
Q 1563 422 1919 422 
Q 2459 422 2753 634 
Q 3047 847 3047 1241 
Q 3047 1584 2836 1778 
Q 2625 1972 2144 2069 
L 1759 2144 
Q 1053 2284 737 2584 
Q 422 2884 422 3419 
Q 422 4038 858 4394 
Q 1294 4750 2059 4750 
Q 2388 4750 2728 4690 
Q 3069 4631 3425 4513 
z
" transform="scale(0.015625)"/>
       </defs>
       <use xlink:href="#DejaVuSans-32"/>
       <use xlink:href="#DejaVuSans-30" x="63.623047"/>
       <use xlink:href="#DejaVuSans-32" x="127.246094"/>
       <use xlink:href="#DejaVuSans-31" x="190.869141"/>
       <use xlink:href="#DejaVuSans-2d" x="254.492188"/>
       <use xlink:href="#DejaVuSans-53" x="290.576172"/>
       <use xlink:href="#DejaVuSans-65" x="354.052734"/>
       <use xlink:href="#DejaVuSans-70" x="415.576172"/>
       <use xlink:href="#DejaVuSans-2d" x="479.052734"/>
       <use xlink:href="#DejaVuSans-30" x="515.136719"/>
       <use xlink:href="#DejaVuSans-31" x="578.759766"/>
      </g>
     </g>
    </g>
    <g id="xtick_12">
     <g id="line2d_12">
      <g>
       <use xlink:href="#m68946d4725" x="368.564306" y="196.776875" style="stroke: #000000; stroke-width: 0.8"/>
      </g>
     </g>
     <g id="text_12">
      <!-- 2021-Oct-01 -->
      <g transform="translate(313.00275 241.83544)rotate(-30)scale(0.1 -0.1)">
       <defs>
        <path id="DejaVuSans-4f" d="M 2522 4238 
Q 1834 4238 1429 3725 
Q 1025 3213 1025 2328 
Q 1025 1447 1429 934 
Q 1834 422 2522 422 
Q 3209 422 3611 934 
Q 4013 1447 4013 2328 
Q 4013 3213 3611 3725 
Q 3209 4238 2522 4238 
z
M 2522 4750 
Q 3503 4750 4090 4092 
Q 4678 3434 4678 2328 
Q 4678 1225 4090 567 
Q 3503 -91 2522 -91 
Q 1538 -91 948 565 
Q 359 1222 359 2328 
Q 359 3434 948 4092 
Q 1538 4750 2522 4750 
z
" transform="scale(0.015625)"/>
        <path id="DejaVuSans-74" d="M 1172 4494 
L 1172 3500 
L 2356 3500 
L 2356 3053 
L 1172 3053 
L 1172 1153 
Q 1172 725 1289 603 
Q 1406 481 1766 481 
L 2356 481 
L 2356 0 
L 1766 0 
Q 1100 0 847 248 
Q 594 497 594 1153 
L 594 3053 
L 172 3053 
L 172 3500 
L 594 3500 
L 594 4494 
L 1172 4494 
z
" transform="scale(0.015625)"/>
       </defs>
       <use xlink:href="#DejaVuSans-32"/>
       <use xlink:href="#DejaVuSans-30" x="63.623047"/>
       <use xlink:href="#DejaVuSans-32" x="127.246094"/>
       <use xlink:href="#DejaVuSans-31" x="190.869141"/>
       <use xlink:href="#DejaVuSans-2d" x="254.492188"/>
       <use xlink:href="#DejaVuSans-4f" x="293.326172"/>
       <use xlink:href="#DejaVuSans-63" x="372.037109"/>
       <use xlink:href="#DejaVuSans-74" x="427.017578"/>
       <use xlink:href="#DejaVuSans-2d" x="466.226562"/>
       <use xlink:href="#DejaVuSans-30" x="502.310547"/>
       <use xlink:href="#DejaVuSans-31" x="565.933594"/>
      </g>
     </g>
    </g>
    <g id="xtick_13">
     <g id="line2d_13">
      <g>
       <use xlink:href="#m68946d4725" x="396.458682" y="196.776875" style="stroke: #000000; stroke-width: 0.8"/>
      </g>
     </g>
     <g id="text_13">
      <!-- 2021-Nov-01 -->
      <g transform="translate(339.433002 242.680752)rotate(-30)scale(0.1 -0.1)">
       <use xlink:href="#DejaVuSans-32"/>
       <use xlink:href="#DejaVuSans-30" x="63.623047"/>
       <use xlink:href="#DejaVuSans-32" x="127.246094"/>
       <use xlink:href="#DejaVuSans-31" x="190.869141"/>
       <use xlink:href="#DejaVuSans-2d" x="254.492188"/>
       <use xlink:href="#DejaVuSans-4e" x="290.576172"/>
       <use xlink:href="#DejaVuSans-6f" x="365.380859"/>
       <use xlink:href="#DejaVuSans-76" x="426.5625"/>
       <use xlink:href="#DejaVuSans-2d" x="483.117188"/>
       <use xlink:href="#DejaVuSans-30" x="519.201172"/>
       <use xlink:href="#DejaVuSans-31" x="582.824219"/>
      </g>
     </g>
    </g>
    <g id="xtick_14">
     <g id="line2d_14">
      <g>
       <use xlink:href="#m68946d4725" x="423.45324" y="196.776875" style="stroke: #000000; stroke-width: 0.8"/>
      </g>
     </g>
     <g id="text_14">
      <!-- 2021-Dec-01 -->
      <g transform="translate(366.345017 242.728409)rotate(-30)scale(0.1 -0.1)">
       <use xlink:href="#DejaVuSans-32"/>
       <use xlink:href="#DejaVuSans-30" x="63.623047"/>
       <use xlink:href="#DejaVuSans-32" x="127.246094"/>
       <use xlink:href="#DejaVuSans-31" x="190.869141"/>
       <use xlink:href="#DejaVuSans-2d" x="254.492188"/>
       <use xlink:href="#DejaVuSans-44" x="290.576172"/>
       <use xlink:href="#DejaVuSans-65" x="367.578125"/>
       <use xlink:href="#DejaVuSans-63" x="429.101562"/>
       <use xlink:href="#DejaVuSans-2d" x="484.082031"/>
       <use xlink:href="#DejaVuSans-30" x="520.166016"/>
       <use xlink:href="#DejaVuSans-31" x="583.789062"/>
      </g>
     </g>
    </g>
    <g id="xtick_15">
     <g id="line2d_15">
      <g>
       <use xlink:href="#m68946d4725" x="451.347616" y="196.776875" style="stroke: #000000; stroke-width: 0.8"/>
      </g>
     </g>
     <g id="text_15">
      <!-- 2022-Jan-01 -->
      <g transform="translate(397.160875 241.04169)rotate(-30)scale(0.1 -0.1)">
       <use xlink:href="#DejaVuSans-32"/>
       <use xlink:href="#DejaVuSans-30" x="63.623047"/>
       <use xlink:href="#DejaVuSans-32" x="127.246094"/>
       <use xlink:href="#DejaVuSans-32" x="190.869141"/>
       <use xlink:href="#DejaVuSans-2d" x="254.492188"/>
       <use xlink:href="#DejaVuSans-4a" x="296.201172"/>
       <use xlink:href="#DejaVuSans-61" x="325.693359"/>
       <use xlink:href="#DejaVuSans-6e" x="386.972656"/>
       <use xlink:href="#DejaVuSans-2d" x="450.351562"/>
       <use xlink:href="#DejaVuSans-30" x="486.435547"/>
       <use xlink:href="#DejaVuSans-31" x="550.058594"/>
      </g>
     </g>
    </g>
    <g id="xtick_16">
     <g id="line2d_16">
      <g>
       <use xlink:href="#m68946d4725" x="479.241992" y="196.776875" style="stroke: #000000; stroke-width: 0.8"/>
      </g>
     </g>
     <g id="text_16">
      <!-- 2022-Feb-01 -->
      <g transform="translate(423.561358 241.90419)rotate(-30)scale(0.1 -0.1)">
       <use xlink:href="#DejaVuSans-32"/>
       <use xlink:href="#DejaVuSans-30" x="63.623047"/>
       <use xlink:href="#DejaVuSans-32" x="127.246094"/>
       <use xlink:href="#DejaVuSans-32" x="190.869141"/>
       <use xlink:href="#DejaVuSans-2d" x="254.492188"/>
       <use xlink:href="#DejaVuSans-46" x="290.576172"/>
       <use xlink:href="#DejaVuSans-65" x="342.595703"/>
       <use xlink:href="#DejaVuSans-62" x="404.119141"/>
       <use xlink:href="#DejaVuSans-2d" x="467.595703"/>
       <use xlink:href="#DejaVuSans-30" x="503.679688"/>
       <use xlink:href="#DejaVuSans-31" x="567.302734"/>
      </g>
     </g>
    </g>
   </g>
   <g id="matplotlib.axis_2">
    <g id="ytick_1">
     <g id="line2d_17">
      <path d="M 53.132901 196.776875 
L 499.532901 196.776875 
" clip-path="url(#p4f8e7aba9c)" style="fill: none; stroke: #b0b0b0; stroke-width: 0.8; stroke-linecap: square"/>
     </g>
     <g id="line2d_18">
      <defs>
       <path id="mcc8e6b08b6" d="M 0 0 
L -3.5 0 
" style="stroke: #000000; stroke-width: 0.8"/>
      </defs>
      <g>
       <use xlink:href="#mcc8e6b08b6" x="53.132901" y="196.776875" style="stroke: #000000; stroke-width: 0.8"/>
      </g>
     </g>
     <g id="text_17">
      <!-- 0 -->
      <g transform="translate(39.770401 200.576094)scale(0.1 -0.1)">
       <use xlink:href="#DejaVuSans-30"/>
      </g>
     </g>
    </g>
    <g id="ytick_2">
     <g id="line2d_19">
      <path d="M 53.132901 175.356875 
L 499.532901 175.356875 
" clip-path="url(#p4f8e7aba9c)" style="fill: none; stroke: #b0b0b0; stroke-width: 0.8; stroke-linecap: square"/>
     </g>
     <g id="line2d_20">
      <g>
       <use xlink:href="#mcc8e6b08b6" x="53.132901" y="175.356875" style="stroke: #000000; stroke-width: 0.8"/>
      </g>
     </g>
     <g id="text_18">
      <!-- 3 -->
      <g transform="translate(39.770401 179.156094)scale(0.1 -0.1)">
       <defs>
        <path id="DejaVuSans-33" d="M 2597 2516 
Q 3050 2419 3304 2112 
Q 3559 1806 3559 1356 
Q 3559 666 3084 287 
Q 2609 -91 1734 -91 
Q 1441 -91 1130 -33 
Q 819 25 488 141 
L 488 750 
Q 750 597 1062 519 
Q 1375 441 1716 441 
Q 2309 441 2620 675 
Q 2931 909 2931 1356 
Q 2931 1769 2642 2001 
Q 2353 2234 1838 2234 
L 1294 2234 
L 1294 2753 
L 1863 2753 
Q 2328 2753 2575 2939 
Q 2822 3125 2822 3475 
Q 2822 3834 2567 4026 
Q 2313 4219 1838 4219 
Q 1578 4219 1281 4162 
Q 984 4106 628 3988 
L 628 4550 
Q 988 4650 1302 4700 
Q 1616 4750 1894 4750 
Q 2613 4750 3031 4423 
Q 3450 4097 3450 3541 
Q 3450 3153 3228 2886 
Q 3006 2619 2597 2516 
z
" transform="scale(0.015625)"/>
       </defs>
       <use xlink:href="#DejaVuSans-33"/>
      </g>
     </g>
    </g>
    <g id="ytick_3">
     <g id="line2d_21">
      <path d="M 53.132901 153.936875 
L 499.532901 153.936875 
" clip-path="url(#p4f8e7aba9c)" style="fill: none; stroke: #b0b0b0; stroke-width: 0.8; stroke-linecap: square"/>
     </g>
     <g id="line2d_22">
      <g>
       <use xlink:href="#mcc8e6b08b6" x="53.132901" y="153.936875" style="stroke: #000000; stroke-width: 0.8"/>
      </g>
     </g>
     <g id="text_19">
      <!-- 6 -->
      <g transform="translate(39.770401 157.736094)scale(0.1 -0.1)">
       <defs>
        <path id="DejaVuSans-36" d="M 2113 2584 
Q 1688 2584 1439 2293 
Q 1191 2003 1191 1497 
Q 1191 994 1439 701 
Q 1688 409 2113 409 
Q 2538 409 2786 701 
Q 3034 994 3034 1497 
Q 3034 2003 2786 2293 
Q 2538 2584 2113 2584 
z
M 3366 4563 
L 3366 3988 
Q 3128 4100 2886 4159 
Q 2644 4219 2406 4219 
Q 1781 4219 1451 3797 
Q 1122 3375 1075 2522 
Q 1259 2794 1537 2939 
Q 1816 3084 2150 3084 
Q 2853 3084 3261 2657 
Q 3669 2231 3669 1497 
Q 3669 778 3244 343 
Q 2819 -91 2113 -91 
Q 1303 -91 875 529 
Q 447 1150 447 2328 
Q 447 3434 972 4092 
Q 1497 4750 2381 4750 
Q 2619 4750 2861 4703 
Q 3103 4656 3366 4563 
z
" transform="scale(0.015625)"/>
       </defs>
       <use xlink:href="#DejaVuSans-36"/>
      </g>
     </g>
    </g>
    <g id="ytick_4">
     <g id="line2d_23">
      <path d="M 53.132901 132.516875 
L 499.532901 132.516875 
" clip-path="url(#p4f8e7aba9c)" style="fill: none; stroke: #b0b0b0; stroke-width: 0.8; stroke-linecap: square"/>
     </g>
     <g id="line2d_24">
      <g>
       <use xlink:href="#mcc8e6b08b6" x="53.132901" y="132.516875" style="stroke: #000000; stroke-width: 0.8"/>
      </g>
     </g>
     <g id="text_20">
      <!-- 9 -->
      <g transform="translate(39.770401 136.316094)scale(0.1 -0.1)">
       <defs>
        <path id="DejaVuSans-39" d="M 703 97 
L 703 672 
Q 941 559 1184 500 
Q 1428 441 1663 441 
Q 2288 441 2617 861 
Q 2947 1281 2994 2138 
Q 2813 1869 2534 1725 
Q 2256 1581 1919 1581 
Q 1219 1581 811 2004 
Q 403 2428 403 3163 
Q 403 3881 828 4315 
Q 1253 4750 1959 4750 
Q 2769 4750 3195 4129 
Q 3622 3509 3622 2328 
Q 3622 1225 3098 567 
Q 2575 -91 1691 -91 
Q 1453 -91 1209 -44 
Q 966 3 703 97 
z
M 1959 2075 
Q 2384 2075 2632 2365 
Q 2881 2656 2881 3163 
Q 2881 3666 2632 3958 
Q 2384 4250 1959 4250 
Q 1534 4250 1286 3958 
Q 1038 3666 1038 3163 
Q 1038 2656 1286 2365 
Q 1534 2075 1959 2075 
z
" transform="scale(0.015625)"/>
       </defs>
       <use xlink:href="#DejaVuSans-39"/>
      </g>
     </g>
    </g>
    <g id="ytick_5">
     <g id="line2d_25">
      <path d="M 53.132901 111.096875 
L 499.532901 111.096875 
" clip-path="url(#p4f8e7aba9c)" style="fill: none; stroke: #b0b0b0; stroke-width: 0.8; stroke-linecap: square"/>
     </g>
     <g id="line2d_26">
      <g>
       <use xlink:href="#mcc8e6b08b6" x="53.132901" y="111.096875" style="stroke: #000000; stroke-width: 0.8"/>
      </g>
     </g>
     <g id="text_21">
      <!-- 12 -->
      <g transform="translate(33.407901 114.896094)scale(0.1 -0.1)">
       <use xlink:href="#DejaVuSans-31"/>
       <use xlink:href="#DejaVuSans-32" x="63.623047"/>
      </g>
     </g>
    </g>
    <g id="ytick_6">
     <g id="line2d_27">
      <path d="M 53.132901 89.676875 
L 499.532901 89.676875 
" clip-path="url(#p4f8e7aba9c)" style="fill: none; stroke: #b0b0b0; stroke-width: 0.8; stroke-linecap: square"/>
     </g>
     <g id="line2d_28">
      <g>
       <use xlink:href="#mcc8e6b08b6" x="53.132901" y="89.676875" style="stroke: #000000; stroke-width: 0.8"/>
      </g>
     </g>
     <g id="text_22">
      <!-- 15 -->
      <g transform="translate(33.407901 93.476094)scale(0.1 -0.1)">
       <defs>
        <path id="DejaVuSans-35" d="M 691 4666 
L 3169 4666 
L 3169 4134 
L 1269 4134 
L 1269 2991 
Q 1406 3038 1543 3061 
Q 1681 3084 1819 3084 
Q 2600 3084 3056 2656 
Q 3513 2228 3513 1497 
Q 3513 744 3044 326 
Q 2575 -91 1722 -91 
Q 1428 -91 1123 -41 
Q 819 9 494 109 
L 494 744 
Q 775 591 1075 516 
Q 1375 441 1709 441 
Q 2250 441 2565 725 
Q 2881 1009 2881 1497 
Q 2881 1984 2565 2268 
Q 2250 2553 1709 2553 
Q 1456 2553 1204 2497 
Q 953 2441 691 2322 
L 691 4666 
z
" transform="scale(0.015625)"/>
       </defs>
       <use xlink:href="#DejaVuSans-31"/>
       <use xlink:href="#DejaVuSans-35" x="63.623047"/>
      </g>
     </g>
    </g>
    <g id="ytick_7">
     <g id="line2d_29">
      <path d="M 53.132901 68.256875 
L 499.532901 68.256875 
" clip-path="url(#p4f8e7aba9c)" style="fill: none; stroke: #b0b0b0; stroke-width: 0.8; stroke-linecap: square"/>
     </g>
     <g id="line2d_30">
      <g>
       <use xlink:href="#mcc8e6b08b6" x="53.132901" y="68.256875" style="stroke: #000000; stroke-width: 0.8"/>
      </g>
     </g>
     <g id="text_23">
      <!-- 18 -->
      <g transform="translate(33.407901 72.056094)scale(0.1 -0.1)">
       <defs>
        <path id="DejaVuSans-38" d="M 2034 2216 
Q 1584 2216 1326 1975 
Q 1069 1734 1069 1313 
Q 1069 891 1326 650 
Q 1584 409 2034 409 
Q 2484 409 2743 651 
Q 3003 894 3003 1313 
Q 3003 1734 2745 1975 
Q 2488 2216 2034 2216 
z
M 1403 2484 
Q 997 2584 770 2862 
Q 544 3141 544 3541 
Q 544 4100 942 4425 
Q 1341 4750 2034 4750 
Q 2731 4750 3128 4425 
Q 3525 4100 3525 3541 
Q 3525 3141 3298 2862 
Q 3072 2584 2669 2484 
Q 3125 2378 3379 2068 
Q 3634 1759 3634 1313 
Q 3634 634 3220 271 
Q 2806 -91 2034 -91 
Q 1263 -91 848 271 
Q 434 634 434 1313 
Q 434 1759 690 2068 
Q 947 2378 1403 2484 
z
M 1172 3481 
Q 1172 3119 1398 2916 
Q 1625 2713 2034 2713 
Q 2441 2713 2670 2916 
Q 2900 3119 2900 3481 
Q 2900 3844 2670 4047 
Q 2441 4250 2034 4250 
Q 1625 4250 1398 4047 
Q 1172 3844 1172 3481 
z
" transform="scale(0.015625)"/>
       </defs>
       <use xlink:href="#DejaVuSans-31"/>
       <use xlink:href="#DejaVuSans-38" x="63.623047"/>
      </g>
     </g>
    </g>
    <g id="ytick_8">
     <g id="line2d_31">
      <path d="M 53.132901 46.836875 
L 499.532901 46.836875 
" clip-path="url(#p4f8e7aba9c)" style="fill: none; stroke: #b0b0b0; stroke-width: 0.8; stroke-linecap: square"/>
     </g>
     <g id="line2d_32">
      <g>
       <use xlink:href="#mcc8e6b08b6" x="53.132901" y="46.836875" style="stroke: #000000; stroke-width: 0.8"/>
      </g>
     </g>
     <g id="text_24">
      <!-- 21 -->
      <g transform="translate(33.407901 50.636094)scale(0.1 -0.1)">
       <use xlink:href="#DejaVuSans-32"/>
       <use xlink:href="#DejaVuSans-31" x="63.623047"/>
      </g>
     </g>
    </g>
    <g id="ytick_9">
     <g id="line2d_33">
      <path d="M 53.132901 25.416875 
L 499.532901 25.416875 
" clip-path="url(#p4f8e7aba9c)" style="fill: none; stroke: #b0b0b0; stroke-width: 0.8; stroke-linecap: square"/>
     </g>
     <g id="line2d_34">
      <g>
       <use xlink:href="#mcc8e6b08b6" x="53.132901" y="25.416875" style="stroke: #000000; stroke-width: 0.8"/>
      </g>
     </g>
     <g id="text_25">
      <!-- 24 -->
      <g transform="translate(33.407901 29.216094)scale(0.1 -0.1)">
       <defs>
        <path id="DejaVuSans-34" d="M 2419 4116 
L 825 1625 
L 2419 1625 
L 2419 4116 
z
M 2253 4666 
L 3047 4666 
L 3047 1625 
L 3713 1625 
L 3713 1100 
L 3047 1100 
L 3047 0 
L 2419 0 
L 2419 1100 
L 313 1100 
L 313 1709 
L 2253 4666 
z
" transform="scale(0.015625)"/>
       </defs>
       <use xlink:href="#DejaVuSans-32"/>
       <use xlink:href="#DejaVuSans-34" x="63.623047"/>
      </g>
     </g>
    </g>
    <g id="text_26">
     <!-- Percentage Of Domains Using security.txt -->
     <g transform="translate(27.328213 214.99375)rotate(-90)scale(0.1 -0.1)">
      <defs>
       <path id="DejaVuSans-50" d="M 1259 4147 
L 1259 2394 
L 2053 2394 
Q 2494 2394 2734 2622 
Q 2975 2850 2975 3272 
Q 2975 3691 2734 3919 
Q 2494 4147 2053 4147 
L 1259 4147 
z
M 628 4666 
L 2053 4666 
Q 2838 4666 3239 4311 
Q 3641 3956 3641 3272 
Q 3641 2581 3239 2228 
Q 2838 1875 2053 1875 
L 1259 1875 
L 1259 0 
L 628 0 
L 628 4666 
z
" transform="scale(0.015625)"/>
       <path id="DejaVuSans-20" transform="scale(0.015625)"/>
       <path id="DejaVuSans-66" d="M 2375 4863 
L 2375 4384 
L 1825 4384 
Q 1516 4384 1395 4259 
Q 1275 4134 1275 3809 
L 1275 3500 
L 2222 3500 
L 2222 3053 
L 1275 3053 
L 1275 0 
L 697 0 
L 697 3053 
L 147 3053 
L 147 3500 
L 697 3500 
L 697 3744 
Q 697 4328 969 4595 
Q 1241 4863 1831 4863 
L 2375 4863 
z
" transform="scale(0.015625)"/>
       <path id="DejaVuSans-6d" d="M 3328 2828 
Q 3544 3216 3844 3400 
Q 4144 3584 4550 3584 
Q 5097 3584 5394 3201 
Q 5691 2819 5691 2113 
L 5691 0 
L 5113 0 
L 5113 2094 
Q 5113 2597 4934 2840 
Q 4756 3084 4391 3084 
Q 3944 3084 3684 2787 
Q 3425 2491 3425 1978 
L 3425 0 
L 2847 0 
L 2847 2094 
Q 2847 2600 2669 2842 
Q 2491 3084 2119 3084 
Q 1678 3084 1418 2786 
Q 1159 2488 1159 1978 
L 1159 0 
L 581 0 
L 581 3500 
L 1159 3500 
L 1159 2956 
Q 1356 3278 1631 3431 
Q 1906 3584 2284 3584 
Q 2666 3584 2933 3390 
Q 3200 3197 3328 2828 
z
" transform="scale(0.015625)"/>
       <path id="DejaVuSans-69" d="M 603 3500 
L 1178 3500 
L 1178 0 
L 603 0 
L 603 3500 
z
M 603 4863 
L 1178 4863 
L 1178 4134 
L 603 4134 
L 603 4863 
z
" transform="scale(0.015625)"/>
       <path id="DejaVuSans-73" d="M 2834 3397 
L 2834 2853 
Q 2591 2978 2328 3040 
Q 2066 3103 1784 3103 
Q 1356 3103 1142 2972 
Q 928 2841 928 2578 
Q 928 2378 1081 2264 
Q 1234 2150 1697 2047 
L 1894 2003 
Q 2506 1872 2764 1633 
Q 3022 1394 3022 966 
Q 3022 478 2636 193 
Q 2250 -91 1575 -91 
Q 1294 -91 989 -36 
Q 684 19 347 128 
L 347 722 
Q 666 556 975 473 
Q 1284 391 1588 391 
Q 1994 391 2212 530 
Q 2431 669 2431 922 
Q 2431 1156 2273 1281 
Q 2116 1406 1581 1522 
L 1381 1569 
Q 847 1681 609 1914 
Q 372 2147 372 2553 
Q 372 3047 722 3315 
Q 1072 3584 1716 3584 
Q 2034 3584 2315 3537 
Q 2597 3491 2834 3397 
z
" transform="scale(0.015625)"/>
       <path id="DejaVuSans-55" d="M 556 4666 
L 1191 4666 
L 1191 1831 
Q 1191 1081 1462 751 
Q 1734 422 2344 422 
Q 2950 422 3222 751 
Q 3494 1081 3494 1831 
L 3494 4666 
L 4128 4666 
L 4128 1753 
Q 4128 841 3676 375 
Q 3225 -91 2344 -91 
Q 1459 -91 1007 375 
Q 556 841 556 1753 
L 556 4666 
z
" transform="scale(0.015625)"/>
       <path id="DejaVuSans-2e" d="M 684 794 
L 1344 794 
L 1344 0 
L 684 0 
L 684 794 
z
" transform="scale(0.015625)"/>
       <path id="DejaVuSans-78" d="M 3513 3500 
L 2247 1797 
L 3578 0 
L 2900 0 
L 1881 1375 
L 863 0 
L 184 0 
L 1544 1831 
L 300 3500 
L 978 3500 
L 1906 2253 
L 2834 3500 
L 3513 3500 
z
" transform="scale(0.015625)"/>
      </defs>
      <use xlink:href="#DejaVuSans-50"/>
      <use xlink:href="#DejaVuSans-65" x="56.677734"/>
      <use xlink:href="#DejaVuSans-72" x="118.201172"/>
      <use xlink:href="#DejaVuSans-63" x="157.064453"/>
      <use xlink:href="#DejaVuSans-65" x="212.044922"/>
      <use xlink:href="#DejaVuSans-6e" x="273.568359"/>
      <use xlink:href="#DejaVuSans-74" x="336.947266"/>
      <use xlink:href="#DejaVuSans-61" x="376.15625"/>
      <use xlink:href="#DejaVuSans-67" x="437.435547"/>
      <use xlink:href="#DejaVuSans-65" x="500.912109"/>
      <use xlink:href="#DejaVuSans-20" x="562.435547"/>
      <use xlink:href="#DejaVuSans-4f" x="594.222656"/>
      <use xlink:href="#DejaVuSans-66" x="672.933594"/>
      <use xlink:href="#DejaVuSans-20" x="708.138672"/>
      <use xlink:href="#DejaVuSans-44" x="739.925781"/>
      <use xlink:href="#DejaVuSans-6f" x="816.927734"/>
      <use xlink:href="#DejaVuSans-6d" x="878.109375"/>
      <use xlink:href="#DejaVuSans-61" x="975.521484"/>
      <use xlink:href="#DejaVuSans-69" x="1036.800781"/>
      <use xlink:href="#DejaVuSans-6e" x="1064.583984"/>
      <use xlink:href="#DejaVuSans-73" x="1127.962891"/>
      <use xlink:href="#DejaVuSans-20" x="1180.0625"/>
      <use xlink:href="#DejaVuSans-55" x="1211.849609"/>
      <use xlink:href="#DejaVuSans-73" x="1285.042969"/>
      <use xlink:href="#DejaVuSans-69" x="1337.142578"/>
      <use xlink:href="#DejaVuSans-6e" x="1364.925781"/>
      <use xlink:href="#DejaVuSans-67" x="1428.304688"/>
      <use xlink:href="#DejaVuSans-20" x="1491.78125"/>
      <use xlink:href="#DejaVuSans-73" x="1523.568359"/>
      <use xlink:href="#DejaVuSans-65" x="1575.667969"/>
      <use xlink:href="#DejaVuSans-63" x="1637.191406"/>
      <use xlink:href="#DejaVuSans-75" x="1692.171875"/>
      <use xlink:href="#DejaVuSans-72" x="1755.550781"/>
      <use xlink:href="#DejaVuSans-69" x="1796.664062"/>
      <use xlink:href="#DejaVuSans-74" x="1824.447266"/>
      <use xlink:href="#DejaVuSans-79" x="1863.65625"/>
      <use xlink:href="#DejaVuSans-2e" x="1908.585938"/>
      <use xlink:href="#DejaVuSans-74" x="1940.373047"/>
      <use xlink:href="#DejaVuSans-78" x="1979.582031"/>
      <use xlink:href="#DejaVuSans-74" x="2038.761719"/>
     </g>
    </g>
   </g>
   <g id="line2d_35">
    <path d="M 73.42381 111.096875 
L 74.323629 125.376875 
L 76.123266 125.376875 
L 77.023084 118.236875 
L 78.822722 118.236875 
L 79.72254 111.096875 
L 81.522177 111.096875 
L 82.421996 118.236875 
L 83.321814 111.096875 
L 84.221633 118.236875 
L 85.121452 146.796875 
L 86.02127 125.376875 
L 86.921089 118.236875 
L 89.620545 118.236875 
L 90.520363 111.096875 
L 91.420182 125.376875 
L 92.32 118.236875 
L 93.219819 118.236875 
L 94.119637 111.096875 
L 95.019456 125.376875 
L 95.919275 125.376875 
L 96.819093 111.096875 
L 97.718912 111.096875 
L 98.61873 118.236875 
L 99.518549 118.236875 
L 100.418368 111.096875 
L 103.117823 111.096875 
L 104.017642 118.236875 
L 104.917461 111.096875 
L 105.817279 118.236875 
L 106.717098 111.096875 
L 107.616916 125.376875 
L 108.516735 111.096875 
L 109.416553 111.096875 
L 110.316372 118.236875 
L 112.116009 111.096875 
L 113.015828 118.236875 
L 114.815465 103.956875 
L 115.715284 132.516875 
L 116.615102 111.096875 
L 119.314558 111.096875 
L 120.214376 125.376875 
L 121.114195 103.956875 
L 122.913832 111.096875 
L 124.713469 125.376875 
L 125.613288 103.956875 
L 126.513107 125.376875 
L 127.412925 111.096875 
L 129.212562 125.376875 
L 131.012199 111.096875 
L 131.912018 118.236875 
L 132.811837 118.236875 
L 135.511292 125.376875 
L 138.210748 111.096875 
L 139.110567 118.236875 
L 140.010385 111.096875 
L 140.910204 118.236875 
L 142.709841 103.956875 
L 150.808208 118.236875 
L 153.507664 118.236875 
L 154.407483 103.956875 
L 155.307301 111.096875 
L 156.20712 132.516875 
L 157.106938 125.376875 
L 158.006757 111.096875 
L 158.906576 111.096875 
L 159.806394 118.236875 
L 160.706213 118.236875 
L 161.606031 125.376875 
L 162.50585 96.816875 
L 163.405669 118.236875 
L 165.205306 103.956875 
L 167.904761 103.956875 
L 168.80458 111.096875 
L 169.704399 103.956875 
L 170.604217 118.236875 
L 172.403854 103.956875 
L 174.203492 103.956875 
L 175.10331 118.236875 
L 176.902947 103.956875 
L 177.802766 111.096875 
L 178.702584 111.096875 
L 179.602403 118.236875 
L 180.502222 103.956875 
L 182.301859 103.956875 
L 183.201677 111.096875 
L 185.001315 118.236875 
L 185.901133 111.096875 
L 186.800952 118.236875 
L 187.70077 96.816875 
L 200.298231 96.816875 
L 202.097868 125.376875 
L 202.997686 118.236875 
L 203.897505 125.376875 
L 205.697142 111.096875 
L 206.596961 125.376875 
L 207.496779 111.096875 
L 208.396598 132.516875 
L 210.196235 103.956875 
L 211.096054 103.956875 
L 211.995872 111.096875 
L 214.695328 125.376875 
L 215.595146 103.956875 
L 216.494965 103.956875 
L 218.294602 118.236875 
L 219.194421 103.956875 
L 220.094239 118.236875 
L 220.994058 118.236875 
L 221.893877 111.096875 
L 224.593332 132.516875 
L 225.493151 118.236875 
L 226.392969 132.516875 
L 227.292788 111.096875 
L 228.192607 111.096875 
L 229.092425 118.236875 
L 232.6917 125.376875 
L 234.491337 96.816875 
L 235.391155 118.236875 
L 236.290974 103.956875 
L 237.190792 125.376875 
L 238.090611 103.956875 
L 239.890248 132.516875 
L 240.790067 103.956875 
L 241.689885 111.096875 
L 243.489523 111.096875 
L 244.389341 125.376875 
L 245.28916 96.816875 
L 246.188978 103.956875 
L 247.088797 118.236875 
L 247.988616 125.376875 
L 248.888434 125.376875 
L 249.788253 103.956875 
L 251.58789 118.236875 
L 252.487708 118.236875 
L 253.387527 111.096875 
L 254.287346 111.096875 
L 255.187164 118.236875 
L 256.086983 111.096875 
L 256.986801 89.676875 
L 257.88662 96.816875 
L 258.786439 118.236875 
L 259.686257 118.236875 
L 260.586076 111.096875 
L 263.285531 111.096875 
L 264.18535 118.236875 
L 265.085169 118.236875 
L 265.984987 132.516875 
L 268.684443 111.096875 
L 269.584262 111.096875 
L 270.48408 103.956875 
L 271.383899 125.376875 
L 272.283717 103.956875 
L 273.183536 118.236875 
L 274.083354 118.236875 
L 274.983173 103.956875 
L 275.882992 118.236875 
L 276.78281 118.236875 
L 277.682629 111.096875 
L 279.482266 111.096875 
L 282.181722 103.956875 
L 283.981359 103.956875 
L 287.580633 118.236875 
L 288.480452 103.956875 
L 313.675372 96.816875 
L 314.575191 96.816875 
L 315.475009 111.096875 
L 316.374828 103.956875 
L 317.274647 111.096875 
L 318.174465 96.816875 
L 319.074284 103.956875 
L 319.974102 96.816875 
L 320.873921 96.816875 
L 321.773739 103.956875 
L 322.673558 103.956875 
L 323.573377 96.816875 
L 324.473195 125.376875 
L 326.272832 96.816875 
L 327.172651 103.956875 
L 328.07247 89.676875 
L 328.972288 111.096875 
L 329.872107 103.956875 
L 346.068841 118.236875 
L 348.768297 96.816875 
L 349.668116 103.956875 
L 351.467753 103.956875 
L 352.367571 111.096875 
L 353.26739 96.816875 
L 354.167209 89.676875 
L 355.067027 96.816875 
L 355.966846 89.676875 
L 356.866664 103.956875 
L 357.766483 96.816875 
L 358.666301 103.956875 
L 359.56612 118.236875 
L 360.465939 111.096875 
L 361.365757 111.096875 
L 362.265576 89.676875 
L 364.965032 96.816875 
L 365.86485 125.376875 
L 366.764669 111.096875 
L 367.664487 103.956875 
L 368.564306 118.236875 
L 369.464124 89.676875 
L 370.363943 89.676875 
L 371.263762 103.956875 
L 372.16358 89.676875 
L 373.063399 103.956875 
L 373.963217 111.096875 
L 374.863036 125.376875 
L 375.762855 89.676875 
L 377.562492 103.956875 
L 378.46231 89.676875 
L 379.362129 103.956875 
L 381.161766 103.956875 
L 382.961403 75.396875 
L 383.861222 89.676875 
L 384.76104 89.676875 
L 385.660859 75.396875 
L 386.560678 89.676875 
L 387.460496 96.816875 
L 388.360315 89.676875 
L 389.260133 89.676875 
L 390.159952 82.536875 
L 391.059771 89.676875 
L 391.959589 103.956875 
L 392.859408 82.536875 
L 393.759226 103.956875 
L 394.659045 103.956875 
L 395.558863 82.536875 
L 396.458682 103.956875 
L 397.358501 103.956875 
L 398.258319 82.536875 
L 399.158138 103.956875 
L 400.057956 82.536875 
L 400.957775 89.676875 
L 401.857594 82.536875 
L 402.757412 96.816875 
L 404.557049 82.536875 
L 407.256505 75.396875 
L 409.056142 103.956875 
L 409.955961 75.396875 
L 410.855779 82.536875 
L 411.755598 96.816875 
L 413.555235 96.816875 
L 414.455054 89.676875 
L 415.354872 68.256875 
L 416.254691 89.676875 
L 417.154509 82.536875 
L 418.054328 68.256875 
L 418.954147 96.816875 
L 419.853965 103.956875 
L 420.753784 89.676875 
L 421.653602 96.816875 
L 422.553421 96.816875 
L 423.45324 89.676875 
L 424.353058 89.676875 
L 426.152695 103.956875 
L 427.052514 89.676875 
L 427.952333 89.676875 
L 428.852151 82.536875 
L 429.75197 89.676875 
L 430.651788 103.956875 
L 431.551607 89.676875 
L 432.451425 96.816875 
L 433.351244 75.396875 
L 434.251063 103.956875 
L 435.150881 82.536875 
L 436.0507 89.676875 
L 436.950518 82.536875 
L 437.850337 89.676875 
L 440.549793 82.536875 
L 441.449611 111.096875 
L 442.34943 96.816875 
L 443.249248 75.396875 
L 444.149067 103.956875 
L 445.048886 75.396875 
L 445.948704 75.396875 
L 446.848523 96.816875 
L 447.748341 89.676875 
L 448.64816 111.096875 
L 449.547979 103.956875 
L 452.247434 96.816875 
L 453.147253 111.096875 
L 454.047071 68.256875 
L 454.94689 82.536875 
L 455.846709 82.536875 
L 456.746527 89.676875 
L 457.646346 89.676875 
L 458.546164 103.956875 
L 459.445983 82.536875 
L 460.345802 82.536875 
L 461.24562 96.816875 
L 462.145439 96.816875 
L 463.045257 111.096875 
L 463.945076 96.816875 
L 464.844894 103.956875 
L 465.744713 82.536875 
L 466.644532 75.396875 
L 467.54435 75.396875 
L 468.444169 103.956875 
L 469.343987 89.676875 
L 472.043443 89.676875 
L 472.943262 75.396875 
L 473.84308 82.536875 
L 474.742899 96.816875 
L 475.642718 89.676875 
L 476.542536 89.676875 
L 477.442355 61.116875 
L 478.342173 75.396875 
L 479.241992 82.536875 
L 479.241992 82.536875 
" clip-path="url(#p4f8e7aba9c)" style="fill: none; stroke: #1f77b4; stroke-width: 1.5; stroke-linecap: square"/>
   </g>
   <g id="line2d_36">
    <path d="M 73.42381 147.590208 
L 74.323629 146.796875 
L 75.223447 150.763542 
L 76.123266 150.763542 
L 77.023084 148.383542 
L 77.922903 146.796875 
L 78.822722 149.176875 
L 79.72254 148.383542 
L 80.622359 149.176875 
L 82.421996 149.176875 
L 83.321814 147.590208 
L 84.221633 148.383542 
L 85.121452 148.383542 
L 86.02127 145.210208 
L 86.921089 147.590208 
L 89.620545 146.003542 
L 90.520363 147.590208 
L 92.32 147.590208 
L 93.219819 146.796875 
L 94.119637 148.383542 
L 95.019456 147.590208 
L 96.819093 149.176875 
L 97.718912 147.590208 
L 98.61873 147.590208 
L 99.518549 146.003542 
L 100.418368 146.796875 
L 101.318186 148.383542 
L 102.218005 148.383542 
L 103.117823 149.970208 
L 104.017642 148.383542 
L 104.917461 147.590208 
L 105.817279 146.003542 
L 106.717098 149.970208 
L 107.616916 147.590208 
L 108.516735 146.796875 
L 109.416553 149.970208 
L 110.316372 149.970208 
L 112.116009 146.003542 
L 113.015828 149.970208 
L 113.915646 147.590208 
L 114.815465 148.383542 
L 115.715284 146.796875 
L 116.615102 146.796875 
L 117.514921 151.556875 
L 118.414739 149.176875 
L 119.314558 148.383542 
L 120.214376 149.176875 
L 121.114195 149.176875 
L 122.913832 146.796875 
L 124.713469 150.763542 
L 126.513107 149.176875 
L 127.412925 149.176875 
L 128.312744 148.383542 
L 129.212562 148.383542 
L 130.112381 149.176875 
L 131.012199 148.383542 
L 131.912018 149.176875 
L 132.811837 148.383542 
L 135.511292 149.176875 
L 138.210748 148.383542 
L 139.110567 147.590208 
L 140.010385 148.383542 
L 140.910204 146.796875 
L 141.810022 147.590208 
L 142.709841 146.796875 
L 150.808208 145.210208 
L 151.708027 147.590208 
L 153.507664 149.176875 
L 154.407483 146.796875 
L 155.307301 149.176875 
L 156.20712 146.796875 
L 157.106938 150.763542 
L 158.006757 149.176875 
L 158.906576 146.796875 
L 159.806394 147.590208 
L 160.706213 146.796875 
L 161.606031 148.383542 
L 162.50585 146.003542 
L 163.405669 149.970208 
L 164.305487 145.210208 
L 166.105124 146.796875 
L 167.904761 143.623542 
L 168.80458 142.830208 
L 169.704399 146.796875 
L 170.604217 144.416875 
L 171.504036 148.383542 
L 172.403854 146.003542 
L 173.303673 149.970208 
L 174.203492 145.210208 
L 175.10331 146.796875 
L 176.003129 146.003542 
L 176.902947 148.383542 
L 178.702584 145.210208 
L 179.602403 144.416875 
L 180.502222 144.416875 
L 181.40204 145.210208 
L 182.301859 143.623542 
L 183.201677 146.796875 
L 185.001315 146.796875 
L 185.901133 145.210208 
L 187.70077 143.623542 
L 188.600589 145.210208 
L 200.298231 146.003542 
L 201.198049 144.416875 
L 202.097868 143.623542 
L 202.997686 146.003542 
L 203.897505 144.416875 
L 204.797323 142.036875 
L 205.697142 142.036875 
L 206.596961 144.416875 
L 207.496779 144.416875 
L 208.396598 148.383542 
L 209.296416 145.210208 
L 210.196235 145.210208 
L 211.096054 144.416875 
L 211.995872 146.796875 
L 215.595146 143.623542 
L 216.494965 145.210208 
L 217.394784 142.036875 
L 218.294602 146.003542 
L 219.194421 146.796875 
L 220.094239 143.623542 
L 220.994058 146.003542 
L 221.893877 143.623542 
L 224.593332 145.210208 
L 225.493151 145.210208 
L 226.392969 144.416875 
L 227.292788 145.210208 
L 228.192607 147.590208 
L 229.092425 146.796875 
L 232.6917 145.210208 
L 233.591518 147.590208 
L 234.491337 142.830208 
L 235.391155 146.796875 
L 236.290974 145.210208 
L 238.090611 146.796875 
L 238.99043 146.796875 
L 239.890248 147.590208 
L 240.790067 146.003542 
L 241.689885 149.970208 
L 244.389341 145.210208 
L 245.28916 146.003542 
L 246.188978 144.416875 
L 247.988616 146.003542 
L 250.688071 146.003542 
L 251.58789 146.796875 
L 252.487708 143.623542 
L 253.387527 144.416875 
L 254.287346 148.383542 
L 255.187164 143.623542 
L 256.086983 144.416875 
L 256.986801 146.796875 
L 257.88662 145.210208 
L 258.786439 144.416875 
L 259.686257 142.830208 
L 260.586076 146.796875 
L 261.485894 146.796875 
L 262.385713 142.830208 
L 263.285531 142.036875 
L 264.18535 145.210208 
L 265.085169 145.210208 
L 267.784624 142.830208 
L 269.584262 144.416875 
L 270.48408 144.416875 
L 271.383899 142.830208 
L 272.283717 147.590208 
L 273.183536 145.210208 
L 274.083354 146.003542 
L 274.983173 144.416875 
L 275.882992 146.796875 
L 276.78281 143.623542 
L 277.682629 145.210208 
L 279.482266 146.796875 
L 282.181722 145.210208 
L 283.981359 144.416875 
L 287.580633 146.796875 
L 288.480452 143.623542 
L 313.675372 144.416875 
L 314.575191 145.210208 
L 316.374828 140.450208 
L 317.274647 142.830208 
L 319.074284 139.656875 
L 319.974102 142.036875 
L 320.873921 142.036875 
L 321.773739 140.450208 
L 322.673558 142.036875 
L 323.573377 139.656875 
L 324.473195 142.830208 
L 325.373014 141.243542 
L 326.272832 142.036875 
L 328.07247 140.450208 
L 328.972288 140.450208 
L 329.872107 142.036875 
L 346.068841 140.450208 
L 346.96866 138.863542 
L 348.768297 141.243542 
L 349.668116 139.656875 
L 350.567934 142.830208 
L 351.467753 141.243542 
L 352.367571 140.450208 
L 354.167209 142.036875 
L 355.067027 141.243542 
L 356.866664 142.830208 
L 357.766483 139.656875 
L 358.666301 142.830208 
L 359.56612 141.243542 
L 360.465939 140.450208 
L 361.365757 142.036875 
L 362.265576 138.863542 
L 364.965032 139.656875 
L 365.86485 142.036875 
L 366.764669 137.276875 
L 367.664487 142.830208 
L 368.564306 140.450208 
L 369.464124 140.450208 
L 370.363943 139.656875 
L 371.263762 137.276875 
L 372.16358 138.070208 
L 373.063399 138.070208 
L 373.963217 134.896875 
L 374.863036 135.690208 
L 375.762855 137.276875 
L 376.662673 138.070208 
L 377.562492 135.690208 
L 378.46231 136.483542 
L 379.362129 136.483542 
L 380.261948 133.310208 
L 381.161766 134.103542 
L 382.061585 139.656875 
L 382.961403 135.690208 
L 383.861222 140.450208 
L 384.76104 137.276875 
L 385.660859 137.276875 
L 386.560678 136.483542 
L 387.460496 138.863542 
L 388.360315 133.310208 
L 389.260133 138.070208 
L 392.859408 134.896875 
L 393.759226 136.483542 
L 394.659045 137.276875 
L 395.558863 137.276875 
L 396.458682 138.863542 
L 397.358501 136.483542 
L 398.258319 135.690208 
L 399.158138 135.690208 
L 400.057956 137.276875 
L 400.957775 136.483542 
L 401.857594 134.896875 
L 402.757412 137.276875 
L 403.657231 133.310208 
L 404.557049 134.103542 
L 407.256505 133.310208 
L 408.156324 133.310208 
L 409.056142 132.516875 
L 409.955961 132.516875 
L 410.855779 130.930208 
L 411.755598 133.310208 
L 412.655417 134.896875 
L 413.555235 134.896875 
L 414.455054 137.276875 
L 415.354872 138.863542 
L 416.254691 137.276875 
L 417.154509 134.103542 
L 418.054328 135.690208 
L 418.954147 136.483542 
L 419.853965 133.310208 
L 420.753784 132.516875 
L 421.653602 130.930208 
L 422.553421 134.103542 
L 423.45324 134.103542 
L 424.353058 133.310208 
L 427.052514 135.690208 
L 427.952333 134.896875 
L 429.75197 136.483542 
L 430.651788 134.896875 
L 431.551607 136.483542 
L 432.451425 135.690208 
L 433.351244 135.690208 
L 434.251063 134.103542 
L 435.150881 135.690208 
L 436.0507 134.103542 
L 436.950518 137.276875 
L 437.850337 133.310208 
L 440.549793 132.516875 
L 442.34943 135.690208 
L 443.249248 135.690208 
L 444.149067 134.896875 
L 445.048886 134.896875 
L 445.948704 134.103542 
L 446.848523 132.516875 
L 447.748341 137.276875 
L 448.64816 132.516875 
L 449.547979 134.896875 
L 452.247434 131.723542 
L 453.147253 130.930208 
L 454.047071 133.310208 
L 454.94689 130.930208 
L 455.846709 133.310208 
L 456.746527 130.136875 
L 458.546164 131.723542 
L 459.445983 130.930208 
L 460.345802 130.930208 
L 461.24562 135.690208 
L 462.145439 136.483542 
L 463.045257 130.930208 
L 463.945076 134.103542 
L 464.844894 134.896875 
L 465.744713 134.896875 
L 466.644532 131.723542 
L 467.54435 133.310208 
L 468.444169 132.516875 
L 469.343987 134.896875 
L 470.243806 134.896875 
L 471.143625 130.930208 
L 472.043443 134.896875 
L 472.943262 134.103542 
L 473.84308 138.070208 
L 475.642718 133.310208 
L 476.542536 133.310208 
L 477.442355 131.723542 
L 478.342173 132.516875 
L 479.241992 134.103542 
L 479.241992 134.103542 
" clip-path="url(#p4f8e7aba9c)" style="fill: none; stroke: #ff7f0e; stroke-width: 1.5; stroke-linecap: square"/>
   </g>
   <g id="line2d_37">
    <path d="M 73.42381 177.340208 
L 74.323629 177.578208 
L 75.223447 177.340208 
L 76.123266 176.943542 
L 77.023084 177.022875 
L 77.922903 177.340208 
L 78.822722 177.022875 
L 80.622359 177.022875 
L 81.522177 176.705542 
L 84.221633 177.260875 
L 85.121452 176.943542 
L 86.02127 176.784875 
L 86.921089 176.784875 
L 89.620545 177.102208 
L 91.420182 176.705542 
L 92.32 177.022875 
L 93.219819 176.864208 
L 94.119637 176.467542 
L 95.019456 176.943542 
L 95.919275 176.546875 
L 96.819093 176.705542 
L 97.718912 176.229542 
L 98.61873 176.388208 
L 99.518549 175.674208 
L 100.418368 176.150208 
L 101.318186 175.912208 
L 102.218005 176.229542 
L 103.117823 175.594875 
L 104.017642 175.832875 
L 104.917461 175.912208 
L 105.817279 175.674208 
L 106.717098 175.594875 
L 107.616916 175.832875 
L 109.416553 175.674208 
L 110.316372 175.356875 
L 113.015828 174.722208 
L 113.915646 174.960208 
L 114.815465 175.356875 
L 115.715284 175.118875 
L 116.615102 174.642875 
L 117.514921 174.801542 
L 118.414739 174.563542 
L 119.314558 174.087542 
L 120.214376 174.325542 
L 124.713469 173.214875 
L 126.513107 173.452875 
L 128.312744 172.976875 
L 130.112381 172.897542 
L 131.012199 172.500875 
L 131.912018 172.580208 
L 135.511292 171.945542 
L 138.210748 171.152208 
L 139.110567 171.310875 
L 140.010385 171.152208 
L 140.910204 171.231542 
L 141.810022 170.993542 
L 142.709841 171.231542 
L 151.708027 170.596875 
L 153.507664 170.041542 
L 154.407483 170.200208 
L 155.307301 170.120875 
L 156.20712 169.882875 
L 157.106938 170.200208 
L 158.006757 169.644875 
L 158.906576 170.041542 
L 159.806394 169.882875 
L 160.706213 169.327542 
L 161.606031 169.406875 
L 162.50585 169.724208 
L 163.405669 169.565542 
L 165.205306 169.803542 
L 166.105124 169.644875 
L 167.004943 169.327542 
L 167.904761 169.565542 
L 168.80458 169.168875 
L 170.604217 168.930875 
L 171.504036 169.406875 
L 175.10331 169.406875 
L 176.003129 169.168875 
L 176.902947 169.248208 
L 177.802766 169.010208 
L 178.702584 169.168875 
L 179.602403 169.089542 
L 180.502222 169.248208 
L 181.40204 169.089542 
L 182.301859 169.406875 
L 185.901133 169.010208 
L 186.800952 168.851542 
L 188.600589 169.089542 
L 200.298231 169.168875 
L 201.198049 168.613542 
L 202.097868 169.248208 
L 202.997686 168.692875 
L 203.897505 168.772208 
L 204.797323 168.534208 
L 205.697142 168.692875 
L 206.596961 169.089542 
L 208.396598 168.534208 
L 209.296416 169.089542 
L 210.196235 168.216875 
L 211.096054 168.534208 
L 211.995872 169.168875 
L 214.695328 168.772208 
L 215.595146 169.089542 
L 217.394784 168.851542 
L 219.194421 168.375542 
L 220.094239 169.010208 
L 220.994058 168.851542 
L 221.893877 168.534208 
L 224.593332 168.216875 
L 225.493151 168.692875 
L 226.392969 168.375542 
L 228.192607 168.375542 
L 229.092425 167.899542 
L 232.6917 168.454875 
L 233.591518 168.851542 
L 234.491337 168.534208 
L 236.290974 168.296208 
L 240.790067 168.296208 
L 241.689885 168.137542 
L 242.589704 167.582208 
L 243.489523 167.978875 
L 244.389341 168.613542 
L 245.28916 167.978875 
L 246.188978 167.740875 
L 247.088797 168.296208 
L 247.988616 167.820208 
L 248.888434 168.216875 
L 249.788253 167.899542 
L 250.688071 168.375542 
L 251.58789 168.216875 
L 252.487708 167.740875 
L 253.387527 168.296208 
L 254.287346 167.899542 
L 255.187164 167.740875 
L 256.086983 168.058208 
L 256.986801 168.058208 
L 257.88662 167.820208 
L 258.786439 167.978875 
L 259.686257 168.296208 
L 260.586076 168.375542 
L 261.485894 167.740875 
L 262.385713 167.502875 
L 263.285531 167.740875 
L 264.18535 167.661542 
L 265.085169 167.899542 
L 265.984987 167.820208 
L 266.884806 168.296208 
L 267.784624 167.899542 
L 268.684443 167.820208 
L 270.48408 167.978875 
L 271.383899 167.582208 
L 272.283717 167.344208 
L 273.183536 167.344208 
L 274.083354 166.947542 
L 274.983173 167.344208 
L 276.78281 167.582208 
L 277.682629 167.185542 
L 282.181722 167.026875 
L 288.480452 166.947542 
L 315.475009 165.995542 
L 316.374828 165.836875 
L 317.274647 166.312875 
L 318.174465 166.074875 
L 319.074284 166.312875 
L 319.974102 166.233542 
L 320.873921 165.916208 
L 321.773739 166.471542 
L 322.673558 165.916208 
L 323.573377 166.392208 
L 325.373014 165.995542 
L 326.272832 166.392208 
L 327.172651 165.995542 
L 328.07247 166.392208 
L 329.872107 166.709542 
L 346.96866 166.471542 
L 348.768297 166.154208 
L 349.668116 166.154208 
L 351.467753 166.709542 
L 352.367571 165.916208 
L 353.26739 166.154208 
L 354.167209 166.550875 
L 355.067027 165.757542 
L 355.966846 166.312875 
L 356.866664 166.074875 
L 357.766483 166.154208 
L 358.666301 166.392208 
L 359.56612 165.678208 
L 360.465939 165.995542 
L 361.365757 165.440208 
L 362.265576 165.678208 
L 365.86485 165.678208 
L 366.764669 165.678208 
L 367.664487 165.281542 
L 368.564306 165.598875 
L 369.464124 165.598875 
L 370.363943 165.836875 
L 371.263762 165.598875 
L 372.16358 165.519542 
L 373.063399 164.884875 
L 373.963217 164.488208 
L 374.863036 165.281542 
L 375.762855 165.281542 
L 376.662673 164.726208 
L 377.562492 165.043542 
L 378.46231 164.805542 
L 379.362129 164.329542 
L 380.261948 164.805542 
L 382.061585 164.250208 
L 382.961403 164.726208 
L 383.861222 164.726208 
L 384.76104 164.329542 
L 385.660859 163.615542 
L 386.560678 163.615542 
L 388.360315 164.012208 
L 391.059771 163.932875 
L 391.959589 163.536208 
L 392.859408 163.694875 
L 393.759226 164.091542 
L 394.659045 163.218875 
L 395.558863 163.060208 
L 397.358501 163.615542 
L 398.258319 163.218875 
L 399.158138 163.298208 
L 400.057956 163.774208 
L 400.957775 163.615542 
L 402.757412 163.853542 
L 403.657231 163.853542 
L 404.557049 163.615542 
L 407.256505 164.091542 
L 408.156324 163.694875 
L 409.056142 164.091542 
L 411.755598 163.615542 
L 412.655417 163.694875 
L 413.555235 163.456875 
L 414.455054 163.774208 
L 415.354872 163.774208 
L 416.254691 163.298208 
L 417.154509 163.615542 
L 418.054328 163.060208 
L 418.954147 163.853542 
L 419.853965 163.377542 
L 420.753784 163.377542 
L 421.653602 163.932875 
L 423.45324 162.901542 
L 424.353058 163.218875 
L 426.152695 163.060208 
L 427.952333 162.663542 
L 428.852151 162.187542 
L 429.75197 162.425542 
L 431.551607 162.346208 
L 432.451425 162.266875 
L 433.351244 162.504875 
L 434.251063 162.028875 
L 435.150881 162.346208 
L 436.0507 162.346208 
L 436.950518 162.187542 
L 437.850337 162.266875 
L 440.549793 162.742875 
L 441.449611 162.346208 
L 442.34943 161.552875 
L 443.249248 162.108208 
L 444.149067 162.028875 
L 445.048886 162.504875 
L 445.948704 162.504875 
L 446.848523 162.742875 
L 449.547979 161.949542 
L 452.247434 161.711542 
L 453.147253 162.108208 
L 454.047071 162.346208 
L 454.94689 162.108208 
L 455.846709 162.108208 
L 456.746527 162.425542 
L 458.546164 162.425542 
L 459.445983 162.663542 
L 460.345802 162.584208 
L 461.24562 162.346208 
L 462.145439 162.504875 
L 463.045257 162.346208 
L 463.945076 162.584208 
L 464.844894 162.187542 
L 465.744713 162.663542 
L 467.54435 162.266875 
L 470.243806 162.346208 
L 471.143625 161.790875 
L 472.043443 162.028875 
L 472.943262 161.632208 
L 473.84308 162.028875 
L 475.642718 161.552875 
L 476.542536 161.552875 
L 477.442355 161.711542 
L 478.342173 161.711542 
L 479.241992 161.552875 
L 479.241992 161.552875 
" clip-path="url(#p4f8e7aba9c)" style="fill: none; stroke: #2ca02c; stroke-width: 1.5; stroke-linecap: square"/>
   </g>
   <g id="line2d_38">
    <path d="M 73.42381 191.826475 
L 77.023084 191.723342 
L 80.622359 191.747142 
L 90.520363 191.683675 
L 115.715284 191.572608 
L 117.514921 191.636075 
L 122.913832 191.675742 
L 125.613288 191.747142 
L 126.513107 191.683675 
L 128.312744 191.802675 
L 131.012199 191.770942 
L 131.912018 191.858208 
L 132.811837 191.810608 
L 140.010385 191.889942 
L 141.810022 191.826475 
L 142.709841 191.858208 
L 151.708027 191.747142 
L 154.407483 191.810608 
L 156.20712 191.763008 
L 161.606031 191.818542 
L 162.50585 191.842342 
L 163.405669 191.747142 
L 166.105124 191.834408 
L 215.595146 191.786808 
L 218.294602 191.683675 
L 221.893877 191.770942 
L 229.092425 191.644008 
L 233.591518 191.628142 
L 234.491337 191.572608 
L 235.391155 191.644008 
L 237.190792 191.628142 
L 279.482266 191.326675 
L 288.480452 191.390142 
L 313.675372 191.120408 
L 314.575191 191.247342 
L 317.274647 191.168008 
L 319.974102 191.128342 
L 321.773739 191.183875 
L 324.473195 191.144208 
L 328.07247 191.144208 
L 329.872107 191.104542 
L 346.96866 190.945875 
L 351.467753 190.961742 
L 354.167209 191.049008 
L 355.966846 190.898275 
L 362.265576 190.715808 
L 368.564306 190.596808 
L 370.363943 190.485742 
L 371.263762 190.501608 
L 373.063399 190.342942 
L 378.46231 190.342942 
L 379.362129 190.279475 
L 380.261948 190.382608 
L 384.76104 190.295342 
L 385.660859 190.311208 
L 387.460496 190.168408 
L 391.059771 190.223942 
L 393.759226 190.231875 
L 394.659045 190.319142 
L 400.057956 190.208075 
L 402.757412 190.200142 
L 404.557049 190.144608 
L 420.753784 189.890742 
L 427.052514 189.906608 
L 430.651788 189.795542 
L 437.850337 189.827275 
L 441.449611 189.843142 
L 448.64816 189.859008 
L 449.547979 189.890742 
L 457.646346 189.874875 
L 461.24562 189.962142 
L 462.145439 189.859008 
L 463.045257 189.890742 
L 464.844894 189.771742 
L 466.644532 189.787608 
L 469.343987 189.851075 
L 472.943262 189.740008 
L 478.342173 189.597208 
L 479.241992 189.621008 
L 479.241992 189.621008 
" clip-path="url(#p4f8e7aba9c)" style="fill: none; stroke: #d62728; stroke-width: 1.5; stroke-linecap: square"/>
   </g>
   <g id="line2d_39">
    <path d="M 73.42381 195.430588 
L 79.72254 195.386162 
L 86.921089 195.371882 
L 106.717098 195.330628 
L 113.015828 195.319522 
L 118.414739 195.297308 
L 130.112381 195.329835 
L 138.210748 195.304448 
L 163.405669 195.353635 
L 214.695328 195.185448 
L 220.994058 195.192588 
L 238.090611 195.154508 
L 247.088797 195.122775 
L 288.480452 195.038682 
L 329.872107 194.958555 
L 368.564306 194.875255 
L 385.660859 194.761808 
L 397.358501 194.736422 
L 404.557049 194.745148 
L 421.653602 194.657088 
L 427.052514 194.662642 
L 474.742899 194.543642 
L 475.642718 194.370695 
L 476.542536 194.532535 
L 479.241992 194.519842 
L 479.241992 194.519842 
" clip-path="url(#p4f8e7aba9c)" style="fill: none; stroke: #9467bd; stroke-width: 1.5; stroke-linecap: square"/>
   </g>
   <g id="patch_3">
    <path d="M 53.132901 196.776875 
L 53.132901 25.416875 
" style="fill: none; stroke: #000000; stroke-width: 0.8; stroke-linejoin: miter; stroke-linecap: square"/>
   </g>
   <g id="patch_4">
    <path d="M 499.532901 196.776875 
L 499.532901 25.416875 
" style="fill: none; stroke: #000000; stroke-width: 0.8; stroke-linejoin: miter; stroke-linecap: square"/>
   </g>
   <g id="patch_5">
    <path d="M 53.132901 196.776875 
L 499.532901 196.776875 
" style="fill: none; stroke: #000000; stroke-width: 0.8; stroke-linejoin: miter; stroke-linecap: square"/>
   </g>
   <g id="patch_6">
    <path d="M 53.132901 25.416875 
L 499.532901 25.416875 
" style="fill: none; stroke: #000000; stroke-width: 0.8; stroke-linejoin: miter; stroke-linecap: square"/>
   </g>
   <g id="legend_1">
    <g id="patch_7">
     <path d="M 60.132901 62.773125 
L 387.714151 62.773125 
Q 389.714151 62.773125 389.714151 60.773125 
L 389.714151 32.416875 
Q 389.714151 30.416875 387.714151 30.416875 
L 60.132901 30.416875 
Q 58.132901 30.416875 58.132901 32.416875 
L 58.132901 60.773125 
Q 58.132901 62.773125 60.132901 62.773125 
z
" style="fill: #ffffff; opacity: 0.8; stroke: #cccccc; stroke-linejoin: miter"/>
    </g>
    <g id="line2d_40">
     <path d="M 62.132901 38.515313 
L 72.132901 38.515313 
L 82.132901 38.515313 
" style="fill: none; stroke: #1f77b4; stroke-width: 1.5; stroke-linecap: square"/>
    </g>
    <g id="text_27">
     <!-- Rank 1-100 -->
     <g transform="translate(90.132901 42.015313)scale(0.1 -0.1)">
      <defs>
       <path id="DejaVuSans-52" d="M 2841 2188 
Q 3044 2119 3236 1894 
Q 3428 1669 3622 1275 
L 4263 0 
L 3584 0 
L 2988 1197 
Q 2756 1666 2539 1819 
Q 2322 1972 1947 1972 
L 1259 1972 
L 1259 0 
L 628 0 
L 628 4666 
L 2053 4666 
Q 2853 4666 3247 4331 
Q 3641 3997 3641 3322 
Q 3641 2881 3436 2590 
Q 3231 2300 2841 2188 
z
M 1259 4147 
L 1259 2491 
L 2053 2491 
Q 2509 2491 2742 2702 
Q 2975 2913 2975 3322 
Q 2975 3731 2742 3939 
Q 2509 4147 2053 4147 
L 1259 4147 
z
" transform="scale(0.015625)"/>
       <path id="DejaVuSans-6b" d="M 581 4863 
L 1159 4863 
L 1159 1991 
L 2875 3500 
L 3609 3500 
L 1753 1863 
L 3688 0 
L 2938 0 
L 1159 1709 
L 1159 0 
L 581 0 
L 581 4863 
z
" transform="scale(0.015625)"/>
      </defs>
      <use xlink:href="#DejaVuSans-52"/>
      <use xlink:href="#DejaVuSans-61" x="67.232422"/>
      <use xlink:href="#DejaVuSans-6e" x="128.511719"/>
      <use xlink:href="#DejaVuSans-6b" x="191.890625"/>
      <use xlink:href="#DejaVuSans-20" x="249.800781"/>
      <use xlink:href="#DejaVuSans-31" x="281.587891"/>
      <use xlink:href="#DejaVuSans-2d" x="345.210938"/>
      <use xlink:href="#DejaVuSans-31" x="381.294922"/>
      <use xlink:href="#DejaVuSans-30" x="444.917969"/>
      <use xlink:href="#DejaVuSans-30" x="508.541016"/>
     </g>
    </g>
    <g id="line2d_41">
     <path d="M 62.132901 53.193438 
L 72.132901 53.193438 
L 82.132901 53.193438 
" style="fill: none; stroke: #ff7f0e; stroke-width: 1.5; stroke-linecap: square"/>
    </g>
    <g id="text_28">
     <!-- Rank 101-1k -->
     <g transform="translate(90.132901 56.693438)scale(0.1 -0.1)">
      <use xlink:href="#DejaVuSans-52"/>
      <use xlink:href="#DejaVuSans-61" x="67.232422"/>
      <use xlink:href="#DejaVuSans-6e" x="128.511719"/>
      <use xlink:href="#DejaVuSans-6b" x="191.890625"/>
      <use xlink:href="#DejaVuSans-20" x="249.800781"/>
      <use xlink:href="#DejaVuSans-31" x="281.587891"/>
      <use xlink:href="#DejaVuSans-30" x="345.210938"/>
      <use xlink:href="#DejaVuSans-31" x="408.833984"/>
      <use xlink:href="#DejaVuSans-2d" x="472.457031"/>
      <use xlink:href="#DejaVuSans-31" x="508.541016"/>
      <use xlink:href="#DejaVuSans-6b" x="572.164062"/>
     </g>
    </g>
    <g id="line2d_42">
     <path d="M 173.139151 38.515313 
L 183.139151 38.515313 
L 193.139151 38.515313 
" style="fill: none; stroke: #2ca02c; stroke-width: 1.5; stroke-linecap: square"/>
    </g>
    <g id="text_29">
     <!-- Rank 1k-10k -->
     <g transform="translate(201.139151 42.015313)scale(0.1 -0.1)">
      <use xlink:href="#DejaVuSans-52"/>
      <use xlink:href="#DejaVuSans-61" x="67.232422"/>
      <use xlink:href="#DejaVuSans-6e" x="128.511719"/>
      <use xlink:href="#DejaVuSans-6b" x="191.890625"/>
      <use xlink:href="#DejaVuSans-20" x="249.800781"/>
      <use xlink:href="#DejaVuSans-31" x="281.587891"/>
      <use xlink:href="#DejaVuSans-6b" x="345.210938"/>
      <use xlink:href="#DejaVuSans-2d" x="403.121094"/>
      <use xlink:href="#DejaVuSans-31" x="439.205078"/>
      <use xlink:href="#DejaVuSans-30" x="502.828125"/>
      <use xlink:href="#DejaVuSans-6b" x="566.451172"/>
     </g>
    </g>
    <g id="line2d_43">
     <path d="M 173.139151 53.193438 
L 183.139151 53.193438 
L 193.139151 53.193438 
" style="fill: none; stroke: #d62728; stroke-width: 1.5; stroke-linecap: square"/>
    </g>
    <g id="text_30">
     <!-- Rank 10k-100k -->
     <g transform="translate(201.139151 56.693438)scale(0.1 -0.1)">
      <use xlink:href="#DejaVuSans-52"/>
      <use xlink:href="#DejaVuSans-61" x="67.232422"/>
      <use xlink:href="#DejaVuSans-6e" x="128.511719"/>
      <use xlink:href="#DejaVuSans-6b" x="191.890625"/>
      <use xlink:href="#DejaVuSans-20" x="249.800781"/>
      <use xlink:href="#DejaVuSans-31" x="281.587891"/>
      <use xlink:href="#DejaVuSans-30" x="345.210938"/>
      <use xlink:href="#DejaVuSans-6b" x="408.833984"/>
      <use xlink:href="#DejaVuSans-2d" x="466.744141"/>
      <use xlink:href="#DejaVuSans-31" x="502.828125"/>
      <use xlink:href="#DejaVuSans-30" x="566.451172"/>
      <use xlink:href="#DejaVuSans-30" x="630.074219"/>
      <use xlink:href="#DejaVuSans-6b" x="693.697266"/>
     </g>
    </g>
    <g id="line2d_44">
     <path d="M 296.298526 38.515313 
L 306.298526 38.515313 
L 316.298526 38.515313 
" style="fill: none; stroke: #9467bd; stroke-width: 1.5; stroke-linecap: square"/>
    </g>
    <g id="text_31">
     <!-- Rank 100k+ -->
     <g transform="translate(324.298526 42.015313)scale(0.1 -0.1)">
      <defs>
       <path id="DejaVuSans-2b" d="M 2944 4013 
L 2944 2272 
L 4684 2272 
L 4684 1741 
L 2944 1741 
L 2944 0 
L 2419 0 
L 2419 1741 
L 678 1741 
L 678 2272 
L 2419 2272 
L 2419 4013 
L 2944 4013 
z
" transform="scale(0.015625)"/>
      </defs>
      <use xlink:href="#DejaVuSans-52"/>
      <use xlink:href="#DejaVuSans-61" x="67.232422"/>
      <use xlink:href="#DejaVuSans-6e" x="128.511719"/>
      <use xlink:href="#DejaVuSans-6b" x="191.890625"/>
      <use xlink:href="#DejaVuSans-20" x="249.800781"/>
      <use xlink:href="#DejaVuSans-31" x="281.587891"/>
      <use xlink:href="#DejaVuSans-30" x="345.210938"/>
      <use xlink:href="#DejaVuSans-30" x="408.833984"/>
      <use xlink:href="#DejaVuSans-6b" x="472.457031"/>
      <use xlink:href="#DejaVuSans-2b" x="530.367188"/>
     </g>
    </g>
   </g>
  </g>
 </g>
 <defs>
  <clipPath id="p4f8e7aba9c">
   <rect x="53.132901" y="25.416875" width="446.4" height="171.36"/>
  </clipPath>
 </defs>
</svg>
