<?xml version="1.0" encoding="utf-8" standalone="no"?>
<!DOCTYPE svg PUBLIC "-//W3C//DTD SVG 1.1//EN"
  "http://www.w3.org/Graphics/SVG/1.1/DTD/svg11.dtd">
<svg xmlns:xlink="http://www.w3.org/1999/xlink" width="507.159131pt" height="234.086815pt" viewBox="0 0 507.159131 234.086815" xmlns="http://www.w3.org/2000/svg" version="1.1">
 <metadata>
  <rdf:RDF xmlns:dc="http://purl.org/dc/elements/1.1/" xmlns:cc="http://creativecommons.org/ns#" xmlns:rdf="http://www.w3.org/1999/02/22-rdf-syntax-ns#">
   <cc:Work>
    <dc:type rdf:resource="http://purl.org/dc/dcmitype/StillImage"/>
    <dc:date>2022-02-10T21:30:50.819563</dc:date>
    <dc:format>image/svg+xml</dc:format>
    <dc:creator>
     <cc:Agent>
      <dc:title>Matplotlib v3.5.1, https://matplotlib.org/</dc:title>
     </cc:Agent>
    </dc:creator>
   </cc:Work>
  </rdf:RDF>
 </metadata>
 <defs>
  <style type="text/css">*{stroke-linejoin: round; stroke-linecap: butt}</style>
 </defs>
 <g id="figure_1">
  <g id="patch_1">
   <path d="M 0 234.086815 
L 507.159131 234.086815 
L 507.159131 0 
L 0 0 
z
" style="fill: #ffffff"/>
  </g>
  <g id="axes_1">
   <g id="patch_2">
    <path d="M 53.559131 178.56 
L 499.959131 178.56 
L 499.959131 7.2 
L 53.559131 7.2 
z
" style="fill: #ffffff"/>
   </g>
   <g id="matplotlib.axis_1">
    <g id="xtick_1">
     <g id="line2d_1">
      <defs>
       <path id="m067b709b59" d="M 0 0 
L 0 3.5 
" style="stroke: #000000; stroke-width: 0.8"/>
      </defs>
      <g>
       <use xlink:href="#m067b709b59" x="68.024899" y="178.56" style="stroke: #000000; stroke-width: 0.8"/>
      </g>
     </g>
     <g id="text_1">
      <!-- 2020-Nov-01 -->
      <g transform="translate(10.999219 224.463877)rotate(-30)scale(0.1 -0.1)">
       <defs>
        <path id="DejaVuSans-32" d="M 1228 531 
L 3431 531 
L 3431 0 
L 469 0 
L 469 531 
Q 828 903 1448 1529 
Q 2069 2156 2228 2338 
Q 2531 2678 2651 2914 
Q 2772 3150 2772 3378 
Q 2772 3750 2511 3984 
Q 2250 4219 1831 4219 
Q 1534 4219 1204 4116 
Q 875 4013 500 3803 
L 500 4441 
Q 881 4594 1212 4672 
Q 1544 4750 1819 4750 
Q 2544 4750 2975 4387 
Q 3406 4025 3406 3419 
Q 3406 3131 3298 2873 
Q 3191 2616 2906 2266 
Q 2828 2175 2409 1742 
Q 1991 1309 1228 531 
z
" transform="scale(0.015625)"/>
        <path id="DejaVuSans-30" d="M 2034 4250 
Q 1547 4250 1301 3770 
Q 1056 3291 1056 2328 
Q 1056 1369 1301 889 
Q 1547 409 2034 409 
Q 2525 409 2770 889 
Q 3016 1369 3016 2328 
Q 3016 3291 2770 3770 
Q 2525 4250 2034 4250 
z
M 2034 4750 
Q 2819 4750 3233 4129 
Q 3647 3509 3647 2328 
Q 3647 1150 3233 529 
Q 2819 -91 2034 -91 
Q 1250 -91 836 529 
Q 422 1150 422 2328 
Q 422 3509 836 4129 
Q 1250 4750 2034 4750 
z
" transform="scale(0.015625)"/>
        <path id="DejaVuSans-2d" d="M 313 2009 
L 1997 2009 
L 1997 1497 
L 313 1497 
L 313 2009 
z
" transform="scale(0.015625)"/>
        <path id="DejaVuSans-4e" d="M 628 4666 
L 1478 4666 
L 3547 763 
L 3547 4666 
L 4159 4666 
L 4159 0 
L 3309 0 
L 1241 3903 
L 1241 0 
L 628 0 
L 628 4666 
z
" transform="scale(0.015625)"/>
        <path id="DejaVuSans-6f" d="M 1959 3097 
Q 1497 3097 1228 2736 
Q 959 2375 959 1747 
Q 959 1119 1226 758 
Q 1494 397 1959 397 
Q 2419 397 2687 759 
Q 2956 1122 2956 1747 
Q 2956 2369 2687 2733 
Q 2419 3097 1959 3097 
z
M 1959 3584 
Q 2709 3584 3137 3096 
Q 3566 2609 3566 1747 
Q 3566 888 3137 398 
Q 2709 -91 1959 -91 
Q 1206 -91 779 398 
Q 353 888 353 1747 
Q 353 2609 779 3096 
Q 1206 3584 1959 3584 
z
" transform="scale(0.015625)"/>
        <path id="DejaVuSans-76" d="M 191 3500 
L 800 3500 
L 1894 563 
L 2988 3500 
L 3597 3500 
L 2284 0 
L 1503 0 
L 191 3500 
z
" transform="scale(0.015625)"/>
        <path id="DejaVuSans-31" d="M 794 531 
L 1825 531 
L 1825 4091 
L 703 3866 
L 703 4441 
L 1819 4666 
L 2450 4666 
L 2450 531 
L 3481 531 
L 3481 0 
L 794 0 
L 794 531 
z
" transform="scale(0.015625)"/>
       </defs>
       <use xlink:href="#DejaVuSans-32"/>
       <use xlink:href="#DejaVuSans-30" x="63.623047"/>
       <use xlink:href="#DejaVuSans-32" x="127.246094"/>
       <use xlink:href="#DejaVuSans-30" x="190.869141"/>
       <use xlink:href="#DejaVuSans-2d" x="254.492188"/>
       <use xlink:href="#DejaVuSans-4e" x="290.576172"/>
       <use xlink:href="#DejaVuSans-6f" x="365.380859"/>
       <use xlink:href="#DejaVuSans-76" x="426.5625"/>
       <use xlink:href="#DejaVuSans-2d" x="483.117188"/>
       <use xlink:href="#DejaVuSans-30" x="519.201172"/>
       <use xlink:href="#DejaVuSans-31" x="582.824219"/>
      </g>
     </g>
    </g>
    <g id="xtick_2">
     <g id="line2d_2">
      <g>
       <use xlink:href="#m067b709b59" x="97.150605" y="178.56" style="stroke: #000000; stroke-width: 0.8"/>
      </g>
     </g>
     <g id="text_2">
      <!-- 2020-Dec-01 -->
      <g transform="translate(40.042383 224.511534)rotate(-30)scale(0.1 -0.1)">
       <defs>
        <path id="DejaVuSans-44" d="M 1259 4147 
L 1259 519 
L 2022 519 
Q 2988 519 3436 956 
Q 3884 1394 3884 2338 
Q 3884 3275 3436 3711 
Q 2988 4147 2022 4147 
L 1259 4147 
z
M 628 4666 
L 1925 4666 
Q 3281 4666 3915 4102 
Q 4550 3538 4550 2338 
Q 4550 1131 3912 565 
Q 3275 0 1925 0 
L 628 0 
L 628 4666 
z
" transform="scale(0.015625)"/>
        <path id="DejaVuSans-65" d="M 3597 1894 
L 3597 1613 
L 953 1613 
Q 991 1019 1311 708 
Q 1631 397 2203 397 
Q 2534 397 2845 478 
Q 3156 559 3463 722 
L 3463 178 
Q 3153 47 2828 -22 
Q 2503 -91 2169 -91 
Q 1331 -91 842 396 
Q 353 884 353 1716 
Q 353 2575 817 3079 
Q 1281 3584 2069 3584 
Q 2775 3584 3186 3129 
Q 3597 2675 3597 1894 
z
M 3022 2063 
Q 3016 2534 2758 2815 
Q 2500 3097 2075 3097 
Q 1594 3097 1305 2825 
Q 1016 2553 972 2059 
L 3022 2063 
z
" transform="scale(0.015625)"/>
        <path id="DejaVuSans-63" d="M 3122 3366 
L 3122 2828 
Q 2878 2963 2633 3030 
Q 2388 3097 2138 3097 
Q 1578 3097 1268 2742 
Q 959 2388 959 1747 
Q 959 1106 1268 751 
Q 1578 397 2138 397 
Q 2388 397 2633 464 
Q 2878 531 3122 666 
L 3122 134 
Q 2881 22 2623 -34 
Q 2366 -91 2075 -91 
Q 1284 -91 818 406 
Q 353 903 353 1747 
Q 353 2603 823 3093 
Q 1294 3584 2113 3584 
Q 2378 3584 2631 3529 
Q 2884 3475 3122 3366 
z
" transform="scale(0.015625)"/>
       </defs>
       <use xlink:href="#DejaVuSans-32"/>
       <use xlink:href="#DejaVuSans-30" x="63.623047"/>
       <use xlink:href="#DejaVuSans-32" x="127.246094"/>
       <use xlink:href="#DejaVuSans-30" x="190.869141"/>
       <use xlink:href="#DejaVuSans-2d" x="254.492188"/>
       <use xlink:href="#DejaVuSans-44" x="290.576172"/>
       <use xlink:href="#DejaVuSans-65" x="367.578125"/>
       <use xlink:href="#DejaVuSans-63" x="429.101562"/>
       <use xlink:href="#DejaVuSans-2d" x="484.082031"/>
       <use xlink:href="#DejaVuSans-30" x="520.166016"/>
       <use xlink:href="#DejaVuSans-31" x="583.789062"/>
      </g>
     </g>
    </g>
    <g id="xtick_3">
     <g id="line2d_3">
      <g>
       <use xlink:href="#m067b709b59" x="127.247169" y="178.56" style="stroke: #000000; stroke-width: 0.8"/>
      </g>
     </g>
     <g id="text_3">
      <!-- 2021-Jan-01 -->
      <g transform="translate(73.060429 222.824815)rotate(-30)scale(0.1 -0.1)">
       <defs>
        <path id="DejaVuSans-4a" d="M 628 4666 
L 1259 4666 
L 1259 325 
Q 1259 -519 939 -900 
Q 619 -1281 -91 -1281 
L -331 -1281 
L -331 -750 
L -134 -750 
Q 284 -750 456 -515 
Q 628 -281 628 325 
L 628 4666 
z
" transform="scale(0.015625)"/>
        <path id="DejaVuSans-61" d="M 2194 1759 
Q 1497 1759 1228 1600 
Q 959 1441 959 1056 
Q 959 750 1161 570 
Q 1363 391 1709 391 
Q 2188 391 2477 730 
Q 2766 1069 2766 1631 
L 2766 1759 
L 2194 1759 
z
M 3341 1997 
L 3341 0 
L 2766 0 
L 2766 531 
Q 2569 213 2275 61 
Q 1981 -91 1556 -91 
Q 1019 -91 701 211 
Q 384 513 384 1019 
Q 384 1609 779 1909 
Q 1175 2209 1959 2209 
L 2766 2209 
L 2766 2266 
Q 2766 2663 2505 2880 
Q 2244 3097 1772 3097 
Q 1472 3097 1187 3025 
Q 903 2953 641 2809 
L 641 3341 
Q 956 3463 1253 3523 
Q 1550 3584 1831 3584 
Q 2591 3584 2966 3190 
Q 3341 2797 3341 1997 
z
" transform="scale(0.015625)"/>
        <path id="DejaVuSans-6e" d="M 3513 2113 
L 3513 0 
L 2938 0 
L 2938 2094 
Q 2938 2591 2744 2837 
Q 2550 3084 2163 3084 
Q 1697 3084 1428 2787 
Q 1159 2491 1159 1978 
L 1159 0 
L 581 0 
L 581 3500 
L 1159 3500 
L 1159 2956 
Q 1366 3272 1645 3428 
Q 1925 3584 2291 3584 
Q 2894 3584 3203 3211 
Q 3513 2838 3513 2113 
z
" transform="scale(0.015625)"/>
       </defs>
       <use xlink:href="#DejaVuSans-32"/>
       <use xlink:href="#DejaVuSans-30" x="63.623047"/>
       <use xlink:href="#DejaVuSans-32" x="127.246094"/>
       <use xlink:href="#DejaVuSans-31" x="190.869141"/>
       <use xlink:href="#DejaVuSans-2d" x="254.492188"/>
       <use xlink:href="#DejaVuSans-4a" x="296.201172"/>
       <use xlink:href="#DejaVuSans-61" x="325.693359"/>
       <use xlink:href="#DejaVuSans-6e" x="386.972656"/>
       <use xlink:href="#DejaVuSans-2d" x="450.351562"/>
       <use xlink:href="#DejaVuSans-30" x="486.435547"/>
       <use xlink:href="#DejaVuSans-31" x="550.058594"/>
      </g>
     </g>
    </g>
    <g id="xtick_4">
     <g id="line2d_4">
      <g>
       <use xlink:href="#m067b709b59" x="157.343733" y="178.56" style="stroke: #000000; stroke-width: 0.8"/>
      </g>
     </g>
     <g id="text_4">
      <!-- 2021-Feb-01 -->
      <g transform="translate(101.663099 223.687315)rotate(-30)scale(0.1 -0.1)">
       <defs>
        <path id="DejaVuSans-46" d="M 628 4666 
L 3309 4666 
L 3309 4134 
L 1259 4134 
L 1259 2759 
L 3109 2759 
L 3109 2228 
L 1259 2228 
L 1259 0 
L 628 0 
L 628 4666 
z
" transform="scale(0.015625)"/>
        <path id="DejaVuSans-62" d="M 3116 1747 
Q 3116 2381 2855 2742 
Q 2594 3103 2138 3103 
Q 1681 3103 1420 2742 
Q 1159 2381 1159 1747 
Q 1159 1113 1420 752 
Q 1681 391 2138 391 
Q 2594 391 2855 752 
Q 3116 1113 3116 1747 
z
M 1159 2969 
Q 1341 3281 1617 3432 
Q 1894 3584 2278 3584 
Q 2916 3584 3314 3078 
Q 3713 2572 3713 1747 
Q 3713 922 3314 415 
Q 2916 -91 2278 -91 
Q 1894 -91 1617 61 
Q 1341 213 1159 525 
L 1159 0 
L 581 0 
L 581 4863 
L 1159 4863 
L 1159 2969 
z
" transform="scale(0.015625)"/>
       </defs>
       <use xlink:href="#DejaVuSans-32"/>
       <use xlink:href="#DejaVuSans-30" x="63.623047"/>
       <use xlink:href="#DejaVuSans-32" x="127.246094"/>
       <use xlink:href="#DejaVuSans-31" x="190.869141"/>
       <use xlink:href="#DejaVuSans-2d" x="254.492188"/>
       <use xlink:href="#DejaVuSans-46" x="290.576172"/>
       <use xlink:href="#DejaVuSans-65" x="342.595703"/>
       <use xlink:href="#DejaVuSans-62" x="404.119141"/>
       <use xlink:href="#DejaVuSans-2d" x="467.595703"/>
       <use xlink:href="#DejaVuSans-30" x="503.679688"/>
       <use xlink:href="#DejaVuSans-31" x="567.302734"/>
      </g>
     </g>
    </g>
    <g id="xtick_5">
     <g id="line2d_5">
      <g>
       <use xlink:href="#m067b709b59" x="184.527726" y="178.56" style="stroke: #000000; stroke-width: 0.8"/>
      </g>
     </g>
     <g id="text_5">
      <!-- 2021-Mar-01 -->
      <g transform="translate(128.391075 223.950596)rotate(-30)scale(0.1 -0.1)">
       <defs>
        <path id="DejaVuSans-4d" d="M 628 4666 
L 1569 4666 
L 2759 1491 
L 3956 4666 
L 4897 4666 
L 4897 0 
L 4281 0 
L 4281 4097 
L 3078 897 
L 2444 897 
L 1241 4097 
L 1241 0 
L 628 0 
L 628 4666 
z
" transform="scale(0.015625)"/>
        <path id="DejaVuSans-72" d="M 2631 2963 
Q 2534 3019 2420 3045 
Q 2306 3072 2169 3072 
Q 1681 3072 1420 2755 
Q 1159 2438 1159 1844 
L 1159 0 
L 581 0 
L 581 3500 
L 1159 3500 
L 1159 2956 
Q 1341 3275 1631 3429 
Q 1922 3584 2338 3584 
Q 2397 3584 2469 3576 
Q 2541 3569 2628 3553 
L 2631 2963 
z
" transform="scale(0.015625)"/>
       </defs>
       <use xlink:href="#DejaVuSans-32"/>
       <use xlink:href="#DejaVuSans-30" x="63.623047"/>
       <use xlink:href="#DejaVuSans-32" x="127.246094"/>
       <use xlink:href="#DejaVuSans-31" x="190.869141"/>
       <use xlink:href="#DejaVuSans-2d" x="254.492188"/>
       <use xlink:href="#DejaVuSans-4d" x="290.576172"/>
       <use xlink:href="#DejaVuSans-61" x="376.855469"/>
       <use xlink:href="#DejaVuSans-72" x="438.134766"/>
       <use xlink:href="#DejaVuSans-2d" x="472.873047"/>
       <use xlink:href="#DejaVuSans-30" x="508.957031"/>
       <use xlink:href="#DejaVuSans-31" x="572.580078"/>
      </g>
     </g>
    </g>
    <g id="xtick_6">
     <g id="line2d_6">
      <g>
       <use xlink:href="#m067b709b59" x="214.62429" y="178.56" style="stroke: #000000; stroke-width: 0.8"/>
      </g>
     </g>
     <g id="text_6">
      <!-- 2021-Apr-01 -->
      <g transform="translate(160.039719 223.054502)rotate(-30)scale(0.1 -0.1)">
       <defs>
        <path id="DejaVuSans-41" d="M 2188 4044 
L 1331 1722 
L 3047 1722 
L 2188 4044 
z
M 1831 4666 
L 2547 4666 
L 4325 0 
L 3669 0 
L 3244 1197 
L 1141 1197 
L 716 0 
L 50 0 
L 1831 4666 
z
" transform="scale(0.015625)"/>
        <path id="DejaVuSans-70" d="M 1159 525 
L 1159 -1331 
L 581 -1331 
L 581 3500 
L 1159 3500 
L 1159 2969 
Q 1341 3281 1617 3432 
Q 1894 3584 2278 3584 
Q 2916 3584 3314 3078 
Q 3713 2572 3713 1747 
Q 3713 922 3314 415 
Q 2916 -91 2278 -91 
Q 1894 -91 1617 61 
Q 1341 213 1159 525 
z
M 3116 1747 
Q 3116 2381 2855 2742 
Q 2594 3103 2138 3103 
Q 1681 3103 1420 2742 
Q 1159 2381 1159 1747 
Q 1159 1113 1420 752 
Q 1681 391 2138 391 
Q 2594 391 2855 752 
Q 3116 1113 3116 1747 
z
" transform="scale(0.015625)"/>
       </defs>
       <use xlink:href="#DejaVuSans-32"/>
       <use xlink:href="#DejaVuSans-30" x="63.623047"/>
       <use xlink:href="#DejaVuSans-32" x="127.246094"/>
       <use xlink:href="#DejaVuSans-31" x="190.869141"/>
       <use xlink:href="#DejaVuSans-2d" x="254.492188"/>
       <use xlink:href="#DejaVuSans-41" x="288.326172"/>
       <use xlink:href="#DejaVuSans-70" x="356.734375"/>
       <use xlink:href="#DejaVuSans-72" x="420.210938"/>
       <use xlink:href="#DejaVuSans-2d" x="454.949219"/>
       <use xlink:href="#DejaVuSans-30" x="491.033203"/>
       <use xlink:href="#DejaVuSans-31" x="554.65625"/>
      </g>
     </g>
    </g>
    <g id="xtick_7">
     <g id="line2d_7">
      <g>
       <use xlink:href="#m067b709b59" x="243.749996" y="178.56" style="stroke: #000000; stroke-width: 0.8"/>
      </g>
     </g>
     <g id="text_7">
      <!-- 2021-May-01 -->
      <g transform="translate(185.647198 225.085752)rotate(-30)scale(0.1 -0.1)">
       <defs>
        <path id="DejaVuSans-79" d="M 2059 -325 
Q 1816 -950 1584 -1140 
Q 1353 -1331 966 -1331 
L 506 -1331 
L 506 -850 
L 844 -850 
Q 1081 -850 1212 -737 
Q 1344 -625 1503 -206 
L 1606 56 
L 191 3500 
L 800 3500 
L 1894 763 
L 2988 3500 
L 3597 3500 
L 2059 -325 
z
" transform="scale(0.015625)"/>
       </defs>
       <use xlink:href="#DejaVuSans-32"/>
       <use xlink:href="#DejaVuSans-30" x="63.623047"/>
       <use xlink:href="#DejaVuSans-32" x="127.246094"/>
       <use xlink:href="#DejaVuSans-31" x="190.869141"/>
       <use xlink:href="#DejaVuSans-2d" x="254.492188"/>
       <use xlink:href="#DejaVuSans-4d" x="290.576172"/>
       <use xlink:href="#DejaVuSans-61" x="376.855469"/>
       <use xlink:href="#DejaVuSans-79" x="438.134766"/>
       <use xlink:href="#DejaVuSans-2d" x="495.564453"/>
       <use xlink:href="#DejaVuSans-30" x="531.648438"/>
       <use xlink:href="#DejaVuSans-31" x="595.271484"/>
      </g>
     </g>
    </g>
    <g id="xtick_8">
     <g id="line2d_8">
      <g>
       <use xlink:href="#m067b709b59" x="273.84656" y="178.56" style="stroke: #000000; stroke-width: 0.8"/>
      </g>
     </g>
     <g id="text_8">
      <!-- 2021-Jun-01 -->
      <g transform="translate(219.478496 222.929502)rotate(-30)scale(0.1 -0.1)">
       <defs>
        <path id="DejaVuSans-75" d="M 544 1381 
L 544 3500 
L 1119 3500 
L 1119 1403 
Q 1119 906 1312 657 
Q 1506 409 1894 409 
Q 2359 409 2629 706 
Q 2900 1003 2900 1516 
L 2900 3500 
L 3475 3500 
L 3475 0 
L 2900 0 
L 2900 538 
Q 2691 219 2414 64 
Q 2138 -91 1772 -91 
Q 1169 -91 856 284 
Q 544 659 544 1381 
z
M 1991 3584 
L 1991 3584 
z
" transform="scale(0.015625)"/>
       </defs>
       <use xlink:href="#DejaVuSans-32"/>
       <use xlink:href="#DejaVuSans-30" x="63.623047"/>
       <use xlink:href="#DejaVuSans-32" x="127.246094"/>
       <use xlink:href="#DejaVuSans-31" x="190.869141"/>
       <use xlink:href="#DejaVuSans-2d" x="254.492188"/>
       <use xlink:href="#DejaVuSans-4a" x="296.201172"/>
       <use xlink:href="#DejaVuSans-75" x="325.693359"/>
       <use xlink:href="#DejaVuSans-6e" x="389.072266"/>
       <use xlink:href="#DejaVuSans-2d" x="452.451172"/>
       <use xlink:href="#DejaVuSans-30" x="488.535156"/>
       <use xlink:href="#DejaVuSans-31" x="552.158203"/>
      </g>
     </g>
    </g>
    <g id="xtick_9">
     <g id="line2d_9">
      <g>
       <use xlink:href="#m067b709b59" x="302.972267" y="178.56" style="stroke: #000000; stroke-width: 0.8"/>
      </g>
     </g>
     <g id="text_9">
      <!-- 2021-Jul-01 -->
      <g transform="translate(251.686712 221.149815)rotate(-30)scale(0.1 -0.1)">
       <defs>
        <path id="DejaVuSans-6c" d="M 603 4863 
L 1178 4863 
L 1178 0 
L 603 0 
L 603 4863 
z
" transform="scale(0.015625)"/>
       </defs>
       <use xlink:href="#DejaVuSans-32"/>
       <use xlink:href="#DejaVuSans-30" x="63.623047"/>
       <use xlink:href="#DejaVuSans-32" x="127.246094"/>
       <use xlink:href="#DejaVuSans-31" x="190.869141"/>
       <use xlink:href="#DejaVuSans-2d" x="254.492188"/>
       <use xlink:href="#DejaVuSans-4a" x="296.201172"/>
       <use xlink:href="#DejaVuSans-75" x="325.693359"/>
       <use xlink:href="#DejaVuSans-6c" x="389.072266"/>
       <use xlink:href="#DejaVuSans-2d" x="416.855469"/>
       <use xlink:href="#DejaVuSans-30" x="452.939453"/>
       <use xlink:href="#DejaVuSans-31" x="516.5625"/>
      </g>
     </g>
    </g>
    <g id="xtick_10">
     <g id="line2d_10">
      <g>
       <use xlink:href="#m067b709b59" x="333.068831" y="178.56" style="stroke: #000000; stroke-width: 0.8"/>
      </g>
     </g>
     <g id="text_10">
      <!-- 2021-Aug-01 -->
      <g transform="translate(276.003909 224.486534)rotate(-30)scale(0.1 -0.1)">
       <defs>
        <path id="DejaVuSans-67" d="M 2906 1791 
Q 2906 2416 2648 2759 
Q 2391 3103 1925 3103 
Q 1463 3103 1205 2759 
Q 947 2416 947 1791 
Q 947 1169 1205 825 
Q 1463 481 1925 481 
Q 2391 481 2648 825 
Q 2906 1169 2906 1791 
z
M 3481 434 
Q 3481 -459 3084 -895 
Q 2688 -1331 1869 -1331 
Q 1566 -1331 1297 -1286 
Q 1028 -1241 775 -1147 
L 775 -588 
Q 1028 -725 1275 -790 
Q 1522 -856 1778 -856 
Q 2344 -856 2625 -561 
Q 2906 -266 2906 331 
L 2906 616 
Q 2728 306 2450 153 
Q 2172 0 1784 0 
Q 1141 0 747 490 
Q 353 981 353 1791 
Q 353 2603 747 3093 
Q 1141 3584 1784 3584 
Q 2172 3584 2450 3431 
Q 2728 3278 2906 2969 
L 2906 3500 
L 3481 3500 
L 3481 434 
z
" transform="scale(0.015625)"/>
       </defs>
       <use xlink:href="#DejaVuSans-32"/>
       <use xlink:href="#DejaVuSans-30" x="63.623047"/>
       <use xlink:href="#DejaVuSans-32" x="127.246094"/>
       <use xlink:href="#DejaVuSans-31" x="190.869141"/>
       <use xlink:href="#DejaVuSans-2d" x="254.492188"/>
       <use xlink:href="#DejaVuSans-41" x="288.326172"/>
       <use xlink:href="#DejaVuSans-75" x="356.734375"/>
       <use xlink:href="#DejaVuSans-67" x="420.113281"/>
       <use xlink:href="#DejaVuSans-2d" x="483.589844"/>
       <use xlink:href="#DejaVuSans-30" x="519.673828"/>
       <use xlink:href="#DejaVuSans-31" x="583.296875"/>
      </g>
     </g>
    </g>
    <g id="xtick_11">
     <g id="line2d_11">
      <g>
       <use xlink:href="#m067b709b59" x="363.165394" y="178.56" style="stroke: #000000; stroke-width: 0.8"/>
      </g>
     </g>
     <g id="text_11">
      <!-- 2021-Sep-01 -->
      <g transform="translate(306.491537 224.260752)rotate(-30)scale(0.1 -0.1)">
       <defs>
        <path id="DejaVuSans-53" d="M 3425 4513 
L 3425 3897 
Q 3066 4069 2747 4153 
Q 2428 4238 2131 4238 
Q 1616 4238 1336 4038 
Q 1056 3838 1056 3469 
Q 1056 3159 1242 3001 
Q 1428 2844 1947 2747 
L 2328 2669 
Q 3034 2534 3370 2195 
Q 3706 1856 3706 1288 
Q 3706 609 3251 259 
Q 2797 -91 1919 -91 
Q 1588 -91 1214 -16 
Q 841 59 441 206 
L 441 856 
Q 825 641 1194 531 
Q 1563 422 1919 422 
Q 2459 422 2753 634 
Q 3047 847 3047 1241 
Q 3047 1584 2836 1778 
Q 2625 1972 2144 2069 
L 1759 2144 
Q 1053 2284 737 2584 
Q 422 2884 422 3419 
Q 422 4038 858 4394 
Q 1294 4750 2059 4750 
Q 2388 4750 2728 4690 
Q 3069 4631 3425 4513 
z
" transform="scale(0.015625)"/>
       </defs>
       <use xlink:href="#DejaVuSans-32"/>
       <use xlink:href="#DejaVuSans-30" x="63.623047"/>
       <use xlink:href="#DejaVuSans-32" x="127.246094"/>
       <use xlink:href="#DejaVuSans-31" x="190.869141"/>
       <use xlink:href="#DejaVuSans-2d" x="254.492188"/>
       <use xlink:href="#DejaVuSans-53" x="290.576172"/>
       <use xlink:href="#DejaVuSans-65" x="354.052734"/>
       <use xlink:href="#DejaVuSans-70" x="415.576172"/>
       <use xlink:href="#DejaVuSans-2d" x="479.052734"/>
       <use xlink:href="#DejaVuSans-30" x="515.136719"/>
       <use xlink:href="#DejaVuSans-31" x="578.759766"/>
      </g>
     </g>
    </g>
    <g id="xtick_12">
     <g id="line2d_12">
      <g>
       <use xlink:href="#m067b709b59" x="392.291101" y="178.56" style="stroke: #000000; stroke-width: 0.8"/>
      </g>
     </g>
     <g id="text_12">
      <!-- 2021-Oct-01 -->
      <g transform="translate(336.729546 223.618565)rotate(-30)scale(0.1 -0.1)">
       <defs>
        <path id="DejaVuSans-4f" d="M 2522 4238 
Q 1834 4238 1429 3725 
Q 1025 3213 1025 2328 
Q 1025 1447 1429 934 
Q 1834 422 2522 422 
Q 3209 422 3611 934 
Q 4013 1447 4013 2328 
Q 4013 3213 3611 3725 
Q 3209 4238 2522 4238 
z
M 2522 4750 
Q 3503 4750 4090 4092 
Q 4678 3434 4678 2328 
Q 4678 1225 4090 567 
Q 3503 -91 2522 -91 
Q 1538 -91 948 565 
Q 359 1222 359 2328 
Q 359 3434 948 4092 
Q 1538 4750 2522 4750 
z
" transform="scale(0.015625)"/>
        <path id="DejaVuSans-74" d="M 1172 4494 
L 1172 3500 
L 2356 3500 
L 2356 3053 
L 1172 3053 
L 1172 1153 
Q 1172 725 1289 603 
Q 1406 481 1766 481 
L 2356 481 
L 2356 0 
L 1766 0 
Q 1100 0 847 248 
Q 594 497 594 1153 
L 594 3053 
L 172 3053 
L 172 3500 
L 594 3500 
L 594 4494 
L 1172 4494 
z
" transform="scale(0.015625)"/>
       </defs>
       <use xlink:href="#DejaVuSans-32"/>
       <use xlink:href="#DejaVuSans-30" x="63.623047"/>
       <use xlink:href="#DejaVuSans-32" x="127.246094"/>
       <use xlink:href="#DejaVuSans-31" x="190.869141"/>
       <use xlink:href="#DejaVuSans-2d" x="254.492188"/>
       <use xlink:href="#DejaVuSans-4f" x="293.326172"/>
       <use xlink:href="#DejaVuSans-63" x="372.037109"/>
       <use xlink:href="#DejaVuSans-74" x="427.017578"/>
       <use xlink:href="#DejaVuSans-2d" x="466.226562"/>
       <use xlink:href="#DejaVuSans-30" x="502.310547"/>
       <use xlink:href="#DejaVuSans-31" x="565.933594"/>
      </g>
     </g>
    </g>
    <g id="xtick_13">
     <g id="line2d_13">
      <g>
       <use xlink:href="#m067b709b59" x="422.387665" y="178.56" style="stroke: #000000; stroke-width: 0.8"/>
      </g>
     </g>
     <g id="text_13">
      <!-- 2021-Nov-01 -->
      <g transform="translate(365.361985 224.463877)rotate(-30)scale(0.1 -0.1)">
       <use xlink:href="#DejaVuSans-32"/>
       <use xlink:href="#DejaVuSans-30" x="63.623047"/>
       <use xlink:href="#DejaVuSans-32" x="127.246094"/>
       <use xlink:href="#DejaVuSans-31" x="190.869141"/>
       <use xlink:href="#DejaVuSans-2d" x="254.492188"/>
       <use xlink:href="#DejaVuSans-4e" x="290.576172"/>
       <use xlink:href="#DejaVuSans-6f" x="365.380859"/>
       <use xlink:href="#DejaVuSans-76" x="426.5625"/>
       <use xlink:href="#DejaVuSans-2d" x="483.117188"/>
       <use xlink:href="#DejaVuSans-30" x="519.201172"/>
       <use xlink:href="#DejaVuSans-31" x="582.824219"/>
      </g>
     </g>
    </g>
    <g id="xtick_14">
     <g id="line2d_14">
      <g>
       <use xlink:href="#m067b709b59" x="451.513372" y="178.56" style="stroke: #000000; stroke-width: 0.8"/>
      </g>
     </g>
     <g id="text_14">
      <!-- 2021-Dec-01 -->
      <g transform="translate(394.405149 224.511534)rotate(-30)scale(0.1 -0.1)">
       <use xlink:href="#DejaVuSans-32"/>
       <use xlink:href="#DejaVuSans-30" x="63.623047"/>
       <use xlink:href="#DejaVuSans-32" x="127.246094"/>
       <use xlink:href="#DejaVuSans-31" x="190.869141"/>
       <use xlink:href="#DejaVuSans-2d" x="254.492188"/>
       <use xlink:href="#DejaVuSans-44" x="290.576172"/>
       <use xlink:href="#DejaVuSans-65" x="367.578125"/>
       <use xlink:href="#DejaVuSans-63" x="429.101562"/>
       <use xlink:href="#DejaVuSans-2d" x="484.082031"/>
       <use xlink:href="#DejaVuSans-30" x="520.166016"/>
       <use xlink:href="#DejaVuSans-31" x="583.789062"/>
      </g>
     </g>
    </g>
    <g id="xtick_15">
     <g id="line2d_15">
      <g>
       <use xlink:href="#m067b709b59" x="481.609935" y="178.56" style="stroke: #000000; stroke-width: 0.8"/>
      </g>
     </g>
     <g id="text_15">
      <!-- 2022-Jan-01 -->
      <g transform="translate(427.423195 222.824815)rotate(-30)scale(0.1 -0.1)">
       <use xlink:href="#DejaVuSans-32"/>
       <use xlink:href="#DejaVuSans-30" x="63.623047"/>
       <use xlink:href="#DejaVuSans-32" x="127.246094"/>
       <use xlink:href="#DejaVuSans-32" x="190.869141"/>
       <use xlink:href="#DejaVuSans-2d" x="254.492188"/>
       <use xlink:href="#DejaVuSans-4a" x="296.201172"/>
       <use xlink:href="#DejaVuSans-61" x="325.693359"/>
       <use xlink:href="#DejaVuSans-6e" x="386.972656"/>
       <use xlink:href="#DejaVuSans-2d" x="450.351562"/>
       <use xlink:href="#DejaVuSans-30" x="486.435547"/>
       <use xlink:href="#DejaVuSans-31" x="550.058594"/>
      </g>
     </g>
    </g>
   </g>
   <g id="matplotlib.axis_2">
    <g id="ytick_1">
     <g id="line2d_16">
      <path d="M 53.559131 176.332519 
L 499.959131 176.332519 
" clip-path="url(#p9b97544dfb)" style="fill: none; stroke: #b0b0b0; stroke-width: 0.8; stroke-linecap: square"/>
     </g>
     <g id="line2d_17">
      <defs>
       <path id="m9d1a1d4cd7" d="M 0 0 
L -3.5 0 
" style="stroke: #000000; stroke-width: 0.8"/>
      </defs>
      <g>
       <use xlink:href="#m9d1a1d4cd7" x="53.559131" y="176.332519" style="stroke: #000000; stroke-width: 0.8"/>
      </g>
     </g>
     <g id="text_16">
      <!-- 1000 -->
      <g transform="translate(21.109131 180.131737)scale(0.1 -0.1)">
       <use xlink:href="#DejaVuSans-31"/>
       <use xlink:href="#DejaVuSans-30" x="63.623047"/>
       <use xlink:href="#DejaVuSans-30" x="127.246094"/>
       <use xlink:href="#DejaVuSans-30" x="190.869141"/>
      </g>
     </g>
    </g>
    <g id="ytick_2">
     <g id="line2d_18">
      <path d="M 53.559131 147.95696 
L 499.959131 147.95696 
" clip-path="url(#p9b97544dfb)" style="fill: none; stroke: #b0b0b0; stroke-width: 0.8; stroke-linecap: square"/>
     </g>
     <g id="line2d_19">
      <g>
       <use xlink:href="#m9d1a1d4cd7" x="53.559131" y="147.95696" style="stroke: #000000; stroke-width: 0.8"/>
      </g>
     </g>
     <g id="text_17">
      <!-- 1500 -->
      <g transform="translate(21.109131 151.756179)scale(0.1 -0.1)">
       <defs>
        <path id="DejaVuSans-35" d="M 691 4666 
L 3169 4666 
L 3169 4134 
L 1269 4134 
L 1269 2991 
Q 1406 3038 1543 3061 
Q 1681 3084 1819 3084 
Q 2600 3084 3056 2656 
Q 3513 2228 3513 1497 
Q 3513 744 3044 326 
Q 2575 -91 1722 -91 
Q 1428 -91 1123 -41 
Q 819 9 494 109 
L 494 744 
Q 775 591 1075 516 
Q 1375 441 1709 441 
Q 2250 441 2565 725 
Q 2881 1009 2881 1497 
Q 2881 1984 2565 2268 
Q 2250 2553 1709 2553 
Q 1456 2553 1204 2497 
Q 953 2441 691 2322 
L 691 4666 
z
" transform="scale(0.015625)"/>
       </defs>
       <use xlink:href="#DejaVuSans-31"/>
       <use xlink:href="#DejaVuSans-35" x="63.623047"/>
       <use xlink:href="#DejaVuSans-30" x="127.246094"/>
       <use xlink:href="#DejaVuSans-30" x="190.869141"/>
      </g>
     </g>
    </g>
    <g id="ytick_3">
     <g id="line2d_20">
      <path d="M 53.559131 119.581401 
L 499.959131 119.581401 
" clip-path="url(#p9b97544dfb)" style="fill: none; stroke: #b0b0b0; stroke-width: 0.8; stroke-linecap: square"/>
     </g>
     <g id="line2d_21">
      <g>
       <use xlink:href="#m9d1a1d4cd7" x="53.559131" y="119.581401" style="stroke: #000000; stroke-width: 0.8"/>
      </g>
     </g>
     <g id="text_18">
      <!-- 2000 -->
      <g transform="translate(21.109131 123.38062)scale(0.1 -0.1)">
       <use xlink:href="#DejaVuSans-32"/>
       <use xlink:href="#DejaVuSans-30" x="63.623047"/>
       <use xlink:href="#DejaVuSans-30" x="127.246094"/>
       <use xlink:href="#DejaVuSans-30" x="190.869141"/>
      </g>
     </g>
    </g>
    <g id="ytick_4">
     <g id="line2d_22">
      <path d="M 53.559131 91.205842 
L 499.959131 91.205842 
" clip-path="url(#p9b97544dfb)" style="fill: none; stroke: #b0b0b0; stroke-width: 0.8; stroke-linecap: square"/>
     </g>
     <g id="line2d_23">
      <g>
       <use xlink:href="#m9d1a1d4cd7" x="53.559131" y="91.205842" style="stroke: #000000; stroke-width: 0.8"/>
      </g>
     </g>
     <g id="text_19">
      <!-- 2500 -->
      <g transform="translate(21.109131 95.005061)scale(0.1 -0.1)">
       <use xlink:href="#DejaVuSans-32"/>
       <use xlink:href="#DejaVuSans-35" x="63.623047"/>
       <use xlink:href="#DejaVuSans-30" x="127.246094"/>
       <use xlink:href="#DejaVuSans-30" x="190.869141"/>
      </g>
     </g>
    </g>
    <g id="ytick_5">
     <g id="line2d_24">
      <path d="M 53.559131 62.830283 
L 499.959131 62.830283 
" clip-path="url(#p9b97544dfb)" style="fill: none; stroke: #b0b0b0; stroke-width: 0.8; stroke-linecap: square"/>
     </g>
     <g id="line2d_25">
      <g>
       <use xlink:href="#m9d1a1d4cd7" x="53.559131" y="62.830283" style="stroke: #000000; stroke-width: 0.8"/>
      </g>
     </g>
     <g id="text_20">
      <!-- 3000 -->
      <g transform="translate(21.109131 66.629502)scale(0.1 -0.1)">
       <defs>
        <path id="DejaVuSans-33" d="M 2597 2516 
Q 3050 2419 3304 2112 
Q 3559 1806 3559 1356 
Q 3559 666 3084 287 
Q 2609 -91 1734 -91 
Q 1441 -91 1130 -33 
Q 819 25 488 141 
L 488 750 
Q 750 597 1062 519 
Q 1375 441 1716 441 
Q 2309 441 2620 675 
Q 2931 909 2931 1356 
Q 2931 1769 2642 2001 
Q 2353 2234 1838 2234 
L 1294 2234 
L 1294 2753 
L 1863 2753 
Q 2328 2753 2575 2939 
Q 2822 3125 2822 3475 
Q 2822 3834 2567 4026 
Q 2313 4219 1838 4219 
Q 1578 4219 1281 4162 
Q 984 4106 628 3988 
L 628 4550 
Q 988 4650 1302 4700 
Q 1616 4750 1894 4750 
Q 2613 4750 3031 4423 
Q 3450 4097 3450 3541 
Q 3450 3153 3228 2886 
Q 3006 2619 2597 2516 
z
" transform="scale(0.015625)"/>
       </defs>
       <use xlink:href="#DejaVuSans-33"/>
       <use xlink:href="#DejaVuSans-30" x="63.623047"/>
       <use xlink:href="#DejaVuSans-30" x="127.246094"/>
       <use xlink:href="#DejaVuSans-30" x="190.869141"/>
      </g>
     </g>
    </g>
    <g id="ytick_6">
     <g id="line2d_26">
      <path d="M 53.559131 34.454724 
L 499.959131 34.454724 
" clip-path="url(#p9b97544dfb)" style="fill: none; stroke: #b0b0b0; stroke-width: 0.8; stroke-linecap: square"/>
     </g>
     <g id="line2d_27">
      <g>
       <use xlink:href="#m9d1a1d4cd7" x="53.559131" y="34.454724" style="stroke: #000000; stroke-width: 0.8"/>
      </g>
     </g>
     <g id="text_21">
      <!-- 3500 -->
      <g transform="translate(21.109131 38.253943)scale(0.1 -0.1)">
       <use xlink:href="#DejaVuSans-33"/>
       <use xlink:href="#DejaVuSans-35" x="63.623047"/>
       <use xlink:href="#DejaVuSans-30" x="127.246094"/>
       <use xlink:href="#DejaVuSans-30" x="190.869141"/>
      </g>
     </g>
    </g>
    <g id="text_22">
     <!-- Number of security.txt files -->
     <g transform="translate(15.029443 160.491719)rotate(-90)scale(0.1 -0.1)">
      <defs>
       <path id="DejaVuSans-6d" d="M 3328 2828 
Q 3544 3216 3844 3400 
Q 4144 3584 4550 3584 
Q 5097 3584 5394 3201 
Q 5691 2819 5691 2113 
L 5691 0 
L 5113 0 
L 5113 2094 
Q 5113 2597 4934 2840 
Q 4756 3084 4391 3084 
Q 3944 3084 3684 2787 
Q 3425 2491 3425 1978 
L 3425 0 
L 2847 0 
L 2847 2094 
Q 2847 2600 2669 2842 
Q 2491 3084 2119 3084 
Q 1678 3084 1418 2786 
Q 1159 2488 1159 1978 
L 1159 0 
L 581 0 
L 581 3500 
L 1159 3500 
L 1159 2956 
Q 1356 3278 1631 3431 
Q 1906 3584 2284 3584 
Q 2666 3584 2933 3390 
Q 3200 3197 3328 2828 
z
" transform="scale(0.015625)"/>
       <path id="DejaVuSans-20" transform="scale(0.015625)"/>
       <path id="DejaVuSans-66" d="M 2375 4863 
L 2375 4384 
L 1825 4384 
Q 1516 4384 1395 4259 
Q 1275 4134 1275 3809 
L 1275 3500 
L 2222 3500 
L 2222 3053 
L 1275 3053 
L 1275 0 
L 697 0 
L 697 3053 
L 147 3053 
L 147 3500 
L 697 3500 
L 697 3744 
Q 697 4328 969 4595 
Q 1241 4863 1831 4863 
L 2375 4863 
z
" transform="scale(0.015625)"/>
       <path id="DejaVuSans-73" d="M 2834 3397 
L 2834 2853 
Q 2591 2978 2328 3040 
Q 2066 3103 1784 3103 
Q 1356 3103 1142 2972 
Q 928 2841 928 2578 
Q 928 2378 1081 2264 
Q 1234 2150 1697 2047 
L 1894 2003 
Q 2506 1872 2764 1633 
Q 3022 1394 3022 966 
Q 3022 478 2636 193 
Q 2250 -91 1575 -91 
Q 1294 -91 989 -36 
Q 684 19 347 128 
L 347 722 
Q 666 556 975 473 
Q 1284 391 1588 391 
Q 1994 391 2212 530 
Q 2431 669 2431 922 
Q 2431 1156 2273 1281 
Q 2116 1406 1581 1522 
L 1381 1569 
Q 847 1681 609 1914 
Q 372 2147 372 2553 
Q 372 3047 722 3315 
Q 1072 3584 1716 3584 
Q 2034 3584 2315 3537 
Q 2597 3491 2834 3397 
z
" transform="scale(0.015625)"/>
       <path id="DejaVuSans-69" d="M 603 3500 
L 1178 3500 
L 1178 0 
L 603 0 
L 603 3500 
z
M 603 4863 
L 1178 4863 
L 1178 4134 
L 603 4134 
L 603 4863 
z
" transform="scale(0.015625)"/>
       <path id="DejaVuSans-2e" d="M 684 794 
L 1344 794 
L 1344 0 
L 684 0 
L 684 794 
z
" transform="scale(0.015625)"/>
       <path id="DejaVuSans-78" d="M 3513 3500 
L 2247 1797 
L 3578 0 
L 2900 0 
L 1881 1375 
L 863 0 
L 184 0 
L 1544 1831 
L 300 3500 
L 978 3500 
L 1906 2253 
L 2834 3500 
L 3513 3500 
z
" transform="scale(0.015625)"/>
      </defs>
      <use xlink:href="#DejaVuSans-4e"/>
      <use xlink:href="#DejaVuSans-75" x="74.804688"/>
      <use xlink:href="#DejaVuSans-6d" x="138.183594"/>
      <use xlink:href="#DejaVuSans-62" x="235.595703"/>
      <use xlink:href="#DejaVuSans-65" x="299.072266"/>
      <use xlink:href="#DejaVuSans-72" x="360.595703"/>
      <use xlink:href="#DejaVuSans-20" x="401.708984"/>
      <use xlink:href="#DejaVuSans-6f" x="433.496094"/>
      <use xlink:href="#DejaVuSans-66" x="494.677734"/>
      <use xlink:href="#DejaVuSans-20" x="529.882812"/>
      <use xlink:href="#DejaVuSans-73" x="561.669922"/>
      <use xlink:href="#DejaVuSans-65" x="613.769531"/>
      <use xlink:href="#DejaVuSans-63" x="675.292969"/>
      <use xlink:href="#DejaVuSans-75" x="730.273438"/>
      <use xlink:href="#DejaVuSans-72" x="793.652344"/>
      <use xlink:href="#DejaVuSans-69" x="834.765625"/>
      <use xlink:href="#DejaVuSans-74" x="862.548828"/>
      <use xlink:href="#DejaVuSans-79" x="901.757812"/>
      <use xlink:href="#DejaVuSans-2e" x="946.6875"/>
      <use xlink:href="#DejaVuSans-74" x="978.474609"/>
      <use xlink:href="#DejaVuSans-78" x="1017.683594"/>
      <use xlink:href="#DejaVuSans-74" x="1076.863281"/>
      <use xlink:href="#DejaVuSans-20" x="1116.072266"/>
      <use xlink:href="#DejaVuSans-66" x="1147.859375"/>
      <use xlink:href="#DejaVuSans-69" x="1183.064453"/>
      <use xlink:href="#DejaVuSans-6c" x="1210.847656"/>
      <use xlink:href="#DejaVuSans-65" x="1238.630859"/>
      <use xlink:href="#DejaVuSans-73" x="1300.154297"/>
     </g>
    </g>
   </g>
   <g id="line2d_28">
    <path d="M 73.85004 106.188137 
L 74.820897 106.471893 
L 75.791754 106.982653 
L 76.762611 106.244888 
L 77.733467 104.769359 
L 78.704324 104.201848 
L 79.675181 104.088346 
L 80.646038 103.691088 
L 81.616895 103.974844 
L 82.587752 103.407332 
L 83.558609 103.123577 
L 84.529466 103.123577 
L 85.500323 103.634337 
L 86.47118 102.612817 
L 87.442036 102.726319 
L 88.412893 102.442563 
L 91.325464 101.76155 
L 92.296321 101.988554 
L 93.267178 101.931803 
L 94.238035 102.045306 
L 95.208892 101.648048 
L 96.179748 101.534545 
L 97.150605 102.215559 
L 98.121462 102.215559 
L 99.092319 101.76155 
L 100.063176 100.399523 
L 101.034033 102.045306 
L 102.00489 101.648048 
L 102.975747 100.513025 
L 103.946604 99.888763 
L 104.917461 100.683279 
L 105.888317 100.399523 
L 108.800888 100.456274 
L 110.742602 101.023785 
L 113.655173 99.945514 
L 115.596886 97.902474 
L 116.567743 98.583487 
L 117.5386 97.788972 
L 119.480314 98.583487 
L 120.451171 97.675469 
L 121.422028 98.469985 
L 122.392885 97.959225 
L 123.363742 98.015976 
L 124.334598 98.753741 
L 125.305455 98.753741 
L 127.247169 98.413234 
L 129.188883 99.20775 
L 130.15974 99.094247 
L 131.130597 98.867243 
L 132.101454 98.810492 
L 133.07231 98.129478 
L 134.043167 98.356483 
L 135.014024 98.413234 
L 135.984881 96.880954 
L 136.955738 97.675469 
L 137.926595 97.221461 
L 140.839166 96.540447 
L 143.751736 96.313443 
L 144.722593 96.767452 
L 145.69345 96.540447 
L 146.664307 95.972936 
L 147.635164 96.313443 
L 148.606021 96.994456 
L 157.343733 94.951416 
L 161.22716 95.121669 
L 162.198017 94.724411 
L 163.168874 94.724411 
L 164.139731 96.19994 
L 165.110588 95.348674 
L 166.081445 95.518927 
L 167.052302 94.497407 
L 168.023159 94.100149 
L 168.994016 94.781162 
L 169.964872 94.383905 
L 170.935729 94.270402 
L 171.906586 93.986647 
L 172.877443 93.986647 
L 173.8483 93.759642 
L 174.819157 93.702891 
L 175.790014 93.532638 
L 176.760871 92.454367 
L 177.731728 93.532638 
L 178.702584 93.475887 
L 179.673441 93.589389 
L 180.644298 92.454367 
L 181.615155 92.681371 
L 182.586012 91.659851 
L 183.556869 92.738122 
L 184.527726 92.000358 
L 185.498583 92.170611 
L 186.46944 92.057109 
L 187.440297 91.035589 
L 188.411153 90.808584 
L 189.38201 90.07082 
L 190.352867 89.616811 
L 191.323724 90.354575 
L 192.294581 90.411326 
L 196.178009 88.311535 
L 197.148865 87.687273 
L 198.119722 88.311535 
L 210.740862 87.403517 
L 211.711719 87.176513 
L 212.682576 87.630522 
L 213.653433 87.176513 
L 214.62429 87.460268 
L 215.595146 86.665753 
L 216.566003 87.119762 
L 217.53686 87.233264 
L 218.507717 85.01997 
L 219.478574 85.076721 
L 220.449431 84.849717 
L 221.420288 83.714694 
L 222.391145 84.225455 
L 223.362002 83.828197 
L 226.274572 83.941699 
L 227.245429 84.736215 
L 228.216286 83.771446 
L 229.187143 83.544441 
L 230.158 83.544441 
L 231.128857 84.225455 
L 232.099714 83.884948 
L 233.070571 84.111952 
L 234.041427 84.055201 
L 236.953998 82.920179 
L 237.924855 83.48769 
L 238.895712 82.693174 
L 239.866569 81.331148 
L 240.837426 80.93389 
L 241.808283 79.969121 
L 245.69171 79.91237 
L 246.662567 79.742116 
L 247.633424 78.550343 
L 248.604281 78.834098 
L 249.575138 77.585574 
L 250.545995 77.982832 
L 251.516852 77.755827 
L 252.487708 77.074814 
L 253.458565 76.90456 
L 255.400279 74.804769 
L 256.371136 74.067004 
L 257.341993 75.088525 
L 258.31285 75.485782 
L 259.283707 74.975022 
L 260.254564 74.180507 
L 261.22542 74.521013 
L 262.196277 74.180507 
L 263.167134 74.918271 
L 264.137991 74.577765 
L 265.108848 75.031773 
L 266.079705 75.712787 
L 267.050562 74.521013 
L 268.021419 75.202027 
L 268.992276 74.577765 
L 269.963133 73.385991 
L 270.933989 73.045484 
L 271.904846 73.385991 
L 272.875703 72.81848 
L 273.84656 73.272489 
L 274.817417 71.002444 
L 275.788274 71.399702 
L 276.759131 71.172697 
L 277.729988 70.605186 
L 278.700845 70.718689 
L 280.642558 71.059195 
L 281.613415 70.26468 
L 282.584272 69.810671 
L 283.555129 69.810671 
L 284.525986 69.016155 
L 285.496843 68.618897 
L 286.4677 68.845902 
L 287.438557 68.27839 
L 288.409414 67.427124 
L 289.38027 67.994635 
L 290.351127 67.313621 
L 291.321984 66.973115 
L 292.292841 66.973115 
L 293.263698 66.23535 
L 294.234555 66.916364 
L 296.176269 64.078808 
L 299.088839 65.21383 
L 301.030553 64.873323 
L 304.913981 62.603279 
L 305.884838 62.546528 
L 333.068831 53.125842 
L 334.039688 55.168882 
L 335.010544 53.466349 
L 336.952258 53.01234 
L 337.923115 51.650313 
L 338.893972 51.820566 
L 339.864829 51.48006 
L 340.835686 52.047571 
L 341.806543 51.026051 
L 342.7774 50.174784 
L 343.748257 49.834277 
L 344.719113 54.771624 
L 345.68997 54.885127 
L 346.660827 54.487869 
L 347.631684 54.374367 
L 348.602541 54.54462 
L 349.573398 54.601371 
L 350.544255 54.260864 
L 368.019679 54.204113 
L 368.990536 53.296095 
L 370.93225 52.388077 
L 371.903106 51.366557 
L 372.873963 51.707064 
L 374.815677 51.99082 
L 375.786534 52.444829 
L 376.757391 52.444829 
L 377.728248 50.458539 
L 378.699105 50.231535 
L 379.669962 49.437019 
L 380.640818 49.891028 
L 381.611675 50.515291 
L 383.553389 47.677735 
L 384.524246 47.507481 
L 385.495103 46.599463 
L 388.407674 46.031952 
L 389.378531 46.145455 
L 390.349387 43.932161 
L 391.320244 44.840179 
L 392.291101 43.591654 
L 393.261958 42.683636 
L 394.232815 43.421401 
L 395.203672 42.116125 
L 396.174529 38.767809 
L 397.145386 37.29228 
L 398.116243 36.327511 
L 399.087099 36.668018 
L 400.057956 36.27076 
L 401.028813 36.043756 
L 401.99967 35.362742 
L 402.970527 35.192489 
L 403.941384 34.851982 
L 404.912241 36.214009 
L 405.883098 34.73848 
L 406.853955 34.511475 
L 407.824812 34.681729 
L 408.795668 35.305991 
L 409.766525 34.22772 
L 410.737382 33.376453 
L 411.708239 33.2062 
L 412.679096 32.69544 
L 413.649953 31.219911 
L 414.62081 32.752191 
L 415.591667 33.262951 
L 416.562524 32.127928 
L 417.53338 32.638689 
L 418.504237 32.014426 
L 419.475094 32.525186 
L 420.445951 31.333413 
L 422.387665 30.652399 
L 423.358522 30.709151 
L 424.329379 28.779613 
L 425.300236 29.063368 
L 426.271093 29.744382 
L 427.241949 29.630879 
L 428.212806 28.949866 
L 429.183663 30.482146 
L 430.15452 30.652399 
L 434.037948 26.62307 
L 435.008805 26.736572 
L 435.979661 27.020328 
L 436.950518 27.13383 
L 437.921375 25.147541 
L 438.892232 25.374545 
L 439.863089 24.239523 
L 441.804803 25.374545 
L 442.77566 24.636781 
L 443.746517 22.990999 
L 444.717374 23.615261 
L 445.68823 22.877496 
L 446.659087 23.55851 
L 447.629944 22.707243 
L 448.600801 21.685723 
L 449.571658 22.480238 
L 450.542515 23.842265 
L 451.513372 22.423487 
L 452.484229 22.650492 
L 453.455086 21.969478 
L 454.425942 22.650492 
L 455.396799 21.174963 
L 456.367656 20.777705 
L 457.338513 19.642683 
L 458.30937 19.812936 
L 460.251084 18.848167 
L 461.221941 18.961669 
L 462.192798 18.110402 
L 463.163655 18.223905 
L 464.134511 19.302176 
L 465.105368 15.329598 
L 466.076225 15.95386 
L 467.047082 14.989091 
L 469.959653 15.95386 
L 470.93051 16.634873 
L 471.901367 16.124113 
L 472.872223 16.237615 
L 473.84308 15.670104 
L 474.813937 15.726855 
L 475.784794 16.46462 
L 476.755651 17.940149 
L 477.726508 17.9969 
L 478.697365 18.450909 
L 479.668222 18.223905 
L 479.668222 18.223905 
" clip-path="url(#p9b97544dfb)" style="fill: none; stroke: #1f77b4; stroke-width: 1.5; stroke-linecap: square"/>
   </g>
   <g id="line2d_29">
    <path d="M 73.85004 170.3169 
L 74.820897 170.770909 
L 76.762611 170.430402 
L 77.733467 169.579136 
L 78.704324 169.465633 
L 79.675181 169.011624 
L 80.646038 168.727869 
L 81.616895 169.29538 
L 84.529466 168.330611 
L 85.500323 168.500864 
L 86.47118 167.933353 
L 87.442036 167.990104 
L 88.412893 167.479344 
L 93.267178 167.479344 
L 94.238035 167.706349 
L 95.208892 167.649598 
L 96.179748 167.479344 
L 97.150605 167.819851 
L 98.121462 167.649598 
L 99.092319 167.025335 
L 100.063176 166.628077 
L 101.034033 167.195589 
L 102.00489 167.025335 
L 102.975747 166.628077 
L 103.946604 166.571326 
L 104.917461 166.855082 
L 106.859174 166.174069 
L 107.830031 166.514575 
L 109.771745 166.457824 
L 110.742602 166.855082 
L 111.713459 166.514575 
L 112.684316 165.890313 
L 115.596886 166.23082 
L 116.567743 165.947064 
L 117.5386 165.833562 
L 119.480314 166.060566 
L 120.451171 165.436304 
L 121.422028 165.947064 
L 122.392885 165.436304 
L 123.363742 165.493055 
L 124.334598 165.72006 
L 125.305455 165.322802 
L 127.247169 164.925544 
L 129.188883 165.663308 
L 130.15974 164.925544 
L 131.130597 164.641788 
L 132.101454 165.152548 
L 133.07231 164.641788 
L 134.043167 164.528286 
L 135.014024 164.585037 
L 135.984881 163.620268 
L 136.955738 164.244531 
L 137.926595 163.563517 
L 140.839166 163.620268 
L 143.751736 162.882504 
L 144.722593 163.052757 
L 148.606021 163.336513 
L 157.343733 161.69073 
L 158.31459 162.031237 
L 160.256303 161.860984 
L 161.22716 161.463726 
L 162.198017 161.463726 
L 164.139731 162.144739 
L 165.110588 161.633979 
L 166.081445 162.371744 
L 167.052302 161.633979 
L 168.023159 161.17997 
L 168.994016 161.463726 
L 170.935729 161.406975 
L 171.906586 161.293472 
L 172.877443 161.520477 
L 173.8483 160.952966 
L 175.790014 161.009717 
L 176.760871 160.839463 
L 177.731728 161.633979 
L 178.702584 161.577228 
L 179.673441 161.406975 
L 180.644298 160.555708 
L 181.615155 160.896215 
L 182.586012 160.725961 
L 183.556869 161.633979 
L 184.527726 160.952966 
L 185.498583 161.350224 
L 186.46944 160.498957 
L 187.440297 160.101699 
L 188.411153 160.044948 
L 189.38201 159.761192 
L 190.352867 159.080179 
L 191.323724 160.328703 
L 192.294581 160.044948 
L 194.236295 159.193681 
L 195.207152 159.420686 
L 197.148865 158.796423 
L 198.119722 158.966677 
L 210.740862 158.399165 
L 211.711719 157.718152 
L 212.682576 158.001908 
L 213.653433 157.377645 
L 214.62429 157.434396 
L 215.595146 157.264143 
L 217.53686 157.945156 
L 218.507717 157.60465 
L 219.478574 157.718152 
L 220.449431 157.547899 
L 222.391145 156.753383 
L 223.362002 156.866885 
L 226.274572 156.866885 
L 227.245429 157.207392 
L 228.216286 156.412876 
L 229.187143 156.07237 
L 230.158 156.015618 
L 231.128857 156.185872 
L 232.099714 156.58313 
L 233.070571 156.299374 
L 234.041427 156.412876 
L 236.953998 155.334605 
L 237.924855 155.675112 
L 238.895712 155.788614 
L 239.866569 155.448107 
L 240.837426 154.937347 
L 241.808283 154.767094 
L 245.69171 155.050849 
L 246.662567 154.767094 
L 247.633424 154.142832 
L 248.604281 153.972578 
L 249.575138 153.518569 
L 250.545995 153.57532 
L 251.516852 153.291565 
L 252.487708 153.291565 
L 254.429422 152.610551 
L 255.400279 152.724054 
L 256.371136 152.440298 
L 257.341993 152.497049 
L 258.31285 152.951058 
L 259.283707 152.724054 
L 260.254564 152.326796 
L 261.22542 152.610551 
L 262.196277 152.497049 
L 263.167134 152.724054 
L 264.137991 152.383547 
L 265.108848 152.270045 
L 266.079705 152.837556 
L 267.050562 152.5538 
L 268.021419 152.894307 
L 268.992276 152.440298 
L 269.963133 152.5538 
L 271.904846 152.213294 
L 272.875703 151.589031 
L 273.84656 151.816036 
L 274.817417 152.270045 
L 275.788274 151.986289 
L 276.759131 151.418778 
L 277.729988 151.02152 
L 278.700845 151.305276 
L 279.671701 151.816036 
L 280.642558 151.872787 
L 281.613415 151.418778 
L 282.584272 150.737765 
L 283.555129 150.851267 
L 284.525986 150.454009 
L 285.496843 150.567511 
L 286.4677 150.567511 
L 287.438557 149.829747 
L 289.38027 150.056751 
L 290.351127 149.48924 
L 291.321984 149.602742 
L 293.263698 148.97848 
L 294.234555 148.921729 
L 296.176269 146.821937 
L 299.088839 148.070462 
L 301.030553 148.46772 
L 304.913981 147.559702 
L 305.884838 147.673204 
L 333.068831 142.168346 
L 334.039688 143.189866 
L 335.010544 142.622355 
L 335.981401 142.281848 
L 336.952258 142.338599 
L 337.923115 141.317079 
L 338.893972 141.37383 
L 339.864829 141.260328 
L 340.835686 141.657586 
L 341.806543 141.090075 
L 342.7774 140.749568 
L 343.748257 140.919821 
L 345.68997 140.238808 
L 346.660827 140.35231 
L 347.631684 140.636066 
L 348.602541 140.409061 
L 350.544255 140.238808 
L 368.019679 140.806319 
L 368.990536 140.409061 
L 371.903106 139.557794 
L 372.873963 140.125306 
L 373.84482 140.182057 
L 374.815677 139.955052 
L 375.786534 140.011803 
L 376.757391 139.614545 
L 377.728248 138.990283 
L 378.699105 139.047034 
L 379.669962 138.195768 
L 380.640818 138.366021 
L 381.611675 139.047034 
L 382.582532 138.706528 
L 383.553389 137.628256 
L 384.524246 137.28775 
L 385.495103 137.174247 
L 388.407674 136.322981 
L 389.378531 136.493234 
L 390.349387 135.641967 
L 391.320244 136.322981 
L 392.291101 135.528465 
L 394.232815 135.131207 
L 395.203672 135.244709 
L 396.174529 134.620447 
L 397.145386 134.27994 
L 399.087099 134.052936 
L 400.057956 133.315171 
L 401.028813 133.712429 
L 402.970527 133.088167 
L 403.941384 133.25842 
L 404.912241 133.712429 
L 405.883098 132.634158 
L 406.853955 131.782891 
L 408.795668 132.917914 
L 409.766525 132.2369 
L 410.737382 132.009896 
L 411.708239 131.953145 
L 412.679096 131.72614 
L 413.649953 131.272131 
L 414.62081 132.634158 
L 415.591667 132.293651 
L 416.562524 131.669389 
L 417.53338 131.555887 
L 419.475094 131.72614 
L 420.445951 130.874873 
L 421.416808 130.647869 
L 423.358522 131.158629 
L 424.329379 130.080358 
L 425.300236 129.853353 
L 427.241949 130.307362 
L 428.212806 129.569598 
L 429.183663 130.477615 
L 430.15452 130.307362 
L 431.125377 129.910104 
L 434.037948 128.945335 
L 435.008805 128.831833 
L 435.979661 129.229091 
L 436.950518 129.058838 
L 437.921375 127.696811 
L 438.892232 127.753562 
L 439.863089 127.413055 
L 440.833946 127.413055 
L 441.804803 127.64006 
L 442.77566 127.583308 
L 443.746517 126.278033 
L 444.717374 126.788793 
L 445.68823 126.221282 
L 446.659087 126.675291 
L 447.629944 125.880775 
L 448.600801 125.256513 
L 450.542515 126.164531 
L 451.513372 125.256513 
L 452.484229 125.313264 
L 453.455086 125.256513 
L 454.425942 125.65377 
L 455.396799 124.859255 
L 456.367656 125.313264 
L 457.338513 124.291744 
L 458.30937 123.724232 
L 460.251084 123.156721 
L 461.221941 123.326975 
L 462.192798 122.759463 
L 464.134511 123.043219 
L 465.105368 122.248703 
L 466.076225 122.475708 
L 467.047082 122.021699 
L 470.93051 123.043219 
L 471.901367 121.908197 
L 472.872223 122.58921 
L 473.84308 122.305455 
L 474.813937 122.191952 
L 475.784794 122.191952 
L 476.755651 123.213472 
L 479.668222 122.475708 
L 479.668222 122.475708 
" clip-path="url(#p9b97544dfb)" style="fill: none; stroke: #ff7f0e; stroke-width: 1.5; stroke-linecap: square"/>
   </g>
   <g id="patch_3">
    <path d="M 53.559131 178.56 
L 53.559131 7.2 
" style="fill: none; stroke: #000000; stroke-width: 0.8; stroke-linejoin: miter; stroke-linecap: square"/>
   </g>
   <g id="patch_4">
    <path d="M 499.959131 178.56 
L 499.959131 7.2 
" style="fill: none; stroke: #000000; stroke-width: 0.8; stroke-linejoin: miter; stroke-linecap: square"/>
   </g>
   <g id="patch_5">
    <path d="M 53.559131 178.56 
L 499.959131 178.56 
" style="fill: none; stroke: #000000; stroke-width: 0.8; stroke-linejoin: miter; stroke-linecap: square"/>
   </g>
   <g id="patch_6">
    <path d="M 53.559131 7.2 
L 499.959131 7.2 
" style="fill: none; stroke: #000000; stroke-width: 0.8; stroke-linejoin: miter; stroke-linecap: square"/>
   </g>
   <g id="legend_1">
    <g id="patch_7">
     <path d="M 60.559131 44.55625 
L 175.023193 44.55625 
Q 177.023193 44.55625 177.023193 42.55625 
L 177.023193 14.2 
Q 177.023193 12.2 175.023193 12.2 
L 60.559131 12.2 
Q 58.559131 12.2 58.559131 14.2 
L 58.559131 42.55625 
Q 58.559131 44.55625 60.559131 44.55625 
z
" style="fill: #ffffff; opacity: 0.8; stroke: #cccccc; stroke-linejoin: miter"/>
    </g>
    <g id="line2d_30">
     <path d="M 62.559131 20.298438 
L 72.559131 20.298438 
L 82.559131 20.298438 
" style="fill: none; stroke: #1f77b4; stroke-width: 1.5; stroke-linecap: square"/>
    </g>
    <g id="text_23">
     <!-- Unique Domains -->
     <g transform="translate(90.559131 23.798438)scale(0.1 -0.1)">
      <defs>
       <path id="DejaVuSans-55" d="M 556 4666 
L 1191 4666 
L 1191 1831 
Q 1191 1081 1462 751 
Q 1734 422 2344 422 
Q 2950 422 3222 751 
Q 3494 1081 3494 1831 
L 3494 4666 
L 4128 4666 
L 4128 1753 
Q 4128 841 3676 375 
Q 3225 -91 2344 -91 
Q 1459 -91 1007 375 
Q 556 841 556 1753 
L 556 4666 
z
" transform="scale(0.015625)"/>
       <path id="DejaVuSans-71" d="M 947 1747 
Q 947 1113 1208 752 
Q 1469 391 1925 391 
Q 2381 391 2643 752 
Q 2906 1113 2906 1747 
Q 2906 2381 2643 2742 
Q 2381 3103 1925 3103 
Q 1469 3103 1208 2742 
Q 947 2381 947 1747 
z
M 2906 525 
Q 2725 213 2448 61 
Q 2172 -91 1784 -91 
Q 1150 -91 751 415 
Q 353 922 353 1747 
Q 353 2572 751 3078 
Q 1150 3584 1784 3584 
Q 2172 3584 2448 3432 
Q 2725 3281 2906 2969 
L 2906 3500 
L 3481 3500 
L 3481 -1331 
L 2906 -1331 
L 2906 525 
z
" transform="scale(0.015625)"/>
      </defs>
      <use xlink:href="#DejaVuSans-55"/>
      <use xlink:href="#DejaVuSans-6e" x="73.193359"/>
      <use xlink:href="#DejaVuSans-69" x="136.572266"/>
      <use xlink:href="#DejaVuSans-71" x="164.355469"/>
      <use xlink:href="#DejaVuSans-75" x="227.832031"/>
      <use xlink:href="#DejaVuSans-65" x="291.210938"/>
      <use xlink:href="#DejaVuSans-20" x="352.734375"/>
      <use xlink:href="#DejaVuSans-44" x="384.521484"/>
      <use xlink:href="#DejaVuSans-6f" x="461.523438"/>
      <use xlink:href="#DejaVuSans-6d" x="522.705078"/>
      <use xlink:href="#DejaVuSans-61" x="620.117188"/>
      <use xlink:href="#DejaVuSans-69" x="681.396484"/>
      <use xlink:href="#DejaVuSans-6e" x="709.179688"/>
      <use xlink:href="#DejaVuSans-73" x="772.558594"/>
     </g>
    </g>
    <g id="line2d_31">
     <path d="M 62.559131 34.976562 
L 72.559131 34.976562 
L 82.559131 34.976562 
" style="fill: none; stroke: #ff7f0e; stroke-width: 1.5; stroke-linecap: square"/>
    </g>
    <g id="text_24">
     <!-- Unique Files -->
     <g transform="translate(90.559131 38.476562)scale(0.1 -0.1)">
      <use xlink:href="#DejaVuSans-55"/>
      <use xlink:href="#DejaVuSans-6e" x="73.193359"/>
      <use xlink:href="#DejaVuSans-69" x="136.572266"/>
      <use xlink:href="#DejaVuSans-71" x="164.355469"/>
      <use xlink:href="#DejaVuSans-75" x="227.832031"/>
      <use xlink:href="#DejaVuSans-65" x="291.210938"/>
      <use xlink:href="#DejaVuSans-20" x="352.734375"/>
      <use xlink:href="#DejaVuSans-46" x="384.521484"/>
      <use xlink:href="#DejaVuSans-69" x="434.791016"/>
      <use xlink:href="#DejaVuSans-6c" x="462.574219"/>
      <use xlink:href="#DejaVuSans-65" x="490.357422"/>
      <use xlink:href="#DejaVuSans-73" x="551.880859"/>
     </g>
    </g>
   </g>
  </g>
 </g>
 <defs>
  <clipPath id="p9b97544dfb">
   <rect x="53.559131" y="7.2" width="446.4" height="171.36"/>
  </clipPath>
 </defs>
</svg>
