<?xml version="1.0" encoding="utf-8" standalone="no"?>
<!DOCTYPE svg PUBLIC "-//W3C//DTD SVG 1.1//EN"
  "http://www.w3.org/Graphics/SVG/1.1/DTD/svg11.dtd">
<svg xmlns:xlink="http://www.w3.org/1999/xlink" width="507.159131pt" height="234.086815pt" viewBox="0 0 507.159131 234.086815" xmlns="http://www.w3.org/2000/svg" version="1.1">
 <metadata>
  <rdf:RDF xmlns:dc="http://purl.org/dc/elements/1.1/" xmlns:cc="http://creativecommons.org/ns#" xmlns:rdf="http://www.w3.org/1999/02/22-rdf-syntax-ns#">
   <cc:Work>
    <dc:type rdf:resource="http://purl.org/dc/dcmitype/StillImage"/>
    <dc:date>2022-02-05T16:51:59.599780</dc:date>
    <dc:format>image/svg+xml</dc:format>
    <dc:creator>
     <cc:Agent>
      <dc:title>Matplotlib v3.5.1, https://matplotlib.org/</dc:title>
     </cc:Agent>
    </dc:creator>
   </cc:Work>
  </rdf:RDF>
 </metadata>
 <defs>
  <style type="text/css">*{stroke-linejoin: round; stroke-linecap: butt}</style>
 </defs>
 <g id="figure_1">
  <g id="patch_1">
   <path d="M 0 234.086815 
L 507.159131 234.086815 
L 507.159131 0 
L 0 0 
z
" style="fill: #ffffff"/>
  </g>
  <g id="axes_1">
   <g id="patch_2">
    <path d="M 53.559131 178.56 
L 499.959131 178.56 
L 499.959131 7.2 
L 53.559131 7.2 
z
" style="fill: #ffffff"/>
   </g>
   <g id="matplotlib.axis_1">
    <g id="xtick_1">
     <g id="line2d_1">
      <defs>
       <path id="mbb6b75baab" d="M 0 0 
L 0 3.5 
" style="stroke: #000000; stroke-width: 0.8"/>
      </defs>
      <g>
       <use xlink:href="#mbb6b75baab" x="68.024899" y="178.56" style="stroke: #000000; stroke-width: 0.8"/>
      </g>
     </g>
     <g id="text_1">
      <!-- 2020-Nov-01 -->
      <g transform="translate(10.999219 224.463877)rotate(-30)scale(0.1 -0.1)">
       <defs>
        <path id="DejaVuSans-32" d="M 1228 531 
L 3431 531 
L 3431 0 
L 469 0 
L 469 531 
Q 828 903 1448 1529 
Q 2069 2156 2228 2338 
Q 2531 2678 2651 2914 
Q 2772 3150 2772 3378 
Q 2772 3750 2511 3984 
Q 2250 4219 1831 4219 
Q 1534 4219 1204 4116 
Q 875 4013 500 3803 
L 500 4441 
Q 881 4594 1212 4672 
Q 1544 4750 1819 4750 
Q 2544 4750 2975 4387 
Q 3406 4025 3406 3419 
Q 3406 3131 3298 2873 
Q 3191 2616 2906 2266 
Q 2828 2175 2409 1742 
Q 1991 1309 1228 531 
z
" transform="scale(0.015625)"/>
        <path id="DejaVuSans-30" d="M 2034 4250 
Q 1547 4250 1301 3770 
Q 1056 3291 1056 2328 
Q 1056 1369 1301 889 
Q 1547 409 2034 409 
Q 2525 409 2770 889 
Q 3016 1369 3016 2328 
Q 3016 3291 2770 3770 
Q 2525 4250 2034 4250 
z
M 2034 4750 
Q 2819 4750 3233 4129 
Q 3647 3509 3647 2328 
Q 3647 1150 3233 529 
Q 2819 -91 2034 -91 
Q 1250 -91 836 529 
Q 422 1150 422 2328 
Q 422 3509 836 4129 
Q 1250 4750 2034 4750 
z
" transform="scale(0.015625)"/>
        <path id="DejaVuSans-2d" d="M 313 2009 
L 1997 2009 
L 1997 1497 
L 313 1497 
L 313 2009 
z
" transform="scale(0.015625)"/>
        <path id="DejaVuSans-4e" d="M 628 4666 
L 1478 4666 
L 3547 763 
L 3547 4666 
L 4159 4666 
L 4159 0 
L 3309 0 
L 1241 3903 
L 1241 0 
L 628 0 
L 628 4666 
z
" transform="scale(0.015625)"/>
        <path id="DejaVuSans-6f" d="M 1959 3097 
Q 1497 3097 1228 2736 
Q 959 2375 959 1747 
Q 959 1119 1226 758 
Q 1494 397 1959 397 
Q 2419 397 2687 759 
Q 2956 1122 2956 1747 
Q 2956 2369 2687 2733 
Q 2419 3097 1959 3097 
z
M 1959 3584 
Q 2709 3584 3137 3096 
Q 3566 2609 3566 1747 
Q 3566 888 3137 398 
Q 2709 -91 1959 -91 
Q 1206 -91 779 398 
Q 353 888 353 1747 
Q 353 2609 779 3096 
Q 1206 3584 1959 3584 
z
" transform="scale(0.015625)"/>
        <path id="DejaVuSans-76" d="M 191 3500 
L 800 3500 
L 1894 563 
L 2988 3500 
L 3597 3500 
L 2284 0 
L 1503 0 
L 191 3500 
z
" transform="scale(0.015625)"/>
        <path id="DejaVuSans-31" d="M 794 531 
L 1825 531 
L 1825 4091 
L 703 3866 
L 703 4441 
L 1819 4666 
L 2450 4666 
L 2450 531 
L 3481 531 
L 3481 0 
L 794 0 
L 794 531 
z
" transform="scale(0.015625)"/>
       </defs>
       <use xlink:href="#DejaVuSans-32"/>
       <use xlink:href="#DejaVuSans-30" x="63.623047"/>
       <use xlink:href="#DejaVuSans-32" x="127.246094"/>
       <use xlink:href="#DejaVuSans-30" x="190.869141"/>
       <use xlink:href="#DejaVuSans-2d" x="254.492188"/>
       <use xlink:href="#DejaVuSans-4e" x="290.576172"/>
       <use xlink:href="#DejaVuSans-6f" x="365.380859"/>
       <use xlink:href="#DejaVuSans-76" x="426.5625"/>
       <use xlink:href="#DejaVuSans-2d" x="483.117188"/>
       <use xlink:href="#DejaVuSans-30" x="519.201172"/>
       <use xlink:href="#DejaVuSans-31" x="582.824219"/>
      </g>
     </g>
    </g>
    <g id="xtick_2">
     <g id="line2d_2">
      <g>
       <use xlink:href="#mbb6b75baab" x="97.150605" y="178.56" style="stroke: #000000; stroke-width: 0.8"/>
      </g>
     </g>
     <g id="text_2">
      <!-- 2020-Dec-01 -->
      <g transform="translate(40.042383 224.511534)rotate(-30)scale(0.1 -0.1)">
       <defs>
        <path id="DejaVuSans-44" d="M 1259 4147 
L 1259 519 
L 2022 519 
Q 2988 519 3436 956 
Q 3884 1394 3884 2338 
Q 3884 3275 3436 3711 
Q 2988 4147 2022 4147 
L 1259 4147 
z
M 628 4666 
L 1925 4666 
Q 3281 4666 3915 4102 
Q 4550 3538 4550 2338 
Q 4550 1131 3912 565 
Q 3275 0 1925 0 
L 628 0 
L 628 4666 
z
" transform="scale(0.015625)"/>
        <path id="DejaVuSans-65" d="M 3597 1894 
L 3597 1613 
L 953 1613 
Q 991 1019 1311 708 
Q 1631 397 2203 397 
Q 2534 397 2845 478 
Q 3156 559 3463 722 
L 3463 178 
Q 3153 47 2828 -22 
Q 2503 -91 2169 -91 
Q 1331 -91 842 396 
Q 353 884 353 1716 
Q 353 2575 817 3079 
Q 1281 3584 2069 3584 
Q 2775 3584 3186 3129 
Q 3597 2675 3597 1894 
z
M 3022 2063 
Q 3016 2534 2758 2815 
Q 2500 3097 2075 3097 
Q 1594 3097 1305 2825 
Q 1016 2553 972 2059 
L 3022 2063 
z
" transform="scale(0.015625)"/>
        <path id="DejaVuSans-63" d="M 3122 3366 
L 3122 2828 
Q 2878 2963 2633 3030 
Q 2388 3097 2138 3097 
Q 1578 3097 1268 2742 
Q 959 2388 959 1747 
Q 959 1106 1268 751 
Q 1578 397 2138 397 
Q 2388 397 2633 464 
Q 2878 531 3122 666 
L 3122 134 
Q 2881 22 2623 -34 
Q 2366 -91 2075 -91 
Q 1284 -91 818 406 
Q 353 903 353 1747 
Q 353 2603 823 3093 
Q 1294 3584 2113 3584 
Q 2378 3584 2631 3529 
Q 2884 3475 3122 3366 
z
" transform="scale(0.015625)"/>
       </defs>
       <use xlink:href="#DejaVuSans-32"/>
       <use xlink:href="#DejaVuSans-30" x="63.623047"/>
       <use xlink:href="#DejaVuSans-32" x="127.246094"/>
       <use xlink:href="#DejaVuSans-30" x="190.869141"/>
       <use xlink:href="#DejaVuSans-2d" x="254.492188"/>
       <use xlink:href="#DejaVuSans-44" x="290.576172"/>
       <use xlink:href="#DejaVuSans-65" x="367.578125"/>
       <use xlink:href="#DejaVuSans-63" x="429.101562"/>
       <use xlink:href="#DejaVuSans-2d" x="484.082031"/>
       <use xlink:href="#DejaVuSans-30" x="520.166016"/>
       <use xlink:href="#DejaVuSans-31" x="583.789062"/>
      </g>
     </g>
    </g>
    <g id="xtick_3">
     <g id="line2d_3">
      <g>
       <use xlink:href="#mbb6b75baab" x="127.247169" y="178.56" style="stroke: #000000; stroke-width: 0.8"/>
      </g>
     </g>
     <g id="text_3">
      <!-- 2021-Jan-01 -->
      <g transform="translate(73.060429 222.824815)rotate(-30)scale(0.1 -0.1)">
       <defs>
        <path id="DejaVuSans-4a" d="M 628 4666 
L 1259 4666 
L 1259 325 
Q 1259 -519 939 -900 
Q 619 -1281 -91 -1281 
L -331 -1281 
L -331 -750 
L -134 -750 
Q 284 -750 456 -515 
Q 628 -281 628 325 
L 628 4666 
z
" transform="scale(0.015625)"/>
        <path id="DejaVuSans-61" d="M 2194 1759 
Q 1497 1759 1228 1600 
Q 959 1441 959 1056 
Q 959 750 1161 570 
Q 1363 391 1709 391 
Q 2188 391 2477 730 
Q 2766 1069 2766 1631 
L 2766 1759 
L 2194 1759 
z
M 3341 1997 
L 3341 0 
L 2766 0 
L 2766 531 
Q 2569 213 2275 61 
Q 1981 -91 1556 -91 
Q 1019 -91 701 211 
Q 384 513 384 1019 
Q 384 1609 779 1909 
Q 1175 2209 1959 2209 
L 2766 2209 
L 2766 2266 
Q 2766 2663 2505 2880 
Q 2244 3097 1772 3097 
Q 1472 3097 1187 3025 
Q 903 2953 641 2809 
L 641 3341 
Q 956 3463 1253 3523 
Q 1550 3584 1831 3584 
Q 2591 3584 2966 3190 
Q 3341 2797 3341 1997 
z
" transform="scale(0.015625)"/>
        <path id="DejaVuSans-6e" d="M 3513 2113 
L 3513 0 
L 2938 0 
L 2938 2094 
Q 2938 2591 2744 2837 
Q 2550 3084 2163 3084 
Q 1697 3084 1428 2787 
Q 1159 2491 1159 1978 
L 1159 0 
L 581 0 
L 581 3500 
L 1159 3500 
L 1159 2956 
Q 1366 3272 1645 3428 
Q 1925 3584 2291 3584 
Q 2894 3584 3203 3211 
Q 3513 2838 3513 2113 
z
" transform="scale(0.015625)"/>
       </defs>
       <use xlink:href="#DejaVuSans-32"/>
       <use xlink:href="#DejaVuSans-30" x="63.623047"/>
       <use xlink:href="#DejaVuSans-32" x="127.246094"/>
       <use xlink:href="#DejaVuSans-31" x="190.869141"/>
       <use xlink:href="#DejaVuSans-2d" x="254.492188"/>
       <use xlink:href="#DejaVuSans-4a" x="296.201172"/>
       <use xlink:href="#DejaVuSans-61" x="325.693359"/>
       <use xlink:href="#DejaVuSans-6e" x="386.972656"/>
       <use xlink:href="#DejaVuSans-2d" x="450.351562"/>
       <use xlink:href="#DejaVuSans-30" x="486.435547"/>
       <use xlink:href="#DejaVuSans-31" x="550.058594"/>
      </g>
     </g>
    </g>
    <g id="xtick_4">
     <g id="line2d_4">
      <g>
       <use xlink:href="#mbb6b75baab" x="157.343733" y="178.56" style="stroke: #000000; stroke-width: 0.8"/>
      </g>
     </g>
     <g id="text_4">
      <!-- 2021-Feb-01 -->
      <g transform="translate(101.663099 223.687315)rotate(-30)scale(0.1 -0.1)">
       <defs>
        <path id="DejaVuSans-46" d="M 628 4666 
L 3309 4666 
L 3309 4134 
L 1259 4134 
L 1259 2759 
L 3109 2759 
L 3109 2228 
L 1259 2228 
L 1259 0 
L 628 0 
L 628 4666 
z
" transform="scale(0.015625)"/>
        <path id="DejaVuSans-62" d="M 3116 1747 
Q 3116 2381 2855 2742 
Q 2594 3103 2138 3103 
Q 1681 3103 1420 2742 
Q 1159 2381 1159 1747 
Q 1159 1113 1420 752 
Q 1681 391 2138 391 
Q 2594 391 2855 752 
Q 3116 1113 3116 1747 
z
M 1159 2969 
Q 1341 3281 1617 3432 
Q 1894 3584 2278 3584 
Q 2916 3584 3314 3078 
Q 3713 2572 3713 1747 
Q 3713 922 3314 415 
Q 2916 -91 2278 -91 
Q 1894 -91 1617 61 
Q 1341 213 1159 525 
L 1159 0 
L 581 0 
L 581 4863 
L 1159 4863 
L 1159 2969 
z
" transform="scale(0.015625)"/>
       </defs>
       <use xlink:href="#DejaVuSans-32"/>
       <use xlink:href="#DejaVuSans-30" x="63.623047"/>
       <use xlink:href="#DejaVuSans-32" x="127.246094"/>
       <use xlink:href="#DejaVuSans-31" x="190.869141"/>
       <use xlink:href="#DejaVuSans-2d" x="254.492188"/>
       <use xlink:href="#DejaVuSans-46" x="290.576172"/>
       <use xlink:href="#DejaVuSans-65" x="342.595703"/>
       <use xlink:href="#DejaVuSans-62" x="404.119141"/>
       <use xlink:href="#DejaVuSans-2d" x="467.595703"/>
       <use xlink:href="#DejaVuSans-30" x="503.679688"/>
       <use xlink:href="#DejaVuSans-31" x="567.302734"/>
      </g>
     </g>
    </g>
    <g id="xtick_5">
     <g id="line2d_5">
      <g>
       <use xlink:href="#mbb6b75baab" x="184.527726" y="178.56" style="stroke: #000000; stroke-width: 0.8"/>
      </g>
     </g>
     <g id="text_5">
      <!-- 2021-Mar-01 -->
      <g transform="translate(128.391075 223.950596)rotate(-30)scale(0.1 -0.1)">
       <defs>
        <path id="DejaVuSans-4d" d="M 628 4666 
L 1569 4666 
L 2759 1491 
L 3956 4666 
L 4897 4666 
L 4897 0 
L 4281 0 
L 4281 4097 
L 3078 897 
L 2444 897 
L 1241 4097 
L 1241 0 
L 628 0 
L 628 4666 
z
" transform="scale(0.015625)"/>
        <path id="DejaVuSans-72" d="M 2631 2963 
Q 2534 3019 2420 3045 
Q 2306 3072 2169 3072 
Q 1681 3072 1420 2755 
Q 1159 2438 1159 1844 
L 1159 0 
L 581 0 
L 581 3500 
L 1159 3500 
L 1159 2956 
Q 1341 3275 1631 3429 
Q 1922 3584 2338 3584 
Q 2397 3584 2469 3576 
Q 2541 3569 2628 3553 
L 2631 2963 
z
" transform="scale(0.015625)"/>
       </defs>
       <use xlink:href="#DejaVuSans-32"/>
       <use xlink:href="#DejaVuSans-30" x="63.623047"/>
       <use xlink:href="#DejaVuSans-32" x="127.246094"/>
       <use xlink:href="#DejaVuSans-31" x="190.869141"/>
       <use xlink:href="#DejaVuSans-2d" x="254.492188"/>
       <use xlink:href="#DejaVuSans-4d" x="290.576172"/>
       <use xlink:href="#DejaVuSans-61" x="376.855469"/>
       <use xlink:href="#DejaVuSans-72" x="438.134766"/>
       <use xlink:href="#DejaVuSans-2d" x="472.873047"/>
       <use xlink:href="#DejaVuSans-30" x="508.957031"/>
       <use xlink:href="#DejaVuSans-31" x="572.580078"/>
      </g>
     </g>
    </g>
    <g id="xtick_6">
     <g id="line2d_6">
      <g>
       <use xlink:href="#mbb6b75baab" x="214.62429" y="178.56" style="stroke: #000000; stroke-width: 0.8"/>
      </g>
     </g>
     <g id="text_6">
      <!-- 2021-Apr-01 -->
      <g transform="translate(160.039719 223.054502)rotate(-30)scale(0.1 -0.1)">
       <defs>
        <path id="DejaVuSans-41" d="M 2188 4044 
L 1331 1722 
L 3047 1722 
L 2188 4044 
z
M 1831 4666 
L 2547 4666 
L 4325 0 
L 3669 0 
L 3244 1197 
L 1141 1197 
L 716 0 
L 50 0 
L 1831 4666 
z
" transform="scale(0.015625)"/>
        <path id="DejaVuSans-70" d="M 1159 525 
L 1159 -1331 
L 581 -1331 
L 581 3500 
L 1159 3500 
L 1159 2969 
Q 1341 3281 1617 3432 
Q 1894 3584 2278 3584 
Q 2916 3584 3314 3078 
Q 3713 2572 3713 1747 
Q 3713 922 3314 415 
Q 2916 -91 2278 -91 
Q 1894 -91 1617 61 
Q 1341 213 1159 525 
z
M 3116 1747 
Q 3116 2381 2855 2742 
Q 2594 3103 2138 3103 
Q 1681 3103 1420 2742 
Q 1159 2381 1159 1747 
Q 1159 1113 1420 752 
Q 1681 391 2138 391 
Q 2594 391 2855 752 
Q 3116 1113 3116 1747 
z
" transform="scale(0.015625)"/>
       </defs>
       <use xlink:href="#DejaVuSans-32"/>
       <use xlink:href="#DejaVuSans-30" x="63.623047"/>
       <use xlink:href="#DejaVuSans-32" x="127.246094"/>
       <use xlink:href="#DejaVuSans-31" x="190.869141"/>
       <use xlink:href="#DejaVuSans-2d" x="254.492188"/>
       <use xlink:href="#DejaVuSans-41" x="288.326172"/>
       <use xlink:href="#DejaVuSans-70" x="356.734375"/>
       <use xlink:href="#DejaVuSans-72" x="420.210938"/>
       <use xlink:href="#DejaVuSans-2d" x="454.949219"/>
       <use xlink:href="#DejaVuSans-30" x="491.033203"/>
       <use xlink:href="#DejaVuSans-31" x="554.65625"/>
      </g>
     </g>
    </g>
    <g id="xtick_7">
     <g id="line2d_7">
      <g>
       <use xlink:href="#mbb6b75baab" x="243.749996" y="178.56" style="stroke: #000000; stroke-width: 0.8"/>
      </g>
     </g>
     <g id="text_7">
      <!-- 2021-May-01 -->
      <g transform="translate(185.647198 225.085752)rotate(-30)scale(0.1 -0.1)">
       <defs>
        <path id="DejaVuSans-79" d="M 2059 -325 
Q 1816 -950 1584 -1140 
Q 1353 -1331 966 -1331 
L 506 -1331 
L 506 -850 
L 844 -850 
Q 1081 -850 1212 -737 
Q 1344 -625 1503 -206 
L 1606 56 
L 191 3500 
L 800 3500 
L 1894 763 
L 2988 3500 
L 3597 3500 
L 2059 -325 
z
" transform="scale(0.015625)"/>
       </defs>
       <use xlink:href="#DejaVuSans-32"/>
       <use xlink:href="#DejaVuSans-30" x="63.623047"/>
       <use xlink:href="#DejaVuSans-32" x="127.246094"/>
       <use xlink:href="#DejaVuSans-31" x="190.869141"/>
       <use xlink:href="#DejaVuSans-2d" x="254.492188"/>
       <use xlink:href="#DejaVuSans-4d" x="290.576172"/>
       <use xlink:href="#DejaVuSans-61" x="376.855469"/>
       <use xlink:href="#DejaVuSans-79" x="438.134766"/>
       <use xlink:href="#DejaVuSans-2d" x="495.564453"/>
       <use xlink:href="#DejaVuSans-30" x="531.648438"/>
       <use xlink:href="#DejaVuSans-31" x="595.271484"/>
      </g>
     </g>
    </g>
    <g id="xtick_8">
     <g id="line2d_8">
      <g>
       <use xlink:href="#mbb6b75baab" x="273.84656" y="178.56" style="stroke: #000000; stroke-width: 0.8"/>
      </g>
     </g>
     <g id="text_8">
      <!-- 2021-Jun-01 -->
      <g transform="translate(219.478496 222.929502)rotate(-30)scale(0.1 -0.1)">
       <defs>
        <path id="DejaVuSans-75" d="M 544 1381 
L 544 3500 
L 1119 3500 
L 1119 1403 
Q 1119 906 1312 657 
Q 1506 409 1894 409 
Q 2359 409 2629 706 
Q 2900 1003 2900 1516 
L 2900 3500 
L 3475 3500 
L 3475 0 
L 2900 0 
L 2900 538 
Q 2691 219 2414 64 
Q 2138 -91 1772 -91 
Q 1169 -91 856 284 
Q 544 659 544 1381 
z
M 1991 3584 
L 1991 3584 
z
" transform="scale(0.015625)"/>
       </defs>
       <use xlink:href="#DejaVuSans-32"/>
       <use xlink:href="#DejaVuSans-30" x="63.623047"/>
       <use xlink:href="#DejaVuSans-32" x="127.246094"/>
       <use xlink:href="#DejaVuSans-31" x="190.869141"/>
       <use xlink:href="#DejaVuSans-2d" x="254.492188"/>
       <use xlink:href="#DejaVuSans-4a" x="296.201172"/>
       <use xlink:href="#DejaVuSans-75" x="325.693359"/>
       <use xlink:href="#DejaVuSans-6e" x="389.072266"/>
       <use xlink:href="#DejaVuSans-2d" x="452.451172"/>
       <use xlink:href="#DejaVuSans-30" x="488.535156"/>
       <use xlink:href="#DejaVuSans-31" x="552.158203"/>
      </g>
     </g>
    </g>
    <g id="xtick_9">
     <g id="line2d_9">
      <g>
       <use xlink:href="#mbb6b75baab" x="302.972267" y="178.56" style="stroke: #000000; stroke-width: 0.8"/>
      </g>
     </g>
     <g id="text_9">
      <!-- 2021-Jul-01 -->
      <g transform="translate(251.686712 221.149815)rotate(-30)scale(0.1 -0.1)">
       <defs>
        <path id="DejaVuSans-6c" d="M 603 4863 
L 1178 4863 
L 1178 0 
L 603 0 
L 603 4863 
z
" transform="scale(0.015625)"/>
       </defs>
       <use xlink:href="#DejaVuSans-32"/>
       <use xlink:href="#DejaVuSans-30" x="63.623047"/>
       <use xlink:href="#DejaVuSans-32" x="127.246094"/>
       <use xlink:href="#DejaVuSans-31" x="190.869141"/>
       <use xlink:href="#DejaVuSans-2d" x="254.492188"/>
       <use xlink:href="#DejaVuSans-4a" x="296.201172"/>
       <use xlink:href="#DejaVuSans-75" x="325.693359"/>
       <use xlink:href="#DejaVuSans-6c" x="389.072266"/>
       <use xlink:href="#DejaVuSans-2d" x="416.855469"/>
       <use xlink:href="#DejaVuSans-30" x="452.939453"/>
       <use xlink:href="#DejaVuSans-31" x="516.5625"/>
      </g>
     </g>
    </g>
    <g id="xtick_10">
     <g id="line2d_10">
      <g>
       <use xlink:href="#mbb6b75baab" x="333.068831" y="178.56" style="stroke: #000000; stroke-width: 0.8"/>
      </g>
     </g>
     <g id="text_10">
      <!-- 2021-Aug-01 -->
      <g transform="translate(276.003909 224.486534)rotate(-30)scale(0.1 -0.1)">
       <defs>
        <path id="DejaVuSans-67" d="M 2906 1791 
Q 2906 2416 2648 2759 
Q 2391 3103 1925 3103 
Q 1463 3103 1205 2759 
Q 947 2416 947 1791 
Q 947 1169 1205 825 
Q 1463 481 1925 481 
Q 2391 481 2648 825 
Q 2906 1169 2906 1791 
z
M 3481 434 
Q 3481 -459 3084 -895 
Q 2688 -1331 1869 -1331 
Q 1566 -1331 1297 -1286 
Q 1028 -1241 775 -1147 
L 775 -588 
Q 1028 -725 1275 -790 
Q 1522 -856 1778 -856 
Q 2344 -856 2625 -561 
Q 2906 -266 2906 331 
L 2906 616 
Q 2728 306 2450 153 
Q 2172 0 1784 0 
Q 1141 0 747 490 
Q 353 981 353 1791 
Q 353 2603 747 3093 
Q 1141 3584 1784 3584 
Q 2172 3584 2450 3431 
Q 2728 3278 2906 2969 
L 2906 3500 
L 3481 3500 
L 3481 434 
z
" transform="scale(0.015625)"/>
       </defs>
       <use xlink:href="#DejaVuSans-32"/>
       <use xlink:href="#DejaVuSans-30" x="63.623047"/>
       <use xlink:href="#DejaVuSans-32" x="127.246094"/>
       <use xlink:href="#DejaVuSans-31" x="190.869141"/>
       <use xlink:href="#DejaVuSans-2d" x="254.492188"/>
       <use xlink:href="#DejaVuSans-41" x="288.326172"/>
       <use xlink:href="#DejaVuSans-75" x="356.734375"/>
       <use xlink:href="#DejaVuSans-67" x="420.113281"/>
       <use xlink:href="#DejaVuSans-2d" x="483.589844"/>
       <use xlink:href="#DejaVuSans-30" x="519.673828"/>
       <use xlink:href="#DejaVuSans-31" x="583.296875"/>
      </g>
     </g>
    </g>
    <g id="xtick_11">
     <g id="line2d_11">
      <g>
       <use xlink:href="#mbb6b75baab" x="363.165394" y="178.56" style="stroke: #000000; stroke-width: 0.8"/>
      </g>
     </g>
     <g id="text_11">
      <!-- 2021-Sep-01 -->
      <g transform="translate(306.491537 224.260752)rotate(-30)scale(0.1 -0.1)">
       <defs>
        <path id="DejaVuSans-53" d="M 3425 4513 
L 3425 3897 
Q 3066 4069 2747 4153 
Q 2428 4238 2131 4238 
Q 1616 4238 1336 4038 
Q 1056 3838 1056 3469 
Q 1056 3159 1242 3001 
Q 1428 2844 1947 2747 
L 2328 2669 
Q 3034 2534 3370 2195 
Q 3706 1856 3706 1288 
Q 3706 609 3251 259 
Q 2797 -91 1919 -91 
Q 1588 -91 1214 -16 
Q 841 59 441 206 
L 441 856 
Q 825 641 1194 531 
Q 1563 422 1919 422 
Q 2459 422 2753 634 
Q 3047 847 3047 1241 
Q 3047 1584 2836 1778 
Q 2625 1972 2144 2069 
L 1759 2144 
Q 1053 2284 737 2584 
Q 422 2884 422 3419 
Q 422 4038 858 4394 
Q 1294 4750 2059 4750 
Q 2388 4750 2728 4690 
Q 3069 4631 3425 4513 
z
" transform="scale(0.015625)"/>
       </defs>
       <use xlink:href="#DejaVuSans-32"/>
       <use xlink:href="#DejaVuSans-30" x="63.623047"/>
       <use xlink:href="#DejaVuSans-32" x="127.246094"/>
       <use xlink:href="#DejaVuSans-31" x="190.869141"/>
       <use xlink:href="#DejaVuSans-2d" x="254.492188"/>
       <use xlink:href="#DejaVuSans-53" x="290.576172"/>
       <use xlink:href="#DejaVuSans-65" x="354.052734"/>
       <use xlink:href="#DejaVuSans-70" x="415.576172"/>
       <use xlink:href="#DejaVuSans-2d" x="479.052734"/>
       <use xlink:href="#DejaVuSans-30" x="515.136719"/>
       <use xlink:href="#DejaVuSans-31" x="578.759766"/>
      </g>
     </g>
    </g>
    <g id="xtick_12">
     <g id="line2d_12">
      <g>
       <use xlink:href="#mbb6b75baab" x="392.291101" y="178.56" style="stroke: #000000; stroke-width: 0.8"/>
      </g>
     </g>
     <g id="text_12">
      <!-- 2021-Oct-01 -->
      <g transform="translate(336.729546 223.618565)rotate(-30)scale(0.1 -0.1)">
       <defs>
        <path id="DejaVuSans-4f" d="M 2522 4238 
Q 1834 4238 1429 3725 
Q 1025 3213 1025 2328 
Q 1025 1447 1429 934 
Q 1834 422 2522 422 
Q 3209 422 3611 934 
Q 4013 1447 4013 2328 
Q 4013 3213 3611 3725 
Q 3209 4238 2522 4238 
z
M 2522 4750 
Q 3503 4750 4090 4092 
Q 4678 3434 4678 2328 
Q 4678 1225 4090 567 
Q 3503 -91 2522 -91 
Q 1538 -91 948 565 
Q 359 1222 359 2328 
Q 359 3434 948 4092 
Q 1538 4750 2522 4750 
z
" transform="scale(0.015625)"/>
        <path id="DejaVuSans-74" d="M 1172 4494 
L 1172 3500 
L 2356 3500 
L 2356 3053 
L 1172 3053 
L 1172 1153 
Q 1172 725 1289 603 
Q 1406 481 1766 481 
L 2356 481 
L 2356 0 
L 1766 0 
Q 1100 0 847 248 
Q 594 497 594 1153 
L 594 3053 
L 172 3053 
L 172 3500 
L 594 3500 
L 594 4494 
L 1172 4494 
z
" transform="scale(0.015625)"/>
       </defs>
       <use xlink:href="#DejaVuSans-32"/>
       <use xlink:href="#DejaVuSans-30" x="63.623047"/>
       <use xlink:href="#DejaVuSans-32" x="127.246094"/>
       <use xlink:href="#DejaVuSans-31" x="190.869141"/>
       <use xlink:href="#DejaVuSans-2d" x="254.492188"/>
       <use xlink:href="#DejaVuSans-4f" x="293.326172"/>
       <use xlink:href="#DejaVuSans-63" x="372.037109"/>
       <use xlink:href="#DejaVuSans-74" x="427.017578"/>
       <use xlink:href="#DejaVuSans-2d" x="466.226562"/>
       <use xlink:href="#DejaVuSans-30" x="502.310547"/>
       <use xlink:href="#DejaVuSans-31" x="565.933594"/>
      </g>
     </g>
    </g>
    <g id="xtick_13">
     <g id="line2d_13">
      <g>
       <use xlink:href="#mbb6b75baab" x="422.387665" y="178.56" style="stroke: #000000; stroke-width: 0.8"/>
      </g>
     </g>
     <g id="text_13">
      <!-- 2021-Nov-01 -->
      <g transform="translate(365.361985 224.463877)rotate(-30)scale(0.1 -0.1)">
       <use xlink:href="#DejaVuSans-32"/>
       <use xlink:href="#DejaVuSans-30" x="63.623047"/>
       <use xlink:href="#DejaVuSans-32" x="127.246094"/>
       <use xlink:href="#DejaVuSans-31" x="190.869141"/>
       <use xlink:href="#DejaVuSans-2d" x="254.492188"/>
       <use xlink:href="#DejaVuSans-4e" x="290.576172"/>
       <use xlink:href="#DejaVuSans-6f" x="365.380859"/>
       <use xlink:href="#DejaVuSans-76" x="426.5625"/>
       <use xlink:href="#DejaVuSans-2d" x="483.117188"/>
       <use xlink:href="#DejaVuSans-30" x="519.201172"/>
       <use xlink:href="#DejaVuSans-31" x="582.824219"/>
      </g>
     </g>
    </g>
    <g id="xtick_14">
     <g id="line2d_14">
      <g>
       <use xlink:href="#mbb6b75baab" x="451.513372" y="178.56" style="stroke: #000000; stroke-width: 0.8"/>
      </g>
     </g>
     <g id="text_14">
      <!-- 2021-Dec-01 -->
      <g transform="translate(394.405149 224.511534)rotate(-30)scale(0.1 -0.1)">
       <use xlink:href="#DejaVuSans-32"/>
       <use xlink:href="#DejaVuSans-30" x="63.623047"/>
       <use xlink:href="#DejaVuSans-32" x="127.246094"/>
       <use xlink:href="#DejaVuSans-31" x="190.869141"/>
       <use xlink:href="#DejaVuSans-2d" x="254.492188"/>
       <use xlink:href="#DejaVuSans-44" x="290.576172"/>
       <use xlink:href="#DejaVuSans-65" x="367.578125"/>
       <use xlink:href="#DejaVuSans-63" x="429.101562"/>
       <use xlink:href="#DejaVuSans-2d" x="484.082031"/>
       <use xlink:href="#DejaVuSans-30" x="520.166016"/>
       <use xlink:href="#DejaVuSans-31" x="583.789062"/>
      </g>
     </g>
    </g>
    <g id="xtick_15">
     <g id="line2d_15">
      <g>
       <use xlink:href="#mbb6b75baab" x="481.609935" y="178.56" style="stroke: #000000; stroke-width: 0.8"/>
      </g>
     </g>
     <g id="text_15">
      <!-- 2022-Jan-01 -->
      <g transform="translate(427.423195 222.824815)rotate(-30)scale(0.1 -0.1)">
       <use xlink:href="#DejaVuSans-32"/>
       <use xlink:href="#DejaVuSans-30" x="63.623047"/>
       <use xlink:href="#DejaVuSans-32" x="127.246094"/>
       <use xlink:href="#DejaVuSans-32" x="190.869141"/>
       <use xlink:href="#DejaVuSans-2d" x="254.492188"/>
       <use xlink:href="#DejaVuSans-4a" x="296.201172"/>
       <use xlink:href="#DejaVuSans-61" x="325.693359"/>
       <use xlink:href="#DejaVuSans-6e" x="386.972656"/>
       <use xlink:href="#DejaVuSans-2d" x="450.351562"/>
       <use xlink:href="#DejaVuSans-30" x="486.435547"/>
       <use xlink:href="#DejaVuSans-31" x="550.058594"/>
      </g>
     </g>
    </g>
   </g>
   <g id="matplotlib.axis_2">
    <g id="ytick_1">
     <g id="line2d_16">
      <path d="M 53.559131 145.117954 
L 499.959131 145.117954 
" clip-path="url(#p534ea89e9b)" style="fill: none; stroke: #b0b0b0; stroke-width: 0.8; stroke-linecap: square"/>
     </g>
     <g id="line2d_17">
      <defs>
       <path id="mc444b33108" d="M 0 0 
L -3.5 0 
" style="stroke: #000000; stroke-width: 0.8"/>
      </defs>
      <g>
       <use xlink:href="#mc444b33108" x="53.559131" y="145.117954" style="stroke: #000000; stroke-width: 0.8"/>
      </g>
     </g>
     <g id="text_16">
      <!-- 40 -->
      <g transform="translate(33.834131 148.917173)scale(0.1 -0.1)">
       <defs>
        <path id="DejaVuSans-34" d="M 2419 4116 
L 825 1625 
L 2419 1625 
L 2419 4116 
z
M 2253 4666 
L 3047 4666 
L 3047 1625 
L 3713 1625 
L 3713 1100 
L 3047 1100 
L 3047 0 
L 2419 0 
L 2419 1100 
L 313 1100 
L 313 1709 
L 2253 4666 
z
" transform="scale(0.015625)"/>
       </defs>
       <use xlink:href="#DejaVuSans-34"/>
       <use xlink:href="#DejaVuSans-30" x="63.623047"/>
      </g>
     </g>
    </g>
    <g id="ytick_2">
     <g id="line2d_18">
      <path d="M 53.559131 109.027189 
L 499.959131 109.027189 
" clip-path="url(#p534ea89e9b)" style="fill: none; stroke: #b0b0b0; stroke-width: 0.8; stroke-linecap: square"/>
     </g>
     <g id="line2d_19">
      <g>
       <use xlink:href="#mc444b33108" x="53.559131" y="109.027189" style="stroke: #000000; stroke-width: 0.8"/>
      </g>
     </g>
     <g id="text_17">
      <!-- 50 -->
      <g transform="translate(33.834131 112.826408)scale(0.1 -0.1)">
       <defs>
        <path id="DejaVuSans-35" d="M 691 4666 
L 3169 4666 
L 3169 4134 
L 1269 4134 
L 1269 2991 
Q 1406 3038 1543 3061 
Q 1681 3084 1819 3084 
Q 2600 3084 3056 2656 
Q 3513 2228 3513 1497 
Q 3513 744 3044 326 
Q 2575 -91 1722 -91 
Q 1428 -91 1123 -41 
Q 819 9 494 109 
L 494 744 
Q 775 591 1075 516 
Q 1375 441 1709 441 
Q 2250 441 2565 725 
Q 2881 1009 2881 1497 
Q 2881 1984 2565 2268 
Q 2250 2553 1709 2553 
Q 1456 2553 1204 2497 
Q 953 2441 691 2322 
L 691 4666 
z
" transform="scale(0.015625)"/>
       </defs>
       <use xlink:href="#DejaVuSans-35"/>
       <use xlink:href="#DejaVuSans-30" x="63.623047"/>
      </g>
     </g>
    </g>
    <g id="ytick_3">
     <g id="line2d_20">
      <path d="M 53.559131 72.936424 
L 499.959131 72.936424 
" clip-path="url(#p534ea89e9b)" style="fill: none; stroke: #b0b0b0; stroke-width: 0.8; stroke-linecap: square"/>
     </g>
     <g id="line2d_21">
      <g>
       <use xlink:href="#mc444b33108" x="53.559131" y="72.936424" style="stroke: #000000; stroke-width: 0.8"/>
      </g>
     </g>
     <g id="text_18">
      <!-- 60 -->
      <g transform="translate(33.834131 76.735642)scale(0.1 -0.1)">
       <defs>
        <path id="DejaVuSans-36" d="M 2113 2584 
Q 1688 2584 1439 2293 
Q 1191 2003 1191 1497 
Q 1191 994 1439 701 
Q 1688 409 2113 409 
Q 2538 409 2786 701 
Q 3034 994 3034 1497 
Q 3034 2003 2786 2293 
Q 2538 2584 2113 2584 
z
M 3366 4563 
L 3366 3988 
Q 3128 4100 2886 4159 
Q 2644 4219 2406 4219 
Q 1781 4219 1451 3797 
Q 1122 3375 1075 2522 
Q 1259 2794 1537 2939 
Q 1816 3084 2150 3084 
Q 2853 3084 3261 2657 
Q 3669 2231 3669 1497 
Q 3669 778 3244 343 
Q 2819 -91 2113 -91 
Q 1303 -91 875 529 
Q 447 1150 447 2328 
Q 447 3434 972 4092 
Q 1497 4750 2381 4750 
Q 2619 4750 2861 4703 
Q 3103 4656 3366 4563 
z
" transform="scale(0.015625)"/>
       </defs>
       <use xlink:href="#DejaVuSans-36"/>
       <use xlink:href="#DejaVuSans-30" x="63.623047"/>
      </g>
     </g>
    </g>
    <g id="ytick_4">
     <g id="line2d_22">
      <path d="M 53.559131 36.845658 
L 499.959131 36.845658 
" clip-path="url(#p534ea89e9b)" style="fill: none; stroke: #b0b0b0; stroke-width: 0.8; stroke-linecap: square"/>
     </g>
     <g id="line2d_23">
      <g>
       <use xlink:href="#mc444b33108" x="53.559131" y="36.845658" style="stroke: #000000; stroke-width: 0.8"/>
      </g>
     </g>
     <g id="text_19">
      <!-- 70 -->
      <g transform="translate(33.834131 40.644877)scale(0.1 -0.1)">
       <defs>
        <path id="DejaVuSans-37" d="M 525 4666 
L 3525 4666 
L 3525 4397 
L 1831 0 
L 1172 0 
L 2766 4134 
L 525 4134 
L 525 4666 
z
" transform="scale(0.015625)"/>
       </defs>
       <use xlink:href="#DejaVuSans-37"/>
       <use xlink:href="#DejaVuSans-30" x="63.623047"/>
      </g>
     </g>
    </g>
    <g id="text_20">
     <!-- Percentage Of Domains -->
     <g transform="translate(27.754443 151.883125)rotate(-90)scale(0.1 -0.1)">
      <defs>
       <path id="DejaVuSans-50" d="M 1259 4147 
L 1259 2394 
L 2053 2394 
Q 2494 2394 2734 2622 
Q 2975 2850 2975 3272 
Q 2975 3691 2734 3919 
Q 2494 4147 2053 4147 
L 1259 4147 
z
M 628 4666 
L 2053 4666 
Q 2838 4666 3239 4311 
Q 3641 3956 3641 3272 
Q 3641 2581 3239 2228 
Q 2838 1875 2053 1875 
L 1259 1875 
L 1259 0 
L 628 0 
L 628 4666 
z
" transform="scale(0.015625)"/>
       <path id="DejaVuSans-20" transform="scale(0.015625)"/>
       <path id="DejaVuSans-66" d="M 2375 4863 
L 2375 4384 
L 1825 4384 
Q 1516 4384 1395 4259 
Q 1275 4134 1275 3809 
L 1275 3500 
L 2222 3500 
L 2222 3053 
L 1275 3053 
L 1275 0 
L 697 0 
L 697 3053 
L 147 3053 
L 147 3500 
L 697 3500 
L 697 3744 
Q 697 4328 969 4595 
Q 1241 4863 1831 4863 
L 2375 4863 
z
" transform="scale(0.015625)"/>
       <path id="DejaVuSans-6d" d="M 3328 2828 
Q 3544 3216 3844 3400 
Q 4144 3584 4550 3584 
Q 5097 3584 5394 3201 
Q 5691 2819 5691 2113 
L 5691 0 
L 5113 0 
L 5113 2094 
Q 5113 2597 4934 2840 
Q 4756 3084 4391 3084 
Q 3944 3084 3684 2787 
Q 3425 2491 3425 1978 
L 3425 0 
L 2847 0 
L 2847 2094 
Q 2847 2600 2669 2842 
Q 2491 3084 2119 3084 
Q 1678 3084 1418 2786 
Q 1159 2488 1159 1978 
L 1159 0 
L 581 0 
L 581 3500 
L 1159 3500 
L 1159 2956 
Q 1356 3278 1631 3431 
Q 1906 3584 2284 3584 
Q 2666 3584 2933 3390 
Q 3200 3197 3328 2828 
z
" transform="scale(0.015625)"/>
       <path id="DejaVuSans-69" d="M 603 3500 
L 1178 3500 
L 1178 0 
L 603 0 
L 603 3500 
z
M 603 4863 
L 1178 4863 
L 1178 4134 
L 603 4134 
L 603 4863 
z
" transform="scale(0.015625)"/>
       <path id="DejaVuSans-73" d="M 2834 3397 
L 2834 2853 
Q 2591 2978 2328 3040 
Q 2066 3103 1784 3103 
Q 1356 3103 1142 2972 
Q 928 2841 928 2578 
Q 928 2378 1081 2264 
Q 1234 2150 1697 2047 
L 1894 2003 
Q 2506 1872 2764 1633 
Q 3022 1394 3022 966 
Q 3022 478 2636 193 
Q 2250 -91 1575 -91 
Q 1294 -91 989 -36 
Q 684 19 347 128 
L 347 722 
Q 666 556 975 473 
Q 1284 391 1588 391 
Q 1994 391 2212 530 
Q 2431 669 2431 922 
Q 2431 1156 2273 1281 
Q 2116 1406 1581 1522 
L 1381 1569 
Q 847 1681 609 1914 
Q 372 2147 372 2553 
Q 372 3047 722 3315 
Q 1072 3584 1716 3584 
Q 2034 3584 2315 3537 
Q 2597 3491 2834 3397 
z
" transform="scale(0.015625)"/>
      </defs>
      <use xlink:href="#DejaVuSans-50"/>
      <use xlink:href="#DejaVuSans-65" x="56.677734"/>
      <use xlink:href="#DejaVuSans-72" x="118.201172"/>
      <use xlink:href="#DejaVuSans-63" x="157.064453"/>
      <use xlink:href="#DejaVuSans-65" x="212.044922"/>
      <use xlink:href="#DejaVuSans-6e" x="273.568359"/>
      <use xlink:href="#DejaVuSans-74" x="336.947266"/>
      <use xlink:href="#DejaVuSans-61" x="376.15625"/>
      <use xlink:href="#DejaVuSans-67" x="437.435547"/>
      <use xlink:href="#DejaVuSans-65" x="500.912109"/>
      <use xlink:href="#DejaVuSans-20" x="562.435547"/>
      <use xlink:href="#DejaVuSans-4f" x="594.222656"/>
      <use xlink:href="#DejaVuSans-66" x="672.933594"/>
      <use xlink:href="#DejaVuSans-20" x="708.138672"/>
      <use xlink:href="#DejaVuSans-44" x="739.925781"/>
      <use xlink:href="#DejaVuSans-6f" x="816.927734"/>
      <use xlink:href="#DejaVuSans-6d" x="878.109375"/>
      <use xlink:href="#DejaVuSans-61" x="975.521484"/>
      <use xlink:href="#DejaVuSans-69" x="1036.800781"/>
      <use xlink:href="#DejaVuSans-6e" x="1064.583984"/>
      <use xlink:href="#DejaVuSans-73" x="1127.962891"/>
     </g>
    </g>
   </g>
   <g id="line2d_24">
    <path d="M 73.85004 155.97947 
L 75.791754 155.828971 
L 76.762611 155.883108 
L 77.733467 155.369175 
L 78.704324 154.67118 
L 79.675181 154.121517 
L 80.646038 153.967049 
L 82.587752 153.939981 
L 83.558609 154.240978 
L 87.442036 153.329325 
L 91.325464 152.854371 
L 92.296321 152.646488 
L 93.267178 152.728414 
L 94.238035 152.597765 
L 98.121462 152.614367 
L 99.092319 151.97159 
L 102.00489 151.406409 
L 103.946604 150.982703 
L 107.830031 149.562893 
L 108.800888 149.563975 
L 111.713459 148.610457 
L 113.655173 147.810686 
L 115.596886 147.25561 
L 116.567743 147.140481 
L 118.509457 146.703782 
L 119.480314 146.52802 
L 123.363742 146.379687 
L 124.334598 146.265279 
L 125.305455 146.312558 
L 127.247169 146.09854 
L 129.188883 146.210782 
L 130.15974 147.327431 
L 131.130597 147.082014 
L 132.101454 146.278994 
L 133.07231 146.047291 
L 135.014024 146.080134 
L 136.955738 146.832265 
L 137.926595 146.648563 
L 140.839166 146.971937 
L 143.751736 145.391883 
L 144.722593 145.012208 
L 145.69345 144.766791 
L 146.664307 144.335867 
L 147.635164 143.620548 
L 148.606021 143.340123 
L 158.31459 137.977396 
L 160.256303 136.735513 
L 161.22716 136.376771 
L 163.168874 136.576353 
L 164.139731 136.021999 
L 165.110588 136.092736 
L 166.081445 136.788927 
L 167.052302 138.056435 
L 168.023159 139.834266 
L 168.994016 142.203986 
L 169.964872 138.277671 
L 170.935729 138.713648 
L 171.906586 137.945997 
L 173.8483 136.846312 
L 175.790014 134.509074 
L 177.731728 134.344139 
L 178.702584 134.435809 
L 179.673441 134.098361 
L 180.644298 134.839665 
L 181.615155 136.18946 
L 183.556869 137.893666 
L 184.527726 138.189971 
L 186.46944 138.253851 
L 187.440297 138.18961 
L 188.411153 138.563871 
L 190.352867 138.004464 
L 192.294581 137.833394 
L 194.236295 137.329928 
L 195.207152 137.315852 
L 196.178009 137.539254 
L 197.148865 140.398365 
L 198.119722 140.769017 
L 210.740862 137.707076 
L 212.682576 137.851078 
L 215.595146 137.450832 
L 220.449431 137.510743 
L 221.420288 137.071157 
L 229.187143 135.900734 
L 231.128857 135.793905 
L 232.099714 136.025247 
L 233.070571 136.010449 
L 234.041427 135.702234 
L 236.953998 135.27492 
L 237.924855 135.643406 
L 240.837426 135.478832 
L 241.808283 135.139218 
L 247.633424 134.943967 
L 248.604281 134.73825 
L 249.575138 134.646219 
L 252.487708 134.691332 
L 254.429422 134.414516 
L 255.400279 134.554909 
L 256.371136 134.38817 
L 257.341993 134.494276 
L 258.31285 134.28892 
L 259.283707 134.441223 
L 260.254564 134.405493 
L 262.196277 133.879651 
L 265.108848 133.710746 
L 267.050562 133.882177 
L 268.992276 133.668881 
L 269.963133 133.329988 
L 270.933989 133.159279 
L 271.904846 133.173715 
L 272.875703 133.315913 
L 273.84656 133.325657 
L 274.817417 133.215581 
L 275.788274 132.898343 
L 277.729988 132.552954 
L 279.671701 132.581827 
L 284.525986 131.653933 
L 285.496843 131.611346 
L 286.4677 131.433419 
L 288.409414 131.504157 
L 289.38027 131.221566 
L 290.351127 131.399854 
L 291.321984 131.148302 
L 294.234555 131.137474 
L 296.176269 130.556052 
L 299.088839 130.421434 
L 301.030553 130.48351 
L 304.913981 130.072436 
L 305.884838 130.105639 
L 333.068831 127.805936 
L 334.039688 128.03836 
L 335.010544 128.021398 
L 335.981401 127.696942 
L 337.923115 127.221265 
L 338.893972 126.897531 
L 340.835686 126.770492 
L 341.806543 126.798643 
L 343.748257 126.2331 
L 347.631684 126.296259 
L 349.573398 125.665753 
L 350.544255 125.378832 
L 368.990536 123.941337 
L 370.93225 123.247311 
L 371.903106 123.093204 
L 372.873963 123.348365 
L 373.84482 123.109084 
L 375.786534 122.879546 
L 376.757391 122.685017 
L 377.728248 122.366697 
L 378.699105 122.378246 
L 379.669962 122.120918 
L 380.640818 122.105399 
L 381.611675 122.705228 
L 384.524246 121.693243 
L 388.407674 121.500157 
L 389.378531 121.598324 
L 390.349387 121.091249 
L 391.320244 121.125174 
L 392.291101 120.759936 
L 393.261958 121.171731 
L 395.203672 121.27856 
L 397.145386 121.001744 
L 398.116243 122.162423 
L 399.087099 120.357163 
L 400.057956 120.056166 
L 401.99967 120.197642 
L 402.970527 120.29653 
L 403.941384 120.757048 
L 404.912241 120.264049 
L 405.883098 120.089008 
L 406.853955 120.178874 
L 407.824812 119.922991 
L 408.795668 119.848644 
L 409.766525 120.287508 
L 412.679096 119.75156 
L 413.649953 120.271989 
L 415.591667 120.445946 
L 416.562524 119.754447 
L 419.475094 118.530248 
L 421.416808 118.372171 
L 422.387665 118.404291 
L 423.358522 118.323087 
L 424.329379 118.41151 
L 426.271093 117.759349 
L 428.212806 117.702687 
L 430.15452 117.869065 
L 431.125377 117.702326 
L 434.037948 117.05594 
L 436.950518 117.171431 
L 439.863089 116.648115 
L 440.833946 116.278906 
L 443.746517 116.533707 
L 444.717374 116.373825 
L 445.68823 116.00209 
L 446.659087 116.131656 
L 448.600801 116.064166 
L 449.571658 116.309223 
L 450.542515 116.320411 
L 453.455086 115.786628 
L 454.425942 115.932435 
L 455.396799 115.780854 
L 456.367656 115.777966 
L 458.30937 115.440157 
L 460.251084 114.749019 
L 463.163655 114.72159 
L 465.105368 114.786914 
L 466.076225 114.3679 
L 467.047082 114.330005 
L 469.959653 114.772117 
L 471.901367 114.352381 
L 472.872223 114.171206 
L 474.813937 114.353103 
L 475.784794 114.846103 
L 477.726508 114.933803 
L 479.668222 114.673589 
L 479.668222 114.673589 
" clip-path="url(#p534ea89e9b)" style="fill: none; stroke: #008000; stroke-width: 1.5; stroke-linecap: square"/>
   </g>
   <g id="line2d_25">
    <path d="M 73.85004 27.616889 
L 74.820897 27.307591 
L 75.791754 27.166476 
L 76.762611 26.884968 
L 77.733467 25.97512 
L 78.704324 24.841148 
L 79.675181 24.338043 
L 80.646038 24.107062 
L 82.587752 23.993737 
L 83.558609 24.814441 
L 84.529466 24.44812 
L 85.500323 23.640408 
L 88.412893 23.173033 
L 91.325464 22.987526 
L 92.296321 22.752575 
L 93.267178 22.772425 
L 94.238035 22.60713 
L 97.150605 23.026504 
L 98.121462 23.63319 
L 99.092319 22.652965 
L 101.034033 22.449052 
L 103.946604 22.625536 
L 104.917461 22.36063 
L 105.888317 22.529174 
L 106.859174 21.882788 
L 110.742602 22.034008 
L 111.713459 21.445368 
L 113.655173 20.744124 
L 115.596886 20.349652 
L 117.5386 20.421112 
L 119.480314 19.822005 
L 120.451171 19.803238 
L 122.392885 19.984775 
L 124.334598 19.988745 
L 125.305455 20.20962 
L 127.247169 19.963842 
L 129.188883 20.508452 
L 130.15974 21.588648 
L 131.130597 22.187394 
L 132.101454 20.80223 
L 133.07231 20.287937 
L 134.043167 20.343517 
L 135.014024 20.282163 
L 136.955738 21.114416 
L 137.926595 20.971496 
L 140.839166 21.431293 
L 143.751736 20.186522 
L 144.722593 19.97106 
L 145.69345 20.015452 
L 146.664307 19.671146 
L 147.635164 19.446661 
L 148.606021 19.338028 
L 157.343733 17.433518 
L 158.31459 17.541791 
L 160.256303 16.476391 
L 161.22716 16.181891 
L 163.168874 16.590799 
L 164.139731 16.176116 
L 165.110588 17.902698 
L 166.081445 17.305757 
L 167.052302 18.513354 
L 168.994016 22.834141 
L 169.964872 19.128341 
L 170.935729 19.641551 
L 171.906586 19.011768 
L 172.877443 18.612965 
L 173.8483 18.064746 
L 175.790014 15.775148 
L 176.760871 16.060626 
L 177.731728 15.79175 
L 178.702584 16.125589 
L 179.673441 15.721373 
L 180.644298 16.440301 
L 182.586012 18.285621 
L 183.556869 19.261877 
L 185.498583 19.502963 
L 187.440297 19.05255 
L 188.411153 19.368344 
L 190.352867 17.995452 
L 191.323724 17.706726 
L 192.294581 17.677492 
L 194.236295 17.236824 
L 195.207152 17.197485 
L 196.178009 17.32272 
L 197.148865 20.104596 
L 198.119722 20.546347 
L 210.740862 17.225636 
L 212.682576 17.487655 
L 214.62429 17.242959 
L 215.595146 17.137935 
L 217.53686 17.102927 
L 218.507717 17.33066 
L 219.478574 17.318028 
L 220.449431 17.698425 
L 221.420288 17.002595 
L 222.391145 16.80987 
L 223.362002 16.74238 
L 227.245429 16.720726 
L 228.216286 16.504542 
L 229.187143 16.639522 
L 231.128857 16.477835 
L 232.099714 16.67453 
L 233.070571 16.738049 
L 234.041427 16.372089 
L 236.953998 15.999632 
L 237.924855 16.244689 
L 238.895712 16.351156 
L 239.866569 16.609927 
L 240.837426 16.310735 
L 241.808283 15.872954 
L 245.69171 17.326329 
L 246.662567 19.615927 
L 247.633424 17.419443 
L 248.604281 23.212011 
L 249.575138 23.127558 
L 250.545995 23.20371 
L 251.516852 23.143799 
L 252.487708 23.380916 
L 253.458565 23.298268 
L 254.429422 22.994023 
L 255.400279 23.062234 
L 256.371136 22.791553 
L 257.341993 23.093994 
L 258.31285 22.717567 
L 259.283707 23.125032 
L 260.254564 23.075949 
L 261.22542 22.859765 
L 262.196277 22.460962 
L 264.137991 22.105829 
L 266.079705 22.438225 
L 267.050562 23.091107 
L 268.021419 22.911375 
L 268.992276 23.099047 
L 269.963133 22.363156 
L 270.933989 22.126762 
L 271.904846 22.202552 
L 273.84656 22.67895 
L 274.817417 22.511128 
L 275.788274 22.715041 
L 277.729988 21.974459 
L 279.671701 22.000444 
L 280.642558 21.709191 
L 281.613415 22.171153 
L 282.584272 21.749252 
L 283.555129 21.650363 
L 284.525986 21.343231 
L 286.4677 21.437428 
L 287.438557 21.484707 
L 289.38027 21.056309 
L 290.351127 21.183349 
L 291.321984 20.691432 
L 292.292841 21.223771 
L 294.234555 21.371743 
L 296.176269 20.223695 
L 299.088839 20.055513 
L 301.030553 20.580994 
L 304.913981 19.739718 
L 305.884838 19.730696 
L 333.068831 21.336013 
L 334.039688 21.674183 
L 335.010544 21.613912 
L 338.893972 20.606619 
L 339.864829 20.591099 
L 340.835686 20.698289 
L 341.806543 20.926022 
L 343.748257 20.346043 
L 347.631684 20.86972 
L 349.573398 20.287576 
L 350.544255 19.834998 
L 368.019679 19.838968 
L 368.990536 19.953376 
L 371.903106 19.428977 
L 372.873963 19.570453 
L 373.84482 19.381337 
L 376.757391 19.720229 
L 377.728248 19.336945 
L 378.699105 19.248884 
L 379.669962 19.563956 
L 380.640818 22.482256 
L 382.582532 19.628559 
L 383.553389 19.608709 
L 384.524246 18.993 
L 385.495103 18.899886 
L 388.407674 18.793779 
L 389.378531 19.089002 
L 390.349387 18.68659 
L 391.320244 18.941391 
L 392.291101 18.516241 
L 393.261958 18.911796 
L 396.174529 19.42212 
L 397.145386 19.218929 
L 398.116243 20.996038 
L 399.087099 18.463549 
L 400.057956 18.149198 
L 401.028813 18.100476 
L 402.970527 18.680815 
L 403.941384 19.412736 
L 404.912241 19.480226 
L 405.883098 18.446947 
L 406.853955 18.489534 
L 407.824812 19.195831 
L 408.795668 18.798471 
L 409.766525 19.658153 
L 410.737382 19.645161 
L 411.708239 19.201244 
L 412.679096 19.633972 
L 413.649953 20.276749 
L 414.62081 20.33666 
L 415.591667 20.571971 
L 417.53338 19.337306 
L 418.504237 18.315938 
L 420.445951 17.837013 
L 421.416808 17.76808 
L 422.387665 18.061859 
L 423.358522 18.034791 
L 424.329379 18.205861 
L 427.241949 17.549009 
L 428.212806 17.476827 
L 430.15452 17.958639 
L 431.125377 17.953947 
L 434.037948 22.702048 
L 435.008805 17.136852 
L 435.979661 16.884578 
L 436.950518 17.956474 
L 437.921375 17.113754 
L 438.892232 16.649627 
L 439.863089 16.558678 
L 440.833946 16.303517 
L 441.804803 16.286193 
L 442.77566 16.478196 
L 443.746517 16.851735 
L 444.717374 16.714229 
L 445.68823 16.379307 
L 446.659087 16.367758 
L 447.629944 16.520422 
L 448.600801 16.510317 
L 449.571658 16.631582 
L 450.542515 17.311171 
L 451.513372 16.717839 
L 452.484229 16.924278 
L 453.455086 16.402766 
L 454.425942 16.5197 
L 455.396799 16.267065 
L 456.367656 16.432361 
L 457.338513 16.457985 
L 458.30937 16.255877 
L 459.280227 15.803659 
L 460.251084 15.20744 
L 461.221941 15.016881 
L 462.192798 16.000715 
L 463.163655 15.256523 
L 464.134511 15.651717 
L 466.076225 14.989091 
L 467.047082 15.024821 
L 469.959653 15.590363 
L 471.901367 15.438782 
L 472.872223 15.197696 
L 474.813937 15.719929 
L 475.784794 16.553265 
L 477.726508 17.003317 
L 478.697365 16.886382 
L 479.668222 16.589355 
L 479.668222 16.589355 
" clip-path="url(#p534ea89e9b)" style="fill: none; stroke: #ffa500; stroke-width: 1.5; stroke-linecap: square"/>
   </g>
   <g id="line2d_26">
    <path d="M 73.85004 129.063338 
L 74.820897 128.870974 
L 75.791754 128.851846 
L 76.762611 128.700265 
L 77.733467 128.320951 
L 78.704324 127.814237 
L 81.616895 127.673122 
L 82.587752 127.505661 
L 83.558609 128.301101 
L 85.500323 127.717874 
L 86.47118 127.874147 
L 88.412893 127.659407 
L 95.208892 128.036556 
L 96.179748 128.024646 
L 97.150605 128.19319 
L 98.121462 128.875666 
L 99.092319 128.483359 
L 102.00489 128.776777 
L 102.975747 128.634219 
L 103.946604 128.796266 
L 104.917461 128.737078 
L 105.888317 129.256063 
L 106.859174 128.933772 
L 107.830031 129.21925 
L 108.800888 128.755845 
L 113.655173 128.377974 
L 116.567743 127.859711 
L 118.509457 127.954991 
L 119.480314 127.744942 
L 121.422028 127.785725 
L 124.334598 127.52515 
L 125.305455 127.881005 
L 127.247169 127.838057 
L 129.188883 128.052436 
L 130.15974 128.96084 
L 131.130597 129.587737 
L 132.101454 128.490939 
L 135.014024 128.87711 
L 135.984881 129.25498 
L 136.955738 130.086511 
L 137.926595 129.892704 
L 140.839166 131.276785 
L 144.722593 129.804642 
L 145.69345 130.035984 
L 147.635164 130.080015 
L 148.606021 130.051503 
L 157.343733 128.601015 
L 158.31459 128.576113 
L 161.22716 127.962931 
L 162.198017 127.830478 
L 163.168874 128.082752 
L 164.139731 127.58506 
L 165.110588 130.357553 
L 166.081445 128.64252 
L 167.052302 130.012886 
L 168.994016 134.61518 
L 169.964872 130.922734 
L 170.935729 131.348605 
L 171.906586 130.984089 
L 173.8483 130.592143 
L 175.790014 128.656234 
L 176.760871 129.077413 
L 177.731728 128.451239 
L 178.702584 129.328605 
L 179.673441 129.13552 
L 183.556869 133.459554 
L 186.46944 134.177039 
L 187.440297 134.491389 
L 188.411153 134.972118 
L 189.38201 134.732475 
L 190.352867 134.367598 
L 191.323724 134.173069 
L 192.294581 134.100165 
L 195.207152 134.443028 
L 196.178009 134.834612 
L 197.148865 137.520487 
L 198.119722 137.800551 
L 211.711719 137.322349 
L 214.62429 137.639226 
L 215.595146 137.663407 
L 216.566003 137.856131 
L 217.53686 137.774566 
L 218.507717 137.926508 
L 219.478574 137.896914 
L 220.449431 138.054269 
L 223.362002 137.95105 
L 228.216286 138.123564 
L 229.187143 138.367537 
L 230.158 138.480141 
L 231.128857 138.294995 
L 233.070571 138.435027 
L 234.041427 138.235084 
L 237.924855 138.445493 
L 240.837426 138.410485 
L 241.808283 138.337221 
L 245.69171 140.11036 
L 246.662567 143.909274 
L 247.633424 140.233069 
L 248.604281 146.255174 
L 250.545995 146.457643 
L 251.516852 146.415417 
L 252.487708 146.517915 
L 253.458565 146.444651 
L 254.429422 146.196346 
L 255.400279 146.306423 
L 256.371136 146.290904 
L 257.341993 146.471358 
L 258.31285 146.194181 
L 259.283707 146.378965 
L 261.22542 146.342514 
L 262.196277 146.24579 
L 265.108848 146.28946 
L 266.079705 146.316167 
L 267.050562 147.481899 
L 268.021419 147.451222 
L 268.992276 147.855439 
L 269.963133 147.194256 
L 270.933989 147.022464 
L 272.875703 147.175128 
L 273.84656 147.373627 
L 274.817417 147.399612 
L 275.788274 148.344108 
L 276.759131 148.291776 
L 277.729988 147.868431 
L 279.671701 147.70097 
L 280.642558 147.166827 
L 281.613415 148.321009 
L 283.555129 148.253881 
L 284.525986 148.074149 
L 285.496843 148.097247 
L 286.4677 148.757708 
L 288.409414 148.560652 
L 289.38027 148.818701 
L 290.351127 148.919755 
L 291.321984 148.352408 
L 292.292841 149.134134 
L 293.263698 149.287159 
L 294.234555 149.305566 
L 296.176269 148.708263 
L 299.088839 148.817258 
L 301.030553 149.410229 
L 304.913981 149.711226 
L 305.884838 149.423943 
L 335.010544 151.965816 
L 335.981401 151.894717 
L 336.952258 151.958237 
L 338.893972 151.700549 
L 340.835686 151.760459 
L 341.806543 152.083833 
L 342.7774 152.123172 
L 343.748257 152.030779 
L 345.68997 152.393852 
L 346.660827 152.381942 
L 347.631684 152.574667 
L 348.602541 152.325641 
L 349.573398 151.793663 
L 371.903106 152.726248 
L 372.873963 152.980688 
L 373.84482 152.726609 
L 374.815677 152.722639 
L 375.786534 152.841378 
L 376.757391 153.127578 
L 378.699105 152.946763 
L 379.669962 153.424605 
L 380.640818 156.95356 
L 381.611675 155.380002 
L 382.582532 153.282407 
L 383.553389 153.580517 
L 384.524246 153.171608 
L 385.495103 153.282768 
L 388.407674 153.087156 
L 389.378531 153.314167 
L 390.349387 153.130104 
L 391.320244 153.436515 
L 392.291101 153.343761 
L 393.261958 153.920853 
L 395.203672 154.177458 
L 396.174529 154.469432 
L 397.145386 154.473402 
L 398.116243 155.838355 
L 399.087099 153.94756 
L 400.057956 153.638262 
L 401.028813 153.516636 
L 402.970527 153.97138 
L 403.941384 154.587088 
L 404.912241 154.845859 
L 405.883098 154.28573 
L 406.853955 154.334092 
L 407.824812 155.325144 
L 408.795668 154.90577 
L 409.766525 155.871198 
L 411.708239 155.928582 
L 412.679096 155.146495 
L 413.649953 156.049125 
L 414.62081 156.037576 
L 415.591667 156.185187 
L 416.562524 155.512816 
L 417.53338 155.954206 
L 418.504237 155.538441 
L 419.475094 155.552877 
L 421.416808 155.237444 
L 422.387665 155.481056 
L 423.358522 155.488635 
L 425.300236 156.129968 
L 426.271093 155.985966 
L 427.241949 155.718173 
L 428.212806 155.579223 
L 429.183663 155.914867 
L 431.125377 156.021335 
L 434.037948 161.621539 
L 435.008805 155.588968 
L 435.979661 154.981921 
L 436.950518 156.891844 
L 437.921375 155.676307 
L 438.892232 155.353656 
L 440.833946 155.296993 
L 441.804803 155.167789 
L 442.77566 155.288332 
L 443.746517 155.635164 
L 445.68823 155.821392 
L 446.659087 155.731526 
L 447.629944 155.918116 
L 449.571658 155.831859 
L 450.542515 156.197819 
L 451.513372 156.026749 
L 452.484229 156.980628 
L 453.455086 156.491237 
L 455.396799 156.197819 
L 456.367656 156.224526 
L 457.338513 156.477883 
L 458.30937 156.895453 
L 460.251084 155.962507 
L 461.221941 155.664037 
L 462.192798 156.630908 
L 463.163655 155.662232 
L 464.134511 156.179413 
L 465.105368 155.866145 
L 466.076225 155.774113 
L 469.959653 156.222361 
L 470.93051 156.010508 
L 472.872223 156.423386 
L 474.813937 156.325219 
L 475.784794 156.752534 
L 476.755651 157.056779 
L 478.697365 156.975214 
L 479.668222 156.615389 
L 479.668222 156.615389 
" clip-path="url(#p534ea89e9b)" style="fill: none; stroke: #ff0000; stroke-width: 1.5; stroke-linecap: square"/>
   </g>
   <g id="line2d_27">
    <path d="M 73.85004 141.751768 
L 74.820897 141.554713 
L 76.762611 141.404936 
L 78.704324 140.565465 
L 81.616895 140.449253 
L 82.587752 140.244618 
L 83.558609 140.985922 
L 84.529466 140.635481 
L 85.500323 140.478125 
L 86.47118 140.605887 
L 88.412893 140.396921 
L 93.267178 140.753498 
L 94.238035 140.660384 
L 95.208892 140.764686 
L 96.179748 140.734009 
L 97.150605 140.894252 
L 98.121462 141.560487 
L 99.092319 141.229535 
L 100.063176 141.258769 
L 102.00489 141.519705 
L 102.975747 141.415402 
L 103.946604 141.525479 
L 104.917461 141.465208 
L 105.888317 141.989246 
L 106.859174 141.615345 
L 107.830031 141.849935 
L 108.800888 141.339612 
L 113.655173 140.975817 
L 116.567743 140.366966 
L 118.509457 140.419658 
L 119.480314 140.28107 
L 121.422028 140.30489 
L 124.334598 140.01472 
L 125.305455 140.378515 
L 127.247169 140.38465 
L 129.188883 140.56763 
L 130.15974 141.459072 
L 131.130597 142.11015 
L 132.101454 141.01696 
L 134.043167 141.331311 
L 135.014024 141.416124 
L 135.984881 141.803739 
L 136.955738 142.659451 
L 137.926595 142.453734 
L 140.839166 143.445869 
L 144.722593 141.970118 
L 145.69345 142.184858 
L 147.635164 142.24549 
L 148.606021 142.185579 
L 157.343733 140.274212 
L 158.31459 140.233791 
L 160.256303 139.779769 
L 161.22716 139.7047 
L 162.198017 139.512697 
L 163.168874 139.760641 
L 164.139731 139.252122 
L 165.110588 142.027502 
L 166.081445 140.28901 
L 167.052302 141.645301 
L 168.994016 146.329882 
L 169.964872 142.643932 
L 170.935729 143.105172 
L 171.906586 142.497043 
L 173.8483 142.036525 
L 175.790014 140.123714 
L 176.760871 140.497614 
L 177.731728 139.833183 
L 178.702584 140.09412 
L 179.673441 139.906087 
L 183.556869 144.264047 
L 187.440297 145.285776 
L 188.411153 145.80007 
L 191.323724 145.058765 
L 192.294581 144.954463 
L 195.207152 145.288663 
L 196.178009 145.68097 
L 197.148865 148.376589 
L 198.119722 148.66712 
L 211.711719 147.996914 
L 213.653433 148.162571 
L 216.566003 148.483779 
L 217.53686 148.402214 
L 220.449431 148.645465 
L 223.362002 148.531058 
L 228.216286 148.692383 
L 229.187143 148.95332 
L 230.158 149.047517 
L 231.128857 148.859123 
L 233.070571 148.958372 
L 234.041427 148.763482 
L 241.808283 148.668564 
L 245.69171 150.406334 
L 246.662567 154.178541 
L 247.633424 150.482846 
L 248.604281 156.566306 
L 252.487708 156.770579 
L 253.458565 156.681435 
L 254.429422 156.444319 
L 257.341993 156.666638 
L 258.31285 156.427717 
L 259.283707 156.637405 
L 266.079705 156.458755 
L 267.050562 157.608246 
L 268.021419 157.559524 
L 268.992276 157.995861 
L 269.963133 157.281264 
L 270.933989 157.102975 
L 274.817417 157.469297 
L 275.788274 158.348829 
L 276.759131 158.367235 
L 277.729988 157.908521 
L 279.671701 157.859438 
L 280.642558 157.332513 
L 281.613415 158.406213 
L 285.496843 158.225037 
L 286.4677 158.868897 
L 288.409414 158.685916 
L 289.38027 158.962011 
L 290.351127 158.973199 
L 291.321984 158.462515 
L 292.292841 159.16051 
L 293.263698 159.401596 
L 294.234555 159.322918 
L 296.176269 158.744022 
L 299.088839 158.824144 
L 301.030553 159.425055 
L 304.913981 159.790294 
L 305.884838 159.511312 
L 335.010544 161.746774 
L 335.981401 161.666653 
L 336.952258 161.698413 
L 339.864829 161.460213 
L 340.835686 161.554049 
L 341.806543 161.808489 
L 342.7774 161.87237 
L 343.748257 161.765902 
L 344.719113 162.043801 
L 345.68997 162.161457 
L 346.660827 162.080253 
L 347.631684 162.275143 
L 348.602541 161.983169 
L 349.573398 161.471402 
L 371.903106 162.376197 
L 372.873963 162.566395 
L 373.84482 162.324226 
L 375.786534 162.390272 
L 376.757391 162.717977 
L 378.699105 162.55629 
L 379.669962 163.053621 
L 380.640818 166.591238 
L 381.611675 165.072177 
L 382.582532 162.921889 
L 383.553389 163.168389 
L 384.524246 162.75515 
L 385.495103 162.823723 
L 388.407674 162.60393 
L 389.378531 162.887964 
L 390.349387 162.697044 
L 391.320244 162.954371 
L 392.291101 162.90204 
L 393.261958 163.418498 
L 395.203672 163.67366 
L 396.174529 164.037455 
L 397.145386 164.063801 
L 398.116243 165.39519 
L 399.087099 163.568275 
L 400.057956 163.207367 
L 401.028813 163.146013 
L 402.970527 163.540485 
L 403.941384 164.132735 
L 404.912241 164.309218 
L 405.883098 163.758112 
L 406.853955 163.794925 
L 407.824812 164.597223 
L 408.795668 164.375625 
L 409.766525 165.227007 
L 411.708239 165.285113 
L 412.679096 164.532259 
L 413.649953 165.446438 
L 414.62081 165.457627 
L 415.591667 165.581418 
L 416.562524 164.888475 
L 417.53338 165.289083 
L 418.504237 164.916626 
L 419.475094 164.856354 
L 421.416808 164.513492 
L 422.387665 164.76324 
L 423.358522 164.780564 
L 425.300236 165.394107 
L 426.271093 165.28006 
L 427.241949 164.939363 
L 428.212806 164.831091 
L 429.183663 165.151216 
L 431.125377 165.219788 
L 434.037948 170.770909 
L 435.008805 164.729676 
L 435.979661 164.133456 
L 436.950518 166.029665 
L 437.921375 164.778759 
L 438.892232 164.505552 
L 442.77566 164.455025 
L 443.746517 164.760353 
L 445.68823 164.992778 
L 446.659087 164.810158 
L 447.629944 165.072538 
L 449.571658 164.907603 
L 450.542515 165.332392 
L 451.513372 165.151577 
L 452.484229 165.919949 
L 453.455086 165.600185 
L 455.396799 165.30785 
L 456.367656 165.266706 
L 457.338513 165.50671 
L 458.30937 165.914897 
L 460.251084 165.006492 
L 461.221941 164.780925 
L 462.192798 165.75718 
L 463.163655 164.860685 
L 464.134511 165.304241 
L 465.105368 165.00577 
L 466.076225 164.917709 
L 467.047082 165.028868 
L 469.959653 165.145081 
L 470.93051 164.952356 
L 472.872223 165.364873 
L 474.813937 165.250466 
L 475.784794 165.659735 
L 476.755651 165.934025 
L 478.697365 165.918145 
L 479.668222 165.568064 
L 479.668222 165.568064 
" clip-path="url(#p534ea89e9b)" style="fill: none; stroke: #000000; stroke-width: 1.5; stroke-linecap: square"/>
   </g>
   <g id="patch_3">
    <path d="M 53.559131 178.56 
L 53.559131 7.2 
" style="fill: none; stroke: #000000; stroke-width: 0.8; stroke-linejoin: miter; stroke-linecap: square"/>
   </g>
   <g id="patch_4">
    <path d="M 499.959131 178.56 
L 499.959131 7.2 
" style="fill: none; stroke: #000000; stroke-width: 0.8; stroke-linejoin: miter; stroke-linecap: square"/>
   </g>
   <g id="patch_5">
    <path d="M 53.559131 178.56 
L 499.959131 178.56 
" style="fill: none; stroke: #000000; stroke-width: 0.8; stroke-linejoin: miter; stroke-linecap: square"/>
   </g>
   <g id="patch_6">
    <path d="M 53.559131 7.2 
L 499.959131 7.2 
" style="fill: none; stroke: #000000; stroke-width: 0.8; stroke-linejoin: miter; stroke-linecap: square"/>
   </g>
   <g id="legend_1">
    <g id="patch_7">
     <path d="M 245.382568 106.60025 
L 308.135693 106.60025 
Q 310.135693 106.60025 310.135693 104.60025 
L 310.135693 46.88775 
Q 310.135693 44.88775 308.135693 44.88775 
L 245.382568 44.88775 
Q 243.382568 44.88775 243.382568 46.88775 
L 243.382568 104.60025 
Q 243.382568 106.60025 245.382568 106.60025 
z
" style="fill: #ffffff; opacity: 0.8; stroke: #cccccc; stroke-linejoin: miter"/>
    </g>
    <g id="line2d_28">
     <path d="M 247.382568 52.986187 
L 257.382568 52.986187 
L 267.382568 52.986187 
" style="fill: none; stroke: #008000; stroke-width: 1.5; stroke-linecap: square"/>
    </g>
    <g id="text_21">
     <!-- TLS13 -->
     <g transform="translate(275.382568 56.486187)scale(0.1 -0.1)">
      <defs>
       <path id="DejaVuSans-54" d="M -19 4666 
L 3928 4666 
L 3928 4134 
L 2272 4134 
L 2272 0 
L 1638 0 
L 1638 4134 
L -19 4134 
L -19 4666 
z
" transform="scale(0.015625)"/>
       <path id="DejaVuSans-4c" d="M 628 4666 
L 1259 4666 
L 1259 531 
L 3531 531 
L 3531 0 
L 628 0 
L 628 4666 
z
" transform="scale(0.015625)"/>
       <path id="DejaVuSans-33" d="M 2597 2516 
Q 3050 2419 3304 2112 
Q 3559 1806 3559 1356 
Q 3559 666 3084 287 
Q 2609 -91 1734 -91 
Q 1441 -91 1130 -33 
Q 819 25 488 141 
L 488 750 
Q 750 597 1062 519 
Q 1375 441 1716 441 
Q 2309 441 2620 675 
Q 2931 909 2931 1356 
Q 2931 1769 2642 2001 
Q 2353 2234 1838 2234 
L 1294 2234 
L 1294 2753 
L 1863 2753 
Q 2328 2753 2575 2939 
Q 2822 3125 2822 3475 
Q 2822 3834 2567 4026 
Q 2313 4219 1838 4219 
Q 1578 4219 1281 4162 
Q 984 4106 628 3988 
L 628 4550 
Q 988 4650 1302 4700 
Q 1616 4750 1894 4750 
Q 2613 4750 3031 4423 
Q 3450 4097 3450 3541 
Q 3450 3153 3228 2886 
Q 3006 2619 2597 2516 
z
" transform="scale(0.015625)"/>
      </defs>
      <use xlink:href="#DejaVuSans-54"/>
      <use xlink:href="#DejaVuSans-4c" x="61.083984"/>
      <use xlink:href="#DejaVuSans-53" x="116.796875"/>
      <use xlink:href="#DejaVuSans-31" x="180.273438"/>
      <use xlink:href="#DejaVuSans-33" x="243.896484"/>
     </g>
    </g>
    <g id="line2d_29">
     <path d="M 247.382568 67.664312 
L 257.382568 67.664312 
L 267.382568 67.664312 
" style="fill: none; stroke: #ffa500; stroke-width: 1.5; stroke-linecap: square"/>
    </g>
    <g id="text_22">
     <!-- TLS12 -->
     <g transform="translate(275.382568 71.164312)scale(0.1 -0.1)">
      <use xlink:href="#DejaVuSans-54"/>
      <use xlink:href="#DejaVuSans-4c" x="61.083984"/>
      <use xlink:href="#DejaVuSans-53" x="116.796875"/>
      <use xlink:href="#DejaVuSans-31" x="180.273438"/>
      <use xlink:href="#DejaVuSans-32" x="243.896484"/>
     </g>
    </g>
    <g id="line2d_30">
     <path d="M 247.382568 82.342437 
L 257.382568 82.342437 
L 267.382568 82.342437 
" style="fill: none; stroke: #ff0000; stroke-width: 1.5; stroke-linecap: square"/>
    </g>
    <g id="text_23">
     <!-- TLS11 -->
     <g transform="translate(275.382568 85.842437)scale(0.1 -0.1)">
      <use xlink:href="#DejaVuSans-54"/>
      <use xlink:href="#DejaVuSans-4c" x="61.083984"/>
      <use xlink:href="#DejaVuSans-53" x="116.796875"/>
      <use xlink:href="#DejaVuSans-31" x="180.273438"/>
      <use xlink:href="#DejaVuSans-31" x="243.896484"/>
     </g>
    </g>
    <g id="line2d_31">
     <path d="M 247.382568 97.020563 
L 257.382568 97.020563 
L 267.382568 97.020563 
" style="fill: none; stroke: #000000; stroke-width: 1.5; stroke-linecap: square"/>
    </g>
    <g id="text_24">
     <!-- TLS10 -->
     <g transform="translate(275.382568 100.520563)scale(0.1 -0.1)">
      <use xlink:href="#DejaVuSans-54"/>
      <use xlink:href="#DejaVuSans-4c" x="61.083984"/>
      <use xlink:href="#DejaVuSans-53" x="116.796875"/>
      <use xlink:href="#DejaVuSans-31" x="180.273438"/>
      <use xlink:href="#DejaVuSans-30" x="243.896484"/>
     </g>
    </g>
   </g>
  </g>
 </g>
 <defs>
  <clipPath id="p534ea89e9b">
   <rect x="53.559131" y="7.2" width="446.4" height="171.36"/>
  </clipPath>
 </defs>
</svg>
