<?xml version="1.0" encoding="utf-8" standalone="no"?>
<!DOCTYPE svg PUBLIC "-//W3C//DTD SVG 1.1//EN"
  "http://www.w3.org/Graphics/SVG/1.1/DTD/svg11.dtd">
<svg xmlns:xlink="http://www.w3.org/1999/xlink" width="506.732901pt" height="234.086815pt" viewBox="0 0 506.732901 234.086815" xmlns="http://www.w3.org/2000/svg" version="1.1">
 <metadata>
  <rdf:RDF xmlns:dc="http://purl.org/dc/elements/1.1/" xmlns:cc="http://creativecommons.org/ns#" xmlns:rdf="http://www.w3.org/1999/02/22-rdf-syntax-ns#">
   <cc:Work>
    <dc:type rdf:resource="http://purl.org/dc/dcmitype/StillImage"/>
    <dc:date>2022-02-13T18:51:27.086859</dc:date>
    <dc:format>image/svg+xml</dc:format>
    <dc:creator>
     <cc:Agent>
      <dc:title>Matplotlib v3.5.1, https://matplotlib.org/</dc:title>
     </cc:Agent>
    </dc:creator>
   </cc:Work>
  </rdf:RDF>
 </metadata>
 <defs>
  <style type="text/css">*{stroke-linejoin: round; stroke-linecap: butt}</style>
 </defs>
 <g id="figure_1">
  <g id="patch_1">
   <path d="M 0 234.086815 
L 506.732901 234.086815 
L 506.732901 0 
L 0 0 
z
" style="fill: #ffffff"/>
  </g>
  <g id="axes_1">
   <g id="patch_2">
    <path d="M 53.132901 178.56 
L 499.532901 178.56 
L 499.532901 7.2 
L 53.132901 7.2 
z
" style="fill: #ffffff"/>
   </g>
   <g id="matplotlib.axis_1">
    <g id="xtick_1">
     <g id="line2d_1">
      <defs>
       <path id="m818d32b4b4" d="M 0 0 
L 0 3.5 
" style="stroke: #000000; stroke-width: 0.8"/>
      </defs>
      <g>
       <use xlink:href="#m818d32b4b4" x="68.024899" y="178.56" style="stroke: #000000; stroke-width: 0.8"/>
      </g>
     </g>
     <g id="text_1">
      <!-- 2020-Nov-01 -->
      <g transform="translate(10.999219 224.463877)rotate(-30)scale(0.1 -0.1)">
       <defs>
        <path id="DejaVuSans-32" d="M 1228 531 
L 3431 531 
L 3431 0 
L 469 0 
L 469 531 
Q 828 903 1448 1529 
Q 2069 2156 2228 2338 
Q 2531 2678 2651 2914 
Q 2772 3150 2772 3378 
Q 2772 3750 2511 3984 
Q 2250 4219 1831 4219 
Q 1534 4219 1204 4116 
Q 875 4013 500 3803 
L 500 4441 
Q 881 4594 1212 4672 
Q 1544 4750 1819 4750 
Q 2544 4750 2975 4387 
Q 3406 4025 3406 3419 
Q 3406 3131 3298 2873 
Q 3191 2616 2906 2266 
Q 2828 2175 2409 1742 
Q 1991 1309 1228 531 
z
" transform="scale(0.015625)"/>
        <path id="DejaVuSans-30" d="M 2034 4250 
Q 1547 4250 1301 3770 
Q 1056 3291 1056 2328 
Q 1056 1369 1301 889 
Q 1547 409 2034 409 
Q 2525 409 2770 889 
Q 3016 1369 3016 2328 
Q 3016 3291 2770 3770 
Q 2525 4250 2034 4250 
z
M 2034 4750 
Q 2819 4750 3233 4129 
Q 3647 3509 3647 2328 
Q 3647 1150 3233 529 
Q 2819 -91 2034 -91 
Q 1250 -91 836 529 
Q 422 1150 422 2328 
Q 422 3509 836 4129 
Q 1250 4750 2034 4750 
z
" transform="scale(0.015625)"/>
        <path id="DejaVuSans-2d" d="M 313 2009 
L 1997 2009 
L 1997 1497 
L 313 1497 
L 313 2009 
z
" transform="scale(0.015625)"/>
        <path id="DejaVuSans-4e" d="M 628 4666 
L 1478 4666 
L 3547 763 
L 3547 4666 
L 4159 4666 
L 4159 0 
L 3309 0 
L 1241 3903 
L 1241 0 
L 628 0 
L 628 4666 
z
" transform="scale(0.015625)"/>
        <path id="DejaVuSans-6f" d="M 1959 3097 
Q 1497 3097 1228 2736 
Q 959 2375 959 1747 
Q 959 1119 1226 758 
Q 1494 397 1959 397 
Q 2419 397 2687 759 
Q 2956 1122 2956 1747 
Q 2956 2369 2687 2733 
Q 2419 3097 1959 3097 
z
M 1959 3584 
Q 2709 3584 3137 3096 
Q 3566 2609 3566 1747 
Q 3566 888 3137 398 
Q 2709 -91 1959 -91 
Q 1206 -91 779 398 
Q 353 888 353 1747 
Q 353 2609 779 3096 
Q 1206 3584 1959 3584 
z
" transform="scale(0.015625)"/>
        <path id="DejaVuSans-76" d="M 191 3500 
L 800 3500 
L 1894 563 
L 2988 3500 
L 3597 3500 
L 2284 0 
L 1503 0 
L 191 3500 
z
" transform="scale(0.015625)"/>
        <path id="DejaVuSans-31" d="M 794 531 
L 1825 531 
L 1825 4091 
L 703 3866 
L 703 4441 
L 1819 4666 
L 2450 4666 
L 2450 531 
L 3481 531 
L 3481 0 
L 794 0 
L 794 531 
z
" transform="scale(0.015625)"/>
       </defs>
       <use xlink:href="#DejaVuSans-32"/>
       <use xlink:href="#DejaVuSans-30" x="63.623047"/>
       <use xlink:href="#DejaVuSans-32" x="127.246094"/>
       <use xlink:href="#DejaVuSans-30" x="190.869141"/>
       <use xlink:href="#DejaVuSans-2d" x="254.492188"/>
       <use xlink:href="#DejaVuSans-4e" x="290.576172"/>
       <use xlink:href="#DejaVuSans-6f" x="365.380859"/>
       <use xlink:href="#DejaVuSans-76" x="426.5625"/>
       <use xlink:href="#DejaVuSans-2d" x="483.117188"/>
       <use xlink:href="#DejaVuSans-30" x="519.201172"/>
       <use xlink:href="#DejaVuSans-31" x="582.824219"/>
      </g>
     </g>
    </g>
    <g id="xtick_2">
     <g id="line2d_2">
      <g>
       <use xlink:href="#m818d32b4b4" x="95.019456" y="178.56" style="stroke: #000000; stroke-width: 0.8"/>
      </g>
     </g>
     <g id="text_2">
      <!-- 2020-Dec-01 -->
      <g transform="translate(37.911233 224.511534)rotate(-30)scale(0.1 -0.1)">
       <defs>
        <path id="DejaVuSans-44" d="M 1259 4147 
L 1259 519 
L 2022 519 
Q 2988 519 3436 956 
Q 3884 1394 3884 2338 
Q 3884 3275 3436 3711 
Q 2988 4147 2022 4147 
L 1259 4147 
z
M 628 4666 
L 1925 4666 
Q 3281 4666 3915 4102 
Q 4550 3538 4550 2338 
Q 4550 1131 3912 565 
Q 3275 0 1925 0 
L 628 0 
L 628 4666 
z
" transform="scale(0.015625)"/>
        <path id="DejaVuSans-65" d="M 3597 1894 
L 3597 1613 
L 953 1613 
Q 991 1019 1311 708 
Q 1631 397 2203 397 
Q 2534 397 2845 478 
Q 3156 559 3463 722 
L 3463 178 
Q 3153 47 2828 -22 
Q 2503 -91 2169 -91 
Q 1331 -91 842 396 
Q 353 884 353 1716 
Q 353 2575 817 3079 
Q 1281 3584 2069 3584 
Q 2775 3584 3186 3129 
Q 3597 2675 3597 1894 
z
M 3022 2063 
Q 3016 2534 2758 2815 
Q 2500 3097 2075 3097 
Q 1594 3097 1305 2825 
Q 1016 2553 972 2059 
L 3022 2063 
z
" transform="scale(0.015625)"/>
        <path id="DejaVuSans-63" d="M 3122 3366 
L 3122 2828 
Q 2878 2963 2633 3030 
Q 2388 3097 2138 3097 
Q 1578 3097 1268 2742 
Q 959 2388 959 1747 
Q 959 1106 1268 751 
Q 1578 397 2138 397 
Q 2388 397 2633 464 
Q 2878 531 3122 666 
L 3122 134 
Q 2881 22 2623 -34 
Q 2366 -91 2075 -91 
Q 1284 -91 818 406 
Q 353 903 353 1747 
Q 353 2603 823 3093 
Q 1294 3584 2113 3584 
Q 2378 3584 2631 3529 
Q 2884 3475 3122 3366 
z
" transform="scale(0.015625)"/>
       </defs>
       <use xlink:href="#DejaVuSans-32"/>
       <use xlink:href="#DejaVuSans-30" x="63.623047"/>
       <use xlink:href="#DejaVuSans-32" x="127.246094"/>
       <use xlink:href="#DejaVuSans-30" x="190.869141"/>
       <use xlink:href="#DejaVuSans-2d" x="254.492188"/>
       <use xlink:href="#DejaVuSans-44" x="290.576172"/>
       <use xlink:href="#DejaVuSans-65" x="367.578125"/>
       <use xlink:href="#DejaVuSans-63" x="429.101562"/>
       <use xlink:href="#DejaVuSans-2d" x="484.082031"/>
       <use xlink:href="#DejaVuSans-30" x="520.166016"/>
       <use xlink:href="#DejaVuSans-31" x="583.789062"/>
      </g>
     </g>
    </g>
    <g id="xtick_3">
     <g id="line2d_3">
      <g>
       <use xlink:href="#m818d32b4b4" x="122.913832" y="178.56" style="stroke: #000000; stroke-width: 0.8"/>
      </g>
     </g>
     <g id="text_3">
      <!-- 2021-Jan-01 -->
      <g transform="translate(68.727092 222.824815)rotate(-30)scale(0.1 -0.1)">
       <defs>
        <path id="DejaVuSans-4a" d="M 628 4666 
L 1259 4666 
L 1259 325 
Q 1259 -519 939 -900 
Q 619 -1281 -91 -1281 
L -331 -1281 
L -331 -750 
L -134 -750 
Q 284 -750 456 -515 
Q 628 -281 628 325 
L 628 4666 
z
" transform="scale(0.015625)"/>
        <path id="DejaVuSans-61" d="M 2194 1759 
Q 1497 1759 1228 1600 
Q 959 1441 959 1056 
Q 959 750 1161 570 
Q 1363 391 1709 391 
Q 2188 391 2477 730 
Q 2766 1069 2766 1631 
L 2766 1759 
L 2194 1759 
z
M 3341 1997 
L 3341 0 
L 2766 0 
L 2766 531 
Q 2569 213 2275 61 
Q 1981 -91 1556 -91 
Q 1019 -91 701 211 
Q 384 513 384 1019 
Q 384 1609 779 1909 
Q 1175 2209 1959 2209 
L 2766 2209 
L 2766 2266 
Q 2766 2663 2505 2880 
Q 2244 3097 1772 3097 
Q 1472 3097 1187 3025 
Q 903 2953 641 2809 
L 641 3341 
Q 956 3463 1253 3523 
Q 1550 3584 1831 3584 
Q 2591 3584 2966 3190 
Q 3341 2797 3341 1997 
z
" transform="scale(0.015625)"/>
        <path id="DejaVuSans-6e" d="M 3513 2113 
L 3513 0 
L 2938 0 
L 2938 2094 
Q 2938 2591 2744 2837 
Q 2550 3084 2163 3084 
Q 1697 3084 1428 2787 
Q 1159 2491 1159 1978 
L 1159 0 
L 581 0 
L 581 3500 
L 1159 3500 
L 1159 2956 
Q 1366 3272 1645 3428 
Q 1925 3584 2291 3584 
Q 2894 3584 3203 3211 
Q 3513 2838 3513 2113 
z
" transform="scale(0.015625)"/>
       </defs>
       <use xlink:href="#DejaVuSans-32"/>
       <use xlink:href="#DejaVuSans-30" x="63.623047"/>
       <use xlink:href="#DejaVuSans-32" x="127.246094"/>
       <use xlink:href="#DejaVuSans-31" x="190.869141"/>
       <use xlink:href="#DejaVuSans-2d" x="254.492188"/>
       <use xlink:href="#DejaVuSans-4a" x="296.201172"/>
       <use xlink:href="#DejaVuSans-61" x="325.693359"/>
       <use xlink:href="#DejaVuSans-6e" x="386.972656"/>
       <use xlink:href="#DejaVuSans-2d" x="450.351562"/>
       <use xlink:href="#DejaVuSans-30" x="486.435547"/>
       <use xlink:href="#DejaVuSans-31" x="550.058594"/>
      </g>
     </g>
    </g>
    <g id="xtick_4">
     <g id="line2d_4">
      <g>
       <use xlink:href="#m818d32b4b4" x="150.808208" y="178.56" style="stroke: #000000; stroke-width: 0.8"/>
      </g>
     </g>
     <g id="text_4">
      <!-- 2021-Feb-01 -->
      <g transform="translate(95.127574 223.687315)rotate(-30)scale(0.1 -0.1)">
       <defs>
        <path id="DejaVuSans-46" d="M 628 4666 
L 3309 4666 
L 3309 4134 
L 1259 4134 
L 1259 2759 
L 3109 2759 
L 3109 2228 
L 1259 2228 
L 1259 0 
L 628 0 
L 628 4666 
z
" transform="scale(0.015625)"/>
        <path id="DejaVuSans-62" d="M 3116 1747 
Q 3116 2381 2855 2742 
Q 2594 3103 2138 3103 
Q 1681 3103 1420 2742 
Q 1159 2381 1159 1747 
Q 1159 1113 1420 752 
Q 1681 391 2138 391 
Q 2594 391 2855 752 
Q 3116 1113 3116 1747 
z
M 1159 2969 
Q 1341 3281 1617 3432 
Q 1894 3584 2278 3584 
Q 2916 3584 3314 3078 
Q 3713 2572 3713 1747 
Q 3713 922 3314 415 
Q 2916 -91 2278 -91 
Q 1894 -91 1617 61 
Q 1341 213 1159 525 
L 1159 0 
L 581 0 
L 581 4863 
L 1159 4863 
L 1159 2969 
z
" transform="scale(0.015625)"/>
       </defs>
       <use xlink:href="#DejaVuSans-32"/>
       <use xlink:href="#DejaVuSans-30" x="63.623047"/>
       <use xlink:href="#DejaVuSans-32" x="127.246094"/>
       <use xlink:href="#DejaVuSans-31" x="190.869141"/>
       <use xlink:href="#DejaVuSans-2d" x="254.492188"/>
       <use xlink:href="#DejaVuSans-46" x="290.576172"/>
       <use xlink:href="#DejaVuSans-65" x="342.595703"/>
       <use xlink:href="#DejaVuSans-62" x="404.119141"/>
       <use xlink:href="#DejaVuSans-2d" x="467.595703"/>
       <use xlink:href="#DejaVuSans-30" x="503.679688"/>
       <use xlink:href="#DejaVuSans-31" x="567.302734"/>
      </g>
     </g>
    </g>
    <g id="xtick_5">
     <g id="line2d_5">
      <g>
       <use xlink:href="#m818d32b4b4" x="176.003129" y="178.56" style="stroke: #000000; stroke-width: 0.8"/>
      </g>
     </g>
     <g id="text_5">
      <!-- 2021-Mar-01 -->
      <g transform="translate(119.866478 223.950596)rotate(-30)scale(0.1 -0.1)">
       <defs>
        <path id="DejaVuSans-4d" d="M 628 4666 
L 1569 4666 
L 2759 1491 
L 3956 4666 
L 4897 4666 
L 4897 0 
L 4281 0 
L 4281 4097 
L 3078 897 
L 2444 897 
L 1241 4097 
L 1241 0 
L 628 0 
L 628 4666 
z
" transform="scale(0.015625)"/>
        <path id="DejaVuSans-72" d="M 2631 2963 
Q 2534 3019 2420 3045 
Q 2306 3072 2169 3072 
Q 1681 3072 1420 2755 
Q 1159 2438 1159 1844 
L 1159 0 
L 581 0 
L 581 3500 
L 1159 3500 
L 1159 2956 
Q 1341 3275 1631 3429 
Q 1922 3584 2338 3584 
Q 2397 3584 2469 3576 
Q 2541 3569 2628 3553 
L 2631 2963 
z
" transform="scale(0.015625)"/>
       </defs>
       <use xlink:href="#DejaVuSans-32"/>
       <use xlink:href="#DejaVuSans-30" x="63.623047"/>
       <use xlink:href="#DejaVuSans-32" x="127.246094"/>
       <use xlink:href="#DejaVuSans-31" x="190.869141"/>
       <use xlink:href="#DejaVuSans-2d" x="254.492188"/>
       <use xlink:href="#DejaVuSans-4d" x="290.576172"/>
       <use xlink:href="#DejaVuSans-61" x="376.855469"/>
       <use xlink:href="#DejaVuSans-72" x="438.134766"/>
       <use xlink:href="#DejaVuSans-2d" x="472.873047"/>
       <use xlink:href="#DejaVuSans-30" x="508.957031"/>
       <use xlink:href="#DejaVuSans-31" x="572.580078"/>
      </g>
     </g>
    </g>
    <g id="xtick_6">
     <g id="line2d_6">
      <g>
       <use xlink:href="#m818d32b4b4" x="203.897505" y="178.56" style="stroke: #000000; stroke-width: 0.8"/>
      </g>
     </g>
     <g id="text_6">
      <!-- 2021-Apr-01 -->
      <g transform="translate(149.312934 223.054502)rotate(-30)scale(0.1 -0.1)">
       <defs>
        <path id="DejaVuSans-41" d="M 2188 4044 
L 1331 1722 
L 3047 1722 
L 2188 4044 
z
M 1831 4666 
L 2547 4666 
L 4325 0 
L 3669 0 
L 3244 1197 
L 1141 1197 
L 716 0 
L 50 0 
L 1831 4666 
z
" transform="scale(0.015625)"/>
        <path id="DejaVuSans-70" d="M 1159 525 
L 1159 -1331 
L 581 -1331 
L 581 3500 
L 1159 3500 
L 1159 2969 
Q 1341 3281 1617 3432 
Q 1894 3584 2278 3584 
Q 2916 3584 3314 3078 
Q 3713 2572 3713 1747 
Q 3713 922 3314 415 
Q 2916 -91 2278 -91 
Q 1894 -91 1617 61 
Q 1341 213 1159 525 
z
M 3116 1747 
Q 3116 2381 2855 2742 
Q 2594 3103 2138 3103 
Q 1681 3103 1420 2742 
Q 1159 2381 1159 1747 
Q 1159 1113 1420 752 
Q 1681 391 2138 391 
Q 2594 391 2855 752 
Q 3116 1113 3116 1747 
z
" transform="scale(0.015625)"/>
       </defs>
       <use xlink:href="#DejaVuSans-32"/>
       <use xlink:href="#DejaVuSans-30" x="63.623047"/>
       <use xlink:href="#DejaVuSans-32" x="127.246094"/>
       <use xlink:href="#DejaVuSans-31" x="190.869141"/>
       <use xlink:href="#DejaVuSans-2d" x="254.492188"/>
       <use xlink:href="#DejaVuSans-41" x="288.326172"/>
       <use xlink:href="#DejaVuSans-70" x="356.734375"/>
       <use xlink:href="#DejaVuSans-72" x="420.210938"/>
       <use xlink:href="#DejaVuSans-2d" x="454.949219"/>
       <use xlink:href="#DejaVuSans-30" x="491.033203"/>
       <use xlink:href="#DejaVuSans-31" x="554.65625"/>
      </g>
     </g>
    </g>
    <g id="xtick_7">
     <g id="line2d_7">
      <g>
       <use xlink:href="#m818d32b4b4" x="230.892062" y="178.56" style="stroke: #000000; stroke-width: 0.8"/>
      </g>
     </g>
     <g id="text_7">
      <!-- 2021-May-01 -->
      <g transform="translate(172.789264 225.085752)rotate(-30)scale(0.1 -0.1)">
       <defs>
        <path id="DejaVuSans-79" d="M 2059 -325 
Q 1816 -950 1584 -1140 
Q 1353 -1331 966 -1331 
L 506 -1331 
L 506 -850 
L 844 -850 
Q 1081 -850 1212 -737 
Q 1344 -625 1503 -206 
L 1606 56 
L 191 3500 
L 800 3500 
L 1894 763 
L 2988 3500 
L 3597 3500 
L 2059 -325 
z
" transform="scale(0.015625)"/>
       </defs>
       <use xlink:href="#DejaVuSans-32"/>
       <use xlink:href="#DejaVuSans-30" x="63.623047"/>
       <use xlink:href="#DejaVuSans-32" x="127.246094"/>
       <use xlink:href="#DejaVuSans-31" x="190.869141"/>
       <use xlink:href="#DejaVuSans-2d" x="254.492188"/>
       <use xlink:href="#DejaVuSans-4d" x="290.576172"/>
       <use xlink:href="#DejaVuSans-61" x="376.855469"/>
       <use xlink:href="#DejaVuSans-79" x="438.134766"/>
       <use xlink:href="#DejaVuSans-2d" x="495.564453"/>
       <use xlink:href="#DejaVuSans-30" x="531.648438"/>
       <use xlink:href="#DejaVuSans-31" x="595.271484"/>
      </g>
     </g>
    </g>
    <g id="xtick_8">
     <g id="line2d_8">
      <g>
       <use xlink:href="#m818d32b4b4" x="258.786439" y="178.56" style="stroke: #000000; stroke-width: 0.8"/>
      </g>
     </g>
     <g id="text_8">
      <!-- 2021-Jun-01 -->
      <g transform="translate(204.418374 222.929502)rotate(-30)scale(0.1 -0.1)">
       <defs>
        <path id="DejaVuSans-75" d="M 544 1381 
L 544 3500 
L 1119 3500 
L 1119 1403 
Q 1119 906 1312 657 
Q 1506 409 1894 409 
Q 2359 409 2629 706 
Q 2900 1003 2900 1516 
L 2900 3500 
L 3475 3500 
L 3475 0 
L 2900 0 
L 2900 538 
Q 2691 219 2414 64 
Q 2138 -91 1772 -91 
Q 1169 -91 856 284 
Q 544 659 544 1381 
z
M 1991 3584 
L 1991 3584 
z
" transform="scale(0.015625)"/>
       </defs>
       <use xlink:href="#DejaVuSans-32"/>
       <use xlink:href="#DejaVuSans-30" x="63.623047"/>
       <use xlink:href="#DejaVuSans-32" x="127.246094"/>
       <use xlink:href="#DejaVuSans-31" x="190.869141"/>
       <use xlink:href="#DejaVuSans-2d" x="254.492188"/>
       <use xlink:href="#DejaVuSans-4a" x="296.201172"/>
       <use xlink:href="#DejaVuSans-75" x="325.693359"/>
       <use xlink:href="#DejaVuSans-6e" x="389.072266"/>
       <use xlink:href="#DejaVuSans-2d" x="452.451172"/>
       <use xlink:href="#DejaVuSans-30" x="488.535156"/>
       <use xlink:href="#DejaVuSans-31" x="552.158203"/>
      </g>
     </g>
    </g>
    <g id="xtick_9">
     <g id="line2d_9">
      <g>
       <use xlink:href="#m818d32b4b4" x="285.780996" y="178.56" style="stroke: #000000; stroke-width: 0.8"/>
      </g>
     </g>
     <g id="text_9">
      <!-- 2021-Jul-01 -->
      <g transform="translate(234.495441 221.149815)rotate(-30)scale(0.1 -0.1)">
       <defs>
        <path id="DejaVuSans-6c" d="M 603 4863 
L 1178 4863 
L 1178 0 
L 603 0 
L 603 4863 
z
" transform="scale(0.015625)"/>
       </defs>
       <use xlink:href="#DejaVuSans-32"/>
       <use xlink:href="#DejaVuSans-30" x="63.623047"/>
       <use xlink:href="#DejaVuSans-32" x="127.246094"/>
       <use xlink:href="#DejaVuSans-31" x="190.869141"/>
       <use xlink:href="#DejaVuSans-2d" x="254.492188"/>
       <use xlink:href="#DejaVuSans-4a" x="296.201172"/>
       <use xlink:href="#DejaVuSans-75" x="325.693359"/>
       <use xlink:href="#DejaVuSans-6c" x="389.072266"/>
       <use xlink:href="#DejaVuSans-2d" x="416.855469"/>
       <use xlink:href="#DejaVuSans-30" x="452.939453"/>
       <use xlink:href="#DejaVuSans-31" x="516.5625"/>
      </g>
     </g>
    </g>
    <g id="xtick_10">
     <g id="line2d_10">
      <g>
       <use xlink:href="#m818d32b4b4" x="313.675372" y="178.56" style="stroke: #000000; stroke-width: 0.8"/>
      </g>
     </g>
     <g id="text_10">
      <!-- 2021-Aug-01 -->
      <g transform="translate(256.610451 224.486534)rotate(-30)scale(0.1 -0.1)">
       <defs>
        <path id="DejaVuSans-67" d="M 2906 1791 
Q 2906 2416 2648 2759 
Q 2391 3103 1925 3103 
Q 1463 3103 1205 2759 
Q 947 2416 947 1791 
Q 947 1169 1205 825 
Q 1463 481 1925 481 
Q 2391 481 2648 825 
Q 2906 1169 2906 1791 
z
M 3481 434 
Q 3481 -459 3084 -895 
Q 2688 -1331 1869 -1331 
Q 1566 -1331 1297 -1286 
Q 1028 -1241 775 -1147 
L 775 -588 
Q 1028 -725 1275 -790 
Q 1522 -856 1778 -856 
Q 2344 -856 2625 -561 
Q 2906 -266 2906 331 
L 2906 616 
Q 2728 306 2450 153 
Q 2172 0 1784 0 
Q 1141 0 747 490 
Q 353 981 353 1791 
Q 353 2603 747 3093 
Q 1141 3584 1784 3584 
Q 2172 3584 2450 3431 
Q 2728 3278 2906 2969 
L 2906 3500 
L 3481 3500 
L 3481 434 
z
" transform="scale(0.015625)"/>
       </defs>
       <use xlink:href="#DejaVuSans-32"/>
       <use xlink:href="#DejaVuSans-30" x="63.623047"/>
       <use xlink:href="#DejaVuSans-32" x="127.246094"/>
       <use xlink:href="#DejaVuSans-31" x="190.869141"/>
       <use xlink:href="#DejaVuSans-2d" x="254.492188"/>
       <use xlink:href="#DejaVuSans-41" x="288.326172"/>
       <use xlink:href="#DejaVuSans-75" x="356.734375"/>
       <use xlink:href="#DejaVuSans-67" x="420.113281"/>
       <use xlink:href="#DejaVuSans-2d" x="483.589844"/>
       <use xlink:href="#DejaVuSans-30" x="519.673828"/>
       <use xlink:href="#DejaVuSans-31" x="583.296875"/>
      </g>
     </g>
    </g>
    <g id="xtick_11">
     <g id="line2d_11">
      <g>
       <use xlink:href="#m818d32b4b4" x="341.569748" y="178.56" style="stroke: #000000; stroke-width: 0.8"/>
      </g>
     </g>
     <g id="text_11">
      <!-- 2021-Sep-01 -->
      <g transform="translate(284.895891 224.260752)rotate(-30)scale(0.1 -0.1)">
       <defs>
        <path id="DejaVuSans-53" d="M 3425 4513 
L 3425 3897 
Q 3066 4069 2747 4153 
Q 2428 4238 2131 4238 
Q 1616 4238 1336 4038 
Q 1056 3838 1056 3469 
Q 1056 3159 1242 3001 
Q 1428 2844 1947 2747 
L 2328 2669 
Q 3034 2534 3370 2195 
Q 3706 1856 3706 1288 
Q 3706 609 3251 259 
Q 2797 -91 1919 -91 
Q 1588 -91 1214 -16 
Q 841 59 441 206 
L 441 856 
Q 825 641 1194 531 
Q 1563 422 1919 422 
Q 2459 422 2753 634 
Q 3047 847 3047 1241 
Q 3047 1584 2836 1778 
Q 2625 1972 2144 2069 
L 1759 2144 
Q 1053 2284 737 2584 
Q 422 2884 422 3419 
Q 422 4038 858 4394 
Q 1294 4750 2059 4750 
Q 2388 4750 2728 4690 
Q 3069 4631 3425 4513 
z
" transform="scale(0.015625)"/>
       </defs>
       <use xlink:href="#DejaVuSans-32"/>
       <use xlink:href="#DejaVuSans-30" x="63.623047"/>
       <use xlink:href="#DejaVuSans-32" x="127.246094"/>
       <use xlink:href="#DejaVuSans-31" x="190.869141"/>
       <use xlink:href="#DejaVuSans-2d" x="254.492188"/>
       <use xlink:href="#DejaVuSans-53" x="290.576172"/>
       <use xlink:href="#DejaVuSans-65" x="354.052734"/>
       <use xlink:href="#DejaVuSans-70" x="415.576172"/>
       <use xlink:href="#DejaVuSans-2d" x="479.052734"/>
       <use xlink:href="#DejaVuSans-30" x="515.136719"/>
       <use xlink:href="#DejaVuSans-31" x="578.759766"/>
      </g>
     </g>
    </g>
    <g id="xtick_12">
     <g id="line2d_12">
      <g>
       <use xlink:href="#m818d32b4b4" x="368.564306" y="178.56" style="stroke: #000000; stroke-width: 0.8"/>
      </g>
     </g>
     <g id="text_12">
      <!-- 2021-Oct-01 -->
      <g transform="translate(313.00275 223.618565)rotate(-30)scale(0.1 -0.1)">
       <defs>
        <path id="DejaVuSans-4f" d="M 2522 4238 
Q 1834 4238 1429 3725 
Q 1025 3213 1025 2328 
Q 1025 1447 1429 934 
Q 1834 422 2522 422 
Q 3209 422 3611 934 
Q 4013 1447 4013 2328 
Q 4013 3213 3611 3725 
Q 3209 4238 2522 4238 
z
M 2522 4750 
Q 3503 4750 4090 4092 
Q 4678 3434 4678 2328 
Q 4678 1225 4090 567 
Q 3503 -91 2522 -91 
Q 1538 -91 948 565 
Q 359 1222 359 2328 
Q 359 3434 948 4092 
Q 1538 4750 2522 4750 
z
" transform="scale(0.015625)"/>
        <path id="DejaVuSans-74" d="M 1172 4494 
L 1172 3500 
L 2356 3500 
L 2356 3053 
L 1172 3053 
L 1172 1153 
Q 1172 725 1289 603 
Q 1406 481 1766 481 
L 2356 481 
L 2356 0 
L 1766 0 
Q 1100 0 847 248 
Q 594 497 594 1153 
L 594 3053 
L 172 3053 
L 172 3500 
L 594 3500 
L 594 4494 
L 1172 4494 
z
" transform="scale(0.015625)"/>
       </defs>
       <use xlink:href="#DejaVuSans-32"/>
       <use xlink:href="#DejaVuSans-30" x="63.623047"/>
       <use xlink:href="#DejaVuSans-32" x="127.246094"/>
       <use xlink:href="#DejaVuSans-31" x="190.869141"/>
       <use xlink:href="#DejaVuSans-2d" x="254.492188"/>
       <use xlink:href="#DejaVuSans-4f" x="293.326172"/>
       <use xlink:href="#DejaVuSans-63" x="372.037109"/>
       <use xlink:href="#DejaVuSans-74" x="427.017578"/>
       <use xlink:href="#DejaVuSans-2d" x="466.226562"/>
       <use xlink:href="#DejaVuSans-30" x="502.310547"/>
       <use xlink:href="#DejaVuSans-31" x="565.933594"/>
      </g>
     </g>
    </g>
    <g id="xtick_13">
     <g id="line2d_13">
      <g>
       <use xlink:href="#m818d32b4b4" x="396.458682" y="178.56" style="stroke: #000000; stroke-width: 0.8"/>
      </g>
     </g>
     <g id="text_13">
      <!-- 2021-Nov-01 -->
      <g transform="translate(339.433002 224.463877)rotate(-30)scale(0.1 -0.1)">
       <use xlink:href="#DejaVuSans-32"/>
       <use xlink:href="#DejaVuSans-30" x="63.623047"/>
       <use xlink:href="#DejaVuSans-32" x="127.246094"/>
       <use xlink:href="#DejaVuSans-31" x="190.869141"/>
       <use xlink:href="#DejaVuSans-2d" x="254.492188"/>
       <use xlink:href="#DejaVuSans-4e" x="290.576172"/>
       <use xlink:href="#DejaVuSans-6f" x="365.380859"/>
       <use xlink:href="#DejaVuSans-76" x="426.5625"/>
       <use xlink:href="#DejaVuSans-2d" x="483.117188"/>
       <use xlink:href="#DejaVuSans-30" x="519.201172"/>
       <use xlink:href="#DejaVuSans-31" x="582.824219"/>
      </g>
     </g>
    </g>
    <g id="xtick_14">
     <g id="line2d_14">
      <g>
       <use xlink:href="#m818d32b4b4" x="423.45324" y="178.56" style="stroke: #000000; stroke-width: 0.8"/>
      </g>
     </g>
     <g id="text_14">
      <!-- 2021-Dec-01 -->
      <g transform="translate(366.345017 224.511534)rotate(-30)scale(0.1 -0.1)">
       <use xlink:href="#DejaVuSans-32"/>
       <use xlink:href="#DejaVuSans-30" x="63.623047"/>
       <use xlink:href="#DejaVuSans-32" x="127.246094"/>
       <use xlink:href="#DejaVuSans-31" x="190.869141"/>
       <use xlink:href="#DejaVuSans-2d" x="254.492188"/>
       <use xlink:href="#DejaVuSans-44" x="290.576172"/>
       <use xlink:href="#DejaVuSans-65" x="367.578125"/>
       <use xlink:href="#DejaVuSans-63" x="429.101562"/>
       <use xlink:href="#DejaVuSans-2d" x="484.082031"/>
       <use xlink:href="#DejaVuSans-30" x="520.166016"/>
       <use xlink:href="#DejaVuSans-31" x="583.789062"/>
      </g>
     </g>
    </g>
    <g id="xtick_15">
     <g id="line2d_15">
      <g>
       <use xlink:href="#m818d32b4b4" x="451.347616" y="178.56" style="stroke: #000000; stroke-width: 0.8"/>
      </g>
     </g>
     <g id="text_15">
      <!-- 2022-Jan-01 -->
      <g transform="translate(397.160875 222.824815)rotate(-30)scale(0.1 -0.1)">
       <use xlink:href="#DejaVuSans-32"/>
       <use xlink:href="#DejaVuSans-30" x="63.623047"/>
       <use xlink:href="#DejaVuSans-32" x="127.246094"/>
       <use xlink:href="#DejaVuSans-32" x="190.869141"/>
       <use xlink:href="#DejaVuSans-2d" x="254.492188"/>
       <use xlink:href="#DejaVuSans-4a" x="296.201172"/>
       <use xlink:href="#DejaVuSans-61" x="325.693359"/>
       <use xlink:href="#DejaVuSans-6e" x="386.972656"/>
       <use xlink:href="#DejaVuSans-2d" x="450.351562"/>
       <use xlink:href="#DejaVuSans-30" x="486.435547"/>
       <use xlink:href="#DejaVuSans-31" x="550.058594"/>
      </g>
     </g>
    </g>
    <g id="xtick_16">
     <g id="line2d_16">
      <g>
       <use xlink:href="#m818d32b4b4" x="479.241992" y="178.56" style="stroke: #000000; stroke-width: 0.8"/>
      </g>
     </g>
     <g id="text_16">
      <!-- 2022-Feb-01 -->
      <g transform="translate(423.561358 223.687315)rotate(-30)scale(0.1 -0.1)">
       <use xlink:href="#DejaVuSans-32"/>
       <use xlink:href="#DejaVuSans-30" x="63.623047"/>
       <use xlink:href="#DejaVuSans-32" x="127.246094"/>
       <use xlink:href="#DejaVuSans-32" x="190.869141"/>
       <use xlink:href="#DejaVuSans-2d" x="254.492188"/>
       <use xlink:href="#DejaVuSans-46" x="290.576172"/>
       <use xlink:href="#DejaVuSans-65" x="342.595703"/>
       <use xlink:href="#DejaVuSans-62" x="404.119141"/>
       <use xlink:href="#DejaVuSans-2d" x="467.595703"/>
       <use xlink:href="#DejaVuSans-30" x="503.679688"/>
       <use xlink:href="#DejaVuSans-31" x="567.302734"/>
      </g>
     </g>
    </g>
   </g>
   <g id="matplotlib.axis_2">
    <g id="ytick_1">
     <g id="line2d_17">
      <path d="M 53.132901 163.627506 
L 499.532901 163.627506 
" clip-path="url(#pbf5b421fe2)" style="fill: none; stroke: #b0b0b0; stroke-width: 0.8; stroke-linecap: square"/>
     </g>
     <g id="line2d_18">
      <defs>
       <path id="m2be3149d36" d="M 0 0 
L -3.5 0 
" style="stroke: #000000; stroke-width: 0.8"/>
      </defs>
      <g>
       <use xlink:href="#m2be3149d36" x="53.132901" y="163.627506" style="stroke: #000000; stroke-width: 0.8"/>
      </g>
     </g>
     <g id="text_17">
      <!-- 12 -->
      <g transform="translate(33.407901 167.426725)scale(0.1 -0.1)">
       <use xlink:href="#DejaVuSans-31"/>
       <use xlink:href="#DejaVuSans-32" x="63.623047"/>
      </g>
     </g>
    </g>
    <g id="ytick_2">
     <g id="line2d_19">
      <path d="M 53.132901 141.929165 
L 499.532901 141.929165 
" clip-path="url(#pbf5b421fe2)" style="fill: none; stroke: #b0b0b0; stroke-width: 0.8; stroke-linecap: square"/>
     </g>
     <g id="line2d_20">
      <g>
       <use xlink:href="#m2be3149d36" x="53.132901" y="141.929165" style="stroke: #000000; stroke-width: 0.8"/>
      </g>
     </g>
     <g id="text_18">
      <!-- 14 -->
      <g transform="translate(33.407901 145.728383)scale(0.1 -0.1)">
       <defs>
        <path id="DejaVuSans-34" d="M 2419 4116 
L 825 1625 
L 2419 1625 
L 2419 4116 
z
M 2253 4666 
L 3047 4666 
L 3047 1625 
L 3713 1625 
L 3713 1100 
L 3047 1100 
L 3047 0 
L 2419 0 
L 2419 1100 
L 313 1100 
L 313 1709 
L 2253 4666 
z
" transform="scale(0.015625)"/>
       </defs>
       <use xlink:href="#DejaVuSans-31"/>
       <use xlink:href="#DejaVuSans-34" x="63.623047"/>
      </g>
     </g>
    </g>
    <g id="ytick_3">
     <g id="line2d_21">
      <path d="M 53.132901 120.230823 
L 499.532901 120.230823 
" clip-path="url(#pbf5b421fe2)" style="fill: none; stroke: #b0b0b0; stroke-width: 0.8; stroke-linecap: square"/>
     </g>
     <g id="line2d_22">
      <g>
       <use xlink:href="#m2be3149d36" x="53.132901" y="120.230823" style="stroke: #000000; stroke-width: 0.8"/>
      </g>
     </g>
     <g id="text_19">
      <!-- 16 -->
      <g transform="translate(33.407901 124.030041)scale(0.1 -0.1)">
       <defs>
        <path id="DejaVuSans-36" d="M 2113 2584 
Q 1688 2584 1439 2293 
Q 1191 2003 1191 1497 
Q 1191 994 1439 701 
Q 1688 409 2113 409 
Q 2538 409 2786 701 
Q 3034 994 3034 1497 
Q 3034 2003 2786 2293 
Q 2538 2584 2113 2584 
z
M 3366 4563 
L 3366 3988 
Q 3128 4100 2886 4159 
Q 2644 4219 2406 4219 
Q 1781 4219 1451 3797 
Q 1122 3375 1075 2522 
Q 1259 2794 1537 2939 
Q 1816 3084 2150 3084 
Q 2853 3084 3261 2657 
Q 3669 2231 3669 1497 
Q 3669 778 3244 343 
Q 2819 -91 2113 -91 
Q 1303 -91 875 529 
Q 447 1150 447 2328 
Q 447 3434 972 4092 
Q 1497 4750 2381 4750 
Q 2619 4750 2861 4703 
Q 3103 4656 3366 4563 
z
" transform="scale(0.015625)"/>
       </defs>
       <use xlink:href="#DejaVuSans-31"/>
       <use xlink:href="#DejaVuSans-36" x="63.623047"/>
      </g>
     </g>
    </g>
    <g id="ytick_4">
     <g id="line2d_23">
      <path d="M 53.132901 98.532481 
L 499.532901 98.532481 
" clip-path="url(#pbf5b421fe2)" style="fill: none; stroke: #b0b0b0; stroke-width: 0.8; stroke-linecap: square"/>
     </g>
     <g id="line2d_24">
      <g>
       <use xlink:href="#m2be3149d36" x="53.132901" y="98.532481" style="stroke: #000000; stroke-width: 0.8"/>
      </g>
     </g>
     <g id="text_20">
      <!-- 18 -->
      <g transform="translate(33.407901 102.3317)scale(0.1 -0.1)">
       <defs>
        <path id="DejaVuSans-38" d="M 2034 2216 
Q 1584 2216 1326 1975 
Q 1069 1734 1069 1313 
Q 1069 891 1326 650 
Q 1584 409 2034 409 
Q 2484 409 2743 651 
Q 3003 894 3003 1313 
Q 3003 1734 2745 1975 
Q 2488 2216 2034 2216 
z
M 1403 2484 
Q 997 2584 770 2862 
Q 544 3141 544 3541 
Q 544 4100 942 4425 
Q 1341 4750 2034 4750 
Q 2731 4750 3128 4425 
Q 3525 4100 3525 3541 
Q 3525 3141 3298 2862 
Q 3072 2584 2669 2484 
Q 3125 2378 3379 2068 
Q 3634 1759 3634 1313 
Q 3634 634 3220 271 
Q 2806 -91 2034 -91 
Q 1263 -91 848 271 
Q 434 634 434 1313 
Q 434 1759 690 2068 
Q 947 2378 1403 2484 
z
M 1172 3481 
Q 1172 3119 1398 2916 
Q 1625 2713 2034 2713 
Q 2441 2713 2670 2916 
Q 2900 3119 2900 3481 
Q 2900 3844 2670 4047 
Q 2441 4250 2034 4250 
Q 1625 4250 1398 4047 
Q 1172 3844 1172 3481 
z
" transform="scale(0.015625)"/>
       </defs>
       <use xlink:href="#DejaVuSans-31"/>
       <use xlink:href="#DejaVuSans-38" x="63.623047"/>
      </g>
     </g>
    </g>
    <g id="ytick_5">
     <g id="line2d_25">
      <path d="M 53.132901 76.834139 
L 499.532901 76.834139 
" clip-path="url(#pbf5b421fe2)" style="fill: none; stroke: #b0b0b0; stroke-width: 0.8; stroke-linecap: square"/>
     </g>
     <g id="line2d_26">
      <g>
       <use xlink:href="#m2be3149d36" x="53.132901" y="76.834139" style="stroke: #000000; stroke-width: 0.8"/>
      </g>
     </g>
     <g id="text_21">
      <!-- 20 -->
      <g transform="translate(33.407901 80.633358)scale(0.1 -0.1)">
       <use xlink:href="#DejaVuSans-32"/>
       <use xlink:href="#DejaVuSans-30" x="63.623047"/>
      </g>
     </g>
    </g>
    <g id="ytick_6">
     <g id="line2d_27">
      <path d="M 53.132901 55.135797 
L 499.532901 55.135797 
" clip-path="url(#pbf5b421fe2)" style="fill: none; stroke: #b0b0b0; stroke-width: 0.8; stroke-linecap: square"/>
     </g>
     <g id="line2d_28">
      <g>
       <use xlink:href="#m2be3149d36" x="53.132901" y="55.135797" style="stroke: #000000; stroke-width: 0.8"/>
      </g>
     </g>
     <g id="text_22">
      <!-- 22 -->
      <g transform="translate(33.407901 58.935016)scale(0.1 -0.1)">
       <use xlink:href="#DejaVuSans-32"/>
       <use xlink:href="#DejaVuSans-32" x="63.623047"/>
      </g>
     </g>
    </g>
    <g id="ytick_7">
     <g id="line2d_29">
      <path d="M 53.132901 33.437455 
L 499.532901 33.437455 
" clip-path="url(#pbf5b421fe2)" style="fill: none; stroke: #b0b0b0; stroke-width: 0.8; stroke-linecap: square"/>
     </g>
     <g id="line2d_30">
      <g>
       <use xlink:href="#m2be3149d36" x="53.132901" y="33.437455" style="stroke: #000000; stroke-width: 0.8"/>
      </g>
     </g>
     <g id="text_23">
      <!-- 24 -->
      <g transform="translate(33.407901 37.236674)scale(0.1 -0.1)">
       <use xlink:href="#DejaVuSans-32"/>
       <use xlink:href="#DejaVuSans-34" x="63.623047"/>
      </g>
     </g>
    </g>
    <g id="ytick_8">
     <g id="line2d_31">
      <path d="M 53.132901 11.739113 
L 499.532901 11.739113 
" clip-path="url(#pbf5b421fe2)" style="fill: none; stroke: #b0b0b0; stroke-width: 0.8; stroke-linecap: square"/>
     </g>
     <g id="line2d_32">
      <g>
       <use xlink:href="#m2be3149d36" x="53.132901" y="11.739113" style="stroke: #000000; stroke-width: 0.8"/>
      </g>
     </g>
     <g id="text_24">
      <!-- 26 -->
      <g transform="translate(33.407901 15.538332)scale(0.1 -0.1)">
       <use xlink:href="#DejaVuSans-32"/>
       <use xlink:href="#DejaVuSans-36" x="63.623047"/>
      </g>
     </g>
    </g>
    <g id="text_25">
     <!-- Percentage Of Domains -->
     <g transform="translate(27.328213 151.883125)rotate(-90)scale(0.1 -0.1)">
      <defs>
       <path id="DejaVuSans-50" d="M 1259 4147 
L 1259 2394 
L 2053 2394 
Q 2494 2394 2734 2622 
Q 2975 2850 2975 3272 
Q 2975 3691 2734 3919 
Q 2494 4147 2053 4147 
L 1259 4147 
z
M 628 4666 
L 2053 4666 
Q 2838 4666 3239 4311 
Q 3641 3956 3641 3272 
Q 3641 2581 3239 2228 
Q 2838 1875 2053 1875 
L 1259 1875 
L 1259 0 
L 628 0 
L 628 4666 
z
" transform="scale(0.015625)"/>
       <path id="DejaVuSans-20" transform="scale(0.015625)"/>
       <path id="DejaVuSans-66" d="M 2375 4863 
L 2375 4384 
L 1825 4384 
Q 1516 4384 1395 4259 
Q 1275 4134 1275 3809 
L 1275 3500 
L 2222 3500 
L 2222 3053 
L 1275 3053 
L 1275 0 
L 697 0 
L 697 3053 
L 147 3053 
L 147 3500 
L 697 3500 
L 697 3744 
Q 697 4328 969 4595 
Q 1241 4863 1831 4863 
L 2375 4863 
z
" transform="scale(0.015625)"/>
       <path id="DejaVuSans-6d" d="M 3328 2828 
Q 3544 3216 3844 3400 
Q 4144 3584 4550 3584 
Q 5097 3584 5394 3201 
Q 5691 2819 5691 2113 
L 5691 0 
L 5113 0 
L 5113 2094 
Q 5113 2597 4934 2840 
Q 4756 3084 4391 3084 
Q 3944 3084 3684 2787 
Q 3425 2491 3425 1978 
L 3425 0 
L 2847 0 
L 2847 2094 
Q 2847 2600 2669 2842 
Q 2491 3084 2119 3084 
Q 1678 3084 1418 2786 
Q 1159 2488 1159 1978 
L 1159 0 
L 581 0 
L 581 3500 
L 1159 3500 
L 1159 2956 
Q 1356 3278 1631 3431 
Q 1906 3584 2284 3584 
Q 2666 3584 2933 3390 
Q 3200 3197 3328 2828 
z
" transform="scale(0.015625)"/>
       <path id="DejaVuSans-69" d="M 603 3500 
L 1178 3500 
L 1178 0 
L 603 0 
L 603 3500 
z
M 603 4863 
L 1178 4863 
L 1178 4134 
L 603 4134 
L 603 4863 
z
" transform="scale(0.015625)"/>
       <path id="DejaVuSans-73" d="M 2834 3397 
L 2834 2853 
Q 2591 2978 2328 3040 
Q 2066 3103 1784 3103 
Q 1356 3103 1142 2972 
Q 928 2841 928 2578 
Q 928 2378 1081 2264 
Q 1234 2150 1697 2047 
L 1894 2003 
Q 2506 1872 2764 1633 
Q 3022 1394 3022 966 
Q 3022 478 2636 193 
Q 2250 -91 1575 -91 
Q 1294 -91 989 -36 
Q 684 19 347 128 
L 347 722 
Q 666 556 975 473 
Q 1284 391 1588 391 
Q 1994 391 2212 530 
Q 2431 669 2431 922 
Q 2431 1156 2273 1281 
Q 2116 1406 1581 1522 
L 1381 1569 
Q 847 1681 609 1914 
Q 372 2147 372 2553 
Q 372 3047 722 3315 
Q 1072 3584 1716 3584 
Q 2034 3584 2315 3537 
Q 2597 3491 2834 3397 
z
" transform="scale(0.015625)"/>
      </defs>
      <use xlink:href="#DejaVuSans-50"/>
      <use xlink:href="#DejaVuSans-65" x="56.677734"/>
      <use xlink:href="#DejaVuSans-72" x="118.201172"/>
      <use xlink:href="#DejaVuSans-63" x="157.064453"/>
      <use xlink:href="#DejaVuSans-65" x="212.044922"/>
      <use xlink:href="#DejaVuSans-6e" x="273.568359"/>
      <use xlink:href="#DejaVuSans-74" x="336.947266"/>
      <use xlink:href="#DejaVuSans-61" x="376.15625"/>
      <use xlink:href="#DejaVuSans-67" x="437.435547"/>
      <use xlink:href="#DejaVuSans-65" x="500.912109"/>
      <use xlink:href="#DejaVuSans-20" x="562.435547"/>
      <use xlink:href="#DejaVuSans-4f" x="594.222656"/>
      <use xlink:href="#DejaVuSans-66" x="672.933594"/>
      <use xlink:href="#DejaVuSans-20" x="708.138672"/>
      <use xlink:href="#DejaVuSans-44" x="739.925781"/>
      <use xlink:href="#DejaVuSans-6f" x="816.927734"/>
      <use xlink:href="#DejaVuSans-6d" x="878.109375"/>
      <use xlink:href="#DejaVuSans-61" x="975.521484"/>
      <use xlink:href="#DejaVuSans-69" x="1036.800781"/>
      <use xlink:href="#DejaVuSans-6e" x="1064.583984"/>
      <use xlink:href="#DejaVuSans-73" x="1127.962891"/>
     </g>
    </g>
   </g>
   <g id="line2d_33">
    <path d="M 73.42381 157.74526 
L 76.123266 157.843538 
L 77.922903 157.248247 
L 78.822722 156.833087 
L 80.622359 156.735271 
L 82.421996 156.754784 
L 84.221633 156.550971 
L 85.121452 156.323306 
L 86.921089 156.230288 
L 90.520363 155.678023 
L 91.420182 155.749602 
L 93.219819 155.625021 
L 94.119637 155.651978 
L 95.919275 155.320852 
L 96.819093 154.974261 
L 102.218005 153.779382 
L 103.117823 153.37464 
L 104.917461 152.77405 
L 105.817279 152.885114 
L 109.416553 151.927293 
L 110.316372 151.623761 
L 114.815465 150.865873 
L 117.514921 150.760159 
L 118.414739 150.787248 
L 122.913832 150.386105 
L 124.713469 150.358939 
L 125.613288 150.950059 
L 126.513107 150.486812 
L 128.312744 150.08344 
L 130.112381 150.053474 
L 131.012199 150.259334 
L 132.811837 150.18389 
L 135.511292 150.088175 
L 139.110567 148.969124 
L 140.910204 148.345591 
L 141.810022 147.758099 
L 142.709841 147.541756 
L 151.708027 143.64079 
L 153.507664 142.851882 
L 154.407483 142.620951 
L 156.20712 142.710176 
L 157.106938 142.434713 
L 158.006757 141.487127 
L 158.906576 142.642686 
L 160.706213 143.766315 
L 161.606031 144.883796 
L 162.50585 143.023119 
L 163.405669 143.203682 
L 165.205306 142.41552 
L 166.105124 142.074486 
L 167.904761 140.938243 
L 168.80458 140.706773 
L 169.704399 140.865081 
L 171.504036 140.561341 
L 172.403854 140.785421 
L 173.303673 141.452611 
L 176.003129 142.264529 
L 177.802766 142.206055 
L 178.702584 142.09196 
L 179.602403 142.231177 
L 181.40204 142.104789 
L 183.201677 142.078901 
L 185.001315 141.648273 
L 186.800952 141.670637 
L 187.70077 142.999264 
L 188.600589 143.17997 
L 200.298231 141.135244 
L 202.097868 141.199668 
L 205.697142 140.822894 
L 207.496779 140.841968 
L 208.396598 140.849887 
L 209.296416 140.71917 
L 210.196235 140.447119 
L 211.995872 140.183446 
L 218.294602 139.279925 
L 220.994058 139.461006 
L 221.893877 139.304138 
L 224.593332 138.95967 
L 225.493151 139.241051 
L 228.192607 139.100613 
L 232.6917 138.098859 
L 233.591518 136.705019 
L 234.491337 137.963955 
L 235.391155 135.146901 
L 237.190792 135.044896 
L 238.99043 135.010387 
L 240.790067 134.923456 
L 241.689885 135.012533 
L 243.489523 134.903564 
L 247.088797 134.686883 
L 248.888434 134.47459 
L 251.58789 134.444265 
L 252.487708 134.074082 
L 253.387527 134.047856 
L 254.287346 133.770929 
L 256.086983 133.733657 
L 259.686257 133.612248 
L 260.586076 133.027085 
L 261.485894 132.911974 
L 265.085169 133.071263 
L 265.984987 132.523716 
L 267.784624 132.318133 
L 269.584262 132.16901 
L 270.48408 131.800183 
L 272.283717 131.947714 
L 273.183536 131.650255 
L 274.983173 131.79003 
L 275.882992 131.491381 
L 282.181722 131.128499 
L 287.580633 130.587593 
L 288.480452 130.705046 
L 313.675372 127.742575 
L 314.575191 127.871429 
L 315.475009 127.855468 
L 317.274647 127.478178 
L 320.873921 126.975073 
L 321.773739 126.872393 
L 322.673558 126.621156 
L 324.473195 126.411683 
L 326.272832 126.403749 
L 329.872107 125.901188 
L 346.96866 124.397987 
L 348.768297 123.843304 
L 349.668116 123.712229 
L 350.567934 123.83834 
L 353.26739 123.479778 
L 355.067027 123.016541 
L 355.966846 123.060856 
L 356.866664 122.631357 
L 357.766483 120.991067 
L 358.666301 122.244443 
L 359.56612 122.877191 
L 360.465939 122.471912 
L 365.86485 122.302769 
L 366.764669 121.992554 
L 367.664487 121.889325 
L 368.564306 121.667922 
L 370.363943 121.815005 
L 371.263762 121.74193 
L 373.063399 121.389907 
L 373.963217 121.662811 
L 374.863036 121.12467 
L 375.762855 121.026388 
L 377.562492 121.085994 
L 378.46231 121.037932 
L 379.362129 121.118016 
L 380.261948 120.611808 
L 381.161766 120.811248 
L 382.061585 120.867599 
L 382.961403 120.239483 
L 383.861222 120.345502 
L 384.76104 120.284719 
L 386.560678 120.016584 
L 390.159952 120.161458 
L 391.059771 119.896307 
L 391.959589 119.470197 
L 393.759226 119.148193 
L 396.458682 119.069092 
L 398.258319 118.931406 
L 399.158138 118.551565 
L 400.057956 118.392604 
L 401.857594 118.537363 
L 402.757412 118.43217 
L 403.657231 118.491518 
L 404.557049 118.32117 
L 407.256505 115.093704 
L 408.156324 118.118594 
L 409.056142 118.472229 
L 409.955961 117.587606 
L 410.855779 117.995977 
L 412.655417 117.88023 
L 413.555235 117.62861 
L 415.354872 117.74393 
L 417.154509 117.490788 
L 418.054328 117.199815 
L 418.954147 117.357303 
L 420.753784 117.207387 
L 421.653602 117.432276 
L 422.553421 117.198011 
L 423.45324 117.173157 
L 424.353058 116.765386 
L 426.152695 116.965983 
L 427.952333 116.887625 
L 430.651788 116.316247 
L 432.451425 116.386302 
L 433.351244 115.848323 
L 434.251063 116.344898 
L 435.150881 116.162019 
L 436.0507 116.328491 
L 436.950518 116.06096 
L 437.850337 115.987484 
L 440.549793 116.191888 
L 442.34943 115.857053 
L 443.249248 115.676561 
L 445.048886 115.779427 
L 445.948704 115.920065 
L 446.848523 115.808966 
L 449.547979 115.805376 
L 453.147253 115.743481 
L 454.047071 115.566395 
L 456.746527 115.371754 
L 457.646346 115.178068 
L 459.445983 115.12475 
L 463.045257 114.615292 
L 463.945076 114.302942 
L 464.844894 114.418285 
L 465.744713 114.353888 
L 466.644532 113.886971 
L 467.54435 114.122668 
L 469.343987 113.773807 
L 473.84308 113.204974 
L 475.642718 112.754932 
L 476.542536 112.624243 
L 477.442355 112.663276 
L 479.241992 112.356521 
L 479.241992 112.356521 
" clip-path="url(#pbf5b421fe2)" style="fill: none; stroke: #008000; stroke-width: 1.5; stroke-linecap: square"/>
   </g>
   <g id="line2d_34">
    <path d="M 73.42381 26.910885 
L 76.123266 26.551095 
L 78.822722 25.491579 
L 80.622359 25.361339 
L 83.321814 25.521597 
L 84.221633 25.102735 
L 85.121452 24.953397 
L 89.620545 24.749959 
L 90.520363 24.545297 
L 94.119637 24.612351 
L 95.919275 24.803533 
L 96.819093 24.401217 
L 99.518549 24.274452 
L 101.318186 24.47566 
L 104.917461 24.123746 
L 105.817279 24.467809 
L 107.616916 24.684756 
L 109.416553 24.221921 
L 110.316372 24.087691 
L 112.116009 24.151767 
L 113.015828 24.306586 
L 113.915646 24.323437 
L 115.715284 24.043812 
L 116.615102 24.004923 
L 120.214376 24.355272 
L 122.913832 24.20832 
L 126.513107 24.774983 
L 128.312744 24.060707 
L 131.012199 23.913068 
L 131.912018 23.763796 
L 132.811837 23.801839 
L 135.511292 23.472527 
L 138.210748 23.479557 
L 139.110567 23.5994 
L 140.010385 23.582709 
L 140.910204 23.400165 
L 142.709841 23.425189 
L 150.808208 24.027452 
L 151.708027 24.259946 
L 154.407483 23.923667 
L 155.307301 24.114991 
L 158.006757 24.112191 
L 158.906576 24.346753 
L 161.606031 24.171148 
L 164.305487 24.212039 
L 165.205306 24.156358 
L 167.004943 23.872482 
L 168.80458 23.847459 
L 169.704399 23.981965 
L 171.504036 23.804362 
L 174.203492 23.354223 
L 176.003129 23.281613 
L 176.902947 23.22592 
L 178.702584 22.612987 
L 179.602403 22.507082 
L 181.40204 21.908629 
L 182.301859 21.814751 
L 183.201677 21.850868 
L 186.800952 21.29178 
L 188.600589 21.400603 
L 200.298231 19.932716 
L 202.097868 20.052009 
L 205.697142 19.709883 
L 208.396598 19.798703 
L 209.296416 20.017453 
L 210.196235 19.621811 
L 211.995872 19.560284 
L 215.595146 19.595657 
L 218.294602 19.39488 
L 221.893877 19.403924 
L 224.593332 19.180235 
L 227.292788 19.532791 
L 229.092425 19.170736 
L 232.6917 19.391522 
L 233.591518 19.169508 
L 234.491337 19.438199 
L 235.391155 20.78975 
L 237.190792 20.695529 
L 238.090611 20.675831 
L 238.99043 20.810965 
L 241.689885 20.728392 
L 242.589704 20.57206 
L 243.489523 20.680477 
L 244.389341 20.578023 
L 245.28916 20.749371 
L 247.088797 20.650234 
L 249.788253 20.22141 
L 251.58789 20.452295 
L 255.187164 20.075377 
L 256.986801 20.044815 
L 258.786439 20.225614 
L 259.686257 20.116637 
L 261.485894 19.690927 
L 263.285531 19.628561 
L 265.085169 19.810973 
L 267.784624 19.348276 
L 270.48408 19.041355 
L 271.383899 19.133285 
L 274.083354 18.786428 
L 276.78281 18.726027 
L 277.682629 18.80765 
L 279.482266 18.38671 
L 282.181722 18.24421 
L 283.981359 18.318989 
L 287.580633 17.609949 
L 288.480452 17.741959 
L 313.675372 18.375128 
L 314.575191 18.540202 
L 317.274647 18.291682 
L 319.074284 18.139664 
L 321.773739 18.225575 
L 324.473195 17.894247 
L 328.972288 18.195726 
L 329.872107 17.904224 
L 348.768297 17.80475 
L 350.567934 17.657595 
L 354.167209 17.866818 
L 355.067027 17.713857 
L 356.866664 17.729789 
L 357.766483 18.123523 
L 358.666301 17.708709 
L 359.56612 17.786288 
L 360.465939 17.726244 
L 362.265576 17.444564 
L 367.664487 17.537273 
L 369.464124 17.255727 
L 372.16358 17.33936 
L 373.063399 17.22177 
L 373.963217 17.572326 
L 374.863036 17.080786 
L 377.562492 17.16438 
L 380.261948 17.452308 
L 381.161766 17.000459 
L 382.061585 16.987239 
L 382.961403 17.124183 
L 383.861222 17.008026 
L 385.660859 17.089318 
L 386.560678 16.793877 
L 387.460496 17.566692 
L 388.360315 17.447583 
L 391.059771 17.599869 
L 392.859408 16.621505 
L 394.659045 16.471082 
L 398.258319 16.490119 
L 399.158138 16.259083 
L 404.557049 16.414 
L 407.256505 17.293015 
L 408.156324 16.183762 
L 409.056142 16.271449 
L 409.955961 16.115322 
L 410.855779 16.162381 
L 412.655417 15.992986 
L 414.455054 15.958835 
L 416.254691 16.102937 
L 418.954147 15.803061 
L 421.653602 15.904952 
L 422.553421 16.211027 
L 424.353058 15.641602 
L 428.852151 15.618695 
L 429.75197 15.306265 
L 430.651788 15.312021 
L 431.551607 15.175038 
L 432.451425 15.178537 
L 433.351244 15.430374 
L 434.251063 15.335583 
L 435.150881 15.37043 
L 437.850337 15.163354 
L 441.449611 15.472675 
L 443.249248 15.104666 
L 445.948704 15.790891 
L 446.848523 15.81817 
L 447.748341 15.958964 
L 449.547979 15.922957 
L 453.147253 16.347093 
L 454.94689 16.657721 
L 456.746527 16.392899 
L 461.24562 16.486309 
L 462.145439 16.232467 
L 463.045257 16.167501 
L 463.945076 15.927595 
L 465.744713 16.292478 
L 466.644532 16.517636 
L 467.54435 16.184779 
L 468.444169 15.998047 
L 470.243806 15.961367 
L 472.043443 15.685765 
L 472.943262 15.708165 
L 477.442355 15.047849 
L 479.241992 15.034067 
L 479.241992 15.034067 
" clip-path="url(#pbf5b421fe2)" style="fill: none; stroke: #ffa500; stroke-width: 1.5; stroke-linecap: square"/>
   </g>
   <g id="line2d_35">
    <path d="M 73.42381 130.310822 
L 76.123266 130.177233 
L 77.922903 130.040779 
L 78.822722 130.198669 
L 80.622359 130.171471 
L 81.522177 130.065794 
L 82.421996 130.465296 
L 84.221633 130.305466 
L 85.121452 130.485068 
L 86.921089 130.407528 
L 93.219819 130.83404 
L 94.119637 130.812984 
L 95.019456 130.911855 
L 95.919275 131.299428 
L 96.819093 131.258189 
L 99.518549 131.575979 
L 100.418368 131.498836 
L 102.218005 131.685258 
L 103.117823 132.068758 
L 104.017642 132.018342 
L 104.917461 132.26678 
L 105.817279 131.925975 
L 108.516735 131.935764 
L 110.316372 132.119246 
L 113.015828 131.913792 
L 114.815465 132.094173 
L 115.715284 132.012669 
L 117.514921 132.030316 
L 119.314558 131.940956 
L 120.214376 131.879712 
L 121.114195 132.088291 
L 124.713469 132.176716 
L 126.513107 132.878067 
L 127.412925 132.429633 
L 128.312744 132.650174 
L 131.012199 132.958243 
L 131.912018 133.420976 
L 132.811837 133.334038 
L 135.511292 134.258625 
L 139.110567 133.721597 
L 141.810022 134.199093 
L 142.709841 134.240869 
L 156.20712 134.316412 
L 157.106938 134.111919 
L 158.006757 135.791496 
L 158.906576 134.577224 
L 159.806394 135.18093 
L 161.606031 137.209623 
L 162.50585 135.688072 
L 163.405669 135.846137 
L 166.105124 135.856851 
L 167.904761 135.164436 
L 168.80458 135.438088 
L 169.704399 135.055156 
L 170.604217 135.695459 
L 171.504036 135.666417 
L 174.203492 137.188208 
L 175.10331 137.657266 
L 176.902947 137.861108 
L 179.602403 138.623497 
L 180.502222 138.599271 
L 182.301859 138.379023 
L 183.201677 138.343431 
L 186.800952 138.962343 
L 187.70077 140.087881 
L 188.600589 140.173068 
L 216.494965 141.712631 
L 218.294602 141.979957 
L 219.194421 141.859611 
L 226.392969 142.050944 
L 228.192607 142.045873 
L 229.092425 142.099942 
L 232.6917 143.200285 
L 233.591518 145.665772 
L 234.491337 143.298117 
L 235.391155 146.956163 
L 237.190792 147.117735 
L 241.689885 147.058272 
L 243.489523 147.184136 
L 244.389341 147.052218 
L 249.788253 147.303997 
L 251.58789 147.263157 
L 252.487708 148.036055 
L 253.387527 148.05061 
L 254.287346 148.343034 
L 255.187164 148.002194 
L 256.986801 147.93935 
L 259.686257 148.153898 
L 260.586076 148.887919 
L 261.485894 148.910411 
L 262.385713 148.674484 
L 264.18535 148.525041 
L 265.085169 148.189746 
L 265.984987 149.025146 
L 267.784624 149.089873 
L 269.584262 149.049529 
L 270.48408 149.559617 
L 271.383899 149.430774 
L 272.283717 149.424529 
L 273.183536 149.681911 
L 274.083354 149.728633 
L 274.983173 149.395608 
L 275.882992 149.921012 
L 277.682629 150.034252 
L 279.482266 149.81717 
L 282.181722 149.944085 
L 283.981359 150.309569 
L 287.580633 150.697169 
L 288.480452 150.476338 
L 315.475009 152.467602 
L 320.873921 152.59965 
L 321.773739 152.820135 
L 325.373014 153.146346 
L 326.272832 153.152707 
L 327.172651 153.270814 
L 328.07247 153.171555 
L 328.972288 152.842204 
L 329.872107 152.969856 
L 346.96866 153.758564 
L 350.567934 154.156757 
L 351.467753 154.018701 
L 353.26739 154.113553 
L 354.167209 154.335342 
L 355.966846 154.297796 
L 356.866664 154.650693 
L 357.766483 156.974117 
L 358.666301 155.859111 
L 359.56612 154.500409 
L 360.465939 154.785333 
L 361.365757 154.595377 
L 362.265576 154.703949 
L 364.965032 154.59143 
L 365.86485 154.704776 
L 366.764669 154.685018 
L 367.664487 154.886289 
L 368.564306 154.913879 
L 369.464124 155.254986 
L 371.263762 155.398386 
L 372.16358 155.596748 
L 373.063399 155.645987 
L 373.963217 156.312108 
L 374.863036 155.423928 
L 376.662673 155.178498 
L 378.46231 155.428366 
L 380.261948 156.008781 
L 381.161766 155.737623 
L 382.061585 155.758731 
L 382.961403 156.480986 
L 383.861222 156.196158 
L 384.76104 156.781029 
L 386.560678 156.932779 
L 387.460496 156.295104 
L 388.360315 156.833963 
L 390.159952 156.877728 
L 391.059771 156.538421 
L 391.959589 157.015622 
L 392.859408 156.89597 
L 393.759226 156.976154 
L 395.558863 156.798466 
L 396.458682 156.941619 
L 397.358501 156.960103 
L 399.158138 157.501859 
L 400.957775 157.290108 
L 401.857594 157.186049 
L 402.757412 157.406619 
L 403.657231 157.370308 
L 404.557049 157.469494 
L 407.256505 161.287308 
L 408.156324 157.324978 
L 409.056142 156.876296 
L 409.955961 158.211734 
L 410.855779 157.415078 
L 411.755598 157.25552 
L 413.555235 157.319557 
L 414.455054 157.211376 
L 415.354872 157.263797 
L 417.154509 157.607331 
L 418.054328 157.739582 
L 418.954147 157.667826 
L 420.753784 157.790434 
L 421.653602 157.68832 
L 422.553421 157.871984 
L 423.45324 157.845547 
L 424.353058 158.585451 
L 426.152695 158.111712 
L 427.952333 158.085561 
L 428.852151 158.29302 
L 429.75197 158.666831 
L 432.451425 157.965083 
L 433.351244 158.583806 
L 434.251063 157.921166 
L 435.150881 158.267971 
L 436.0507 158.064957 
L 437.850337 158.168477 
L 440.549793 158.334145 
L 441.449611 158.210576 
L 443.249248 158.611098 
L 445.048886 158.449023 
L 446.848523 158.810814 
L 449.547979 158.516098 
L 453.147253 158.554521 
L 454.94689 158.970198 
L 455.846709 158.733829 
L 456.746527 158.861257 
L 457.646346 158.739343 
L 460.345802 158.825555 
L 461.24562 158.714674 
L 462.145439 158.950042 
L 463.045257 158.869336 
L 463.945076 159.364827 
L 464.844894 159.080054 
L 465.744713 159.10307 
L 466.644532 159.491715 
L 467.54435 158.965558 
L 469.343987 158.978106 
L 470.243806 158.867425 
L 473.84308 159.01044 
L 474.742899 158.998451 
L 476.542536 159.368722 
L 477.442355 159.169149 
L 479.241992 159.40607 
L 479.241992 159.40607 
" clip-path="url(#pbf5b421fe2)" style="fill: none; stroke: #ff0000; stroke-width: 1.5; stroke-linecap: square"/>
   </g>
   <g id="line2d_36">
    <path d="M 73.42381 143.243585 
L 75.223447 143.148246 
L 78.822722 143.070102 
L 80.622359 143.092743 
L 81.522177 142.944462 
L 82.421996 143.32108 
L 83.321814 143.139449 
L 86.02127 143.315545 
L 86.921089 143.270072 
L 91.420182 143.659506 
L 94.119637 143.644217 
L 95.019456 143.740322 
L 95.919275 144.135323 
L 97.718912 144.190341 
L 98.61873 144.373903 
L 101.318186 144.48345 
L 102.218005 144.523322 
L 103.117823 144.923042 
L 104.017642 144.798808 
L 104.917461 144.999056 
L 105.817279 144.601065 
L 108.516735 144.565185 
L 110.316372 144.763637 
L 113.015828 144.442905 
L 116.615102 144.603665 
L 120.214376 144.367893 
L 121.114195 144.595798 
L 124.713469 144.708367 
L 126.513107 145.482416 
L 127.412925 144.98661 
L 128.312744 145.222321 
L 131.012199 145.5566 
L 131.912018 146.072959 
L 132.811837 145.965529 
L 135.511292 146.531913 
L 139.110567 145.91904 
L 141.810022 146.381165 
L 142.709841 146.386147 
L 151.708027 145.877424 
L 156.20712 145.857036 
L 157.106938 145.621135 
L 158.006757 147.380963 
L 158.906576 146.10799 
L 159.806394 146.752691 
L 161.606031 149.056105 
L 162.50585 147.377572 
L 163.405669 147.590735 
L 164.305487 147.302971 
L 166.105124 147.234379 
L 167.904761 146.477067 
L 168.80458 146.714178 
L 169.704399 146.276838 
L 171.504036 146.289587 
L 174.203492 147.981891 
L 175.10331 148.471372 
L 176.902947 148.736818 
L 179.602403 149.499464 
L 183.201677 149.204245 
L 186.800952 149.823346 
L 187.70077 151.070372 
L 188.600589 151.180341 
L 204.797323 151.767543 
L 205.697142 151.895849 
L 207.496779 151.868441 
L 209.296416 151.936549 
L 210.196235 152.057695 
L 214.695328 152.161262 
L 217.394784 152.515377 
L 218.294602 152.605889 
L 219.194421 152.477677 
L 224.593332 152.503071 
L 227.292788 152.35903 
L 229.092425 152.470508 
L 232.6917 153.582187 
L 233.591518 156.117046 
L 234.491337 153.635216 
L 235.391155 157.529026 
L 238.090611 157.638845 
L 239.890248 157.615486 
L 240.790067 157.497034 
L 242.589704 157.541477 
L 243.489523 157.637758 
L 244.389341 157.534189 
L 245.28916 157.626272 
L 247.988616 157.600256 
L 249.788253 157.687002 
L 251.58789 157.645879 
L 252.487708 158.432135 
L 253.387527 158.424886 
L 254.287346 158.759041 
L 255.187164 158.339352 
L 256.086983 158.253602 
L 259.686257 158.477466 
L 260.586076 159.161494 
L 261.485894 159.251185 
L 262.385713 158.96488 
L 264.18535 158.935175 
L 265.085169 158.592129 
L 265.984987 159.369867 
L 267.784624 159.450205 
L 269.584262 159.419746 
L 270.48408 159.924774 
L 272.283717 159.799307 
L 273.183536 160.075687 
L 274.083354 160.034388 
L 274.983173 159.741641 
L 275.882992 160.200975 
L 276.78281 160.383944 
L 279.482266 160.083029 
L 282.181722 160.179312 
L 283.981359 160.57015 
L 287.580633 161.017855 
L 288.480452 160.800242 
L 314.575191 162.486758 
L 319.074284 162.582529 
L 320.873921 162.641944 
L 322.673558 162.923342 
L 323.573377 162.90959 
L 324.473195 163.114841 
L 325.373014 163.169318 
L 326.272832 163.103258 
L 327.172651 163.229229 
L 328.07247 163.074869 
L 328.972288 162.751049 
L 329.872107 162.874009 
L 346.96866 163.590363 
L 350.567934 163.964408 
L 351.467753 163.829982 
L 353.26739 163.876597 
L 354.167209 164.145804 
L 355.966846 164.117449 
L 356.866664 164.499843 
L 357.766483 166.925663 
L 358.666301 165.830083 
L 359.56612 164.360607 
L 360.465939 164.594151 
L 361.365757 164.383708 
L 362.265576 164.44913 
L 364.965032 164.305823 
L 365.86485 164.4857 
L 366.764669 164.447129 
L 370.363943 165.001454 
L 371.263762 165.113255 
L 372.16358 165.392203 
L 373.063399 165.461141 
L 373.963217 166.145172 
L 374.863036 165.24767 
L 375.762855 165.034965 
L 376.662673 164.997304 
L 378.46231 165.200814 
L 379.362129 165.515746 
L 380.261948 165.695211 
L 381.161766 165.412116 
L 382.061585 165.42341 
L 382.961403 165.972896 
L 383.861222 165.880367 
L 384.76104 166.376788 
L 386.560678 166.52277 
L 387.460496 165.903605 
L 388.360315 166.481415 
L 390.159952 166.53083 
L 391.059771 166.145793 
L 391.959589 166.579463 
L 395.558863 166.266299 
L 396.458682 166.423022 
L 397.358501 166.450715 
L 399.158138 166.971958 
L 400.057956 166.938129 
L 400.957775 166.701882 
L 401.857594 166.626525 
L 402.757412 166.83969 
L 403.657231 166.791067 
L 404.557049 166.867023 
L 407.256505 170.770909 
L 408.156324 166.643223 
L 409.056142 166.194 
L 409.955961 167.557457 
L 410.855779 166.694251 
L 411.755598 166.573542 
L 415.354872 166.591776 
L 418.054328 167.076909 
L 418.954147 166.909381 
L 419.853965 167.10683 
L 420.753784 167.088434 
L 421.653602 166.93248 
L 422.553421 167.189023 
L 423.45324 167.142523 
L 424.353058 167.709072 
L 426.152695 167.390713 
L 427.952333 167.295718 
L 428.852151 167.49301 
L 429.75197 167.860775 
L 431.551607 167.360261 
L 432.451425 167.220649 
L 433.351244 167.873824 
L 434.251063 167.26243 
L 435.150881 167.546679 
L 436.0507 167.350809 
L 440.549793 167.40583 
L 441.449611 167.295557 
L 443.249248 167.696987 
L 445.048886 167.522586 
L 446.848523 167.861181 
L 448.64816 167.852126 
L 449.547979 167.632903 
L 453.147253 167.77874 
L 454.94689 168.196153 
L 455.846709 167.897765 
L 456.746527 168.001455 
L 458.546164 167.981443 
L 460.345802 167.997203 
L 461.24562 167.869705 
L 462.145439 168.105934 
L 463.045257 168.048995 
L 463.945076 168.507829 
L 464.844894 168.2578 
L 465.744713 168.274244 
L 466.644532 168.670547 
L 467.54435 168.085268 
L 469.343987 168.172188 
L 470.243806 167.989883 
L 475.642718 168.178826 
L 476.542536 168.385525 
L 477.442355 168.207642 
L 479.241992 168.437233 
L 479.241992 168.437233 
" clip-path="url(#pbf5b421fe2)" style="fill: none; stroke: #000000; stroke-width: 1.5; stroke-linecap: square"/>
   </g>
   <g id="patch_3">
    <path d="M 53.132901 178.56 
L 53.132901 7.2 
" style="fill: none; stroke: #000000; stroke-width: 0.8; stroke-linejoin: miter; stroke-linecap: square"/>
   </g>
   <g id="patch_4">
    <path d="M 499.532901 178.56 
L 499.532901 7.2 
" style="fill: none; stroke: #000000; stroke-width: 0.8; stroke-linejoin: miter; stroke-linecap: square"/>
   </g>
   <g id="patch_5">
    <path d="M 53.132901 178.56 
L 499.532901 178.56 
" style="fill: none; stroke: #000000; stroke-width: 0.8; stroke-linejoin: miter; stroke-linecap: square"/>
   </g>
   <g id="patch_6">
    <path d="M 53.132901 7.2 
L 499.532901 7.2 
" style="fill: none; stroke: #000000; stroke-width: 0.8; stroke-linejoin: miter; stroke-linecap: square"/>
   </g>
   <g id="legend_1">
    <g id="patch_7">
     <path d="M 244.956338 106.60025 
L 307.709463 106.60025 
Q 309.709463 106.60025 309.709463 104.60025 
L 309.709463 46.88775 
Q 309.709463 44.88775 307.709463 44.88775 
L 244.956338 44.88775 
Q 242.956338 44.88775 242.956338 46.88775 
L 242.956338 104.60025 
Q 242.956338 106.60025 244.956338 106.60025 
z
" style="fill: #ffffff; opacity: 0.8; stroke: #cccccc; stroke-linejoin: miter"/>
    </g>
    <g id="line2d_37">
     <path d="M 246.956338 52.986187 
L 256.956338 52.986187 
L 266.956338 52.986187 
" style="fill: none; stroke: #008000; stroke-width: 1.5; stroke-linecap: square"/>
    </g>
    <g id="text_26">
     <!-- TLS13 -->
     <g transform="translate(274.956338 56.486187)scale(0.1 -0.1)">
      <defs>
       <path id="DejaVuSans-54" d="M -19 4666 
L 3928 4666 
L 3928 4134 
L 2272 4134 
L 2272 0 
L 1638 0 
L 1638 4134 
L -19 4134 
L -19 4666 
z
" transform="scale(0.015625)"/>
       <path id="DejaVuSans-4c" d="M 628 4666 
L 1259 4666 
L 1259 531 
L 3531 531 
L 3531 0 
L 628 0 
L 628 4666 
z
" transform="scale(0.015625)"/>
       <path id="DejaVuSans-33" d="M 2597 2516 
Q 3050 2419 3304 2112 
Q 3559 1806 3559 1356 
Q 3559 666 3084 287 
Q 2609 -91 1734 -91 
Q 1441 -91 1130 -33 
Q 819 25 488 141 
L 488 750 
Q 750 597 1062 519 
Q 1375 441 1716 441 
Q 2309 441 2620 675 
Q 2931 909 2931 1356 
Q 2931 1769 2642 2001 
Q 2353 2234 1838 2234 
L 1294 2234 
L 1294 2753 
L 1863 2753 
Q 2328 2753 2575 2939 
Q 2822 3125 2822 3475 
Q 2822 3834 2567 4026 
Q 2313 4219 1838 4219 
Q 1578 4219 1281 4162 
Q 984 4106 628 3988 
L 628 4550 
Q 988 4650 1302 4700 
Q 1616 4750 1894 4750 
Q 2613 4750 3031 4423 
Q 3450 4097 3450 3541 
Q 3450 3153 3228 2886 
Q 3006 2619 2597 2516 
z
" transform="scale(0.015625)"/>
      </defs>
      <use xlink:href="#DejaVuSans-54"/>
      <use xlink:href="#DejaVuSans-4c" x="61.083984"/>
      <use xlink:href="#DejaVuSans-53" x="116.796875"/>
      <use xlink:href="#DejaVuSans-31" x="180.273438"/>
      <use xlink:href="#DejaVuSans-33" x="243.896484"/>
     </g>
    </g>
    <g id="line2d_38">
     <path d="M 246.956338 67.664312 
L 256.956338 67.664312 
L 266.956338 67.664312 
" style="fill: none; stroke: #ffa500; stroke-width: 1.5; stroke-linecap: square"/>
    </g>
    <g id="text_27">
     <!-- TLS12 -->
     <g transform="translate(274.956338 71.164312)scale(0.1 -0.1)">
      <use xlink:href="#DejaVuSans-54"/>
      <use xlink:href="#DejaVuSans-4c" x="61.083984"/>
      <use xlink:href="#DejaVuSans-53" x="116.796875"/>
      <use xlink:href="#DejaVuSans-31" x="180.273438"/>
      <use xlink:href="#DejaVuSans-32" x="243.896484"/>
     </g>
    </g>
    <g id="line2d_39">
     <path d="M 246.956338 82.342437 
L 256.956338 82.342437 
L 266.956338 82.342437 
" style="fill: none; stroke: #ff0000; stroke-width: 1.5; stroke-linecap: square"/>
    </g>
    <g id="text_28">
     <!-- TLS11 -->
     <g transform="translate(274.956338 85.842437)scale(0.1 -0.1)">
      <use xlink:href="#DejaVuSans-54"/>
      <use xlink:href="#DejaVuSans-4c" x="61.083984"/>
      <use xlink:href="#DejaVuSans-53" x="116.796875"/>
      <use xlink:href="#DejaVuSans-31" x="180.273438"/>
      <use xlink:href="#DejaVuSans-31" x="243.896484"/>
     </g>
    </g>
    <g id="line2d_40">
     <path d="M 246.956338 97.020563 
L 256.956338 97.020563 
L 266.956338 97.020563 
" style="fill: none; stroke: #000000; stroke-width: 1.5; stroke-linecap: square"/>
    </g>
    <g id="text_29">
     <!-- TLS10 -->
     <g transform="translate(274.956338 100.520563)scale(0.1 -0.1)">
      <use xlink:href="#DejaVuSans-54"/>
      <use xlink:href="#DejaVuSans-4c" x="61.083984"/>
      <use xlink:href="#DejaVuSans-53" x="116.796875"/>
      <use xlink:href="#DejaVuSans-31" x="180.273438"/>
      <use xlink:href="#DejaVuSans-30" x="243.896484"/>
     </g>
    </g>
   </g>
  </g>
 </g>
 <defs>
  <clipPath id="pbf5b421fe2">
   <rect x="53.132901" y="7.2" width="446.4" height="171.36"/>
  </clipPath>
 </defs>
</svg>
