<?xml version="1.0" encoding="utf-8" standalone="no"?>
<!DOCTYPE svg PUBLIC "-//W3C//DTD SVG 1.1//EN"
  "http://www.w3.org/Graphics/SVG/1.1/DTD/svg11.dtd">
<svg xmlns:xlink="http://www.w3.org/1999/xlink" width="506.732901pt" height="234.086815pt" viewBox="0 0 506.732901 234.086815" xmlns="http://www.w3.org/2000/svg" version="1.1">
 <metadata>
  <rdf:RDF xmlns:dc="http://purl.org/dc/elements/1.1/" xmlns:cc="http://creativecommons.org/ns#" xmlns:rdf="http://www.w3.org/1999/02/22-rdf-syntax-ns#">
   <cc:Work>
    <dc:type rdf:resource="http://purl.org/dc/dcmitype/StillImage"/>
    <dc:date>2022-02-20T10:46:07.399447</dc:date>
    <dc:format>image/svg+xml</dc:format>
    <dc:creator>
     <cc:Agent>
      <dc:title>Matplotlib v3.5.1, https://matplotlib.org/</dc:title>
     </cc:Agent>
    </dc:creator>
   </cc:Work>
  </rdf:RDF>
 </metadata>
 <defs>
  <style type="text/css">*{stroke-linejoin: round; stroke-linecap: butt}</style>
 </defs>
 <g id="figure_1">
  <g id="patch_1">
   <path d="M 0 234.086815 
L 506.732901 234.086815 
L 506.732901 0 
L 0 0 
z
" style="fill: #ffffff"/>
  </g>
  <g id="axes_1">
   <g id="patch_2">
    <path d="M 53.132901 178.56 
L 499.532901 178.56 
L 499.532901 7.2 
L 53.132901 7.2 
z
" style="fill: #ffffff"/>
   </g>
   <g id="matplotlib.axis_1">
    <g id="xtick_1">
     <g id="line2d_1">
      <defs>
       <path id="m726516eec3" d="M 0 0 
L 0 3.5 
" style="stroke: #000000; stroke-width: 0.8"/>
      </defs>
      <g>
       <use xlink:href="#m726516eec3" x="68.024899" y="178.56" style="stroke: #000000; stroke-width: 0.8"/>
      </g>
     </g>
     <g id="text_1">
      <!-- 2020-Nov-01 -->
      <g transform="translate(10.999219 224.463877)rotate(-30)scale(0.1 -0.1)">
       <defs>
        <path id="DejaVuSans-32" d="M 1228 531 
L 3431 531 
L 3431 0 
L 469 0 
L 469 531 
Q 828 903 1448 1529 
Q 2069 2156 2228 2338 
Q 2531 2678 2651 2914 
Q 2772 3150 2772 3378 
Q 2772 3750 2511 3984 
Q 2250 4219 1831 4219 
Q 1534 4219 1204 4116 
Q 875 4013 500 3803 
L 500 4441 
Q 881 4594 1212 4672 
Q 1544 4750 1819 4750 
Q 2544 4750 2975 4387 
Q 3406 4025 3406 3419 
Q 3406 3131 3298 2873 
Q 3191 2616 2906 2266 
Q 2828 2175 2409 1742 
Q 1991 1309 1228 531 
z
" transform="scale(0.015625)"/>
        <path id="DejaVuSans-30" d="M 2034 4250 
Q 1547 4250 1301 3770 
Q 1056 3291 1056 2328 
Q 1056 1369 1301 889 
Q 1547 409 2034 409 
Q 2525 409 2770 889 
Q 3016 1369 3016 2328 
Q 3016 3291 2770 3770 
Q 2525 4250 2034 4250 
z
M 2034 4750 
Q 2819 4750 3233 4129 
Q 3647 3509 3647 2328 
Q 3647 1150 3233 529 
Q 2819 -91 2034 -91 
Q 1250 -91 836 529 
Q 422 1150 422 2328 
Q 422 3509 836 4129 
Q 1250 4750 2034 4750 
z
" transform="scale(0.015625)"/>
        <path id="DejaVuSans-2d" d="M 313 2009 
L 1997 2009 
L 1997 1497 
L 313 1497 
L 313 2009 
z
" transform="scale(0.015625)"/>
        <path id="DejaVuSans-4e" d="M 628 4666 
L 1478 4666 
L 3547 763 
L 3547 4666 
L 4159 4666 
L 4159 0 
L 3309 0 
L 1241 3903 
L 1241 0 
L 628 0 
L 628 4666 
z
" transform="scale(0.015625)"/>
        <path id="DejaVuSans-6f" d="M 1959 3097 
Q 1497 3097 1228 2736 
Q 959 2375 959 1747 
Q 959 1119 1226 758 
Q 1494 397 1959 397 
Q 2419 397 2687 759 
Q 2956 1122 2956 1747 
Q 2956 2369 2687 2733 
Q 2419 3097 1959 3097 
z
M 1959 3584 
Q 2709 3584 3137 3096 
Q 3566 2609 3566 1747 
Q 3566 888 3137 398 
Q 2709 -91 1959 -91 
Q 1206 -91 779 398 
Q 353 888 353 1747 
Q 353 2609 779 3096 
Q 1206 3584 1959 3584 
z
" transform="scale(0.015625)"/>
        <path id="DejaVuSans-76" d="M 191 3500 
L 800 3500 
L 1894 563 
L 2988 3500 
L 3597 3500 
L 2284 0 
L 1503 0 
L 191 3500 
z
" transform="scale(0.015625)"/>
        <path id="DejaVuSans-31" d="M 794 531 
L 1825 531 
L 1825 4091 
L 703 3866 
L 703 4441 
L 1819 4666 
L 2450 4666 
L 2450 531 
L 3481 531 
L 3481 0 
L 794 0 
L 794 531 
z
" transform="scale(0.015625)"/>
       </defs>
       <use xlink:href="#DejaVuSans-32"/>
       <use xlink:href="#DejaVuSans-30" x="63.623047"/>
       <use xlink:href="#DejaVuSans-32" x="127.246094"/>
       <use xlink:href="#DejaVuSans-30" x="190.869141"/>
       <use xlink:href="#DejaVuSans-2d" x="254.492188"/>
       <use xlink:href="#DejaVuSans-4e" x="290.576172"/>
       <use xlink:href="#DejaVuSans-6f" x="365.380859"/>
       <use xlink:href="#DejaVuSans-76" x="426.5625"/>
       <use xlink:href="#DejaVuSans-2d" x="483.117188"/>
       <use xlink:href="#DejaVuSans-30" x="519.201172"/>
       <use xlink:href="#DejaVuSans-31" x="582.824219"/>
      </g>
     </g>
    </g>
    <g id="xtick_2">
     <g id="line2d_2">
      <g>
       <use xlink:href="#m726516eec3" x="95.019456" y="178.56" style="stroke: #000000; stroke-width: 0.8"/>
      </g>
     </g>
     <g id="text_2">
      <!-- 2020-Dec-01 -->
      <g transform="translate(37.911233 224.511534)rotate(-30)scale(0.1 -0.1)">
       <defs>
        <path id="DejaVuSans-44" d="M 1259 4147 
L 1259 519 
L 2022 519 
Q 2988 519 3436 956 
Q 3884 1394 3884 2338 
Q 3884 3275 3436 3711 
Q 2988 4147 2022 4147 
L 1259 4147 
z
M 628 4666 
L 1925 4666 
Q 3281 4666 3915 4102 
Q 4550 3538 4550 2338 
Q 4550 1131 3912 565 
Q 3275 0 1925 0 
L 628 0 
L 628 4666 
z
" transform="scale(0.015625)"/>
        <path id="DejaVuSans-65" d="M 3597 1894 
L 3597 1613 
L 953 1613 
Q 991 1019 1311 708 
Q 1631 397 2203 397 
Q 2534 397 2845 478 
Q 3156 559 3463 722 
L 3463 178 
Q 3153 47 2828 -22 
Q 2503 -91 2169 -91 
Q 1331 -91 842 396 
Q 353 884 353 1716 
Q 353 2575 817 3079 
Q 1281 3584 2069 3584 
Q 2775 3584 3186 3129 
Q 3597 2675 3597 1894 
z
M 3022 2063 
Q 3016 2534 2758 2815 
Q 2500 3097 2075 3097 
Q 1594 3097 1305 2825 
Q 1016 2553 972 2059 
L 3022 2063 
z
" transform="scale(0.015625)"/>
        <path id="DejaVuSans-63" d="M 3122 3366 
L 3122 2828 
Q 2878 2963 2633 3030 
Q 2388 3097 2138 3097 
Q 1578 3097 1268 2742 
Q 959 2388 959 1747 
Q 959 1106 1268 751 
Q 1578 397 2138 397 
Q 2388 397 2633 464 
Q 2878 531 3122 666 
L 3122 134 
Q 2881 22 2623 -34 
Q 2366 -91 2075 -91 
Q 1284 -91 818 406 
Q 353 903 353 1747 
Q 353 2603 823 3093 
Q 1294 3584 2113 3584 
Q 2378 3584 2631 3529 
Q 2884 3475 3122 3366 
z
" transform="scale(0.015625)"/>
       </defs>
       <use xlink:href="#DejaVuSans-32"/>
       <use xlink:href="#DejaVuSans-30" x="63.623047"/>
       <use xlink:href="#DejaVuSans-32" x="127.246094"/>
       <use xlink:href="#DejaVuSans-30" x="190.869141"/>
       <use xlink:href="#DejaVuSans-2d" x="254.492188"/>
       <use xlink:href="#DejaVuSans-44" x="290.576172"/>
       <use xlink:href="#DejaVuSans-65" x="367.578125"/>
       <use xlink:href="#DejaVuSans-63" x="429.101562"/>
       <use xlink:href="#DejaVuSans-2d" x="484.082031"/>
       <use xlink:href="#DejaVuSans-30" x="520.166016"/>
       <use xlink:href="#DejaVuSans-31" x="583.789062"/>
      </g>
     </g>
    </g>
    <g id="xtick_3">
     <g id="line2d_3">
      <g>
       <use xlink:href="#m726516eec3" x="122.913832" y="178.56" style="stroke: #000000; stroke-width: 0.8"/>
      </g>
     </g>
     <g id="text_3">
      <!-- 2021-Jan-01 -->
      <g transform="translate(68.727092 222.824815)rotate(-30)scale(0.1 -0.1)">
       <defs>
        <path id="DejaVuSans-4a" d="M 628 4666 
L 1259 4666 
L 1259 325 
Q 1259 -519 939 -900 
Q 619 -1281 -91 -1281 
L -331 -1281 
L -331 -750 
L -134 -750 
Q 284 -750 456 -515 
Q 628 -281 628 325 
L 628 4666 
z
" transform="scale(0.015625)"/>
        <path id="DejaVuSans-61" d="M 2194 1759 
Q 1497 1759 1228 1600 
Q 959 1441 959 1056 
Q 959 750 1161 570 
Q 1363 391 1709 391 
Q 2188 391 2477 730 
Q 2766 1069 2766 1631 
L 2766 1759 
L 2194 1759 
z
M 3341 1997 
L 3341 0 
L 2766 0 
L 2766 531 
Q 2569 213 2275 61 
Q 1981 -91 1556 -91 
Q 1019 -91 701 211 
Q 384 513 384 1019 
Q 384 1609 779 1909 
Q 1175 2209 1959 2209 
L 2766 2209 
L 2766 2266 
Q 2766 2663 2505 2880 
Q 2244 3097 1772 3097 
Q 1472 3097 1187 3025 
Q 903 2953 641 2809 
L 641 3341 
Q 956 3463 1253 3523 
Q 1550 3584 1831 3584 
Q 2591 3584 2966 3190 
Q 3341 2797 3341 1997 
z
" transform="scale(0.015625)"/>
        <path id="DejaVuSans-6e" d="M 3513 2113 
L 3513 0 
L 2938 0 
L 2938 2094 
Q 2938 2591 2744 2837 
Q 2550 3084 2163 3084 
Q 1697 3084 1428 2787 
Q 1159 2491 1159 1978 
L 1159 0 
L 581 0 
L 581 3500 
L 1159 3500 
L 1159 2956 
Q 1366 3272 1645 3428 
Q 1925 3584 2291 3584 
Q 2894 3584 3203 3211 
Q 3513 2838 3513 2113 
z
" transform="scale(0.015625)"/>
       </defs>
       <use xlink:href="#DejaVuSans-32"/>
       <use xlink:href="#DejaVuSans-30" x="63.623047"/>
       <use xlink:href="#DejaVuSans-32" x="127.246094"/>
       <use xlink:href="#DejaVuSans-31" x="190.869141"/>
       <use xlink:href="#DejaVuSans-2d" x="254.492188"/>
       <use xlink:href="#DejaVuSans-4a" x="296.201172"/>
       <use xlink:href="#DejaVuSans-61" x="325.693359"/>
       <use xlink:href="#DejaVuSans-6e" x="386.972656"/>
       <use xlink:href="#DejaVuSans-2d" x="450.351562"/>
       <use xlink:href="#DejaVuSans-30" x="486.435547"/>
       <use xlink:href="#DejaVuSans-31" x="550.058594"/>
      </g>
     </g>
    </g>
    <g id="xtick_4">
     <g id="line2d_4">
      <g>
       <use xlink:href="#m726516eec3" x="150.808208" y="178.56" style="stroke: #000000; stroke-width: 0.8"/>
      </g>
     </g>
     <g id="text_4">
      <!-- 2021-Feb-01 -->
      <g transform="translate(95.127574 223.687315)rotate(-30)scale(0.1 -0.1)">
       <defs>
        <path id="DejaVuSans-46" d="M 628 4666 
L 3309 4666 
L 3309 4134 
L 1259 4134 
L 1259 2759 
L 3109 2759 
L 3109 2228 
L 1259 2228 
L 1259 0 
L 628 0 
L 628 4666 
z
" transform="scale(0.015625)"/>
        <path id="DejaVuSans-62" d="M 3116 1747 
Q 3116 2381 2855 2742 
Q 2594 3103 2138 3103 
Q 1681 3103 1420 2742 
Q 1159 2381 1159 1747 
Q 1159 1113 1420 752 
Q 1681 391 2138 391 
Q 2594 391 2855 752 
Q 3116 1113 3116 1747 
z
M 1159 2969 
Q 1341 3281 1617 3432 
Q 1894 3584 2278 3584 
Q 2916 3584 3314 3078 
Q 3713 2572 3713 1747 
Q 3713 922 3314 415 
Q 2916 -91 2278 -91 
Q 1894 -91 1617 61 
Q 1341 213 1159 525 
L 1159 0 
L 581 0 
L 581 4863 
L 1159 4863 
L 1159 2969 
z
" transform="scale(0.015625)"/>
       </defs>
       <use xlink:href="#DejaVuSans-32"/>
       <use xlink:href="#DejaVuSans-30" x="63.623047"/>
       <use xlink:href="#DejaVuSans-32" x="127.246094"/>
       <use xlink:href="#DejaVuSans-31" x="190.869141"/>
       <use xlink:href="#DejaVuSans-2d" x="254.492188"/>
       <use xlink:href="#DejaVuSans-46" x="290.576172"/>
       <use xlink:href="#DejaVuSans-65" x="342.595703"/>
       <use xlink:href="#DejaVuSans-62" x="404.119141"/>
       <use xlink:href="#DejaVuSans-2d" x="467.595703"/>
       <use xlink:href="#DejaVuSans-30" x="503.679688"/>
       <use xlink:href="#DejaVuSans-31" x="567.302734"/>
      </g>
     </g>
    </g>
    <g id="xtick_5">
     <g id="line2d_5">
      <g>
       <use xlink:href="#m726516eec3" x="176.003129" y="178.56" style="stroke: #000000; stroke-width: 0.8"/>
      </g>
     </g>
     <g id="text_5">
      <!-- 2021-Mar-01 -->
      <g transform="translate(119.866478 223.950596)rotate(-30)scale(0.1 -0.1)">
       <defs>
        <path id="DejaVuSans-4d" d="M 628 4666 
L 1569 4666 
L 2759 1491 
L 3956 4666 
L 4897 4666 
L 4897 0 
L 4281 0 
L 4281 4097 
L 3078 897 
L 2444 897 
L 1241 4097 
L 1241 0 
L 628 0 
L 628 4666 
z
" transform="scale(0.015625)"/>
        <path id="DejaVuSans-72" d="M 2631 2963 
Q 2534 3019 2420 3045 
Q 2306 3072 2169 3072 
Q 1681 3072 1420 2755 
Q 1159 2438 1159 1844 
L 1159 0 
L 581 0 
L 581 3500 
L 1159 3500 
L 1159 2956 
Q 1341 3275 1631 3429 
Q 1922 3584 2338 3584 
Q 2397 3584 2469 3576 
Q 2541 3569 2628 3553 
L 2631 2963 
z
" transform="scale(0.015625)"/>
       </defs>
       <use xlink:href="#DejaVuSans-32"/>
       <use xlink:href="#DejaVuSans-30" x="63.623047"/>
       <use xlink:href="#DejaVuSans-32" x="127.246094"/>
       <use xlink:href="#DejaVuSans-31" x="190.869141"/>
       <use xlink:href="#DejaVuSans-2d" x="254.492188"/>
       <use xlink:href="#DejaVuSans-4d" x="290.576172"/>
       <use xlink:href="#DejaVuSans-61" x="376.855469"/>
       <use xlink:href="#DejaVuSans-72" x="438.134766"/>
       <use xlink:href="#DejaVuSans-2d" x="472.873047"/>
       <use xlink:href="#DejaVuSans-30" x="508.957031"/>
       <use xlink:href="#DejaVuSans-31" x="572.580078"/>
      </g>
     </g>
    </g>
    <g id="xtick_6">
     <g id="line2d_6">
      <g>
       <use xlink:href="#m726516eec3" x="203.897505" y="178.56" style="stroke: #000000; stroke-width: 0.8"/>
      </g>
     </g>
     <g id="text_6">
      <!-- 2021-Apr-01 -->
      <g transform="translate(149.312934 223.054502)rotate(-30)scale(0.1 -0.1)">
       <defs>
        <path id="DejaVuSans-41" d="M 2188 4044 
L 1331 1722 
L 3047 1722 
L 2188 4044 
z
M 1831 4666 
L 2547 4666 
L 4325 0 
L 3669 0 
L 3244 1197 
L 1141 1197 
L 716 0 
L 50 0 
L 1831 4666 
z
" transform="scale(0.015625)"/>
        <path id="DejaVuSans-70" d="M 1159 525 
L 1159 -1331 
L 581 -1331 
L 581 3500 
L 1159 3500 
L 1159 2969 
Q 1341 3281 1617 3432 
Q 1894 3584 2278 3584 
Q 2916 3584 3314 3078 
Q 3713 2572 3713 1747 
Q 3713 922 3314 415 
Q 2916 -91 2278 -91 
Q 1894 -91 1617 61 
Q 1341 213 1159 525 
z
M 3116 1747 
Q 3116 2381 2855 2742 
Q 2594 3103 2138 3103 
Q 1681 3103 1420 2742 
Q 1159 2381 1159 1747 
Q 1159 1113 1420 752 
Q 1681 391 2138 391 
Q 2594 391 2855 752 
Q 3116 1113 3116 1747 
z
" transform="scale(0.015625)"/>
       </defs>
       <use xlink:href="#DejaVuSans-32"/>
       <use xlink:href="#DejaVuSans-30" x="63.623047"/>
       <use xlink:href="#DejaVuSans-32" x="127.246094"/>
       <use xlink:href="#DejaVuSans-31" x="190.869141"/>
       <use xlink:href="#DejaVuSans-2d" x="254.492188"/>
       <use xlink:href="#DejaVuSans-41" x="288.326172"/>
       <use xlink:href="#DejaVuSans-70" x="356.734375"/>
       <use xlink:href="#DejaVuSans-72" x="420.210938"/>
       <use xlink:href="#DejaVuSans-2d" x="454.949219"/>
       <use xlink:href="#DejaVuSans-30" x="491.033203"/>
       <use xlink:href="#DejaVuSans-31" x="554.65625"/>
      </g>
     </g>
    </g>
    <g id="xtick_7">
     <g id="line2d_7">
      <g>
       <use xlink:href="#m726516eec3" x="230.892062" y="178.56" style="stroke: #000000; stroke-width: 0.8"/>
      </g>
     </g>
     <g id="text_7">
      <!-- 2021-May-01 -->
      <g transform="translate(172.789264 225.085752)rotate(-30)scale(0.1 -0.1)">
       <defs>
        <path id="DejaVuSans-79" d="M 2059 -325 
Q 1816 -950 1584 -1140 
Q 1353 -1331 966 -1331 
L 506 -1331 
L 506 -850 
L 844 -850 
Q 1081 -850 1212 -737 
Q 1344 -625 1503 -206 
L 1606 56 
L 191 3500 
L 800 3500 
L 1894 763 
L 2988 3500 
L 3597 3500 
L 2059 -325 
z
" transform="scale(0.015625)"/>
       </defs>
       <use xlink:href="#DejaVuSans-32"/>
       <use xlink:href="#DejaVuSans-30" x="63.623047"/>
       <use xlink:href="#DejaVuSans-32" x="127.246094"/>
       <use xlink:href="#DejaVuSans-31" x="190.869141"/>
       <use xlink:href="#DejaVuSans-2d" x="254.492188"/>
       <use xlink:href="#DejaVuSans-4d" x="290.576172"/>
       <use xlink:href="#DejaVuSans-61" x="376.855469"/>
       <use xlink:href="#DejaVuSans-79" x="438.134766"/>
       <use xlink:href="#DejaVuSans-2d" x="495.564453"/>
       <use xlink:href="#DejaVuSans-30" x="531.648438"/>
       <use xlink:href="#DejaVuSans-31" x="595.271484"/>
      </g>
     </g>
    </g>
    <g id="xtick_8">
     <g id="line2d_8">
      <g>
       <use xlink:href="#m726516eec3" x="258.786439" y="178.56" style="stroke: #000000; stroke-width: 0.8"/>
      </g>
     </g>
     <g id="text_8">
      <!-- 2021-Jun-01 -->
      <g transform="translate(204.418374 222.929502)rotate(-30)scale(0.1 -0.1)">
       <defs>
        <path id="DejaVuSans-75" d="M 544 1381 
L 544 3500 
L 1119 3500 
L 1119 1403 
Q 1119 906 1312 657 
Q 1506 409 1894 409 
Q 2359 409 2629 706 
Q 2900 1003 2900 1516 
L 2900 3500 
L 3475 3500 
L 3475 0 
L 2900 0 
L 2900 538 
Q 2691 219 2414 64 
Q 2138 -91 1772 -91 
Q 1169 -91 856 284 
Q 544 659 544 1381 
z
M 1991 3584 
L 1991 3584 
z
" transform="scale(0.015625)"/>
       </defs>
       <use xlink:href="#DejaVuSans-32"/>
       <use xlink:href="#DejaVuSans-30" x="63.623047"/>
       <use xlink:href="#DejaVuSans-32" x="127.246094"/>
       <use xlink:href="#DejaVuSans-31" x="190.869141"/>
       <use xlink:href="#DejaVuSans-2d" x="254.492188"/>
       <use xlink:href="#DejaVuSans-4a" x="296.201172"/>
       <use xlink:href="#DejaVuSans-75" x="325.693359"/>
       <use xlink:href="#DejaVuSans-6e" x="389.072266"/>
       <use xlink:href="#DejaVuSans-2d" x="452.451172"/>
       <use xlink:href="#DejaVuSans-30" x="488.535156"/>
       <use xlink:href="#DejaVuSans-31" x="552.158203"/>
      </g>
     </g>
    </g>
    <g id="xtick_9">
     <g id="line2d_9">
      <g>
       <use xlink:href="#m726516eec3" x="285.780996" y="178.56" style="stroke: #000000; stroke-width: 0.8"/>
      </g>
     </g>
     <g id="text_9">
      <!-- 2021-Jul-01 -->
      <g transform="translate(234.495441 221.149815)rotate(-30)scale(0.1 -0.1)">
       <defs>
        <path id="DejaVuSans-6c" d="M 603 4863 
L 1178 4863 
L 1178 0 
L 603 0 
L 603 4863 
z
" transform="scale(0.015625)"/>
       </defs>
       <use xlink:href="#DejaVuSans-32"/>
       <use xlink:href="#DejaVuSans-30" x="63.623047"/>
       <use xlink:href="#DejaVuSans-32" x="127.246094"/>
       <use xlink:href="#DejaVuSans-31" x="190.869141"/>
       <use xlink:href="#DejaVuSans-2d" x="254.492188"/>
       <use xlink:href="#DejaVuSans-4a" x="296.201172"/>
       <use xlink:href="#DejaVuSans-75" x="325.693359"/>
       <use xlink:href="#DejaVuSans-6c" x="389.072266"/>
       <use xlink:href="#DejaVuSans-2d" x="416.855469"/>
       <use xlink:href="#DejaVuSans-30" x="452.939453"/>
       <use xlink:href="#DejaVuSans-31" x="516.5625"/>
      </g>
     </g>
    </g>
    <g id="xtick_10">
     <g id="line2d_10">
      <g>
       <use xlink:href="#m726516eec3" x="313.675372" y="178.56" style="stroke: #000000; stroke-width: 0.8"/>
      </g>
     </g>
     <g id="text_10">
      <!-- 2021-Aug-01 -->
      <g transform="translate(256.610451 224.486534)rotate(-30)scale(0.1 -0.1)">
       <defs>
        <path id="DejaVuSans-67" d="M 2906 1791 
Q 2906 2416 2648 2759 
Q 2391 3103 1925 3103 
Q 1463 3103 1205 2759 
Q 947 2416 947 1791 
Q 947 1169 1205 825 
Q 1463 481 1925 481 
Q 2391 481 2648 825 
Q 2906 1169 2906 1791 
z
M 3481 434 
Q 3481 -459 3084 -895 
Q 2688 -1331 1869 -1331 
Q 1566 -1331 1297 -1286 
Q 1028 -1241 775 -1147 
L 775 -588 
Q 1028 -725 1275 -790 
Q 1522 -856 1778 -856 
Q 2344 -856 2625 -561 
Q 2906 -266 2906 331 
L 2906 616 
Q 2728 306 2450 153 
Q 2172 0 1784 0 
Q 1141 0 747 490 
Q 353 981 353 1791 
Q 353 2603 747 3093 
Q 1141 3584 1784 3584 
Q 2172 3584 2450 3431 
Q 2728 3278 2906 2969 
L 2906 3500 
L 3481 3500 
L 3481 434 
z
" transform="scale(0.015625)"/>
       </defs>
       <use xlink:href="#DejaVuSans-32"/>
       <use xlink:href="#DejaVuSans-30" x="63.623047"/>
       <use xlink:href="#DejaVuSans-32" x="127.246094"/>
       <use xlink:href="#DejaVuSans-31" x="190.869141"/>
       <use xlink:href="#DejaVuSans-2d" x="254.492188"/>
       <use xlink:href="#DejaVuSans-41" x="288.326172"/>
       <use xlink:href="#DejaVuSans-75" x="356.734375"/>
       <use xlink:href="#DejaVuSans-67" x="420.113281"/>
       <use xlink:href="#DejaVuSans-2d" x="483.589844"/>
       <use xlink:href="#DejaVuSans-30" x="519.673828"/>
       <use xlink:href="#DejaVuSans-31" x="583.296875"/>
      </g>
     </g>
    </g>
    <g id="xtick_11">
     <g id="line2d_11">
      <g>
       <use xlink:href="#m726516eec3" x="341.569748" y="178.56" style="stroke: #000000; stroke-width: 0.8"/>
      </g>
     </g>
     <g id="text_11">
      <!-- 2021-Sep-01 -->
      <g transform="translate(284.895891 224.260752)rotate(-30)scale(0.1 -0.1)">
       <defs>
        <path id="DejaVuSans-53" d="M 3425 4513 
L 3425 3897 
Q 3066 4069 2747 4153 
Q 2428 4238 2131 4238 
Q 1616 4238 1336 4038 
Q 1056 3838 1056 3469 
Q 1056 3159 1242 3001 
Q 1428 2844 1947 2747 
L 2328 2669 
Q 3034 2534 3370 2195 
Q 3706 1856 3706 1288 
Q 3706 609 3251 259 
Q 2797 -91 1919 -91 
Q 1588 -91 1214 -16 
Q 841 59 441 206 
L 441 856 
Q 825 641 1194 531 
Q 1563 422 1919 422 
Q 2459 422 2753 634 
Q 3047 847 3047 1241 
Q 3047 1584 2836 1778 
Q 2625 1972 2144 2069 
L 1759 2144 
Q 1053 2284 737 2584 
Q 422 2884 422 3419 
Q 422 4038 858 4394 
Q 1294 4750 2059 4750 
Q 2388 4750 2728 4690 
Q 3069 4631 3425 4513 
z
" transform="scale(0.015625)"/>
       </defs>
       <use xlink:href="#DejaVuSans-32"/>
       <use xlink:href="#DejaVuSans-30" x="63.623047"/>
       <use xlink:href="#DejaVuSans-32" x="127.246094"/>
       <use xlink:href="#DejaVuSans-31" x="190.869141"/>
       <use xlink:href="#DejaVuSans-2d" x="254.492188"/>
       <use xlink:href="#DejaVuSans-53" x="290.576172"/>
       <use xlink:href="#DejaVuSans-65" x="354.052734"/>
       <use xlink:href="#DejaVuSans-70" x="415.576172"/>
       <use xlink:href="#DejaVuSans-2d" x="479.052734"/>
       <use xlink:href="#DejaVuSans-30" x="515.136719"/>
       <use xlink:href="#DejaVuSans-31" x="578.759766"/>
      </g>
     </g>
    </g>
    <g id="xtick_12">
     <g id="line2d_12">
      <g>
       <use xlink:href="#m726516eec3" x="368.564306" y="178.56" style="stroke: #000000; stroke-width: 0.8"/>
      </g>
     </g>
     <g id="text_12">
      <!-- 2021-Oct-01 -->
      <g transform="translate(313.00275 223.618565)rotate(-30)scale(0.1 -0.1)">
       <defs>
        <path id="DejaVuSans-4f" d="M 2522 4238 
Q 1834 4238 1429 3725 
Q 1025 3213 1025 2328 
Q 1025 1447 1429 934 
Q 1834 422 2522 422 
Q 3209 422 3611 934 
Q 4013 1447 4013 2328 
Q 4013 3213 3611 3725 
Q 3209 4238 2522 4238 
z
M 2522 4750 
Q 3503 4750 4090 4092 
Q 4678 3434 4678 2328 
Q 4678 1225 4090 567 
Q 3503 -91 2522 -91 
Q 1538 -91 948 565 
Q 359 1222 359 2328 
Q 359 3434 948 4092 
Q 1538 4750 2522 4750 
z
" transform="scale(0.015625)"/>
        <path id="DejaVuSans-74" d="M 1172 4494 
L 1172 3500 
L 2356 3500 
L 2356 3053 
L 1172 3053 
L 1172 1153 
Q 1172 725 1289 603 
Q 1406 481 1766 481 
L 2356 481 
L 2356 0 
L 1766 0 
Q 1100 0 847 248 
Q 594 497 594 1153 
L 594 3053 
L 172 3053 
L 172 3500 
L 594 3500 
L 594 4494 
L 1172 4494 
z
" transform="scale(0.015625)"/>
       </defs>
       <use xlink:href="#DejaVuSans-32"/>
       <use xlink:href="#DejaVuSans-30" x="63.623047"/>
       <use xlink:href="#DejaVuSans-32" x="127.246094"/>
       <use xlink:href="#DejaVuSans-31" x="190.869141"/>
       <use xlink:href="#DejaVuSans-2d" x="254.492188"/>
       <use xlink:href="#DejaVuSans-4f" x="293.326172"/>
       <use xlink:href="#DejaVuSans-63" x="372.037109"/>
       <use xlink:href="#DejaVuSans-74" x="427.017578"/>
       <use xlink:href="#DejaVuSans-2d" x="466.226562"/>
       <use xlink:href="#DejaVuSans-30" x="502.310547"/>
       <use xlink:href="#DejaVuSans-31" x="565.933594"/>
      </g>
     </g>
    </g>
    <g id="xtick_13">
     <g id="line2d_13">
      <g>
       <use xlink:href="#m726516eec3" x="396.458682" y="178.56" style="stroke: #000000; stroke-width: 0.8"/>
      </g>
     </g>
     <g id="text_13">
      <!-- 2021-Nov-01 -->
      <g transform="translate(339.433002 224.463877)rotate(-30)scale(0.1 -0.1)">
       <use xlink:href="#DejaVuSans-32"/>
       <use xlink:href="#DejaVuSans-30" x="63.623047"/>
       <use xlink:href="#DejaVuSans-32" x="127.246094"/>
       <use xlink:href="#DejaVuSans-31" x="190.869141"/>
       <use xlink:href="#DejaVuSans-2d" x="254.492188"/>
       <use xlink:href="#DejaVuSans-4e" x="290.576172"/>
       <use xlink:href="#DejaVuSans-6f" x="365.380859"/>
       <use xlink:href="#DejaVuSans-76" x="426.5625"/>
       <use xlink:href="#DejaVuSans-2d" x="483.117188"/>
       <use xlink:href="#DejaVuSans-30" x="519.201172"/>
       <use xlink:href="#DejaVuSans-31" x="582.824219"/>
      </g>
     </g>
    </g>
    <g id="xtick_14">
     <g id="line2d_14">
      <g>
       <use xlink:href="#m726516eec3" x="423.45324" y="178.56" style="stroke: #000000; stroke-width: 0.8"/>
      </g>
     </g>
     <g id="text_14">
      <!-- 2021-Dec-01 -->
      <g transform="translate(366.345017 224.511534)rotate(-30)scale(0.1 -0.1)">
       <use xlink:href="#DejaVuSans-32"/>
       <use xlink:href="#DejaVuSans-30" x="63.623047"/>
       <use xlink:href="#DejaVuSans-32" x="127.246094"/>
       <use xlink:href="#DejaVuSans-31" x="190.869141"/>
       <use xlink:href="#DejaVuSans-2d" x="254.492188"/>
       <use xlink:href="#DejaVuSans-44" x="290.576172"/>
       <use xlink:href="#DejaVuSans-65" x="367.578125"/>
       <use xlink:href="#DejaVuSans-63" x="429.101562"/>
       <use xlink:href="#DejaVuSans-2d" x="484.082031"/>
       <use xlink:href="#DejaVuSans-30" x="520.166016"/>
       <use xlink:href="#DejaVuSans-31" x="583.789062"/>
      </g>
     </g>
    </g>
    <g id="xtick_15">
     <g id="line2d_15">
      <g>
       <use xlink:href="#m726516eec3" x="451.347616" y="178.56" style="stroke: #000000; stroke-width: 0.8"/>
      </g>
     </g>
     <g id="text_15">
      <!-- 2022-Jan-01 -->
      <g transform="translate(397.160875 222.824815)rotate(-30)scale(0.1 -0.1)">
       <use xlink:href="#DejaVuSans-32"/>
       <use xlink:href="#DejaVuSans-30" x="63.623047"/>
       <use xlink:href="#DejaVuSans-32" x="127.246094"/>
       <use xlink:href="#DejaVuSans-32" x="190.869141"/>
       <use xlink:href="#DejaVuSans-2d" x="254.492188"/>
       <use xlink:href="#DejaVuSans-4a" x="296.201172"/>
       <use xlink:href="#DejaVuSans-61" x="325.693359"/>
       <use xlink:href="#DejaVuSans-6e" x="386.972656"/>
       <use xlink:href="#DejaVuSans-2d" x="450.351562"/>
       <use xlink:href="#DejaVuSans-30" x="486.435547"/>
       <use xlink:href="#DejaVuSans-31" x="550.058594"/>
      </g>
     </g>
    </g>
    <g id="xtick_16">
     <g id="line2d_16">
      <g>
       <use xlink:href="#m726516eec3" x="479.241992" y="178.56" style="stroke: #000000; stroke-width: 0.8"/>
      </g>
     </g>
     <g id="text_16">
      <!-- 2022-Feb-01 -->
      <g transform="translate(423.561358 223.687315)rotate(-30)scale(0.1 -0.1)">
       <use xlink:href="#DejaVuSans-32"/>
       <use xlink:href="#DejaVuSans-30" x="63.623047"/>
       <use xlink:href="#DejaVuSans-32" x="127.246094"/>
       <use xlink:href="#DejaVuSans-32" x="190.869141"/>
       <use xlink:href="#DejaVuSans-2d" x="254.492188"/>
       <use xlink:href="#DejaVuSans-46" x="290.576172"/>
       <use xlink:href="#DejaVuSans-65" x="342.595703"/>
       <use xlink:href="#DejaVuSans-62" x="404.119141"/>
       <use xlink:href="#DejaVuSans-2d" x="467.595703"/>
       <use xlink:href="#DejaVuSans-30" x="503.679688"/>
       <use xlink:href="#DejaVuSans-31" x="567.302734"/>
      </g>
     </g>
    </g>
   </g>
   <g id="matplotlib.axis_2">
    <g id="ytick_1">
     <g id="line2d_17">
      <path d="M 53.132901 153.975136 
L 499.532901 153.975136 
" clip-path="url(#p7cb840a7b2)" style="fill: none; stroke: #b0b0b0; stroke-width: 0.8; stroke-linecap: square"/>
     </g>
     <g id="line2d_18">
      <defs>
       <path id="m593ebd70cf" d="M 0 0 
L -3.5 0 
" style="stroke: #000000; stroke-width: 0.8"/>
      </defs>
      <g>
       <use xlink:href="#m593ebd70cf" x="53.132901" y="153.975136" style="stroke: #000000; stroke-width: 0.8"/>
      </g>
     </g>
     <g id="text_17">
      <!-- 50 -->
      <g transform="translate(33.407901 157.774355)scale(0.1 -0.1)">
       <defs>
        <path id="DejaVuSans-35" d="M 691 4666 
L 3169 4666 
L 3169 4134 
L 1269 4134 
L 1269 2991 
Q 1406 3038 1543 3061 
Q 1681 3084 1819 3084 
Q 2600 3084 3056 2656 
Q 3513 2228 3513 1497 
Q 3513 744 3044 326 
Q 2575 -91 1722 -91 
Q 1428 -91 1123 -41 
Q 819 9 494 109 
L 494 744 
Q 775 591 1075 516 
Q 1375 441 1709 441 
Q 2250 441 2565 725 
Q 2881 1009 2881 1497 
Q 2881 1984 2565 2268 
Q 2250 2553 1709 2553 
Q 1456 2553 1204 2497 
Q 953 2441 691 2322 
L 691 4666 
z
" transform="scale(0.015625)"/>
       </defs>
       <use xlink:href="#DejaVuSans-35"/>
       <use xlink:href="#DejaVuSans-30" x="63.623047"/>
      </g>
     </g>
    </g>
    <g id="ytick_2">
     <g id="line2d_19">
      <path d="M 53.132901 125.66095 
L 499.532901 125.66095 
" clip-path="url(#p7cb840a7b2)" style="fill: none; stroke: #b0b0b0; stroke-width: 0.8; stroke-linecap: square"/>
     </g>
     <g id="line2d_20">
      <g>
       <use xlink:href="#m593ebd70cf" x="53.132901" y="125.66095" style="stroke: #000000; stroke-width: 0.8"/>
      </g>
     </g>
     <g id="text_18">
      <!-- 60 -->
      <g transform="translate(33.407901 129.460169)scale(0.1 -0.1)">
       <defs>
        <path id="DejaVuSans-36" d="M 2113 2584 
Q 1688 2584 1439 2293 
Q 1191 2003 1191 1497 
Q 1191 994 1439 701 
Q 1688 409 2113 409 
Q 2538 409 2786 701 
Q 3034 994 3034 1497 
Q 3034 2003 2786 2293 
Q 2538 2584 2113 2584 
z
M 3366 4563 
L 3366 3988 
Q 3128 4100 2886 4159 
Q 2644 4219 2406 4219 
Q 1781 4219 1451 3797 
Q 1122 3375 1075 2522 
Q 1259 2794 1537 2939 
Q 1816 3084 2150 3084 
Q 2853 3084 3261 2657 
Q 3669 2231 3669 1497 
Q 3669 778 3244 343 
Q 2819 -91 2113 -91 
Q 1303 -91 875 529 
Q 447 1150 447 2328 
Q 447 3434 972 4092 
Q 1497 4750 2381 4750 
Q 2619 4750 2861 4703 
Q 3103 4656 3366 4563 
z
" transform="scale(0.015625)"/>
       </defs>
       <use xlink:href="#DejaVuSans-36"/>
       <use xlink:href="#DejaVuSans-30" x="63.623047"/>
      </g>
     </g>
    </g>
    <g id="ytick_3">
     <g id="line2d_21">
      <path d="M 53.132901 97.346764 
L 499.532901 97.346764 
" clip-path="url(#p7cb840a7b2)" style="fill: none; stroke: #b0b0b0; stroke-width: 0.8; stroke-linecap: square"/>
     </g>
     <g id="line2d_22">
      <g>
       <use xlink:href="#m593ebd70cf" x="53.132901" y="97.346764" style="stroke: #000000; stroke-width: 0.8"/>
      </g>
     </g>
     <g id="text_19">
      <!-- 70 -->
      <g transform="translate(33.407901 101.145983)scale(0.1 -0.1)">
       <defs>
        <path id="DejaVuSans-37" d="M 525 4666 
L 3525 4666 
L 3525 4397 
L 1831 0 
L 1172 0 
L 2766 4134 
L 525 4134 
L 525 4666 
z
" transform="scale(0.015625)"/>
       </defs>
       <use xlink:href="#DejaVuSans-37"/>
       <use xlink:href="#DejaVuSans-30" x="63.623047"/>
      </g>
     </g>
    </g>
    <g id="ytick_4">
     <g id="line2d_23">
      <path d="M 53.132901 69.032578 
L 499.532901 69.032578 
" clip-path="url(#p7cb840a7b2)" style="fill: none; stroke: #b0b0b0; stroke-width: 0.8; stroke-linecap: square"/>
     </g>
     <g id="line2d_24">
      <g>
       <use xlink:href="#m593ebd70cf" x="53.132901" y="69.032578" style="stroke: #000000; stroke-width: 0.8"/>
      </g>
     </g>
     <g id="text_20">
      <!-- 80 -->
      <g transform="translate(33.407901 72.831797)scale(0.1 -0.1)">
       <defs>
        <path id="DejaVuSans-38" d="M 2034 2216 
Q 1584 2216 1326 1975 
Q 1069 1734 1069 1313 
Q 1069 891 1326 650 
Q 1584 409 2034 409 
Q 2484 409 2743 651 
Q 3003 894 3003 1313 
Q 3003 1734 2745 1975 
Q 2488 2216 2034 2216 
z
M 1403 2484 
Q 997 2584 770 2862 
Q 544 3141 544 3541 
Q 544 4100 942 4425 
Q 1341 4750 2034 4750 
Q 2731 4750 3128 4425 
Q 3525 4100 3525 3541 
Q 3525 3141 3298 2862 
Q 3072 2584 2669 2484 
Q 3125 2378 3379 2068 
Q 3634 1759 3634 1313 
Q 3634 634 3220 271 
Q 2806 -91 2034 -91 
Q 1263 -91 848 271 
Q 434 634 434 1313 
Q 434 1759 690 2068 
Q 947 2378 1403 2484 
z
M 1172 3481 
Q 1172 3119 1398 2916 
Q 1625 2713 2034 2713 
Q 2441 2713 2670 2916 
Q 2900 3119 2900 3481 
Q 2900 3844 2670 4047 
Q 2441 4250 2034 4250 
Q 1625 4250 1398 4047 
Q 1172 3844 1172 3481 
z
" transform="scale(0.015625)"/>
       </defs>
       <use xlink:href="#DejaVuSans-38"/>
       <use xlink:href="#DejaVuSans-30" x="63.623047"/>
      </g>
     </g>
    </g>
    <g id="ytick_5">
     <g id="line2d_25">
      <path d="M 53.132901 40.718392 
L 499.532901 40.718392 
" clip-path="url(#p7cb840a7b2)" style="fill: none; stroke: #b0b0b0; stroke-width: 0.8; stroke-linecap: square"/>
     </g>
     <g id="line2d_26">
      <g>
       <use xlink:href="#m593ebd70cf" x="53.132901" y="40.718392" style="stroke: #000000; stroke-width: 0.8"/>
      </g>
     </g>
     <g id="text_21">
      <!-- 90 -->
      <g transform="translate(33.407901 44.51761)scale(0.1 -0.1)">
       <defs>
        <path id="DejaVuSans-39" d="M 703 97 
L 703 672 
Q 941 559 1184 500 
Q 1428 441 1663 441 
Q 2288 441 2617 861 
Q 2947 1281 2994 2138 
Q 2813 1869 2534 1725 
Q 2256 1581 1919 1581 
Q 1219 1581 811 2004 
Q 403 2428 403 3163 
Q 403 3881 828 4315 
Q 1253 4750 1959 4750 
Q 2769 4750 3195 4129 
Q 3622 3509 3622 2328 
Q 3622 1225 3098 567 
Q 2575 -91 1691 -91 
Q 1453 -91 1209 -44 
Q 966 3 703 97 
z
M 1959 2075 
Q 2384 2075 2632 2365 
Q 2881 2656 2881 3163 
Q 2881 3666 2632 3958 
Q 2384 4250 1959 4250 
Q 1534 4250 1286 3958 
Q 1038 3666 1038 3163 
Q 1038 2656 1286 2365 
Q 1534 2075 1959 2075 
z
" transform="scale(0.015625)"/>
       </defs>
       <use xlink:href="#DejaVuSans-39"/>
       <use xlink:href="#DejaVuSans-30" x="63.623047"/>
      </g>
     </g>
    </g>
    <g id="ytick_6">
     <g id="line2d_27">
      <path d="M 53.132901 12.404206 
L 499.532901 12.404206 
" clip-path="url(#p7cb840a7b2)" style="fill: none; stroke: #b0b0b0; stroke-width: 0.8; stroke-linecap: square"/>
     </g>
     <g id="line2d_28">
      <g>
       <use xlink:href="#m593ebd70cf" x="53.132901" y="12.404206" style="stroke: #000000; stroke-width: 0.8"/>
      </g>
     </g>
     <g id="text_22">
      <!-- 100 -->
      <g transform="translate(27.045401 16.203424)scale(0.1 -0.1)">
       <use xlink:href="#DejaVuSans-31"/>
       <use xlink:href="#DejaVuSans-30" x="63.623047"/>
       <use xlink:href="#DejaVuSans-30" x="127.246094"/>
      </g>
     </g>
    </g>
    <g id="text_23">
     <!-- Percentage Of Domains -->
     <g transform="translate(20.965713 151.883125)rotate(-90)scale(0.1 -0.1)">
      <defs>
       <path id="DejaVuSans-50" d="M 1259 4147 
L 1259 2394 
L 2053 2394 
Q 2494 2394 2734 2622 
Q 2975 2850 2975 3272 
Q 2975 3691 2734 3919 
Q 2494 4147 2053 4147 
L 1259 4147 
z
M 628 4666 
L 2053 4666 
Q 2838 4666 3239 4311 
Q 3641 3956 3641 3272 
Q 3641 2581 3239 2228 
Q 2838 1875 2053 1875 
L 1259 1875 
L 1259 0 
L 628 0 
L 628 4666 
z
" transform="scale(0.015625)"/>
       <path id="DejaVuSans-20" transform="scale(0.015625)"/>
       <path id="DejaVuSans-66" d="M 2375 4863 
L 2375 4384 
L 1825 4384 
Q 1516 4384 1395 4259 
Q 1275 4134 1275 3809 
L 1275 3500 
L 2222 3500 
L 2222 3053 
L 1275 3053 
L 1275 0 
L 697 0 
L 697 3053 
L 147 3053 
L 147 3500 
L 697 3500 
L 697 3744 
Q 697 4328 969 4595 
Q 1241 4863 1831 4863 
L 2375 4863 
z
" transform="scale(0.015625)"/>
       <path id="DejaVuSans-6d" d="M 3328 2828 
Q 3544 3216 3844 3400 
Q 4144 3584 4550 3584 
Q 5097 3584 5394 3201 
Q 5691 2819 5691 2113 
L 5691 0 
L 5113 0 
L 5113 2094 
Q 5113 2597 4934 2840 
Q 4756 3084 4391 3084 
Q 3944 3084 3684 2787 
Q 3425 2491 3425 1978 
L 3425 0 
L 2847 0 
L 2847 2094 
Q 2847 2600 2669 2842 
Q 2491 3084 2119 3084 
Q 1678 3084 1418 2786 
Q 1159 2488 1159 1978 
L 1159 0 
L 581 0 
L 581 3500 
L 1159 3500 
L 1159 2956 
Q 1356 3278 1631 3431 
Q 1906 3584 2284 3584 
Q 2666 3584 2933 3390 
Q 3200 3197 3328 2828 
z
" transform="scale(0.015625)"/>
       <path id="DejaVuSans-69" d="M 603 3500 
L 1178 3500 
L 1178 0 
L 603 0 
L 603 3500 
z
M 603 4863 
L 1178 4863 
L 1178 4134 
L 603 4134 
L 603 4863 
z
" transform="scale(0.015625)"/>
       <path id="DejaVuSans-73" d="M 2834 3397 
L 2834 2853 
Q 2591 2978 2328 3040 
Q 2066 3103 1784 3103 
Q 1356 3103 1142 2972 
Q 928 2841 928 2578 
Q 928 2378 1081 2264 
Q 1234 2150 1697 2047 
L 1894 2003 
Q 2506 1872 2764 1633 
Q 3022 1394 3022 966 
Q 3022 478 2636 193 
Q 2250 -91 1575 -91 
Q 1294 -91 989 -36 
Q 684 19 347 128 
L 347 722 
Q 666 556 975 473 
Q 1284 391 1588 391 
Q 1994 391 2212 530 
Q 2431 669 2431 922 
Q 2431 1156 2273 1281 
Q 2116 1406 1581 1522 
L 1381 1569 
Q 847 1681 609 1914 
Q 372 2147 372 2553 
Q 372 3047 722 3315 
Q 1072 3584 1716 3584 
Q 2034 3584 2315 3537 
Q 2597 3491 2834 3397 
z
" transform="scale(0.015625)"/>
      </defs>
      <use xlink:href="#DejaVuSans-50"/>
      <use xlink:href="#DejaVuSans-65" x="56.677734"/>
      <use xlink:href="#DejaVuSans-72" x="118.201172"/>
      <use xlink:href="#DejaVuSans-63" x="157.064453"/>
      <use xlink:href="#DejaVuSans-65" x="212.044922"/>
      <use xlink:href="#DejaVuSans-6e" x="273.568359"/>
      <use xlink:href="#DejaVuSans-74" x="336.947266"/>
      <use xlink:href="#DejaVuSans-61" x="376.15625"/>
      <use xlink:href="#DejaVuSans-67" x="437.435547"/>
      <use xlink:href="#DejaVuSans-65" x="500.912109"/>
      <use xlink:href="#DejaVuSans-20" x="562.435547"/>
      <use xlink:href="#DejaVuSans-4f" x="594.222656"/>
      <use xlink:href="#DejaVuSans-66" x="672.933594"/>
      <use xlink:href="#DejaVuSans-20" x="708.138672"/>
      <use xlink:href="#DejaVuSans-44" x="739.925781"/>
      <use xlink:href="#DejaVuSans-6f" x="816.927734"/>
      <use xlink:href="#DejaVuSans-6d" x="878.109375"/>
      <use xlink:href="#DejaVuSans-61" x="975.521484"/>
      <use xlink:href="#DejaVuSans-69" x="1036.800781"/>
      <use xlink:href="#DejaVuSans-6e" x="1064.583984"/>
      <use xlink:href="#DejaVuSans-73" x="1127.962891"/>
     </g>
    </g>
   </g>
   <g id="line2d_29">
    <path d="M 73.42381 152.730974 
L 77.023084 152.96157 
L 77.922903 152.823128 
L 78.822722 152.512009 
L 80.622359 152.469549 
L 82.421996 152.423105 
L 83.321814 152.307257 
L 84.221633 152.39398 
L 85.121452 152.236917 
L 86.921089 152.1681 
L 90.520363 151.779043 
L 91.420182 151.853381 
L 94.119637 151.704231 
L 95.919275 151.357546 
L 98.61873 150.764725 
L 100.418368 150.437236 
L 102.218005 149.887586 
L 104.917461 148.981059 
L 105.817279 148.916019 
L 107.616916 148.373592 
L 109.416553 148.053212 
L 110.316372 147.800159 
L 114.815465 147.020325 
L 118.414739 146.918275 
L 121.114195 146.57977 
L 124.713469 146.299684 
L 125.613288 146.876811 
L 126.513107 146.295438 
L 128.312744 146.263173 
L 130.112381 146.296364 
L 131.012199 146.530646 
L 131.912018 146.6218 
L 132.811837 146.505581 
L 135.511292 146.592392 
L 140.010385 145.069594 
L 140.910204 144.808115 
L 141.810022 144.18285 
L 142.709841 143.939773 
L 150.808208 139.933062 
L 151.708027 139.336168 
L 153.507664 138.632514 
L 154.407483 138.426721 
L 156.20712 138.401518 
L 157.106938 138.066971 
L 158.006757 137.152946 
L 158.906576 138.209001 
L 160.706213 139.467766 
L 161.606031 140.654816 
L 162.50585 138.720138 
L 163.405669 138.845418 
L 164.305487 138.398153 
L 167.004943 137.337429 
L 167.904761 136.720502 
L 168.80458 136.459758 
L 169.704399 136.536717 
L 171.504036 136.322456 
L 172.403854 136.677652 
L 173.303673 137.521767 
L 175.10331 138.242827 
L 176.003129 138.458673 
L 176.902947 138.482653 
L 177.802766 138.630708 
L 178.702584 138.665098 
L 180.502222 138.980002 
L 182.301859 139.130036 
L 183.201677 139.089405 
L 185.001315 138.838498 
L 185.901133 138.842516 
L 186.800952 139.000864 
L 187.70077 140.381209 
L 188.600589 140.518948 
L 200.298231 139.246639 
L 202.097868 139.275755 
L 205.697142 139.073138 
L 206.596961 139.126423 
L 211.995872 138.50475 
L 217.394784 137.764212 
L 218.294602 137.686788 
L 220.994058 137.816617 
L 224.593332 137.484743 
L 225.493151 137.729243 
L 229.092425 137.411763 
L 232.6917 136.473315 
L 233.591518 135.217294 
L 234.491337 136.30708 
L 235.391155 132.672098 
L 237.190792 132.614382 
L 238.090611 132.638529 
L 239.890248 132.442639 
L 240.790067 132.436611 
L 241.689885 132.543855 
L 246.188978 132.376365 
L 247.988616 132.196829 
L 249.788253 132.253047 
L 250.688071 132.12885 
L 251.58789 132.12087 
L 252.487708 131.821782 
L 253.387527 131.846803 
L 254.287346 131.663068 
L 257.88662 131.630245 
L 258.786439 131.468807 
L 259.686257 131.455119 
L 260.586076 131.009017 
L 261.485894 130.990408 
L 263.285531 131.112801 
L 265.085169 131.088583 
L 265.984987 130.643527 
L 269.584262 130.474041 
L 270.48408 130.23093 
L 271.383899 130.245734 
L 272.283717 130.416323 
L 273.183536 130.23657 
L 274.983173 130.378193 
L 275.882992 130.077278 
L 287.580633 129.828575 
L 288.480452 129.877362 
L 313.675372 126.412064 
L 315.475009 126.472209 
L 317.274647 126.198322 
L 319.074284 125.934672 
L 321.773739 125.619558 
L 322.673558 125.44333 
L 326.272832 125.286394 
L 328.972288 124.8469 
L 329.872107 124.830675 
L 346.068841 123.484899 
L 349.668116 122.725185 
L 350.567934 122.897182 
L 353.26739 122.398735 
L 354.167209 122.13086 
L 355.067027 122.016078 
L 355.966846 122.094877 
L 356.866664 121.622282 
L 357.766483 119.731139 
L 358.666301 121.253829 
L 359.56612 121.853915 
L 360.465939 121.461637 
L 362.265576 121.552204 
L 365.86485 121.376119 
L 366.764669 121.119925 
L 368.564306 120.899642 
L 369.464124 121.045699 
L 371.263762 120.986902 
L 372.16358 120.751222 
L 379.362129 120.311699 
L 380.261948 120.021353 
L 381.161766 120.254415 
L 382.061585 120.322912 
L 382.961403 119.608264 
L 383.861222 119.765469 
L 384.76104 119.692507 
L 385.660859 119.483944 
L 386.560678 119.594742 
L 387.460496 119.494183 
L 389.260133 119.667655 
L 390.159952 119.609412 
L 391.959589 119.032797 
L 393.759226 118.861371 
L 395.558863 118.901614 
L 397.358501 118.672194 
L 398.258319 118.641465 
L 400.057956 118.255903 
L 401.857594 118.385082 
L 404.557049 118.098018 
L 407.256505 114.311574 
L 408.156324 118.029931 
L 409.056142 118.320426 
L 409.955961 117.552883 
L 410.855779 117.934507 
L 411.755598 117.984822 
L 412.655417 117.91976 
L 413.555235 117.712006 
L 415.354872 117.756643 
L 418.054328 117.382785 
L 418.954147 117.527035 
L 420.753784 117.359298 
L 421.653602 117.539755 
L 422.553421 117.115243 
L 423.45324 117.273981 
L 424.353058 117.069306 
L 427.052514 117.234005 
L 431.551607 116.886852 
L 432.451425 116.974785 
L 433.351244 116.268828 
L 434.251063 116.832254 
L 435.150881 116.627247 
L 436.0507 116.842685 
L 436.950518 116.644294 
L 437.850337 116.584371 
L 440.549793 116.664744 
L 442.34943 116.324802 
L 445.948704 116.160124 
L 447.748341 115.909164 
L 449.547979 115.909298 
L 453.147253 115.577354 
L 454.047071 115.317918 
L 454.94689 115.176236 
L 456.746527 115.217947 
L 457.646346 114.959042 
L 459.445983 114.892169 
L 460.345802 114.712611 
L 463.045257 114.562342 
L 463.945076 114.391936 
L 464.844894 114.428896 
L 465.744713 114.202865 
L 466.644532 113.632157 
L 467.54435 114.040359 
L 476.542536 113.233335 
L 478.342173 113.229474 
L 479.241992 112.989991 
L 479.241992 112.989991 
" clip-path="url(#p7cb840a7b2)" style="fill: none; stroke: #008000; stroke-width: 1.5; stroke-linecap: square"/>
   </g>
   <g id="line2d_30">
    <path d="M 73.42381 15.413359 
L 81.522177 15.358778 
L 82.421996 15.452504 
L 84.221633 15.309713 
L 95.019456 15.296701 
L 95.919275 15.476342 
L 96.819093 15.30845 
L 99.518549 15.305592 
L 107.616916 15.311904 
L 110.316372 15.284306 
L 119.314558 15.401369 
L 121.114195 15.370088 
L 132.811837 15.366118 
L 142.709841 15.300228 
L 155.307301 15.087623 
L 253.387527 15.233484 
L 254.287346 15.365862 
L 255.187164 15.226985 
L 266.884806 15.219455 
L 273.183536 15.163737 
L 277.682629 15.173305 
L 282.181722 15.15247 
L 288.480452 15.143992 
L 329.872107 15.033496 
L 379.362129 15.056904 
L 380.261948 15.480703 
L 381.161766 15.072329 
L 386.560678 15.094914 
L 387.460496 15.647212 
L 391.059771 15.665123 
L 392.859408 15.025931 
L 407.256505 15.137021 
L 409.056142 15.023699 
L 411.755598 15.088361 
L 415.354872 15.032695 
L 418.954147 15.075705 
L 422.553421 15.092613 
L 427.052514 15.078033 
L 429.75197 15.112783 
L 445.048886 15.119614 
L 445.948704 15.19318 
L 449.547979 15.115326 
L 468.444169 15.090784 
L 479.241992 15.080238 
L 479.241992 15.080238 
" clip-path="url(#p7cb840a7b2)" style="fill: none; stroke: #ffa500; stroke-width: 1.5; stroke-linecap: square"/>
   </g>
   <g id="line2d_31">
    <path d="M 73.42381 123.937077 
L 75.223447 123.999717 
L 76.123266 124.020194 
L 77.922903 124.389729 
L 78.822722 124.701346 
L 80.622359 124.744187 
L 81.522177 124.602149 
L 82.421996 124.971235 
L 83.321814 124.842006 
L 86.02127 125.297699 
L 86.921089 125.258525 
L 89.620545 125.561056 
L 90.520363 125.865411 
L 95.019456 125.908065 
L 95.919275 126.348911 
L 97.718912 126.642102 
L 98.61873 126.812774 
L 99.518549 126.865599 
L 100.418368 126.729517 
L 102.218005 126.906734 
L 103.117823 127.415687 
L 104.017642 127.401127 
L 104.917461 127.670981 
L 105.817279 127.109546 
L 107.616916 126.907149 
L 110.316372 127.534069 
L 113.015828 127.224046 
L 114.815465 127.516668 
L 117.514921 127.479869 
L 119.314558 127.286952 
L 120.214376 127.158831 
L 121.114195 127.4018 
L 122.913832 127.502425 
L 124.713469 127.383909 
L 126.513107 127.959412 
L 127.412925 127.676201 
L 128.312744 128.156905 
L 131.012199 128.571874 
L 131.912018 129.139354 
L 132.811837 129.021449 
L 135.511292 130.187469 
L 138.210748 129.789093 
L 139.110567 129.535884 
L 141.810022 130.131485 
L 142.709841 130.154184 
L 151.708027 129.642845 
L 154.407483 129.792231 
L 155.307301 129.560336 
L 156.20712 129.672398 
L 157.106938 129.409015 
L 158.006757 131.230631 
L 158.906576 129.814775 
L 159.806394 130.498454 
L 161.606031 132.67367 
L 162.50585 131.091704 
L 164.305487 131.178374 
L 166.105124 131.365041 
L 167.904761 130.722122 
L 168.80458 130.98545 
L 169.704399 130.49672 
L 170.604217 131.202534 
L 171.504036 131.236936 
L 173.303673 132.615539 
L 175.10331 133.641519 
L 176.902947 133.926956 
L 178.702584 134.830244 
L 179.602403 135.14853 
L 180.502222 135.315953 
L 182.301859 135.297408 
L 183.201677 135.237788 
L 186.800952 136.214278 
L 187.70077 137.385921 
L 188.600589 137.424425 
L 200.298231 138.905447 
L 201.198049 138.81814 
L 202.997686 138.992372 
L 205.697142 139.457303 
L 208.396598 139.400939 
L 209.296416 139.361034 
L 210.196235 139.719734 
L 211.995872 139.793114 
L 215.595146 140.001813 
L 217.394784 140.298501 
L 218.294602 140.444854 
L 219.194421 140.31098 
L 221.893877 140.315493 
L 224.593332 140.734213 
L 227.292788 140.407053 
L 229.092425 140.688348 
L 232.6917 141.684623 
L 233.591518 144.361482 
L 234.491337 141.757107 
L 235.391155 144.794197 
L 237.190792 145.003468 
L 241.689885 144.90796 
L 243.489523 145.060302 
L 245.28916 144.946516 
L 247.988616 145.178717 
L 249.788253 145.427856 
L 251.58789 145.265669 
L 252.487708 146.131688 
L 253.387527 146.193957 
L 254.287346 146.584471 
L 255.187164 146.227358 
L 257.88662 146.177314 
L 259.686257 146.349464 
L 260.586076 147.239424 
L 261.485894 147.351763 
L 262.385713 147.143685 
L 263.285531 147.115982 
L 264.18535 146.942588 
L 265.085169 146.556111 
L 265.984987 147.514151 
L 266.884806 147.719804 
L 269.584262 147.712064 
L 270.48408 148.351846 
L 271.383899 148.182334 
L 272.283717 148.245103 
L 273.183536 148.617612 
L 274.083354 148.661955 
L 274.983173 148.324994 
L 275.882992 148.863704 
L 276.78281 148.970524 
L 279.482266 148.941442 
L 282.181722 149.156001 
L 287.580633 150.244609 
L 288.480452 149.958496 
L 313.675372 151.558952 
L 314.575191 151.468395 
L 319.074284 151.809836 
L 320.873921 151.811557 
L 322.673558 152.202503 
L 327.172651 152.577254 
L 328.07247 152.464232 
L 328.972288 152.072766 
L 329.872107 152.350555 
L 346.96866 153.140276 
L 350.567934 153.691775 
L 351.467753 153.518037 
L 352.367571 153.464823 
L 353.26739 153.537784 
L 354.167209 153.781517 
L 355.067027 153.869078 
L 355.966846 153.824727 
L 356.866664 154.153666 
L 357.766483 156.336392 
L 358.666301 155.401229 
L 359.56612 153.986202 
L 360.465939 154.291555 
L 361.365757 154.194077 
L 362.265576 154.351155 
L 364.965032 154.200664 
L 368.564306 154.627785 
L 369.464124 154.999463 
L 371.263762 155.129116 
L 373.063399 155.422898 
L 373.963217 155.894377 
L 374.863036 155.266855 
L 376.662673 155.006809 
L 378.46231 155.187071 
L 379.362129 155.447108 
L 380.261948 155.892238 
L 381.161766 155.642153 
L 382.061585 155.672642 
L 382.961403 156.342456 
L 383.861222 156.09322 
L 384.76104 156.676896 
L 385.660859 156.709906 
L 386.560678 156.967683 
L 387.460496 156.207581 
L 388.360315 156.824152 
L 390.159952 156.807862 
L 391.059771 156.446306 
L 391.959589 157.044647 
L 392.859408 156.982541 
L 393.759226 157.12579 
L 395.558863 156.95953 
L 396.458682 157.075458 
L 397.358501 157.078913 
L 398.258319 157.333725 
L 399.158138 157.779228 
L 400.957775 157.564571 
L 401.857594 157.448476 
L 402.757412 157.678462 
L 403.657231 157.574511 
L 404.557049 157.681702 
L 407.256505 161.154086 
L 408.156324 157.641808 
L 409.056142 157.136318 
L 409.955961 158.583467 
L 410.855779 157.75492 
L 411.755598 157.669513 
L 413.555235 157.773555 
L 414.455054 157.642339 
L 415.354872 157.661622 
L 418.054328 158.277306 
L 418.954147 158.193644 
L 420.753784 158.30463 
L 421.653602 158.165763 
L 423.45324 158.321145 
L 424.353058 159.225861 
L 426.152695 158.729367 
L 427.952333 158.689892 
L 428.852151 158.927738 
L 429.75197 159.462671 
L 431.551607 159.026641 
L 432.451425 158.820716 
L 433.351244 159.318399 
L 434.251063 158.699285 
L 435.150881 159.032607 
L 436.0507 158.864696 
L 437.850337 159.033782 
L 440.549793 159.104908 
L 441.449611 158.917596 
L 443.249248 159.497169 
L 445.048886 159.148275 
L 447.748341 159.22402 
L 448.64816 159.247818 
L 449.547979 159.009809 
L 454.047071 158.974386 
L 454.94689 159.129136 
L 455.846709 158.966536 
L 456.746527 159.166195 
L 457.646346 158.995224 
L 459.445983 159.068207 
L 461.24562 158.938232 
L 462.145439 159.30656 
L 463.045257 159.256318 
L 463.945076 159.865374 
L 464.844894 159.518339 
L 465.744713 159.420708 
L 466.644532 159.739589 
L 467.54435 159.335138 
L 468.444169 159.471773 
L 470.243806 159.329952 
L 472.943262 159.661719 
L 474.742899 159.74387 
L 476.542536 160.266602 
L 477.442355 160.071822 
L 478.342173 160.272311 
L 479.241992 160.323463 
L 479.241992 160.323463 
" clip-path="url(#p7cb840a7b2)" style="fill: none; stroke: #ff0000; stroke-width: 1.5; stroke-linecap: square"/>
   </g>
   <g id="line2d_32">
    <path d="M 73.42381 137.510697 
L 75.223447 137.520454 
L 77.023084 137.680768 
L 79.72254 138.210355 
L 80.622359 138.230471 
L 81.522177 138.046461 
L 82.421996 138.395434 
L 83.321814 138.175501 
L 85.121452 138.717817 
L 86.921089 138.662421 
L 89.620545 138.992511 
L 90.520363 139.31385 
L 94.119637 139.203155 
L 95.019456 139.266685 
L 95.919275 139.712324 
L 99.518549 140.240996 
L 100.418368 140.143992 
L 102.218005 140.260042 
L 103.117823 140.777119 
L 104.017642 140.68284 
L 104.917461 140.901693 
L 105.817279 140.297063 
L 107.616916 140.08652 
L 110.316372 140.672174 
L 113.015828 140.249843 
L 116.615102 140.597074 
L 120.214376 140.14437 
L 121.114195 140.405418 
L 122.913832 140.545835 
L 124.713469 140.421142 
L 126.513107 141.08435 
L 127.412925 140.737513 
L 128.312744 141.214393 
L 131.012199 141.649143 
L 131.912018 142.265412 
L 132.811837 142.128429 
L 135.511292 142.906867 
L 138.210748 142.454039 
L 139.110567 142.183922 
L 141.810022 142.755916 
L 142.709841 142.742052 
L 151.708027 141.662655 
L 154.407483 141.841924 
L 155.307301 141.555853 
L 156.20712 141.674103 
L 157.106938 141.381712 
L 158.006757 143.281354 
L 158.906576 141.815558 
L 159.806394 142.537864 
L 161.606031 144.994022 
L 162.50585 143.248761 
L 163.405669 143.409766 
L 164.305487 143.11777 
L 166.105124 143.190603 
L 167.904761 142.474759 
L 168.80458 142.701617 
L 169.704399 142.162777 
L 171.504036 142.273745 
L 173.303673 143.77891 
L 175.10331 144.853415 
L 176.902947 145.197556 
L 178.702584 146.023437 
L 179.602403 146.389156 
L 181.40204 146.555662 
L 183.201677 146.436296 
L 186.800952 147.389253 
L 187.70077 148.684926 
L 188.600589 148.752447 
L 200.298231 149.909078 
L 201.198049 149.813259 
L 202.997686 149.966496 
L 205.697142 150.397832 
L 209.296416 150.285037 
L 210.196235 150.607392 
L 211.995872 150.667976 
L 215.595146 150.822538 
L 218.294602 151.299181 
L 219.194421 151.158036 
L 221.893877 151.121266 
L 224.593332 151.308307 
L 227.292788 150.983466 
L 229.092425 151.273553 
L 232.6917 152.290142 
L 233.591518 155.026703 
L 234.491337 152.318744 
L 235.391155 155.647143 
L 237.190792 155.842255 
L 241.689885 155.623316 
L 243.489523 155.788561 
L 245.28916 155.742423 
L 247.088797 155.784517 
L 250.688071 155.969733 
L 251.58789 155.912362 
L 252.487708 156.786838 
L 253.387527 156.82339 
L 254.287346 157.250154 
L 255.187164 156.812876 
L 256.086983 156.752023 
L 259.686257 156.923421 
L 260.586076 157.752383 
L 261.485894 157.927113 
L 262.385713 157.66516 
L 264.18535 157.589951 
L 265.085169 157.198655 
L 265.984987 158.090319 
L 266.884806 158.268863 
L 269.584262 158.301907 
L 270.48408 158.92798 
L 271.383899 158.813137 
L 272.283717 158.82882 
L 273.183536 159.212779 
L 274.083354 159.167631 
L 274.983173 158.871549 
L 275.882992 159.342686 
L 276.78281 159.545375 
L 277.682629 159.434456 
L 279.482266 159.392958 
L 282.181722 159.57026 
L 287.580633 160.722576 
L 288.480452 160.44419 
L 313.675372 161.840618 
L 314.575191 161.716508 
L 319.074284 162.016979 
L 320.873921 162.032811 
L 325.373014 162.701205 
L 326.272832 162.609758 
L 327.172651 162.707284 
L 328.07247 162.53906 
L 328.972288 162.157187 
L 329.872107 162.419802 
L 346.96866 163.136814 
L 350.567934 163.653464 
L 351.467753 163.485764 
L 353.26739 163.461859 
L 354.167209 163.752506 
L 355.966846 163.79933 
L 356.866664 164.160322 
L 357.766483 166.460015 
L 358.666301 165.530222 
L 359.56612 164.005128 
L 360.465939 164.257157 
L 361.365757 164.132149 
L 362.265576 164.242136 
L 364.965032 164.062928 
L 365.86485 164.212069 
L 366.764669 164.21719 
L 368.564306 164.521742 
L 369.464124 164.84647 
L 371.263762 164.984198 
L 372.16358 165.265922 
L 373.063399 165.376686 
L 373.963217 165.88092 
L 374.863036 165.224443 
L 375.762855 165.00968 
L 376.662673 164.960192 
L 378.46231 165.098617 
L 380.261948 165.708355 
L 381.161766 165.444442 
L 382.061585 165.464349 
L 382.961403 165.963406 
L 383.861222 165.906305 
L 384.76104 166.400983 
L 385.660859 166.478257 
L 386.560678 166.676326 
L 387.460496 165.942965 
L 388.360315 166.59403 
L 390.159952 166.587734 
L 391.059771 166.181093 
L 391.959589 166.727299 
L 395.558863 166.535671 
L 396.458682 166.667324 
L 397.358501 166.681152 
L 399.158138 167.350139 
L 400.057956 167.31759 
L 400.957775 167.076582 
L 401.857594 166.99025 
L 402.757412 167.212265 
L 403.657231 167.100513 
L 404.557049 167.18374 
L 407.256505 170.770909 
L 408.156324 167.056427 
L 409.056142 166.553941 
L 409.955961 168.022697 
L 410.855779 167.128561 
L 412.655417 167.077786 
L 413.555235 167.147968 
L 414.455054 167.04148 
L 415.354872 167.0805 
L 417.154509 167.422862 
L 418.054328 167.696341 
L 418.954147 167.516835 
L 419.853965 167.704452 
L 420.753784 167.685633 
L 421.653602 167.49488 
L 423.45324 167.703789 
L 424.353058 168.422892 
L 426.152695 168.084323 
L 427.952333 167.976331 
L 428.852151 168.20198 
L 429.75197 168.720063 
L 431.551607 168.273896 
L 432.451425 168.135751 
L 433.351244 168.676696 
L 434.251063 168.105877 
L 435.150881 168.377295 
L 436.0507 168.214079 
L 437.850337 168.386268 
L 440.549793 168.240722 
L 441.449611 168.071012 
L 443.249248 168.63967 
L 445.048886 168.290828 
L 448.64816 168.446704 
L 449.547979 168.209817 
L 454.047071 168.271159 
L 454.94689 168.462478 
L 455.846709 168.231945 
L 456.746527 168.402807 
L 457.646346 168.296007 
L 459.445983 168.332767 
L 461.24562 168.195244 
L 462.145439 168.555594 
L 463.045257 168.527233 
L 463.945076 169.091879 
L 464.844894 168.783969 
L 465.744713 168.687932 
L 466.644532 169.019596 
L 467.54435 168.54675 
L 468.444169 168.716697 
L 469.343987 168.710093 
L 470.243806 168.537989 
L 472.943262 168.811538 
L 474.742899 168.850462 
L 476.542536 169.339111 
L 477.442355 169.16575 
L 478.342173 169.356304 
L 479.241992 169.409126 
L 479.241992 169.409126 
" clip-path="url(#p7cb840a7b2)" style="fill: none; stroke: #000000; stroke-width: 1.5; stroke-linecap: square"/>
   </g>
   <g id="patch_3">
    <path d="M 53.132901 178.56 
L 53.132901 7.2 
" style="fill: none; stroke: #000000; stroke-width: 0.8; stroke-linejoin: miter; stroke-linecap: square"/>
   </g>
   <g id="patch_4">
    <path d="M 499.532901 178.56 
L 499.532901 7.2 
" style="fill: none; stroke: #000000; stroke-width: 0.8; stroke-linejoin: miter; stroke-linecap: square"/>
   </g>
   <g id="patch_5">
    <path d="M 53.132901 178.56 
L 499.532901 178.56 
" style="fill: none; stroke: #000000; stroke-width: 0.8; stroke-linejoin: miter; stroke-linecap: square"/>
   </g>
   <g id="patch_6">
    <path d="M 53.132901 7.2 
L 499.532901 7.2 
" style="fill: none; stroke: #000000; stroke-width: 0.8; stroke-linejoin: miter; stroke-linecap: square"/>
   </g>
   <g id="legend_1">
    <g id="patch_7">
     <path d="M 244.956338 106.60025 
L 307.709463 106.60025 
Q 309.709463 106.60025 309.709463 104.60025 
L 309.709463 46.88775 
Q 309.709463 44.88775 307.709463 44.88775 
L 244.956338 44.88775 
Q 242.956338 44.88775 242.956338 46.88775 
L 242.956338 104.60025 
Q 242.956338 106.60025 244.956338 106.60025 
z
" style="fill: #ffffff; opacity: 0.8; stroke: #cccccc; stroke-linejoin: miter"/>
    </g>
    <g id="line2d_33">
     <path d="M 246.956338 52.986187 
L 256.956338 52.986187 
L 266.956338 52.986187 
" style="fill: none; stroke: #008000; stroke-width: 1.5; stroke-linecap: square"/>
    </g>
    <g id="text_24">
     <!-- TLS13 -->
     <g transform="translate(274.956338 56.486187)scale(0.1 -0.1)">
      <defs>
       <path id="DejaVuSans-54" d="M -19 4666 
L 3928 4666 
L 3928 4134 
L 2272 4134 
L 2272 0 
L 1638 0 
L 1638 4134 
L -19 4134 
L -19 4666 
z
" transform="scale(0.015625)"/>
       <path id="DejaVuSans-4c" d="M 628 4666 
L 1259 4666 
L 1259 531 
L 3531 531 
L 3531 0 
L 628 0 
L 628 4666 
z
" transform="scale(0.015625)"/>
       <path id="DejaVuSans-33" d="M 2597 2516 
Q 3050 2419 3304 2112 
Q 3559 1806 3559 1356 
Q 3559 666 3084 287 
Q 2609 -91 1734 -91 
Q 1441 -91 1130 -33 
Q 819 25 488 141 
L 488 750 
Q 750 597 1062 519 
Q 1375 441 1716 441 
Q 2309 441 2620 675 
Q 2931 909 2931 1356 
Q 2931 1769 2642 2001 
Q 2353 2234 1838 2234 
L 1294 2234 
L 1294 2753 
L 1863 2753 
Q 2328 2753 2575 2939 
Q 2822 3125 2822 3475 
Q 2822 3834 2567 4026 
Q 2313 4219 1838 4219 
Q 1578 4219 1281 4162 
Q 984 4106 628 3988 
L 628 4550 
Q 988 4650 1302 4700 
Q 1616 4750 1894 4750 
Q 2613 4750 3031 4423 
Q 3450 4097 3450 3541 
Q 3450 3153 3228 2886 
Q 3006 2619 2597 2516 
z
" transform="scale(0.015625)"/>
      </defs>
      <use xlink:href="#DejaVuSans-54"/>
      <use xlink:href="#DejaVuSans-4c" x="61.083984"/>
      <use xlink:href="#DejaVuSans-53" x="116.796875"/>
      <use xlink:href="#DejaVuSans-31" x="180.273438"/>
      <use xlink:href="#DejaVuSans-33" x="243.896484"/>
     </g>
    </g>
    <g id="line2d_34">
     <path d="M 246.956338 67.664312 
L 256.956338 67.664312 
L 266.956338 67.664312 
" style="fill: none; stroke: #ffa500; stroke-width: 1.5; stroke-linecap: square"/>
    </g>
    <g id="text_25">
     <!-- TLS12 -->
     <g transform="translate(274.956338 71.164312)scale(0.1 -0.1)">
      <use xlink:href="#DejaVuSans-54"/>
      <use xlink:href="#DejaVuSans-4c" x="61.083984"/>
      <use xlink:href="#DejaVuSans-53" x="116.796875"/>
      <use xlink:href="#DejaVuSans-31" x="180.273438"/>
      <use xlink:href="#DejaVuSans-32" x="243.896484"/>
     </g>
    </g>
    <g id="line2d_35">
     <path d="M 246.956338 82.342437 
L 256.956338 82.342437 
L 266.956338 82.342437 
" style="fill: none; stroke: #ff0000; stroke-width: 1.5; stroke-linecap: square"/>
    </g>
    <g id="text_26">
     <!-- TLS11 -->
     <g transform="translate(274.956338 85.842437)scale(0.1 -0.1)">
      <use xlink:href="#DejaVuSans-54"/>
      <use xlink:href="#DejaVuSans-4c" x="61.083984"/>
      <use xlink:href="#DejaVuSans-53" x="116.796875"/>
      <use xlink:href="#DejaVuSans-31" x="180.273438"/>
      <use xlink:href="#DejaVuSans-31" x="243.896484"/>
     </g>
    </g>
    <g id="line2d_36">
     <path d="M 246.956338 97.020563 
L 256.956338 97.020563 
L 266.956338 97.020563 
" style="fill: none; stroke: #000000; stroke-width: 1.5; stroke-linecap: square"/>
    </g>
    <g id="text_27">
     <!-- TLS10 -->
     <g transform="translate(274.956338 100.520563)scale(0.1 -0.1)">
      <use xlink:href="#DejaVuSans-54"/>
      <use xlink:href="#DejaVuSans-4c" x="61.083984"/>
      <use xlink:href="#DejaVuSans-53" x="116.796875"/>
      <use xlink:href="#DejaVuSans-31" x="180.273438"/>
      <use xlink:href="#DejaVuSans-30" x="243.896484"/>
     </g>
    </g>
   </g>
  </g>
 </g>
 <defs>
  <clipPath id="p7cb840a7b2">
   <rect x="53.132901" y="7.2" width="446.4" height="171.36"/>
  </clipPath>
 </defs>
</svg>
