<?xml version="1.0" encoding="utf-8" standalone="no"?>
<!DOCTYPE svg PUBLIC "-//W3C//DTD SVG 1.1//EN"
  "http://www.w3.org/Graphics/SVG/1.1/DTD/svg11.dtd">
<svg xmlns:xlink="http://www.w3.org/1999/xlink" width="507.159131pt" height="237.886033pt" viewBox="0 0 507.159131 237.886033" xmlns="http://www.w3.org/2000/svg" version="1.1">
 <metadata>
  <rdf:RDF xmlns:dc="http://purl.org/dc/elements/1.1/" xmlns:cc="http://creativecommons.org/ns#" xmlns:rdf="http://www.w3.org/1999/02/22-rdf-syntax-ns#">
   <cc:Work>
    <dc:type rdf:resource="http://purl.org/dc/dcmitype/StillImage"/>
    <dc:date>2022-02-10T20:35:52.346785</dc:date>
    <dc:format>image/svg+xml</dc:format>
    <dc:creator>
     <cc:Agent>
      <dc:title>Matplotlib v3.5.1, https://matplotlib.org/</dc:title>
     </cc:Agent>
    </dc:creator>
   </cc:Work>
  </rdf:RDF>
 </metadata>
 <defs>
  <style type="text/css">*{stroke-linejoin: round; stroke-linecap: butt}</style>
 </defs>
 <g id="figure_1">
  <g id="patch_1">
   <path d="M 0 237.886033 
L 507.159131 237.886033 
L 507.159131 0 
L 0 0 
z
" style="fill: #ffffff"/>
  </g>
  <g id="axes_1">
   <g id="patch_2">
    <path d="M 53.559131 182.359219 
L 499.959131 182.359219 
L 499.959131 10.999219 
L 53.559131 10.999219 
z
" style="fill: #ffffff"/>
   </g>
   <g id="matplotlib.axis_1">
    <g id="xtick_1">
     <g id="line2d_1">
      <defs>
       <path id="mb12565c73f" d="M 0 0 
L 0 3.5 
" style="stroke: #000000; stroke-width: 0.8"/>
      </defs>
      <g>
       <use xlink:href="#mb12565c73f" x="68.024899" y="182.359219" style="stroke: #000000; stroke-width: 0.8"/>
      </g>
     </g>
     <g id="text_1">
      <!-- 2020-Nov-01 -->
      <g transform="translate(10.999219 228.263096)rotate(-30)scale(0.1 -0.1)">
       <defs>
        <path id="DejaVuSans-32" d="M 1228 531 
L 3431 531 
L 3431 0 
L 469 0 
L 469 531 
Q 828 903 1448 1529 
Q 2069 2156 2228 2338 
Q 2531 2678 2651 2914 
Q 2772 3150 2772 3378 
Q 2772 3750 2511 3984 
Q 2250 4219 1831 4219 
Q 1534 4219 1204 4116 
Q 875 4013 500 3803 
L 500 4441 
Q 881 4594 1212 4672 
Q 1544 4750 1819 4750 
Q 2544 4750 2975 4387 
Q 3406 4025 3406 3419 
Q 3406 3131 3298 2873 
Q 3191 2616 2906 2266 
Q 2828 2175 2409 1742 
Q 1991 1309 1228 531 
z
" transform="scale(0.015625)"/>
        <path id="DejaVuSans-30" d="M 2034 4250 
Q 1547 4250 1301 3770 
Q 1056 3291 1056 2328 
Q 1056 1369 1301 889 
Q 1547 409 2034 409 
Q 2525 409 2770 889 
Q 3016 1369 3016 2328 
Q 3016 3291 2770 3770 
Q 2525 4250 2034 4250 
z
M 2034 4750 
Q 2819 4750 3233 4129 
Q 3647 3509 3647 2328 
Q 3647 1150 3233 529 
Q 2819 -91 2034 -91 
Q 1250 -91 836 529 
Q 422 1150 422 2328 
Q 422 3509 836 4129 
Q 1250 4750 2034 4750 
z
" transform="scale(0.015625)"/>
        <path id="DejaVuSans-2d" d="M 313 2009 
L 1997 2009 
L 1997 1497 
L 313 1497 
L 313 2009 
z
" transform="scale(0.015625)"/>
        <path id="DejaVuSans-4e" d="M 628 4666 
L 1478 4666 
L 3547 763 
L 3547 4666 
L 4159 4666 
L 4159 0 
L 3309 0 
L 1241 3903 
L 1241 0 
L 628 0 
L 628 4666 
z
" transform="scale(0.015625)"/>
        <path id="DejaVuSans-6f" d="M 1959 3097 
Q 1497 3097 1228 2736 
Q 959 2375 959 1747 
Q 959 1119 1226 758 
Q 1494 397 1959 397 
Q 2419 397 2687 759 
Q 2956 1122 2956 1747 
Q 2956 2369 2687 2733 
Q 2419 3097 1959 3097 
z
M 1959 3584 
Q 2709 3584 3137 3096 
Q 3566 2609 3566 1747 
Q 3566 888 3137 398 
Q 2709 -91 1959 -91 
Q 1206 -91 779 398 
Q 353 888 353 1747 
Q 353 2609 779 3096 
Q 1206 3584 1959 3584 
z
" transform="scale(0.015625)"/>
        <path id="DejaVuSans-76" d="M 191 3500 
L 800 3500 
L 1894 563 
L 2988 3500 
L 3597 3500 
L 2284 0 
L 1503 0 
L 191 3500 
z
" transform="scale(0.015625)"/>
        <path id="DejaVuSans-31" d="M 794 531 
L 1825 531 
L 1825 4091 
L 703 3866 
L 703 4441 
L 1819 4666 
L 2450 4666 
L 2450 531 
L 3481 531 
L 3481 0 
L 794 0 
L 794 531 
z
" transform="scale(0.015625)"/>
       </defs>
       <use xlink:href="#DejaVuSans-32"/>
       <use xlink:href="#DejaVuSans-30" x="63.623047"/>
       <use xlink:href="#DejaVuSans-32" x="127.246094"/>
       <use xlink:href="#DejaVuSans-30" x="190.869141"/>
       <use xlink:href="#DejaVuSans-2d" x="254.492188"/>
       <use xlink:href="#DejaVuSans-4e" x="290.576172"/>
       <use xlink:href="#DejaVuSans-6f" x="365.380859"/>
       <use xlink:href="#DejaVuSans-76" x="426.5625"/>
       <use xlink:href="#DejaVuSans-2d" x="483.117188"/>
       <use xlink:href="#DejaVuSans-30" x="519.201172"/>
       <use xlink:href="#DejaVuSans-31" x="582.824219"/>
      </g>
     </g>
    </g>
    <g id="xtick_2">
     <g id="line2d_2">
      <g>
       <use xlink:href="#mb12565c73f" x="97.150605" y="182.359219" style="stroke: #000000; stroke-width: 0.8"/>
      </g>
     </g>
     <g id="text_2">
      <!-- 2020-Dec-01 -->
      <g transform="translate(40.042383 228.310752)rotate(-30)scale(0.1 -0.1)">
       <defs>
        <path id="DejaVuSans-44" d="M 1259 4147 
L 1259 519 
L 2022 519 
Q 2988 519 3436 956 
Q 3884 1394 3884 2338 
Q 3884 3275 3436 3711 
Q 2988 4147 2022 4147 
L 1259 4147 
z
M 628 4666 
L 1925 4666 
Q 3281 4666 3915 4102 
Q 4550 3538 4550 2338 
Q 4550 1131 3912 565 
Q 3275 0 1925 0 
L 628 0 
L 628 4666 
z
" transform="scale(0.015625)"/>
        <path id="DejaVuSans-65" d="M 3597 1894 
L 3597 1613 
L 953 1613 
Q 991 1019 1311 708 
Q 1631 397 2203 397 
Q 2534 397 2845 478 
Q 3156 559 3463 722 
L 3463 178 
Q 3153 47 2828 -22 
Q 2503 -91 2169 -91 
Q 1331 -91 842 396 
Q 353 884 353 1716 
Q 353 2575 817 3079 
Q 1281 3584 2069 3584 
Q 2775 3584 3186 3129 
Q 3597 2675 3597 1894 
z
M 3022 2063 
Q 3016 2534 2758 2815 
Q 2500 3097 2075 3097 
Q 1594 3097 1305 2825 
Q 1016 2553 972 2059 
L 3022 2063 
z
" transform="scale(0.015625)"/>
        <path id="DejaVuSans-63" d="M 3122 3366 
L 3122 2828 
Q 2878 2963 2633 3030 
Q 2388 3097 2138 3097 
Q 1578 3097 1268 2742 
Q 959 2388 959 1747 
Q 959 1106 1268 751 
Q 1578 397 2138 397 
Q 2388 397 2633 464 
Q 2878 531 3122 666 
L 3122 134 
Q 2881 22 2623 -34 
Q 2366 -91 2075 -91 
Q 1284 -91 818 406 
Q 353 903 353 1747 
Q 353 2603 823 3093 
Q 1294 3584 2113 3584 
Q 2378 3584 2631 3529 
Q 2884 3475 3122 3366 
z
" transform="scale(0.015625)"/>
       </defs>
       <use xlink:href="#DejaVuSans-32"/>
       <use xlink:href="#DejaVuSans-30" x="63.623047"/>
       <use xlink:href="#DejaVuSans-32" x="127.246094"/>
       <use xlink:href="#DejaVuSans-30" x="190.869141"/>
       <use xlink:href="#DejaVuSans-2d" x="254.492188"/>
       <use xlink:href="#DejaVuSans-44" x="290.576172"/>
       <use xlink:href="#DejaVuSans-65" x="367.578125"/>
       <use xlink:href="#DejaVuSans-63" x="429.101562"/>
       <use xlink:href="#DejaVuSans-2d" x="484.082031"/>
       <use xlink:href="#DejaVuSans-30" x="520.166016"/>
       <use xlink:href="#DejaVuSans-31" x="583.789062"/>
      </g>
     </g>
    </g>
    <g id="xtick_3">
     <g id="line2d_3">
      <g>
       <use xlink:href="#mb12565c73f" x="127.247169" y="182.359219" style="stroke: #000000; stroke-width: 0.8"/>
      </g>
     </g>
     <g id="text_3">
      <!-- 2021-Jan-01 -->
      <g transform="translate(73.060429 226.624034)rotate(-30)scale(0.1 -0.1)">
       <defs>
        <path id="DejaVuSans-4a" d="M 628 4666 
L 1259 4666 
L 1259 325 
Q 1259 -519 939 -900 
Q 619 -1281 -91 -1281 
L -331 -1281 
L -331 -750 
L -134 -750 
Q 284 -750 456 -515 
Q 628 -281 628 325 
L 628 4666 
z
" transform="scale(0.015625)"/>
        <path id="DejaVuSans-61" d="M 2194 1759 
Q 1497 1759 1228 1600 
Q 959 1441 959 1056 
Q 959 750 1161 570 
Q 1363 391 1709 391 
Q 2188 391 2477 730 
Q 2766 1069 2766 1631 
L 2766 1759 
L 2194 1759 
z
M 3341 1997 
L 3341 0 
L 2766 0 
L 2766 531 
Q 2569 213 2275 61 
Q 1981 -91 1556 -91 
Q 1019 -91 701 211 
Q 384 513 384 1019 
Q 384 1609 779 1909 
Q 1175 2209 1959 2209 
L 2766 2209 
L 2766 2266 
Q 2766 2663 2505 2880 
Q 2244 3097 1772 3097 
Q 1472 3097 1187 3025 
Q 903 2953 641 2809 
L 641 3341 
Q 956 3463 1253 3523 
Q 1550 3584 1831 3584 
Q 2591 3584 2966 3190 
Q 3341 2797 3341 1997 
z
" transform="scale(0.015625)"/>
        <path id="DejaVuSans-6e" d="M 3513 2113 
L 3513 0 
L 2938 0 
L 2938 2094 
Q 2938 2591 2744 2837 
Q 2550 3084 2163 3084 
Q 1697 3084 1428 2787 
Q 1159 2491 1159 1978 
L 1159 0 
L 581 0 
L 581 3500 
L 1159 3500 
L 1159 2956 
Q 1366 3272 1645 3428 
Q 1925 3584 2291 3584 
Q 2894 3584 3203 3211 
Q 3513 2838 3513 2113 
z
" transform="scale(0.015625)"/>
       </defs>
       <use xlink:href="#DejaVuSans-32"/>
       <use xlink:href="#DejaVuSans-30" x="63.623047"/>
       <use xlink:href="#DejaVuSans-32" x="127.246094"/>
       <use xlink:href="#DejaVuSans-31" x="190.869141"/>
       <use xlink:href="#DejaVuSans-2d" x="254.492188"/>
       <use xlink:href="#DejaVuSans-4a" x="296.201172"/>
       <use xlink:href="#DejaVuSans-61" x="325.693359"/>
       <use xlink:href="#DejaVuSans-6e" x="386.972656"/>
       <use xlink:href="#DejaVuSans-2d" x="450.351562"/>
       <use xlink:href="#DejaVuSans-30" x="486.435547"/>
       <use xlink:href="#DejaVuSans-31" x="550.058594"/>
      </g>
     </g>
    </g>
    <g id="xtick_4">
     <g id="line2d_4">
      <g>
       <use xlink:href="#mb12565c73f" x="157.343733" y="182.359219" style="stroke: #000000; stroke-width: 0.8"/>
      </g>
     </g>
     <g id="text_4">
      <!-- 2021-Feb-01 -->
      <g transform="translate(101.663099 227.486534)rotate(-30)scale(0.1 -0.1)">
       <defs>
        <path id="DejaVuSans-46" d="M 628 4666 
L 3309 4666 
L 3309 4134 
L 1259 4134 
L 1259 2759 
L 3109 2759 
L 3109 2228 
L 1259 2228 
L 1259 0 
L 628 0 
L 628 4666 
z
" transform="scale(0.015625)"/>
        <path id="DejaVuSans-62" d="M 3116 1747 
Q 3116 2381 2855 2742 
Q 2594 3103 2138 3103 
Q 1681 3103 1420 2742 
Q 1159 2381 1159 1747 
Q 1159 1113 1420 752 
Q 1681 391 2138 391 
Q 2594 391 2855 752 
Q 3116 1113 3116 1747 
z
M 1159 2969 
Q 1341 3281 1617 3432 
Q 1894 3584 2278 3584 
Q 2916 3584 3314 3078 
Q 3713 2572 3713 1747 
Q 3713 922 3314 415 
Q 2916 -91 2278 -91 
Q 1894 -91 1617 61 
Q 1341 213 1159 525 
L 1159 0 
L 581 0 
L 581 4863 
L 1159 4863 
L 1159 2969 
z
" transform="scale(0.015625)"/>
       </defs>
       <use xlink:href="#DejaVuSans-32"/>
       <use xlink:href="#DejaVuSans-30" x="63.623047"/>
       <use xlink:href="#DejaVuSans-32" x="127.246094"/>
       <use xlink:href="#DejaVuSans-31" x="190.869141"/>
       <use xlink:href="#DejaVuSans-2d" x="254.492188"/>
       <use xlink:href="#DejaVuSans-46" x="290.576172"/>
       <use xlink:href="#DejaVuSans-65" x="342.595703"/>
       <use xlink:href="#DejaVuSans-62" x="404.119141"/>
       <use xlink:href="#DejaVuSans-2d" x="467.595703"/>
       <use xlink:href="#DejaVuSans-30" x="503.679688"/>
       <use xlink:href="#DejaVuSans-31" x="567.302734"/>
      </g>
     </g>
    </g>
    <g id="xtick_5">
     <g id="line2d_5">
      <g>
       <use xlink:href="#mb12565c73f" x="184.527726" y="182.359219" style="stroke: #000000; stroke-width: 0.8"/>
      </g>
     </g>
     <g id="text_5">
      <!-- 2021-Mar-01 -->
      <g transform="translate(128.391075 227.749815)rotate(-30)scale(0.1 -0.1)">
       <defs>
        <path id="DejaVuSans-4d" d="M 628 4666 
L 1569 4666 
L 2759 1491 
L 3956 4666 
L 4897 4666 
L 4897 0 
L 4281 0 
L 4281 4097 
L 3078 897 
L 2444 897 
L 1241 4097 
L 1241 0 
L 628 0 
L 628 4666 
z
" transform="scale(0.015625)"/>
        <path id="DejaVuSans-72" d="M 2631 2963 
Q 2534 3019 2420 3045 
Q 2306 3072 2169 3072 
Q 1681 3072 1420 2755 
Q 1159 2438 1159 1844 
L 1159 0 
L 581 0 
L 581 3500 
L 1159 3500 
L 1159 2956 
Q 1341 3275 1631 3429 
Q 1922 3584 2338 3584 
Q 2397 3584 2469 3576 
Q 2541 3569 2628 3553 
L 2631 2963 
z
" transform="scale(0.015625)"/>
       </defs>
       <use xlink:href="#DejaVuSans-32"/>
       <use xlink:href="#DejaVuSans-30" x="63.623047"/>
       <use xlink:href="#DejaVuSans-32" x="127.246094"/>
       <use xlink:href="#DejaVuSans-31" x="190.869141"/>
       <use xlink:href="#DejaVuSans-2d" x="254.492188"/>
       <use xlink:href="#DejaVuSans-4d" x="290.576172"/>
       <use xlink:href="#DejaVuSans-61" x="376.855469"/>
       <use xlink:href="#DejaVuSans-72" x="438.134766"/>
       <use xlink:href="#DejaVuSans-2d" x="472.873047"/>
       <use xlink:href="#DejaVuSans-30" x="508.957031"/>
       <use xlink:href="#DejaVuSans-31" x="572.580078"/>
      </g>
     </g>
    </g>
    <g id="xtick_6">
     <g id="line2d_6">
      <g>
       <use xlink:href="#mb12565c73f" x="214.62429" y="182.359219" style="stroke: #000000; stroke-width: 0.8"/>
      </g>
     </g>
     <g id="text_6">
      <!-- 2021-Apr-01 -->
      <g transform="translate(160.039719 226.853721)rotate(-30)scale(0.1 -0.1)">
       <defs>
        <path id="DejaVuSans-41" d="M 2188 4044 
L 1331 1722 
L 3047 1722 
L 2188 4044 
z
M 1831 4666 
L 2547 4666 
L 4325 0 
L 3669 0 
L 3244 1197 
L 1141 1197 
L 716 0 
L 50 0 
L 1831 4666 
z
" transform="scale(0.015625)"/>
        <path id="DejaVuSans-70" d="M 1159 525 
L 1159 -1331 
L 581 -1331 
L 581 3500 
L 1159 3500 
L 1159 2969 
Q 1341 3281 1617 3432 
Q 1894 3584 2278 3584 
Q 2916 3584 3314 3078 
Q 3713 2572 3713 1747 
Q 3713 922 3314 415 
Q 2916 -91 2278 -91 
Q 1894 -91 1617 61 
Q 1341 213 1159 525 
z
M 3116 1747 
Q 3116 2381 2855 2742 
Q 2594 3103 2138 3103 
Q 1681 3103 1420 2742 
Q 1159 2381 1159 1747 
Q 1159 1113 1420 752 
Q 1681 391 2138 391 
Q 2594 391 2855 752 
Q 3116 1113 3116 1747 
z
" transform="scale(0.015625)"/>
       </defs>
       <use xlink:href="#DejaVuSans-32"/>
       <use xlink:href="#DejaVuSans-30" x="63.623047"/>
       <use xlink:href="#DejaVuSans-32" x="127.246094"/>
       <use xlink:href="#DejaVuSans-31" x="190.869141"/>
       <use xlink:href="#DejaVuSans-2d" x="254.492188"/>
       <use xlink:href="#DejaVuSans-41" x="288.326172"/>
       <use xlink:href="#DejaVuSans-70" x="356.734375"/>
       <use xlink:href="#DejaVuSans-72" x="420.210938"/>
       <use xlink:href="#DejaVuSans-2d" x="454.949219"/>
       <use xlink:href="#DejaVuSans-30" x="491.033203"/>
       <use xlink:href="#DejaVuSans-31" x="554.65625"/>
      </g>
     </g>
    </g>
    <g id="xtick_7">
     <g id="line2d_7">
      <g>
       <use xlink:href="#mb12565c73f" x="243.749996" y="182.359219" style="stroke: #000000; stroke-width: 0.8"/>
      </g>
     </g>
     <g id="text_7">
      <!-- 2021-May-01 -->
      <g transform="translate(185.647198 228.884971)rotate(-30)scale(0.1 -0.1)">
       <defs>
        <path id="DejaVuSans-79" d="M 2059 -325 
Q 1816 -950 1584 -1140 
Q 1353 -1331 966 -1331 
L 506 -1331 
L 506 -850 
L 844 -850 
Q 1081 -850 1212 -737 
Q 1344 -625 1503 -206 
L 1606 56 
L 191 3500 
L 800 3500 
L 1894 763 
L 2988 3500 
L 3597 3500 
L 2059 -325 
z
" transform="scale(0.015625)"/>
       </defs>
       <use xlink:href="#DejaVuSans-32"/>
       <use xlink:href="#DejaVuSans-30" x="63.623047"/>
       <use xlink:href="#DejaVuSans-32" x="127.246094"/>
       <use xlink:href="#DejaVuSans-31" x="190.869141"/>
       <use xlink:href="#DejaVuSans-2d" x="254.492188"/>
       <use xlink:href="#DejaVuSans-4d" x="290.576172"/>
       <use xlink:href="#DejaVuSans-61" x="376.855469"/>
       <use xlink:href="#DejaVuSans-79" x="438.134766"/>
       <use xlink:href="#DejaVuSans-2d" x="495.564453"/>
       <use xlink:href="#DejaVuSans-30" x="531.648438"/>
       <use xlink:href="#DejaVuSans-31" x="595.271484"/>
      </g>
     </g>
    </g>
    <g id="xtick_8">
     <g id="line2d_8">
      <g>
       <use xlink:href="#mb12565c73f" x="273.84656" y="182.359219" style="stroke: #000000; stroke-width: 0.8"/>
      </g>
     </g>
     <g id="text_8">
      <!-- 2021-Jun-01 -->
      <g transform="translate(219.478496 226.728721)rotate(-30)scale(0.1 -0.1)">
       <defs>
        <path id="DejaVuSans-75" d="M 544 1381 
L 544 3500 
L 1119 3500 
L 1119 1403 
Q 1119 906 1312 657 
Q 1506 409 1894 409 
Q 2359 409 2629 706 
Q 2900 1003 2900 1516 
L 2900 3500 
L 3475 3500 
L 3475 0 
L 2900 0 
L 2900 538 
Q 2691 219 2414 64 
Q 2138 -91 1772 -91 
Q 1169 -91 856 284 
Q 544 659 544 1381 
z
M 1991 3584 
L 1991 3584 
z
" transform="scale(0.015625)"/>
       </defs>
       <use xlink:href="#DejaVuSans-32"/>
       <use xlink:href="#DejaVuSans-30" x="63.623047"/>
       <use xlink:href="#DejaVuSans-32" x="127.246094"/>
       <use xlink:href="#DejaVuSans-31" x="190.869141"/>
       <use xlink:href="#DejaVuSans-2d" x="254.492188"/>
       <use xlink:href="#DejaVuSans-4a" x="296.201172"/>
       <use xlink:href="#DejaVuSans-75" x="325.693359"/>
       <use xlink:href="#DejaVuSans-6e" x="389.072266"/>
       <use xlink:href="#DejaVuSans-2d" x="452.451172"/>
       <use xlink:href="#DejaVuSans-30" x="488.535156"/>
       <use xlink:href="#DejaVuSans-31" x="552.158203"/>
      </g>
     </g>
    </g>
    <g id="xtick_9">
     <g id="line2d_9">
      <g>
       <use xlink:href="#mb12565c73f" x="302.972267" y="182.359219" style="stroke: #000000; stroke-width: 0.8"/>
      </g>
     </g>
     <g id="text_9">
      <!-- 2021-Jul-01 -->
      <g transform="translate(251.686712 224.949034)rotate(-30)scale(0.1 -0.1)">
       <defs>
        <path id="DejaVuSans-6c" d="M 603 4863 
L 1178 4863 
L 1178 0 
L 603 0 
L 603 4863 
z
" transform="scale(0.015625)"/>
       </defs>
       <use xlink:href="#DejaVuSans-32"/>
       <use xlink:href="#DejaVuSans-30" x="63.623047"/>
       <use xlink:href="#DejaVuSans-32" x="127.246094"/>
       <use xlink:href="#DejaVuSans-31" x="190.869141"/>
       <use xlink:href="#DejaVuSans-2d" x="254.492188"/>
       <use xlink:href="#DejaVuSans-4a" x="296.201172"/>
       <use xlink:href="#DejaVuSans-75" x="325.693359"/>
       <use xlink:href="#DejaVuSans-6c" x="389.072266"/>
       <use xlink:href="#DejaVuSans-2d" x="416.855469"/>
       <use xlink:href="#DejaVuSans-30" x="452.939453"/>
       <use xlink:href="#DejaVuSans-31" x="516.5625"/>
      </g>
     </g>
    </g>
    <g id="xtick_10">
     <g id="line2d_10">
      <g>
       <use xlink:href="#mb12565c73f" x="333.068831" y="182.359219" style="stroke: #000000; stroke-width: 0.8"/>
      </g>
     </g>
     <g id="text_10">
      <!-- 2021-Aug-01 -->
      <g transform="translate(276.003909 228.285752)rotate(-30)scale(0.1 -0.1)">
       <defs>
        <path id="DejaVuSans-67" d="M 2906 1791 
Q 2906 2416 2648 2759 
Q 2391 3103 1925 3103 
Q 1463 3103 1205 2759 
Q 947 2416 947 1791 
Q 947 1169 1205 825 
Q 1463 481 1925 481 
Q 2391 481 2648 825 
Q 2906 1169 2906 1791 
z
M 3481 434 
Q 3481 -459 3084 -895 
Q 2688 -1331 1869 -1331 
Q 1566 -1331 1297 -1286 
Q 1028 -1241 775 -1147 
L 775 -588 
Q 1028 -725 1275 -790 
Q 1522 -856 1778 -856 
Q 2344 -856 2625 -561 
Q 2906 -266 2906 331 
L 2906 616 
Q 2728 306 2450 153 
Q 2172 0 1784 0 
Q 1141 0 747 490 
Q 353 981 353 1791 
Q 353 2603 747 3093 
Q 1141 3584 1784 3584 
Q 2172 3584 2450 3431 
Q 2728 3278 2906 2969 
L 2906 3500 
L 3481 3500 
L 3481 434 
z
" transform="scale(0.015625)"/>
       </defs>
       <use xlink:href="#DejaVuSans-32"/>
       <use xlink:href="#DejaVuSans-30" x="63.623047"/>
       <use xlink:href="#DejaVuSans-32" x="127.246094"/>
       <use xlink:href="#DejaVuSans-31" x="190.869141"/>
       <use xlink:href="#DejaVuSans-2d" x="254.492188"/>
       <use xlink:href="#DejaVuSans-41" x="288.326172"/>
       <use xlink:href="#DejaVuSans-75" x="356.734375"/>
       <use xlink:href="#DejaVuSans-67" x="420.113281"/>
       <use xlink:href="#DejaVuSans-2d" x="483.589844"/>
       <use xlink:href="#DejaVuSans-30" x="519.673828"/>
       <use xlink:href="#DejaVuSans-31" x="583.296875"/>
      </g>
     </g>
    </g>
    <g id="xtick_11">
     <g id="line2d_11">
      <g>
       <use xlink:href="#mb12565c73f" x="363.165394" y="182.359219" style="stroke: #000000; stroke-width: 0.8"/>
      </g>
     </g>
     <g id="text_11">
      <!-- 2021-Sep-01 -->
      <g transform="translate(306.491537 228.059971)rotate(-30)scale(0.1 -0.1)">
       <defs>
        <path id="DejaVuSans-53" d="M 3425 4513 
L 3425 3897 
Q 3066 4069 2747 4153 
Q 2428 4238 2131 4238 
Q 1616 4238 1336 4038 
Q 1056 3838 1056 3469 
Q 1056 3159 1242 3001 
Q 1428 2844 1947 2747 
L 2328 2669 
Q 3034 2534 3370 2195 
Q 3706 1856 3706 1288 
Q 3706 609 3251 259 
Q 2797 -91 1919 -91 
Q 1588 -91 1214 -16 
Q 841 59 441 206 
L 441 856 
Q 825 641 1194 531 
Q 1563 422 1919 422 
Q 2459 422 2753 634 
Q 3047 847 3047 1241 
Q 3047 1584 2836 1778 
Q 2625 1972 2144 2069 
L 1759 2144 
Q 1053 2284 737 2584 
Q 422 2884 422 3419 
Q 422 4038 858 4394 
Q 1294 4750 2059 4750 
Q 2388 4750 2728 4690 
Q 3069 4631 3425 4513 
z
" transform="scale(0.015625)"/>
       </defs>
       <use xlink:href="#DejaVuSans-32"/>
       <use xlink:href="#DejaVuSans-30" x="63.623047"/>
       <use xlink:href="#DejaVuSans-32" x="127.246094"/>
       <use xlink:href="#DejaVuSans-31" x="190.869141"/>
       <use xlink:href="#DejaVuSans-2d" x="254.492188"/>
       <use xlink:href="#DejaVuSans-53" x="290.576172"/>
       <use xlink:href="#DejaVuSans-65" x="354.052734"/>
       <use xlink:href="#DejaVuSans-70" x="415.576172"/>
       <use xlink:href="#DejaVuSans-2d" x="479.052734"/>
       <use xlink:href="#DejaVuSans-30" x="515.136719"/>
       <use xlink:href="#DejaVuSans-31" x="578.759766"/>
      </g>
     </g>
    </g>
    <g id="xtick_12">
     <g id="line2d_12">
      <g>
       <use xlink:href="#mb12565c73f" x="392.291101" y="182.359219" style="stroke: #000000; stroke-width: 0.8"/>
      </g>
     </g>
     <g id="text_12">
      <!-- 2021-Oct-01 -->
      <g transform="translate(336.729546 227.417784)rotate(-30)scale(0.1 -0.1)">
       <defs>
        <path id="DejaVuSans-4f" d="M 2522 4238 
Q 1834 4238 1429 3725 
Q 1025 3213 1025 2328 
Q 1025 1447 1429 934 
Q 1834 422 2522 422 
Q 3209 422 3611 934 
Q 4013 1447 4013 2328 
Q 4013 3213 3611 3725 
Q 3209 4238 2522 4238 
z
M 2522 4750 
Q 3503 4750 4090 4092 
Q 4678 3434 4678 2328 
Q 4678 1225 4090 567 
Q 3503 -91 2522 -91 
Q 1538 -91 948 565 
Q 359 1222 359 2328 
Q 359 3434 948 4092 
Q 1538 4750 2522 4750 
z
" transform="scale(0.015625)"/>
        <path id="DejaVuSans-74" d="M 1172 4494 
L 1172 3500 
L 2356 3500 
L 2356 3053 
L 1172 3053 
L 1172 1153 
Q 1172 725 1289 603 
Q 1406 481 1766 481 
L 2356 481 
L 2356 0 
L 1766 0 
Q 1100 0 847 248 
Q 594 497 594 1153 
L 594 3053 
L 172 3053 
L 172 3500 
L 594 3500 
L 594 4494 
L 1172 4494 
z
" transform="scale(0.015625)"/>
       </defs>
       <use xlink:href="#DejaVuSans-32"/>
       <use xlink:href="#DejaVuSans-30" x="63.623047"/>
       <use xlink:href="#DejaVuSans-32" x="127.246094"/>
       <use xlink:href="#DejaVuSans-31" x="190.869141"/>
       <use xlink:href="#DejaVuSans-2d" x="254.492188"/>
       <use xlink:href="#DejaVuSans-4f" x="293.326172"/>
       <use xlink:href="#DejaVuSans-63" x="372.037109"/>
       <use xlink:href="#DejaVuSans-74" x="427.017578"/>
       <use xlink:href="#DejaVuSans-2d" x="466.226562"/>
       <use xlink:href="#DejaVuSans-30" x="502.310547"/>
       <use xlink:href="#DejaVuSans-31" x="565.933594"/>
      </g>
     </g>
    </g>
    <g id="xtick_13">
     <g id="line2d_13">
      <g>
       <use xlink:href="#mb12565c73f" x="422.387665" y="182.359219" style="stroke: #000000; stroke-width: 0.8"/>
      </g>
     </g>
     <g id="text_13">
      <!-- 2021-Nov-01 -->
      <g transform="translate(365.361985 228.263096)rotate(-30)scale(0.1 -0.1)">
       <use xlink:href="#DejaVuSans-32"/>
       <use xlink:href="#DejaVuSans-30" x="63.623047"/>
       <use xlink:href="#DejaVuSans-32" x="127.246094"/>
       <use xlink:href="#DejaVuSans-31" x="190.869141"/>
       <use xlink:href="#DejaVuSans-2d" x="254.492188"/>
       <use xlink:href="#DejaVuSans-4e" x="290.576172"/>
       <use xlink:href="#DejaVuSans-6f" x="365.380859"/>
       <use xlink:href="#DejaVuSans-76" x="426.5625"/>
       <use xlink:href="#DejaVuSans-2d" x="483.117188"/>
       <use xlink:href="#DejaVuSans-30" x="519.201172"/>
       <use xlink:href="#DejaVuSans-31" x="582.824219"/>
      </g>
     </g>
    </g>
    <g id="xtick_14">
     <g id="line2d_14">
      <g>
       <use xlink:href="#mb12565c73f" x="451.513372" y="182.359219" style="stroke: #000000; stroke-width: 0.8"/>
      </g>
     </g>
     <g id="text_14">
      <!-- 2021-Dec-01 -->
      <g transform="translate(394.405149 228.310752)rotate(-30)scale(0.1 -0.1)">
       <use xlink:href="#DejaVuSans-32"/>
       <use xlink:href="#DejaVuSans-30" x="63.623047"/>
       <use xlink:href="#DejaVuSans-32" x="127.246094"/>
       <use xlink:href="#DejaVuSans-31" x="190.869141"/>
       <use xlink:href="#DejaVuSans-2d" x="254.492188"/>
       <use xlink:href="#DejaVuSans-44" x="290.576172"/>
       <use xlink:href="#DejaVuSans-65" x="367.578125"/>
       <use xlink:href="#DejaVuSans-63" x="429.101562"/>
       <use xlink:href="#DejaVuSans-2d" x="484.082031"/>
       <use xlink:href="#DejaVuSans-30" x="520.166016"/>
       <use xlink:href="#DejaVuSans-31" x="583.789062"/>
      </g>
     </g>
    </g>
    <g id="xtick_15">
     <g id="line2d_15">
      <g>
       <use xlink:href="#mb12565c73f" x="481.609935" y="182.359219" style="stroke: #000000; stroke-width: 0.8"/>
      </g>
     </g>
     <g id="text_15">
      <!-- 2022-Jan-01 -->
      <g transform="translate(427.423195 226.624034)rotate(-30)scale(0.1 -0.1)">
       <use xlink:href="#DejaVuSans-32"/>
       <use xlink:href="#DejaVuSans-30" x="63.623047"/>
       <use xlink:href="#DejaVuSans-32" x="127.246094"/>
       <use xlink:href="#DejaVuSans-32" x="190.869141"/>
       <use xlink:href="#DejaVuSans-2d" x="254.492188"/>
       <use xlink:href="#DejaVuSans-4a" x="296.201172"/>
       <use xlink:href="#DejaVuSans-61" x="325.693359"/>
       <use xlink:href="#DejaVuSans-6e" x="386.972656"/>
       <use xlink:href="#DejaVuSans-2d" x="450.351562"/>
       <use xlink:href="#DejaVuSans-30" x="486.435547"/>
       <use xlink:href="#DejaVuSans-31" x="550.058594"/>
      </g>
     </g>
    </g>
   </g>
   <g id="matplotlib.axis_2">
    <g id="ytick_1">
     <g id="line2d_16">
      <path d="M 53.559131 182.359219 
L 499.959131 182.359219 
" clip-path="url(#p8c75437163)" style="fill: none; stroke: #b0b0b0; stroke-width: 0.8; stroke-linecap: square"/>
     </g>
     <g id="line2d_17">
      <defs>
       <path id="md8551942af" d="M 0 0 
L -3.5 0 
" style="stroke: #000000; stroke-width: 0.8"/>
      </defs>
      <g>
       <use xlink:href="#md8551942af" x="53.559131" y="182.359219" style="stroke: #000000; stroke-width: 0.8"/>
      </g>
     </g>
     <g id="text_16">
      <!-- 0 -->
      <g transform="translate(40.196631 186.158437)scale(0.1 -0.1)">
       <use xlink:href="#DejaVuSans-30"/>
      </g>
     </g>
    </g>
    <g id="ytick_2">
     <g id="line2d_18">
      <path d="M 53.559131 157.879219 
L 499.959131 157.879219 
" clip-path="url(#p8c75437163)" style="fill: none; stroke: #b0b0b0; stroke-width: 0.8; stroke-linecap: square"/>
     </g>
     <g id="line2d_19">
      <g>
       <use xlink:href="#md8551942af" x="53.559131" y="157.879219" style="stroke: #000000; stroke-width: 0.8"/>
      </g>
     </g>
     <g id="text_17">
      <!-- 10 -->
      <g transform="translate(33.834131 161.678437)scale(0.1 -0.1)">
       <use xlink:href="#DejaVuSans-31"/>
       <use xlink:href="#DejaVuSans-30" x="63.623047"/>
      </g>
     </g>
    </g>
    <g id="ytick_3">
     <g id="line2d_20">
      <path d="M 53.559131 133.399219 
L 499.959131 133.399219 
" clip-path="url(#p8c75437163)" style="fill: none; stroke: #b0b0b0; stroke-width: 0.8; stroke-linecap: square"/>
     </g>
     <g id="line2d_21">
      <g>
       <use xlink:href="#md8551942af" x="53.559131" y="133.399219" style="stroke: #000000; stroke-width: 0.8"/>
      </g>
     </g>
     <g id="text_18">
      <!-- 20 -->
      <g transform="translate(33.834131 137.198437)scale(0.1 -0.1)">
       <use xlink:href="#DejaVuSans-32"/>
       <use xlink:href="#DejaVuSans-30" x="63.623047"/>
      </g>
     </g>
    </g>
    <g id="ytick_4">
     <g id="line2d_22">
      <path d="M 53.559131 108.919219 
L 499.959131 108.919219 
" clip-path="url(#p8c75437163)" style="fill: none; stroke: #b0b0b0; stroke-width: 0.8; stroke-linecap: square"/>
     </g>
     <g id="line2d_23">
      <g>
       <use xlink:href="#md8551942af" x="53.559131" y="108.919219" style="stroke: #000000; stroke-width: 0.8"/>
      </g>
     </g>
     <g id="text_19">
      <!-- 30 -->
      <g transform="translate(33.834131 112.718437)scale(0.1 -0.1)">
       <defs>
        <path id="DejaVuSans-33" d="M 2597 2516 
Q 3050 2419 3304 2112 
Q 3559 1806 3559 1356 
Q 3559 666 3084 287 
Q 2609 -91 1734 -91 
Q 1441 -91 1130 -33 
Q 819 25 488 141 
L 488 750 
Q 750 597 1062 519 
Q 1375 441 1716 441 
Q 2309 441 2620 675 
Q 2931 909 2931 1356 
Q 2931 1769 2642 2001 
Q 2353 2234 1838 2234 
L 1294 2234 
L 1294 2753 
L 1863 2753 
Q 2328 2753 2575 2939 
Q 2822 3125 2822 3475 
Q 2822 3834 2567 4026 
Q 2313 4219 1838 4219 
Q 1578 4219 1281 4162 
Q 984 4106 628 3988 
L 628 4550 
Q 988 4650 1302 4700 
Q 1616 4750 1894 4750 
Q 2613 4750 3031 4423 
Q 3450 4097 3450 3541 
Q 3450 3153 3228 2886 
Q 3006 2619 2597 2516 
z
" transform="scale(0.015625)"/>
       </defs>
       <use xlink:href="#DejaVuSans-33"/>
       <use xlink:href="#DejaVuSans-30" x="63.623047"/>
      </g>
     </g>
    </g>
    <g id="ytick_5">
     <g id="line2d_24">
      <path d="M 53.559131 84.439219 
L 499.959131 84.439219 
" clip-path="url(#p8c75437163)" style="fill: none; stroke: #b0b0b0; stroke-width: 0.8; stroke-linecap: square"/>
     </g>
     <g id="line2d_25">
      <g>
       <use xlink:href="#md8551942af" x="53.559131" y="84.439219" style="stroke: #000000; stroke-width: 0.8"/>
      </g>
     </g>
     <g id="text_20">
      <!-- 40 -->
      <g transform="translate(33.834131 88.238437)scale(0.1 -0.1)">
       <defs>
        <path id="DejaVuSans-34" d="M 2419 4116 
L 825 1625 
L 2419 1625 
L 2419 4116 
z
M 2253 4666 
L 3047 4666 
L 3047 1625 
L 3713 1625 
L 3713 1100 
L 3047 1100 
L 3047 0 
L 2419 0 
L 2419 1100 
L 313 1100 
L 313 1709 
L 2253 4666 
z
" transform="scale(0.015625)"/>
       </defs>
       <use xlink:href="#DejaVuSans-34"/>
       <use xlink:href="#DejaVuSans-30" x="63.623047"/>
      </g>
     </g>
    </g>
    <g id="ytick_6">
     <g id="line2d_26">
      <path d="M 53.559131 59.959219 
L 499.959131 59.959219 
" clip-path="url(#p8c75437163)" style="fill: none; stroke: #b0b0b0; stroke-width: 0.8; stroke-linecap: square"/>
     </g>
     <g id="line2d_27">
      <g>
       <use xlink:href="#md8551942af" x="53.559131" y="59.959219" style="stroke: #000000; stroke-width: 0.8"/>
      </g>
     </g>
     <g id="text_21">
      <!-- 50 -->
      <g transform="translate(33.834131 63.758437)scale(0.1 -0.1)">
       <defs>
        <path id="DejaVuSans-35" d="M 691 4666 
L 3169 4666 
L 3169 4134 
L 1269 4134 
L 1269 2991 
Q 1406 3038 1543 3061 
Q 1681 3084 1819 3084 
Q 2600 3084 3056 2656 
Q 3513 2228 3513 1497 
Q 3513 744 3044 326 
Q 2575 -91 1722 -91 
Q 1428 -91 1123 -41 
Q 819 9 494 109 
L 494 744 
Q 775 591 1075 516 
Q 1375 441 1709 441 
Q 2250 441 2565 725 
Q 2881 1009 2881 1497 
Q 2881 1984 2565 2268 
Q 2250 2553 1709 2553 
Q 1456 2553 1204 2497 
Q 953 2441 691 2322 
L 691 4666 
z
" transform="scale(0.015625)"/>
       </defs>
       <use xlink:href="#DejaVuSans-35"/>
       <use xlink:href="#DejaVuSans-30" x="63.623047"/>
      </g>
     </g>
    </g>
    <g id="ytick_7">
     <g id="line2d_28">
      <path d="M 53.559131 35.479219 
L 499.959131 35.479219 
" clip-path="url(#p8c75437163)" style="fill: none; stroke: #b0b0b0; stroke-width: 0.8; stroke-linecap: square"/>
     </g>
     <g id="line2d_29">
      <g>
       <use xlink:href="#md8551942af" x="53.559131" y="35.479219" style="stroke: #000000; stroke-width: 0.8"/>
      </g>
     </g>
     <g id="text_22">
      <!-- 60 -->
      <g transform="translate(33.834131 39.278437)scale(0.1 -0.1)">
       <defs>
        <path id="DejaVuSans-36" d="M 2113 2584 
Q 1688 2584 1439 2293 
Q 1191 2003 1191 1497 
Q 1191 994 1439 701 
Q 1688 409 2113 409 
Q 2538 409 2786 701 
Q 3034 994 3034 1497 
Q 3034 2003 2786 2293 
Q 2538 2584 2113 2584 
z
M 3366 4563 
L 3366 3988 
Q 3128 4100 2886 4159 
Q 2644 4219 2406 4219 
Q 1781 4219 1451 3797 
Q 1122 3375 1075 2522 
Q 1259 2794 1537 2939 
Q 1816 3084 2150 3084 
Q 2853 3084 3261 2657 
Q 3669 2231 3669 1497 
Q 3669 778 3244 343 
Q 2819 -91 2113 -91 
Q 1303 -91 875 529 
Q 447 1150 447 2328 
Q 447 3434 972 4092 
Q 1497 4750 2381 4750 
Q 2619 4750 2861 4703 
Q 3103 4656 3366 4563 
z
" transform="scale(0.015625)"/>
       </defs>
       <use xlink:href="#DejaVuSans-36"/>
       <use xlink:href="#DejaVuSans-30" x="63.623047"/>
      </g>
     </g>
    </g>
    <g id="ytick_8">
     <g id="line2d_30">
      <path d="M 53.559131 10.999219 
L 499.959131 10.999219 
" clip-path="url(#p8c75437163)" style="fill: none; stroke: #b0b0b0; stroke-width: 0.8; stroke-linecap: square"/>
     </g>
     <g id="line2d_31">
      <g>
       <use xlink:href="#md8551942af" x="53.559131" y="10.999219" style="stroke: #000000; stroke-width: 0.8"/>
      </g>
     </g>
     <g id="text_23">
      <!-- 70 -->
      <g transform="translate(33.834131 14.798438)scale(0.1 -0.1)">
       <defs>
        <path id="DejaVuSans-37" d="M 525 4666 
L 3525 4666 
L 3525 4397 
L 1831 0 
L 1172 0 
L 2766 4134 
L 525 4134 
L 525 4666 
z
" transform="scale(0.015625)"/>
       </defs>
       <use xlink:href="#DejaVuSans-37"/>
       <use xlink:href="#DejaVuSans-30" x="63.623047"/>
      </g>
     </g>
    </g>
    <g id="text_24">
     <!-- Percentage Of Domains -->
     <g transform="translate(27.754443 155.682344)rotate(-90)scale(0.1 -0.1)">
      <defs>
       <path id="DejaVuSans-50" d="M 1259 4147 
L 1259 2394 
L 2053 2394 
Q 2494 2394 2734 2622 
Q 2975 2850 2975 3272 
Q 2975 3691 2734 3919 
Q 2494 4147 2053 4147 
L 1259 4147 
z
M 628 4666 
L 2053 4666 
Q 2838 4666 3239 4311 
Q 3641 3956 3641 3272 
Q 3641 2581 3239 2228 
Q 2838 1875 2053 1875 
L 1259 1875 
L 1259 0 
L 628 0 
L 628 4666 
z
" transform="scale(0.015625)"/>
       <path id="DejaVuSans-20" transform="scale(0.015625)"/>
       <path id="DejaVuSans-66" d="M 2375 4863 
L 2375 4384 
L 1825 4384 
Q 1516 4384 1395 4259 
Q 1275 4134 1275 3809 
L 1275 3500 
L 2222 3500 
L 2222 3053 
L 1275 3053 
L 1275 0 
L 697 0 
L 697 3053 
L 147 3053 
L 147 3500 
L 697 3500 
L 697 3744 
Q 697 4328 969 4595 
Q 1241 4863 1831 4863 
L 2375 4863 
z
" transform="scale(0.015625)"/>
       <path id="DejaVuSans-6d" d="M 3328 2828 
Q 3544 3216 3844 3400 
Q 4144 3584 4550 3584 
Q 5097 3584 5394 3201 
Q 5691 2819 5691 2113 
L 5691 0 
L 5113 0 
L 5113 2094 
Q 5113 2597 4934 2840 
Q 4756 3084 4391 3084 
Q 3944 3084 3684 2787 
Q 3425 2491 3425 1978 
L 3425 0 
L 2847 0 
L 2847 2094 
Q 2847 2600 2669 2842 
Q 2491 3084 2119 3084 
Q 1678 3084 1418 2786 
Q 1159 2488 1159 1978 
L 1159 0 
L 581 0 
L 581 3500 
L 1159 3500 
L 1159 2956 
Q 1356 3278 1631 3431 
Q 1906 3584 2284 3584 
Q 2666 3584 2933 3390 
Q 3200 3197 3328 2828 
z
" transform="scale(0.015625)"/>
       <path id="DejaVuSans-69" d="M 603 3500 
L 1178 3500 
L 1178 0 
L 603 0 
L 603 3500 
z
M 603 4863 
L 1178 4863 
L 1178 4134 
L 603 4134 
L 603 4863 
z
" transform="scale(0.015625)"/>
       <path id="DejaVuSans-73" d="M 2834 3397 
L 2834 2853 
Q 2591 2978 2328 3040 
Q 2066 3103 1784 3103 
Q 1356 3103 1142 2972 
Q 928 2841 928 2578 
Q 928 2378 1081 2264 
Q 1234 2150 1697 2047 
L 1894 2003 
Q 2506 1872 2764 1633 
Q 3022 1394 3022 966 
Q 3022 478 2636 193 
Q 2250 -91 1575 -91 
Q 1294 -91 989 -36 
Q 684 19 347 128 
L 347 722 
Q 666 556 975 473 
Q 1284 391 1588 391 
Q 1994 391 2212 530 
Q 2431 669 2431 922 
Q 2431 1156 2273 1281 
Q 2116 1406 1581 1522 
L 1381 1569 
Q 847 1681 609 1914 
Q 372 2147 372 2553 
Q 372 3047 722 3315 
Q 1072 3584 1716 3584 
Q 2034 3584 2315 3537 
Q 2597 3491 2834 3397 
z
" transform="scale(0.015625)"/>
      </defs>
      <use xlink:href="#DejaVuSans-50"/>
      <use xlink:href="#DejaVuSans-65" x="56.677734"/>
      <use xlink:href="#DejaVuSans-72" x="118.201172"/>
      <use xlink:href="#DejaVuSans-63" x="157.064453"/>
      <use xlink:href="#DejaVuSans-65" x="212.044922"/>
      <use xlink:href="#DejaVuSans-6e" x="273.568359"/>
      <use xlink:href="#DejaVuSans-74" x="336.947266"/>
      <use xlink:href="#DejaVuSans-61" x="376.15625"/>
      <use xlink:href="#DejaVuSans-67" x="437.435547"/>
      <use xlink:href="#DejaVuSans-65" x="500.912109"/>
      <use xlink:href="#DejaVuSans-20" x="562.435547"/>
      <use xlink:href="#DejaVuSans-4f" x="594.222656"/>
      <use xlink:href="#DejaVuSans-66" x="672.933594"/>
      <use xlink:href="#DejaVuSans-20" x="708.138672"/>
      <use xlink:href="#DejaVuSans-44" x="739.925781"/>
      <use xlink:href="#DejaVuSans-6f" x="816.927734"/>
      <use xlink:href="#DejaVuSans-6d" x="878.109375"/>
      <use xlink:href="#DejaVuSans-61" x="975.521484"/>
      <use xlink:href="#DejaVuSans-69" x="1036.800781"/>
      <use xlink:href="#DejaVuSans-6e" x="1064.583984"/>
      <use xlink:href="#DejaVuSans-73" x="1127.962891"/>
     </g>
    </g>
   </g>
   <g id="line2d_32">
    <path d="M 73.85004 130.128233 
L 77.733467 130.027873 
L 79.675181 129.678481 
L 82.587752 129.63818 
L 83.558609 129.692657 
L 88.412893 129.423542 
L 95.208892 129.212617 
L 98.121462 129.159397 
L 100.063176 128.909415 
L 106.859174 128.233119 
L 107.830031 128.108162 
L 109.771745 127.986876 
L 119.480314 127.122267 
L 125.305455 127.00461 
L 129.188883 126.940239 
L 130.15974 127.277736 
L 133.07231 126.898197 
L 135.014024 126.911021 
L 136.955738 127.127332 
L 137.926595 127.068916 
L 140.839166 127.15342 
L 145.69345 126.424208 
L 146.664307 126.287601 
L 147.635164 126.030875 
L 148.606021 125.9294 
L 161.22716 123.516062 
L 163.168874 123.556048 
L 165.110588 123.249719 
L 167.052302 123.94649 
L 168.023159 124.439578 
L 168.994016 125.157322 
L 169.964872 123.981722 
L 170.935729 124.096349 
L 172.877443 123.691579 
L 173.8483 123.526979 
L 175.790014 122.840866 
L 177.731728 122.771914 
L 179.673441 122.687623 
L 180.644298 122.906503 
L 181.615155 123.333987 
L 183.556869 123.825919 
L 185.498583 123.938094 
L 191.323724 123.957293 
L 192.294581 123.940419 
L 195.207152 123.788607 
L 196.178009 123.862612 
L 197.148865 124.710635 
L 198.119722 124.817211 
L 211.711719 123.962012 
L 214.62429 123.903955 
L 216.566003 123.862542 
L 220.449431 123.824018 
L 223.362002 123.60006 
L 231.128857 123.277828 
L 233.070571 123.336722 
L 234.041427 123.251804 
L 236.953998 123.123424 
L 237.924855 123.243509 
L 241.808283 123.083139 
L 245.69171 122.910734 
L 246.662567 122.725337 
L 247.633424 122.859055 
L 248.604281 122.234748 
L 254.429422 122.126378 
L 256.371136 122.132451 
L 260.254564 122.114727 
L 263.167134 121.955699 
L 268.992276 121.835861 
L 271.904846 121.716222 
L 273.84656 121.730522 
L 275.788274 121.563014 
L 278.700845 121.500579 
L 280.642558 121.461585 
L 282.584272 121.293949 
L 305.884838 120.764025 
L 334.039688 119.755562 
L 335.981401 119.652737 
L 344.719113 119.190744 
L 347.631684 119.162529 
L 350.544255 118.912229 
L 368.990536 118.347672 
L 371.903106 118.070566 
L 372.873963 118.154139 
L 377.728248 117.798368 
L 378.699105 117.814087 
L 379.669962 117.68011 
L 380.640818 117.378933 
L 381.611675 117.750367 
L 382.582532 117.772497 
L 384.524246 117.576426 
L 389.378531 117.52818 
L 390.349387 117.374234 
L 397.145386 117.283223 
L 398.116243 117.544274 
L 399.087099 117.114208 
L 401.028813 117.044667 
L 404.912241 117.015345 
L 406.853955 117.046013 
L 407.824812 116.874401 
L 415.591667 116.989911 
L 418.504237 116.505501 
L 421.416808 116.421279 
L 425.300236 116.267653 
L 427.241949 116.174933 
L 431.125377 116.144919 
L 434.037948 115.405085 
L 435.008805 116.005946 
L 435.979661 116.082291 
L 436.950518 115.943982 
L 438.892232 115.916868 
L 448.600801 115.667159 
L 449.571658 115.748467 
L 453.455086 115.58043 
L 455.396799 115.58452 
L 458.30937 115.460254 
L 460.251084 115.305111 
L 461.221941 115.308374 
L 462.192798 115.183166 
L 463.163655 115.290534 
L 467.047082 115.162746 
L 469.959653 115.272026 
L 472.872223 115.08236 
L 474.813937 115.098274 
L 475.784794 115.206741 
L 479.668222 115.128883 
L 479.668222 115.128883 
" clip-path="url(#p8c75437163)" style="fill: none; stroke: #008000; stroke-width: 1.5; stroke-linecap: square"/>
   </g>
   <g id="line2d_33">
    <path d="M 73.85004 131.688945 
L 80.646038 131.388092 
L 83.558609 131.45782 
L 84.529466 131.475082 
L 85.500323 131.345663 
L 91.325464 131.45957 
L 97.150605 131.573921 
L 98.121462 131.695809 
L 100.063176 131.741372 
L 104.917461 132.105802 
L 107.830031 132.38942 
L 109.771745 132.538017 
L 111.713459 132.600084 
L 129.188883 133.201995 
L 130.15974 133.102657 
L 131.130597 133.376874 
L 133.07231 133.189788 
L 140.839166 133.184538 
L 146.664307 133.64965 
L 147.635164 133.859988 
L 148.606021 133.940742 
L 160.256303 135.626071 
L 164.139731 135.808928 
L 165.110588 136.315082 
L 166.081445 135.867029 
L 168.994016 135.502667 
L 169.964872 135.841783 
L 171.906586 135.944377 
L 178.702584 136.390476 
L 180.644298 136.328597 
L 181.615155 136.112295 
L 192.294581 135.552202 
L 196.178009 135.551316 
L 197.148865 135.316274 
L 198.119722 135.303876 
L 223.362002 135.664463 
L 230.158 135.944031 
L 234.041427 135.909919 
L 241.808283 135.9633 
L 245.69171 136.454833 
L 246.662567 137.133163 
L 247.633424 136.521535 
L 248.604281 138.425235 
L 255.400279 138.461993 
L 258.31285 138.458486 
L 261.22542 138.549689 
L 266.079705 138.554336 
L 267.050562 138.724569 
L 270.933989 138.693167 
L 274.817417 138.798146 
L 275.788274 138.97919 
L 280.642558 138.851953 
L 281.613415 139.055682 
L 284.525986 139.024822 
L 290.351127 139.066087 
L 291.321984 139.011147 
L 292.292841 139.171919 
L 294.234555 139.222991 
L 296.176269 139.088045 
L 299.088839 139.077425 
L 301.030553 139.215581 
L 305.884838 139.086165 
L 335.981401 140.564411 
L 340.835686 140.702599 
L 343.748257 140.790664 
L 368.990536 141.527582 
L 371.903106 141.689336 
L 373.84482 141.674572 
L 379.669962 142.105289 
L 380.640818 143.051648 
L 381.611675 142.371539 
L 382.582532 142.022109 
L 383.553389 142.165804 
L 385.495103 142.069369 
L 390.349387 142.210463 
L 392.291101 142.272072 
L 395.203672 142.301955 
L 398.116243 142.554907 
L 399.087099 142.415004 
L 403.941384 142.562519 
L 404.912241 142.63933 
L 405.883098 142.499154 
L 406.853955 142.476978 
L 407.824812 142.797638 
L 408.795668 142.711106 
L 410.737382 142.885905 
L 412.679096 142.833219 
L 416.562524 142.919672 
L 418.504237 142.98451 
L 424.329379 143.075963 
L 426.271093 143.181866 
L 428.212806 143.110656 
L 431.125377 143.254792 
L 434.037948 145.038143 
L 435.008805 143.213774 
L 435.979661 143.084646 
L 436.950518 143.451836 
L 437.921375 143.243574 
L 439.863089 143.203013 
L 445.68823 143.38163 
L 446.659087 143.325791 
L 448.600801 143.402514 
L 449.571658 143.343689 
L 450.542515 143.556302 
L 451.513372 143.447715 
L 452.484229 143.530255 
L 454.425942 143.438964 
L 456.367656 143.465278 
L 458.30937 143.539185 
L 460.251084 143.462592 
L 461.221941 143.41738 
L 462.192798 143.761261 
L 463.163655 143.489589 
L 464.134511 143.599024 
L 465.105368 143.492301 
L 467.047082 143.561713 
L 472.872223 143.68067 
L 477.726508 143.966033 
L 479.668222 143.930818 
L 479.668222 143.930818 
" clip-path="url(#p8c75437163)" style="fill: none; stroke: #ffa500; stroke-width: 1.5; stroke-linecap: square"/>
   </g>
   <g id="line2d_34">
    <path d="M 73.85004 182.355829 
L 479.668222 182.357831 
L 479.668222 182.357831 
" clip-path="url(#p8c75437163)" style="fill: none; stroke: #ff0000; stroke-width: 1.5; stroke-linecap: square"/>
   </g>
   <g id="line2d_35">
    <path d="M 73.85004 181.692057 
L 170.935729 181.833438 
L 196.178009 181.841395 
L 220.449431 181.846156 
L 248.604281 181.876593 
L 388.407674 181.993909 
L 479.668222 182.039239 
L 479.668222 182.039239 
" clip-path="url(#p8c75437163)" style="fill: none; stroke: #000000; stroke-width: 1.5; stroke-linecap: square"/>
   </g>
   <g id="patch_3">
    <path d="M 53.559131 182.359219 
L 53.559131 10.999219 
" style="fill: none; stroke: #000000; stroke-width: 0.8; stroke-linejoin: miter; stroke-linecap: square"/>
   </g>
   <g id="patch_4">
    <path d="M 499.959131 182.359219 
L 499.959131 10.999219 
" style="fill: none; stroke: #000000; stroke-width: 0.8; stroke-linejoin: miter; stroke-linecap: square"/>
   </g>
   <g id="patch_5">
    <path d="M 53.559131 182.359219 
L 499.959131 182.359219 
" style="fill: none; stroke: #000000; stroke-width: 0.8; stroke-linejoin: miter; stroke-linecap: square"/>
   </g>
   <g id="patch_6">
    <path d="M 53.559131 10.999219 
L 499.959131 10.999219 
" style="fill: none; stroke: #000000; stroke-width: 0.8; stroke-linejoin: miter; stroke-linecap: square"/>
   </g>
   <g id="legend_1">
    <g id="patch_7">
     <path d="M 245.382568 177.359219 
L 308.135693 177.359219 
Q 310.135693 177.359219 310.135693 175.359219 
L 310.135693 117.646719 
Q 310.135693 115.646719 308.135693 115.646719 
L 245.382568 115.646719 
Q 243.382568 115.646719 243.382568 117.646719 
L 243.382568 175.359219 
Q 243.382568 177.359219 245.382568 177.359219 
z
" style="fill: #ffffff; opacity: 0.8; stroke: #cccccc; stroke-linejoin: miter"/>
    </g>
    <g id="line2d_36">
     <path d="M 247.382568 123.745156 
L 257.382568 123.745156 
L 267.382568 123.745156 
" style="fill: none; stroke: #008000; stroke-width: 1.5; stroke-linecap: square"/>
    </g>
    <g id="text_25">
     <!-- TLS13 -->
     <g transform="translate(275.382568 127.245156)scale(0.1 -0.1)">
      <defs>
       <path id="DejaVuSans-54" d="M -19 4666 
L 3928 4666 
L 3928 4134 
L 2272 4134 
L 2272 0 
L 1638 0 
L 1638 4134 
L -19 4134 
L -19 4666 
z
" transform="scale(0.015625)"/>
       <path id="DejaVuSans-4c" d="M 628 4666 
L 1259 4666 
L 1259 531 
L 3531 531 
L 3531 0 
L 628 0 
L 628 4666 
z
" transform="scale(0.015625)"/>
      </defs>
      <use xlink:href="#DejaVuSans-54"/>
      <use xlink:href="#DejaVuSans-4c" x="61.083984"/>
      <use xlink:href="#DejaVuSans-53" x="116.796875"/>
      <use xlink:href="#DejaVuSans-31" x="180.273438"/>
      <use xlink:href="#DejaVuSans-33" x="243.896484"/>
     </g>
    </g>
    <g id="line2d_37">
     <path d="M 247.382568 138.423281 
L 257.382568 138.423281 
L 267.382568 138.423281 
" style="fill: none; stroke: #ffa500; stroke-width: 1.5; stroke-linecap: square"/>
    </g>
    <g id="text_26">
     <!-- TLS12 -->
     <g transform="translate(275.382568 141.923281)scale(0.1 -0.1)">
      <use xlink:href="#DejaVuSans-54"/>
      <use xlink:href="#DejaVuSans-4c" x="61.083984"/>
      <use xlink:href="#DejaVuSans-53" x="116.796875"/>
      <use xlink:href="#DejaVuSans-31" x="180.273438"/>
      <use xlink:href="#DejaVuSans-32" x="243.896484"/>
     </g>
    </g>
    <g id="line2d_38">
     <path d="M 247.382568 153.101406 
L 257.382568 153.101406 
L 267.382568 153.101406 
" style="fill: none; stroke: #ff0000; stroke-width: 1.5; stroke-linecap: square"/>
    </g>
    <g id="text_27">
     <!-- TLS11 -->
     <g transform="translate(275.382568 156.601406)scale(0.1 -0.1)">
      <use xlink:href="#DejaVuSans-54"/>
      <use xlink:href="#DejaVuSans-4c" x="61.083984"/>
      <use xlink:href="#DejaVuSans-53" x="116.796875"/>
      <use xlink:href="#DejaVuSans-31" x="180.273438"/>
      <use xlink:href="#DejaVuSans-31" x="243.896484"/>
     </g>
    </g>
    <g id="line2d_39">
     <path d="M 247.382568 167.779531 
L 257.382568 167.779531 
L 267.382568 167.779531 
" style="fill: none; stroke: #000000; stroke-width: 1.5; stroke-linecap: square"/>
    </g>
    <g id="text_28">
     <!-- TLS10 -->
     <g transform="translate(275.382568 171.279531)scale(0.1 -0.1)">
      <use xlink:href="#DejaVuSans-54"/>
      <use xlink:href="#DejaVuSans-4c" x="61.083984"/>
      <use xlink:href="#DejaVuSans-53" x="116.796875"/>
      <use xlink:href="#DejaVuSans-31" x="180.273438"/>
      <use xlink:href="#DejaVuSans-30" x="243.896484"/>
     </g>
    </g>
   </g>
  </g>
 </g>
 <defs>
  <clipPath id="p8c75437163">
   <rect x="53.559131" y="10.999219" width="446.4" height="171.36"/>
  </clipPath>
 </defs>
</svg>
